<?xml version="1.0" standalone="no"?>
<!DOCTYPE svg PUBLIC "-//W3C//DTD SVG 20010904//EN"
 "http://www.w3.org/TR/2001/REC-SVG-20010904/DTD/svg10.dtd">
<svg version="1.0" xmlns="http://www.w3.org/2000/svg"
 width="700.000000pt" height="700.000000pt" viewBox="0 0 700.000000 700.000000"
 preserveAspectRatio="xMidYMid meet">
<metadata>
Created by potrace 1.11, written by Peter Selinger 2001-2013
</metadata>
<g transform="translate(0.000000,700.000000) scale(0.100000,-0.100000)"
fill="#000000" stroke="none">
<path d="M2477 3507 c-460 -1041 -837 -1896 -837 -1900 0 -4 138 -6 307 -5
l308 3 837 1895 c461 1042 838 1896 838 1897 0 2 -139 3 -308 3 l-308 0 -837
-1893z"/>
<path d="M4707 5323 c-56 -124 -1638 -3654 -1654 -3691 l-13 -32 313 0 313 0
819 1828 c450 1005 834 1860 852 1900 l32 72 -313 0 -313 0 -36 -77z"/>
</g>
</svg>
