<svg width="66" height="65" viewBox="0 0 66 65" fill="none" xmlns="http://www.w3.org/2000/svg">
<rect x="0.898438" width="65" height="65" rx="15.1163" fill="#F3F7FF"/>
<path d="M24.4219 54.432C23.8434 54.432 23.3496 54.3262 22.9405 54.1145C22.5313 53.9029 22.168 53.5961 21.8506 53.194L22.5278 52.5168C22.7606 52.8412 23.0287 53.0881 23.332 53.2575C23.6353 53.4197 24.0092 53.5008 24.4536 53.5008C24.891 53.5008 25.2402 53.4056 25.5012 53.2151C25.7692 53.0247 25.9033 52.7637 25.9033 52.4321C25.9033 52.157 25.8398 51.9348 25.7128 51.7655C25.5858 51.5962 25.413 51.4586 25.1943 51.3528C24.9827 51.2399 24.7499 51.1412 24.4959 51.0565C24.242 50.9648 23.988 50.8696 23.7341 50.7708C23.4801 50.665 23.2473 50.538 23.0357 50.3899C22.8241 50.2347 22.6513 50.0337 22.5172 49.7868C22.3902 49.5399 22.3268 49.2295 22.3268 48.8556C22.3268 48.4394 22.4255 48.0867 22.623 47.7975C22.8276 47.5012 23.1027 47.2754 23.4484 47.1202C23.8011 46.958 24.1961 46.8769 24.6335 46.8769C25.1132 46.8769 25.5435 46.9721 25.9244 47.1626C26.3054 47.346 26.6157 47.5893 26.8556 47.8927L26.1784 48.5699C25.9597 48.3159 25.7234 48.1255 25.4694 47.9985C25.2225 47.8715 24.9368 47.808 24.6123 47.808C24.2173 47.808 23.9034 47.8962 23.6706 48.0726C23.4378 48.2419 23.3214 48.4817 23.3214 48.7921C23.3214 49.039 23.3849 49.24 23.5119 49.3952C23.6459 49.5434 23.8187 49.6704 24.0304 49.7762C24.242 49.882 24.4748 49.9807 24.7287 50.0725C24.9897 50.1571 25.2472 50.2523 25.5012 50.3581C25.7551 50.464 25.9879 50.598 26.1995 50.7602C26.4112 50.9225 26.5805 51.1341 26.7075 51.3951C26.8415 51.6491 26.9085 51.97 26.9085 52.358C26.9085 53.007 26.6828 53.5149 26.2313 53.8818C25.7869 54.2486 25.1837 54.432 24.4219 54.432ZM30.3885 54.432C29.8876 54.432 29.4362 54.3191 29.0341 54.0934C28.632 53.8606 28.3145 53.5467 28.0818 53.1516C27.849 52.7566 27.7326 52.3087 27.7326 51.8078C27.7326 51.314 27.8454 50.8696 28.0712 50.4745C28.304 50.0795 28.6144 49.7691 29.0023 49.5434C29.3974 49.3106 29.8383 49.1942 30.325 49.1942C30.7906 49.1942 31.1997 49.3 31.5525 49.5116C31.9122 49.7233 32.1909 50.016 32.3884 50.3899C32.593 50.7638 32.6952 51.187 32.6952 51.6597C32.6952 51.7302 32.6917 51.8078 32.6847 51.8925C32.6776 51.97 32.6635 52.0618 32.6423 52.1676H28.3992V51.374H32.1344L31.7852 51.6808C31.7852 51.3422 31.7253 51.0565 31.6054 50.8237C31.4854 50.5839 31.3161 50.4005 31.0975 50.2735C30.8788 50.1395 30.6142 50.0725 30.3038 50.0725C29.9794 50.0725 29.6937 50.143 29.4468 50.2841C29.1999 50.4252 29.0094 50.6227 28.8754 50.8766C28.7413 51.1306 28.6743 51.4304 28.6743 51.7761C28.6743 52.1288 28.7449 52.4392 28.8859 52.7072C29.027 52.9682 29.2281 53.1728 29.4891 53.3209C29.7501 53.462 30.0499 53.5326 30.3885 53.5326C30.6707 53.5326 30.9282 53.4832 31.1609 53.3844C31.4008 53.2857 31.6054 53.1375 31.7747 52.94L32.3884 53.5643C32.1485 53.8465 31.8523 54.0616 31.4995 54.2098C31.1539 54.3579 30.7835 54.432 30.3885 54.432ZM37.3422 54.3262V51.3951C37.3422 51.0142 37.2223 50.7003 36.9824 50.4534C36.7426 50.2065 36.4322 50.083 36.0512 50.083C35.7973 50.083 35.5716 50.1395 35.374 50.2523C35.1765 50.3652 35.0213 50.5204 34.9085 50.7179C34.7956 50.9154 34.7392 51.1412 34.7392 51.3951L34.3476 51.1729C34.3476 50.792 34.4323 50.4534 34.6016 50.1571C34.7709 49.8608 35.0072 49.628 35.3105 49.4587C35.6139 49.2824 35.956 49.1942 36.3369 49.1942C36.7179 49.1942 37.0529 49.2894 37.3422 49.4799C37.6385 49.6704 37.8712 49.9208 38.0405 50.2312C38.2098 50.5345 38.2945 50.859 38.2945 51.2047V54.3262H37.3422ZM33.7868 54.3262V49.3H34.7392V54.3262H33.7868ZM41.7639 54.432C41.2983 54.432 40.8821 54.3191 40.5153 54.0934C40.1485 53.8606 39.8557 53.5467 39.6371 53.1516C39.4254 52.7566 39.3196 52.3122 39.3196 51.8184C39.3196 51.3246 39.4254 50.8802 39.6371 50.4851C39.8557 50.0901 40.1485 49.7762 40.5153 49.5434C40.8821 49.3106 41.2983 49.1942 41.7639 49.1942C42.1378 49.1942 42.4764 49.2753 42.7797 49.4376C43.0831 49.5928 43.3264 49.8114 43.5098 50.0936C43.7003 50.3687 43.8061 50.6897 43.8273 51.0565V52.5697C43.8061 52.9294 43.7038 53.2504 43.5204 53.5326C43.337 53.8147 43.0936 54.0369 42.7903 54.1992C42.487 54.3544 42.1448 54.432 41.7639 54.432ZM41.9226 53.5326C42.2401 53.5326 42.5152 53.4585 42.748 53.3104C42.9878 53.1622 43.1748 52.9612 43.3088 52.7072C43.4428 52.4462 43.5098 52.1499 43.5098 51.8184C43.5098 51.4727 43.4393 51.1729 43.2982 50.919C43.1642 50.665 42.9772 50.464 42.7374 50.3158C42.5046 50.1677 42.2295 50.0936 41.9121 50.0936C41.5946 50.0936 41.316 50.1677 41.0761 50.3158C40.8363 50.464 40.6458 50.6685 40.5047 50.9295C40.3707 51.1835 40.3037 51.4762 40.3037 51.8078C40.3037 52.1464 40.3707 52.4462 40.5047 52.7072C40.6458 52.9612 40.8363 53.1622 41.0761 53.3104C41.323 53.4585 41.6052 53.5326 41.9226 53.5326ZM44.4093 54.3262H43.4464V52.9718L43.6262 51.7443L43.4464 50.5275V46.7711H44.4093V54.3262Z" fill="#5388F0"/>
<path d="M38.6758 11.5896H28.1196C23.5343 11.5896 20.8008 14.3231 20.8008 18.9084V29.452C20.8008 34.0499 23.5343 36.7834 28.1196 36.7834H38.6632C43.2485 36.7834 45.982 34.0499 45.982 29.4646V18.9084C45.9946 14.3231 43.2611 11.5896 38.6758 11.5896ZM29.1651 25.2068L34.6826 19.6894H31.6215C31.105 19.6894 30.6768 19.2611 30.6768 18.7446C30.6768 18.2282 31.105 17.7999 31.6215 17.7999H36.9626C37.0886 17.7999 37.2019 17.8251 37.3279 17.8755C37.5547 17.9762 37.7436 18.1526 37.8444 18.3919C37.8948 18.5053 37.92 18.6313 37.92 18.7572V24.0983C37.92 24.6148 37.4917 25.0431 36.9752 25.0431C36.4587 25.0431 36.0304 24.6148 36.0304 24.0983V21.0373L30.5004 26.5421C30.3114 26.7311 30.0721 26.8193 29.8328 26.8193C29.5934 26.8193 29.3541 26.7311 29.1651 26.5421C28.7998 26.1768 28.7998 25.5722 29.1651 25.2068ZM41.2581 30.7621C38.7262 31.6061 36.0682 32.0344 33.3977 32.0344C30.7271 32.0344 28.0692 31.6061 25.5372 30.7621C25.0459 30.5983 24.7814 30.0567 24.9452 29.5654C25.1089 29.0741 25.638 28.797 26.1419 28.9733C30.8279 30.5353 35.98 30.5353 40.6661 28.9733C41.1574 28.8096 41.699 29.0741 41.8628 29.5654C42.014 30.0693 41.7494 30.5983 41.2581 30.7621Z" fill="url(#paint0_linear_367_156355)"/>
<defs>
<linearGradient id="paint0_linear_367_156355" x1="20.8008" y1="11.5896" x2="49.3846" y2="16.3492" gradientUnits="userSpaceOnUse">
<stop stop-color="#5388F0"/>
<stop offset="1" stop-color="#6BB0EF"/>
</linearGradient>
</defs>
</svg>
