<svg width="66" height="55" viewBox="0 0 66 55" fill="none" xmlns="http://www.w3.org/2000/svg">
<g filter="url(#filter0_b_367_156598)">
<mask id="path-1-outside-1_367_156598" maskUnits="userSpaceOnUse" x="0.898438" y="0" width="45" height="45" fill="black">
<rect fill="white" x="0.898438" width="45" height="45"/>
<path d="M23.2451 1C10.8674 1 1.89844 11.0981 1.89844 22.304C1.89844 25.8831 2.94234 29.5687 4.77448 32.9348C5.11535 33.4887 5.15796 34.1917 4.92361 34.8521L3.49624 39.6242C3.17668 40.7746 4.15667 41.6268 5.24317 41.2859L9.54659 40.0077C10.7183 39.6242 11.6344 40.1142 12.723 40.7746C15.8334 42.6068 19.7086 43.5442 23.2025 43.5442C33.7693 43.5442 44.5065 35.3847 44.5065 22.2401C44.5065 10.9064 35.3458 1 23.2451 1Z"/>
</mask>
<path d="M23.2451 1C10.8674 1 1.89844 11.0981 1.89844 22.304C1.89844 25.8831 2.94234 29.5687 4.77448 32.9348C5.11535 33.4887 5.15796 34.1917 4.92361 34.8521L3.49624 39.6242C3.17668 40.7746 4.15667 41.6268 5.24317 41.2859L9.54659 40.0077C10.7183 39.6242 11.6344 40.1142 12.723 40.7746C15.8334 42.6068 19.7086 43.5442 23.2025 43.5442C33.7693 43.5442 44.5065 35.3847 44.5065 22.2401C44.5065 10.9064 35.3458 1 23.2451 1Z" fill="url(#paint0_linear_367_156598)" fill-opacity="0.5"/>
<path d="M23.2451 1.91406C23.7499 1.91406 24.1591 1.50482 24.1591 1C24.1591 0.495179 23.7499 0.0859399 23.2451 0.0859399V1.91406ZM4.77448 32.9348L3.97165 33.3717C3.97939 33.386 3.98752 33.4 3.99602 33.4138L4.77448 32.9348ZM4.92361 34.8521L4.06218 34.5464C4.05705 34.5609 4.05228 34.5755 4.04789 34.5902L4.92361 34.8521ZM3.49624 39.6242L2.62051 39.3623C2.6188 39.368 2.61713 39.3738 2.61553 39.3796L3.49624 39.6242ZM5.24317 41.2859L4.98288 40.4096L4.96956 40.4138L5.24317 41.2859ZM9.54659 40.0077L9.80685 40.8839C9.8149 40.8815 9.82292 40.879 9.8309 40.8764L9.54659 40.0077ZM12.723 40.7746L12.2489 41.5562L12.2591 41.5622L12.723 40.7746ZM23.2451 0.0859399C22.7403 0.0859399 22.331 0.495179 22.331 1C22.331 1.50482 22.7403 1.91406 23.2451 1.91406V0.0859399ZM23.2451 0.0859399C10.3325 0.0859399 0.984377 10.6239 0.984377 22.304H2.8125C2.8125 11.5723 11.4023 1.91406 23.2451 1.91406V0.0859399ZM0.984377 22.304C0.984377 26.0577 2.07774 29.8922 3.97165 33.3717L5.57732 32.4978C3.80693 29.2452 2.8125 25.7086 2.8125 22.304H0.984377ZM3.99602 33.4138C4.16983 33.6963 4.21911 34.1042 4.06218 34.5464L5.78505 35.1578C6.0968 34.2792 6.06086 33.2811 5.55295 32.4557L3.99602 33.4138ZM4.04789 34.5902L2.62051 39.3623L4.37197 39.8862L5.79934 35.1141L4.04789 34.5902ZM2.61553 39.3796C2.36917 40.2665 2.61597 41.1269 3.22288 41.6864C3.81954 42.2364 4.68185 42.42 5.51679 42.1581L4.96956 40.4138C4.71799 40.4927 4.54705 40.4207 4.46198 40.3423C4.38717 40.2733 4.30375 40.1324 4.37695 39.8689L2.61553 39.3796ZM5.50344 42.1622L9.80685 40.8839L9.28632 39.1315L4.98291 40.4097L5.50344 42.1622ZM9.8309 40.8764C10.5632 40.6368 11.1371 40.8817 12.2489 41.5561L13.1971 39.9931C12.1316 39.3468 10.8735 38.6117 9.26228 39.139L9.8309 40.8764ZM12.2591 41.5622C15.5243 43.4856 19.5629 44.4582 23.2025 44.4582V42.6301C19.8544 42.6301 16.1425 41.728 13.1869 39.9871L12.2591 41.5622ZM23.2025 44.4582C34.2004 44.4582 45.4206 35.9602 45.4206 22.2401H43.5925C43.5925 34.8092 33.3381 42.6301 23.2025 42.6301V44.4582ZM45.4206 22.2401C45.4206 10.422 35.8708 0.0859399 23.2451 0.0859399V1.91406C34.8208 1.91406 43.5925 11.3908 43.5925 22.2401H45.4206Z" fill="url(#paint1_linear_367_156598)" mask="url(#path-1-outside-1_367_156598)"/>
</g>
<g filter="url(#filter1_bd_367_156598)">
<mask id="path-3-inside-2_367_156598" fill="white">
<path fill-rule="evenodd" clip-rule="evenodd" d="M13.3382 25.0522C11.847 25.0522 10.6113 23.8166 10.6113 22.3253C10.6113 20.8127 11.8257 19.5984 13.3382 19.5984C14.8508 19.5984 16.0652 20.8127 16.0652 22.3253C16.0652 23.8166 14.8508 25.0309 13.3382 25.0522ZM23.1572 25.0525C21.6447 25.0312 20.4303 23.8169 20.4303 22.3043C20.4303 20.813 21.666 19.5774 23.1572 19.5987C24.6698 19.5987 25.8842 20.813 25.8842 22.3256C25.8842 23.8169 24.6698 25.0525 23.1572 25.0525ZM30.2529 22.3253C30.2529 23.8166 31.4672 25.0522 32.9798 25.0522C34.4924 25.0522 35.7067 23.8166 35.7067 22.3253C35.7067 20.8127 34.4924 19.5984 32.9798 19.5984C31.4672 19.5984 30.2529 20.8127 30.2529 22.3253Z"/>
</mask>
<path fill-rule="evenodd" clip-rule="evenodd" d="M13.3382 25.0522C11.847 25.0522 10.6113 23.8166 10.6113 22.3253C10.6113 20.8127 11.8257 19.5984 13.3382 19.5984C14.8508 19.5984 16.0652 20.8127 16.0652 22.3253C16.0652 23.8166 14.8508 25.0309 13.3382 25.0522ZM23.1572 25.0525C21.6447 25.0312 20.4303 23.8169 20.4303 22.3043C20.4303 20.813 21.666 19.5774 23.1572 19.5987C24.6698 19.5987 25.8842 20.813 25.8842 22.3256C25.8842 23.8169 24.6698 25.0525 23.1572 25.0525ZM30.2529 22.3253C30.2529 23.8166 31.4672 25.0522 32.9798 25.0522C34.4924 25.0522 35.7067 23.8166 35.7067 22.3253C35.7067 20.8127 34.4924 19.5984 32.9798 19.5984C31.4672 19.5984 30.2529 20.8127 30.2529 22.3253Z" fill="url(#paint2_linear_367_156598)"/>
<path d="M13.3382 25.0522V25.9664L13.3511 25.9662L13.3382 25.0522ZM23.1572 25.0525L23.1444 25.9666H23.1572V25.0525ZM23.1572 19.5987L23.1442 20.5127H23.1572V19.5987ZM9.69727 22.3253C9.69727 24.3214 11.3421 25.9663 13.3382 25.9663V24.1382C12.3518 24.1382 11.5254 23.3118 11.5254 22.3253H9.69727ZM13.3382 18.6843C11.3208 18.6843 9.69727 20.3079 9.69727 22.3253H11.5254C11.5254 21.3175 12.3305 20.5124 13.3382 20.5124V18.6843ZM16.9792 22.3253C16.9792 20.3079 15.3557 18.6843 13.3382 18.6843V20.5124C14.346 20.5124 15.1511 21.3175 15.1511 22.3253H16.9792ZM13.3511 25.9662C15.3514 25.938 16.9792 24.3284 16.9792 22.3253H15.1511C15.1511 23.3048 14.3503 24.1238 13.3254 24.1383L13.3511 25.9662ZM19.5163 22.3043C19.5163 24.3241 21.1395 25.9382 23.1444 25.9665L23.1701 24.1385C22.1498 24.1242 21.3444 23.3096 21.3444 22.3043H19.5163ZM23.1703 18.6847C21.1614 18.656 19.5163 20.3108 19.5163 22.3043H21.3444C21.3444 21.3152 22.1705 20.4987 23.1442 20.5126L23.1703 18.6847ZM26.7982 22.3256C26.7982 20.3082 25.1747 18.6846 23.1572 18.6846V20.5127C24.165 20.5127 24.9701 21.3178 24.9701 22.3256H26.7982ZM23.1572 25.9666C25.1793 25.9666 26.7982 24.317 26.7982 22.3256H24.9701C24.9701 23.3167 24.1604 24.1384 23.1572 24.1384V25.9666ZM32.9798 24.1382C31.9767 24.1382 31.167 23.3164 31.167 22.3253H29.3389C29.3389 24.3168 30.9578 25.9663 32.9798 25.9663V24.1382ZM34.7927 22.3253C34.7927 23.3164 33.983 24.1382 32.9798 24.1382V25.9663C35.0019 25.9663 36.6208 24.3168 36.6208 22.3253H34.7927ZM32.9798 20.5124C33.9876 20.5124 34.7927 21.3175 34.7927 22.3253H36.6208C36.6208 20.3079 34.9972 18.6843 32.9798 18.6843V20.5124ZM31.167 22.3253C31.167 21.3175 31.9721 20.5124 32.9798 20.5124V18.6843C30.9624 18.6843 29.3389 20.3079 29.3389 22.3253H31.167Z" fill="url(#paint3_linear_367_156598)" mask="url(#path-3-inside-2_367_156598)"/>
</g>
<defs>
<filter id="filter0_b_367_156598" x="-17.2968" y="-18.1953" width="80.998" height="80.9347" filterUnits="userSpaceOnUse" color-interpolation-filters="sRGB">
<feFlood flood-opacity="0" result="BackgroundImageFix"/>
<feGaussianBlur in="BackgroundImageFix" stdDeviation="9.1406"/>
<feComposite in2="SourceAlpha" operator="in" result="effect1_backgroundBlur_367_156598"/>
<feBlend mode="normal" in="SourceGraphic" in2="effect1_backgroundBlur_367_156598" result="shape"/>
</filter>
<filter id="filter1_bd_367_156598" x="-18.876" y="-9.88897" width="84.0704" height="64.4288" filterUnits="userSpaceOnUse" color-interpolation-filters="sRGB">
<feFlood flood-opacity="0" result="BackgroundImageFix"/>
<feGaussianBlur in="BackgroundImageFix" stdDeviation="14.7437"/>
<feComposite in2="SourceAlpha" operator="in" result="effect1_backgroundBlur_367_156598"/>
<feColorMatrix in="SourceAlpha" type="matrix" values="0 0 0 0 0 0 0 0 0 0 0 0 0 0 0 0 0 0 127 0" result="hardAlpha"/>
<feOffset dx="9.82912" dy="9.82912"/>
<feGaussianBlur stdDeviation="9.82912"/>
<feColorMatrix type="matrix" values="0 0 0 0 0.125 0 0 0 0 0.125 0 0 0 0 0.125 0 0 0 1 0"/>
<feBlend mode="normal" in2="effect1_backgroundBlur_367_156598" result="effect2_dropShadow_367_156598"/>
<feBlend mode="normal" in="SourceGraphic" in2="effect2_dropShadow_367_156598" result="shape"/>
</filter>
<linearGradient id="paint0_linear_367_156598" x1="-5.63473" y1="-24.2197" x2="42.7005" y2="43.4053" gradientUnits="userSpaceOnUse">
<stop stop-color="#959597"/>
<stop offset="1" stop-color="#959597" stop-opacity="0"/>
</linearGradient>
<linearGradient id="paint1_linear_367_156598" x1="3.96556" y1="0.999999" x2="40.6938" y2="41.7655" gradientUnits="userSpaceOnUse">
<stop stop-color="#959597" stop-opacity="0.2"/>
<stop offset="0.565262" stop-color="#EAEAEC" stop-opacity="0.4"/>
<stop offset="1" stop-color="#959597" stop-opacity="0.05"/>
</linearGradient>
<linearGradient id="paint2_linear_367_156598" x1="30.6531" y1="19.6597" x2="19.3924" y2="30.446" gradientUnits="userSpaceOnUse">
<stop stop-color="#F4F4F6"/>
<stop offset="1" stop-color="#F4F4F6" stop-opacity="0.3"/>
</linearGradient>
<linearGradient id="paint3_linear_367_156598" x1="11.8288" y1="19.5984" x2="13.6168" y2="28.716" gradientUnits="userSpaceOnUse">
<stop stop-color="#959597" stop-opacity="0.2"/>
<stop offset="0.565262" stop-color="#EAEAEC" stop-opacity="0.4"/>
<stop offset="1" stop-color="#959597" stop-opacity="0.05"/>
</linearGradient>
</defs>
</svg>
