<svg width="130" height="130" viewBox="0 0 130 130" fill="none" xmlns="http://www.w3.org/2000/svg">
<circle cx="64.7265" cy="64.7265" r="64.7265" fill="white"/>
<path fill-rule="evenodd" clip-rule="evenodd" d="M89.5182 41.6351C81.6576 39.205 71.4282 39.0461 60.765 41.9449L58.7592 34.5664C70.5978 31.3481 82.324 31.4077 91.7766 34.33C101.184 37.2381 108.866 43.2011 111.294 52.1052C113.721 61.0057 110.146 70.065 103.496 77.3677C96.8146 84.7056 86.6904 90.7237 74.7377 93.9417L72.7499 86.5584C83.5174 83.6594 92.2904 78.3173 97.8427 72.2197C103.427 66.0869 105.422 59.6353 103.917 54.1171C102.413 48.6026 97.4246 44.0793 89.5182 41.6351ZM46.4357 65.7824L48.1834 67.967L48.6203 68.1855C49.0572 68.404 55.8296 61.4131 55.8296 61.4131L56.485 62.0685L63.4759 68.6224L78.9868 53.7669L81.6084 55.5146L83.3561 46.7761L74.3991 48.7422L76.5837 51.3638L63.6943 62.9424L56.485 56.17L46.4357 65.7824ZM71.7774 79.5451H80.7344V57.2618L71.7774 65.3449V79.5451ZM48.6202 72.1176V79.5454H56.4849V64.2529L48.6202 72.1176ZM60.1986 69.0587V79.545H68.5002V67.9664L63.9125 71.8987L60.1986 69.0587ZM27.2753 75.3378C25.8363 70.0612 27.7186 63.7959 33.2269 57.7466C38.6985 51.7376 47.3749 46.4438 58.0578 43.5676L55.786 35.1295C43.7487 38.3704 33.528 44.4367 26.7656 51.8632C20.04 59.2494 16.3514 68.495 18.8447 77.6371C21.3391 86.7833 29.2137 92.8491 38.7278 95.7904C48.2941 98.7478 60.1272 98.8003 72.0498 95.5593L69.7574 87.1267C59.1782 90.0026 49.0557 89.8367 41.3088 87.4417C33.5096 85.0306 28.7133 80.6102 27.2753 75.3378Z" fill="#282828"/>
</svg>
