<svg width="100" height="113" viewBox="0 0 100 113" fill="none" xmlns="http://www.w3.org/2000/svg">
<g filter="url(#filter0_b_367_156595)">
<mask id="path-1-outside-1_367_156595" maskUnits="userSpaceOnUse" x="-1.27042" y="-0.145269" width="102.634" height="115.18" fill="black">
<rect fill="white" x="-1.27042" y="-0.145269" width="102.634" height="115.18"/>
<path d="M42.4816 106.46C41.869 106.366 41.2782 106.131 40.7694 105.76L24.3743 93.799C19.7225 90.4023 16.2204 86.8547 13.6596 82.9554C8.05358 74.4267 5.77228 64.2346 7.24628 54.2525L12.0853 21.3963C12.643 17.6042 15.6111 14.5799 19.4633 13.8615L53.9254 7.48811C55.9743 7.09316 58.142 7.41662 60.0161 8.39006L91.1548 24.4553C94.6412 26.2477 96.607 30.0059 96.0451 33.7924L91.2023 66.6729C89.7356 76.6412 84.6207 85.7355 76.803 92.2841C73.2161 95.2877 68.8381 97.668 63.423 99.5661L44.3188 106.281C43.7255 106.492 43.0949 106.549 42.4816 106.46Z"/>
</mask>
<path d="M42.4816 106.46C41.869 106.366 41.2782 106.131 40.7694 105.76L24.3743 93.799C19.7225 90.4023 16.2204 86.8547 13.6596 82.9554C8.05358 74.4267 5.77228 64.2346 7.24628 54.2525L12.0853 21.3963C12.643 17.6042 15.6111 14.5799 19.4633 13.8615L53.9254 7.48811C55.9743 7.09316 58.142 7.41662 60.0161 8.39006L91.1548 24.4553C94.6412 26.2477 96.607 30.0059 96.0451 33.7924L91.2023 66.6729C89.7356 76.6412 84.6207 85.7355 76.803 92.2841C73.2161 95.2877 68.8381 97.668 63.423 99.5661L44.3188 106.281C43.7255 106.492 43.0949 106.549 42.4816 106.46Z" fill="url(#paint0_linear_367_156595)" fill-opacity="0.9"/>
<path d="M42.3296 107.448C42.8754 107.532 43.386 107.158 43.47 106.612C43.5539 106.066 43.1795 105.555 42.6336 105.471L42.3296 107.448ZM40.7694 105.76L41.3588 104.952L41.3587 104.952L40.7694 105.76ZM24.3743 93.799L23.7845 94.6066L23.7849 94.6069L24.3743 93.799ZM13.6596 82.9554L14.4954 82.4064L14.4952 82.4061L13.6596 82.9554ZM7.24628 54.2525L8.23556 54.3986L8.23561 54.3982L7.24628 54.2525ZM12.0853 21.3963L13.0746 21.542L13.0746 21.5418L12.0853 21.3963ZM19.4633 13.8615L19.2814 12.8782L19.28 12.8785L19.4633 13.8615ZM53.9254 7.48811L54.1073 8.47146L54.1147 8.47003L53.9254 7.48811ZM60.0161 8.39006L59.5552 9.27749L59.5576 9.27876L60.0161 8.39006ZM91.1548 24.4553L90.6963 25.344L90.6975 25.3446L91.1548 24.4553ZM96.0451 33.7924L95.0559 33.6456L95.0557 33.6467L96.0451 33.7924ZM91.2023 66.6729L90.213 66.5272L90.213 66.5273L91.2023 66.6729ZM76.803 92.2841L77.445 93.0508L77.4451 93.0507L76.803 92.2841ZM63.423 99.5661L63.0922 98.6224L63.0914 98.6227L63.423 99.5661ZM44.3188 106.281L43.9873 105.337L43.9829 105.339L44.3188 106.281ZM42.6258 105.47C42.0792 105.391 41.5717 105.769 41.492 106.316C41.4124 106.862 41.7909 107.37 42.3374 107.449L42.6258 105.47ZM42.6336 105.471C42.1713 105.4 41.732 105.224 41.3588 104.952L40.18 106.567C40.8243 107.038 41.5668 107.331 42.3296 107.448L42.6336 105.471ZM41.3587 104.952L24.9636 92.9911L23.7849 94.6069L40.18 106.567L41.3587 104.952ZM24.964 92.9914C20.3875 89.6497 16.9772 86.1854 14.4954 82.4064L12.8237 83.5043C15.4636 87.5241 19.0574 91.1549 23.7845 94.6066L24.964 92.9914ZM14.4952 82.4061C9.02207 74.0796 6.79792 64.1344 8.23556 54.3986L6.25701 54.1065C4.74664 64.3348 7.08508 74.7739 12.8239 83.5046L14.4952 82.4061ZM8.23561 54.3982L13.0746 21.542L11.0959 21.2506L6.25696 54.1068L8.23561 54.3982ZM13.0746 21.5418C13.568 18.1869 16.1998 15.4874 19.6466 14.8446L19.28 12.8785C15.0223 13.6725 11.7179 17.0215 11.0959 21.2508L13.0746 21.5418ZM19.6452 14.8449L54.1073 8.47143L53.7436 6.50478L19.2815 12.8782L19.6452 14.8449ZM54.1147 8.47003C55.9382 8.11852 57.8773 8.40593 59.5552 9.27749L60.4771 7.50264C58.4068 6.42731 56.0103 6.06781 53.7361 6.50618L54.1147 8.47003ZM59.5576 9.27876L90.6963 25.344L91.6133 23.5666L60.4746 7.50137L59.5576 9.27876ZM90.6975 25.3446C93.8149 26.9473 95.5531 30.2957 95.0559 33.6456L97.0342 33.9392C97.661 29.7161 95.4676 25.5481 91.612 23.5659L90.6975 25.3446ZM95.0557 33.6467L90.213 66.5272L92.1917 66.8186L97.0344 33.9381L95.0557 33.6467ZM90.213 66.5273C88.7824 76.2496 83.7932 85.1242 76.1608 91.5175L77.4451 93.0507C85.4481 86.3469 90.6887 77.0327 92.1917 66.8185L90.213 66.5273ZM76.1609 91.5174C72.6849 94.4282 68.4191 96.7552 63.0922 98.6224L63.7538 100.51C69.2571 98.5808 73.7473 96.1471 77.445 93.0508L76.1609 91.5174ZM63.0914 98.6227L43.9873 105.337L44.6504 107.224L63.7545 100.51L63.0914 98.6227ZM43.9829 105.339C43.5479 105.494 43.0824 105.537 42.6258 105.47L42.3374 107.449C43.1073 107.562 43.9032 107.491 44.6548 107.223L43.9829 105.339Z" fill="url(#paint1_linear_367_156595)" fill-opacity="0.8" mask="url(#path-1-outside-1_367_156595)"/>
</g>
<g filter="url(#filter1_bd_367_156595)">
<path d="M44.5272 67.8918C43.5703 67.7496 42.6671 67.2581 42.039 66.4366L33.9596 55.8592C32.7134 54.2177 33.052 51.9162 34.7205 50.713C36.3897 49.5049 38.7574 49.8542 40.0094 51.4916L45.8234 59.0989L65.0073 45.2367C66.6815 44.0294 69.0492 44.3786 70.2962 46.0153C71.5474 47.6576 71.208 49.964 69.5403 51.1623L47.3279 67.2153C46.4904 67.8213 45.4841 68.034 44.5272 67.8918Z" fill="url(#paint2_linear_367_156595)"/>
<path d="M34.9252 50.9968L34.9257 50.9965C36.441 49.8998 38.5944 50.2172 39.7314 51.7041C39.7314 51.7042 39.7314 51.7042 39.7315 51.7042L45.5454 59.3114L45.7522 59.5821L46.0283 59.3826L65.2119 45.5205C66.7329 44.4237 68.8863 44.7422 70.0178 46.2274C71.1506 47.7142 70.8425 49.7957 69.3361 50.8781L69.3353 50.8787L47.123 66.9316L47.1228 66.9318C46.3634 67.4813 45.4501 67.6752 44.5786 67.5457C43.7059 67.416 42.8864 66.9687 42.3171 66.2242C42.317 66.2242 42.317 66.2241 42.317 66.2241L34.2383 55.6476C34.2382 55.6475 34.2381 55.6473 34.238 55.6472C33.1103 54.1614 33.4173 52.0842 34.9252 50.9968Z" stroke="url(#paint3_linear_367_156595)" stroke-opacity="0.8" stroke-width="0.699869"/>
</g>
<defs>
<filter id="filter0_b_367_156595" x="-14.1914" y="-13.6763" width="131.332" height="141.177" filterUnits="userSpaceOnUse" color-interpolation-filters="sRGB">
<feFlood flood-opacity="0" result="BackgroundImageFix"/>
<feGaussianBlur in="BackgroundImageFix" stdDeviation="10"/>
<feComposite in2="SourceAlpha" operator="in" result="effect1_backgroundBlur_367_156595"/>
<feBlend mode="normal" in="SourceGraphic" in2="effect1_backgroundBlur_367_156595" result="shape"/>
</filter>
<filter id="filter1_bd_367_156595" x="10.6314" y="21.9402" width="82.997" height="68.5717" filterUnits="userSpaceOnUse" color-interpolation-filters="sRGB">
<feFlood flood-opacity="0" result="BackgroundImageFix"/>
<feGaussianBlur in="BackgroundImageFix" stdDeviation="11.2888"/>
<feComposite in2="SourceAlpha" operator="in" result="effect1_backgroundBlur_367_156595"/>
<feColorMatrix in="SourceAlpha" type="matrix" values="0 0 0 0 0 0 0 0 0 0 0 0 0 0 0 0 0 0 127 0" result="hardAlpha"/>
<feOffset dx="7.52587" dy="7.52587"/>
<feGaussianBlur stdDeviation="7.52587"/>
<feColorMatrix type="matrix" values="0 0 0 0 0.252344 0 0 0 0 0.7125 0 0 0 0 0.466615 0 0 0 0.4 0"/>
<feBlend mode="normal" in2="effect1_backgroundBlur_367_156595" result="effect2_dropShadow_367_156595"/>
<feBlend mode="normal" in="SourceGraphic" in2="effect2_dropShadow_367_156595" result="shape"/>
</filter>
<linearGradient id="paint0_linear_367_156595" x1="25.9389" y1="5.87288" x2="123.63" y2="56.0678" gradientUnits="userSpaceOnUse">
<stop stop-color="#5FE29C"/>
<stop offset="0.894918" stop-color="#F4F4F6"/>
</linearGradient>
<linearGradient id="paint1_linear_367_156595" x1="26.8362" y1="14.5796" x2="92.3915" y2="81.0036" gradientUnits="userSpaceOnUse">
<stop stop-color="#5FE29C"/>
<stop offset="0.9375" stop-color="white"/>
</linearGradient>
<linearGradient id="paint2_linear_367_156595" x1="64.2266" y1="44.3104" x2="34.1475" y2="48.1458" gradientUnits="userSpaceOnUse">
<stop stop-color="white"/>
<stop offset="1" stop-color="white" stop-opacity="0.3"/>
</linearGradient>
<linearGradient id="paint3_linear_367_156595" x1="40.6294" y1="43.5144" x2="57.0725" y2="70.9584" gradientUnits="userSpaceOnUse">
<stop stop-color="#5FE29C"/>
<stop offset="0.9375" stop-color="white"/>
</linearGradient>
</defs>
</svg>
