<svg width="104" height="115" viewBox="0 0 104 115" fill="none" xmlns="http://www.w3.org/2000/svg">
<g filter="url(#filter0_b_367_144469)">
<mask id="path-1-outside-1_367_144469" maskUnits="userSpaceOnUse" x="0.654297" y="16.6016" width="97" height="98" fill="black">
<rect fill="white" x="0.654297" y="16.6016" width="97" height="98"/>
<path fill-rule="evenodd" clip-rule="evenodd" d="M69.2817 45.5418L39.4866 75.536L4.60363 54.0659C0.0327551 51.252 0.959215 44.3101 6.10849 42.8155L88.4661 18.8511C93.1496 17.4957 97.4799 21.8866 96.0774 26.5919L71.6414 108.865C70.1109 114.013 63.247 114.905 60.4727 110.308L39.4866 75.536"/>
</mask>
<path fill-rule="evenodd" clip-rule="evenodd" d="M69.2817 45.5418L39.4866 75.536L4.60363 54.0659C0.0327551 51.252 0.959215 44.3101 6.10849 42.8155L88.4661 18.8511C93.1496 17.4957 97.4799 21.8866 96.0774 26.5919L71.6414 108.865C70.1109 114.013 63.247 114.905 60.4727 110.308L39.4866 75.536" fill="url(#paint0_linear_367_144469)" fill-opacity="0.5"/>
<path d="M69.9912 46.2465C70.3804 45.8547 70.3783 45.2216 69.9865 44.8323C69.5947 44.4431 68.9615 44.4452 68.5723 44.837L69.9912 46.2465ZM39.4866 75.536L38.9624 76.3876C39.3579 76.631 39.8688 76.5701 40.1961 76.2407L39.4866 75.536ZM4.60363 54.0659L4.07939 54.9175L4.07947 54.9175L4.60363 54.0659ZM6.10849 42.8155L6.38723 43.7759L6.38788 43.7757L6.10849 42.8155ZM88.4661 18.8511L88.1881 17.8905L88.1867 17.8909L88.4661 18.8511ZM96.0774 26.5919L95.1191 26.3062L95.1188 26.3071L96.0774 26.5919ZM71.6414 108.865L72.5999 109.149L72.6 109.149L71.6414 108.865ZM60.4727 110.308L61.3289 109.791L61.3289 109.791L60.4727 110.308ZM40.3428 75.0192C40.0574 74.5464 39.4427 74.3944 38.9699 74.6798C38.497 74.9652 38.3451 75.5798 38.6305 76.0527L40.3428 75.0192ZM68.5723 44.837L38.7772 74.8312L40.1961 76.2407L69.9912 46.2465L68.5723 44.837ZM40.0108 74.6843L5.12779 53.2143L4.07947 54.9175L38.9624 76.3876L40.0108 74.6843ZM5.12787 53.2143C1.29067 50.8521 2.07681 45.027 6.38723 43.7759L5.82974 41.8551C-0.158378 43.5932 -1.22516 51.6519 4.07939 54.9175L5.12787 53.2143ZM6.38788 43.7757L88.7455 19.8113L88.1867 17.8909L5.82909 41.8553L6.38788 43.7757ZM88.7441 19.8117C92.6571 18.6792 96.2987 22.3487 95.1191 26.3062L97.0357 26.8775C98.6611 21.4244 93.642 16.3121 88.1881 17.8905L88.7441 19.8117ZM95.1188 26.3071L70.6828 108.58L72.6 109.149L97.036 26.8766L95.1188 26.3071ZM70.6829 108.58C69.3983 112.901 63.6514 113.639 61.3289 109.791L59.6165 110.824C62.8426 116.17 70.8236 115.125 72.5999 109.149L70.6829 108.58ZM61.3289 109.791L40.3428 75.0192L38.6305 76.0527L59.6165 110.824L61.3289 109.791Z" fill="url(#paint1_linear_367_144469)" mask="url(#path-1-outside-1_367_144469)"/>
</g>
<g filter="url(#filter1_bd_367_144469)">
<rect x="45.0898" y="65.9536" width="32.4017" height="5.5865" rx="2.79325" transform="rotate(-45 45.0898 65.9536)" fill="url(#paint2_linear_367_144469)"/>
<rect x="45.797" y="65.9536" width="31.4017" height="4.5865" rx="2.29325" transform="rotate(-45 45.797 65.9536)" stroke="url(#paint3_linear_367_144469)"/>
</g>
<defs>
<filter id="filter0_b_367_144469" x="-19.3457" y="-2.40039" width="136.691" height="136.694" filterUnits="userSpaceOnUse" color-interpolation-filters="sRGB">
<feFlood flood-opacity="0" result="BackgroundImageFix"/>
<feGaussianBlur in="BackgroundImageFix" stdDeviation="10"/>
<feComposite in2="SourceAlpha" operator="in" result="effect1_backgroundBlur_367_144469"/>
<feBlend mode="normal" in="SourceGraphic" in2="effect1_backgroundBlur_367_144469" result="shape"/>
</filter>
<filter id="filter1_bd_367_144469" x="13.9863" y="11.9395" width="89.0684" height="89.0674" filterUnits="userSpaceOnUse" color-interpolation-filters="sRGB">
<feFlood flood-opacity="0" result="BackgroundImageFix"/>
<feGaussianBlur in="BackgroundImageFix" stdDeviation="16.1299"/>
<feComposite in2="SourceAlpha" operator="in" result="effect1_backgroundBlur_367_144469"/>
<feColorMatrix in="SourceAlpha" type="matrix" values="0 0 0 0 0 0 0 0 0 0 0 0 0 0 0 0 0 0 127 0" result="hardAlpha"/>
<feOffset dx="10.7533" dy="10.7533"/>
<feGaussianBlur stdDeviation="10.7533"/>
<feColorMatrix type="matrix" values="0 0 0 0 0.125 0 0 0 0 0.125 0 0 0 0 0.125 0 0 0 1 0"/>
<feBlend mode="normal" in2="effect1_backgroundBlur_367_144469" result="effect2_dropShadow_367_144469"/>
<feBlend mode="normal" in="SourceGraphic" in2="effect2_dropShadow_367_144469" result="shape"/>
</filter>
<linearGradient id="paint0_linear_367_144469" x1="-15.0872" y1="-37.5303" x2="92.5454" y2="112.831" gradientUnits="userSpaceOnUse">
<stop stop-color="#959597"/>
<stop offset="1" stop-color="#959597" stop-opacity="0"/>
</linearGradient>
<linearGradient id="paint1_linear_367_144469" x1="6.24823" y1="18.6016" x2="88.0075" y2="109.212" gradientUnits="userSpaceOnUse">
<stop stop-color="#959597" stop-opacity="0.2"/>
<stop offset="0.565262" stop-color="#EAEAEC" stop-opacity="0.4"/>
<stop offset="1" stop-color="#959597" stop-opacity="0.05"/>
</linearGradient>
<linearGradient id="paint2_linear_367_144469" x1="70.9666" y1="66.0164" x2="59.6239" y2="79.712" gradientUnits="userSpaceOnUse">
<stop stop-color="#F4F4F6"/>
<stop offset="1" stop-color="#F4F4F6" stop-opacity="0.3"/>
</linearGradient>
<linearGradient id="paint3_linear_367_144469" x1="46.6618" y1="65.9536" x2="48.1349" y2="75.4226" gradientUnits="userSpaceOnUse">
<stop stop-color="#959597" stop-opacity="0.2"/>
<stop offset="0.565262" stop-color="#EAEAEC" stop-opacity="0.4"/>
<stop offset="1" stop-color="#959597" stop-opacity="0.05"/>
</linearGradient>
</defs>
</svg>
