<svg width="184" height="36" viewBox="0 0 184 36" fill="none" xmlns="http://www.w3.org/2000/svg">
<path fill-rule="evenodd" clip-rule="evenodd" d="M21.47 0.972656L6.43693 35.0471H0.898438L15.9315 0.972656H21.47ZM19.0971 35.0471L34.1301 0.972656H28.5916L13.5586 35.0471H19.0971ZM47.7023 4.25509H37.6381V30.8398H43.7146V22.4846H47.7023C52.9433 22.4846 57.007 18.421 57.007 13.3699C57.007 8.31876 52.9433 4.25509 47.7023 4.25509ZM47.7023 16.7879H43.7146V9.95183H47.7023C49.5632 9.95183 50.9304 11.433 50.9304 13.3699C50.9304 15.3068 49.5632 16.7879 47.7023 16.7879ZM72.4961 11.8507V22.2188C72.4961 24.9152 71.053 26.1305 68.9642 26.1305C67.1412 26.1305 65.6601 25.0292 65.6601 22.6745V11.8507H59.9633V23.51C59.9633 28.6371 63.2294 31.3715 67.0652 31.3715C69.5718 31.3715 71.4707 30.4601 72.4961 29.0549V30.8398H78.1929V11.8507H72.4961ZM88.4473 15.2308V11.8507H82.7505V30.8398H88.4473V22.2568C88.4473 18.4969 91.7894 17.5475 94.144 17.9273V11.471C91.7514 11.471 89.2068 12.6863 88.4473 15.2308ZM102.883 15.2308V11.8507H97.1867V30.8398H102.883V22.2568C102.883 18.4969 106.226 17.5475 108.58 17.9273V11.471C106.188 11.471 103.643 12.6863 102.883 15.2308ZM132.511 11.8507L129.776 22.0289L126.814 11.8507H121.497L118.535 22.0289L115.8 11.8507H109.724L115.8 30.8398H121.117L124.156 20.6997L127.194 30.8398H132.511L138.587 11.8507H132.511ZM145.575 23.624H159.058C159.21 22.9024 159.286 22.1428 159.286 21.3453C159.286 15.6106 155.184 11.319 149.639 11.319C143.639 11.319 139.537 15.6865 139.537 21.3453C139.537 27.004 143.563 31.3715 150.057 31.3715C153.665 31.3715 156.475 30.0423 158.336 27.4598L153.779 24.8393C153.019 25.6748 151.69 26.2825 150.133 26.2825C148.044 26.2825 146.297 25.5989 145.575 23.624ZM145.461 19.3704C145.993 17.4335 147.436 16.3701 149.601 16.3701C151.31 16.3701 153.019 17.1677 153.627 19.3704H145.461ZM174.252 11.319C171.707 11.319 169.846 12.1925 168.593 13.6357V4.25509H162.896V30.8398H168.593V29.0549C169.846 30.498 171.707 31.3715 174.252 31.3715C179.227 31.3715 183.329 27.004 183.329 21.3453C183.329 15.6865 179.227 11.319 174.252 11.319ZM173.113 25.9786C170.492 25.9786 168.593 24.1937 168.593 21.3453C168.593 18.4969 170.492 16.7119 173.113 16.7119C175.733 16.7119 177.632 18.4969 177.632 21.3453C177.632 24.1937 175.733 25.9786 173.113 25.9786Z" fill="#F4F4F6"/>
</svg>
