<svg width="178" height="180" viewBox="0 0 178 180" fill="none" xmlns="http://www.w3.org/2000/svg">
<g filter="url(#filter0_b_367_156291)">
<path d="M131.443 117.708C128.576 119.31 126.681 122.211 126.371 125.456L122.726 170.473C122.414 174.288 119.879 177.573 116.243 178.883C112.647 180.287 108.57 179.512 105.751 176.913L72.1276 146.626C70.9624 145.558 69.5588 144.783 68.0291 144.341C66.4399 143.929 64.7911 143.496 63.1877 143.861C63.1431 143.871 63.0985 143.882 63.054 143.893L18.6205 154.067C16.4349 154.529 14.1596 154.304 12.1102 153.409C7.15698 151.08 4.99326 145.25 7.23544 140.273L26.5502 99.314C27.9072 96.3117 27.7104 92.851 26.0238 90.0321L2.3812 51.213C0.404551 47.964 0.505963 43.8799 2.64745 40.7259C4.75138 37.5714 8.43783 35.8264 12.2272 36.2006L57.6852 41.2384C61.1056 41.7599 64.5664 40.5076 66.8568 37.9246L96.6191 3.68848C97.3104 2.93334 98.1151 2.28232 99.0105 1.78557L99.0994 1.74779C99.6764 1.50256 100.223 1.18484 100.795 0.929814C101.373 0.672518 102.005 0.58029 102.634 0.519982L102.741 0.509766C103.838 0.361979 104.952 0.42842 106.021 0.705337L108.11 1.24632C111.331 2.44482 113.722 5.16586 114.462 8.49635L123.581 52.6155C124.228 55.8377 126.438 58.5306 129.471 59.8301L171.566 77.4675C175.125 78.9499 177.541 82.2845 177.832 86.0966C178.051 89.8993 176.029 93.486 172.642 95.3086L131.443 117.708Z" fill="#1E1E1E" fill-opacity="0.2"/>
<path d="M131.203 117.272L131.197 117.275C128.186 118.958 126.197 122.003 125.871 125.411L125.87 125.418L122.225 170.434C121.929 174.054 119.524 177.172 116.073 178.415L116.073 178.415L116.06 178.42C112.646 179.754 108.772 179.017 106.094 176.548L106.089 176.544L72.4693 146.26C72.4689 146.259 72.4686 146.259 72.4682 146.259C71.2445 145.138 69.7725 144.326 68.1715 143.863L68.1646 143.861L68.1576 143.859L68.0688 143.836C66.5287 143.437 64.7891 142.986 63.0768 143.376C63.0306 143.386 62.9844 143.397 62.9384 143.409C62.9368 143.409 62.9352 143.41 62.9336 143.41L18.5174 153.58C18.516 153.581 18.5145 153.581 18.513 153.581C16.4336 154.019 14.2698 153.806 12.3205 152.956C7.61901 150.741 5.56492 145.206 7.69223 140.478C7.69281 140.477 7.69338 140.476 7.69395 140.474L27.0051 99.5234L27.0051 99.5234L27.0084 99.5161C28.4322 96.3662 28.2258 92.7351 26.4561 89.7772L26.4541 89.7738L2.81157 50.9549C0.935243 47.8708 1.03194 43.9954 3.06387 41.0028L3.06616 40.9993C5.06666 38 8.57085 36.341 12.1727 36.6956C12.1737 36.6957 12.1747 36.6958 12.1757 36.6959L57.6175 41.7319C61.2047 42.2752 64.8322 40.9606 67.2336 38.2524L67.2368 38.2487L96.9948 4.01757C97.6455 3.3077 98.3987 2.69804 99.2319 2.23237L99.296 2.20512C99.602 2.07506 99.8967 1.92713 100.176 1.78551L100.235 1.75553C100.498 1.62262 100.747 1.49649 101 1.3837C101.498 1.16174 102.06 1.07484 102.681 1.01541L102.788 1.00519L102.798 1.00426L102.807 1.00296C103.839 0.863936 104.887 0.926435 105.893 1.18693L107.956 1.72132C111.006 2.86527 113.268 5.4457 113.97 8.60133C113.971 8.60255 113.971 8.60377 113.971 8.60499L123.088 52.7142C123.089 52.7147 123.089 52.7152 123.089 52.7157C123.768 56.0982 126.088 58.9236 129.271 60.2871L129.274 60.2887L171.369 77.9261L171.37 77.9265C174.755 79.3361 177.052 82.5066 177.331 86.1318C177.536 89.7393 175.618 93.1417 172.404 94.8714L172.402 94.8724L131.203 117.272Z" stroke="url(#paint0_linear_367_156291)"/>
</g>
<defs>
<filter id="filter0_b_367_156291" x="-24.0332" y="-24.5669" width="226.881" height="229.141" filterUnits="userSpaceOnUse" color-interpolation-filters="sRGB">
<feFlood flood-opacity="0" result="BackgroundImageFix"/>
<feGaussianBlur in="BackgroundImageFix" stdDeviation="12.5"/>
<feComposite in2="SourceAlpha" operator="in" result="effect1_backgroundBlur_367_156291"/>
<feBlend mode="normal" in="SourceGraphic" in2="effect1_backgroundBlur_367_156291" result="shape"/>
</filter>
<linearGradient id="paint0_linear_367_156291" x1="27.3445" y1="-19.671" x2="125.563" y2="184.138" gradientUnits="userSpaceOnUse">
<stop stop-color="#959597" stop-opacity="0.2"/>
<stop offset="0.565262" stop-color="#EAEAEC" stop-opacity="0.4"/>
<stop offset="1" stop-color="#959597" stop-opacity="0.05"/>
</linearGradient>
</defs>
</svg>
