<svg width="130" height="130" viewBox="0 0 130 130" fill="none" xmlns="http://www.w3.org/2000/svg">
<circle cx="64.7265" cy="64.7265" r="64.7265" fill="white"/>
<path fill-rule="evenodd" clip-rule="evenodd" d="M40.73 61.6272C40.5501 62.0604 40.4575 62.5249 40.4576 62.994H40.459V85.2543C40.4583 85.9833 40.1895 86.6866 39.704 87.2302C39.2184 87.7738 38.5499 88.1198 37.8258 88.2022C36.1623 88.3976 34.7629 88.5374 33.6389 88.6364C32.6329 88.7264 31.6221 88.5273 30.7252 88.0625C29.8284 87.5978 29.0827 86.8866 28.5759 86.0126C24.9007 79.6227 22.9773 72.3754 23.0002 65.0034C22.9979 41.7062 42.2426 22.6909 65.5288 23.0038C74.1642 23.1228 82.5521 25.9072 89.5456 30.9762C96.5392 36.0451 101.797 43.1513 104.6 51.3229C104.921 52.2572 105.006 53.2565 104.847 54.2316C104.688 55.2067 104.29 56.1272 103.689 56.9112C99.5465 62.3118 94.3262 66.8034 89.1754 70.5376V45.1878C89.1753 44.242 88.7997 43.335 88.1311 42.6662C87.4626 41.9975 86.5559 41.6218 85.6104 41.6218H79.6693C79.2012 41.6218 78.7377 41.714 78.3052 41.8932C77.8727 42.0725 77.4797 42.3351 77.1487 42.6663C76.8178 42.9974 76.5552 43.3905 76.3761 43.8232C76.197 44.2558 76.1048 44.7195 76.1048 45.1878V75.9728C76.1044 76.5574 75.9318 77.1289 75.6088 77.616C75.2858 78.1032 74.8265 78.4844 74.2883 78.7122C72.8389 79.324 71.3521 79.9264 71.3521 79.9264V54.1035C71.3519 53.1578 70.9763 52.2508 70.3078 51.5821C69.6393 50.9134 68.7327 50.5376 67.7873 50.5375H61.8462C61.378 50.5375 60.9144 50.6298 60.4819 50.8091C60.0493 50.9883 59.6563 51.2511 59.3253 51.5823C58.9942 51.9135 58.7316 52.3067 58.5525 52.7394C58.3734 53.1722 58.2812 53.636 58.2812 54.1043V81.9258C58.281 82.5954 58.0548 83.2453 57.6391 83.7702C57.2235 84.2951 56.6428 84.6642 55.9912 84.8176C55.0527 85.0378 54.1961 85.2489 53.5281 85.4468V63.0177C53.5281 62.072 53.1526 61.1649 52.4841 60.4962C51.8155 59.8274 50.9088 59.4517 49.9634 59.4517L44.034 59.4323C43.5651 59.4301 43.1003 59.5206 42.6665 59.6986C42.2326 59.8767 41.8382 60.1387 41.5059 60.4696C41.1735 60.8006 40.9099 61.194 40.73 61.6272ZM40.3294 98.9656C40.3291 98.9653 40.3288 98.9651 40.3284 98.9649L40.3281 98.9657C40.3286 98.9657 40.329 98.9656 40.3294 98.9656ZM40.3294 98.9656C46.5917 103.523 53.992 106.258 61.7118 106.869C69.432 107.48 77.1706 105.943 84.0716 102.427C90.9726 98.9116 96.767 93.5549 100.814 86.9496C104.86 80.3443 107.001 72.7479 107 65.0009C107 64.0338 106.955 63.0776 106.891 62.1265C91.5528 85.0088 63.2336 95.7066 40.3294 98.9656Z" fill="#282828"/>
</svg>
