<svg width="26" height="50" viewBox="0 0 26 50" fill="none" xmlns="http://www.w3.org/2000/svg">
<path d="M25.3081 15.8993V12.2722C25.3081 10.9556 24.5031 9.78798 23.2704 9.26628L0.503906 0V2.01225L20.8051 10.2848C21.5095 10.5581 21.5095 11.5518 20.8051 11.8251L0.503906 20.0977V28.1715L12.7299 23.1781L20.7799 26.4574C21.4843 26.7306 21.4843 27.7243 20.7799 27.9976L0.503906 36.2702V49.0641L23.2704 39.7978C24.5031 39.301 25.3081 38.1085 25.3081 36.7919V28.4696C25.3081 27.1529 24.5031 25.9853 23.2704 25.4637L15.1952 22.1844L23.2704 18.9052C24.5031 18.4084 25.3081 17.2159 25.3081 15.8993Z" fill="#EAEAEC"/>
</svg>
