<svg width="130" height="130" viewBox="0 0 130 130" fill="none" xmlns="http://www.w3.org/2000/svg">
<circle cx="64.7265" cy="64.7265" r="64.7265" fill="white"/>
<path fill-rule="evenodd" clip-rule="evenodd" d="M65.0938 107C88.2884 107 107.094 88.1947 107.094 65C107.094 41.8053 88.2933 23 65.0938 23C41.8991 23 23.0938 41.8053 23.0938 65C23.0938 88.1947 41.8991 107 65.0938 107ZM92.5151 69.5874V72.2929C92.5151 72.4482 92.4202 72.5863 92.2821 72.6467C91.4364 73.0092 88.5409 74.3382 87.337 76.0125C86.6673 76.9446 86.032 77.9641 85.3937 78.9885L85.3935 78.9888C83.1034 82.6641 80.7734 86.4033 76.67 86.4033H54.7794C47.0209 86.4033 40.7338 80.0947 40.7338 72.3101V72.0599C40.7338 71.8528 40.902 71.6845 41.1092 71.6845H53.3124C53.5539 71.6845 53.7309 71.9089 53.7094 72.1462C53.623 72.9401 53.7697 73.7514 54.1451 74.4893C54.8701 75.9608 56.3717 76.8799 57.9942 76.8799H64.0354V72.1635H58.0632C57.7569 72.1635 57.5757 71.8096 57.7526 71.5593C57.7884 71.5044 57.8269 71.4481 57.8673 71.389L57.8675 71.3887C57.9 71.3412 57.9338 71.2919 57.9683 71.2401C58.5336 70.4374 59.3405 69.1904 60.1432 67.7707C60.6912 66.8128 61.2219 65.7901 61.6491 64.7631C61.7283 64.5928 61.7929 64.4189 61.8564 64.248L61.8564 64.2479L61.8735 64.202C61.9039 64.1163 61.9347 64.0321 61.965 63.9489L61.9651 63.9488C62.0508 63.7139 62.1334 63.4876 62.1971 63.2614C62.2676 63.0501 62.3265 62.8303 62.3833 62.6182L62.3833 62.6181C62.392 62.5855 62.4007 62.5531 62.4093 62.521C62.4134 62.5059 62.4174 62.4909 62.4215 62.476C62.6244 61.6043 62.7106 60.6809 62.7106 59.723C62.7106 59.3476 62.6934 58.9549 62.6589 58.5795C62.6416 58.1696 62.5898 57.7596 62.538 57.3497C62.5035 56.9872 62.4388 56.629 62.3698 56.2536C62.2835 55.7056 62.1626 55.162 62.0245 54.6139L61.9771 54.4068C61.9462 54.295 61.9169 54.1848 61.8878 54.0752C61.8191 53.8166 61.7513 53.5615 61.6664 53.2978C61.3255 52.1197 60.9328 50.972 60.5186 49.8975C60.3675 49.4703 60.1949 49.0604 60.0223 48.6504C59.8223 48.1655 59.6195 47.7152 59.4266 47.2869C59.3741 47.1703 59.3223 47.0553 59.2715 46.9416C59.1507 46.7 59.0471 46.4799 58.9436 46.2555C58.827 46.0009 58.7063 45.7463 58.5854 45.5047C58.5515 45.4319 58.5156 45.361 58.4804 45.2913L58.4803 45.2912C58.4258 45.1835 58.3727 45.0787 58.3308 44.9739L57.5929 43.6104C57.4893 43.4248 57.662 43.2047 57.8647 43.2608L62.482 44.5122H62.4949C62.4999 44.5122 62.5035 44.5137 62.5065 44.5149C62.5086 44.5158 62.5104 44.5166 62.5121 44.5166L63.1205 44.6848L63.7894 44.8747L64.0354 44.9437V42.1993C64.0354 40.8746 65.0969 39.8001 66.4087 39.8001C67.0646 39.8001 67.6601 40.0677 68.0873 40.5035C68.5144 40.9393 68.782 41.5348 68.782 42.1993V46.2728L69.274 46.4108C69.3128 46.4239 69.3516 46.4411 69.3861 46.4669C69.4099 46.4848 69.4357 46.5043 69.4635 46.5254C69.4905 46.5459 69.5193 46.5678 69.5499 46.5912C69.648 46.6659 69.7649 46.755 69.8996 46.8554C69.9695 46.9112 70.0415 46.9721 70.1173 47.0362C70.2288 47.1304 70.3486 47.2316 70.4821 47.3343C70.9266 47.6924 71.4574 48.1542 72.0399 48.685C72.1952 48.8187 72.3463 48.9568 72.4844 49.0949C73.2352 49.7939 74.0767 50.6138 74.8793 51.52C75.1036 51.7746 75.3237 52.0335 75.5481 52.3053C75.6275 52.4031 75.7086 52.5003 75.7894 52.5972L75.7894 52.5972C75.9368 52.774 76.0832 52.9496 76.2169 53.1252C76.267 53.192 76.3179 53.2593 76.3691 53.327C76.5957 53.6266 76.8291 53.9354 77.0368 54.2558C77.0894 54.3365 77.1452 54.4181 77.2011 54.4997C77.2737 54.6057 77.3464 54.7119 77.4122 54.8167C77.7402 55.3129 78.0293 55.8265 78.3055 56.34C78.422 56.5773 78.5428 56.8362 78.6463 57.0908C78.9527 57.7769 79.1944 58.4759 79.3497 59.175C79.3971 59.326 79.4317 59.49 79.449 59.6367V59.6712C79.5007 59.8783 79.518 60.0984 79.5352 60.3228C79.6043 61.0391 79.5698 61.7554 79.4144 62.476C79.3497 62.7824 79.2634 63.0715 79.1598 63.3779L79.1252 63.4764C79.0328 63.7394 78.9378 64.0099 78.819 64.2668C78.5601 64.8666 78.2536 65.4664 77.8912 66.0274C77.7747 66.2345 77.6366 66.4546 77.4985 66.6617C77.4248 66.7691 77.35 66.8734 77.2768 66.9757C77.2 67.0829 77.1247 67.1879 77.054 67.2917C76.8642 67.5506 76.6614 67.8224 76.4543 68.0641C76.2687 68.3187 76.0789 68.5733 75.8717 68.7977C75.5826 69.1385 75.3064 69.4622 75.0173 69.7729C74.8448 69.9757 74.6592 70.1828 74.4693 70.3684C74.3102 70.546 74.1479 70.7077 73.996 70.859L73.9213 70.9336C73.6322 71.2228 73.3905 71.4471 73.1877 71.6327L72.7131 72.0686C72.644 72.1289 72.5534 72.1635 72.4585 72.1635H68.782V76.8799H73.4078C74.4434 76.8799 75.4273 76.5131 76.2213 75.8399L76.2426 75.8213L76.2427 75.8212C76.5508 75.5525 77.7138 74.538 79.0821 73.0265C79.1296 72.9747 79.1901 72.9359 79.2591 72.9186L92.0361 69.2249C92.2735 69.1559 92.5151 69.337 92.5151 69.5874ZM43.8148 66.4108L43.996 66.1259L54.9219 49.0338C55.0816 48.7836 55.4569 48.8094 55.5777 49.0812C57.4031 53.172 58.9781 58.2595 58.2402 61.4268C57.9252 62.73 57.0622 64.4948 56.0912 66.1259C55.9662 66.3633 55.8281 66.5963 55.6813 66.8207C55.6123 66.9243 55.4958 66.9847 55.3706 66.9847H44.1341C43.832 66.9847 43.6551 66.6567 43.8148 66.4108Z" fill="#282828"/>
</svg>
