<svg width="63" height="62" viewBox="0 0 63 62" fill="none" xmlns="http://www.w3.org/2000/svg">
<path d="M31.5617 35.8149C34.4004 35.8149 36.7016 33.5137 36.7016 30.675C36.7016 27.8363 34.4004 25.5352 31.5617 25.5352C28.7231 25.5352 26.4219 27.8363 26.4219 30.675C26.4219 33.5137 28.7231 35.8149 31.5617 35.8149Z" fill="#EAEAEC"/>
<path d="M31.5639 42.4507C24.3456 42.4507 18.0385 41.6008 13.3184 39.9831C10.257 38.9388 7.65638 37.5463 5.80316 35.9593C3.83732 34.2801 2.79297 32.4474 2.79297 30.6761C2.79297 27.2768 6.51988 23.9492 12.7758 21.7786C17.8951 19.9971 24.5708 19.0039 31.5536 19.0039C38.4136 19.0039 44.9971 19.9663 50.0858 21.7274C53.0653 22.7513 55.5738 24.0823 57.3553 25.5567C59.2904 27.1744 60.3143 28.9457 60.3143 30.6761C60.3143 34.2085 56.1471 37.7818 49.4305 40.0036C44.6797 41.5804 38.3317 42.4507 31.5639 42.4507ZM31.5639 21.4612C24.9394 21.4612 18.3866 22.4237 13.5949 24.0926C7.84068 26.0994 5.26051 28.8434 5.26051 30.6761C5.26051 32.5805 8.03521 35.5805 14.117 37.6589C18.5811 39.1845 24.622 39.9934 31.5639 39.9934C38.0757 39.9934 44.1473 39.1743 48.6626 37.6692C54.9799 35.5702 57.8673 32.5703 57.8673 30.6761C57.8673 29.7034 57.1301 28.5567 55.7888 27.4406C54.2427 26.1506 51.9902 24.9731 49.2974 24.0414C44.4545 22.3827 38.1576 21.4612 31.5639 21.4612Z" fill="#EAEAEC"/>
<path d="M19.9016 56.2922C18.8572 56.2922 17.9357 56.0669 17.1576 55.6164C14.2191 53.9168 13.1952 49.0227 14.4341 42.5211C15.4477 37.1867 17.9255 30.9205 21.4169 24.8694C24.8469 18.931 28.9629 13.7092 33.0277 10.1768C35.4031 8.10859 37.8092 6.59325 39.9798 5.79463C42.3449 4.92434 44.3927 4.92434 45.8875 5.78439C48.9489 7.54546 49.9626 12.9515 48.5291 19.8729C47.5155 24.7875 45.0992 30.7158 41.7204 36.5826C38.1163 42.8282 34.2256 47.8657 30.468 51.1523C28.0311 53.282 25.5227 54.8383 23.2292 55.6471C22.0312 56.0772 20.905 56.2922 19.9016 56.2922ZM22.4715 25.4838L23.5363 26.0981C20.2292 31.8318 17.7821 37.9853 16.8402 42.9818C15.7037 48.9715 16.7992 52.5755 18.376 53.4868C18.7651 53.712 19.277 53.8349 19.9016 53.8349C21.9391 53.8349 25.1438 52.5448 28.8502 49.3094C32.4031 46.207 36.1198 41.3743 39.5907 35.3642C42.8466 29.7226 45.1606 24.0503 46.123 19.3917C47.4643 12.8696 46.3073 8.8765 44.6589 7.92429C43.8193 7.44307 42.4576 7.5045 40.8194 8.10859C38.9252 8.80483 36.7853 10.1666 34.6351 12.0403C30.7751 15.3986 26.8332 20.3951 23.5363 26.1083L22.4715 25.4838Z" fill="#EAEAEC"/>
<path d="M43.2244 56.3242C40.4395 56.3242 36.9071 54.645 33.2212 51.471C29.1052 47.9284 24.9175 42.6554 21.4159 36.6043C17.9756 30.6658 15.5183 24.4919 14.4842 19.1984C13.8801 16.1063 13.7675 13.2702 14.1566 10.9869C14.5866 8.49893 15.6003 6.72762 17.1053 5.85733C20.1565 4.08602 25.3475 5.90852 30.6307 10.6081C34.3781 13.9357 38.3098 18.9937 41.6988 24.8502C45.3131 31.0959 47.7397 36.9832 48.7022 41.8773C49.3267 45.0513 49.4291 48.0001 48.9888 50.3959C48.5179 52.9454 47.453 54.7576 45.9172 55.6484C45.1493 56.0989 44.2381 56.3242 43.2244 56.3242ZM23.5455 35.3757C26.8629 41.1094 30.9789 46.3004 34.8286 49.6075C39.4463 53.5802 43.1118 54.4402 44.6988 53.5187C46.3472 52.5665 47.5554 48.6656 46.3063 42.3585C45.3848 37.7306 43.0606 32.0993 39.5794 26.0891C36.3133 20.4476 32.5556 15.6046 29.0028 12.4511C24.0267 8.02794 19.9927 7.03478 18.3442 7.98699C17.5047 8.46821 16.8801 9.68662 16.5832 11.4067C16.2453 13.3931 16.3477 15.9323 16.9006 18.7274C17.8835 23.7547 20.2384 29.6624 23.5455 35.3757Z" fill="#EAEAEC"/>
</svg>
