<svg width="98" height="100" viewBox="0 0 98 100" fill="none" xmlns="http://www.w3.org/2000/svg">
<g filter="url(#filter0_b_989_80009)">
<mask id="path-1-outside-1_989_80009" maskUnits="userSpaceOnUse" x="0.875" y="0.891602" width="90" height="90" fill="black">
<rect fill="white" x="0.875" y="0.891602" width="90" height="90"/>
<path d="M66.1073 1.8916L25.2181 1.8916C10.3174 1.8916 1.875 10.334 1.875 25.2347L1.875 66.085C1.875 80.9857 10.3174 89.4281 25.2181 89.4281H66.1073C81.008 89.4281 89.4115 80.9857 89.4115 66.085V25.2347C89.4115 10.334 81.008 1.8916 66.1073 1.8916Z"/>
</mask>
<path d="M66.1073 1.8916L25.2181 1.8916C10.3174 1.8916 1.875 10.334 1.875 25.2347L1.875 66.085C1.875 80.9857 10.3174 89.4281 25.2181 89.4281H66.1073C81.008 89.4281 89.4115 80.9857 89.4115 66.085V25.2347C89.4115 10.334 81.008 1.8916 66.1073 1.8916Z" fill="url(#paint0_linear_989_80009)" fill-opacity="0.5"/>
<path d="M66.1073 2.8916C66.6596 2.8916 67.1073 2.44389 67.1073 1.8916C67.1073 1.33932 66.6596 0.891602 66.1073 0.891602V2.8916ZM66.1073 0.891602C65.555 0.891602 65.1073 1.33932 65.1073 1.8916C65.1073 2.44389 65.555 2.8916 66.1073 2.8916V0.891602ZM66.1073 0.891602L25.2181 0.891602V2.8916L66.1073 2.8916V0.891602ZM25.2181 0.891602C17.5818 0.891602 11.4619 3.05808 7.25168 7.26828C3.04148 11.4785 0.875 17.5984 0.875 25.2347H2.875C2.875 17.9702 4.92973 12.4187 8.66589 8.68249C12.4021 4.94633 17.9536 2.8916 25.2181 2.8916V0.891602ZM0.875 25.2347L0.875 66.085H2.875L2.875 25.2347H0.875ZM0.875 66.085C0.875 73.7213 3.04148 79.8412 7.25168 84.0514C11.4619 88.2616 17.5818 90.4281 25.2181 90.4281V88.4281C17.9536 88.4281 12.4021 86.3734 8.66589 82.6372C4.92973 78.901 2.875 73.3494 2.875 66.085H0.875ZM25.2181 90.4281H66.1073V88.4281H25.2181V90.4281ZM66.1073 90.4281C73.7436 90.4281 79.8544 88.2615 84.0551 84.0505C88.2554 79.8399 90.4115 73.72 90.4115 66.085H88.4115C88.4115 73.3507 86.3658 78.9023 82.6392 82.6381C78.913 86.3734 73.3717 88.4281 66.1073 88.4281V90.4281ZM90.4115 66.085V25.2347H88.4115V66.085H90.4115ZM90.4115 25.2347C90.4115 17.5997 88.2554 11.4798 84.0551 7.26915C79.8544 3.05814 73.7436 0.891602 66.1073 0.891602V2.8916C73.3717 2.8916 78.9129 4.94626 82.6392 8.68163C86.3658 12.4174 88.4115 17.969 88.4115 25.2347H90.4115Z" fill="url(#paint1_linear_989_80009)" mask="url(#path-1-outside-1_989_80009)"/>
</g>
<g filter="url(#filter1_bd_989_80009)">
<path d="M42.3611 63.5214V35.7286L31.5941 46.5831C30.2811 47.8524 28.224 47.8524 26.9109 46.5831C25.6417 45.3138 25.6417 43.213 26.9109 41.9437L43.324 25.4431C44.5495 24.2175 46.738 24.2175 47.9635 25.4431L64.3766 41.9437C65.6458 43.213 65.6458 45.3138 64.3766 46.5831C63.72 47.1959 62.8841 47.546 62.0568 47.546C61.2252 47.546 60.3499 47.1959 59.7371 46.5831L48.9264 35.7286V63.5214C48.9264 65.3597 47.482 66.804 45.6437 66.804C43.8493 66.804 42.3611 65.3597 42.3611 63.5214Z" fill="url(#paint2_linear_989_80009)"/>
<path d="M42.8611 35.7286V34.5145L42.0061 35.3765L31.243 46.2271C30.1246 47.3046 28.3797 47.3044 27.2615 46.2266C26.1905 45.1522 26.1915 43.3703 27.2645 42.2972L27.2654 42.2963L43.6776 25.7966C43.6777 25.7965 43.6778 25.7964 43.678 25.7962C44.7082 24.7665 46.5793 24.7665 47.6095 25.7962C47.6097 25.7964 47.6098 25.7965 47.6099 25.7966L64.0221 42.2963L64.023 42.2972C65.095 43.3692 65.097 45.1488 64.029 46.2235C63.4561 46.7555 62.7417 47.046 62.0568 47.046C61.3559 47.046 60.6085 46.7472 60.0909 46.2298C60.0908 46.2297 60.0908 46.2296 60.0907 46.2296L49.2806 35.3758L48.4264 34.518V35.7286V63.5214C48.4264 65.0835 47.2059 66.304 45.6437 66.304C44.121 66.304 42.8611 65.0792 42.8611 63.5214V35.7286Z" stroke="url(#paint3_linear_989_80009)"/>
</g>
<defs>
<filter id="filter0_b_989_80009" x="-19.125" y="-19.1084" width="129.537" height="129.537" filterUnits="userSpaceOnUse" color-interpolation-filters="sRGB">
<feFlood flood-opacity="0" result="BackgroundImageFix"/>
<feGaussianBlur in="BackgroundImageFix" stdDeviation="10"/>
<feComposite in2="SourceAlpha" operator="in" result="effect1_backgroundBlur_989_80009"/>
<feBlend mode="normal" in="SourceGraphic" in2="effect1_backgroundBlur_989_80009" result="shape"/>
</filter>
<filter id="filter1_bd_989_80009" x="-6.30078" y="-7.73584" width="103.889" height="106.8" filterUnits="userSpaceOnUse" color-interpolation-filters="sRGB">
<feFlood flood-opacity="0" result="BackgroundImageFix"/>
<feGaussianBlur in="BackgroundImageFix" stdDeviation="16.1299"/>
<feComposite in2="SourceAlpha" operator="in" result="effect1_backgroundBlur_989_80009"/>
<feColorMatrix in="SourceAlpha" type="matrix" values="0 0 0 0 0 0 0 0 0 0 0 0 0 0 0 0 0 0 127 0" result="hardAlpha"/>
<feOffset dx="10.7533" dy="10.7533"/>
<feGaussianBlur stdDeviation="10.7533"/>
<feColorMatrix type="matrix" values="0 0 0 0 0.125 0 0 0 0 0.125 0 0 0 0 0.125 0 0 0 1 0"/>
<feBlend mode="normal" in2="effect1_backgroundBlur_989_80009" result="effect2_dropShadow_989_80009"/>
<feBlend mode="normal" in="SourceGraphic" in2="effect2_dropShadow_989_80009" result="shape"/>
</filter>
<linearGradient id="paint0_linear_989_80009" x1="-13.6016" y1="-49.999" x2="85.8984" y2="89.001" gradientUnits="userSpaceOnUse">
<stop stop-color="#959597"/>
<stop offset="1" stop-color="#959597" stop-opacity="0"/>
</linearGradient>
<linearGradient id="paint1_linear_989_80009" x1="6.12182" y1="1.8916" x2="81.7034" y2="85.6554" gradientUnits="userSpaceOnUse">
<stop stop-color="#959597" stop-opacity="0.2"/>
<stop offset="0.565262" stop-color="#EAEAEC" stop-opacity="0.4"/>
<stop offset="1" stop-color="#959597" stop-opacity="0.05"/>
</linearGradient>
<linearGradient id="paint2_linear_989_80009" x1="57.4004" y1="24.999" x2="24.7527" y2="31.3277" gradientUnits="userSpaceOnUse">
<stop stop-color="#F4F4F6"/>
<stop offset="1" stop-color="#F4F4F6" stop-opacity="0.3"/>
</linearGradient>
<linearGradient id="paint3_linear_989_80009" x1="27.869" y1="24.5239" x2="64.5498" y2="62.3772" gradientUnits="userSpaceOnUse">
<stop stop-color="#959597" stop-opacity="0.2"/>
<stop offset="0.565262" stop-color="#EAEAEC" stop-opacity="0.4"/>
<stop offset="1" stop-color="#959597" stop-opacity="0.05"/>
</linearGradient>
</defs>
</svg>
