<svg width="40" height="47" viewBox="0 0 40 47" fill="none" xmlns="http://www.w3.org/2000/svg">
<path d="M19.7845 46.2002C19.9384 46.3972 19.9385 46.3971 19.9387 46.397L19.9394 46.3964L19.9421 46.3943L19.9526 46.3861L19.9935 46.3538C20.0295 46.3253 20.0826 46.2831 20.1519 46.2275C20.2903 46.1165 20.4931 45.9524 20.7508 45.7394C21.2664 45.3136 22.0024 44.6927 22.8853 43.9109C24.6508 42.3477 27.0056 40.1401 29.3613 37.5637C31.7161 34.988 34.0768 32.0383 35.85 28.9906C37.6214 25.9461 38.819 22.7825 38.819 19.7845C38.819 8.08772 30.2864 0.75 19.7845 0.75C9.28255 0.75 0.75 8.08772 0.75 19.7845C0.75 22.7352 1.94811 25.875 3.71915 28.9099C5.49223 31.9484 7.8527 34.9039 10.2074 37.4913C12.5628 40.0796 14.9174 42.305 16.6828 43.8831C17.5657 44.6723 18.3016 45.3 18.8171 45.7307C19.0748 45.946 19.2775 46.1121 19.416 46.2245C19.4852 46.2807 19.5383 46.3235 19.5743 46.3523L19.6151 46.3849L19.6256 46.3933L19.6283 46.3954L19.6291 46.396C19.6292 46.3961 19.6293 46.3962 19.7845 46.2002ZM19.7845 46.2002L19.9384 46.3972L19.7835 46.5182L19.6293 46.3962L19.7845 46.2002Z" fill="#18A0FB" stroke="#888888" stroke-width="0.5"/>
</svg>
