<svg width="64" height="62" viewBox="0 0 64 62" fill="none" xmlns="http://www.w3.org/2000/svg">
<g filter="url(#filter0_b_367_156589)">
<mask id="path-1-outside-1_367_156589" maskUnits="userSpaceOnUse" x="0.289062" y="0" width="47" height="47" fill="black">
<rect fill="white" x="0.289062" width="47" height="47"/>
<path d="M32.9257 1H13.7981C6.31916 1 1.28906 6.25072 1.28906 14.0606V32.0851C1.28906 39.873 6.31916 45.1237 13.7981 45.1237H32.9257C40.4047 45.1237 45.4127 39.873 45.4127 32.0851V14.0606C45.4127 6.25072 40.4047 1 32.9257 1Z"/>
</mask>
<path d="M32.9257 1H13.7981C6.31916 1 1.28906 6.25072 1.28906 14.0606V32.0851C1.28906 39.873 6.31916 45.1237 13.7981 45.1237H32.9257C40.4047 45.1237 45.4127 39.873 45.4127 32.0851V14.0606C45.4127 6.25072 40.4047 1 32.9257 1Z" fill="url(#paint0_linear_367_156589)" fill-opacity="0.9"/>
<path d="M32.9257 2C33.478 2 33.9257 1.55228 33.9257 1C33.9257 0.447715 33.478 0 32.9257 0V2ZM32.9257 0C32.3735 0 31.9257 0.447715 31.9257 1C31.9257 1.55228 32.3735 2 32.9257 2V0ZM32.9257 0H13.7981V2H32.9257V0ZM13.7981 0C9.81586 0 6.41756 1.40344 4.01681 3.90988C1.61965 6.41258 0.289062 9.93889 0.289062 14.0606H2.28906C2.28906 10.3724 3.47353 7.36844 5.46115 5.29331C7.44519 3.22192 10.3014 2 13.7981 2V0ZM0.289062 14.0606V32.0851H2.28906V14.0606H0.289062ZM0.289062 32.0851C0.289062 36.1965 1.6201 39.7173 4.01723 42.217C6.41786 44.7203 9.81591 46.1237 13.7981 46.1237V44.1237C10.3014 44.1237 7.44489 42.9017 5.46073 40.8327C3.47308 38.76 2.28906 35.7616 2.28906 32.0851H0.289062ZM13.7981 46.1237H32.9257V44.1237H13.7981V46.1237ZM32.9257 46.1237C36.9081 46.1237 40.3012 44.7201 42.6965 42.2161C45.088 39.716 46.4127 36.1953 46.4127 32.0851H44.4127C44.4127 35.7628 43.2335 38.7614 41.2512 40.8336C39.2728 42.9019 36.4223 44.1237 32.9257 44.1237V46.1237ZM46.4127 32.0851V14.0606H44.4127V32.0851H46.4127ZM46.4127 14.0606C46.4127 9.94011 45.0884 6.41392 42.6969 3.91079C40.3015 1.4036 36.9082 0 32.9257 0V2C36.4222 2 39.2725 3.22176 41.2508 5.2924C43.233 7.3671 44.4127 10.3712 44.4127 14.0606H46.4127Z" fill="url(#paint1_linear_367_156589)" fill-opacity="0.8" mask="url(#path-1-outside-1_367_156589)"/>
</g>
<g filter="url(#filter1_bd_367_156589)">
<mask id="path-3-inside-2_367_156589" fill="white">
<path fill-rule="evenodd" clip-rule="evenodd" d="M10.1536 13.2763C10.1536 16.3294 12.6351 18.8142 15.689 18.8142C18.7408 18.8142 21.2245 16.3294 21.2245 13.2763C21.2245 10.2231 18.7408 7.73828 15.689 7.73828C12.6351 7.73828 10.1536 10.2231 10.1536 13.2763ZM40.3318 33.6002C41.1248 31.7164 41.5102 29.4304 40.7684 27.5284C40.5211 26.8974 40.1514 26.3099 39.6323 25.7933C38.2713 24.4422 36.9994 23.1803 35.4869 22.2476C33.1123 20.7662 31.2791 22.8465 30.7846 23.5118C30.3901 24.0434 30.0413 24.6204 29.6879 25.2052C29.6142 25.3271 29.5404 25.4493 29.4658 25.5715L29.4483 25.6007C28.3965 27.3427 27.1888 29.3432 25.1065 30.5094C22.0637 32.1942 19.7538 30.642 18.092 29.5127C17.4683 29.0921 16.8624 28.6943 16.2588 28.4291C14.7708 27.7867 13.432 28.5182 11.445 31.0421C10.4025 32.3611 9.36897 33.6687 8.32202 34.9718C7.69608 35.7513 7.84533 36.9538 8.68957 37.475C10.0372 38.3049 11.6812 38.7506 13.5389 38.7506H32.208C33.2616 38.7506 34.3174 38.6066 35.3243 38.2774C37.5919 37.5367 39.3918 35.8405 40.3318 33.6002Z"/>
</mask>
<path fill-rule="evenodd" clip-rule="evenodd" d="M10.1536 13.2763C10.1536 16.3294 12.6351 18.8142 15.689 18.8142C18.7408 18.8142 21.2245 16.3294 21.2245 13.2763C21.2245 10.2231 18.7408 7.73828 15.689 7.73828C12.6351 7.73828 10.1536 10.2231 10.1536 13.2763ZM40.3318 33.6002C41.1248 31.7164 41.5102 29.4304 40.7684 27.5284C40.5211 26.8974 40.1514 26.3099 39.6323 25.7933C38.2713 24.4422 36.9994 23.1803 35.4869 22.2476C33.1123 20.7662 31.2791 22.8465 30.7846 23.5118C30.3901 24.0434 30.0413 24.6204 29.6879 25.2052C29.6142 25.3271 29.5404 25.4493 29.4658 25.5715L29.4483 25.6007C28.3965 27.3427 27.1888 29.3432 25.1065 30.5094C22.0637 32.1942 19.7538 30.642 18.092 29.5127C17.4683 29.0921 16.8624 28.6943 16.2588 28.4291C14.7708 27.7867 13.432 28.5182 11.445 31.0421C10.4025 32.3611 9.36897 33.6687 8.32202 34.9718C7.69608 35.7513 7.84533 36.9538 8.68957 37.475C10.0372 38.3049 11.6812 38.7506 13.5389 38.7506H32.208C33.2616 38.7506 34.3174 38.6066 35.3243 38.2774C37.5919 37.5367 39.3918 35.8405 40.3318 33.6002Z" fill="url(#paint2_linear_367_156589)"/>
<path d="M40.7684 27.5284L41.4204 27.2741L41.42 27.273L40.7684 27.5284ZM40.3318 33.6002L39.6868 33.3286L39.6864 33.3294L40.3318 33.6002ZM39.6323 25.7933L40.1261 25.2973L40.1254 25.2966L39.6323 25.7933ZM35.4869 22.2476L35.1164 22.8414L35.1195 22.8433L35.4869 22.2476ZM30.7846 23.5118L30.2229 23.0943L30.2225 23.0947L30.7846 23.5118ZM29.6879 25.2052L30.2869 25.5672H30.2869L29.6879 25.2052ZM29.4658 25.5715L28.8683 25.2071L28.8667 25.2098L29.4658 25.5715ZM29.4483 25.6007L30.0474 25.9624L30.0474 25.9624L29.4483 25.6007ZM25.1065 30.5094L25.4456 31.1217L25.4485 31.12L25.1065 30.5094ZM18.092 29.5127L18.4854 28.9338L18.4833 28.9324L18.092 29.5127ZM16.2588 28.4291L16.5402 27.7883L16.5361 27.7865L16.2588 28.4291ZM11.445 31.0421L11.9941 31.476L11.9949 31.475L11.445 31.0421ZM8.32202 34.9718L7.77644 34.5334L7.7763 34.5336L8.32202 34.9718ZM8.68957 37.475L8.3219 38.0705L8.3226 38.071L8.68957 37.475ZM35.3243 38.2774L35.107 37.6121L35.1068 37.6122L35.3243 38.2774ZM15.689 18.1144C13.0221 18.1144 10.8535 15.9433 10.8535 13.2763H9.45372C9.45372 16.7154 12.2481 19.5141 15.689 19.5141V18.1144ZM20.5246 13.2763C20.5246 15.9432 18.3539 18.1144 15.689 18.1144V19.5141C19.1276 19.5141 21.9243 16.7156 21.9243 13.2763H20.5246ZM15.689 8.43815C18.3539 8.43815 20.5246 10.6094 20.5246 13.2763H21.9243C21.9243 9.8369 19.1276 7.03841 15.689 7.03841V8.43815ZM10.8535 13.2763C10.8535 10.6092 13.0221 8.43815 15.689 8.43815V7.03841C12.2481 7.03841 9.45372 9.83708 9.45372 13.2763H10.8535ZM40.1164 27.7827C40.7643 29.4441 40.4457 31.5259 39.6868 33.3286L40.9768 33.8717C41.8039 31.907 42.256 29.4167 41.4204 27.2741L40.1164 27.7827ZM39.1386 26.2893C39.5853 26.7339 39.903 27.2382 40.1168 27.7837L41.42 27.273C41.1393 26.5566 40.7174 25.8859 40.1261 25.2973L39.1386 26.2893ZM35.1195 22.8433C36.5516 23.7264 37.7672 24.9279 39.1393 26.29L40.1254 25.2966C38.7755 23.9565 37.4472 22.6342 35.8542 21.6519L35.1195 22.8433ZM31.3462 23.9293C31.5674 23.6318 32.0722 23.0443 32.7495 22.6977C33.3838 22.3732 34.1702 22.2511 35.1165 22.8414L35.8573 21.6538C34.429 20.7628 33.1115 20.9401 32.1119 21.4517C31.1553 21.9412 30.4962 22.7266 30.2229 23.0943L31.3462 23.9293ZM30.2869 25.5672C30.6435 24.9771 30.9753 24.4292 31.3466 23.9289L30.2225 23.0947C29.8049 23.6576 29.4392 24.2636 29.0889 24.8432L30.2869 25.5672ZM30.0634 25.9359C30.1388 25.8123 30.2133 25.6889 30.2869 25.5672L29.0889 24.8432C29.0151 24.9653 28.942 25.0863 28.8683 25.2072L30.0634 25.9359ZM30.0474 25.9624L30.065 25.9332L28.8667 25.2098L28.8491 25.239L30.0474 25.9624ZM25.4485 31.12C27.7168 29.8496 29.0099 27.6809 30.0474 25.9624L28.8491 25.2389C27.7832 27.0046 26.6608 28.8367 24.7646 29.8988L25.4485 31.12ZM17.6986 30.0915C18.5187 30.6488 19.6026 31.3877 20.8968 31.7414C22.2288 32.1055 23.7559 32.0572 25.4456 31.1217L24.7675 29.8971C23.4143 30.6464 22.2651 30.6644 21.2659 30.3912C20.229 30.1078 19.3271 29.5058 18.4854 28.9338L17.6986 30.0915ZM15.9773 29.0699C16.5149 29.306 17.0713 29.6685 17.7007 30.0929L18.4833 28.9324C17.8653 28.5156 17.2099 28.0825 16.5402 27.7883L15.9773 29.0699ZM11.9949 31.475C12.9755 30.2294 13.7346 29.5103 14.3733 29.1631C14.9563 28.8462 15.4376 28.8369 15.9814 29.0716L16.5361 27.7865C15.5919 27.3789 14.6598 27.4142 13.7048 27.9334C12.8053 28.4223 11.9015 29.3309 10.8951 30.6091L11.9949 31.475ZM8.86761 35.4101C9.91659 34.1045 10.9519 32.7947 11.9941 31.476L10.8959 30.6081C9.85319 31.9275 8.82134 33.2329 7.77644 34.5334L8.86761 35.4101ZM9.05723 36.8795C8.60881 36.6027 8.47657 35.8971 8.86774 35.41L7.7763 34.5336C6.9156 35.6055 7.08184 37.3049 8.3219 38.0705L9.05723 36.8795ZM13.5389 38.0508C11.7939 38.0508 10.2804 37.6327 9.05653 36.8791L8.3226 38.071C9.79409 38.977 11.5684 39.4505 13.5389 39.4505V38.0508ZM32.208 38.0508H13.5389V39.4505H32.208V38.0508ZM35.1068 37.6122C34.1798 37.9153 33.1986 38.0508 32.208 38.0508V39.4505C33.3246 39.4505 34.4551 39.2979 35.5418 38.9426L35.1068 37.6122ZM39.6864 33.3294C38.8219 35.3898 37.1738 36.9371 35.107 37.6121L35.5416 38.9427C38.01 38.1364 39.9617 36.2912 40.9772 33.8709L39.6864 33.3294Z" fill="url(#paint3_linear_367_156589)" fill-opacity="0.8" mask="url(#path-3-inside-2_367_156589)"/>
</g>
<defs>
<filter id="filter0_b_367_156589" x="-19.7109" y="-20" width="86.123" height="86.1238" filterUnits="userSpaceOnUse" color-interpolation-filters="sRGB">
<feFlood flood-opacity="0" result="BackgroundImageFix"/>
<feGaussianBlur in="BackgroundImageFix" stdDeviation="10"/>
<feComposite in2="SourceAlpha" operator="in" result="effect1_backgroundBlur_367_156589"/>
<feBlend mode="normal" in="SourceGraphic" in2="effect1_backgroundBlur_367_156589" result="shape"/>
</filter>
<filter id="filter1_bd_367_156589" x="-14.6401" y="-14.8393" width="78.3837" height="76.1677" filterUnits="userSpaceOnUse" color-interpolation-filters="sRGB">
<feFlood flood-opacity="0" result="BackgroundImageFix"/>
<feGaussianBlur in="BackgroundImageFix" stdDeviation="11.2888"/>
<feComposite in2="SourceAlpha" operator="in" result="effect1_backgroundBlur_367_156589"/>
<feColorMatrix in="SourceAlpha" type="matrix" values="0 0 0 0 0 0 0 0 0 0 0 0 0 0 0 0 0 0 127 0" result="hardAlpha"/>
<feOffset dx="7.52587" dy="7.52587"/>
<feGaussianBlur stdDeviation="7.52587"/>
<feColorMatrix type="matrix" values="0 0 0 0 0.252344 0 0 0 0 0.7125 0 0 0 0 0.466615 0 0 0 0.4 0"/>
<feBlend mode="normal" in2="effect1_backgroundBlur_367_156589" result="effect2_dropShadow_367_156589"/>
<feBlend mode="normal" in="SourceGraphic" in2="effect2_dropShadow_367_156589" result="shape"/>
</filter>
<linearGradient id="paint0_linear_367_156589" x1="7.16653" y1="2.40714" x2="59.1963" y2="22.8305" gradientUnits="userSpaceOnUse">
<stop stop-color="#5FE29C"/>
<stop offset="0.894918" stop-color="#F4F4F6"/>
</linearGradient>
<linearGradient id="paint1_linear_367_156589" x1="8.31283" y1="6.14047" x2="42.4791" y2="36.0293" gradientUnits="userSpaceOnUse">
<stop stop-color="#5FE29C"/>
<stop offset="0.9375" stop-color="white"/>
</linearGradient>
<linearGradient id="paint2_linear_367_156589" x1="34.474" y1="8.08674" x2="7.23892" y2="14.1615" gradientUnits="userSpaceOnUse">
<stop stop-color="white"/>
<stop offset="1" stop-color="white" stop-opacity="0.3"/>
</linearGradient>
<linearGradient id="paint3_linear_367_156589" x1="13.2268" y1="11.3513" x2="37.4052" y2="34.0135" gradientUnits="userSpaceOnUse">
<stop stop-color="#5FE29C"/>
<stop offset="0.9375" stop-color="white"/>
</linearGradient>
</defs>
</svg>
