<svg width="97" height="90" viewBox="0 0 97 90" fill="none" xmlns="http://www.w3.org/2000/svg">
<g filter="url(#filter0_b_989_498)">
<mask id="path-1-outside-1_989_498" maskUnits="userSpaceOnUse" x="0.435547" y="0.449219" width="95" height="85" fill="black">
<rect fill="white" x="0.435547" y="0.449219" width="95" height="85"/>
<path d="M90.0103 49.6541C86.2327 49.6541 83.159 46.6085 83.159 42.8654C83.159 39.1177 86.2327 36.0721 90.0103 36.0721C90.926 36.0721 91.8048 35.7119 92.449 35.0736C93.0978 34.4308 93.4613 33.5599 93.4613 32.6527L93.4567 20.3336C93.4567 9.92029 84.9029 1.44922 74.3935 1.44922H20.5033C9.99394 1.44922 1.44015 9.92029 1.44015 20.3336L1.43555 33.0493C1.43555 33.9566 1.79905 34.8274 2.44783 35.4703C3.09201 36.1086 3.97086 36.4687 4.88651 36.4687C8.793 36.4687 11.7378 39.218 11.7378 42.8654C11.7378 46.6085 8.66417 49.6541 4.88651 49.6541C2.98158 49.6541 1.43555 51.186 1.43555 53.0735V65.3834C1.43555 75.7967 9.98474 84.2724 20.4987 84.2724H74.3981C84.9121 84.2724 93.4613 75.7967 93.4613 65.3834V53.0735C93.4613 51.186 91.9152 49.6541 90.0103 49.6541Z"/>
</mask>
<path d="M90.0103 49.6541C86.2327 49.6541 83.159 46.6085 83.159 42.8654C83.159 39.1177 86.2327 36.0721 90.0103 36.0721C90.926 36.0721 91.8048 35.7119 92.449 35.0736C93.0978 34.4308 93.4613 33.5599 93.4613 32.6527L93.4567 20.3336C93.4567 9.92029 84.9029 1.44922 74.3935 1.44922H20.5033C9.99394 1.44922 1.44015 9.92029 1.44015 20.3336L1.43555 33.0493C1.43555 33.9566 1.79905 34.8274 2.44783 35.4703C3.09201 36.1086 3.97086 36.4687 4.88651 36.4687C8.793 36.4687 11.7378 39.218 11.7378 42.8654C11.7378 46.6085 8.66417 49.6541 4.88651 49.6541C2.98158 49.6541 1.43555 51.186 1.43555 53.0735V65.3834C1.43555 75.7967 9.98474 84.2724 20.4987 84.2724H74.3981C84.9121 84.2724 93.4613 75.7967 93.4613 65.3834V53.0735C93.4613 51.186 91.9152 49.6541 90.0103 49.6541Z" fill="url(#paint0_linear_989_498)" fill-opacity="0.5"/>
<path d="M90.0103 50.6541C90.5626 50.6541 91.0103 50.2063 91.0103 49.6541C91.0103 49.1018 90.5626 48.6541 90.0103 48.6541V50.6541ZM92.449 35.0736L91.7451 34.3633L92.449 35.0736ZM93.4613 32.6527H94.4613V32.6523L93.4613 32.6527ZM93.4567 20.3336H92.4567V20.334L93.4567 20.3336ZM1.44015 20.3336L2.44015 20.334V20.3336H1.44015ZM1.43555 33.0493L0.435547 33.0489V33.0493H1.43555ZM2.44783 35.4703L3.15168 34.7599H3.15168L2.44783 35.4703ZM90.0103 48.6541C89.458 48.6541 89.0103 49.1018 89.0103 49.6541C89.0103 50.2063 89.458 50.6541 90.0103 50.6541V48.6541ZM90.0103 48.6541C86.7763 48.6541 84.159 46.0476 84.159 42.8654H82.159C82.159 47.1694 85.689 50.6541 90.0103 50.6541V48.6541ZM84.159 42.8654C84.159 39.6781 86.7767 37.0721 90.0103 37.0721V35.0721C85.6886 35.0721 82.159 38.5572 82.159 42.8654H84.159ZM90.0103 37.0721C91.1871 37.0721 92.3197 36.6095 93.1528 35.784L91.7451 34.3633C91.29 34.8143 90.6648 35.0721 90.0103 35.0721V37.0721ZM93.1528 35.784C93.9902 34.9542 94.4613 33.828 94.4613 32.6527H92.4613C92.4613 33.2919 92.2053 33.9073 91.7451 34.3633L93.1528 35.784ZM94.4613 32.6523L94.4567 20.3332L92.4567 20.334L92.4613 32.653L94.4613 32.6523ZM94.4567 20.3336C94.4567 9.35905 85.4462 0.449219 74.3935 0.449219V2.44922C84.3596 2.44922 92.4567 10.4815 92.4567 20.3336H94.4567ZM74.3935 0.449219H20.5033V2.44922H74.3935V0.449219ZM20.5033 0.449219C9.45065 0.449219 0.440148 9.35905 0.440148 20.3336H2.44015C2.44015 10.4815 10.5372 2.44922 20.5033 2.44922V0.449219ZM0.440148 20.3332L0.435547 33.0489L2.43555 33.0497L2.44015 20.334L0.440148 20.3332ZM0.435547 33.0493C0.435547 34.2247 0.906581 35.3509 1.74398 36.1806L3.15168 34.7599C2.69152 34.304 2.43555 33.6885 2.43555 33.0493H0.435547ZM1.74398 36.1806C2.57716 37.0062 3.70969 37.4687 4.88651 37.4687V35.4687C4.23202 35.4687 3.60686 35.2109 3.15168 34.7599L1.74398 36.1806ZM4.88651 37.4687C8.30653 37.4687 10.7378 39.8338 10.7378 42.8654H12.7378C12.7378 38.6021 9.27948 35.4687 4.88651 35.4687V37.4687ZM10.7378 42.8654C10.7378 46.0476 8.12056 48.6541 4.88651 48.6541V50.6541C9.20778 50.6541 12.7378 47.1694 12.7378 42.8654H10.7378ZM4.88651 48.6541C2.43797 48.6541 0.435547 50.625 0.435547 53.0735H2.43555C2.43555 51.7469 3.52519 50.6541 4.88651 50.6541V48.6541ZM0.435547 53.0735V65.3834H2.43555V53.0735H0.435547ZM0.435547 65.3834C0.435547 76.3575 9.44097 85.2724 20.4987 85.2724V83.2724C10.5285 83.2724 2.43555 75.236 2.43555 65.3834H0.435547ZM20.4987 85.2724H74.3981V83.2724H20.4987V85.2724ZM74.3981 85.2724C85.4559 85.2724 94.4613 76.3575 94.4613 65.3834H92.4613C92.4613 75.236 84.3683 83.2724 74.3981 83.2724V85.2724ZM94.4613 65.3834V53.0735H92.4613V65.3834H94.4613ZM94.4613 53.0735C94.4613 50.625 92.4589 48.6541 90.0103 48.6541V50.6541C91.3716 50.6541 92.4613 51.7469 92.4613 53.0735H94.4613Z" fill="url(#paint1_linear_989_498)" mask="url(#path-1-outside-1_989_498)"/>
</g>
<g filter="url(#filter1_bd_989_498)">
<path d="M63.2321 40.9681L57.8072 46.2503L59.091 53.7182C59.3118 55.0112 58.7919 56.2857 57.729 57.0496C56.6753 57.8226 55.2995 57.9192 54.14 57.3026L47.4451 53.7826L40.7364 57.3072C40.2395 57.5695 39.6965 57.7075 39.1582 57.7075C38.4542 57.7075 37.7594 57.4867 37.1612 57.0542C36.1029 56.2857 35.583 55.0112 35.8039 53.7182L37.083 46.2503L31.6581 40.9681C30.7194 40.057 30.3927 38.718 30.7977 37.4711C31.2072 36.2287 32.2655 35.3453 33.5584 35.1612L41.0401 34.0707L44.3945 27.2746C44.9788 26.1059 46.1475 25.3789 47.4451 25.3789H47.4543C48.7565 25.3835 49.9252 26.1105 50.5004 27.2792L53.8547 34.0707L61.3502 35.1658C62.6293 35.3453 63.6876 36.2287 64.0926 37.4711C64.5021 38.718 64.1754 40.057 63.2321 40.9681Z" fill="url(#paint2_linear_989_498)"/>
<path d="M62.8848 40.6084L62.8833 40.6098L57.4584 45.8921L57.2698 46.0757L57.3144 46.335L58.5981 53.8024C58.787 54.908 58.344 55.9919 57.4372 56.6435L57.4372 56.6435L57.4332 56.6464C56.5355 57.305 55.366 57.3883 54.3747 56.8612L54.3727 56.8601L47.6778 53.3401L47.4452 53.2178L47.2126 53.34L40.5039 56.8646L40.5031 56.865C40.0745 57.0912 39.6113 57.2075 39.1582 57.2075C38.5602 57.2075 37.9678 57.0203 37.4544 56.6491C36.5505 55.9925 36.1079 54.9077 36.2967 53.8024L37.5758 46.3348L37.6202 46.0756L37.4318 45.8921L32.0069 40.6098L32.0063 40.6093C31.2061 39.8326 30.9268 38.6937 31.2729 37.6266C31.623 36.5657 32.5241 35.8135 33.6289 35.6563L33.6305 35.656L41.1122 34.5655L41.3722 34.5276L41.4885 34.292L44.8417 27.4982C44.8419 27.4978 44.8421 27.4974 44.8423 27.497C45.343 26.4966 46.3394 25.8789 47.4451 25.8789H47.4534C48.5662 25.8832 49.5609 26.5027 50.0517 27.5L50.0521 27.5007L53.4064 34.2922L53.5227 34.5275L53.7824 34.5655L61.2779 35.6606L61.2807 35.661C62.3703 35.8138 63.2713 36.5649 63.6172 37.626L63.6175 37.6271C63.9677 38.6934 63.689 39.8317 62.8848 40.6084Z" stroke="url(#paint3_linear_989_498)"/>
</g>
<defs>
<filter id="filter0_b_989_498" x="-19.5645" y="-19.5508" width="134.025" height="124.823" filterUnits="userSpaceOnUse" color-interpolation-filters="sRGB">
<feFlood flood-opacity="0" result="BackgroundImageFix"/>
<feGaussianBlur in="BackgroundImageFix" stdDeviation="10"/>
<feComposite in2="SourceAlpha" operator="in" result="effect1_backgroundBlur_989_498"/>
<feBlend mode="normal" in="SourceGraphic" in2="effect1_backgroundBlur_989_498" result="shape"/>
</filter>
<filter id="filter1_bd_989_498" x="-1.63281" y="-6.88086" width="98.1582" height="96.8481" filterUnits="userSpaceOnUse" color-interpolation-filters="sRGB">
<feFlood flood-opacity="0" result="BackgroundImageFix"/>
<feGaussianBlur in="BackgroundImageFix" stdDeviation="16.1299"/>
<feComposite in2="SourceAlpha" operator="in" result="effect1_backgroundBlur_989_498"/>
<feColorMatrix in="SourceAlpha" type="matrix" values="0 0 0 0 0 0 0 0 0 0 0 0 0 0 0 0 0 0 127 0" result="hardAlpha"/>
<feOffset dx="10.7533" dy="10.7533"/>
<feGaussianBlur stdDeviation="10.7533"/>
<feColorMatrix type="matrix" values="0 0 0 0 0.125 0 0 0 0 0.125 0 0 0 0 0.125 0 0 0 1 0"/>
<feBlend mode="normal" in2="effect1_backgroundBlur_989_498" result="effect2_dropShadow_989_498"/>
<feBlend mode="normal" in="SourceGraphic" in2="effect2_dropShadow_989_498" result="shape"/>
</filter>
<linearGradient id="paint0_linear_989_498" x1="-14.8347" y1="-47.6474" x2="75.723" y2="92.9168" gradientUnits="userSpaceOnUse">
<stop stop-color="#959597"/>
<stop offset="1" stop-color="#959597" stop-opacity="0"/>
</linearGradient>
<linearGradient id="paint1_linear_989_498" x1="5.90016" y1="1.44922" x2="76.2605" y2="88.0907" gradientUnits="userSpaceOnUse">
<stop stop-color="#959597" stop-opacity="0.2"/>
<stop offset="0.565262" stop-color="#EAEAEC" stop-opacity="0.4"/>
<stop offset="1" stop-color="#959597" stop-opacity="0.05"/>
</linearGradient>
<linearGradient id="paint2_linear_989_498" x1="57.4919" y1="25.7422" x2="29.8453" y2="31.7309" gradientUnits="userSpaceOnUse">
<stop stop-color="#F4F4F6"/>
<stop offset="1" stop-color="#F4F4F6" stop-opacity="0.3"/>
</linearGradient>
<linearGradient id="paint3_linear_989_498" x1="32.259" y1="25.3789" x2="60.0374" y2="57.4125" gradientUnits="userSpaceOnUse">
<stop stop-color="#959597" stop-opacity="0.2"/>
<stop offset="0.565262" stop-color="#EAEAEC" stop-opacity="0.4"/>
<stop offset="1" stop-color="#959597" stop-opacity="0.05"/>
</linearGradient>
</defs>
</svg>
