<svg width="58" height="58" viewBox="0 0 58 58" fill="none" xmlns="http://www.w3.org/2000/svg">
<g clip-path="url(#clip0_367_156321)">
<path d="M39.9533 39.3139C42.0234 39.1353 43.6289 37.3129 43.5241 35.1357C43.4146 32.9584 41.6303 31.2099 39.4554 31.2099H39.3101C37.0638 31.2838 35.3129 33.1728 35.3844 35.4239C35.4559 36.5649 35.9227 37.494 36.5612 38.1705C34.0647 43.0253 30.3176 46.5937 24.641 49.5928C20.8224 51.589 16.7895 52.3418 12.8637 51.8058C9.58113 51.3437 7.0132 49.8763 5.44099 47.5227C3.08744 43.9519 2.87305 40.1 4.83354 36.2457C6.26521 33.461 8.40436 31.4267 9.83364 30.4262C9.47632 29.4995 9.04754 27.9297 8.83314 26.7529C-1.73399 34.321 -0.659652 44.669 2.55146 49.5595C4.94312 53.1279 9.83364 55.41 15.1863 55.41C16.6132 55.41 18.1139 55.3052 19.5766 54.9478C28.8573 53.1636 35.887 47.5966 39.92 39.3878L39.9533 39.3139ZM52.693 30.3905C47.164 23.8944 39.0243 20.3259 29.7435 20.3259H28.5286C27.9259 19.0062 26.5348 18.1844 24.9626 18.1844H24.8554C22.609 18.1844 20.8581 20.1139 20.932 22.3603C21.0035 24.4994 22.8234 26.286 25.0007 26.286H25.177C26.7849 26.2146 28.1761 25.2141 28.7454 23.7872H30.0675C35.5678 23.7872 40.7752 25.3927 45.5227 28.5324C49.1603 30.924 51.7687 34.0637 53.2313 37.8132C54.5129 40.8814 54.4438 43.8805 53.1241 46.3817C51.0898 50.3051 47.6619 52.3775 43.1311 52.3775C40.2749 52.3775 37.4926 51.4842 36.0633 50.8434C35.2081 51.5533 33.7788 52.7325 32.7426 53.4471C35.8823 54.8716 39.06 55.6935 42.1282 55.6935C49.0888 55.6935 54.2604 51.7701 56.2257 47.9849C58.3648 43.7018 58.1885 36.4935 52.7263 30.319L52.693 30.3905ZM15.7914 40.5955C15.8604 42.737 17.6804 44.5213 19.86 44.5213H20.003C22.2874 44.4498 24.0359 42.5608 23.9287 40.3097C23.9287 38.1681 22.073 36.3863 19.8958 36.3863H19.7505C19.6075 36.3863 19.3955 36.3863 19.2145 36.4554C16.2535 31.4576 15.0029 26.1026 15.4698 20.3259C15.7532 15.9714 17.1825 12.1862 19.7505 9.04655C21.892 6.36903 25.9249 5.04695 28.6739 4.97787C36.3825 4.83256 39.596 14.4373 39.8437 18.2559L43.4122 19.3254C42.5903 7.61965 35.3129 1.47852 28.3523 1.47852C21.8205 1.47852 15.7914 6.2261 13.3616 13.1867C10.0433 22.4675 12.2205 31.3886 16.2892 38.5278C15.9343 38.9923 15.7199 39.8118 15.7914 40.5955Z" fill="#EAEAEC"/>
</g>
<defs>
<clipPath id="clip0_367_156321">
<rect width="57.1712" height="57.1712" fill="white" transform="translate(0.332031)"/>
</clipPath>
</defs>
</svg>
