<svg width="19" height="19" viewBox="0 0 19 19" fill="none" xmlns="http://www.w3.org/2000/svg">
<g filter="url(#filter0_b_367_156531)">
<rect x="1.89844" y="1.4043" width="16" height="16" rx="4" fill="url(#paint0_linear_367_156531)" fill-opacity="0.9"/>
<rect x="1.39844" y="0.904297" width="17" height="17" rx="4.5" stroke="url(#paint1_linear_367_156531)" stroke-linecap="round" stroke-linejoin="round"/>
</g>
<path d="M12.6267 13.3516H7.09466V12.2716L10.0227 9.28356C10.7347 8.57156 11.0907 7.95556 11.0907 7.43556C11.0907 7.03556 10.9707 6.71956 10.7307 6.48756C10.4907 6.25556 10.1787 6.13956 9.79466 6.13956C9.09066 6.13956 8.57066 6.48756 8.23466 7.18356L7.07066 6.49956C7.32666 5.94756 7.69466 5.52756 8.17466 5.23956C8.65466 4.94356 9.19066 4.79556 9.78266 4.79556C10.5267 4.79556 11.1587 5.02756 11.6787 5.49156C12.2067 5.96356 12.4707 6.59556 12.4707 7.38756C12.4707 8.23556 11.9947 9.14756 11.0427 10.1236L9.14666 12.0196H12.6267V13.3516Z" fill="white"/>
<defs>
<filter id="filter0_b_367_156531" x="-19.1016" y="-19.5957" width="58" height="58" filterUnits="userSpaceOnUse" color-interpolation-filters="sRGB">
<feFlood flood-opacity="0" result="BackgroundImageFix"/>
<feGaussianBlur in="BackgroundImageFix" stdDeviation="10"/>
<feComposite in2="SourceAlpha" operator="in" result="effect1_backgroundBlur_367_156531"/>
<feBlend mode="normal" in="SourceGraphic" in2="effect1_backgroundBlur_367_156531" result="shape"/>
</filter>
<linearGradient id="paint0_linear_367_156531" x1="4.02971" y1="1.91455" x2="22.8966" y2="9.32041" gradientUnits="userSpaceOnUse">
<stop stop-color="#5FE29C"/>
<stop offset="0.894918" stop-color="white"/>
</linearGradient>
<linearGradient id="paint1_linear_367_156531" x1="2.4905" y1="1.4043" x2="20.5562" y2="18.8467" gradientUnits="userSpaceOnUse">
<stop stop-color="#5FE29C"/>
<stop offset="0.9375" stop-color="white"/>
</linearGradient>
</defs>
</svg>
