<svg width="130" height="130" viewBox="0 0 130 130" fill="none" xmlns="http://www.w3.org/2000/svg">
<circle cx="64.7258" cy="64.7258" r="64.7258" fill="white"/>
<path d="M121.063 84.6029C70.3175 91.2348 34.0981 99.2002 33.5623 66.5052C33.5623 66.5052 34.6696 53.8367 50.2075 53.039C50.2075 53.039 50.7314 41.7874 62.6021 40.5134C68.984 39.8228 76.235 46.3952 77.0208 53.3128C77.0208 53.3128 92.7254 50.4077 93.4041 65.7193C93.6422 71.0534 92.4396 80.1261 77.2947 79.7332C77.2947 79.7332 68.5315 78.5426 67.3409 64.993C64.8762 91.2229 102.798 89.6989 103.346 65.8741C103.584 55.5751 96.9879 44.9783 82.1287 46.9667C73.9847 26.4757 52.303 27.6545 44.2305 46.6571C32.6931 46.6571 23.8705 55.5393 24.0014 67.1362C24.442 104.463 76.3898 93.2113 121.063 84.6029Z" fill="#282828"/>
</svg>
