<svg width="40" height="48" viewBox="0 0 40 48" fill="none" xmlns="http://www.w3.org/2000/svg">
<path d="M19.8379 46.3287L19.6552 46.5595L19.8367 46.7031L20.0191 46.5606L19.8379 46.3287ZM19.8379 46.3287C20.0191 46.5606 20.0192 46.5605 20.0194 46.5604L20.0201 46.5598L20.0229 46.5577L20.0335 46.5493L20.0746 46.5169C20.1107 46.4883 20.1641 46.4459 20.2336 46.3901C20.3726 46.2786 20.5761 46.1139 20.8348 45.9002C21.3521 45.473 22.0906 44.8499 22.9764 44.0655C24.7477 42.4972 27.1104 40.2823 29.4741 37.697C31.8368 35.1128 34.2064 32.1522 35.9868 29.0921C37.765 26.0358 38.9701 22.8554 38.9701 19.8379C38.9701 8.08197 30.392 0.705658 19.8379 0.705658C9.28383 0.705658 0.705658 8.08197 0.705658 19.8379C0.705658 22.8081 1.91138 25.9647 3.6892 29.0113C5.46941 32.0619 7.83876 35.0283 10.2013 37.6244C12.5647 40.2214 14.9272 42.4543 16.6983 44.0375C17.5841 44.8294 18.3224 45.4592 18.8397 45.8913C19.0984 46.1074 19.3018 46.2741 19.4408 46.3869C19.5103 46.4433 19.5637 46.4863 19.5998 46.5152L19.6409 46.5481L19.6514 46.5565L19.6542 46.5587L19.6549 46.5592C19.6551 46.5594 19.6552 46.5595 19.8379 46.3287Z" fill="white" stroke="#CCCCCC" stroke-width="0.588684"/>
</svg>
