<svg fill="none" height="52" viewBox="0 0 164 52" width="164" xmlns="http://www.w3.org/2000/svg" xmlns:xlink="http://www.w3.org/1999/xlink"><mask id="a" fill="#fff"><path d="m150.511 0h-138.977c-.423 0-.833.013-1.257.013-.915.025-1.831.077-2.733.23a9.635 9.635 0 0 0 -2.597.81 8.297 8.297 0 0 0 -2.214 1.513 7.834 7.834 0 0 0 -1.612 2.079 8.29 8.29 0 0 0 -.861 2.438c-.164.847-.22 1.707-.246 2.566 0 .398-.014.796-.014 1.18v29.654c0 .398.014.783.027 1.18.028.86.082 1.72.246 2.567.164.86.424 1.668.861 2.438.41.77.957 1.463 1.613 2.066a8.298 8.298 0 0 0 2.214 1.514 9.635 9.635 0 0 0 2.597.808c.902.154 1.831.206 2.733.231.41.026.82.039 1.244.039h140.452c.41 0 .847 0 1.257-.013.916-.026 1.831-.077 2.733-.231a9.89 9.89 0 0 0 2.611-.808 8.52 8.52 0 0 0 2.214-1.514 8.272 8.272 0 0 0 1.612-2.066 7.897 7.897 0 0 0 .848-2.438c.164-.847.218-1.707.259-2.567v-1.18c.014-.462.014-.924.014-1.399v-26.869c0-.475 0-.936-.014-1.398v-1.18c-.027-.86-.082-1.72-.259-2.567a7.897 7.897 0 0 0 -.848-2.438 8.43 8.43 0 0 0 -1.612-2.079 8.952 8.952 0 0 0 -2.214-1.514 9.89 9.89 0 0 0 -2.611-.808c-.902-.154-1.817-.206-2.733-.231-.41 0-.847-.013-1.257-.013-.479-.013-.984-.013-1.476-.013z" fill="#fff"/></mask><g fill="#111"><path d="m10.277.013v-1.283h-.036l.036 1.283zm-2.733.23.213 1.266h.003l-.216-1.265zm-2.597.81.546 1.16.007-.003-.553-1.158zm-2.214 1.512.869.945.01-.01.01-.009zm-1.612 2.08 1.128.61.004-.007zm-.861 2.438 1.26.244v-.004zm-.246 2.566-1.283-.04v.04zm.013 32.015 1.283-.041v-.003l-1.283.044zm.246 2.566 1.26-.24v-.004zm.861 2.438 1.133-.603-.008-.016-.009-.015zm1.613 2.066.888-.926-.01-.01-.01-.009zm2.214 1.514.553-1.158-.008-.004zm2.597.808.216-1.264-.004-.001zm2.733.231.08-1.28-.022-.002h-.021zm142.953.026-.036-1.283h-.004zm2.733-.231-.213-1.265h-.003zm4.825-2.322-.869-.945-.01.01.879.934zm1.612-2.066 1.12.626.004-.008.005-.008zm.848-2.438-1.26-.244-.002.011-.002.012 1.264.22zm.259-2.567 1.282.062.001-.031v-.03h-1.283zm0-1.18-1.282-.038-.001.019v.019zm0-29.666h-1.283v.019l.001.018zm0-1.18h1.283v-.041l-1.283.04zm-.259-2.567-1.264.22.003.022.005.021zm-.848-2.438 1.129-.611-.005-.008zm-3.826-3.593.56-1.154-.008-.004-.007-.004zm-2.611-.808-.216 1.264.003.001zm-2.733-.231.036-1.283h-.036v1.283zm-1.257-.013-.035 1.283h.035v-1.283zm-1.476-1.296h-137.487v2.566h137.487zm-137.487 0h-1.489v2.566h1.489zm-1.49 0c-.223 0-.44.003-.648.006-.21.004-.408.007-.609.007v2.566c.224 0 .442-.003.649-.007.21-.003.408-.006.609-.006v-2.566zm-1.293.013c-.934.026-1.92.08-2.913.249l.432 2.53c.812-.139 1.656-.188 2.553-.214zm-2.91.248a10.917 10.917 0 0 0 -2.936.916l1.105 2.316a8.353 8.353 0 0 1 2.257-.7l-.427-2.533zm-2.929.913a9.58 9.58 0 0 0 -2.557 1.75l1.776 1.851a7.014 7.014 0 0 1 1.872-1.278l-1.091-2.324zm-2.537 1.729a9.117 9.117 0 0 0 -1.877 2.42l2.265 1.207c.341-.64.798-1.23 1.349-1.737zm-1.873 2.415a9.571 9.571 0 0 0 -.992 2.808l2.521.48c.141-.738.372-1.408.73-2.067l-2.26-1.222zm-.992 2.805c-.184.948-.24 1.889-.269 2.77l2.565.081c.027-.839.079-1.618.223-2.363l-2.519-.489zm-.27 2.81c0 .186-.003.374-.006.573-.004.195-.007.402-.007.608h2.566c0-.18.003-.364.007-.563.003-.196.007-.406.007-.618zm-.013 1.18v1.399h2.566v-1.399zm0 1.4v26.856h2.566v-26.858h-2.566zm0 26.856v1.397h2.566v-1.398h-2.566zm0 1.398c0 .424.014.832.028 1.225l2.565-.088c-.014-.403-.027-.765-.027-1.137zm.028 1.222c.028.88.085 1.82.269 2.769l2.52-.488c-.145-.745-.198-1.524-.224-2.363zm.268 2.766c.183.96.483 1.91 1.006 2.83l2.231-1.267c-.352-.619-.572-1.286-.716-2.044l-2.521.48zm.989 2.8a9.059 9.059 0 0 0 1.877 2.407l1.736-1.889a6.495 6.495 0 0 1 -1.348-1.724l-2.265 1.204zm1.857 2.389a9.578 9.578 0 0 0 2.557 1.75l1.09-2.323a7.014 7.014 0 0 1 -1.87-1.28l-1.778 1.852zm2.55 1.746c.95.454 1.913.744 2.936.916l.425-2.531a8.353 8.353 0 0 1 -2.256-.701l-1.106 2.316zm2.933.915c.992.17 1.994.223 2.913.249l.072-2.565c-.885-.026-1.742-.075-2.553-.214zm2.869.247c.437.027.874.041 1.324.041v-2.566c-.398 0-.78-.012-1.164-.036zm1.324.041h1.489v-2.566h-1.489zm1.49 0h137.485v-2.566h-137.486v2.566zm137.486 0h1.476v-2.566h-1.476zm1.476 0c.406 0 .863 0 1.297-.014l-.08-2.564c-.387.012-.803.012-1.217.012zm1.293-.013c.934-.026 1.921-.08 2.913-.25l-.432-2.529c-.812.139-1.656.188-2.553.213zm2.91-.249a11.165 11.165 0 0 0 2.943-.912l-1.091-2.323a8.586 8.586 0 0 1 -2.278.705zm2.943-.912a9.82 9.82 0 0 0 2.547-1.74l-1.757-1.87a7.219 7.219 0 0 1 -1.881 1.287zm2.537-1.73a9.576 9.576 0 0 0 1.864-2.385l-2.239-1.253a7.024 7.024 0 0 1 -1.362 1.748zm1.873-2.4c.49-.907.809-1.834.983-2.828l-2.528-.442a6.61 6.61 0 0 1 -.712 2.048l2.257 1.221zm.978-2.805c.183-.946.241-1.886.282-2.75l-2.563-.122c-.041.856-.093 1.635-.238 2.384zm.283-2.81v-1.183h-2.566v1.181h2.566zm0-1.143c.014-.484.014-.965.014-1.437h-2.566c0 .478 0 .921-.013 1.361zm.014-1.437v-26.87h-2.566v26.87zm0-26.869c0-.471 0-.952-.014-1.436l-2.565.075c.013.44.013.883.013 1.361zm-.014-1.398v-1.182h-2.566v1.181h2.566zm0-1.222c-.028-.879-.085-1.83-.287-2.789l-2.511.527c.154.735.206 1.504.233 2.344zm-.278-2.746a9.183 9.183 0 0 0 -.983-2.828l-2.257 1.222c.357.66.585 1.323.712 2.048zm-.988-2.836a9.713 9.713 0 0 0 -1.858-2.395l-1.757 1.87a7.15 7.15 0 0 1 1.367 1.762zm-1.858-2.395a10.239 10.239 0 0 0 -2.532-1.733l-1.12 2.308a7.66 7.66 0 0 1 1.895 1.296zm-2.547-1.74c-.959-.45-1.919-.74-2.943-.913l-.426 2.531c.808.136 1.543.36 2.278.705l1.091-2.324zm-2.94-.912c-.992-.17-1.979-.223-2.913-.249l-.072 2.565c.897.025 1.741.075 2.553.213l.432-2.53zm-2.949-.25c-.194 0-.396-.003-.609-.006-.21-.003-.432-.006-.648-.006v2.566c.193 0 .395.003.609.006.21.003.432.007.648.007v-2.566zm-1.223-.012c-.499-.013-1.022-.013-1.51-.013v2.566c.495 0 .983 0 1.441.013z" mask="url(#a)"/><path d="m33.853 26.048c-.041-3.528 3.075-5.248 3.225-5.325-1.763-2.412-4.496-2.746-5.453-2.771-2.296-.231-4.524 1.283-5.685 1.283-1.19 0-2.993-1.27-4.934-1.232a7.327 7.327 0 0 0 -6.11 3.503c-2.637 4.299-.669 10.612 1.86 14.089 1.27 1.706 2.747 3.606 4.687 3.529 1.9-.077 2.61-1.13 4.893-1.13 2.269 0 2.925 1.13 4.906 1.091 2.037-.026 3.321-1.706 4.538-3.426 1.462-1.95 2.05-3.875 2.077-3.965-.068-.013-3.963-1.411-4.004-5.646zm-3.731-10.38c1.025-1.194 1.722-2.823 1.517-4.478-1.476.064-3.321.962-4.387 2.13-.943 1.026-1.777 2.72-1.558 4.31 1.654.116 3.362-.782 4.428-1.962zm27.688 19.157h-6.464l-1.558 4.312h-2.733l6.121-15.937h2.843l6.122 15.937h-2.788l-1.544-4.312zm-5.794-1.988h5.125l-2.529-6.994h-.068zm23.369.488c0 3.605-2.063 5.928-5.166 5.928-1.763 0-3.157-.745-3.895-2.028h-.054v5.749h-2.542v-15.462h2.46v1.938h.04c.711-1.245 2.215-2.053 3.937-2.053 3.157 0 5.22 2.322 5.22 5.928zm-2.61 0c0-2.349-1.298-3.901-3.266-3.901-1.94 0-3.253 1.578-3.253 3.9 0 2.336 1.312 3.914 3.253 3.914 1.968 0 3.266-1.54 3.266-3.913zm16.223 0c0 3.605-2.064 5.928-5.166 5.928-1.763 0-3.157-.745-3.895-2.028h-.055v5.749h-2.528v-15.462h2.46v1.938h.04c.711-1.245 2.215-2.053 3.937-2.053 3.143 0 5.207 2.322 5.207 5.928zm-2.61 0c0-2.349-1.299-3.901-3.267-3.901-1.94 0-3.253 1.578-3.253 3.9 0 2.336 1.312 3.914 3.253 3.914 1.982 0 3.267-1.54 3.267-3.913zm11.616 1.372c.191 1.578 1.818 2.618 4.059 2.618 2.146 0 3.677-1.04 3.677-2.464 0-1.232-.93-1.976-3.13-2.49l-2.2-.5c-3.117-.705-4.565-2.078-4.565-4.298 0-2.746 2.555-4.632 6.177-4.632 3.581 0 6.041 1.886 6.123 4.632h-2.569c-.151-1.591-1.558-2.554-3.595-2.554-2.036 0-3.444.976-3.444 2.387 0 1.13.888 1.784 3.075 2.297l1.873.436c3.485.77 4.933 2.092 4.933 4.414 0 2.977-2.528 4.85-6.546 4.85-3.758 0-6.3-1.822-6.465-4.709h2.597zm15.907-9.931v2.746h2.35v1.886h-2.35v6.402c0 1 .465 1.462 1.503 1.462.26 0 .67-.038.834-.05v1.873c-.287.064-.848.115-1.408.115-2.501 0-3.485-.885-3.485-3.13v-6.66h-1.804v-1.887h1.804v-2.758h2.556zm3.704 8.558c0-3.657 2.296-5.954 5.863-5.954 3.581 0 5.863 2.297 5.863 5.954 0 3.67-2.268 5.954-5.863 5.954-3.58 0-5.863-2.284-5.863-5.954zm9.157 0c0-2.502-1.23-3.99-3.28-3.99s-3.28 1.488-3.28 3.99c0 2.515 1.216 3.99 3.28 3.99s3.28-1.475 3.28-3.99zm4.687-5.813h2.419v1.976h.055c.383-1.309 1.517-2.104 2.979-2.104.369 0 .67.051.875.09v2.232c-.205-.077-.642-.14-1.134-.14-1.64 0-2.652 1.038-2.652 2.668v6.89h-2.542v-11.611zm18.026 8.212c-.342 2.105-2.528 3.555-5.33 3.555-3.594 0-5.836-2.259-5.836-5.903s2.242-6.005 5.727-6.005c3.416 0 5.576 2.207 5.576 5.736v.821h-8.733v.141c0 1.989 1.325 3.285 3.334 3.285 1.408 0 2.515-.629 2.857-1.63zm-8.583-3.477h6.191c-.054-1.784-1.271-2.951-3.034-2.951-1.749.013-3.02 1.206-3.157 2.951zm-89.202-21.044c2.42 0 3.841 1.399 3.841 3.798 0 2.451-1.408 3.85-3.84 3.85h-2.952v-7.648zm-1.68 6.57h1.53c1.709 0 2.693-1.001 2.693-2.759 0-1.732-.998-2.733-2.693-2.733h-1.53zm6.943-1.809c0-1.861 1.107-3.003 2.897-3.003s2.897 1.13 2.897 3.003-1.107 3.002-2.897 3.002-2.897-1.129-2.897-3.002zm4.55 0c0-1.258-.6-1.99-1.653-1.99-1.052 0-1.654.732-1.654 1.99 0 1.257.588 1.989 1.654 1.989s1.654-.732 1.654-1.99zm8.966 2.899h-1.259l-1.27-4.26h-.096l-1.271 4.26h-1.243l-1.695-5.774h1.23l1.107 4.414h.096l1.271-4.414h1.162l1.27 4.414h.096l1.094-4.414h1.216zm3.116-5.787h1.175v.925h.096c.3-.641.916-1.026 1.831-1.026 1.367 0 2.132.77 2.132 2.143v3.746h-1.216v-3.451c0-.924-.424-1.386-1.326-1.386s-1.476.564-1.476 1.463v3.374h-1.216v-5.787zm7.161-2.245h1.217v8.033h-1.217zm2.912 5.133c0-1.861 1.107-3.003 2.897-3.003s2.897 1.13 2.897 3.003-1.107 3.002-2.897 3.002c-1.804 0-2.897-1.129-2.897-3.002zm4.55 0c0-1.258-.6-1.99-1.653-1.99-1.052 0-1.653.732-1.653 1.99 0 1.257.587 1.989 1.653 1.989 1.052 0 1.654-.732 1.654-1.99zm2.529 1.257c0-1.04.82-1.642 2.282-1.72l1.667-.09v-.5c0-.616-.423-.95-1.257-.95-.683 0-1.148.232-1.285.642h-1.174c.123-.988 1.12-1.63 2.515-1.63 1.544 0 2.419.72 2.419 1.938v3.952h-1.176v-.808h-.095c-.37.577-1.039.911-1.845.911-1.19-.013-2.05-.68-2.05-1.745zm3.963-.488v-.487l-1.503.09c-.848.05-1.23.32-1.23.834 0 .526.478.82 1.134.82.916 0 1.599-.538 1.599-1.257zm2.801-.769c0-1.822.998-2.977 2.556-2.977.847 0 1.558.372 1.886 1.013h.095v-3.169h1.217v8.033h-1.176v-.911h-.095c-.369.628-1.08 1.013-1.927 1.013-1.572-.013-2.556-1.167-2.556-3.002zm1.258 0c0 1.232.614 1.963 1.639 1.963s1.654-.744 1.654-1.963c0-1.206-.642-1.963-1.654-1.963-1.025.012-1.64.757-1.64 1.963zm9.511 0c0-1.861 1.107-3.003 2.898-3.003 1.79 0 2.897 1.13 2.897 3.003s-1.107 3.002-2.897 3.002c-1.791 0-2.898-1.129-2.898-3.002zm4.551 0c0-1.258-.601-1.99-1.653-1.99-1.053 0-1.654.732-1.654 1.99 0 1.257.588 1.989 1.654 1.989 1.052 0 1.653-.732 1.653-1.99zm2.884-2.888h1.176v.925h.095c.301-.641.916-1.026 1.832-1.026 1.367 0 2.132.77 2.132 2.143v3.746h-1.216v-3.451c0-.924-.424-1.386-1.326-1.386s-1.476.564-1.476 1.463v3.374h-1.217v-5.787zm12.095-1.436v1.463h1.339v.962h-1.339v2.977c0 .603.26.872.875.872.191 0 .287-.013.464-.025v.95c-.191.025-.423.063-.656.063-1.353 0-1.886-.449-1.886-1.565v-3.26h-.97v-.962h.97v-1.474h1.203zm2.979-.809h1.203v3.182h.096c.3-.641.943-1.04 1.872-1.04 1.312 0 2.119.784 2.119 2.157v3.734h-1.217v-3.453c0-.924-.451-1.386-1.312-1.386-.998 0-1.544.59-1.544 1.463v3.375h-1.217zm12.382 6.467c-.273 1.04-1.257 1.668-2.665 1.668-1.763 0-2.842-1.13-2.842-2.977 0-1.848 1.107-3.015 2.842-3.015 1.708 0 2.747 1.103 2.747 2.912v.398h-4.346v.064c.041 1.014.67 1.656 1.64 1.656.738 0 1.244-.244 1.462-.706zm-4.264-1.86h3.102c-.027-.912-.614-1.502-1.516-1.502s-1.517.603-1.586 1.501z"/></g></svg>