<svg fill="none" height="60" viewBox="0 0 77 60" width="77" xmlns="http://www.w3.org/2000/svg"><g clip-rule="evenodd" fill-rule="evenodd"><path d="m49.0395 54.6269c14.974-.1294 27.0728-12.3083 27.0728-27.3129 0-15.0851-12.2288-27.314-27.3139-27.314s-27.314 12.2289-27.314 27.314c0 12.6909 8.6551 23.3602 20.3846 26.4273l1.4945 6.2587z" fill="#fff" opacity=".5"/><path d="m27.5551 54.6269c14.9741-.1294 27.0729-12.3083 27.0729-27.3129 0-15.0851-12.2289-27.314-27.314-27.314s-27.314 12.2289-27.314 27.314c0 12.6909 8.65515 23.3602 20.3847 26.4273l1.4944 6.2587z" fill="#fff"/><path d="m38.0556 2.19385c-9.7443 4.1726-16.5712 13.84925-16.5712 25.12035s6.8269 20.9477 16.5712 25.1203c9.7444-4.1726 16.5713-13.8492 16.5713-25.1203s-6.8269-20.94775-16.5713-25.12035z" fill="#00b4b5"/></g></svg>