<svg width="413" height="47" viewBox="0 0 413 47" fill="none" xmlns="http://www.w3.org/2000/svg">
<path d="M46.8039 9.41525C49.4117 9.41525 51.6144 10.3014 53.4121 12.0737C55.2097 13.846 56.1085 15.9981 56.1085 18.53C56.1085 21.0619 55.2097 23.214 53.4121 24.9863C51.6144 26.7586 49.4117 27.6448 46.8039 27.6448H42.8161V36H36.7396V9.41525H46.8039ZM46.8039 21.9481C47.7407 21.9481 48.5129 21.6189 49.1205 20.9606C49.7282 20.3023 50.032 19.4921 50.032 18.53C50.032 17.5679 49.7282 16.7577 49.1205 16.0994C48.5129 15.4411 47.7407 15.112 46.8039 15.112H42.8161V21.9481H46.8039ZM71.5977 17.0109H77.2944V36H71.5977V34.215C70.4583 35.7595 68.6481 36.5317 66.1668 36.5317C64.1413 36.5317 62.4449 35.8354 61.0777 34.4429C59.7358 33.0504 59.0649 31.1261 59.0649 28.6702V17.0109H64.7616V27.8347C64.7616 28.9487 65.0654 29.8096 65.6731 30.4172C66.3061 30.9995 67.1036 31.2907 68.0657 31.2907C69.1544 31.2907 70.0153 30.9616 70.6482 30.3033C71.2812 29.645 71.5977 28.6702 71.5977 27.3789V17.0109ZM87.5488 20.391C87.9033 19.1757 88.6122 18.2515 89.6756 17.6185C90.7643 16.9603 91.9543 16.6311 93.2456 16.6311V23.0874C91.853 22.8595 90.5491 23.1001 89.3338 23.809C88.1438 24.4926 87.5488 25.6952 87.5488 27.4169V36H81.8521V17.0109H87.5488V20.391ZM101.985 20.391C102.339 19.1757 103.048 18.2515 104.112 17.6185C105.201 16.9603 106.39 16.6311 107.682 16.6311V23.0874C106.289 22.8595 104.985 23.1001 103.77 23.809C102.58 24.4926 101.985 25.6952 101.985 27.4169V36H96.2883V17.0109H101.985V20.391ZM131.612 17.0109H137.689L131.612 36H126.296L123.257 25.8598L120.219 36H114.902L108.826 17.0109H114.902L117.636 27.1891L120.599 17.0109H125.916L128.878 27.1891L131.612 17.0109ZM144.677 28.7841C145.335 30.5565 146.854 31.4426 149.234 31.4426C150.779 31.4426 151.994 30.9616 152.88 29.9994L157.438 32.6199C155.564 35.2278 152.804 36.5317 149.158 36.5317C145.968 36.5317 143.411 35.5822 141.487 33.6833C139.588 31.7844 138.638 29.3918 138.638 26.5054C138.638 23.6444 139.575 21.2645 141.449 19.3655C143.348 17.4413 145.778 16.4792 148.741 16.4792C151.5 16.4792 153.792 17.4413 155.615 19.3655C157.463 21.2645 158.387 23.6444 158.387 26.5054C158.387 27.3156 158.311 28.0752 158.159 28.7841H144.677ZM144.563 24.5306H152.728C152.171 22.5304 150.829 21.5303 148.703 21.5303C146.5 21.5303 145.12 22.5304 144.563 24.5306ZM173.353 16.4792C175.86 16.4792 177.999 17.454 179.772 19.4035C181.544 21.3278 182.43 23.6951 182.43 26.5054C182.43 29.3158 181.544 31.6958 179.772 33.6454C177.999 35.5696 175.86 36.5317 173.353 36.5317C170.923 36.5317 169.037 35.7595 167.695 34.215V36H161.998V9.41525H167.695V18.7959C169.037 17.2514 170.923 16.4792 173.353 16.4792ZM168.948 29.8855C169.809 30.721 170.898 31.1388 172.214 31.1388C173.531 31.1388 174.607 30.721 175.442 29.8855C176.303 29.05 176.734 27.9233 176.734 26.5054C176.734 25.0876 176.303 23.9609 175.442 23.1254C174.607 22.2899 173.531 21.8721 172.214 21.8721C170.898 21.8721 169.809 22.2899 168.948 23.1254C168.112 23.9609 167.695 25.0876 167.695 26.5054C167.695 27.9233 168.112 29.05 168.948 29.8855Z" fill="#A1A7FF"/>
<path d="M18.1977 39.6189L33.2307 6.04199H27.6922L12.6592 39.6189H18.1977Z" fill="#A1A7FF"/>
<path d="M5.5385 39.6189L20.5715 6.04199H15.033L0 39.6189H5.5385Z" fill="#A1A7FF"/>
<path d="M204 17.5L219 32.5" stroke="#A1A7FF" stroke-width="2" stroke-linecap="square" stroke-linejoin="round"/>
<path d="M204 32.5L219 17.5" stroke="#A1A7FF" stroke-width="2" stroke-linecap="square" stroke-linejoin="round"/>
<path d="M303.355 10.1328C305.838 10.1328 307.787 10.6516 309.214 11.6825C310.641 12.7134 311.347 14.3171 311.347 16.4799C311.378 17.7028 311.072 18.9099 310.462 19.9635C309.861 20.9483 309.003 21.7436 307.985 22.2611C306.817 22.8481 305.541 23.1808 304.24 23.2381L303.764 21.4593C305.299 21.4806 306.817 21.7889 308.243 22.3689C309.468 22.8581 310.548 23.6611 311.38 24.7002C312.161 25.7127 312.572 26.9703 312.543 28.2578C312.577 29.3719 312.351 30.4782 311.883 31.4853C311.453 32.36 310.82 33.1142 310.04 33.6819C309.238 34.2544 308.343 34.6786 307.397 34.9351C306.399 35.2025 305.371 35.3361 304.339 35.3327H297V10.1328H303.355ZM304.015 21.1493C304.564 21.2007 305.117 21.1237 305.632 20.924C306.147 20.7243 306.611 20.4073 306.988 19.9971C307.61 19.2085 307.938 18.2199 307.913 17.2076C307.964 16.6576 307.881 16.1031 307.673 15.5932C307.464 15.0832 307.136 14.6334 306.717 14.2834C305.771 13.635 304.645 13.3159 303.507 13.3738H300.29V21.1493H304.015ZM304.154 32.1995C305.015 32.2105 305.871 32.0692 306.684 31.7818C307.393 31.533 308.015 31.0787 308.474 30.4746C308.93 29.8443 309.163 29.0746 309.135 28.2915C309.181 27.4533 308.906 26.6296 308.368 25.9939C307.825 25.4189 307.141 25.0025 306.387 24.7878C305.589 24.5451 304.761 24.4225 303.929 24.424H300.27V32.1995H304.154Z" fill="#A1A7FF"/>
<path d="M317.331 15.5562C317.328 15.3073 317.377 15.061 317.474 14.8356C317.57 14.6102 317.712 14.4116 317.889 14.2545C318.23 13.9195 318.672 13.7336 319.13 13.7325C319.589 13.729 320.033 13.9155 320.371 14.2545C320.544 14.4145 320.683 14.614 320.777 14.839C320.871 15.0639 320.919 15.3088 320.917 15.5562C320.922 15.8061 320.876 16.0541 320.781 16.2817C320.687 16.5094 320.547 16.7109 320.371 16.8714C320.029 17.2015 319.587 17.3825 319.13 17.3799C318.673 17.3825 318.232 17.2015 317.889 16.8714C317.71 16.7139 317.566 16.5133 317.469 16.2852C317.372 16.0571 317.325 15.8076 317.331 15.5562ZM317.523 20.8172H320.539V35.3324H317.523V20.8172Z" fill="#A1A7FF"/>
<path d="M324.508 27.5151C324.488 26.1233 324.833 24.7522 325.507 23.5495C326.176 22.3736 327.14 21.4092 328.295 20.7598C329.543 20.0612 330.942 19.708 332.359 19.7342C333.761 19.7037 335.147 20.0574 336.377 20.7598C337.506 21.4149 338.441 22.3798 339.079 23.5495C339.717 24.7647 340.052 26.1271 340.052 27.5117C340.052 28.8963 339.717 30.2588 339.079 31.474C338.442 32.6495 337.507 33.6212 336.377 34.2841C335.14 35.0026 333.742 35.3638 332.326 35.3302C330.926 35.3601 329.54 35.0264 328.295 34.3593C327.149 33.7284 326.192 32.7824 325.527 31.6244C324.825 30.3803 324.472 28.9569 324.508 27.5151ZM327.703 27.5151C327.692 28.4103 327.902 29.2934 328.315 30.0791C328.7 30.8201 329.262 31.4462 329.946 31.8979C330.637 32.3544 331.441 32.592 332.26 32.5816C333.09 32.5947 333.905 32.3572 334.608 31.8979C335.285 31.457 335.842 30.8425 336.225 30.1133C336.614 29.3192 336.817 28.4406 336.817 27.5493C336.817 26.6581 336.614 25.7794 336.225 24.9853C335.845 24.2354 335.289 23.5979 334.608 23.1324C333.912 22.6744 333.103 22.4368 332.28 22.4487C331.456 22.434 330.647 22.6718 329.952 23.1324C329.264 23.5987 328.701 24.2385 328.315 24.9922C327.897 25.7743 327.677 26.6544 327.677 27.5493L327.703 27.5151Z" fill="#A1A7FF"/>
<path d="M350.808 42.5296C349.836 42.5449 348.867 42.4121 347.934 42.1358C347.137 41.8877 346.378 41.5272 345.68 41.0651C345.001 40.6026 344.348 40.1022 343.725 39.566L345.666 37.2725C346.372 37.9407 347.165 38.5078 348.022 38.9581C348.856 39.3681 349.772 39.5762 350.699 39.566C351.664 39.5958 352.623 39.4045 353.505 39.0065C354.216 38.6862 354.816 38.1567 355.228 37.4867C355.626 36.8067 355.84 36.0322 355.848 35.2416L355.882 31.2349L356.161 31.8773C355.688 32.965 354.887 33.8721 353.873 34.4679C352.66 35.202 351.266 35.5688 349.854 35.5248C348.562 35.5308 347.293 35.172 346.19 34.4886C345.063 33.803 344.125 32.8379 343.466 31.6839C342.777 30.4731 342.424 29.0958 342.445 27.698C342.416 26.3014 342.758 24.9227 343.437 23.7071C344.115 22.4914 345.104 21.4837 346.299 20.7899C347.452 20.0987 348.767 19.7337 350.106 19.733C351.341 19.7184 352.561 20.0001 353.668 20.555C354.638 21.0068 355.463 21.7247 356.052 22.6274L355.841 23.2284L356.154 20.3754H359.185V35.2623C359.198 36.5475 358.851 37.8102 358.184 38.9028C357.476 40.0337 356.474 40.9445 355.289 41.5348C353.896 42.2259 352.359 42.5671 350.808 42.5296ZM345.768 27.6289C345.757 28.5437 345.992 29.4442 346.449 30.2332C346.889 31.0044 347.521 31.6451 348.281 32.0915C349.044 32.5494 349.915 32.7882 350.801 32.7823C351.607 32.7932 352.406 32.6283 353.144 32.2987C353.818 31.9917 354.414 31.5334 354.887 30.9586C355.346 30.4063 355.683 29.7609 355.875 29.0658V26.0953C355.672 25.4001 355.311 24.7633 354.819 24.237C354.317 23.7084 353.717 23.2838 353.055 22.9867C352.349 22.6629 351.583 22.4957 350.808 22.4962C349.934 22.4899 349.074 22.7139 348.311 23.1462C347.548 23.5785 346.909 24.2043 346.456 24.9624C345.987 25.7642 345.749 26.683 345.768 27.6151V27.6289Z" fill="#A1A7FF"/>
<path d="M370.854 35.329C369.356 35.3705 367.873 35.0238 366.548 34.3224C365.384 33.6872 364.42 32.7385 363.764 31.5832C363.088 30.3538 362.747 28.9674 362.775 27.5635C362.759 26.1729 363.145 24.8076 363.887 23.6328C364.617 22.4546 365.631 21.4797 366.835 20.7977C368.08 20.0817 369.494 19.715 370.929 19.7363C372.678 19.6779 374.384 20.2845 375.706 21.4346C377.041 22.6825 377.955 24.3176 378.319 26.1117L366.248 30.3643L365.47 28.4126L375.317 24.7627L374.634 25.2626C374.362 24.469 373.884 23.7624 373.249 23.215C372.522 22.6241 371.604 22.3219 370.67 22.3659C369.832 22.3511 369.007 22.5717 368.288 23.0027C367.593 23.4257 367.026 24.032 366.651 24.7558C366.234 25.5583 366.028 26.4536 366.05 27.358C366.034 28.2809 366.245 29.1936 366.664 30.015C367.058 30.7752 367.659 31.4071 368.397 31.8366C369.161 32.2915 370.034 32.5283 370.922 32.5214C371.556 32.5226 372.184 32.4017 372.772 32.1653C373.377 31.9293 373.952 31.6212 374.484 31.2477L375.979 33.665C375.219 34.1746 374.396 34.58 373.529 34.8702C372.669 35.1698 371.765 35.3248 370.854 35.329Z" fill="#A1A7FF"/>
<path d="M388.792 35.3292C387.294 35.3697 385.812 35.0231 384.486 34.3225C383.323 33.6856 382.36 32.7374 381.702 31.5834C381.026 30.354 380.685 28.9675 380.713 27.5636C380.697 26.1731 381.083 24.8078 381.825 23.6329C382.555 22.4548 383.569 21.4799 384.773 20.7979C386.018 20.0818 387.432 19.7152 388.867 19.7365C390.616 19.6767 392.323 20.2834 393.644 21.4347C394.982 22.6807 395.896 24.3166 396.257 26.1119L384.186 30.3644L383.428 28.3854L393.282 24.7354L392.6 25.2353C392.315 24.4486 391.828 23.7516 391.187 23.2152C390.463 22.6242 389.547 22.3219 388.615 22.3661C387.788 22.346 386.972 22.5594 386.26 22.982C385.548 23.4045 384.969 24.0192 384.588 24.756C384.172 25.5585 383.966 26.4538 383.988 27.3582C383.972 28.2811 384.183 29.1937 384.602 30.0152C385.003 30.7791 385.614 31.4114 386.363 31.8367C387.024 32.2095 387.759 32.4299 388.516 32.482C389.272 32.5341 390.031 32.4166 390.737 32.1381C391.342 31.902 391.917 31.5939 392.45 31.2204L393.937 33.6651C393.176 34.1749 392.349 34.5802 391.481 34.8704C390.616 35.1714 389.707 35.3265 388.792 35.3292Z" fill="#A1A7FF"/>
<path d="M399.845 35.3323V7.73242H403.064V35.3323H399.845ZM402.064 30.6196L401.759 27.4112L410.37 20.2352L412.357 21.9878L402.064 30.6196ZM406.522 25.5206L413 35.3323H409.264L404.363 27.4112L406.522 25.5206Z" fill="#A1A7FF"/>
<path d="M262.2 46.4001C257.612 46.4001 253.126 45.0394 249.311 42.4902C245.496 39.9409 242.522 36.3176 240.766 32.0783C239.01 27.8391 238.551 23.1743 239.446 18.674C240.341 14.1736 242.551 10.0397 245.795 6.79515C249.04 3.55056 253.174 1.34097 257.674 0.445793C262.174 -0.449386 266.839 0.0100526 271.078 1.76601C275.318 3.52197 278.941 6.49557 281.49 10.3108C284.039 14.126 285.4 18.6115 285.4 23.2001C285.393 29.3509 282.947 35.2479 278.597 39.5973C274.248 43.9466 268.351 46.3931 262.2 46.4001ZM262.2 2.14267C258.035 2.14136 253.963 3.37525 250.499 5.68827C247.036 8.0013 244.336 11.2896 242.741 15.1372C241.146 18.9848 240.728 23.2189 241.54 27.3041C242.352 31.3893 244.357 35.142 247.301 38.0875C250.246 41.0331 253.998 43.0393 258.083 43.8523C262.168 44.6654 266.402 44.2488 270.25 42.6552C274.098 41.0616 277.387 38.3626 279.702 34.8996C282.016 31.4366 283.251 27.3651 283.251 23.2001C283.24 17.6196 281.019 12.2707 277.074 8.32411C273.129 4.37753 267.78 2.15487 262.2 2.14267Z" fill="#A1A7FF"/>
<path d="M262.2 46.4001C257.612 46.4001 253.126 45.0394 249.311 42.4902C245.496 39.9409 242.522 36.3176 240.766 32.0783C239.01 27.8391 238.551 23.1743 239.446 18.674C240.341 14.1736 242.551 10.0397 245.795 6.79515C249.04 3.55056 253.174 1.34097 257.674 0.445793C262.174 -0.449386 266.839 0.0100526 271.078 1.76601C275.318 3.52197 278.941 6.49557 281.49 10.3108C284.039 14.126 285.4 18.6115 285.4 23.2001C285.393 29.3509 282.947 35.2479 278.597 39.5973C274.248 43.9466 268.351 46.3931 262.2 46.4001ZM262.2 2.14267C258.035 2.14136 253.963 3.37525 250.499 5.68827C247.036 8.0013 244.336 11.2896 242.741 15.1372C241.146 18.9848 240.728 23.2189 241.54 27.3041C242.352 31.3893 244.357 35.142 247.301 38.0875C250.246 41.0331 253.998 43.0393 258.083 43.8523C262.168 44.6654 266.402 44.2488 270.25 42.6552C274.098 41.0616 277.387 38.3626 279.702 34.8996C282.016 31.4366 283.251 27.3651 283.251 23.2001C283.24 17.6196 281.019 12.2707 277.074 8.32411C273.129 4.37753 267.78 2.15487 262.2 2.14267Z" fill="#A1A7FF"/>
<path d="M259.204 28.5325C260.091 29.1239 261.133 29.4388 262.199 29.4375V29.4112C263.621 29.4094 264.984 28.8457 265.992 27.8429C267 26.8401 267.57 25.4795 267.579 24.0578C267.58 22.9919 267.265 21.9496 266.674 21.0629C266.082 20.1761 265.241 19.4847 264.257 19.0762C263.272 18.6677 262.189 18.5605 261.143 18.7681C260.098 18.9757 259.137 19.4888 258.384 20.2425C257.63 20.9962 257.117 21.9566 256.909 23.002C256.702 24.0475 256.809 25.131 257.217 26.1155C257.626 27.1 258.317 27.9412 259.204 28.5325Z" fill="#A1A7FF"/>
<path fill-rule="evenodd" clip-rule="evenodd" d="M262.199 41.8255C272.485 41.8255 280.824 33.4869 280.824 23.2008C280.824 12.9147 272.485 4.57617 262.199 4.57617C251.913 4.57617 243.575 12.9147 243.575 23.2008C243.575 33.4869 251.913 41.8255 262.199 41.8255ZM262.167 38.8916C259.504 38.898 256.903 38.0931 254.71 36.5841L255.917 34.8304C257.76 36.1063 259.951 36.7831 262.193 36.7687C264.438 36.7843 266.642 36.1625 268.548 34.9755L269.689 36.7555C267.436 38.1684 264.826 38.9094 262.167 38.8916ZM256.819 18.4342C258.261 17.0363 260.191 16.2538 262.199 16.2519L262.206 16.2585C264.269 16.2585 266.248 17.0782 267.707 18.5371C269.165 19.996 269.985 21.9748 269.985 24.038C269.985 26.1013 269.165 28.08 267.707 29.539C266.248 30.9979 264.269 31.8175 262.206 31.8175C258.329 31.8175 254.663 28.9628 254.42 25.2247V11.8018H256.819V18.4342Z" fill="#A1A7FF"/>
</svg>
