<svg width="92" height="92" viewBox="0 0 92 92" fill="none" xmlns="http://www.w3.org/2000/svg">
<rect x="1" y="1" width="90" height="90" rx="20" fill="url(#paint0_linear_608_27295)"/>
<rect x="0.5" y="0.5" width="91" height="91" rx="20.5" stroke="#35B185"/>
<path d="M29.1262 43.3075C29.1262 41.1316 29.5548 38.977 30.3874 36.9667C31.2201 34.9565 32.4406 33.1299 33.9792 31.5913C35.5178 30.0527 37.3444 28.8322 39.3546 27.9995C41.3649 27.1669 43.5195 26.7383 45.6954 26.7383C47.8713 26.7383 50.0259 27.1669 52.0362 27.9995C54.0464 28.8322 55.873 30.0527 57.4116 31.5913C58.9502 33.1299 60.1707 34.9565 61.0034 36.9667C61.8361 38.977 62.2646 41.1316 62.2646 43.3075V43.3075C62.2646 51.569 63.9954 56.369 65.5185 58.9998C65.6802 59.28 65.7655 59.5977 65.7658 59.9213C65.7661 60.2448 65.6814 60.5627 65.5201 60.8431C65.3588 61.1236 65.1267 61.3568 64.847 61.5193C64.5672 61.6818 64.2497 61.7679 63.9262 61.769H27.4647C27.1411 61.7679 26.8236 61.6818 26.5439 61.5193C26.2641 61.3568 26.032 61.1236 25.8707 60.8431C25.7094 60.5627 25.6247 60.2448 25.625 59.9213C25.6253 59.5977 25.7106 59.28 25.8723 58.9998C27.3954 56.369 29.1262 51.569 29.1262 43.3075Z" stroke="#35B185" stroke-linecap="round" stroke-linejoin="round"/>
<path d="M38.3125 61.7695V63.6157C38.3125 65.5742 39.0905 67.4525 40.4754 68.8374C41.8603 70.2223 43.7386 71.0003 45.6971 71.0003C47.6556 71.0003 49.5339 70.2223 50.9188 68.8374C52.3037 67.4525 53.0817 65.5742 53.0817 63.6157V61.7695" stroke="#35B185" stroke-linecap="round" stroke-linejoin="round"/>
<path d="M58.4814 23C62.2403 25.3728 65.2741 28.7339 67.2507 32.7154" stroke="#35B185" stroke-linecap="round" stroke-linejoin="round"/>
<path d="M24.1436 32.7154C26.1201 28.7339 29.1539 25.3728 32.9128 23" stroke="#35B185" stroke-linecap="round" stroke-linejoin="round"/>
<defs>
<linearGradient id="paint0_linear_608_27295" x1="46" y1="1" x2="46" y2="91" gradientUnits="userSpaceOnUse">
<stop stop-color="#D3F0E6"/>
<stop offset="1" stop-color="white"/>
</linearGradient>
</defs>
</svg>
