<svg width="92" height="92" viewBox="0 0 92 92" fill="none" xmlns="http://www.w3.org/2000/svg">
<rect x="1" y="1" width="90" height="90" rx="20" fill="url(#paint0_linear_608_27306)"/>
<rect x="0.5" y="0.5" width="91" height="91" rx="20.5" stroke="#646EFA"/>
<path d="M35.1348 62.375C39.2769 62.375 42.6348 59.0171 42.6348 54.875C42.6348 50.7329 39.2769 47.375 35.1348 47.375C30.9926 47.375 27.6348 50.7329 27.6348 54.875C27.6348 59.0171 30.9926 62.375 35.1348 62.375Z" stroke="#646EFA" stroke-linecap="round" stroke-linejoin="round"/>
<path d="M23.8848 68C25.1946 66.2535 26.8932 64.8359 28.8458 63.8596C30.7985 62.8833 32.9516 62.375 35.1348 62.375C37.3179 62.375 39.4711 62.8833 41.4237 63.8596C43.3764 64.8359 45.0749 66.2535 46.3848 68" stroke="#646EFA" stroke-linecap="round" stroke-linejoin="round"/>
<path d="M35.1348 38C39.2769 38 42.6348 34.6421 42.6348 30.5C42.6348 26.3579 39.2769 23 35.1348 23C30.9926 23 27.6348 26.3579 27.6348 30.5C27.6348 34.6421 30.9926 38 35.1348 38Z" stroke="#646EFA" stroke-linecap="round" stroke-linejoin="round"/>
<path d="M23.8848 43.625C25.1946 41.8785 26.8932 40.4609 28.8458 39.4846C30.7985 38.5083 32.9516 38 35.1348 38C37.3179 38 39.4711 38.5083 41.4237 39.4846C43.3764 40.4609 45.0749 41.8785 46.3848 43.625" stroke="#646EFA" stroke-linecap="round" stroke-linejoin="round"/>
<path d="M57.6348 62.375C61.7769 62.375 65.1348 59.0171 65.1348 54.875C65.1348 50.7329 61.7769 47.375 57.6348 47.375C53.4926 47.375 50.1348 50.7329 50.1348 54.875C50.1348 59.0171 53.4926 62.375 57.6348 62.375Z" stroke="#646EFA" stroke-linecap="round" stroke-linejoin="round"/>
<path d="M46.3848 68C47.6946 66.2535 49.3932 64.8359 51.3458 63.8596C53.2985 62.8833 55.4516 62.375 57.6348 62.375C59.8179 62.375 61.9711 62.8833 63.9237 63.8596C65.8764 64.8359 67.5749 66.2535 68.8848 68" stroke="#646EFA" stroke-linecap="round" stroke-linejoin="round"/>
<path d="M57.6348 38C61.7769 38 65.1348 34.6421 65.1348 30.5C65.1348 26.3579 61.7769 23 57.6348 23C53.4926 23 50.1348 26.3579 50.1348 30.5C50.1348 34.6421 53.4926 38 57.6348 38Z" stroke="#646EFA" stroke-linecap="round" stroke-linejoin="round"/>
<path d="M46.3848 43.625C47.6946 41.8785 49.3932 40.4609 51.3458 39.4846C53.2985 38.5083 55.4516 38 57.6348 38C59.8179 38 61.9711 38.5083 63.9237 39.4846C65.8764 40.4609 67.5749 41.8785 68.8848 43.625" stroke="#646EFA" stroke-linecap="round" stroke-linejoin="round"/>
<defs>
<linearGradient id="paint0_linear_608_27306" x1="46" y1="1" x2="46" y2="91" gradientUnits="userSpaceOnUse">
<stop stop-color="#C5C8FF"/>
<stop offset="1" stop-color="white"/>
</linearGradient>
</defs>
</svg>
