<svg width="390" height="104" viewBox="0 0 390 104" fill="none" xmlns="http://www.w3.org/2000/svg">
<path d="M144.243 22.7119C149.81 22.7119 154.178 23.8748 157.376 26.1854C160.574 28.4961 162.158 32.0904 162.158 36.9383C162.228 39.6792 161.54 42.3848 160.174 44.7461C158.826 46.9535 156.904 48.7362 154.622 49.896C152.003 51.2118 149.144 51.9575 146.227 52.0858L145.161 48.0988C148.601 48.1466 152.004 48.8376 155.199 50.1376C157.945 51.2342 160.367 53.0339 162.232 55.363C163.981 57.6323 164.902 60.4512 164.838 63.337C164.914 65.834 164.407 68.3137 163.357 70.571C162.395 72.5315 160.977 74.2219 159.227 75.4944C157.429 76.7775 155.425 77.7284 153.304 78.3034C151.067 78.9026 148.762 79.2021 146.449 79.1944H130V22.7119H144.243ZM145.724 47.4041C146.954 47.5194 148.193 47.3466 149.348 46.8991C150.503 46.4515 151.542 45.741 152.386 44.8216C153.782 43.054 154.516 40.8381 154.459 38.5693C154.574 37.3364 154.389 36.0937 153.922 34.9507C153.454 33.8077 152.719 32.7995 151.779 32.0149C149.659 30.5616 147.135 29.8465 144.584 29.9761H137.373V47.4041H145.724ZM146.035 72.1718C147.964 72.1965 149.882 71.8797 151.705 71.2355C153.294 70.678 154.688 69.6597 155.718 68.3057C156.741 66.893 157.263 65.1676 157.198 63.4125C157.301 61.5338 156.685 59.6876 155.481 58.2627C154.263 56.9739 152.729 56.0406 151.039 55.5593C149.252 55.0153 147.396 54.7406 145.531 54.7438H137.329V72.1718H146.035Z" fill="white"/>
<path d="M175.568 34.869C175.563 34.3111 175.672 33.7591 175.889 33.2539C176.106 32.7487 176.424 32.3035 176.82 31.9514C177.584 31.2005 178.575 30.7839 179.602 30.7814C180.631 30.7736 181.625 31.1916 182.384 31.9514C182.771 32.31 183.081 32.7572 183.293 33.2614C183.505 33.7656 183.612 34.3144 183.608 34.869C183.619 35.4292 183.515 35.985 183.303 36.4952C183.091 37.0055 182.777 37.4572 182.384 37.817C181.616 38.5569 180.626 38.9625 179.602 38.9567C178.578 38.9625 177.588 38.5569 176.82 37.817C176.418 37.464 176.096 37.0143 175.879 36.503C175.662 35.9917 175.555 35.4325 175.568 34.869ZM176 46.6609H182.759V79.1949H176V46.6609Z" fill="white"/>
<path d="M191.656 61.6735C191.611 58.554 192.386 55.4808 193.896 52.785C195.394 50.1494 197.555 47.9878 200.145 46.5323C202.941 44.9663 206.078 44.1747 209.253 44.2336C212.397 44.1651 215.502 44.9579 218.258 46.5323C220.79 48.0005 222.885 50.1633 224.316 52.785C225.746 55.5087 226.496 58.5624 226.496 61.6659C226.496 64.7693 225.746 67.8231 224.316 70.5468C222.887 73.1815 220.792 75.3596 218.258 76.8454C215.488 78.4559 212.353 79.2655 209.18 79.1901C206.041 79.2571 202.936 78.5091 200.145 77.014C197.576 75.5999 195.43 73.4795 193.94 70.8839C192.368 68.0954 191.576 64.9051 191.656 61.6735ZM198.819 61.6735C198.792 63.6799 199.265 65.6593 200.189 67.4205C201.053 69.0813 202.311 70.4846 203.844 71.4969C205.394 72.5202 207.196 73.0527 209.032 73.0294C210.892 73.0588 212.719 72.5264 214.294 71.4969C215.812 70.5088 217.06 69.1314 217.919 67.4971C218.791 65.7171 219.246 63.7478 219.246 61.7502C219.246 59.7525 218.791 57.7832 217.919 56.0032C217.068 54.3224 215.82 52.8935 214.294 51.8501C212.734 50.8235 210.922 50.291 209.076 50.3176C207.23 50.2848 205.416 50.8178 203.859 51.8501C202.317 52.8954 201.055 54.3294 200.189 56.0186C199.252 57.7717 198.76 59.7443 198.76 61.7502L198.819 61.6735Z" fill="white"/>
<path d="M250.605 95.3266C248.426 95.3608 246.254 95.0633 244.163 94.444C242.376 93.8878 240.675 93.08 239.11 92.0441C237.589 91.0076 236.127 89.8859 234.729 88.6841L239.08 83.5436C240.662 85.0411 242.439 86.3122 244.361 87.3216C246.23 88.2406 248.284 88.707 250.36 88.6841C252.523 88.7508 254.673 88.3221 256.65 87.4299C258.244 86.7121 259.589 85.5254 260.512 84.0235C261.403 82.4995 261.883 80.7636 261.901 78.9914L261.977 70.0109L262.603 71.4509C261.543 73.8887 259.747 75.9219 257.474 77.2572C254.756 78.9027 251.631 79.7248 248.467 79.6262C245.571 79.6397 242.727 78.8355 240.255 77.3037C237.727 75.767 235.626 73.6038 234.149 71.0173C232.605 68.3036 231.813 65.2163 231.859 62.0833C231.795 58.953 232.563 55.863 234.083 53.1382C235.604 50.4134 237.82 48.1547 240.499 46.5997C243.084 45.0505 246.03 44.2325 249.032 44.2307C251.799 44.198 254.535 44.8294 257.016 46.0733C259.189 47.086 261.04 48.6949 262.359 50.7183L261.885 52.0654L262.588 45.6707H269.381V79.0378C269.411 81.9186 268.632 84.7486 267.137 87.1977C265.551 89.7324 263.306 91.7739 260.649 93.0969C257.525 94.6459 254.08 95.4106 250.605 95.3266ZM239.309 61.9285C239.284 63.9789 239.811 65.9974 240.835 67.7658C241.821 69.4943 243.237 70.9303 244.941 71.9309C246.651 72.9573 248.603 73.4925 250.589 73.4792C252.396 73.5037 254.187 73.1341 255.84 72.3954C257.351 71.7072 258.687 70.6801 259.748 69.3916C260.776 68.1536 261.531 66.7071 261.962 65.149V58.4911C261.508 56.9328 260.697 55.5056 259.596 54.326C258.469 53.1413 257.126 52.1895 255.642 51.5235C254.059 50.7978 252.342 50.423 250.605 50.4241C248.646 50.4101 246.717 50.9121 245.008 51.881C243.298 52.85 241.865 54.2527 240.85 55.9518C239.799 57.7489 239.265 59.8085 239.309 61.8975V61.9285Z" fill="white"/>
<path d="M295.536 79.1875C292.179 79.2805 288.855 78.5034 285.884 76.9312C283.275 75.5075 281.114 73.3812 279.644 70.7917C278.129 68.0361 277.364 64.9285 277.426 61.7819C277.392 58.6651 278.258 55.605 279.919 52.9716C281.556 50.331 283.828 48.1458 286.527 46.6172C289.318 45.0123 292.488 44.1905 295.704 44.2381C299.623 44.1073 303.447 45.4668 306.41 48.0447C309.403 50.8417 311.451 54.5066 312.268 58.5279L285.212 68.0595L283.468 63.6851L305.539 55.5042L304.009 56.6247C303.397 54.8459 302.326 53.2621 300.904 52.0354C299.275 50.711 297.217 50.0336 295.123 50.1321C293.246 50.099 291.397 50.5934 289.785 51.5595C288.226 52.5074 286.956 53.8666 286.114 55.4888C285.181 57.2875 284.718 59.2943 284.768 61.3214C284.731 63.3899 285.204 65.4356 286.145 67.2768C287.026 68.9806 288.374 70.3969 290.029 71.3596C291.741 72.3792 293.698 72.91 295.689 72.8944C297.108 72.8971 298.516 72.6262 299.834 72.0963C301.191 71.5673 302.479 70.8767 303.673 70.0396L307.022 75.4577C305.32 76.6 303.473 77.5086 301.531 78.1591C299.603 78.8306 297.577 79.178 295.536 79.1875Z" fill="white"/>
<path d="M335.741 79.1878C332.384 79.2787 329.061 78.5017 326.09 76.9315C323.483 75.5039 321.323 73.3785 319.849 70.792C318.334 68.0364 317.569 64.9288 317.631 61.7822C317.597 58.6655 318.463 55.6054 320.125 52.972C321.761 50.3313 324.033 48.1462 326.732 46.6176C329.523 45.0127 332.693 44.1909 335.909 44.2385C339.829 44.1046 343.654 45.4645 346.615 48.045C349.614 50.8376 351.663 54.5045 352.473 58.5283L325.417 68.0599L323.719 63.6241L345.805 55.4432L344.275 56.5636C343.637 54.8002 342.545 53.2379 341.109 52.0357C339.486 50.7111 337.433 50.0335 335.343 50.1325C333.49 50.0876 331.661 50.5659 330.066 51.513C328.471 52.4601 327.172 53.8378 326.319 55.4892C325.386 57.2879 324.923 59.2946 324.973 61.3218C324.937 63.3903 325.409 65.4359 326.35 67.2771C327.248 68.9893 328.618 70.4064 330.296 71.3599C331.778 72.1953 333.426 72.6893 335.122 72.8061C336.818 72.9229 338.518 72.6596 340.1 72.0352C341.457 71.5062 342.746 70.8157 343.939 69.9785L347.273 75.458C345.566 76.6006 343.714 77.5091 341.767 78.1594C339.829 78.8342 337.792 79.1817 335.741 79.1878Z" fill="white"/>
<path d="M360.516 79.1949V17.333H367.731V79.1949H360.516ZM365.489 68.632L364.806 61.4406L384.106 45.3565L388.56 49.2847L365.489 68.632ZM375.481 57.203L390 79.1949H381.627L370.641 61.4406L375.481 57.203Z" fill="white"/>
<path d="M52.0002 104C41.7155 104 31.6618 100.951 23.1104 95.2367C14.5591 89.5229 7.89407 81.4015 3.9583 71.8998C0.0225317 62.398 -1.00725 51.9425 0.999191 41.8554C3.00563 31.7684 7.95816 22.5029 15.2305 15.2305C22.5029 7.95817 31.7684 3.00563 41.8554 0.999191C51.9425 -1.00725 62.398 0.0225317 71.8998 3.9583C81.4015 7.89407 89.5229 14.5591 95.2367 23.1104C100.951 31.6618 104 41.7155 104 52.0002C103.985 65.7867 98.5011 79.004 88.7525 88.7525C79.004 98.5011 65.7867 103.985 52.0002 104ZM52.0002 4.80254C42.6647 4.79961 33.5381 7.56522 25.7745 12.7496C18.011 17.934 11.9593 25.3042 8.38471 33.9282C4.81017 42.5522 3.87339 52.0425 5.69285 61.1989C7.51231 70.3553 12.0063 78.7665 18.6064 85.3687C25.2065 91.9709 33.6163 96.4675 42.7721 98.2898C51.928 100.112 61.4186 99.1784 70.0437 95.6065C78.6688 92.0347 86.041 85.9852 91.2278 78.2233C96.4146 70.4614 99.183 61.3356 99.183 52.0002C99.1596 39.4923 94.1815 27.5033 85.3385 18.6575C76.4955 9.81172 64.508 4.82988 52.0002 4.80254Z" fill="white"/>
<path d="M52.0002 104C41.7155 104 31.6618 100.951 23.1104 95.2367C14.5591 89.5229 7.89407 81.4015 3.9583 71.8998C0.0225317 62.398 -1.00725 51.9425 0.999191 41.8554C3.00563 31.7684 7.95816 22.5029 15.2305 15.2305C22.5029 7.95817 31.7684 3.00563 41.8554 0.999191C51.9425 -1.00725 62.398 0.0225317 71.8998 3.9583C81.4015 7.89407 89.5229 14.5591 95.2367 23.1104C100.951 31.6618 104 41.7155 104 52.0002C103.985 65.7867 98.5011 79.004 88.7525 88.7525C79.004 98.5011 65.7867 103.985 52.0002 104ZM52.0002 4.80254C42.6647 4.79961 33.5381 7.56522 25.7745 12.7496C18.011 17.934 11.9593 25.3042 8.38471 33.9282C4.81017 42.5522 3.87339 52.0425 5.69285 61.1989C7.51231 70.3553 12.0063 78.7665 18.6064 85.3687C25.2065 91.9709 33.6163 96.4675 42.7721 98.2898C51.928 100.112 61.4186 99.1784 70.0437 95.6065C78.6688 92.0347 86.041 85.9852 91.2278 78.2233C96.4146 70.4614 99.183 61.3356 99.183 52.0002C99.1596 39.4923 94.1815 27.5033 85.3385 18.6575C76.4955 9.81172 64.508 4.82988 52.0002 4.80254Z" fill="white"/>
<path d="M45.2853 63.9512C47.2729 65.2766 49.6091 65.9826 51.9981 65.9796V65.9205C55.1847 65.9167 58.2405 64.6532 60.4993 62.4055C62.7581 60.1578 64.0366 57.1082 64.0561 53.9216C64.059 51.5326 63.3531 49.1964 62.0277 47.2088C60.7022 45.2212 58.8168 43.6715 56.6102 42.7559C54.4036 41.8403 51.9749 41.6 49.6317 42.0653C47.2884 42.5307 45.1359 43.6808 43.4466 45.3701C41.7573 47.0594 40.6072 49.2119 40.1418 51.5552C39.6765 53.8985 39.9168 56.3271 40.8324 58.5338C41.748 60.7404 43.2977 62.6257 45.2853 63.9512Z" fill="white"/>
<path fill-rule="evenodd" clip-rule="evenodd" d="M51.9988 93.7457C75.0539 93.7457 93.7438 75.0559 93.7438 52.0008C93.7438 28.9457 75.0539 10.2559 51.9988 10.2559C28.9437 10.2559 10.2539 28.9457 10.2539 52.0008C10.2539 75.0559 28.9437 93.7457 51.9988 93.7457ZM51.9255 87.1698C45.9585 87.1841 40.1287 85.38 35.2128 81.9979L37.917 78.0672C42.0482 80.9269 46.9603 82.4439 51.9846 82.4116C57.0176 82.4466 61.9572 81.0528 66.2296 78.3923L68.786 82.3821C63.7355 85.549 57.8867 87.2098 51.9255 87.1698ZM39.9401 41.3169C43.1726 38.1838 47.4964 36.4299 51.9981 36.4257L52.0129 36.4405C56.6374 36.4405 61.0725 38.2776 64.3426 41.5476C67.6126 44.8177 69.4497 49.2528 69.4497 53.8773C69.4497 58.5019 67.6126 62.937 64.3426 66.207C61.0725 69.4771 56.6374 71.3141 52.0129 71.3141C43.324 71.3141 35.1081 64.9157 34.5613 56.5372V26.4513H39.9401V41.3169Z" fill="white"/>
</svg>
