<svg width="66" height="66" viewBox="0 0 66 66" fill="none" xmlns="http://www.w3.org/2000/svg">
<rect y="66" width="66" height="66" rx="20" transform="rotate(-90 0 66)" fill="#5560FF"/>
<path d="M31.7303 24.1217L31.7303 37.563L27.5545 33.3746C27.3155 33.1356 26.9913 33.0013 26.6533 33.0013C26.3153 33.0013 25.9912 33.1356 25.7522 33.3746C25.5132 33.6136 25.3789 33.9377 25.3789 34.2757C25.3789 34.6137 25.5132 34.9379 25.7522 35.1769L32.0983 41.523C32.219 41.6386 32.3614 41.7291 32.5172 41.7896C32.8262 41.9165 33.1728 41.9165 33.4818 41.7896C33.6376 41.7291 33.7799 41.6386 33.9006 41.523L40.2468 35.1769C40.3658 35.0589 40.4602 34.9185 40.5246 34.7638C40.5891 34.6092 40.6222 34.4433 40.6222 34.2757C40.6222 34.1082 40.5891 33.9423 40.5246 33.7876C40.4602 33.6329 40.3658 33.4925 40.2468 33.3746C40.1288 33.2556 39.9884 33.1612 39.8338 33.0967C39.6791 33.0323 39.5132 32.9991 39.3456 32.9991C39.1781 32.9991 39.0122 33.0323 38.8575 33.0967C38.7029 33.1612 38.5625 33.2556 38.4445 33.3746L34.2687 37.563L34.2687 24.1217C34.2687 23.7851 34.135 23.4623 33.897 23.2243C33.6589 22.9862 33.3361 22.8525 32.9995 22.8525C32.6629 22.8525 32.34 22.9862 32.102 23.2243C31.864 23.4623 31.7303 23.7851 31.7303 24.1217Z" fill="white"/>
</svg>
