<svg width="61" height="59" viewBox="0 0 61 59" fill="none" xmlns="http://www.w3.org/2000/svg">
<path d="M22.7632 16.6787L21.5744 16.2925L22.7632 16.6787ZM3.79947 27.5417L3.06474 28.553H3.06474L3.79947 27.5417ZM15.3104 39.6161L16.4992 40.0024L15.3104 39.6161ZM13.7319 34.758L14.4667 33.7468L13.7319 34.758ZM18.2031 56.1504L18.9378 57.1617L18.2031 56.1504ZM11.5165 51.2924L10.3277 50.9061L11.5165 51.2924ZM33.2436 48.9341L32.5089 49.9454L33.2436 48.9341ZM28.1355 48.9341L27.4008 47.9228L28.1355 48.9341ZM49.8626 51.2924L51.0514 50.9061L49.8626 51.2924ZM43.176 56.1504L43.9108 55.1392L43.176 56.1504ZM47.6472 34.758L48.3819 35.7693L47.6472 34.758ZM46.0687 39.6161L44.8799 40.0024L46.0687 39.6161ZM57.5797 27.5417L56.8449 26.5304L57.5797 27.5417ZM38.6159 16.6787L37.4271 17.065L38.6159 16.6787ZM34.8221 5.00244L36.0109 4.61617V4.61617L34.8221 5.00244ZM26.5571 5.00244L25.3682 4.61617L26.5571 5.00244ZM17.8609 29.3042C17.3086 28.89 16.5251 29.0019 16.1109 29.5542C15.6967 30.1065 15.8086 30.89 16.3609 31.3042L17.8609 29.3042ZM19.7855 32.3102L20.5355 31.3102V31.3102L19.7855 32.3102ZM22.0129 39.7165L20.8358 39.2961L22.0129 39.7165ZM19.7357 42.3761C19.5036 43.0263 19.8424 43.7416 20.4925 43.9737C21.1426 44.2059 21.8579 43.8671 22.0901 43.217L19.7357 42.3761ZM33.6333 5.38871L37.4271 17.065L39.8048 16.2925L36.0109 4.61617L33.6333 5.38871ZM42.7484 20.9312H55.0256V18.4312H42.7484V20.9312ZM56.8449 26.5304L46.9125 33.7468L48.3819 35.7693L58.3144 28.553L56.8449 26.5304ZM44.8799 40.0024L48.6738 51.6787L51.0514 50.9061L47.2575 39.2298L44.8799 40.0024ZM43.9108 55.1392L33.9783 47.9228L32.5089 49.9454L42.4413 57.1617L43.9108 55.1392ZM27.4008 47.9228L17.4684 55.1392L18.9378 57.1617L28.8703 49.9454L27.4008 47.9228ZM12.7054 51.6787L16.4992 40.0024L14.1216 39.2298L10.3277 50.9061L12.7054 51.6787ZM14.4667 33.7468L4.53421 26.5304L3.06474 28.553L12.9972 35.7693L14.4667 33.7468ZM6.35351 20.9312H18.6307V18.4312H6.35351V20.9312ZM23.952 17.065L27.7459 5.38871L25.3682 4.61617L21.5744 16.2925L23.952 17.065ZM18.6307 20.9312C21.0547 20.9312 23.203 19.3704 23.952 17.065L21.5744 16.2925C21.16 17.5678 19.9716 18.4312 18.6307 18.4312V20.9312ZM4.53421 26.5304C2.10847 24.768 3.35514 20.9312 6.35351 20.9312V18.4312C0.933326 18.4312 -1.32027 25.3671 3.06474 28.553L4.53421 26.5304ZM16.4992 40.0024C17.2483 37.697 16.4277 35.1715 14.4667 33.7468L12.9972 35.7693C14.082 36.5575 14.5359 37.9545 14.1216 39.2298L16.4992 40.0024ZM17.4684 55.1392C15.0426 56.9016 11.7788 54.5303 12.7054 51.6787L10.3277 50.9061C8.6528 56.061 14.5528 60.3476 18.9378 57.1617L17.4684 55.1392ZM33.9783 47.9228C32.0173 46.498 29.3618 46.498 27.4008 47.9228L28.8703 49.9454C29.9551 49.1572 31.424 49.1572 32.5089 49.9454L33.9783 47.9228ZM48.6738 51.6787C49.6003 54.5303 46.3365 56.9016 43.9108 55.1392L42.4413 57.1617C46.8263 60.3476 52.7263 56.061 51.0514 50.9061L48.6738 51.6787ZM46.9125 33.7468C44.9514 35.1715 44.1309 37.697 44.8799 40.0024L47.2575 39.2298C46.8432 37.9545 47.2971 36.5575 48.3819 35.7693L46.9125 33.7468ZM55.0256 20.9312C58.024 20.9312 59.2707 24.768 56.8449 26.5304L58.3144 28.553C62.6994 25.3671 60.4458 18.4312 55.0256 18.4312V20.9312ZM37.4271 17.065C38.1762 19.3704 40.3245 20.9312 42.7484 20.9312V18.4312C41.4075 18.4312 40.2191 17.5678 39.8048 16.2925L37.4271 17.065ZM36.0109 4.61617C34.336 -0.538724 27.0432 -0.538724 25.3682 4.61617L27.7459 5.38871C28.6724 2.5371 32.7067 2.5371 33.6333 5.38871L36.0109 4.61617ZM16.3609 31.3042L19.0355 33.3102L20.5355 31.3102L17.8609 29.3042L16.3609 31.3042ZM20.8358 39.2961L19.7357 42.3761L22.0901 43.217L23.1901 40.137L20.8358 39.2961ZM19.0355 33.3102C20.8825 34.6954 21.6123 37.1219 20.8358 39.2961L23.1901 40.137C24.3351 36.9309 23.2591 33.3528 20.5355 31.3102L19.0355 33.3102Z" fill="#35B185"/>
</svg>
