<svg width="15" height="14" viewBox="0 0 15 14" fill="none" xmlns="http://www.w3.org/2000/svg">
<path d="M1.00488 6H11.595L8.29499 2.71C8.10668 2.5217 8.0009 2.2663 8.0009 2C8.0009 1.7337 8.10668 1.47831 8.29499 1.29C8.48329 1.1017 8.73868 0.995911 9.00499 0.995911C9.27129 0.995911 9.52668 1.1017 9.71499 1.29L14.715 6.29C14.806 6.38511 14.8774 6.49725 14.925 6.62C15.025 6.86346 15.025 7.13654 14.925 7.38C14.8774 7.50275 14.806 7.6149 14.715 7.71L9.71499 12.71C9.62202 12.8037 9.51142 12.8781 9.38956 12.9289C9.2677 12.9797 9.137 13.0058 9.00499 13.0058C8.87297 13.0058 8.74227 12.9797 8.62041 12.9289C8.49855 12.8781 8.38795 12.8037 8.29499 12.71C8.20126 12.617 8.12686 12.5064 8.0761 12.3846C8.02533 12.2627 7.99919 12.132 7.99919 12C7.99919 11.868 8.02533 11.7373 8.0761 11.6154C8.12686 11.4936 8.20126 11.383 8.29499 11.29L11.595 8H1.00488C0.739666 8 0.485312 7.89465 0.297775 7.70711C0.110239 7.51957 0.00488281 7.26522 0.00488281 7C0.00488281 6.73479 0.110239 6.48043 0.297775 6.2929C0.485312 6.10536 0.739666 6 1.00488 6Z" fill="#262626"/>
</svg>
