<svg width="97" height="98" viewBox="0 0 97 98" fill="none" xmlns="http://www.w3.org/2000/svg">
<path d="M92.4458 96.6751C92.3097 97.2104 92.6333 97.7546 93.1685 97.8907C93.7038 98.0268 94.248 97.7032 94.3841 97.168L92.4458 96.6751ZM52.7514 62.4414L52.4255 61.496L52.7514 62.4414ZM1.09138 7.53192C0.707827 7.92929 0.719038 8.56236 1.11642 8.94591L7.59206 15.1962C7.98943 15.5797 8.6225 15.5685 9.00605 15.1712C9.3896 14.7738 9.37839 14.1407 8.98101 13.7572L3.22488 8.20135L8.78069 2.44523C9.16424 2.04785 9.15303 1.41478 8.75565 1.03123C8.35828 0.647686 7.72521 0.658897 7.34166 1.05627L1.09138 7.53192ZM94.3841 97.168C97.459 85.075 96.1835 74.9324 92.1928 66.6805C88.2092 58.4434 81.5583 52.1676 74.0016 47.7191C66.4465 43.2716 57.9489 40.6273 50.1981 39.6676C42.4775 38.7117 35.3619 39.4118 30.6385 41.8048L31.5424 43.5889C35.763 41.4506 42.4211 40.72 49.9523 41.6525C57.4534 42.5812 65.6857 45.1445 72.987 49.4426C80.2865 53.7398 86.6184 59.7478 90.3923 67.5513C94.159 75.34 95.4157 84.9949 92.4458 96.6751L94.3841 97.168ZM30.6385 41.8048C26.0017 44.1538 23.3687 47.2332 22.6251 50.5324C21.8782 53.8464 23.0953 57.1274 25.622 59.724C30.6557 64.897 40.9848 67.5554 53.0773 63.3869L52.4255 61.496C40.8535 65.4852 31.4082 62.8025 27.0554 58.3293C24.889 56.1029 24.0099 53.4845 24.5762 50.9721C25.1457 48.445 27.2351 45.771 31.5424 43.5889L30.6385 41.8048ZM53.0773 63.3869C60.4397 60.8488 64.7994 55.925 66.0836 49.9135C67.3583 43.9457 65.5634 37.0937 61.032 30.7004C51.9593 17.8996 31.7909 6.69534 1.79319 7.22655L1.8286 9.22624C31.3446 8.70355 50.803 19.7267 59.4003 31.8569C63.7041 37.9291 65.255 44.2184 64.1277 49.4957C63.0098 54.7291 59.2196 59.154 52.4255 61.496L53.0773 63.3869Z" fill="#646EFA"/>
</svg>
