<svg width="120" height="120" viewBox="0 0 120 120" fill="none" xmlns="http://www.w3.org/2000/svg">
<rect width="120" height="120" rx="16" fill="#F9F9F9"/>
<path d="M80.2622 44.825C79.537 37.4259 73.1448 34.9567 65.0783 34.2648L65.0597 24L58.8114 24.0122L58.83 34.0066C57.1873 34.0095 55.5085 34.0451 53.8402 34.0814L53.823 24.0206L47.5783 24.0318L47.5948 34.2939C46.2424 34.324 44.9137 34.3518 43.6185 34.3548L43.6176 34.3227L35 34.3351L35.0137 41.0085C35.0137 41.0085 39.6276 40.9125 39.5511 40.9971C42.0816 40.9932 42.9082 42.4612 43.1506 43.7286L43.1722 55.4225C43.3466 55.423 43.5744 55.4298 43.8328 55.4651C43.6244 55.4657 43.4023 55.465 43.1726 55.4675L43.2006 71.8497C43.0914 72.6462 42.6255 73.9175 40.8572 73.9235C40.9376 73.9941 36.3154 73.9307 36.3154 73.9307L35.0871 81.3951L43.2185 81.3801C44.7318 81.3795 46.2206 81.4025 47.6826 81.4085L47.7042 91.7904L53.9457 91.7799L53.9266 81.5077C55.6406 81.5401 57.2987 81.5507 58.9182 81.5464L58.934 91.7711L65.1826 91.7588L65.1653 81.3953C75.6691 80.7737 83.0163 78.1143 83.9111 68.2476C84.6336 60.3032 80.891 56.766 74.9258 55.3448C78.5453 53.4934 80.8021 50.239 80.2622 44.825ZM71.5607 67.0396C71.578 74.7981 58.2922 73.9398 54.0575 73.9515L54.0343 60.1959C58.2699 60.1896 71.5463 58.9473 71.5607 67.0396ZM68.6193 47.6378C68.6303 54.6961 57.55 53.8927 54.0227 53.8993L54.0006 41.4241C57.5279 41.4175 68.605 40.2762 68.6193 47.6378Z" fill="#2845DF"/>
</svg>
