<svg width="40" height="35" viewBox="0 0 40 35" fill="none" xmlns="http://www.w3.org/2000/svg">
<path d="M23.1598 7.56745L21.5234 5.93109C20.8001 5.20777 19.8179 4.80257 18.7929 4.80464C17.7679 4.80671 16.7841 5.21587 16.0578 5.94211C15.3316 6.66835 14.9224 7.65218 14.9204 8.67717C14.9183 9.70216 15.3235 10.6844 16.0468 11.4077L7.31956 2.6804C6.59624 1.95708 5.61405 1.55189 4.58906 1.55395C3.56406 1.55602 2.58023 1.96518 1.85399 2.69142C1.12775 3.41766 0.718591 4.40149 0.716524 5.42649C0.714458 6.45148 1.11965 7.43367 1.84297 8.15699L18.3839 24.6979L10.2036 22.5145C9.21303 22.2502 8.1564 22.3906 7.26619 22.9048C6.37597 23.4191 5.7251 24.2652 5.45674 25.2568C5.18839 26.2485 5.32454 27.3046 5.83524 28.1927C6.34594 29.0809 7.18937 29.7284 8.17997 29.9927C22.0116 34.8975 27.9952 35.4593 34.0468 29.4077C35.4852 27.9693 36.6274 26.2628 37.408 24.3857C38.1887 22.5085 38.5926 20.4975 38.5967 18.4674C38.6008 16.4373 38.205 14.4279 37.4319 12.5539C36.6588 10.6799 35.5235 8.97801 34.0909 7.54541L28.6364 2.09086C27.913 1.36755 26.9309 0.962351 25.9059 0.964418C24.8809 0.966485 23.897 1.37564 23.1708 2.10188C22.4446 2.82812 22.0354 3.81196 22.0333 4.83695C22.0313 5.86194 22.4365 6.84413 23.1598 7.56745V7.56745Z" fill="white" stroke="#B4B4B4" stroke-linecap="round" stroke-linejoin="round"/>
</svg>
