<svg width="244" height="23" viewBox="0 0 244 23" fill="none" xmlns="http://www.w3.org/2000/svg">
<path d="M10.65 11.5C10.65 12.54 10.92 13.41 11.46 14.11C12 14.79 12.73 15.34 13.65 15.76C14.59 16.16 15.67 16.45 16.89 16.63C18.11 16.79 19.4 16.87 20.76 16.87C22.32 16.87 23.91 16.78 25.53 16.6C27.15 16.42 28.68 16.21 30.12 15.97C31.56 15.71 32.85 15.44 33.99 15.16C35.13 14.88 35.99 14.64 36.57 14.44V20.29C35.83 20.67 34.9 21.02 33.78 21.34C32.68 21.66 31.44 21.94 30.06 22.18C28.7 22.42 27.24 22.61 25.68 22.75C24.12 22.89 22.53 22.96 20.91 22.96C19.25 22.96 17.58 22.88 15.9 22.72C14.24 22.56 12.64 22.3 11.1 21.94C9.58 21.56 8.15 21.08 6.81 20.5C5.49 19.9 4.33 19.18 3.33 18.34C2.33 17.48 1.53 16.49 0.93 15.37C0.35 14.23 0.04 12.94 0 11.5C0.06 10.06 0.38 8.78 0.96 7.66C1.54 6.52 2.33 5.53 3.33 4.69C4.33 3.83 5.49 3.11 6.81 2.53C8.15 1.93 9.58 1.45 11.1 1.09C12.64 0.709999 14.24 0.439999 15.9 0.279999C17.58 0.119999 19.25 0.0399984 20.91 0.0399984C22.53 0.0399984 24.12 0.109999 25.68 0.249999C27.24 0.389999 28.7 0.579999 30.06 0.819999C31.44 1.06 32.68 1.34 33.78 1.66C34.9 1.98 35.83 2.33 36.57 2.71V8.56C35.99 8.36 35.13 8.12 33.99 7.84C32.85 7.56 31.56 7.3 30.12 7.06C28.68 6.8 27.15 6.58 25.53 6.4C23.91 6.22 22.32 6.13 20.76 6.13C19.4 6.13 18.11 6.22 16.89 6.4C15.67 6.56 14.59 6.85 13.65 7.27C12.73 7.67 12 8.22 11.46 8.92C10.92 9.6 10.65 10.46 10.65 11.5ZM82.173 0.999999H91.1731V16H116.073V22H82.173V0.999999ZM161.71 0.999999H170.71V10.3C170.71 11.42 171 12.37 171.58 13.15C172.18 13.91 172.96 14.53 173.92 15.01C174.88 15.47 175.96 15.8 177.16 16C178.38 16.2 179.61 16.3 180.85 16.3C182.09 16.3 183.31 16.2 184.51 16C185.73 15.8 186.82 15.47 187.78 15.01C188.74 14.53 189.51 13.91 190.09 13.15C190.69 12.37 190.99 11.42 190.99 10.3V0.999999H199.99V11.8C199.99 13.12 199.72 14.31 199.18 15.37C198.66 16.43 197.93 17.38 196.99 18.22C196.07 19.04 194.98 19.75 193.72 20.35C192.48 20.95 191.15 21.44 189.73 21.82C188.31 22.2 186.84 22.48 185.32 22.66C183.8 22.84 182.31 22.92 180.85 22.9C179.39 22.92 177.9 22.84 176.38 22.66C174.86 22.48 173.39 22.2 171.97 21.82C170.55 21.44 169.21 20.95 167.95 20.35C166.71 19.75 165.62 19.04 164.68 18.22C163.76 17.38 163.03 16.43 162.49 15.37C161.97 14.31 161.71 13.12 161.71 11.8V0.999999Z" fill="#2845DF"/>
<path d="M59.3325 22.9C57.8725 22.92 56.3525 22.83 54.7725 22.63C53.1925 22.45 51.6425 22.16 50.1225 21.76C48.6225 21.34 47.1925 20.82 45.8325 20.2C44.4925 19.58 43.3125 18.85 42.2925 18.01C41.2725 17.15 40.4625 16.18 39.8625 15.1C39.2825 14.02 38.9925 12.82 38.9925 11.5C38.9925 10.18 39.2825 8.98 39.8625 7.9C40.4425 6.8 41.2425 5.83 42.2625 4.99C43.2825 4.13 44.4625 3.39 45.8025 2.77C47.1625 2.15 48.5925 1.64 50.0925 1.24C51.6125 0.839999 53.1625 0.55 54.7425 0.37C56.3225 0.17 57.8525 0.0799997 59.3325 0.0999994C60.8125 0.0799997 62.3425 0.17 63.9225 0.37C65.5225 0.55 67.0725 0.839999 68.5725 1.24C70.0925 1.64 71.5225 2.15 72.8625 2.77C74.2225 3.39 75.4125 4.13 76.4325 4.99C77.4525 5.83 78.2525 6.8 78.8325 7.9C79.4325 8.98 79.7325 10.18 79.7325 11.5C79.7325 12.82 79.4325 14.02 78.8325 15.1C78.2525 16.18 77.4425 17.15 76.4025 18.01C75.3825 18.85 74.1925 19.58 72.8325 20.2C71.4925 20.82 70.0625 21.34 68.5425 21.76C67.0425 22.16 65.4925 22.45 63.8925 22.63C62.3125 22.83 60.7925 22.92 59.3325 22.9ZM49.6425 11.5C49.6425 12.4 49.8925 13.19 50.3925 13.87C50.9125 14.53 51.6125 15.08 52.4925 15.52C53.3925 15.94 54.4225 16.26 55.5825 16.48C56.7625 16.7 58.0125 16.81 59.3325 16.81C60.6525 16.81 61.9025 16.7 63.0825 16.48C64.2625 16.26 65.2925 15.94 66.1725 15.52C67.0725 15.08 67.7825 14.53 68.3025 13.87C68.8225 13.19 69.0825 12.4 69.0825 11.5C69.0825 10.6 68.8225 9.82 68.3025 9.16C67.7825 8.48 67.0725 7.93 66.1725 7.51C65.2925 7.07 64.2625 6.74 63.0825 6.52C61.9025 6.3 60.6525 6.19 59.3325 6.19C58.0125 6.19 56.7625 6.3 55.5825 6.52C54.4225 6.74 53.3925 7.07 52.4925 7.51C51.6125 7.93 50.9125 8.48 50.3925 9.16C49.8925 9.82 49.6425 10.6 49.6425 11.5ZM211.43 14.5V22H202.43V0.999999H233.75C235.41 0.999999 236.79 1.34 237.89 2.02C239.01 2.68 239.85 3.51 240.41 4.51C240.97 5.51 241.25 6.59 241.25 7.75C241.25 8.91 240.97 9.99 240.41 10.99C239.85 11.99 239.01 12.83 237.89 13.51C236.79 14.17 235.41 14.5 233.75 14.5H233.36L243.41 22H231.05L221 14.5H211.43ZM232.52 8.5C232.76 8.5 232.94 8.42 233.06 8.26C233.18 8.1 233.24 7.93 233.24 7.75C233.24 7.57 233.18 7.4 233.06 7.24C232.94 7.08 232.76 7 232.52 7H211.43V8.5H232.52Z" fill="#D42CA5"/>
<path d="M138.84 22.9C137.38 22.92 135.86 22.83 134.28 22.63C132.7 22.45 131.15 22.16 129.63 21.76C128.13 21.34 126.7 20.82 125.34 20.2C124 19.58 122.82 18.85 121.8 18.01C120.78 17.15 119.97 16.18 119.37 15.1C118.79 14.02 118.5 12.82 118.5 11.5C118.5 10.18 118.79 8.98 119.37 7.9C119.95 6.8 120.75 5.83 121.77 4.99C122.79 4.13 123.97 3.39 125.31 2.77C126.67 2.15 128.1 1.64 129.6 1.24C131.12 0.839999 132.67 0.55 134.25 0.37C135.83 0.17 137.36 0.0799997 138.84 0.0999994C140.32 0.0799997 141.85 0.17 143.43 0.37C145.03 0.55 146.58 0.839999 148.08 1.24C149.6 1.64 151.03 2.15 152.37 2.77C153.73 3.39 154.92 4.13 155.94 4.99C156.96 5.83 157.76 6.8 158.34 7.9C158.94 8.98 159.24 10.18 159.24 11.5C159.24 12.82 158.94 14.02 158.34 15.1C157.76 16.18 156.95 17.15 155.91 18.01C154.89 18.85 153.7 19.58 152.34 20.2C151 20.82 149.57 21.34 148.05 21.76C146.55 22.16 145 22.45 143.4 22.63C141.82 22.83 140.3 22.92 138.84 22.9ZM129.15 11.5C129.15 12.4 129.4 13.19 129.9 13.87C130.42 14.53 131.12 15.08 132 15.52C132.9 15.94 133.93 16.26 135.09 16.48C136.27 16.7 137.52 16.81 138.84 16.81C140.16 16.81 141.41 16.7 142.59 16.48C143.77 16.26 144.8 15.94 145.68 15.52C146.58 15.08 147.29 14.53 147.81 13.87C148.33 13.19 148.59 12.4 148.59 11.5C148.59 10.6 148.33 9.82 147.81 9.16C147.29 8.48 146.58 7.93 145.68 7.51C144.8 7.07 143.77 6.74 142.59 6.52C141.41 6.3 140.16 6.19 138.84 6.19C137.52 6.19 136.27 6.3 135.09 6.52C133.93 6.74 132.9 7.07 132 7.51C131.12 7.93 130.42 8.48 129.9 9.16C129.4 9.82 129.15 10.6 129.15 11.5Z" fill="#7FFA88"/>
</svg>
