<svg width="38" height="41" viewBox="0 0 38 41" fill="none" xmlns="http://www.w3.org/2000/svg">
<path d="M14.0333 4.83695C14.0313 5.86194 14.4365 6.84413 15.1598 7.56745L10.7958 3.20411C10.0725 2.48079 9.09034 2.0756 8.06535 2.07766C7.04035 2.07973 6.05652 2.48889 5.33028 3.21513C4.60404 3.94137 4.19488 4.9252 4.19281 5.9502C4.19075 6.97519 4.59594 7.95738 5.31926 8.6807L7.50064 10.8615C6.77739 10.1386 5.79552 9.73371 4.77087 9.73577C3.74588 9.73784 2.76205 10.147 2.03581 10.8732C1.30957 11.5995 0.900409 12.5833 0.898342 13.6083C0.896276 14.6333 1.30147 15.6155 2.02479 16.3388L16.3839 30.6979L8.20363 28.5145C7.21303 28.2501 6.1564 28.3906 5.26619 28.9048C4.37597 29.4191 3.7251 30.2652 3.45674 31.2568C3.18839 32.2485 3.32454 33.3046 3.83524 34.1927C4.34594 35.0809 5.18937 35.7284 6.17996 35.9927C20.0116 40.8975 25.9952 41.4593 32.0468 35.4077C33.4852 33.9693 34.6274 32.2628 35.408 30.3857C36.1887 28.5085 36.5926 26.4975 36.5967 24.4674C36.6008 22.4373 36.205 20.4279 35.4319 18.5539C34.6588 16.6799 33.5235 14.978 32.0909 13.5454L20.6364 2.09086C19.913 1.36755 18.9309 0.96235 17.9059 0.964419C16.8809 0.966487 15.897 1.37564 15.1708 2.10188C14.4446 2.82812 14.0354 3.81196 14.0333 4.83695Z" fill="white"/>
<path d="M22.2507 14.6584L15.1598 7.56745M15.1598 7.56745C14.4365 6.84413 14.0313 5.86194 14.0333 4.83695C14.0354 3.81196 14.4446 2.82812 15.1708 2.10188C15.897 1.37564 16.8809 0.966485 17.9059 0.964419C18.9309 0.962352 19.913 1.36755 20.6364 2.09086L32.0909 13.5454C33.5235 14.978 34.6588 16.6799 35.4319 18.5539C36.205 20.4279 36.6008 22.4373 36.5967 24.4674C36.5926 26.4975 36.1887 28.5085 35.408 30.3857C34.6274 32.2628 33.4852 33.9693 32.0468 35.4077C25.9952 41.4593 20.0116 40.8975 6.17996 35.9927C5.18937 35.7284 4.34594 35.0809 3.83524 34.1927C3.32454 33.3046 3.18839 32.2485 3.45674 31.2568C3.7251 30.2652 4.37597 29.4191 5.26619 28.9048C6.1564 28.3906 7.21303 28.2501 8.20363 28.5145L16.3839 30.6979L2.02479 16.3388C1.30147 15.6155 0.896276 14.6333 0.898342 13.6083C0.900409 12.5833 1.30957 11.5995 2.03581 10.8732C2.76205 10.147 3.74588 9.73784 4.77087 9.73577C5.79587 9.73371 6.77806 10.1389 7.50137 10.8622M15.1598 7.56745L10.7958 3.20411C10.0725 2.48079 9.09034 2.0756 8.06535 2.07766C7.04035 2.07973 6.05652 2.48889 5.33028 3.21513C4.60404 3.94137 4.19488 4.9252 4.19281 5.9502C4.19075 6.97519 4.59594 7.95738 5.31926 8.6807L7.50137 10.8622M7.50137 10.8622L16.7741 20.1349" stroke="#B4B4B4" stroke-linecap="round" stroke-linejoin="round"/>
</svg>
