<svg width="70" height="70" viewBox="0 0 70 70" fill="none" xmlns="http://www.w3.org/2000/svg">
<rect width="70" height="70" rx="16" fill="#F9F9F9"/>
<path d="M35.2861 15.0596V15.0795C35.3059 15.1789 35.3059 15.2982 35.3059 15.4175V29.7517C35.2861 29.8312 35.2264 29.8511 35.1668 29.8908C34.7493 30.0896 34.3517 30.2686 33.9342 30.4475C33.3576 30.7059 32.7612 30.9843 32.1846 31.2427L30.0971 32.197C29.5206 32.4555 28.944 32.7139 28.3874 32.9724C27.7114 33.2905 27.0156 33.5887 26.3396 33.9068C25.7631 34.1652 25.1866 34.4436 24.5901 34.702C24.113 34.9207 23.6358 35.1195 23.1786 35.3382C23.1388 35.3581 23.0991 35.378 23.0593 35.378C23.0394 35.378 23.0394 35.378 23.0195 35.3581L23.5563 34.4634C24.5901 32.7537 25.6041 31.0638 26.6379 29.354C27.7313 27.525 28.8446 25.6959 29.9381 23.8669C30.952 22.177 31.9858 20.4871 32.9998 18.7973C33.7354 17.5646 34.4908 16.332 35.2264 15.0994C35.2463 15.0596 35.2662 15.0398 35.2662 15H35.2861C35.2662 15.0199 35.2861 15.0398 35.2861 15.0596Z" fill="#45C46C"/>
<path d="M47.4927 35.3585L47.5126 35.3784L44.5901 37.108L35.4051 42.5355C35.3654 42.5554 35.3256 42.5753 35.3057 42.5952C35.2461 42.5952 35.2461 42.5355 35.2461 42.5156V42.3367V30.0503C35.2461 29.9907 35.2461 29.9111 35.266 29.8515C35.2859 29.772 35.3455 29.7918 35.4051 29.8117C35.6636 29.931 35.9419 30.0503 36.2004 30.1696C36.9757 30.5274 37.7511 30.8853 38.5264 31.2233C39.2024 31.5215 39.8585 31.8396 40.5344 32.1378C41.2104 32.436 41.8863 32.7541 42.5623 33.0523C43.1388 33.3108 43.7353 33.5891 44.3118 33.8476C44.8883 34.106 45.4848 34.3843 46.0613 34.6428C46.5186 34.8416 46.9758 35.0603 47.4331 35.2591C47.4331 35.3187 47.453 35.3386 47.4927 35.3585Z" fill="#45C46C"/>
<path d="M35.2861 54.9402C35.2861 54.9601 35.2662 54.9799 35.2662 54.9998H35.2463C35.2463 54.9601 35.2065 54.9402 35.1867 54.9004C33.954 53.1708 32.7214 51.4212 31.4888 49.6916C30.2363 47.9222 28.9639 46.1329 27.7114 44.3635C26.4987 42.6538 25.2661 40.9241 24.0533 39.2144C23.7352 38.7571 23.4171 38.3197 23.0991 37.8624C23.0792 37.8227 23.0593 37.8028 23.0195 37.7432C23.0792 37.7432 23.1189 37.7829 23.1388 37.8028C24.8685 38.8167 26.5782 39.8307 28.3079 40.8446C30.296 42.0176 32.2642 43.1905 34.2523 44.3635L35.2662 44.9599C35.3059 44.9997 35.3059 45.0395 35.3059 45.0792V54.6618C35.3059 54.7612 35.3059 54.8606 35.2861 54.9402Z" fill="#45C46C"/>
<path d="M23 35.4001V35.3802C23.6362 35.1019 24.2525 34.8037 24.8887 34.5254C25.7038 34.1476 26.5189 33.7898 27.334 33.412C27.9504 33.1337 28.5865 32.8355 29.2028 32.5571C30.1174 32.1397 31.012 31.742 31.9265 31.3245C32.5428 31.0462 33.1592 30.7679 33.7953 30.4697C34.2327 30.2708 34.69 30.072 35.1274 29.8732C35.1671 29.8533 35.2268 29.8335 35.2466 29.7937C35.2665 29.7937 35.2665 29.8136 35.2466 29.8335V42.4579C35.2466 42.5175 35.2268 42.5771 35.2665 42.6169C35.2268 42.6765 35.187 42.6169 35.1671 42.597C34.9882 42.4976 34.8093 42.3982 34.6303 42.2789C30.7933 40.0125 26.9364 37.7262 23.0994 35.4598C23.0795 35.4399 23.0398 35.42 23 35.4001Z" fill="#45C46C"/>
<path d="M47.4536 37.7434H47.4735C47.4735 37.7832 47.4337 37.8229 47.4139 37.8627C43.7558 43.0119 40.0977 48.1809 36.4396 53.3301C36.0618 53.8668 35.6642 54.4036 35.2865 54.9404C35.2666 54.9205 35.2666 54.9007 35.2666 54.8808V54.7615V45.1192V44.9403C36.1016 44.4433 36.9167 43.9661 37.7517 43.4691C40.9724 41.5605 44.1931 39.6719 47.394 37.7633C47.4139 37.7832 47.4337 37.7633 47.4536 37.7434Z" fill="#45C46C"/>
<path d="M35.2663 29.8317V29.792V29.6727V15.2391C35.2663 15.1795 35.2464 15.1397 35.2862 15.0801C39.322 21.78 43.3579 28.4599 47.3738 35.1598C47.4136 35.2195 47.4732 35.299 47.4931 35.3785C47.2148 35.2791 46.9563 35.1399 46.6979 35.0207C46.3798 34.8815 46.0418 34.7224 45.7237 34.5833C45.5249 34.4839 45.3062 34.4043 45.1074 34.3049C44.7694 34.1459 44.4314 34.0067 44.0935 33.8477C43.8946 33.7682 43.6958 33.6688 43.497 33.5693L42.1849 32.9729C41.9662 32.8735 41.7475 32.7741 41.5089 32.6747L40.5547 32.2572C40.3558 32.1777 40.157 32.0783 39.9582 31.9789L38.6461 31.3824C38.4274 31.283 38.2087 31.1836 37.9701 31.0842L37.0158 30.6667C36.7972 30.5673 36.5983 30.4679 36.3797 30.3685C36.0019 30.1896 35.6242 30.0107 35.2266 29.8516C35.2862 29.8317 35.2663 29.8317 35.2663 29.8317Z" fill="#45C46C"/>
</svg>
