<svg width="39" height="41" viewBox="0 0 39 41" fill="none" xmlns="http://www.w3.org/2000/svg">
<path d="M13.6913 19.8117C13.3112 19.4111 12.6782 19.3944 12.2776 19.7745C11.8769 20.1546 11.8602 20.7876 12.2404 21.1882L13.6913 19.8117ZM19.4487 27.3333L18.7233 28.0216C18.9121 28.2206 19.1744 28.3333 19.4487 28.3333C19.7231 28.3333 19.9854 28.2206 20.1742 28.0216L19.4487 27.3333ZM26.6571 21.1882C27.0372 20.7876 27.0206 20.1546 26.6199 19.7745C26.2192 19.3944 25.5863 19.4111 25.2062 19.8117L26.6571 21.1882ZM20.4487 6.83331C20.4487 6.28103 20.001 5.83331 19.4487 5.83331C18.8964 5.83331 18.4487 6.28103 18.4487 6.83331L20.4487 6.83331ZM12.2404 21.1882L18.7233 28.0216L20.1742 26.6451L13.6913 19.8117L12.2404 21.1882ZM20.1742 28.0216L26.6571 21.1882L25.2062 19.8117L18.7233 26.6451L20.1742 28.0216ZM20.4487 27.3333L20.4487 6.83331L18.4487 6.83331L18.4487 27.3333L20.4487 27.3333Z" fill="white"/>
<path d="M5.86218 27.3333C5.86218 26.781 5.41447 26.3333 4.86218 26.3333C4.3099 26.3333 3.86218 26.781 3.86218 27.3333L5.86218 27.3333ZM35.0353 27.3333C35.0353 26.781 34.5875 26.3333 34.0353 26.3333C33.483 26.3333 33.0353 26.781 33.0353 27.3333L35.0353 27.3333ZM5.86218 31.875L5.86218 27.3333L3.86218 27.3333L3.86218 31.875L5.86218 31.875ZM8.86218 36.875L30.0353 36.875L30.0353 34.875L8.86218 34.875L8.86218 36.875ZM35.0353 31.875L35.0353 27.3333L33.0353 27.3333L33.0353 31.875L35.0353 31.875ZM30.0353 36.875C32.7967 36.875 35.0353 34.6364 35.0353 31.875L33.0353 31.875C33.0353 33.5318 31.6921 34.875 30.0353 34.875L30.0353 36.875ZM3.86218 31.875C3.86218 34.6364 6.10076 36.875 8.86218 36.875L8.86218 34.875C7.20533 34.875 5.86218 33.5318 5.86218 31.875L3.86218 31.875Z" fill="white"/>
</svg>
