<svg width="40" height="40" viewBox="0 0 40 40" fill="none" xmlns="http://www.w3.org/2000/svg">
<rect width="40" height="40" rx="10" fill="#F9F9F9"/>
<path fill-rule="evenodd" clip-rule="evenodd" d="M18.6284 10C19.7834 10 20.9342 10 22.0892 10C22.0212 10.7813 21.949 11.5669 21.8853 12.3482C23.2314 12.4459 24.5435 12.879 25.724 13.5202C25.2144 14.8025 24.7006 16.0849 24.1868 17.3673C23.1932 16.5223 21.8853 16.0552 20.5817 16.0722C20.2548 16.0807 19.9151 16.1444 19.6433 16.3312C19.465 16.4544 19.3333 16.6454 19.2951 16.8577C19.2654 17.0276 19.2739 17.2187 19.3673 17.3716C19.4735 17.5414 19.6603 17.6433 19.8471 17.707C20.2293 17.8429 20.6412 17.8514 21.0403 17.8938C21.9788 18.0085 22.9214 18.1699 23.8089 18.5053C24.4968 18.7686 25.155 19.1635 25.6263 19.741C26.0722 20.2718 26.3312 20.9427 26.4289 21.6306C26.5435 22.4246 26.5096 23.2484 26.2633 24.0212C26.0722 24.6412 25.7452 25.2187 25.3206 25.707C24.4416 26.7261 23.1507 27.3376 21.8259 27.4947C21.8684 28.3312 21.9193 29.1635 21.966 30C20.8705 30 19.7792 30 18.6879 30C18.7304 29.172 18.7856 28.344 18.8238 27.5159C17.9448 27.4862 17.0743 27.2909 16.2548 26.9809C15.4607 26.6794 14.7049 26.2803 14 25.8132C14.518 24.4798 15.0361 23.1465 15.5584 21.8089C16.1486 22.3057 16.7771 22.7686 17.465 23.121C18.2038 23.4989 19.0234 23.741 19.8556 23.7495C20.2505 23.7537 20.6582 23.7325 21.0318 23.5966C21.2611 23.5117 21.4862 23.3631 21.5881 23.1295C21.6943 22.8832 21.6858 22.5732 21.5244 22.3524C21.4098 22.2038 21.2484 22.1019 21.0786 22.0297C20.8493 21.9363 20.6115 21.8854 20.3694 21.8471C19.4777 21.7028 18.5817 21.5839 17.7197 21.3036C17.0276 21.0786 16.3524 20.7643 15.8004 20.2803C15.4522 19.9788 15.1635 19.6093 14.9597 19.1932C14.6539 18.5732 14.5393 17.8726 14.5478 17.1847C14.5478 16.4161 14.7049 15.6348 15.087 14.9597C15.4183 14.3567 15.9236 13.8641 16.4926 13.4862C17.1805 13.0318 17.949 12.7219 18.7304 12.4713C18.6964 11.6476 18.6624 10.8238 18.6284 10Z" fill="#45C46C"/>
</svg>
