<svg width="90" height="90" viewBox="0 0 90 90" fill="none" xmlns="http://www.w3.org/2000/svg">
<rect width="90" height="90" rx="16" fill="#F9F9F9"/>
<path d="M39.2029 43.2233C38.0238 43.2166 36.8465 43.318 35.6859 43.5259C36.6412 34.6899 44.0051 27.9993 52.7722 28C58.1401 28 61.8182 30.6283 61.8182 36.0704C61.8182 41.5124 57.4036 44.1407 50.9625 44.1407C46.2084 44.1404 43.9578 43.2233 39.2029 43.2233ZM38.8556 46.4461C32.415 46.4461 28 49.0745 28 54.5165C28 59.9585 31.6781 62.5869 37.046 62.5869C45.8141 62.5869 53.1773 55.897 54.1323 47.0609C52.9717 47.2689 51.7944 47.3702 50.6152 47.3636C45.8604 47.3633 43.6098 46.4461 38.8556 46.4461Z" fill="#D42CA5"/>
</svg>
