<svg width="41" height="41" viewBox="0 0 41 41" fill="none" xmlns="http://www.w3.org/2000/svg">
<path d="M24.918 24.9179C24.5274 25.3084 24.5274 25.9416 24.918 26.3321C25.3085 26.7226 25.9417 26.7226 26.3322 26.3321L24.918 24.9179ZM34.1667 17.0833L34.8739 17.7904C35.0614 17.6029 35.1667 17.3485 35.1667 17.0833C35.1667 16.8181 35.0614 16.5638 34.8739 16.3762L34.1667 17.0833ZM26.3322 7.83456C25.9417 7.44403 25.3085 7.44403 24.918 7.83456C24.5275 8.22508 24.5275 8.85825 24.918 9.24877L26.3322 7.83456ZM5.83341 30.75C5.83341 31.3023 6.28113 31.75 6.83341 31.75C7.3857 31.75 7.83341 31.3023 7.83341 30.75L5.83341 30.75ZM26.3322 26.3321L34.8739 17.7904L33.4596 16.3762L24.918 24.9179L26.3322 26.3321ZM34.8739 16.3762L26.3322 7.83456L24.918 9.24877L33.4596 17.7904L34.8739 16.3762ZM34.1667 16.0833L12.8334 16.0833L12.8334 18.0833L34.1667 18.0833L34.1667 16.0833ZM5.83341 23.0833L5.83341 30.75L7.83341 30.75L7.83341 23.0833L5.83341 23.0833ZM12.8334 16.0833C8.96743 16.0833 5.83342 19.2173 5.83341 23.0833L7.83341 23.0833C7.83341 20.3219 10.072 18.0833 12.8334 18.0833L12.8334 16.0833Z" fill="white"/>
</svg>
