<svg width="164" height="26" viewBox="0 0 164 26" fill="none" xmlns="http://www.w3.org/2000/svg">
<path d="M27.3 15V-1.43051e-06H36.3V14.97H42.3V25.92H34.8V21H0V-1.43051e-06H9V15H27.3ZM94.9231 15H121.323V21H85.923V-1.43051e-06H119.823V6H94.9231V7.5H115.623V13.5H94.9231V15Z" fill="#2845DF"/>
<path d="M44.7047 -1.43051e-06H77.6747C78.6547 -1.43051e-06 79.4847 0.209999 80.1647 0.629999C80.8647 1.05 81.4147 1.59 81.8147 2.25C82.2147 2.89 82.4647 3.61 82.5647 4.41C82.6647 5.19 82.6247 5.96 82.4447 6.72C82.2647 7.46 81.9347 8.14 81.4547 8.76C80.9947 9.38 80.3847 9.84 79.6247 10.14V10.65C80.5447 10.87 81.2947 11.28 81.8747 11.88C82.4747 12.48 82.9047 13.16 83.1647 13.92C83.4247 14.68 83.5247 15.48 83.4647 16.32C83.4047 17.16 83.1747 17.93 82.7747 18.63C82.3947 19.31 81.8547 19.88 81.1547 20.34C80.4547 20.78 79.5947 21 78.5747 21H44.7047V-1.43051e-06ZM74.1647 7.5C74.4447 7.5 74.6547 7.42 74.7947 7.26C74.9347 7.1 75.0047 6.93 75.0047 6.75C75.0047 6.57 74.9347 6.4 74.7947 6.24C74.6547 6.08 74.4447 6 74.1647 6H53.7047V7.5H74.1647ZM53.7047 13.5V15H74.9147C75.1947 15 75.4047 14.92 75.5447 14.76C75.6847 14.6 75.7547 14.43 75.7547 14.25C75.7547 14.07 75.6847 13.9 75.5447 13.74C75.4047 13.58 75.1947 13.5 74.9147 13.5H53.7047Z" fill="#D42CA5"/>
<path d="M139.014 6H123.714V-1.43051e-06H163.314V6H148.014V21H139.014V6Z" fill="#7FFA88"/>
</svg>
