<svg width="84" height="84" viewBox="0 0 84 84" fill="none" xmlns="http://www.w3.org/2000/svg">
<rect x="2.5" y="2.5" width="79" height="79" rx="30.5" stroke="#7FFA88" stroke-width="5"/>
<path d="M44.5 24C44.5 22.6193 43.3807 21.5 42 21.5C40.6193 21.5 39.5 22.6193 39.5 24L44.5 24ZM40.2322 62.7678C41.2085 63.7441 42.7915 63.7441 43.7678 62.7678L59.6777 46.8579C60.654 45.8816 60.654 44.2986 59.6777 43.3223C58.7014 42.346 57.1184 42.346 56.1421 43.3223L42 57.4645L27.8579 43.3223C26.8816 42.346 25.2986 42.346 24.3223 43.3223C23.346 44.2986 23.346 45.8816 24.3223 46.8579L40.2322 62.7678ZM39.5 24L39.5 61L44.5 61L44.5 24L39.5 24Z" fill="#7FFA88"/>
</svg>
