<svg width="41" height="41" viewBox="0 0 41 41" fill="none" xmlns="http://www.w3.org/2000/svg">
<path d="M26.6263 14.3738C27.0168 14.7643 27.65 14.7643 28.0405 14.3738C28.431 13.9832 28.431 13.3501 28.0405 12.9595L26.6263 14.3738ZM20.5 6.83331L21.2071 6.12621C20.8166 5.73568 20.1835 5.73568 19.7929 6.12621L20.5 6.83331ZM12.9596 12.9595C12.5691 13.3501 12.5691 13.9832 12.9596 14.3738C13.3501 14.7643 13.9833 14.7643 14.3738 14.3738L12.9596 12.9595ZM19.5 27.3333C19.5 27.8856 19.9478 28.3333 20.5 28.3333C21.0523 28.3333 21.5 27.8856 21.5 27.3333L19.5 27.3333ZM28.0405 12.9595L21.2071 6.12621L19.7929 7.54042L26.6263 14.3738L28.0405 12.9595ZM19.7929 6.12621L12.9596 12.9595L14.3738 14.3738L21.2071 7.54042L19.7929 6.12621ZM19.5 6.83331L19.5 27.3333L21.5 27.3333L21.5 6.83331L19.5 6.83331Z" fill="#000"/>
<path d="M6.125 27.3333C6.125 26.781 5.67728 26.3333 5.125 26.3333C4.57272 26.3333 4.125 26.781 4.125 27.3333L6.125 27.3333ZM36.875 27.3333C36.875 26.781 36.4273 26.3333 35.875 26.3333C35.3227 26.3333 34.875 26.781 34.875 27.3333L36.875 27.3333ZM6.125 31.875L6.125 27.3333L4.125 27.3333L4.125 31.875L6.125 31.875ZM9.125 36.875L31.875 36.875L31.875 34.875L9.125 34.875L9.125 36.875ZM36.875 31.875L36.875 27.3333L34.875 27.3333L34.875 31.875L36.875 31.875ZM31.875 36.875C34.6364 36.875 36.875 34.6364 36.875 31.875L34.875 31.875C34.875 33.5318 33.5319 34.875 31.875 34.875L31.875 36.875ZM4.125 31.875C4.125 34.6364 6.36357 36.875 9.125 36.875L9.125 34.875C7.46814 34.875 6.125 33.5318 6.125 31.875L4.125 31.875Z" fill="#000"/>
</svg>
