<svg width="161" height="160" viewBox="0 0 161 160" fill="none" xmlns="http://www.w3.org/2000/svg">
<path d="M150.141 57.6431C150.141 32.7542 137.371 23.9823 129.412 22.185C111.191 18.0703 102.319 24.5843 89.3193 43.0862C76.5781 61.2199 37.4996 37.1112 19.4023 64.0864C-7.09766 103.586 29.9023 133.608 89.3193 123.086C132.57 115.427 150.14 87.4302 150.141 57.6431Z" fill="#F7F7F9"/>
<path d="M108.747 50.415H53.707C51.0405 50.415 48.8789 52.5766 48.8789 55.2431V110.283C48.8789 121.482 62.9841 130.561 80.9838 130.561C98.9835 130.561 113.575 121.482 113.575 110.283V55.2431C113.575 52.5766 111.414 50.415 108.747 50.415Z" fill="white"/>
<path d="M113.575 111.667V55.2431C113.575 52.5766 111.414 50.415 108.747 50.415H53.707C51.0405 50.415 48.8789 52.5766 48.8789 55.2431V110.283C48.8789 121.482 62.9841 130.561 80.9838 130.561C98.9835 130.561 113.575 121.482 113.575 110.283" stroke="white" stroke-miterlimit="10"/>
<mask id="mask0_6652_10486" style="mask-type:alpha" maskUnits="userSpaceOnUse" x="48" y="33" width="67" height="42">
<path d="M81.227 74.4622C99.0924 74.4622 113.575 65.4044 113.575 54.2311C113.575 43.0578 99.0924 34 81.227 34C63.3617 34 48.8789 43.0578 48.8789 54.2311C48.8789 65.4044 63.3617 74.4622 81.227 74.4622Z" fill="#C4C4C4" stroke="#333333" stroke-miterlimit="10"/>
</mask>
<g mask="url(#mask0_6652_10486)">
<path d="M81.227 73.9788C99.0924 73.9788 113.575 64.921 113.575 53.7477C113.575 42.5744 99.0924 33.5166 81.227 33.5166C63.3617 33.5166 48.8789 42.5744 48.8789 53.7477C48.8789 64.921 63.3617 73.9788 81.227 73.9788Z" fill="white" stroke="white" stroke-miterlimit="10"/>
<path d="M81.227 87.9807C99.0924 87.9807 113.575 78.9229 113.575 67.7496C113.575 53.795 99.0924 45.1045 81.227 45.1045C63.3617 45.1045 48.8789 56.5763 48.8789 67.7496C48.8789 78.9229 63.3617 87.9807 81.227 87.9807Z" fill="white" stroke="white" stroke-miterlimit="10"/>
</g>
<path d="M81.227 74.4622C99.0924 74.4622 113.575 65.4044 113.575 54.2311C113.575 43.0578 99.0924 34 81.227 34C63.3617 34 48.8789 43.0578 48.8789 54.2311C48.8789 65.4044 63.3617 74.4622 81.227 74.4622Z" stroke="white" stroke-miterlimit="10"/>
<path d="M35.3639 83.4885C41.0972 71.9012 50.1074 70.9354 53.7849 70.9355C57.4624 70.9357 59.0215 75.5222 57.5731 79.1433C55.3295 84.7522 50.9215 82.0713 49.1239 83.4885C39.7092 90.9117 40.192 113.01 53.7849 104.249C58.0559 101.497 62.4011 112.108 53.7849 115.595C38.0194 121.975 25.0916 104.249 35.3639 83.4885Z" fill="white" stroke="white"/>
<path d="M113.691 71.5C111.858 75.5 103.191 83.8 83.1914 85V114.5C90.1914 115 105.191 113 113.691 101.5" stroke="white"/>
<path d="M116.747 58.415H61.707C59.0405 58.415 56.8789 60.5766 56.8789 63.2431V118.283C56.8789 129.482 70.9841 138.561 88.9838 138.561C106.983 138.561 121.575 129.482 121.575 118.283V63.2431C121.575 60.5766 119.414 58.415 116.747 58.415Z" fill="#FECB2F"/>
<path d="M121.575 119.667V63.2431C121.575 60.5766 119.414 58.415 116.747 58.415H61.707C59.0405 58.415 56.8789 60.5766 56.8789 63.2431V118.283C56.8789 129.482 70.9841 138.561 88.9838 138.561C106.983 138.561 121.575 129.482 121.575 118.283" stroke="#FFF5D5" stroke-miterlimit="10"/>
<mask id="mask1_6652_10486" style="mask-type:alpha" maskUnits="userSpaceOnUse" x="56" y="41" width="67" height="42">
<path d="M89.227 82.4622C107.092 82.4622 121.575 73.4044 121.575 62.2311C121.575 51.0578 107.092 42 89.227 42C71.3617 42 56.8789 51.0578 56.8789 62.2311C56.8789 73.4044 71.3617 82.4622 89.227 82.4622Z" fill="#C4C4C4" stroke="#333333" stroke-miterlimit="10"/>
</mask>
<g mask="url(#mask1_6652_10486)">
<path d="M89.227 81.9788C107.092 81.9788 121.575 72.921 121.575 61.7477C121.575 50.5744 107.092 41.5166 89.227 41.5166C71.3617 41.5166 56.8789 50.5744 56.8789 61.7477C56.8789 72.921 71.3617 81.9788 89.227 81.9788Z" fill="#FECB2F" stroke="#FFF5D5" stroke-miterlimit="10"/>
<path d="M89.227 95.9807C107.092 95.9807 121.575 86.9229 121.575 75.7496C121.575 61.795 107.092 53.1045 89.227 53.1045C71.3617 53.1045 56.8789 64.5763 56.8789 75.7496C56.8789 86.9229 71.3617 95.9807 89.227 95.9807Z" fill="#FFF5D5" stroke="#FFF5D5" stroke-miterlimit="10"/>
</g>
<path d="M89.227 82.4622C107.092 82.4622 121.575 73.4044 121.575 62.2311C121.575 51.0578 107.092 42 89.227 42C71.3617 42 56.8789 51.0578 56.8789 62.2311C56.8789 73.4044 71.3617 82.4622 89.227 82.4622Z" stroke="#FFF5D5" stroke-miterlimit="10"/>
<path d="M43.3639 91.4885C49.0972 79.9012 58.1074 78.9354 61.7849 78.9355C65.4624 78.9357 67.0215 83.5222 65.5731 87.1433C63.3295 92.7522 58.9215 90.0713 57.1239 91.4885C47.7092 98.9117 48.192 121.01 61.7849 112.249C66.0559 109.497 70.4011 120.108 61.7849 123.595C46.0194 129.975 33.0916 112.249 43.3639 91.4885Z" fill="#FECB2F" stroke="#FFF5D5"/>
<path d="M91.1914 93C111.191 91.8 119.858 83.5 121.691 79.5V109.5C113.191 121 98.1914 123 91.1914 122.5V93Z" fill="white" stroke="#FFF5D5"/>
</svg>
