<svg width="580" height="300" viewBox="0 0 580 300" fill="none" xmlns="http://www.w3.org/2000/svg">
<g clip-path="url(#clip0_6652_10534)">
<rect width="580" height="300" fill="white"/>
<path d="M-26.142 172.306C-9.45944 173.49 -2.69441 184.749 5.44211 196.517C8.84088 201.409 12.8744 215.863 19.9765 222.735C27.1816 229.74 34.0401 233.405 44.0015 235.494C80.5015 240.494 89.6674 245.608 104.001 255.494C118.501 265.494 130.496 277.993 135.5 308.993C138.024 324.623 132.254 339.953 128.502 347.493C126.656 351.201 122.247 359.888 109.002 369.493C95.7537 377.197 88.072 378.936 78.0017 381.993C63.1016 386.512 33.0016 379.233 19.9765 371.691C-18.4983 349.415 -23.1559 347.603 -49.6253 312.863C-61.3413 297.487 -77.5761 267.302 -79.7727 235.648C-82.2415 200.069 -53.5921 170.356 -26.142 172.306Z" fill="#EEEBFF"/>
<path d="M535.283 225.306C532.902 214.586 537.296 207.384 543.461 199.95C546.02 196.849 548.731 192.814 551.886 186.995C555.109 181.085 554.401 173.951 554.477 167.246C554.651 152.097 553.292 150.688 557.784 136.629C565.756 111.675 575.917 106.74 585.671 102.073C595.425 97.4058 612.004 96.7961 617.65 97.6683C620.426 98.0975 628.872 99.0169 637.665 105.45C645.215 112.259 647.173 115.864 651.079 121.592C656.857 130.067 659.555 147.339 657.082 157.013C649.779 185.59 649.474 188.875 631.741 212.361C623.891 222.757 607.203 238.912 586.896 246.532C564.072 255.098 539.201 242.945 535.283 225.306Z" fill="#EEEBFF"/>
<path d="M149.185 261.622C149.185 263.71 149.163 265.416 148.49 268.377C147.497 272.747 143.746 275.826 140.048 275.826C136.35 275.826 131.21 272.747 130.577 267.583C130.214 264.626 130.464 260.72 130.577 261.712L66.2177 262.298C66.0365 263.428 66.1306 264.362 65.0535 268.516C64.1841 271.87 62.6737 273.286 58.9758 273.286C55.2779 273.286 53.9086 270.799 53.0846 267.321C52.5833 264.167 52.6275 263.284 52.6275 262.298L33.2812 262.344V236.458C33.2812 234.271 35.04 232.49 37.2272 232.467C43.2024 231.317 47.7797 227.732 49.8316 225.658C52.5374 222.929 64.0369 208.859 64.0369 208.859C66.63 205.455 70.6661 203.448 74.9503 203.448H140.227C149.314 203.448 150.261 204.823 158.176 211.182L182.482 230.415L203.114 239.096C204.535 239.683 205.504 241.058 205.572 242.591L206.406 261.216L149.185 261.622Z" fill="white"/>
<path d="M152.018 254.084C152.108 253.137 152.176 252.145 152.176 251.13C152.176 243.464 149.177 237.263 145.479 237.263C141.781 237.263 138.782 243.486 138.782 251.13C138.782 252.167 138.827 253.182 138.94 254.174L64.8466 254.67C64.9819 253.543 65.0721 252.37 65.0721 251.153C65.0721 243.486 62.0732 237.286 58.3753 237.286C54.6774 237.286 51.6785 243.509 51.6785 251.153C51.6785 252.393 51.7687 253.61 51.9039 254.76L41.6445 254.805V228.92C41.6445 226.733 43.4033 224.952 45.5905 224.929C51.5657 223.779 56.143 220.194 58.1949 218.12C60.9007 215.391 72.4002 201.321 72.4002 201.321C74.9933 197.916 79.0294 195.91 83.3135 195.91H148.59C157.677 195.91 158.624 197.285 166.539 203.644L190.846 222.877L211.477 231.558C212.898 232.145 213.867 233.52 213.935 235.053L214.769 253.678L152.018 254.084Z" stroke="#5C3BFE" stroke-miterlimit="10" stroke-linecap="round" stroke-linejoin="round"/>
<path d="M142.248 254.022H139.072C138.909 253.071 138.68 250.37 139.072 247.174C139.563 243.18 141.272 239.593 143.147 237.963C144.646 236.659 146.136 236.98 147.005 237.523C146.75 237.796 146.013 238.452 144.94 240.164C141.875 245.055 141.868 251.441 142.248 254.022Z" fill="#5C3BFE"/>
<path d="M100.855 195.909L108.905 187.77L116.955 195.819L100.855 195.909Z" stroke="#5C3BFE" stroke-miterlimit="10" stroke-linecap="round" stroke-linejoin="round"/>
<path d="M108.906 187.77H131.387L139.301 195.909H117.091L108.906 187.77Z" fill="#5C3BFE" stroke="#5C3BFE" stroke-miterlimit="10" stroke-linecap="round" stroke-linejoin="round"/>
<path d="M60.1531 237.759C57.312 240.533 55.418 245.651 55.418 251.491C55.418 252.596 55.4856 253.678 55.6209 254.738C56.5228 261.999 59.3196 266.938 63.9645 266.938C68.6545 266.938 73.6369 261.931 74.4937 254.603" stroke="#5C3BFE" stroke-miterlimit="10" stroke-linecap="round" stroke-linejoin="round"/>
<path d="M147.011 237.624C144.102 240.374 142.141 245.56 142.141 251.513C142.141 260.33 146.447 267.455 151.769 267.455C156.571 267.455 160.54 261.637 161.284 254.016" stroke="#5C3BFE" stroke-miterlimit="10" stroke-linecap="round" stroke-linejoin="round"/>
<path d="M186.695 253.858C187.372 261.547 191.385 267.455 196.211 267.455C201.081 267.455 205.095 261.48 205.749 253.723" stroke="#5C3BFE" stroke-miterlimit="10" stroke-linecap="round" stroke-linejoin="round"/>
<path d="M51.8828 254.738H55.6258" stroke="#5C3BFE" stroke-miterlimit="10" stroke-linecap="round" stroke-linejoin="round"/>
<path d="M138.941 254.174H142.121" stroke="#5C3BFE" stroke-miterlimit="10" stroke-linecap="round" stroke-linejoin="round"/>
<path d="M82.861 202.606H128.904C130.37 202.606 131.723 203.305 132.557 204.5L144.553 221.367C145.004 221.998 144.553 222.877 143.786 222.877H66.9195C65.995 222.877 65.499 221.817 66.0627 221.096L79.3435 204.32C80.2004 203.238 81.4856 202.606 82.861 202.606Z" stroke="#5C3BFE" stroke-miterlimit="10" stroke-linecap="round" stroke-linejoin="round"/>
<path d="M93.9141 197.578V247.635" stroke="#5C3BFE" stroke-miterlimit="10" stroke-linecap="round" stroke-linejoin="round"/>
<path d="M76.957 247.635H134.342" stroke="#5C3BFE" stroke-miterlimit="10" stroke-linecap="round" stroke-linejoin="round"/>
<path d="M111.048 228.763H106.922V232.889H111.048V228.763Z" fill="#FF864B"/>
<path d="M119.415 228.763H115.289V232.889H119.415V228.763Z" fill="#FF864B"/>
<path d="M111.065 237.022H115.191V232.896H111.065V237.022Z" fill="#FF864B"/>
<path d="M127.792 237.022H131.918V232.896H127.792V237.022Z" fill="#FF864B"/>
<path d="M119.428 237.022H123.555V232.896H119.428V237.022Z" fill="#FF864B"/>
<path d="M127.779 228.763H123.652V232.889H127.779V228.763Z" fill="#FF864B"/>
<path d="M165.254 202.606L137.903 202.471C137.362 202.471 137.024 203.102 137.362 203.553L150.553 221.885C150.936 222.426 151.567 222.742 152.244 222.742L190.846 222.877" stroke="#5C3BFE" stroke-miterlimit="10" stroke-linecap="round" stroke-linejoin="round"/>
<path d="M47.2365 224.546V232.889C47.2365 234.354 46.0414 235.549 44.5758 235.549H41.6445" stroke="#5C3BFE" stroke-miterlimit="10" stroke-linecap="round" stroke-linejoin="round"/>
<path d="M209.695 230.814H168.116C166.199 230.814 164.621 232.37 164.621 234.309V238.706H214.092" stroke="#5C3BFE" stroke-miterlimit="10" stroke-linecap="round" stroke-linejoin="round"/>
<path d="M173.688 230.814V238.683" stroke="#5C3BFE" stroke-miterlimit="10" stroke-linecap="round" stroke-linejoin="round"/>
<path d="M206.406 230.814V238.683" stroke="#5C3BFE" stroke-miterlimit="10" stroke-linecap="round" stroke-linejoin="round"/>
<path d="M201.394 238.796H180.199V244.884H201.394V238.796Z" fill="#5C3BFE" stroke="#5C3BFE" stroke-miterlimit="10" stroke-linecap="round" stroke-linejoin="round"/>
<path d="M156.863 253.791C156.863 253.791 157.427 244.884 164.642 244.884C171.858 244.884 212.106 244.884 212.106 244.884C212.106 244.884 214.474 244.884 214.474 247.139" stroke="#5C3BFE" stroke-miterlimit="10" stroke-linecap="round" stroke-linejoin="round"/>
<path d="M69.7299 254.726C70.1415 258.842 67.809 266.114 63.2812 266.8" stroke="#5C3BFE" stroke-linecap="round"/>
<path d="M150.27 266.712C149.993 266.712 149.77 266.936 149.77 267.212C149.77 267.488 149.993 267.712 150.27 267.712V266.712ZM156.356 254.159C156.221 257.943 155.376 261.124 154.201 263.342C153.007 265.596 151.558 266.712 150.27 266.712V267.712C152.137 267.712 153.844 266.152 155.085 263.81C156.345 261.431 157.216 258.095 157.355 254.195L156.356 254.159Z" fill="#5C3BFE"/>
<path d="M55.623 254.558H51.9043C51.7133 254.336 51.3917 253.023 51.6334 249.542C51.9356 245.191 52.4794 243.892 53.0233 242.532C53.5672 241.173 55.1685 238.151 57.3138 237.547C59.03 237.063 59.8216 237.567 60.0029 237.879C59.3885 238.413 57.9543 240.043 57.1325 242.291C56.1052 245.101 55.623 247.306 55.4405 249.542C55.2944 251.331 55.5013 253.631 55.623 254.558Z" fill="#5C3BFE"/>
<circle cx="556.427" cy="141.069" r="13.4307" stroke="#FF864B"/>
<circle cx="482.002" cy="207.49" r="9.41209" stroke="#5C3BFE"/>
<circle cx="538.66" cy="267.455" r="3.83595" fill="#FF864B"/>
</g>
<defs>
<clipPath id="clip0_6652_10534">
<rect width="580" height="300" fill="white"/>
</clipPath>
</defs>
</svg>
