<svg width="479" height="257" viewBox="0 0 479 257" fill="none" xmlns="http://www.w3.org/2000/svg">
<path d="M56.6228 0L42.4041 4.65014L1 76.9061L95.7019 280.26L110.099 278.919" fill="url(#paint0_linear_6652_9844)" stroke="#947EFF" stroke-miterlimit="10" stroke-linecap="round" stroke-linejoin="round"/>
<path d="M103.748 101.051L56.6208 0L14.7695 73.9551L110.097 278.919L145.152 202.281L132.275 174.201" fill="white"/>
<path d="M103.748 101.051L56.6208 0L14.7695 73.9551L110.097 278.919L145.152 202.281L132.275 174.201" stroke="#947EFF" stroke-miterlimit="10" stroke-linecap="round" stroke-linejoin="round"/>
<path d="M97.6669 106.506L62.9697 31.9249C62.3437 30.5835 60.4658 30.4941 59.7504 31.8355L32.2967 83.2553C31.5813 84.6861 31.4919 86.3852 32.1178 87.816L99.7237 236.889C100.618 238.767 103.301 238.856 104.284 236.978L129.502 187.705C130.397 186.005 130.397 183.949 129.592 182.25L126.462 175.453" fill="#947EFF"/>
<path d="M97.6669 106.506L62.9697 31.9249C62.3437 30.5835 60.4658 30.4941 59.7504 31.8355L32.2967 83.2553C31.5813 84.6861 31.4919 86.3852 32.1178 87.816L99.7237 236.889C100.618 238.767 103.301 238.856 104.284 236.978L129.502 187.705C130.397 186.005 130.397 183.949 129.592 182.25L126.462 175.453" stroke="white" stroke-miterlimit="10"/>
<path d="M103.748 101.051L56.6208 0L14.7695 73.9551L110.097 278.919L145.152 202.281L132.275 174.201" stroke="white" stroke-miterlimit="10" stroke-linecap="round" stroke-linejoin="round"/>
<path d="M56.6228 0L42.4041 4.65014L1 76.9061L95.7019 280.26L110.099 278.919" stroke="white" stroke-width="2" stroke-miterlimit="10" stroke-linecap="round" stroke-linejoin="round"/>
<path d="M215.439 97.935C220.178 96.057 221.341 91.9435 219.999 87.9193C219.91 87.7404 219.91 87.651 219.82 87.4722C218.121 83.3586 214.008 81.8383 209.447 83.0903L157.491 99.1869C155.523 99.9918 153.198 99.9918 151.231 99.2763L146.491 97.4878L164.645 77.8142C166.612 75.668 167.149 72.7169 166.254 70.1236C165.807 68.8716 165.092 67.7091 164.019 66.8148C161.068 64.2215 156.686 64.3109 153.824 66.9042L91.8521 122.885L91.405 123.332C90.3319 124.316 89.4376 125.21 88.7222 126.194C84.3403 132.006 84.2509 145.599 89.6165 161.248C94.982 176.987 107.77 184.141 115.55 183.426C132.094 181.995 176.002 170.28 176.002 170.28L216.959 156.956C228.226 153.2 228.316 146.583 225.544 141.754C223.666 138.624 219.82 137.64 217.227 137.908C225.365 135.851 232.251 132.811 229.657 124.584C227.869 118.861 221.967 119.755 221.967 119.755C221.967 119.755 228.226 118.145 230.104 114.836C233.413 108.934 229.299 101.959 222.145 102.585L170.726 112.78L215.439 97.935Z" fill="#947EFF"/>
<path d="M146.403 97.5773L134.957 110.991C134.957 110.991 142.379 124.942 129.859 153.379" fill="#947EFF"/>
<path d="M209.317 91.8111C214.057 89.9331 215.22 85.8196 213.878 81.7954C213.789 81.6165 213.789 81.5271 213.699 81.3483C212 77.2347 207.887 75.7144 203.326 76.9664L151.369 93.063C149.402 93.8679 147.077 93.8679 145.11 93.1524L140.37 91.3639L158.524 71.6903C160.491 69.5441 161.027 66.593 160.133 63.9997C159.686 62.7477 158.971 61.5852 157.898 60.6909C154.947 58.0976 150.565 58.187 147.703 60.7803L85.731 116.761L85.2839 117.208C84.2108 118.192 83.3165 119.086 82.6011 120.07C78.2192 125.882 78.1298 139.475 83.4954 155.125C88.8609 170.863 101.649 178.017 109.429 177.302C125.973 175.871 169.881 164.157 169.881 164.157L210.838 150.832C222.105 147.076 222.195 140.459 219.423 135.63C217.545 132.5 213.699 131.516 211.106 131.784C219.244 129.728 226.129 126.687 223.536 118.46C221.748 112.737 215.845 113.631 215.845 113.631C215.845 113.631 222.105 112.021 223.983 108.713C227.292 102.81 223.178 95.8352 216.024 96.4612L164.605 106.656L209.317 91.8111Z" fill="#EFEBFF" stroke="#947EFF" stroke-width="2" stroke-miterlimit="10"/>
<path d="M168.094 123.736L215.758 113.631" stroke="#947EFF" stroke-width="2" stroke-miterlimit="10"/>
<path d="M173.723 140.19L211.013 131.784" stroke="#947EFF" stroke-width="2" stroke-miterlimit="10"/>
<path d="M140.282 91.4533L128.836 104.867C128.836 104.867 136.258 118.818 123.738 147.255" fill="#EFEBFF"/>
<path d="M140.282 91.4533L128.836 104.867C128.836 104.867 136.258 118.818 123.738 147.255" stroke="#947EFF" stroke-width="2" stroke-miterlimit="10"/>
<path d="M1 76.9061L14.7716 73.955" stroke="white" stroke-width="2" stroke-miterlimit="10" stroke-linecap="round" stroke-linejoin="round"/>
<path d="M372.794 161.556L434.856 69L464.903 148.499L339.17 336.383L316.277 255.274L333.179 229.787" fill="white"/>
<path d="M372.794 161.556L434.856 69L464.903 148.499L339.17 336.383L316.277 255.274L333.179 229.787" stroke="white" stroke-miterlimit="10" stroke-linecap="round" stroke-linejoin="round"/>
<path d="M434.861 69L448.186 75.7069L477.965 153.507L353.216 339.871L339.176 336.383" stroke="white" stroke-width="2" stroke-miterlimit="10" stroke-linecap="round" stroke-linejoin="round"/>
<path d="M477.959 153.507L464.902 148.5" stroke="white" stroke-width="2" stroke-miterlimit="10" stroke-linecap="round" stroke-linejoin="round"/>
<path d="M377.893 167.905L423.589 99.4942C424.394 98.2423 426.272 98.5105 426.808 99.9414L446.035 154.938C446.572 156.458 446.393 158.157 445.498 159.409L355.715 296.32C354.552 298.109 351.87 297.751 351.244 295.694L333.895 243.201C333.269 241.413 333.537 239.356 334.61 237.746L338.813 231.576" fill="#947EFF"/>
<path d="M377.893 167.905L423.589 99.4942C424.394 98.2423 426.272 98.5105 426.808 99.9414L446.035 154.938C446.572 156.458 446.393 158.157 445.498 159.409L355.715 296.32C354.552 298.109 351.87 297.751 351.244 295.694L333.895 243.201C333.269 241.413 333.537 239.356 334.61 237.746L338.813 231.576" stroke="white" stroke-miterlimit="10"/>
<path d="M304.451 168.839L266.266 145.678C261.884 143.174 261.348 138.882 263.315 135.126C263.405 134.947 263.494 134.858 263.584 134.679C265.819 130.923 270.201 129.939 274.583 131.907L328.685 158.466C330.563 159.539 332.799 159.986 334.856 159.45L339.774 158.377L324.84 136.11C323.23 133.695 323.141 130.655 324.393 128.24C325.019 127.078 325.913 126.094 327.076 125.289C330.385 123.232 334.677 123.948 337.181 126.899L389.763 191.732L390.121 192.18C391.015 193.253 391.82 194.326 392.357 195.399C395.755 201.838 393.787 215.341 386.097 229.917C378.406 244.583 364.635 249.77 357.033 247.892C340.937 243.957 318.67 235.372 304.898 228.218C280.485 215.43 270.201 206.13 270.201 206.13" fill="#947EFF"/>
<path d="M304.451 168.839L266.266 145.678C261.884 143.174 261.348 138.882 263.315 135.126C263.405 134.947 263.494 134.858 263.584 134.679C265.819 130.923 270.201 129.939 274.583 131.907L328.685 158.466C330.563 159.539 332.799 159.986 334.856 159.45L339.774 158.377L324.84 136.11C323.23 133.695 323.141 130.655 324.393 128.24C325.019 127.078 325.913 126.094 327.076 125.289C330.385 123.232 334.677 123.948 337.181 126.899L389.763 191.732L390.121 192.18C391.015 193.253 391.82 194.326 392.357 195.399C395.755 201.838 393.787 215.341 386.097 229.917C378.406 244.583 364.635 249.77 357.033 247.892C340.937 243.957 318.67 235.372 304.898 228.218C280.485 215.43 270.201 206.13 270.201 206.13L267.738 201.817L268.351 196.918L272.637 192.631L269.575 188.344V182.833L272.025 179.158L276.312 177.321L273.25 173.034V168.839L275.087 165.073L280.598 163.236L304.451 168.839Z" fill="#947EFF"/>
<path d="M304.451 168.839L266.266 145.678C261.884 143.174 261.348 138.882 263.315 135.126C263.405 134.947 263.494 134.858 263.584 134.679C265.819 130.923 270.201 129.939 274.583 131.907L328.685 158.466C330.563 159.539 332.799 159.986 334.856 159.45L339.774 158.377L324.84 136.11C323.23 133.695 323.141 130.655 324.393 128.24C325.019 127.078 325.913 126.094 327.076 125.289C330.385 123.232 334.677 123.948 337.181 126.899L389.763 191.732L390.121 192.18C391.015 193.253 391.82 194.326 392.357 195.399C395.755 201.838 393.787 215.341 386.097 229.917C378.406 244.583 364.635 249.77 357.033 247.892C340.937 243.957 318.67 235.372 304.898 228.218C280.485 215.43 270.201 206.13 270.201 206.13" fill="#947EFF"/>
<path d="M339.684 158.466L348.894 173.49C348.894 173.49 339.415 186.188 347.374 216.146" fill="#947EFF"/>
<path d="M308.564 185.473L278.517 177.961C274.404 176.977 271.989 172.864 272.973 168.75C273.957 164.637 278.07 162.222 282.184 163.206L312.231 170.717C316.344 171.701 318.759 175.815 317.775 179.928C316.792 184.042 312.678 186.546 308.564 185.473Z" fill="#947EFF"/>
<path d="M304.896 200.228L274.849 192.716C270.736 191.733 268.321 187.619 269.305 183.505C270.289 179.392 274.402 176.977 278.516 177.961L308.563 185.473C312.676 186.456 315.091 190.57 314.107 194.684C313.124 198.797 309.01 201.212 304.896 200.228Z" fill="#947EFF"/>
<path d="M270.291 206.309C268.681 204.878 266.982 202.911 268.055 198.797C269.039 194.683 273.152 192.269 277.266 193.253L302.305 199.512C306.419 200.496 308.833 204.61 307.849 208.723C306.866 212.837 302.752 215.251 298.639 214.268L283.257 210.333" fill="#947EFF"/>
<path d="M303.225 157.889L265.04 134.728C260.658 132.224 260.121 127.932 262.089 124.176C262.178 123.997 262.268 123.907 262.357 123.729C264.593 119.973 268.974 118.989 273.356 120.956L327.459 147.516C329.337 148.589 331.572 149.036 333.629 148.499L338.548 147.426L323.614 125.159C322.004 122.745 321.914 119.704 323.166 117.29C323.792 116.127 324.687 115.144 325.849 114.339C329.158 112.282 333.45 112.997 335.954 115.949L388.537 180.782L388.894 181.229C389.789 182.302 390.593 183.375 391.13 184.449C394.528 190.887 392.561 204.391 384.87 218.967C377.18 233.633 363.408 238.819 355.807 236.942C339.71 233.007 317.443 224.422 303.672 217.268C279.258 204.48 268.974 195.18 268.974 195.18" fill="#EFEBFF"/>
<path d="M303.225 157.889L265.04 134.728C260.658 132.224 260.121 127.932 262.089 124.176C262.178 123.997 262.268 123.907 262.357 123.729C264.593 119.973 268.974 118.989 273.356 120.956L327.459 147.516C329.337 148.589 331.572 149.036 333.629 148.499L338.548 147.426L323.614 125.159C322.004 122.745 321.914 119.704 323.166 117.29C323.792 116.127 324.687 115.144 325.849 114.339C329.158 112.282 333.45 112.997 335.954 115.949L388.537 180.782L388.894 181.229C389.789 182.302 390.593 183.375 391.13 184.449C394.528 190.887 392.561 204.391 384.87 218.967C377.18 233.633 363.408 238.819 355.807 236.942C339.71 233.007 317.443 224.422 303.672 217.268C279.258 204.48 268.974 195.18 268.974 195.18L266.512 190.867L267.124 185.968L271.411 181.681L268.349 177.394V171.882L270.798 168.208L275.085 166.371L272.023 162.084V157.889L273.86 154.123L279.372 152.286L303.225 157.889Z" fill="#EFEBFF"/>
<path d="M303.225 157.889L265.04 134.728C260.658 132.224 260.121 127.932 262.089 124.176C262.178 123.997 262.268 123.907 262.357 123.729C264.593 119.973 268.974 118.989 273.356 120.956L327.459 147.516C329.337 148.589 331.572 149.036 333.629 148.499L338.548 147.426L323.614 125.159C322.004 122.745 321.914 119.704 323.166 117.29C323.792 116.127 324.687 115.144 325.849 114.339C329.158 112.282 333.45 112.997 335.954 115.949L388.537 180.782L388.894 181.229C389.789 182.302 390.593 183.375 391.13 184.449C394.528 190.887 392.561 204.391 384.87 218.967C377.18 233.633 363.408 238.819 355.807 236.942C339.71 233.007 317.443 224.422 303.672 217.268C279.258 204.48 268.974 195.18 268.974 195.18" fill="#EFEBFF"/>
<path d="M303.225 157.889L265.04 134.728C260.658 132.224 260.121 127.932 262.089 124.176C262.178 123.997 262.268 123.907 262.357 123.729C264.593 119.973 268.974 118.989 273.356 120.956L327.459 147.516C329.337 148.589 331.572 149.036 333.629 148.499L338.548 147.426L323.614 125.159C322.004 122.745 321.914 119.704 323.166 117.29C323.792 116.127 324.687 115.144 325.849 114.339C329.158 112.282 333.45 112.997 335.954 115.949L388.537 180.782L388.894 181.229C389.789 182.302 390.593 183.375 391.13 184.449C394.528 190.887 392.561 204.391 384.87 218.967C377.18 233.633 363.408 238.819 355.807 236.942C339.71 233.007 317.443 224.422 303.672 217.268C279.258 204.48 268.974 195.18 268.974 195.18" stroke="#947EFF" stroke-width="2" stroke-miterlimit="10"/>
<path d="M338.457 147.516L347.668 162.539C347.668 162.539 338.189 175.238 346.148 205.196" fill="#EFEBFF"/>
<path d="M338.457 147.516L347.668 162.539C347.668 162.539 338.189 175.238 346.148 205.196" stroke="#947EFF" stroke-width="2" stroke-miterlimit="10"/>
<path d="M307.338 174.522L277.291 167.011C273.177 166.027 270.763 161.913 271.746 157.8C272.73 153.686 276.844 151.272 280.957 152.255L311.004 159.767C315.118 160.751 317.532 164.864 316.549 168.978C315.565 173.092 311.451 175.596 307.338 174.522Z" fill="#EFEBFF" stroke="#947EFF" stroke-width="2" stroke-miterlimit="10"/>
<path d="M303.67 189.278L273.623 181.766C269.509 180.782 267.095 176.669 268.078 172.555C269.062 168.442 273.176 166.027 277.289 167.011L307.336 174.523C311.45 175.506 313.864 179.62 312.881 183.733C311.897 187.847 307.783 190.261 303.67 189.278Z" fill="#EFEBFF" stroke="#947EFF" stroke-width="2" stroke-miterlimit="10"/>
<path d="M269.064 195.359C267.454 193.928 265.755 191.96 266.828 187.847C267.812 183.733 271.926 181.319 276.039 182.302L301.078 188.562C305.192 189.546 307.607 193.659 306.623 197.773C305.639 201.887 301.526 204.301 297.412 203.317L282.031 199.383" fill="#EFEBFF"/>
<path d="M269.064 195.359C267.454 193.928 265.755 191.96 266.828 187.847C267.812 183.733 271.926 181.319 276.039 182.302L301.078 188.562C305.192 189.546 307.607 193.659 306.623 197.773C305.639 201.887 301.526 204.301 297.412 203.317L282.031 199.383" stroke="#947EFF" stroke-width="2" stroke-miterlimit="10" stroke-linecap="round" stroke-linejoin="round"/>
<defs>
<linearGradient id="paint0_linear_6652_9844" x1="80.6115" y1="-81.4487" x2="71.4255" y2="280.26" gradientUnits="userSpaceOnUse">
<stop stop-color="white"/>
<stop offset="1" stop-color="#947EFF"/>
</linearGradient>
</defs>
</svg>
