<svg width="457" height="250" viewBox="0 0 457 250" fill="none" xmlns="http://www.w3.org/2000/svg">
<path d="M164.827 -5.70711e-05L13.5781 107.051L200.515 371.169L351.764 264.118L164.827 -5.70711e-05Z" fill="white" stroke="#FF864B" stroke-width="2"/>
<path d="M1 194.087L101.47 205.247L166.21 149.437L176.25 73.5275L121 149.437L1 194.087Z" fill="#FFF3ED" stroke="#FF864B" stroke-width="2"/>
<path d="M101.469 205.247L120.999 149.438H166.209L101.469 205.247Z" fill="white" stroke="#FF864B" stroke-width="2" stroke-linejoin="round"/>
<path d="M1 194.087L88.63 113.157L176.25 73.5275L121 149.437L1 194.087Z" fill="#FF864B"/>
<path d="M101.268 111.776L119.611 148.887L65.4383 169.04L85.3457 105.02L101.268 111.776Z" fill="#FFF3ED" stroke="#FF864B" stroke-width="2"/>
<path d="M143.263 117.145L120.367 148.605L115.263 150.506L86.8203 105.137L143.263 117.145Z" fill="white" stroke="#FF864B" stroke-width="2"/>
<path d="M63.8789 170.687L66.4489 162.407L111.659 146.627L114.849 151.727L63.8789 170.687Z" fill="#FF864B"/>
<path d="M114.85 151.727L111.66 146.627L141.96 120.637L121 149.437L114.85 151.727Z" fill="#FF864B"/>
<path d="M166.21 149.437H121L176.25 73.5275L166.21 149.437Z" fill="white" stroke="#FF864B" stroke-width="2"/>
<path d="M244.319 206.311L233.456 217.988L201.599 69.1852C201.604 69.1701 201.609 69.1541 201.614 69.1373C201.669 68.9567 201.757 68.6843 201.888 68.3347C202.151 67.6353 202.583 66.6277 203.257 65.4273C204.602 63.0277 206.91 59.856 210.745 56.8301C218.395 50.7937 232.269 45.2294 257.078 47.7698C284.192 50.551 296.389 56.9979 301.827 62.538C304.533 65.2957 305.582 67.8448 305.973 69.6572C306.169 70.5683 306.201 71.3045 306.187 71.8007C306.18 72.0488 306.161 72.2368 306.146 72.3563C306.143 72.378 306.14 72.3974 306.138 72.4145L244.319 206.311Z" fill="#FF864B" stroke="white" stroke-width="2"/>
<path d="M305.299 69.805C305.299 69.805 289.651 54.545 262.871 54.545C229.871 54.545 202.368 67.065 202.368 67.065C202.368 67.065 193.999 59.015 207.209 54.545C220.419 50.075 252.209 44.875 252.209 44.875L284.769 49.525L307.169 57.715L308.579 67.065L305.299 69.805Z" fill="white"/>
<path d="M250.692 48.8076L250.692 48.8076C229.96 47.3456 213.524 56.4527 207.234 61.6571L207.234 61.6571L207.227 61.6623C204.9 63.6195 204.093 65.2299 203.326 66.8544C203.301 66.907 203.276 66.9595 203.252 67.012C202.583 68.4303 201.907 69.8649 200.108 71.7558C200.108 71.7558 200.108 71.7559 200.107 71.7559C199.863 71.7627 199.511 71.7645 199.086 71.7437C198.231 71.7017 197.115 71.5693 196.022 71.219C194.926 70.868 193.911 70.3171 193.182 69.4768C192.471 68.6571 191.966 67.4879 192.002 65.7555C192.079 61.9793 192.953 58.0476 195.19 54.4661C197.423 50.8919 201.052 47.6032 206.746 45.1643C212.464 42.7149 222.692 40.4031 235.399 39.4536C248.086 38.5055 263.171 38.921 278.583 41.8771C292.613 44.5732 301.411 47.3425 306.823 50.3574C312.172 53.3375 314.116 56.4971 314.622 60.0367C315.175 63.9003 315.011 65.8858 314.618 67.1351C314.336 68.0315 313.961 68.5484 313.477 69.2159C313.264 69.5104 313.029 69.8341 312.772 70.2326C312.265 71.0169 311.253 71.5271 310.06 71.7658C308.861 72.0056 307.775 71.9124 307.375 71.7722C305.788 71.2103 304.919 69.9867 303.559 67.963L303.531 67.9218C302.202 65.9435 300.518 63.4381 297.309 60.9063C290.868 55.8242 278.466 50.7671 250.692 48.8076Z" fill="#FF864B" stroke="white" stroke-width="2"/>
<path d="M222.97 87.4851C228.902 87.4851 233.71 83.5272 233.71 78.6451C233.71 73.7629 228.902 69.8051 222.97 69.8051C217.039 69.8051 212.23 73.7629 212.23 78.6451C212.23 83.5272 217.039 87.4851 222.97 87.4851Z" fill="#FFF3ED"/>
<path d="M274.282 114.018C278.908 110.941 279.626 103.887 275.885 98.2633C272.144 92.6394 265.362 90.5747 260.736 93.6518C256.11 96.7288 255.392 103.782 259.133 109.406C262.873 115.03 269.656 117.095 274.282 114.018Z" fill="#FFF3ED"/>
<path d="M269.477 85.6613C274.185 83.486 276.551 78.585 274.763 74.7146C272.974 70.8442 267.708 69.4699 263.001 71.6452C258.293 73.8205 255.926 78.7215 257.715 82.5919C259.503 86.4623 264.769 87.8365 269.477 85.6613Z" fill="#FFF3ED"/>
<path d="M240.897 146.662C246.873 143.514 249.618 136.977 247.029 132.061C244.439 127.145 237.496 125.713 231.52 128.861C225.544 132.009 222.798 138.546 225.388 143.461C227.977 148.377 234.921 149.81 240.897 146.662Z" fill="#FFF3ED"/>
<path d="M220.703 97.285C220.4 95.0438 220.634 92.7627 221.385 90.6295C222.136 88.4963 223.383 86.572 225.023 85.015C231.243 79.185 237.723 79.555 237.723 79.555C237.723 79.555 236.473 87.555 232.723 91.885C229.923 95.115 227.323 96.945 220.703 97.285Z" fill="white"/>
<path d="M278.481 86.2051C276.298 85.6063 274.287 84.4983 272.615 82.9721C270.943 81.4458 269.656 79.5449 268.861 77.4251C265.931 69.4251 268.801 63.6051 268.801 63.6051C268.801 63.6051 275.651 67.8751 278.191 73.0451C280.081 76.8651 280.751 79.9751 278.481 86.2051Z" fill="white"/>
<path d="M260.549 122.275C258.306 122.578 256.023 122.343 253.888 121.59C251.753 120.837 249.827 119.588 248.269 117.945C242.439 111.735 242.809 105.255 242.809 105.255C242.809 105.255 250.809 106.505 255.149 110.255C258.349 113.045 260.189 115.655 260.549 122.275Z" fill="white"/>
<path d="M236.711 175.295C235.948 173.164 235.702 170.882 235.994 168.638C236.286 166.393 237.108 164.25 238.391 162.385C243.261 155.385 249.681 154.385 249.681 154.385C249.681 154.385 250.111 162.445 247.331 167.495C245.281 171.255 243.111 173.595 236.711 175.295Z" fill="white"/>
<path d="M425.929 159.046L426.859 158.677L425.929 159.046C433.69 178.605 436.041 194.604 436.458 205.693C436.667 211.238 436.392 215.556 436.067 218.479C435.905 219.94 435.73 221.053 435.597 221.795C435.574 221.923 435.552 222.04 435.532 222.146L247.273 226.545L338.588 76.4508C339.033 76.5707 339.683 76.7536 340.518 77.0085C342.227 77.5309 344.707 78.3554 347.772 79.5602C353.903 81.97 362.37 85.899 371.687 91.9691C390.316 104.106 412.345 124.801 425.929 159.046Z" fill="#FF864B" stroke="white" stroke-width="2"/>
<path d="M337.559 82.4574C337.559 82.4574 401.42 130.48 407 162C412.58 193.52 428.539 220.877 428.539 220.877C428.539 220.877 444.719 196.337 426.859 158.657C408.999 120.977 375.509 76.5874 375.509 76.5874L338.119 75.3174L337.559 82.4574Z" fill="white"/>
<path d="M427.466 227.792C427.178 227.54 426.947 227.331 426.779 227.176C426.781 227.106 426.782 227.029 426.783 226.944C426.79 226.494 426.794 225.83 426.785 224.962C426.766 223.227 426.695 220.681 426.484 217.418C426.061 210.893 425.079 201.502 422.84 190.016C420.597 178.51 415.624 160.755 408.128 143.538C400.645 126.352 390.583 109.55 378.091 100.11C365.729 90.7676 355.65 86.1021 348.628 83.7733C345.118 82.6092 342.375 82.0299 340.495 81.7418C339.556 81.5978 338.832 81.5266 338.338 81.4915C338.09 81.474 337.9 81.4654 337.768 81.4613C337.704 81.4593 337.654 81.4583 337.618 81.4578C337.607 81.4566 337.594 81.455 337.579 81.4532C337.52 81.446 337.43 81.4344 337.314 81.4177C337.082 81.3844 336.746 81.331 336.337 81.2514C335.516 81.0916 334.419 80.8291 333.296 80.4194C330.958 79.5655 328.923 78.2267 328.485 76.2418C328.382 75.7749 328.374 75.021 328.499 73.9807C328.622 72.9613 328.863 71.7444 329.201 70.3918C329.878 67.6878 330.928 64.5057 332.139 61.3925C333.35 58.2791 334.712 55.2601 336.005 52.8794C336.652 51.6881 337.272 50.673 337.839 49.8915C338.423 49.0863 338.89 48.6151 339.209 48.4149C339.45 48.2639 340.089 48.0918 341.272 48.065C342.4 48.0394 343.862 48.1466 345.598 48.4013C349.067 48.9101 353.54 49.9943 358.445 51.6924C368.264 55.0924 379.695 60.9125 388.204 69.3669C389.248 70.4043 390.311 71.4557 391.39 72.5223C408.229 89.1677 428.86 109.561 438.748 139.729C440.58 145.319 442.374 150.467 444.063 155.314C452.195 178.654 457.897 195.019 453.781 220.186C452.544 227.751 450.175 231.727 447.536 233.619C444.932 235.487 441.826 235.491 438.678 234.529C435.524 233.564 432.476 231.668 430.188 229.978C429.051 229.137 428.116 228.359 427.466 227.792Z" fill="#FF864B" stroke="white" stroke-width="2"/>
<path d="M384.386 168.04C389.194 167.194 392.259 161.772 391.231 155.931C390.203 150.089 385.472 146.039 380.663 146.885C375.855 147.731 372.79 153.153 373.818 158.995C374.846 164.836 379.578 168.886 384.386 168.04Z" fill="#FFF3ED"/>
<path d="M331.578 171.164C334.703 166.83 334.345 161.231 330.778 158.658C327.211 156.086 321.785 157.513 318.66 161.847C315.534 166.181 315.892 171.78 319.459 174.353C323.026 176.926 328.452 175.498 331.578 171.164Z" fill="#FFF3ED"/>
<path d="M369.091 208.458C375.778 202.086 376.949 192.46 371.708 186.96C366.466 181.459 356.795 182.166 350.108 188.539C343.421 194.911 342.249 204.536 347.491 210.037C352.733 215.537 362.403 214.831 369.091 208.458Z" fill="#FFF3ED"/>
<path d="M395.413 207.768C398.915 205.336 399.355 199.912 396.397 195.652C393.439 191.393 388.202 189.911 384.7 192.343C381.198 194.775 380.757 200.2 383.716 204.459C386.674 208.719 391.911 210.2 395.413 207.768Z" fill="#FFF3ED"/>
<path d="M313.34 206.551C317.732 203.148 317.938 196.061 313.801 190.721C309.664 185.382 302.75 183.812 298.358 187.215C293.967 190.619 293.76 197.706 297.897 203.045C302.034 208.384 308.948 209.954 313.34 206.551Z" fill="#FFF3ED"/>
<path d="M345.402 125.187C352.156 125.187 357.632 120.683 357.632 115.127C357.632 109.571 352.156 105.067 345.402 105.067C338.647 105.067 333.172 109.571 333.172 115.127C333.172 120.683 338.647 125.187 345.402 125.187Z" fill="#FFF3ED"/>
<path d="M363.781 158.457C365.937 157.771 368.225 157.607 370.458 157.977C372.69 158.347 374.802 159.242 376.621 160.587C383.441 165.697 384.201 172.147 384.201 172.147C384.201 172.147 376.131 172.297 371.201 169.347C367.531 167.167 365.271 164.917 363.781 158.457Z" fill="white"/>
<path d="M312.179 160.297C310.959 158.383 310.212 156.205 310 153.945C309.788 151.684 310.117 149.406 310.959 147.297C314.159 139.407 320.199 137.027 320.199 137.027C320.199 137.027 322.399 144.787 320.809 150.327C319.589 154.447 317.999 157.207 312.179 160.297Z" fill="white"/>
<path d="M340.922 131.477C341.703 129.353 342.977 127.445 344.639 125.908C346.301 124.371 348.303 123.251 350.482 122.637C358.692 120.387 364.252 123.737 364.252 123.737C364.252 123.737 359.432 130.197 354.062 132.307C350.102 133.857 346.942 134.267 340.922 131.477Z" fill="white"/>
<path d="M384.719 213.437C384.927 211.179 385.671 209.004 386.888 207.091C388.105 205.177 389.761 203.582 391.719 202.437C399.079 198.157 405.319 199.977 405.319 199.977C405.319 199.977 402.319 207.457 397.649 210.867C394.179 213.397 391.239 214.587 384.719 213.437Z" fill="white"/>
<path d="M335.59 199.974C336.081 197.766 337.088 195.706 338.53 193.964C339.971 192.221 341.806 190.845 343.882 189.948C351.735 186.639 357.687 189.237 357.687 189.237C357.687 189.237 353.745 196.28 348.71 199.048C344.997 201.14 341.889 201.999 335.59 199.974Z" fill="white"/>
<path d="M272.359 205.117C274.325 203.998 276.529 203.361 278.789 203.261C281.05 203.16 283.301 203.597 285.359 204.537C293.089 208.127 295.169 214.277 295.169 214.277C295.169 214.277 287.309 216.097 281.849 214.277C277.829 212.857 275.179 211.127 272.359 205.117Z" fill="white"/>
</svg>
