<svg width="71" height="64" viewBox="0 0 71 64" fill="none" xmlns="http://www.w3.org/2000/svg">
<path fill-rule="evenodd" clip-rule="evenodd" d="M15 39C25.4934 39 34 30.4937 34 20C34 12.0459 29.1127 5.23389 22.1774 2.40234C25.1235 1.49072 28.2544 1 31.5 1C48.897 1 63 15.103 63 32.5C63 49.897 48.897 64 31.5 64C14.103 64 0 49.897 0 32.5C0 32.2246 0.00353241 31.9502 0.0105438 31.6768C3.48759 36.1338 8.90909 39 15 39Z" fill="#EFEBFF"/>
<circle cx="65.6914" cy="55" r="5" fill="#EFEBFF"/>
<path d="M41.0848 54.283L32.0942 49.3412C33.5597 48.6596 34.6367 48.1233 35.7295 47.6598C36.1226 47.494 36.4475 47.7348 36.7452 47.9052C38.0902 48.6754 39.4239 49.4707 40.7349 50.2977C41.3439 50.6817 41.8551 50.7226 42.5072 50.3409C48.7176 46.7056 54.9347 43.0982 61.1588 39.5189C61.8109 39.144 62.0108 38.6987 62.0085 37.9716C61.9828 30.7767 61.9828 23.5817 62.0085 16.3868C62.0085 15.637 61.7427 15.2507 61.0997 14.8758C54.9029 11.3208 48.7183 7.74299 42.5458 4.14248C41.9164 3.77667 41.4234 3.75622 40.7781 4.14248C34.6344 7.72329 28.4763 11.2829 22.3037 14.8213C21.6062 15.2212 21.2927 15.6574 21.2972 16.5027C21.3305 23.6597 21.3305 30.8168 21.2972 37.9739C21.2972 38.7601 21.5403 39.2122 22.2333 39.5848C23.901 40.48 25.4938 41.5093 27.1683 42.3886C29.2132 43.4656 31.224 42.7566 31.6716 40.8617C31.7449 40.4525 31.7716 40.0364 31.7511 39.6212C31.7511 32.6534 31.7511 25.6857 31.7511 18.7179C31.7511 17.182 31.7511 17.1752 33.2348 17.1752C35.7568 17.1752 35.4501 17.0434 35.4523 19.3519C35.4523 26.1303 35.4523 32.9087 35.4523 39.6871C35.4765 40.4465 35.4362 41.2066 35.3319 41.9592C34.6889 45.6354 31.1263 47.6871 27.3183 46.1989C24.5281 45.1105 21.897 43.5292 19.3659 41.9092C18.5412 41.3843 17.6914 40.0415 17.6914 39.0804V15.4507C17.6914 14.1942 18.5866 12.9332 19.8885 12.188C26.8169 8.21786 33.7339 4.2311 40.6395 0.227673C40.9572 0.0711312 41.3079 -0.0067919 41.662 0.000464084C42.0152 0.00101426 42.3641 0.0785497 42.6844 0.227673C43.2842 0.529861 43.9 0.807056 44.4816 1.13651C50.5322 4.6378 56.5646 8.16635 62.6333 11.6358C64.0375 12.4401 65.6325 13.3649 65.6325 14.9917V39.5303C65.4348 41.1367 64.1352 42.0614 62.747 42.8385C59.1889 44.8379 55.7035 46.9509 52.1454 48.9731C48.9372 50.7908 45.6881 52.5335 42.4572 54.3102C42.2442 54.4167 42.0128 54.4814 41.7756 54.5011C41.5309 54.4861 41.2937 54.4112 41.0848 54.283Z" fill="#5C3BFE"/>
<path d="M47.643 38.5144C45.2687 38.4212 42.8898 38.2713 40.7222 37.0921C38.5546 35.9129 37.4527 34.0407 37.3572 31.5641C37.33 30.8325 37.6163 30.5235 38.3411 30.5325C38.7432 30.5325 39.0227 30.5325 39.3612 30.5325C40.7835 30.4962 41.138 30.628 41.2925 31.9253C41.4629 33.3545 42.4899 34.177 43.8281 34.5223C46.2982 35.1434 48.8805 35.1691 51.3624 34.5973C51.8022 34.4847 52.2211 34.3021 52.603 34.0566C53.4982 33.509 53.8276 32.6501 53.7822 31.6368C53.7367 30.6234 53.046 30.1168 52.1917 29.9395C50.1627 29.5169 48.102 29.2284 46.0571 28.8376C44.503 28.5377 42.9261 28.2854 41.4266 27.7992C39.5771 27.1994 38.3365 25.9179 38.0979 23.8844C37.8321 21.6305 38.2956 19.5674 40.2973 18.2928C41.47 17.5428 42.7734 17.0202 44.1394 16.7523C46.9932 16.2184 49.8719 16.2979 52.6439 17.3317C55.3181 18.3292 56.5564 20.4081 56.8677 23.1369C56.8927 23.3459 56.9245 23.923 56.5428 23.9685C55.6634 24.0446 54.78 24.0651 53.8981 24.0298C53.4686 24.0298 53.2369 23.6322 53.1687 23.3482C52.662 21.2829 51.2806 20.2741 49.2653 20.1673C47.7299 20.0684 46.1892 20.0912 44.6575 20.2354C44.0688 20.2785 43.4937 20.4327 42.9625 20.6899C42.5585 20.9208 42.2453 21.2825 42.0747 21.7155C41.9041 22.1484 41.8863 22.6266 42.0241 23.071C42.1284 23.396 42.3111 23.6903 42.556 23.928C42.8008 24.1657 43.1004 24.3396 43.4283 24.4343C43.7932 24.5343 44.1644 24.6102 44.5393 24.6615C46.3865 25.0341 48.2587 25.2999 50.1173 25.6362C51.1943 25.8293 52.2781 26.0247 53.33 26.3178C55.5885 26.9449 57.3494 28.115 57.647 30.6939C57.9628 33.5135 56.8427 35.7538 54.4661 37.0784C52.353 38.2713 50.0196 38.4553 47.643 38.5144Z" fill="#5C3BFE"/>
</svg>
