<svg width="161" height="160" viewBox="0 0 161 160" fill="none" xmlns="http://www.w3.org/2000/svg">
<path d="M150.141 64.5728C150.141 39.6839 137.371 30.912 129.412 29.1147C111.191 25 102.319 31.5139 89.3193 50.0159C76.5781 68.1496 37.4996 44.0409 19.4023 71.0161C-7.09766 110.516 29.9023 140.538 89.3193 130.016C132.57 122.357 150.14 94.3599 150.141 64.5728Z" fill="#F7F7F9"/>
<rect x="27.6914" y="45" width="110" height="72" rx="5" fill="white"/>
<rect x="23.378" y="38.8701" width="105.412" height="69.17" rx="9.03658" fill="#947EFF" stroke="#947EFF" stroke-width="0.951219"/>
<path d="M23.378 47.9067C23.378 42.916 27.4238 38.8701 32.4145 38.8701H119.754C124.745 38.8701 128.79 42.916 128.79 47.9067V59.1916H23.378V47.9067Z" fill="white" stroke="#947EFF" stroke-width="0.951219"/>
<path d="M52.0537 39.1823C52.0537 34.3958 49.5845 30.5156 46.5386 30.5156C43.4927 30.5156 41.0234 34.3958 41.0234 39.1823C41.0234 43.9688 43.4927 47.849 46.5386 47.849" stroke="#947EFF" stroke-width="0.951219"/>
<path d="M86.7217 39.1823C86.7217 34.3958 84.2525 30.5156 81.2066 30.5156C78.1606 30.5156 75.6914 34.3958 75.6914 39.1823C75.6914 43.9688 78.1606 47.849 81.2066 47.849" stroke="#947EFF" stroke-width="0.951219"/>
<path d="M69.3897 39.1823C69.3897 34.3958 66.9205 30.5156 63.8745 30.5156C60.8286 30.5156 58.3594 34.3958 58.3594 39.1823C58.3594 43.9688 60.8286 47.849 63.8745 47.849" stroke="#947EFF" stroke-width="0.951219"/>
<path d="M104.054 39.1823C104.054 34.3958 101.585 30.5156 98.5386 30.5156C95.4927 30.5156 93.0234 34.3958 93.0234 39.1823C93.0234 43.9688 95.4927 47.849 98.5386 47.849" stroke="#947EFF" stroke-width="0.951219"/>
<rect x="34.4092" y="66.4463" width="26.6245" height="30.5639" rx="2.52439" fill="#EFEBFF" stroke="#EFEBFF" stroke-width="0.951219"/>
<path d="M69.3867 67.5459H120.599" stroke="#EFEBFF" stroke-width="0.951219"/>
<path d="M69.3867 77.001H120.599" stroke="#EFEBFF" stroke-width="0.951219"/>
<path d="M69.3867 86.4551H120.599" stroke="#EFEBFF" stroke-width="0.951219"/>
<path d="M69.3867 95.9102H120.599" stroke="#EFEBFF" stroke-width="0.951219"/>
</svg>
