<svg width="72" height="69" viewBox="0 0 72 69" fill="none" xmlns="http://www.w3.org/2000/svg">
<path fill-rule="evenodd" clip-rule="evenodd" d="M15 44C25.4934 44 34 35.4937 34 25C34 17.0459 29.1127 10.2339 22.1774 7.40234C25.1235 6.49072 28.2544 6 31.5 6C48.897 6 63 20.103 63 37.5C63 54.897 48.897 69 31.5 69C14.103 69 0 54.897 0 37.5C0 37.2246 0.00353241 36.9502 0.0105438 36.6768C3.48759 41.1338 8.90909 44 15 44Z" fill="#EFEBFF"/>
<circle cx="67" cy="58" r="5" fill="#EFEBFF"/>
<path d="M60.8707 44.3569L57.6243 46.2222C54.7709 47.8563 51.917 49.4898 49.0625 51.1228C49.0417 51.1299 49.0228 51.1414 49.0069 51.1565C48.9911 51.1716 48.9787 51.19 48.9708 51.2103C48.9628 51.2306 48.9594 51.2524 48.9608 51.2742C48.9622 51.2959 48.9684 51.3171 48.9789 51.3363C49.1829 51.9797 49.2513 52.6579 49.1799 53.3286C49.0865 54.294 48.7161 55.2127 48.1126 55.9757C47.3633 56.9663 46.2697 57.6455 45.044 57.8815C44.3332 58.0375 43.5968 58.0395 42.8852 57.8872C42.1735 57.7349 41.5034 57.432 40.9206 56.9992C40.3734 56.6071 39.9106 56.1106 39.5593 55.5388C39.208 54.967 38.9753 54.3314 38.8749 53.6692C38.7508 52.9427 38.7854 52.1983 38.9763 51.4863C39.003 51.3875 38.9887 51.3416 38.9016 51.2904L31.6971 47.1645L27.1023 44.5351C27.0825 44.5222 27.0617 44.511 27.04 44.5016C26.6593 44.7857 26.3124 45.0787 25.9318 45.3204C25.3045 45.7113 24.5946 45.9528 23.8576 46.0263C22.5315 46.2007 21.1895 45.8501 20.1219 45.0504C19.0784 44.3015 18.365 43.1832 18.1296 41.9269C17.9765 41.2181 17.9796 40.4849 18.1387 39.7773C18.2977 39.0698 18.6089 38.4047 19.0511 37.8276C19.7434 36.882 20.7459 36.205 21.8866 35.9129C21.988 35.8846 22.004 35.844 22.004 35.7576C22.004 31.2529 22.004 26.7482 22.004 22.2435C22.004 22.1447 21.9791 22.1094 21.8777 22.0794C19.9405 21.5112 18.6935 20.2653 18.1599 18.3295C18.0204 17.8122 17.9716 17.2749 18.0158 16.7412C18.0902 15.6072 18.542 14.5297 19.3001 13.6777C20.0298 12.8316 21.0256 12.2541 22.1267 12.0383C22.8826 11.8701 23.6672 11.875 24.4208 12.0526C25.1744 12.2303 25.8774 12.576 26.4761 13.0636C26.5668 13.136 26.654 13.2136 26.7394 13.2913C26.8248 13.3689 26.9173 13.4465 27.0009 13.5277L29.1213 12.3154L38.2327 7.09542C38.4586 6.9666 38.6828 6.83247 38.9122 6.71071C38.9295 6.70487 38.9452 6.69541 38.9584 6.68298C38.9716 6.67055 38.9819 6.65544 38.9887 6.63868C38.9954 6.62192 38.9984 6.60392 38.9975 6.58589C38.9966 6.56787 38.9918 6.55024 38.9834 6.53424C38.8099 5.92721 38.755 5.29291 38.8215 4.66543C38.9079 3.74929 39.2443 2.8738 39.7946 2.13309C40.543 1.0869 41.6685 0.366543 42.9378 0.121347C43.6943 -0.0467484 44.4797 -0.0401205 45.2332 0.140712C45.9867 0.321546 46.6882 0.671741 47.2836 1.16428C48.2803 1.94947 48.9416 3.0788 49.1355 4.32661C49.2601 5.05762 49.2225 5.80681 49.0252 6.52189C49.0167 6.53953 49.012 6.55869 49.0113 6.5782C49.0106 6.59772 49.0139 6.61718 49.0211 6.63537C49.0282 6.65355 49.0391 6.67009 49.0529 6.68396C49.0668 6.69783 49.0834 6.70874 49.1017 6.71601C52.8231 8.84423 56.5433 10.9736 60.2623 13.1042L60.9632 13.5065C61.3635 13.2101 61.7264 12.9048 62.123 12.6542C62.7327 12.2783 63.4208 12.0453 64.135 11.973C64.8083 11.8841 65.4927 11.9292 66.1482 12.1059C66.8037 12.2825 67.4171 12.5871 67.9524 13.0018C68.9812 13.7618 69.6771 14.8841 69.8967 16.1377C70.0391 16.8487 70.0258 17.5818 69.8576 18.2873C69.6894 18.9927 69.3703 19.6541 68.9219 20.2265C68.2289 21.1462 67.2396 21.8031 66.1184 22.0883C66.0152 22.1165 65.9939 22.1571 65.9939 22.2524C65.9939 26.7523 65.9939 31.2529 65.9939 35.7541C65.9939 35.8599 66.0277 35.8935 66.1309 35.9305C68.1019 36.5235 69.3791 37.8028 69.8558 39.7934C70.2276 41.3463 69.8701 42.7934 68.9024 44.0569C68.132 45.0945 66.9825 45.7913 65.7004 45.9981C64.9495 46.1413 64.1757 46.1148 63.4365 45.9205C62.6974 45.7262 62.0119 45.3691 61.4311 44.8757C61.2372 44.7099 61.0593 44.5299 60.8707 44.3569ZM43.9892 39.6964H57.3307C58.0779 39.6964 58.825 39.6964 59.5739 39.6964C59.6717 39.6964 59.7109 39.6717 59.7393 39.5693C59.9728 38.698 60.4336 37.9031 61.0753 37.2646C61.0933 37.2536 61.1088 37.2388 61.1205 37.2213C61.1323 37.2038 61.1402 37.184 61.1435 37.1633C61.1469 37.1425 61.1457 37.1213 61.1401 37.101C61.1345 37.0807 61.1245 37.0619 61.1109 37.0458C59.2015 33.7729 57.2952 30.4982 55.3918 27.2217C53.3757 23.7629 51.3638 20.3047 49.356 16.8471C48.0788 14.6507 46.801 12.4548 45.5225 10.2595C45.4745 10.1766 45.4372 10.1483 45.3322 10.1766C44.469 10.4086 43.5591 10.4086 42.6959 10.1766C42.5696 10.143 42.518 10.1766 42.4647 10.2842C40.5672 13.5489 38.6697 16.8124 36.7722 20.0747C34.9104 23.2747 33.0473 26.4747 31.183 29.6747C29.7528 32.1311 28.322 34.5882 26.8906 37.0458C26.8762 37.0624 26.8656 37.0817 26.8593 37.1026C26.853 37.1236 26.8512 37.1456 26.854 37.1672C26.8569 37.1889 26.8643 37.2097 26.8758 37.2283C26.8873 37.2469 26.9027 37.2629 26.9208 37.2752C27.5504 37.892 28.0035 38.6636 28.2336 39.5111C28.2366 39.539 28.2453 39.566 28.2594 39.5903C28.2734 39.6147 28.2924 39.6358 28.3152 39.6525C28.338 39.6691 28.364 39.6808 28.3916 39.6868C28.4193 39.6929 28.4478 39.6931 28.4756 39.6875C33.6474 39.6911 38.8186 39.6928 43.9892 39.6928V39.6964ZM28.2834 42.1563C28.2283 42.2675 28.2105 42.3434 28.3493 42.4228C32.0256 44.5193 35.6948 46.6199 39.357 48.7245L40.2464 49.2293C40.4047 49.0898 40.5452 48.9504 40.7 48.8269C41.2867 48.3411 41.9758 47.9919 42.7164 47.805C43.4571 47.6181 44.2306 47.5982 44.98 47.7469C46.0511 47.9344 47.0305 48.4657 47.7675 49.2592C47.777 49.2731 47.7893 49.2848 47.8036 49.2937C47.8179 49.3026 47.8339 49.3085 47.8506 49.311C47.8673 49.3134 47.8844 49.3125 47.9007 49.3081C47.917 49.3038 47.9322 49.2962 47.9454 49.2857C48.5217 48.9528 49.0987 48.6216 49.6762 48.2922L57.1048 44.0357C57.9711 43.5399 58.8357 43.0422 59.7038 42.5499C59.7874 42.5022 59.8141 42.4563 59.7785 42.3734C59.7429 42.2905 59.734 42.2305 59.7127 42.1616L28.2834 42.1563ZM24.4767 35.8952C24.5923 35.9376 24.6705 35.9658 24.7488 35.8317C26.6724 32.5176 28.5995 29.2047 30.5302 25.8929L36.0198 16.4536C37.4571 13.983 38.8944 11.5124 40.3318 9.04187C40.3727 8.97305 40.4118 8.92187 40.3318 8.84423C40.2517 8.76658 40.1984 8.8107 40.1308 8.84423L36.8932 10.6972C34.0399 12.3313 31.186 13.9648 28.3315 15.5977C28.3122 15.6049 28.2945 15.6159 28.2797 15.63C28.2648 15.6442 28.253 15.6612 28.245 15.68C28.237 15.6989 28.233 15.7191 28.2332 15.7396C28.2334 15.76 28.2378 15.7802 28.2461 15.7989C28.4435 16.5291 28.4702 17.2945 28.3243 18.0365C28.1948 18.757 27.91 19.4411 27.4894 20.0423C27.0688 20.6435 26.5223 21.1476 25.8873 21.52C25.4488 21.7808 24.9741 21.9764 24.4784 22.1006L24.4767 35.8952ZM63.5177 22.1059C62.4282 21.8439 61.4568 21.2315 60.7551 20.3641C59.6878 19.023 59.3515 17.5036 59.7411 15.8324C59.766 15.7248 59.7643 15.6683 59.654 15.6065C55.7215 13.3571 51.7889 11.1054 47.8564 8.85128C47.7871 8.81069 47.7337 8.7754 47.6572 8.85128C47.5807 8.92716 47.6323 8.98011 47.6572 9.0401C48.4613 10.4224 49.2659 11.8048 50.0711 13.1871L56.7473 24.6576C58.9068 28.3694 61.0646 32.0811 63.2206 35.7929C63.2971 35.9235 63.3665 35.9835 63.5088 35.8864L63.5177 22.1059Z" fill="#5C3BFE"/>
</svg>
