<svg width="580" height="300" viewBox="0 0 580 300" fill="none" xmlns="http://www.w3.org/2000/svg">
<g clip-path="url(#clip0_6652_10511)">
<rect width="580" height="300" fill="white"/>
<path d="M-15.1147 162.806C1.5679 163.99 8.33293 175.249 16.4695 187.017C19.8682 191.909 23.9017 206.363 31.0039 213.235C38.209 220.24 45.0675 223.905 55.0288 225.994C91.5288 230.994 100.695 236.108 115.029 245.994C129.529 255.994 141.523 268.493 146.528 299.493C149.051 315.123 143.281 330.453 139.529 337.993C137.684 341.701 133.274 350.388 120.029 359.993C106.781 367.697 99.0994 369.436 89.029 372.493C74.129 377.012 44.029 369.733 31.0039 362.191C-7.471 339.915 -12.1286 338.103 -38.598 303.363C-50.3139 287.987 -66.5488 257.802 -68.7453 226.148C-71.2142 190.569 -42.5647 160.856 -15.1147 162.806Z" fill="#EEEBFF"/>
<path d="M753.631 -42.417C750.634 -25.9631 738.704 -20.4664 726.119 -13.6619C720.885 -10.817 706.078 -8.38405 698.472 -2.07385C690.723 4.32428 686.332 10.7422 683.17 20.4163C674.218 56.1532 668.135 64.7065 656.745 77.8769C645.223 91.1998 631.49 101.759 600.129 103.353C584.317 104.156 569.708 96.7489 562.622 92.197C559.137 89.958 550.983 84.6274 542.88 70.4138C536.667 56.4044 535.776 48.5788 533.836 38.2351C530.968 22.9311 541.488 -6.19532 550.405 -18.3202C576.744 -54.1359 579.054 -58.568 616.473 -81.0906C633.036 -91.0595 664.811 -103.905 696.516 -102.636C732.152 -101.21 758.562 -69.4906 753.631 -42.417Z" fill="#EEEBFF"/>
<path d="M73.555 246.408L115.553 238.428L167.996 262.331L155.368 281L115.97 267.522C114.443 267 112.804 266.897 111.224 267.226L59.0872 278.066C58.4845 278.192 57.8706 278.255 57.2551 278.255H53.7356C49.0956 278.255 45.2161 274.727 44.7762 270.108L44.7506 269.839C44.5584 267.822 45.0529 265.798 46.1539 264.097L50.4937 257.39L19.2328 254.827C17.9712 254.724 17 253.67 17 252.404C17 251.431 17.5796 250.552 18.4736 250.169L28.7306 245.773C31.1275 244.746 33.7286 244.284 36.3326 244.423L73.555 246.408Z" fill="white"/>
<path d="M146.956 230.718L136.369 232.592L83.5264 241.773L74.2509 243.366C74.2509 243.366 66.5681 244.397 62.5394 248.145C61.6024 248.988 60.4781 250.206 59.2601 251.517C58.5106 252.361 57.6674 253.298 56.9178 254.234C52.8891 259.106 49.5162 265.009 50.5468 268.476C52.1396 274.191 68.5357 271.474 68.5357 271.474L118.286 261.542" stroke="#5C3BFE" stroke-miterlimit="10"/>
<path d="M159.048 248.426C153.708 230.25 136.375 232.592 136.375 232.592L146.962 230.718L152.584 196.895L158.018 193.147L160.548 215.821L158.861 219.006L163.358 248.894" stroke="#5C3BFE" stroke-miterlimit="10"/>
<path d="M101.426 257.045V252.642L136.373 246.083C136.373 246.083 174.787 250.862 216.48 253.017C217.229 253.017 221.258 253.485 221.258 257.233C221.258 262.573 215.449 264.072 199.709 264.353C189.59 264.447 101.426 257.045 101.426 257.045Z" stroke="#5C3BFE" stroke-miterlimit="10"/>
<path d="M129.85 259.389L124.934 258.968L126.978 262.041L129.85 259.389Z" fill="#5C3BFE"/>
<path d="M101.426 252.642C101.426 252.642 186.03 260.324 192.401 260.512C201.583 260.699 217.417 261.261 218.635 256.296" stroke="#5C3BFE" stroke-miterlimit="10"/>
<path d="M83.5293 241.773C70.9746 241.773 58.982 241.961 52.1424 242.523C44.4597 243.085 42.2111 243.647 26.3771 248.519C23.8474 249.269 24.5033 251.705 26.0961 251.798C39.2129 252.829 49.7065 253.766 56.9207 254.328" stroke="#5C3BFE" stroke-miterlimit="10"/>
<path d="M59.3563 251.518L29.0938 249.363" stroke="#5C3BFE" stroke-miterlimit="10"/>
<path d="M94.3971 258.263C95.5872 258.263 96.552 257.005 96.552 255.452C96.552 253.9 95.5872 252.642 94.3971 252.642C93.207 252.642 92.2422 253.9 92.2422 255.452C92.2422 257.005 93.207 258.263 94.3971 258.263Z" fill="#FF864B"/>
<path d="M85.7799 259.95C86.9701 259.95 87.9348 258.691 87.9348 257.139C87.9348 255.587 86.9701 254.328 85.7799 254.328C84.5898 254.328 83.625 255.587 83.625 257.139C83.625 258.691 84.5898 259.95 85.7799 259.95Z" fill="#FF864B"/>
<path d="M122.411 267.539C124.843 267.539 126.815 265.568 126.815 263.136C126.815 260.704 124.843 258.732 122.411 258.732C119.979 258.732 118.008 260.704 118.008 263.136C118.008 265.568 119.979 267.539 122.411 267.539Z" stroke="#5C3BFE" stroke-miterlimit="10"/>
<path d="M131.31 268.289C133.742 268.289 135.713 266.317 135.713 263.885C135.713 261.453 133.742 259.482 131.31 259.482C128.878 259.482 126.906 261.453 126.906 263.885C126.906 266.317 128.878 268.289 131.31 268.289Z" stroke="#5C3BFE" stroke-miterlimit="10"/>
<path d="M145.928 260.793L133.748 267.633C134.563 267.175 136.15 265.626 135.601 262.88C135.246 261.104 133.588 259.952 132.855 259.586L145.928 260.793Z" fill="#5C3BFE"/>
<path d="M133.503 267.197C133.262 267.332 133.177 267.637 133.312 267.878C133.447 268.119 133.752 268.204 133.993 268.069L133.503 267.197ZM145.928 260.793L146.173 261.229L147.573 260.443L145.974 260.296L145.928 260.793ZM135.601 262.88L136.091 262.782L135.601 262.88ZM132.855 259.586L132.901 259.088C132.662 259.066 132.441 259.217 132.375 259.449C132.309 259.68 132.417 259.926 132.632 260.033L132.855 259.586ZM133.993 268.069L146.173 261.229L145.683 260.358L133.503 267.197L133.993 268.069ZM133.993 268.069C134.945 267.534 136.693 265.793 136.091 262.782L135.111 262.978C135.607 265.459 134.181 266.816 133.503 267.197L133.993 268.069ZM136.091 262.782C135.888 261.768 135.318 260.952 134.725 260.353C134.131 259.753 133.488 259.343 133.079 259.139L132.632 260.033C132.955 260.195 133.507 260.544 134.014 261.056C134.522 261.569 134.958 262.217 135.111 262.978L136.091 262.782ZM132.809 260.084L145.882 261.291L145.974 260.296L132.901 259.088L132.809 260.084Z" fill="#5C3BFE"/>
<path d="M57.5758 253.485C60.7613 254.234 66.1955 253.579 66.1955 253.579L66.5703 259.106C66.5703 259.106 58.7938 261.449 53.8281 258.451" stroke="#5C3BFE" stroke-miterlimit="10"/>
<path d="M117.819 261.843L111.507 262.854L107.497 259.502L100.898 257.548L120.228 258.915L117.819 261.843Z" fill="#5C3BFE"/>
<path d="M60.7893 270.526C55.7685 270.526 50.9441 268.648 50.7381 266.587C50.7381 267.052 50.5005 267.765 50.7392 268.942C51.0376 270.414 53.9127 271.639 55.4806 272.022C56.7349 272.327 62.7449 272.149 64.9756 272.022L73.7939 270.525L114.652 262.221L113.45 259.452C97.3559 262.767 68.3642 270.526 60.7893 270.526Z" fill="#5C3BFE"/>
<circle cx="541.098" cy="112.164" r="3.83595" fill="#5C3BFE"/>
<circle cx="531.186" cy="42.251" r="9.41209" stroke="#FF864B"/>
</g>
<defs>
<clipPath id="clip0_6652_10511">
<rect width="580" height="300" fill="white"/>
</clipPath>
</defs>
</svg>
