<svg width="154" height="136" viewBox="0 0 154 136" fill="none" xmlns="http://www.w3.org/2000/svg">
<path d="M124.575 48.8152C136.455 83.6379 106.001 105.059 81.8989 114.733C48.9075 125.988 26.997 108.265 18.549 83.5027C10.101 58.7402 33.5657 38.8745 66.5571 27.6191C99.5485 16.3637 114.909 20.4833 124.575 48.8152Z" fill="#EEEBFF"/>
<path d="M41.3317 66.8925L15.125 80.3181L104.998 105.253L141.103 92.7856C157.114 85.8914 158.251 51.6622 143.92 47.3425C124.194 41.3968 76.6536 32.8548 61.9068 31.0433C44.952 28.9606 40.376 38.2147 38.4444 46.5852C35.9508 57.3907 39.6572 64.8312 41.3317 66.8925Z" fill="white"/>
<path d="M38.3887 66.9772L10.5664 74.7778L106.279 100.182C106.279 100.182 130.115 93.69 134.964 89.6189C139.813 85.5477 143.237 80.8711 143.447 70.3285C143.658 59.7858 137.748 49.9612 127.002 48.5635" stroke="#5C3BFE"/>
<path d="M125.506 89.2617L46.0818 71.9967C38.5221 69.8842 33.2578 62.6205 33.2578 51.8274C33.2578 40.6726 39.3231 31.6299 46.8049 31.6299C47.6745 31.6299 48.1823 31.7084 49.4159 31.8965L127.595 48.6912L127.806 48.7432" stroke="#5C3BFE"/>
<path d="M138.26 78.8136L138.738 78.9608L138.26 78.8136ZM129.685 54.3418L129.769 53.8489L129.685 54.3418ZM118.456 76.3798L117.999 76.5829L118.456 76.3798ZM130.524 81.461L130.879 81.8131L130.524 81.461ZM128.477 59.7246L128.397 60.2182L128.477 59.7246ZM126.625 75.3875C126.895 75.4442 127.16 75.2711 127.217 75.0009C127.273 74.7306 127.1 74.4656 126.83 74.4088L126.625 75.3875ZM127.537 88.9809C123.803 88.9809 120.355 86.8251 117.821 83.3165C115.288 79.8103 113.703 74.9927 113.703 69.7938H112.703C112.703 75.1868 114.345 80.2127 117.01 83.902C119.673 87.589 123.392 89.9809 127.537 89.9809V88.9809ZM113.703 69.7938C113.703 63.483 115.315 58.3097 117.861 54.7285C120.404 51.151 123.865 49.1714 127.613 49.1714V48.1714C123.481 48.1714 119.738 50.3613 117.046 54.1492C114.356 57.9334 112.703 63.3213 112.703 69.7938H113.703ZM127.537 89.9809C131.326 89.9809 136.288 86.9139 138.738 78.9608L137.782 78.6664C135.42 86.3342 130.761 88.9809 127.537 88.9809V89.9809ZM138.738 78.9608C140.26 74.0211 140.815 68.2649 139.608 63.4822C138.393 58.673 135.374 54.8078 129.769 53.8489L129.6 54.8346C134.722 55.7107 137.495 59.1998 138.638 63.727C139.788 68.2808 139.268 73.8431 137.782 78.6664L138.738 78.9608ZM129.769 53.8489C126.94 53.365 124.56 54.1191 122.656 55.6377C120.766 57.145 119.363 59.3887 118.416 61.8746C117.467 64.3641 116.962 67.1286 116.892 69.7172C116.822 72.2995 117.182 74.7457 117.999 76.5829L118.913 76.1767C118.177 74.5205 117.824 72.2359 117.892 69.7444C117.959 67.2591 118.445 64.6068 119.35 62.2308C120.257 59.8511 121.573 57.7806 123.28 56.4195C124.972 55.0697 127.066 54.4011 129.6 54.8346L129.769 53.8489ZM117.999 76.5829C119.59 80.1624 121.874 82.3792 124.256 83.2476C126.653 84.1217 129.1 83.6061 130.879 81.8131L130.169 81.1089C128.674 82.6158 126.641 83.0529 124.598 82.3081C122.54 81.5576 120.427 79.5839 118.913 76.1767L117.999 76.5829ZM130.879 81.8131C133.733 78.935 135.086 73.6374 134.817 68.9586C134.681 66.6074 134.135 64.3591 133.12 62.6059C132.101 60.8443 130.593 59.5606 128.557 59.231L128.397 60.2182C130.067 60.4885 131.346 61.5366 132.255 63.1067C133.168 64.6852 133.689 66.7683 133.819 69.0161C134.079 73.5353 132.75 78.5061 130.169 81.1089L130.879 81.8131ZM128.557 59.231C126.503 58.8985 124.925 59.713 123.858 61.1139C122.811 62.4883 122.258 64.4142 122.134 66.3699C122.009 68.3304 122.31 70.383 123.036 72.0418C123.759 73.694 124.944 75.0348 126.625 75.3875L126.83 74.4088C125.59 74.1485 124.606 73.1361 123.952 71.6408C123.301 70.1521 123.015 68.2631 123.132 66.4335C123.248 64.5991 123.765 62.8865 124.654 61.7199C125.522 60.5798 126.746 59.9509 128.397 60.2182L128.557 59.231Z" fill="#5C3BFE"/>
<path d="M59.8789 69.3081L107.946 79.2371" stroke="#5C3BFE"/>
<path d="M43 65.6382L56.4169 68.5987" stroke="#5C3BFE"/>
<path d="M116.961 48.8784C115.16 49.6366 109.946 53.5236 109.281 61.2027" stroke="#5C3BFE"/>
</svg>
