<svg width="72" height="72" viewBox="0 0 72 72" fill="none" xmlns="http://www.w3.org/2000/svg">
<g clip-path="url(#clip0_6652_9961)">
<rect width="72" height="72" fill="white"/>
<path d="M0 11.1745C0 8.45988 2.20061 6.25928 4.91519 6.25928H60.8255C63.5401 6.25928 65.7407 8.45989 65.7407 11.1745V67.0848C65.7407 69.7994 63.5401 72 60.8255 72H4.91519C2.20061 72 0 69.7994 0 67.0848V11.1745Z" fill="#EFEBFF"/>
<path d="M5.25781 5.91519C5.25781 3.20061 7.45842 1 10.173 1H66.0834C68.7979 1 70.9986 3.20061 70.9986 5.9152V61.8255C70.9986 64.5401 68.7979 66.7407 66.0834 66.7407H10.173C7.45842 66.7407 5.25781 64.5401 5.25781 61.8255V5.91519Z" stroke="#5C3BFE"/>
<path d="M23.6641 46.7721C25.2064 41.9672 26.6894 37.3996 28.113 32.8319C29.1808 29.4507 30.2485 26.0695 31.3163 22.6883C31.7909 21.0866 31.5536 21.3239 33.2739 21.3239C34.6382 21.3239 36.0026 21.3239 37.4856 21.3239C37.6042 21.3239 37.7228 21.3832 37.7822 21.5019C40.5109 29.866 43.1803 38.1707 45.9683 46.7128C44.426 46.7128 43.0616 46.7721 41.7566 46.6534C41.4007 46.6534 41.1634 46.7128 40.9261 46.1789C40.2736 44.5179 39.6211 42.3824 39.0872 40.6621C38.8499 39.7724 38.8499 39.5351 37.8415 39.5351C36.0619 39.4758 33.4518 39.4758 31.5536 39.5351C30.6045 39.5944 30.6045 39.713 30.3672 40.5435C29.8926 42.2638 29.1215 44.6366 28.5283 46.3568C28.3503 46.7721 28.0537 46.7128 27.5198 46.7128C26.3335 46.8314 25.1471 46.7721 23.6641 46.7721ZM34.6382 25.2983C33.5705 28.9762 32.562 32.4167 31.5536 35.9166C33.6891 35.9166 35.706 35.9166 37.8415 35.9166C36.7737 32.4167 35.706 28.9762 34.6382 25.2983Z" fill="#5C3BFE"/>
<path d="M47.8711 46.6528C47.8711 40.6022 47.8711 34.6109 47.8711 28.501C49.4134 28.501 50.8371 28.501 52.3794 28.501C52.3794 34.5516 52.3794 40.5429 52.3794 46.6528C50.8964 46.6528 49.4134 46.6528 47.8711 46.6528Z" fill="#5C3BFE"/>
<path d="M50.2384 25.714C48.6961 25.7733 47.6284 24.8242 47.569 23.4006C47.5097 21.9176 48.4588 20.8498 49.9418 20.7312C51.4841 20.6125 52.6705 21.6803 52.6705 23.1633C52.7892 24.6463 51.7807 25.6547 50.2384 25.714Z" fill="#5C3BFE"/>
</g>
<defs>
<clipPath id="clip0_6652_9961">
<rect width="72" height="72" fill="white"/>
</clipPath>
</defs>
</svg>
