<svg width="161" height="160" viewBox="0 0 161 160" fill="none" xmlns="http://www.w3.org/2000/svg">
<g clip-path="url(#clip0_6652_9902)">
<path d="M34.0508 134.253C14.4633 118.929 18.0285 96.0016 21.876 88.7825C32.0143 69.7594 38.9417 81.1822 55.9231 75.0364C72.9045 68.8906 88.0061 31.2732 111.691 30.1934C152.071 28.3526 167.294 82.754 126.963 124.049C96.1941 155.553 56.3941 151.734 34.0508 134.253Z" fill="white"/>
<path d="M33.4577 42.7943L28.5703 58.7381L62.518 136.915L125.521 107.598L127.835 96.0262L91.9509 15.2692L33.4577 42.7943Z" fill="#FECB2F"/>
<path d="M68.6914 118.5L131.191 90.5L129.191 101.5L66.6914 129L68.6914 118.5Z" fill="white"/>
<path d="M66.515 129.284L129.437 101.101L131.587 90.443" stroke="#FECB2F"/>
<path d="M68.8188 118.531L68.593 118.633L68.5379 118.875L66.3575 128.445L29.5774 47.3657L31.995 36.7543L94.2355 8.52016L131.285 90.1942L68.8188 118.531Z" fill="white" stroke="#FECB2F"/>
<path d="M31.8594 37.0568L68.6532 118.167" stroke="#FECB2F"/>
<path d="M85.8047 114.067L125.786 95.9298" stroke="#FECB2F"/>
<path d="M70.9258 124.2L104.681 108.888" stroke="#FECB2F"/>
<path d="M55.2109 62.7141L46.3516 44.3066L88.6188 24.8765L97.8731 44.3652L55.2109 62.7141Z" fill="#FECB2F" stroke="#FECB2F" stroke-linecap="round"/>
<path d="M68.4297 68.542L92.9688 57.4807" stroke="#FECB2F" stroke-linecap="round"/>
<path d="M70.9258 73.7754L95.4648 62.7141" stroke="#FECB2F" stroke-linecap="round"/>
</g>
<defs>
<clipPath id="clip0_6652_9902">
<rect width="160" height="160" fill="white" transform="translate(0.5)"/>
</clipPath>
</defs>
</svg>
