<svg width="142" height="125" viewBox="0 0 142 125" fill="none" xmlns="http://www.w3.org/2000/svg">
<path d="M6.40625 36.9C6.4059 12.0303 19.1016 2.69475 27.1897 1.46921C50.9954 -2.13791 58.1448 7.47363 72.7941 18.0347C90.7985 31.0146 118.847 24.5709 133.092 43.5248C157.376 75.8385 124.234 117.112 67.3897 107.08C24.0236 99.4273 6.40667 66.6642 6.40625 36.9Z" fill="white"/>
<path d="M80.1607 116.85L78.3223 83.588C78.3223 74.2816 78.321 73.9212 78.3211 69.9579C78.3212 63.996 57.8934 57.8671 44.4589 54.8249C34.9112 52.663 24.2796 50.0855 19.2021 49.3329C14.1245 48.5802 11.6543 54.7176 12.2286 60.7238L16.234 94.7355L80.1607 116.85Z" fill="#33A06A"/>
<path d="M97.2923 38.7836L30.3164 15.6143C33.1485 27.2404 40.1186 51.7349 40.1186 57.2071C40.1186 63.9917 35.3608 67.0844 30.654 67.0844L94.9293 89.3195C105.39 88.0522 104.804 79.4452 103.668 71.0498L97.2923 38.7836Z" fill="#33A06A"/>
<path d="M85.2979 123.816L83.4595 90.5541L34.7018 73.6871C29.0676 71.738 30.7852 67.5312 30.527 64.7138C30.6571 61.6116 29.4169 57.0516 24.3393 56.299C19.2617 55.5463 16.7915 61.6837 17.3658 67.6899L21.3712 101.702L85.2979 123.816Z" fill="white" stroke="#33A06A"/>
<path d="M102.433 45.7498L35.457 22.5804C38.2891 34.2066 45.2592 58.7011 45.2592 64.1732C45.2592 70.9579 40.5014 74.0506 35.7947 74.0506L100.07 96.2857C110.531 95.0184 109.944 86.4114 108.809 78.016L102.433 45.7498Z" fill="white" stroke="#33A06A"/>
<path d="M43.5586 30.6062L96.0308 48.7582" stroke="#33A06A"/>
<path d="M45.9375 38.8271L98.4097 56.9792" stroke="#33A06A"/>
<path d="M47.9141 48.2145L99.9976 66.232" stroke="#33A06A"/>
<path d="M49.875 58.9021L102.347 77.0541" stroke="#33A06A"/>
<path d="M49.1133 68.6488L101.586 86.8008" stroke="#33A06A"/>
<path d="M24.7031 76.3068L77.1754 94.4588" stroke="#33A06A"/>
<path d="M25.0195 82.944L77.1031 100.962" stroke="#33A06A"/>
<path d="M27.0078 91.0305L79.4801 109.183" stroke="#33A06A"/>
<path d="M25.0586 56.4106L45.2701 63.4025" stroke="#33A06A"/>
</svg>
