<svg width="372" height="201" viewBox="0 0 372 201" fill="none" xmlns="http://www.w3.org/2000/svg">
<rect y="20" width="372" height="181" fill="#EFEBFF"/>
<path d="M352.671 141.871H209.531" stroke="#5C3BFE"/>
<path d="M34.3848 141.871H8.39844" stroke="#5C3BFE"/>
<path d="M251.948 70.4516L246.525 66.7018C245.264 65.8299 244.863 64.1474 245.595 62.8006L253.842 47.6409L275.061 37.1535V30.4788L273.472 28.8908V17.9258H300.961V24.1221H298.737V30.4788L295.241 33.1806L297.783 35.0875L313.197 41.2848L327.815 56.8573V60.8303L320.168 73.0859C319.276 74.5163 317.38 74.9305 315.972 74.0026L311.549 71.0871L305.728 100.814H290.105V123.184H310.876L314.858 161.356C315.043 163.126 313.655 164.667 311.875 164.667H259.522C257.773 164.667 256.394 163.176 256.532 161.431L259.015 129.98L262.26 123.691L280.821 123.184V101.073H268.447L266.115 93.1618L259.928 66.5881L255.597 70.2696C254.562 71.1495 253.065 71.2241 251.948 70.4516Z" fill="white"/>
<path d="M271.596 35.5322L252.878 44.8666C251.044 45.7814 249.576 47.2952 248.719 49.1574L242.05 63.6455C241.443 64.9659 241.869 66.532 243.062 67.3623L250.071 72.2402C251.355 73.134 253.111 72.8906 254.104 71.6812L257.772 67.2127" stroke="#5C3BFE"/>
<rect x="277.66" y="102.208" width="10.0321" height="20.7399" stroke="#5C3BFE"/>
<path d="M282.571 122.948H260.901C258.838 122.948 257.113 124.518 256.919 126.572L253.51 162.618C253.288 164.965 255.135 166.994 257.493 166.994H282.571H307.65C310.008 166.994 311.854 164.965 311.632 162.618L308.224 126.572C308.03 124.518 306.305 122.948 304.242 122.948H282.571Z" stroke="#5C3BFE"/>
<path d="M264.855 65.7305C266.411 66.1453 271.284 66.9335 278.334 66.7676" stroke="#5C3BFE"/>
<path d="M257.445 63.2984C258.927 80.039 265.865 102.206 265.865 102.206H302.812L310.745 56.8936" stroke="#5C3BFE"/>
<path d="M271.401 35.9928V31.4096C271.401 31.4055 271.398 31.4023 271.393 31.4023V31.4023C270.126 31.4023 269.098 30.3746 269.098 29.107V22.4341C269.098 22.4183 269.085 22.4054 269.07 22.4054H268.03C267.439 22.4054 266.961 21.927 266.961 21.3368V17.72C266.961 17.1641 267.412 16.7134 267.967 16.7134V16.7134C268.57 16.7134 269.044 16.1876 269.016 15.5862C268.93 13.7786 268.952 10.124 270.195 7.06307C271.762 3.20154 274.898 1.02411 282.235 1.02344C288.65 1.02344 292.677 2.44808 294.777 8.40308C295.5 10.4514 295.506 13.2921 295.418 15.0653C295.375 15.9447 296.065 16.7134 296.946 16.7134V16.7134C297.757 16.7134 298.414 17.371 298.414 18.1822V20.8434C298.414 21.7061 297.715 22.4054 296.852 22.4054H295.319C295.303 22.4054 295.29 22.4183 295.29 22.4341V28.4521C295.29 30.0814 293.97 31.4023 292.34 31.4023V31.4023C292.335 31.4023 292.331 31.4065 292.331 31.4117V33.5433C292.331 34.3581 292.825 35.0914 293.58 35.3972L307.784 41.1466C308.955 41.6208 310.013 42.3363 310.89 43.2466L324.374 57.2511C325.331 58.2446 325.487 59.7623 324.752 60.9296L319.308 69.5811C318.331 71.1337 316.202 71.4538 314.812 70.257L309.56 65.7363" stroke="#5C3BFE"/>
<path d="M271.191 31.4072L286.042 31.4072" stroke="#5C3BFE"/>
<path d="M276.148 154.385L310.899 154.385" stroke="#5C3BFE"/>
<path d="M269.609 159.353H311.166" stroke="#5C3BFE"/>
<path d="M295.213 15.767C291.492 14.2752 290.858 10.6468 289.973 6.57708C288.642 8.12997 285.232 8.8184 282.483 8.8184C279.733 8.8184 275.355 6.8455 275.084 4.94727C275.283 7.49252 274.351 13.0948 269.035 15.1418" stroke="#5C3BFE"/>
<path d="M282.292 50.8828C281.66 55.942 280.584 66.2879 281.343 67.1982C282.103 68.1086 292.663 67.5776 297.848 67.1982" stroke="#5C3BFE"/>
<path d="M280.965 71.1816C280.965 76.5566 280.965 88.7484 280.965 94.5156" stroke="#5C3BFE"/>
<path d="M282.774 22.79C281.386 22.79 280.459 22.79 280.17 22.79V15.7666H274.461" stroke="#5C3BFE"/>
<path d="M284.312 15.7656H289.545" stroke="#5C3BFE"/>
<path d="M42.7123 51.9868C42.71 36.9739 58.5372 30.0427 67.2587 25.303C80.5017 21.4076 91.8478 24.7735 96.8607 28.8071C114.563 43.0513 108.408 47.1057 151.629 50.5185C179.023 52.6816 196.857 81.3472 199.105 85.5389C205.381 97.2382 224.92 157.398 200.899 165.193C178.318 172.52 176.025 176.797 120.294 177.934C64.5619 179.072 42.7123 163.449 30.7733 148.663C18.8342 133.878 30.204 95.7753 34.7535 88.3824C39.3031 80.9894 42.7152 70.7529 42.7123 51.9868Z" fill="white"/>
<path d="M53.0131 48.4097C53.0108 33.3968 68.838 26.4655 77.5595 21.7258C90.8025 17.8304 102.149 21.1963 107.161 25.23C124.864 39.4742 118.709 43.5285 161.93 46.9413C189.323 49.1044 207.157 77.7701 209.406 81.9618C215.682 93.6611 234.428 154.754 209.406 158.166C184.383 161.578 186.658 171.815 130.927 172.952C75.1949 174.09 53.0131 159.872 41.0741 145.086C29.135 130.3 40.5048 92.1982 45.0543 84.8052C49.6039 77.4122 53.016 67.1758 53.0131 48.4097Z" stroke="#5C3BFE"/>
<path d="M73.207 81.7998C80.1981 86.9496 104.259 97.9849 144.573 100.928" stroke="#5C3BFE"/>
<path d="M167.549 99.7375C170.391 98.9798 172.519 102.105 173.228 103.763H176.777C180.565 103.763 186.072 105.011 188.163 106.115C190.366 107.278 190.579 108.592 191.811 107.077C193.349 105.183 195.954 105.893 196.664 108.971C197.232 111.433 195.322 112.838 194.296 113.232C194.849 116.152 195.835 123.105 195.362 127.556C194.888 132.007 192.797 134.303 191.811 134.895C195.756 137.499 203.861 143.655 204.713 147.443C205.779 152.178 201.543 153.181 199.737 153.181C197.619 153.181 195.599 150.284 195.954 151.941C196.309 153.598 195.717 158.57 196.664 159.043C197.611 159.517 199.623 162.595 200.452 165.909C201.281 169.224 197.966 176.8 191.811 176.089C186.886 175.521 186.286 173.564 186.602 172.656C186.799 172.42 186.578 172.088 184.116 172.656C181.654 173.225 177.014 173.603 175.001 173.722C173.699 175.024 169.604 177.32 163.64 176.089C156.185 174.55 153.339 168.868 152.984 164.252C152.707 160.656 154.278 158.04 155.163 157.103C153.232 159.07 148.881 161.708 146.355 157.031C143.159 151.112 148.131 146.614 150.617 142.708C152.606 139.583 159.653 136.197 162.928 134.895C160.798 133.08 156.537 128.1 156.537 122.702C156.537 117.656 161.297 112.933 162.689 111.314C162.532 110.832 162.305 110.085 161.984 108.971C160.208 102.815 163.996 100.685 167.549 99.7375Z" fill="white"/>
<path d="M173.375 103.899C173.125 102.384 171.598 99.1955 167.625 99.5054C162.66 99.8928 160.061 103.307 160.604 106.915C161.038 109.802 162.336 110.911 162.931 111.105C161.427 113.33 159.148 114.796 156.824 121.99C154.806 128.233 160.604 134.011 162.003 135.067C158.33 136.515 153.167 139.066 149.143 144.18C145.981 148.197 142.728 154.529 147.171 157.672C151.614 160.814 155.091 157.514 158.197 153.613C160.682 150.492 162.621 146.058 162.931 144.18" stroke="#5C3BFE" stroke-linejoin="round"/>
<path d="M196.02 112.528C196.934 111.992 198 108.794 195.148 106.801C192.296 104.807 190.017 107.228 189.653 107.41C187.803 105.347 180.544 101.526 170.969 104.344" stroke="#5C3BFE" stroke-linejoin="round"/>
<path d="M183.855 137.227C186.787 137.17 193.203 135.917 195.409 131.365C198.167 125.675 196.79 114.295 195.409 111.881" stroke="#5C3BFE" stroke-linejoin="round"/>
<ellipse rx="1.57917" ry="2.10249" transform="matrix(0.998431 0.0559974 -0.069694 0.997568 170.969 118.897)" fill="#5C3BFE"/>
<ellipse rx="1.57917" ry="2.10249" transform="matrix(0.998431 0.0559974 -0.069694 0.997568 189 120.907)" fill="#5C3BFE"/>
<ellipse cx="179.483" cy="127.716" rx="8.27816" ry="4.10381" transform="rotate(5.13407 179.483 127.716)" fill="#FF864B"/>
<ellipse cx="180.04" cy="125.707" rx="2.73912" ry="1.53814" transform="rotate(4.10304 180.04 125.707)" fill="#5C3BFE"/>
<path d="M190.461 135.708C192.95 138.817 196.423 145.416 197.176 151.275C197.668 155.098 197.451 156.521 197.176 158.001" stroke="#5C3BFE" stroke-linejoin="round"/>
<path d="M151.022 158.958C150.668 161.563 150.09 167.038 153.627 171.099C156.514 174.416 158.528 174.838 158.881 175.029" stroke="#5C3BFE" stroke-linejoin="round"/>
<path d="M168.31 106.812C168.042 104.658 165.399 103.266 164.441 104.844" stroke="#5C3BFE" stroke-linejoin="round"/>
<path d="M191.342 110.686C191.562 109.333 193.736 108.458 194.523 109.45" stroke="#5C3BFE" stroke-linejoin="round"/>
<ellipse cx="179.482" cy="157.547" rx="10.1498" ry="14.7262" fill="#FF864B"/>
<path d="M173.513 166.622C175.025 172.504 172.381 178.067 167.874 179.225C163.367 180.383 158.368 176.785 156.856 170.903C155.345 165.022 157.989 159.459 162.496 158.3C167.003 157.142 172.002 160.741 173.513 166.622Z" fill="white" stroke="#5C3BFE" stroke-linejoin="round"/>
<path d="M202.44 169.912C200.935 175.796 195.94 179.4 191.432 178.247C186.924 177.094 184.273 171.534 185.778 165.651C187.282 159.768 192.277 156.163 196.785 157.316C201.294 158.469 203.944 164.029 202.44 169.912Z" fill="white" stroke="#5C3BFE" stroke-linejoin="round"/>
<path d="M171.922 175.666C171.922 175.666 179.813 176.23 186.738 173.809" stroke="#5C3BFE" stroke-linejoin="round"/>
<path d="M191.875 134.806C196.782 137.112 206.846 143.968 205.61 149.326C204.375 154.685 199.355 154.258 197 153.375" stroke="#5C3BFE" stroke-linejoin="round"/>
<path d="M45.5979 130C40.8111 141.232 64.212 170.368 135.874 161.72" stroke="#5C3BFE"/>
</svg>
