<svg width="161" height="160" viewBox="0 0 161 160" fill="none" xmlns="http://www.w3.org/2000/svg">
<path d="M115.468 77.1703C114.1 113.938 77.9971 123.043 52.0298 123.451C17.1954 122.154 3.07817 97.7645 4.05108 71.6186C5.02399 45.4728 34.0438 35.3197 68.8783 36.6159C103.713 37.9121 116.582 47.2557 115.468 77.1703Z" fill="#EEEBFF"/>
<ellipse cx="127.343" cy="79.9995" rx="8.13243" ry="13.9365" fill="white"/>
<path d="M64.4149 107.544C53.283 97.1636 42.6242 86.3795 38.3001 82.277C23.7415 63.5486 35.6276 50.4654 43.1643 46.2801C55.8162 39.2545 69.476 41.3789 80.0403 53.4075C91.639 38.1937 108.467 33.9266 121.119 40.9523C138.654 50.6891 142.183 68.5106 130.102 86.5353C128.032 89.9843 119.958 97.9621 113.033 103.089C109.581 105.645 103.24 111.253 93.2073 115.803C89.1207 117.656 84.3277 119.242 79.96 119.659C83.4633 120.513 77.1151 119.93 79.96 119.659C76.4567 118.804 74.1917 115.139 64.4149 107.544Z" fill="white"/>
<path d="M74.1668 74.7441L74.5764 74.4573C74.4788 74.3179 74.3169 74.2377 74.1468 74.2445L74.1668 74.7441ZM94.1987 80.2848L94.4396 80.7229C94.5681 80.6523 94.6591 80.5288 94.6885 80.3851C94.7179 80.2415 94.6828 80.0921 94.5924 79.9767L94.1987 80.2848ZM39.0816 83.3382L38.7306 83.6944L39.0816 83.3382ZM88.4123 72.8911L88.0186 73.1993L88.4123 72.8911ZM84.2645 68.4226L84.6011 68.0529L84.2645 68.4226ZM67.5876 53.2424L67.9242 52.8726L67.5876 53.2424ZM39.3035 53.5921L39.6491 53.9534L39.6491 53.9534L39.3035 53.5921ZM73.7571 75.0308C74.8132 76.5395 77.7691 79.1501 81.5316 80.7962C85.3074 82.4481 89.9927 83.1687 94.4396 80.7229L93.9577 79.8467C89.8804 82.0892 85.5443 81.4602 81.9324 79.88C78.3073 78.294 75.5093 75.7901 74.5764 74.4573L73.7571 75.0308ZM38.7306 83.6944L52.9314 97.6894L53.6334 96.9771L39.4325 82.9821L38.7306 83.6944ZM94.5924 79.9767L88.8061 72.583L88.0186 73.1993L93.8049 80.593L94.5924 79.9767ZM84.6011 68.0529L67.9242 52.8726L67.2511 53.6121L83.928 68.7924L84.6011 68.0529ZM88.8061 72.583C87.534 70.9576 86.1274 69.4422 84.6011 68.0529L83.928 68.7924C85.4128 70.1439 86.7811 71.6181 88.0186 73.1993L88.8061 72.583ZM38.9579 53.2308C30.3073 61.5053 30.2044 75.2917 38.7306 83.6944L39.4325 82.9821C31.3079 74.9753 31.4059 61.8382 39.6491 53.9534L38.9579 53.2308ZM39.6491 53.9534C47.3311 46.6054 59.3897 46.4563 67.2511 53.6121L67.9242 52.8726C59.6743 45.3631 47.0196 45.5196 38.9579 53.2308L39.6491 53.9534ZM74.1468 74.2445C72.4189 74.3136 69.644 74.1051 66.9771 73.2554C64.3027 72.4034 61.8188 70.934 60.543 68.5418L59.6606 69.0124C61.1125 71.7347 63.8852 73.3199 66.6735 74.2082C69.4692 75.0989 72.3628 75.3166 74.1867 75.2437L74.1468 74.2445Z" fill="#5C3BFE"/>
<path d="M78.0039 62.81L85.6673 54.8778C94.7506 45.4757 109.825 45.4955 118.883 54.9214V54.9214C127.298 63.6773 127.482 77.4582 119.303 86.4351L111.563 94.9308C110.573 96.0177 109.681 97.1902 108.897 98.4345L105.672 103.557M103.207 94.1128L103.993 91.5843" stroke="#5C3BFE"/>
<path d="M89.9116 81.5321C88.4954 80.8884 85.8102 78.7463 84.5742 75.9653L87.6022 74.3589" stroke="#5C3BFE" stroke-linecap="square"/>
<path d="M74.2512 84.8635C66.5055 91.8765 56.6739 106.949 53.1064 100.669C50.4846 96.0537 65.7267 78.2449 68.504 74.2915" stroke="#5C3BFE"/>
<path d="M81.0101 91.099C72.484 101.806 60.8006 114.551 56.4465 109.595C55.4993 108.517 56.9173 104.469 60.014 99.743" stroke="#5C3BFE"/>
<path d="M87.3316 97.665C79.6067 107.192 65.7732 122.22 62.3817 118.343C61.6732 117.533 60.8886 114.571 64.0184 108.674" stroke="#5C3BFE"/>
<path d="M102.883 97.7969C93.1499 104.875 75.5649 126.273 72.1734 122.396C71.4649 121.586 70.5285 118.485 73.6583 112.588" stroke="#5C3BFE"/>
<path d="M94.8488 95.2883C96.8555 99.5902 96.8675 106.575 96.0314 108.487C97.5689 109.63 102.417 110.312 105.097 105.221C107.547 100.565 104.01 94.5611 100.849 91.6435C97.6879 88.7258 92.3403 89.9109 94.8488 95.2883Z" fill="white" stroke="#5C3BFE"/>
<path d="M85.9545 99.5289C88.1313 104.389 88.1443 112.281 87.2373 114.442C88.9051 115.733 94.1643 116.503 97.0707 110.751C99.7284 105.491 95.8912 98.7073 92.4627 95.4109C89.0342 92.1144 83.2336 93.4534 85.9545 99.5289Z" fill="white" stroke="#5C3BFE"/>
<path d="M78.6534 106.095C80.6602 110.397 80.6722 117.382 79.8361 119.295C81.3736 120.437 86.2221 121.119 88.9016 116.028C91.3518 111.372 87.8142 105.368 84.6534 102.451C81.4926 99.5329 76.145 100.718 78.6534 106.095Z" fill="white" stroke="#5C3BFE"/>
<path d="M85.7969 94.9531L88.6532 99.7126C89.5872 99.7126 90.6151 99.7126 92.5966 97.8521" stroke="#5C3BFE"/>
<path d="M94.5547 91.0991L97.3681 95.7872C98.2882 95.7872 99.3006 95.7872 101.252 93.9546" stroke="#5C3BFE"/>
<path d="M78.3867 102.166L81.2695 106.969C82.2122 106.969 83.2495 106.969 85.2494 105.091" stroke="#5C3BFE"/>
<path d="M57.4883 108.645L60.6216 104.365C61.7616 104.945 64.1834 106.468 64.7511 107.913" stroke="#5C3BFE"/>
<path d="M53.7109 99.2331L56.8443 94.9531C57.9842 95.5338 60.406 97.0563 60.9737 98.5014" stroke="#5C3BFE"/>
<path d="M62.8203 116.044L65.9536 111.764C67.0936 112.345 69.5154 113.867 70.0831 115.312" stroke="#5C3BFE"/>
<path d="M72.6094 120.124L75.4209 116.283C76.4437 116.804 78.6168 118.17 79.1262 119.467" stroke="#5C3BFE"/>
</svg>
