<svg width="454" height="413" viewBox="0 0 454 413" fill="none" xmlns="http://www.w3.org/2000/svg">
<rect width="454" height="413" fill="white"/>
<circle cx="79.1154" cy="183.288" r="53.881" stroke="#EFEBFF" stroke-width="6"/>
<mask id="mask0_6652_10712" style="mask-type:alpha" maskUnits="userSpaceOnUse" x="54" y="8" width="368" height="403">
<path d="M371.621 154C357.236 147.234 341.855 132.335 351.682 76.9139C360.621 26.5 301.959 -1.2394 259.121 11C245.121 15 208.847 23.6773 152.992 134.198C118.549 202.353 63.8624 209.068 54.3555 308.893C59.224 367.373 101.122 410.5 186.622 410.5C304.122 410.5 407.452 331.275 419.621 236.5C425.772 205.035 414.121 164.5 371.621 154Z" fill="#EDEDED"/>
</mask>
<g mask="url(#mask0_6652_10712)">
<rect x="4.62109" y="-33" width="482" height="478" fill="#DED8FF"/>
<path d="M283.349 230.25C295.609 213.057 301.563 194.983 301.563 175C301.563 154.93 295.932 135.957 284.825 118.604C275.179 103.532 261.826 90.3832 245.061 79.4204C267.707 60.6217 277.145 49.2529 283.345 40.5594C295.606 23.3658 301.559 5.29568 301.559 -14.687C301.559 -34.7569 295.928 -53.734 284.821 -71.0869C273.714 -88.4399 257.674 -103.266 237.172 -115.105C237.045 -115.178 236.919 -115.247 236.792 -115.31C236.663 -115.374 236.534 -115.435 236.413 -115.488L236.166 -115.583C235.72 -115.747 235.257 -115.86 234.785 -115.921C234.514 -115.956 234.242 -115.973 233.969 -115.974C233.696 -115.973 233.424 -115.956 233.153 -115.921C232.682 -115.859 232.219 -115.745 231.772 -115.583L231.525 -115.488C231.392 -115.435 231.263 -115.374 231.146 -115.31C231.028 -115.245 230.884 -115.177 230.766 -115.105C210.275 -103.254 194.231 -88.4399 183.117 -71.0869C172.002 -53.734 166.379 -34.7569 166.379 -14.687C166.379 5.29568 172.336 23.3658 184.593 40.5594C190.793 49.2529 200.231 60.6217 222.877 79.4204C206.112 90.3832 192.759 103.532 183.113 118.604C172.006 135.957 166.375 154.93 166.375 175C166.375 194.983 172.332 213.057 184.589 230.25C190.79 238.944 200.227 250.309 222.873 269.108C206.109 280.07 192.755 293.219 183.109 308.291C172.002 325.644 166.371 344.621 166.371 364.691C166.371 384.674 172.329 402.744 184.585 419.937C191.393 429.485 202.102 442.246 229.901 464.532L229.95 464.57C230.026 464.631 230.098 464.688 230.178 464.745C230.258 464.802 230.33 464.855 230.406 464.904L230.645 465.056C230.751 465.12 230.854 465.177 230.96 465.234L231.169 465.34C232.047 465.766 233.011 465.987 233.988 465.986C234.102 465.986 234.219 465.986 234.333 465.986C234.447 465.986 234.531 465.986 234.626 465.963C234.72 465.94 234.906 465.932 235.047 465.91C235.187 465.887 235.274 465.868 235.384 465.841L235.639 465.781C235.707 465.766 235.774 465.747 235.84 465.724L236.113 465.636L236.405 465.526C236.5 465.488 236.599 465.447 236.694 465.401C237.167 465.183 237.612 464.908 238.018 464.582L238.094 464.521C265.874 442.25 276.579 429.492 283.383 419.949C295.644 402.755 301.597 384.685 301.597 364.702C301.597 344.633 295.966 325.655 284.859 308.303C275.213 293.23 261.86 280.082 245.095 269.119C267.711 250.309 277.148 238.944 283.349 230.25ZM195.055 33.0687C184.263 17.9319 179.235 2.75705 179.235 -14.687C179.235 -32.2524 184.168 -48.8882 193.935 -64.1313C203.346 -78.8318 216.794 -91.5667 233.95 -102.029C251.102 -91.5667 264.554 -78.8318 273.965 -64.1313C283.721 -48.8882 288.665 -32.2562 288.665 -14.687C288.665 2.76843 283.637 17.947 272.845 33.0687C262.626 47.4011 247.801 60.5876 233.95 71.8653C220.103 60.5876 205.274 47.4011 195.055 33.0687ZM273.965 315.251C283.721 330.494 288.665 347.126 288.665 364.695C288.665 382.15 283.637 397.329 272.845 412.451C262.626 426.783 247.801 439.969 233.95 451.247C220.103 439.969 205.274 426.783 195.055 412.451C184.263 397.314 179.235 382.139 179.235 364.695C179.235 347.129 184.168 330.494 193.935 315.251C203.346 300.55 216.794 287.815 233.95 277.353C251.102 287.811 264.554 300.546 273.965 315.251ZM233.95 261.556C220.103 250.279 205.274 237.092 195.055 222.76C184.263 207.619 179.235 192.444 179.235 175C179.235 157.439 184.168 140.803 193.935 125.56C203.346 110.859 216.794 98.1243 233.95 87.6624C251.106 98.1243 264.554 110.859 273.965 125.56C283.721 140.803 288.665 157.435 288.665 175C288.665 192.456 283.637 207.634 272.845 222.76C262.626 237.081 247.797 250.279 233.95 261.556Z" fill="#EFEBFF"/>
<path d="M287.274 21.2294H180.625" stroke="#1D1D1B" stroke-miterlimit="10"/>
<path d="M271.852 44.8473H196.039" stroke="#1D1D1B" stroke-miterlimit="10"/>
<path d="M275.531 116.445H192.367" stroke="#1D1D1B" stroke-miterlimit="10"/>
<path d="M288.557 140.063H179.328" stroke="#1D1D1B" stroke-miterlimit="10"/>
<path d="M294.453 163.681H173.445" stroke="#1D1D1B" stroke-miterlimit="10"/>
<path d="M294.283 187.299H173.621" stroke="#1D1D1B" stroke-miterlimit="10"/>
<path d="M287.274 210.917H180.625" stroke="#1D1D1B" stroke-miterlimit="10"/>
<path d="M271.852 234.534H196.039" stroke="#1D1D1B" stroke-miterlimit="10"/>
<path d="M275.531 306.136H192.367" stroke="#1D1D1B" stroke-miterlimit="10"/>
<path d="M288.557 329.754H179.328" stroke="#1D1D1B" stroke-miterlimit="10"/>
<path d="M294.453 353.372H173.445" stroke="#1D1D1B" stroke-miterlimit="10"/>
<path d="M294.283 376.99H173.621" stroke="#1D1D1B" stroke-miterlimit="10"/>
<path d="M287.274 400.608H180.625" stroke="#1D1D1B" stroke-miterlimit="10"/>
</g>
<path d="M318.752 180.135L318.65 176.083C318.481 175.229 318.219 174.395 317.868 173.598C314.943 166.854 306.007 161.949 295.437 161.949C290.938 161.911 288.946 160.253 284.201 160.253L282.618 160.253L274.145 161.609L198.227 199.99C197.522 200.324 196.947 200.88 196.589 201.573C196.231 202.267 196.11 203.058 196.246 203.826L210.3 284.036C210.353 284.336 210.472 284.62 210.649 284.869C210.825 285.117 211.055 285.323 211.32 285.473C211.586 285.622 211.882 285.71 212.186 285.731C212.489 285.753 212.794 285.706 213.078 285.595L245.475 272.885L219.265 342.275C219.066 342.804 218.997 343.373 219.066 343.934C219.134 344.495 219.338 345.031 219.659 345.496C219.98 345.961 220.409 346.341 220.909 346.603C221.409 346.866 221.966 347.003 222.531 347.003H313.066C313.984 347.003 314.864 346.642 315.517 345.997C316.17 345.353 316.543 344.477 316.555 343.559L318.884 185.338L318.752 180.135ZM258.525 238.337L248.227 219.864C247.963 219.389 247.889 218.833 248.019 218.306C248.15 217.779 248.475 217.321 248.929 217.024L272.334 201.791L258.525 238.337Z" fill="#33A06A"/>
<path d="M271.121 186.5L234.121 213.5L251.621 257.5" stroke="#1D1D1B"/>
<path d="M306.621 181.5V188.5L312.621 192.5L295.121 337" stroke="#1D1D1B"/>
<path d="M357.803 120.435L318.82 142.823L318.514 176.183L281.599 167.71C281.569 167.154 280.732 160.504 279.349 155.721C278.145 151.685 277.195 147.576 276.505 143.42C271.631 149.465 265.353 155.669 258.798 157.909C257.625 158.318 256.408 158.588 255.172 158.714C255.085 158.714 254.994 158.714 254.907 158.733L254.454 158.755H254.076C251.492 158.755 248.931 158.12 247.08 156.923C235.852 149.662 220.726 117.334 220.726 117.334C217.56 116.068 218.032 117.05 214.451 117.488C211.659 117.832 208.546 112.615 214.504 109.846C219.506 107.522 224.379 111.806 224.379 111.806L252.198 133.314C255.553 126.782 261.692 116.072 267.627 112.131C273.35 108.331 278.703 109.781 280.437 110.424L306.538 111.837C308.121 110.032 310.149 108.672 312.42 107.892C320.565 103.914 335.676 101.421 343.421 100.336C337.909 92.7541 331.936 82.7387 324.237 79.7957L324.173 79.7692L314.679 79.4972C314.063 79.4793 313.465 79.2836 312.958 78.9337C312.451 78.5838 312.055 78.0946 311.819 77.5251C311.773 77.3538 311.738 77.1796 311.714 77.0038C311.57 75.6928 312.322 75.1714 313.036 75.0014C314.379 74.635 315.769 74.4695 317.161 74.5103C323.289 74.4498 326.413 75.0883 326.413 75.0883C330.042 75.0451 333.648 75.6753 337.047 76.9471C345.736 80.3473 366.057 93.079 368.433 101.727C371.554 110.344 361.875 118.1 357.803 120.435Z" fill="#5C3BFE"/>
<path d="M284.426 114.891L293.742 121.102V137.922" stroke="#1D1D1B"/>
<path d="M318.586 134.558L364.648 109.974L365.943 104.798" stroke="#1D1D1B"/>
<path d="M307.384 100.822C305.064 102.486 301.982 102.596 298.89 101.431L300.108 115.854L289.529 114.659V94.0196C288.156 93.7516 286.854 93.1936 285.709 92.3823C283.231 90.7222 281.769 88.5517 282.44 87.5307C283.055 86.6005 285.244 86.956 287.512 88.287C286.182 83.4355 287.096 78.8335 290.283 76.5646C294.864 73.2786 302.406 76.0504 307.129 82.7548C311.853 89.4592 311.965 97.5363 307.384 100.822Z" fill="white"/>
<path d="M230.791 347.011L213.171 357.643C211.835 358.451 210.747 359.611 210.028 360.995C209.309 362.38 208.986 363.936 209.095 365.492L209.385 369.624C209.464 370.749 209.767 371.846 210.276 372.852C210.784 373.858 211.489 374.752 212.349 375.483C213.208 376.214 214.205 376.766 215.281 377.108C216.356 377.449 217.49 377.574 218.614 377.473L261.46 373.656C261.923 373.615 262.371 373.475 262.776 373.247C263.18 373.019 263.531 372.708 263.805 372.333L271.905 361.257L273.689 367.644C273.856 368.239 274.224 368.758 274.73 369.112C275.237 369.467 275.85 369.636 276.467 369.591L293.029 368.351C293.661 368.303 294.256 368.032 294.707 367.588C295.159 367.144 295.438 366.554 295.494 365.924L297.196 347.003L230.791 347.011Z" fill="#1D1D1B"/>
<path d="M216.36 284.224L205.127 295.857C204.357 296.625 203.856 297.621 203.7 298.695C203.545 299.769 203.741 300.864 204.262 301.818L207.512 307.767C208.073 308.793 208.976 309.594 210.065 310.032C211.154 310.469 212.362 310.517 213.483 310.168L234.024 303.76L245.491 272.869L216.36 284.224Z" fill="#1D1D1B"/>
<path fill-rule="evenodd" clip-rule="evenodd" d="M328.686 75.1488C327.933 75.0995 327.177 75.0793 326.421 75.0883C326.421 75.0883 323.297 74.4498 317.169 74.5103C315.777 74.4695 314.387 74.635 313.044 75.0014C312.33 75.1714 311.578 75.6928 311.721 77.0038C311.746 77.1796 311.781 77.3538 311.827 77.5251C312.063 78.0946 312.458 78.5838 312.966 78.9337C313.473 79.2835 314.071 79.4793 314.687 79.4972L324.181 79.7692L324.245 79.7957C324.871 80.0349 325.485 80.3208 326.089 80.6483L328.686 75.1488ZM221.902 119.754C221.152 118.228 220.734 117.334 220.734 117.334C218.646 116.499 218.14 116.642 217.01 116.962C216.427 117.127 215.678 117.339 214.459 117.488C211.667 117.832 208.554 112.615 214.512 109.846C219.513 107.522 224.387 111.806 224.387 111.806L226.55 113.479L221.902 119.754Z" fill="white"/>
<path d="M289.399 84.6721L292.11 80.6049L307.023 81.2828C307.588 78.5714 308.311 73.1485 306.684 73.1485C304.651 73.1485 303.295 74.8431 299.228 74.1653C295.161 73.4874 285.67 72.8096 283.975 76.8767C282.619 80.1304 286.687 87.9484 288.382 90.4339C287.591 89.869 285.671 88.7392 284.315 88.7392" stroke="#1D1D1B"/>
<path d="M305.466 87.8918V86.0277H299.223V89.7559H305.466V87.8918ZM305.466 87.8918H307.963" stroke="#1D1D1B"/>
<path d="M307.787 86.0277H312.781V90.0949H307.787V88.0613V86.0277Z" stroke="#1D1D1B"/>
<circle cx="413.457" cy="365.311" r="18.3083" fill="#EFEBFF"/>
</svg>
