<svg width="69" height="69" viewBox="0 0 69 69" fill="none" xmlns="http://www.w3.org/2000/svg">
<path fill-rule="evenodd" clip-rule="evenodd" d="M15 38C25.4934 38 34 29.4937 34 19C34 11.0459 29.1127 4.23389 22.1774 1.40234C25.1235 0.490723 28.2544 0 31.5 0C48.897 0 63 14.103 63 31.5C63 48.897 48.897 63 31.5 63C14.103 63 0 48.897 0 31.5C0 31.2246 0.00353241 30.9502 0.0105438 30.6768C3.48759 35.1338 8.90909 38 15 38Z" fill="#EFEBFF"/>
<path d="M49.5596 27.8424C49.0531 27.8714 48.5583 27.9052 48.0826 27.9636L48.0818 27.9637C46.4071 28.1702 45.002 28.9158 44.1227 30.1235C43.2403 31.3353 42.9728 32.8955 43.3539 34.5562C43.764 36.4247 44.3744 38.2435 45.1745 39.9812L45.1745 39.9812L45.1795 39.9918C46.1086 41.9485 47.1567 43.8668 48.1991 45.7749C48.4946 46.3156 48.7896 46.8555 49.0813 47.3953C48.5344 47.787 48.1461 48.2977 47.8782 48.8829C47.4927 49.7252 47.3671 50.7027 47.2836 51.5973C46.9144 55.5449 46.4548 59.4788 45.7852 63.3646L49.5596 27.8424ZM49.5596 27.8424C48.5802 25.6914 47.1451 23.7723 45.3477 22.2211C41.7984 19.1681 37.7384 17.9476 33.1911 18.8972L33.191 18.8972C30.6806 19.4214 28.8619 21.0825 27.6376 23.2583C26.6636 24.9894 26.092 27.0076 25.8754 28.9129C26.473 28.6946 27.1039 28.4751 27.7082 28.3248L27.7095 28.3244C29.3567 27.917 30.924 27.9732 32.2157 28.5802C33.5336 29.1996 34.4536 30.3423 34.848 31.8644M49.5596 27.8424L34.848 31.8644M36.413 51.7405C36.4169 51.9792 36.4208 52.2178 36.4247 52.4564C36.4855 56.2092 36.546 59.9372 36.7721 63.6502C36.8776 65.3585 37.5987 66.6507 39.1387 67.1418L39.139 67.1419C40.487 67.5721 42.0372 67.3394 43.3313 66.6042C44.6254 65.869 45.5555 64.6953 45.7851 63.3648L36.413 51.7405ZM36.413 51.7405C36.3927 50.3624 36.1653 48.7019 34.637 47.6274L34.6358 47.6265C34.2185 47.334 33.7625 47.1602 33.3683 47.0288C33.3047 47.0076 33.2441 46.9878 33.1857 46.9691C33.2 46.9303 33.2143 46.8915 33.2286 46.8527C33.5119 46.0824 33.7903 45.3254 34.1486 44.5722L36.413 51.7405ZM34.848 31.8644C35.9423 36.0475 36.1583 40.3524 34.1488 44.5718L34.848 31.8644Z" stroke="#5C3BFE" stroke-width="2"/>
<path d="M21.9298 38.5485L21.9294 38.5524C21.5844 41.6829 21.8952 44.7872 24.2407 47.3344C23.9527 47.6627 23.6681 47.9886 23.3855 48.3123C22.2615 49.5996 21.1694 50.8503 20.0271 52.0663L20.0269 52.0665C19.685 52.4307 19.4622 52.4867 19.3603 52.4902C19.2646 52.4934 19.0484 52.4583 18.698 52.117L18.6948 52.1139C17.9293 51.3749 17.276 50.5278 16.7557 49.5996C14.3708 45.2579 13.1583 40.4756 12.0121 35.5442C11.3199 32.5655 10.8693 29.6373 11.034 26.6228L11.034 26.6224C11.1662 24.1816 11.9814 22.2853 13.2859 20.9798C14.5877 19.6769 16.4637 18.8754 18.8844 18.782C21.2259 18.7121 23.5617 18.9986 25.8121 19.6293C22.6833 23.9476 21.8027 28.7817 22.0773 33.8922C22.1556 35.4457 22.1063 37.0031 21.9298 38.5485Z" stroke="#5C3BFE" stroke-width="2"/>
<path d="M55.2598 37.2745C54.7776 38.4558 54.2304 39.6029 53.6537 40.7495C53.6474 39.6882 53.5655 38.6424 53.4861 37.6297L53.4848 37.6128L53.4848 37.6125C53.3309 35.6558 53.5271 33.6322 53.7554 31.5584C53.9415 29.8985 53.6688 28.2193 52.967 26.7037C52.0285 24.6046 51.01 22.945 49.5369 21.3762C48.4892 20.2606 47.2286 19.2092 45.6401 18.0832C50.3078 17.5918 54.8455 19.2621 57.4872 22.7796C57.7535 23.1369 57.9229 23.7886 57.9651 24.4945L57.9652 24.4957C58.2346 28.9175 56.9622 33.0999 55.2598 37.2745Z" stroke="#5C3BFE" stroke-width="2"/>
<path d="M31.8249 34.801C31.8082 34.8144 31.7916 34.8276 31.7751 34.8402C31.4029 35.1254 30.9062 35.3396 30.2166 35.2452L30.2051 35.2436L30.1936 35.2417C29.5997 35.1463 29.1571 34.8007 28.8719 34.5483C28.7454 34.4364 28.6208 34.3153 28.5159 34.2133C28.4981 34.1961 28.4809 34.1793 28.4643 34.1633C28.3406 34.0434 28.2416 33.9503 28.1475 33.8734L27.2819 33.1655L28.0817 32.384C28.3793 32.0933 28.7302 31.8675 29.1123 31.7172C27.9007 31.8532 26.7589 32.3293 25.6327 33.0276C25.6297 33.0311 25.627 33.035 25.6246 33.0391C25.6215 33.0446 25.6191 33.0505 25.6174 33.0566C25.5983 33.5186 25.5782 33.9793 25.5583 34.4388C25.4566 36.7774 25.3561 39.0863 25.378 41.3958C25.4044 43.9536 27.357 46.0438 29.595 46.3385C29.68 46.1256 29.7651 45.912 29.8504 45.6981C30.2824 44.6144 30.7185 43.5203 31.1723 42.4474L31.8249 34.801ZM31.8249 34.801C32.278 37.4271 32.2232 39.962 31.1724 42.4472L31.8249 34.801Z" stroke="#5C3BFE" stroke-width="2"/>
<path d="M47.6501 33.4493L47.2982 34.3853C48.0514 34.6685 48.8229 34.7739 49.5174 34.3548C49.7182 34.2337 49.8813 34.0858 50.0157 33.935C50.0245 34.7144 50.0406 35.492 50.0565 36.2643C50.0588 36.3751 50.061 36.4858 50.0633 36.5964C50.089 37.8566 50.1117 39.1035 50.101 40.3475C50.0958 40.8267 50.0673 41.2969 50.0271 41.7709C49.0078 39.408 47.9913 37.0494 47.0068 34.6797L47.0061 34.6782C46.9585 34.5642 46.9279 34.4345 46.9074 34.2804C46.9415 34.2891 46.979 34.2988 47.0176 34.3089C47.089 34.3276 47.1609 34.3468 47.2209 34.3637C47.2689 34.3772 47.2952 34.3852 47.305 34.3882C47.3096 34.3896 47.3106 34.3899 47.3084 34.3891L47.6501 33.4493ZM47.6501 33.4493C47.5169 33.4008 46.9914 33.2701 46.9914 33.2701M47.6501 33.4493C48.453 33.7511 48.8796 33.6626 49.2103 33.3321C49.2205 33.3382 49.2308 33.3444 49.241 33.3507L49.3566 33.1636C49.4955 32.9825 49.6236 32.7568 49.7666 32.5C49.6923 32.4541 49.6161 32.4117 49.5384 32.3729L48.893 32.0134C48.8707 32.0535 48.8496 32.0912 48.8295 32.1267C48.2955 32.0179 47.7748 32.0815 47.4331 32.3505C47.391 32.3396 47.3527 32.3299 47.3213 32.3219L47.2576 32.3059L47.2397 32.3014L47.2348 32.3002L47.2335 32.2998L47.2331 32.2997L47.233 32.2997L47.2329 32.2997L47.1778 32.5213L47.1751 32.5321L47.0476 33.0444C47.026 33.1188 47.0073 33.1941 46.9914 33.2701M46.9914 33.2701L46.8701 33.7576L46.8603 33.3839C46.8632 33.5191 46.8661 33.6432 46.8701 33.7575L46.9914 33.2701ZM50.1204 31.4458C50.1167 31.4783 50.113 31.5107 50.1094 31.5431C50.042 31.5064 49.9734 31.4716 49.9038 31.4388C49.9739 31.4409 50.0463 31.4433 50.1204 31.4458Z" stroke="#5C3BFE" stroke-width="2"/>
<path d="M25.4961 53.4097C26.3388 53.2402 26.9491 53.1869 27.414 53.0344C29.0801 52.4943 30.1359 51.9543 31.1482 50.4844C31.572 49.8693 32.0587 48.8571 33.1364 49.7046C34.0251 50.4021 34.0033 51.3198 33.1 52.2958C31.2112 54.3324 27.8572 54.8797 25.4961 53.4097Z" fill="#5C3BFE"/>
<path d="M58.7261 49.6539C56.9147 51.3491 54.8176 51.751 52.6526 51.9472C52.1305 51.9835 51.6062 51.9737 51.0858 51.9181C50.2552 51.8455 49.7467 51.5161 49.9913 50.5305C50.1995 49.6975 51.0471 48.9395 51.7155 49.2906C53.9482 50.4651 56.239 49.9857 58.7261 49.6539Z" fill="#5C3BFE"/>
<circle cx="64" cy="9" r="5" fill="#EFEBFF"/>
</svg>
