<svg width="416" height="209" viewBox="0 0 416 209" fill="none" xmlns="http://www.w3.org/2000/svg">
<rect x="16.0586" y="28" width="372" height="181" fill="#EFEBFF"/>
<path d="M70.9397 150.551C61.8167 150.551 58.0628 143.695 58.0628 138.84C58.0628 138.84 50.555 145.185 40.7949 147C31.0348 148.816 7.38748 145.194 1.75536 120.687C-1.90086 104.778 7.52824 88.5775 13.7058 85.1559C3.43117 73.6303 3.07843 34.232 26.3748 13.6306C47.627 -5.16313 82.3678 -1.0734 95.0377 18.1353C107.708 37.344 103.621 54.5069 86.4548 59.8201C116.291 90.4732 90.2128 150.551 70.9397 150.551Z" fill="white" stroke="#5C3BFE"/>
<path d="M51.9375 174L51.9375 39" stroke="#5C3BFE"/>
<path d="M51.9375 115.5L75.9375 90" stroke="#5C3BFE"/>
<path d="M51.9375 92.5L75.9375 67" stroke="#5C3BFE"/>
<path d="M51.9375 73L33.9375 55" stroke="#5C3BFE"/>
<path d="M157.163 69.376C131.332 73.2996 106.892 92.8086 97.9 102.073C97.0824 102.073 94.2241 101.513 90.9514 103.299C86.4556 105.751 86.1831 108.612 86.0469 110.655V154.796C86.0469 156.839 87.273 162.05 91.3601 162.561C93.9758 162.888 94.5626 167.409 95.0384 168.539C98.3081 176.305 101.578 178.348 105.256 180.801C110.357 184.201 115.883 183.662 124.057 183.253C132.231 182.844 135.092 183.662 141.222 179.574C147.353 175.487 149.805 170.174 150.623 167.313C151.44 164.452 154.302 165.558 157.163 165.422C160.914 165.458 178.006 165.53 178.006 165.53C178.006 165.53 182.27 177.779 190.676 181.209C202.591 186.07 220.054 181.736 226.234 177.122C233.009 172.064 232.285 165.515 233.59 165.422C235.633 165.276 242.582 164.588 242.582 162.817C244.217 170.583 246.928 175.256 250.756 178.348C261.383 186.931 265.524 184.994 280.183 183.662C287.949 182.956 293.145 177.531 294.897 175.487C298.75 170.992 299.316 165.575 299.392 165.422C299.469 165.27 302.889 165.422 305.524 165.422H339.037C339.037 165.422 339.446 169.765 344.759 175.487C352.729 184.07 363.85 182.844 369.281 182.844C392.169 180.392 393.396 165.422 393.396 165.422H404.022C412.523 165.422 414.921 160.518 415.057 158.065V129.456C415.057 118.829 406.066 110.553 393.396 107.386C388.491 106.159 375.903 103.217 364.786 101.255C353.669 99.2932 346.803 96.8954 344.76 95.9418C333.316 89.5387 307.731 75.6699 296.941 71.4193C286.151 67.1687 280.184 65.8338 278.549 65.6976H226.643C214.246 65.2889 182.993 65.4524 157.163 69.376Z" fill="white"/>
<path d="M175.555 98.3935L184.955 69.3753C188.906 69.1028 199.26 68.9668 205.799 68.9668C211.521 68.9668 213.788 71.0103 215.199 72.6449C220.376 78.6393 230.975 91.3638 231.956 94.3064C232.937 97.2491 230.73 98.2573 229.504 98.3935H227.052H208.251H175.555Z" fill="white" stroke="#5C3BFE"/>
<path d="M115.062 184.632H131.411" stroke="#5C3BFE"/>
<path d="M265.469 184.632H281.817" stroke="#5C3BFE"/>
<path d="M151.44 69.376C125.61 73.2996 101.169 92.8086 92.1774 102.073C91.3598 102.073 88.5015 101.513 85.2287 103.299C80.7329 105.751 80.4605 108.612 80.3242 110.655V154.796C80.3242 156.839 81.5503 162.05 85.6374 162.561C88.2532 162.888 88.499 161.335 88.499 160.109C88.499 153.57 88.499 144.987 90.9513 139.674C96.0118 128.709 104.03 125.369 110.569 124.143C117.109 122.916 124.873 123.325 133.048 129.456C139.587 134.36 141.924 143.761 142.448 147.439C142.857 150.3 142.938 152.589 143.265 158.474C143.592 164.359 148.579 165.558 151.44 165.422C165.745 165.558 227.787 165.749 232.364 165.422C236.942 165.095 238.086 161.471 238.086 159.7C237.814 156.839 237.514 149.973 238.495 145.395C239.721 139.674 246.669 124.551 262.609 123.734C278.548 122.916 285.496 131.499 288.766 137.221C292.592 143.917 293.261 150.709 293.261 156.431C293.261 162.97 297.213 165.15 299.801 165.422H398.3C406.801 165.422 409.198 160.518 409.335 158.065V129.456C409.335 118.829 400.343 110.553 387.673 107.386C382.769 106.159 370.181 103.217 359.064 101.255C347.947 99.2932 341.081 96.8954 339.037 95.9418C327.593 89.5387 302.008 75.6699 291.218 71.4193C280.428 67.1687 274.461 65.8338 272.826 65.6976H220.92C208.523 65.2889 177.27 65.4524 151.44 69.376Z" stroke="#5C3BFE"/>
<ellipse cx="115.473" cy="156.43" rx="24.1138" ry="28.2008" stroke="#5C3BFE"/>
<path d="M223.781 165.422C222.555 176.048 212.985 184.222 199.667 184.222C186.35 184.222 179.232 175.64 176.371 165.422" stroke="#5C3BFE"/>
<path d="M383.996 165.422C382.77 176.048 373.2 184.222 359.882 184.222C346.565 184.222 339.447 175.64 336.586 165.422" stroke="#5C3BFE"/>
<path d="M234.817 165.014C233.591 175.64 225.825 183.406 210.703 184.223H199.668" stroke="#5C3BFE"/>
<path d="M395.028 165.014C393.802 175.64 386.036 183.406 370.914 184.223H359.879" stroke="#5C3BFE"/>
<ellipse cx="265.879" cy="156.43" rx="24.1138" ry="28.2008" stroke="#5C3BFE"/>
<ellipse cx="115.065" cy="156.431" rx="14.7135" ry="17.5744" fill="#EEEBFF" stroke="#5C3BFE"/>
<ellipse cx="265.467" cy="156.431" rx="14.7135" ry="17.5744" fill="#EEEBFF" stroke="#5C3BFE"/>
<path d="M151.849 165.422C151.441 173.187 142.449 184.222 131.414 184.631" stroke="#5C3BFE"/>
<path d="M301.028 165.831C300.619 173.597 291.219 184.632 281.41 184.632" stroke="#5C3BFE"/>
<path d="M80.7344 110.247H271.192" stroke="#5C3BFE"/>
<path d="M169.833 98.3932H108.935C106.646 98.3932 106.483 96.0424 107.3 95.1235C108.39 93.8974 114.167 89.7286 130.188 81.2275C146.209 72.7264 169.288 70.3291 179.233 69.7842L169.833 98.3932Z" fill="white" stroke="#5C3BFE"/>
<path d="M225.417 68.5586H283.453C283.453 68.5586 292.445 71.6758 301.845 76.1716C316.362 83.1147 338.22 95.5333 338.22 95.5333C339.446 96.7594 338.629 98.3943 336.994 98.3943C310.155 98.3943 255.17 98.0673 249.939 98.3943C244.708 98.7212 241.492 96.6232 240.539 95.5333C234.953 89.2665 223.537 75.9153 222.556 72.6457C221.575 69.376 224.054 68.5586 225.417 68.5586Z" fill="white" stroke="#5C3BFE"/>
<path d="M221.737 102.89V98.3939H208.658C204.162 98.3939 202.527 98.1573 202.527 95.5331V86.9502C202.527 84.4978 204.026 84.2254 204.571 84.0891C207.296 83.6804 213.317 83.19 218.876 84.4978C224.434 85.8057 226.641 90.2199 227.05 93.8981V102.89C227.05 103.298 226.641 104.933 224.598 104.933C222.145 104.933 221.873 103.571 221.737 102.89L221.737 102.89Z" fill="white" stroke="#5C3BFE"/>
<path d="M322.688 120.056H301.435C299.8 120.71 300.481 122.235 301.026 122.917C303.206 124.688 308.383 128.639 311.653 130.273C314.922 131.908 317.647 132.317 318.601 132.317H341.488C343.941 132.317 344.077 130.818 343.941 130.273C343.666 129.175 341.897 128.23 336.584 124.96C330.607 121.282 325.549 120.056 322.688 120.056Z" fill="#FF864B"/>
<path d="M405.438 125.778C405.438 123.816 407.29 122.508 407.699 122.1C407.98 122.721 408.621 124.372 408.938 126C409.254 127.628 409.334 129.527 409.334 130.274H407.438C406.333 130.274 405.438 129.379 405.438 128.274V125.778Z" fill="#FF864B"/>
<path d="M349.267 128.37L349.263 128.363L349.259 128.356L346.326 124.055C345.194 122.395 346.383 120.146 348.391 120.146H348.845H398.132C399.647 120.146 400.814 121.483 400.609 122.984L399.847 128.571L399.447 131.508C399.008 134.729 396.257 137.13 393.006 137.13H358.41C356.188 137.13 354.119 135.994 352.926 134.119L349.267 128.37Z" stroke="#5C3BFE"/>
<path d="M312.879 116.786L404.429 116.786" stroke="#5C3BFE"/>
<path d="M312.879 158.475H409.743" stroke="#5C3BFE"/>
<rect x="359.973" y="140.174" width="34.1489" height="8.80899" rx="2.5" stroke="#5C3BFE"/>
</svg>
