<svg width="372" height="193" viewBox="0 0 372 193" fill="none" xmlns="http://www.w3.org/2000/svg">
<rect y="12" width="372" height="181" fill="#EFEBFF"/>
<path d="M74.1754 111.498L29.5508 173.426H185.999M291.353 111.499L342.447 173.426H300.65" stroke="#5C3BFE"/>
<path d="M228.961 173.426L287.43 173.426" stroke="#5C3BFE"/>
<path d="M142.477 117.701L158.757 96.8574H215.04L232.038 121.981V142.474H142.477V117.701Z" fill="white"/>
<path fill-rule="evenodd" clip-rule="evenodd" d="M206.812 61.7184L235.025 125.644L247.598 128.043L289.197 100.456C291.873 100.367 295.701 100.163 296.842 99.8182C296.92 99.7945 297.011 99.768 297.112 99.7382C299.235 99.1137 305.352 94.6954 302.683 89.5104C299.965 84.229 297.323 85.0351 296.842 85.182C296.828 85.1862 296.816 85.1898 296.806 85.1928C295.453 85.5867 295.67 86.9191 295.769 87.3077C295.85 87.623 296.078 87.8858 296.292 88.1321C296.795 88.7118 297.219 89.2006 295.453 90.0695C293.44 91.0601 289.795 89.6568 288.224 88.8314C291.007 88.4053 295.043 87.5293 294.955 86.1552C294.866 84.7808 293.421 84.0831 289.981 84.278C287.841 84.3992 284.43 85.8038 282.631 86.7231L244.999 97.9573L226.336 53.0273L206.812 61.7184Z" fill="white"/>
<path fill-rule="evenodd" clip-rule="evenodd" d="M167.855 61.7184L139.643 125.644H127.819L86.2203 98.0569C83.5445 97.9673 79.7165 97.7638 78.5754 97.4188C78.4973 97.3952 78.4069 97.3686 78.3057 97.3388C76.1821 96.7144 69.3163 94.6954 71.9851 89.5104C74.7034 84.229 77.3448 85.0351 77.8259 85.182C77.8396 85.1862 77.8516 85.1898 77.8618 85.1928C79.2145 85.5867 78.9975 86.9191 78.8985 87.3077C78.8181 87.623 78.59 87.8858 78.3761 88.1321C77.8729 88.7118 77.4486 89.2006 79.2145 90.0695C81.2275 91.0601 84.8729 89.6568 86.4439 88.8314C83.6613 88.4053 79.6245 87.5293 79.7132 86.1552C79.8019 84.7808 81.2467 84.0831 84.6873 84.278C86.8275 84.3992 90.2377 85.8038 92.0369 86.7231L129.669 97.9573L148.332 53.0273L167.855 61.7184Z" fill="white"/>
<path fill-rule="evenodd" clip-rule="evenodd" d="M162.63 61.3454L158.554 97.1173H215.214L211.911 61.4144L226.841 54.215C226.157 51.6876 224.068 45.4581 221.173 40.7589C218.631 36.6333 212.742 32.2706 208.902 30.6141L208.833 30.585C208.833 30.585 195.929 25.3303 187.261 25.3605C180.185 25.3851 170.258 28.9516 167.054 30.1771C163.389 31.3061 156.339 36.1696 153.512 40.7589C150.617 45.4581 148.527 51.6876 147.844 54.215L162.63 61.3454Z" fill="white"/>
<path d="M159.695 144.977C152.813 146.814 144.414 146.202 141.938 145.903C136.642 152.076 120.142 166.239 120.522 166.429C122.322 167.329 129.437 165.248 133.508 164.147C148.056 160.21 151.293 160.656 182.801 161.331C208.007 161.871 239.046 157.468 249.406 154.938C261.76 151.921 272.909 147.24 271.884 133.286C270.785 118.335 255.367 115.295 241.188 118.671C227.01 122.047 196.356 135.191 159.695 144.977Z" fill="white"/>
<path d="M218.592 141.377C225.433 143.357 234.406 143.477 236.882 143.177C242.178 149.351 254.362 164.368 253.983 164.558C252.183 165.458 244.845 166.095 240.918 164.558C230.91 160.642 227.476 153.451 195.968 154.126C170.762 154.666 140.438 153.967 130.078 151.437C117.724 148.42 105.755 142.909 106.78 128.956C107.879 114.004 121.143 112.345 135.321 115.721C149.5 119.097 210.04 138.902 218.592 141.377Z" fill="white"/>
<path fill-rule="evenodd" clip-rule="evenodd" d="M166.302 152.296C150.372 151.856 136.085 150.816 129.687 149.253C117.333 146.237 105.749 142.908 106.774 128.955C107.873 114.003 121.137 112.344 135.315 115.72C140.721 117.007 152.867 120.683 166.302 124.876V152.296Z" fill="white"/>
<path d="M178.996 6.28201C178.996 3.45275 181.29 1.15918 184.119 1.15918H190.56C193.389 1.15918 195.683 3.45275 195.683 6.28201V12.7949C195.683 17.4028 191.947 21.1382 187.339 21.1382L-nan -nanL187.339 21.1382C182.732 21.1382 178.996 17.4028 178.996 12.7949V6.28201Z" fill="white"/>
<rect x="182.637" y="12.3418" width="9.40467" height="18.9456" rx="4.53116" fill="white"/>
<path d="M139.781 116.303L155.826 95.7599L212.487 95.7601L212.486 95.7578L228.962 120.109C224.328 121.631 218.907 123.551 212.831 125.702C206.729 127.862 199.966 130.256 192.677 132.717L163.575 123.518C154.494 120.684 146.001 118.086 139.781 116.303Z" stroke="#5C3BFE"/>
<path d="M180.886 24.3086C174.463 25.201 166.973 27.8087 164.327 28.8205C160.662 29.9495 153.613 34.813 150.785 39.4024C147.89 44.1016 145.8 50.3311 145.117 52.8584L159.903 59.9889L155.827 95.7608H212.488L209.185 60.0579L224.114 52.8584C223.431 50.3311 221.341 44.1016 218.446 39.4024C215.904 35.2767 210.015 30.9141 206.176 29.2575L206.106 29.2285C206.106 29.2285 196.462 25.4253 188.337 24.3086" stroke="#5C3BFE"/>
<path d="M180.978 18.2774V17.7774H180.478C178.13 17.7774 176.227 15.8741 176.227 13.5263V5.39329C176.227 2.90222 178.246 0.882812 180.737 0.882812H188.496C190.987 0.882812 193.007 2.90222 193.007 5.39329V13.5223C193.007 15.8723 191.102 17.7774 188.751 17.7774H188.251V18.2774V27.5755H180.978V18.2774Z" stroke="#5C3BFE"/>
<path fill-rule="evenodd" clip-rule="evenodd" d="M231.841 141.595C229.365 141.895 222.702 142 215.86 140.02C213.14 139.232 205.161 136.692 195.086 133.484C194.295 133.233 193.492 132.977 192.676 132.717C199.966 130.257 206.729 127.862 212.831 125.702C223.741 121.839 232.539 118.724 238.462 117.314C252.641 113.938 265.905 115.597 267.003 130.548C268.029 144.502 256.445 147.83 244.091 150.847C243.051 151.101 241.805 151.38 240.379 151.675C237.208 147.891 233.934 144.035 231.841 141.595ZM224.637 154.388C218.615 152.258 209.878 150.698 193.577 151.048C173.086 151.487 148.733 150.802 134.774 149.171C131.212 152.657 126.743 156.724 123.283 159.872C120.016 162.845 117.649 164.999 117.795 165.072C119.439 165.894 125.508 164.232 129.65 163.099C130.046 162.99 130.425 162.886 130.781 162.79C132.69 162.273 134.363 161.795 135.9 161.356C146.078 158.447 150.305 157.24 177.679 157.826C193.23 158.159 210.928 156.388 224.637 154.388Z" stroke="#5C3BFE"/>
<path fill-rule="evenodd" clip-rule="evenodd" d="M209.184 60.0571L210.571 75.0526L230.268 119.684C233.407 118.672 236.153 117.863 238.462 117.313C244.763 115.813 250.883 115.307 255.835 116.52L285.722 96.6999C288.398 96.6103 292.226 96.4068 293.367 96.0618C293.445 96.0382 293.535 96.0117 293.637 95.9819L293.637 95.9819C295.76 95.3574 302.626 93.3384 299.957 88.1534C297.239 82.872 294.598 83.6782 294.117 83.825L294.081 83.8358C292.728 84.2298 292.945 85.5622 293.044 85.9507C293.124 86.266 293.353 86.5288 293.566 86.7752C294.07 87.3549 294.494 87.8436 292.728 88.7126C290.715 89.7031 287.07 88.2998 285.499 87.4744C288.281 87.0483 292.318 86.1723 292.229 84.7982C292.141 83.4238 290.696 82.7261 287.255 82.921C285.115 83.0423 281.705 84.4468 279.906 85.3662L242.274 96.6003L224.105 52.8613L209.184 60.0571Z" stroke="#5C3BFE"/>
<path d="M163.575 150.94L163.561 151.439L164.075 151.454V150.94H163.575ZM126.96 147.897L126.842 148.383L126.96 147.897ZM104.048 127.598L104.546 127.635L104.048 127.598ZM132.589 114.364L132.705 113.877L132.589 114.364ZM163.575 123.519H164.075V123.151L163.724 123.042L163.575 123.519ZM163.589 150.44C147.65 150 133.416 148.959 127.079 147.411L126.842 148.383C133.3 149.96 147.642 151 163.561 151.439L163.589 150.44ZM127.079 147.411C120.884 145.899 114.993 144.329 110.769 141.436C108.669 139.998 106.997 138.241 105.907 136.013C104.818 133.784 104.295 131.051 104.546 127.635L103.549 127.561C103.287 131.122 103.828 134.037 105.009 136.452C106.189 138.866 107.992 140.746 110.204 142.261C114.605 145.275 120.682 146.878 126.842 148.383L127.079 147.411ZM104.546 127.635C104.816 123.97 105.827 121.158 107.38 119.044C108.932 116.931 111.048 115.482 113.581 114.579C118.67 112.766 125.416 113.17 132.473 114.85L132.705 113.877C125.583 112.182 118.608 111.727 113.246 113.637C110.553 114.596 108.261 116.154 106.574 118.452C104.888 120.748 103.829 123.75 103.549 127.561L104.546 127.635ZM132.473 114.85C137.858 116.132 149.985 119.802 163.426 123.996L163.724 123.042C150.296 118.851 138.131 115.169 132.705 113.877L132.473 114.85ZM163.075 123.519V150.94H164.075V123.519H163.075Z" fill="#5C3BFE"/>
<path fill-rule="evenodd" clip-rule="evenodd" d="M159.903 59.9885L158.026 76.4587L140.367 116.471C137.122 115.536 134.455 114.808 132.591 114.364C124.457 112.427 116.624 112.147 111.216 115.084L83.4949 96.7003C80.819 96.6107 76.991 96.4072 75.8499 96.0622C75.7719 96.0386 75.6816 96.012 75.5806 95.9823L75.5803 95.9822C73.4566 95.3578 66.5908 93.3388 69.2596 88.1538C71.9779 82.8724 74.6193 83.6786 75.1004 83.8254L75.1363 83.8362C76.489 84.2301 76.272 85.5625 76.173 85.9511C76.0926 86.2664 75.8645 86.5292 75.6507 86.7755C75.1474 87.3553 74.7231 87.844 76.489 88.7129C78.5021 89.7035 82.1474 88.3002 83.7184 87.4748C80.9358 87.0487 76.8991 86.1727 76.9877 84.7986C77.0764 83.4242 78.5212 82.7265 81.9618 82.9214C84.102 83.0426 87.5122 84.4472 89.3115 85.3665L126.943 96.6007L145.122 52.8369L145.116 52.858L159.903 59.9885Z" stroke="#5C3BFE"/>
<path d="M231.843 141.595L232.223 141.27L232.049 141.067L231.783 141.099L231.843 141.595ZM215.863 140.02L216.002 139.539L215.863 140.02ZM132.593 114.364L132.709 113.877L132.593 114.364ZM104.052 127.598L103.553 127.561L104.052 127.598ZM126.964 147.897L126.845 148.383L126.964 147.897ZM193.58 151.048L193.591 151.548L193.58 151.048ZM238.344 160.747L238.527 160.282L238.344 160.747ZM249.619 163.201L249.842 163.648L249.842 163.648L249.619 163.201ZM231.783 141.099C229.363 141.392 222.769 141.498 216.002 139.539L215.724 140.5C222.64 142.501 229.372 142.398 231.903 142.092L231.783 141.099ZM216.002 139.539C211.734 138.304 194.475 132.738 176.489 127.053C158.522 121.373 139.82 115.571 132.709 113.877L132.477 114.85C139.544 116.533 158.201 122.32 176.187 128.006C194.153 133.686 211.44 139.26 215.724 140.5L216.002 139.539ZM132.709 113.877C125.587 112.182 118.612 111.727 113.249 113.637C110.557 114.596 108.265 116.154 106.578 118.452C104.892 120.748 103.833 123.75 103.553 127.561L104.55 127.635C104.82 123.97 105.831 121.158 107.384 119.044C108.936 116.931 111.052 115.482 113.585 114.579C118.674 112.766 125.42 113.17 132.477 114.85L132.709 113.877ZM103.553 127.561C103.291 131.122 103.832 134.037 105.013 136.452C106.193 138.866 107.996 140.746 110.208 142.261C114.609 145.275 120.686 146.878 126.845 148.383L127.083 147.411C120.888 145.899 114.997 144.329 110.773 141.436C108.673 139.998 107.001 138.241 105.911 136.013C104.822 133.784 104.299 131.051 104.55 127.635L103.553 127.561ZM126.845 148.383C132.08 149.661 142.48 150.584 154.683 151.123C166.902 151.663 180.977 151.818 193.591 151.548L193.569 150.548C180.977 150.818 166.924 150.663 154.727 150.124C142.513 149.585 132.208 148.663 127.083 147.411L126.845 148.383ZM193.591 151.548C209.313 151.211 217.939 152.655 223.865 154.65C226.829 155.647 229.131 156.786 231.328 157.928C233.521 159.068 235.629 160.222 238.162 161.213L238.527 160.282C236.056 159.315 234.005 158.193 231.789 157.041C229.578 155.891 227.222 154.724 224.184 153.702C218.107 151.657 209.355 150.21 193.569 150.548L193.591 151.548ZM238.162 161.213C240.134 161.984 242.524 162.831 244.656 163.372C245.721 163.643 246.736 163.841 247.609 163.912C248.462 163.981 249.264 163.937 249.842 163.648L249.395 162.753C249.074 162.914 248.506 162.981 247.69 162.915C246.895 162.85 245.94 162.667 244.902 162.403C242.828 161.877 240.482 161.047 238.527 160.282L238.162 161.213ZM249.842 163.648C250.114 163.512 250.13 163.242 250.126 163.159C250.122 163.067 250.095 162.992 250.083 162.959C250.053 162.882 250.008 162.803 249.968 162.736C249.882 162.593 249.75 162.403 249.585 162.177C249.253 161.721 248.756 161.079 248.137 160.302C246.899 158.745 245.159 156.626 243.244 154.322C239.413 149.714 234.872 144.358 232.223 141.27L231.464 141.921C234.11 145.006 238.647 150.358 242.475 154.962C244.389 157.264 246.123 159.377 247.355 160.924C247.971 161.699 248.458 162.327 248.777 162.765C248.938 162.987 249.049 163.149 249.112 163.253C249.146 163.309 249.153 163.327 249.15 163.32C249.148 163.316 249.144 163.305 249.14 163.289C249.136 163.274 249.129 163.244 249.127 163.203C249.125 163.141 249.135 162.884 249.395 162.753L249.842 163.648Z" fill="#5C3BFE"/>
<path d="M159.469 68.2172L160.138 62.4932H208.897L209.436 68.2172H159.469Z" fill="#FF864B"/>
<path d="M158.387 77.764L159.056 72.04H209.777L210.316 77.764H158.387Z" fill="#FF864B"/>
</svg>
