<svg width="161" height="160" viewBox="0 0 161 160" fill="none" xmlns="http://www.w3.org/2000/svg">
<g clip-path="url(#clip0_6652_10448)">
<path d="M12.6554 99.1232C4.02628 75.7781 12.9623 63.1225 19.8049 58.678C29.3144 52.5011 40.5832 49.6536 59.1914 62.501C77.4293 75.0927 114.67 49.7488 142.194 67.0008C170.368 84.6611 156.691 133.701 99.6914 144.001C64.1914 150.416 22.9829 127.063 12.6554 99.1232Z" fill="#F7F7F9"/>
<circle cx="86.1914" cy="86.5" r="46.5" fill="white"/>
<path fill-rule="evenodd" clip-rule="evenodd" d="M52.0988 32.619C50.5913 23.5495 57.8016 17.668 62.9461 16.1869L62.9456 16.185C62.9797 16.1758 63.0141 16.1668 63.0487 16.1579C63.083 16.1483 63.1173 16.139 63.1515 16.1298L63.152 16.1317C68.3478 14.8422 77.5328 16.3305 80.7621 24.9387C84.0129 33.6044 74.6266 38.6227 69.3239 39.5772C64.2543 41.402 53.6164 41.7492 52.0988 32.619ZM56.6079 31.3663C55.6801 25.5342 60.6873 21.6575 64.2285 20.6427L64.2282 20.6415C64.2517 20.6352 64.2753 20.6289 64.2991 20.6228C64.3227 20.6162 64.3463 20.6098 64.3699 20.6035L64.3702 20.6047C67.9443 19.7129 74.219 20.5667 76.3316 26.0814C78.4583 31.6329 71.9705 34.9781 68.327 35.655C64.8331 36.8905 57.5419 37.2374 56.6079 31.3663Z" fill="#33A06A" stroke="#D6ECE1"/>
<rect x="60.4952" y="31.9639" width="13.1081" height="23.2973" rx="6.55405" transform="rotate(-15 60.4952 31.9639)" fill="#33A06A" stroke="#D6ECE1"/>
<circle cx="80.4561" cy="82.6341" r="43" transform="rotate(-15 80.4561 82.6341)" fill="#33A06A" stroke="#D6ECE1"/>
<circle cx="80.4554" cy="82.6334" r="34.3784" transform="rotate(-15 80.4554 82.6334)" fill="white" stroke="#D6ECE1"/>
<rect x="71.1632" y="53.5899" width="3.7027" height="8.40541" rx="1.85135" transform="rotate(-15 71.1632 53.5899)" fill="white" stroke="#33A06A"/>
<rect x="84.5499" y="103.557" width="3.7027" height="8.40541" rx="1.85135" transform="rotate(-15 84.5499 103.557)" fill="white" stroke="#33A06A"/>
<rect x="52.17" y="91.7245" width="3.7027" height="8.40541" rx="1.85135" transform="rotate(-105 52.17 91.7245)" fill="white" stroke="#33A06A"/>
<rect x="102.135" y="78.3359" width="3.7027" height="8.40541" rx="1.85135" transform="rotate(-105 102.135 78.3359)" fill="white" stroke="#33A06A"/>
<rect x="93.9369" y="55.1752" width="3.25152" height="8.35335" rx="1.62576" transform="rotate(30 93.9369 55.1752)" fill="white" stroke="#33A06A"/>
<rect x="68.0033" y="100.095" width="3.25152" height="8.35335" rx="1.62576" transform="rotate(30 68.0033 100.095)" fill="white" stroke="#33A06A"/>
<rect x="53.558" y="68.9986" width="3.25152" height="8.35335" rx="1.62576" transform="rotate(-60 53.558 68.9986)" fill="white" stroke="#33A06A"/>
<rect x="98.476" y="94.9322" width="3.25152" height="8.35335" rx="1.62576" transform="rotate(-60 98.476 94.9322)" fill="white" stroke="#33A06A"/>
<rect x="74.1719" y="91.5507" width="4.10182" height="32.4448" rx="2.05091" transform="rotate(-135 74.1719 91.5507)" fill="#33A06A" stroke="#D6ECE1"/>
<circle cx="80.2396" cy="82.2391" r="4.59459" transform="rotate(-15 80.2396 82.2391)" fill="#33A06A" stroke="#D6ECE1"/>
</g>
<defs>
<clipPath id="clip0_6652_10448">
<rect width="160" height="160" fill="white" transform="translate(0.691406)"/>
</clipPath>
</defs>
</svg>
