<svg width="114" height="106" viewBox="0 0 114 106" fill="none" xmlns="http://www.w3.org/2000/svg">
<path d="M102 70C102 92.6437 70 106 42.5 106C15 106 0 87.6439 0 65.0002C0 42.3566 25.0279 29.0002 48.5 29.0002C79 26.5004 102 40 102 70Z" fill="#EEEBFF"/>
<path fill-rule="evenodd" clip-rule="evenodd" d="M95.6018 29.896C103.96 37.5794 108.743 47.3243 109.408 56.2735C111.219 71.4397 102.971 85.5609 89.4882 89.0817C82.2066 90.9832 74.7452 89.4411 68.5028 85.3968C64.7875 89.4057 60.4456 93.9324 58.5042 95.9479C58.5584 97.9503 58.0432 99.6869 56.8912 100.992C52.685 105.757 41.5826 102.967 32.0933 94.7603C22.6039 86.5535 18.3209 76.0376 22.5271 71.2725C23.6726 69.9746 25.3298 69.2372 27.3266 69.0171L31.3488 64.4098C28.3264 60.9581 26.2894 56.0015 25.9733 50.4049C25.3588 39.525 31.3014 31.8374 39.6793 29.6887C41.6915 29.0067 43.6199 28.6959 45.5376 28.6678C46.4644 27.6595 47.5443 26.6699 48.7888 25.7019C63.2017 15.473 81.0712 16.5379 95.6018 29.896Z" fill="white"/>
<path fill-rule="evenodd" clip-rule="evenodd" d="M50.594 91.5581C50.6482 93.5605 50.133 95.2971 48.981 96.6023C44.7749 101.367 33.6725 98.5774 24.1831 90.3705C14.6937 82.1637 10.4108 71.6478 14.6169 66.8827C15.7625 65.5848 17.4196 64.8474 19.4164 64.6273L29.9986 52.5059H49.1023C49.1023 52.5059 69.5971 70.5669 65.8701 75.1014C62.7916 78.847 53.6734 88.3612 50.594 91.5581Z" fill="white" stroke="#5C3BFE"/>
<path d="M87.3533 25.8743C94.5474 32.4878 99.0521 40.631 100.536 48.433C102.02 56.235 100.482 63.6607 95.6467 68.9204C90.8114 74.1802 83.5411 76.3365 75.642 75.5124C67.743 74.6884 59.2504 70.8831 52.0563 64.2696C44.7967 57.5958 37.9779 50.0843 35.037 42.6634C33.5711 38.9645 33.0805 35.317 33.9524 31.8164C34.8227 28.3215 37.0659 24.9132 41.177 21.7135C55.3834 11.6368 72.9878 12.6681 87.3533 25.8743Z" fill="white" stroke="#5C3BFE"/>
<ellipse cx="73.5897" cy="54.101" rx="27.8971" ry="31.6167" transform="rotate(-14.6351 73.5897 54.101)" fill="white"/>
<path d="M61.5 26C46.5986 30 42.1868 44.2548 46.5986 61.1497C51.0104 78.0446 66.6717 88.5849 81.5789 84.6921C96.4862 80.7994 104.501 66.5002 100.583 47.0527C99.8887 42.2019 95.0009 30.5002 81.0009 21.0002" stroke="#5C3BFE"/>
<path fill-rule="evenodd" clip-rule="evenodd" d="M47.0875 25.9649C59.0789 29.7409 66.7124 40.3234 64 49C61.8355 55.9241 53.8074 59.8526 44.5586 59.2382C42.0429 62.9085 38.3352 64.8003 34.2331 65.0337C25.9227 65.5065 18.6831 56.9916 18.0632 46.0151C17.4486 35.1352 23.3912 27.4476 31.7691 25.2989C37.0136 23.5215 41.689 24.265 47.0875 25.9649Z" fill="white"/>
<path d="M64 49C66.7124 40.3234 59.0789 29.7409 47.0875 25.9649C41.689 24.265 37.0136 23.5215 31.7691 25.2989C23.3912 27.4476 17.4486 35.1352 18.0632 46.0151C18.6831 56.9916 25.9227 65.5065 34.2331 65.0337" stroke="#5C3BFE"/>
<path d="M18.0207 67C16.0003 69 15.0022 74.5 24.0021 84.5C31.1452 92.4369 44.5022 97.5 48.5022 92.5" stroke="#5C3BFE"/>
<path d="M61.5 52C57.8333 56 47 63.5 37.5 55C37.3333 56.3333 36.6 59 35 59" stroke="#5C3BFE"/>
<path d="M26.7793 59C23.5524 55.6667 20.6912 48.5238 22.6306 40.9048C24.9339 31.8566 32.7728 29 36 29" stroke="#5C3BFE"/>
<path d="M37.5005 55C36.5 54 35.0011 51.5 35 49.5" stroke="#5C3BFE"/>
<path d="M58 70.2209C59.074 73.4269 66.7451 81.2131 79.1724 79.8391C95.7422 78.007 98.0435 59.6866 96.6627 50.0684C94.8216 41.3663 89.7587 33.1221 81.4738 29" stroke="#5C3BFE"/>
<path d="M52.5 28C53.1667 27.1667 56 25.5 58 25" stroke="#5C3BFE"/>
<rect x="20.699" y="71.7598" width="5.16542" height="6.55485" rx="0.5" transform="rotate(-36.3359 20.699 71.7598)" stroke="#5C3BFE"/>
<rect x="26.7071" y="80.3549" width="5.16542" height="6.55485" rx="0.5" transform="rotate(-44.9267 26.7071 80.3549)" stroke="#5C3BFE"/>
<rect x="35.5802" y="88.0418" width="5.16542" height="6.55485" rx="0.5" transform="rotate(-61.5443 35.5802 88.0418)" stroke="#5C3BFE"/>
</svg>
