<svg width="438" height="280" viewBox="0 0 438 280" fill="none" xmlns="http://www.w3.org/2000/svg">
<path d="M216.889 220.355H98.8789V235.615H216.889V220.355Z" fill="white" stroke="white" stroke-width="2" stroke-miterlimit="10"/>
<path d="M256.506 250.635C257.035 252.546 255.597 254.435 253.615 254.435H60.3116C58.1885 254.435 56.7372 252.29 57.5267 250.319L62.1596 238.756C62.9196 236.859 64.7575 235.615 66.801 235.615H248.544C250.792 235.615 252.763 237.115 253.363 239.281L256.506 250.635Z" fill="white" stroke="#D6ECE1" stroke-width="2" stroke-miterlimit="10"/>
<path d="M300.74 13.2852H15.03C7.28144 13.2852 1 19.5666 1 27.3152V206.325C1 214.074 7.28144 220.355 15.03 220.355H300.74C308.489 220.355 314.77 214.074 314.77 206.325V27.3152C314.77 19.5666 308.489 13.2852 300.74 13.2852Z" fill="#33A06A" stroke="white" stroke-width="2" stroke-miterlimit="10"/>
<path d="M295.379 26.2351H20.3887C15.6004 26.2351 11.7188 30.1168 11.7188 34.9051V188.845C11.7188 193.633 15.6004 197.515 20.3887 197.515H295.379C300.167 197.515 304.049 193.633 304.049 188.845V34.9051C304.049 30.1168 300.167 26.2351 295.379 26.2351Z" fill="white" stroke="white" stroke-width="2" stroke-miterlimit="10"/>
<mask id="path-5-inside-1_6652_9818" fill="white">
<path fill-rule="evenodd" clip-rule="evenodd" d="M181.959 207.921C157.594 249.362 140.391 288.205 140.391 288.205C140.391 288.205 178.239 251.192 211.213 212.468L181.959 207.921Z"/>
</mask>
<path fill-rule="evenodd" clip-rule="evenodd" d="M181.959 207.921C157.594 249.362 140.391 288.205 140.391 288.205C140.391 288.205 178.239 251.192 211.213 212.468L181.959 207.921Z" fill="white"/>
<path d="M140.391 288.205L138.562 287.395L141.789 289.635L140.391 288.205ZM181.959 207.921L182.266 205.945L180.923 205.736L180.235 206.907L181.959 207.921ZM211.213 212.468L212.736 213.765L215.055 211.042L211.52 210.492L211.213 212.468ZM140.391 288.205C142.219 289.015 142.219 289.015 142.219 289.015C142.22 289.015 142.22 289.014 142.22 289.014C142.22 289.013 142.221 289.011 142.222 289.009C142.224 289.004 142.227 288.998 142.231 288.989C142.239 288.97 142.251 288.943 142.268 288.906C142.3 288.833 142.35 288.722 142.415 288.576C142.546 288.284 142.741 287.849 142.999 287.281C143.515 286.143 144.279 284.47 145.273 282.331C147.261 278.054 150.166 271.918 153.831 264.488C161.164 249.626 171.532 229.601 183.683 208.935L180.235 206.907C168.02 227.682 157.605 247.799 150.244 262.718C146.563 270.18 143.645 276.344 141.646 280.645C140.646 282.796 139.876 284.481 139.356 285.63C139.095 286.204 138.898 286.644 138.764 286.941C138.698 287.09 138.648 287.203 138.614 287.279C138.597 287.317 138.584 287.346 138.575 287.365C138.571 287.375 138.568 287.382 138.565 287.387C138.564 287.39 138.564 287.392 138.563 287.393C138.563 287.394 138.562 287.394 138.562 287.395C138.562 287.395 138.562 287.395 140.391 288.205ZM209.69 211.172C193.24 230.491 175.565 249.392 161.997 263.47C155.214 270.508 149.46 276.336 145.403 280.405C143.375 282.439 141.771 284.033 140.675 285.117C140.126 285.66 139.705 286.075 139.421 286.354C139.279 286.494 139.172 286.599 139.1 286.67C139.064 286.705 139.037 286.732 139.019 286.749C139.01 286.758 139.003 286.765 138.999 286.769C138.996 286.771 138.995 286.773 138.994 286.774C138.993 286.774 138.993 286.775 138.993 286.775C138.992 286.775 138.992 286.775 140.391 288.205C141.789 289.635 141.789 289.635 141.79 289.635C141.79 289.634 141.79 289.634 141.791 289.633C141.792 289.632 141.794 289.63 141.796 289.628C141.801 289.623 141.808 289.616 141.818 289.607C141.836 289.589 141.864 289.562 141.901 289.526C141.974 289.454 142.083 289.347 142.226 289.206C142.513 288.924 142.937 288.506 143.488 287.961C144.59 286.87 146.201 285.27 148.236 283.229C152.306 279.147 158.076 273.302 164.877 266.246C178.476 252.137 196.212 233.17 212.736 213.765L209.69 211.172ZM211.52 210.492L182.266 205.945L181.651 209.897L210.906 214.445L211.52 210.492Z" fill="#33A06A" mask="url(#path-5-inside-1_6652_9818)"/>
<path d="M411.789 157.565C380.399 121.055 301.279 84.4452 244.909 88.9052C210.049 91.6752 167.909 103.975 148.349 134.675C128.789 165.375 146.119 201.375 189.099 213.375C217.329 221.255 241.039 220.995 258.449 224.375C264.859 225.635 270.859 229.955 263.889 235.675C261.159 237.915 223.139 244.055 252.729 270.285C282.319 296.515 373.069 308.215 410.309 271.775C449.649 233.285 439.139 189.375 411.789 157.565ZM241.129 188.695C239.459 195.135 226.659 197.385 212.539 193.695C198.419 190.005 188.339 181.825 190.019 175.385C191.699 168.945 204.489 166.685 218.609 170.385C232.729 174.085 242.809 182.205 241.129 188.695Z" fill="#33A06A" stroke="white" stroke-width="2" stroke-miterlimit="10"/>
<path d="M210 109.785C215.17 109.475 220.54 109.185 225.37 111.095C230.2 113.005 234.3 117.745 233.71 122.905C233.28 126.715 232.05 128.005 229.02 130.355C225.99 132.705 225.38 135.425 217.02 136.535C211.53 137.265 210.88 133.935 199.3 135.535C195.13 136.115 190.41 135.865 187.3 133.055C184.19 130.245 183.76 125.175 185.69 121.425C187.62 117.675 191.42 115.185 195.44 113.915C199.46 112.645 203.72 112.465 207.93 112.285L210 109.785Z" fill="#EBF6F0"/>
<path d="M311.249 117.455C314.66 115.763 318.572 115.375 322.249 116.365C325.853 117.361 329.276 118.923 332.389 120.995C337.649 124.245 342.709 128.125 345.909 133.405C348.189 137.155 349.339 142.225 346.799 145.805C344.919 148.455 341.519 149.565 338.299 150.025C323.419 152.155 308.899 144.025 293.869 143.835C290.289 143.775 286.299 144.025 283.619 141.665C280.229 138.665 280.879 133.125 283.059 129.175C288.059 120.125 299.859 115.525 309.639 118.815L311.249 117.455Z" fill="#EBF6F0"/>
<path d="M369.32 165.465C364.22 164.975 358.81 164.545 354.22 166.825C349.63 169.105 346.56 175.215 349.31 179.535C351.49 182.985 356.05 183.775 359.79 185.385C366.96 188.465 371.86 195.205 378.47 199.385C382.802 202.08 387.761 203.6 392.86 203.795C395.13 203.875 397.56 203.645 399.38 202.285C401.52 200.705 402.38 197.965 403.11 195.415C404.58 190.285 406.04 184.725 404.18 179.725C402.83 176.105 399.9 173.305 396.74 171.085C390.155 166.187 382.024 163.83 373.84 164.445L369.32 165.465Z" fill="#EBF6F0"/>
<path d="M362.069 219.125C356.259 218.895 354.609 221.475 352.519 224.825C350.429 228.175 348.939 232.115 345.789 234.515C340.729 238.375 332.599 237.295 328.659 242.295C326.249 245.355 326.389 249.925 328.309 253.295C330.229 256.665 333.639 259.015 337.249 260.495C343.559 263.075 350.629 263.325 357.379 262.325C364.129 261.325 370.629 259.135 377.089 256.955C382.799 255.025 388.899 252.825 392.379 247.895C393.868 245.756 394.734 243.246 394.882 240.644C395.031 238.042 394.455 235.45 393.219 233.155C390.369 228.155 384.629 225.515 379.099 223.805C373.569 222.095 375.919 220.655 370.679 219.585C370.679 219.605 364.229 219.205 362.069 219.125Z" fill="#EBF6F0"/>
<path d="M296.534 69.7077C297.57 68.7947 298.477 68.0099 299.25 67.3498C283.325 103.25 264.36 137.726 242.56 170.399C237.259 178.29 230.92 186.755 224.022 195.395C220.498 195.358 216.181 194.902 210.408 193.174C203.315 191.05 199.535 188.604 196.486 186.632C196.422 186.59 196.358 186.549 196.295 186.508C203.516 175.306 211.13 164.392 218.936 154.494C244.095 122.597 264.998 100.127 279.604 85.6376C286.906 78.3929 292.635 73.1432 296.534 69.7077Z" fill="white" stroke="#33A06A" stroke-width="2"/>
<path d="M337.802 2.86001C338.222 -6.05999 319.942 21.47 303.572 34.49C287.202 47.51 290.372 71.17 290.372 71.17L294.642 77.49C294.642 77.49 314.912 78.4 327.102 60.91C339.292 43.42 336.312 34.86 337.802 2.86001Z" fill="white" stroke="#33A06A" stroke-width="2"/>
<path d="M281.074 105.447L268.986 96.1709L290.267 66.468L302.661 75.7543L281.074 105.447Z" fill="white" stroke="#33A06A" stroke-width="2"/>
<path d="M70.4011 41.7551H33.0511C30.8806 41.7551 29.1211 43.5146 29.1211 45.6851V83.0351C29.1211 85.2056 30.8806 86.9651 33.0511 86.9651H70.4011C72.5716 86.9651 74.3311 85.2056 74.3311 83.0351V45.6851C74.3311 43.5146 72.5716 41.7551 70.4011 41.7551Z" fill="#D6ECE1"/>
<path d="M90.8594 48.1751H215.569" stroke="#D6ECE1" stroke-width="2" stroke-miterlimit="10"/>
<path d="M90.8594 62.2651H215.569" stroke="#D6ECE1" stroke-width="2" stroke-miterlimit="10"/>
<path d="M90.8594 76.3551H165.649" stroke="#D6ECE1" stroke-width="2" stroke-miterlimit="10"/>
<path d="M29.1211 122.555H103.911" stroke="#D6ECE1" stroke-width="2" stroke-miterlimit="10"/>
<path d="M29.1211 136.645H103.911" stroke="#D6ECE1" stroke-width="2" stroke-miterlimit="10"/>
<path d="M29.1211 150.745H103.911" stroke="#D6ECE1" stroke-width="2" stroke-miterlimit="10"/>
</svg>
