<svg width="345" height="300" viewBox="0 0 345 300" fill="none" xmlns="http://www.w3.org/2000/svg">
<g clip-path="url(#clip0_6734_22001)">
<rect width="345" height="300" fill="white"/>
<circle cx="314.266" cy="84.168" r="3.83595" fill="#5C3BFE"/>
<path d="M483.691 -50.0052C481.059 -35.5588 470.586 -30.7328 459.536 -24.7585C454.941 -22.2607 441.94 -20.1245 435.262 -14.5842C428.458 -8.96666 424.603 -3.3318 421.826 5.16201C413.967 36.5388 408.626 44.0486 398.625 55.6121C388.509 67.3095 376.452 76.5808 348.917 77.9798C335.034 78.6852 322.207 72.1816 315.986 68.1851C312.927 66.2193 305.767 61.539 298.653 49.0596C293.198 36.7594 292.416 29.8886 290.712 20.8069C288.195 7.36999 297.431 -18.2028 305.26 -28.8484C328.386 -60.2944 330.414 -64.1857 363.267 -83.9604C377.809 -92.7131 405.708 -103.992 433.545 -102.877C464.833 -101.625 488.021 -73.7757 483.691 -50.0052Z" fill="#EEEBFF"/>
<circle cx="291.43" cy="14.332" r="6.5" stroke="#FF864B"/>
<path d="M-15.142 153.306C1.54056 154.49 8.30559 165.749 16.4421 177.517C19.8409 182.409 23.8744 196.863 30.9765 203.735C38.1816 210.74 45.0401 214.405 55.0015 216.494C91.5015 221.494 100.667 226.608 115.001 236.494C129.501 246.494 141.496 258.993 146.5 289.993C149.024 305.623 143.254 320.953 139.502 328.493C137.656 332.201 133.247 340.888 120.002 350.493C106.754 358.197 99.072 359.936 89.0017 362.993C74.1016 367.512 44.0016 360.233 30.9765 352.691C-7.49835 330.415 -12.1559 328.603 -38.6253 293.863C-50.3413 278.487 -66.5761 248.302 -68.7727 216.648C-71.2415 181.069 -42.5921 151.356 -15.142 153.306Z" fill="#EEEBFF"/>
<path d="M73.5316 236.908L115.53 228.928L167.973 252.831L155.344 271.5L115.946 258.022C114.42 257.5 112.781 257.397 111.201 257.726L59.0638 268.566C58.4611 268.692 57.8472 268.755 57.2316 268.755H53.7122C49.0722 268.755 45.1926 265.227 44.7527 260.608L44.7271 260.339C44.535 258.322 45.0294 256.298 46.1305 254.597L50.4703 247.89L19.2094 245.327C17.9478 245.224 16.9766 244.17 16.9766 242.904C16.9766 241.931 17.5562 241.052 18.4502 240.669L28.7072 236.273C31.1041 235.246 33.7051 234.784 36.3092 234.923L73.5316 236.908Z" fill="white"/>
<path d="M146.933 221.218L136.345 223.092L83.5029 232.273L74.2274 233.866C74.2274 233.866 66.5447 234.897 62.5159 238.645C61.579 239.488 60.4547 240.706 59.2367 242.017C58.4872 242.861 57.6439 243.798 56.8944 244.734C52.8656 249.606 49.4927 255.509 50.5233 258.976C52.1161 264.691 68.5122 261.974 68.5122 261.974L118.263 252.042" stroke="#5C3BFE" stroke-miterlimit="10"/>
<path d="M159.025 238.926C153.685 220.75 136.352 223.092 136.352 223.092L146.939 221.218L152.56 187.395L157.994 183.647L160.524 206.321L158.838 209.506L163.335 239.394" stroke="#5C3BFE" stroke-miterlimit="10"/>
<path d="M101.398 247.545V243.142L136.346 236.583C136.346 236.583 174.759 241.362 216.452 243.517C217.202 243.517 221.231 243.985 221.231 247.733C221.231 253.073 215.422 254.572 199.681 254.853C189.563 254.947 101.398 247.545 101.398 247.545Z" stroke="#5C3BFE" stroke-miterlimit="10"/>
<path d="M129.83 249.889L124.914 249.468L126.959 252.541L129.83 249.889Z" fill="#5C3BFE"/>
<path d="M101.398 243.142C101.398 243.142 186.002 250.824 192.373 251.012C201.555 251.199 217.389 251.761 218.607 246.796" stroke="#5C3BFE" stroke-miterlimit="10"/>
<path d="M83.5059 232.273C70.9511 232.273 58.9585 232.461 52.119 233.023C44.4363 233.585 42.1876 234.147 26.3537 239.019C23.824 239.769 24.4799 242.205 26.0726 242.298C39.1895 243.329 49.683 244.266 56.8973 244.828" stroke="#5C3BFE" stroke-miterlimit="10"/>
<path d="M59.3329 242.018L29.0703 239.863" stroke="#5C3BFE" stroke-miterlimit="10"/>
<path d="M94.3737 248.763C95.5638 248.763 96.5286 247.505 96.5286 245.952C96.5286 244.4 95.5638 243.142 94.3737 243.142C93.1835 243.142 92.2188 244.4 92.2188 245.952C92.2188 247.505 93.1835 248.763 94.3737 248.763Z" fill="#FF864B"/>
<path d="M85.7565 250.45C86.9466 250.45 87.9114 249.191 87.9114 247.639C87.9114 246.087 86.9466 244.828 85.7565 244.828C84.5664 244.828 83.6016 246.087 83.6016 247.639C83.6016 249.191 84.5664 250.45 85.7565 250.45Z" fill="#FF864B"/>
<path d="M122.388 258.039C124.82 258.039 126.791 256.068 126.791 253.636C126.791 251.204 124.82 249.232 122.388 249.232C119.956 249.232 117.984 251.204 117.984 253.636C117.984 256.068 119.956 258.039 122.388 258.039Z" stroke="#5C3BFE" stroke-miterlimit="10"/>
<path d="M131.286 258.789C133.718 258.789 135.69 256.817 135.69 254.385C135.69 251.953 133.718 249.982 131.286 249.982C128.854 249.982 126.883 251.953 126.883 254.385C126.883 256.817 128.854 258.789 131.286 258.789Z" stroke="#5C3BFE" stroke-miterlimit="10"/>
<path d="M145.908 251.293L133.728 258.133C134.543 257.675 136.13 256.126 135.581 253.38C135.226 251.604 133.568 250.452 132.836 250.086L145.908 251.293Z" fill="#5C3BFE"/>
<path d="M133.483 257.697C133.243 257.832 133.157 258.137 133.292 258.378C133.427 258.619 133.732 258.704 133.973 258.569L133.483 257.697ZM145.908 251.293L146.153 251.729L147.553 250.943L145.954 250.796L145.908 251.293ZM135.581 253.38L136.072 253.282L135.581 253.38ZM132.836 250.086L132.882 249.588C132.642 249.566 132.421 249.717 132.355 249.949C132.289 250.18 132.397 250.426 132.612 250.533L132.836 250.086ZM133.973 258.569L146.153 251.729L145.663 250.858L133.483 257.697L133.973 258.569ZM133.973 258.569C134.925 258.034 136.674 256.293 136.072 253.282L135.091 253.478C135.587 255.959 134.161 257.316 133.483 257.697L133.973 258.569ZM136.072 253.282C135.869 252.268 135.299 251.452 134.705 250.853C134.112 250.253 133.468 249.843 133.06 249.639L132.612 250.533C132.936 250.695 133.487 251.044 133.995 251.556C134.502 252.069 134.939 252.717 135.091 253.478L136.072 253.282ZM132.79 250.584L145.862 251.791L145.954 250.796L132.882 249.588L132.79 250.584Z" fill="#5C3BFE"/>
<path d="M57.5524 243.985C60.7379 244.734 66.172 244.079 66.172 244.079L66.5468 249.606C66.5468 249.606 58.7704 251.949 53.8047 248.951" stroke="#5C3BFE" stroke-miterlimit="10"/>
<path d="M117.795 252.343L111.484 253.354L107.474 250.002L100.875 248.048L120.204 249.415L117.795 252.343Z" fill="#5C3BFE"/>
<path d="M60.7658 261.026C55.7451 261.026 50.9207 259.148 50.7147 257.087C50.7147 257.552 50.477 258.265 50.7157 259.442C51.0141 260.914 53.8893 262.139 55.4572 262.522C56.7115 262.827 62.7215 262.649 64.9522 262.522L73.7705 261.025L114.629 252.721L113.426 249.952C97.3325 253.267 68.3408 261.026 60.7658 261.026Z" fill="#5C3BFE"/>
</g>
<defs>
<clipPath id="clip0_6734_22001">
<rect width="345" height="300" fill="white"/>
</clipPath>
</defs>
</svg>
