<svg width="72" height="67" viewBox="0 0 72 67" fill="none" xmlns="http://www.w3.org/2000/svg">
<path fill-rule="evenodd" clip-rule="evenodd" d="M15 42C25.4934 42 34 33.4937 34 23C34 15.0459 29.1127 8.23389 22.1774 5.40234C25.1235 4.49072 28.2544 4 31.5 4C48.897 4 63 18.103 63 35.5C63 52.897 48.897 67 31.5 67C14.103 67 0 52.897 0 35.5C0 35.2246 0.00353241 34.9502 0.0105438 34.6768C3.48759 39.1338 8.90909 42 15 42Z" fill="#EFEBFF"/>
<circle cx="67" cy="8" r="5" fill="#EFEBFF"/>
<path d="M56.9211 16.029C56.3611 15.8423 55.7078 15.6557 55.1477 15.469C55.2411 15.0956 55.3344 14.629 55.4278 14.2556C56.8278 7.6288 55.8944 2.30867 52.9077 0.628629C50.0143 -1.05141 45.2542 0.721965 40.4007 4.92207C39.934 5.29541 39.4674 5.76209 39.0007 6.22877C38.7207 5.94876 38.3473 5.66875 38.0673 5.38875C33.0272 0.908636 27.9871 -0.958077 24.907 0.8153C22.0136 2.49534 21.1736 7.53546 22.3869 13.789C22.4803 14.349 22.6669 15.0023 22.7603 15.6557C22.0136 15.8423 21.3602 16.029 20.7069 16.309C14.8268 18.3624 11 21.6291 11 24.9892C11 28.4426 15.0134 31.8961 21.1736 34.0428C21.6403 34.2295 22.2003 34.3228 22.667 34.5095C22.4803 35.1628 22.3869 35.8162 22.2003 36.4695C21.0802 42.6297 21.9203 47.4831 24.8137 49.1632C27.8004 50.8432 32.8405 49.0698 37.694 44.8697C38.0673 44.4964 38.4407 44.2164 38.814 43.843C39.2807 44.3097 39.8407 44.7764 40.3074 45.2431C45.0675 49.3498 49.7343 50.9365 52.6277 49.2565C55.6144 47.4831 56.5478 42.2563 55.3344 35.9095C55.2411 35.4428 55.1478 34.8828 54.9611 34.4161C55.3344 34.3228 55.6144 34.2295 55.9878 34.1361C62.4279 31.9894 66.5347 28.6293 66.5347 25.0826C66.8147 21.3491 62.8946 18.0824 56.9211 16.029ZM41.8941 6.60211C46.0009 3.05535 49.8276 1.56199 51.601 2.58868C53.4677 3.7087 54.2144 8.00214 53.001 13.6956C52.9077 14.069 52.8143 14.4423 52.721 14.8156C50.3876 14.2556 47.8676 13.8823 45.2542 13.6023C43.7608 11.4556 42.1741 9.40218 40.4941 7.72214C41.0541 7.34879 41.5208 6.97545 41.8941 6.60211ZM27.5204 27.6026C27.9871 28.536 28.5471 29.5627 29.1071 30.496C29.6671 31.4294 30.2271 32.4561 30.8805 33.3894C29.0138 33.2028 27.3337 32.9228 25.747 32.5494C26.2137 30.8694 26.7737 29.2827 27.5204 27.6026ZM27.5204 21.9091C26.8671 20.2291 26.2137 18.6424 25.747 17.0557C27.3337 16.6824 29.0138 16.4023 30.7871 16.2157C30.2271 17.149 29.6671 18.0824 29.1071 19.0157C28.5471 20.0424 27.9871 20.9758 27.5204 21.9091ZM28.7338 24.8026C29.4805 23.3092 30.2271 21.8158 31.0672 20.3224C31.9072 18.8291 32.8405 17.429 33.7739 16.029C35.4539 15.9357 37.134 15.8423 38.814 15.8423C40.5874 15.8423 42.2674 15.9357 43.9475 16.029C44.8808 17.429 45.8142 18.8291 46.6542 20.3224C47.4942 21.8158 48.3342 23.3092 49.0809 24.8026C48.3342 26.2959 47.5875 27.7893 46.6542 29.2827C45.8142 30.776 44.8808 32.2694 43.9475 33.5761C42.2674 33.6694 40.5874 33.7628 38.814 33.7628C37.0406 33.7628 35.3606 33.6694 33.7739 33.5761C32.8405 32.1761 31.9072 30.776 31.0672 29.2827C30.3205 27.7893 29.4805 26.2959 28.7338 24.8026ZM48.8009 30.4027C49.3609 29.376 49.9209 28.4426 50.3876 27.416C51.1343 29.096 51.7877 30.776 52.2543 32.3627C50.6676 32.7361 48.8943 33.0161 47.0276 33.2028C47.6809 32.3627 48.2409 31.4294 48.8009 30.4027ZM50.3876 22.0025C49.9209 21.0691 49.3609 20.0424 48.8009 19.1091C48.2409 18.1757 47.6809 17.2424 47.1209 16.309C48.8942 16.4957 50.5743 16.869 52.2543 17.2424C51.6943 18.7357 51.041 20.3224 50.3876 22.0025ZM38.9073 9.49551C40.0274 10.7089 41.1474 12.0156 42.1741 13.4156C41.0541 13.3223 39.934 13.3223 38.9073 13.3223C37.7873 13.3223 36.6673 13.3223 35.6406 13.4156C36.7606 12.0156 37.8807 10.7089 38.9073 9.49551ZM26.1204 2.68201C27.9871 1.56198 32.0938 3.14869 36.4806 6.97545C36.7606 7.25546 37.0406 7.44213 37.3206 7.72214C35.7339 9.49551 34.0539 11.4556 32.5605 13.6023C29.9471 13.8823 27.4271 14.2556 25.0937 14.7223C24.907 14.1623 24.8137 13.6023 24.7203 13.0423C23.6936 7.72214 24.347 3.7087 26.1204 2.68201ZM23.4136 31.8961C22.9469 31.8027 22.4803 31.6161 22.0136 31.4294C19.3069 30.496 17.0668 29.2827 15.4801 27.976C14.0801 26.7626 13.4267 25.6426 13.4267 24.6159C13.4267 22.5625 16.4135 19.9491 21.5469 18.2691C22.2003 18.0824 22.7603 17.8957 23.507 17.709C24.1603 19.9491 25.0937 22.3758 26.2137 24.8026C25.0003 27.2293 24.067 29.656 23.4136 31.8961ZM36.294 42.8163C34.1472 44.683 32.0005 46.0831 30.0405 46.7364C28.3604 47.2964 26.9604 47.3898 26.1204 46.9231C24.347 45.8964 23.6003 41.9763 24.627 36.7495C24.7203 36.1895 24.907 35.5362 25.0003 34.8828C27.2404 35.3495 29.8538 35.7228 32.5605 36.0028C34.1472 38.1495 35.7339 40.2029 37.3206 41.883C37.0406 42.163 36.6673 42.443 36.294 42.8163ZM39.0007 40.1096C37.8807 38.8962 36.7606 37.5895 35.6406 36.0962C36.6673 36.0962 37.7873 36.1895 38.9073 36.1895C40.0274 36.1895 41.1474 36.1895 42.2674 36.0962C41.2407 37.4962 40.1207 38.8962 39.0007 40.1096ZM53.4677 43.3763C53.0944 45.1497 52.441 46.3631 51.601 46.8298C49.8276 47.8565 46.0942 46.5498 41.9874 43.003C41.5207 42.6297 41.0541 42.163 40.5874 41.6963C42.1741 40.0163 43.7608 37.9629 45.2542 35.7228C47.9609 35.4428 50.481 35.0695 52.8143 34.6028C52.9077 35.0695 53.001 35.5361 53.0944 35.9095C53.7477 38.8029 53.841 41.4163 53.4677 43.3763ZM55.5211 31.5227C55.2411 31.6161 54.8677 31.7094 54.5877 31.8027C53.841 29.5627 52.9077 27.2293 51.7877 24.7092C52.9077 22.2825 53.8411 19.9491 54.4944 17.709C55.0544 17.8957 55.6144 18.0824 56.1744 18.2691C61.3079 20.0424 64.4813 22.6558 64.4813 24.7092C64.4813 26.8559 61.0279 29.656 55.5211 31.5227Z" fill="#5C3BFE"/>
<path d="M43.9483 24.709C43.9483 27.4157 41.7082 29.6558 39.0015 29.6558C36.2948 29.6558 34.0547 27.4157 34.0547 24.709C34.0547 22.0023 36.2948 19.7622 39.0015 19.7622C41.7082 19.7622 43.9483 21.9089 43.9483 24.709Z" fill="#5C3BFE"/>
</svg>
