<svg width="345" height="260" viewBox="0 0 345 260" fill="none" xmlns="http://www.w3.org/2000/svg">
<g clip-path="url(#clip0_6734_22063)">
<rect width="345" height="260" fill="white"/>
<path d="M302.123 176.979C300.31 168.815 303.656 163.33 308.351 157.668C310.3 155.307 312.365 152.234 314.768 147.803C317.222 143.302 316.683 137.868 316.741 132.762C316.873 121.225 315.839 120.152 319.259 109.445C325.331 90.4409 333.069 86.682 340.497 83.1278C347.926 79.5735 360.551 79.1092 364.851 79.7734C366.966 80.1003 373.398 80.8005 380.095 85.6994C385.845 90.8852 387.335 93.631 390.311 97.993C394.711 104.448 396.765 117.601 394.882 124.969C389.32 146.732 389.088 149.234 375.583 167.12C369.605 175.037 356.895 187.341 341.43 193.144C324.048 199.667 305.107 190.413 302.123 176.979Z" fill="#EEEBFF"/>
<circle cx="318.5" cy="112.5" r="10" stroke="#FF864B"/>
<circle cx="261.5" cy="163.5" r="7" stroke="#5C3BFE"/>
<circle cx="305" cy="209" r="3" fill="#FF864B"/>
<path d="M-26.142 132.306C-9.45944 133.49 -2.69442 144.749 5.44211 156.517C8.84089 161.409 12.8744 175.863 19.9765 182.735C27.1816 189.74 34.0401 193.405 44.0015 195.494C80.5015 200.494 89.6673 205.608 104.001 215.494C118.501 225.494 130.496 237.993 135.5 268.993C138.024 284.623 132.254 299.953 128.502 307.493C126.656 311.201 122.247 319.888 109.002 329.493C95.7537 337.197 88.072 338.936 78.0017 341.993C63.1016 346.512 33.0016 339.233 19.9765 331.691C-18.4984 309.415 -23.1559 307.603 -49.6253 272.863C-61.3413 257.487 -77.5761 227.302 -79.7727 195.648C-82.2415 160.069 -53.5921 130.356 -26.142 132.306Z" fill="#EEEBFF"/>
<path d="M149.185 221.622C149.185 223.71 149.163 225.416 148.49 228.377C147.497 232.747 143.746 235.826 140.048 235.826C136.35 235.826 131.21 232.747 130.577 227.583C130.214 224.626 130.464 220.72 130.577 221.712L66.2177 222.298C66.0365 223.428 66.1306 224.362 65.0535 228.516C64.1841 231.87 62.6737 233.286 58.9758 233.286C55.2779 233.286 53.9086 230.799 53.0846 227.321C52.5833 224.167 52.6275 223.284 52.6275 222.298L33.2812 222.344V196.458C33.2812 194.271 35.04 192.49 37.2272 192.467C43.2024 191.317 47.7797 187.732 49.8316 185.658C52.5374 182.929 64.0369 168.859 64.0369 168.859C66.63 165.455 70.6661 163.448 74.9503 163.448H140.227C149.314 163.448 150.261 164.823 158.176 171.182L182.482 190.415L203.114 199.096C204.535 199.683 205.504 201.058 205.572 202.591L206.406 221.216L149.185 221.622Z" fill="white"/>
<path d="M152.014 214.084C152.104 213.137 152.172 212.145 152.172 211.13C152.172 203.464 149.173 197.263 145.475 197.263C141.777 197.263 138.778 203.486 138.778 211.13C138.778 212.167 138.823 213.182 138.936 214.174L64.8427 214.67C64.978 213.543 65.0682 212.37 65.0682 211.153C65.0682 203.486 62.0693 197.286 58.3714 197.286C54.6735 197.286 51.6746 203.509 51.6746 211.153C51.6746 212.393 51.7647 213.61 51.9 214.76L41.6406 214.805V188.92C41.6406 186.733 43.3994 184.952 45.5866 184.929C51.5618 183.779 56.1391 180.194 58.191 178.12C60.8968 175.391 72.3963 161.321 72.3963 161.321C74.9894 157.916 79.0255 155.91 83.3096 155.91H148.587C157.673 155.91 158.62 157.285 166.535 163.644L190.842 182.877L211.473 191.558C212.894 192.145 213.863 193.52 213.931 195.053L214.765 213.678L152.014 214.084Z" stroke="#5C3BFE" stroke-miterlimit="10" stroke-linecap="round" stroke-linejoin="round"/>
<path d="M142.244 214.022H139.068C138.905 213.071 138.676 210.37 139.068 207.174C139.559 203.18 141.268 199.593 143.143 197.963C144.643 196.659 146.132 196.98 147.001 197.523C146.746 197.796 146.009 198.452 144.936 200.164C141.871 205.055 141.864 211.441 142.244 214.022Z" fill="#5C3BFE"/>
<path d="M100.852 155.909L108.901 147.77L116.951 155.819L100.852 155.909Z" stroke="#5C3BFE" stroke-miterlimit="10" stroke-linecap="round" stroke-linejoin="round"/>
<path d="M108.906 147.77H131.387L139.301 155.909H117.091L108.906 147.77Z" fill="#5C3BFE" stroke="#5C3BFE" stroke-miterlimit="10" stroke-linecap="round" stroke-linejoin="round"/>
<path d="M60.1492 197.759C57.3081 200.533 55.4141 205.651 55.4141 211.491C55.4141 212.596 55.4817 213.678 55.617 214.738C56.5189 221.999 59.3157 226.938 63.9606 226.938C68.6506 226.938 73.633 221.931 74.4898 214.603" stroke="#5C3BFE" stroke-miterlimit="10" stroke-linecap="round" stroke-linejoin="round"/>
<path d="M147.011 197.624C144.102 200.374 142.141 205.56 142.141 211.513C142.141 220.33 146.447 227.455 151.769 227.455C156.571 227.455 160.54 221.637 161.284 214.016" stroke="#5C3BFE" stroke-miterlimit="10" stroke-linecap="round" stroke-linejoin="round"/>
<path d="M186.688 213.858C187.364 221.547 191.378 227.455 196.203 227.455C201.073 227.455 205.087 221.48 205.741 213.723" stroke="#5C3BFE" stroke-miterlimit="10" stroke-linecap="round" stroke-linejoin="round"/>
<path d="M51.875 214.738H55.618" stroke="#5C3BFE" stroke-miterlimit="10" stroke-linecap="round" stroke-linejoin="round"/>
<path d="M138.938 214.174H142.117" stroke="#5C3BFE" stroke-miterlimit="10" stroke-linecap="round" stroke-linejoin="round"/>
<path d="M82.8571 162.606H128.9C130.366 162.606 131.719 163.305 132.553 164.5L144.549 181.367C145 181.998 144.549 182.877 143.782 182.877H66.9156C65.9911 182.877 65.4951 181.817 66.0588 181.096L79.3396 164.32C80.1965 163.238 81.4817 162.606 82.8571 162.606Z" stroke="#5C3BFE" stroke-miterlimit="10" stroke-linecap="round" stroke-linejoin="round"/>
<path d="M93.9062 157.578V207.635" stroke="#5C3BFE" stroke-miterlimit="10" stroke-linecap="round" stroke-linejoin="round"/>
<path d="M76.9531 207.635H134.338" stroke="#5C3BFE" stroke-miterlimit="10" stroke-linecap="round" stroke-linejoin="round"/>
<path d="M111.048 188.763H106.922V192.889H111.048V188.763Z" fill="#FF864B"/>
<path d="M119.415 188.763H115.289V192.889H119.415V188.763Z" fill="#FF864B"/>
<path d="M111.061 197.022H115.188V192.896H111.061V197.022Z" fill="#FF864B"/>
<path d="M127.796 197.022H131.922V192.896H127.796V197.022Z" fill="#FF864B"/>
<path d="M119.428 197.022H123.555V192.896H119.428V197.022Z" fill="#FF864B"/>
<path d="M127.783 188.763H123.656V192.889H127.783V188.763Z" fill="#FF864B"/>
<path d="M165.246 162.606L137.895 162.471C137.354 162.471 137.016 163.102 137.354 163.553L150.545 181.885C150.928 182.426 151.56 182.742 152.236 182.742L190.838 182.877" stroke="#5C3BFE" stroke-miterlimit="10" stroke-linecap="round" stroke-linejoin="round"/>
<path d="M47.2326 184.546V192.889C47.2326 194.354 46.0375 195.549 44.5719 195.549H41.6406" stroke="#5C3BFE" stroke-miterlimit="10" stroke-linecap="round" stroke-linejoin="round"/>
<path d="M209.691 190.814H168.112C166.196 190.814 164.617 192.37 164.617 194.309V198.706H214.088" stroke="#5C3BFE" stroke-miterlimit="10" stroke-linecap="round" stroke-linejoin="round"/>
<path d="M173.688 190.814V198.683" stroke="#5C3BFE" stroke-miterlimit="10" stroke-linecap="round" stroke-linejoin="round"/>
<path d="M206.406 190.814V198.683" stroke="#5C3BFE" stroke-miterlimit="10" stroke-linecap="round" stroke-linejoin="round"/>
<path d="M201.391 198.796H180.195V204.884H201.391V198.796Z" fill="#5C3BFE" stroke="#5C3BFE" stroke-miterlimit="10" stroke-linecap="round" stroke-linejoin="round"/>
<path d="M156.859 213.791C156.859 213.791 157.423 204.884 164.638 204.884C171.854 204.884 212.102 204.884 212.102 204.884C212.102 204.884 214.47 204.884 214.47 207.139" stroke="#5C3BFE" stroke-miterlimit="10" stroke-linecap="round" stroke-linejoin="round"/>
<path d="M69.7299 214.726C70.1415 218.842 67.809 226.114 63.2812 226.8" stroke="#5C3BFE" stroke-linecap="round"/>
<path d="M150.266 226.712C149.989 226.712 149.766 226.936 149.766 227.212C149.766 227.488 149.989 227.712 150.266 227.712V226.712ZM156.352 214.159C156.217 217.943 155.372 221.124 154.197 223.342C153.003 225.596 151.554 226.712 150.266 226.712V227.712C152.133 227.712 153.84 226.152 155.081 223.81C156.341 221.431 157.212 218.095 157.351 214.195L156.352 214.159Z" fill="#5C3BFE"/>
<path d="M55.623 214.558H51.9043C51.7133 214.336 51.3917 213.023 51.6334 209.542C51.9356 205.191 52.4794 203.892 53.0233 202.532C53.5672 201.173 55.1685 198.151 57.3138 197.547C59.03 197.063 59.8216 197.567 60.0029 197.879C59.3885 198.413 57.9543 200.043 57.1325 202.291C56.1052 205.101 55.623 207.306 55.4405 209.542C55.2944 211.331 55.5013 213.631 55.623 214.558Z" fill="#5C3BFE"/>
</g>
<defs>
<clipPath id="clip0_6734_22063">
<rect width="345" height="260" fill="white"/>
</clipPath>
</defs>
</svg>
