<svg width="161" height="160" viewBox="0 0 161 160" fill="none" xmlns="http://www.w3.org/2000/svg">
<g clip-path="url(#clip0_6652_10435)">
<path d="M15.6914 69.0576C15.6911 44.1687 28.7206 36.3014 36.4196 33.5995C62.8438 24.326 79.3438 33.8241 92.3438 52.326C105.085 70.4597 130.638 53.3577 144.844 72.3262C172.555 109.326 133.206 149.331 76.5127 139.292C33.2619 131.633 15.6918 98.8447 15.6914 69.0576Z" fill="#F7F7F9"/>
<path d="M65.1914 98L83.6914 36L153.516 33.5352L139.263 109.936C138.913 111.811 137.526 113.324 135.688 113.836L83.3343 128.404C81.9229 128.796 80.4426 128.874 78.9978 128.632L12.6914 117.5L-13.3086 109L65.1914 98Z" fill="white"/>
<path d="M129.998 107.095C130.537 107.155 131.334 107.15 132.056 106.715C133.128 106.067 133.429 104.836 133.732 103.514C134.788 98.9081 135.316 96.605 135.752 94.5205C136.032 93.1778 136.204 92.4312 136.515 90.8245C136.902 88.8195 137.147 87.3375 137.202 87.0136C137.964 82.4592 140.917 69.4181 143.528 57.0037C146.5 42.5 146.5 42.5 146.5 42.5C146.5 42.5 146.607 41.572 146.842 39.8536C146.935 39.1733 147.002 38.5449 146.67 37.91C146.357 37.3108 145.844 37.0014 145.641 36.8816C144.78 36.3746 143.879 36.4151 143.641 36.4248C126.386 37.1213 109.109 37.1051 91.8474 37.6136C90.9842 37.6395 84.8782 37.7805 81.5628 37.9116C79.8023 37.9813 79.1707 38.0331 77.7308 38.0396C76.9907 38.0428 76.2505 38.1011 75.512 38.093C74.4058 38.0801 73.9199 38.0153 73.2736 38.3117C72.7165 38.5676 72.3375 38.9563 72.1869 39.1118C72.1869 39.1118 71.7301 39.5879 71.4289 40.2261C70.4199 42.364 68.0147 53.4211 67.7281 54.7168C67.7184 54.7589 67.4365 55.8878 66.8713 58.1471C66.8713 58.1471 60.5904 83.235 59.6284 87.3326C59.3627 88.4648 59.0939 89.7102 59.0939 89.7102C58.9773 90.2496 58.9141 90.5573 58.8833 90.7112C58.8655 90.8002 58.6744 91.751 58.4687 93.1876C58.3424 94.0767 58.3311 94.3002 58.4687 94.5594C58.6857 94.9675 59.1101 95.157 59.3838 95.2461" fill="#FF864B"/>
<path d="M129.998 107.095C130.537 107.155 131.334 107.15 132.056 106.715C133.128 106.067 133.429 104.836 133.732 103.514C134.788 98.9081 135.316 96.605 135.752 94.5205C136.032 93.1778 136.204 92.4312 136.515 90.8245C136.902 88.8195 137.147 87.3375 137.202 87.0136C137.964 82.4592 140.917 69.4181 143.528 57.0037C146.5 42.5 146.5 42.5 146.5 42.5C146.5 42.5 146.607 41.572 146.842 39.8536C146.935 39.1733 147.002 38.5449 146.67 37.91C146.357 37.3108 145.844 37.0014 145.641 36.8816C144.78 36.3746 143.879 36.4151 143.641 36.4248C126.386 37.1213 109.109 37.1051 91.8474 37.6136C90.9842 37.6395 84.8782 37.7805 81.5628 37.9116C79.8023 37.9813 79.1707 38.0331 77.7308 38.0396C76.9907 38.0428 76.2505 38.1011 75.512 38.093C74.4058 38.0801 73.9199 38.0153 73.2736 38.3117C72.7165 38.5676 72.3375 38.9563 72.1869 39.1118C72.1869 39.1118 71.7301 39.5879 71.4289 40.2261C70.4199 42.364 68.0147 53.4211 67.7281 54.7168C67.7184 54.7589 67.4365 55.8878 66.8713 58.1471C66.8713 58.1471 60.5904 83.235 59.6284 87.3326C59.3627 88.4648 59.0939 89.7102 59.0939 89.7102C58.9773 90.2496 58.9141 90.5573 58.8833 90.7112C58.8655 90.8002 58.6744 91.751 58.4687 93.1876C58.3424 94.0767 58.3311 94.3002 58.4687 94.5594C58.6857 94.9675 59.1101 95.157 59.3838 95.2461" stroke="#FFF3ED" stroke-miterlimit="10"/>
<path d="M129.668 104.732C129.768 104.938 129.801 105.317 129.867 106.075C129.98 107.364 130.04 108.176 129.538 108.756C129.367 108.955 129.143 109.071 128.695 109.306C128.173 109.58 127.747 109.703 126.984 109.905C126.072 110.147 125.387 110.314 125.028 110.401C124.072 110.636 123.56 110.783 122.989 110.934C120.971 111.468 119.056 111.813 116.034 112.534C112.826 113.3 112.851 113.323 110.127 113.963C109.151 114.193 107.631 114.546 105.774 114.964C101.673 115.883 100.999 115.973 98.0092 116.669C96.1062 117.113 96.7184 116.998 93.5504 117.756C92.1284 118.096 90.1136 118.548 86.0808 119.451C85.2434 119.639 83.9639 119.924 82.2504 120.195C81.792 120.268 80.9109 120.404 80.1351 120.482C77.7009 120.721 75.7103 120.409 74.7613 120.253C67.3126 119.024 60.8714 117.51 60.8714 117.51C56.892 116.575 53.0924 115.877 45.4948 114.479C41.0764 113.666 41.3955 113.783 34.5202 112.536C32.9622 112.254 34.1672 112.469 22.8023 110.364C19.9647 109.837 17.9985 109.475 15.8137 108.977C14.918 108.773 13.8766 108.524 12.1128 108.148C11.533 108.025 10.9499 107.899 9.78705 107.644C9.67044 107.619 7.73337 107.188 6.0765 106.367C5.85461 106.256 5.52583 106.085 5.30881 105.724C5.23268 105.596 5.12579 105.371 5.11769 104.362C5.11283 103.526 5.11283 103.103 5.27641 102.815C5.52097 102.384 5.91454 102.19 6.26114 102.018C6.50084 101.9 6.75836 101.807 8.05244 101.618C8.88006 101.496 9.53439 101.424 9.84373 101.39C10.6292 101.304 11.2123 101.252 11.3678 101.237C12.6667 101.119 13.7438 100.97 15.4638 100.734C17.1774 100.497 18.4407 100.295 18.9897 100.209C22.2808 99.6905 24.6017 99.4152 26.8011 99.122C32.648 98.343 38.0704 97.4231 40.9971 96.9307C44.4922 96.3428 48.0197 95.9606 51.5149 95.3678C51.8777 95.3062 52.958 95.1216 54.4108 95.0633C56.0207 94.9985 57.2435 95.1216 57.765 95.1783C60.2916 95.4455 69.2108 96.7072 72.2849 97.1218C72.3577 97.1315 73.4882 97.2773 75.746 97.5688C82.0252 98.3786 86.382 98.939 88.9993 99.2727C92.0377 99.6598 102.854 101.035 112.032 102.018C116.322 102.478 117.116 102.606 118.898 102.743C119.951 102.824 121.186 102.905 125.408 103.275C127.302 103.442 129.117 103.599 129.668 104.732Z" fill="#FF864B" stroke="#FFE7DB" stroke-miterlimit="10"/>
<path d="M126.496 105.332C120.607 106.6 115.774 107.665 112.376 108.419C100.459 111.062 94.5005 112.385 91.9124 112.992C90.2021 113.394 88.4788 113.736 86.7685 114.136C85.4744 114.439 84.5043 114.677 83.0531 114.879C82.679 114.931 81.5857 115.082 80.1378 115.164C78.8891 115.237 77.6857 115.244 76.3657 115.193C72.8203 115.057 69.7722 114.562 69.3916 114.499C63.4962 113.52 57.6202 112.234 54.3583 111.564C51.5645 110.989 47.5624 110.224 42.6501 109.487C42.6469 109.615 42.642 109.816 42.6404 110.064C42.6355 110.663 42.6534 110.772 42.5837 110.879C42.3764 111.193 41.7658 111.136 41.4969 111.107C39.176 110.863 37.5337 110.535 37.5337 110.535C36.2591 110.281 35.6226 110.155 35.0185 110.079C34.267 109.983 33.5349 109.773 32.7899 109.64C32.3331 109.559 31.878 109.483 31.7031 109.144C31.6286 108.998 31.6302 108.757 31.6367 108.278C31.6399 107.983 31.6529 107.738 31.6659 107.563C30.0722 107.306 27.6411 106.903 24.6724 106.363C21.8769 105.855 20.1747 105.511 18.27 105.144C15.6802 104.645 11.913 103.95 7.16105 103.181" stroke="#FFE7DB" stroke-miterlimit="10"/>
<path d="M118.148 104.418C109.924 106.113 101.698 107.809 93.4736 109.505C72.527 106.15 52.6379 102.853 31.6914 99.4992C39.3959 98.3687 47.1004 97.2399 54.805 96.1094C76.2714 98.8984 96.6804 101.63 118.148 104.418Z" fill="#FFE7DB"/>
<path d="M61.0061 107.4C62.073 107.158 62.0312 105.624 60.9527 105.44C57.4648 104.845 53.9772 104.249 50.4893 103.653C48.3568 103.289 46.1793 103.273 44.0417 103.607C41.1773 104.054 38.313 104.501 35.4486 104.948C34.3266 105.123 34.3183 106.736 35.4384 106.923C39.467 107.594 43.4956 108.265 47.5242 108.936C50.0863 109.362 52.707 109.286 55.2399 108.711C57.1621 108.274 59.0842 107.837 61.0061 107.4Z" fill="#FFE7DB"/>
<path d="M141.742 42.0527C119.335 42.2811 96.9257 42.5095 74.5183 42.7395C70.8596 58.8968 67.2009 75.0557 63.5438 91.213C85.7228 94.0328 107.902 96.8525 130.081 99.6739C133.968 80.4668 137.855 61.2598 141.742 42.0527Z" fill="white" stroke="#FFF3ED" stroke-miterlimit="10"/>
</g>
<defs>
<clipPath id="clip0_6652_10435">
<rect width="160" height="160" fill="white" transform="translate(0.691406)"/>
</clipPath>
</defs>
</svg>
