<svg width="72" height="72" viewBox="0 0 72 72" fill="none" xmlns="http://www.w3.org/2000/svg">
<g clip-path="url(#clip0_6652_9944)">
<rect width="72" height="72" fill="white"/>
<path d="M0 11.1745C0 8.45988 2.20061 6.25928 4.91519 6.25928H60.8255C63.5401 6.25928 65.7407 8.45989 65.7407 11.1745V67.0848C65.7407 69.7994 63.5401 72 60.8255 72H4.91519C2.20061 72 0 69.7994 0 67.0848V11.1745Z" fill="#EFEBFF"/>
<path d="M5.25781 5.91519C5.25781 3.20061 7.45842 1 10.173 1H66.0834C68.7979 1 70.9986 3.20061 70.9986 5.9152V61.8255C70.9986 64.5401 68.7979 66.7407 66.0834 66.7407H10.173C7.45842 66.7407 5.25781 64.5401 5.25781 61.8255V5.91519Z" stroke="#5C3BFE"/>
<path d="M30.4494 56.2962C34.5184 56.2962 37.8208 52.9932 37.8208 48.9234V41.5505H30.4494C26.3805 41.5505 23.0781 44.8536 23.0781 48.9234C23.0781 52.9932 26.3805 56.2962 30.4494 56.2962Z" fill="#5C3BFE"/>
<path d="M23.0781 34.1784C23.0781 30.1087 26.3805 26.8057 30.4494 26.8057H37.8208V41.5512H30.4494C26.3805 41.5512 23.0781 38.2482 23.0781 34.1784Z" fill="#5C3BFE"/>
<path d="M23.0781 19.4319C23.0781 15.3621 26.3805 12.0591 30.4494 12.0591H37.8208V26.8047H30.4494C26.3805 26.8047 23.0781 23.5017 23.0781 19.4319Z" fill="white"/>
<path d="M37.8203 12.0593H45.1916C49.2606 12.0593 52.563 15.3623 52.563 19.4321C52.563 23.5019 49.2606 26.8049 45.1916 26.8049H37.8203V12.0593Z" fill="#DED8FF"/>
<path d="M52.563 34.1784C52.563 38.2482 49.2606 41.5512 45.1916 41.5512C41.1227 41.5512 37.8203 38.2482 37.8203 34.1784C37.8203 30.1087 41.1227 26.8057 45.1916 26.8057C49.2606 26.8057 52.563 30.1087 52.563 34.1784Z" fill="#5C3BFE"/>
</g>
<defs>
<clipPath id="clip0_6652_9944">
<rect width="72" height="72" fill="white"/>
</clipPath>
</defs>
</svg>
