<svg width="160" height="160" viewBox="0 0 160 160" fill="none" xmlns="http://www.w3.org/2000/svg">
<g clip-path="url(#clip0_6652_10578)">
<path d="M140.581 83.5274C141.708 99.3699 136.703 121.627 103.507 129.124C79.3893 134.572 23.8296 114.002 26.1118 95.3008C28.3054 77.3249 74.6263 60.9488 93.0128 53.6531C111.399 46.3575 138.58 55.4242 140.581 83.5274Z" fill="#EEEBFF"/>
<path d="M13.0049 66.9999C13.0052 42.5002 36.2473 34.4463 52.9996 38.0001C87.7116 45.364 85.0051 69.4204 96.0012 89C116.5 125.5 64.9205 120.064 46.0043 114C27.0881 107.936 13.0046 88.0644 13.0049 66.9999Z" fill="#EEEBFF"/>
<rect x="54.3906" y="17.9727" width="64.6346" height="94.1652" rx="4" fill="white"/>
<rect x="46.6245" y="23.5869" width="66.5499" height="85.4355" rx="4.94385" transform="rotate(-0.404092 46.6245 23.5869)" stroke="#5C3BFE" stroke-width="0.898881"/>
<rect x="51.4565" y="28.3496" width="56.9572" height="75.8428" rx="2.54683" transform="rotate(-0.404092 51.4565 28.3496)" stroke="#5C3BFE" stroke-width="0.898881"/>
<mask id="path-6-inside-1_6652_10578" fill="white">
<path fill-rule="evenodd" clip-rule="evenodd" d="M68.6079 16.0871C67.6151 16.0941 66.8159 16.9046 66.8229 17.8975L66.8314 19.098L63.5298 19.1213C62.5369 19.1283 61.7378 19.9388 61.7448 20.9317L61.768 24.2308C61.775 25.2237 62.5856 26.0229 63.5784 26.0159L95.9548 25.7875C96.9476 25.7805 97.7468 24.97 97.7398 23.9771L97.7165 20.678C97.7095 19.6851 96.899 18.8859 95.9061 18.8929L92.6111 18.9162L92.6027 17.7157C92.5957 16.7228 91.7851 15.9236 90.7923 15.9306L68.6079 16.0871Z"/>
</mask>
<path fill-rule="evenodd" clip-rule="evenodd" d="M68.6079 16.0871C67.6151 16.0941 66.8159 16.9046 66.8229 17.8975L66.8314 19.098L63.5298 19.1213C62.5369 19.1283 61.7378 19.9388 61.7448 20.9317L61.768 24.2308C61.775 25.2237 62.5856 26.0229 63.5784 26.0159L95.9548 25.7875C96.9476 25.7805 97.7468 24.97 97.7398 23.9771L97.7165 20.678C97.7095 19.6851 96.899 18.8859 95.9061 18.8929L92.6111 18.9162L92.6027 17.7157C92.5957 16.7228 91.7851 15.9236 90.7923 15.9306L68.6079 16.0871Z" fill="white"/>
<path d="M66.8229 17.8975L65.924 17.9038L66.8229 17.8975ZM66.8314 19.098L66.8377 19.9969L67.7366 19.9905L67.7302 19.0917L66.8314 19.098ZM97.7398 23.9771L96.841 23.9835L97.7398 23.9771ZM97.7165 20.678L98.6154 20.6716L97.7165 20.678ZM95.9061 18.8929L95.9125 19.7918L95.9061 18.8929ZM92.6111 18.9162L91.7123 18.9225L91.7186 19.8214L92.6175 19.815L92.6111 18.9162ZM67.7217 17.8912C67.7182 17.3947 68.1178 16.9895 68.6143 16.986L68.6016 15.1882C67.1123 15.1987 65.9135 16.4146 65.924 17.9038L67.7217 17.8912ZM67.7302 19.0917L67.7217 17.8912L65.924 17.9038L65.9325 19.1043L67.7302 19.0917ZM63.5361 20.0201L66.8377 19.9969L66.825 18.1991L63.5235 18.2224L63.5361 20.0201ZM62.6436 20.9253C62.6401 20.4289 63.0397 20.0236 63.5361 20.0201L63.5235 18.2224C62.0342 18.2329 60.8354 19.4487 60.8459 20.938L62.6436 20.9253ZM62.6669 24.2245L62.6436 20.9253L60.8459 20.938L60.8692 24.2372L62.6669 24.2245ZM63.5721 25.117C63.0757 25.1205 62.6704 24.7209 62.6669 24.2245L60.8692 24.2372C60.8797 25.7265 62.0955 26.9252 63.5848 26.9147L63.5721 25.117ZM95.9484 24.8887L63.5721 25.117L63.5848 26.9147L95.9611 26.6864L95.9484 24.8887ZM96.841 23.9835C96.8445 24.4799 96.4449 24.8852 95.9484 24.8887L95.9611 26.6864C97.4504 26.6759 98.6492 25.4601 98.6387 23.9708L96.841 23.9835ZM96.8177 20.6843L96.841 23.9835L98.6387 23.9708L98.6154 20.6716L96.8177 20.6843ZM95.9125 19.7918C96.4089 19.7883 96.8142 20.1879 96.8177 20.6843L98.6154 20.6716C98.6049 19.1824 97.3891 17.9836 95.8998 17.9941L95.9125 19.7918ZM92.6175 19.815L95.9125 19.7918L95.8998 17.9941L92.6048 18.0173L92.6175 19.815ZM91.7038 17.722L91.7123 18.9225L93.51 18.9098L93.5015 17.7093L91.7038 17.722ZM90.7986 16.8295C91.295 16.826 91.7003 17.2256 91.7038 17.722L93.5015 17.7093C93.491 16.2201 92.2752 15.0213 90.7859 15.0318L90.7986 16.8295ZM68.6143 16.986L90.7986 16.8295L90.7859 15.0318L68.6016 15.1882L68.6143 16.986Z" fill="#5C3BFE" mask="url(#path-6-inside-1_6652_10578)"/>
<path fill-rule="evenodd" clip-rule="evenodd" d="M77.8641 10.9258C76.8713 10.9328 76.0721 11.7433 76.0791 12.7362L76.1087 16.9338L83.303 16.883L83.2734 12.6855C83.2664 11.6926 82.4559 10.8934 81.463 10.9004L77.8641 10.9258ZM78.1723 12.0229C77.6759 12.0264 77.2763 12.4317 77.2798 12.9281L77.2896 14.3279C77.2931 14.8243 77.6984 15.2239 78.1948 15.2204L81.1934 15.1992C81.6898 15.1957 82.0894 14.7905 82.0859 14.294L82.076 12.8943C82.0725 12.3978 81.6672 11.9983 81.1708 12.0018L78.1723 12.0229Z" fill="#5C3BFE"/>
<rect x="57.0664" y="37.7529" width="45.8652" height="6.08235" transform="rotate(-0.404092 57.0664 37.7529)" stroke="#5C3BFE"/>
<path d="M57.2852 76.3574L102.879 76.3574" stroke="#5C3BFE"/>
<path d="M85 66L103 66" stroke="#5C3BFE"/>
<path d="M57.418 83.6421L103.012 83.6421" stroke="#5C3BFE"/>
<path d="M57.418 90.6421L103.012 90.6421" stroke="#5C3BFE"/>
<path fill-rule="evenodd" clip-rule="evenodd" d="M62.8017 63.1983L62.8017 69L70.1982 69L70.1982 63.1983L76 63.1983L76 55.8018L70.1983 55.8018L70.1983 50L62.8017 50L62.8017 55.8018L57 55.8018L57 63.1983L62.8017 63.1983Z" stroke="#5C3BFE"/>
</g>
<defs>
<clipPath id="clip0_6652_10578">
<rect width="160" height="160" fill="white"/>
</clipPath>
</defs>
</svg>
