<svg width="492" height="227" viewBox="0 0 492 227" fill="none" xmlns="http://www.w3.org/2000/svg">
<path d="M46.6378 96.9317C29.1565 101.093 14.557 158.575 11.7031 167.85H277.473V6.60382C272.122 32.6457 268.874 47.9855 262.134 70.1317C256.449 88.8105 243.983 118.859 224.492 118.859C202.565 118.859 190.778 100.082 185.093 92.7724C177.784 83.8391 168.456 70.1317 153.838 70.1317C139.22 70.1317 128.162 84.4759 120.146 94.4953C110.401 106.677 103.293 118.859 87.4641 118.859C71.6352 118.859 63.4302 92.9346 46.6378 96.9317Z" fill="url(#paint0_linear_6652_9791)"/>
<path d="M11.7031 167.85C14.557 158.574 29.1565 101.093 46.6378 96.9317C63.4302 92.9346 71.6352 118.859 87.4641 118.859C103.293 118.859 110.401 106.677 120.146 94.4953C128.162 84.4759 139.22 70.1317 153.838 70.1317C168.456 70.1317 177.784 83.8391 185.093 92.7724C190.778 100.082 202.565 118.859 224.492 118.859C243.983 118.859 256.449 88.8105 262.134 70.1317C266.587 55.5 269 43 271 33" stroke="#FECB2F" stroke-width="2"/>
<path d="M9.5625 2.50002V167.85H437.5" stroke="#FECB2F" stroke-width="2" stroke-linecap="round" stroke-linejoin="round"/>
<path d="M433 158.931L439.421 167.493L433 176.055" stroke="#FECB2F" stroke-width="2" stroke-linecap="round" stroke-linejoin="round"/>
<path d="M264 37.3448L271.074 31.9479L276.171 39.2406" stroke="#FECB2F" stroke-width="2" stroke-linecap="round" stroke-linejoin="round"/>
<path d="M1 7.4213L9.56173 0.999999L18.1235 7.42129" stroke="#FECB2F" stroke-width="2" stroke-linecap="round" stroke-linejoin="round"/>
<circle cx="91.1232" cy="118.014" r="5.93182" fill="#FECB2F"/>
<circle cx="154.151" cy="69.6178" r="5.93182" fill="#FECB2F"/>
<path d="M154 73V167.5" stroke="#FECB2F" stroke-width="2" stroke-linecap="round" stroke-dasharray="6 12"/>
<path d="M91 119L91 167" stroke="#FECB2F" stroke-width="2" stroke-linecap="round" stroke-dasharray="6 12"/>
<path d="M442.046 116.587C437.474 134.476 424.64 147.929 408.748 154.117C404.525 155.763 401.498 159.175 400.331 163.53L397.109 175.557C395.469 181.675 389.647 185.56 383.558 185.04C382.804 184.949 382.05 184.858 381.324 184.664L354.97 177.602C354.244 177.407 353.441 177.081 352.743 176.783C347.21 174.189 344.214 167.941 345.853 161.824L349.076 149.796C350.215 145.545 349.327 140.973 346.466 137.539C335.901 124.262 331.456 106.402 336.151 88.8793C343.986 59.6402 373.977 42.3387 403.236 50.1787C432.391 57.9909 449.541 87.3679 442.046 116.587Z" fill="#FECB2F" stroke="#FECB2F" stroke-width="2" stroke-miterlimit="10"/>
<path d="M382.377 185.502L375.954 209.474C375.036 212.898 371.518 214.959 368.136 214.053L349.996 209.192C346.614 208.286 344.598 204.743 345.516 201.318L351.939 177.346C351.995 177.138 352.05 176.931 352.078 176.827C352.768 177.123 353.457 177.419 354.277 177.639L380.308 184.614C381.025 184.806 381.873 184.922 382.516 184.983C382.46 185.19 382.432 185.294 382.377 185.502Z" stroke="#FECB2F" stroke-width="2" stroke-miterlimit="10"/>
<path d="M350.344 183.293C350.344 183.293 374.155 193.3 378.182 201.149" stroke="#FECB2F" stroke-width="2" stroke-miterlimit="10"/>
<path d="M347.312 194.611C347.312 194.611 371.275 204.054 375.584 210.85" stroke="#FECB2F" stroke-width="2" stroke-miterlimit="10"/>
<path d="M386.107 61.18C387.819 63.6766 387.804 67.2303 386.083 71.1182C384.371 74.9869 381.026 79.0168 376.422 82.2351C371.818 85.4534 366.905 87.1956 362.716 87.4521C358.506 87.71 355.206 86.4725 353.495 83.976C351.783 81.4795 351.797 77.9257 353.518 74.0379C355.231 70.1692 358.575 66.1392 363.18 62.9209C367.784 59.7026 372.697 57.9605 376.886 57.7039C381.096 57.4461 384.395 58.6835 386.107 61.18Z" fill="white" stroke="white" stroke-width="2"/>
<path d="M315 4.00002L344.5 41.5" stroke="#FECB2F" stroke-width="2" stroke-linecap="round"/>
<path d="M491 96H457.5" stroke="#FECB2F" stroke-width="2" stroke-linecap="round"/>
<path d="M476.5 69.5L456.5 77" stroke="#FECB2F" stroke-width="2" stroke-linecap="round"/>
<path d="M469 133.5L454 125" stroke="#FECB2F" stroke-width="2" stroke-linecap="round"/>
<path d="M301 61.5L329.5 73.5" stroke="#FECB2F" stroke-width="2" stroke-linecap="round"/>
<path d="M354.039 8.00002L362.299 31.5962" stroke="#FECB2F" stroke-width="2" stroke-linecap="round"/>
<defs>
<linearGradient id="paint0_linear_6652_9791" x1="12" y1="110" x2="302.5" y2="110" gradientUnits="userSpaceOnUse">
<stop stop-color="white"/>
<stop offset="0.710922" stop-color="white" stop-opacity="0"/>
</linearGradient>
</defs>
</svg>
