<svg width="72" height="72" viewBox="0 0 72 72" fill="none" xmlns="http://www.w3.org/2000/svg">
<g clip-path="url(#clip0_6652_9954)">
<rect width="72" height="72" fill="white"/>
<path d="M0 11.1745C0 8.45988 2.20061 6.25928 4.91519 6.25928H60.8255C63.5401 6.25928 65.7407 8.45989 65.7407 11.1745V67.0848C65.7407 69.7994 63.5401 72 60.8255 72H4.91519C2.20061 72 0 69.7994 0 67.0848V11.1745Z" fill="#EFEBFF"/>
<path d="M5.25781 5.91519C5.25781 3.20061 7.45842 1 10.173 1H66.0834C68.7979 1 70.9986 3.20061 70.9986 5.9152V61.8255C70.9986 64.5401 68.7979 66.7407 66.0834 66.7407H10.173C7.45842 66.7407 5.25781 64.5401 5.25781 61.8255V5.91519Z" stroke="#5C3BFE"/>
<path d="M28.1724 37.3344C28.1724 40.0038 28.1724 43.0884 28.1724 46.2917C26.63 46.2917 25.2064 46.2917 23.6641 46.2917C23.6641 37.9869 23.6641 29.7415 23.6641 21.3181C27.6978 20.7249 31.7315 20.2503 35.706 21.5554C38.7906 22.5638 40.4515 24.9366 40.5702 28.1992C40.6888 31.9956 39.3245 34.9023 35.9432 36.0887C33.6298 36.8599 30.9011 36.8599 28.1724 37.3344ZM28.1724 33.182C30.0113 33.182 31.7909 33.36 33.2739 32.9448C35.4094 32.3516 36.1805 30.394 35.9432 28.0806C35.7653 26.123 34.5789 24.7586 30.8417 24.818C30.1299 24.818 28.2317 25.1739 28.1724 25.5298C28.113 27.9619 28.1724 30.1567 28.1724 33.182Z" fill="#5C3BFE"/>
<path d="M52.5534 31.8169C50.7739 31.461 49.9434 31.0457 47.8672 30.9864C46.6808 30.9864 45.969 31.6389 46.0283 32.766C46.0283 33.4778 46.9774 34.1897 47.6299 34.6049C48.757 35.3167 50.062 35.6727 51.2484 36.2659C53.3839 37.3929 54.3924 39.1725 54.1551 41.6046C53.9178 43.9181 52.6721 45.4011 50.5366 46.1723C47.3926 47.24 44.308 47.062 41.1641 45.5197C41.4607 44.3927 41.7573 43.3842 41.9945 42.5538C44.2487 43.1469 45.5537 43.3842 47.3926 43.3842C48.6383 43.3842 49.5875 42.969 49.8247 41.7233C50.062 40.4776 49.1722 39.825 48.1638 39.3505C46.9774 38.8166 45.6724 38.4014 44.486 37.7488C42.6471 36.7404 41.52 35.2574 41.6979 33.0033C41.8759 30.7491 43.1216 29.1475 45.1978 28.317C47.6299 27.3086 50.1807 27.4272 52.5534 28.3763C53.6212 28.7916 53.3839 28.5543 53.1466 29.5627C53.028 30.2746 52.7314 31.1644 52.5534 31.8169Z" fill="#5C3BFE"/>
</g>
<defs>
<clipPath id="clip0_6652_9954">
<rect width="72" height="72" fill="white"/>
</clipPath>
</defs>
</svg>
