<svg fill="none" height="126" viewBox="0 0 151 126" width="151" xmlns="http://www.w3.org/2000/svg" xmlns:xlink="http://www.w3.org/1999/xlink"><linearGradient id="a"><stop offset=".0837" stop-color="#305f76"/><stop offset=".4391" stop-color="#29485a"/><stop offset=".9409" stop-color="#1f2b36"/></linearGradient><linearGradient id="b" gradientUnits="userSpaceOnUse" x1="36.45" x2="58.9274" xlink:href="#a" y1="47.2094" y2="23.2567"/><linearGradient id="c" gradientUnits="userSpaceOnUse" x1="25.21" x2="63.2589" xlink:href="#a" y1="12.3997" y2="12.3997"/><path d="m146.662 65.1603-16.966-11.7471-16.426-7.381-15.26 7.893 16.725 8.1206 17.009 11.6333z" fill="#fff" fill-opacity=".2"/><path d="m132.54 67.9047-.256-17.962 3.058-24.632 14.25-8.9738 1.408.9101-17.052 51.5679z" fill="#fae35a"/><path d="m135.342 25.3106 1.408.896-3.058 24.632.256 17.9762-1.408-.9102-.256-17.962z" fill="#b37a00"/><path d="m133.948 68.8151-.256-17.9763 3.058-24.6319 14.25-8.9597-3.157 24.7173.327 17.4358z" fill="#4b452f"/><path clip-rule="evenodd" d="m29.7741 13.9482 53.9998 31.43 48.5531 27.4621c2.176 1.223 2.19 4.3518.028 5.6033l-20.195 11.7187c-.432.251-.852.4971-1.262.7369-4.996 2.9272-8.365 4.9009-13.1379 3.1479l-12.706 7.2359-16.9949-11.6186-16.7389-8.1206 12.6147-6.5188-61.09673-34.7809c-3.114553-1.9768-4.84961-5.6033 1.20883-10.9222 18.0047-15.843 25.727-15.3737 25.727-15.3737z" fill="#fff" fill-opacity=".2" fill-rule="evenodd"/><path d="m56.724 4.97424-30.8611 17.66336-.1707.0995-8.277.2845-1.0524.0426-.8533.0427-2.503.0853 2.4461-1.9199.0853-.0569 16.2127-9.2014c3.3564-1.9057 6.9829-3.31367 10.7659-4.13853z" fill="#e0b72f"/><path d="m35.1639 10.7479 15.1177-3.01502 6.286-2.6879-17.6776 3.78297c-.0142 0-3.4416.89596-3.7261 1.91995z" fill="#cfa92b"/><path d="m28.3518 20.319-10.5099-.4551-2.4034 1.3937v1.4791h9.7703z" fill="#cfa92b"/><path d="m45.1336 35.1952-1.9341 16.81-26.9359-17.1514-5.4042-4.238s.3697-3.2995 1.1235-5.5749c.2986-.8249.6257-1.536 1.0097-1.8773.9529-.8533 2.5172-.9528 3.4701-.896.4978.0143.8391.0712.8391.0712l8.5614.2986.7111.0284z" fill="#b37a00"/><path d="m72.454 74.1198 7.6228-5.8452s-4.4514-2.3608-4.6362-2.3466c-.1707.0143-2.5457 1.1947-2.5457 1.1947s-3.4274 2.9296-.4409 6.9971z" fill="#211e1e"/><path d="m84.3005 84.189-9.941-16.6678 5.1909-3.0008.0142.0143c1.2515-.6827 2.9582-.5547 4.8496.5262 3.8257 2.2043 6.926 7.509 6.926 11.8466 0 2.0764-.7111 3.5554-1.8773 4.295v.0142l-.0995.0569c-.0285.0142-.0569.0284-.0853.0427z" fill="#000"/><path d="m76.1512 68.5596 7.054-4.0674c.3982.1422.7964.3271 1.2231.5689 3.8256 2.2043 6.9259 7.509 6.9259 11.8466 0 .7964-.1137 1.5075-.2986 2.1191l-5.4185 3.1287c-.5973-.1706-1.2088-.4266-1.8488-.7964-.7111-.4124-1.3937-.9244-2.0337-1.4933l-5.2194-8.7605c-.2417-.8533-.3697-1.7209-.384-2.5457z" fill="#1f1f1f"/><path d="m72.4681 71.8448c0 4.3377 3.1004 9.6423 6.926 11.8467s6.926.4693 6.926-3.8683-3.1004-9.6423-6.926-11.8467c-3.8399-2.2043-6.926-.4693-6.926 3.8683z" fill="#2a2a2a"/><path d="m72.7236 72.0004c0 4.167 2.9724 9.2726 6.6558 11.3916 3.6692 2.119 6.6557.4551 6.6557-3.7261 0-4.167-2.9723-9.2725-6.6557-11.3916-3.6692-2.119-6.6558-.4551-6.6558 3.7261z" fill="#1d1d1d"/><path d="m74.2321 72.854c0 3.2426 2.3181 7.1962 5.1624 8.8459 2.8586 1.6498 5.1625.3414 5.1625-2.887 0-3.2425-2.3181-7.1961-5.1625-8.8459-2.8585-1.6497-5.1624-.3555-5.1624 2.887z" fill="#3b3b3b"/><path d="m74.5735 73.0528c0 3.015 2.1617 6.7126 4.8211 8.2486 2.6595 1.5359 4.8212.3271 4.8212-2.7022 0-3.015-2.1617-6.7126-4.8212-8.2486-2.6594-1.5217-4.8211-.3128-4.8211 2.7022z" fill="#727272"/><path d="m79.4512 70.3939c2.631 1.5502 4.7501 5.2051 4.7501 8.2059 0 .4267-.0427.8249-.128 1.1662l-3.5128 2.0337c-.3698-.1138-.768-.2702-1.1662-.4977-2.6168-1.5075-4.7358-5.0914-4.8069-8.0922z" fill="#a9a9a9"/><path d="m82.0816 72.8541c.9386 1.2658 1.6355 2.7733 1.9484 4.2239l-5.8309 3.3705c-1.1378-.9813-2.1048-2.3181-2.759-3.7545z" fill="#e9eae7"/><path d="m82.0816 72.8541c.9386 1.2658 1.6355 2.7733 1.9484 4.2239l-5.8309 3.3705c-1.1378-.9813-2.1048-2.3181-2.759-3.7545z" fill="#e9eae7"/><path d="m76.1235 73.0109c0 2.4035 1.7066 5.3331 3.8257 6.5562 2.119 1.2231 3.8256.256 3.8256-2.1475s-1.7208-5.3331-3.8256-6.5562c-2.1191-1.2231-3.8257-.256-3.8257 2.1475z" fill="#4d4d4d"/><path d="m76.7916 73.1669c0 2.0621 1.4649 4.5794 3.2852 5.6175 1.8204 1.0382 3.2852.2276 3.2852-1.8346 0-2.0621-1.4648-4.5793-3.2852-5.6175-1.8203-1.0524-3.2852-.2276-3.2852 1.8346z" fill="#949494"/><g fill="#727272"><path d="m81.7829 72.8397c.0427-.0711.1138-.1138.1849-.1565.1991.2418.3697.512.5404.7822-.1565.0569-.3271.0569-.4835 0-.2987-.1137-.3983-.3982-.2418-.6257z"/><path d="m76.8341 74.7875c-.2134-.2845-.1707-.5405.0995-.5547.2702-.0284.6827.1849.896.4836.2133.2844.1706.5404-.0996.5546s-.6826-.1991-.8959-.4835z"/><path d="m82.5938 77.021c-.0712-.3413.0995-.4835.3839-.2986.2845.1849.5689.6115.64.9529.0711.3413-.0995.4693-.384.2986-.2702-.1849-.5688-.6115-.6399-.9529z"/><path d="m78.3703 70.9482c.0995-.2844.3271-.2418.5119.0711.1849.3129.256.8107.1565 1.0809-.0996.2844-.3271.2417-.512-.0711-.1849-.3129-.256-.7964-.1564-1.0809z"/><path d="m82.637 74.6459c-.256-.2276-.2702-.512-.0284-.6115.0569-.0285.128-.0427.2133-.0427.1564.2987.2986.6115.4266.9102-.2133 0-.4408-.0996-.6115-.256z"/><path d="m82.7781 78.813c-.0427.3128-.2702.3271-.4978.0426-.2275-.2844-.3697-.768-.3271-1.0808.0427-.3129.2702-.3271.4978-.0427.2275.2844.3697.768.3271 1.0809z"/><path d="m82.8357 75.9117c-.1849-.3129-.0996-.5404.1991-.4977.1422.0142.3128.0995.4693.2275.0853.3129.1564.6258.2133.9244h-.0142c-.2986-.0427-.6826-.3413-.8675-.6542z"/><path d="m77.4602 76.5517c-.2702-.1848-.327-.4693-.1137-.6257.2133-.1707.6115-.1422.8817.0427s.3271.4693.1138.6257-.5973.1422-.8818-.0427z"/><path d="m79.5644 78.5854c-.0143-.3413.1706-.6969.4266-.7822.2418-.0996.4551.0995.4551.4409.0142.3413-.1707.6968-.4267.7822-.2417.0995-.455-.0996-.455-.4409z"/><path d="m81.5549 78.2726c.128.3412.0996.7962-.0568 1.0237-.1565.2276-.3983.128-.5263-.2133-.128-.3412-.0995-.7962.0569-1.0237.1565-.2275.3982-.128.5262.2133z"/><path d="m78.2696 77.4762c.1138-.2702.4267-.4551.7111-.4124s.4267.3129.3129.5831-.4267.4551-.7111.4124c-.2844-.0426-.4267-.3128-.3129-.5831z"/><path d="m77.8295 72.8539c-.2702-.2276-.4977-.6969-.512-1.0382-.0142-.3413.1707-.4266.4409-.1849.2702.2276.4978.6969.512 1.0382s-.1707.4267-.4409.1849z"/><path d="m81.5554 72.1997c-.1138.1849-.2702.3271-.4551.3413-.2702.0284-.4551-.1991-.4124-.512.0284-.1706.1138-.3271.2275-.4551.2276.1991.4409.4124.64.6258z"/><path d="m77.0762 72.8396c.2986.0995.64.4692.7822.7962.1422.3413.0142.5261-.2845.4124-.2986-.0996-.6399-.4692-.7822-.7963-.1422-.327-.0142-.5119.2845-.4123z"/><path d="m80.2468 71.0619c.0143.0285.0143.0427.0285.0712.0853.3555-.0142.7679-.2134.9386-.1991.1707-.4266.0284-.5119-.3271-.0854-.3555.0142-.768.2133-.9386.0142-.0143.0142 0 .0285-.0143.0426.0285.0995.0427.1422.0711.1137.0569.2133.128.3128.1991z"/><path d="m78.3 73.9067c0 1.28.9102 2.8301 2.0337 3.4843 1.1236.64 2.0338.1422 2.0338-1.1377 0-1.28-.9102-2.8301-2.0338-3.4843-1.1235-.6542-2.0337-.1422-2.0337 1.1377z"/></g><path d="m79.764 72.5409c.1849.0427.3698.1138.5689.2275 1.1235.64 2.0337 2.2044 2.0337 3.4844 0 .3413-.0711.6257-.1849.8532l-1.8488-.3839c-.7253-.6258-.8107-1.3369-1.2373-2.2471z" fill="#a9a9a9"/><path d="m79.7222 75.9121c-.1422-.256-.2417-.5261-.3555-.8105.7822-.2986 1.5075-.7252 2.1333-1.2514.3413.4693.5972 1.0239.7395 1.5642-.8818.0142-1.7208.1991-2.5173.4977z" fill="#dcded9"/><path d="m78.3 74.8312c0 .9102.64 2.0195 1.4506 2.4746.7965.4551 1.4507.0995 1.4507-.8106 0-.9102-.64-2.0195-1.4507-2.4746-.7964-.4551-1.4506-.0996-1.4506.8106z" fill="#c4c4c4"/><path d="m78.7401 75.3861c0 .4977.3556 1.095.7822 1.3368.4267.2418.7822.0569.7822-.4409 0-.4977-.3555-1.095-.7822-1.3368-.4266-.256-.7822-.0569-.7822.4409z" fill="#4d4d4d"/><path d="m84.3003 84.1891 3.0435-1.7635c.0284-.0142.0569-.0284.0853-.0426l.0996-.0569c1.1661-.7395 1.8772-2.2044 1.8772-4.295 0-4.3376-3.1003-9.6423-6.9259-11.8466-1.8915-1.0951-3.6123-1.2089-4.8496-.5262v-.0143l.3413-.1991.0142.0143c1.2515-.6827 2.9581-.5547 4.8496.5262 3.8256 2.2043 6.9118 7.509 6.9118 11.8466 0 2.0764-.7111 3.5555-1.8773 4.295l-.0996.0569c-.0284.0142-.0569.0284-.0853.0426z" fill="#000"/><path d="m84.3005 84.1888 1.4932-.8675c.0285-.0142.0569-.0285.0854-.0427l.0995-.0569c1.1662-.7395 1.8773-2.2043 1.8773-4.2949 0-4.3376-3.1004-9.6423-6.926-11.8467-1.8915-1.0951-3.6123-1.2089-4.8496-.5262v-.0142l.3413-.1991.0143.0142c1.2515-.6827 2.9581-.5546 4.8495.5262 3.8257 2.2044 6.926 7.509 6.926 11.8467 0 2.0763-.7111 3.5554-1.8772 4.2949l-.0996.0569c-.0284.0142-.0569.0284-.0853.0427z" fill="#000"/><path d="m107.795 69.6544-4.082-2.304c.1.5262-3.086-1.1092-4.7355-2.0479-.0854-.0711-.1707-.1137-.2418-.1564l-.1564-.0711-50.4301-22.4276-1.5929-.9387-.0284-.0284c-.128.1138-.256.2418-.3698.3413-.6257.6542-1.7208.4409-2.631.2987-.4835-.0711-.896-.128-1.1946-.0285-.0711.0285-.1138.0427-.1565.0711-.1706.1138-.2844.2987-.2844.6258v8.0352l1.3511 3.1573s1.3084.0711 2.0479 1.8203c.5262 1.28 26.0399 17.45 27.1492 18.0616-.1138-.7538-.2987-1.6782-.2987-2.4746.0285-.9386-.1137-1.8488.3414-2.6879.1137-.2133.2844-.3413.4835-.384 1.1946-2.1759 3.783-2.6737 6.7553-.9528 3.9536 2.2754 7.1962 7.6086 7.4806 12.1879 0 .2134.0285.4409.0285.6258 0 .7538-.1138 1.4506-.256 2.0621l1.3652.5263 3.015.9813 2.0906.6684-.128-14.2502z" fill="#b37a00"/><path d="m71.5722 72.7403c-.0711-.7822-.1564-1.8489.128-2.6026.0142-.0569.3982-1.664.4267-1.7066-8.917-3.9252-62.0066-39.2946-62.1204-39.5363.0285.1706-1.18039 7.9783 2.6168 10.5383.2987.1991 1.1093.8533 1.9484 1.3937 3.1145 2.0052 10.1258 3.8683 17.7202 8.2486 16.8812 9.7418 38.4697 24.0915 39.4225 24.6177-.0711-.3129-.1137-.64-.1422-.9528z" fill="#2d2d2d"/><path d="m11.5838 26.7332-1.1804 1.4364c-.69689.8533-.54044 2.119.3413 2.7874l4.9207 3.6692 1.0809-1.6213-4.2665-2.503c-.8534-.4977-1.3085-1.4648-1.152-2.4319.0711-.3698.1422-.8106.256-1.3368z" fill="#646464"/><path d="m80.8024 65.9706c-3.527-2.0195-7.1962-.9956-8.5188 1.6923.5404-.4124 1.7492-1.1519 2.247-1.5217.6542-.4835 1.2942-.3982 1.7919-.0426 1.2231-.2702 1.6213.1564 3.2284 1.0666 4.1385 2.3892 8.5614 7.9499 8.5614 12.6573 0 .3698-.0284.7111-.0569 1.0382-.0426.3271.3556 1.8346.2845 2.1332 0 0 .583-.7822.8533-1.1946.0853-.4978.1991-.5546.1991-1.1377 0-5.3758-3.8399-11.9462-8.5899-14.691z" fill="#646464"/><path d="m88.4676 81.3592c0 .5831-.0427 1.1377-.1422 1.6355-.8249-.2987-1.3795-.512-1.3795-.512.0711-.2987.1422-.6115.1706-.9386.0427-.3271.0569-.6685.0569-1.0382 0-4.7074-3.3563-10.4387-7.4948-12.828-1.8204-1.0382-3.4701-1.2657-4.7643-.7964-1.6639.5973-2.7306 2.3466-2.7306 4.9918 0 .7253.0854 1.4648.2418 2.2328l-.9813-.5546c-.1138-.6969-.1706-1.3938-.1706-2.0764 0-5.39 3.8398-7.5375 8.5899-4.8069 4.7642 2.7305 8.6041 9.3152 8.6041 14.691z" fill="#2d2d2d"/><path d="m118.659 67.7918c.086-.0284.2-.0569.342-.128l-.299.1707z" fill="#829aa9"/><path d="m131.416 60.4957-.17.0995-.171.0996-.043-.0427c.072-.0284.214-.0853.384-.1564z" fill="#829aa9"/><path d="m129.781 30.4164-.455-.2418.015-.0142-46.7898-27.4194c-4.0531-2.360803-8.8316-3.299434-13.4395-2.389246-2.0905.412429-3.9394 1.095066-5.8735 1.720826l-25.144 14.54882 63.1448 30.2637c0-.0142 28.542-16.5113 28.542-16.4687z" fill="#fae35a"/><path d="m76.123.323547c-2.2896-.42665-4.6647-.44088-6.9828.014214-2.0906.412429-3.9394 1.095069-5.8736 1.720819l-25.1724 14.56302.2845.1422 10.1969-.7111z" fill="#f2d944"/><path d="m42.1756 14.2607s3.1288-1.7066 6.3998 1.7919l-11.7756 1.2231z" fill="#cfa92b"/><path d="m101.238 46.8711 1.649 8.4051 1.508 12.5577-11.8468-4.8638-45.3956-26.8079 6.7695-16.9522z" fill="#c7a22a"/><path d="m101.537 76.6511-58.0107-32.7099-.5689-.3271-.8248-.4551-.2276-.1279-16.2269-20.2944 73.0568 42.4233v.0142z" fill="#b37a00"/><path d="m46.5849 15.4417 1.9768.6115 24.888 14.6483-1.7351 6.5562-25.5421-15.0892-9.2014-4.6931c.0142 0 5.3331-3.7688 9.6138-2.0337z" fill="#c7a22a"/><path d="m51.6609 24.8847-11.5906-9.1587-14.8617 7.0112 22.257 12.6147z" fill="#c7a22a"/><path d="m60.8346 36.205-.7254 1.9057-3.0434-1.7777 3.4132-8.917 1.1377.6684-2.6879 7.0255z" fill="#c1d6d6"/><path d="m66.9213 36.617c-.9955 2.6026-2.7875 3.9678-4.1812 3.1572-1.3795-.8107-1.6639-3.3706-.6684-5.9873.9955-2.6026 2.7732-3.9252 4.1527-3.1146 1.3937.8106 1.6924 3.3563.6969 5.9447zm-3.6834-2.1475c-.5689 1.5075-.4409 3.0008.256 3.399.6968.3982 1.6923-.4409 2.2612-1.9342.5831-1.5075.4551-2.9581-.2275-3.3705-.7111-.3982-1.7209.4124-2.2897 1.9057z" fill="#c1d6d6"/><path d="m71.4293 39.1628-1.3368 3.4843c-.7395.3982-1.6782.4409-2.3039.0711-1.3653-.7964-1.6497-3.3563-.6542-5.9589.9955-2.5883 2.8017-3.9252 4.2096-3.1003.6684.384 1.1804 1.3084 1.3226 2.3892l-1.2373 1.1662c-.0995-.7964-.4124-1.4221-.8248-1.6639-.7396-.4267-1.7351.384-2.3182 1.8772-.5831 1.5218-.4551 3.0008.2987 3.4275.2275.128.5831.1422.9671.0284l.8817-2.3039z" fill="#c1d6d6"/><path d="m70.4763 44.1544 3.4132-8.917 1.1378.6684-3.4132 8.917z" fill="#c1d6d6"/><path d="m79.0814 39.3618-1.1093 1.5217c-.2702-.8249-.7111-1.5502-1.0809-1.7635-.2986-.1707-.5688-.0711-.7395.3555-.5973 1.536 2.1191 2.0479.8818 5.2763-.6827 1.7777-1.8346 2.2612-2.8444 1.6781-.7537-.4408-1.3084-1.4506-1.5075-2.631l1.1093-1.4932c.1565 1.0666.64 2.0052 1.1093 2.2896.3556.2134.6827.0711.8818-.4408.6115-1.5786-2.1333-2.0195-.9102-5.1767.6257-1.6498 1.735-2.2755 2.8159-1.6497.6542.384 1.1662 1.1519 1.3937 2.0337z" fill="#c1d6d6"/><path d="m81.4412 41.8649-2.7163 7.0967-1.1377-.6685 2.7163-7.0966-1.3368-.7822.6968-1.8346 3.8399 2.2328-.6969 1.8346z" fill="#c1d6d6"/><path d="m80.5453 50.0279 3.4132-8.917 1.1377.6684-3.4132 8.917z" fill="#c1d6d6"/><path d="m89.3623 46.0036-1.2515 1.1662c-.0143-.8818-.2845-1.5929-.6827-1.8204-.7111-.4124-1.6781.3982-2.247 1.863-.5689 1.4933-.4693 2.9439.2418 3.3564.3839.2275.967.0711 1.5217-.384l.128 1.7919c-.8533.6969-1.8204.9386-2.4746.5546-1.3511-.7964-1.6071-3.3563-.5973-5.9731.9813-2.5741 2.759-3.9109 4.1243-3.1145.6826.3982 1.1519 1.3795 1.2373 2.5599z" fill="#c1d6d6"/><path d="m93.5863 47.8092-1.1093 1.5217c-.2702-.8249-.7111-1.5502-1.0809-1.7635-.2986-.1707-.583-.0711-.7395.3555-.5973 1.536 2.119 2.0479.8818 5.2763-.6827 1.7777-1.8346 2.2612-2.8444 1.6781-.7537-.4408-1.3084-1.4506-1.5075-2.631l1.1093-1.4933c.1565 1.0667.64 2.0053 1.1093 2.2897.3555.2134.6826.0711.8817-.4408.6116-1.5786-2.1332-2.0195-.9244-5.1767.6258-1.6497 1.7351-2.2755 2.8159-1.6498.6684.384 1.1804 1.1662 1.408 2.0338z" fill="#c1d6d6"/><path d="m41.2092 35.3659-3.4132-2.1902.1138-.512c.0995-.4551.5547-.7679.9671-.455 0 0 1.5075.967 2.0906 1.4648.5546.4693.2417 1.6924.2417 1.6924z" fill="#995b00"/><path d="m36.6568 18.0724 9.0023 5.134-1.4222 10.581-15.5158-8.917 1.7208-3.8114z" fill="url(#b)"/><path d="m104.396 67.8337v18.6873l-1.408 2.1474-12.9703-5.1624 2.0906-22.0437z" fill="#b37a00"/><path d="m101.537 90.6028-13.2121-7.5943-1.3795-.512c.1707-.6116.2702-1.3084.2702-2.0764 0-.2133-.0284-3.4416-.0426-3.655l17.578 9.8983c-.014.128-.114 1.7635-.498 2.887-.37 1.1093-1.678 1.6213-2.716 1.0524z" fill="#2d2d2d"/><path d="m129.738 30.3884-28.5 16.4829v.0853l3.157 20.8775v18.6873l1.75.4551 22.527-12.2165 3.939-4.7216.313-18.6873z" fill="#f3d052"/><path d="m104.396 86.5212 29.283-16.9238-.598 2.4319c-.355 1.4648-.227 2.1474-1.536 2.9012 0 0-3.655 2.9723-10.709 6.8691-14.563 8.0637-17.563 8.8316-17.563 8.8316z" fill="#3a3a3a"/><path d="m104.395 67.834 28.528-16.483v18.6873l-28.528 16.483z" fill="#f1c435"/><path d="m106.03 72.3276v3.0577l-.028 1.5928v5.319l-.043-.0285c-.157.128-.299.2987-.455.4551-.413.4409-.782.5689-1.109.5831v-13.1693c.412.4409 1.521 2.2044 1.635 2.1901z" fill="#820000"/><path d="m105.561 72.3991-.256 2.5314-.91-2.4603v-2.3182c.412.4267 1.166 2.2471 1.166 2.2471z" fill="#b10000"/><path d="m105.461 75.7551-.028.896-.043 3.6692c0 .8106-.398 1.5217-.995 1.9768v-4.8496l.128.0853.085-1.351.071-.7538v-.1564l.157.0853z" fill="#b10000"/><path d="m104.679 75.2716v.1565l-.057.7679-.099 1.3369-.128-.0853v-3.1288z" fill="#ef8800"/><path d="m131.174 55.6459v3.0577l.029 1.5928v5.3189l.042-.0284c.157.1279.299.2986.456.455.412.4409.782.5689 1.109.5831v-13.1693c-.427.4551-1.536 2.2186-1.636 2.1902z" fill="#820000"/><path d="m131.63 55.7166.256 2.5315.91-2.4604v-2.3181c-.413.4409-1.166 2.247-1.166 2.247z" fill="#b10000"/><path d="m131.729 59.0878.028.896.043 3.6692c0 .8106.398 1.5217.995 1.9768v-4.8496l-.128.0854-.085-1.3511-.071-.7538v-.1564l-.157.0853z" fill="#b10000"/><path d="m132.512 58.6043v.1565l.071.7537.085 1.3511.128-.0853v-3.1288z" fill="#ef8800"/><path d="m102.76 72.3276v3.0577l.029 1.5928v5.319l.042-.0285c.157.128.299.2987.456.4551.412.4409.782.5689 1.109.5831v-13.1693c-.413.4409-1.522 2.2044-1.636 2.1901z" fill="#820000"/><path d="m103.23 72.3987.256 2.5315.91-2.4604v-2.3181c-.413.4266-1.166 2.247-1.166 2.247z" fill="#b10000"/><path d="m103.329 75.7551.029.896.043 3.6692c0 .8106.398 1.5217.995 1.9768v-4.8496l-.128.0853-.085-1.351-.071-.7538v-.1564l-.157.0853z" fill="#b10000"/><path d="m104.112 75.2716v.1565l.071.7679.085 1.3369.128-.0853v-3.1288z" fill="#ef8800"/><path d="m26.831 51.5644-9.941-16.6678 5.1909-3.0008.0143.0142c1.2515-.6826 2.9581-.5546 4.8496.5262 3.8256 2.2044 6.9259 7.5091 6.9259 11.8467 0 2.0764-.7111 3.5554-1.8772 4.2949v.0143l-.0996.0569c-.0284.0142-.0569.0284-.0853.0426z" fill="#000"/><path d="m18.6818 35.9349 7.0539-4.0674c.3982.1422.7964.3271 1.2231.5689 3.8256 2.2043 6.9259 7.509 6.9259 11.8466 0 .7965-.1137 1.5075-.2986 2.1191l-5.4185 3.1287c-.5973-.1706-1.2088-.4266-1.8488-.7964-.7111-.4124-1.3937-.9244-2.0337-1.4933l-5.2194-8.7605c-.2417-.8675-.3697-1.7208-.3839-2.5457z" fill="#1f1f1f"/><path d="m14.9984 39.2198c0 4.3377 3.1003 9.6423 6.9118 11.8467 3.8256 2.2044 6.9259.4693 6.9259-3.8683s-3.1003-9.6423-6.9259-11.8467c-3.8115-2.2043-6.9118-.4693-6.9118 3.8683z" fill="#2a2a2a"/><path d="m15.269 39.3769c0 4.167 2.9724 9.2726 6.6558 11.3916 3.6692 2.1191 6.6557.4409 6.6557-3.7261 0-4.1669-2.9723-9.2725-6.6557-11.3915-3.6834-2.1191-6.6558-.4551-6.6558 3.726z" fill="#1d1d1d"/><path d="m16.7625 40.2297c0 3.2425 2.3181 7.1961 5.1624 8.8458 2.8586 1.6498 5.1625.3414 5.1625-2.887 0-3.2425-2.3181-7.1961-5.1625-8.8458-2.8585-1.6498-5.1624-.3556-5.1624 2.887z" fill="#3b3b3b"/><path d="m17.1038 40.4293c0 3.015 2.1617 6.7126 4.8211 8.2486 2.6595 1.5359 4.8212.3271 4.8212-2.7022 0-3.015-2.1617-6.7126-4.8212-8.2485-2.6594-1.5217-4.8211-.3129-4.8211 2.7021z" fill="#727272"/><path d="m21.9815 37.7696c2.631 1.5502 4.75 5.2051 4.75 8.2059 0 .4266-.0426.8249-.128 1.1662l-3.5127 2.0337c-.3698-.1138-.768-.2702-1.1662-.4978-2.6168-1.5075-4.7358-5.0913-4.8069-8.0921z" fill="#a9a9a9"/><path d="m24.6117 40.2153c.9387 1.2657 1.6498 2.7732 1.9484 4.2238l-5.8309 3.3705c-1.1377-.9812-2.1048-2.3181-2.759-3.7545z" fill="#e9eae7"/><path d="m24.6117 40.2153c.9387 1.2657 1.6498 2.7732 1.9484 4.2238l-5.8309 3.3705c-1.1377-.9812-2.1048-2.3181-2.759-3.7545z" fill="#e9eae7"/><path d="m18.6537 40.3866c0 2.4034 1.7066 5.3331 3.8256 6.5562 2.1191 1.223 3.8257.256 3.8257-2.1475s-1.7209-5.3331-3.8257-6.5562c-2.119-1.2231-3.8256-.256-3.8256 2.1475z" fill="#4d4d4d"/><path d="m19.3217 40.5421c0 2.0622 1.4648 4.5794 3.2852 5.6176 1.8203 1.0382 3.2852.2275 3.2852-1.8346s-1.4649-4.5794-3.2852-5.6176c-1.8062-1.0524-3.2852-.2275-3.2852 1.8346z" fill="#949494"/><path d="m24.3127 40.2153c.0427-.0711.1138-.1138.1849-.1565.1991.2418.3698.512.5405.7822-.1565.0569-.3271.0569-.4836 0-.2844-.1138-.3982-.3982-.2418-.6257z" fill="#727272"/><path d="m19.364 42.1638c-.2133-.2845-.1707-.5405.0995-.5547.2702-.0284.6827.1849.896.4835.2133.2845.1707.5405-.0995.5547-.2703.0142-.6685-.1991-.896-.4835z" fill="#727272"/><path d="m25.1237 44.3819c-.0711-.3413.0995-.4835.3839-.2987.2845.1849.5689.6116.64.9529s-.0995.4693-.384.2986c-.2702-.1706-.5546-.5973-.6399-.9528z" fill="#727272"/><path d="m20.9007 38.3236c.0995-.2845.3271-.2418.512.0711.1848.3129.2559.8106.1564 1.0808-.0996.2845-.3271.2418-.5262-.0711-.1565-.3129-.2418-.7964-.1422-1.0808z" fill="#727272"/><path d="m25.1669 42.0212c-.256-.2276-.2702-.512-.0284-.6115.0569-.0285.128-.0427.2133-.0427.1564.2987.2987.6115.4266.9102-.2133 0-.4408-.0996-.6115-.256z" fill="#727272"/><path d="m25.308 46.1886c-.0427.3128-.2702.3271-.4978.0426-.2275-.2844-.3697-.7679-.3271-1.0808.0427-.3129.2703-.3271.4978-.0427s.3698.768.3271 1.0809z" fill="#727272"/><path d="m25.3657 43.2873c-.1849-.3129-.0995-.5404.1991-.4977.1422.0142.3129.0995.4693.2275.0854.3129.1565.6258.2134.9244h-.0143c-.2986-.0569-.6826-.3413-.8675-.6542z" fill="#727272"/><path d="m19.9903 43.9271c-.2702-.1849-.3271-.4693-.1138-.6258.2133-.1706.6115-.1422.8817.0427.2703.1849.3271.4693.1138.6257-.2133.1565-.5973.1423-.8817-.0426z" fill="#727272"/><path d="m22.0944 45.9607c-.0142-.3413.1707-.6969.4267-.7822.2417-.0996.455.0995.455.4409.0143.3413-.1706.6968-.4266.7822-.2418.0995-.4409-.0996-.4551-.4409z" fill="#727272"/><path d="m24.0849 45.6332c.128.3413.0996.7964-.0568 1.024-.1565.2275-.3982.128-.5262-.2134-.128-.3413-.0996-.7964.0569-1.0239.1706-.2276.3982-.128.5261.2133z" fill="#727272"/><path d="m20.8004 44.8368c.1137-.2702.4266-.4551.7111-.4125.2844.0427.4266.3129.3128.5831-.1137.2702-.4266.4551-.711.4124-.2703-.0426-.4125-.2986-.3129-.583z" fill="#727272"/><path d="m20.3596 40.2296c-.2703-.2276-.4978-.6969-.512-1.0382-.0143-.3413.1706-.4267.4408-.1849.2702.2275.4978.6969.512 1.0382.0285.3271-.1706.4124-.4408.1849z" fill="#727272"/><path d="m24.0854 39.5746c-.1137.1849-.2702.3272-.455.3414-.2703.0284-.4552-.1991-.4125-.512.0285-.1707.1138-.3271.2276-.4551.2275.1991.4408.3982.6399.6257z" fill="#727272"/><path d="m19.606 40.2153c.2986.0996.6399.4694.7822.7965.1422.3413.0142.5262-.2845.4124-.2986-.0996-.64-.4693-.7822-.7964s-.0142-.5262.2845-.4125z" fill="#727272"/><path d="m22.7922 38.4229c.0143.0284.0143.0426.0285.0711.0853.3555-.0142.768-.2133.9386-.1991.1707-.4267.0285-.512-.3271-.0854-.3555.0142-.768.2133-.9386.0142-.0142.0142 0 .0284-.0143.0427.0285.0996.0427.1423.0712.0995.0711.1991.1422.3128.1991z" fill="#727272"/><path d="m20.8441 41.2821c0 1.2799.9102 2.8301 2.0337 3.4843 1.1235.64 2.0337.1422 2.0337-1.1377 0-1.28-.9102-2.8302-2.0337-3.4844-1.1377-.6542-2.0337-.1422-2.0337 1.1378z" fill="#727272"/><path d="m22.3079 39.9165c.1849.0427.3698.1138.5689.2276 1.1235.6399 2.0337 2.2043 2.0337 3.4843 0 .3413-.0711.6257-.1848.8533l-1.8489-.384c-.7253-.6258-.8106-1.3369-1.2373-2.247z" fill="#a9a9a9"/><path d="m22.2523 43.2877c-.1422-.256-.2418-.5262-.3556-.8106.7822-.2987 1.5075-.7253 2.1333-1.2515.3413.4693.5973 1.024.7395 1.5644-.8817.0142-1.7208.1991-2.5172.4977z" fill="#dcded9"/><path d="m20.8441 42.2067c0 .9102.64 2.0195 1.4506 2.4746.7964.4551 1.4507.0996 1.4507-.8106s-.64-2.0195-1.4507-2.4746c-.8106-.4693-1.4506-.0996-1.4506.8106z" fill="#c4c4c4"/><path d="m21.2704 42.7471c0 .4978.3555 1.0951.7822 1.3368.4266.2418.7822.0569.7822-.4408 0-.4978-.3556-1.0951-.7822-1.3369-.4267-.2417-.7822-.0426-.7822.4409z" fill="#4d4d4d"/><path d="m26.8306 51.5645 3.0435-1.7635c.0284-.0142.0568-.0284.0853-.0427l.0996-.0568c1.1661-.7396 1.8772-2.2044 1.8772-4.295 0-4.3376-3.1003-9.6423-6.926-11.8467-1.8914-1.095-3.6123-1.2088-4.8496-.5262v-.0142l.3414-.1991.0142.0142c1.2515-.6826 2.9581-.5546 4.8496.5262 3.8256 2.2044 6.9259 7.5091 6.9259 11.8467 0 2.0764-.711 3.5554-1.8772 4.295l-.0996.0568c-.0284.0143-.0569.0285-.0853.0427z" fill="#000"/><path d="m26.8309 51.5641 1.4932-.8675c.0285-.0142.0569-.0285.0854-.0427l.0995-.0569c1.1662-.7395 1.8773-2.2043 1.8773-4.2949 0-4.3376-3.1003-9.6423-6.926-11.8467-1.8915-1.0951-3.6123-1.2088-4.8496-.5262v-.0142l.3413-.1991.0143.0142c1.2515-.6827 2.9581-.5546 4.8496.5262 3.8256 2.2044 6.9259 7.5091 6.9259 11.8467 0 2.0763-.7111 3.5554-1.8773 4.2949l-.0995.0569c-.0284.0142-.0569.0285-.0853.0427z" fill="#000"/><path d="m20.3313 31.6686s6.2149 3.0718 7.6655 5.8877 4.2807 11.0787 4.2807 11.0787l1.5929-.8248 1.4221-6.3571-7.4806-9.5997-6.4851-1.7919z" fill="#b37a00"/><path d="m43.5975 33.418-1.5217 16.5682-9.8557-6.4566-1.5644-11.292-2.4603-2.2186 1.3226-4.6932-.3413-.1849-1.3653 5.0203 2.7163 2.4461 1.5786 11.3205 10.3677 6.8691 1.6354-17.0803z" fill="#995b00"/><path d="m43.328 50.8956-13.2831-8.6041 1.9484 6.286 2.9723.9528z" fill="#2d2d2d"/><path d="m63.2656 2.05841-28.5003 16.48299-9.5428 4.1811s11.221-9.429 28.5145-16.48291c2.4035-.96707 9.5286-4.18118 9.5286-4.18118z" fill="url(#c)"/><path d="m31.1399 48.137c.0427-.3271.0711-.6684.0711-1.0381 0-.9102-.1706-1.8489-.4693-2.7875 0 .5973.3555 4.1527.3982 3.8256z" fill="#646464"/><path d="m30.5987 42.6758h.0284c-.512-4.6221-3.1572-8.3624-7.3953-10.8085-3.5269-2.0195-6.5277.384-7.8503 3.0719.5404-.4124 1.7492-1.152 2.247-1.5217.6542-.4836 1.2942-.3983 1.7919-.0427 1.2231-.2702 1.6213.1564 3.2284 1.0666 2.9154 1.6782 5.9588 4.9492 7.5232 8.3766.0996-.0853.2418-.1422.4267-.1422z" fill="#646464"/><path d="m31.908 48.8053c0 .5831-1.6213-.6542-1.6213-1.024 0-4.7074-3.3563-10.4387-7.4948-12.828-1.8204-1.0381-3.4701-1.2657-4.7643-.7964-1.6639.5973-2.7306 2.3466-2.7306 4.9919 0 .7253.0854 1.4648.2418 2.2327l-.9813-.5546c-.1138-.6969-.1707-1.3937-.1707-2.0764 0-5.39 3.8399-7.5375 8.5899-4.8069 4.7359 2.7306 8.9313 9.4859 8.9313 14.8617z" fill="#2d2d2d"/><path d="m98.408 70.4506-72.0613-41.5558-.3698.1706 72.0613 42.8358.3698-.1707z" fill="#646464"/><path d="m98.0382 70.6215-72.0613-41.5558v1.3795l72.0613 41.4563z" fill="#312d22"/><path d="m18.5394 24.5005c-.0854.768-.9102 1.1377-1.2658 1.2942-.6968.2986-1.3084.4408-1.9768.5546-.8817.1565-1.7635.2702-2.4177-.2418-.2275-.1849-.4693-.2844-.6399-.5688-.0996-.1422-.1849-.3129-.256-.4978.2986-.8249.6257-1.5359 1.0097-1.8772l2.4461-1.92c.2276.5262.5973.7538 1.024 1.024.0853.0426.1564.0995.2418.1422.256.1707.4693.384.7111.5973.1279.128.2559.2276.3839.3129.0996.0711.2418.1706.3698.2844.2133.2133.4124.4978.3698.896z" fill="#cddae7"/><path d="m15.5378 23.0644c.6685-.2275 2.2613.256 2.3039 1.2658.0427.839-1.1377 1.0808-1.4932 1.1519-1.1662.2276-2.2755.1849-3.271-.1422-.0427-.0142-.0853-.0284-.0996-.0853-.0284-.128.1138-.2987.2134-.384.5546-.4978 1.1235-.9529 1.6923-1.3937.2134-.1707.4409-.3414.6542-.4125z" fill="#d47931"/><path d="m32.6476 11.4731s2.2612-.3982 3.4416-1.2373c1.1804-.83906 2.3324-1.25149 2.3324-1.25149s-4.2665.72531-5.774 2.48879z" fill="#cddae7"/><path d="m26.034 20.1631.512.1564c.2417.0711.8675-.1137 1.223-.3697l4.7927-3.3421c.3982-.2845.4978-.5262.2276-.6116l-.512-.1564c-.2418-.0711-.8675.1138-1.2231.3697l-4.7927 3.3422c-.3982.2844-.4977.5261-.2275.6115z" fill="#646464"/><path d="m39.501 11.687.4408.1138c.2276.0568.7253-.0569 1.0951-.256l4.3945-2.28973c.6827-.35554.8106-.69687.2844-.73953l-.4408-.02844c-.256-.01422-.6827.09955-1.0098.25599l-4.3234 2.23281c-.6115.2987-.8106.6115-.4408.7111z" fill="#646464"/><path d="m88.7943 76.7506 15.6157 8.7463 28.514-16.5683.768.6685s-4.736 3.7687-13.468 8.6183c-10.239 5.6887-15.828 8.3055-15.828 8.3055l-15.8008-8.9597z" fill="#646464"/><path d="m128.217 33.5314-25.087 14.5204v.0711l2.787 18.3744v18.1611l25.642-14.9327-.541-17.7345z" fill="#815c19"/><path d="m131.559 69.7253v-.0569l-27.605-16.1843 1.963 13.0128v18.1611z" fill="#fae35a"/><path d="m117.878 73.5506-12.543-7.1536-.697-5.3473.028-9.3294 13.212 7.6228z" fill="#8a6732"/><path d="m128.373 53.2562-10.495 6.0869v14.2075l10.495-6.0443z" fill="#9a7942"/><path d="m122.345 58.5892-3.215 1.8631v4.3376l3.215-1.8488z" stroke="#6b3b00" stroke-miterlimit="10" stroke-width=".1365"/><path d="m121.235 60.9646-.014 2.1617-.996.5689.014-2.1617-.498.2844.996-2.1333.995.9956z" fill="#6b3b00"/><path d="m128.36 53.2562-10.481 6.0869-6.201-3.5838-2.019-1.152-4.992-2.887 10.481-6.0869 5.006 2.887 2.02 1.1662z" fill="#b89e61"/><path d="m111.678 55.7589-2.019-1.1519 10.495-6.0869 2.02 1.1661z" fill="#c9b787"/><path d="m109.431 67.4497-3.797-2.1617v-3.271l3.797 2.1617z" fill="#767676"/><path d="m109.218 67.0371-3.37-1.9199v-.1564l3.37 1.9341z" fill="#242424"/><path d="m109.218 66.6248-3.37-1.9199v-.1564l3.37 1.9341z" fill="#242424"/><path d="m109.218 66.2129-3.37-1.92v-.1564l3.37 1.9341z" fill="#242424"/><path d="m109.218 65.7999-3.37-1.9199v-.1423l3.37 1.92z" fill="#242424"/><path d="m109.218 65.0318-3.37-1.9199v-.4693l3.37 1.9199z" fill="#242424"/><path d="m109.659 54.6078v4.7927l.412-1.1235.427 1.5786.597-1.024.512 1.6355.071-4.7074z" fill="#a69469"/><path d="m124.733 57.3951-.967.5547v1.28l.967-.5547z" fill="#6b3b00"/><path d="m126.071 56.613-.953.5546v1.2942l.953-.5689z" fill="#6b3b00"/><path d="m127.421 55.845-.953.5546v1.28l.953-.5547z" fill="#6b3b00"/><path d="m120.138 57.3959-7.452-4.3092v-4.3376l7.452 4.2949z" fill="#7f612e"/><path d="m126.055 49.6161-5.916 3.4274v4.3518l5.916-3.4274z" fill="#8f733d"/><path d="m126.055 49.6164-5.917 3.4274-3.498-2.0195-1.138-.6542-2.816-1.6213 5.917-3.4274 2.815 1.6213 1.152.6542z" fill="#ad965b"/><path d="m116.641 51.0242-1.138-.6542 5.916-3.4274 1.152.6542z" fill="#beae80"/><path d="m115.503 50.3693v2.7021l.227-.6257.242.896.342-.5831.284.9244.043-2.6595z" fill="#9b8c62"/><path d="m124.007 51.9487-.541.3129v.7255l.541-.3129z" fill="#603800"/><path d="m124.761 51.5078-.541.3129v.7253l.541-.3129z" fill="#603800"/><path d="m125.514 51.0667-.541.3271v.7113l.541-.313z" fill="#603800"/><path d="m119.91 46.4728-1.664.9813-1.266-.7111 1.664-.9955z" fill="#ababab"/><path d="m119.711 46.4585-1.493.8817-.057-.0284 1.493-.8817z" fill="#7f7f7f"/><path d="m119.554 46.3733-1.493.8676-.057-.0285 1.479-.8675z" fill="#7f7f7f"/><path d="m119.385 46.288-1.479.8675-.057-.0284 1.479-.8818z" fill="#7f7f7f"/><path d="m119.227 46.1885-1.479.8818-.057-.0427 1.479-.8675z" fill="#7f7f7f"/><path d="m118.929 46.018-1.479.8818-.185-.0996 1.493-.8817z" fill="#7f7f7f"/><path d="m121.802 52.8446-1.18.6827v1.607l1.18-.6826z" stroke="#603800" stroke-miterlimit="10" stroke-width=".0503"/><path d="m121.404 53.7118-.014.7964-.369.2133.014-.7964-.185.1138.37-.7965.369.3698z" fill="#603800"/><path d="m128.217 33.5314-9.557 16.1559-1.664 1.3511v4.1811l-2.56 1.9626-3.613 12.0742-4.906 2.6453v-5.4043l-2.787-18.4455z" fill="#d1b394"/><path d="m98.8068 47.1559 1.4082.9102-11.1927 48.0125-1.408-.896v-18.8153l-3.0577-20.9201z" fill="#fae35a"/><path d="m100.214 48.0656 3.171 20.9628-.526 18.1469-13.8377 8.9028v-18.8011l-3.0577-20.9344z" fill="#4b452f"/><path d="m128.217 33.5314-.995.5831 2.56 19.3842v15.1319l1.777 1.0951-.54-17.7345z" fill="#b37a00"/><path d="m84.5566 55.4465 1.408.896 3.0577 20.9344v18.8012l-1.408-.896v-18.8154z" fill="#b37a00"/><path d="m147.843 41.9645-14.151 8.8743 3.058-24.6319 14.25-8.9597z" fill="#3b3522"/><path d="m103.385 69.0286-3.171-20.5077-14.2504 7.822 3.0577 20.9343z" fill="#3b3522"/><path d="m112.317 83.7339v1.2943c0 .2417-.17.4835-.441.6258l-2.915 1.5929c-.242.128-.526.0142-.526-.1991v-.1565l2.446-1.3369c.27-.1422.427-.384.427-.6258v-1.1378l.469-.256c.242-.128.54-.0142.54.1991z" fill="#2d2d2d"/><path d="m111.308 83.7903v1.1377c0 .2418-.171.4835-.427.6258l-2.446 1.3368v-1.1377c0-.2418.171-.4836.427-.64z" fill="#ef8800"/><path d="m132.269 72.0863v1.2942c0 .2418-.142.4836-.369.6258l-2.518 1.5929c-.199.128-.455.0143-.455-.1991v-.1564l2.119-1.3369c.228-.1423.37-.384.37-.6258v-1.1378l.413-.2561c.184-.128.44-.0142.44.1992z" fill="#2d2d2d"/><path d="m131.402 72.1427v1.1377c0 .2418-.143.4836-.37.6258l-2.119 1.3368v-1.1377c0-.2418.142-.4836.37-.64z" fill="#ef8800"/><path d="m147.401 95.5235c-.91 3.4558-6.371 6.8405-12.202 7.5655-5.831.726-9.813-1.493-8.888-4.9488.91-3.4558 6.371-6.8406 12.202-7.5659s9.813 1.4933 8.888 4.9492z" fill="#fff" fill-opacity=".2"/><path d="m124.761 63.5105c-.256-.0995-.441-.2417-.399-.4551.015-.0853.072-.1706.1-.256.057-.1564.085-.3128.171-.455.099-.1565.071-.2418-.057-.3556-.242-.1991-.327-.4978-.014-.6826.071-.0427.156-.0427.227-.0143.071.0285.142.0854.185.1565.014.0142.028.0427.043.0569.099.1137.241.0711.369.0569.285-.0285.612-.0285.896-.1138.256-.0711.427-.2987.655-.4409.113-.0569.213-.128.327-.1849.042-.0284.085-.0426.128-.0569.241-.0426.341.1707.512.2987.185.1422.199.3271.227.5546.029.1565.1.4551.043.6258-.014.0284-.014.0427-.029.0711-.142.1991-.526.2844-.739.3555-.27.0996-.555.2134-.711.4551-.057.0854-.1.1991-.171.2845-.099.128-.242.1564-.37.2133-.184.0995-.327.1564-.54.0996-.142-.0285-.555-.0854-.853-.2134z" fill="#f8cfb3"/><path d="m131.175 57.4096c-.086.1849-.157.3698-.214.5831-.028.0711-.042.1564-.085.2276-.043.0853-.114.1564-.185.2133-.299.2844-.612.5546-.939.7964-.568.4409-1.28.8533-1.948 1.1377-.185.0711-.37.1565-.512.2987-.469.4551.171 1.8204.882 2.0479.185.0569.37.0427.554-.0995 1.01-.7822 4.153-2.3466 4.438-3.5555.185-.839.312-.5973.469-1.4364.171-.8959-.128-1.6212-.384-2.4745-.014-.0285-.014-.0569-.029-.0711.072.2275-1.137 1.2373-1.322 1.3795-.341.2844-.555.5831-.725.9528z" fill="#ececec"/><path d="m132.199 56.1723c.028.0996.043.1991.071.2986.171.6116.398 1.2658.242 1.8915-.199.8107-.782 1.4222-1.437 1.8915-.597.4267-1.265.7538-1.863 1.1946-.184.1423-.355.2845-.554.4125-.342.2133-.74.3413-1.138.3271.185.256.398.4551.64.5262.185.0569.37.0426.555-.0996 1.009-.7822 4.764-2.5883 4.92-3.4274.271-1.3653.015-2.6879-.156-4.039-.014-.1137-.043-.2275-.057-.3413-.384.4693-.782.9529-1.223 1.3653z" fill="#dedede"/><path d="m118.773 71.3325 5.163 2.9866 3.057-1.7635.982-.5689 2.46-1.4221-5.163-2.9866-2.46 1.4222-.995.5689z" fill="#d1b394"/><path d="m123.935 71.1476 6.5-3.7546v-6.2006l-6.5 3.7545z" fill="#bf9245"/><path d="m118.773 61.9456 5.163 3.0008v6.2007l-5.163-2.9866z" fill="#cfa658"/><path d="m118.774 61.9462 5.163 3.0008 3.057-1.7635.981-.5688 2.461-1.4222-5.163-3.0008-2.46 1.4222-.996.5831z" fill="#edce7d"/><path d="m126.993 63.1836.982-.5689-5.163-3.0007-.995.583z" fill="#fee9ab"/><path d="m127.975 62.6146.014 2.3608-.213-.5546-.213.7822-.285-.512-.256.8106-.028-2.3181z" fill="#dbc68a"/><path d="m120.565 63.9794.469.2844v.6258l-.469-.2703z" fill="#a05e00"/><path d="m119.897 63.5957.483.2845v.6257l-.483-.2702z" fill="#a05e00"/><path d="m119.243 63.2261.469.2703v.6257l-.469-.2702z" fill="#a05e00"/><path d="m124.134 59.2014 1.451.8676 1.109-.6258-1.465-.8675z" fill="#ebebeb"/><path d="m124.319 59.2012 1.294.7537.043-.0284-1.294-.7538z" fill="#bfbfbf"/><path d="m124.447 59.116 1.294.768.057-.0284-1.294-.768z" fill="#bfbfbf"/><path d="m124.59 59.045 1.294.7537.057-.0284-1.308-.7538z" fill="#bfbfbf"/><path d="m124.732 58.9598 1.294.7678.042-.0284-1.294-.7678z" fill="#bfbfbf"/><path d="m124.987 58.8176 1.294.7537.157-.0853-1.294-.768z" fill="#bfbfbf"/><path d="m122.486 64.7628 1.024.5973v1.3937l-1.024-.5831z" stroke="#a05e00" stroke-miterlimit="10" stroke-width=".0439"/><path d="m122.841 65.5304v.6969l.327.185-.014-.697.17.0853-.327-.6827-.327.3129z" fill="#a05e00"/><path d="m137.631 98.3254c.015.0569.015.1138.029.1707.028.1706.043.3413.028.4977 0 .3271.114.8391-.128 1.1232-.554.626-2.005.313-2.688.114-.099-.028-.199-.057-.284-.128-.171-.1279-.213-.3128-.398-.4408-.157-.0995-.313-.1706-.498-.1991-.171-.0284-.313-.128-.484-.1564-.128-.0285-.199 0-.341 0-.227.0142-.469.0142-.697 0-.753-.0427-2.005-.3982-2.474-.9955-.299-.3698-.342-.9244-.256-1.3795.156-.8391 1.578-.8533 2.261-.8676.697-.0142 1.735.0285 2.332-.4124.512-.3697 1.508.6684 1.821.9529.327.2986.611.7111 1.038.839.469.1423.654.4409.739.8818z" fill="#1b1b1b"/><path d="m131.702 96.0786c-.683.0142-2.105.0284-2.262.8675-.028.1422-.028.2986-.028.4551.028.0284.612.64 2.133.5404 1.565-.1138 1.849-.4124 1.849-.4124s.612-.0854.526-.6827c-.057-.4124.029-.8817.071-1.1519-.597.4124-1.592.3698-2.289.384z" fill="#2a2a2a"/><path d="m140.447 90.7876c-.256-.0569-.526-.0712-.782.0284-1.024.3982-.668 1.7777-.014 2.3466.313.2844.54.6399.74 1.0097.156.2987.156.6258.298.9102.299.5831.91.8391 1.55.8391.427 0 .854-.1138 1.238-.2987.284-.1422.497-.3413.583-.6684.028-.0711.028-.1564.028-.2418 0-.3982-.028-.8106-.085-1.2088-.071-.5262-.811-.256-1.124-.5973-.256-.2702-.512-.5547-.824-.768-.271-.1849-.399-.5546-.612-.8106-.242-.2845-.583-.4551-.939-.5404-.042.0142-.042.0142-.057 0z" fill="#1b1b1b"/><path d="m143.476 71.7878c-.128.1422-.256.2986-.384.4409-1.038 1.1946-2.176 2.3465-3.143 3.6123-.484.6257-.583 1.5075-.598 2.2754-.028.9102-.184 1.8062-.213 2.7306-.014.5262 0 1.0524.014 1.5928.029 1.2373.242 4.9492.37 6.1723.185 1.8345.484 3.6549.882 5.4611.057.2275.028.4124.242.5262.17.0853.412.1138.597.1422.654.0995 1.365.0569 1.948-.2844.356-.2276.74-.4836 1.11-.6685-.029-.3128 0-.6257-.043-.9386-.1-.8248-.199-1.6781-.356-2.4888-.27-1.3937-.91-5.2905-.739-6.7126.057-.4409.156-.8818.242-1.3226.142-.6827.241-1.3653.341-2.048.071-.4551.142-.9101.199-1.3795.057-.4124.484-1.3368.384-3.2567-.071-1.4222-.327-4.3376-.626-5.7171 0-.0285-.242 1.8772-.227 1.863z" fill="#543a2c"/><path d="m143.335 66.7245c-.1.9245-.2 1.8489-.299 2.7733-.128 1.1662.043 3.2425-1.394 3.6549-.284.0854-.597.0854-.825.2845-.114.0995-.185.2417-.242.384-.526 1.1235-.853 2.2612-1.251 3.4132 0 .5404.228 1.0239.398 1.5217.157.4977.114 1.0524.128 1.5786.014.2702.014.5404-.014.8106-.043.3556-.128.7111-.171 1.0667-.057.4977 0 1.0097.057 1.5217.057.5831.128 1.1519.185 1.735.043.4551.228 3.3848.299 3.8399.199 1.0524.569 2.0621.953 3.0719.17.4408.327.8817.497 1.3226.029.0853.342 1.0666.441 1.0524.37-.0285.754-.1138 1.095-.3271.299-.1849 1.095-.4551 1.138-.8391.014-.1849-.185-.2844-.242-.4408-.114-.3129-.128-.6685-.17-.9813-.1-.6969-.2-1.408-.299-2.1049-.085-.5831-.171-1.1804-.412-1.7208-.114-.256-.399-2.9865-.47-3.271-.071-.2844-.057-.5831-.028-.8675.099-1.2942.256-2.5884.483-3.8683.214-1.2657.64-2.5172.811-3.7687.185-1.5075-.341-8.3766-.668-9.8415z" fill="#614332"/><path d="m141.201 74.1629c.213 1.5218-.157 3.0008-.811 4.3661-.327.6826-.995 1.1235-1.223 1.8915-.412 1.3937-.868 2.7732-1.38 4.1243-.213.5688-.156 1.3084-.284 1.9199-.37 1.8346-.043 3.5981.043 5.4469.057.9671.142 1.9626.085 2.9297-.057.9528.27 2.0195-.057 2.9439-.171.4835-.697.6684-1.123.839-.925.3414-1.892.0285-2.688-.4835-.384-.256-.114-.9813-.171-1.3653-.1-.7111-.128-1.4222-.142-2.1475-.043-1.735-.057-3.4843-.128-5.2193-.085-2.1617-.27-6.8264-.014-8.9597.17-1.3795.355-2.759.554-4.1385.057-.4124.1-.8249.142-1.2373.072-.6826.114-1.3653.185-2.0479.043-.4978.1-.7253.655-.5973.341.0853.568.3555.924.4124.341.0569.683.0711 1.024.0569 1.123-.0569 2.19-.4551 3.328-.4978.298-.0142.725-.0568.896.2276.099.1706.028.4409.028.64.043.3128.114.6115.157.8959z" fill="#614332"/><path d="m134.901 73.1103c-.298.0995-.597.2844-.682.4124-.285.4409-.143 1.0666-.2 1.5644-.042.4124-.085.8249-.142 1.2373-.199 1.3795-.384 2.759-.554 4.1385-.256 2.1332-.086 6.8122.014 8.9596.071 1.7351.085 3.4701.128 5.2194.014.7253.042 1.4364.142 2.1475.057.3698-.228 1.1093.171 1.3653.057.0284.113.0711.156.0995.27-1.7492.327-3.527.341-5.2904.015-2.2044-.483-6.8691-.526-9.1019-.014-.8391-.071-1.7209.071-2.5457.455-2.6595.868-5.3616 1.721-7.9357.142-.4124-.242-.3982-.64-.2702z" fill="#543a2c"/><path d="m138.058 84.5728c.185-1.4364.697-2.7732 1.095-4.167.156-.5119.242-.7395.683-.9244-.015-.1848-.043-.3839-.1-.5546-.014-.0427-.028-.0853-.071-.1138-.071-.0284-.142.0285-.185.0996-.412.5262-.668 1.0524-.924 1.6781-.868 2.1617-1.636 6.9118-1.366 9.2157.057.4693.157.9244.2 1.3937.042.3698.042.7395.042 1.1235.029 1.8773.043 3.7545.071 5.6318.029-.0569.057-.1138.086-.1706.355-.9956.156-2.304.184-3.3422.043-2.1048-.128-4.1953-.042-6.3002.057-1.1946.185-2.375.341-3.5554-.014 0-.014 0-.014-.0142z" fill="#543a2c"/><path d="m137.162 51.7351s1.038-.7396 2.034-.1991c.64.3413.967.7822 1.28 1.4221.412.8391.896 1.6498 1.251 2.5457.725 1.8488 1.351 11.5054 1.351 13.4964 0 1.2657-4.394-5.006-4.636-5.3474-.74-1.0381.654-6.0442.057-7.1535-.313-.5973-2.418-4.1954-1.337-4.7642z" fill="#e625d5"/><path d="m140.39 52.7448c-.27-.5546-.583-.8675-1.181-1.2088-.995-.5405-2.033.1991-2.033.1991-.242.128-.285.5262-.185 1.0808.526-.0426 1.066-.3555 1.522-.4977.54-.1565 1.08.0142 1.592.2559.1.0427.185.1138.285.1707z" fill="#83c2bf"/><path d="m134.588 51.7922c.313-.1991.683-.1991 1.039-.2702.298-.0569.54-.1849.839-.2844.64-.2133 1.337-.1991 2.005-.0569.754.1706 1.493.5262 1.991 1.1093.867 1.0239 1.18 2.375 1.422 3.6692.256 1.3795.469 2.7163.469 4.1243 0 .6968.029 1.3937.114 2.0905.214 1.5786.526 3.1573 1.01 4.679.171.5404.341 1.0666.583 1.5786.228.4835.54.9529.583 1.4933.157 1.6781-1.678 2.9296-3.001 3.5127-3.143 1.3511-5.219 1.7208-5.717 1.6071 0 0-1.635-7.9784-2.346-9.7134-.384-.9387-.882-1.8346-1.38-2.7164-.554-1.0097-1.223-2.0052-1.692-3.0576-.356-.7822-.569-1.5929-.057-2.3466.412-.6115 1.024-1.0524 1.479-1.6355.483-.6116.754-1.3511 1.166-2.0195.356-.5546.953-1.4079 1.493-1.7635z" fill="#ebe56b"/><path d="m135.953 51.4937c-.455.0285-.967.0427-1.365.2987-.541.3555-1.138 1.2088-1.479 1.7635-.228.3697-.47.7395-.711 1.1092-.2.2987-.399.64-.64.896-.242.256-.413.5689-.626.8533-.199.2702-.47.4978-.654.7822-.512.7538-.299 1.5786.056 2.3466.47 1.0382 1.138 2.0479 1.693 3.0577.498.8959.526 1.7919.64 2.7732.114.8959.213 1.8204.327 2.7306.114.839.185 1.6923.227 2.5314.057 1.0809.185 2.3181-.014 3.3848-.028.1422-.042.3129.043.4266.057.0711.142.1138.227.1423 1.11.4124 2.077.711 3.257.3839-.114-.4266-1.763-6.7695-1.834-7.637-.143-1.6924-.555-3.3421-1.081-4.9492-.27-.7964-.512-1.6924-.91-2.4319-.299-.5546-.754-1.0097-.811-1.6781-.014-.1138 0-.2276.028-.3271l-.113.1422c.042-.0996.099-.1849.156-.2702.057-.1707.157-.3271.285-.4694 1.479-2.2896 3.868-3.8825 6.3-5.2477-.683-.4125-1.863-.6685-3.001-.6116z" fill="#f4ed6e"/><path d="m137.959 54.0817c-.043.0711-.1.128-.156.1849-.171.1991-.356.3982-.569.5262-.185.1138-.384.1706-.583.2417-.47.1565-1.266.5974-1.721.3982-.441-.1848-.868-.4124-1.28-.6542-.029-.0142-.811-.5119-.768-.5546.498-.6258 1.024-1.1662 1.65-1.6497.526-.4125 1.279-.6116 2.062-.64.27.2844.526.5689.782.8675.199.2418.512.512.668.7822.086.1707.015.3414-.085.4978z" fill="#d18d6d"/><path d="m137.604 51.3224c-.1-.3982-.199-.8107-.299-1.2089 0 0-.171.0143-.185.0143-.725.0426-1.45.1422-2.147.2986-.427.0996-.853.2133-1.252.3982-.142.0711-.398.1565-.512.2702-.17.1707-.042.512.029.7111.128.3556.256.7111.398 1.0666.085.2276.185.4551.327.6542.171.2418.327.2702.597.3414.143.0284.342.0284.47.0853.27.1138.17.5688.483.6684.356.1138.939-.1564 1.252-.3271.441-.2418.81-.5689 1.18-.9102.313-.2702.384-.4693.142-.7964-.256-.3555-.369-.8391-.483-1.2657z" fill="#deb08a"/><path d="m133.821 50.8677c-.328.0996-.598.1565-.655.5263-.042.3128.043.6257.128.9101.171.6258.342 1.2515.512 1.8773.256-.0284.455-.1422.697-.0711.242.0853.484.1422.74.1849-.086-.1991-.228-.7253-.285-.9387-.142-.4551-.213-.9102-.369-1.351-.171-.4267-.484-.768-.768-1.1378z" fill="#c77752"/><path d="m137.661 50.9387c-.228.3982-.484.8106-.825 1.1093-.313.256-1.081.6115-1.451.7822-.555.256-.213-.5974-.796-.8107-.043-.0142-3.001-2.2328-2.973-3.8256 0-.128.015-.2418.043-.3698.014-.0995.043-.1991.085-.2986.427-1.3653 2.02-2.6879 2.958-2.9013.726-.1706 1.366.128 1.906.5831.27.2276.512.4836.711.7538.029.0426.057.0711.071.128.37.6542.484 1.4933.626 2.2328.156.8106.327 1.4506-.114 2.1901-.071.128-.156.256-.227.384 0 .0285-.014.0427-.014.0427z" fill="#f0b88f"/><path d="m137.02 45.492c0 .0142-.014.0284-.014.0284-.142.1707-.341.2702-.54.3698-.541.2702-1.095.5262-1.679.6399-.256.0569-.639.0569-.824.2703-.143.1564-.285.4124-.313.6257-.014.1138-.014.2276-.029.3413 0 .4125.413.6258.541 1.024s-.214.9955-.114 1.3937c.085.3129.057.6116.071.9244.043.4551.242.896.512 1.2942-.213-.3413-.782.4978-1.01.5689-.426.1138-.91.1564-1.308-.0569-.285-.1564-.754-1.2515-.939-1.5075-.924-1.2373-1.479-2.2755-1.763-3.7972-.014-.1138-.043-.2275 0-.3413.042-.128.142-.2133.242-.2987.497-.384 1.009-.4977 1.607-.64.483-.1137.796-.6115 1.237-.8817.355-.2133.754-.3982 1.152-.5262.526-.1707 1.095-.3129 1.65-.2844.184.0142.455-.0285.725-.0285.27.2276.512.4836.711.7538.043.0426.071.0853.085.128z" fill="#df9876"/><path d="m138.072 49.6871c.015-.3555 0-.7253-.028-1.1092-.057-.8391-.356-2.048-.654-2.8444-.384-.9955-.925-2.0906-1.878-2.6026-1.55-.8248-2.73-.711-3.868-.4693-1.806.3983-2.403 1.92-2.446 3.6123-.043 1.4507 1.01 2.0195 1.749 3.0719.157.2276.356.3982.484.6542.185.384.327.8107.483 1.2089.015.0284.029.0569.043.0711s.043.0142.071.0142c.327.0284.64 0 .967.0142-.099-.0142-.654-1.5644-.725-1.7919-.171-.6542.057-.9529.683-1.0666.412-.0854.739.256.881.5973.299.6542.086 1.3653.185 2.0479.086.6258.228 1.024.64 1.4933.925 0 1.806-.4693 2.517-1.0524.655-.5405.868-1.152.896-1.8489z" fill="#4f2900"/><path d="m119.997 66.2556c-.143-.2275-.214-.4551-.043-.5973.071-.0569.156-.0995.228-.1422.142-.0853.256-.2133.412-.256.171-.0569.199-.1564.156-.3271-.071-.2987.043-.5973.399-.5546.085.0142.156.0568.199.1279.042.0712.071.1423.057.2276v.0711c.014.1564.156.1991.27.2702.242.1565.512.3413.782.4409.256.0995.526.0142.782.0284.128.0143.256.0285.37.0569.043.0142.1.0142.142.0427.214.1138.171.3413.228.5404.071.2276-.029.384-.142.5831-.072.1422-.185.4267-.342.5262-.014.0142-.042.0285-.071.0285-.227.0711-.597-.0854-.811-.1565-.27-.0853-.568-.1564-.839-.0569-.099.0427-.199.0996-.298.128-.157.0427-.285-.0284-.427-.0426-.213-.0285-.355-.0712-.498-.2418-.085-.128-.369-.4124-.554-.6969z" fill="#f8cfb3"/><path d="m123.224 67.6347c-.44-.5973-.142-2.0906.498-2.1759.199-.0285.398.0284.583.0711.583.1422 1.152.1848 1.721.1991.754.0142.541-.0142 1.337-.0711.91-.0711 1.422-1.0524 1.522-2.0195.213-1.9484.284-3.8541 1.009-5.7029.143-.3698.356-.7822.74-.8675.398-.0854 1.138.1706 1.479.3697.455.2703.825.7253.896 1.2515.057.3982.014.8107.057 1.2089.071.64-.242 1.3368-.413 1.9626-.27.9102-.554 1.8061-.881 2.6879-.299.8391-.484 1.607-1.166 2.2186-.626.5831-.584.3128-1.238.8675-.953.8106-4.409.1991-5.688.2275-.185.0285-.342-.0711-.456-.2275z" fill="#f4ed6e"/><path d="m129.725 68.0473c-.626.5831-4.736-.1848-6.002-.1564-.227 0-.384-.0853-.498-.2418-.142-.1991-.199-.4977-.199-.7964.313.256.711.384 1.11.4124.227.0143.455 0 .696 0 .74 0 1.465.1281 2.205.1423.81.0142 1.649-.128 2.275-.6542.498-.4125.711-1.0809.925-1.664.398-1.0808 1.009-2.119 1.152-3.271.056-.4835.241-.967.341-1.4506.099-.5119.185-1.0382.299-1.5501.113-.4551.042-1.9911.81-1.1093.498.5688.839 1.8346.768 2.5741-.17 1.6071-.839 3.0434-1.607 4.4372-.668 1.1804-1.251 2.3892-2.275 3.3278z" fill="#ebe56b"/><path d="m137.916 52.2327c-.029.128.028.2844.028.4266 0 .1565 0 .3129.014.4693.015.2276 0 .3983-.099.6116-.029.0569-.057.1138-.1.1706-.099.1138-.242.1707-.355.2703-.071.0426-.128.1137-.185.1564-.086.0569-.185.1138-.285.1564-.256.1138-.526.1991-.796.2703-.242.0568-.498.0568-.754.0995-.17.0284-.384-.0569-.54-.0995-.214-.0712-.427-.1565-.626-.256-.128-.0569-.199-.1423-.27-.256-.071-.128-.157-.2418-.228-.3698-.156-.3555-.27-.7253-.327-1.0951-.171.256-.355.5262-.526.7822-.071.1138-.157.2276-.199.3556-.043.0995-.057.2133-.128.2986-.014.0285-.043.0569-.043.0853-.014.0285 0 .0712 0 .0996.114.6684.669 1.0382 1.209 1.3653.284.1706.441.2986.782.3555.327.0569.654.0854.981.0854.911 0 1.835-.1991 2.66-.6116.256-.128.512-.2844.711-.4835.213-.2133.356-.4409.441-.6969.142-.4266.085-.9102-.029-1.3368-.071-.2702-.213-.4978-.384-.7253-.014-.0711-.156-.2133-.199-.2844-.057-.0854-.128-.1423-.241-.2134-.128.1422-.271.2987-.441.3698-.043-.0427-.043-.0427-.071 0z" fill="#f4ed6e"/><path d="m112.033 114.41c-1.863 2.787-7.736 4.124-13.112 2.986-5.3758-1.137-8.2344-4.309-6.3713-7.096 1.863-2.788 7.7363-4.125 13.1123-2.987s8.22 4.309 6.371 7.097z" fill="#fff" fill-opacity=".2"/><path d="m117.138 83.1076c-.014 0-.029 0-.043 0-.156 0-.284.0853-.455.0426-.213-.0426-.441-.1564-.64-.2417-.171-.0712-.355-.0996-.526-.2134-.583-.3839-1.138-.8248-1.707-1.2088-.825-.5547-2.787-2.375-2.787-2.375-1.764.4835-.669 2.6025-.114 2.9154.583.3271 1.237.5262 1.863.7822.384.1565.768.3129 1.152.4978.157.0711.256.2417.341.3697.342.4694 1.053.5689 1.337 1.0809.1.1706.114.3697.157.5546.014.0427.028.0854.071.0996.028 0 .057 0 .071-.0142.156-.0712.299-.2418.327-.4125.014-.0569-.128-.4977-.142-.4977.17.0142.27.1706.398.256.384.2275.839.3271 1.266.4408.17.0427.441.1422.611.0854.128-.0569.27-.0711.37-.1565.043-.0284.071-.0711.114-.0853.042-.0142.071 0 .114-.0142.071-.0142.113-.0854.128-.1422.014-.0712.014-.1423 0-.1991.071 0 .142-.0712.17-.1423.014-.0711 0-.1564-.014-.2275-.043-.128-.156-.2276-.284-.2845-.086-.0426-.185-.0568-.242-.1279-.043-.0427-.057-.0996-.085-.1422-.057-.0854-.157-.1423-.242-.1849-.356-.2276-.811-.4267-1.209-.4551z" fill="#f1bc95"/><path d="m114.407 83.4492c-.213-.1707-.412-.3556-.64-.512-.256-.1707-.554-.2844-.81-.4693-.455-.3271-1.664-.896-1.408-1.6497.071-.1849.099-.384.114-.5831.014-.1565.056-.384-.043-.4978-.157-.1706-.313-.3697-.441-.5688-.057.2844-.142.6115-.327.839-.171.1991-.64.384-.711.6258-.043.1564.057.4266.142.64.171.3555.398.6399.583.7253.583.3271 1.237.5262 1.863.7822.242.0995.526.1706.768.2844.228.0995.384.3555.555.512.156.1422.327.2417.512.3555.114.0569.825.7111.682.2276-.056-.1991-.256-.2987-.412-.4125-.156-.0711-.299-.1848-.427-.2986z" fill="#d18d6d"/><path d="m106.315 110.485c-.042.128-.085.241-.142.369-.085.228-.171.441-.128.697.085.555.057.939.057.939l1.664.654.711-.085c.043 0 .228.213.256.241.228.185.484.356.74.498.355.185.725.285 1.123.37.541.114.996.043 1.536.028.1 0 .213 0 .313-.042.299-.1.739-.427.896-.683.242-.355.057-.81-.185-1.095-.853-.967-2.574-1.408-2.574-1.408l-.597-1.522c0 .043-1.181.342-1.266.37-.327.1-.711.285-1.038.214-.37-.072-.768-.057-1.138.014-.029 0-.057.014-.071.028-.029.014-.043.043-.057.071-.014.114-.057.228-.1.342z" fill="#1b1b1b"/><path d="m113.071 112.277c.284.27-.014.625-.299.753-.156.072-.327.086-.483.086-.37 0-.754-.029-1.109-.114-.299-.057-.598-.1-.868-.213-.242-.1-.498-.143-.711-.285-.228-.156-.27-.469-.413-.697-.128-.199-.312-.341-.44-.54-.072-.114-.143-.441.014-.512.526-.228.91-.754 1.294-1.166l.54 1.379c.015.043.299.086.342.1.27.085.526.199.796.313.327.142.64.327.925.526.156.128.284.242.412.37z" fill="#2a2a2a"/><path d="m106.203 110.059s-.47-5.732.441-7.623c.924-1.906.711-2.247.696-3.5272 0-.768-1.038-1.5644-1.55-2.0052-.384-.3556-.697-.6116-.967-1.0524-.313-.5262-.626-1.0524-.853-1.6355-.085-.2276-.185-.4836-.413-.5689-.085-.0284-.17-.0427-.241-.0995-.057-.0427-.1-.128-.128-.1991-.512-1.0951-.868-2.2613-1.081-3.4559-.114-.6116-.171-1.2231-.199-1.8346-.014-.3556-.128-.7396.256-.7965.313-.0426.668.0569 1.009 0 .726-.0995 1.408-.3982 2.048-.7537.413-.2275.811-.4977 1.181-.7822.27-.2133.64-.5689 1.01-.2844.17.128.256.3271.341.5262.91 2.1901 1.664 4.4229 2.375 6.6984.427 1.3226.839 2.631 1.223 3.9536.199.6969.455 1.3084.384 2.048-.142 1.5219-.839 3.0149-1.166 4.5079-.242 1.124-.398 2.262-.455 3.414-.057 1.066.042 2.147-.043 3.214 0-.015-1.508 1.948-3.868.256z" fill="#614332"/><path d="m104.553 95.8505c.483.4977.91 1.0524 1.408 1.5501.355.3556.697.7253.924 1.1804.256.4978.128.7538.043 1.2658-.142.8532-.284 1.7212-.427 2.5742-.113.697-.27 1.394-.341 2.105-.185 1.82-.128 3.697.028 5.518.342.241.655.398.953.512.071-.612-.128-1.266-.199-1.863-.17-1.65-.142-3.328.142-4.964.143-.839.356-1.664.626-2.46.114-.341.242-.711.341-1.081.1-.4266.157-.8817.1-1.3225-.028-.1565-.071-.3129-.114-.4693-.156-.4694-.242-.8818-.626-1.1947-.426-.3555-.853-.7111-1.265-1.095-.825-.7538-1.593-1.6071-2.105-2.6026-.526-1.0382-.768-2.2044-.882-3.3563-.057-.5831-.085-1.1662-.114-1.7635-.014-.1849.015-1.1235.242-1.1804-.583.128-1.052-.0285-1.593-.1849-.113.2275 0 .6542 0 .9102 0 .3698-.014.7253-.014 1.0951 0 .4124.114.839.185 1.2372.242 1.2942.683 2.5457 1.323 3.6977.384.6969.824 1.3511 1.365 1.8915z" fill="#543a2c"/><path d="m92.862 107.583c-.0853.1-.1706.2-.2702.299-.1706.185-.3271.356-.384.597-.128.541-.2986.896-.2986.896l1.3084 1.223.6968.2c.0427.014.128.284.1565.312.1422.256.3129.512.512.74.256.313.5688.54.8959.768.4551.313.896.412 1.4222.597.0996.043.1991.071.2987.086.3128.014.839-.128 1.095-.299.3556-.256.3556-.74.2418-1.095-.4267-1.223-1.863-2.261-1.863-2.261l.0142-1.636c-.0143.029-1.2231-.114-1.3084-.128-.3413-.028-.768 0-1.0382-.185-.3129-.199-.6827-.341-1.0524-.412-.0285 0-.0569-.014-.0711 0-.0285.014-.0569.028-.0711.042-.128.086-.2134.171-.2845.256z" fill="#1b1b1b"/><path d="m98.465 111.765c.1565.355-.2417.569-.5546.597-.1707.014-.3271-.042-.4835-.099-.3556-.128-.6827-.313-.9955-.512-.256-.171-.5263-.313-.7254-.527-.1848-.184-.3982-.312-.5546-.526-.1564-.227-.0853-.54-.128-.796-.0427-.228-.1707-.441-.1991-.669-.0142-.128.0284-.469.2133-.469.5831-.014 1.1235-.355 1.6355-.597l-.0142 1.479c0 .043.2418.185.2702.213.2133.185.4267.384.6115.583.2418.256.4694.541.6685.839.0995.157.1706.313.2559.484z" fill="#2a2a2a"/><path d="m102.276 91.2146c-.014-.2702-.014-.5547.014-.8533.057-.6542.114-1.3226.171-1.9768.014-.1422.028-.2987-.043-.4267-.057-.1137-.156-.1991-.27-.2702-.526-.3698-1.124-.64-1.749-.7822-.285-.0711-.6261-.0995-.8394.0996-.0995.0853-.1564.2133-.2133.3413-.2702.64-.4693 1.3226-.5973 2.0052-.1422.6827-.3556 1.3796-.3982 2.0764-.0427.9102-.1565 1.8488-.3556 2.7448-.3697 1.6782-.9101 3.3421-1.8061 4.8211-.4693.7965-1.024 1.5222-1.4222 2.3612-.9102 1.948-1.2799 4.081-1.7635 6.158 0 0 1.1378 1.095 2.4462.91 1.3083-.171 1.3083-.171 1.3083-.171.384-.981 2.9866-8.149 3.5841-8.6893.498-.4551 1.166-.9955 1.493-1.5928.356-.6684.455-1.5928.541-2.3323.128-1.1947.085-2.4035-.029-3.5839-.028-.2987-.057-.5689-.071-.8391z" fill="#543a2c"/><path d="m105.163 86.8627c-.099.0427-.185.0996-.284.1423-.896.4124-2.005.2275-2.93.0426-.227-.0426-.512-.0711-.654.1138-.071.0996-.085.2275-.085.3555-.086 1.5075-.654 2.7448-1.2234 4.1101-.2275.5404-.2844 1.0809-.4835 1.5928-.2133.5831-.128 1.2231-.3129 1.8204-.1137.3556-.2844.6969-.4551 1.0382-.2275.4551-.4551.9102-.6826 1.3653-.7253 1.479-1.7635 2.7443-2.3893 4.2803-.2275.555-.4124 1.124-.5688 1.693-.3129 1.166-.5547 3.242-.7538 4.423-.0284.142-.0426.298-.0426.441.3555.128.7395.199 1.1519.142 1.2942-.171 1.3084-.171 1.3084-.171.1707-.028.6684-1.65.768-1.863.256-.597.5973-1.194.7964-1.806.2702-.91.768-1.735 1.3084-2.503.4839-.697.9809-1.408 1.4789-2.076 1.124-1.5221 1.693-3.1719 2.091-5.0065.099-.4693.142-1.0381.398-1.4363.27-.4125.782-.7396 1.223-.9529.171-.0853.327-.1422.498-.2418.483-.2844.725-.7253.995-1.1946.271-.4835.598-.9244.754-1.4648.142-.4836.341-.9529.512-1.4364.114-.3413.242-.6969.398-1.0098.142-.2844.327-.6257.157-.8959-.1-.1707-.313-.2418-.512-.2844-.939-.1707-1.693.3839-2.461.7821z" fill="#6e4c39"/><path d="m106.287 70.5644s1.123-.64 2.019.0142 1.039 1.1946 1.309 2.8017c.27 1.607.512 3.3421.512 3.3421l1.792 2.6736s.341 1.152-1.095 2.176c-1.437 1.0239-6.13-10.3534-4.537-11.0076z" fill="#f4ed6e"/><path d="m109.316 71.9154c-.184-.583-.455-.9386-.995-1.3368-.896-.6542-2.02-.0142-2.02-.0142-.256.0995-.355.4977-.327 1.0666.512.0142 1.095-.256 1.565-.3413.54-.0996 1.066.128 1.521.4266.1.0427.171.128.256.1991z" fill="#e3d64d"/><path d="m108.833 81.4157c-.54 4.622-.554 5.4469-.554 5.4469s-2.39 3.3278-9.4151.8675c0 0 1.0809-3.9394.768-4.7074-.3271-.7822-2.6026-3.8114-2.5599-5.6176.0427-1.7919-.2702-3.2994 1.5928-4.7358 1.0382-.8106 1.9202-1.4933 2.8022-2.0479.682-.4409 1.379-.7822 2.119-1.0524.64-.2276 1.422-.1707 2.161.0284 1.223.3271 2.361 1.0667 2.717 1.7066.583 1.024.91 5.5038.369 10.1117z" fill="#f4ed6e"/><path d="m105.746 69.5974c-.739-.2133-1.522-.256-2.162-.0284-.753.2702-1.436.6115-2.119 1.0524-.881.5546-1.7631 1.2231-2.8013 2.0479-1.863 1.4506-1.5643 2.9439-1.5928 4.7358-.0427 1.792 2.247 4.8354 2.5599 5.6176.3129.768-.768 4.7074-.768 4.7074.768.2702 1.4652.4551 2.1192.5973.057.0142.114-2.0622.114-2.1901.042-1.9484.227-4.2239-.427-6.0727-.299-.8533-.8533-1.5928-1.408-2.2897-.3128-.384-.3839-.8249-.4835-1.3084-.0995-.4978-.1991-.9955-.2133-1.5075 0-.2133 0-.4409.0995-.6542.0854-.1991.2418-.3697.3982-.512.7538-.7395 1.6921-1.7066 2.6741-2.0906.995-.3982 2.133-.5688 3.185-.6684 1.081-.0995 2.19-.1706 3.257-.0711-.483-.5404-1.422-1.0951-2.432-1.3653z" fill="#e3d64d"/><path d="m106.743 72.7262c.157 1.0951-1.137 1.8488-1.991 1.1946-.426-.3271-.896-.6968-1.365-1.1235-1.692-1.5359-1.906-2.1759-1.906-2.1759.683-.4409 1.38-.7822 2.119-1.0524.64-.2276 1.423-.1707 2.162.0284 0 0 .782 1.792.981 3.0861-.014.0142-.014.0285 0 .0427z" fill="#d18d6d"/><path d="m103.599 72.5275c-.057-.5121-.057-1.0241.029-1.5361.071-.4693.213-.9245.256-1.3938 0-.0285 0-.0711 0-.0996-.1.0285-.2.0427-.299.0712-.754.2702-1.437.6115-2.119 1.0524 0 0 .213.6543 1.906 2.1761.128.1137.27.2275.398.3413-.071-.2418-.157-.4693-.171-.6115z" fill="#c77752"/><path d="m101.778 70.3797c-.028-.0142-.042-.0142-.071-.0284-.142-.0143-.227.0995-.341.1706-.213.128-.427.2702-.654.3982-.256.1565.028.5973.113.768.128.2987.313.5831.527.8249.369.4408.881.7822 1.365 1.0808.355.2133.739.3982 1.123.5547.157.0568 1.01.5119 1.124.3839.014-.0284 0-.2133.014-.2417.014-.1138.043-.2276.057-.3413.028-.1991.1-.4125.1-.6258.014-.1991-.1-.1564-.256-.1849-.37-.0569-.768-.2702-1.081-.4693-.427-.256-.797-.5831-1.152-.9244-.313-.2987-.512-.7395-.683-1.1377-.057-.0854-.099-.1849-.185-.2276z" fill="#fff873"/><path d="m107.595 70.835c.029-.256.014-.5831-.256-.6969-.185-.0711-.412.0285-.554.128-.199.1423-.228.2418-.199.4551.071.4978-.001.9956-.256 1.4364-.057.0996-.143.2134-.114.3414.014.0711.057.1279.085.1848.256.3698.398.8391.469 1.2942.171-.0853.256-.256.342-.4267.142-.2844.284-.5688.441-.8532.042-.0996.099-.1849.128-.2845.028-.1137.028-.2275.028-.3413 0-.2133 0-.3982-.057-.5831-.071-.2133-.085-.4409-.057-.6542z" fill="#fff873"/><path d="m101.978 69.0711v1.4363s.996.9813 2.489 1.3653 1.906 0 1.906 0l-.043-3.1003c-.014 0-4.025-1.4079-4.352.2987z" fill="#deb08a"/><path d="m101.978 69.0716v1.4363s.668.6542 1.749 1.1093c-.028-.2133-.042-.4408-.042-.6541 0-.4694.071-.9387.042-1.408-.028-.4693-.227-.8817-.384-1.3084-.682.0142-1.251.2276-1.365.8249z" fill="#d18d6d"/><path d="m107.411 71.1904c-.27.9102-1.18 1.0951-2.346.7538-.569-.1707-1.124-.5974-1.551-.9671-.17-.1565-.312-.2987-.426-.4125-.029-.0426-.071-.0711-.1-.1137-.028-.0427-.057-.0711-.085-.0854-.071-.0853-.114-.1279-.114-.1279-2.617-3.4986-.697-3.6835.114-5.0772.057-.1138.128-.2133.227-.2987.057-.0711.143-.1564.214-.2275 1.052-1.024 3.114-1.4648 4.039-1.2373.711.1707 1.137.7395 1.393 1.3795.128.3271.214.6684.256.9955 0 .0427.015.0854 0 .1422.029 1.1236-1.365 4.4088-1.621 5.2763z" fill="#f0b88f"/><path d="m109.047 65.8995c-.015.0142-.015.0142-.029.0142-.199.0853-.441.0853-.654.0853-.611-.0142-1.223-.0284-1.792-.1848-.256-.0569-.583-.2276-.853-.1281-.199.0712-.455.2418-.597.4125-.072.0853-.128.1849-.185.2986-.199.3698-.455.7111-.527 1.1236-.071.4124-.184.8106-.298 1.2088-.086.3129-.256.5689-.398.8675-.185.4267-.228.896-.2 1.3795-.17-.1564-.312-.2986-.426-.4124-.029-.0427-.071-.0853-.1-.1138-.028-.0426-.057-.0711-.085-.0853-.071-.0853-.114-.128-.114-.128-2.617-3.4985-.697-3.6834.114-5.0771.057-.1138.128-.2134.227-.2987.057-.0711.143-.1564.214-.2275.512-.4409 1.223-.6542 1.891-.7111.427-.0285.854-.0143 1.28.0568.541.0854 1.124.2134 1.593.4978.156.0996.412.1849.668.2987.128.3271.214.6684.256.9955.015.0284.015.0711.015.128z" fill="#df9876"/><path d="m102.49 69.6259c.085-.5973-.114-1.1377-.356-1.6639-.085-.1849-.17-.384-.199-.5973-.014-.256.071-.64.242-.8249.242-.256.626-.2275.811.0285.142.1849.199.4409.241.6684.057.2987.1.6115.128.9244v.0284c.185.0427.356.0996.541.1707 0-.0142.014-.0427.014-.0569.128-.6115.313-1.1946.455-1.7919.284-1.1946 1.508-1.5075 3.541-1.3084.697.0711.868.2417 1.095.4835.086-.7964 0-1.5359-.412-2.0906-.669-.8959-1.565-1.7492-2.688-2.0337-1.209-.3128-2.347.0427-3.371.7253-.896.6116-1.422 1.8631-1.607 2.8728-.128.6684-.113 1.3511-.028 2.0195.114.8675.469 1.6924 1.052 2.3324.143.1422.285.2986.455.4408 0-.0284.086-.2702.086-.3271z" fill="#4f2900"/><path d="m106.545 62.2875c.398.128.796.3414 1.166.5405.099.0569.213.1137.313.1706.085.0427.17.0996.256.1565-.626-.7253-1.394-1.3511-2.333-1.5929-1.209-.3128-2.346.0427-3.37.7253-.896.6116-1.422 1.8631-1.607 2.8728-.128.6684-.114 1.3511-.029 2.0195.086.6969.356 1.3653.754 1.9484-.014-.0996-.028-.1991-.043-.2845-.042-.5119-.071-1.0239-.071-1.5217 0-.8817.142-1.735.37-2.6025.412-1.5218 1.863-2.4035 3.385-2.5742.412-.0569.81.0142 1.209.1422z" fill="#422200"/><path d="m110.753 91.001 7.495-4.3234v-7.1393l-7.495 4.3234z" fill="#bf9245"/><path d="m104.794 80.4056 5.959 3.4559v7.1393l-5.959-3.4274z" fill="#cfa658"/><path d="m104.808 80.4057 5.945 3.4558 3.513-2.0337 1.138-.6542 2.844-1.6355-5.959-3.4558-2.83 1.6355-1.152.6541z" fill="#edce7d"/><path d="m114.265 81.8277 1.138-.6542-5.945-3.4558-1.152.6541z" fill="#fee9ab"/><path d="m115.403 81.174.015 2.7163-.242-.64-.242.896-.341-.5831-.285.9244-.042-2.6594z" fill="#dbc68a"/><path d="m106.856 82.7521.555.3129v.7253l-.555-.3129z" fill="#a05e00"/><path d="m106.102 82.3112.54.3128v.7253l-.54-.3128z" fill="#a05e00"/><path d="m105.334 81.8703.541.3129v.7253l-.541-.3129z" fill="#a05e00"/><path d="m110.979 77.2488 1.679.9813 1.265-.7253-1.678-.9813z" fill="#ebebeb"/><path d="m111.178 77.2345 1.493.8817.057-.0284-1.493-.8817z" fill="#bfbfbf"/><path d="m111.335 77.1494 1.493.8817.057-.0427-1.493-.8817z" fill="#bfbfbf"/><path d="m111.505 77.0497 1.494.8817.057-.0284-1.494-.8818z" fill="#bfbfbf"/><path d="m111.662 76.9642 1.494.8818.057-.0427-1.494-.8675z" fill="#bfbfbf"/><path d="m111.961 76.794 1.493.8818.185-.1138-1.493-.8675z" fill="#bfbfbf"/><path d="m109.074 83.6479 1.18.6969v1.6071l-1.18-.6969z" stroke="#a05e00" stroke-miterlimit="10" stroke-width=".0506"/><path d="m109.487 84.5299v.7964l.37.2133v-.7964l.185.0995-.37-.7822-.37.3698z" fill="#a05e00"/><path d="m110.128 85.5974c-.128.0568-.341.1422-.54.2417-.043.0142-.1.0285-.128.0427-.328.128-.569.3271-.925.3982-.327.0711-.668.0427-.995-.0142-1.38-.2702-3.84-1.3511-5.348-1.4649-.512-.1422-.881.3983-.995.8107-.071.2418-.114.5262-.114.7822 0 .2986.256.6115.398.8675.157.2986.356.2986.654.3555.285.0569.555.0996.839.128.768.0996 1.551.128 2.319.1138 2.588-.0426 2.872-.1138 3.868.1707.327.0995.54.2133.882.1706.17-.0284.441-.0284.64-.0995.512 0 .81-.0853 1.109-.1138.384-.0427.327.0996.782-.6115.441-.7111-.057-.6969-.057-.6969s0 0 .029-.256c.028-.256-.199-.2417-.199-.2417l-1.579-.0996c-.057-.0427-.128-.0853-.199-.128.284-.1991.867-.64.782-.8675-.114-.3129-.839.3555-1.223.512z" fill="#f1bc95"/><path d="m101.851 87.2465c0 .1423.042.2703.128.3129.142.0996.498.0854.668.1138.868.128 1.764.1707 2.645.1707 2.589-.0427 2.873-.1138 3.869.1706.27.0711.455.1707.697.1707-.441-.3271-.896-.5973-1.351-.6827-1.167-.2559-2.361-.1564-3.542-.2275-.682-.0427-1.365-.1422-2.033-.3129-.214-.0569-.413-.0995-.612-.1706-.128-.0427-.185-.1138-.313-.0285-.099.0711-.156.2987-.156.4835z" fill="#d18d6d"/><path d="m99.6603 73.6224c.4547.2844.8107.8248.9957 1.2372.668 1.4364 1.152 3.0292 1.322 4.6078.185 1.6923.185 4.3944 1.949 5.333.057.0285.128.0569.185.1138.042.0427.071.0995.085.1706.071.256.057.5263.028.7965-.056.6541-.113 1.3225-.426 1.9056-.057.0996-.114.2134-.214.2702-.156.1138-.355.1138-.554.1138-.313 0-.64 0-.953-.0142-.27-.0142-.498-.128-.697-.3129-.995-.9386-1.337-2.2754-1.6212-3.5696-.2986-1.4079-.6684-2.7447-1.2088-4.0815-.1422-.3556-.2844-.6969-.4551-1.0382-.5262-1.0239-1.0382-2.2754-.8817-3.4558.0853-.64.5688-1.4933 1.0381-1.9199.1423-.128.3129-.256.4978-.3129.3271-.0995.64-.0142.9102.1565z" fill="#ebe56b"/><path d="m125.743 106.602-10.496 6.087 13.212 7.623 10.496-6.087z" fill="#fff" fill-opacity=".2"/><path d="m136.495 125.005-13.212-7.623v-14.221l13.212 7.622z" fill="#bf9245"/><path d="m146.991 104.696-10.496 6.087v14.222l10.496-6.059z" fill="#cfa658"/><path d="m140.96 110.03-3.214 1.863v4.337l3.214-1.849z" stroke="#a05e00" stroke-miterlimit="10" stroke-width=".1365"/><path d="m139.851 112.405v2.161l-1.01.569.014-2.161-.497.284.995-2.133.996.995z" fill="#a05e00"/><path d="m146.99 104.696-10.495 6.087-6.201-3.584-2.005-1.152-5.006-2.887 10.495-6.0865 5.006 2.887 2.02 1.1665z" fill="#edce7d"/><path d="m130.294 107.2-2.005-1.152 10.495-6.0872 2.02 1.1662z" fill="#fee9ab"/><path d="m128.047 118.905-3.797-2.176v-3.271l3.797 2.161z" fill="#ababab"/><path d="m127.834 118.477-3.37-1.92v-.156l3.37 1.934z" fill="#595959"/><path d="m127.834 118.079-3.37-1.934v-.142l3.37 1.92z" fill="#595959"/><path d="m127.834 117.667-3.37-1.934v-.143l3.37 1.92z" fill="#595959"/><path d="m127.834 117.255-3.37-1.935v-.142l3.37 1.92z" fill="#595959"/><path d="m127.834 116.472-3.37-1.92v-.469l3.37 1.92z" fill="#595959"/><path d="m128.289 106.048-.014 4.793.412-1.124.427 1.593.597-1.038.526 1.635.057-4.707z" fill="#dbc68a"/><path d="m143.349 108.835-.953.555v1.28l.953-.555z" fill="#a05e00"/><path d="m144.701 108.053-.967.569v1.28l.967-.554z" fill="#a05e00"/><path d="m146.038 107.285-.953.555v1.28l.953-.555z" fill="#a05e00"/><path d="m132.696 98.5244-5.916 3.4276 7.452 4.295 5.917-3.428z" fill="#e6daca"/><path d="m138.755 108.835-7.453-4.295v-4.351l7.453 4.309z" fill="#bf9245"/><path d="m144.671 101.056-5.916 3.442v4.337l5.916-3.413z" fill="#cfa658"/><path d="m144.671 101.056-5.916 3.442-3.499-2.02-1.138-.654-2.816-1.635 5.917-3.4278 2.83 1.6212 1.137.6685z" fill="#edce7d"/><path d="m135.257 102.478-1.138-.654 5.93-3.4414 1.138.6685z" fill="#fee9ab"/><path d="m134.119 101.824v2.702l.227-.64.256.896.328-.569.298.911.029-2.646z" fill="#dbc68a"/><path d="m142.623 103.388-.541.313v.726l.541-.313z" fill="#a05e00"/><path d="m143.377 102.962-.541.313v.725l.541-.313z" fill="#a05e00"/><path d="m144.145 102.521-.54.313v.725l.54-.313z" fill="#a05e00"/><path d="m138.528 97.9131-1.664.9955-1.266-.7253 1.678-.9813z" fill="#ebebeb"/><path d="m138.329 97.9137-1.494.8675-.056-.0284 1.493-.8818z" fill="#bfbfbf"/><path d="m138.171 97.814-1.493.8818-.057-.0285 1.493-.8817z" fill="#bfbfbf"/><path d="m138.016 97.7285-1.493.8675-.057-.0284 1.493-.8675z" fill="#bfbfbf"/><path d="m137.845 97.6428-1.479.8675-.057-.0284 1.479-.8817z" fill="#bfbfbf"/><path d="m137.547 97.472-1.479.8675-.185-.0995 1.493-.8818z" fill="#bfbfbf"/><path d="m140.418 104.284-1.18.683v1.607l1.18-.683z" stroke="#a05e00" stroke-miterlimit="10" stroke-width=".0503"/><path d="m140.02 105.166v.796l-.369.214v-.811l-.185.114.37-.782.369.355z" fill="#a05e00"/></svg>