<svg fill="none" height="141" viewBox="0 0 166 141" width="166" xmlns="http://www.w3.org/2000/svg"><path d="m0 81.5553 17.4033-31.2908 47.0242-5.9769 56.6755 33.8222-64.674 35.5802z" fill="#fff" fill-opacity=".2"/><path d="m38.2167 37.1509v66.2031l38.4279 22.554 1.3888-.791 17.3506 10.002v1.6l6.504 3.762v-66.2206z" fill="#570100"/><g fill="#ba3636"><path d="m48.6402 52.4625-2.9357-1.7052v51.0327l2.9357 1.705z"/><path d="m43.4007 49.0519-2.9357-1.6876v51.0321l2.9357 1.6876z"/><path d="m53.8433 55.4859-2.9357-1.7051v51.0322l2.9357 1.688z"/><path d="m59.0636 58.4923-2.9357-1.6876v51.0323l2.9357 1.687z"/><path d="m64.2842 61.5157-2.9533-1.7052v51.0325l2.9533 1.687z"/><path d="m69.4871 64.5211-2.9357-1.6876v51.0325l2.9357 1.687z"/><path d="m74.7086 67.545-2.9534-1.7052v51.0322l2.9534 1.705z"/><path d="m79.9114 70.5689-2.9357-1.7051v51.0322l2.9357 1.688z"/><path d="m85.1347 73.5758-2.9533-1.6876v51.0318l2.9533 1.688z"/><path d="m90.3376 76.5992-2.9357-1.7052v51.032l2.9357 1.705z"/><path d="m95.5582 79.6217-2.9533-1.7052v51.0325l2.9533 1.687z"/><path d="m100.761 82.628-2.9358-1.6876v51.0146l2.9358 1.705z"/></g><path d="m47.8521 51.9522-2.9357-1.6876v51.0324l2.9357 1.687z" fill="#750000"/><path d="m42.6125 48.5597-2.9357-1.7052v51.0322l2.9357 1.6876z" fill="#750000"/><path d="m53.0724 54.9762-2.9357-1.7052v51.032l2.9357 1.705z" fill="#750000"/><path d="m58.2764 57.9996-2.9357-1.7052v51.0326l2.9357 1.687z" fill="#750000"/><path d="m63.4967 61.005-2.9357-1.6876v51.0326l2.9357 1.687z" fill="#750000"/><path d="m68.6997 64.0289-2.9357-1.7052v51.0323l2.9357 1.688z" fill="#750000"/><path d="m73.9202 67.0528-2.9357-1.7051v51.0323l2.9357 1.687z" fill="#750000"/><path d="m79.1232 70.0587-2.9357-1.7052v51.0325l2.9357 1.705z" fill="#750000"/><path d="m84.3464 73.0826-2.9358-1.7052v51.0326l2.9358 1.687z" fill="#750000"/><path d="m89.5494 76.089-2.9358-1.6876v51.0326l2.9358 1.687z" fill="#750000"/><path d="m94.7697 79.1124-2.9357-1.7052v51.0318l2.9357 1.706z" fill="#750000"/><path d="m99.9727 82.1358-2.9357-1.7051v51.0323l2.9357 1.687z" fill="#750000"/><path d="m38.2166 93.2983-2.0392.5626 43.2622 31.9241 13.1492 7.611 9.2992 5.344v-8.315z" fill="#d8d8d8"/><path d="m36.1774 93.8604v8.3326l43.2622 25.331 13.1492 7.595 9.2992 5.361v-8.332z" fill="#9d9b96"/><path d="m160.62 40.4377-63.6715-37.12715-58.7318 33.83985 63.6713 37.1095z" fill="#d1c9ca"/><path d="m96.9497 12.2938-47.7097 27.4585-4.5178-2.6017 52.2275-30.07785 55.5673 32.34555-7.295 1.0196z" fill="#7e898d"/><path d="m96.9497 7.07275v5.22105l48.2723 28.1441 7.295-1.0196z" fill="#545354"/><path d="m139.93 41.0172-46.6555-26.5972 3.6741-2.127 48.2724 28.1441z" fill="#8f8f8f"/><path d="m101.888 140.48 6.258-3.621v-1.477l39.114-22.483-37.321 22.976 50.681-29.235v-66.2025l-28.742 4.0432-29.99 29.779z" fill="#c9332e"/><path d="m154.133 103.775v-59.5225l2.936-1.6876v59.5231z" fill="#820905"/><path d="m147.894 47.9078 2.936-1.7052v59.4874l-2.936 1.688z" fill="#820905"/><path d="m141.636 51.5475 2.936-1.6876v59.4351l-2.936 1.687z" fill="#820905"/><path d="m135.395 55.2047 2.935-1.7052v59.3995l-2.935 1.706z" fill="#820905"/><path d="m129.137 58.8429 2.953-1.6876v59.3647l-2.953 1.688z" fill="#820905"/><path d="m122.895 62.4996 2.935-1.7052v59.3296l-2.935 1.688z" fill="#820905"/><path d="m116.656 66.1388 2.935-1.6876v59.2768l-2.935 1.705z" fill="#820905"/><path d="m110.397 69.7945 2.936-1.7051v59.2596l-2.936 1.687z" fill="#820905"/><path d="m104.156 73.4337 2.936-1.7052v59.2245l-2.936 1.687z" fill="#820905"/><path d="m155.1 103.231v-59.5058l2.936-1.7052v59.523z" fill="#db3732"/><path d="m148.861 47.3639 2.936-1.6876v59.4697l-2.936 1.706z" fill="#db3732"/><path d="m142.604 51.0206 2.953-1.7052v59.4526l-2.953 1.688z" fill="#db3732"/><path d="m136.362 54.6593 2.936-1.6876v59.4003l-2.936 1.687z" fill="#db3732"/><path d="m130.12 58.3155 2.935-1.7051v59.3646l-2.935 1.705z" fill="#db3732"/><path d="m123.862 61.9547 2.936-1.6876v59.3299l-2.936 1.687z" fill="#db3732"/><path d="m117.623 65.6114 2.936-1.7052v59.2948l-2.936 1.687z" fill="#db3732"/><path d="m111.365 69.2501 2.935-1.6876v59.2415l-2.935 1.705z" fill="#db3732"/><path d="m105.124 72.9068 2.936-1.7051v59.2243l-2.936 1.687z" fill="#db3732"/><path d="m108.146 126.804 14.38-8.227 38.094-21.9916 2.338.3516-54.812 38.182-6.258 3.621v-8.315z" fill="#fff3f4"/><path d="m108.146 128.544 14.38-8.227 38.094-21.9917 2.338-1.3888v8.3325l-54.812 31.59-6.258 3.621v-8.315z" fill="#d3c9ca"/><path d="m65.6055 4.69996 68.9625 40.18584 31.432-4.5002-68.9631-40.185893z" fill="#fae35a"/><path d="m166 40.3848-64.199 36.9864 32.768-32.4862z" fill="#e6a007"/><path d="m65.6051 4.69922 68.9629 40.18588-32.767 32.4862-68.9809-40.1859z" fill="#cf8d00"/><path d="m97.1768 74.9624 32.7672-32.4862-1.353-1.3888-32.7678 32.4862z" fill="#bd8100"/><path d="m88.1241 69.7065 32.7679-32.4862-1.354-1.4063-32.7851 32.4862z" fill="#bd8100"/><path d="m79.0549 64.4331 32.7851-32.4862-1.371-1.3888-32.7677 32.4862z" fill="#bd8100"/><path d="m69.9996 59.1762 32.7674-32.4862-1.354-1.3887-32.767 32.4862z" fill="#bd8100"/><path d="m60.9481 53.9214 32.7674-32.4863-1.3536-1.3887-32.785 32.4862z" fill="#bd8100"/><path d="m51.8775 48.6645 32.7851-32.4862-1.3712-1.4063-32.7675 32.4862z" fill="#bd8100"/><path d="m42.8226 43.3906 32.7675-32.4862-1.3536-1.38878-32.7675 32.48618z" fill="#bd8100"/><path d="m129.435 42.7401 31.502-4.553-.334-1.9161-31.484 4.553z" fill="#e0ac28"/><path d="m120.385 37.4843 31.502-4.553-.334-1.9337-31.502 4.553z" fill="#e0ac28"/><path d="m111.312 32.2103 31.502-4.553-.317-1.9161-31.502 4.553z" fill="#e0ac28"/><path d="m102.258 26.954 31.502-4.553-.334-1.9161-31.502 4.553z" fill="#e0ac28"/><path d="m93.204 21.6981 31.502-4.553-.334-1.9161-31.502 4.553z" fill="#e0ac28"/><path d="m84.1343 16.4413 31.5017-4.553-.316-1.93371-31.5021 4.55301z" fill="#e0ac28"/><path d="m75.0806 11.1683 31.5014-4.55296-.334-1.91612-31.5014 4.55299z" fill="#e0ac28"/><path d="m34.8603 38.7851 32.7675-32.48619-1.3536-1.38875-32.7675 32.48624z" fill="#bd8100"/><path d="m67.1176 6.56238 31.5018-4.55299-.3341-1.9161283-31.5017 4.5529883z" fill="#e0ac28"/><path d="m116.022 124.308v8.068l-4.131 2.356v-8.086z" fill="#d3c9ca"/><path d="m154.272 66.2437v43.9833l-39.694 22.905v-12.34-31.6428l37.215-21.4816z" fill="#a7a7a7"/><path d="m154.273 66.2437v43.9833l-4.94-3.376v-37.7595z" fill="#570100"/><path d="m151.793 67.668v34.561l-37.215 23.45v-36.5293z" fill="#ebe7e7"/><path d="m151.508 68.4371-37.226 21.4862.589 1.0201 37.226-21.4862z" fill="#c0c4d1"/><path d="m151.512 77.0743-37.225 21.4862.588 1.0201 37.226-21.4862z" fill="#c0c4d1"/><path d="m151.506 72.6466-37.226 21.4862.589 1.0201 37.225-21.4863z" fill="#c0c4d1"/><path d="m151.508 81.699-37.226 21.486.589 1.02 37.226-21.4859z" fill="#c0c4d1"/><path d="m151.512 86.338-37.225 21.486.589 1.02 37.225-21.4859z" fill="#c0c4d1"/><path d="m151.508 90.9632-37.226 21.4858.589 1.02 37.226-21.4857z" fill="#c0c4d1"/><path d="m151.506 97.5218-37.226 21.4862.589 1.02 37.226-21.4861z" fill="#73757d"/><path d="m114.578 116.362 37.215-21.4821v4.4299l-37.215 21.4822z" fill="#222"/><path d="m151.793 99.3101v9.1409l-7.717.211-29.498 17.017v-4.887z" fill="#575757"/><path d="m117.937 89.1499 15.259-8.8071v4.676l-15.259 8.8072z" fill="#696969"/><path d="m132.652 84.2799v-2.5665l-14.152 8.1743v2.5665z" fill="#799abc"/><path d="m132.23 84.1217v-2.1622l.422-.2461v2.5665l-14.152 8.1743v-.4043z" fill="#b1b1b1"/><path d="m148.718 71.3765v4.7112l-13.008 7.4887v-4.6936z" fill="#696969"/><path d="m148.103 75.3844v-2.6193l-11.796 6.8032v2.6192z" fill="#799abc"/><path d="m147.698 75.2262v-2.215l.405-.2461v2.6193l-11.796 6.8031v-.4043z" fill="#b1b1b1"/><path d="m109.342 89.9049-1.142-5.2034-.967 6.4339-1.477.8614-1.969-7.3481 1.512-.8789 1.195 5.555.967-6.8207 1.389-.8087 1.195 5.555.985-6.8207 1.459-.8438-1.705 9.4928z" fill="#570100"/><path d="m113.983 85.6513-.386 1.7931-1.46.8438 2.286-9.8091 1.459-.8438 2.496 7.0492-1.512.8789-.422-1.3184zm1.143-5.4495-.774 3.5861 1.618-.9317z" fill="#570100"/><path d="m121.401 80.5181-.035.0176-1.072.6329.035 2.3732-1.424.8262-.141-8.4204 2.514-1.4591c1.477-.8614 2.338-.2988 2.373 1.5821.018 1.2833-.316 2.4259-.967 3.2873l1.213 2.0919-1.617.9317zm-.07-1.67c.615-.3516.967-1.0371.949-1.9161-.017-.879-.387-1.1075-1.002-.7559l-1.072.6328.035 2.6721z" fill="#570100"/><path d="m125.99 73.4338.035 1.67 2.672-1.547.036 1.6876-2.672 1.547.035 1.6876 3.041-1.7755.035 1.6876-4.465 2.6017-.141-8.4204 4.378-2.549.035 1.6876z" fill="#570100"/><path d="m133.812 75.6836-.052-3.2697-2.321 1.3536.053 3.2697-1.424.8262-.141-8.4204 1.424-.8262.053 3.4631 2.321-1.3536-.053-3.4631 1.424-.8262.14 8.4204z" fill="#570100"/><path d="m141.988 66.6838c.035 2.4435-1.231 5.0628-2.954 6.0824-1.722 1.002-3.058-.0879-3.094-2.549-.035-2.4435 1.231-5.0276 2.954-6.0296 1.722-1.0196 3.041.0527 3.094 2.4962zm-4.606 2.6896c.017 1.4239.773 2.0919 1.635 1.5821.861-.5098 1.529-2.004 1.512-3.4103-.018-1.4239-.739-2.0919-1.6-1.5821-.879.4922-1.582 1.9864-1.547 3.4103z" fill="#570100"/><path d="m147.787 64.012c.035 2.215-.932 4.2014-2.497 5.1155-1.582.9141-2.601.0879-2.637-2.1271l-.087-4.8869 1.423-.8263.088 4.887c.018 1.1427.51 1.547 1.196 1.1603.668-.3868 1.125-1.3536 1.09-2.4963l-.088-4.887 1.424-.8262z" fill="#570100"/><path d="m153.096 56.8387-.51 1.9865c-.598-.1758-1.354-.1055-1.811.1582-.369.2109-.615.5625-.597.9668.017 1.4591 2.971-1.0899 3.023 1.9513.035 1.6876-.949 3.1467-2.197 3.8674-.932.545-1.899.5801-2.584.1407l.527-1.9689c.58.4219 1.459.4219 2.039.0879.44-.2637.721-.668.721-1.1602-.017-1.4942-2.971 1.125-3.024-1.8634-.017-1.547.844-3.0588 2.198-3.8322.791-.4571 1.635-.5626 2.215-.3341z" fill="#570100"/><path d="m155.329 56.3996.035 1.67 2.672-1.5469.035 1.6876-2.672 1.5469.035 1.6876 3.042-1.7755.035 1.6876-4.465 2.6017-.141-8.4204 4.377-2.5489.035 1.6876z" fill="#570100"/><path d="m110.572 88.816-1.143-5.2034-.966 6.434-1.477.8613-1.969-7.348 1.512-.879 1.195 5.555.967-6.8207 1.389-.8086 1.195 5.555.985-6.8207 1.459-.8438-1.705 9.4927z" fill="#bd7100"/><path d="m116.356 79.1125-.774 3.5861 1.618-.9317zm-1.143 5.4495-.387 1.7931-1.459.8437 2.286-9.8091 1.459-.8438 2.496 7.0492-1.512.879-.422-1.3184z" fill="#bd7100"/><path d="m122.561 77.7583c.615-.3516.967-1.0372.949-1.9161-.018-.879-.387-1.1075-1.002-.7559l-1.072.6328.035 2.672zm.07 1.67-.035.0176-1.072.6328.035 2.3732-1.424.8262-.141-8.4204 2.514-1.459c1.477-.8614 2.338-.2989 2.373 1.5821.018 1.2833-.316 2.4259-.967 3.2873l1.213 2.0919-1.617.9317z" fill="#bd7100"/><path d="m127.22 72.3444.035 1.67 2.672-1.5469.036 1.6876-2.672 1.5469.035 1.6876 3.041-1.7755.035 1.6876-4.465 2.6017-.141-8.4203 4.378-2.549.035 1.6876z" fill="#bd7100"/><path d="m135.042 74.5948-.052-3.2698-2.321 1.3536.053 3.2698-1.424.8262-.141-8.4204 1.424-.8262.053 3.463 2.32-1.3536-.052-3.463 1.424-.8263.14 8.4204z" fill="#bd7100"/><path d="m138.61 68.2845c.018 1.424.774 2.092 1.635 1.5822s1.529-2.0041 1.512-3.4104c-.018-1.4239-.738-2.0919-1.6-1.5821-.879.4922-1.582 1.9864-1.547 3.4103zm4.588-2.6896c.035 2.4435-1.23 5.0628-2.953 6.0824-1.723 1.002-3.059-.0879-3.094-2.549-.035-2.4435 1.231-5.0276 2.953-6.0296 1.741-1.0196 3.059.0527 3.094 2.4962z" fill="#bd7100"/><path d="m148.999 62.9226c.035 2.215-.931 4.2014-2.496 5.1156-1.582.9141-2.602.0879-2.637-2.1271l-.088-4.887 1.424-.8262.088 4.887c.018 1.1426.51 1.5469 1.195 1.1602.668-.3867 1.125-1.3536 1.09-2.4962l-.088-4.887 1.424-.8263z" fill="#bd7100"/><path d="m154.326 55.7494-.51 1.9864c-.598-.1758-1.354-.1054-1.811.1582-.369.211-.615.5626-.597.9669.017 1.4591 2.97-1.0899 3.023 1.9513.035 1.6876-.949 3.1466-2.197 3.8674-.932.5449-1.916.5801-2.584.1406l.527-1.9688c.58.4219 1.459.4219 2.039.0878.44-.2636.721-.668.721-1.1602-.018-1.4942-2.971 1.1251-3.024-1.8634-.017-1.5469.844-3.0587 2.198-3.8322.791-.4571 1.635-.5625 2.215-.334z" fill="#bd7100"/><path d="m156.559 55.3102.035 1.6701 2.672-1.547.035 1.6876-2.672 1.547.035 1.6876 3.042-1.7755.035 1.6876-4.465 2.6017-.141-8.4204 4.377-2.549.035 1.6876z" fill="#bd7100"/><path d="m110.677 88.8502-1.125-5.2034-.967 6.4339-1.477.8438-1.969-7.348 1.53-.879 1.195 5.555.967-6.8207 1.389-.8086 1.195 5.555.984-6.8207 1.459-.8438-1.705 9.4927z" fill="#c07500"/><path d="m116.46 79.1471-.774 3.5862 1.618-.9317zm-1.16 5.4495-.387 1.7931-1.459.8438 2.285-9.8091 1.459-.8438 2.496 7.0492-1.511.879-.422-1.3185z" fill="#c07500"/><path d="m122.665 77.811c.615-.3516.967-1.0372.949-1.9161-.017-.879-.387-1.1075-1.002-.7559l-1.072.6328.035 2.6721zm.053 1.6525-.036.0175-1.072.6329.035 2.3732-1.424.8262-.14-8.4204 2.513-1.4591c1.477-.8614 2.339-.2988 2.374 1.5821.017 1.2833-.317 2.426-.967 3.2873l1.213 2.0919-1.617.9317z" fill="#c07500"/><path d="m127.324 72.3967.035 1.67 2.672-1.5645.017 1.6875-2.672 1.547.035 1.7052 3.042-1.7755.035 1.6876-4.483 2.6017-.14-8.4204 4.394-2.549.018 1.6876z" fill="#c07500"/><path d="m135.147 74.6465-.053-3.2697-2.32 1.336.053 3.2697-1.424.8438-.141-8.4204 1.424-.8262.053 3.4631 2.32-1.3536-.053-3.4631 1.424-.8262.141 8.4204z" fill="#c07500"/><path d="m138.697 68.3187c.018 1.4239.774 2.0919 1.635 1.5821.862-.5098 1.53-2.004 1.512-3.4103-.018-1.4239-.721-2.0919-1.6-1.5821-.861.5098-1.564 2.004-1.547 3.4103zm4.606-2.672c.035 2.4435-1.23 5.0628-2.953 6.0824-1.723 1.002-3.059-.0879-3.094-2.549-.035-2.4435 1.23-5.0276 2.953-6.0296 1.74-1.0196 3.059.0527 3.094 2.4962z" fill="#c07500"/><path d="m149.106 62.9563c.035 2.215-.932 4.2014-2.497 5.1156-1.582.9141-2.601.0878-2.636-2.1271l-.088-4.887 1.424-.8262.087 4.887c.018 1.1426.528 1.5469 1.196 1.1602.668-.3868 1.125-1.3536 1.09-2.4963l-.088-4.8869 1.424-.8263z" fill="#c07500"/><path d="m154.43 55.8016-.509 1.9865c-.598-.1758-1.354-.1055-1.811.1582-.369.2109-.615.5625-.598.9668.018 1.4591 2.971-1.0899 3.024 1.9513.035 1.6876-.949 3.1467-2.197 3.8674-.932.545-1.899.5801-2.585.1407l.528-1.9689c.58.4219 1.459.4219 2.039.0879.439-.2637.721-.668.721-1.1602-.018-1.4943-2.971 1.125-3.024-1.8634-.017-1.547.844-3.0588 2.197-3.8323.792-.457 1.618-.5625 2.215-.334z" fill="#c07500"/><path d="m156.646 55.3449.036 1.67 2.672-1.5469.035 1.6876-2.672 1.5469.017 1.7052 3.059-1.7755.018 1.67-4.465 2.6017-.141-8.4028 4.377-2.549.035 1.6876z" fill="#c07500"/><path d="m110.784 88.9039-1.143-5.2034-.949 6.4164-1.477.8613-1.969-7.348 1.512-.879 1.213 5.555.967-6.8207 1.389-.8086 1.195 5.555.985-6.8207 1.459-.8438-1.723 9.4927z" fill="#c47900"/><path d="m116.567 79.2008-.774 3.5862 1.618-.9317zm-1.16 5.4496-.387 1.793-1.459.8438 2.285-9.8091 1.459-.8438 2.497 7.0492-1.512.879-.422-1.3185z" fill="#c47900"/><path d="m122.754 77.8647c.616-.3516.967-1.0371.95-1.9161-.018-.879-.387-1.1075-1.002-.7559l-1.073.6328.036 2.6721zm.071 1.6525-.035.0175-1.073.6329.035 2.3732-1.423.8262-.141-8.4204 2.514-1.4591c1.476-.8613 2.338-.2988 2.373 1.5821.017 1.2833-.317 2.426-.967 3.2873l1.213 2.092-1.617.9317z" fill="#c47900"/><path d="m127.431 72.4328.017 1.67 2.672-1.5469.036 1.6876-2.673 1.5469.036 1.7052 3.041-1.7755.035 1.67-4.483 2.6017-.14-8.4028 4.394-2.549.018 1.6876z" fill="#c47900"/><path d="m135.254 74.6827-.053-3.2698-2.32 1.3536.053 3.2697-1.424.8263-.141-8.4029 1.424-.8262.053 3.4455 2.32-1.336-.052-3.4631 1.423-.8262.141 8.4028z" fill="#c47900"/><path d="m138.804 68.3727c.018 1.4239.774 2.0919 1.635 1.5821.862-.5098 1.53-2.004 1.512-3.4103-.018-1.4239-.738-2.0919-1.6-1.5822-.861.5098-1.564 2.0041-1.547 3.4104zm4.606-2.6896c.035 2.4435-1.23 5.0628-2.953 6.0824-1.723 1.002-3.059-.0879-3.094-2.549-.035-2.4435 1.23-5.0276 2.953-6.0296 1.723-1.0021 3.059.0703 3.094 2.4962z" fill="#c47900"/><path d="m149.213 63.0105c.035 2.215-.932 4.2014-2.496 5.1156-1.583.9141-2.602.0878-2.637-2.1271l-.088-4.887 1.424-.8262.088 4.887c.017 1.1426.509 1.5469 1.195 1.1602.668-.3868 1.125-1.3536 1.09-2.4963l-.088-4.8869 1.424-.8263z" fill="#c47900"/><path d="m154.538 55.8387-.51 1.9865c-.598-.1758-1.354-.1055-1.811.1582-.369.2109-.615.5625-.598.9669.018 1.459 2.971-1.09 3.024 1.9512.035 1.6876-.949 3.1467-2.197 3.8674-.932.545-1.899.5801-2.584.1407l.527-1.9689c.58.4219 1.459.4219 2.039.0879.44-.2637.721-.668.721-1.1602-.018-1.4942-2.971 1.125-3.024-1.8634-.017-1.547.844-3.0588 2.198-3.8323.791-.457 1.617-.5625 2.215-.334z" fill="#c47900"/><path d="m156.754 55.3986.035 1.67 2.672-1.5469.017 1.6876-2.672 1.5469.036 1.6876 3.041-1.7755.035 1.6876-4.465 2.6017-.141-8.4203 4.377-2.5314.036 1.67z" fill="#c47900"/><path d="m110.89 88.9576-1.143-5.221-.949 6.434-1.476.8614-1.969-7.3481 1.511-.8965 1.196 5.555.984-6.8032 1.389-.8086 1.195 5.555.985-6.8207 1.441-.8438-1.705 9.4751z" fill="#c77e00"/><path d="m116.673 79.2531-.756 3.5861 1.618-.9317zm-1.16 5.4495-.387 1.7931-1.459.8438 2.286-9.8092 1.459-.8438 2.496 7.0492-1.512.879-.422-1.3184z" fill="#c77e00"/><path d="m122.861 77.8994c.615-.3516.967-1.0372.949-1.9161-.018-.879-.387-1.1075-1.002-.7559l-1.072.6328.035 2.672zm.07 1.67-.035.0176-1.09.6328.035 2.3732-1.406.8087-.141-8.4204 2.514-1.4591c1.477-.8614 2.338-.2989 2.373 1.5821.018 1.2833-.316 2.4259-.967 3.2873l1.213 2.0919-1.617.9317z" fill="#c77e00"/><path d="m127.537 72.4851.018 1.67 2.672-1.547.035 1.6876-2.672 1.547.017 1.6876 3.059-1.7755.018 1.6876-4.465 2.6017-.141-8.4028 4.377-2.549.035 1.67z" fill="#c77e00"/><path d="m135.361 74.7354-.053-3.2697-2.321 1.3536.053 3.2697-1.424.8262-.14-8.4204 1.423-.8262.053 3.4631 2.321-1.3536-.053-3.4455 1.424-.8438.14 8.4204z" fill="#c77e00"/><path d="m138.911 68.4247c.017 1.4239.773 2.0919 1.635 1.5821.861-.5098 1.529-2.004 1.511-3.4104-.017-1.4239-.738-2.0919-1.599-1.5821-.862.5098-1.565 1.9865-1.547 3.4104zm4.606-2.6896c.035 2.4435-1.231 5.0628-2.954 6.0823-1.722 1.0021-3.058-.0878-3.094-2.5489-.035-2.4435 1.231-5.0277 2.954-6.0297 1.722-1.0196 3.058.0528 3.094 2.4963z" fill="#c77e00"/><path d="m149.319 63.0633c.035 2.2149-.932 4.2014-2.496 5.1155-1.582.9141-2.602.0879-2.637-2.1271l-.088-4.887 1.424-.8262.088 4.887c.018 1.1426.527 1.547 1.195 1.1602.668-.3867 1.125-1.3536 1.09-2.4962l-.088-4.887 1.424-.8262z" fill="#c77e00"/><path d="m154.627 55.89-.51 1.9865c-.598-.1758-1.354-.1055-1.811.1582-.369.2109-.615.5625-.598.9668.018 1.4591 2.971-1.0899 3.024 1.9513.035 1.6876-.949 3.1467-2.197 3.8674-.932.545-1.899.5801-2.584.1406l.527-1.9688c.58.4219 1.459.4219 2.039.0879.44-.2637.721-.668.721-1.1602-.018-1.4943-2.971 1.125-3.024-1.8634-.017-1.547.844-3.0588 2.198-3.8323.808-.457 1.635-.5625 2.215-.334z" fill="#c77e00"/><path d="m156.86 55.4509.035 1.67 2.672-1.547.018 1.67-2.672 1.5646.035 1.6876 3.041-1.7755.035 1.6876-4.482 2.6017-.124-8.4204 4.378-2.549.035 1.6876z" fill="#c77e00"/><path d="m110.993 88.9908-1.143-5.2034-.967 6.434-1.459.8438-1.968-7.3481 1.511-.879 1.196 5.555.967-6.8207 1.406-.8086 1.195 5.555.967-6.8207 1.459-.8438-1.705 9.4927z" fill="#cb8200"/><path d="m116.776 79.2877-.773 3.5862 1.617-.9317zm-1.16 5.4496-.387 1.793-1.459.8438 2.285-9.8091 1.46-.8438 2.496 7.0492-1.512.879-.422-1.3185z" fill="#cb8200"/><path d="m122.964 77.9516c.615-.3515.966-1.0371.949-1.9161-.018-.8789-.387-1.1075-1.002-.7559l-1.072.6329.035 2.672zm.07 1.6525-.035.0176-1.073.6328.036 2.3732-1.424.8262-.141-8.4204 2.514-1.4591c1.477-.8613 2.338-.2988 2.373 1.5822.018 1.2832-.316 2.4259-.967 3.2873l1.213 2.0919-1.617.9317z" fill="#cb8200"/><path d="m127.64 72.5373.018 1.67 2.672-1.5469.035 1.67-2.672 1.5645.017 1.6876 3.059-1.7755.018 1.6876-4.465 2.6017-.141-8.4204 4.377-2.5489.035 1.6875z" fill="#cb8200"/><path d="m135.463 74.7876-.07-3.2697-2.32 1.3536.07 3.2521-1.441.8438-.124-8.4204 1.424-.8262.053 3.4631 2.321-1.3536-.053-3.4631 1.424-.8262.14 8.4204z" fill="#cb8200"/><path d="m139.014 68.4774c.017 1.4239.773 2.0919 1.634 1.5821.862-.5098 1.53-2.004 1.512-3.4103-.017-1.4239-.72-2.0919-1.599-1.5821-.862.4922-1.565 1.9864-1.547 3.4103zm4.605-2.6896c.036 2.4435-1.23 5.0628-2.953 6.0824-1.723 1.002-3.059-.0879-3.094-2.549-.035-2.4435 1.231-5.0276 2.953-6.0296 1.723-1.0196 3.042.0527 3.094 2.4962z" fill="#cb8200"/><path d="m149.422 63.0974c.035 2.215-.932 4.2015-2.496 5.1156-1.582.9141-2.602.0879-2.637-2.1271l-.088-4.887 1.424-.8262.088 4.887c.017 1.1426.527 1.5469 1.195 1.1602s1.108-1.3536 1.09-2.4962l-.088-4.887 1.424-.8263z" fill="#cb8200"/><path d="m154.731 55.9423-.51 1.9864c-.598-.1758-1.354-.1055-1.811.1582-.369.211-.615.5625-.615.9669.017 1.459 2.971-1.0899 3.024 1.9512.035 1.6876-.95 3.1467-2.198 3.8674-.932.545-1.898.5802-2.584.1407l.527-1.9689c.598.4219 1.459.4219 2.04.0879.439-.2637.72-.668.72-1.1602-.017-1.4942-2.971 1.1251-3.023-1.8634-.018-1.547.843-3.0588 2.197-3.8322.826-.4571 1.652-.5626 2.233-.334z" fill="#cb8200"/><path d="m156.961 55.4855.035 1.6701 2.672-1.547.018 1.6876-2.672 1.547.035 1.7051 3.041-1.7755.036 1.6876-4.483 2.5842-.141-8.4029 4.395-2.5489.018 1.6876z" fill="#cb8200"/><path d="m111.1 89.044-1.142-5.2034-.967 6.4164-1.459.8614-1.987-7.3481 1.53-.879 1.195 5.555.967-6.8206 1.389-.8087 1.212 5.555.967-6.8207 1.459-.8438-1.705 9.4927z" fill="#ce8600"/><path d="m116.884 79.341-.773 3.5861 1.617-.9317zm-1.16 5.4495-.387 1.7931-1.459.8438 2.285-9.8092 1.459-.8438 2.497 7.0492-1.512.879-.422-1.3184z" fill="#ce8600"/><path d="m123.071 78.0049c.615-.3516.966-1.0372.949-1.9162-.018-.8789-.387-1.1074-1.002-.7559l-1.072.6329.035 2.672zm.07 1.6524-.035.0176-1.073.6328.036 2.3732-1.424.8262-.141-8.4204 2.514-1.459c1.477-.8614 2.338-.2989 2.373 1.5821.018 1.2833-.316 2.4259-.967 3.2873l1.213 2.0919-1.617.9317z" fill="#ce8600"/><path d="m127.729 72.5729.035 1.6701 2.673-1.547.035 1.6876-2.672 1.547.017 1.7051 3.059-1.7755.018 1.6876-4.466 2.5842-.14-8.4029 4.377-2.5489.035 1.6876z" fill="#ce8600"/><path d="m135.553 74.8228-.053-3.2697-2.32 1.3536.053 3.2697-1.424.8262-.141-8.4028 1.442-.8262.052 3.4455 2.321-1.336-.071-3.4631 1.442-.8262.123 8.4028z" fill="#ce8600"/><path d="m139.121 68.5128c.017 1.4239.773 2.0919 1.635 1.5822.861-.5098 1.529-2.0041 1.511-3.4104-.017-1.4239-.738-2.0919-1.599-1.5821-.862.5098-1.565 2.004-1.547 3.4103zm4.605-2.6896c.036 2.4435-1.23 5.0628-2.953 6.0824-1.723 1.002-3.059-.0879-3.094-2.549-.035-2.4435 1.231-5.0276 2.953-6.0296 1.723-1.002 3.042.0703 3.094 2.4962z" fill="#ce8600"/><path d="m149.527 63.1502c.035 2.2149-.931 4.2014-2.496 5.1155-1.582.9141-2.602.0879-2.637-2.1271l-.088-4.887 1.424-.8262.088 4.887c.018 1.1427.527 1.547 1.195 1.1602.668-.3867 1.126-1.3536 1.09-2.4962l-.088-4.887 1.424-.8262z" fill="#ce8600"/><path d="m154.837 55.9784-.51 1.9864c-.598-.1758-1.354-.1054-1.811.1582-.369.211-.615.5626-.615.9669.018 1.4591 2.971-1.0899 3.024 1.9513.035 1.6876-.95 3.1466-2.198 3.8674-.931.5449-1.898.5801-2.584.1406l.527-1.9688c.598.4219 1.46.4219 2.04.0879.439-.2637.72-.6681.72-1.1603-.017-1.4942-2.97 1.1251-3.023-1.8634-.018-1.5469.844-3.0587 2.197-3.8322.826-.4571 1.653-.5625 2.233-.334z" fill="#ce8600"/><path d="m157.07 55.5388.018 1.67 2.672-1.547.035 1.6876-2.672 1.547.035 1.6876 3.041-1.7755.035 1.6876-4.482 2.6017-.141-8.4028 4.395-2.549.017 1.67z" fill="#ce8600"/><path d="m111.187 89.0978-1.125-5.221-.967 6.4339-1.477.8614-1.968-7.3481 1.529-.8965 1.195 5.555.967-6.8031 1.389-.8087 1.195 5.555.985-6.8207 1.459-.8438-1.705 9.4752z" fill="#d28a00"/><path d="m116.971 79.3937-.756 3.5861 1.617-.9317zm-1.143 5.4495-.387 1.7931-1.459.8438 2.286-9.8091 1.459-.8439 2.496 7.0493-1.512.8789-.422-1.3184z" fill="#d28a00"/><path d="m123.175 78.0405c.615-.3516.967-1.0372.949-1.9337-.017-.879-.387-1.1075-1.002-.7559l-1.072.6328.035 2.6721zm.07 1.67-.035.0176-1.072.6329.035 2.3731-1.424.8263-.141-8.4204 2.514-1.4591c1.477-.8614 2.338-.2989 2.373 1.5821.018 1.2833-.316 2.4259-.966 3.2873l1.212 2.0919-1.617.9317z" fill="#d28a00"/><path d="m127.834 72.6262.035 1.67 2.672-1.547.017 1.6876-2.672 1.547.036 1.6876 3.041-1.7579.035 1.67-4.483 2.6017-.123-8.4028 4.377-2.549.036 1.67z" fill="#d28a00"/><path d="m135.657 74.8765-.052-3.2697-2.321 1.3536.053 3.2697-1.424.8262-.141-8.4204 1.424-.8262.071 3.4631 2.32-1.3536-.07-3.4455 1.424-.8262.14 8.4028z" fill="#d28a00"/><path d="m139.225 68.5658c.018 1.4239.774 2.0919 1.635 1.5821.862-.5098 1.53-2.004 1.512-3.4103-.018-1.4239-.738-2.092-1.6-1.5822-.879.5098-1.582 1.9865-1.547 3.4104zm4.588-2.6896c.036 2.4435-1.23 5.0628-2.953 6.0824-1.723 1.002-3.059-.0879-3.094-2.549-.035-2.4435 1.231-5.0276 2.953-6.0296 1.741-1.0196 3.059.0527 3.094 2.4962z" fill="#d28a00"/><path d="m149.632 63.2039c.035 2.215-.932 4.2014-2.497 5.1155-1.582.9141-2.601.0879-2.636-2.1271l-.088-4.887 1.424-.8262.087 4.887c.018 1.1427.528 1.547 1.196 1.1602.668-.3867 1.107-1.3535 1.09-2.4962l-.088-4.887 1.424-.8262z" fill="#d28a00"/><path d="m154.941 56.0306-.51 1.9865c-.597-.1758-1.353-.1055-1.81.1582-.369.2109-.616.5625-.616.9668.018 1.4591 2.971-1.0899 3.024 1.9513.035 1.6876-.949 3.1467-2.197 3.8674-.932.545-1.899.5801-2.584.1407l.527-1.9689c.58.4219 1.459.4219 2.039.0879.44-.2637.721-.668.721-1.1602-.018-1.4942-2.971 1.125-3.024-1.8634-.017-1.547.844-3.0588 2.198-3.8323.808-.457 1.652-.5625 2.232-.334z" fill="#d28a00"/><path d="m157.174 55.5915.018 1.67 2.672-1.5469.035 1.67-2.672 1.5645.018 1.6876 3.058-1.7755.018 1.6876-4.465 2.6017-.141-8.4204 4.395-2.5489.018 1.6875z" fill="#d28a00"/><path d="m111.292 89.1319-1.125-5.2034-.967 6.434-1.477.8438-1.969-7.3481 1.53-.879 1.195 5.555.967-6.8207 1.389-.8086 1.195 5.555.984-6.8031 1.459-.8614-1.705 9.4927z" fill="#d58e00"/><path d="m117.075 79.4284-.756 3.5861 1.617-.9317zm-1.16 5.4495-.387 1.7931-1.459.8438 2.285-9.8092 1.459-.8438 2.496 7.0492-1.511.879-.422-1.3184z" fill="#d58e00"/><path d="m123.28 78.0928c.615-.3516.966-1.0372.949-1.9162-.018-.8789-.387-1.1075-1.002-.7559l-1.073.6329.036 2.672zm.07 1.6524-.035.0176-1.073.6328.036 2.3732-1.424.8262-.141-8.4204 2.514-1.459c1.476-.8614 2.338-.2989 2.373 1.5821.018 1.2832-.316 2.4259-.967 3.2873l1.213 2.0919-1.635.9668z" fill="#d58e00"/><path d="m127.939 72.6784.035 1.67 2.672-1.5469.017 1.67-2.672 1.5645.035 1.6876 3.042-1.7755.035 1.6876-4.483 2.6017-.141-8.4204 4.395-2.5489.018 1.6876z" fill="#d58e00"/><path d="m135.762 74.9283-.053-3.2698-2.32 1.3536.053 3.2522-1.424.8438-.141-8.4204 1.424-.8262.053 3.463 2.32-1.3535-.053-3.4631 1.424-.8263.141 8.4204z" fill="#d58e00"/><path d="m139.33 68.618c.017 1.4239.773 2.092 1.635 1.5822.861-.5098 1.529-2.0041 1.512-3.4104-.018-1.4239-.739-2.0919-1.6-1.5821-.879.4922-1.582 1.9864-1.547 3.4103zm4.588-2.6896c.035 2.4435-1.23 5.0628-2.953 6.0824-1.723 1.002-3.059-.0879-3.094-2.549-.035-2.4435 1.23-5.0276 2.953-6.0296 1.74-1.0196 3.059.0527 3.094 2.4962z" fill="#d58e00"/><path d="m149.721 63.2381c.035 2.2149-.932 4.2014-2.496 5.1155-1.583.9141-2.602.0879-2.637-2.1271l-.088-4.887 1.424-.8262.088 4.887c.017 1.1426.527 1.547 1.195 1.1602.668-.3867 1.107-1.3536 1.09-2.4962l-.088-4.887 1.424-.8262z" fill="#d58e00"/><path d="m155.046 56.0834-.51 1.9864c-.598-.1758-1.354-.1055-1.811.1582-.369.211-.615.5626-.615.9669.018 1.459 2.971-1.0899 3.024 1.9513.035 1.6876-.95 3.1466-2.198 3.8674-.932.5449-1.898.5801-2.584.1406l.527-1.9689c.581.4219 1.459.4219 2.04.0879.439-.2637.72-.668.72-1.1602-.017-1.4942-2.971 1.1251-3.023-1.8634-.018-1.5469.844-3.0587 2.197-3.8322.809-.4571 1.635-.5626 2.233-.334z" fill="#d58e00"/><path d="m157.279 55.6442.018 1.6701 2.672-1.5646.035 1.6876-2.672 1.547.017 1.7051 3.059-1.7754.018 1.6875-4.465 2.5842-.141-8.4028 4.377-2.549.035 1.6876z" fill="#d58e00"/><path d="m111.399 89.1842-1.143-5.2034-.949 6.4163-1.477.8614-1.969-7.3481 1.512-.8789 1.213 5.555.967-6.8207 1.389-.8086 1.195 5.555.985-6.8207 1.459-.8438-1.723 9.4927z" fill="#d99200"/><path d="m117.182 79.4806-.773 3.5862 1.617-.9317zm-1.16 5.4495-.387 1.7931-1.459.8438 2.285-9.8091 1.459-.8438 2.497 7.0492-1.512.8789-.422-1.3184z" fill="#d99200"/><path d="m123.369 78.145c.616-.3516.967-1.0372.95-1.9337-.018-.879-.387-1.1075-1.002-.7559l-1.073.6328.053 2.6721zm.071 1.6524-.035.0176-1.073.6329.035 2.3731-1.424.8263-.14-8.4204 2.514-1.4591c1.476-.8614 2.338-.2988 2.373 1.5821.017 1.2833-.317 2.4259-.967 3.2873l1.213 2.0919-1.617.9317z" fill="#d99200"/><path d="m128.046 72.7307.017 1.67 2.672-1.5646.036 1.6876-2.673 1.547.036 1.7052 3.041-1.7755.035 1.6876-4.483 2.5841-.14-8.4028 4.394-2.549.018 1.6876z" fill="#d99200"/><path d="m135.869 74.9629-.052-3.2521-2.321 1.336.053 3.2697-1.424.8262-.141-8.4028 1.424-.8262.053 3.4631 2.32-1.3536-.052-3.4631 1.424-.8262.14 8.4028z" fill="#d99200"/><path d="m139.42 68.6527c.017 1.4239.773 2.0919 1.634 1.5821.862-.5098 1.53-2.004 1.512-3.4103-.017-1.4239-.738-2.0919-1.6-1.5821-.861.5097-1.564 2.004-1.546 3.4103zm4.605-2.672c.035 2.4435-1.23 5.0628-2.953 6.0824-1.723 1.002-3.059-.0879-3.094-2.549-.035-2.4435 1.231-5.0276 2.953-6.0297 1.723-1.0195 3.059.0528 3.094 2.4963z" fill="#d99200"/><path d="m149.828 63.2903c.035 2.215-.932 4.2014-2.496 5.1155-1.582.9142-2.602.0879-2.637-2.127l-.088-4.887 1.424-.8262.088 4.887c.017 1.1426.527 1.5469 1.195 1.1602.668-.3868 1.108-1.3536 1.09-2.4963l-.088-4.887 1.424-.8262z" fill="#d99200"/><path d="m155.153 56.1358-.51 1.9864c-.598-.1758-1.354-.1055-1.811.1582-.369.211-.615.5626-.615.9669.018 1.4591 2.971-1.0899 3.024 1.9513.035 1.6876-.95 3.1466-2.198 3.8674-.931.5449-1.898.5801-2.584.1406l.528-1.9689c.58.4219 1.459.422 2.039.0879.439-.2636.721-.668.721-1.1602-.018-1.4942-2.971 1.1251-3.024-1.8634-.018-1.5469.844-3.0587 2.197-3.8322.809-.4746 1.635-.5801 2.233-.334z" fill="#d99200"/><path d="m157.369 55.6789.035 1.67 2.672-1.5469.017 1.6876-2.654 1.5469.017 1.6876 3.059-1.7579.018 1.67-4.465 2.6017-.141-8.4028 4.377-2.549.035 1.6701z" fill="#d99200"/><path d="m111.503 89.2384-1.142-5.221-.95 6.4339-1.476.8614-1.969-7.3481 1.512-.8789 1.195 5.5374.985-6.8031 1.388-.8086 1.196 5.555.984-6.8207 1.459-.8438-1.723 9.4751z" fill="#dc9700"/><path d="m117.287 79.5343-.774 3.5862 1.617-.9317zm-1.161 5.4496-.386 1.793-1.459.8438 2.285-9.8091 1.459-.8438 2.496 7.0492-1.512.879-.422-1.3185z" fill="#dc9700"/><path d="m123.474 78.1806c.615-.3515.967-1.0371.949-1.9337-.017-.8789-.386-1.1074-1.002-.7559l-1.072.6329.035 2.672zm.07 1.6701-.035.0175-1.072.6329.035 2.3732-1.424.8262-.141-8.4204 2.514-1.4591c1.477-.8614 2.338-.2988 2.373 1.5821.018 1.2833-.316 2.426-.966 3.2873l1.213 2.092-1.618.9317z" fill="#dc9700"/><path d="m128.15 72.7668.018 1.67 2.672-1.547.035 1.6876-2.672 1.547.018 1.6876 3.058-1.7579.036 1.67-4.483 2.6017-.141-8.4028 4.395-2.549.018 1.67z" fill="#dc9700"/><path d="m135.974 75.0171-.053-3.2697-2.32 1.3536.052 3.2697-1.424.8262-.14-8.4204 1.424-.8262.053 3.4631 2.32-1.336-.053-3.4631 1.424-.8262.141 8.4028z" fill="#dc9700"/><path d="m139.524 68.7064c.018 1.4239.774 2.0919 1.635 1.5821s1.529-2.004 1.512-3.4103c-.018-1.4239-.721-2.0919-1.6-1.5821-.861.5098-1.564 1.9864-1.547 3.4103zm4.606-2.6896c.035 2.4435-1.231 5.0628-2.953 6.0824-1.723 1.002-3.059-.0879-3.094-2.549-.036-2.4435 1.23-5.0276 2.953-6.0296 1.723-1.0196 3.059.0527 3.094 2.4962z" fill="#dc9700"/><path d="m149.932 63.3445c.036 2.215-.931 4.2014-2.496 5.1155-1.582.9142-2.602.0879-2.637-2.127l-.088-4.887 1.424-.8262.088 4.8869c.018 1.1427.528 1.547 1.196 1.1603.668-.3868 1.107-1.3536 1.09-2.4963l-.088-4.887 1.424-.8262z" fill="#dc9700"/><path d="m155.241 56.1713-.51 1.9864c-.598-.1758-1.353-.1055-1.81.1582-.37.211-.616.5625-.616.9669.018 1.459 2.971-1.0899 3.024 1.9513.035 1.6875-.949 3.1466-2.198 3.8674-.931.5449-1.898.5801-2.584.1406l.528-1.9689c.597.4219 1.459.4219 2.039.0879.439-.2637.721-.668.721-1.1602-.018-1.4942-2.971 1.1251-3.024-1.8634-.018-1.5469.844-3.0587 2.197-3.8322.827-.4571 1.653-.5626 2.233-.334z" fill="#dc9700"/><path d="m157.473 55.7321.035 1.67 2.672-1.5469.018 1.67-2.672 1.5645.035 1.6876 3.041-1.7755.035 1.6876-4.482 2.6018-.123-8.4204 4.377-2.549.035 1.6876z" fill="#dc9700"/><path d="m111.608 89.2726-1.143-5.2035-.967 6.434-1.459.8438-1.968-7.3481 1.511-.8789 1.196 5.555.984-6.8031 1.389-.8087 1.195 5.5374.967-6.8031 1.459-.8614-1.705 9.4928z" fill="#e09b00"/><path d="m117.391 79.5695-.756 3.5861 1.618-.9317zm-1.16 5.4495-.387 1.7931-1.459.8438 2.286-9.8092 1.459-.8438 2.496 7.0493-1.512.8789-.422-1.3184z" fill="#e09b00"/><path d="m123.579 78.2339c.615-.3516.966-1.0372.949-1.9337-.018-.879-.387-1.1075-1.002-.7559l-1.072.6328.035 2.672zm.07 1.6524-.035.0176-1.073.6328.036 2.3732-1.424.8262-.141-8.4204 2.514-1.459c1.477-.8614 2.338-.2989 2.373 1.5821.018 1.2833-.316 2.4259-.967 3.2873l1.213 2.0919-1.617.9317z" fill="#e09b00"/><path d="m128.255 72.819.018 1.6701 2.672-1.547.035 1.67-2.672 1.5645.017 1.6876 3.059-1.7754.018 1.6875-4.465 2.6018-.141-8.4204 4.377-2.549.035 1.6876z" fill="#e09b00"/><path d="m136.078 75.0694-.052-3.2697-2.321 1.3535.053 3.2698-1.424.8262-.141-8.4204 1.424-.8262.053 3.463 2.321-1.3535-.053-3.4631 1.424-.8262.14 8.4204z" fill="#e09b00"/><path d="m139.629 68.7591c.017 1.424.773 2.092 1.635 1.5822.861-.5098 1.529-2.004 1.511-3.4104-.017-1.4239-.72-2.0919-1.599-1.5821-.862.4922-1.565 1.9864-1.547 3.4103zm4.605-2.6896c.036 2.4435-1.23 5.0628-2.953 6.0824-1.723 1.002-3.059-.0879-3.094-2.549-.035-2.4434 1.231-5.0276 2.954-6.0296 1.722-1.0196 3.058.0527 3.093 2.4962z" fill="#e09b00"/><path d="m150.037 63.3792c.035 2.2149-.932 4.2014-2.496 5.1155-1.582.9141-2.602.0879-2.637-2.1271l-.088-4.887 1.424-.8262.088 4.887c.018 1.1427.527 1.547 1.195 1.1602.668-.3867 1.108-1.3536 1.09-2.4962l-.088-4.887 1.424-.8262z" fill="#e09b00"/><path d="m155.346 56.2245-.51 1.9864c-.598-.1758-1.354-.1055-1.811.1582-.369.211-.615.5626-.615.9669.018 1.4591 2.971-1.0899 3.024 1.9513.035 1.6876-.95 3.1466-2.198 3.8674-.931.5449-1.898.5801-2.584.1406l.527-1.9688c.581.4219 1.46.4218 2.04.0878.439-.2636.72-.668.72-1.1602-.017-1.4942-2.97 1.1251-3.023-1.8634-.018-1.5469.844-3.0587 2.197-3.8322.826-.4571 1.653-.5625 2.233-.334z" fill="#e09b00"/><path d="m157.576 55.7849.035 1.67 2.672-1.5646.018 1.6876-2.672 1.547.035 1.7052 3.041-1.7755.035 1.6876-4.482 2.5841-.141-8.4028 4.395-2.549.018 1.6876z" fill="#e09b00"/><path d="m111.713 89.3263-1.142-5.2035-.967 6.434-1.477.8614-1.969-7.3481 1.512-.8789 1.195 5.555.967-6.8207 1.389-.8087 1.195 5.555.985-6.8207 1.459-.8438-1.705 9.4928z" fill="#e39f00"/><path d="m117.497 79.6227-.773 3.5861 1.617-.9316zm-1.16 5.4495-.387 1.7931-1.459.8438 2.285-9.8092 1.459-.8437 2.497 7.0316-1.512.879-.422-1.3185z" fill="#e39f00"/><path d="m123.684 78.2871c.615-.3516.966-1.0372.949-1.9337-.018-.879-.387-1.1075-1.002-.7559l-1.072.6328.035 2.6721zm.07 1.6524-.035.0176-1.073.6329.036 2.3731-1.424.8263-.141-8.4204 2.514-1.4591c1.477-.8614 2.338-.2989 2.373 1.5821.018 1.2833-.316 2.4259-.967 3.2873l1.213 2.0919-1.617.9317z" fill="#e39f00"/><path d="m128.343 72.8723.035 1.67 2.672-1.547.035 1.6876-2.672 1.547.035 1.6876 3.041-1.7755.035 1.6876-4.482 2.6017-.141-8.4204 4.377-2.549.035 1.6876z" fill="#e39f00"/><path d="m136.166 75.1226-.053-3.2697-2.32 1.3536.053 3.2697-1.424.8262-.141-8.4204 1.424-.8262.053 3.4631 2.32-1.3536-.052-3.4631 1.423-.8262.141 8.4204z" fill="#e39f00"/><path d="m139.734 68.7938c.017 1.4239.773 2.0919 1.635 1.5821.861-.5098 1.529-2.004 1.511-3.4103-.017-1.4239-.738-2.0919-1.599-1.5821-.862.5098-1.565 2.004-1.547 3.4103zm4.605-2.672c.036 2.4435-1.23 5.0628-2.953 6.0824-1.723 1.002-3.059-.0879-3.094-2.549-.035-2.4435 1.231-5.0276 2.953-6.0296 1.723-1.0196 3.042.0527 3.094 2.4962z" fill="#e39f00"/><path d="m150.14 63.4329c.035 2.215-.931 4.2014-2.496 5.1155-1.582.9141-2.602.0879-2.637-2.1271l-.088-4.8869 1.424-.8263.088 4.887c.018 1.1427.528 1.547 1.196 1.1602.668-.3867 1.107-1.3535 1.089-2.4962l-.087-4.887 1.423-.8262z" fill="#e39f00"/><path d="m155.45 56.2782-.51 1.9864c-.598-.1758-1.354-.1054-1.811.1583-.369.2109-.615.5625-.615.9668.018 1.4591 2.971-1.0899 3.024 1.9513.035 1.6876-.95 3.1466-2.198 3.8674-.931.5449-1.898.5801-2.584.1406l.528-1.9688c.597.4219 1.459.4219 2.039.0879.439-.2637.721-.668.721-1.1603-.018-1.4942-2.971 1.1251-3.024-1.8634-.018-1.5469.844-3.0587 2.197-3.8322.827-.4571 1.653-.5625 2.233-.334z" fill="#e39f00"/><path d="m157.684 55.8205.035 1.67 2.672-1.5469.035 1.6876-2.672 1.5469.035 1.6876 3.041-1.7755.036 1.6876-4.483 2.6017-.141-8.4204 4.395-2.5489.035 1.6876z" fill="#e39f00"/><path d="m111.713 89.3258-1.142-5.2034-.967 6.4339-1.477.8614-1.969-7.3481 1.512-.8789 1.195 5.555.967-6.8207 1.389-.8087 1.195 5.555.985-6.8207 1.459-.8438-1.705 9.4928z" fill="#ffec4b"/><path d="m116.337 85.0717-.387 1.7931-1.459.8438 2.285-9.8091 1.459-.8438 2.497 7.0316-1.512.879-.422-1.3185zm1.16-5.4495-.773 3.5862 1.617-.9317z" fill="#ffec4b"/><path d="m123.754 79.939-.035.0176-1.073.6329.036 2.3732-1.424.8262-.141-8.4204 2.514-1.4591c1.477-.8614 2.338-.2988 2.373 1.5821.018 1.2833-.316 2.4259-.967 3.2873l1.213 2.0919-1.617.9317zm-.07-1.6524c.615-.3516.966-1.0372.949-1.9337-.018-.8789-.387-1.1075-1.002-.7559l-1.072.6328.035 2.6721z" fill="#ffec4b"/><path d="m128.342 72.8718.036 1.67 2.672-1.547.035 1.6876-2.672 1.547.035 1.6876 3.041-1.7755.035 1.6876-4.482 2.6017-.141-8.4204 4.377-2.549.035 1.6876z" fill="#ffec4b"/><path d="m136.166 75.1226-.053-3.2697-2.32 1.3536.053 3.2697-1.424.8262-.141-8.4204 1.424-.8262.053 3.4631 2.32-1.3536-.053-3.4631 1.424-.8262.141 8.4204z" fill="#ffec4b"/><path d="m144.339 66.1213c.036 2.4435-1.23 5.0628-2.953 6.0824-1.723 1.002-3.059-.0879-3.094-2.549-.035-2.4435 1.231-5.0276 2.953-6.0296 1.723-1.0196 3.042.0527 3.094 2.4962zm-4.605 2.672c.017 1.4239.773 2.0919 1.635 1.5821.861-.5097 1.529-2.004 1.511-3.4103-.017-1.4239-.738-2.0919-1.599-1.5821-.862.5098-1.565 2.004-1.547 3.4103z" fill="#ffec4b"/><path d="m150.14 63.4324c.035 2.215-.931 4.2014-2.496 5.1155-1.582.9141-2.602.0879-2.637-2.127l-.088-4.887 1.424-.8263.088 4.887c.018 1.1427.527 1.547 1.195 1.1603.668-.3868 1.108-1.3536 1.09-2.4963l-.088-4.887 1.424-.8262z" fill="#ffec4b"/><path d="m155.45 56.2777-.51 1.9865c-.598-.1758-1.354-.1055-1.811.1582-.369.2109-.615.5625-.615.9668.018 1.4591 2.971-1.0899 3.024 1.9513.035 1.6876-.95 3.1467-2.198 3.8674-.931.545-1.898.5801-2.584.1406l.527-1.9688c.598.4219 1.46.4219 2.04.0879.439-.2637.72-.668.72-1.1603-.017-1.4942-2.97 1.1251-3.023-1.8633-.018-1.547.844-3.0588 2.197-3.8323.826-.457 1.653-.5625 2.233-.334z" fill="#ffec4b"/><path d="m157.684 55.82.035 1.67 2.672-1.5469.035 1.6876-2.672 1.5469.035 1.6876 3.041-1.7755.036 1.6876-4.483 2.6017-.141-8.4204 4.395-2.5489.035 1.6876z" fill="#ffec4b"/></svg>