<svg fill="none" height="5030" viewBox="0 0 2260 5030" width="2260" xmlns="http://www.w3.org/2000/svg" xmlns:xlink="http://www.w3.org/1999/xlink"><linearGradient id="a" gradientUnits="userSpaceOnUse" x1="524.278" x2="1758.1" y1="1464.66" y2="1417.37"><stop offset="0" stop-color="#fb9180"/><stop offset="1" stop-color="#feda46"/></linearGradient><path d="m495.794 9.29299c-50.649-22.02099-109.559 1.18601-131.58 51.83441-22.021 50.6486 1.186 109.5586 51.834 131.5796zm819.126 553.70701 48.52-87.442zm53 448-62.58-77.998zm-76 812-63.06-77.61zm-1031.999-132-78.557-61.88zm1495.999 1568 99.96 2.81zm-1263.999 760-30.543-95.22zm-75.873-3826.293c116.843 50.801 691.462 369.573 850.352 457.735l97.04-174.884c-151.11-83.838-739.156-410.3995-867.646-466.26501zm850.352 457.735c49.93 27.703 105.46 27.677 148.6 22.518 45.04-5.386 93.03-18.569 138.46-32.988 99.19-31.479 184.43-66.9 276.3-90.172 92.36-23.395 146.05-20.64 174.25-4.66 18.13 10.269 55.91 44.817 55.91 185.86h200c0-167.957-45.24-296.372-157.31-359.87-101.99-57.785-225.66-39.6-321.96-15.207-96.77 24.514-211.49 69.237-287.69 93.418-42.25 13.411-75.81 21.937-101.71 25.034-27.78 3.323-32.55-1.445-27.81 1.183zm793.52 80.558c0 72.388-6.7 119.521-15.67 149.3-8.71 28.926-17.41 34.688-17.62 34.834-.2.145-4.82 3.865-23.66 3.311-20.09-.59-46.83-5.729-84.04-15.754-66.76-17.982-170.92-54.287-272.12-64.47-108.44-10.911-229.5 4.944-341.47 94.781l125.16 155.998c60.03-48.17 123.97-59.06 196.28-51.78 79.56 8 151.89 34.82 240.13 58.59 40.29 10.85 85.67 21.24 130.18 22.55 45.76 1.34 98.2-6.67 145.37-40.18s76.16-83.328 93.29-140.191c16.87-56.01 24.17-124.877 24.17-206.989zm-754.58 202.002c-121.81 97.738-183.52 200.618-190.15 311.648-6.25 104.86 39.03 195.39 75.48 261.21 20.79 37.53 36.21 62.57 51.96 92.8 14.65 28.12 23.11 49.19 26.75 66.23 3.28 15.38 2.17 25.16-.97 33.48-3.44 9.09-12.63 25.15-39.55 47.02l126.12 155.22c46.68-37.92 81.54-81.25 100.55-131.64 19.3-51.17 19.02-100.99 9.44-145.84-9.22-43.19-27.31-82.98-44.97-116.89-16.57-31.8-39.23-69.94-54.37-97.28-35.39-63.91-53.33-109.85-50.79-152.4 2.17-36.37 21.26-91.82 115.66-167.56zm-76.48 812.388c-22.16 18-54.96 25.66-128.64-2.25-75.89-28.76-157.349-80.49-258.786-137.81-93.577-52.87-205.097-110.74-318.088-124.18-58.822-7-120.483-2.39-181.152 22.2-60.751 24.63-114.397 66.82-160.83 125.77l157.114 123.76c28.449-36.12 55.213-54.6 78.851-64.18 23.72-9.62 50.424-12.75 82.392-8.95 68.59 8.16 148.35 46.05 243.332 99.71 87.122 49.23 191.505 114.79 286.317 150.7 97.01 36.76 219.77 56.45 325.61-29.55zm-1047.496-116.27c-70.066 88.96-102.4453 184.27-87.2462 282.95 14.5852 94.69 70.4302 174.57 138.0372 241.33 132.906 131.25 351.078 249.15 563.94 361.96 220.155 116.67 441.895 231.28 608.875 359.66 169.44 130.29 254.57 253.75 250.99 381.17l199.92 5.62c6.42-228.58-147.95-406.12-329-545.33-183.53-141.12-423.29-264.51-637.133-377.84-221.138-117.19-409.466-221.29-517.061-327.54-52.642-51.99-75.547-94.73-80.899-129.48-4.739-30.76 1.757-71.7 46.691-128.74zm1474.596 1627.07c-6.27 223.08-164.48 355.7-415.3 453.21-123.7 48.09-261.263 83.9-397.967 116.71-133.725 32.11-270.623 62.16-381.315 97.67l61.086 190.44c101.308-32.49 226.401-59.9 366.914-93.63 137.532-33.02 286.462-71.41 423.752-124.78 271.16-105.42 532.94-284.81 542.75-634zm-1194.582 667.59c-145.25 46.59-251.392 117.24-324.952 208.95-73.21 91.27-108.0813 195.82-123.7494 300.15-15.49523 103.18-12.78831 210.58-7.66287 310.07 5.30707 103.01 12.90367 194.74 10.93287 281.79l199.9484 4.52c2.195-96.91-6.285-202.25-11.146-296.6-5.043-97.88-6.595-188.14 5.71-270.07 12.131-80.78 37.119-148.79 81.977-204.72 44.507-55.48 114.642-106.64 230.028-143.65z" fill="url(#a)"/><g fill="#fff"><g fill-opacity=".8"><path d="m1115.39 2489.63 16.41-11.43 90.31 50.16-17.37 10.4z"/><path d="m1088.71 2508.72 16.41-11.44 90.31 50.16-17.37 10.41z"/><path d="m1062.03 2527.8 16.41-11.43 90.32 50.16-17.38 10.4z"/><path d="m1023.05 2555.47 16.41-11.44 90.31 50.16-17.37 10.41z"/><path d="m996.373 2574.55 16.407-11.43 90.31 50.16-17.37 10.4z"/><path d="m969.695 2593.64 16.407-11.44 90.318 50.17-17.38 10.4z"/></g><path d="m456.319 100.083c-.506-.2203-1.095.012-1.315.518-.221.507.011 1.096.518 1.316zm858.601 462.917.49-.874zm-322.999 316-.714-.7zm-156 602 .483.88zm-296 172 .513.86zm1135.999 1790 .88.48zm-1365.999 536 .961.28zm145.601-3877.083c2.01.874 4.145 1.821 6.401 2.839l.822-1.823c-2.262-1.021-4.406-1.972-6.426-2.85zm19.816 9.051c4.19 1.98 8.655 4.124 13.383 6.421l.874-1.799c-4.733-2.3-9.205-4.446-13.402-6.43zm26.847 13.03c4.189 2.075 8.539 4.244 13.043 6.505l.897-1.787c-4.507-2.262-8.86-4.434-13.053-6.51zm26.232 13.161c4.327 2.196 8.774 4.461 13.334 6.795l.911-1.781c-4.562-2.334-9.011-4.601-13.341-6.797zm26.306 13.456c4.353 2.242 8.796 4.539 13.325 6.886l.921-1.776c-4.531-2.348-8.975-4.645-13.33-6.888zm26.265 13.61c4.351 2.267 8.773 4.576 13.261 6.924l.927-1.772c-4.489-2.349-8.911-4.658-13.264-6.925zm26.209 13.713c4.359 2.29 8.776 4.614 13.246 6.971l.932-1.769c-4.47-2.357-8.888-4.682-13.248-6.973zm26.165 13.792c4.354 2.303 8.753 4.633 13.196 6.989l.937-1.767c-4.443-2.357-8.844-4.687-13.198-6.99zm26.141 13.863c4.331 2.303 8.7 4.628 13.104 6.976l.94-1.765c-4.404-2.348-8.773-4.674-13.105-6.977zm26.128 13.924c4.31 2.303 8.652 4.624 13.022 6.963l.943-1.763c-4.37-2.339-8.712-4.661-13.023-6.964zm26.119 13.98c4.294 2.302 8.613 4.62 12.956 6.953l.946-1.762c-4.343-2.333-8.662-4.651-12.957-6.954zm26.05 13.992c4.302 2.315 8.625 4.642 12.966 6.982l.949-1.761c-4.342-2.339-8.665-4.667-12.967-6.982zm25.984 14.002c4.331 2.337 8.679 4.685 13.042 7.042l.951-1.759c-4.363-2.358-8.712-4.706-13.043-7.043zm26.007 14.053c4.335 2.345 8.683 4.699 13.043 7.061l.952-1.759c-4.359-2.361-8.708-4.715-13.043-7.061zm26.017 14.093c4.322 2.344 8.653 4.695 12.992 7.051l.954-1.758c-4.339-2.356-8.671-4.706-12.993-7.051zm26.008 14.122c4.317 2.346 8.64 4.697 12.968 7.051l.956-1.757c-4.328-2.354-8.651-4.705-12.969-7.052zm25.962 14.124c4.326 2.356 8.655 4.715 12.986 7.075l.957-1.756c-4.331-2.36-8.66-4.719-12.986-7.075zm25.963 14.152c4.326 2.36 8.652 4.721 12.976 7.082l.958-1.755c-4.324-2.361-8.65-4.722-12.977-7.083zm25.961 14.176c4.326 2.364 8.649 4.727 12.967 7.088l.959-1.754c-4.318-2.362-8.641-4.725-12.967-7.089zm25.938 14.185c4.335 2.372 8.663 4.742 12.983 7.108l.96-1.754c-4.32-2.366-8.648-4.736-12.982-7.108zm25.917 14.195c4.344 2.381 8.677 4.757 12.999 7.127l.962-1.753c-4.322-2.371-8.656-4.747-12.999-7.128zm25.956 14.236c4.327 2.374 8.637 4.742 12.937 7.102l.96-1.753c-4.3-2.36-8.61-4.728-12.935-7.102zm25.937 14.245c4.32 2.373 8.62 4.738 12.9 7.092l.97-1.752c-4.29-2.355-8.59-4.719-12.9-7.092zm25.91 14.246c4.34 2.386 8.65 4.761 12.95 7.125l.96-1.752c-4.29-2.364-8.61-4.739-12.95-7.126zm25.86 14.238c4.37 2.403 8.71 4.793 13.02 7.168l.96-1.751c-4.31-2.375-8.65-4.765-13.01-7.169zm25.86 14.247c4.38 2.418 8.74 4.819 13.06 7.202l.96-1.751c-4.32-2.383-8.67-4.784-13.06-7.202zm25.94 14.314c4.37 2.41 8.7 4.8 12.99 7.168l.96-1.751c-4.28-2.368-8.61-4.758-12.98-7.168zm25.93 14.316c4.35 2.404 8.66 4.783 12.91 7.136l.97-1.751c-4.26-2.352-8.56-4.732-12.91-7.136zm25.9 14.318c4.35 2.403 8.64 4.775 12.87 7.115l.97-1.75c-4.23-2.34-8.52-4.712-12.87-7.115zm25.89 14.322c4.36 2.411 8.65 4.784 12.86 7.116l.97-1.75c-4.22-2.332-8.5-4.705-12.86-7.116zm25.87 14.322c4.4 2.435 8.7 4.82 12.91 7.152l.97-1.75c-4.21-2.332-8.51-4.716-12.91-7.152zm25.81 14.3c4.47 2.481 8.82 4.892 13.04 7.229l.97-1.749c-4.22-2.337-8.57-4.748-13.04-7.229zm25.79 14.302c4.53 2.513 8.87 4.922 13.02 7.223l.97-1.749c-4.15-2.301-8.49-4.71-13.02-7.223zm26.06 14.455c2.12 1.179 4.18 2.32 6.17 3.422l.97-1.748c-1.99-1.103-4.05-2.244-6.17-3.423zm6.17 3.422c2.18 1.211 4.39 2.403 6.65 3.578l.92-1.774c-2.24-1.167-4.44-2.351-6.6-3.552zm20.45 10.362c4.56 2.118 9.23 4.178 14.02 6.184l.77-1.844c-4.76-1.998-9.42-4.047-13.95-6.154zm28.17 11.857c4.71 1.805 9.51 3.567 14.39 5.292l.66-1.886c-4.86-1.719-9.64-3.475-14.33-5.273zm28.93 10.251c4.77 1.572 9.61 3.114 14.51 4.629l.59-1.91c-4.89-1.512-9.71-3.051-14.48-4.619zm29.16 9.044c4.87 1.427 9.78 2.832 14.74 4.22l.54-1.926c-4.95-1.386-9.85-2.789-14.71-4.214zm29.44 8.259c4.91 1.323 9.84 2.631 14.8 3.929l.51-1.935c-4.96-1.297-9.89-2.604-14.79-3.925zm29.6 7.753c4.92 1.258 9.86 2.508 14.81 3.755l.49-1.939c-4.95-1.247-9.89-2.497-14.81-3.754zm29.65 7.474c4.93 1.232 9.87 2.463 14.81 3.696l.49-1.94c-4.95-1.234-9.89-2.465-14.82-3.697zm29.64 7.406c4.94 1.241 9.88 2.487 14.81 3.741l.49-1.938c-4.93-1.255-9.87-2.501-14.81-3.743zm29.61 7.548c4.94 1.283 9.86 2.578 14.76 3.886l.51-1.932c-4.9-1.31-9.82-2.605-14.76-3.889zm29.51 7.894c4.93 1.365 9.84 2.748 14.7 4.152l.56-1.921c-4.88-1.407-9.79-2.792-14.73-4.158zm29.3 8.463c4.92 1.49 9.8 3.006 14.63 4.552l.61-1.905c-4.84-1.549-9.73-3.068-14.66-4.562zm29.11 9.338c4.84 1.651 9.63 3.338 14.34 5.063l.69-1.878c-4.73-1.731-9.53-3.422-14.38-5.078zm28.66 10.511c4.78 1.894 9.48 3.834 14.08 5.825l.8-1.836c-4.63-2-9.35-3.948-14.15-5.848zm27.89 12.084c4.68 2.224 9.24 4.51 13.68 6.863l.94-1.767c-4.47-2.368-9.06-4.667-13.76-6.902zm26.98 14.337c4.42 2.641 8.69 5.363 12.8 8.171l1.13-1.652c-4.15-2.832-8.45-5.576-12.91-8.236zm25.01 17.145c4.04 3.201 7.87 6.508 11.5 9.929l1.37-1.455c-3.67-3.462-7.55-6.806-11.62-10.04zm22.03 20.881c3.35 3.855 6.45 7.845 9.28 11.977l1.65-1.13c-2.88-4.198-6.02-8.248-9.42-12.158zm17.03 24.95c2.3 4.46 4.31 9.073 6.02 13.851l1.88-.674c-1.74-4.862-3.78-9.556-6.12-14.092zm10.16 28.387c1.05 4.844 1.81 9.845 2.27 15.011l1.99-.177c-.47-5.247-1.24-10.329-2.3-15.256zm2.75 30.165c-.11 4.862-.46 9.86-1.08 14.999l1.99.238c.62-5.201.98-10.263 1.09-15.192zm-3.52 29.966c-1 4.882-2.22 9.884-3.66 15.008l1.92.543c1.46-5.169 2.69-10.217 3.7-15.149zm-8.14 29.227c-1.63 4.679-3.43 9.456-5.42 14.332l1.85.754c2-4.907 3.82-9.716 5.46-14.43zm-11.45 28.236c-1.09 2.362-2.22 4.745-3.39 7.151l1.8.874c1.18-2.418 2.31-4.814 3.4-7.188zm-3.39 7.151c-1.17 2.42-2.37 4.777-3.59 7.074l1.77.937c1.23-2.318 2.43-4.697 3.62-7.137zm-11.15 20.134c-2.81 4.441-5.72 8.609-8.71 12.514l1.58 1.218c3.04-3.955 5.98-8.173 8.82-12.663zm-18.35 23.849c-3.6 3.811-7.32 7.3-11.14 10.482l1.28 1.538c3.89-3.235 7.66-6.779 11.31-10.646zm-23.31 19.367c-4.28 2.721-8.69 5.116-13.2 7.204l.83 1.815c4.6-2.124 9.08-4.562 13.44-7.331zm-27.32 12.636c-4.77 1.491-9.65 2.681-14.64 3.611l.36 1.96c5.07-.93 10.02-2.15 14.87-3.66zm-29.66 5.541c-4.98.38-10.05.53-15.21.45l-.03 2c5.22.08 10.35-.07 15.39-.45zm-30.26-.38c-4.97-.46-10.01-1.1-15.12-1.9l-.31 1.97c5.15.82 10.23 1.46 15.25 1.92zm-30.07-4.693c-4.86-1.039-9.78-2.213-14.74-3.51l-.51 1.935c4.99 1.304 9.94 2.485 14.83 3.528zm-29.54-7.688c-4.75-1.435-9.53-2.969-14.36-4.595l-.64 1.895c4.85 1.632 9.65 3.173 14.42 4.614zm-28.83-9.694c-4.69-1.72-9.41-3.516-14.16-5.381l-.73 1.862c4.76 1.87 9.5 3.671 14.2 5.397zm-28.36-11.111c-4.64-1.921-9.3-3.898-13.99-5.926l-.79 1.836c4.69 2.032 9.37 4.013 14.02 5.938zm-27.99-12.092c-4.6-2.057-9.21-4.156-13.85-6.29l-.84 1.816c4.64 2.137 9.27 4.239 13.87 6.3zm-27.72-12.746c-4.57-2.148-9.15-4.323-13.75-6.521l-.87 1.804c4.61 2.2 9.19 4.377 13.77 6.527zm-27.55-13.15c-4.55-2.2-9.12-4.417-13.7-6.644l-.87 1.799c4.58 2.227 9.15 4.445 13.7 6.646zm-27.45-13.343c-4.56-2.223-9.12-4.45-13.7-6.678l-.87 1.799c4.57 2.227 9.14 4.454 13.69 6.676zm-27.45-13.354c-4.57-2.217-9.16-4.428-13.74-6.628l-.87 1.803c4.59 2.2 9.17 4.409 13.74 6.625zm-27.52-13.193c-4.61-2.182-9.23-4.348-13.84-6.494l-.85 1.814c4.62 2.143 9.23 4.307 13.83 6.488zm-27.7-12.864c-4.65-2.115-9.31-4.204-13.96-6.261l-.81 1.83c4.65 2.053 9.29 4.139 13.94 6.252zm-27.95-12.343c-4.71-2.013-9.41-3.988-14.11-5.92l-.76 1.85c4.69 1.928 9.39 3.899 14.09 5.909zm-28.27-11.604c-4.78-1.871-9.54-3.691-14.3-5.453l-.7 1.875c4.75 1.758 9.51 3.574 14.27 5.44zm-28.67-10.603c-4.85-1.681-9.7-3.295-14.53-4.836l-.61 1.905c4.82 1.536 9.65 3.145 14.49 4.821zm-29.13-9.279c-4.94-1.43-9.87-2.775-14.78-4.029l-.5 1.938c4.89 1.248 9.8 2.588 14.73 4.012zm-29.62-7.547c-5.05-1.1-10.07-2.095-15.06-2.976l-.35 1.969c4.97.877 9.96 1.867 14.98 2.961zm-30.11-5.292c-5.13-.67-10.23-1.21-15.3-1.612l-.16 1.994c5.04.398 10.1.935 15.2 1.601zm-30.51-2.393c-5.16-.116-10.29-.076-15.38.132l.08 1.998c5.04-.206 10.13-.246 15.25-.13zm-30.63 1.275c-5.1.563-10.15 1.31-15.16 2.249l.36 1.966c4.96-.93 9.97-1.669 15.02-2.227zm-30.09 5.67c-4.93 1.343-9.81 2.891-14.63 4.654l.68 1.879c4.78-1.744 9.6-3.275 14.48-4.604zm-28.73 10.504c-4.61 2.146-9.16 4.507-13.65 7.092l1 1.733c4.44-2.556 8.94-4.89 13.49-7.012zm-26.54 15.252c-4.14 2.864-8.22 5.938-12.24 9.227l1.26 1.549c3.99-3.257 8.03-6.298 12.12-9.132zm-23.72 19.351c-1.885 1.79-3.756 3.632-5.613 5.527l1.429 1.4c1.84-1.878 3.694-3.703 5.561-5.477zm-5.613 5.527c-1.847 1.885-3.672 3.761-5.476 5.629l1.439 1.389c1.801-1.864 3.622-3.737 5.466-5.618zm-16.044 16.737c-3.439 3.67-6.794 7.307-10.067 10.911l1.481 1.344c3.265-3.596 6.613-7.225 10.045-10.887zm-19.868 21.885c-3.46 3.94-6.82 7.841-10.082 11.703l1.528 1.291c3.254-3.852 6.605-7.743 10.057-11.675zm-19.578 23.173c-3.163 3.9-6.225 7.759-9.188 11.578l1.58 1.226c2.954-3.808 6.007-7.655 9.161-11.545zm-18.466 23.843c-2.979 4.042-5.845 8.038-8.601 11.989l1.641 1.144c2.745-3.936 5.601-7.918 8.57-11.946zm-17.089 24.541c-2.818 4.303-5.502 8.551-8.058 12.741l1.708 1.05c2.544-4.18 5.217-8.41 8.023-12.696zm-15.542 25.521c-2.559 4.56-4.964 9.04-7.22 13.47l1.782.91c2.243-4.4 4.635-8.87 7.181-13.4zm-13.629 26.74c-2.177 4.77-4.178 9.47-6.01 14.09l1.859.73c1.82-4.59 3.807-9.25 5.971-13.99zm-11.11 28.03c-1.651 4.94-3.108 9.78-4.38 14.55l1.932.51c1.262-4.72 2.706-9.53 4.345-14.42zm-7.776 29.19c-.982 5.01-1.758 9.93-2.342 14.75l1.985.24c.578-4.77 1.347-9.64 2.32-14.6zm-3.574 29.91c-.209 5.12-.201 10.13.004 15.03l1.998-.08c-.203-4.85-.21-9.81-.004-14.87zm1.258 29.97c.644 5.09 1.498 10.06 2.535 14.93l1.956-.42c-1.026-4.81-1.87-9.73-2.507-14.76zm6.276 29.55c1.452 4.86 3.078 9.61 4.849 14.26l1.869-.71c-1.755-4.61-3.364-9.31-4.801-14.12zm10.681 28.13c2.108 4.6 4.342 9.09 6.67 13.49l1.768-.93c-2.312-4.37-4.529-8.83-6.62-13.39zm14.036 26.64c2.572 4.37 5.212 8.64 7.884 12.83l1.687-1.07c-2.663-4.18-5.29-8.43-7.848-12.77zm16.124 25.42c2.824 4.22 5.646 8.36 8.428 12.43l1.652-1.12c-2.782-4.08-5.6-8.21-8.418-12.42zm16.857 24.84c2.845 4.24 5.597 8.41 8.211 12.53l1.689-1.07c-2.627-4.15-5.39-8.33-8.24-12.57zm15.916 25.34c2.514 4.47 4.795 8.9 6.782 13.29l1.823-.82c-2.016-4.46-4.326-8.94-6.862-13.45zm12.026 27.2c1.429 4.82 2.416 9.64 2.877 14.47l1.991-.19c-.475-4.97-1.49-9.92-2.951-14.85zm2.591 29.16c-.652 4.7-1.863 9.44-3.712 14.25l1.867.72c1.903-4.95 3.153-9.84 3.826-14.69zm-10.317 27.45c-2.418 3.92-5.279 7.9-8.624 11.95l1.543 1.27c3.397-4.11 6.313-8.17 8.784-12.17zm-18.639 22.85c-3.381 3.34-7.093 6.74-11.156 10.19l1.296 1.53c4.097-3.48 7.847-6.92 11.267-10.3zm-22.726 19.45c-3.774 2.86-7.786 5.76-12.045 8.7l1.135 1.64c4.282-2.95 8.318-5.86 12.117-8.74zm-24.677 17.07c-3.997 2.55-8.178 5.13-12.547 7.74l1.027 1.72c4.385-2.62 8.581-5.22 12.596-7.78zm-25.583 15.32c-2.26 1.28-4.565 2.57-6.915 3.86l.965 1.76c2.356-1.3 4.668-2.59 6.935-3.88zm-6.915 3.86c-2.331 1.29-4.639 2.56-6.925 3.82l.967 1.75c2.284-1.26 4.592-2.53 6.923-3.81zm-20.496 11.32c-4.623 2.56-9.148 5.06-13.578 7.52l.97 1.75c4.429-2.46 8.954-4.96 13.577-7.52zm-27.232 15.11c-4.648 2.59-9.185 5.12-13.615 7.59l.976 1.75c4.429-2.48 8.965-5.01 13.612-7.59zm-27.202 15.19c-4.645 2.61-9.165 5.15-13.567 7.63l.982 1.74c4.4-2.48 8.919-5.02 13.564-7.62zm-27.116 15.27c-4.648 2.63-9.154 5.19-13.527 7.68l.989 1.73c4.371-2.48 8.876-5.04 13.523-7.67zm-27.019 15.37c-4.649 2.66-9.137 5.24-13.475 7.74l.998 1.73c4.337-2.5 8.823-5.07 13.471-7.73zm-26.997 15.55c-4.653 2.7-9.122 5.3-13.425 7.82l1.01 1.72c4.301-2.51 8.768-5.11 13.418-7.81zm-26.86 15.71c-4.641 2.74-9.081 5.37-13.348 7.91l1.024 1.72c4.264-2.54 8.701-5.17 13.34-7.91zm-26.718 15.92c-4.623 2.78-9.047 5.46-13.321 8.05l1.039 1.71c4.271-2.59 8.693-5.27 13.313-8.05zm-26.6 16.15c-4.531 2.77-8.931 5.47-13.267 8.13l1.046 1.71c4.336-2.66 8.736-5.36 13.265-8.13zm-26.527 16.27c-4.394 2.69-8.793 5.38-13.272 8.11l1.04 1.7c4.481-2.72 8.882-5.41 13.277-8.1zm-26.587 16.16c-2.191 1.32-4.414 2.65-6.677 4l1.026 1.72c2.265-1.35 4.489-2.69 6.682-4.01zm-6.677 4c-2.357 1.41-4.695 2.82-7.012 4.22l1.037 1.71c2.313-1.4 4.647-2.81 7.001-4.21zm-20.678 12.64c-4.476 2.8-8.872 5.59-13.191 8.38l1.085 1.68c4.31-2.78 8.699-5.57 13.167-8.37zm-25.911 16.73c-4.162 2.78-8.246 5.55-12.253 8.32l1.137 1.65c3.998-2.77 8.073-5.53 12.227-8.31zm-24.044 16.61c-3.854 2.76-7.632 5.51-11.334 8.26l1.193 1.6c3.692-2.74 7.46-5.48 11.305-8.23zm-24.099 17.95c-4.233 3.28-8.358 6.56-12.377 9.84l1.263 1.55c4.006-3.26 8.119-6.53 12.34-9.81zm-24.113 19.64c-3.807 3.26-7.507 6.51-11.104 9.76l1.34 1.48c3.583-3.23 7.271-6.48 11.065-9.72zm-21.582 19.48c-3.649 3.48-7.178 6.95-10.589 10.42l1.425 1.4c3.397-3.45 6.911-6.91 10.545-10.38zm-21.592 22.02c-3.521 3.86-6.898 7.71-10.13 11.55l1.53 1.29c3.215-3.82 6.573-7.65 10.077-11.49zm-19.401 23.05c-2.949 3.83-5.756 7.64-8.424 11.45l1.638 1.15c2.65-3.78 5.439-7.58 8.37-11.38zm-17.057 24.53c-2.783 4.49-5.374 8.96-7.778 13.43l1.762.95c2.383-4.43 4.954-8.87 7.716-13.33zm-14.427 26.8c-2.03 4.45-3.876 8.88-5.54 13.31l1.872.7c1.648-4.38 3.476-8.77 5.488-13.18zm-10.441 28.11c-1.421 4.95-2.617 9.9-3.594 14.83l1.962.39c.966-4.88 2.149-9.77 3.555-14.67zm-5.868 29.6c-.552 5-.88 9.99-.991 14.97l1.999.04c.11-4.92.435-9.85.979-14.79zm-.66 30.13c.332 5.05.883 10.08 1.649 15.1l1.977-.3c-.757-4.97-1.302-9.94-1.63-14.93zm4.554 30.02c1.133 4.78 2.456 9.55 3.964 14.31l1.906-.6c-1.493-4.72-2.803-9.44-3.924-14.17zm9.039 28.57c1.874 4.75 3.927 9.48 6.156 14.21l1.809-.85c-2.211-4.69-4.248-9.39-6.105-14.09zm12.887 27.49c2.33 4.3 4.801 8.59 7.41 12.88l1.708-1.04c-2.592-4.26-5.047-8.52-7.359-12.79zm15.647 25.73c2.882 4.27 5.898 8.54 9.044 12.81l1.61-1.19c-3.131-4.24-6.13-8.49-8.995-12.74zm17.948 24.43c3.041 3.83 6.184 7.66 9.428 11.48l1.525-1.29c-3.23-3.81-6.36-7.62-9.386-11.43zm19.457 22.94c3.441 3.82 6.98 7.63 10.614 11.44l1.447-1.38c-3.621-3.8-7.147-7.6-10.576-11.4zm21.052 22.12c3.44 3.44 6.954 6.88 10.543 10.31l1.383-1.44c-3.579-3.43-7.083-6.85-10.512-10.28zm21.525 20.61c3.733 3.43 7.537 6.86 11.41 10.29l1.326-1.49c-3.865-3.43-7.659-6.85-11.383-10.27zm23.236 20.58c3.668 3.13 7.392 6.27 11.171 9.4l1.277-1.54c-3.772-3.13-7.488-6.25-11.148-9.38zm22.658 18.79c3.883 3.13 7.819 6.26 11.806 9.39l1.235-1.57c-3.981-3.13-7.91-6.25-11.786-9.38zm23.923 18.78c4.089 3.12 8.229 6.25 12.417 9.38l1.197-1.6c-4.182-3.12-8.316-6.25-12.399-9.37zm24.31 18.17c3.962 2.9 7.965 5.8 12.008 8.7l1.165-1.62c-4.037-2.9-8.035-5.8-11.992-8.69zm24.252 17.4c4.12 2.9 8.278 5.8 12.473 8.7l1.137-1.64c-4.19-2.9-8.344-5.8-12.459-8.69zm25.167 17.41c4.182 2.85 8.399 5.7 12.649 8.54l1.113-1.66c-4.246-2.84-8.459-5.69-12.637-8.53zm24.954 16.73c4.131 2.73 8.292 5.46 12.481 8.19l1.093-1.67c-4.186-2.73-8.344-5.46-12.472-8.19zm25.134 16.39c4.245 2.73 8.518 5.47 12.818 8.21l1.074-1.69c-4.297-2.74-8.567-5.47-12.809-8.2zm25.794 16.42c4.26 2.68 8.543 5.37 12.85 8.05l1.058-1.7c-4.304-2.68-8.586-5.36-12.842-8.04zm25.469 15.88c4.229 2.61 8.478 5.22 12.748 7.84l1.044-1.71c-4.268-2.61-8.515-5.22-12.741-7.83zm25.618 15.68c4.31 2.62 8.64 5.24 12.988 7.86l1.033-1.71c-4.347-2.62-8.675-5.24-12.983-7.86zm26.089 15.73c4.347 2.6 8.711 5.21 13.092 7.81l1.023-1.72c-4.38-2.6-8.743-5.2-13.088-7.81zm25.898 15.41c4.285 2.53 8.584 5.06 12.897 7.6l1.014-1.72c-4.312-2.54-8.61-5.07-12.893-7.61zm25.88 15.22c4.341 2.54 8.696 5.09 13.063 7.63l1.007-1.73c-4.366-2.54-8.72-5.09-13.06-7.63zm26.204 15.28c4.392 2.55 8.797 5.1 13.212 7.65l1.002-1.73c-4.415-2.55-8.819-5.1-13.21-7.65zm26.208 15.16c4.317 2.49 8.644 4.98 12.98 7.48l.998-1.73c-4.336-2.5-8.662-4.99-12.979-7.48zm26.016 14.97c4.354 2.5 8.717 5.01 13.088 7.51l.994-1.73c-4.37-2.51-8.732-5.01-13.086-7.51zm26.222 15.04c4.386 2.51 8.778 5.02 13.177 7.53l.993-1.73c-4.399-2.52-8.791-5.03-13.176-7.54zm26.356 15.07c4.337 2.48 8.679 4.96 13.026 7.44l.993-1.73c-4.348-2.49-8.69-4.97-13.027-7.45zm26.083 14.91c4.356 2.49 8.717 4.98 13.081 7.47l.993-1.73c-4.364-2.5-8.725-4.99-13.082-7.48zm26.184 14.97c4.371 2.5 8.744 5.01 13.12 7.52l.995-1.74c-4.376-2.51-8.75-5.01-13.121-7.51zm26.254 15.05c4.366 2.51 8.734 5.02 13.107 7.53l.99-1.74c-4.366-2.51-8.735-5.02-13.101-7.53zm26.157 15.05c4.35 2.5 8.71 5.02 13.06 7.53l1-1.73c-4.35-2.51-8.71-5.03-13.06-7.54zm26.11 15.09c4.35 2.52 8.7 5.05 13.05 7.58l1.01-1.73c-4.35-2.53-8.7-5.06-13.05-7.58zm26.09 15.18c4.34 2.53 8.68 5.07 13.02 7.62l1.01-1.73c-4.34-2.54-8.68-5.08-13.02-7.62zm26.05 15.27c4.34 2.56 8.68 5.12 13.01 7.69l1.02-1.72c-4.33-2.57-8.67-5.13-13.02-7.69zm26 15.39c4.33 2.58 8.65 5.15 12.96 7.73l1.03-1.71c-4.32-2.59-8.64-5.16-12.96-7.74zm25.89 15.49c4.3 2.58 8.6 5.18 12.89 7.77l1.03-1.71c-4.29-2.6-8.59-5.19-12.89-7.78zm25.73 15.57c4.32 2.64 8.63 5.27 12.94 7.91l1.04-1.7c-4.3-2.64-8.62-5.28-12.94-7.91zm25.84 15.86c4.29 2.65 8.57 5.31 12.84 7.97l1.06-1.69c-4.28-2.67-8.56-5.33-12.85-7.98zm25.63 15.97c4.25 2.67 8.49 5.35 12.72 8.03l1.07-1.69c-4.23-2.68-8.47-5.36-12.73-8.03zm25.38 16.08c4.22 2.71 8.44 5.41 12.64 8.12l1.08-1.68c-4.2-2.71-8.42-5.42-12.64-8.12zm25.41 16.41c4.24 2.76 8.47 5.54 12.69 8.31l1.1-1.67c-4.22-2.78-8.45-5.55-12.7-8.32zm25.29 16.66c4.19 2.79 8.36 5.58 12.52 8.38l1.11-1.66c-4.16-2.8-8.33-5.6-12.52-8.38zm24.93 16.79c4.12 2.81 8.23 5.62 12.32 8.44l1.13-1.65c-4.09-2.82-8.2-5.63-12.32-8.44zm24.77 17.08c4.17 2.92 8.33 5.85 12.46 8.77l1.16-1.63c-4.14-2.93-8.3-5.86-12.48-8.77zm24.81 17.58c4.09 2.94 8.17 5.89 12.22 8.84l1.18-1.61c-4.06-2.96-8.14-5.91-12.24-8.85zm24.31 17.72c4 2.97 7.99 5.94 11.95 8.92l1.2-1.6c-3.96-2.98-7.95-5.96-11.96-8.93zm23.9 17.98c4.07 3.11 8.11 6.23 12.13 9.35l1.23-1.58c-4.02-3.13-8.07-6.25-12.14-9.36zm24.09 18.74c3.96 3.14 7.89 6.29 11.8 9.44l1.25-1.56c-3.9-3.15-7.84-6.3-11.81-9.44zm23.42 18.92c3.85 3.16 7.66 6.34 11.45 9.52l1.29-1.53c-3.79-3.19-7.62-6.36-11.47-9.54zm22.81 19.17c3.9 3.35 7.77 6.71 11.6 10.08l1.32-1.51c-3.84-3.37-7.71-6.73-11.62-10.08zm22.98 20.2c3.76 3.38 7.48 6.78 11.17 10.18l1.35-1.47c-3.69-3.41-7.42-6.81-11.18-10.2zm22.11 20.4c3.6 3.42 7.17 6.85 10.7 10.28l1.4-1.43c-3.54-3.44-7.11-6.88-10.73-10.3zm21.37 20.81c3.63 3.64 7.22 7.29 10.77 10.95l1.43-1.39c-3.55-3.67-7.14-7.33-10.79-10.97zm21.26 21.96c3.45 3.68 6.85 7.37 10.2 11.08l1.49-1.35c-3.37-3.71-6.77-7.41-10.23-11.09zm20.12 22.21c3.25 3.72 6.46 7.46 9.61 11.2l1.53-1.29c-3.16-3.75-6.38-7.49-9.64-11.23zm19.34 22.99c3.22 3.98 6.38 7.97 9.48 11.98l1.58-1.23c-3.11-4.02-6.28-8.02-9.51-12.01zm18.6 24.03c2.98 4.03 5.9 8.07 8.75 12.12l1.64-1.15c-2.87-4.07-5.79-8.12-8.78-12.16zm17.13 24.32c2.81 4.21 5.55 8.43 8.23 12.66l1.69-1.07c-2.68-4.25-5.44-8.48-8.26-12.7zm16.21 25.68c2.59 4.35 5.1 8.72 7.53 13.11l1.75-.97c-2.44-4.4-4.97-8.79-7.56-13.16zm14.61 26.3c2.28 4.41 4.48 8.84 6.61 13.28l1.8-.86c-2.13-4.46-4.35-8.91-6.64-13.34zm12.88 26.98c2.04 4.66 3.99 9.33 5.85 14.01l1.86-.73c-1.87-4.71-3.83-9.4-5.88-14.08zm11.16 28.12c1.68 4.72 3.27 9.46 4.76 14.21l1.91-.6c-1.5-4.78-3.1-9.54-4.78-14.28zm8.96 28.52c1.33 4.85 2.55 9.71 3.67 14.59l1.95-.45c-1.13-4.91-2.36-9.79-3.69-14.66zm6.75 29.32c.93 4.92 1.75 9.87 2.47 14.83l1.98-.28c-.72-5-1.55-9.97-2.48-14.92zm4.32 29.78c.51 4.99.91 9.99 1.21 15.02l2-.12c-.3-5.05-.71-10.09-1.22-15.1zm1.77 29.85c.09 4.96.07 9.94-.06 14.94l2 .05c.13-5.03.15-10.04.06-15.03zm-.76 29.99c-.35 5.04-.8 10.09-1.36 15.17l1.99.22c.56-5.11 1.02-10.19 1.36-15.25zm-3.32 30.15c-.73 4.8-1.56 9.61-2.49 14.44l1.96.37c.94-4.85 1.77-9.69 2.5-14.51zm-5.58 28.97c-1.13 4.87-2.36 9.75-3.69 14.65l1.93.52c1.34-4.92 2.58-9.82 3.71-14.71zm-8 29.4c-1.52 4.85-3.14 9.72-4.86 14.6l1.89.67c1.73-4.91 3.35-9.8 4.88-14.68zm-9.87 28.14c-1.75 4.53-3.6 9.07-5.53 13.62l1.84.79c1.94-4.58 3.79-9.14 5.56-13.69zm-11.6 27.34c-2.12 4.58-4.32 9.19-6.62 13.8l1.79.89c2.31-4.63 4.52-9.25 6.64-13.85zm-13.78 27.7c-1.24 2.32-2.5 4.65-3.78 6.98l1.75.96c1.29-2.33 2.55-4.67 3.8-7zm-3.78 6.98c-1.26 2.26-2.51 4.52-3.76 6.77l1.74.97c1.26-2.25 2.51-4.51 3.77-6.78zm-11.3 20.1c-2.52 4.39-5.04 8.75-7.58 13.05l1.73 1.02c2.53-4.32 5.06-8.68 7.58-13.08zm-15.18 25.84c-2.54 4.21-5.09 8.38-7.64 12.51l1.7 1.05c2.55-4.13 5.11-8.31 7.65-12.53zm-15.31 24.76c-2.65 4.17-5.3 8.29-7.96 12.37l1.67 1.09c2.67-4.08 5.32-8.21 7.97-12.39zm-16.41 25.15c-2.82 4.2-5.65 8.36-8.48 12.46l1.64 1.14c2.84-4.11 5.68-8.27 8.5-12.49zm-17 24.63c-2.84 4-5.69 7.95-8.55 11.86l1.61 1.18c2.86-3.91 5.72-7.88 8.57-11.89zm-17.14 23.42c-3.05 4.05-6.11 8.04-9.17 11.98l1.57 1.23c3.08-3.95 6.14-7.95 9.2-12.01zm-18.59 23.89c-3.15 3.91-6.3 7.77-9.45 11.57l1.53 1.28c3.17-3.81 6.33-7.67 9.48-11.6zm-18.94 22.8c-3.17 3.69-6.35 7.32-9.53 10.9l1.5 1.33c3.18-3.59 6.37-7.23 9.54-10.93zm-19.53 21.96c-3.46 3.75-6.92 7.43-10.39 11.06l1.45 1.38c3.47-3.63 6.94-7.33 10.41-11.09zm-20.81 21.75c-3.48 3.5-6.97 6.94-10.46 10.32l1.39 1.44c3.5-3.39 7-6.84 10.49-10.35zm-20.95 20.28c-3.71 3.45-7.43 6.84-11.15 10.16l1.33 1.49c3.73-3.33 7.46-6.72 11.18-10.19zm-22.5 20.07c-3.79 3.23-7.59 6.4-11.39 9.51l1.26 1.55c3.82-3.12 7.62-6.3 11.42-9.54zm-22.81 18.62c-3.9 3.04-7.8 6.02-11.71 8.93l1.19 1.6c3.92-2.92 7.84-5.9 11.75-8.95zm-23.95 17.8c-4.08 2.89-8.17 5.71-12.27 8.46l1.12 1.66c4.1-2.76 8.21-5.59 12.3-8.48zm-24.56 16.49c-4.15 2.64-8.3 5.21-12.45 7.71l1.03 1.72c4.17-2.51 8.33-5.09 12.49-7.74zm-25.48 15.33c-4.35 2.46-8.7 4.86-13.06 7.18l.94 1.77c4.38-2.34 8.74-4.74 13.1-7.21zm-26.14 13.94c-4.4 2.21-8.81 4.34-13.23 6.41l.85 1.81c4.43-2.07 8.86-4.22 13.28-6.43zm-26.92 12.6c-4.57 1.99-9.14 3.91-13.71 5.76l.75 1.85c4.59-1.85 9.17-3.78 13.76-5.78zm-27.44 11.1c-4.64 1.74-9.29 3.4-13.94 5l.65 1.89c4.67-1.6 9.33-3.28 13.99-5.02zm-28.14 9.68c-4.74 1.48-9.47 2.9-14.21 4.26l.55 1.92c4.75-1.36 9.51-2.78 14.26-4.28zm-28.43 8.12c-4.82 1.25-9.65 2.43-14.48 3.54l.45 1.95c4.85-1.12 9.69-2.3 14.53-3.55zm-29.03 6.71c-4.85.99-9.7 1.92-14.54 2.78l.35 1.97c4.86-.87 9.73-1.8 14.59-2.79zm-29.13 5.21c-4.93.76-9.85 1.46-14.77 2.1l.26 1.98c4.93-.64 9.87-1.34 14.81-2.1zm-29.52 3.84c-4.92.53-9.83 1-14.74 1.41l.17 1.99c4.92-.41 9.85-.88 14.78-1.41zm-29.57 2.5c-4.96.31-9.91.57-14.86.78l.09 1.99c4.96-.2 9.93-.46 14.9-.77zm-29.69 1.25c-4.95.11-9.89.17-14.82.18v2c4.95-.01 9.9-.07 14.87-.18zm-29.72.08c-4.96-.07-9.91-.19-14.85-.36l-.07 2c4.96.17 9.92.29 14.89.36zm-29.67-.97c-4.96-.25-9.91-.54-14.86-.86l-.13 2c4.96.32 9.92.61 14.89.86zm-29.695-1.95c-4.938-.4-9.867-.83-14.787-1.3l-.189 2c4.929.46 9.867.9 14.815 1.3zm-29.56-2.8c-4.946-.53-9.882-1.1-14.808-1.69l-.239 1.98c4.933.6 9.877 1.17 14.831 1.7zm-29.551-3.56c-4.903-.65-9.795-1.33-14.675-2.03l-.284 1.98c4.887.7 9.786 1.38 14.696 2.03zm-29.439-4.22c-4.914-.75-9.815-1.52-14.703-2.32l-.32 1.98c4.893.79 9.8 1.57 14.72 2.32zm-29.325-4.75c-4.903-.84-9.792-1.69-14.666-2.56l-.351 1.97c4.879.87 9.772 1.72 14.681 2.56zm-29.348-5.22c-4.878-.9-9.741-1.81-14.586-2.73l-.373 1.97c4.849.92 9.715 1.83 14.597 2.73zm-29.148-5.52c-4.915-.96-9.811-1.92-14.689-2.88l-.388 1.96c4.88.97 9.779 1.93 14.696 2.88zm-29.266-5.78c-4.841-.96-9.662-1.93-14.464-2.89l-.394 1.96c4.802.96 9.624 1.93 14.466 2.9zm-29.194-5.86c-4.888-.98-9.754-1.96-14.597-2.92l-.392 1.96c4.842.97 9.707 1.94 14.595 2.92zm-29.059-5.8c-4.937-.97-9.849-1.93-14.735-2.88l-.38 1.97c4.883.94 9.793 1.9 14.728 2.88zm-29.383-5.67c-4.856-.91-9.685-1.81-14.487-2.68l-.356 1.97c4.796.87 9.621 1.76 14.473 2.68zm-29.281-5.29c-4.936-.85-9.842-1.67-14.716-2.46l-.319 1.97c4.866.79 9.765 1.61 14.696 2.46zm-29.241-4.72c-5.012-.75-9.988-1.46-14.928-2.12l-.266 1.98c4.929.67 9.896 1.37 14.899 2.12zm-29.709-3.97c-4.913-.58-9.789-1.1-14.624-1.57l-.193 1.99c4.822.47 9.684.99 14.586 1.56zm-29.689-2.85c-4.977-.37-9.91-.67-14.797-.89l-.093 1.99c4.868.23 9.783.53 14.744.89zm-29.671-1.36c-5.057-.09-10.063-.08-15.014.01l.039 2c4.926-.09 9.908-.1 14.943-.01zm-29.703.58c-5.08.3-10.1.71-15.056 1.23l.209 1.99c4.924-.52 9.913-.92 14.965-1.22zm-29.788 3.15c-4.958.78-9.848 1.69-14.667 2.73l.424 1.96c4.78-1.04 9.632-1.94 14.553-2.71zm-29.182 6.37c-4.789 1.36-9.502 2.88-14.137 4.55l.681 1.89c4.59-1.67 9.258-3.17 14.004-4.52zm-28.014 10.17c-4.543 2.04-9.003 4.26-13.378 6.66l.962 1.76c4.328-2.38 8.741-4.57 13.236-6.6zm-26.097 14.33c-4.154 2.73-8.223 5.66-12.204 8.78l1.234 1.58c3.938-3.09 7.962-5.99 12.071-8.69zm-23.46 18.35c-3.62 3.34-7.159 6.85-10.613 10.56l1.463 1.36c3.42-3.67 6.922-7.15 10.504-10.44zm-20.434 21.89c-3.015 3.74-5.959 7.65-8.829 11.73l1.635 1.15c2.846-4.04 5.764-7.91 8.751-11.62zm-17.221 24.48c-2.503 4.07-4.944 8.29-7.32 12.66l1.757.95c2.36-4.34 4.782-8.52 7.266-12.56zm-14.057 25.82c-2.185 4.53-4.31 9.22-6.372 14.05l1.84.79c2.05-4.81 4.162-9.47 6.333-13.97zm-11.785 27.47c-1.713 4.49-3.377 9.1-4.992 13.83l1.892.64c1.608-4.71 3.265-9.29 4.969-13.76zm-9.691 28.4c-.759 2.49-1.505 5.01-2.239 7.56l1.922.56c.731-2.55 1.474-5.06 2.23-7.54zm-2.239 7.56c-.684 2.38-1.338 4.78-1.962 7.19l1.936.5c.62-2.39 1.269-4.77 1.948-7.13zm-5.353 21.85c-1.007 4.92-1.897 9.91-2.669 14.95l1.977.3c.767-5.01 1.651-9.96 2.652-14.85zm-4.585 29.76c-.528 4.99-.946 10.03-1.255 15.11l1.996.12c.307-5.05.723-10.06 1.248-15.02zm-1.844 30.11c-.091 4.98-.081 9.99.03 15.04l1.999-.04c-.11-5.03-.12-10.02-.03-14.96zm.663 30.26c.299 4.91.691 9.86 1.176 14.83l1.99-.19c-.482-4.95-.872-9.88-1.17-14.77zm2.905 29.86c.658 4.95 1.405 9.93 2.241 14.93l1.972-.33c-.832-4.98-1.575-9.94-2.23-14.87zm4.936 29.63c.982 4.93 2.049 9.87 3.2 14.84l1.948-.46c-1.146-4.94-2.209-9.87-3.187-14.77zm6.805 29.42c1.259 4.79 2.595 9.6 4.008 14.43l1.919-.57c-1.407-4.8-2.738-9.6-3.993-14.37zm8.477 28.95c1.522 4.72 3.117 9.45 4.785 14.2l1.886-.66c-1.661-4.73-3.251-9.45-4.768-14.15zm9.928 28.27c1.785 4.7 3.64 9.41 5.565 14.13l1.852-.75c-1.919-4.71-3.768-9.4-5.547-14.09zm11.394 27.96c1.978 4.54 4.021 9.09 6.129 13.65l1.815-.84c-2.101-4.55-4.138-9.08-6.111-13.61zm12.643 27.33c2.197 4.48 4.455 8.97 6.776 13.46l1.777-.92c-2.314-4.47-4.566-8.95-6.756-13.42zm13.764 26.65c2.389 4.4 4.836 8.8 7.343 13.2l1.738-.99c-2.5-4.39-4.941-8.78-7.323-13.16zm14.996 26.32c2.526 4.24 5.107 8.47 7.742 12.7l1.697-1.06c-2.628-4.22-5.202-8.44-7.721-12.66zm15.81 25.39c2.744 4.22 5.543 8.45 8.395 12.67l1.657-1.12c-2.846-4.21-5.637-8.43-8.374-12.64zm16.888 24.99c2.852 4.06 5.754 8.11 8.707 12.16l1.616-1.17c-2.946-4.04-5.842-8.09-8.687-12.14zm17.717 24.3c3.037 4.01 6.124 8.02 9.26 12.02l1.574-1.23c-3.129-3.99-6.209-7.99-9.239-12zm18.533 23.66c3.137 3.87 6.322 7.73 9.553 11.59l1.532-1.29c-3.224-3.85-6.401-7.7-9.532-11.56zm19.386 23.12c3.272 3.78 6.589 7.55 9.951 11.3l1.49-1.33c-3.355-3.75-6.665-7.51-9.93-11.28zm19.985 22.34c3.389 3.67 6.82 7.34 10.295 10.98l1.449-1.37c-3.468-3.65-6.893-7.3-10.274-10.96zm20.85 21.9c3.486 3.55 7.013 7.09 10.582 10.61l1.406-1.42c-3.562-3.52-7.082-7.05-10.561-10.59zm21.286 21.04c3.608 3.46 7.257 6.91 10.946 10.35l1.363-1.47c-3.682-3.43-7.323-6.87-10.924-10.33zm22.134 20.62c3.685 3.33 7.409 6.66 11.171 9.96l1.32-1.5c-3.755-3.3-7.471-6.62-11.149-9.94zm22.463 19.75c3.801 3.25 7.641 6.49 11.517 9.71l1.278-1.54c-3.869-3.22-7.701-6.45-11.496-9.69zm23.261 19.32c3.874 3.13 7.784 6.25 11.73 9.34l1.235-1.57c-3.939-3.09-7.842-6.2-11.709-9.32zm23.537 18.49c3.971 3.03 7.977 6.05 12.018 9.05l1.192-1.61c-4.034-3-8.032-6.01-11.996-9.03zm24.246 18c4.057 2.93 8.148 5.84 12.273 8.74l1.15-1.64c-4.118-2.89-8.202-5.8-12.252-8.72zm24.528 17.23c4.118 2.81 8.269 5.61 12.452 8.39l1.107-1.67c-4.176-2.77-8.32-5.56-12.431-8.37zm25.101 16.67c4.237 2.74 8.507 5.46 12.809 8.16l1.064-1.69c-4.295-2.7-8.558-5.41-12.788-8.15zm25.45 15.99c4.244 2.6 8.519 5.17 12.825 7.73l1.022-1.72c-4.299-2.55-8.567-5.12-12.805-7.71zm25.835 15.35c4.367 2.52 8.764 5.02 13.193 7.51l.978-1.75c-4.421-2.48-8.811-4.98-13.171-7.49zm26.316 14.77c4.352 2.37 8.732 4.72 13.141 7.06l.937-1.77c-4.402-2.33-8.776-4.68-13.121-7.05zm26.455 14.01c4.466 2.3 8.962 4.58 13.486 6.84l.894-1.79c-4.517-2.25-9.005-4.53-13.465-6.83zm27.141 13.56c4.441 2.16 8.909 4.29 13.403 6.41l.852-1.81c-4.488-2.11-8.948-4.24-13.382-6.39zm26.967 12.7c4.549 2.08 9.124 4.14 13.725 6.18l.811-1.83c-4.595-2.04-9.163-4.09-13.705-6.17zm27.611 12.23c4.62 1.99 9.267 3.95 13.94 5.9l.768-1.85c-4.666-1.94-9.305-3.9-13.919-5.88zm27.703 11.53c4.613 1.86 9.251 3.7 13.914 5.52l.728-1.86c-4.657-1.82-9.288-3.65-13.894-5.51zm27.979 10.92c4.713 1.78 9.451 3.54 14.214 5.28l.686-1.87c-4.756-1.74-9.488-3.5-14.194-5.28zm28.427 10.39c4.662 1.64 9.346 3.27 14.055 4.87l.645-1.89c-4.701-1.6-9.38-3.23-14.034-4.87zm28.249 9.63c4.753 1.56 9.533 3.11 14.333 4.63l.61-1.9c-4.8-1.53-9.57-3.07-14.317-4.63zm28.813 9.14c4.8 1.47 9.64 2.92 14.49 4.35l.56-1.92c-4.84-1.42-9.67-2.87-14.47-4.34zm28.77 8.48c4.78 1.35 9.58 2.69 14.41 4l.52-1.93c-4.81-1.31-9.61-2.65-14.39-4zm28.95 7.88c4.87 1.27 9.76 2.53 14.67 3.76l.49-1.94c-4.91-1.23-9.79-2.48-14.65-3.75zm29.46 7.39c4.8 1.15 9.61 2.28 14.44 3.39l.45-1.95c-4.83-1.11-9.63-2.24-14.42-3.39zm29.01 6.65c4.87 1.07 9.77 2.12 14.68 3.15l.41-1.96c-4.91-1.02-9.8-2.07-14.66-3.14zm29.49 6.17c4.96.99 9.93 1.96 14.93 2.9l.37-1.97c-4.99-.94-9.96-1.9-14.91-2.89zm29.67 5.61c4.87.88 9.76 1.73 14.66 2.56l.33-1.97c-4.89-.83-9.77-1.68-14.64-2.56zm29.43 4.99c4.95.79 9.91 1.57 14.89 2.31l.3-1.97c-4.98-.75-9.93-1.52-14.87-2.31zm29.89 4.5c5.01.71 10.05 1.4 15.1 2.06l.27-1.98c-5.05-.67-10.08-1.35-15.09-2.06zm29.8 3.93c4.92.6 9.86 1.19 14.81 1.75l.23-1.99c-4.95-.56-9.88-1.14-14.79-1.75zm29.72 3.37c4.99.53 9.99 1.03 15.02 1.51l.19-1.99c-5.02-.48-10.02-.98-15-1.5zm30.14 2.89c5.02.43 10.05.85 15.11 1.24l.16-1.99c-5.05-.39-10.09-.81-15.1-1.24zm29.9 2.34c4.94.34 9.91.67 14.88.97l.13-2c-4.98-.3-9.93-.62-14.87-.97zm29.87 1.82c5.01.27 10.03.51 15.08.73l.09-1.99c-5.04-.23-10.06-.47-15.07-.74zm30.25 1.34c5.04.18 10.1.34 15.17.48l.06-1.99c-5.07-.14-10.12-.31-15.15-.49zm29.99.84c4.95.09 9.92.17 14.9.23l.03-2c-4.98-.06-9.95-.14-14.89-.23zm29.9.35c5.01.01 10.04.01 15.08-.01v-2c-5.04.02-10.07.02-15.07.01zm30.26-.13c5.07-.06 10.16-.14 15.26-.24l-.04-2c-5.1.1-10.18.18-15.25.24zm30.07-.6c4.95-.13 9.9-.29 14.88-.46l-.07-2c-4.97.17-9.92.33-14.86.47zm29.83-1.04c5-.21 10.01-.44 15.04-.7l-.1-1.99c-5.02.25-10.03.48-15.03.69zm30.16-1.51c5.05-.29 10.12-.6 15.2-.93l-.13-1.99c-5.08.33-10.14.63-15.19.92zm30.2-1.96c4.92-.35 9.85-.73 14.79-1.12l-.16-1.99c-4.94.39-9.86.76-14.77 1.12zm29.65-2.35c4.97-.43 9.95-.88 14.94-1.35l-.18-1.99c-4.99.47-9.97.92-14.93 1.35zm29.96-2.8c5.02-.51 10.05-1.03 15.09-1.58l-.21-1.98c-5.04.54-10.07 1.06-15.08 1.57zm30.26-3.26c4.92-.57 9.85-1.15 14.8-1.75l-.24-1.99c-4.94.6-9.87 1.19-14.79 1.75zm29.53-3.59c4.92-.63 9.85-1.28 14.8-1.95l-.27-1.98c-4.94.67-9.87 1.31-14.79 1.95zm29.67-4.01c4.97-.7 9.95-1.42 14.94-2.17l-.29-1.97c-4.99.74-9.97 1.46-14.93 2.16zm29.95-4.44c5.02-.78 10.04-1.58 15.08-2.39l-.32-1.98c-5.03.82-10.05 1.61-15.07 2.39zm29.78-4.82c4.86-.82 9.73-1.65 14.62-2.51l-.34-1.97c-4.89.86-9.76 1.69-14.62 2.51zm29.31-5.12c4.91-.89 9.82-1.79 14.75-2.72l-.37-1.96c-4.92.92-9.83 1.82-14.74 2.71zm29.57-5.54c4.95-.96 9.91-1.94 14.88-2.93l-.39-1.96c-4.97.99-9.92 1.97-14.87 2.92zm29.83-5.97c2.49-.52 4.99-1.04 7.5-1.56l-.41-1.96c-2.5.53-5 1.04-7.5 1.56z"/><path d="m1119.42 308 8.5-5.5-53-29.5-8.5 5z" fill-opacity=".2"/></g><path d="m1110.92 237 9 5v66l-9-5z" fill="#c4c4c4"/><path d="m1127.92 237-8 5v66l8-5z" fill="#d3c9ca"/><path d="m1127.92 237-8 5-9-5 8-5z" fill="#fff3f4"/><path d="m1030.92 255.5 9-5-54.499-27.5-9.5 4.5z" fill="#fff" fill-opacity=".2"/><path d="m1022.92 185 9 5v66l-9-5z" fill="#c4c4c4"/><path d="m1039.92 185-8 5v66l8-5z" fill="#d3c9ca"/><path d="m1039.92 185-8 5-9-5 8-5z" fill="#fff3f4"/><path d="m1207.92 361 8-5-53.5-30-7.5 5z" fill="#fff" fill-opacity=".2"/><path d="m1198.92 290 9 5v66l-9-5z" fill="#c4c4c4"/><path d="m1215.92 290-8 5v66l8-5z" fill="#d3c9ca"/><path d="m1215.92 290-8 5-9-5 8-5z" fill="#fff3f4"/><path d="m1295.92 411 8-5-52-29.5-9 4.5z" fill="#fff" fill-opacity=".2"/><path d="m1286.92 340 9 5v66l-9-5z" fill="#c4c4c4"/><path d="m1303.92 340-8 5v66l8-5z" fill="#d3c9ca"/><path d="m1303.92 340-8 5-9-5 8-5z" fill="#fff3f4"/><path d="m595.921 318 8-5-52.5-29-9 4z" fill="#fff" fill-opacity=".2"/><path d="m586.921 247 9 5v66l-9-5z" fill="#c4c4c4"/><path d="m603.921 247-8 5v66l8-5z" fill="#d3c9ca"/><path d="m603.921 247-8 5-9-5 8-5z" fill="#fff3f4"/><path d="m683.921 368 8-5-52-29.5-9 4z" fill="#fff" fill-opacity=".2"/><path d="m674.921 297 9 5v66l-9-5z" fill="#c4c4c4"/><path d="m691.921 297-8 5v66l8-5z" fill="#d3c9ca"/><path d="m691.921 297-8 5-9-5 8-5z" fill="#fff3f4"/><path d="m507.921 278 8-5-52-29-9 4z" fill="#fff" fill-opacity=".2"/><path d="m498.921 207 9 5v66l-9-5z" fill="#c4c4c4"/><path d="m515.921 207-8 5v66l8-5z" fill="#d3c9ca"/><path d="m515.921 207-8 5-9-5 8-5z" fill="#fff3f4"/><path d="m771.921 416 8-5-52-30-9 4.5z" fill="#fff" fill-opacity=".2"/><path d="m762.921 345 9 5v66l-9-5z" fill="#c4c4c4"/><path d="m779.921 345-8 5v66l8-5z" fill="#d3c9ca"/><path d="m779.921 345-8 5-9-5 8-5z" fill="#fff3f4"/><path d="m1381.92 387 9 5v66l-9-5z" fill="#c4c4c4"/><path d="m1398.92 387-8 5v66l8-5z" fill="#d3c9ca"/><path d="m1398.92 387-8 5-9-5 8-5z" fill="#fff3f4"/><path d="m1157.92 2748 8-5-54-30-9 4z" fill="#fff" fill-opacity=".2"/><path d="m1148.92 2677 9 5v66l-9-5z" fill="#c4c4c4"/><path d="m1165.92 2677-8 5v66l8-5z" fill="#d3c9ca"/><path d="m1165.92 2677-8 5-9-5 8-5z" fill="#fff3f4"/><path d="m1069.92 2696 8-5-54-30-9 4z" fill="#fff" fill-opacity=".2"/><path d="m1060.92 2625 9 5v66l-9-5z" fill="#c4c4c4"/><path d="m1077.92 2625-8 5v66l8-5z" fill="#d3c9ca"/><path d="m1077.92 2625-8 5-9-5 8-5z" fill="#fff3f4"/><path d="m1245.92 2801 8-5-54-30-9 4z" fill="#fff" fill-opacity=".2"/><path d="m1236.92 2730 9 5v66l-9-5z" fill="#c4c4c4"/><path d="m1253.92 2730-8 5v66l8-5z" fill="#d3c9ca"/><path d="m1253.92 2730-8 5-9-5 8-5z" fill="#fff3f4"/><path d="m1602.72 2735.05 8.25-4.58-49.76-35.11-8.22 4.08z" fill="#fff" fill-opacity=".2"/><path d="m1597.38 2663.68 8.74 5.46-3.4 65.91-8.73-5.45z" fill="#c4c4c4"/><path d="m1614.36 2664.56-8.24 4.58-3.4 65.91 8.25-4.58z" fill="#d3c9ca"/><path d="m1614.36 2664.56-8.24 4.58-8.74-5.46 8.25-4.58z" fill="#fff3f4"/><path d="m1684.47 2800.34 8.77-5.05-45.65-27.39-10.27 4.98z" fill="#fff" fill-opacity=".2"/><path d="m1679.13 2728.98 8.73 5.45-3.39 65.91-8.73-5.45z" fill="#c4c4c4"/><path d="m1696.11 2729.85-8.25 4.58-3.39 65.91 8.24-4.58z" fill="#d3c9ca"/><path d="m1696.11 2729.85-8.25 4.58-8.73-5.46 8.25-4.58z" fill="#fff3f4"/><path d="m1759.35 2882.31 8.27-5.09-49.85-23.59-10.24 4.48z" fill="#fff" fill-opacity=".2"/><path d="m1754.01 2810.94 8.74 5.45-3.4 65.92-8.73-5.46z" fill="#c4c4c4"/><path d="m1770.99 2811.81-8.24 4.58-3.4 65.92 8.25-4.59z" fill="#d3c9ca"/><path d="m1770.99 2811.81-8.25 4.58-8.73-5.45 8.25-4.58z" fill="#fff3f4"/><path d="m1830.15 2985.09 7.75-4.61-45.96-21.4-10.24 4.48z" fill="#fff" fill-opacity=".2"/><path d="m1824.82 2913.72 8.73 5.45-3.4 65.92-8.73-5.46z" fill="#c4c4c4"/><path d="m1841.8 2914.59-8.25 4.58-3.4 65.92 8.25-4.59z" fill="#d3c9ca"/><path d="m1841.8 2914.59-8.25 4.58-8.73-5.45 8.25-4.58z" fill="#fff3f4"/></svg>