<svg fill="none" height="140" viewBox="0 0 177 140" width="177" xmlns="http://www.w3.org/2000/svg"><g clip-rule="evenodd" fill-rule="evenodd"><path d="m22.4291 40.4486-21.546028 14.1778c-1.050202.5928-1.185708 2.0326-.287955 2.8118l20.396283 13.4895-4.0678 2.4396 40.774 22.5472 25.8969 15.7615 3.8222-2.21 50.3823 27.703 38.315-21.596-55.169-31.9094-22.6816-24.2434-13.4234 8.0084-29.3639-17.1827-2.5329 1.5191-21.7228-11.2317c-2.6933-1.6092-6.0641-1.643-8.7913-.0847z" fill="#fff" fill-opacity=".2"/><path d="m167.662 130.715 4.845-2.694-47.174-27.169-4.845 2.693zm-14.584 8.588 4.844-2.71-47.174-27.17-4.845 2.693z" fill="#fff" fill-opacity=".2"/><path d="m50.0223 71.8018v11.6369l11.5692 8.7065s-.3049-17.1759-11.5692-20.3434z" fill="#b37a00"/><path d="m58.4737 73.2263c-3.862-2.1004-7.2328-.5251-7.4869 3.5232-.2541 4.0484 2.6933 9.0792 6.5723 11.1796 3.862 2.1004 7.2328.5251 7.4869-3.5232.2371-4.0484-2.7102-9.0792-6.5723-11.1796z" fill="#28272c"/><path d="m46.7705 76.7319 6.3859-3.9467-2.0157 3.9298z" fill="#28272c"/><path d="m56.7645 92.1471 6.4198-3.9806-5.4035-2.5239-.6775 4.5904z" fill="#28272c"/><path d="m52.0891 77.1726c-3.862-2.1004-7.2328-.5251-7.4869 3.5233-.2541 4.0483 2.6933 9.0791 6.5722 11.1795 3.8621 2.1004 7.2329.5251 7.4869-3.5232.2541-4.0484-2.6932-9.0792-6.5722-11.1796z" fill="#18171d"/><path d="m51.9705 79.223c-2.7949-1.5245-5.2171-.3727-5.3865 2.5408-.1864 2.9134 1.9479 6.5383 4.7259 8.0628 2.7949 1.5245 5.2171.3726 5.3865-2.5408.1863-2.9135-1.948-6.5384-4.7259-8.0628z" fill="#000"/><path d="m52.0891 77.1726c-3.862-2.1004-7.2328-.5251-7.4869 3.5233-.2541 4.0483 2.6933 9.0791 6.5722 11.1795 3.8621 2.1004 7.2329.5251 7.4869-3.5232.2541-4.0484-2.6932-9.0792-6.5722-11.1796z" fill="#2e2d30"/><path d="m52.0548 77.8842c-3.4894-1.8971-6.5384-.4742-6.7586 3.1845-.2202 3.6588 2.4392 8.1984 5.9286 10.0955 3.4893 1.8971 6.5383.4743 6.7585-3.1845s-2.4392-8.1983-5.9285-10.0955z" fill="#1b1b1f"/><path d="m51.9373 79.6463c-2.5747-1.4059-4.7936-.3388-4.963 2.3376-.1694 2.6932 1.7955 6.0301 4.3532 7.4191 2.5747 1.4059 4.7937.3388 4.9631-2.3375.1863-2.6933-1.7786-6.0302-4.3533-7.4192z" fill="#3b3b3b"/><path d="m52.1231 79.9846c-2.2698-1.2365-4.2347-.3049-4.3872 2.0666-.1524 2.3714 1.5753 5.3187 3.8451 6.5552 2.2698 1.2366 4.2347.3049 4.3871-2.0665.1525-2.3714-1.5753-5.3187-3.845-6.5553z" fill="#d49332"/><path d="m52.1069 80.121c-2.202-1.2027-4.0992-.305-4.2516 1.9987-.1355 2.3037 1.5245 5.1494 3.7265 6.352 2.2021 1.2027 4.0992.288 4.2516-1.9987.1525-2.3037-1.5245-5.1494-3.7265-6.352z" fill="#a76022"/><path d="m52.0893 80.3743c-2.0665-1.1179-3.8451-.271-3.9806 1.8802s1.4398 4.8276 3.4894 5.9455c2.0665 1.118 3.8451.2711 3.9806-1.8801.1525-2.1343-1.4229-4.8107-3.4894-5.9456z" fill="#d49332"/><path d="m55.3251 85.5579c-.1525-1.8972-1.5076-4.0145-3.2523-4.9462-.0508-.0169-.0847-.0508-.1355-.0508-1.8802-.9655-3.5063-.1524-3.6249 1.8125-.1355 2.0496 1.3721 4.5396 3.3031 5.6067 1.9649 1.0502 3.6249.2541 3.7604-1.7616 0-.2033 0-.4574-.0508-.6606z" fill="#e0a100"/><path d="m52.0725 80.6114c-.0508-.017-.0847-.0509-.1355-.0509-.7284.0339-1.2366.576-1.2874 1.5246-.0847 1.4228.9486 3.1675 2.3037 3.8959 1.0502.5928 1.9988.3726 2.3714-.4235-.1355-1.8971-1.5075-4.0314-3.2522-4.9461z" fill="#a76022"/></g><path d="m95.2484 31.8772-12.0096-6.928v19.1238l12.0096 6.9449z" fill="#f1c33a"/><path d="m90.2007 28.8281-33.5895 20.1571 5.8269 3.5063 32.8104-20.6144z" fill="#838383"/><path d="m121.977 66.4668 2.084 1.2026v-1.2026z" fill="#f1c33a"/><path clip-rule="evenodd" d="m129.956 70.5486c-3.862-2.1004-7.233-.5252-7.487 3.5232s2.694 9.0792 6.572 11.1796c3.863 2.1004 7.233.525 7.487-3.5233.254-4.0484-2.693-9.0622-6.572-11.1795z" fill="#28272c" fill-rule="evenodd"/><path clip-rule="evenodd" d="m118.269 74.0717 6.369-3.9467-1.999 3.9297z" fill="#010007" fill-rule="evenodd"/><path clip-rule="evenodd" d="m128.263 89.469 6.42-3.9637-5.421-2.5239-.66 4.5904z" fill="#28272c" fill-rule="evenodd"/><path clip-rule="evenodd" d="m123.588 74.5115c-3.863-2.1004-7.233-.5252-7.487 3.5232-.254 4.0483 2.693 9.0792 6.572 11.1796 3.862 2.1004 7.233.525 7.487-3.5233.254-4.0484-2.71-9.0791-6.572-11.1795z" fill="#18171d" fill-rule="evenodd"/><path clip-rule="evenodd" d="m123.451 76.5618c-2.795-1.5245-5.217-.3726-5.386 2.5408-.187 2.9135 1.948 6.5384 4.726 8.0629 2.795 1.5245 5.217.3726 5.386-2.5408.203-2.9304-1.931-6.5384-4.726-8.0629z" fill="#000" fill-rule="evenodd"/><path clip-rule="evenodd" d="m123.588 74.5115c-3.863-2.1004-7.233-.5252-7.487 3.5232-.254 4.0483 2.693 9.0792 6.572 11.1796 3.862 2.1004 7.233.525 7.487-3.5233.254-4.0484-2.71-9.0791-6.572-11.1795z" fill="#2e2d30" fill-rule="evenodd"/><path clip-rule="evenodd" d="m123.537 75.2231c-3.49-1.8971-6.539-.4743-6.759 3.1845s2.439 8.1983 5.929 10.0955c3.489 1.8971 6.538.4743 6.758-3.1845.237-3.6587-2.422-8.1984-5.928-10.0955z" fill="#1b1b1f" fill-rule="evenodd"/><path clip-rule="evenodd" d="m123.436 76.9862c-2.575-1.406-4.794-.3388-4.963 2.3375-.17 2.6933 1.795 6.0302 4.353 7.4192 2.575 1.4059 4.794.3388 4.963-2.3376.17-2.6932-1.778-6.0302-4.353-7.4191z" fill="#3b3b3b" fill-rule="evenodd"/><path clip-rule="evenodd" d="m123.621 77.3235c-2.269-1.2365-4.234-.3049-4.387 2.0665-.152 2.3715 1.576 5.3188 3.845 6.5553 2.27 1.2365 4.235.3049 4.388-2.0665.152-2.3714-1.593-5.3188-3.846-6.5553z" fill="#cecece" fill-rule="evenodd"/><path clip-rule="evenodd" d="m123.605 77.4598c-2.202-1.2026-4.099-.3049-4.251 1.9988-.136 2.3036 1.524 5.1494 3.726 6.352 2.202 1.2027 4.099.288 4.252-1.9988.152-2.3036-1.525-5.1493-3.727-6.352z" fill="#a19e9c" fill-rule="evenodd"/><path clip-rule="evenodd" d="m123.588 77.7132c-2.067-1.118-3.845-.271-3.981 1.8802-.135 2.1512 1.44 4.8275 3.49 5.9455 2.066 1.1179 3.845.271 3.98-1.8802.153-2.1512-1.423-4.8275-3.489-5.9455z" fill="#cecece" fill-rule="evenodd"/><path clip-rule="evenodd" d="m126.823 82.8977c-.152-1.8972-1.507-4.0314-3.252-4.9461-.051-.0169-.084-.0508-.135-.0508-1.88-.9655-3.507-.1525-3.625 1.8124-.136 2.0496 1.372 4.5396 3.303 5.6068 1.965 1.0502 3.625.254 3.76-1.7617 0-.2202-.017-.4574-.051-.6606z" fill="#7c7774" fill-rule="evenodd"/><path clip-rule="evenodd" d="m123.571 77.9502c-.051-.0169-.085-.0508-.136-.0508-.728.0339-1.236.5759-1.287 1.5245-.085 1.4228.949 3.1675 2.304 3.8959 1.05.5928 1.998.3726 2.371-.4235-.152-1.9141-1.507-4.0314-3.252-4.9461z" fill="#cecece" fill-rule="evenodd"/><path d="m128.076 64.9079-5.42 3.6079-42.2626-11.4336v-11.4506c0-1.1688.4404-2.1851 1.118-2.9643 1.3212-1.4737 3.5741-2.5069 5.5051-1.389z" fill="#ffe057"/><path d="m98.5859 93.8896-4.5227 2.6086 4.5227 5.0818z" fill="#b37a00"/><path clip-rule="evenodd" d="m75.1582 104.613 14.7875-7.4702-3.7096-8.1476s-5.234-3.5571-8.554-1.8463c-3.5741 1.8294-5.1833 9.2147-2.5239 17.4641z" fill="#b37a00" fill-rule="evenodd"/><path d="m122.96 74.7842-24.3744 14.2285v12.5683l24.3744-14.2283z" fill="#976305"/><path d="m56.6119 48.9863-6.2503 15.6514 40.094 23.1891v-19.1577z" fill="#1d1d1d"/><path d="m116.762 10.2805-16.312-9.417889c-2.3548-1.33816-5.0142-1.033259-6.9621.321839-.0339.03388-.0339.05081-.0339.05081l-.271.15245c-1.4567 1.16877-2.4223 2.96428-2.4223 5.06469v42.9736l30.9813 18.1922c.355-34.843-4.98-57.3377-4.98-57.3377zm4.929 49.5967-24.0701-14.1439v-39.90763c0-.81306.7115-1.21959 1.2196-1.21959.1864 0 .3727.05082.5759.18633l15.2276 8.79119c1.948 3.2522 9.266 17.4977 7.047 46.2936z" fill="#2f2f2f"/><path d="m91.9126 5.21587c0-1.47367.4912-2.76103 1.2704-3.82817-1.4398 1.16877-2.4223 2.94734-2.4223 5.06469v42.97361l30.9813 18.1922c.051-.6268.084-1.2196.135-1.8463l-29.9644-17.5825z" fill="#393939"/><path d="m98.7727 4.62305c-.4912.03387-1.1519.42348-1.1519 1.20266v39.90769l24.0702 14.1438c.051-.6437.068-1.2196.101-1.8463l-23.0193-13.5341z" fill="#393939"/><path d="m123.418 63.3839-32.2683 18.8189-28.7112-16.3119 32.2683-18.802z" fill="#0e0e0e"/><path d="m94.7068 27.915-32.2683 18.802v19.1747l32.2683-18.802z" fill="#1d1d1d"/><path d="m64.2509 48.5464 30.4559-17.7518v-2.8796l-32.2683 18.802v19.1747l1.8124-1.0671z" fill="#838383"/><path d="m105.463 58.5043v1.6092c.017.6436-.254 1.3043-.897 1.6769l-10.9088 6.2335c-1.3551.7622-3.0151.7622-4.3533-.0169l-13.8389-7.9952v-20.445c0-1.6939.8977-3.2692 2.3883-4.1161l11.1457-6.4876c.9825-.5928 3.6418 1.0164 3.6418 2.1513l-1.4228 19.8183 6.4875 3.7435 5.7765 3.3369z" fill="#28292c"/><path d="m105.465 58.5039v1.6092c.017.6437-.254 1.3043-.898 1.6769l-10.9086 6.2335c-1.3551.7622-3.0151.7622-4.3533-.0169l-13.8389-7.9951v-1.677l1.4906.847 26.5262-1.1688z" fill="#28292c"/><path d="m82.6654 45.5127 9.7905-12.0434.1694-2.3376c0-1.1349-2.6594-2.744-3.6418-2.1681l-11.1626 6.5045c-1.4568.8469-2.3714 2.4222-2.3714 4.1161l2.1173 1.1688z" fill="#848484"/><path d="m90.4573 30.2501-11.1626 6.5045c-1.4568.8469-2.3715 2.4222-2.3715 4.1161v18.3277l15.7361-9.0792v-18.5987c.017-1.1349-1.2196-1.8463-2.202-1.2704z" fill="#414245"/><path d="m76.9401 59.1973 12.3483 7.1143c1.3551.7792 3.0151.7792 4.3702 0l10.9084-6.2335c1.203-.6944 1.203-2.4222 0-3.1167l-11.8908-6.8432z" fill="#646566"/><path d="m100.45 3.28576-9.6888 5.62365-18.6327 10.84079h-6.4705l27.5254-15.93934.271-.15247s0-.03387.0339-.05081c1.7108-1.18571 4.8614-3.5571294 6.9617-2.74407z" fill="#1e1e1e"/><path d="m119.506 22.6117c-.22-1.3043-.407-2.49-.627-3.5741-1.135-6.1488-2.117-8.7573-2.117-8.7573l-28.3217 16.4644s5.7422 22.122 6.2334 67.1452l7.1823-4.3533 4.353-2.6255 8.944-5.4034 4.353-2.6256 3.151-1.914c.22-26.831-1.508-44.1254-3.151-54.3564zm0 39.1962c-.915 1.0841-2.287 2.3037-4.353 3.591-.898.559-1.948 1.1349-3.134 1.7109-2.151 1.0502-4.116 1.6599-5.81 1.9648-1.795.3218-3.286.288-4.353-.0169-1.067-.271-1.711-.83-1.847-1.5245-3.5228-19.4287-4.4714-30.693-5.5724-37.2144-.2879-1.7108-.0339-3.4555 1.4567-4.3363.6268-.3557 1.3552-.7961 2.1343-1.2365 4.4884-2.5917 11.0444-6.4198 14.6864-8.5372.321-.2032.643-.3049.999-.3387 1.236-.2033 2.795.4404 2.981 1.7616.102.7961.22 1.643.322 2.5408.593 4.6581 1.372 11.1287 2.49 21.9187.491 4.5396 1.033 9.8414 1.643 16.1088.068.5928-.237 1.931-1.643 3.6079z" fill="#2f2f2f"/><path d="m114.865 16.5646c.999 6.5892 1.897 18.5649 4.454 40.5513.136 1.1858-1.101 5.0647-9.113 8.9268-4.166 1.9987-7.825 2.4899-9.977 2.0495.915 1.6262 5.794 1.8972 11.807-.9824 8.029-3.862 9.198-7.741 9.113-8.9267-1.44-21.3598-3.303-33.9961-4.455-40.5514-.186-1.0671-1.254-1.643-2.236-1.7616.152.2033.356.4066.407.6945z" fill="#393939"/><path d="m97.4687 2.59037 13.3813 7.67323 2.931-1.69386-13.331-7.707129c-2.3546-1.33816-5.014-1.033259-6.962.321839-.0338.03388-.0338.05082-.0338.05082l-.271.15244-27.5255 15.93939h6.4706l18.6326-10.84082z" fill="#393939"/><path d="m113.781 8.56934-25.3568 14.78746-13.3138-7.7409-2.9812 1.7108 13.3816 7.741 2.9304 1.6769 28.3218-16.4645z" fill="#393939"/><path d="m95.6223 85.3856c.2033 1.9987-.3896 4.0653-.6606 6.1996l-2.1173 1.2195c.3726-2.9642.6944-5.776.9316-8.5032 3.9806-44.1254-8.4186-59.167-8.4186-59.167l.1525-.0847 2.9304 1.6939s0 0 .0339.0339c.0338.0508.0847.1016.1355.2032.1016.1355.271.3388.4235.6268 2.2359 3.7265 3.6418 27.898 6.5891 57.778z" fill="#838383"/><path d="m89.0326 27.6258c-.1524-.288-.3218-.5082-.4234-.6268-.0508-.1016-.1017-.1524-.1355-.2033-.0339-.0338-.0339-.0338-.0339-.0338l-2.9304-1.6939-13.3816-7.7071c-4.3364-2.5069-9.7059.6098-9.7059 5.5898v42.9397l31.3536 18.4293 1.8463 1.0841.559.3218c.5081-23.0536-4.6412-54.1531-7.1482-58.0998zm4.3194 48.7157-24.0361-14.1269v-39.9246c0-.813.7115-1.2195 1.1858-1.2195.2032 0 .3895.0847.5759.1863l15.2618 8.7912c1.9479 3.2522 4.2008 16.4475 7.0126 46.2935z" fill="#090909"/><path d="m71.0951 21.2563c-.2033-.1186-.3896-.1694-.5759-.1694-.4743 0-1.2027.3727-1.2027 1.2026v39.9247l24.0531 14.1269c.0677-.9486.1016-1.8294.1693-2.7441l-21.6138-12.7041v-39.1793z" fill="#393939"/><path clip-rule="evenodd" d="m90.8934 93.0095c-3.862-2.1004-7.2328-.5251-7.4869 3.5233-.2541 4.0482 2.6933 9.0792 6.5722 11.1792 3.8621 2.101 7.2329.525 7.487-3.523.2371-4.048-2.7102-9.0622-6.5723-11.1795z" fill="#28272c" fill-rule="evenodd"/><path clip-rule="evenodd" d="m79.1904 96.5327 6.369-3.9468-1.9988 3.9298z" fill="#28272c" fill-rule="evenodd"/><path clip-rule="evenodd" d="m89.1843 111.93 6.4198-3.981-5.4204-2.507-.6606 4.591z" fill="#28272c" fill-rule="evenodd"/><path clip-rule="evenodd" d="m84.5088 96.9558c-3.8621-2.1004-7.2329-.5251-7.4869 3.5232-.2541 4.048 2.6932 9.079 6.5722 11.18 3.862 2.1 7.2328.525 7.4869-3.524.2541-4.048-2.6933-9.0619-6.5722-11.1792z" fill="#18171d" fill-rule="evenodd"/><path clip-rule="evenodd" d="m84.3902 99.0228c-2.7949-1.5245-5.2172-.3727-5.3866 2.5412-.1863 2.913 1.948 6.538 4.726 8.062 2.7949 1.525 5.2171.373 5.3865-2.54.1863-2.931-1.948-6.556-4.7259-8.0632z" fill="#000" fill-rule="evenodd"/><path clip-rule="evenodd" d="m84.5088 96.9558c-3.8621-2.1004-7.2329-.5251-7.4869 3.5232-.2541 4.048 2.6932 9.079 6.5722 11.18 3.862 2.1 7.2328.525 7.4869-3.524.2541-4.048-2.6933-9.0619-6.5722-11.1792z" fill="#2e2d30" fill-rule="evenodd"/><path clip-rule="evenodd" d="m84.4744 97.684c-3.4893-1.8971-6.5383-.4742-6.7585 3.185-.2202 3.658 2.4391 8.198 5.9285 10.095s6.5384.474 6.7586-3.184c.2202-3.659-2.4392-8.1988-5.9286-10.096z" fill="#1b1b1f" fill-rule="evenodd"/><path clip-rule="evenodd" d="m84.3571 99.4295c-2.5747-1.4059-4.7936-.3388-4.963 2.3375-.1694 2.693 1.7955 6.03 4.3532 7.419 2.5747 1.406 4.7937.339 4.9631-2.337.1694-2.677-1.7786-6.014-4.3533-7.4195z" fill="#3b3b3b" fill-rule="evenodd"/><path clip-rule="evenodd" d="m84.5429 99.7844c-2.2698-1.2365-4.2347-.3049-4.3872 2.0666-.1524 2.371 1.5753 5.319 3.8451 6.555 2.2698 1.237 4.2347.305 4.3871-2.066.1525-2.389-1.5753-5.319-3.845-6.5556z" fill="#d49332" fill-rule="evenodd"/><path clip-rule="evenodd" d="m84.5267 99.9208c-2.202-1.2027-4.0992-.305-4.2516 1.9992-.1355 2.303 1.5245 5.149 3.7265 6.352 2.2021 1.202 4.0992.288 4.2516-1.999.1525-2.304-1.5245-5.167-3.7265-6.3522z" fill="#a76022" fill-rule="evenodd"/><path clip-rule="evenodd" d="m84.5091 100.174c-2.0665-1.1178-3.8451-.2709-3.9806 1.88-.1355 2.152 1.4398 4.828 3.5063 5.946s3.8451.271 3.9806-1.88c.1355-2.152-1.4398-4.828-3.5063-5.946z" fill="#d49332" fill-rule="evenodd"/><path clip-rule="evenodd" d="m87.7432 105.341c-.1525-1.897-1.5076-4.014-3.2523-4.946-.0508-.017-.0847-.051-.1355-.051-1.8802-.9654-3.4386-.152-3.6249 1.813-.1863 2.1 1.3382 4.488 3.3031 5.606 1.914 1.118 3.6249.254 3.7604-1.761 0-.204 0-.441-.0508-.661z" fill="#e0a100" fill-rule="evenodd"/><path clip-rule="evenodd" d="m84.4922 100.395c-.0509-.017-.0847-.051-.1356-.051-.7283.034-1.2365.576-1.2873 1.524-.0847 1.423.9486 3.168 2.3037 3.896 1.0502.593 1.9987.373 2.3714-.423-.1355-1.897-1.5076-4.015-3.2522-4.946z" fill="#a76022" fill-rule="evenodd"/><path d="m91.1491 86.8779-.6437 6.5384-12.8227-6.2674c-.5081.5251-1.7785 8.0629-1.7785 8.0629l-.7453 9.4012-8.2661-4.777-4.9122-2.8457-2.0496-1.1857v-9.0961l-9.6721-13.822-1.2704-.6606 1.2366-8.9437z" fill="#976305"/><path d="m91.2006 98.0916 28.5584-17.0234 8.571-15.8885-37.1802 21.6985z" fill="#ffb700"/><path d="m53.511 66.6533 1.1179.6267 2.9813 8.9607-1.118-.6268z" fill="#090909"/><path d="m55.8478 67.9404 1.101.6437 2.9981 8.9437-1.1179-.6268z" fill="#090909"/><path d="m58.1692 69.2441 1.1179.6268 2.9813 8.9606-1.1011-.6268z" fill="#090909"/><path d="m60.5063 70.5322 1.118.6268 2.9812 8.9606-1.1179-.6268z" fill="#090909"/><path d="m118.573 19.1904 1.44.847-4.336 2.5916-1.44-.83z" fill="#838383"/><path d="m67.7409 38.9072-3.8451-4.6073v-5.7931l3.8451 4.6074z" fill="#b37a00"/><path d="m67.7409 50.3066-3.8451-4.6073v-5.7931l3.8451 4.6074z" fill="#b37a00"/><path d="m67.7409 61.706-3.8451-4.6073v-5.793l3.8451 4.6242z" fill="#b37a00"/><path d="m84.3568 21.1898.8978.5251 22.1894-13.24609-.864-.54205z" fill="#393939"/><path d="m85.2551 21.7148 1.0672.4235 21.1227-12.63629v-1.03326z" fill="#1e1e1e"/><path d="m78.5637 17.8021.8978.5251 22.1895-13.24609-.864-.54205z" fill="#393939"/><path d="m79.4618 18.3271 1.0671.4235 21.1231-12.63628v-1.03327z" fill="#1e1e1e"/><path d="m84.8646 23.3233v-1.2873h.8131c.0847-.0677.1524-.1186.2541-.1694 1.4059-.813 3.6926-.83 5.0816-.0338.1016.0677.1863.1355.2879.2032h.7454v1.2873c-.017.5251-.3727 1.0503-1.0672 1.4568-1.4059.813-3.6926.83-5.0816.0339-.7114-.4066-1.0502-.9486-1.0333-1.4907z" fill="#1d1d1d"/><path d="m84.8646 22.0528.6098-6.2335h5.9625l.5928 6.1488v.0677c-.0169.5251-.3726 1.0503-1.0671 1.4568-1.4059.813-3.6927.83-5.0816.0339-.6945-.4066-1.0333-.9317-1.0164-1.4737z" fill="#c97735"/><path d="m90.5901 20.8162c-1.1688-.6776-3.0829-.6606-4.2686.0169-1.1857.6776-1.2027 1.7955-.0339 2.4561 1.1688.6776 3.0829.6606 4.2686-.0169 1.1857-.6945 1.2026-1.7955.0339-2.4561z" fill="#bc5705"/><path d="m86.9146 17.5634c.7622-1.3043 1.9988-1.2873 2.761.0339s.7792 3.4724.017 4.7767c-.7623 1.3043-1.9988 1.2874-2.7611-.0338-.7622-1.3213-.7791-3.4556-.0169-4.7768z" fill="#bd4d00"/><path d="m90.5895 23.1199c-.559.3219-1.2365.5082-1.948.5929-.0338-.0339-.0677-.0678-.1185-.1016-.1186-.1525-.2372-.3049-.3388-.4913-1.0163-1.7616-1.0333-4.5904-.0339-6.3351.2541-.4234.5421-.7453.847-.9655h1.931c.0508.0339.0847.0678.1355.1186.0169.0169.0339.0339.0508.0508l.542 5.6068v.0677c-.0169.5251-.3726 1.0502-1.0671 1.4567z" fill="#e07705"/><path d="m88.7091 18.2248c.559-.9485 1.4567-.9485 2.0157.0339.559.9655.5759 2.5239.0169 3.4894-.559.9486-1.4567.9485-2.0157-.0339s-.5759-2.5408-.0169-3.4894z" fill="#e09c05"/><path d="m90.5727 14.5998c-1.1519-.6606-3.049-.6606-4.2178.0169-1.1687.6776-1.1857 1.7786-.0339 2.4392 1.1519.6606 3.049.6606 4.2178-.0169 1.1688-.6776 1.1857-1.7786.0339-2.4392z" fill="#eda94d"/><path d="m106.209 69.0735v26.4922l-4.353 2.5917v-29.1008c1.067.3049 2.558.3388 4.353.0169z" fill="#a1886f"/><path d="m119.505 18.665v23.4094c-1.118-10.79-1.897-17.2606-2.49-21.9187l1.863-1.118z" fill="#a1886f"/><path d="m119.505 61.8076v25.9501l-4.353 2.5917v-24.9677c2.067-1.2704 3.439-2.49 4.353-3.5741z" fill="#a1886f"/><path d="m109.36 26.4902-4.336 2.5917v69.0931l4.336-2.6086z" fill="#ffc534"/><path d="m122.656 18.6816-4.337 2.5917v69.0761l4.337-2.5916z" fill="#ffc534"/><path d="m116.897 20.4424 1.423.83v69.0761l-1.423-.83z" fill="#b37a00"/><path d="m103.599 28.252 1.423.83v69.0931l-1.423-.847z" fill="#b37a00"/><path d="m102.94 27.9301 2.304 1.4737 17.684-10.5529-2.304-1.4905z" fill="#fae35a"/><path d="m105.245 29.4034v4.6582l17.684-10.5529v-4.6581z" fill="#ffc534"/><path d="m102.94 27.9297v4.6581l2.304 1.4737v-4.6581z" fill="#b37a00"/><path d="m109.934 86.3701-4.76 2.8627v19.5132l4.76-2.862z" fill="#272727"/><path d="m124.502 77.7988-4.743 2.8627v19.5135l4.743-2.8628z" fill="#272727"/><path d="m118.184 79.7295 1.576.9317v19.5138l-1.576-.9321z" fill="#0e0e0e"/><path d="m103.6 88.2998 1.575.9317v19.5135l-1.575-.932z" fill="#0e0e0e"/><path d="m108.36 85.4541 1.575.9147-4.76 2.8627-1.575-.9317z" fill="#838383"/><path d="m122.944 76.8838 1.558.9147-4.742 2.8626-1.576-.9316z" fill="#838383"/><path d="m157.109 131.257-4.862 2.693-47.174-27.186 4.861-2.694z" fill="#636363"/><path d="m152.264 135.762-.017-1.813-47.174-27.186.017 1.812z" fill="#4a4a4a"/><path d="m157.108 133.069v-1.812l-4.861 2.693.017 1.813z" fill="#bfbfbf"/><path d="m171.693 124.498-.017-1.829-4.845 2.693.017 1.83z" fill="#bfbfbf"/><path d="m171.677 122.67-4.844 2.693-47.175-27.1697 4.845-2.6933z" fill="#636363"/><path d="m166.85 127.192-.017-1.829-47.175-27.1696.017 1.8126z" fill="#4a4a4a"/><path d="m100.89 95.2961 1.677.9147 25.73-15.3635-1.694-.9147z" fill="#fae35a"/><path d="m102.567 96.2101v6.7759l25.73-15.3638v-6.7755z" fill="#ffc534"/><path d="m100.89 95.2949v6.7751l1.676.915v-6.7754z" fill="#b37a00"/><path d="m109.359 85.9784v1.4568l8.978-5.3527-1.271-.7114z" fill="#fae35a"/><path d="m109.359 87.4347v2.2189l8.978-5.3696v-2.202z" fill="#ffc534"/><path d="m109.359 74.4433v1.4567l8.978-5.3696-1.271-.6945z" fill="#fae35a"/><path d="m109.359 75.9008v2.2021l8.978-5.3527v-2.219z" fill="#ffc534"/><path d="m109.359 62.8921v1.4568l8.978-5.3526-1.271-.6945z" fill="#fae35a"/><path d="m109.359 64.3478v2.2189l8.978-5.3526v-2.219z" fill="#ffc534"/><path d="m109.359 51.3564v1.4567l8.978-5.3527-1.271-.7114z" fill="#fae35a"/><path d="m109.359 52.8136v2.219l8.978-5.3696v-2.2021z" fill="#ffc534"/><path d="m109.359 39.8212v1.4567l8.978-5.3695-1.271-.6945z" fill="#fae35a"/><path d="m109.359 41.2778v2.202l8.978-5.3526v-2.219z" fill="#ffc534"/><path d="m116.677 22.6781 2.355 3.2184 2.575-1.4907-2.372-3.2183z" fill="#2f2f2f"/><path d="m111.629 25.5919 2.354 3.2183 2.575-1.4906-2.372-3.2014z" fill="#2f2f2f"/><path d="m106.582 28.5059 2.371 3.2184 2.558-1.4907-2.371-3.2014z" fill="#2f2f2f"/><path d="m79.732 84.6602-6.3182 4.6242 3.1845 2.1682 3.6757-.2541 2.1173 3.3708c1.5245-.813 5.0478.83 5.6406 1.66 1.3382 1.8802 4.3363 4.5397 4.3363 4.5397l4.1162-4.8107-13.4155-9.7059z" fill="#a1886f"/><path d="m92.3516 100.751-1.6939-.9651-1.1518-6.3689 2.8457 1.6769z" fill="#b37a00"/><path d="m79.0026 88.1488 13.0428 7.758.3049.1693 6.3181-3.6249-.3048-.1863-.0678-.0339-19.2932-5.0816z" fill="#b37a00"/><path d="m73.4138 89.2836 5.5898-1.1349 6.3181-3.6419-11.9079 3.7774z" fill="#b37a00"/><path d="m98.6684 91.4521-6.3182 3.6419v5.657l6.3182-3.6244z" fill="#ffc534"/><path d="m79.0026 87.1496 13.0428 7.7579.3049.1864 6.3181-3.6249-.3048-.1863-.0678-.0339-12.9751-7.741z" fill="#ffe057"/><path d="m73.4138 88.2855 5.5898-1.1349 6.3181-3.6418-5.5897 1.1518z" fill="#ffe057"/><path d="m97.6722 94.009v1.8125c0 .3387-.1863.6606-.4912.8299l-3.2522 1.8803c-.271.1524-.5929-.0339-.5929-.3388v-.2202l2.7272-1.5753c.3049-.1694.4912-.4912.4912-.83v-1.6092l.5251-.3049c.271-.1355.5928.0508.5928.3557z" fill="#b37a00"/><path d="m96.5537 93.9746v1.6092c0 .3388-.1863.6606-.4912.83l-2.7272 1.5753v-1.5923c0-.3557.1863-.6606.4912-.8469z" fill="#e2e2e2"/><path d="m94.6727 84.7942 3.9976 6.657-48.4279-28.1691 3.5233-2.1005z" fill="#ffe057"/><path d="m132.717 77.4931-10.062-2.4392v-5.5559l10.062 2.3376z" fill="#b37a00"/><path d="m122.655 69.4984 9.757 3.1506.305.1863 6.318-3.6418-.322-.1694-.051-.0508-16.007-.4743z" fill="#b37a00"/><path d="m139.036 68.1934-6.318 3.6418v5.6575l6.318-3.6249z" fill="#ffc534"/><path d="m122.656 68.4989 9.757 3.1676.305.1694 6.318-3.6249-.322-.1864-.051-.0338-12.517-7.4361-3.49 1.8971z" fill="#ffe057"/><path d="m138.442 70.4641v1.8124c0 .3388-.186.6606-.491.83l-3.252 1.8803c-.271.1524-.593-.0339-.593-.3388v-.2203l2.727-1.5752c.305-.1694.491-.4913.491-.83v-1.6092l.525-.3049c.271-.1355.593.0508.593.3557z" fill="#b37a00"/><path d="m137.324 70.4307v1.6091c0 .3388-.186.6607-.491.83l-2.727 1.5753v-1.5922c0-.3557.186-.6606.491-.8469z" fill="#e2e2e2"/><path d="m173.54 109.999-3.693 2.354-36.401-20.936 3.692-2.3545z" fill="#d6b163"/><path d="m169.847 112.354v7.165l-36.401-20.919v-7.182z" fill="#7d5129"/><path d="m154.451 104.951v4.133l12.924 7.436v-4.116z" fill="#b78841"/><path d="m136.258 94.5176v4.1499l12.924 7.4195v-4.133z" fill="#b78841"/><path d="m173.541 109.999v7.402l-3.693 2.118v-7.165z" fill="#91693a"/><path d="m139.595 96.5163-3.337 2.1512v-4.1499z" fill="#613f1f"/><path d="m157.805 106.95-3.354 2.134v-4.133z" fill="#613f1f"/><path d="m157.297 119.332-3.693 2.354-36.401-20.936 3.693-2.3545z" fill="#d6b163"/><path d="m153.603 121.687v7.165l-36.401-20.919v-7.182z" fill="#7d5129"/><path d="m138.207 114.284v4.15l12.907 7.419v-4.116z" fill="#b78841"/><path d="m119.997 103.851v4.15l12.941 7.419v-4.133z" fill="#b78841"/><path d="m157.296 119.331v7.419l-3.693 2.101v-7.165z" fill="#91693a"/><path d="m123.351 105.849-3.354 2.152v-4.15z" fill="#613f1f"/><path d="m141.561 116.283-3.354 2.151v-4.15z" fill="#613f1f"/><path d="m141.052 128.666-3.693 2.354-36.401-20.919 3.693-2.372z" fill="#d6b163"/><path d="m137.359 131.02v7.182l-36.401-20.936v-7.165z" fill="#7d5129"/><path d="m121.963 123.618v4.15l12.907 7.419v-4.116z" fill="#b78841"/><path d="m103.753 113.185v4.15l12.941 7.419v-4.133z" fill="#b78841"/><path d="m141.053 128.665v7.419l-3.693 2.118v-7.183z" fill="#91693a"/><path d="m107.107 115.183-3.354 2.152v-4.15z" fill="#613f1f"/><path d="m125.317 125.617-3.354 2.151v-4.15z" fill="#613f1f"/><path d="m133.666 126.852 3.693 2.371 36.181-21.037-3.693-2.355z" fill="#d6b163"/><path d="m137.358 129.223v1.796l36.181-21.021v-1.812z" fill="#ad7e45"/><path d="m133.666 126.853v2.049l3.692 2.117v-1.795z" fill="#996232"/><path d="m125.486 122.161 3.693 2.354 36.181-21.037-3.693-2.355z" fill="#d6b163"/><path d="m129.178 124.515v1.813l36.181-21.038v-1.812z" fill="#ad7e45"/><path d="m125.486 122.16v2.05l3.692 2.117v-1.812z" fill="#996232"/><path d="m117.304 117.451 3.693 2.354 36.181-21.0205-3.676-2.3714z" fill="#d6b163"/><path d="m120.996 119.805v1.813l36.182-21.038v-1.7958z" fill="#ad7e45"/><path d="m117.304 117.451v2.05l3.692 2.117v-1.812z" fill="#996232"/><path d="m109.14 112.742 3.675 2.371 36.199-21.0378-3.693-2.3545z" fill="#d6b163"/><path d="m112.815 115.114v1.796l36.199-21.0214v-1.8124z" fill="#ad7e45"/><path d="m109.14 112.742v2.05l3.675 2.117v-1.795z" fill="#996232"/><path d="m100.958 108.034 3.693 2.371 36.181-21.0378-3.693-2.3545z" fill="#d6b163"/><path d="m104.65 110.404v1.796l36.181-21.0213v-1.8125z" fill="#ad7e45"/><path d="m100.958 108.033v2.067l3.693 2.1v-1.795z" fill="#996232"/></svg>