<svg fill="none" height="18637" viewBox="0 0 1420 18637" width="1420" xmlns="http://www.w3.org/2000/svg" xmlns:xlink="http://www.w3.org/1999/xlink"><linearGradient id="a"><stop offset="0" stop-color="#fb9180"/><stop offset="1" stop-color="#feda46"/></linearGradient><linearGradient id="b" gradientUnits="userSpaceOnUse" x1="501.724" x2="1261.41" xlink:href="#a" y1="1903.9" y2="1890.65"/><linearGradient id="c" gradientUnits="userSpaceOnUse" x1="506.338" x2="1266.02" xlink:href="#a" y1="13550.9" y2="13537.7"/><path d="m485.897 5.9758c-30.389-13.21262-65.735.71161-78.948 31.1006-13.212 30.3891.712 65.7356 31.101 78.9476zm427.692 304.5722 29.11-52.466zm332.361 619.452-48.48-35.348zm-611.72-11.042 49.154 34.407zm247.34 359.962-30.144 51.88zm302.55 382.06 57.56 16.94zm-779.56 291.5 43.219 41.62zm700.06 669.14 46.54 37.86zm-415.178-19.87-34.037-49.42zm420.448 2419.75 59.33 8.9zm-943.004 634 45.052-39.63zm373 404.5 58.603-12.87zm426.501 448.5 59.703 5.93zm-248.236 536.52 34.57-49.04zm276.736 2180.48-59.139-10.13zm-658.501 930-57.642-16.7zm423 1116.5 28.004-53.1zm-321.336-11155.976c30.27 13.161 118.296 61.618 213.604 115.271 92.832 52.259 189.986 107.949 232.825 131.718l58.22-104.931c-42.736-23.711-137.528-78.073-232.179-131.356-92.175-51.8895-187.169-104.4659-224.623-120.7502zm446.429 246.989c104.272 57.854 172.671 83.69 293.631 178.125l73.85-94.589c-130.8-102.111-213.93-135.574-309.261-188.467zm293.631 178.125c94.13 73.48 110.35 228.715 19.36 353.514l96.97 70.695c119.05-163.293 115.15-395.732-42.48-518.798zm19.36 353.514c-14.84 20.36-28.67 29.797-40.46 34.445-12.05 4.755-26.62 6.318-45.54 3.604-41.17-5.904-88.75-29.227-147.904-59.547-53.7-27.524-119.459-62.292-182.672-72.428-33.341-5.346-69.368-4.593-104.873 9.203-35.889 13.945-66.19 39.256-90.945 74.621l98.308 68.815c13.505-19.292 25.909-27.624 36.098-31.584 10.573-4.108 23.998-5.521 42.413-2.568 40.298 6.461 87.264 30.146 146.937 60.731 54.216 27.786 120.658 62.226 185.598 71.546 34.13 4.89 70.64 3.43 106.61-10.76 36.24-14.29 67.38-39.71 93.4-75.383zm-612.394-10.102c-40.618 58.026-50.274 118.22-34.098 175.24 15.187 53.54 51.222 97.54 88.463 131.85 73.393 67.62 176.06 118.29 211.985 139.16l60.288-103.75c-47.11-27.38-130.334-67.8-190.963-123.66-29.77-27.43-47.779-53.26-54.328-76.35-5.559-19.6-4.642-42.813 16.961-73.675zm266.35 446.25c18.181 10.57 37.654 21.06 56.871 31.37 19.498 10.46 38.843 20.79 58.078 31.64 38.665 21.82 74.005 44.2 102.625 69.24 28.46 24.91 47.93 50.44 58 77.89 9.72 26.49 12.42 59.43-.44 103.09l115.12 33.89c19.33-65.66 17.48-125.15-2.02-178.31-19.16-52.22-53.58-93.56-91.63-126.86-37.9-33.16-81.67-60.31-122.68-83.45-20.6-11.62-41.225-22.63-60.328-32.88-19.383-10.4-37.139-19.98-53.308-29.37zm275.134 313.23c-21.41 72.71-63.02 114.56-116.82 141.13-56.71 28-128.622 39.7-209.113 44.87-39.818 2.56-80.001 3.46-120.345 4.44-39.767.96-80.025 2-117.482 4.99-37.307 2.99-74.511 8.09-108.059 18.1-33.516 10.01-67.117 26.01-93.4 53.3l86.438 83.24c6.976-7.24 19.368-15.01 41.29-21.55 21.889-6.54 49.568-10.77 83.299-13.47 33.582-2.69 70.517-3.68 110.812-4.65 39.716-.96 82.46-1.9 125.148-4.65 84.519-5.43 175.927-18.21 254.542-57.03 81.51-40.25 147.22-107.56 178.81-214.83zm-765.219 266.83c-18.41 19.12-29.096 45.35-24.587 74.74 3.871 25.23 17.849 44.85 29.841 58.2 24.03 26.76 61.951 51.92 101.395 75.01 79.158 46.32 198.361 102.7 302.76 158.38 109.583 58.44 207.056 118.03 263.28 177.07 27.85 29.24 40.43 53.13 43.66 71.54 2.68 15.3.22 33.57-19.62 57.96l93.09 75.72c38.47-47.29 54.27-99.96 44.73-154.4-9-51.33-39.15-95.97-74.96-133.58-71.12-74.68-184.772-142.09-293.712-200.19-114.122-60.86-220.84-110.55-298.618-156.07-39.024-22.84-62.324-40.04-72.722-51.62-5.222-5.81-1.76-4.35-.512 3.78 1.886 12.29-3.531 22.49-7.587 26.7zm696.729 672.9c-6.02 7.4-8.48 7.25-6.81 6.76 1.46-.44.56.56-5.67-1.19-6.88-1.94-16.25-6.08-30.03-13.62-15.633-8.56-26.304-15.31-46.418-26.65-34.507-19.45-80.152-42.52-134.419-48-56.673-5.73-116.738 8.17-179.318 51.27l68.073 98.83c41.214-28.39 73.211-33.33 99.181-30.71 28.374 2.87 55.951 15.34 87.558 33.15 12.943 7.3 33.551 19.61 47.71 27.37 16.015 8.76 34.943 18.19 55.163 23.88 20.88 5.87 45.89 8.56 72.35.7 26.66-7.93 48.28-24.62 65.72-46.07zm-402.665-31.43c-109.151 75.19-235.098 175.27-334.488 283.91-96.86 105.89-179.531 231.69-179.531 357.35h120c0-77.51 54.389-173.94 148.072-276.35 91.154-99.64 209.235-193.9 314.02-266.08zm-514.019 641.26c0 55.06 24.366 101.18 58.694 138.57 33.63 36.62 79.047 67.5 128.352 94.63 97.961 53.89 228.014 101.58 350.09 149.58 125.353 49.3 243.878 99.45 330.968 159.66 87.29 60.36 130.09 121.66 130.09 190.75h120c0-127.65-81.98-220.41-181.85-289.45-100.072-69.19-231.094-123.79-355.289-172.63-127.471-50.13-246.966-93.98-336.166-143.05-44.276-24.36-76.842-47.82-97.801-70.65-20.26-22.07-27.088-40.53-27.088-57.41zm998.194 733.19c0 39.64-8.96 68.2-22.18 89.82-13.36 21.84-33.26 40.12-60.32 55.62-56.29 32.23-135.693 48.29-225.73 59.84-84.207 10.8-182.696 17.84-254.831 35.88-36.818 9.2-74.981 22.96-104.779 46.96-32.638 26.29-53.354 63.55-53.354 110.6h120c0-7.7 1.822-11.66 8.624-17.14 9.642-7.77 27.822-16.31 58.616-24.01 63.088-15.77 144.897-20.94 240.987-33.26 90.26-11.58 191.157-29.54 270.097-74.74 40.54-23.21 76.99-54.51 103.06-97.14 26.22-42.87 39.81-93.7 39.81-152.43zm-721.194 398.72c0 93.19 57.379 169.85 122.855 231.39 66.461 62.46 153.477 120.43 233.554 174.1 82.613 55.37 157.672 106.06 210.418 157.34 53.847 52.34 70.237 91.63 65.337 124.27l118.67 17.8c13.86-92.36-39.32-168.77-100.36-228.12-62.15-60.41-147.307-117.39-227.257-170.97-82.485-55.28-160.376-107.54-218.181-161.86-58.79-55.25-85.036-101.94-85.036-143.95zm632.164 687.1c-11.21 74.71-76.004 125.71-202.138 161.35-123.908 35.01-278.673 47.08-426.857 63.58-72.391 8.06-143.255 17.26-204.225 31.31-59.409 13.7-117.8633 33.74-159.2182 68.56-21.6551 18.24-39.7036 41.41-49.74693 70.41-10.06237 29.05-10.64284 59.78-3.89498 90.76 12.94571 59.45 53.80381 124.29 117.36411 196.56l90.104-79.26c-59.685-67.85-83.903-113.84-90.216-142.83-2.882-13.23-1.638-21.13.034-25.96 1.692-4.88 5.288-10.85 13.644-17.88 18.667-15.72 53.697-30.7 108.885-43.42 53.626-12.37 118.47-20.97 190.545-28.99 140.747-15.67 309.945-28.86 446.21-67.36 134.04-37.87 265.62-108.63 288.18-259.03zm-928.716 682.53c98.972 112.52 203.427 103.52 238.056 114.07 14.315 4.37 30.194 12.04 49.816 45.23 21.766 36.82 45.961 101.81 71.577 218.44l117.206-25.74c-26.383-120.12-53.814-200.19-85.485-253.77-33.815-57.2-73.187-85.24-118.122-98.94-83.871-25.57-113.916-.07-182.944-78.55zm359.449 377.74c13.553 61.71 65.207 103.09 109.427 132.1 44.736 29.35 106.575 60.62 153.959 88.13 107.558 62.43 170.847 120.49 162.012 209.47l119.409 11.86c16.99-171.12-117.009-264.65-221.179-325.12-58.48-33.94-106.115-56.95-148.375-84.67-42.776-28.07-55.642-46.56-58.047-57.51zm425.398 429.7c-.439 4.42-.695-.57 5.178-4.93 3.611-2.69 3.664-.53-7.037-.23-22.926.66-57.444-7.24-104.179-19.52-41.615-10.93-93.609-25.53-137.42-28.61-22.235-1.57-48.685-.8-73.556 8.84-27.564 10.7-50.721 31.5-62.453 62.99l112.45 41.9c-.255.68-1.18 2.57-3.167 4.51-1.898 1.86-3.448 2.49-3.432 2.48 1.097-.42 7.187-2.04 21.727-1.02 29.737 2.09 68.232 12.59 115.36 24.97 42.007 11.04 94.483 24.67 138.117 23.41 22.578-.64 50.802-5.31 75.139-23.39 26.602-19.75 39.622-48.71 42.682-79.54zm-379.467 18.54c-24.604 66.04-39.382 168.84-22.534 274.01 17.035 106.32 67.465 220.38 178.9 298.94l69.141-98.08c-78.258-55.17-116.163-136.28-129.552-219.84-13.573-84.73-.861-166.55 16.495-213.13zm156.366 572.95c6.786 4.78 18.678 19.67 18.864 66.18.18 44.96-10.979 105.62-32.645 179.77-43.125 147.59-122.865 332.35-209.505 519.75-85.57 185.08-178.713 374.42-243.988 523.2-32.752 74.65-59.835 142.04-76.144 196.19-8.118 26.95-14.249 52.81-16.587 75.86-2.101 20.71-2.45 50.07 12.205 75.74l104.212-59.5c4.593 8.05 1.497 10.4 2.97-4.13 1.236-12.19 5-29.79 12.101-53.37 14.133-46.91 38.795-108.87 71.132-182.57 64.905-147.94 155.321-331.38 243.021-521.06 86.63-187.38 169.871-379.38 215.767-536.45 22.845-78.19 37.708-151.83 37.46-213.9-.241-60.52-15.225-125.37-69.722-163.79zm-547.8 1636.69c18.577 32.54 51.921 55.74 82.849 72.98 32.806 18.29 72.92 35.19 115.543 51.31 42.866 16.21 90.594 32.48 138.973 49.04 48.759 16.69 98.54 33.79 147.126 52.12 98.429 37.13 185.939 77.17 245.083 123.74 58.158 45.8 78.397 88.7 70.394 135.43l118.282 20.26c18.49-108.02-38.83-190.43-114.439-249.97-74.621-58.75-177.08-104.06-276.964-141.74-50.57-19.07-102.031-36.74-150.619-53.37-48.966-16.77-94.687-32.37-135.392-47.76-40.947-15.48-74.525-29.92-99.549-43.87-26.902-15-35.526-24.96-37.075-27.67zm799.968 484.62c-9.977 58.26-45.546 125.81-101.627 202.38-55.468 75.73-126.439 154.35-200.818 235.26-73.434 79.89-150.439 162.27-213.812 242.19-62.811 79.21-117.125 161.9-140.747 243.6l115.285 33.4c16.89-58.5 58.962-126.1 119.489-202.44 59.965-75.63 133.249-154.08 208.13-235.54 73.937-80.43 149.309-163.68 209.285-245.57 59.364-81.05 108.347-166.89 123.097-253.02zm-657.004 923.43c-47.44 164.3-31.443 407.5 41.193 632.1 72.626 224.6 207.01 446.3 411.446 554.2l56.007-106.2c-165.064-87.1-285.244-274.6-353.274-484.9-68.021-210.4-78.774-427.9-40.087-561.8zm452.639 1186.3c60.41 31.8 109.209 56.9 149.606 81.5 40.188 24.6 67.2 45.9 85.169 68.1 31.151 38.4 45.872 92.4 14.994 216.9l116.468 28.8c34.62-139.5 27.74-240-38.28-321.3-30.62-37.8-71.086-67.6-115.832-94.9-44.538-27.2-98.127-54.7-156.118-85.3z" fill="url(#b)"/><path d="m188.405 11910.7c-16.44 28.8-6.445 65.5 22.326 81.9 28.772 16.4 65.423 6.4 81.863-22.3zm893.095-108.2-8.66-59.4zm169.07 774.5-48.49-35.3zm-611.727-11 49.154 34.4zm247.34 359.9-30.144 51.9zm261.817 263.6 57.56 16.9zm-772.5 287 55.877 21.9zm608 676.5-48.412-35.4zm-289.445 95.7-34.036-49.4zm-480.055 1451.3 17.137-57.5zm860 757 58.16-14.8zm-671 599 58.688-12.5zm157.5 674 58.27-14.3zm-249.225 825.6c-11.569 31 4.226 65.6 35.278 77.1 31.052 11.6 65.603-4.2 77.172-35.3zm659.725-400.1-44.613-40.1zm-678.406-6185.2c3.828-6.7 13.438-17 34.893-28.5 21.035-11.3 49.388-21.7 84.515-30.7 70.274-18 159.153-28.6 251.227-34.8 91.58-6.2 183.66-7.9 259.753-8.9 72.537-1 137.828-1.2 167.178-5.5l-17.32-118.8c-19.07 2.8-71.61 3.2-151.467 4.3-76.299 1-171.167 2.7-266.232 9.2-94.57 6.3-192.035 17.5-272.942 38.3-40.463 10.4-78.911 23.6-111.529 41.2-32.198 17.3-63.092 41.1-82.265 74.6zm797.566-108.4c63.54-9.3 99.12-55.2 119.18-96.3 19.59-40.2 30.73-88.6 39.4-123.8 4.68-19 8.65-34.6 12.91-47.3 2.08-6.3 3.96-11 5.62-14.5.82-1.8 1.49-3 2.01-3.9.51-.8.77-1.2.73-1.1-.75.9-8.3 8.8-21.35 8.7-8.71-.1-8.72-4 2.92 5.1l73.84-94.6c-19.83-15.5-45.52-30.3-75.62-30.5-34.45-.4-59.12 18-74.19 37.2-13.66 17.4-22.04 38.3-27.8 55.6-6.01 18.1-11.04 38.2-15.59 56.6-9.78 39.8-18 73.8-30.73 99.8-12.26 25.2-21.94 29.2-28.65 30.2zm161.42-273.1c-.06-.1 2.43 2 6.36 8.8 3.85 6.7 8.09 16.3 12.34 29.3 8.53 26.2 15.54 61.5 20.57 104.6 10.02 85.9 11.29 195.1 5.35 307.4-5.93 112.1-18.92 225.1-36.64 318.1-8.87 46.6-18.75 87.3-29.19 119.9-10.82 33.8-20.89 54.6-28.29 64.8l96.97 70.6c18.86-25.8 33.6-61.3 45.61-98.8 12.38-38.7 23.33-84.4 32.78-134 18.9-99.3 32.43-217.7 38.6-334.2 6.15-116.3 5.08-232.8-6-327.8-5.52-47.3-13.74-91.2-25.68-127.8-11.25-34.5-28.73-71.9-58.94-95.5zm-49.5 952.9c-14.84 20.3-28.67 29.8-40.45 34.4-12.06 4.8-26.63 6.3-45.55 3.6-41.16-5.9-88.74-29.2-147.901-59.5-53.7-27.6-119.459-62.3-182.672-72.5-33.34-5.3-69.367-4.6-104.873 9.2-35.889 14-66.189 39.3-90.945 74.7l98.308 68.8c13.505-19.3 25.909-27.7 36.099-31.6 10.573-4.1 23.998-5.5 42.413-2.6 40.298 6.5 87.263 30.2 146.936 60.7 54.217 27.8 120.655 62.3 185.595 71.6 34.13 4.9 70.64 3.4 106.61-10.8 36.24-14.3 67.39-39.7 93.4-75.4zm-612.391-10.1c-40.618 58-50.273 118.2-34.097 175.2 15.186 53.5 51.221 97.5 88.462 131.8 73.393 67.7 176.06 118.3 211.985 139.2l60.289-103.8c-47.111-27.3-130.335-67.8-190.964-123.6-29.77-27.4-47.778-53.3-54.327-76.4-5.56-19.6-4.643-42.8 16.96-73.6zm266.35 446.2c40.589 23.6 83.748 38 120.007 49.5 38.874 12.2 67.004 20.4 89.564 31.9 20.6 10.4 28.2 19.6 31.8 29.2 4.28 11.4 7.37 35.5-6.97 84.2l115.12 33.8c17.85-60.6 21.48-114.2 4.18-160.2-17.99-47.9-54.1-75.9-89.83-94-33.76-17.2-74.58-28.9-107.73-39.4-35.775-11.3-67.741-22.4-95.852-38.8zm234.401 194.8c-20.71 70.3-64.14 110.8-122.975 136.3-61.881 26.7-139.999 36.3-224.634 39.7-41.94 1.7-83.347 1.8-124.361 2.4-40.255.5-80.371 1.3-116.554 4.7-35.595 3.3-71.921 9.3-103.048 22.4-32.142 13.6-63.734 36.9-79.245 76.5l111.754 43.8c.253-.7.631-1.5 2.07-2.8 1.718-1.5 5.261-4 11.978-6.9 14.213-6 36.113-10.6 67.565-13.5 30.863-2.9 66.614-3.7 106.981-4.3 39.606-.4 83.574-.6 127.696-2.4 87.49-3.5 184.247-13.5 267.463-49.5 86.25-37.3 158.14-102.9 190.43-212.6zm-770.817 282c-19.714 50.4 4.916 94.3 28.424 121.7 24.073 28 59.2 54 96.06 78 72.163 46.8 178.583 102.1 266.729 154.4 93.976 55.7 173.502 111.3 216.938 167.2 21.02 27 30.491 50.3 32.047 70.5 1.463 19.1-3.516 42.2-24.733 71.2l96.822 70.8c35.16-48 51.58-98.9 47.56-151.2-3.93-51-26.82-96.2-56.94-135-58.847-75.7-156.724-141.1-250.474-196.7-99.579-59.1-191.21-105.6-262.627-151.9-34.93-22.7-57.976-41.1-70.359-55.5-12.948-15.1-3.056-11.6-7.693.3zm615.465 663c-19.919 27.2-24.99 24-18.037 22.4 3.332-.8 5.011-.1 2.077-.6-5.306-1-7.869-2.1-20.777-5.3-22.873-5.8-54.16-11.3-96.186-2.5-40.293 8.5-86.215 29.2-142.146 67.7l68.073 98.9c47.863-33 79.035-45 98.745-49.1 17.977-3.8 29.602-1.8 42.158 1.3 4.807 1.2 18.088 5 27.956 6.9 12.24 2.3 28.424 3.9 46.793-.3 37.026-8.5 64.156-35.8 88.166-68.6zm-275.069 81.7c-109.152 75.2-235.098 175.3-334.488 283.9-96.861 105.9-179.531 231.7-179.531 357.4h120c0-77.5 54.389-173.9 148.072-276.4 91.154-99.6 209.235-193.9 314.02-266zm-514.019 641.3c0 55 23.466 99 60.739 131.5 35.019 30.6 81.072 50.2 128.295 64.2 93.659 27.9 217.595 40.4 330.845 55.1 117.987 15.3 226.247 33 304.663 68.1 38.428 17.3 65.818 37 83.468 59.3 16.8 21.2 27.18 47.5 27.18 83.7h120c0-62.2-18.85-115-53.18-158.3-33.5-42.2-79.17-72.1-128.42-94.2-96.93-43.4-222.468-62.6-338.278-77.6-120.548-15.6-230.41-26.8-312.099-51.1-40.452-12-67.46-25.5-83.584-39.6-13.871-12.1-19.629-24.2-19.629-41.1zm935.19 461.9c0 64-43.91 118.8-138.675 166.5-93.55 47.1-220.075 78-346.408 99.3-125.859 21.2-244.686 31.9-324.711 41.4-19.723 2.3-37.569 4.6-52.372 7-13.442 2.2-29.046 5.2-41.584 10.1-4.352 1.7-19.548 7.5-31.205 21.9-7.162 8.8-14.555 23-14.111 41.2.431 17.7 8.048 30.7 14.195 38.3 10.492 13 23.903 19.2 28.757 21.4 6.991 3.2 14.573 5.8 21.786 7.9l34.275-115c-4.705-1.4-6.488-2.2-6.453-2.2.057.1 1.481.7 3.618 2.1 1.829 1.2 6.551 4.4 11.347 10.4 5.003 6.2 12.041 17.8 12.439 34.2.412 16.8-6.467 29.6-12.588 37.2-5.58 6.9-11.298 10.5-13.653 11.9-2.712 1.7-4.674 2.4-5.117 2.6-.222.1 4.344-1.4 17.74-3.6 12.036-1.9 27.699-4 46.968-6.3 75.943-8.9 200.834-20.3 330.612-42.1 129.303-21.8 270.335-55.1 380.432-110.5 108.888-54.8 204.708-140.9 204.708-273.7zm-884.328 455c55.012 16.4 131.527 56.9 218.768 115.1 86.144 57.4 178.901 129.5 265.683 205.6 86.849 76.2 166.663 155.5 227.337 226.9 62.781 74 98.4 132 107.19 166.7l116.32-29.6c-16.21-63.8-68.72-140.2-132.03-214.7-65.419-77.1-149.668-160.5-239.693-239.5-90.093-79-187.024-154.4-278.223-215.3-90.104-60.1-178.588-108.6-251.077-130.2zm818.978 714.3c11.89 46.8 6.16 67.6 1.61 75.9-3.98 7.4-13.25 16.6-39.997 24-27.269 7.5-63.828 10.6-109.902 11.5-22.598.5-46.219.4-71.18.4-24.706 0-50.586-.1-76.519.6-99.228 2.3-219.547 13-301.893 85.8-88.406 78.2-114.161 208-73.647 398.5l117.376-25c-37.114-174.5-4.151-248.3 35.772-283.6 45.982-40.7 123.602-53.4 225.187-55.8 24.271-.5 48.774-.5 73.588-.5 24.559 0 49.596.1 73.749-.4 47.428-1 96.748-4.1 139.396-15.8 43.17-12 87.84-35.2 113.5-82.4 25.09-46.1 24.7-102 9.28-162.8zm-671.528 596.7c20.402 95.9 8.715 68 157.918 675.8l116.54-28.6c-148.798-606.2-136.825-576.9-157.082-672.2zm157.918 675.8c8.46 34.5 30.556 61.4 52.72 81.7 22.646 20.8 50.52 39.3 78.929 55.9 54.203 31.7 128.135 66.1 182.476 95.1 61.037 32.5 102.394 60.6 120.758 85.7 7.761 10.7 8.316 16.7 8.057 20.1-.308 4-2.651 14.6-18.783 32.6l89.223 80.2c27.56-30.6 46.27-65.2 49.21-103.7 2.99-39.1-11.01-72.8-30.77-99.9-36.682-50.3-102.223-89.4-161.224-120.9-65.699-35-124.945-61.5-178.345-92.8-25.391-14.8-44.924-28.3-58.451-40.7-14.01-12.9-16.854-20.2-17.26-21.9zm424.157 371.1c-26.192 29.1-71.269 62.6-129.945 99.5-57.808 36.4-123.717 73.2-189.169 110.2-64.427 36.5-128.881 73.5-179.992 108.9-25.607 17.7-49.399 36.1-68.789 54.8-18.652 18.1-37.394 40.4-47.217 66.8l112.45 41.8c.667-1.7 4.638-9.2 18.204-22.3 12.829-12.5 30.76-26.6 53.664-42.5 45.911-31.8 105.627-66.2 170.776-103.1 64.124-36.2 133.194-74.7 194.028-113 59.965-37.8 117.19-78.6 155.213-120.9z" fill="url(#c)"/><g fill="#fff"><g fill-opacity=".8"><path d="m546.166 15839.8 10.396-5 46.517 37-10.846 4.3z"/><path d="m529.215 15848.1 10.396-5 46.517 37-10.846 4.3z"/><path d="m512.264 15856.4 10.397-5 46.516 37.1-10.846 4.2z"/><path d="m487.516 15868.4 10.396-5 46.516 37.1-10.846 4.2z"/><path d="m470.565 15876.7 10.396-4.9 46.517 37-10.846 4.2z"/><path d="m453.614 15885 10.396-4.9 46.517 37-10.846 4.2z"/></g><path d="m549.104 15996.3 4.7-2.8-30.464-18.3-5.255 2.1z" fill-opacity=".2"/></g><path d="m545.333 15955.2 5.078 3.1-1.307 38-5.077-3.1z" fill="#c4c4c4"/><path d="m555.111 15955.6-4.7 2.7-1.307 38 4.7-2.8z" fill="#d3c9ca"/><path d="m555.111 15955.6-4.7 2.7-5.077-3.1 4.7-2.7z" fill="#fff3f4"/><path d="m499.521 15964.6 4.7-2.7-30.464-18.3-5.256 2.1z" fill="#fff" fill-opacity=".2"/><path d="m495.75 15923.6 5.077 3-1.306 38-5.078-3z" fill="#c4c4c4"/><path d="m505.527 15923.9-4.7 2.7-1.306 38 4.7-2.7z" fill="#d3c9ca"/><path d="m505.528 15923.9-4.701 2.7-5.077-3 4.7-2.7z" fill="#fff3f4"/><path d="m598.668 16028.5 4.7-2.7-30.464-18.4-5.255 2.2z" fill="#fff" fill-opacity=".2"/><path d="m594.897 15987.5 5.078 3-1.307 38-5.077-3.1z" fill="#c4c4c4"/><path d="m604.675 15987.8-4.7 2.7-1.307 38 4.7-2.7z" fill="#d3c9ca"/><path d="m604.675 15987.8-4.7 2.7-5.077-3 4.7-2.8z" fill="#fff3f4"/><path d="m805.185 15997.6 4.834-2.5-27.924-21.1-4.809 2.1z" fill="#fff" fill-opacity=".2"/><path d="m803.53 15956.5 4.914 3.3-3.259 37.8-4.913-3.3z" fill="#c4c4c4"/><path d="m813.278 15957.3-4.834 2.5-3.258 37.8 4.834-2.5z" fill="#d3c9ca"/><path d="m813.278 15957.3-4.834 2.5-4.913-3.3 4.833-2.5z" fill="#fff3f4"/><path d="m850.911 16036.8 5.145-2.7-25.714-16.7-6.006 2.7z" fill="#fff" fill-opacity=".2"/><path d="m849.255 15995.6 4.914 3.3-3.258 37.9-4.914-3.3z" fill="#c4c4c4"/><path d="m859.002 15996.5-4.833 2.4-3.259 37.9 4.834-2.5z" fill="#d3c9ca"/><path d="m859.002 15996.5-4.833 2.4-4.914-3.3 4.834-2.4z" fill="#fff3f4"/><path d="m892.356 16085.4 4.858-2.8-28.205-14.5-5.98 2.4z" fill="#fff" fill-opacity=".2"/><path d="m890.701 16044.3 4.913 3.3-3.258 37.8-4.914-3.3z" fill="#c4c4c4"/><path d="m900.448 16045.1-4.834 2.5-3.258 37.8 4.834-2.5z" fill="#d3c9ca"/><path d="m900.448 16045.1-4.834 2.5-4.914-3.3 4.834-2.5z" fill="#fff3f4"/><path d="m931.045 16145.9 4.547-2.5-26.011-13.2-5.98 2.4z" fill="#fff" fill-opacity=".2"/><path d="m929.389 16104.8 4.914 3.3-3.259 37.8-4.913-3.3z" fill="#c4c4c4"/><path d="m939.136 16105.6-4.834 2.5-3.258 37.8 4.834-2.4z" fill="#d3c9ca"/><path d="m939.136 16105.6-4.834 2.5-4.913-3.3 4.834-2.5z" fill="#fff3f4"/><path d="m780.158 13701.3 4.466-2.9-27.848-15.5-4.466 2.6z" fill="#fff" fill-opacity=".2"/><path d="m775.692 13664 4.729 2.6v34.7l-4.729-2.7z" fill="#c4c4c4"/><path d="m784.624 13664-4.203 2.6v34.7l4.203-2.7z" fill="#d3c9ca"/><path d="m784.624 13664-4.203 2.6-4.729-2.6 4.203-2.7z" fill="#fff3f4"/><path d="m733.656 13673.7 4.729-2.7-28.636-14.4-4.992 2.4z" fill="#fff" fill-opacity=".2"/><path d="m729.453 13636.6 4.729 2.7v34.6l-4.729-2.6z" fill="#c4c4c4"/><path d="m738.385 13636.6-4.203 2.7v34.6l4.203-2.6z" fill="#d3c9ca"/><path d="m738.385 13636.6-4.203 2.7-4.729-2.7 4.203-2.6z" fill="#fff3f4"/><path d="m826.66 13729.1 4.204-2.6-28.112-15.8-3.94 2.6z" fill="#fff" fill-opacity=".2"/><path d="m821.931 13691.8 4.729 2.6v34.7l-4.729-2.6z" fill="#c4c4c4"/><path d="m830.864 13691.8-4.204 2.6v34.7l4.204-2.6z" fill="#d3c9ca"/><path d="m830.864 13691.8-4.204 2.6-4.729-2.6 4.204-2.6z" fill="#fff3f4"/><path d="m872.899 13755.4 4.204-2.6-27.323-15.6-4.729 2.4z" fill="#fff" fill-opacity=".2"/><path d="m868.17 13718.1 4.729 2.6v34.7l-4.729-2.6z" fill="#c4c4c4"/><path d="m877.103 13718.1-4.204 2.6v34.7l4.204-2.6z" fill="#d3c9ca"/><path d="m877.103 13718.1-4.204 2.6-4.729-2.6 4.204-2.7z" fill="#fff3f4"/><path d="m505.088 13706.5 4.203-2.6-27.585-15.3-4.729 2.1z" fill="#fff" fill-opacity=".2"/><path d="m500.359 13669.2 4.729 2.6v34.7l-4.729-2.6z" fill="#c4c4c4"/><path d="m509.291 13669.2-4.203 2.6v34.7l4.203-2.6z" fill="#d3c9ca"/><path d="m509.291 13669.2-4.203 2.6-4.729-2.6 4.203-2.6z" fill="#fff3f4"/><path d="m551.327 13732.8 4.204-2.6-27.323-15.5-4.729 2.1z" fill="#fff" fill-opacity=".2"/><path d="m546.598 13695.5 4.729 2.6v34.7l-4.729-2.6z" fill="#c4c4c4"/><path d="m555.531 13695.5-4.204 2.6v34.7l4.204-2.6z" fill="#d3c9ca"/><path d="m555.531 13695.5-4.204 2.6-4.729-2.6 4.204-2.7z" fill="#fff3f4"/><path d="m458.849 13685.5 4.203-2.6-27.323-15.3-4.729 2.1z" fill="#fff" fill-opacity=".2"/><path d="m454.12 13648.2 4.729 2.6v34.7l-4.729-2.6z" fill="#c4c4c4"/><path d="m463.052 13648.2-4.203 2.6v34.7l4.203-2.6z" fill="#d3c9ca"/><path d="m463.052 13648.2-4.203 2.6-4.729-2.6 4.203-2.6z" fill="#fff3f4"/><path d="m597.566 13758 4.203-2.6-27.323-15.8-4.729 2.4z" fill="#fff" fill-opacity=".2"/><path d="m592.837 13720.7 4.729 2.6v34.7l-4.729-2.6z" fill="#c4c4c4"/><path d="m601.769 13720.7-4.203 2.6v34.7l4.203-2.6z" fill="#d3c9ca"/><path d="m601.769 13720.7-4.203 2.6-4.729-2.6 4.203-2.6z" fill="#fff3f4"/><path d="m918.087 13742.8 4.729 2.6v34.7l-4.729-2.7z" fill="#c4c4c4"/><path d="m927.02 13742.8-4.204 2.6v34.7l4.204-2.7z" fill="#d3c9ca"/><path d="m927.021 13742.8-4.204 2.6-4.729-2.6 4.204-2.7z" fill="#fff3f4"/><path d="m719.12 11159.8 9.11-.9-29.261-17.6-4.969 3z" fill="#fff" fill-opacity=".2"/><path d="m718.568 11122.8 4.969 2.7v36.5l-4.969-2.8z" fill="#c4c4c4"/><path d="m727.954 11122.8-4.417 2.7v36.5l4.417-2.8z" fill="#d3c9ca"/><path d="m727.954 11122.8-4.417 2.7-4.969-2.7 4.417-2.8z" fill="#fff3f4"/><path d="m767.429 11190.4 9.109-.8-28.985-16.3-4.969 2.7z" fill="#fff" fill-opacity=".2"/><path d="m767.153 11153.7 4.969 2.7v36.5l-4.969-2.8z" fill="#c4c4c4"/><path d="m776.538 11153.7-4.416 2.7v36.5l4.416-2.8z" fill="#d3c9ca"/><path d="m776.538 11153.7-4.416 2.7-4.969-2.7 4.417-2.8z" fill="#fff3f4"/><path d="m816.013 11222.4 9.11-.8-28.709-15.7-5.521 2.7z" fill="#fff" fill-opacity=".2"/><path d="m815.737 11186.3 4.969 2.7v36.5l-4.969-2.8z" fill="#c4c4c4"/><path d="m825.122 11186.3-4.416 2.7v36.5l4.416-2.8z" fill="#d3c9ca"/><path d="m825.122 11186.3-4.416 2.7-4.969-2.7 4.417-2.8z" fill="#fff3f4"/><path d="m864.322 11251.4h9.385l-30.917-17.4-4.693 3.3z" fill="#fff" fill-opacity=".2"/><path d="m864.322 11215 4.969 2.7v36.5l-4.969-2.8z" fill="#c4c4c4"/><path d="m873.707 11215-4.416 2.7v36.5l4.416-2.8z" fill="#d3c9ca"/><path d="m873.707 11215-4.416 2.7-4.969-2.7 4.417-2.8z" fill="#fff3f4"/><path d="m912.906 11280.7h9.386l-30.918-17.2-4.692 3.1z" fill="#fff" fill-opacity=".2"/><path d="m912.906 11244.2 4.969 2.8v36.4l-4.969-2.7z" fill="#c4c4c4"/><path d="m922.292 11244.2-4.417 2.8v36.4l4.417-2.7z" fill="#d3c9ca"/><path d="m922.292 11244.2-4.417 2.8-4.969-2.8 4.417-2.7z" fill="#fff3f4"/><g fill="#fff"><g fill-opacity=".8"><path d="m790.059 11238 9.022-6.3 50.02 27.4-9.558 5.8z"/><path d="m775.391 11248.6 9.022-6.3 50.019 27.4-9.557 5.8z"/><path d="m760.723 11259.3 9.021-6.4 50.02 27.4-9.558 5.8z"/><path d="m739.287 11274.7 9.022-6.4 50.02 27.4-9.558 5.8z"/><path d="m724.619 11285.3 9.022-6.4 50.019 27.4-9.557 5.8z"/><path d="m709.951 11295.9 9.021-6.4 50.02 27.4-9.558 5.8z"/></g><path d="m726.297 11335.9h9.386l-30.917-19.4-4.693 3.4z" fill-opacity=".2"/></g><path d="m726.297 11299.4 4.969 2.8v36.4l-4.969-2.7z" fill="#c4c4c4"/><path d="m735.683 11299.4-4.417 2.8v36.4l4.417-2.7z" fill="#d3c9ca"/><path d="m735.683 11299.4-4.417 2.8-4.969-2.8 4.417-2.7z" fill="#fff3f4"/><path d="m774.882 11365.1h9.386l-31.47-18.7-4.417 3z" fill="#fff" fill-opacity=".2"/><path d="m774.882 11328.7 4.969 2.8v36.4l-4.969-2.8z" fill="#c4c4c4"/><path d="m784.267 11328.7-4.416 2.8v36.4l4.416-2.8z" fill="#d3c9ca"/><path d="m784.267 11328.7-4.416 2.8-4.969-2.8 4.417-2.8z" fill="#fff3f4"/><path d="m1003.06 2236.2h-12.846v-.9h12.006v-6.12h.84zm-6.438-20.05c2.039 0 3.648.51 4.838 1.53s1.78 2.43 1.78 4.22-.59 3.19-1.78 4.21-2.805 1.53-4.856 1.53c-2.045 0-3.653-.51-4.825-1.54-1.178-1.03-1.767-2.44-1.767-4.22 0-1.79.592-3.19 1.776-4.21 1.177-1.01 2.789-1.52 4.834-1.52zm0 10.51c1.839 0 3.263-.41 4.268-1.23 1.01-.82 1.51-2 1.51-3.53 0-1.55-.5-2.73-1.5-3.54-.994-.82-2.421-1.23-4.278-1.23-1.852 0-3.27.41-4.254 1.23-.991.81-1.486 1.99-1.486 3.52s.498 2.71 1.494 3.54c.997.83 2.412 1.24 4.246 1.24zm-.036-18.52v-4.74h5.864c.53 1.24.79 2.64.79 4.19 0 2.03-.57 3.58-1.71 4.67-1.15 1.08-2.776 1.61-4.873 1.61-1.307 0-2.464-.26-3.472-.79-1.014-.54-1.796-1.31-2.347-2.31-.55-1-.826-2.15-.826-3.44 0-1.4.258-2.66.774-3.77l.808.36c-.515 1.11-.773 2.26-.773 3.46 0 1.69.524 3.04 1.573 4.03 1.043.99 2.452 1.49 4.228 1.49 1.933 0 3.388-.47 4.368-1.42.97-.94 1.46-2.32 1.46-4.15 0-1.19-.17-2.19-.5-3.02h-4.52v3.83zm6.474-7.98h-12.846v-.89h12.846zm0-13.87v.9l-11.404 7.61v.07c1.359-.07 2.385-.1 3.076-.1h8.328v.86h-12.846v-.9l11.386-7.6v-.05c-1.05.05-2.052.08-3.001.08h-8.385v-.87z" fill="#fff"/><path d="m723.198 2104.96 4.141-2.76-30.089-15.18-4.417 2.48z" fill="#fff" fill-opacity=".2"/><path d="m717.954 2065.76 4.968 2.76v36.44l-4.968-2.76z" fill="#c4c4c4"/><path d="m727.339 2065.76-4.417 2.76v36.44l4.417-2.76z" fill="#d3c9ca"/><path d="m727.339 2065.76-4.417 2.76-4.968-2.76 4.416-2.76z" fill="#fff3f4"/><path d="m772.059 2126.77 4.14-2.76-30.089-15.19-4.417 2.49z" fill="#fff" fill-opacity=".2"/><path d="m766.538 2087.84 4.968 2.77v36.43l-4.968-2.76z" fill="#c4c4c4"/><path d="m775.924 2087.84-4.417 2.77v36.43l4.417-2.76z" fill="#d3c9ca"/><path d="m775.923 2087.84-4.417 2.76-4.968-2.76 4.416-2.76z" fill="#fff3f4"/><path d="m820.644 2148.85 4.14-2.76-30.089-15.18-4.417 2.48z" fill="#fff" fill-opacity=".2"/><path d="m815.123 2109.93 4.968 2.76v36.44l-4.968-2.76z" fill="#c4c4c4"/><path d="m824.508 2109.93-4.417 2.76v36.44l4.417-2.76z" fill="#d3c9ca"/><path d="m824.508 2109.93-4.417 2.76-4.968-2.76 4.416-2.76z" fill="#fff3f4"/><path d="m869.228 2170.93 4.14-2.76-30.089-15.18-4.417 2.49z" fill="#fff" fill-opacity=".2"/><path d="m863.707 2132.01 4.968 2.76v36.44l-4.968-2.76z" fill="#c4c4c4"/><path d="m873.093 2132.01-4.417 2.76v36.44l4.417-2.76z" fill="#d3c9ca"/><path d="m873.092 2132.01-4.417 2.76-4.968-2.76 4.416-2.76z" fill="#fff3f4"/><path d="m917.26 2193.02 4.141-2.76-30.089-15.18-4.417 2.48z" fill="#fff" fill-opacity=".2"/><path d="m912.292 2154.1 4.968 2.76v36.44l-4.968-2.77z" fill="#c4c4c4"/><path d="m921.677 2154.1-4.417 2.76v36.44l4.417-2.77z" fill="#d3c9ca"/><path d="m921.677 2154.1-4.417 2.76-4.968-2.76 4.416-2.76z" fill="#fff3f4"/><path d="m899.593 2877.62 4.141-2.76-30.089-15.19-4.417 2.49z" fill="#fff" fill-opacity=".2"/><path d="m895.177 2838.7 4.969 2.76v36.43l-4.969-2.76z" fill="#c4c4c4"/><path d="m904.562 2838.7-4.416 2.76v36.43l4.416-2.76z" fill="#d3c9ca"/><path d="m904.562 2838.69-4.416 2.77-4.969-2.77 4.417-2.76z" fill="#fff3f4"/><path d="m811.81 2856.64 4.14-2.76-30.089-15.18-4.417 2.48z" fill="#fff" fill-opacity=".2"/><path d="m806.289 2817.72 4.968 2.76v36.43l-4.968-2.76z" fill="#c4c4c4"/><path d="m815.674 2817.72-4.417 2.76v36.43l4.417-2.76z" fill="#d3c9ca"/><path d="m815.674 2817.72-4.417 2.76-4.968-2.76 4.416-2.76z" fill="#fff3f4"/><path d="m965.844 2215.1 4.141-2.76-30.089-15.18-4.417 2.48z" fill="#fff" fill-opacity=".2"/><path d="m960.875 2176.18 4.969 2.76v36.44l-4.969-2.76z" fill="#c4c4c4"/><path d="m970.261 2176.18-4.417 2.76v36.44l4.417-2.76z" fill="#d3c9ca"/><path d="m970.261 2176.18-4.417 2.76-4.969-2.76 4.417-2.76z" fill="#fff3f4"/><path d="m510.089 2166.79 4.417-3.31-29.261-16.56-5.245 3.03z" fill="#fff" fill-opacity=".2"/><path d="m504.844 2127.6 4.969 2.76v36.43l-4.969-2.76z" fill="#c4c4c4"/><path d="m514.23 2127.6-4.417 2.76v36.43l4.417-2.76z" fill="#d3c9ca"/><path d="m514.23 2127.59-4.417 2.77-4.969-2.77 4.417-2.76z" fill="#fff3f4"/><path d="m558.122 2188.6 4.968-2.76-29.261-16.56-5.245 3.03z" fill="#fff" fill-opacity=".2"/><path d="m553.429 2149.68 4.969 2.76v36.44l-4.969-2.76z" fill="#c4c4c4"/><path d="m562.814 2149.68-4.417 2.76v36.44l4.417-2.76z" fill="#d3c9ca"/><path d="m562.814 2149.68-4.416 2.76-4.969-2.76 4.416-2.76z" fill="#fff3f4"/><path d="m606.982 2211.51 4.693-3.03-29.537-17.67-4.969 3.31z" fill="#fff" fill-opacity=".2"/><path d="m602.013 2172.31 4.969 2.77v36.43l-4.969-2.76z" fill="#c4c4c4"/><path d="m611.399 2172.31-4.417 2.77v36.43l4.417-2.76z" fill="#d3c9ca"/><path d="m611.399 2172.31-4.417 2.77-4.969-2.77 4.417-2.76z" fill="#fff3f4"/><path d="m655.566 2233.32 4.141-2.76-30.089-15.18-4.417 2.48z" fill="#fff" fill-opacity=".2"/><path d="m650.598 2194.4 4.969 2.76v36.44l-4.969-2.76z" fill="#c4c4c4"/><path d="m659.983 2194.4-4.417 2.76v36.44l4.417-2.76z" fill="#d3c9ca"/><path d="m659.983 2194.4-4.416 2.76-4.969-2.76 4.416-2.76z" fill="#fff3f4"/><g fill="#fff"><path d="m764.882 2163.48 8.833-6.62 50.793 25.95-9.385 6.07z" fill-opacity=".8"/><path d="m750.527 2174.52 8.833-6.62 50.793 25.95-9.385 6.07z" fill-opacity=".8"/><path d="m736.172 2185.57 8.834-6.63 50.793 25.95-9.386 6.07z" fill-opacity=".8"/><path d="m715.193 2201.58 8.833-6.63 50.793 25.95-9.385 6.07z" fill-opacity=".8"/><path d="m700.838 2212.62 8.834-6.63 50.793 25.95-9.386 6.08z" fill-opacity=".8"/><path d="m686.484 2223.66 8.833-6.62 50.793 25.94-9.385 6.08z" fill-opacity=".8"/><path d="m573.053 8804.49 4.693-2.76-31.745-14.08-4.417 2.48z" fill-opacity=".2"/></g><path d="m568.085 8765.56 4.969 2.76v36.44l-4.969-2.76z" fill="#c4c4c4"/><path d="m577.47 8765.56-4.416 2.76v36.44l4.416-2.76z" fill="#d3c9ca"/><path d="m577.471 8765.56-4.417 2.76-4.969-2.76 4.417-2.76z" fill="#fff3f4"/><path d="m545.449 8950.17 4.693-2.76-31.746-14.08-4.417 2.48z" fill="#fff" fill-opacity=".2"/><path d="m540.48 8911.24 4.969 2.76v36.44l-4.969-2.76z" fill="#c4c4c4"/><path d="m549.866 8911.24-4.417 2.76v36.44l4.417-2.76z" fill="#d3c9ca"/><path d="m549.866 8911.24-4.417 2.76-4.969-2.76 4.417-2.76z" fill="#fff3f4"/><path d="m594.586 8962.31 4.693-2.76-31.746-14.08-4.417 2.49z" fill="#fff" fill-opacity=".2"/><path d="m589.065 8923.39 4.969 2.76v36.44l-4.969-2.76z" fill="#c4c4c4"/><path d="m598.45 8923.39-4.417 2.76v36.44l4.417-2.76z" fill="#d3c9ca"/><path d="m598.451 8923.39-4.417 2.76-4.969-2.76 4.417-2.76z" fill="#fff3f4"/><path d="m642.342 8975.84 4.693-2.76-31.746-14.08-4.416 2.48z" fill="#fff" fill-opacity=".2"/><path d="m637.649 8936.64 4.969 2.76v36.44l-4.969-2.76z" fill="#c4c4c4"/><path d="m647.035 8936.64-4.417 2.76v36.44l4.417-2.76z" fill="#d3c9ca"/><path d="m647.035 8936.64-4.417 2.76-4.969-2.76 4.417-2.76z" fill="#fff3f4"/><path d="m690.926 8995.16 4.693-2.76-30.365-14.35-4.417 2.48z" fill="#fff" fill-opacity=".2"/><path d="m686.233 8955.96 4.969 2.76v36.44l-4.969-2.76z" fill="#c4c4c4"/><path d="m695.619 8955.96-4.417 2.76v36.44l4.417-2.76z" fill="#d3c9ca"/><path d="m695.619 8955.96-4.417 2.76-4.969-2.76 4.417-2.76z" fill="#fff3f4"/><path d="m734.818 9014.49h9.386l-29.261-14.91-4.417 2.48z" fill="#fff" fill-opacity=".2"/><path d="m734.818 8978.05 4.969 2.76v36.44l-4.969-2.76z" fill="#c4c4c4"/><path d="m744.204 8978.05-4.417 2.76v36.44l4.417-2.76z" fill="#d3c9ca"/><path d="m744.204 8978.05-4.417 2.76-4.969-2.76 4.417-2.76z" fill="#fff3f4"/><path d="m783.403 9041.54h9.386l-28.157-17.12-4.417 2.49z" fill="#fff" fill-opacity=".2"/><path d="m783.403 9005.1 4.969 2.76v36.44l-4.969-2.76z" fill="#c4c4c4"/><path d="m792.788 9005.1-4.416 2.76v36.44l4.416-2.76z" fill="#d3c9ca"/><path d="m792.788 9005.1-4.416 2.76-4.969-2.76 4.417-2.76z" fill="#fff3f4"/><path d="m860.144 8920.63h9.386l-28.157-17.12-4.417 2.49z" fill="#fff" fill-opacity=".2"/><path d="m860.144 8884.19 4.969 2.76v36.44l-4.969-2.76z" fill="#c4c4c4"/><path d="m869.53 8884.19-4.417 2.76v36.44l4.417-2.76z" fill="#d3c9ca"/><path d="m869.53 8884.19-4.417 2.76-4.969-2.76 4.417-2.76z" fill="#fff3f4"/><path d="m910.385 8945.47h9.385l-28.156-17.39-4.417 2.76z" fill="#fff" fill-opacity=".2"/><path d="m910.385 8909.04 4.969 2.76v36.43l-4.969-2.76z" fill="#c4c4c4"/><path d="m919.77 8909.04-4.416 2.76v36.43l4.416-2.76z" fill="#d3c9ca"/><path d="m919.77 8909.04-4.416 2.76-4.969-2.76 4.417-2.77z" fill="#fff3f4"/><path d="m488.243 4578.36h9.386l-28.709-16.01-4.969 2.76z" fill="#fff" fill-opacity=".2"/><path d="m488.243 4541.92 4.969 2.76v36.44l-4.969-2.76z" fill="#c4c4c4"/><path d="m497.629 4541.92-4.417 2.76v36.44l4.417-2.76z" fill="#d3c9ca"/><path d="m497.629 4541.92-4.417 2.76-4.969-2.76 4.417-2.76z" fill="#fff3f4"/><path d="m536.828 4600.44h9.386l-28.709-16.01-4.969 2.76z" fill="#fff" fill-opacity=".2"/><path d="m536.828 4564 4.969 2.76v36.44l-4.969-2.76z" fill="#c4c4c4"/><path d="m546.214 4564-4.417 2.76v36.44l4.417-2.76z" fill="#d3c9ca"/><path d="m546.214 4564-4.417 2.76-4.969-2.76 4.417-2.76z" fill="#fff3f4"/><path d="m585.412 4622.52h9.11l-29.261-16.28-5.521 2.76z" fill="#fff" fill-opacity=".2"/><path d="m585.412 4586.09 4.969 2.76v36.43l-4.969-2.76z" fill="#c4c4c4"/><path d="m594.798 4586.09-4.417 2.76v36.43l4.417-2.76z" fill="#d3c9ca"/><path d="m594.798 4586.09-4.417 2.76-4.969-2.76 4.417-2.77z" fill="#fff3f4"/><path d="m776.438 4552.96 4.417-2.76-28.433-17.94-4.417 2.48z" fill="#fff" fill-opacity=".2"/><path d="m771.469 4513.76 4.969 2.76v36.44l-4.969-2.76z" fill="#c4c4c4"/><path d="m780.855 4513.76-4.417 2.76v36.44l4.417-2.76z" fill="#d3c9ca"/><path d="m780.854 4513.76-4.416 2.76-4.969-2.76 4.417-2.76z" fill="#fff3f4"/><path d="m823.366 4586.64 4.693-3.04-25.949-13.8-5.521 3.03z" fill="#fff" fill-opacity=".2"/><path d="m818.397 4547.44 4.969 2.76v36.44l-4.969-2.76z" fill="#c4c4c4"/><path d="m827.783 4547.44-4.417 2.76v36.44l4.417-2.76z" fill="#d3c9ca"/><path d="m827.783 4547.44-4.417 2.76-4.969-2.76 4.417-2.76z" fill="#fff3f4"/><path d="m866.982 4629.7 4.417-3.04-28.157-11.59-5.521 2.76z" fill="#fff" fill-opacity=".2"/><path d="m862.013 4590.5 4.969 2.76v36.44l-4.969-2.76z" fill="#c4c4c4"/><path d="m871.399 4590.5-4.417 2.76v36.44l4.417-2.76z" fill="#d3c9ca"/><path d="m871.399 4590.5-4.417 2.76-4.969-2.76 4.417-2.76z" fill="#fff3f4"/><path d="m908.941 4684.36 4.141-2.76-25.949-10.49-5.521 2.76z" fill="#fff" fill-opacity=".2"/><path d="m903.972 4645.16 4.969 2.76v36.44l-4.969-2.76z" fill="#c4c4c4"/><path d="m913.358 4645.16-4.417 2.76v36.44l4.417-2.76z" fill="#d3c9ca"/><path d="m913.358 4645.16-4.417 2.76-4.969-2.76 4.417-2.76z" fill="#fff3f4"/><path d="m811.863 6217.9 8.833-6.62 50.793 25.95-9.385 6.07z" fill="#fff" fill-opacity=".8"/><path d="m797.508 6228.94 8.833-6.62 50.793 25.95-9.385 6.07z" fill="#fff" fill-opacity=".8"/><path d="m783.153 6239.99 8.834-6.63 50.793 25.95-9.386 6.07z" fill="#fff" fill-opacity=".8"/><path d="m762.174 6256 8.833-6.63 50.793 25.95-9.385 6.07z" fill="#fff" fill-opacity=".8"/><path d="m747.819 6267.04 8.834-6.63 50.793 25.95-9.386 6.07z" fill="#fff" fill-opacity=".8"/><path d="m733.465 6278.08 8.833-6.62 50.793 25.94-9.385 6.08z" fill="#fff" fill-opacity=".8"/><path d="m744.231 6146.41 4.417-2.77-28.985-16.83-4.417 2.48z" fill="#fff" fill-opacity=".2"/><path d="m739.539 6107.49 4.968 2.76v36.43l-4.968-2.76z" fill="#c4c4c4"/><path d="m748.924 6107.49-4.417 2.76v36.43l4.417-2.76z" fill="#d3c9ca"/><path d="m748.924 6107.49-4.417 2.76-4.968-2.76 4.416-2.76z" fill="#fff3f4"/><path d="m651.479 6056.41 4.417-2.76-28.709-18.22.552 5.8z" fill="#fff" fill-opacity=".2"/><path d="m646.786 6017.49 4.969 2.76v36.44l-4.969-2.76z" fill="#c4c4c4"/><path d="m656.171 6017.49-4.417 2.76v36.44l4.417-2.76z" fill="#d3c9ca"/><path d="m656.172 6017.49-4.417 2.76-4.969-2.76 4.417-2.76z" fill="#fff3f4"/><path d="m792.815 6173.46 4.417-2.76-28.985-16.84-4.417 2.48z" fill="#fff" fill-opacity=".2"/><path d="m788.122 6134.54 4.969 2.76v36.44l-4.969-2.76z" fill="#c4c4c4"/><path d="m797.508 6134.54-4.417 2.76v36.44l4.417-2.76z" fill="#d3c9ca"/><path d="m797.508 6134.54-4.417 2.76-4.969-2.76 4.417-2.76z" fill="#fff3f4"/><path d="m802.201 6370 4.417-2.76-28.985-16.84-4.417 2.49z" fill="#fff" fill-opacity=".2"/><path d="m797.508 6331.08 4.969 2.76v36.44l-4.969-2.76z" fill="#c4c4c4"/><path d="m806.893 6331.08-4.416 2.76v36.44l4.416-2.76z" fill="#d3c9ca"/><path d="m806.894 6331.08-4.417 2.76-4.969-2.76 4.417-2.76z" fill="#fff3f4"/><path d="m850.785 6399.82 4.417-2.76-28.985-16.84-4.417 2.48z" fill="#fff" fill-opacity=".2"/><path d="m846.093 6360.89 4.969 2.77v36.43l-4.969-2.76z" fill="#c4c4c4"/><path d="m855.478 6360.89-4.416 2.77v36.43l4.416-2.76z" fill="#d3c9ca"/><path d="m855.478 6360.89-4.416 2.77-4.969-2.77 4.417-2.76z" fill="#fff3f4"/><path d="m740.09 6965.99h8.834l-28.157-17.11-4.417 2.48z" fill="#fff" fill-opacity=".2"/><path d="m740.09 6929.55 4.969 2.76v36.44l-4.969-2.76z" fill="#c4c4c4"/><path d="m749.476 6929.55-4.417 2.76v36.44l4.417-2.76z" fill="#d3c9ca"/><path d="m749.476 6929.55-4.417 2.76-4.969-2.76 4.417-2.76z" fill="#fff3f4"/><path d="m476.188 6866.61h9.386l-28.157-17.11-4.417 2.48z" fill="#fff" fill-opacity=".2"/><path d="m476.188 6832.22 4.969 2.6v34.28l-4.969-2.6z" fill="#c4c4c4"/><path d="m485.574 6832.22-4.417 2.6v34.28l4.417-2.6z" fill="#d3c9ca"/><path d="m485.574 6832.22-4.417 2.6-4.969-2.6 4.417-2.6z" fill="#fff3f4"/><path d="m789.226 6954.4h8.834l-28.157-17.12-4.417 2.49z" fill="#fff" fill-opacity=".2"/><path d="m788.674 6917.96 4.969 2.76v36.44l-4.969-2.76z" fill="#c4c4c4"/><path d="m798.06 6917.96-4.417 2.76v36.44l4.417-2.76z" fill="#d3c9ca"/><path d="m798.06 6917.96-4.417 2.76-4.969-2.76 4.417-2.76z" fill="#fff3f4"/><path d="m1096.74 6543.91h9.67l-28.99-16.83-4.42 2.48z" fill="#fff" fill-opacity=".2"/><path d="m1096.74 6507.75 4.97 2.76v36.44l-4.97-2.76z" fill="#c4c4c4"/><path d="m1106.13 6507.75-4.42 2.76v36.44l4.42-2.76z" fill="#d3c9ca"/><path d="m1106.13 6507.75-4.42 2.76-4.97-2.76 4.42-2.76z" fill="#fff3f4"/><path d="m1145.33 6584.49h9.38l-28.7-17.11-4.42 2.48z" fill="#fff" fill-opacity=".2"/><path d="m1145.33 6548.06 4.97 2.76v36.43l-4.97-2.76z" fill="#c4c4c4"/><path d="m1154.71 6548.06-4.41 2.76v36.43l4.41-2.76z" fill="#d3c9ca"/><path d="m1154.71 6548.06-4.41 2.76-4.97-2.76 4.42-2.77z" fill="#fff3f4"/></svg>