<svg fill="none" height="186" viewBox="0 0 157 186" width="157" xmlns="http://www.w3.org/2000/svg" xmlns:xlink="http://www.w3.org/1999/xlink"><linearGradient id="a" gradientUnits="userSpaceOnUse" x1="146.69" x2="73.0212" y1="150.385" y2="15.8593"><stop offset="0" stop-color="#ffcb59"/><stop offset=".0791" stop-color="#f5cc5e"/><stop offset=".213" stop-color="#dbce6d"/><stop offset=".3854" stop-color="#afd185"/><stop offset=".5897" stop-color="#73d5a6"/><stop offset=".8181" stop-color="#27dbd0"/><stop offset=".9291" stop-color="#00dee6"/></linearGradient><linearGradient id="b" gradientUnits="userSpaceOnUse" x1="55.1714" x2="163.68" y1="48.8827" y2="91.8131"><stop offset="0" stop-color="#58b062"/><stop offset=".1768" stop-color="#4eaf6b"/><stop offset=".4757" stop-color="#34ae82"/><stop offset=".8583" stop-color="#09aba8"/><stop offset=".9291" stop-color="#00aab0"/></linearGradient><path d="m0 129.544 62.9597-36.4197 55.3993 33.0677-63.2132 34.763z" fill="#fff" fill-opacity=".2"/><path d="m80.9255 174.985-26.5986-14.225v-5.748l26.5986 14.225z" fill="#c5bfd6"/><path d="m80.7701 125.387h76.2299v6.831l-76.2299 43.21z" fill="#fff"/><path d="m54.3459 155.012 82.0561-41.291 20.207 11.769-75.684 43.747z" fill="#ebe9f2"/><path d="m83.5182 43.9795 2.5721 1.442v99.2625l-2.5721-1.442z" fill="#bda77b"/><path d="m86.0911 45.4219 29.9889-17.2647v99.2428l-29.9889 17.284z" fill="#9c7b3a"/><path d="m90.0073 49.7483 22.0777-12.3347v46.9031l-22.0777 12.3347z" fill="url(#a)"/><path d="m107.623 39.9078v42.0511l-17.6157 9.821v4.8715l22.0777-12.3347v-46.9031z" fill="url(#b)"/><path d="m111.033 38.0176v45.695l-21.0257 11.7307v1.2081l22.0777-12.3347v-46.9031z" fill="#dcc89e"/><path d="m90.0073 100.08 22.0777-12.3346v34.0816l-22.0777 12.334z" fill="#85672d"/><path d="m111.033 88.3494v32.8736l-21.0257 11.73v1.208l22.0777-12.334v-34.0816z" fill="#dcc89e"/><path d="m113.488 26.7151 2.591 1.442-29.9887 17.2647-2.5721-1.442z" fill="#dcc89e"/><path d="m111.033 38.0176v45.695l1.052.6041v-46.9031z" fill="#bda77b"/><path d="m111.033 88.3494v32.8736l1.052.604v-34.0816z" fill="#bda77b"/><path d="m88.7394 89.0517v6.6837l-.2728 4.7546c0 .312-.1754.604-.4482.779l-1.0133.585-.3118.175-.1948.117c-.1169.059-.2339.059-.3313.02l-.0389-.02c-.0975-.058-.1754-.156-.1754-.292l-.2728-2.4942v-8.6128c0-.3313.1754-.6431.4482-.8185l2.046-1.1886c.1169-.078.2533-.0585.3702 0h.0195c.0975.0584.1754.1754.1754.3118z" fill="#aa992c"/><path d="m89.3228 89.4802-.5846 2.202-.0195.0974-1.7147 10.0744-.117.721-.7209-.429-.039-.019-.1559-6.6645.4871-1.403.4093-1.2082 1.4224-2.9814.2729-1.1302h.0194l.7211.721s-.0001 0 .0194.0195z" fill="#aa992c"/><path d="m89.4981 89.7724v6.3915l-.2728 4.7541c0 .312-.1754.605-.4482.78l-1.5199.877c-.1169.078-.2728.058-.3703 0-.0974-.059-.1558-.156-.1558-.292l-.0195-.254-.2533-2.2407v-8.3011c0-.3313.1753-.643.4482-.8184l1.3835-.799.4677-.2728.2143-.1169c.1169-.0584.2533-.0584.3507 0 0 0 .0195 0 .0195.0195.078.039.1559.1364.1559.2728z" fill="#e3cb44"/><path d="m86.4392 95.6177.2728 1.0133.682 5.904s-.1949.059-.3118.059c-.0584 0-.0974 0-.2143-.059-.1559-.097-.1559-.292-.1559-.292l-.2728-2.4358z" fill="#baa830"/><path d="m89.5001 89.7726v3.7023l-.76-1.7342h-.0195l-1.8706 3.2541-.4092.6236-.76-.4482v-4.4623c0-.3313.1754-.643.4482-.8184l2.046-1.1887c.1169-.0779.2533-.0584.3702 0h.0196l.7209.721s.0195 0 .0195.0195c.117.0974.1949.1949.1949.3313z" fill="#aa992c"/><path d="m85.6796 90.747 3.2152 2.1629.5846-1.5589v-1.5589c0-.1364-.0779-.2533-.1754-.3117l-.0195-.0195-.721-.721h-.0195c-.0974-.0585-.2338-.078-.3702 0l-2.046 1.1886c-.2923.1754-.4677.4872-.4482.8185z" fill="#c6b53b"/><path d="m88.2715 88.7007c-.0195 0-.039.0195-.078.0195l-2.046 1.1886c-.0585.0195-.0974.0585-.1364.0975l2.2799 1.6173.8769-2.0655z" fill="#ead84e"/><path d="m89.3228 89.4806-.0195-.0195c-.0974-.0585-.2339-.0585-.3508 0l-.2143.1169-.4676.2728-1.3836.7989c-.2923.1754-.4676.4872-.4482.8184v4.1506l3.0399-1.7538v-4.0726c.0195-.1558-.0585-.2533-.1559-.3117z" fill="#d1bc36"/><path d="m86.5363 91.4677c0-.2923.1558-.5846.4091-.721l2.0461-1.1887c.039-.0195.0779-.039.1364-.039.039 0 .078.0195.117.039l.0194.0195c.0779.039.1169.1364.1169.2143v4.0337l-2.8449 1.6563z" fill="#e3cb44"/><path d="m86.7133 100.003.2533 1.968.0195.234c0 .136.0779.233.1559.292.0974.058.2533.078.3702 0l1.481-.858c.2728-.155.4481-.448.4481-.76l.2533-2.6106v-3.3517l-2.9813 1.7148z" fill="#e3cb44"/><path d="m89.4985 93.8645.1949 1.0523-2.9814 1.7342-.2728-1.0327z" fill="#fde457"/><path d="m86.712 100.002-.2728-.1753v-4.209l.2728 1.0327z" fill="#d1bc36"/><path d="m88.8554 96.0664v.039c0 .0779-.039.1558-.117.1948l-.8574.5067c-.0584.0389-.1364 0-.1364-.078v-.039c0-.0779.039-.1559.1169-.1948l.8574-.5067c.0585-.0389.1365 0 .1365.078z" fill="#191d1e"/><path d="m88.6602 89.0713c.0585-.039.1169-.039.1949-.039l-.1364-.1364c-.078-.0195-.1754-.0195-.2728.039l-2.0461 1.1887c-.2923.1753-.4676.4871-.4481.8184v4.4233l.2143.1364v-4.4038c0-.3313.1754-.6431.4482-.8185z" fill="#aa992c"/><path d="m88.7187 88.8762c-.0975-.0195-.1949-.0195-.2728.0389l-2.0461 1.1887c-.2923.1754-.4676.4871-.4481.8184l.2143.1559c0-.3313.1754-.643.4482-.8184l2.046-1.1887c.0585-.039.1169-.039.1949-.039z" fill="#c6b53b"/><path d="m88.4856 88.8958s-.0195-.0001-.0389.0194l-2.0461 1.1887c-.039.0195-.0975.0584-.1364.0974l.2143.1559c.039-.039.078-.0779.1365-.0974l2.0265-1.1692z" fill="#ead84e"/><path d="m87.9593 99.4379-.3702-.2144c-.2144-.1364-.2728-.4676-.1754-.8574.0195-.0389.0195-.0779.039-.1169 0-.0195.0195-.0389.0195-.0389 0-.0195-.0001-.0195.0194-.039 0-.0195.0195-.0195.0195-.039.0195-.039.039-.0585.039-.0974 0-.0195.0195-.039.0195-.039.0195-.0195.0194-.0584.0389-.0779s.039-.0585.039-.078.0195-.0195.0195-.039c.0195-.0389.039-.0584.0584-.0974 0-.0195.0195-.0195.0195-.039 0-.0194.0196-.0194.0196-.0389.0194-.0195.0194-.0195.0389-.039.0195-.039.0585-.0585.0975-.0974.0195-.0195.0389-.039.0584-.039.039-.0195.0585-.0585.0974-.078.0195 0 .0195-.0194.039-.0194.0195-.0195.0585-.039.0779-.0585.0195 0 .0195-.0195.039-.0195.039-.0195.078-.039.117-.0584.0195 0 .0194 0 .0389-.0195.0195 0 .0585-.0195.078-.0195h.0584.0585.0584.0195.0195c.039 0 .0585.0195.078.039l.3702.2143c.1949.1169.2533.3702.2143.682 0 .039-.0194.078-.0194.1169 0 .0195 0 .039-.0195.0585-.039.1559-.0975.3118-.1949.4677s-.1949.2923-.3118.4092c-.2728.2728-.604.3897-.8184.2728z" fill="#c4b52f"/><path d="m88.7775 99.1649s.0194-.0195 0 0l-1.364-.8185v.0195c-.0975.3897-.039.721.1753.8574l.3703.2144c.2143.1169.5456 0 .8184-.2728z" fill="#b9ab27"/><path d="m89.1676 98.5997c.039-.0974.0974-.2143.1364-.3117 0-.0195 0-.039.0195-.0585 0-.039.0195-.0779.0195-.1169.0389-.3118-.0195-.5846-.2144-.682l-.3702-.2144c-.0195-.0195-.0585-.0195-.078-.039-.0194 0-.0195 0-.0195 0-.0194 0-.0389 0-.0584 0s-.039 0-.0585 0-.0389 0-.0584 0-.039.0195-.078.0195c-.0195 0-.0195 0-.0389.0195-.039.0195-.078.039-.117.0585-.0194 0-.0195.0195-.039.0195-.0194.0195-.0584.0389-.0779.0584-.0194 0-.0195.0195-.039.0195-.0389.0195-.0584.0585-.0974.078-.0195.0194-.0389.0389-.0584.0389-.039.039-.0585.0585-.0974.0975-.0195.0194-.0196.0194-.0391.0389 0 0-.0194.0195-.0194.039-.0195.0195-.0195.0195-.0195.039-.0195.0195-.0195.0389-.039.0584z" fill="#e8d946"/><path d="m89.3034 97.9755c0-.2338-.0585-.4482-.2144-.5261l-.3702-.2144c-.0195-.0195-.0585-.0195-.078-.039-.0194 0-.0194 0-.0194 0-.0195 0-.039 0-.0585 0-.0194 0-.0389 0-.0584 0s-.039 0-.0585 0-.039.0195-.0779.0195c-.0195 0-.0195 0-.039.0195-.039.0195-.078.039-.117.0585-.0194 0-.0194.0195-.0389.0195 0 0-.0195 0-.0195.0194z" fill="#f4e44e"/><path d="m88.018 99.4567c.3117.1754.8184-.1169 1.1496-.682.3118-.5456.3313-1.1497.0195-1.3251s-.8184.1169-1.1497.682c-.3312.5456-.3312 1.1497-.0194 1.3251z" fill="#c4b52f"/><path d="m89.1672 97.4697c-.0974-.0584-.2338-.0584-.3702-.0194v1.7927c.1364-.1169.2533-.2728.3507-.4482.3313-.5456.3313-1.1497.0195-1.3251z" fill="#dac63c"/><path d="m88.1139 97.9966.1754.4872.9938-.5651-.2144-.4677c0-.0195-.5456-.1948-.9548.5456z" fill="#f2dc4e"/><path d="m88.2899 98.4825v.6235l-.3118.3313s-.2338-.1949-.1948-.6041c.0585-.5066.3312-.8574.3312-.8574z" fill="#dac63c"/><path d="m95.5957 96.2031c-.1364.039-.2339.1559-.2923.2923-.3118-.1364-.6821-.1364-.9938.039l-3.9167 2.2604c-.1949.1169-.4287.1169-.6041 0l-1.4809-.3313v.6236l.8963.4871c.643.3508 1.4225.3703 2.0655.0195l4.1506-2.4163c.1364-.0779.1949-.2143.1949-.3507v-.6236z" fill="#d1bc36"/><path d="m89.6342 99.7892c.3702.0974.7794.1169 1.1496 0v-.799h-1.1496z" fill="#ccbd2b"/><path d="m89.6338 98.7752-1.364-.2923v.6236l.8963.4871c.1559.078.3118.1364.4677.1949z" fill="#bcad1d"/><path d="m88.2888 98.4834.8964.4872c.643.3507 1.4225.3702 2.0655.0194l4.1505-2.4162c.2728-.1559.2728-.5262 0-.682-.3312-.1949-.7599-.1949-1.0912 0l-3.9166 2.2603c-.1949.117-.4287.117-.6041 0l-.4872-.2728z" fill="#f2dc4e"/><path d="m130.927 0 6.313 3.64391-76.5219 43.98019-6.294-3.6439z" fill="#5aee7c"/><path d="m60.7185 158.422-6.3915-3.45.0974-110.9925 6.2941 3.6439z" fill="#389b4f"/><path d="m137.26 3.72168v110.56432l-16.31 9.743-2.611 1.539v-100.1583l-32.2494 18.9406v100.4117l-3.8582 1.345-21.4738 12.393-.0194-110.8176z" fill="#39cb5b"/><path d="m120.93 22.2532v104.8358l-1.54.896-1.033.584-.058.039-2.28-1.208 2.28-1.325v-99.2426l-2.358 1.364-29.872 17.5765.0779 101.7371-2.7085 1.656v-104.8935z" fill="#7b746b"/><path d="m80.9645 42.7522 2.4747 1.5394v104.8934l-2.4747-1.442z" fill="#4d4337"/><path d="m118.436 20.7134 2.494 1.5199-37.4908 22.0583-2.4747-1.4615z" fill="#4d4337"/><path d="m118.359 128.569-.059.039-2.28-1.208-.077-.039v-99.1843l2.377-1.3835z" fill="#4d4337"/><path d="m129.72 56.2175v1.8707c0 .5261.721.9548 1.656.9548s1.676-.4287 1.676-.9548v-1.8707z" fill="#7a7a7a"/><path d="m131.824 56.2175h-2.104v1.8707c0 .5261.74.9548 1.656.9548.156 0 .312-.0195.448-.0584v-.8964z" fill="#727272"/><path d="m132.427 58.8093c.078-.039.156-.0779.215-.1169-.059.039-.137.0779-.215.1169z" fill="#6e6e6e"/><path d="m132.876 58.4969c.02-.0195.039-.0585.059-.078-.02.0195-.039.039-.059.078z" fill="#6e6e6e"/><path d="m132.526 56.2175v2.5527c.332-.1754.527-.4092.527-.682v-1.8707z" fill="#909090"/><path d="m125.959 54.9697v1.8707s4.073 1.8707 4.541 2.046v-1.8706z" fill="#5b5b5b"/><path d="m131.474 55.2822-4.053-1.3835-1.462 1.0717 4.541 2.0266z" fill="#474747"/><path d="m129.72 56.218c0-.5261.76-.9548 1.675-.9548.936 0 1.657.4287 1.657.9548s-.741.9548-1.657.9548c-.915 0-1.675-.4287-1.675-.9548z" fill="#474747"/><path d="m129.72 50.7432v5.2222c0 .5262.721.9549 1.656.9549s1.676-.4287 1.676-.9549v-5.2222z" fill="#7a7a7a"/><path d="m131.824 50.7432h-2.104v5.2222c0 .5262.74.9549 1.656.9549.156 0 .312-.0195.448-.0585v-.8964z" fill="#727272"/><path d="m132.427 56.686c.078-.039.156-.0779.215-.1169-.059.039-.137.0779-.215.1169z" fill="#6e6e6e"/><path d="m132.876 56.3741c.02-.0195.039-.0585.059-.078-.02.0195-.039.039-.059.078z" fill="#6e6e6e"/><path d="m132.526 50.7422v5.9043c.332-.1754.526-.4092.526-.682v-5.2223z" fill="#909090"/><path d="m129.72 50.7432v5.2222c0 .3313.311.6236.779.7795v-6.0017z" fill="#5b5b5b"/><path d="m129.72 50.7424c0-.5261.76-.9548 1.676-.9548.935 0 1.656.4287 1.656.9548s-.74.9548-1.656.9548-1.676-.4287-1.676-.9548z" fill="#898989"/><path d="m136.715 51.4235-5.047 2.9814.215-8.0283 6.216-3.6244z" fill="#8498a3"/><path d="m132.701 46.8636 4.579-2.689-1.383 6.7811-3.41 2.0266z" fill="#d8cf1e"/><path d="m132.623 48.9492-.136 4.0336 3.41-2.0265.019-.078z" fill="#d6981e"/><path d="m126.602 51.4435 5.047 2.9619.214-8.0088-6.216-3.6244z" fill="#3b3d3d"/><path d="m127.439 50.9752-.954-6.8006 4.579 2.689-.078 6.1187z" fill="#726a21"/><path d="m125.666 42.7524 6.216 3.6439 6.217-3.6439-6.217-3.6245z" fill="#ddd692"/><path d="m138.84 42.8109-6.957 4.0726v-9.1001z" fill="#596f91"/><path d="m124.926 42.8118 6.957 4.0726v-9.1z" fill="#21272b"/><path d="m131.045 48.813-.058 4.17-3.547-2.0265-.019-.078z" fill="#422f09"/><path d="m127.79 50.605-.877-6.1771-.428-.2533.954 6.8006 3.547 2.0071.019-.5651z" fill="#807f7e"/><path d="m127.85 50.6438-.429.2338.019.078 3.547 2.0265.019-.5651z" fill="#525252"/><path d="m135.565 50.605 1.033-6.0407.682-.3897-1.383 6.8006-3.41 1.9876.019-.5846z" fill="#9e9c9a"/><path d="m135.487 50.6445.429.2339-.019.0779-3.41 2.0266.019-.6041z" fill="#737575"/><path d="m137.047 45.2852-.896 4.4038-.254 1.2666-.623.3703-2.163 1.286z" fill="#9fcacc" opacity=".31"/><path d="m136.5 44.6228-3.975 7.3852.117-3.6439.058-1.5199 1.111-.643z" fill="#9fcacc" opacity=".47"/><path d="m137.28 44.1746-.234 1.1107-3.936 7.3268-.623.3702.039-.9743 3.975-7.3853z" fill="#fff" opacity=".54"/><path d="m133.812 46.2017-1.169 2.1629.058-1.5199z" fill="#fff" opacity=".54"/><path d="m136.149 49.6895-.253 1.2666-.623.3702z" fill="#fff" opacity=".54"/><path d="m131.064 46.8442-.02 1.4809-.039 3.3127-.019 1.3445-1.306-.76-1.227-.7015-1.014-.5651-.155-1.1496-.644-4.4819-.155-1.1496 1.11.6625 2.28 1.325z" fill="#9fcacc" opacity=".31"/><path d="m128.453 51.5209-1.013-.5651-.156-1.1496z" fill="#ededed" opacity=".5"/><path d="m131.064 46.8444-.019 1.4809-1.169-2.1629z" fill="#ededed" opacity=".5"/><path d="m131.005 51.6378-.019 1.3445-1.306-.76-3.04-6.8981-.155-1.1496 1.11.6625z" fill="#ededed" opacity=".5"/><path d="m122.802 169.549c.176 5.047 6.606 11.419 14.401 14.244 7.775 2.826 13.952 1.033 13.796-4.014-.175-5.047-6.606-11.419-14.4-14.244-7.795-2.826-13.972-1.033-13.797 4.014z" fill="#fff" fill-opacity=".2"/><path d="m100.295 111.577c-.019-.078-.058-.136-.097-.195-.02-.039-.039-.097-.078-.117-.039-.039-.097-.058-.1559-.058-.1949-.02-.3898.039-.5457.156-.0779.078-.1364.117-.2338.156-.078.039-.1559.078-.1948.155-.0585.117-.0001.254.0974.351.1364.137.4092.176.5845.176.2339 0 .4873-.02.6623-.176.02-.019.039-.039.059-.078 0-.019 0-.058 0-.078-.039-.097-.059-.195-.098-.292z" fill="#d18d6d"/><path d="m104.096 151.134c-.779 4.989-7.9504 10.542-16.0176 12.413-8.0673 1.871-13.9716-.663-13.2116-5.651.7794-4.989 7.9503-10.542 16.0176-12.413 8.0867-1.87 13.9906.663 13.2116 5.651z" fill="#d9d5e5"/><path d="m89.6183 144.178c-.0585.214-.1169.409-.1754.623-.1169.39-.2143.741-.1169 1.15.2144.896.2338 1.539.2338 1.539l2.8451.936 1.1691-.195c.0584-.02.4092.331.4677.37.4092.292.8379.546 1.3055.76.6236.273 1.2472.409 1.9097.526.8963.156 1.6368 0 2.5332-.078.1753-.019.3509-.019.5069-.097.467-.176 1.149-.76 1.383-1.189.331-.604-.019-1.344-.467-1.773-1.5593-1.501-4.4628-2.085-4.4628-2.085l-1.2081-2.416c0 .058-1.8902.662-2.0266.701-.5261.175-1.1301.507-1.6758.448-.6235-.078-1.2665-.039-1.8706.117-.039.02-.0779.02-.1169.039-.039.039-.0585.078-.078.117-.039.136-.0974.312-.1559.507z" fill="#1b1b1b"/><path d="m101.017 146.535c.506.429.078 1.013-.371 1.267-.233.136-.506.156-.779.175-.6236.039-1.2471.02-1.8511-.078-.4872-.078-.9938-.117-1.4615-.273-.4092-.155-.8379-.175-1.2276-.409-.4092-.234-.5262-.74-.7795-1.091-.2339-.312-.5846-.526-.7989-.857-.1364-.195-.3118-.702-.039-.838.8379-.41 1.3835-1.306 1.9486-2.007l1.1107 2.202c.039.058.5067.116.5651.136.4482.117.9159.273 1.3446.448.5651.214 1.0912.468 1.5976.799.273.156.507.331.741.526z" fill="#1b1b1b"/><path d="m85.1943 159.24c-.1559-.468-.4092-.896-.643-1.325-.4482-.799-.8769-1.598-1.3251-2.397-.5066-.916-.4871-2.046-.7015-3.059-.0195-.078-.039-.137-.0779-.195-.2534-.39-1.3251-.351-1.7148-.312-.5261.059-1.0522.098-1.5589.215-.643.136-1.2861.35-1.8706.701-.8379.526-.6431 1.208-.5262 2.066.0585.428.1169.876.2728 1.286.1949.565.5066 1.091.8769 1.637.0779 0 .1559-.02.2339-.02-.0195 0 .2337 1.13.2532 1.208.1364.643.3508 1.15.6626 1.695.2533.429.5456.78.8768 1.15.6626.741 1.4226 1.501 2.3969 1.773.1948.059.3897.078.5845.098.3313.019.6821-.059.9938-.137.4677-.136 1.0912-.331 1.3835-.76.3313-.487.2144-1.13.2144-1.675 0-.663-.1169-1.306-.3313-1.949z" fill="#1b1b1b"/><path d="m80.4589 153.258c.3313-.175.6821-.37 1.0523-.37.3313 0 .4481.156.6235.429.3508.545.4287 1.208.5456 1.831.0975.507.2924 1.014.4677 1.481.2534.682.76 1.325 1.0328 1.988.3313.779.7405 1.773.6041 2.63-.0195.078-.039.156-.078.234-.1559.273-.76.468-1.0523.546-.2143.058-.4481.097-.6819.097-.1169 0-.5846.078-.6821-.019-.5845-.526-1.1886-1.072-1.6952-1.676-.5067-.604-.7795-1.325-1.1887-2.007-.3897-.643-.4287-1.364-.6236-2.085-.1559-.585-.3118-1.169-.1754-1.793.078-.37.2923-.662.6626-.799.1558-.058.3118-.058.4677-.117.2728-.078.4871-.253.7209-.37z" fill="#1b1b1b"/><path d="m89.8318 117.248s-2.241 5.32-1.6174 9.197c.6235 3.878.5651 4.248-.039 5.963-.5846 1.715 1.5979 11.536 1.5979 11.536s2.4942.838 4.2869-.312 1.7928-1.15 1.7928-1.15c-.1754-1.714-.3508-3.449-.5261-5.163-.1754-1.774-.4678-3.527-.5847-5.301-.0974-1.325-.0195-2.28.4287-3.488.9743-2.513 1.5199-5.222 1.6369-7.931.2338-5.495-1.0718-10.503-1.0718-10.503z" fill="#152a75"/><path d="m95.7555 110.076-1.2667 1.52c-.8184 1.306-1.4614 2.806-2.5332 3.898-.682.682-1.5004 1.188-2.1434 1.909-.0585.059-.078.137-.1365.195-.1364.331-.3312.896-.5456 1.598.0195 1.189.76 2.182.9354 3.371.0974.604.0974 1.228.1169 1.851.0195.838.0195 1.657.039 2.494.0195.78.0195 1.559-.0195 2.339-.0195.389-.0585.799-.0975 1.188-.0389.449-.0779.566.4093.663.7599.156 1.5588.078 2.2798-.195-.1169 0-.2338.059-.3312.136-.7794.468-1.5589.975-2.3189 1.481-.5845.39-.2922 1.774-.2338 2.397.078.975.2338 1.949.4482 2.904.4092 1.929 1.0327 3.819 1.6368 5.709.0779.234.1559.468.2728.682.6041-.058 1.2276-.214 1.7927-.584 1.7927-1.15 1.7928-1.15 1.7928-1.15-.1754-1.715-.3508-3.449-.5261-5.164-.1754-1.773-.4677-3.527-.5847-5.3-.0974-1.325-.0194-2.28.4287-3.488.9743-2.514 1.5199-5.223 1.6369-7.931.2533-5.515-1.0522-10.523-1.0522-10.523z" fill="#19318f"/><path d="m95.5218 107.018s1.6953 5.943-.7599 9.937c-2.4553 3.995-4.93 4.892-4.93 4.892s-1.9876 9.255-4.1311 12.958c-.9548 1.637-2.2019 3.293-2.6501 5.164-.4677 1.948-.2338 3.975-.2143 5.962.0194 2.358.0584 4.716.0779 7.074 0 0-2.2019 3.332-6.333.779 0 0-1.6173-10.795-.3897-13.971 1.2276-3.177 1.9096-4.287 1.7148-6.353-.2144-2.085 2.046-10.386 2.046-10.386s-1.4614-3.741-.2728-7.151c.7405-2.144 1.6368-4.248 2.6306-6.275.1169-.234.2338-.487.4482-.643.1949-.136.4482-.195.682-.234 1.7148-.331 3.4101-.682 5.1249-1.013.9548-.195 1.8317-.292 2.728.136 1.0913.507 2.4163.897 3.4101.098.1754-.156.9158-.663.8184-.974z" fill="#19318f"/><path d="m82.5051 114.481c.1948-.507.4287-1.13.7404-1.579.1754-.272.4482-.448.6236-.721.1949-.331.1754-.759.3508-1.13.1753-.409.5456-.701.7989-1.071.2533-.371.3897-.916.0974-1.248-1.3056-.233-2.6111-.428-3.9362-.604-.1753-.019-.3507-.039-.5261.02-.1364.058-.2338.156-.3118.273-.5261.643-.8574 1.442-.9158 2.28-.0585.779.1364 1.558.1949 2.357.1753 2.085-.4678 4.073-.4093 6.138.0195.936.1754 1.871.4093 2.787.0584.214.3896.857.3312 1.072 0 0-2.2604 8.32-2.046 10.386.2143 2.085-.4872 3.176-1.7148 6.352-1.2276 3.177.3897 13.972.3897 13.972.5846.37 1.1302.604 1.6369.76.0194-.897-.4677-2.105-.5652-2.748-.2533-1.403-.4676-2.825-.5651-4.248-.1948-2.786.0195-5.631 1.1108-8.223.5066-1.208.7794-2.533 1.1886-3.78.2533-.76.4872-1.54.6626-2.319.6235-2.767.4286-5.631 1.2275-8.36.2728-.915.5457-1.851.6236-2.806.2338-2.552-.3118-5.105.6041-7.56z" fill="#152a75"/><path d="m94.2352 83.1671c.8769 1.6173 1.6953 3.1957 2.1629 5.0079.3703 1.4615.5261 2.9619.5456 4.4818.0195 1.7538-.3702 3.4491-.3702 5.2028.0195 3.0394.0584 6.0214.2923 9.0614.0779.916.1949 1.851.1559 2.767-.078 1.461.7015 2.942-.4482 4.209-.9938 1.091-3.0788 1.52-4.4233 1.987-1.8317.643-4.1311.487-6.0212.293-2.2799-.234-5.3003-.449-7.2099-1.832-.8574-.624-.6236-1.13-.4287-2.066.2338-1.149.0779-2.318.039-3.468-.039-1.579-.0975-3.157-.1755-4.716-.0974-1.851.2144-4.4232-.7794-6.0405-1.0133-1.6369-2.2019-3.8973-2.1435-5.8654.078-2.9424-.4092-5.4366 2.6891-7.6385 1.7343-1.2471 3.1763-2.2799 4.6377-3.0983 1.1302-.6625 2.2799-1.1692 3.5075-1.5394 1.0523-.3313 2.3384-.1754 3.5465.2338 1.9681.6431 3.8583 1.9486 4.4234 3.0204z" fill="#b53726"/><path d="m89.793 80.1467c-1.2276-.4092-2.4942-.5651-3.5465-.2338-1.2276.3702-2.3578.8964-3.5075 1.5394-1.442.8184-2.9034 1.8512-4.6376 3.0983-3.0983 2.2019-2.6112 4.6961-2.6891 7.6385-.078 2.4553 1.8121 4.4039 2.0849 6.7422.3508 2.9617.6626 5.9237.7795 8.9057.078 1.987.0975 3.994-.1753 5.962-.0195.156-.039.312.0389.448.0779.117.2143.176.3312.234 1.3641.565 2.8255.916 4.287 1.033-.1949-.74-.3897-1.5-.5846-2.241-.5845-2.241-.3117-4.15-.2533-6.411.0974-3.196.4482-6.8979-.604-9.9767-.4872-1.4225-1.3641-2.6891-2.28-3.8777-.5066-.6626-.6235-1.3836-.7599-2.1825-.1559-.8184-.3118-1.6368-.3313-2.4747 0-.3508.0195-.721.1754-1.0523.1559-.3312.4092-.5846.6625-.8184 1.2471-1.1497 2.8061-2.6501 4.4234-3.1957 1.6563-.5651 3.527-.76 5.2612-.8184 1.7733-.078 3.605-.078 5.3587.1559-.8379-.9743-2.3967-1.9487-4.0336-2.4748z" fill="#bd3928"/><path d="m91.3724 85.3681c.2338 1.7927-1.8902 2.9424-3.2932 1.7927-.7015-.5651-1.4615-1.2276-2.2214-1.9486-2.767-2.6501-3.1178-3.7414-3.1178-3.7414 1.1302-.6625 2.2799-1.1691 3.5075-1.5394 1.0523-.3312 2.3384-.1753 3.5465.2339 0 0 1.2666 3.0008 1.5784 5.1443z" fill="#d18d6d"/><path d="m86.2266 84.7644c-.0974-.8379-.078-1.6953.0585-2.5137.1364-.76.3702-1.5004.4482-2.2799 0-.0584 0-.0974 0-.1559-.1754.0195-.3313.039-.5067.0975-1.2276.3702-2.3578.8963-3.5075 1.5394 0 0 .3508 1.0912 3.1178 3.7413.2144.2144.4287.3897.643.5846-.0974-.3897-.2338-.7794-.2533-1.0133z" fill="#c77752"/><path d="m83.2454 81.0811c-.039-.0195-.0779-.0389-.1169-.0389-.2339-.039-.3703.1364-.5651.2533-.3508.1948-.721.4092-1.0717.604-.4287.2339.0389.9938.1753 1.2666.2144.5067.5066.9744.8379 1.403.6041.76 1.442 1.3641 2.2409 1.8902.5846.3897 1.2082.721 1.8512.9938.2533.0974 1.6563.9158 1.8317.7405.039-.039.0195-.3508.0195-.4092.0195-.1949.0585-.3703.0974-.5651.0585-.3313.1559-.6821.1754-1.0133.0195-.3313-.1559-.2533-.4287-.3118-.6041-.1364-1.2471-.5261-1.7733-.8574-.7015-.4482-1.3055-1.0328-1.8901-1.6173-.5066-.5262-.8379-1.2471-1.1107-1.9292-.0584-.1558-.1169-.3312-.2728-.4092z" fill="#cc3e2b"/><path d="m92.814 82.329c.0584-.4092.039-.9548-.4092-1.1692-.2923-.1364-.6625 0-.9159.1754-.3312.2143-.3702.3702-.3312.7405.1169.8184-.0195 1.6368-.4482 2.3383-.0974.1754-.2338.3507-.1949.5456.0195.1169.0779.2144.1364.3118.4092.6235.6236 1.4225.76 2.1435.2728-.117.4287-.4093.5651-.6626.2338-.4482.4871-.8963.721-1.3445.0779-.1559.1558-.2923.2143-.4677.039-.1754.0584-.3702.0584-.5456 0-.3313.0001-.643-.0974-.9743-.0779-.3702-.1169-.7405-.0584-1.0912z" fill="#cc3e2b"/><path d="m83.4598 78.6849-.0975 2.3384s1.5394 1.7537 3.9752 2.6111c2.4163.8574 3.1178.2728 3.1178.2728l.1754-5.0664c-.0195 0-6.4889-2.9034-7.1709-.1559z" fill="#deb08a"/><path d="m83.4598 78.6844-.0975 2.3384s1.0523 1.1691 2.7671 2.0655c-.0195-.3702-.039-.721-.0195-1.0912.0389-.7795.1948-1.5394.1753-2.3189-.0195-.7599-.2922-1.4809-.5261-2.2019-1.1107-.0195-2.0655.2533-2.2993 1.2081z" fill="#d18d6d"/><path d="m84.6093 95.4431c-.0195.3507-.3118.6625-.6625.682-.3508.0195-.6431-.2728-.6236-.6236.0195-.3507.3118-.6625.6625-.682.3508-.0195.6236.2728.6236.6236z" fill="#ffba3e"/><path d="m112.845 100.607c-.156.389-.155.389-.155.389s.74.234-.195 1.15c-.955.916-.819.702-1.423.565-.565-.136-1.188-.156-2.338-.701-.351.097-.663-.078-1.13-.293-.371-.156-.663-.467-.936-.799 0-.019-.019-.019-.019-.019-.117-.059-.195-.117-.195-.117l.019-.078c-.039-.039-.078-.078-.116-.117-.195-.195-.371-.39-.624-.526-.351-.2143-.663-.4092-1.013-.6235-.117-.0779-.234-.1364-.371-.1754-.331-.1169-.701-.1948-1.013-.2728-.682-.1559-1.364-.2923-2.065-.4287-.546-.0974-1.092-.1754-1.6372-.2533-.0585-.1559-.1169-.2923-.1559-.4482-.1169-.3702-.2533-.7404-.3702-1.0912v-.0195c-.1169-.3118-.2339-.6041-.3508-.8964-.3703-.8573-.7405-1.6368-1.1302-2.3188.1364.0779.2923.1559.4677.2728 1.2276.7015 3.4296 1.9291 4.5206 2.3578.819.3313 1.617.7015 2.416 1.0328.254.1169.527.2143.78.3118.565.2143 1.15.3117 1.695.5066.117.039.215.078.312.1169.507-.0584 1.305-.1559 1.715-.1754.623-.0194 1.968-.7014 2.026-.1558.039.3897-.877.7599-1.422.9353.039.0195.058.0195.078.039.117.0974.175.2338.214.3702l2.183.9548c.019 0 .37.117.233.507z" fill="#f1bc95"/><path d="m96.905 93.9038c.039-.9354.0389-1.7928-.039-2.5917 0-.0195 0-.0195-.0194-.0195 0-.0195-.0001-.0195.0194-.039.0195-.0389.039-.0779.0585-.1169.0584.2144.1559.4092.2533.6041.0779.1559.1559.2923.2533.4482.1364.2143-.0389.5456-.1169.7989-.0974.3118-.2338.6041-.4092.8769z" fill="#d18d6d"/><path d="m105.85 99.9633c-.175-.0974-.273-.1948-.37-.2923 0-.0195-.02-.0195-.02-.0195-.058-.0584-.097-.1364-.136-.2143-.039-.039-.059-.0779-.098-.1364-.156-.2144-.311-.4482-.526-.6236-.311-.2533-.584-.5261-.896-.7794-.098-.0974-.214-.1559-.331-.2338-.293-.1754-.663-.2923-.955-.4287-.643-.2728-1.306-.5067-1.968-.76-.507-.1949-1.0525-.3507-1.5786-.5261-.0195-.1559-.078-.3118-.0975-.4677-.0585-.3897-.1364-.7794-.1948-1.1302.5066.7015 1.7149 1.2276 2.2599 1.5979.429.2923.936.4482 1.384.721.37.2338.779.3897 1.169.5846.02 0 .059.0194.078.0389.234.1364.468.2728.682.4482.409.3313.682.7405.974 1.1497.215.2728.332.9158.624 1.0717z" fill="#d18d6d"/><path d="m96.9242 92.0525c.0195-.8769-.1753-1.8317-.3702-2.6891-.3508-1.5394-.9938-2.9814-1.6369-4.4039-.4482-.9743-.8768-1.9681-1.3055-2.9424.5261-.2533 1.1691 0 1.5588.4092.3898.4092.6041.9743.799 1.5005.2728.7599.5456 1.5199.8184 2.2798.3313.9548.682 1.8902.8769 2.884.1169 1.2861.1364 2.5332.2533 3.8193.0195.1169.0195.2338.0975.3312.3702.5261 1.0327.8769 1.5588 1.2276.7407.4872 1.5977.8185 2.3967 1.1887 1.13.5456 2.299 1.0328 3.449 1.5004.312.1364 1.423.3313 1.598.5651.312.3897-.779.76-1.013 1.0328-.137.1559-.897 1.8123-.604 1.9093-1.286-.409-2.592-.662-3.859-1.1104-.837-.2923-1.6754-.5846-2.5133-.8768-.4287-.1559-.8574-.2923-1.2666-.4482-.3312-.1169-.8379-.1949-1.0717-.4287-.1559-.1559-.1364-.2923-.0975-.5067.078-.5066.1169-1.0717.0975-1.5783 0-.1754-.039-.3508-.039-.5457.039-1.0327.2533-2.046.2728-3.1177z" fill="#b23625"/><path d="m104.213 115.027-10.6586-6.138v-10.1722l10.6586 6.1572z" fill="#bf9245"/><path d="m112.67 99.9639-8.457 4.9101v10.153l8.457-4.872z" fill="#cfa658"/><path d="m112.67 99.964-8.457 4.911-5.0076-2.884-1.6173-.936-4.0337-2.3381 8.4566-4.9105 4.034 2.3383 1.637.9354z" fill="#edce7d"/><path d="m99.2061 101.991-1.6174-.936 8.4573-4.9102 1.637.9353z" fill="#fee9ab"/><path d="m97.5887 101.055v3.859l.3313-.897.3507 1.267.4677-.819.4287 1.306.039-3.78z" fill="#dbc68a"/><path d="m109.728 103.296-.76.448v1.033l.76-.448z" fill="#a05e00"/><path d="m110.819 102.672-.779.448v1.033l.779-.448z" fill="#a05e00"/><path d="m111.909 102.049-.779.448v1.033l.779-.448z" fill="#a05e00"/><path d="m103.883 95.4822-2.377 1.403-1.8126-1.0327 2.3966-1.403z" fill="#ebebeb"/><path d="m103.591 95.4632-2.124 1.2472-.078-.039 2.124-1.2666z" fill="#bfbfbf"/><path d="m103.376 95.3263-2.124 1.2471-.097-.0389 2.124-1.2471z" fill="#bfbfbf"/><path d="m103.142 95.1899-2.124 1.2666-.078-.0585 2.124-1.2471z" fill="#bfbfbf"/><path d="m102.908 95.0729-2.124 1.2471-.078-.039 2.124-1.2666z" fill="#bfbfbf"/><path d="m102.499 94.82-2.124 1.2666-.272-.1559 2.124-1.2471z" fill="#bfbfbf"/><path d="m106.591 104.582-1.695.974v2.28l1.695-.974z" stroke="#a05e00" stroke-miterlimit="10" stroke-width=".0525"/><path d="m106.007 105.829v1.13l-.526.312v-1.15l-.254.156.526-1.13.526.526z" fill="#a05e00"/><path d="m95.717 83.9853c-.0974-.7405-.3313-1.7343-1.0328-2.124-.5456-.3118-1.0912-.5846-1.7148-.7015-.4287-.078-1.1496-.2533-1.4224.2338-.1754.3313-.2534.7015-.3313 1.0523.721.2143 1.481.1169 2.2214.1364.5067 0 .9354.0389 1.3835.2728.4872.2533.6626.7599.9159 1.2276 0-.039-.0195-.0585-.0195-.0974z" fill="#c9c9c9"/><path d="m92.7365 81.1006c-.1948 1.5394-1.6368 2.0265-3.5854 1.6953-.9548-.1754-1.9876-.7405-2.767-1.2861-.3118-.2338-.5846-.4287-.799-.6041-.0584-.0584-.1364-.1169-.1948-.1559-.0585-.0584-.117-.0974-.156-.1364-.1364-.1169-.2143-.1948-.2143-.1948-5.1833-5.2028-2.1045-5.8653-1.1692-8.3011.078-.1949.156-.3702.2729-.5456.0779-.1364.1753-.2728.2923-.4092 1.4419-1.8707 4.6377-3.0009 6.216-2.8255 1.2082.1559 2.0461.9743 2.6112 1.9681.2923.5066.5261 1.0522.682 1.5784.0195.0779.039.1364.0585.2338.3312 1.8901-1.0523 7.5216-1.2472 8.9831z" fill="#f0b88f"/><path d="m93.9822 72.1372c-.0195.0195-.0196.039-.039.039-.3118.1754-.6821.2143-1.0328.2728-.9938.0974-1.9876.1754-2.9619.039-.4287-.0585-1.0133-.2533-1.4225-.039-.3118.1754-.6625.4871-.8379.7794-.0974.1559-.1559.3313-.2338.5067-.2338.6235-.5456 1.2666-.5651 1.9486s-.0974 1.364-.1559 2.0265c-.0389.5262-.2533.9744-.4092 1.481-.1948.721-.1169 1.5199.039 2.2994-.3118-.2339-.5846-.4287-.799-.6041-.0584-.0585-.1364-.1169-.1948-.1559-.0585-.0585-.1169-.1169-.1559-.1364-.1364-.1169-.2144-.1949-.2144-.1949-5.1833-5.2028-2.1045-5.8653-1.1691-8.3011.0779-.1948.1559-.3702.2728-.5456.0779-.1364.1754-.2728.2923-.4092.721-.8379 1.8122-1.3055 2.8839-1.5394.6821-.1364 1.3836-.1948 2.0851-.1559.8963.0195 1.8706.1364 2.7085.4872.2728.1169.721.2143 1.1497.3507.2923.5067.5261 1.0523.682 1.5784.0585.1169.078.1949.078.2728z" fill="#df9876"/><path d="m93.1238 80.0094c.039-.2338.039-.4677.0585-.7015 0-.0974 0-.2143-.0585-.2923.039.039-.1753.3118-.2338.3313-.0974.0584-.2728.0974-.3897.1169-.2534.039-.3898-.1559-.6236-.2144-.1559-.0389-.3313-.0194-.4872.0195-.3312.078-.6819.1949-1.0132.2339-.3313.0389-.6236.0195-.9159.1753-.1364.0585-.2533.1364-.3897.2144-.1559.0779-.3118.1559-.4482.2533-.0974.0585-.1948.1169-.3117.1364-.0975.0195-.2144-.0195-.3118-.0584-.2728-.117-.5067-.3118-.7405-.5262-.3508-.3118-.7015-.682-.8379-1.1302-.1559-.4676-.0779-.9743-.0585-1.4614.039-1.0133.1949-2.0071.2728-3.0204.1364-2.0071 2.0461-2.7475 5.3977-2.8255 1.1497-.0195 1.4614.2144 1.9096.5846-.0779-1.325-.4286-2.5137-1.2276-3.3321-1.325-1.3251-3.0009-2.5332-4.9105-2.806-2.046-.2728-3.7803.5261-5.2807 1.8512-1.3056 1.1691-1.7928 3.3321-1.8512 5.0079-.039 1.1302.1753 2.2214.4871 3.2932.4092 1.403 1.2082 2.6696 2.3384 3.6049.2533.2143.5456.4287.8574.643-.039-.0584.0195-.4676.0195-.5456-.0195-.9938-.4872-1.8317-1.0133-2.6501-.1949-.2923-.3897-.6041-.4677-.9353-.0974-.4092-.0584-1.0523.1754-1.3835.3118-.4677.9548-.4872 1.325-.117.2728.2728.4287.6821.5651 1.0328.1754.4872.3313.9743.4677 1.481.1169.4092.039.8184.039 1.2471 0 .4871.0974.9743.1364 1.4614.0194.5067.078.9938.2338 1.481.2729.8379.7989 1.403 1.4225 2.007.6235.6041 1.481.9938 2.3384.9938.5651 0 1.1302-.1753 1.5978-.5066.2144-.1559.4287-.3313.6041-.5456.1754-.1949.4092-.3118.5846-.5067.0779-.0974.1364-.1948.1948-.3117.3313-.76.4482-1.5394.5456-2.2994zm-1.4225-.039c.0195 0 .0585-.0195.078-.0195.0779-.0194.1948-.0584.2728 0 .3702.2729-.1559 1.1692-.3897 1.3836-.0975.0779-.6236.5456-.5262.1169.0195-.078.039-.1754.0585-.2533.039-.2144.0584-.4482-.2339-.4287-.1558.0194-.2922.0584-.4287.1169-.1364.0584-.2727.1364-.2922.2728-.0195.1169.0779.2338.0974.3702.039.1364 0 .3118-.1169.4092-.1169.1169-.2338.1169-.3897.1169-.1169 0-.2338.0195-.3508-.0194-.2533-.0585-.4677-.2728-.5846-.4872-.1754-.3118-.2143-.5261-.0584-.8574.1948-.4092.9548-.2143 1.3056-.2533.5456-.0585 1.0522-.2923 1.5588-.4677z" fill="#4f2900"/><path d="m88.9543 66.7397c.682.1364 1.364.3897 2.0266.6625.1948.078.3702.1559.5456.2144.1559.0584.3117.1364.4676.1948-1.2081-1.0522-2.6111-1.9486-4.2089-2.1629-2.0461-.2728-3.7804.5261-5.2808 1.8512-1.3056 1.1691-1.7927 3.3321-1.8511 5.0079-.039 1.1302.1753 2.2214.4871 3.2931.3313 1.1302.9353 2.163 1.7342 3.0204-.0584-.1754-.0974-.3313-.1364-.4677-.2143-.8184-.3897-1.6563-.5066-2.4747-.2338-1.442-.2338-2.8645-.0974-4.3259.2533-2.5527 2.3773-4.3065 4.7936-4.8521.7015-.1364 1.364-.0974 2.0265.039z" fill="#422200"/><path d="m92.9674 79.5622c.0975-.1169.1559-.2338.1949-.3702.039-.1169.0195-.2533-.0389-.3702-.0195-.0195-.039-.039-.0585-.039s-.039.0195-.039.039c-.0974.1559-.1948.3312-.3312.4676-.0975.1364-.2339.2339-.4092.1559-.1559-.0584-.2728-.1753-.4287-.2143s-.3313-.0195-.4872.0195c-.3312.0779-.682.1948-1.0133.2338s-.6236.0195-.9158.1754c-.1365.0584-.2533.1364-.3897.2143-.1559.078-.3118.1559-.4482.2533-.0975.0585-.1949.117-.3118.1364-.0975.0195-.2144-.0194-.3118-.0584-.2728-.1169-.5067-.3118-.7405-.5261-.3507-.3118-.7015-.6821-.8379-1.1302-.0195-.078-.039-.1559-.0584-.2533 0 .4286.0779.8573.2922 1.1886.078.1169.1755.2338.2924.3313.2533.2533.5261.4871.8379.682.1169.0779.2338.1559.3702.1948.1754.039.2339 0 .3703-.0974.2533-.1754.5066-.3702.7599-.5261.1169-.078.2338-.1364.3507-.1949.1364-.0584.2923-.0974.4482-.1169.3118-.0584.643-.1169.9548-.1754.3313-.0584.7015-.1169.9743.039.0975.0585.1754.1364.2729.1754.2923.0779.5455-.039.7014-.2339z" fill="#703a00"/><path d="m92.9493 80.3212c-.039.1364-.0779.2729-.1169.4093-.0974.3117-.2534.6235-.3313.9353-.5261 1.9681-2.9814 2.085-4.5597 1.364-.1364-.0584-.2534-.1169-.3703-.2143-.1364-.0975-.2533-.2339-.3702-.3703-.1364-.1559-.2728-.2923-.4287-.4481-.1169-.117-.1754-.2729-.2338-.4093-.1754-.4092-.3508-.8184-.4482-1.2471-.0975-.4092-.0779-.8574-.0779-1.2861 0-.4676-.0391-.9548-.0975-1.4419-.0585-.4872-.1559-.9938-.3118-1.4615-.0779-.2728-.4677-1.0522-.8574-1.2276.0779.1559.1559.3312.2144.4871.1754.4872.3312.9743.4676 1.481.2144.8184-.0584 1.7537-.1558 2.5916-.0195.2339-.0585.4872-.0585.7405 0 .7989.2728 1.5979.7599 2.2409.2728.3703.6236.6625.9549.9743.039.039.0974.078.1364.1169.4092.3508.7989.6821 1.3251.799.5651.1364 1.1691.0974 1.7342.0389.6625-.0584 1.2276-.4092 1.7343-.8379.5261-.4481.6235-.9938.8574-1.5978.2923-.721.3702-1.5784.3507-2.3384 0 .2534-.0584.4872-.1169.7015z" fill="#422200"/><path d="m101.563 111.987c-.292.136-.721.117-.994.214.059-.019.371.156.468.156.448.02.448.117.351.565-.02.078-.663.078-.741.098-.273.097-.234.233-.545.155-.5849-.136-1.189-.194-1.7736-.37-.4871-.156-.8573-.273-1.2666-.604-.4481-.351-.8573-.76-1.3055-1.111-.2338-.175-.5067-.331-.76-.487-1.4225-.877-1.9291-.896-6.0407-2.007-.3507-.097-.7014-.195-1.0522-.312-.4482-.136-.8769-.292-1.2861-.428-.2923-.117-.8769-.215-1.0133-.507-.1949-.37-.0584-.974.039-1.344.0779-.293.1948-.76.3897-.994.1949-.215.6236-.292.8964-.37.643-.176 1.325-.234 1.9876-.234.5261 0 1.1496.623 1.5783.916.9159.643 1.8512 1.305 2.845 1.812.4871.253 1.0133.428 1.5589.467.6041.059 1.0912-.155 1.6758-.214.0585 0 .1364 0 .2338.02.3313-.059.6821-.059 1.0133-.156.2534-.078.5651-.137.76-.351.0974-.117.1753-.273.2338-.409.0584-.137.1169-.273.1559-.429 0-.039.0195-.078.039-.117.0194-.039.0585-.058.0974-.097.2728-.156.7015.019.721.331.0195.253-.0195.526-.0975.76-.0194.039-.0194.078-.0389.117-.0974.273-.2728.565-.4482.779-.2144.254-.8769.448-.6625.877.2143.409.682.565 1.0327.858.4285.35.8965.545 1.4615.565.214 0 1.072-.059 1.169.195.039.116.059.233.039.37 0 .097-.039.195-.097.253-.039.039-.098.059-.156.059-.176.039-.877.019-.994.136s.195.175.253.195c.156.039.468-.039.604.078.137.175-.136.487-.331.565z" fill="#f1bc95"/><path d="m88.8767 107.602c-.4287-.156-.8964-.273-1.2667 0-.0389.039-.0974.078-.1169.136-.039.078 0 .175.0195.273.1559.429 1.0328.487 1.442.604 4.1115 1.13 4.6182 1.13 6.0407 2.007.1169.078.2143.136.3118.214.0584.039.1169.078.1753.098.0585.039.117.078.156.097 0 .02.0194.02.0389.02.078.039.1559.078.2533.117.039.019.0585.039.0779.039-.5456-.702-1.1106-1.325-1.7731-1.676-.9744-.526-2.0266-.877-3.0789-1.189-.5261-.156-1.0327-.312-1.5589-.468-.2533-.116-.4871-.194-.7209-.272z" fill="#d18d6d"/><path d="m88.6624 104.095c.0195.019.039.019.039.039v.039c-.078.331-.2728.507-.4482.799-.4287.662-.9353 1.364-1.5979 1.832-.1558.116-.3312.214-.4871.272-.1949.078-.643.41-.8379.234-.5261-.506-.7794-1.227-1.1497-1.851-.1559-.253-.3118-.468-.4871-.701-.3703-.468-.76-.936-1.1887-1.345-.3508-.351-.7015-.663-1.0717-.974-.1559-.137-.1949-.332-.2729-.507-.0974-.234-.2143-.468-.3117-.701-.3898-.858-.7989-1.7152-1.2276-2.5337-.721-1.3835-1.52-2.7475-2.3968-4.0336-.4677-.7015-.8964-1.403-1.2472-2.1824-.3507-.7405-.565-1.3446-.565-2.163 0-.5846-.0975-1.2081.0194-1.7732.1364-.682.4482-1.3446.8185-1.9292.3897-.643 1.0133-1.5004 1.7927-1.6563.1559-.0389.3118-.0389.4872-.0389.7989 0 1.6563.3507 2.2409.8184 1.7927 1.3445 2.689 3.8972 3.2347 6.0017.1558.6041.2533 1.2276.3702 1.8512.1949 1.0912.3312 2.1824.4481 3.2931.2339 1.9681.8185 3.7609 1.9487 5.3979.3702.526.8963.857 1.3055 1.305.1559.176.3313.371.5846.507z" fill="#c33b29"/><path d="m86.3042 107.037c-.0584.02-.0974.059-.1364.078-.2533.098-.5261.254-.7989.312-.0585.039-.0974.039-.1559.059-.1754.039-.2533-.098-.3897-.215-.117-.117-.2144-.214-.3313-.331-.0195-.039-.039-.058-.0779-.078 0-.019 0-.019 0-.019-.1559-.176-.2534-.371-.3898-.566-.2338-.311-.5066-.604-.721-.915-.0779-.117-.1558-.234-.2338-.332-.1559-.214-.2923-.448-.4287-.662-.2533-.37-.4871-.76-.721-1.13-.2922-.449-.5845-.877-.7989-1.345-.0974-.234-.2143-.468-.3118-.701-.3897-.858-.7989-1.6957-1.2081-2.5141-.721-1.3836-1.5199-2.7086-2.3773-4.0142-.8379-1.2471-1.6173-2.6111-1.9291-4.0921-.3508-1.5783.0974-3.0203 1.0522-4.3064.4482-.5846.9159-1.442 1.7927-1.4225.7015-.0974 1.4225.039 2.0266.4092-.7794.1364-1.3836.721-1.8123 1.403-.0974.1559-.1948.3118-.2727.5067-.5651 1.1107-.8379 2.5721-.4287 3.6828.5261 1.403 1.3835 2.6307 2.2019 3.8778 1.1107 1.6563 1.6758 2.1434 2.2604 4.0336.4872 1.5592 1.1497 3.0402 1.9291 4.4822.5262.993 1.0912 1.968 1.6953 2.923.1169.175.2339.35.3313.526.0585.117.1364.214.2338.35z" fill="#b03525"/><path d="m85.8189 108.694c.1754.117.3703.253.5457.35.8768.527 1.7537-.233 2.2993-.876.8184-.975 1.3445-1.93 1.6953-3.157.1169-.409-.5066-.565-.7599-.741-.078-.058-.1754-.117-.2534-.175-.3117-.292-.3897-.799-.682-1.052-.1364-.117-.2728-.117-.4482-.078-.0974.019-.6235.331-.6625.311.1169.078.2533.176.3702.254.9354.643-1.5978 3.04-2.124 3.468-.5066.41-.8768.682-1.3055-.019-.1364.448-.1754.877.2338 1.169.3313.214.76.331 1.0912.546z" fill="#cc3e2b"/><path d="m135.839 164.248c.059.214.098.429.156.643.117.409.195.779.078 1.189-.253.935-.312 1.578-.312 1.578l-2.981.857-1.208-.233c-.078-.02-.429.331-.487.37-.429.292-.897.545-1.384.74-.643.273-1.305.39-1.987.487-.936.117-1.696-.058-2.631-.155-.175-.02-.351-.039-.526-.117-.468-.195-1.169-.819-1.403-1.286-.331-.644.058-1.384.546-1.832 1.656-1.52 4.696-2.027 4.696-2.027l1.344-2.474c-.019.058 1.949.74 2.066.798.545.215 1.149.566 1.714.507.644-.078 1.306 0 1.93.175.039.02.078.02.117.059s.058.078.078.117c.077.214.136.409.194.604z" fill="#1b1b1b"/><path d="m123.913 166.333c-.546.41-.117 1.053.331 1.325.234.137.526.195.819.215.643.058 1.286.058 1.929-.02.507-.058 1.052-.078 1.539-.234.429-.136.877-.155 1.286-.389.429-.234.565-.741.858-1.111.253-.312.623-.526.857-.857.137-.195.331-.721.078-.858-.857-.448-1.403-1.403-1.968-2.143l-1.228 2.26c-.039.059-.526.117-.584.117-.487.117-.955.253-1.423.409-.584.215-1.149.448-1.695.76-.292.137-.546.331-.799.526z" fill="#2a2a2a"/><path d="m139.931 180.052c.176-.487.449-.916.702-1.364.487-.818.974-1.637 1.461-2.436.566-.935.585-2.124.838-3.157.02-.077.039-.136.078-.214.273-.39 1.384-.312 1.793-.273.546.078 1.091.137 1.617.273.663.176 1.325.409 1.91.799.857.565.624 1.286.487 2.163-.078.448-.156.896-.312 1.325-.234.585-.545 1.111-.974 1.676-.078 0-.156-.02-.234-.02.02 0-.273 1.17-.292 1.247-.175.663-.39 1.17-.76 1.754-.273.429-.585.799-.935 1.169-.702.741-1.52 1.501-2.553 1.754-.195.059-.409.078-.624.078-.35 0-.701-.078-1.032-.175-.488-.156-1.111-.39-1.403-.838-.332-.507-.176-1.189-.176-1.754.02-.662.156-1.344.409-2.007z" fill="#1b1b1b"/><path d="m145.037 174.011c-.331-.195-.701-.41-1.091-.429-.351-.02-.487.136-.662.429-.39.565-.487 1.247-.624 1.89-.117.526-.351 1.033-.545 1.52-.293.701-.838 1.364-1.15 2.026-.37.799-.838 1.832-.702 2.709.02.078.039.175.078.253.156.292.78.507 1.072.604.234.078.468.117.702.117.136.02.604.098.701.02.624-.526 1.267-1.072 1.812-1.696.546-.623.858-1.364 1.306-2.046.409-.662.487-1.403.721-2.143.195-.604.37-1.208.234-1.851-.078-.39-.273-.702-.663-.838-.156-.059-.331-.078-.487-.137-.234-.117-.468-.311-.702-.428z" fill="#2a2a2a"/><path d="m136.521 136.267s2.163 5.612 1.384 9.606c-.78 3.995-.721 4.404-.156 6.197s-2.066 11.925-2.066 11.925-2.611.799-4.442-.467c-1.832-1.267-1.832-1.267-1.832-1.267.234-1.773.487-3.566.721-5.339.253-1.832.604-3.644.799-5.495.136-1.384.097-2.377-.331-3.644-.936-2.65-1.403-5.476-1.423-8.282-.058-5.728 1.462-10.873 1.462-10.873z" fill="#543a2c"/><path d="m130.599 128.628 1.266 1.637c.799 1.384 1.423 2.962 2.514 4.131.682.741 1.52 1.286 2.163 2.066.058.058.078.136.136.214.117.351.312.935.526 1.676-.058 1.227-.857 2.241-1.091 3.468-.117.624-.156 1.267-.175 1.91-.039.857-.078 1.734-.117 2.592-.039.818-.078 1.617-.059 2.435.02.41.039.819.059 1.228.039.468.058.585-.448.662-.799.137-1.637.02-2.378-.292.117 0 .234.078.332.137.799.526 1.578 1.052 2.357 1.617.605.429.234 1.851.156 2.494-.117 1.013-.311 2.027-.565 3.001-.487 2.007-1.188 3.936-1.89 5.865-.078.234-.175.488-.292.702-.624-.078-1.286-.253-1.851-.663-1.832-1.266-1.832-1.266-1.832-1.266.234-1.773.487-3.566.721-5.339.253-1.832.604-3.644.799-5.496.136-1.383.097-2.377-.331-3.643-.936-2.651-1.403-5.476-1.423-8.282-.097-5.69 1.423-10.854 1.423-10.854z" fill="#6e4c39"/><path d="m149.051 174.654s2.046-11.146.877-14.498c-1.169-3.351-1.851-4.521-1.559-6.664s-1.793-10.854-1.793-10.854 1.656-3.839.526-7.424c-1.11-3.585-2.007-4.404-2.007-4.404s-2.923 1.637-8.671-1.422c-5.768-3.06-5.476-3.917-5.476-3.917s-1.968 6.099.468 10.347c2.416 4.229 4.949 5.242 4.949 5.242s1.754 9.684 3.859 13.601c.935 1.734 2.163 3.508 2.572 5.437.429 2.046.117 4.15.019 6.216-.097 2.455-.214 4.91-.311 7.346 0-.019 2.162 3.527 6.547.994z" fill="#6e4c39"/><path d="m144.219 133.636c-.098-.293-1.013-2.417-1.169-2.417 1.364-.058 2.708-.837 2.708-.837s.215 1.227 1.345 4.832c1.11 3.586-.526 7.424-.526 7.424s2.065 8.711 1.792 10.854c-.292 2.144.39 3.313 1.559 6.664 1.169 3.333-.877 14.498-.877 14.498-.623.351-1.188.585-1.734.721 0-.935.546-2.182.682-2.845.312-1.461.565-2.923.721-4.384.292-2.884.176-5.846-.877-8.574-.487-1.267-.721-2.67-1.11-3.975-.234-.799-.449-1.618-.605-2.436-.545-2.884-.253-5.865-.993-8.71-.254-.955-.507-1.93-.565-2.923-.137-2.67.526-5.281-.351-7.892z" fill="#543a2c"/><path d="m128.57 103.315c.156-1.033.507-1.715 1.325-2.572 1.345-1.3839 3.43-.721 3.43-.721.468.078.74.701.838 1.656-.877.195-1.929-.039-2.748-.039-.955.019-1.773.565-2.474 1.228-.137.155-.234.311-.371.448z" fill="#e3d64d"/><path d="m128.63 114.091c.467 7.872.779 17.674.779 17.674s5.164 5.203 17.44 1.208c0 0-2.514-9.275-1.91-10.6.624-1.325 4.833-6.431 4.95-9.471.117-3.059.799-5.592-2.26-8.106-1.696-1.403-3.138-2.591-4.599-3.546-1.13-.76-2.28-1.3643-3.527-1.8514-1.072-.4092-2.397-.3313-3.703 0-2.124.5261-4.15 1.7534-4.813 2.8254-1.091 1.734-2.825 4.014-2.357 11.867z" fill="#ebe56b"/><path d="m138.021 106.725s-2.007 4.852-3.118 9.412c-1.052 4.326-1.578 8.34-1.578 8.34s-.292-10.191-.565-13.893c-.273-3.703.643-6.08.643-6.08s-.059 3.04 4.618 2.221z" fill="#ebe56b"/><path d="m135.8 99.3986c1.305-.3313 2.63-.4092 3.702 0 1.247.4676 2.397 1.0914 3.527 1.8514 1.442.955 2.884 2.124 4.599 3.546 3.059 2.514 2.377 5.047 2.26 8.106-.117 3.06-4.326 8.165-4.949 9.471-.624 1.305 1.909 10.6 1.909 10.6-1.325.429-3.001.838-4.637 1.306 0 0-.117-6.392-.098-6.626.136-3.312.02-7.19 1.345-10.308.604-1.442 1.617-2.689 2.65-3.877.565-.644.74-1.384.955-2.202.214-.838.428-1.676.506-2.553.039-.37.039-.76-.097-1.111-.137-.351-.39-.623-.643-.896-1.208-1.267-2.728-2.943-4.365-3.625-1.676-.701-3.605-1.032-5.398-1.227-1.832-.195-3.722-.331-5.573-.215.897-.896 2.572-1.7923 4.307-2.2404z" fill="#e3d64d"/><path d="m133.793 104.699c-.371 1.851 1.753 3.176 3.293 2.085.76-.526 1.598-1.169 2.455-1.871 3.059-2.553 3.488-3.663 3.488-3.663-1.13-.76-2.28-1.3643-3.527-1.8514-1.072-.4092-2.397-.3313-3.702 0 0 0-1.52 3.0204-1.988 5.2414 0 .02 0 .039-.019.059z" fill="#d18d6d"/><path d="m139.191 104.446c.156-.858.195-1.754.117-2.612-.078-.799-.273-1.578-.312-2.3964 0-.0585 0-.1169.02-.1754.175.039.351.078.506.1364 1.248.4677 2.397 1.0914 3.527 1.8514 0 0-.448 1.091-3.488 3.663-.233.195-.467.37-.721.565.137-.409.312-.799.351-1.032z" fill="#c77752"/><path d="m142.523 100.841c.038-.02.077-.039.136-.039.234-.02.37.175.565.292.351.234.702.468 1.072.701.428.273-.117 1.014-.254 1.287-.253.506-.584.974-.974 1.403-.682.74-1.578 1.305-2.455 1.792-.643.351-1.306.663-1.988.897-.273.097-1.792.838-1.948.623-.039-.039.019-.351.019-.429-.019-.194-.039-.389-.058-.584-.039-.351-.117-.721-.117-1.052 0-.332.175-.254.467-.293.644-.097 1.345-.448 1.91-.76.76-.428 1.423-.974 2.066-1.539.565-.507.954-1.247 1.286-1.929.039-.137.117-.312.273-.37z" fill="#f4ed6e"/><path d="m132.527 101.445c-.039-.429.019-.994.506-1.189.312-.117.702.058.936.234.312.234.37.409.292.779-.175.838-.097 1.695.312 2.455.097.176.214.371.175.585-.019.117-.097.214-.175.312-.468.623-.76 1.422-.935 2.182-.273-.136-.41-.448-.546-.721-.214-.487-.448-.974-.663-1.461-.078-.156-.156-.331-.175-.487-.039-.195-.019-.39-.019-.565.019-.351.038-.663.155-.994.098-.371.156-.76.137-1.13z" fill="#f4ed6e"/><path d="m141.899 98.2487.214 2.4363s-1.52 1.89-3.994 2.883c-2.475 1.014-3.216.429-3.216.429l-.409-5.2611c-.019 0 6.548-3.3127 7.405-.4872z" fill="#deb08a"/><path d="m141.9 98.2489.214 2.4361s-1.033 1.266-2.787 2.28c0-.371 0-.76-.039-1.131-.078-.799-.272-1.578-.311-2.3965-.02-.7989.233-1.5394.428-2.2993 1.189-.117 2.183.1169 2.495 1.1107z" fill="#d18d6d"/><path d="m132.371 101.192c.273 1.578 1.793 2.026 3.82 1.578.993-.214 2.026-.877 2.806-1.461.311-.254.584-.468.798-.663.059-.058.137-.117.195-.175.039-.059.117-.098.156-.156.137-.137.215-.215.215-.215 5.124-5.6505 1.909-6.1961.818-8.6708-.078-.1949-.175-.3703-.312-.5457-.078-.1364-.195-.2922-.312-.4092-1.578-1.8901-4.969-2.9034-6.586-2.6306-1.247.2144-2.085 1.1107-2.631 2.1825-.272.5456-.487 1.1107-.623 1.6758-.02.0779-.039.1559-.039.2533-.273 1.9486 1.422 7.7165 1.695 9.2367z" fill="#f0b88f"/><path d="m130.637 91.9549c.019.0195.039.039.039.039.331.1753.721.1948 1.091.2338 1.033.0585 2.085.0974 3.079-.0974.429-.078 1.033-.3118 1.481-.117.331.1559.721.4677.916.7795.097.1559.175.3507.253.5261.273.6431.623 1.2861.662 1.9876.059.7015.156 1.4225.254 2.1045.078.5456.312.9938.487 1.5199.234.7405.195 1.5591.058 2.3971.312-.254.585-.468.799-.663.059-.078.137-.136.195-.175.059-.059.117-.117.156-.156.136-.136.214-.214.214-.214 5.125-5.6514 1.91-6.197.819-8.6717-.078-.1949-.176-.3703-.312-.5457-.078-.1364-.195-.2923-.312-.4092-.779-.8184-1.948-1.2666-3.059-1.4419-.721-.0975-1.442-.1364-2.163-.078-.935.078-1.929.2338-2.787.6431-.272.1364-.74.2533-1.188.4286-.273.5457-.487 1.1108-.624 1.6759-.019.0584-.039.1364-.058.2338z" fill="#df9876"/><path d="m139.426 97.0791c.409.0389.273-.2339.331-.5457.117-.5261.234-1.0522.409-1.5588.117-.3703.273-.8185.546-1.1108.37-.4092 1.033-.4092 1.383.0585.254.3313.332 1.0133.254 1.442-.078.3507-.273.682-.449 1.0133-.506.8768-.935 1.7537-.915 2.806 0 .0974.097.5066.058.5651.312-.2339.604-.4677.857-.7015 1.111-1.0328 1.891-2.3774 2.241-3.8583.273-1.1302.429-2.2799.351-3.449-.136-1.7343-.74-3.9557-2.163-5.1054-1.598-1.3056-3.449-2.0655-5.553-1.6758-1.969.3507-3.644 1.6953-4.95 3.1373-.799.8768-1.111 2.1434-1.13 3.5075.448-.3898.76-.6626 1.968-.7015 3.488-.0975 5.495.5845 5.729 2.6695.078.721.214 1.4615.312 2.1825.039.3508.019.721.136.9938.098.1754.253.3118.585.3313z" fill="#4f2900"/><path d="m135.606 86.1088c-.701.1754-1.403.4872-2.085.7795-.195.0779-.37.1753-.565.2533-.156.0779-.312.1559-.467.2338 1.188-1.1497 2.63-2.1435 4.267-2.4358 2.104-.3897 3.956.3703 5.554 1.6758 1.403 1.1497 2.026 3.3711 2.163 5.1054.077 1.1692-.078 2.3189-.351 3.4491-.293 1.1886-.877 2.2993-1.657 3.2152.039-.1754.078-.3508.117-.4872.176-.8574.312-1.7342.41-2.5916.175-1.52.116-2.9814-.117-4.5013-.39-2.6501-2.67-4.3454-5.223-4.8131-.682-.1364-1.364-.0585-2.046.1169z" fill="#422200"/><path d="m116.489 123.834c.117.312.117.507-.215.624-.331.117-.506.273-.682.604-.136.253-.234.526-.409.76-.078.117-.195.234-.312.273-.214.078-.448-.039-.643-.137-.039-.019-.078-.039-.117-.078-.058-.078-.039-.194-.058-.272-.059-.156-.253-.215-.37-.351-.195-.292-.565-.059-.643-.546-.02-.175 0-.351-.059-.506-.078-.254-.351-.429-.409-.702-.039-.136-.02-.292-.097-.409-.117-.214-.449-.253-.585-.448-.078-.137-.078-.312-.058-.468.097-.721.331-1.403.662-2.046.117-.234.273-.643.526-.779.234-.137.624-.039.877-.02.468.02.935.059 1.403.098.156.019.312.019.468.038.409.02.721.098 1.091.273.292.156.643.293.955.312.136 0 .253 0 .389-.019.721-.078 1.384-.234 2.046-.527.507-.233 1.033-.467 1.52-.74 1.014-.565 1.949-1.228 2.826-1.968.331-.273.662-.585 1.072-.702 1.422-.389 2.085 1.403 1.89 2.514-.039.175-.098.351-.195.507-.117.175-.273.292-.429.428-.662.527-1.208 1.131-2.026 1.423-.702.253-1.462.331-2.183.526-1.598.429-3.196.779-4.852.857-.39.02-.818.176-1.13.41-.312.175-.37.701-.253 1.071z" fill="#f1bc95"/><path d="m122.743 121.438c-1.598.428-3.196.779-4.852.857-.175 0-.39.019-.565.078.078-.059.156-.117.253-.156.975-.39 2.046-.39 3.06-.643.526-.117 1.032-.312 1.539-.507.312-.117.643-.233.955-.35.448-.176.896-.332 1.325-.527.935-.428 1.793-.974 2.572-1.656.195-.175.37-.39.585-.545.019.194 0 .389-.02.584-.039.175-.097.351-.195.507-.117.175-.273.292-.428.428-.663.527-1.209 1.131-2.027 1.423-.74.234-1.481.312-2.202.507z" fill="#d18d6d"/><path d="m115.359 120.522h-.02l1.734 4.482c.117.311.059.682-.156.935l-.779.974-.136.858-.488-.078-.078-.02c-.077-.039-.155-.097-.194-.195l-2.066-5.339c-.136-.331-.078-.721.156-1.013l1.286-1.578c.078-.098.195-.137.292-.117l.585.097z" fill="#6f6f6f"/><path d="m115.241 127.478-.214-.526 1.072.156-.078.506z" fill="#3f3f3f"/><path d="m114.931 119.43.584.078-.155.994h-.02l.234.604-.39 1.345-1.578-.254-.409-.077c-.137-.332-.078-.721.156-1.014l1.286-1.578c.058-.059.175-.098.292-.098z" fill="#3f3f3f"/><path d="m113.137 122.042c-.078-.254-.039-.546.098-.76l.526.078-.117.76z" fill="#242424"/><path d="m114.715 119.567-1.286 1.578c-.233.293-.292.663-.155 1.014l2.065 5.339c.039.097.117.156.195.195h-.02l-.078-.02c-.077-.039-.155-.097-.194-.195l-2.066-5.339c-.136-.331-.078-.721.156-1.013l1.286-1.578c.078-.098.195-.137.292-.117l.098.019c-.098-.019-.215.02-.293.117z" fill="#212121"/><path d="m113.721 122.236 2.066 5.34c.097.253.428.292.584.097l1.306-1.617c.214-.273.272-.624.156-.936l-2.085-5.378c-.098-.253-.429-.292-.585-.097l-1.267 1.578c-.253.273-.311.663-.175 1.013z" fill="#6f6f6f"/><path d="m116.197 127.692c.039-.019.078-.039.117-.078l1.306-1.617c.195-.234.253-.565.136-.857l-2.085-5.378c-.019-.078-.078-.117-.136-.156-.059-.02-.137-.02-.195 0-.039.019-.078.039-.117.078l-1.267 1.578c-.214.253-.273.624-.136.935l2.065 5.34c.02.077.078.116.137.155.039.02.117.02.175 0z" fill="#000"/><path d="m116.215 127.576c.02-.02.059-.02.078-.059l1.306-1.617c.175-.215.214-.507.117-.78l-2.085-5.378c-.02-.039-.059-.078-.098-.097-.039-.02-.097-.02-.136 0-.02.019-.059.019-.078.058l-1.267 1.579c-.195.233-.234.565-.136.837l2.065 5.34c.02.039.059.078.098.097.039.039.097.039.136.02z" fill="#4e4e4e"/><path d="m115.145 119.645-1.266 1.578c-.234.292-.293.662-.156 1.013l2.065 5.339c.039.098.117.176.215.195-.137 0-.273-.078-.332-.214l-2.065-5.339c-.137-.332-.078-.721.156-1.014l1.266-1.578c.098-.117.254-.156.37-.097-.077-.02-.175.019-.253.117z" fill="#404040"/><path d="m114.443 117.287h-.019l1.734 4.482c.117.311.059.682-.136.935l-1.267 1.559-.136.857-.487-.078-.078-.019c-.078-.039-.156-.098-.195-.195l-2.066-5.339c-.136-.332-.078-.721.156-1.014l1.773-2.163c.078-.097.195-.136.293-.116l.584.097z" fill="#6f6f6f"/><path d="m113.858 124.828-.214-.526 1.071.156-.078.507z" fill="#3f3f3f"/><path d="m114.015 116.196.584.078-.156.994h-.019l.234.604-.877 1.929-1.579-.253-.409-.078c-.136-.332-.078-.721.156-1.014l1.773-2.163c.078-.058.195-.097.293-.097z" fill="#3f3f3f"/><path d="m111.754 119.391c-.078-.254-.039-.546.097-.76l.526.078-.117.76z" fill="#242424"/><path d="m113.819 116.353-1.773 2.163c-.234.292-.293.662-.156 1.013l2.065 5.339c.039.098.117.156.195.195v.02h-.019l-.078-.02c-.078-.039-.156-.097-.195-.195l-2.066-5.339c-.136-.331-.078-.721.156-1.013l1.773-2.163c.078-.098.195-.137.293-.117l.097.019c-.117-.039-.214 0-.292.098z" fill="#212121"/><path d="m112.338 119.587 2.066 5.339c.097.253.429.292.584.097l1.774-2.202c.214-.273.272-.623.156-.935l-2.085-5.378c-.098-.254-.429-.293-.585-.098l-1.754 2.163c-.234.273-.292.663-.156 1.014z" fill="#6f6f6f"/><path d="m114.812 125.042c.039-.019.078-.039.117-.078l1.773-2.201c.195-.234.254-.566.137-.858l-2.085-5.378c-.02-.078-.078-.117-.137-.156-.058-.019-.136-.019-.195 0-.039.02-.078.039-.117.078l-1.753 2.163c-.215.253-.273.624-.137.935l2.066 5.339c.019.078.078.117.136.156.059.02.137.02.195 0z" fill="#000"/><path d="m114.832 124.925c.02-.019.059-.019.078-.058l1.773-2.202c.176-.215.215-.507.117-.78l-2.085-5.378c-.019-.039-.058-.078-.097-.097-.039-.02-.098-.02-.137 0-.019.019-.058.019-.078.058l-1.753 2.163c-.195.234-.234.565-.137.838l2.066 5.339c.019.039.058.078.097.098.059.039.117.039.156.019z" fill="#4e4e4e"/><path d="m114.249 116.409-1.754 2.163c-.234.293-.292.663-.156 1.014l2.066 5.339c.039.097.117.175.214.195-.136 0-.273-.078-.331-.215l-2.066-5.339c-.136-.331-.078-.721.156-1.013l1.754-2.163c.097-.117.253-.156.37-.098-.097 0-.195.039-.253.117z" fill="#404040"/><path d="m116.43 121.632-1.676-4.326-1.929 2.377 1.676 4.326z" fill="#0a0a0a"/><path d="m114.521 123.912 1.851-2.279-1.637-4.229-1.851 2.299z" fill="#2a8dde"/><path d="m114.521 123.912 1.851-2.279-1.637-4.229z" fill="#0262c2"/><path d="m117.054 123.308-1.773 2.728-.448-1.111 1.929-2.358z" fill="#000"/><path d="m116.586 122.236-1.871 1.929.721 1.891 1.929-1.793z" fill="#4e4e4e"/><g fill="#212121"><path d="m116.216 123.503.234-.293.156.371-.253.292z"/><path d="m115.904 123.893.234-.292.156.37-.253.292z"/><path d="m115.592 124.282.234-.292.156.37-.253.292z"/><path d="m115.28 124.672.234-.292.156.37-.253.292z"/><path d="m116.45 124.126.254-.292.136.37-.234.292z"/><path d="m116.138 124.516.254-.292.136.37-.234.292z"/><path d="m115.826 124.905.254-.292.136.37-.234.293z"/><path d="m115.514 125.295.253-.292.137.37-.234.292z"/><path d="m116.704 124.75.234-.292.136.37-.234.293z"/><path d="m116.392 125.14.233-.292.137.37-.234.292z"/><path d="m116.08 125.529.233-.292.137.37-.234.293z"/><path d="m115.767 125.92.234-.293.137.371-.234.292z"/><path d="m116.938 125.374.233-.293.156.371-.234.292z"/><path d="m116.626 125.763.233-.292.156.37-.234.293z"/><path d="m116.313 126.153.234-.292.156.37-.234.292z"/><path d="m116.001 126.543.234-.292.156.37-.234.292z"/></g><path d="m116.1 123.211.234-.293.156.371-.254.292z" fill="#a36400"/><path d="m115.788 123.601.234-.292.156.37-.254.292z" fill="#a3a3a3"/><path d="m115.476 123.99.234-.292.156.37-.234.293z" fill="#a3a3a3"/><path d="m115.164 124.38.234-.312.156.39-.234.292z" fill="#a3a3a3"/><path d="m116.332 123.834.254-.292.136.37-.234.292z" fill="#a36400"/><path d="m116.02 124.224.253-.292.137.37-.234.293z" fill="#a3a3a3"/><path d="m115.729 124.613.234-.292.136.37-.234.293z" fill="#a3a3a3"/><path d="m115.417 125.003.234-.312.136.37-.234.312z" fill="#a3a3a3"/><path d="m116.587 124.458.234-.292.136.37-.233.293z" fill="#a36400"/><path d="m116.275 124.848.234-.292.136.37-.233.292z" fill="#a3a3a3"/><path d="m115.963 125.238.234-.312.136.37-.234.312z" fill="#a3a3a3"/><path d="m115.651 125.607.234-.292.156.37-.254.312z" fill="#a3a3a3"/><path d="m116.821 125.082.234-.293.156.371-.234.292z" fill="#a36400"/><path d="m116.509 125.471.234-.312.156.371-.234.311z" fill="#004000"/><path d="m116.197 125.861.234-.311.156.37-.234.312z" fill="#a3a3a3"/><path d="m115.885 126.231.253-.292.137.37-.234.292z" fill="#004000"/><path d="m116.117 123.211.234-.293.137.371-.234.292z" fill="#a86700"/><path d="m115.807 123.601.234-.292.136.37-.233.292z" fill="#a8a8a8"/><path d="m115.495 123.99.234-.292.156.37-.253.292z" fill="#a8a8a8"/><path d="m115.183 124.38.234-.292.156.37-.254.292z" fill="#a8a8a8"/><path d="m116.353 123.834.234-.292.156.37-.234.292z" fill="#a86700"/><path d="m116.041 124.224.234-.292.156.37-.234.293z" fill="#a8a8a8"/><path d="m115.729 124.613.253-.292.137.37-.234.293z" fill="#a8a8a8"/><path d="m115.417 125.003.253-.292.137.37-.234.292z" fill="#a8a8a8"/><path d="m116.604 124.458.234-.292.137.37-.234.292z" fill="#a86700"/><path d="m116.294 124.848.234-.292.137.37-.234.293z" fill="#a8a8a8"/><path d="m115.982 125.237.234-.292.136.37-.233.293z" fill="#a8a8a8"/><path d="m115.67 125.627.234-.292.136.37-.233.293z" fill="#a8a8a8"/><path d="m116.84 125.081.234-.292.156.37-.253.293z" fill="#a86700"/><path d="m116.528 125.472.234-.293.156.371-.253.292z" fill="#004500"/><path d="m116.216 125.861.234-.292.156.37-.253.292z" fill="#a8a8a8"/><path d="m115.904 126.251.234-.293.156.371-.234.292z" fill="#004500"/><path d="m116.138 123.23.234-.312.136.37-.233.312z" fill="#ae6b00"/><path d="m115.826 123.601.234-.292.136.37-.234.292z" fill="#aeaeae"/><path d="m115.514 123.99.234-.292.136.37-.234.292z" fill="#aeaeae"/><path d="m115.202 124.38.234-.292.136.37-.234.292z" fill="#aeaeae"/><path d="m116.372 123.834.234-.293.156.37-.253.293z" fill="#ae6b00"/><path d="m116.06 124.224.234-.292.156.37-.253.292z" fill="#aeaeae"/><path d="m115.748 124.613.234-.292.156.37-.234.292z" fill="#aeaeae"/><path d="m115.436 125.003.234-.292.156.37-.234.292z" fill="#aeaeae"/><path d="m116.604 124.458.254-.292.136.37-.234.292z" fill="#ae6b00"/><path d="m116.292 124.848.254-.292.136.37-.234.292z" fill="#aeaeae"/><path d="m116.001 125.237.234-.292.136.37-.233.292z" fill="#aeaeae"/><path d="m115.689 125.627.234-.292.136.37-.234.292z" fill="#aeaeae"/><path d="m116.859 125.081.234-.292.136.37-.233.292z" fill="#ae6b00"/><path d="m116.547 125.471.234-.292.136.37-.233.293z" fill="#004b00"/><path d="m116.235 125.861.234-.293.136.371-.233.292z" fill="#aeaeae"/><path d="m115.923 126.251.234-.293.156.37-.254.293z" fill="#004b00"/><path d="m116.138 123.23.254-.293.136.37-.234.293z" fill="#b36e00"/><path d="m115.847 123.619.234-.292.136.37-.234.293z" fill="#b3b3b3"/><path d="m115.535 124.009.234-.311.136.37-.234.312z" fill="#b3b3b3"/><path d="m115.223 124.398.234-.311.136.37-.234.312z" fill="#b3b3b3"/><path d="m116.393 123.853.234-.293.137.371-.234.292z" fill="#b36e00"/><path d="m116.081 124.242.234-.312.136.39-.233.292z" fill="#b3b3b3"/><path d="m115.769 124.632.234-.312.156.371-.253.311z" fill="#b3b3b3"/><path d="m115.457 125.002.234-.292.156.37-.254.292z" fill="#b3b3b3"/><path d="m116.627 124.476.234-.311.156.389-.234.293z" fill="#b36e00"/><path d="m116.315 124.867.234-.312.156.37-.234.312z" fill="#b3b3b3"/><path d="m116.003 125.236.254-.292.136.37-.234.292z" fill="#b3b3b3"/><path d="m115.691 125.626.253-.292.137.37-.234.293z" fill="#b3b3b3"/><path d="m116.88 125.101.234-.312.137.37-.234.312z" fill="#b36e00"/><path d="m116.568 125.471.234-.292.136.37-.233.312z" fill="#005000"/><path d="m116.256 125.86.234-.292.136.37-.233.293z" fill="#b3b3b3"/><path d="m115.944 126.251.234-.293.136.37-.233.293z" fill="#005000"/><path d="m116.159 123.23.234-.293.156.37-.234.293z" fill="#b97100"/><path d="m115.847 123.619.253-.292.137.37-.234.293z" fill="#b9b9b9"/><path d="m115.535 124.009.253-.292.137.37-.234.292z" fill="#b9b9b9"/><path d="m115.223 124.399.253-.293.137.371-.234.292z" fill="#b9b9b9"/><path d="m116.41 123.853.234-.293.137.371-.234.292z" fill="#b97100"/><path d="m116.1 124.243.234-.293.136.371-.233.292z" fill="#b9b9b9"/><path d="m115.788 124.632.234-.293.136.371-.234.292z" fill="#b9b9b9"/><path d="m115.476 125.022.234-.292.136.37-.234.292z" fill="#b9b9b9"/><path d="m116.646 124.477.234-.292.156.37-.253.292z" fill="#b97100"/><path d="m116.334 124.867.234-.293.156.371-.253.292z" fill="#b9b9b9"/><path d="m116.022 125.256.234-.292.156.37-.234.292z" fill="#b9b9b9"/><path d="m115.71 125.646.234-.312.156.39-.234.292z" fill="#b9b9b9"/><path d="m116.878 125.1.254-.292.136.37-.234.293z" fill="#b97100"/><path d="m116.587 125.49.234-.292.136.37-.233.293z" fill="#005600"/><path d="m116.275 125.88.234-.293.136.371-.233.292z" fill="#b9b9b9"/><path d="m115.963 126.269.234-.312.136.371-.234.311z" fill="#005600"/><path d="m116.178 123.23.234-.293.156.37-.234.293z" fill="#be7500"/><path d="m115.866 123.619.234-.292.156.37-.234.293z" fill="#bebebe"/><path d="m115.554 124.009.234-.292.156.37-.234.292z" fill="#bebebe"/><path d="m115.242 124.399.234-.293.156.371-.234.292z" fill="#bebebe"/><path d="m116.431 123.853.234-.293.136.371-.233.292z" fill="#be7500"/><path d="m116.119 124.243.234-.293.136.371-.233.292z" fill="#bebebe"/><path d="m115.807 124.632.234-.293.136.371-.234.292z" fill="#bebebe"/><path d="m115.495 125.022.234-.292.136.37-.234.292z" fill="#bebebe"/><path d="m116.665 124.477.234-.292.137.37-.234.292z" fill="#be7500"/><path d="m116.353 124.867.234-.293.136.371-.233.292z" fill="#bebebe"/><path d="m116.041 125.256.234-.292.156.37-.254.292z" fill="#bebebe"/><path d="m115.729 125.646.234-.292.156.37-.254.292z" fill="#bebebe"/><path d="m116.897 125.1.234-.292.156.37-.234.293z" fill="#be7500"/><path d="m116.587 125.49.254-.292.136.37-.234.293z" fill="#005b00"/><path d="m116.275 125.88.254-.293.136.371-.234.292z" fill="#bebebe"/><path d="m115.963 126.27.253-.293.137.371-.234.292z" fill="#005b00"/><path d="m116.197 123.249.234-.292.156.37-.253.293z" fill="#c37800"/><path d="m115.885 123.639.234-.312.156.371-.253.311z" fill="#c3c3c3"/><path d="m115.573 124.029.234-.312.156.371-.254.311z" fill="#c3c3c3"/><path d="m115.261 124.399.234-.293.156.371-.254.292z" fill="#c3c3c3"/><path d="m116.431 123.873.254-.311.136.37-.234.312z" fill="#c37800"/><path d="m116.119 124.263.253-.312.137.371-.234.311z" fill="#c3c3c3"/><path d="m115.807 124.633.253-.292.137.37-.234.292z" fill="#c3c3c3"/><path d="m115.495 125.023.253-.292.137.37-.234.292z" fill="#c3c3c3"/><path d="m116.684 124.496.234-.311.136.37-.233.312z" fill="#c37800"/><path d="m116.372 124.867.234-.293.136.371-.233.292z" fill="#c3c3c3"/><path d="m116.06 125.256.234-.292.136.37-.234.292z" fill="#c3c3c3"/><path d="m115.748 125.646.234-.292.136.37-.234.292z" fill="#c3c3c3"/><path d="m116.918 125.101.234-.292.156.37-.253.293z" fill="#c37800"/><path d="m116.606 125.491.234-.292.156.37-.234.292z" fill="#006000"/><path d="m116.294 125.881.234-.293.156.371-.234.292z" fill="#c3c3c3"/><path d="m115.982 126.271.234-.292.156.37-.234.292z" fill="#006000"/><path d="m116.216 123.249.234-.292.136.37-.234.293z" fill="#c97b00"/><path d="m115.904 123.64.234-.293.136.371-.234.292z" fill="#c9c9c9"/><path d="m115.592 124.029.234-.293.136.371-.234.292z" fill="#c9c9c9"/><path d="m115.28 124.419.234-.293.136.371-.234.292z" fill="#c9c9c9"/><path d="m116.45 123.873.234-.292.156.37-.234.292z" fill="#c97b00"/><path d="m116.138 124.263.234-.293.156.371-.234.292z" fill="#c9c9c9"/><path d="m115.826 124.652.234-.292.156.37-.234.292z" fill="#c9c9c9"/><path d="m115.514 125.041.234-.312.156.39-.234.293z" fill="#c9c9c9"/><path d="m116.703 124.497.234-.292.137.37-.234.292z" fill="#c97b00"/><path d="m116.391 124.887.234-.292.136.37-.233.292z" fill="#c9c9c9"/><path d="m116.079 125.276.234-.311.136.389-.233.293z" fill="#c9c9c9"/><path d="m115.767 125.666.234-.312.136.37-.233.312z" fill="#c9c9c9"/><path d="m116.938 125.12.233-.292.137.37-.234.293z" fill="#c97b00"/><path d="m116.625 125.51.234-.312.156.39-.253.292z" fill="#060"/><path d="m116.313 125.9.234-.312.156.37-.253.312z" fill="#c9c9c9"/><path d="m116.001 126.27.234-.293.156.371-.253.292z" fill="#060"/><path d="m116.235 123.249.234-.292.136.37-.233.293z" fill="#ce7e00"/><path d="m115.925 123.64.234-.293.136.371-.233.292z" fill="#cecece"/><path d="m115.613 124.029.234-.293.136.371-.234.292z" fill="#cecece"/><path d="m115.301 124.419.234-.293.136.371-.234.292z" fill="#cecece"/><path d="m116.471 123.873.234-.292.156.37-.253.292z" fill="#ce7e00"/><path d="m116.159 124.263.234-.293.156.371-.253.292z" fill="#cecece"/><path d="m115.847 124.652.234-.292.156.37-.254.292z" fill="#cecece"/><path d="m115.535 125.042.234-.292.156.37-.254.292z" fill="#cecece"/><path d="m116.705 124.497.254-.292.136.37-.234.292z" fill="#ce7e00"/><path d="m116.393 124.887.254-.292.136.37-.234.292z" fill="#cecece"/><path d="m116.081 125.276.254-.292.136.37-.234.292z" fill="#cecece"/><path d="m115.769 125.666.253-.292.137.37-.234.293z" fill="#cecece"/><path d="m116.958 125.12.234-.292.136.37-.233.293z" fill="#ce7e00"/><path d="m116.646 125.51.234-.292.136.37-.234.293z" fill="#006b00"/><path d="m116.334 125.899.234-.292.136.37-.234.292z" fill="#cecece"/><path d="m116.022 126.29.234-.293.136.371-.234.292z" fill="#006b00"/><path d="m116.235 123.269.254-.312.136.37-.234.312z" fill="#d48200"/><path d="m115.925 123.659.254-.312.136.371-.234.311z" fill="#d4d4d4"/><path d="m115.613 124.029.253-.293.137.371-.234.292z" fill="#d4d4d4"/><path d="m115.301 124.419.253-.293.137.371-.234.292z" fill="#d4d4d4"/><path d="m116.49 123.892.234-.311.136.37-.233.312z" fill="#d48200"/><path d="m116.178 124.263.234-.293.136.371-.233.292z" fill="#d4d4d4"/><path d="m115.866 124.652.234-.292.136.37-.233.292z" fill="#d4d4d4"/><path d="m115.554 125.042.234-.292.136.37-.234.292z" fill="#d4d4d4"/><path d="m116.722 124.497.234-.292.156.37-.234.292z" fill="#d48200"/><path d="m116.412 124.887.234-.292.156.37-.234.292z" fill="#d4d4d4"/><path d="m116.1 125.276.234-.292.156.37-.234.292z" fill="#d4d4d4"/><path d="m115.788 125.666.234-.292.156.37-.234.293z" fill="#d4d4d4"/><path d="m116.978 125.12.233-.292.137.37-.234.293z" fill="#d48200"/><path d="m116.666 125.51.233-.292.137.37-.234.293z" fill="#007100"/><path d="m116.354 125.899.233-.292.137.37-.234.292z" fill="#d4d4d4"/><path d="m116.041 126.29.234-.293.137.371-.234.292z" fill="#007100"/><path d="m116.256 123.269.234-.293.156.371-.234.292z" fill="#d98500"/><path d="m115.944 123.659.234-.293.156.37-.234.293z" fill="#d9d9d9"/><path d="m115.632 124.047.234-.292.156.37-.234.293z" fill="#d9d9d9"/><path d="m115.32 124.438.234-.312.156.37-.234.312z" fill="#d9d9d9"/><path d="m116.509 123.892.234-.293.136.371-.234.292z" fill="#d98500"/><path d="m116.197 124.282.234-.293.136.37-.234.293z" fill="#d9d9d9"/><path d="m115.885 124.672.234-.312.136.37-.234.312z" fill="#d9d9d9"/><path d="m115.573 125.061.234-.312.136.37-.234.312z" fill="#d9d9d9"/><path d="m116.743 124.516.234-.292.156.37-.253.292z" fill="#d98500"/><path d="m116.431 124.905.234-.311.156.37-.253.312z" fill="#d9d9d9"/><path d="m116.119 125.296.234-.312.156.37-.253.312z" fill="#d9d9d9"/><path d="m115.807 125.665.234-.292.156.37-.254.293z" fill="#d9d9d9"/><path d="m116.977 125.14.254-.312.136.37-.234.312z" fill="#d98500"/><path d="m116.665 125.53.254-.312.136.37-.234.312z" fill="#007600"/><path d="m116.353 125.899.254-.292.136.37-.234.293z" fill="#d9d9d9"/><path d="m116.041 126.29.253-.293.137.371-.234.292z" fill="#007600"/><path d="m116.256 123.269.234-.292.156.37-.234.292z" fill="#ff9d00"/><path d="m115.944 123.659.234-.293.156.371-.234.292z" fill="#fff"/><path d="m115.632 124.048.234-.292.156.37-.234.292z" fill="#fff"/><path d="m115.32 124.438.234-.312.156.37-.234.312z" fill="#fff"/><path d="m116.509 123.892.234-.292.136.37-.233.292z" fill="#ff9d00"/><path d="m116.197 124.282.234-.292.136.37-.234.292z" fill="#fff"/><path d="m115.885 124.672.234-.312.136.37-.234.312z" fill="#fff"/><path d="m115.573 125.061.234-.312.136.371-.234.311z" fill="#fff"/><path d="m116.743 124.516.234-.292.156.37-.253.292z" fill="#ff9d00"/><path d="m116.431 124.906.234-.312.156.37-.253.312z" fill="#fff"/><path d="m116.119 125.296.234-.312.156.37-.253.312z" fill="#fff"/><path d="m115.807 125.666.234-.293.156.371-.253.292z" fill="#fff"/><path d="m116.978 125.14.253-.312.136.37-.234.312z" fill="#ff9d00"/><path d="m116.665 125.53.254-.311.136.37-.234.312z" fill="#009c00"/><path d="m116.353 125.9.254-.293.136.371-.234.292z" fill="#fff"/><path d="m116.041 126.29.254-.292.136.37-.234.292z" fill="#009c00"/><path d="m114.539 123.522 1.618-2.007-1.442-3.702-1.617 2.007z" fill="#fff"/><path d="m113.448 120.19 1.345-1.676-.019-.078-1.364 1.676z" fill="#000"/><path d="m113.586 120.561 1.344-1.696-.019-.078-1.364 1.676z" fill="#000"/><path d="m113.723 120.911 1.344-1.676-.019-.078-1.364 1.676z" fill="#000"/><path d="m113.859 121.282 1.364-1.696-.039-.077-1.344 1.675z" fill="#000"/><path d="m114.287 121.301.799-.994.175.468-.799 1.013z" fill="#ff9500"/><path d="m114.306 122.353 1.325-1.637.292.78-1.305 1.636z" fill="#aeaeae"/><path d="m124.284 117.209c-.117-.175-.039-.429.176-.565.214-.137.467-.117.584.078.117.175.039.428-.175.565-.195.136-.468.097-.585-.078z" fill="#0e0e0e"/><path d="m116.47 121.983c0-.039 0-.059.019-.098l.39-.74 7.132-4.462c.136-.098.312-.117.467-.059.059.02.117.059.176.098h.019c.02.019.059.039.078.078.059.078.117.155.137.272.019.137 0 .254-.059.371-.039.078-.117.155-.195.214l-7.132 4.462-.194.02-.585.078c-.02 0-.058 0-.078 0-.097-.02-.175-.117-.175-.234z" fill="#232323"/><path d="m116.47 121.983c0-.039 0-.058.019-.097l.195-.39 7.794-4.871c.059.019.117.058.176.097h.019c.02.019.059.039.078.078.059.078.117.156.137.273.019.136 0 .253-.059.37l-7.521 4.696-.585.078c-.02 0-.058 0-.078 0-.097-.019-.175-.117-.175-.234z" fill="#454545"/><path d="m116.47 121.983 8.281-5.183c.059.078.117.155.137.272l-8.243 5.145c-.097-.02-.175-.117-.175-.234z" fill="#616161"/><path d="m116.722 122.236.76-.097s.078-.195-.117-.507-.487-.448-.487-.448l-.39.74c-.078.137.059.332.234.312z" fill="#202020"/><path d="m116.411 122.294c.058-.039.156-.078.214-.117 0 0 .059-.058.039-.136-.039-.078-.117-.078-.117-.078s-.058.039-.117.059c-.039.039-.194.136-.194.214.019.078.117.078.175.058z" fill="#000"/><path d="m117.21 118.982c-.156.156-.273.331-.409.526-.156.234-.214.468-.312.721-.078.234-.175.487-.039.721.078.136.215.234.273.37.058.117.058.254.117.351.097.195.37.253.468.448.019.059.019.137.039.215.097.565.623.74 1.091.876.351.117.409.527.838.468.389-.039.857-.312 1.227-.234.39.078.702.351 1.053.526 0 0 .019.02.038.02.429.234.858.507 1.326.662.35.117.721.273 1.052.41 1.227.526 2.436 1.091 3.663 1.636.351.176.721.312 1.072.449.175.058.331.136.487.195.292.116.585.233.857.331.332.117.858.409 1.189.273.39-.195.702-.76.877-1.15.136-.292.351-.76.351-1.091 0-.312-.312-.682-.487-.936-.41-.565-.936-1.091-1.501-1.539-.429-.37-1.383-.273-1.929-.312-.935-.078-1.871-.136-2.806-.292-.624-.098-1.247-.253-1.832-.487-.857-.37-1.675-.799-2.494-1.208-.545-.273-.994-.566-1.422-.994-.332-.331-.682-.643-1.072-.916-.175-.136-.37-.253-.585-.37-.136-.078-.253-.137-.389-.117-.117.019-.273.117-.39.156-.098.097-.234.175-.351.292z" fill="#f1bc95"/><path d="m131.668 122.412c-.019 0-.058.019-.058.039-.019.019-.019.039-.019.058-.02.37.097.624.175.974.214.838.487 1.715.994 2.417.117.175.253.331.409.448.156.136.507.643.76.526.721-.331 1.208-.974 1.812-1.481.234-.195.487-.37.741-.546.545-.35 1.091-.682 1.675-.974.468-.234.955-.429 1.423-.623.195-.078.312-.273.448-.429.195-.195.37-.409.565-.604.702-.741 1.403-1.462 2.144-2.163 1.208-1.169 2.494-2.261 3.838-3.274.721-.545 1.403-1.13 2.027-1.773.604-.624 1.033-1.169 1.325-1.988.214-.604.526-1.208.604-1.812.097-.74.02-1.539-.156-2.241-.175-.779-.506-1.89-1.247-2.319-.156-.097-.312-.155-.487-.214-.819-.273-1.793-.214-2.572.059-2.3.74-4.092 3.039-5.378 4.968-.371.566-.682 1.17-1.014 1.754-.565 1.053-1.091 2.105-1.598 3.176-.915 1.91-2.124 3.547-3.858 4.814-.545.409-1.208.565-1.793.876-.194.137-.448.273-.76.332z" fill="#f4ed6e"/><path d="m133.461 126.523c.039.039.078.078.117.117.234.194.468.428.701.584.039.059.098.078.137.098.156.097.292-.02.467-.078.156-.078.293-.156.449-.234.039-.02.058-.039.097-.059 0-.019.02-.019.02-.019.214-.137.389-.292.584-.448.331-.234.702-.449 1.052-.682.117-.098.234-.176.351-.273.234-.156.429-.351.663-.526.37-.293.74-.604 1.11-.916.429-.351.897-.702 1.286-1.111.176-.195.371-.409.546-.604.682-.74 1.384-1.461 2.085-2.163 1.189-1.169 2.455-2.26 3.78-3.293 1.267-.974 2.514-2.124 3.333-3.527.876-1.5.915-3.118.37-4.735-.254-.741-.448-1.773-1.364-2.046-.682-.331-1.462-.429-2.202-.273.74.39 1.169 1.208 1.383 2.046.059.195.078.39.117.604.195 1.325 0 2.904-.799 3.897-1.013 1.247-2.299 2.222-3.546 3.216-1.676 1.305-2.416 1.636-3.664 3.371-1.032 1.422-2.202 2.708-3.468 3.936-.877.838-1.773 1.637-2.709 2.416-.175.137-.35.292-.526.429-.117.097-.234.175-.37.273z" fill="#e8e269"/><path d="m133.403 128.375c-.234.058-.449.136-.663.175-1.072.253-1.715-.838-2.065-1.676-.507-1.266-.721-2.416-.682-3.78.019-.448.701-.409 1.032-.507.098-.019.215-.058.312-.097.409-.195.663-.682 1.052-.858.195-.078.312-.039.487.078.098.059.527.565.566.546-.156.039-.312.097-.468.136-1.169.351.623 3.644.994 4.248.37.585.682.994 1.325.409-.02.507-.098.955-.624 1.111-.389.137-.857.098-1.266.215z" fill="#f9f371"/><path d="m126.681 112.318c.409-1.442.779-2.884 1.072-4.365.272-1.364.389-2.728.662-4.092.214-1.013.565-2.085 1.423-2.65.74-.487 1.675-.448 2.572-.331-.643.428-1.169.896-1.442 1.344-1.091 1.734-2.826 4.014-2.358 11.867.078 1.228.195 3.43.253 4.716.02.37-1.481 1.052-1.734 1.208-.37.214-.877.643-1.305.584-.429-.038-.838-.448-1.072-.759-.293-.39-.526-.838-.819-1.209-.117-.156-.253-.292-.331-.487-.409-1.033 1.286-1.929 1.773-2.611.702-.955.994-2.104 1.306-3.215z" fill="#e8e269"/><path d="m126.856 120.795c-.175.117-.331.234-.506.312-.819.487-1.637-.254-2.124-.858-.741-.916-1.228-1.812-1.54-2.942-.097-.37.468-.526.721-.682.078-.059.156-.098.234-.156.292-.253.37-.741.643-.974.136-.117.253-.117.429-.078.078.019.565.331.604.292-.117.078-.234.156-.351.234-.877.584 1.442 2.845 1.91 3.254.467.39.799.643 1.208 0 .117.409.156.818-.234 1.072-.292.253-.682.331-.994.526z" fill="#f9f371"/></svg>