<svg fill="none" height="115" viewBox="0 0 181 115" width="181" xmlns="http://www.w3.org/2000/svg" xmlns:xlink="http://www.w3.org/1999/xlink"><linearGradient id="a" gradientUnits="userSpaceOnUse" x1="137.037" x2="115.239" y1="39.2684" y2="1.51352"><stop offset=".1656" stop-color="#d12626"/><stop offset=".1676" stop-color="#ff4747"/><stop offset=".5343" stop-color="#ff4747"/><stop offset=".5393" stop-color="#ff4949"/><stop offset=".5411" stop-color="#fe5050"/><stop offset=".5424" stop-color="#fc5b5b"/><stop offset=".5433" stop-color="#fa6969"/><stop offset=".8043" stop-color="#fa6969"/><stop offset=".8473" stop-color="#fa6969"/><stop offset=".8483" stop-color="#ff4747"/></linearGradient><linearGradient id="b"><stop offset=".0837" stop-color="#597e90"/><stop offset=".4241" stop-color="#4d6976"/><stop offset=".9409" stop-color="#3c4b52"/></linearGradient><linearGradient id="c" gradientUnits="userSpaceOnUse" x1="61.0107" x2="58.701" xlink:href="#b" y1="41.511" y2="37.7549"/><linearGradient id="d" gradientUnits="userSpaceOnUse" x1="63.3752" x2="62.6125" xlink:href="#b" y1="39.9521" y2="35.2162"/><linearGradient id="e" gradientUnits="userSpaceOnUse" x1="61.3648" x2="62.3622" y1="38.7135" y2="35.494"><stop offset="0" stop-color="#92c6b9"/><stop offset=".9409" stop-color="#6f797b"/></linearGradient><linearGradient id="f" gradientUnits="userSpaceOnUse" x1="54.6114" x2="57.026" y1="43.146" y2="36.7887"><stop offset=".0837" stop-color="#305f76"/><stop offset=".4391" stop-color="#29485a"/><stop offset=".9409" stop-color="#1f2b36"/></linearGradient><path d="m0 58.8273 81.7199-47.2686 96.2471 55.599-81.7198 47.2683z" fill="#fff" fill-opacity=".2"/><path d="m72.3544 100.213-17.6179-17.2102-23.344-6.6832-27.87797-21.0849v-1.2708l84.15157-47.34696 23.7989 18.62186 24.176 7.0597 17.759 17.3512 27.58 9.8365v1.2707l-84.4814 48.7901z" fill="#cacaca"/><path d="m72.3544 98.9421-17.6179-17.21-23.344-6.6832-27.87797-21.0849 84.15157-48.61781 23.7989 18.62191 24.176 7.0597 17.759 17.3512 27.58 11.1072-84.4814 48.8058z" fill="#e8e8e8"/><path d="m151.078 51.5953-17.681-17.2727-23.767-6.8714-22.0111-17.53946-76.3859 44.13096 21.9949 17.5237 23.7676 6.8871 17.6807 17.2727 21.7281 8.0798 76.3857-44.1312z" fill="#82fdff"/><path d="m109.63 27.4512-22.0111-17.53946-76.3859 44.13096 21.9949 17.5237z" fill="#3084cf"/><path d="m109.629 27.4514 23.768 6.8714-76.4021 44.1309-23.7676-6.8871z" fill="#146ab5"/><path d="m133.397 34.3226-76.4016 44.1309 17.6806 17.2728 76.402-44.131z" fill="#5299d9"/><path d="m151.077 51.5948-76.4016 44.131 21.7281 8.0792 76.3855-44.1307z" fill="#227bcb"/><path d="m83.3677 38.4171c-.2667-.1098-.5804-.0784-.8628-.1098-.0157-.0157-.0314-.0314-.047-.0314.0313-.0471.0627-.0784.1254-.1098-.047-.0628-.1725-.0628-.251-.1098.0157-.0471.0157-.0942-.0156-.1255-.0157-.0628-.0471-.1255-.0471-.1726.0314 0 .0784-.0157.0784-.0471.0314-.0627.0314-.1255 0-.1725.1726-.0314.3138-.0942.4236-.1726.1255.0314.3452.1255.4864.1098.0627-.0627-.2824-.251-.2981-.2981h.0471l.0156-.0313c0-.0471-.0627-.1412-.0471-.1883.0157.0628.1099.0941.1726.1098.0157.1569.6746.6746.7687.3452-.4392-.7531-1.8355-.8158-2.2591-1.4434.706.1099 1.3649.3765 1.8512.7531.6746.5177 1.5375 1.8669 2.4474.6746.2824-.3765.3138-.91.6119-1.2865.251-.3137.6589-.4549 1.0354-.5961.4393-.1726 1.459-.7687.9099-1.3649-.1569-.1726-.4707-.0784-.6746-.1098-.5648-.0784-.502.1098-.8942.2039-.5805.1255-.7688.1569-1.3649-.1098-.204-.0941-.9099-.6589-1.1296-.4079-.502.1726-1.0824.2197-1.5844.1569.0941-.0314.1411-.0627.1568-.1412-.0627-.0314-.2353-.0941-.3294-.0784.047-.0471-.0001-.1412-.0157-.1569.1568 0 .3451-.1098.2824-.2667.0314.0157.0784.0314.1098.0314.0784-.0157.1726-.1569.2196-.2197.251-.0941 1.0355.1883 1.2394 0 .1412-.1412-.2197-.6118-.3765-.6903.047.0157.1098.0157.1726 0 .0156-.0156.0313-.0313.0313-.0627 0-.1569-.0313-.3138-.0784-.455.1726-.0627.2667-.1882.3137-.3451 0-.3138-.1569-.5648-.4392-.7373.0627 0 .8628-.0157.8942-.0942.0314-.0941-.1255-.2196-.1883-.2667.0157-.0157.0157-.0313.0314-.0627.0784-.1883 1.8199.3765 1.9767.4549.0628.0942.4079.1412.5177.251.0471.0314.1256.0314.1883 0 .0314.0785.3922.5648.5961.3295.0785-.0784-.0627-.4863-.0627-.5962.0157.0157.0314.0157.0471.0314-.0157.2354.0471.455.1569.6432v.0471c.1412.0471.2824.0314.4392.0628.0942.3922.4864.6589 1.0198.7373.0157-.0314.0313-.0471.0313-.0784.1726.0941.3452.2039.5178.298-.5491-.0941-1.0982-.2196-1.5689-.3451.0628.0471.251.1882.251.2824 0 .0157-.1412.1255-.1725.1569.1412.1255.5648.1882.6589.3137.0784.0942.1255.502.1725.5334.1255.0785.2353.1412.3765.1255.0314-.1569.1099-.3765.2511-.4549.1568-.0942.3608-.0785.5333-.0628.3609.0314.7374.0471 1.0982.0785.0785 0 .1726.0157.2511-.0314.2196-.1098.1411-.4236.1411-.6746.0157-.4079.4707-.7217.8629-.6118.1255-.1412.0627-.3923-.0941-.5178-.1412-.1255-.3452-.1725-.5334-.2039-.4393-.0785-1.0041-.3922-1.3492-.0157-.0784-.0471-.3922-.251-.4707-.2196-.047.0157.0157.1412.0314.1412-.0157 0-.0313 0-.047.0157-.2354-.0785-.4236-.204-.5491-.3922-.0471-.0628-.2354.0156-.2981.0627-.0314-.0314-.0785-.0628-.1255-.0784.0156-.0314.0157-.0628.0157-.0942.3294-.047.6432.2824.4235-.1568.1255-.0157.6747.4392.8315.502.0314 0 .1412-.0942.1098-.1255-.0627-.0628-.1412-.1255-.2353-.1569-.1726-.2667-.2981-.5334-.753-.6432-.0942.0627.1255.2039.1098.2823-.1412-.1098-.2824-.1568-.4706-.1255-.0157-.0313-.0314-.0627-.0628-.0784-.0314.0157-.0628.0314-.0941.0628-.2197-.4236-.4864-.8158-.6275-1.2237.0627.047.1098.0627.1882.0784.0314-.0157.0941-.047.0784-.0784s-.047-.0471-.0941-.0628c.0314-.0313.0471-.0627.1255-.0941-.0157-.1255-.5491-.706-.7373-.6903-.0314.0157-.0471.0314-.0785.0471-.0471.0784-.0471.1255 0 .1882-.1412-.1255-.3451-.1411-.5961-.047-.0157-.0314-.0157-.0628-.0157-.1098.0314.0156.0628.0313.1098.047.0628-.0471.0941-.1098.1098-.1726.0157 0 .0471-.0156.0628-.0313.0314-.0314-.0314-.1098-.0471-.1255.0314.0157.251.1255.251.1255.0157-.0157-1.0825-.9099-.9883-1.2394.1568-.0471.2981.1883.3137.2981.0471.0627-.0784-1.4277-.549-1.8669.0156.0157.047.0157.0627.0314.0628.0157.2824.1098.3452.0784.1098-.0627-.5334-.455-.6433-.502.0157.0157.4393-.0628.4707-.0942.0157-.0156 0-.1098-.0157-.1255-.0314-.0313-.204.0157-.2196.0314-.0942-.1255-.2981-.2039-.408-.3294.1256-.2511-.9412-.4707-.8157-.9413h.0627c-.0156-.1098-.1098-.1726-.2196-.204 0-.047-.0157-.2196-.1098-.1882-.0157.0157-.0314.0314-.0785.047-.0313-.0627-.1725-.2353-.2823-.2196-.0314.0157-.0471.0471-.0471.0627-.0471-.047-.3295-.4549-.1726-.5333.0314 0 .1883.0156.204 0 .1411-.1256-1.0041-2.1336-1.1453-2.369.0471.0157.0941.0314.1412.0471.0157-.0157.0314-.0157.047-.0314.1412-.1412-.6431-.9726-.7059-1.1452-.1569-.3765-.0627-.5334-.4236-.8158-.3294-.2667-.9569-.5334-1.3805-.3765.1569-.3295.2353-.706.1882-1.0668-.4863.0157-1.0825.0941-1.2394.5491-.0627.1882-.047.3922-.1254.5648-.1255.3137-.5021.4549-.8472.4392-.1726 0-.3608-.0471-.4864-.1882-.2667-.2981-.0313-.7845-.2039-1.1453-.3451.0157-.706.0628-.9884.251-.2824.1883-.4706.5805-.3137.8786.0471.1098.1412.2039.2196.2981.3765.502-.3451 2.2904.5962 2.2747-.0471 0-.0942 0-.1569 0-.0628.1099-.0785.204-.0471.2981-.1098-.0157-.2981.0314-.2981.1726 0 .0314.0471.047.0628.0627-.0784 0-.7687.0157-.8158.0785.0157.047.0471.0313.1098.0627-.2196-.0314-.4863 0-.3608.1412-.1098 0-.1726.0471-.2667.0628-.1726 0-.3295.047-.502.1412-.0785.0784.3137.0784.298.0784-.0313 0-.047.0157-.0627.0471-.1412.1725.706.0471.8001.0157 0 0-.7373.2353-.8629.2667 0 0 .0471 0 .0314.0156-.0157.0314-.0313.0785-.0156.1099-.4864 0-.9727.1255-1.5218.3294-.0157.0157.0156.0314.0156.0471-.047-.0157-.2509-.0157-.2823.0941-.0157.0471.1098.0785.1569.0942.0157.0156-.1099.0627-.1256.0627.0471-.2353-.047-.6746-.4392-.3295-.204-.0157-.0314.0628-.1098.1569-.0628.0628-.1412.1098-.2197.1412.0471-.0157-.2353.2824-.2353.2667v.0471c-.9413.1725-3.0121-.2667-3.5141-.0628-.0314.0157-.0628.0314-.0942.0314-.0314-.0314-1.4747.0785-1.4119.0471-.0471.0314-.0785.0627-.0942.1098-.1098.0941-.5177.0157-.6745.0941-.0628.0157-.1255.1098-.1412.1412-.0157-.0627-.7531.4236-.6746.3608-.0628 0-.3452-.0157-.3609.0157-.1255.2353-.5961.3765-.8314.4236 0 .0157-.0157.0942 0 .1098.2353.1883-.0001.2667-.0785.4707.0157.047.0314.0941.0628.1255-.1569.2353-.8629.5177-1.0982.5961-.1098.0314-.1569-.0313-.2196.0942-.0471 0-.1099 0-.1569 0-.0157.0313-.0314.0627-.0157.0784-.5648.3295-.6903.753-1.1923.3922.0314 0 .1726 0 .204-.0314v-.047c-.0157-.0157-.251-.0471-.2824.0157 0 .0313-.0157.0627-.0157.0784-.0157 0-.0471 0-.0628.0157-.0157.1412-.1098.1412-.2039.2353 0 0-.0471.2981-.0785.2667.0314.0314.0628.0784.1099.0941 0-.0157-.2981.3922-.3138.3922s-.7845.0314-.706.1569c-.0157.0314-.0471.0785 0 .1569 0 0-.1726.4079-.1883.4236-.1255.047-.2509.0784-.3608.1255.3452.2196.6119.1098.7217-.3138.1255-.1412.5805-.2667.753-.4079.0785.0157.3608-.0157.3295-.1568.6432-.5805 1.4119-1.0041 2.2277-1.2237.0784.1255-.1099.2039.0941.2824-.0314.0156-.1412.0313-.1568.0627 0 .0471.047.0785.0941.0941-.3138.0785-.6432.2197-.9413.3923-.0628-.0157-.3138-.0628-.3765.0313-.0471.0471.2196.1255.1725.1255-.1255.1099-.2196.2197-.3137.3452-.0628.1255-.1726.2667-.3138.3765-.0627.0157-.1255.0627-.1882.0941 0 .0314.0627.0785.0784.1098-.1726.0157-.3451.0471-.5177.0785-.1569.502-.6589.8942-1.0511 1.3492-.0942.1098-.3766.0784-.4864.2667-.1255.0157-.2353.0156-.3608.0156-.0314.0157-.0471.0471-.0471.0785-.0471-.0314-.1098-.0628-.1882-.0628-.3138.1255-.753.6746-.753.9257.047.1098.1725.298.1411.4078.0157-.0784-.3294 1.1767-.1882 1.0825l-.0314.0157c-.0941.0471.0157.1569 0 .204-.1412.1412.0314.1568 0 .2823-.0314.0314-.0471.0628-.0471.0942 1.412.5177-.1255.9099.1726 1.5217 0 0 .0628.0785.0314.0942s-.0785.0156-.1098.0313c.0784.2197.1255.4864.1568.7217-.0156.0941-.047.2824 0 .3608.0942.0314.1726.0628.2511.1098 0 .0157 0 .0314-.0314.0471-.1098.0471-.91.6432-.6746.7844-.0314-.0314-.0784-.0314-.1255 0l-.0157.0314c-.1255.0471-.2353.0157-.3452.0471-.1412 0-.3294.3137-.3137.3922.0941 0 .1883-.0157.2824-.0314-.0314.0471-.1412.0941-.1569.1255-.1883.3451-.251 1.1452-.2196 1.0982-.1255.047-.2197.047-.251-.0628-.0314 0-.1883.1255-.1726.1412.0627.0471.1255.0314.2039.0314 0 .0314.0157.0471.0471.0627-.0157.0157-.0471.0314-.0784.0471-.1099.0314.0627.251.0941.2667.0941.1412.4236-.1098.4393-.2196.8157.2039.5334.6118-.2981 1.1138-.0471-.0157-.1099-.0157-.1726.0157-.0314.0314-.0941.1883-.1883.1412 0-.0314-.0157-.047-.047-.0627-.0785-.0157-.6746.3922-.753.2667 0-.0314 0-.0471 0-.0785-.0628-.1098-.3138.1098-.204.2667-.0941.0785-1.0354-.0941-1.1923-.0784-.0157-.0157-.0628-.0785-.0941-.0942-.0785 0-.1726.0942-.204.1413-.1412-.0942-.2981-.1883-.455-.2824-.1098-.0314-.6118.1568-.7373.1882-.1255-.0471-.5647-.1098-.6902.0628-.0157.0313-.0314.0627-.0628.1098-.0785-.0157-.1569-.0314-.2353-.0157-.1412.2039-.1098.3294.1412.3138-.2981.0784-1.1767-.1883-1.3963.0627 0 0-.0157.0471 0 .0471-.1255.0941-.3138.047-.2353.2039-.3765.3765-1.3021 1.459-2.0865 2.0081-1.0511.7373-1.3963 2.7298-1.914 3.0749-.6432.8629-2.1336.9727-2.6199 1.5531 0 .0157-.0157.0314 0 .0471-.2824.047-.5334.2981-.7531.3608-.1255.0471-.2196-.0627-.3451.0628-1.0198.9099-4.0946 1.7571-5.4124 2.2591-.0471-.0471-.0785-.0942-.1413-.1255-.1255.0784-.2353.2039-.298.3294 0 .0314-.1883.0628-.204.0785-.0627.1255-.3294.4706-.5334.4392-.1255-.1725-.8315.3295-.8471.5334-.0157-.0313-.0157-.0627-.0314-.1098-.502-.0471-1.0354.6746.2196.2197.0157.0313.0314.047.0314.0941-.0628.0314-.5177.2667-.5491.3294-.047.0471-.1726.0157-.2039.0785 0 .0157.0157.0314.047.0471-.047.047-.3137.047-.3294.1097 0 .0157 0 .0314.0157.0471-.0471 0-.2824.0785-.3138.0628.0941-.0942.1569-.2196.2039-.3295.0157.0314-1.0511.3922-1.2236.4236-.0157 0-.2981.1098-.2667.1569h.2196c-.0314.0157-.0627.0314-.0941.0628-.0942.1568.3608.2353.4549.2353-.0627.0784-.1568.1411-.251.2196-.0784.0157-.1569.0471-.2196.0785-.0157-.0471 0-.1726-.0471-.2197-.047 0-.1098.0471-.1725.0628 0-.0157.0156-.0314.0156-.0314-.298-.4393-.6746.3765-.7687.3922-.0314 0-.0784 0-.1255.0157 0 .0313 0 .0471.0157.0784-.0314 0-.1412.0314-.1569.0471s.0157.0471.0314.0628c-.0471.0941-.1412.1568-.2667.1882-.0157.0157-.0314.0314-.0157.0471l-.0627.0313c.0156.0314.0313.0628.0784.0785-.0157.0313-.0471.0628-.0941.0941-.1412-.047-.1569.0314-.2197.1569-.0627 0-.0941.0314-.1098.0784-.0157.0157-.1098.0471-.1255.0785.0628.0313.1412.0314.2353.0157-.0313.0157-.2353.0627-.251.1098.0471.0157.0942.0314.1726.0314-.0157.0313-.0314.047-.0157.1098-.0157 0-.0314.0156-.0471.0156-.047.0157-.0627.0314-.047.0628.0157.0157.047.0157.0784.0157-.0314.0157-.0784.0471-.1098.0628 0-.0314 0-.1412-.0157-.1726-.0627-.0157-.1255-.0157-.1882.0157-.0157.0157-.0628.0314-.0314.047.0157.0157.0157.0157.0314.0314-.0157.0314 0 .0471.0313.0628-.0627.0941-.047.1568.0628.1725-.0314.0157-.0628.0314-.0941.0785l.0313.0156c-.0313.0157-.0627.0314-.0941.0471-.251.1255-.0157.1412.0314.1255-.0157.0471-.0314.0785-.0314.1255.0157.0157.0471.0157.0784.0157-.0313.0157-.2823.2354-.1412.204-.0784.0314-.0784.0471-.0784.0627.0157.0157.0471.0157.0784.0157-.0627.0314-.0941.0471-.0784.0628s.0471.0157.0628.0157c-.0785.0627-.0942.1098.0156.1098-.0313.0156-.0941.0784-.0941.0941.0471.0157.1098.0157.1726.0157-.0628.0941-.1255.2196-.1098.3138.0313.0157.0784.0157.1255 0-.0314.0157-.1098.0941-.1098.1098.0157.0157.0313.0157.0627.0314 0 .0156-.0471.0941-.0314.1098.0157.2981.1256.502.2667.5177-.047.0784-.0941.1568-.1412.2353-.0313.0157-.0313.0157-.0313.0471.0157.0313.047.0627.1255.0941.047 0 .0941-.1883.1255-.2196.0157.0941.0941.1411.2196.1255 0 .0156-.0157.0157-.0314.0314.0471.0627.1412.0941.251.0941.0314.1098.1255.1098.2511.0156-.1099-2.3532.9726-1.4746 2.4316-2.1963.4079-.8785 1.1296-1.1766 2.2278-1.0825.0313-.0941.047-.1725.0627-.2667.1098-.0157.3138.7531.251.0314-.1098-.1726.3295-.6118.5177-.5648.2353.3609-.2196.8786.6276.5177-.0314.0628.7687-.4078.6275-.3765 1.459 2.0552 1.5374.2353 2.6827-.1569.0314 0 .047 0 .0627.0314 0 .0471-.0157.0785-.0314.1255.0628.6903 1.161 1.7885 2.3062.9256 0 0 .0157-.0157.0157-.047-.0157-.0157-.0314-.0314-.0471-.0628.1412-.1412.7688.0157.8943.0785-.0314.047-.5962.0784-.6589.0941 1.2236-.5962 3.8122-.3609 4.6751-.1883.5961-.0314.6902.6589 1.1452.706 2.7611.0471 7.8127-1.5374 9.4129-2.1807-.0314-.0156-.0628-.0314-.0628-.0784.0314-.0314.0628-.0785.0942-.1098.3608-.8629.2981-1.6003-.1569-2.2121.0157-.0941-.0627-.1412-.2039-.1412.0156-.047.251.0628.2823-.1255.1099.0157.1883-.0314.1883-.1255.0471-.0471.0941-.0784.1726-.1255-.0785-.0157-.1569-.0314-.251-.047.3137-.8786-.1726-1.0511-1.0982-1.0198.1098-.0313 1.1766.0314 1.1923-.0941.0157-.0627-.1255-.2824-.1255-.2981.0314-.0314.0471-.0471.0941-.0627.0314-.0314.0941-.0785.0628-.1255-.0157 0-.0785-.0785-.0785-.0942.0314-.0627.5962-.1412.6275-.1412.1883-.0627 1.5845-1.3491 1.412-1.6315-.0157-.0157-.0314-.0314-.0471-.0471-.0784-.3294-.1411-.9413-.502-1.1295.0314-.0157.0942-.0314.0942-.0628s.0156-.0784.0156-.1255c.0628-.0471.1098-.1098.1412-.1726.0314-.1412-.0627-.1412-.2196-.1412.4079-.0784.6432-.2824.6432-.6118-.0157-.1412.0941-.2667-.0628-.4236.0314-.0471.3609-.0471.4707-.1098.0941-.0628-.0314-.2981-.0627-.3138.0313-.0314.0627-.0627.0784-.0941-.0314-.0314-.0784-.0471-.1255-.0471.0314-.0157.1255-.0627.1255-.0784.0157-.0471.0471-.1098.0784-.1569.0471.0314.0785.0628.0785.1255 0 0 .2196.1255.2039.1255l.0314-.0157c.0314-.0157.0471-.0313.0314-.0627-.1569-.204-.3452-.4236-.5335-.6119-.0313.0157-.0627.0314-.0784.0471-.2824.0314-.6118-1.1609-.6275-1.1452.0157-.0157.0314-.0314.0471-.0314.0627.0314.1255.0314.2039.0157.0471-.0314.0314-.0785 0-.0942.0785-.1568.0471-.298-.0784-.3922.0941-.0627.1882-.1098.2824-.1098.1569-.1412-.2511-.1255-.4079.0157-.0942-.1098-.2197-.1883-.3922-.2196.0156-.0157.1411-.0628.1254-.0785-.1098.0157-.2353.0157-.3451 0 .0941-.0313.1883-.1098.251-.1725.0157 0 .0471-.0001.0628.0156-.0157.0942.957.204.1412-.2039-.2981-.0471-.5334-.2039-.5962-.4236-.0941-.0314-.1882-.0314-.2981-.0157.0471-.0627.0471-.1098.0157-.1569-.1412-.2196-.753-.0627-.9883.0785-.1726-.1255-.9884-.0785-.9884-.0785-.0314-.0941.5334-.5333.3766-.8471.0156 0 .047 0 .0627-.0157-.3452-.204-.6589-.4863-.8629-.8001.5334-.5177 2.8082-1.0668 2.9337-1.2707.0157-.0314.0314-.0471.0314-.0785-.0784-.0471-.1255-.1098-.1412-.2039.0628-.3766-.1569-.91-.5177-1.3022 2.2121-.0627 4.5025-.1725 1.4276-1.0354-.047 0-.5647-.047-.5961-.0627-.2196-.1099-.455-.6276-.7531-.8158.1569-.204.2667-.4079.3922-.6432 0 .047.6119-.455.659-.5021.0941-.0313.1568.1098.2823-.0313 0-.0471.0314-.0942.0628-.1255.5962-.1726 2.5415-.2667 2.8866-.6119.0471.0157.2354.0471.3138.0157.0314.0314.1569.0314.2039.0157-.0314.1882.3766.0471.4079.0941.1569.2824.4863.3922.8629.3452-.0942.1568.0157.2196.2039.2039.0471.1726.0785.3452.1098.5177.0314.0471.1726.0471.2197.0471-.0627.0314-.1726.1098-.1255.1726-.0314.0156-.1569.0941-.1255.1411.0314.0628.1098.0942.1882.0785.0157.0157.0157.0157.0314.0314-.0314.047-.0471.0941-.0471.1412.0314 0 .0628.0157.0785 0h.0471c.0313-.0157.0784-.0471.1098-.0785.0313.0314-.0157.204-.0628.2197-.0313 0-.0627.0156-.0941.0313.1412.1569.251.0942.3294-.1412.0471.0471.1255.0628.2197.0471.0156-.0314.0157-.0471.0157-.0628.0627.0471.1725.0314.2353.0785-.0157.0157-.0157.0314-.0157.0628.1098.1412.251.1568.4393.1882-.0941.0471-.1883.0628-.2824.0471.1725-.0785.3765.5334.3922.6275.047-.0785-.1098.8001-.0785.8628-.2667.0314-.9413.0628-.6118.2354-.1098.0784-.5334-.1726-.5491.2039.0157.0157.0471.0157.0628.0314-.0628-.0157-.1255-.0157-.1883.0157.0157.0157.0314.0314.0628.0314-.0942.0313-.1883.0627-.2824.1098-.0157.0471-.0157.0941 0 .1255 0 .0314-.4079.1255-.3452.2196.6433.251 1.412-.4392 1.9454-.3451.0157.0157.0313.0157.047.0313-.2353.0157 4.4084.2354 4.1574.3923l.0314-.0314c.0628.0157.1098.0314.1726.0471l.0313-.0157c0 .2353.3609.1882.4707-.0314.1412.1098.3294.1098.5334 0 .047-.0471-.0628-.0942-.0784-.0942.0156-.0313.047-.0784.0784-.0784.0941.0942.2039.1098.3138 0 .2039-.047.9099-.1882 1.051-.0314-.1411-.047-.753-.0784-.8942.1569-.4236-.2196.0941.251.9413 0-.0471.0157-.0784.0941-.0941.1255-.0471 0-.0941.0157-.1412.0471.0627.0941 1.0354.2196 1.1295.0627h.1255c.0471.2354.2511.4236.5335.455-.0785-.0784-.1569-.1726-.2354-.2667.1726.1726.4079.3295.6432.3765v.0471c-.0313.0157-.047.0314-.0784.0314.0314.0627.1098.1098.1883.1568-.0314.0314-.204-.047-.2197-.0627-.0314.0157.251.1725.3138.2039.0157.0314.2353.0157.2824-.0157.1255-.0941-.1412-.1098-.2353-.1255.0627-.0313.1254-.047.1882-.047.0157-.0157.0157-.0471.0157-.0628 0-.0313.0314-.047.0471-.047.0627-.0157.0941.0313.0941.0784.0157.0157.706.0157.8001.0471.1569.1725.3765.2823.6589.298-.1255.0628-.1412-.0627-.2667-.0156-.0157.0156 1.0825.5647 1.2237.6118-.0471 0-.0942.0157-.1255.0627.0784.1255.4863.2197.6432.2824-.0941 0-.2667-.1255-.3295-.1098-.1255.0628.204.2353.1883.2353-.2353-.0941-.5334-.2667-.7687-.4235-.0785-.1099-.4707.0313-.5648.1098-.2353.1726.7844.3765.9099.3608 0 .0157-.0157.0471-.0157.0627-.047 0-.0784.0157-.1255.0314.1726.2667.8158.4864 1.1296.6275.0471.2197.3608.2511.5805.1883.0313-.0314-.0158-.0941-.0315-.1098.0942 0 .1727 0 .2354.0314.0628-.0314.0941-.0628.1098-.1255zm3.7025-.2667c.0941.0471.1883.1098.2981.1412-.0471.0627-.0157.0784.047.0941-.0627-.047-.3451-.1098-.3765-.1569.0157-.0313.0157-.0627.0157-.0784zm3.9063-2.667c-.0313-.0157-.0627-.0471-.0627-.0784.0313.0157.0784.0156.1098.0156-.0157.0314-.0157.0471 0 .0628zm2.4317-.6118c-.0313-.0157-.047-.0314-.0627-.0628.047.0157.0784.0471.0941.0784 0 .0157-.0157.0001-.0314-.0156-.047-.0157.0157.0157 0 0zm.5962-1.663v.0314l-.0157.0157s0 0-.0157-.0157c.0157 0 .0314-.0157.0314-.0314zm-3.0906-2.0865h.047c0 .0157-.0157.0314-.047.0471-.0314 0-.0785-.0157-.0942-.0314.0314 0 .0628 0 .0942-.0157zm-1.3649.3608c.1255.204.251.2981.1255.5648-.047-.0785-.1725-.1255-.0627-.251.0313-.0157.0627-.0471.1098-.0628-.0471-.0627-.204-.2039-.1726-.2981-.0157.0314 0 .0471 0 .0471zm.1255-1.2707c.0785.0313.1255.047.1412.1255l-.0314.0157c-.047-.0314-.0784-.0785-.1098-.1412zm-.6118-1.4277c.0314-.0157.0784.0314.0941.0471-.0157 0-.0157 0-.0314 0-.0313 0-.047-.0157-.0627-.0471zm-10.9818-10.4169c-.0627-.0628-.1882-.0942-.2039-.1883.1569.0157.251.0941.2667.2353-.0157 0-.0314-.0157-.0628-.047-.0313-.0314.0314.0313 0 0zm2.2434-1.0825c-.1098-.0471-.1725-.1412-.2039-.251.1098.0784.2039.1412.2039.251zm-2.9807 3.9691h.2039c-.0627.0157-.1412.0157-.2039 0zm-41.715 30.9842c-.0313.0157-.0627.0314-.0784.0314.0314-.0157.0471-.0314.0628-.0628zm.204-.2196c-.0628.0471-.1255.0941-.1883.1255.0157-.0314.2667-.1883.1883-.1255zm.2667-.0785c-.0471.0157-.0784.0314-.1412.0471.0314-.0314.0628-.0628.0941-.0941h.0785c0 .0157-.0157.047-.0314.047-.0471.0314.0157 0 0 0zm25.2894-11.7661c.0784-.0784.1726-.0942.251-.1883.0314-.047.3922 0 .4863-.0157-.3294.1412-.3137.4393-.753.2511 0 0 0-.0157.0157-.0471.0314-.0157-.0157.0314 0 0zm-1.3492-4.2201c.0471-.0314.0784-.0628.1098-.0942.0314.0157.0628.0157.0941.0314-.1568.5334-.1412.2353-.3608.1098.0471 0 .1098-.0157.1569-.047.0627-.0471-.0471.0313 0 0zm16.7079-14.1194c.0941 0 .1726 0 .251.0156-.0941 0-.1882 0-.2823 0zm-7.7813 10.5738c-.0157-.0471-.0314-.0941-.0157-.1412h.0785c-.0157.0471-.0314.1098-.0471.1726z" fill="#c3d145"/><path d="m100.153 96.5734c1.349-.4707 9.209-2.5415 8.362-2.9965l-.016-.0157c-.078-.1098.346-.5491.236-.7373-.047-.0157.219-.1883.141-.2511l-.047-.0156c.47-.2353.674-.3609.423-.5021.016-.0313.157-.298.142-.298-.095.0313-.236.1412-.314.2039 0-.0157 0-.047 0-.0784 0 .0157.502-.5491.518-.5805h.047l.047-.0471c-.016-.047-.032-.0784-.063-.1097.125-.0785.267-.1099.408-.0942-.063.0628-.126-.8472-.188-.8786-.032-.0156-.189-.2353-.063-.2666.078-.0157.157-.0314.235-.0628l.032-.0471c0-.047-.048-.0784-.095-.0784.487-.2824.879-.6118 1.208-1.0197h-.015c.078-.0941.172-.1883.266-.251.424-.2353-.156-.204.204-.4707.032-.0157.079-.047.11-.0627l-.016-.0314c-.062-.0314-.329 0-.407.0314 2.29-2.0552.831-.8472.204-1.1923.015.0157.031.0157.047.0157-.11 0-.408.0784-.44.2196 0 .0784-.659.1255-.455.3138-1.584.6589-1.772 1.2236-2.525.4078-.157-.1882 0-.4706-.157-.6432-.047-.0628-.11-.0627-.157-.1412.047-.0941.063-.5805.063-.5961l.031-.0471c.016-.0471 1.114-.4863 1.271-.4079v.0627c-.016-.0156.737-.298.737-.345l-.047-.0315c.016-.0313.173-.2353.157-.251-.173-.0313-.345.0314-.455.1883-.031 0-.063 0-.094-.0157.047-.0314.172-.1255.11-.1726h-.016v-.0156c.047-.0157.172-.0471.172-.0628l-.015-.0314c-.047-.0313-.236.0157-.298.0314.015.1098-.298-.2981-.236-.251-.047 0-.094 0-.141.0314.016-.1569-.047-.2668-.219-.2511 0-.047.015-.1097.031-.1568-.031-.0157-.079-.0157-.126 0-.015-.0314.126-.1726.095-.1883-.048 0-.079 0-.126 0 .078-.0627.126-.1412.11-.2196-.126.0157-.204-.0157-.251-.0941-.063-.0314-.235.1098-.22.1725.032.0784.079.1412.126.1883.078.0784-.957 0-1.083-.0785 0-.0157-.015-.047-.031-.0627-.063 0-.126.0157-.188.0784l-.016-.0157c-.047-.0157-.173.0628-.204.0785.016-.0157 0-.0471-.016-.0628-.11-.0627-.235.2197-.313.2353-.189.0157-.44.0628-.581.0942-.031-.0157-.345.0784-.376.1098-.032.0471.109.1255.141.1412-.079.0314-.298.0157-.361 0-.173-.0941-.126-.2981-.455-.1098.078-.0628.141-.1412.188-.2354-.047-.0313-.047-.0784-.015-.1254.031-.0157.062-.0314.094-.0471.157-.5334-.126-.204-.314-.3138-.016-.0157-.032-.0941-.047-.0941-.047-.0157-.11-.0314-.157-.0314-.016-.0157 0-.0314 0-.0627v-.0157c-.11.1098-.345.1569-.408.2039.157-.251-.063-.0941-.267-.047.016-.0314.032-.0628.032-.0942l-.016-.0314c-.078-.047-.22.1883-.235.2354-.032-.0471-.079-.0471-.142-.0314-.062.0314-.094.0627-.125.1098-.126.0314-.298-.1255-.502.0471-.016.047-.016.0941 0 .1255-.094 0-.204.0314-.298.0941l-.016-.0157c.016-.0314.032-.0627.032-.1098-.063 0-.142.0314-.204.0471.094-.1883.047-.3138-.173-.0785h-.063c-.062.0314-.062.2667-.172.3452 0-.0471 0-.0941-.016-.1412-.016-.0157-.314.2039-.376.2353.078-.1883.392-.3608.439-.502-.11.0313-.33.0784-.424.0157-.063 0-.816.1411-.737.4078-.643.1883-1.6945.4864-2.2122.204v-.0314c.0471-.0313.0785-.0627.1256-.1098-.0157.0941-1.2551-.0941-1.3022-.1255-.0157-.0314-.0157-.0471-.0313-.0785-.7531-.1411-1.4434.1413-2.1337.1099.1412-.0628.2667-.1883.3452-.3138-.1098.0157-.7374.1569-.7687.3295-.6589.2039-.8629.5961-1.2551 1.0511-.0627.047-.1412.1098-.2039.1726 0 .0313-.0157.0627-.0628.0941-.0784.0157-.1412.0157-.2196.0313.251-.4863-.1726-.251-.1883-.0313v.0157c-.1255.047-.1412.047-.1412.0313-.0157-.047.1569-.1725.1883-.1882-.0157-.0314-.0314-.0628-.0157-.1098.2196-.3922-.0157-.0941-.1255.0157.4079.2196-3.3887 2.8866-3.7181 3.0278v-.0471c-.1255-.0627-.4707.1569-.6275.2353l-.0157.0471c.502 1.6002 6.7616 2.165 8.2206 2.9494v.0313c-.0627.0314-.1255.0785-.1883.1099.0157.0627.0628.1098.1255.1255-.0627.0157-.1882 0-.251.0314-.1882.0941.0628.251.0157.3137-.3922 0-.1883.1255-.3295.3138-.2039.2353-.2196 0-.3922.0785-.0313.0156-.0627.047-.0627.0627-.0627.0941-.1098.2667-.0314.2981.1412-.0785.2981-.1099.4079-.0471l.0314-.0157v-.0157c.2667-.0157 1.5374-.2981 1.6943-.2196l.0157.0157c-1.9454.5177-2.1179.0627-.8471.4706v.0314c-.204.5334-1.3649.2353-1.6473.1098-.2667.1412.251.5177.4863.2981.0941.0157.204.047.2667.1098h.251c-.0157.0314-.0157.0628 0 .0785.0785.1098-.8785.7844-1.004.8785-.0314.0157-.0784.0471-.1098.0784.0784.2197.1255.3138.3137.3138-.0157.0157-.0627.1569-.047.1726.0627.0156.1255-.0001.2039-.0157-.0157.1411.0157.2824.0784.4079.1255.0784.5648 0 .7217 0 .0314.0157.1255.3608.1098.3922-.0627.0941-.0784.1882-.0627.2667.5805.2196 2.8395.1255 3.4668-.1098.047-.0157-.078.0313 0 0z" fill="#b7c441"/><path d="m114.649 45.0848c-.015.0157-.015.0471-.015.0628l.157-.0941c-.032 0-.079 0-.11 0z" fill="#d1df5b"/><path d="m92.5134 45.1161c-.0313.0784-.2981.3765-.1726.4707.706.2353 1.4277.4706 2.0866.6589-.1098-.0785.9256-.1883.8628-.1412.0157-.0157.0314-.0314.0314-.0628.0157-.4235.6746-.502 1.0354-.4863.9099-.3765 2.0709.0471 2.7611.5334.0314.0314.0628.0784.0942.1412.1255.0941.7373-.0471.9567.0314.032.0156-.015.251.063.3294 0 0-.141.2981-.157.3295-.063.0157-.3293.0313-.2823.1098.0157.047.0628.0627.1099.0784.047-.0157.0784-.0313.1094-.047v.0313l-.0153.0157s-.0157.1569-.0157.1726c-.0314.0157-.0471.0471-.0784.0627.0156.0157.1414.1255.1414.1255-.032.0157-.063.0315-.0787.0471-.0157.0628.0157.1099.0627.1412-.1097.1883-.0627.3608.11.4707l-.016.0157c.016.0627.032.1254.063.1725-.031.0314-.047.0785-.063.1255.032.0314.079.0628.094.1098-.031 0-.078.0157-.109.0471-.016.0314.141.0941.156.1255-.015.0471-.047.0785-.094.1098.032-.0313 0 .1883 0 .1883.032.0314.063.0471.094.0628.047.0313-.251.4235-.2663.4549-.4863.0314-.9413-.1412-1.2394-.4706 0-.0157.0157-.0471.0157-.0628-.0784-.0157-.4706.1098-.2981.2353.0785.1255.1726.2981.2197.4393 0 0 .0156.0157.0156.0314-.0313.0627-.0313.1255-.047.1882.2824.0942.5648 0 .8472-.2196-.0157.0627-.0001.1255.0313.1569.0314.0157.2511-.0314.2824-.0471.0157.0157.0157.0314.0157.0314.0157.0157.2822-.1255.3292-.1255.016.0157.032.0314.032.047.062.0471.345-.0784.329-.1569-.016-.1255-.063-.1568-.047-.2823.126-.0471.267-.0785.392-.0942l.016.0158c-.016.0313-.016.0784-.016.1097.047.0471.063.0942.141.1099-.031.0784-.047.1726-.047.2667.706-.5805-.204-.5491.063-1.0825.047.0157.094.0156.141.0156l.032-.0313c.062-.1255-.141-.251-.251-.2824-.204-.1412.188-1.3492.235-1.4747.235.0314.141-.1882.267-.1882h.031c.11.0313.235.0627.345.0941.032.0471-.188.4549-.188.4393.047.0156.094.0156.157-.0157-.063.0627-.11.2353.031.2196.032-.0157.063-.0314.094-.0628-.015.0628-.031.1255-.047.1883-.031.0157-.157.0785-.172.1098.031.0471.157.2197.11.2824-.048.0784.015.3138-.016.3294-.032.0157-.063.0315-.079.0472 0-.0157.455.8.44 1.0197-.032.0157-.22.047-.236.0784-.235.1412-.36.3294-.36.5805l-.016.0157h-.016c-.016-.0157-.016-.0314-.031-.0471.015.0157-.236.7844-.189.8472l.016.0156c.016-.0157.047-.0313.063-.0156.188.1255.282.3137.471.4235-.016.0314-.11.1883-.079.2197.032.0471.094.251.126.251.078-.0157.157-.1883.188-.2667 0 .0941.047.2981.188.2353.016-.0157.047-.0314.032-.0784-.11-.3922-.016-.8472.235-1.1766.314.1725.722.3921 1.129.5961-.078.0784-.109.1255-.062.1569.078.047.204.2039-.047.1726-.157-.0942-.283-.0157-.393.1725-.031-.0314-.078-.0313-.141-.0313l-.047.0313c-.078.1098.141.251.235.204.048-.0942.126-.1412.22-.1099-.047.0314-.078.0628-.11.0942l11.06-6.3851c-.141-.2196-.094-.455.173-.7373.188-.1726-.204-.3766-.204-.4393.031-.0941.016-.1569 0-.2667.157.0627.518.5334.91.957l.926-.5335c-.267-.4236-.628-.8157-1.02-1.0511.031-.0156.078-.047.031-.0941-.031-.047-.078-.0628-.125-.0941.266-.204.031-.251-.251-.3295.015-.1255-.298-.2824-.377-.3451.047.0157.455.1725.502.1098.11-.1255-.157-.2039-.172-.2824-.047-.2667-.22-.3608-.502-.2981.094-.047.219 0 .282-.0313l.016-.0314c.015-.0941-.189-.204-.22-.2196-.063-.0471-.298.047-.408.0313.236-.1882.079-.2196-.141-.2039.047 0 .094-.0157.126-.0157.031-.0157.062-.0314.062-.0628 0-.0627-.204-.0941-.235-.0941-.031-.0314-.047-.0784-.047-.1098-.126 0-.235.0627-.361.0784.016-.0157.031-.0157.063-.0313.015-.0157.031-.0471-.016-.0628-.047-.0314-.11-.0471-.157-.0628.032 0 .079-.0156.11-.047v-.0157c-.141-.0941-.345-.1726-.486-.251-.047.0314.062.1569.094.1726-.016.0313-.032.0627-.047.0941-.094-.1255-.22-.2039-.377-.251 0-.0314 0-.0471 0-.0785-.047-.047-.282.0471-.392.0471.078-.0471.141-.0628.204-.1255.126-.1726-.596-.1569-.643-.1412-.047.0784-.11.1098-.204.1255 0 0 .125-.1882.078-.2196-.157-.1098-.298-.0942-.376.0941-.032 0-.063 0-.094 0 .031-.0314.047-.0784.062-.1255-.015 0-.015 0-.031-.0157-.063-.0157-.11-.0157-.173.0157.032-.0157.157-.0784.157-.1255 0-.0941-.298-.0471-.329-.0785.047-.1882-.283-.1411-.361.0157-.157-.047-.314-.1255-.471-.1568-.031.0313-.078.0627-.109.0941-.016.0784.627.1883.721.2353-.251.2353-1.02.1726-1.318.2039 0-.0156 0-.047-.015-.0627-.094-.0627-.44.2667-.581.1726v-.0157c.016-.0157.032-.0314.032-.0471-.047 0-.079.0157-.126.0314-.031-.0628-.094-.1098-.172-.1098l-.032.0313c.016.0314.032.0471.063.0628-.031.0157-.047.0314-.078.0471-.173-.0157-.377-.0157-.55-.0314 0-.0157 0-.0157 0-.0314-.094-.0784-.204.1098-.313-.0313.031-.1569-.094-.1099-.22-.0628-.031-.0157-.016-.1098 0-.1412-.094-.0157-.173.0314-.22.1412l.016.0314c-.047.0157-.094.0313-.141.047-.031-.047-.047-.1098-.063-.1725-.047-.0314-.157.0627-.188.0784-.063-.1098-.188-.1412-.33-.0941 0-.0157 0-.0471 0-.0628-.094-.0157-.204-.0314-.298-.047-.031 0-.36.1412-.517.251-.079.0627-.126.1255-.157.2039-.063.0157-.126.0471-.173.0784-.016.0314-.031.0471.016.0628-.079.0157-.157.0471-.188.1255l.015.0314c-.219.0627-.047.1098.032.1255 0 .0314.015.0627.015.0941-.109-.0627-.298-.0627-.376.1098v.0314c.031.0628.188.3138.188.3765-.016.0157-.016.0471 0 .0628.361.1569.753.2353 1.161.2039 0 .0157 0 .0471.016.0628.094 0 .188-.0314.266-.0785-.047.0628-.031.0785-.031.0785.016.0314.047.0471.063.0784-.063.0471-.11.1255-.126.1883-.062.0471-.11.0941-.157.1569-.109.2353-.172.4706-.204.7373 0 .0314-.172.0784-.188.0784-.063-.0941-.172-.0941-.282-.0313-.016 0-.079-.0314-.079-.0628.016 0 .032-.0157.047-.0157v-.0157c-.094-.0627-.266-.0941-.36.0157-.032.0314-.032.0628-.032.0942-.125.0627-.078.1098.016.1569 0 .0313-.016.047-.047.047-.204-.0784-.345.0314-.173.1569.063.0314.361.1255.44.0471.031-.0314-.016-.1099-.032-.1412.11 0 .204 0 .314-.0314.031.1412.157.3765.314.3765.172-.0157.204-.1569.376-.0941.016 0 .016-.0157.016-.0314.204.1098.251.2667.471.2353 0 .0314-.016.0471-.016.0785.172-.0314.423-.0785.58-.1883v-.0314c-.078-.0157-.157-.0156-.219.0157.329-.298.831-.5804 1.208-.2824 0 .0157.015.0314.031.0471.063.0471.565-.1569.518-.3138-.016-.0313-.032-.0784-.016-.1255.016-.0157.047-.0313.063-.0627.016-.1098-.534-.2981 0-.5334.016.0157.047.0471.063.0471.047 0 .109-.0158.125-.0628v-.0314c.047-.0314.11-.0471.173-.0471.015-.0156.031-.047.015-.0627.612.1412 1.334.0941 1.757-.1098.471.0313.816.1098 1.099.4236-.063.0784-.063.1882-.11.2667 0-.0471-.032-.2354-.126-.1726-.015.0314-.047.0471-.062.0784-.173-.0157-.346-.0157-.502-.0157 0 .0157-.001.0314-.016.0314-.236-.0471-.926-.1725-1.161.0157-.016.0941-.094.3922-.188.4236-.047.0314-.251.0784-.251.1569l.015.0156c-.047.0471-.094.1099-.141.1569.11.1569.079.0628.204.1412-.031 0-.063 0-.11.0157-.204.3295 1.71.8785 1.71 1.1452 0 .0314-.015.0942-.015.1256.047.0784.109.1568.188.2196-.361-.1569-1.742-1.1138-2.024-.8471 0-.0314 0-.0628-.031-.0785-.251-.0785-.502-.0628-.644.0627-.031.0157-.047.0471-.062.0785.141 0 .282.0314.392.0784.078 0 .141-.0314.22-.0784.015.047.078.2981.094.3138.031.0156.062.0156.094 0-.157.0941-.283.2667-.439.3451-.424-.1726-.095-.4707-.659-.5962-.393.3295-.8.5021-1.193.455-.078-.0627-.486.2353-.533-.0628-.267-.4392-.847-.5804-1.459-.753v-.0471c.016 0 .031.0157.031.0157l.047-.0157-.047-.0784c.126-.3294-.219-.3137-.486-.3765-.11-.0471-.235-.1098-.361-.1726h.188l.079-.1098c-.126-.0314-.188-.0941-.267-.1882.063-.0157.126-.0471.11-.0942-.016 0 1.224-.6589 1.224-.7373-.377-.204-1.695-.3295-1.82.4549-.016.0471.125.0628.157.0628-.047.0313-.126.0471-.189.0471-.047.0313.016.1411-.015.1725-.047.0471-.314.0157-.361-.0314.157-.251-.377-.1412-.408-.1725-.078-.0785-.157-.1412-.251-.1883l.016-.0157c.015-.1255-.471-.0784-.534-.0627l-.015.0157.015-.0157c-.141-.1098-1.239.0941-1.584-.0628.015.0157-1.1455.1569-1.0984.0785l-.0156.0313c-.0157-.0156-.3609-.251-.3609-.251.0314 0 .047-.0157.0784-.0314l.0157-.047c-.0157-.0628-.0784-.1255-.0941-.204-.1255.0157-.1882.0942-.1882.2197-.0471.0627-.157.1098-.2197.1568-.0784.0157-.3138-.1568-.3451-.1882v-.0314l.0157-.0157c.0784-.1098-.5335-.4235-.659-.3922-.0157 0-.0313.0157-.0313.0471-.0157.0471-.0314.0941.0157.1255-.2824.0784.1412.5491.251.6589-.0314.0157-.1098.0627-.1098.1098.047.0314.047.0628.047.1098-.0627.0157-.1255.0628-.1726.1255-.8785 1.1453-1.8198.9256-2.7297-.251.0157-.0157.0314-.0313.0471-.047.0313-.1883-.3766-.2354-.455-.1569-.0785-.0628-.4236-.204-.4549 0 0 .047-.0001.0941-.0157.1412-.6746.3137-1.5061.8942-1.8512 1.255-.0471.1569-.6433.2354-.706.3765v.0158c.1882.0784.5334.1255.6903.251 0 .0627.0941.2509.0627.298z" fill="#b1bf34"/><path d="m99.9807 53.6194c-.0627-.0627-.1725-.0941-.2039-.1569 0-.0314-.2197-.3137-.2353-.2981.0313-.047.0784-.0784.1412-.1097-.0314-.0628-.0785-.1256-.1412-.1883-1.7885.047-2.7768-.8629-3.0592-2.7611-.1098.1098.4079-.7217.7687-.9256-.0157-.0628.5648-.1099.5961-.2197l-.0157-.0313c-.0941-.0157-.1882-.0314-.2823-.0628l-.0157-.0314c0-.047.0156-.0941.047-.1412.0471-.1568-.7687-.3765-.8157-.3922.0156 0 .0313-.0157.0313-.0471 0-.1882-.251-.1254-.3137-.298.0157 0 .0314-.0157.047-.0314-.1725.0314-.3294-.0157-.4392-.1255-.0471-.0314-.204.0157-.2353.0314 0-.0471.0156-.0785.0313-.1255l.0314-.0157c.1725-.251-1.8826-.8315-1.8826-.8315-.0627-.0471-.1255-.0785-.1882-.1098v-.0157c-.2824.0157-.7844-.0157-.9413-.2667l.0784-.0314c-.0784.1412-.5648-.5491-.5648-.6432-.0313.0471-3.1063.3608-3.6083.6275-.0941.0471-6.7459.7374-6.4321 1.2237 0 .0157.0157.0314.0314.0471.047.0157.0941 0 .1411-.0314-.3137.2667-3.5925 2.6827-3.6082 2.667.0157.0157.047.0157.0627.0157-.1255.2981.0471.2039.1726.3451-.0785.0942-.2511.3922-.1255.4864-.0314.3137-.2197.5804-.2667.8942-.2353.2039-.4079.5334-.3766.8471.1255 1.7257 1.0668 2.7926 2.7141 3.3573.1255.0942.6118.0471.7687.0942 1.459.4235.7688 1.6315 1.412 1.8826.1412.1412.4235.3294.6589.4235.0627.0471-.2824.3451.0314.3765-.3138.455-.957.6119-1.1923.8943-.0628.0627-.1726.1412-.2511.2039l-.0157-.0157c-1.004-.7373-1.2393 2.416-1.5531 2.4788-.047 0-.0784 0-.1255 0-.2824.1098-.3922 1.1452-.7687 1.3021-.4707.5177-1.1766.7844-1.7884 1.1452-.1726.0471-.4707.1255-.5962.2353-.8315-.6902-1.9924 1.5846-2.6043 2.7141z" fill="#b1bf34"/><path d="m102.836 51.9091c-.016.0314-.016.0627-.016.0784l.298-.1725c-.016 0-.031 0-.031 0l.015-.0157c-.031-.0157-.078-.0157-.11 0-.031-.0314-.062-.0785-.109-.1098-.094 0-.173.0471-.236.1412 0 .0314.063.0627.079.0784.047 0 .11-.0157.157-.0471l-.016.0628z" fill="#d1df5b"/><path d="m151.721 71.6604c-.032-.0157-.33-.4549-.33-.4549-.125-.3138-.423-.6276-.737-.8315 0 .1255.016.2353.047.3451-1.177-1.7414-2.212-3.4357-3.891-4.7535 0 .0471 0 .251-.047.2667-.015.0157-.047.0157-.062.0471l.015.0156c.032.0157.094.0314.126.0314.031.0471.204.3765.141.4236-.016 0-.33-.1569-.33-.2039-.078-.1569-.188-.2824-.251-.455.048.0157.11.0314.157.0157l.047-.0784c-.078-.1255-.156-.2511-.251-.3609-.062-.047-.204.0785-.251.0941-.078-.0313-1.867-1.3021-1.772-1.4747-.157-.2196-2.495-2.2276-2.463-2.6669.047-.0314.078-.0471.125-.0785.094-.1726-.408-.7059-.706-.6746l.047-.0627c.016-.1099-.125-.1726-.282-.2196.015 0 .015-.0157.031-.0157.204-.2981-1.286-.7845-1.145-.8315-.032-.0157-.079-.0471-.11-.0627l-.016.0156.016-.0156c-.329-.2354-.267-.0628-.047.1254-.047 0-.078.0157-.126.0157.063-.0784.079.3295.079.2981-.078-.1098-.188-.2353-.282-.3138-.032.0314-.048.0785-.032.1255-.016-.0784-.047-.1411-.078-.2039-.047-.0157-.094-.0314-.141-.047h-.016c-.032-.0628-.549-.4393-.863-.6903l-22.167 12.8015c.047 0 .078.0314.125.0157-.016.0314-.016.0628 0 .0941.079.0471.204-.1098.251-.1411-.188.2823.016.2667.314.2039-.047.0471-.079.0785-.047.1098l.015.0157c.095 0 .173-.0314.236-.0941-.047.047-.016.1098-.032.1569-.015.0627-.345.9883-.376 1.0197-.047.1255-.22.251.063.2039-.032.0628.015.1099.062.1256l-.015.0156c-.016.0157-.251.204-.283.2197-.062.0157-.125.0314-.204.0627l-.015.0314c.062.0471.141.0628.235.0628-.173.5177-.879.7216-.988 1.0511-.016.047.157.2353.188.2667.031.0157.063.0157.078 0 .079.047.8.1725 1.099-.0628.031-.0471-.22.3609-.157.4079.015.0157.047.0157.062 0-.313.251-1.945 2.6984-2.792 3.0749 0 .0314-.016.0784 0 .1098.031.0314-.204.2197-.235.251.078-.0156.156-.047.235-.0627-.031.0627-.235.4079-.22.4392-.69.7688-1.019 1.6944-.91 2.6827 0 .0941-.188.1255.047.1883.016.0784.079.1412.157.1569.251-.2667 1.914-2.416 1.397-2.7925-.455-.2667.125-.3295.172-.6746 0-.0314.016-.204 0-.2353.235-.5334 1.145-1.1767 2.055-1.4434 0 0 .016.0157.016.0471 0 .2667-.047.5805-.094.8942-.032.1412.031.2824-.094.4393-.016 0-.032 0-.047.0157-.032.0157-.094.251-.063.2667.063.0157.125 0 .172-.0628-.047.0314-.062.0785-.078.1412 0 .0628.078.0942.126.0942-.048.0313-.126.0627-.142.0941-.062.1098.142.047.189.0156-.032.1099-.016.2354.125.2354-.894.5491-.486.6432.298.5805.079-.0157.157-.1255.188-.1883.079 0 .173 0 .267-.0471v.0942c.031.0157.063.0156.094.0313.11.0628.345.1412.487.0628.109.0314.58.0784.69-.0941.878-.6276 1.6-1.7728 1.427-2.7925-.031-.1569-.047-.3138-.047-.4864.173-.0627.251-.2039.393-.2824.282.0785.392-.0627.69-.1412-.016.0471 0 .0785.016.1099-.032-.0314.753.0157.721.0157 0 .0627.126.1882.157.251.032.0157.173.0784.235.0784.016-.0157.048-.0157.079 0-.22.1098-.377.2667-.502.4706-.094.1726.392 0 .345.0628.141-.2039.894-.2353.988.0157.032.2039.204.1726.44.0471-.047.0313-.157.2039-.157.2353l.015.0313h.032c.596-.0313 1.082.1099 1.647.0471.282-.0157.424.1569.722 0-.016.0314.91.0471.972-.0157-.015-.047-.031-.0784-.062-.1098.313-.2039.706-.4236 1.066-.5961.157-.0471 1.146-.2353 1.208-.5648-.062-.0471-.172-.0471-.251.0157-.078-.0471.032-.251-.031-.3138-.078-.0157-.173-.0157-.235-.047v-.0314c-.016 0 .486.0627.502.0627.094-.0627.141-.1569.11-.251.109 0 .282-.0627.251-.2196-.016-.1098-.063-.1569-.016-.2667-.031-.0785-.063-.1412-.11-.2196-.016-.5021.345-.7688.11-1.3179.031-.0784 1.145-.3137 1.286-.2196.079.1412.361.2039.408-.0471 0-.0784-1.192-1.4276-.878-1.1923-.361-.1255-.424-.3294-.126-.5961.361.251 1.098-.2197 1.349-.0314.047.0941.11.1569.22.1569.126.1883-.157.3137-.298.3294-.047-.0157-.251.0785-.204.1883.031.0314.047.0627.047.0941-.063.1569-.188.0157-.267.0628-.047.0157-.015.0941-.015.1255.753.549 1.27-.2667 1.176.8471-.11.0157-.235.0785-.282.1726-.016.0314.094.0941.11.1098-.032 0-.079.0157-.094.0471.015.0627.031.1255.047.1883.047 0 .094-.0001.141-.0314l-.016.0157c.047.0784.141.1255.235.1098-.031.0314-.047.0627-.062.1098.047.1412.204.1726-.047.251-.032-.0157-.189-.0157-.204.0471.015.0627.047.1098.078.1726-.047.0313-.188.2196-.157.298.016.0157.032.0314.032.0471-.283.1255-.502.3137-.675.5647-.031.0785.22.0628.22.0628.078.1098.141.0471.251.0157-.032.0314-.032.0627-.016.1098.078 0 .126-.0313.188-.0627v.0784h.173c.298 1.1296 1.537-2.4003 1.051-2.2277.298-.0471 1.255-.5177 1.349-.5177v.0627c.188-.0157.392-.0627.565-.1412 0 .1883.078.3452.235.4079 2.212 0 2.652-1.1923 3.922-2.6513.424.4706-.361 1.2708-.392 1.7101-.016.4235-.125.8314-.329 1.255-.016.0471-.016.0784 0 .1255.109-.0314.188-.1098.251-.2196.062.047.109.0941.157.1412.031.0627 0 .2196.031.2667.016.0157.031.0313.047.0313.094-.0941.173-.2981.078-.4079l-.047-.0156c.016-.0314.11-.2824.079-.3138-.032-.0157-.063-.0471-.094-.0784.047-.2824.172-.5492.36-.7688.079.1255.44.5805.424.5177-.031-.502.33-3.0592.079-3.2474-.032-.0157-.063-.0157-.095-.0157-.141.047-.062.4079-.047.502-.031 0-.062-.0157-.094-.0314-.015-.0313-.015-.0627-.031-.0941-.047-.047-.157.0941-.157.1098.031.1726-.063.3295-.188.455 0-.0785.094-.3922.047-.4393l-.047-.0157c.078-.2353.031-.5334-.094-.7844l-.063-.2196c-.173 0-.298-.0628-.392-.1726-.047.0314-.079.0785-.095.1255-.078.1883-.251-.0157-.266-.0785.031 0 .063-.0313.078-.0627-.031-.0941-.125-.1412-.235-.1412 0-.0313.016-.047.031-.0627.094.1098.204.1255.345 0 .016-.0157.047-.0471 0-.0628-.015-.0157-.047-.0313-.062-.0313.062-.0157.109-.0471.141-.1099 0-.0627-.016-.2353-.063-.2667-.047-.0157-.078-.0157-.141-.0157l-.047.0471c-.047.1569.047.204-.032.3452l-.062-.0158c-.016-.0627-.016-.1255.015-.1882-.015-.0314-.031-.0471-.062-.0784.031-.0157.125-.0942.109-.1256-.062-.1255-.204-.0313-.172.0942-.11-.0942-.251-.2354-.377-.3452.079 0 .204.0157.298-.0156.032-.0314.047-.0471.079-.0785.345-.0628 1.129-.1883 1.365-.502.157 0 .376-.0942.517-.1883.22-.0627.565.1726.691.3138l-.016.0157c-.016.0627.173.1725.22.2039 0 .1098.078.251.204.1098.109.1883.219.2981.423.2668l.016.0156c-.016.0314-.063.1726-.031.1883.062.0313.219.0627.266-.0157.016-.0314.032-.0627.047-.0941.016-.0157.032-.0157.047 0 .22.1726.455.4863.644.6589-.502.0156-.251.1412.031.2824.031.0627.063.1098.11.1568.047.0314.172-.0313.204-.0627.11.1726.266.2667.47.2824.157-.1255-.376-.455-.157-.5648.032-.0157.314 0 .361-.0627.079-.1099.157-.1883.251-.2668.11-.047.408.1569.502.1883.189.1412.063.2667.33.251.015.0471-.126.3295-.094.455.031.0157.062.0314.109.047-.141.1726-.094.2354.126.1883l.016.0157c.031.0314.376-.1255.423-.1412.016.0628.079.1412.157.1255l.032-.0157c.031-.0314.062-.0941.047-.1255-.032-.0314-.063-.0628-.079-.1098.032-.0785.047-.1569.016-.2353.063 0 .141.0157.204.047.015.1412 0 .3138-.047.4707.047.1098-.283-.0628-.079.1726.032.0156.047.047.079.0627-.032.0157-.063.0314-.094.0627.015.0314 0 .0785-.016.1099-.063-.0471-.377-.1412-.439-.0471 0 .0471 0 .0941-.016.1412-.235.2667-.863.4236-1.13.4707-.031-.0314-.094-.1256-.141-.1256l-.031.0157c-.879.8158-.267 2.5415-.455 3.5769.329-.2039.674-.4706.753-.6118.031.0157.063.047.078.0941.047.0314.173.0157.22.0157 0 .0628.031.1098.078.1569 0-.0157-.015-.5648.063-.5805.235-.0784.283.0157.424.1255l.031.0157c.063-.1255.11-.7217.235-.8158.016 0 .048-.0313.063-.0156.565.6432-.063-.455.11-.5491h.078c.157-.0628 0-.3452-.047-.3922-.047.0157-.109-.0001-.141-.0157-.078-.1255.188-.7217.267-.8315.314-.0785.188.1255.361.2667.062.0314.125.0157.188-.0314 0-.0157.016-.0314.031-.0471.032 0 .079-.0156.11-.0156 0 .0941-.094.3922.094.3608.063 0 .157-.0785.22-.0941.11 0 .282.0314.361.1255.063.0314.125.0628.172.1098.063.1726.126.3451.173.5334.047.0314.188-.0941.188-.1098v-.0471c.628.3295 1.271-.4236 1.898.3765.063.0471.22-.0784.251-.1098.189-.1255-.721-1.3962-.674-1.5061v-.0157c.455.3295.722.3295.58-.3294.047-.0157.063-.0157.079-.0157 0 .0314 0 .0471.015.0785.032.0156.063-.0001.095-.0157-.032.0313-.079.0941-.063.1255.015.1569.188.6275.439.5961.047 0 .486.204.392.3608-.031.0471-.031.1099-.031.1726.157.2981.533.5805.753.8001-.031.0157-.031.0471-.031.0941.078.0471.172.0628.266.0628 0-.1883-.015-.3922-.047-.5648.188.0157.126.1412.361.0942.078-.1569.11-.2981.016-.3609zm-23.313 4.8791c.031-.0314.063-.0471.094-.0471h.047c-.047.0313-.078.0471-.141.0471zm12.409-16.0648c.063.0157.11.0314.157.0628-.062-.0157-.125-.0471-.157-.0628zm.393.4236c-.11.0942-.267-.0314-.314-.1255.094.0314.235.0941.329.1098z" fill="#b7c441"/><path d="m143.342 74.1709c0-.0157 0-.0471 0-.0627-.031.0156-.062.0313-.109.0627z" fill="#d1df5b"/><path d="m113.646 78.6571c.078.0628.204.0471.329-.0157 0-.047 0-.0784 0-.1098-.094.0471-.219.0941-.329.1255z" fill="#d1df5b"/><path d="m142.763 74.2492c-.063.1569.188.0785.471-.0784-.142 0-.33 0-.44.047z" fill="#d1df5b"/><path d="m138.073 58.7022c-.047.0314-.157.2982-.236.3766-.219-.3138-.329-.6589-.439-.957-.016-.0157-.016-.0314-.031-.0628.031-.0157.11-.0627.078-.1098-.063-.4235-.314-.8157-.659-1.0197l-.015.0314c-.032-.0314-.047-.0941-.063-.1412-.11-.0785-.502-.6432-.69-.5491-.11.0471.031.2667.015.3138-.015.0314-.015.0784-.015.1098-.299-.2511-.816-.5805-.989-.9884.032 0 .063-.0157.079-.0471.031-.0784-1.067-.9726-1.224-.8785l-.016.0314c0-.0314.032-.1569.047-.1412-.015-.0627-.031-.1726-.078-.2196l-.047-.0157c-.032.0156-.047.0314-.063.0784-.11-.0157-.267-.1568-.282-.2824.094.0314.329.2354.47.1412l.016-.047c-.031-.204-.267-.2981-.439-.2981-.016.0471 0 .0784.031.1098-.11-.0471-.423-.251-.518-.1726-.015.0157-.015.0314-.015.0471.031.0784.141.1412.204.1726-.204.0941-.691-.3609-.879-.4236-.063.0157-.141.0313-.204.047-.031-.0627.047-.1412.157-.0941.188.0628.471.0471.659.1255.063.0314.125.0942.204.0314l.016-.0157c.156.0314.313.0628.486.1098.078.0628.204.0471.314 0 .062-.1725 0-.2353-.063-.3765.031-.0157-.031-.3138-.047-.3295h-.016c-.047.0157-.063.0471-.063.0942-.094-.1255-.831-1.1453-1.051-.9727-.015.0157-.031.0314-.047.0471-.047-.0785-.188-.1412-.266-.1726.062 0 .109 0 .172-.0157l.016-.0313c.016-.2197-.33-.2668-.392-.455.141.0314.188.047.204.0313.015 0 .015-.0156 0-.0313-.157-.2824-.565-.4863-.848-.6118-.047-.0314-.329.047-.36.0941-.016.0314.015.0941.031.1098-.188-.204-.455-.2824-.722-.2667-.031-.0941-.11-.1412-.204-.1569v-.0157c.047 0 .126 0 .142-.0157.047-.0627-.55-.3451-.597-.3451-.015-.0314-.031-.0785-.031-.1255l-.016.0157v-.0157c-.8-.3765-2.274-1.2865-1.694-.204-.298-.1569-1.318-.8942-1.569-.7373l-.016.0471c.032.047.079.0784.11.1255.063.3137.032.549.298.8157v.0157c-.251.0157-.69-.7843-.862-1.004.047.0157.251.1412.282.1412-.094-.2353-.361-.3138-.722-.251.063.0627.126.1098.204.1412-.015 0-.031.0156-.047.0313.063.0314.126.0942.173.1412-.141-.0314-.345-.3765-.518-.2981.016.1569.094.2982.204.4237-.157-.1099-.345-.1726-.408-.3452.031 0 .047 0 .063-.0157.031-.0627.031-.1098 0-.1569.125-.3294.251-.6903.031-.1882-.204-.0785-.408-.0941-.627-.0157.141-.1726-.063 1.1923-.204 1.0825.235.0784.423.2039.596.3765-.173-.0941-.345-.1569-.518-.2039-.047.0156-.141.2667-.11.3137.016.0314.063.0471.094.0628-.047-.0314-.392.2353-.439.2353-.157-.0628-.345-.0628-.518 0-.156-.1726-.329-.3609-.502-.5334.095.0784 1.271.3451 1.114-.0314 0-.0157-.015-.0157-.015-.0313.047 0 .188-.0001.204-.0157l.015-.0314c-.078-.1726-.204-.6746.016-.8472.345-.2353.031-.2824.078-.5648.612-.0314.236-.5648.032-.7844.125.0471.157.0471.172.0471l.016-.0157c-.016-.0941-.251-.5177-.408-.3451-.016.0157-.047.0941-.063.1255l-.031-.0157c0-.0157-.016-.0314-.016-.0471.047.0314-.878.2981-1.004.2824-.062.0471.032.2039.079.2196-.079.0942-.094.1883-.032.2824-.062-.0314-.125-.0627-.188-.0784-.016 0-.047.0314-.063.047-.078.1255.016.1726.094.204l-.141.0314c.094 0 .189.0313.267.0627.016.0471 0 .0941-.016.1255-.031.0628.126.2667.157.3138v.0313c-.063.0785-.125.1099-.219.1256-.581-.6275-.785-1.459-1.569-1.8983.062-.2039-.016-.3608-.157-.5177.031-.1098-.33.0314-.267-.0314-.094.0942.235.502.314.5648-.016.1098 0 .204.078.2824-.015.0157-.109.0471-.125.0471-.094-.1099-.173-.1255-.236 0-.015 0-.031 0-.031 0-.078-.0157-.125-.0628-.125-.1413.062.0157.109 0 .156-.047 0-.0157-.062-.0942-.062-.0942.062-.0941.078-.1725 0-.251h-.016c-.031.0471-.047.1099-.047.1726-.016-.0157-.031-.047-.047-.0784-.047 0-.094 0-.141 0-.063-.1726-.236-.0314-.345-.1098.078-.1569-.549-.2511-.644-.2511v-.0157c0-.0627-.141-.1412-.188-.1568.047-.0314.094-.0785.126-.1255.549-.204-.361-.2668-.44-.2197l-.015.0157v.0157l-.047-.0157c0-.0157 0-.0314.015-.0471.016-.0156.032-.0313 0-.0627-.298-.1098-.878-.4393-1.192-.3765-.078.0314-.157.0941-.22.1569-.157.0627-.36-.1569-.439-.2667.016-.0628-.063-.3138-.063-.3295.142-.0314.393.1098.487.1569 0-.4236-.173-.6118-.471-.8315-.047-.0157-.11-.0157-.141.0314-.079.0941.125.1569.094.2196-.078.1099-.188.1726-.314.204-.015-.0314-.047-.0471-.078-.0471.031.1255.094.251.141.3765-.11.0314-.22.0785-.298.1569-.016-.047-.047-.0784-.094-.1098.031-.0784.031-.1255.015-.1569-.047-.0784-.141-.1255-.188-.2039-.078-.0628-.863-.1883-.973-.1255-.062.0314.063.3294-.047.3765-.36-.1569-.36-.5805-.58-.7531-.063.0157-.126.0001-.188-.0156l-.157.0941c-.032.1569.094.3294.204.3608 0 0-.016.1098-.032.1255-.204-.1098-.329-.2353-.407-.3608l-11.061 6.3851c-.047.0471-.078.0784-.125.1412-.016.0314-.079.0157-.126 0l-.298.1726c0 .047.016.0784.063.0784.016.0471.063.0941.11.1255-.032.0157-.047.0471-.079.0627-.015-.047-.047-.0941-.047-.1411-.015 0-.031 0-.062 0-.063.0156-.095.047-.126.0941 0 0-.016.0471.016.0628.031.0156.062.0156.094.0313-.047.0314-.079.0785-.126.1098.016.0471.047.0785.079.0942-.173 0-.345.047-.502.1098.094.0157.392-.0628.439-.0157.047.0314.079.0627.141.0941-.031.0314-.047.0314-.063.0157 0-.0157-.015-.0157-.015-.0313-.063-.0471-.188-.0157-.251 0 0 .0313 0 .047.015.0627.079 0 .142.0157.189.0627-.032.0157-.063.0471-.079.0785-.047-.0314-.188-.0314-.235-.0157-.031.0157-.078.0627-.094.1098v.0471c.141.1882.376-.1098.486-.1255.047 0 .079.0157.126.0157-.016.0314-.047.0784-.032.1098.047.0313.094.0471.142.0471 0 .0157 1.066 1.5531 1.678 1.1922.016.0942.063.1883.126.2668.047.0313.219-.0158.266-.0314.016.0313.016.0627.032.0941l-.032.0471s-.251-.0471-.251.0627v.0157c-.251.0628-.204.1883-.345.3294-.094 0-.157.0471-.172.1569l.015.0471c-.706.4393-1.506.6432-2.165.4863-.204-.0313-.298-.1412-.235-.3608v-.0157c-.157-.2196-.392-.3294-.675-.3294-.109-.0471-1.4743-1.0669-1.3331-1.2237.0942-.0942.0785-.1569.0314-.2039l-24.8972 14.386c-.1882.3452-.3294.5805-.3922.5962-.4236.3294-.9727.753-1.3178 1.1923v.0941c-.7844.8943-.8158 1.9924-1.8355 2.5572-.0785.0471 0 .3451-.1412.4236-.0157 0-.3138.1412-.251.1882h.1411c0 .0314.0001.0471-.0156.0628s.0627.2196.0471.2981c-.1256.1569.3137.2039.4549.1569.3294.1882.7844.3608 1.1139.6118.047.2196.2039.2981.4235.2667.2354.1726.0157.1098.3138.0941 1.7885.3452 3.8122.1569 5.3654-.753.5804.0627 1.3648.0157 1.8041-.1099.5961-.3294 1.1139-.8 1.4747-1.3648.3138.047 4.1103.3295 4.1731-.2196.2824-.2354 2.4473-2.1807 2.3218-2.3847-.0157-.0157-.0156-.0313-.0313-.047.1098-.0628.2196-.0941.3451-.0785.6275-.4078 1.1766-1.1766 2.2591-1.1923 1.3649 1.0041 7.0126-1.0668 8.4716-1.5531 0 0 .0314.0157.0628 0 .0313-.0627.0313-.1098 0-.1569.0627.0941-1.5531-1.7257-2.1179-2.1336-.0941-.0313-.1726-.0784-.251-.1255.1255.0314.9883-.1883.7059-.4079-.0314-.0471-.0941-.2667-.0156-.3137h.0156c.5805-.455.6903-4.0005 1.6944-4.7693.0627-.047.1411-.1098.2191-.1569.032.0157.11.0628.157.0315.549-.3609.534-2.3376 1.24-2.6984-.408.7687-.487 1.255.455.7373-.706.5962-.204.9256-.832 1.8983-.094.1882-.251 1.1295-.423 1.2707-.487.5962-.518 2.0395-.9887 2.4317-.1255.0941-1.459 1.8198-1.4433 1.8198.0314.0157.047.0314.0627.0471 1.1766.3765 2.4943.753 3.7813 1.0511.109-.0157 1.741.0941 1.788.0314.078-.0942.408.1412.471.1412.423-.0314 1.176-.5491 1.506-.4864-.032.0471-.047.0785-.047.1256.282-.0471 1.114-.0785 1.349-.2824.031-.0157.031-.0628.016-.0785-.016-.0627-.11-.1098-.157-.1255-.063-.047.094-.3608.141-.4236 1.067-1.004-.879-1.8198-1.914-1.7727.063-.1098.078-.2354.047-.3766.078-.0627.251.0314.298-.0941.11-.3451.502-.6432-.251-.2981l-.016-.0156c.016-.0628.032-.3295.047-.3452.126-.0627.204-.047.267-.2039.031-.0157.063-.0314.079-.0471.078-.3137.031-.6589.094-.9883l-.016.0313c-.016.0314.251-.5648.424-.4393 0 0 0 .0158.015.0158.094.0627.251-.1099.314-.0628.094.1255.22.1726.392.1412l-.125.4392.031.0157c.33.2511-.533 1.6159.581 2.0081-.016.0157-.157.1412-.126.1726.157.047.298.0314.424-.0941.015 0 .015.0157.031.0157.016.0627.11.2196.078.2667-.015.0627-.36.4079-.298.4863.785.8629 1.93 1.3806 2.714 2.2434-.031.0471-.062.1098-.094.1569.047.0471.079.0941.11.1569-.094.0784-.172.1725-.251.2667-.016.0784 0 .1412.016.2039 0 .455.157.7217.549.9099-.079.0942-.439.0314-.518-.0156-.063-.0471-.016-.204-.172-.1412-.032.0157-.047.0313-.047.0627 0 .1098.251 1.5375.643 1.2864-.8.8943-3.812 5.083-3.31 5.4438.219-.0156 1.129-.047 1.129-.0313-.016-.0314-.063-.0628-.094-.0785.141-.0314.267-.0941.377-.1725.141.0627.564.047.643-.204.015-.0314.015-.0627 0-.0784 0-.0784 1.694-1.1296 1.929-1.2864.142.1568.22-.0315.377.0156.11.1569.502.2981.627.0471 0-.0314-.015-.0628-.031-.0784.847.047 2.573-.5805 3.185-.408.219.0471.266.1099.486 0-.078.0471-.141.1099-.188.1883.047.1412.172.1098.314-.0157-.032.0471-.032.1098-.016.1726.063.0314.141.0314.204.0314l22.167-12.8016c-.094-.0784-.219-.1883-.172-.2197zm-27.313 9.3503c-.048 0-.079.0156-.126.0313-.016.0157-.031.0471-.063.0628.047-.0471.094-.0942.141-.204.032-.047.032-.0941.063-.1412.079-.0157.141-.047.204-.0941l.016.0157c.078.0627-.314.3608-.235.3295zm14.401-16.7237c-.031-.0157-.047-.0314-.062-.0627.125-.2354.141-.455.047-.6903l.031.0313c.314.2981.016.4236-.016.6276-.015.0314 0 .0627 0 .0941z" fill="#d1df5b"/><path d="m116.532 45.2104c.016-.0314.079-.2667.095-.251-.11-.0784-.173-.204-.204-.3295-.063-.1255-.126-.251-.204-.3765l-.926.5334c.455.4863.957.8943 1.239.4236z" fill="#d1df5b"/><path d="m139.594 70.3583v.0313c-.016 1.1453-.565 2.212-1.506 3.122-1.13 1.0824-2.809 1.961-4.848 2.5101-1.49.3922-3.169.6118-4.942.5961s-3.451-.2667-4.942-.706c-1.976-.5647-3.624-1.4589-4.722-2.5414-.957-.9413-1.49-2.0238-1.49-3.1847v-.0471c.031-2.4944 2.604-4.628 6.338-5.6164 1.49-.3922 3.169-.6118 4.942-.5961 1.772.0157 3.435.2667 4.926.7059.172.0471.329.0942.502.1569.361.1098.706.2511 1.035.3766 2.871 1.1766 4.707 3.0748 4.707 5.1928z" fill="#d9d5e5"/><path clip-rule="evenodd" d="m135.436 2.41261c-5.444-3.137644-10.637-3.04351-14.214-.70597v-.0157l-5.961 3.42004 6.871 3.20039c.016 1.50606.204 3.05923.518 4.59663l-.047-.0314.141.4707c.251 1.0982.565 2.1806.941 3.2788l11.735 30.043-8.456 16.6451 6.448-3.8906 15.704-21.8537c1.192-1.71 1.883-4.0005 1.883-6.8558.015-9.8679-5.695-22.62236-15.563-28.30149z" fill="url(#a)" fill-rule="evenodd"/><path clip-rule="evenodd" d="m126.98 63.33 15.641-22.0105c1.192-1.71 1.882-4.0005 1.882-6.8557 0-9.8679-5.694-22.6225-15.562-28.30159-9.868-5.67913-18.967-.81578-18.967 9.05209 0 1.6002.188 3.2475.533 4.8947l-.047-.0314.141.4707c.251 1.0982.565 2.1807.942 3.2788z" fill="#bd1313" fill-rule="evenodd"/><path d="m117.064 19.6381c-.047.6433-.047 1.2865 0 1.9454v.0157c.016.0941.016.1569.031.251.079 1.3178.345 2.667.753 4.0005.016.0784.047.1726.063.251.424 1.3649.988 2.6984 1.679 3.9848.015.0784.078.1726.125.251.69 1.2864 1.491 2.4944 2.4 3.6083.048.0784.11.1412.157.2039.895 1.0668 1.883 2.0552 2.934 2.871.063.0627.126.0941.188.1412.502.3765 1.004.7216 1.522 1.0197.565.3295 1.098.5962 1.632.8001.062.0471.141.0628.219.0784 1.067.4236 2.103.6433 3.075.6433.063 0 .126.0157.188 0 .973-.0157 1.883-.2354 2.683-.6433.063-.0156.126-.047.157-.0941.816-.4236 1.49-1.0354 2.055-1.8355.047-.0471.079-.1098.11-.1569.533-.8001.957-1.7727 1.208-2.9023.016-.0784.031-.1255.047-.2039.11-.5178.188-1.0668.235-1.663.047-.6589.047-1.3178.016-1.9767-.016-.0942-.016-.1726-.031-.2667-.094-1.3178-.361-2.6827-.769-4.0162-.016-.0784-.047-.1726-.063-.251-.423-1.3649-1.004-2.7298-1.694-4.0162-.047-.0941-.094-.1726-.141-.251-.691-1.2864-1.506-2.5101-2.416-3.6083-.047-.0784-.126-.1569-.173-.2196-.894-1.0825-1.867-2.0238-2.918-2.8239-.063-.0627-.141-.1098-.22-.1726-.47-.3608-.957-.6746-1.459-.9727-.564-.3294-1.129-.6118-1.678-.8314v.0157c-.063-.0471-.126-.0628-.204-.0785-1.067-.4079-2.102-.6118-3.059-.5961-.063 0-.126-.0157-.189 0-.972.0157-1.882.2353-2.682.6589-.047.0157-.094.047-.157.0784-.785.4393-1.475 1.0355-2.024 1.8512-.047.0471-.078.1098-.11.1569-.533.8001-.941 1.7571-1.192 2.8866-.016.0628-.031.1255-.047.204-.126.5177-.204 1.0668-.251 1.6629z" fill="#e79a1a"/><path d="m116.595 59.8938-2.384-4.5652c-.408-.7217-.895-1.3806-1.428-1.9924l-2.275 1.3648c.534.5648 1.02 1.1924 1.412 1.8827l2.228 4.2985 2.51-.8785c-.016-.0314-.031-.0628-.063-.1099z" fill="#d9d5e5"/><path d="m102.821 51.4227c2.04-.0156 4.032.5648 5.726 1.6473l2.432-1.459c-2.353-1.8512-5.303-2.8396-8.315-2.7925z" fill="#d9d5e5"/><path d="m78.4258 41.6796c.2824.1098.5491.251.8158.3922 1.459.8001 2.6513 1.961 3.4984 3.3416l2.6984-.5177c-1.0825-2.1493-2.7768-3.9534-4.9261-5.1457-.5647-.2981-1.1452-.5491-1.7257-.7531z" fill="#d9d5e5"/><path d="m117.975 62.1057-2.589.8943c1.397 2.1335 3.154 3.9847 5.162 5.5065l2.494-1.4277c-1.977-1.3334-3.702-3.0121-5.067-4.9731z" fill="#d9d5e5"/><path d="m99.1804 49.3513c-.1098.0314-.204.0471-.3138.0784l-5.8046 1.8826c-.3922.1256-.7844.204-1.1923.2354l-1.5218 2.5571c1.1766.1726 2.3846.0785 3.5141-.2823l5.4753-1.7885z" fill="#d9d5e5"/><path d="m128.894 69.7464c-1.193-.3138-2.322-.753-3.42-1.2864l-2.683 1.5374c1.694.9884 3.514 1.7728 5.428 2.2748l2.055.5334 3.201-1.8512z" fill="#d9d5e5"/><path d="m87.6036 53.1797c.1255.0627.251.1255.3765.1882l1.3492-2.2748c-.1412-.0628-.2981-.1099-.4393-.204-1.2864-.7217-2.1806-1.9141-2.4944-3.3574-.0314-.1098-.0627-.2354-.0941-.3452l-2.5886.4864c.0471.1412.0941.2981.1255.4393.502 2.165 1.8669 4.0006 3.7652 5.0675z" fill="#d9d5e5"/><path d="m76.4016 38.4485c-1.8826-.251-3.8122-.0785-5.6321.5804l-3.7024 1.3335 1.208 2.3376 3.373-1.2237c1.4276-.5177 2.9493-.6432 4.4084-.4393z" fill="#d9d5e5"/><path d="m64.7922 41.194-7.1381 2.5728 1.3962 2.2591 6.9499-2.4944z" fill="#d9d5e5"/><path d="m116.595 58.3722-2.384-4.5652c-.408-.7217-.895-1.3806-1.428-1.9924l-2.275 1.3648c.534.5648 1.02 1.1924 1.412 1.8826l2.228 4.2986 2.51-.8785c-.016-.0471-.031-.0785-.063-.1099z" fill="#db2b27"/><path d="m102.821 49.8854c2.04-.0157 4.032.5648 5.726 1.6473l2.432-1.4591c-2.353-1.8512-5.303-2.8395-8.315-2.7925z" fill="#db2b27"/><path d="m78.4258 40.1583c.2824.1098.5491.251.8158.3922 1.459.8001 2.6513 1.961 3.4984 3.3415l2.6984-.5177c-1.0825-2.1492-2.7768-3.9534-4.9261-5.1457-.5647-.2981-1.1452-.5491-1.7257-.753z" fill="#db2b27"/><path d="m117.975 60.5844-2.589.8942c1.397 2.1336 3.154 3.9848 5.162 5.5065l2.494-1.4276c-1.977-1.3335-3.702-3.0278-5.067-4.9731z" fill="#db2b27"/><path d="m99.1806 47.8141c-.1098.0314-.204.0471-.3138.0785l-5.8046 1.8825c-.3922.1255-.7844.204-1.1923.2354l-1.5218 2.5571c1.1767.1726 2.3846.0785 3.5142-.2824l5.4752-1.7884z" fill="#db2b27"/><path d="m128.894 68.2088c-1.193-.3138-2.322-.753-3.42-1.2864l-2.683 1.5374c1.694.9883 3.514 1.7728 5.428 2.2748l2.055.5334 3.201-1.8512z" fill="#db2b27"/><path d="m87.6037 51.642c.1255.0628.251.1256.3765.1883l1.3492-2.2748c-.1412-.0627-.2981-.1098-.4392-.2039-1.2865-.7217-2.1807-1.914-2.4945-3.3573-.0313-.1098-.0627-.2353-.0941-.3451l-2.5886.4863c.0471.1412.0942.2981.1255.4393.5021 2.1649 1.8669 4.0004 3.7652 5.0672z" fill="#db2b27"/><path d="m76.4016 36.9108c-1.8826-.251-3.8122-.0785-5.6321.5804l-3.7024 1.3335 1.208 2.3376 3.373-1.2237c1.4276-.5177 2.9493-.6432 4.4084-.4393z" fill="#db2b27"/><path d="m64.7922 39.6567-7.1381 2.5729 1.3962 2.2748 6.9499-2.5101z" fill="#db2b27"/><path d="m63.2228 37.4696c-.0294-.1381-.0529-.2792-.0676-.4202-.0117-.1264-.0352-.2703.0265-.3908s.1822-.2321.3056-.285c.0617-.0265.1498-.0412.2086-.003.0793.3115.144.6259.1763.9462.0206.191.047.3849.0441.5788 0 .1675.0382.3556-.0118.5201-.0235.0794-.0969.1352-.1675.1822-.0264.0176-.0587.0382-.0881.0294-.0441-.0118-.0588-.0647-.0676-.1087-.0294.0029-.0705.0411-.094.0029-.0647-.1146-.047-.2497-.1205-.3614-.0646-.097-.1616-.1646-.2351-.2556-.0117-.0118-.0205-.0265-.0205-.0441-.003-.0323.0264-.0588.0587-.0676.0676-.0235.1234-.0176.0999-.1028-.0117-.0706-.0323-.144-.047-.2204z" fill="#646464"/><path d="m56.0552 38.8859-11.157-6.4938-6.6818 3.8757c-.3085.1792-.3056.6229.0029.7992l19.3081 11.0865c1.3634.7787 3.0382.7728 4.3958-.0147l3.194-1.8511c.8786-.5113.8727-1.7836-.0118-2.2832z" fill="#d9d5e5"/><path d="m58.2116 42.2093-.1323.1205-.3261.2821-3.1-2.1627z" fill="#b37a00"/><path d="m43.7258 39.1004 1.5749-1.2077s-.9197-.4878-.9579-.4848c-.0352.0029-.5259.2468-.5259.2468s-.7052.6053-.0911 1.4457z" fill="#211e1e"/><path d="m55.5489 45.8353 5.5417-3.6113.0441-1.5367-5.5418 3.6112-.3438.9256z" fill="#000"/><path d="m60.0744 45.2414 2.5328-.3261 3.0295-2.1744-.0705-1.2077-1.6014-2.6005-5.8856 3.3968z" fill="#f3d052"/><path d="m65.5666 41.5332-1.6014-2.6005-.2967.3585 1.7072 3.7464.282-1.0695z" fill="#f1c435"/><path d="m61.9902 44.7685-3.0853-2.627-.8257.188 2.0745 4.1404z" fill="#f1c435"/><path d="m65.3639 42.8174c-.0499.0617-.0999.0793-.1616.1469-.2027.2292-.523.4525-.8697.6993-.0176.0118-.0353.0265-.0529.0382-.7816.5407-3.2587 1.3899-3.8346 1.5779l-.0558.2086.0264 1.1078s2.7944-.3438 3.8552-1.0813c.4172-.2909.7375-.6435.9843-.9932.2762-.3967.4496-.7845.5436-1.0607.003-.0059.0059-.0118.0059-.0177 0 0 .0353-.5906.0323-.7845-.2057-.0147-.3203.2439-.4731.1587z" fill="#caa830"/><path d="m58.0293 47.9388-2.054-3.4437 1.0725-.62.003.0029c.2586-.141.6112-.1146 1.002.1087.7904.4555 1.431 1.5515 1.431 2.4477 0 .429-.147.7346-.3879.8874l-.0206.0117c-.0059.003-.0117.0059-.0176.0089z" fill="#000"/><path d="m56.3457 44.7096 1.4574-.8403c.0823.0293.1646.0675.2527.1175.7905.4554 1.431 1.5515 1.431 2.4477 0 .1645-.0235.3114-.0617.4378l-1.1195.6464c-.1234-.0352-.2498-.0881-.382-.1645-.1469-.0852-.288-.1881-.4202-.3086l-1.0784-1.81c-.0499-.1792-.0734-.3555-.0793-.526z" fill="#1f1f1f"/><path d="m55.5845 45.3884c0 .8962.6405 1.9922 1.431 2.4476.7904.4555 1.431.097 1.431-.7992s-.6406-1.9922-1.431-2.4477c-.7905-.4583-1.431-.0999-1.431.7993z" fill="#2a2a2a"/><path d="m55.6407 45.4181c0 .861.6142 1.9159 1.3752 2.3537.7581.4379 1.3752.0911 1.3752-.7699s-.6142-1.9159-1.3752-2.3538c-.761-.4349-1.3752-.0911-1.3752.77z" fill="#1d1d1d"/><path d="m55.9462 45.5972c0 .6699.4789 1.4868 1.0666 1.8276.5906.3409 1.0666.0706 1.0666-.5965 0-.6699-.4789-1.4868-1.0666-1.8276-.5877-.3409-1.0666-.0735-1.0666.5965z" fill="#3b3b3b"/><path d="m56.019 45.6381c0 .6229.4467 1.3869.9961 1.7042.5495.3174.9962.0676.9962-.5583s-.4467-1.3869-.9962-1.7042c-.5494-.3144-.9961-.0676-.9961.5583z" fill="#727272"/><path d="m57.028 45.0887c.5436.3203.9814 1.0755.9814 1.6955 0 .0881-.0088.1704-.0264.2409l-.7258.4202c-.0764-.0235-.1587-.0558-.241-.1028-.5406-.3115-.9784-1.052-.9931-1.672z" fill="#a9a9a9"/><path d="m57.5722 45.5941c.1939.2615.3379.573.4025.8727l-1.2047.6964c-.2351-.2027-.4349-.4789-.57-.7757z" fill="#e9eae7"/><path d="m57.5722 45.5941c.1939.2615.3379.573.4025.8727l-1.2047.6964c-.2351-.2027-.4349-.4789-.57-.7757z" fill="#e9eae7"/><path d="m56.337 45.6266c0 .4966.3526 1.1019.7905 1.3546.4378.2527.7904.0529.7904-.4437s-.3526-1.1019-.7904-1.3546c-.4349-.2497-.7905-.0529-.7905.4437z" fill="#4d4d4d"/><path d="m56.479 45.6618c0 .4261.3027.9462.6788 1.1607s.6787.047.6787-.379c0-.4261-.3026-.9462-.6787-1.1607-.3761-.2174-.6788-.047-.6788.379z" fill="#949494"/><g fill="#727272"><path d="m57.5102 45.5942c.0088-.0147.0235-.0235.0382-.0323.0411.0499.0764.1058.1116.1616-.0323.0118-.0676.0118-.0999 0-.0617-.0264-.0823-.0823-.0499-.1293z"/><path d="m56.4877 45.997c-.0441-.0588-.0353-.1117.0206-.1146.0558-.0059.141.0382.1851.0999.0441.0587.0353.1116-.0206.1146-.0587.0029-.141-.0412-.1851-.0999z"/><path d="m57.6772 46.4553c-.0147-.0706.0205-.0999.0793-.0617s.1175.1263.1322.1968-.0205.097-.0793.0617c-.0588-.0382-.1176-.1263-.1322-.1968z"/><path d="m56.8053 45.2035c.0206-.0587.0676-.0499.1088.0147.0382.0647.0528.1675.0323.2233-.0206.0588-.0676.05-.1087-.0146-.0382-.0647-.0529-.1646-.0324-.2234z"/><path d="m57.6833 45.9677c-.0529-.047-.0558-.1058-.0059-.1264.0118-.0058.0265-.0088.0441-.0088.0323.0617.0617.1264.0881.1881-.0411-.003-.091-.0206-.1263-.0529z"/><path d="m57.7156 46.8285c-.0089.0647-.0559.0676-.1029.0088-.047-.0587-.0764-.1586-.0676-.2233.0089-.0646.0559-.0676.1029-.0088s.0764.1587.0676.2233z"/><path d="m57.728 46.2265c-.0382-.0647-.0206-.1117.0411-.1029.0294.003.0647.0206.097.047.0176.0647.0323.1293.0441.191h-.003c-.0646-.0088-.144-.0676-.1792-.1351z"/><path d="m56.617 46.361c-.0558-.0381-.0676-.0968-.0235-.1291s.1264-.0293.1822.0088c.0558.0382.0676.0969.0235.1291-.0441.0323-.1263.0294-.1822-.0088z"/><path d="m57.049 46.7814c-.003-.0705.0352-.144.0881-.1616.05-.0206.0941.0206.0941.0911.0029.0705-.0353.144-.0882.1616-.047.0176-.0911-.0235-.094-.0911z"/><path d="m57.463 46.7141c.0265.0705.0206.1674-.0117.2114-.0324.047-.0823.0265-.1088-.044-.0264-.0705-.0235-.1644.0118-.2114.0323-.047.0823-.0264.1087.044z"/><path d="m56.7847 46.5491c.0235-.0558.0882-.094.1469-.0852.0588.0088.0882.0647.0647.1205s-.0882.094-.1469.0852c-.0588-.0088-.0882-.0617-.0647-.1205z"/><path d="m56.6938 45.5972c-.0558-.047-.1028-.144-.1058-.2145-.0029-.0705.0353-.0881.0911-.0382.0559.047.1029.144.1058.2145.003.0676-.0382.0852-.0911.0382z"/><path d="m57.4636 45.4623c-.0235.0382-.0558.0676-.094.0705-.0559.0059-.0941-.0411-.0853-.1058.0059-.0352.0236-.0675.0471-.094.047.0382.0911.0823.1322.1293z"/><path d="m56.5353 45.5945c.0617.0205.1323.0969.1617.1645.0293.0705.0029.1087-.0588.0852-.0617-.0205-.1322-.0969-.1616-.1645-.0265-.0706 0-.1087.0587-.0852z"/><path d="m57.1933 45.2242c.0029.0058.0029.0088.0059.0147.0176.0734-.003.1586-.0441.1939-.0412.0352-.0882.0059-.1058-.0676s.0029-.1587.0441-.1939c.0029-.003.0029 0 .0059-.003.0088.0059.0205.0089.0293.0147.0235.0147.0441.0265.0647.0412z"/><path d="m56.7902 45.8115c0 .2644.188.5847.4201.7199.2322.1322.4202.0294.4202-.2351 0-.2644-.188-.5847-.4202-.7199-.2321-.1322-.4201-.0264-.4201.2351z"/></g><path d="m57.0916 45.5295c.0382.0089.0764.0235.1175.0471.2322.1322.4202.4554.4202.7199 0 .0705-.0147.1292-.0382.1763l-.382-.0794c-.1498-.1293-.1675-.2762-.2556-.4642z" fill="#a9a9a9"/><path d="m57.0832 46.2293c-.0294-.0529-.0499-.1087-.0734-.1675.1616-.0617.3114-.1499.4407-.2586.0705.097.1234.2116.1528.3232-.1822.003-.3585.0382-.5201.1029z" fill="#dcded9"/><path d="m56.7902 46.0028c0 .1881.1322.4173.2997.5113.1645.094.2997.0206.2997-.1675 0-.188-.1322-.4172-.2997-.5112-.1646-.0941-.2997-.0177-.2997.1674z" fill="#c4c4c4"/><path d="m56.8805 46.1172c0 .1029.0735.2263.1616.2762.0882.0529.1616.0118.1616-.091 0-.1029-.0734-.2263-.1616-.2763-.0911-.0499-.1616-.0088-.1616.0911z" fill="#4d4d4d"/><path d="m58.028 47.9362.6288-.3644c.0059-.0029.0118-.0058.0176-.0088l.0206-.0117c.241-.1528.3879-.4555.3879-.8874 0-.8962-.6406-1.9922-1.431-2.4477-.3908-.2262-.7464-.2497-1.002-.1087v-.0029l.0705-.0412.003.003c.2585-.1411.6111-.1146 1.0019.1087.7905.4554 1.431 1.5515 1.431 2.4477 0 .429-.1469.7345-.3878.8873v.003l-.0206.0117c-.0059.003-.0117.0059-.0176.0088z" fill="#000"/><path d="m58.0294 47.9364.3086-.1793c.0058-.0029.0117-.0058.0176-.0088l.0206-.0117c.2409-.1528.3878-.4555.3878-.8874 0-.8962-.6405-1.9922-1.431-2.4477-.3908-.2262-.7463-.2497-1.0019-.1087v-.0029l.0705-.0412.0029.003c.2586-.1411.6112-.1146 1.002.1087.7904.4554 1.431 1.5515 1.431 2.4477 0 .429-.1469.7345-.3879.8873l-.0205.0118c-.0059.0029-.0118.0059-.0177.0088z" fill="#000"/><path d="m46.1732 41.1809-2.0539-3.4438 1.0725-.62.0029.003c.2586-.1411.6112-.1146 1.002.1087.7904.4554 1.431 1.5515 1.431 2.4477 0 .429-.1469.7346-.3879.8874l-.0206.0117c-.0058.0029-.0117.0059-.0176.0088z" fill="#000"/><path d="m44.4896 37.9513 1.4575-.8403c.0822.0293.1645.0675.2526.1175.7905.4554 1.431 1.5515 1.431 2.4477 0 .1645-.0235.3114-.0617.4378l-1.1195.6464c-.1234-.0352-.2497-.0881-.382-.1645-.1469-.0852-.2879-.191-.4202-.3086l-1.0783-1.81c-.05-.1763-.0735-.3555-.0794-.526z" fill="#1f1f1f"/><path d="m43.7283 38.6302c0 .8962.6405 1.9922 1.431 2.4477.7904.4554 1.431.0969 1.431-.7993s-.6406-1.9922-1.431-2.4476c-.7905-.4555-1.431-.097-1.431.7992z" fill="#2a2a2a"/><path d="m43.7848 38.6625c0 .8609.6141 1.9158 1.3752 2.3536.7581.4378 1.3751.0911 1.3751-.7698 0-.861-.6141-1.9158-1.3751-2.3537-.7611-.4378-1.3752-.094-1.3752.7699z" fill="#1d1d1d"/><path d="m44.092 38.8386c0 .67.479 1.4868 1.0667 1.8277.5906.3408 1.0666.0705 1.0666-.5965 0-.6699-.479-1.4868-1.0666-1.8277-.5877-.3408-1.0667-.0734-1.0667.5965z" fill="#3b3b3b"/><path d="m44.1648 38.8801c0 .6229.4466 1.3869.9961 1.7042.5495.3174.9961.0676.9961-.5583 0-.6229-.4466-1.3869-.9961-1.7042-.5524-.3144-.9961-.0647-.9961.5583z" fill="#727272"/><path d="m45.1735 38.3304c.5436.3203.9814 1.0755.9814 1.6955 0 .0881-.0088.1704-.0264.2409l-.7258.4202c-.0764-.0235-.1587-.0558-.2409-.1028-.5407-.3115-.9785-1.052-.9932-1.672z" fill="#a9a9a9"/><path d="m45.7159 38.8386c.1939.2615.3379.573.4025.8727l-1.2047.6964c-.2351-.2027-.4349-.4789-.5701-.7757z" fill="#e9eae7"/><path d="m45.7159 38.8386c.1939.2615.3379.573.4025.8727l-1.2047.6964c-.2351-.2027-.4349-.4789-.5701-.7757z" fill="#e9eae7"/><path d="m44.4827 38.8711c0 .4965.3526 1.1019.7904 1.3546s.7904.0528.7904-.4437c0-.4966-.3526-1.1019-.7904-1.3546-.4349-.2527-.7904-.0529-.7904.4437z" fill="#4d4d4d"/><path d="m44.6207 38.9033c0 .4261.3027.9462.6788 1.1607s.6788.047.6788-.3791-.3027-.9461-.6788-1.1606c-.3732-.2175-.6788-.0471-.6788.379z" fill="#949494"/><path d="m45.6512 38.836c.0088-.0147.0235-.0235.0382-.0323.0411.05.0764.1058.1116.1616-.0323.0118-.0676.0118-.0999 0-.0587-.0235-.0822-.0823-.0499-.1293z" fill="#727272"/><path d="m44.6291 39.2384c-.0441-.0588-.0353-.1116.0205-.1146.0559-.0059.1411.0382.1852.0999.044.0588.0352.1117-.0206.1146-.0558.003-.1381-.0411-.1851-.0999z" fill="#727272"/><path d="m45.8227 39.7c-.0147-.0705.0205-.0999.0793-.0617s.1175.1264.1322.1969-.0205.0969-.0793.0617c-.0588-.0353-.1175-.1264-.1322-.1969z" fill="#727272"/><path d="m44.9488 38.4452c.0205-.0587.0676-.0499.1058.0147.0382.0647.0528.1675.0323.2233-.0206.0588-.0676.05-.1058-.0146-.0382-.0647-.0529-.1646-.0323-.2234z" fill="#727272"/><path d="m45.8277 39.2091c-.0529-.047-.0558-.1057-.0059-.1263.0118-.0059.0265-.0088.0441-.0088.0323.0617.0617.1263.0882.188-.0441 0-.0911-.0205-.1264-.0529z" fill="#727272"/><path d="m45.857 40.0699c-.0088.0646-.0558.0675-.1028.0088-.047-.0588-.0764-.1587-.0676-.2233.0088-.0647.0558-.0676.1029-.0089.047.0588.0793.1587.0675.2234z" fill="#727272"/><path d="m45.8695 39.4706c-.0382-.0646-.0206-.1117.0411-.1028.0294.0029.0646.0205.097.047.0176.0646.0323.1293.044.191h-.0029c-.0617-.0088-.141-.0706-.1792-.1352z" fill="#727272"/><path d="m44.7584 39.6027c-.0558-.0382-.0676-.097-.0235-.1293s.1263-.0294.1822.0088c.0558.0382.0675.097.0235.1293-.0412.0323-.1235.0294-.1822-.0088z" fill="#727272"/><path d="m45.1934 40.0232c-.0029-.0705.0353-.1439.0881-.1616.05-.0205.0941.0206.0941.0911.0029.0705-.0353.144-.0882.1616-.0499.0206-.0911-.0205-.094-.0911z" fill="#727272"/><path d="m45.6044 39.9585c.0265.0705.0206.1645-.0117.2115-.0324.047-.0823.0265-.1088-.044-.0264-.0706-.0205-.1646.0118-.2116.0353-.047.0823-.0294.1087.0441z" fill="#727272"/><path d="m44.9255 39.7941c.0235-.0558.0882-.094.1469-.0852.0588.0088.0882.0647.0647.1205s-.0882.094-.1469.0852c-.0559-.0118-.0852-.0647-.0647-.1205z" fill="#727272"/><path d="m44.8373 38.8389c-.0559-.047-.1029-.144-.1058-.2145-.003-.0705.0352-.0881.0911-.0382.0558.047.1028.144.1058.2145.0029.0705-.0382.0852-.0911.0382z" fill="#727272"/><path d="m45.607 38.704c-.0235.0382-.0558.0676-.094.0705-.0558.0059-.094-.0411-.0852-.1058.0059-.0352.0235-.0675.047-.094.047.0411.0911.0823.1322.1293z" fill="#727272"/><path d="m44.6792 38.8359c.0617.0206.1323.097.1616.1645.0294.0706.003.1088-.0587.0853-.0617-.0206-.1322-.097-.1616-.1646-.0265-.0676-.003-.1058.0587-.0852z" fill="#727272"/><path d="m45.3377 38.4687c.0029.0058.0029.0088.0059.0147.0176.0734-.003.1586-.0441.1939s-.0882.0059-.1058-.0676c-.0176-.0734.003-.1587.0441-.1939.0029-.003.0029 0 .0059-.003.0088.0059.0205.0089.0293.0147.0206.0118.0441.0265.0647.0412z" fill="#727272"/><path d="m44.9348 39.0565c0 .2644.1881.5847.4202.7199.2321.1322.4202.0294.4202-.2351s-.1881-.5847-.4202-.7199-.4202-.0294-.4202.2351z" fill="#727272"/><path d="m45.2372 38.7742c.0382.0088.0764.0235.1176.047.2321.1322.4201.4554.4201.7199 0 .0705-.0146.1293-.0381.1763l-.382-.0793c-.1499-.1293-.1675-.2763-.2557-.4643z" fill="#a9a9a9"/><path d="m45.227 39.4707c-.0294-.0528-.0499-.1087-.0734-.1674.1616-.0618.3114-.1499.4407-.2586.0705.0969.1234.2115.1528.3232-.1792.0029-.3555.0411-.5201.1028z" fill="#dcded9"/><path d="m44.9348 39.2472c0 .188.1322.4172.2997.5112.1646.0941.2997.0206.2997-.1675 0-.188-.1322-.4172-.2997-.5112-.1675-.0941-.2997-.0206-.2997.1675z" fill="#c4c4c4"/><path d="m45.0233 39.3591c0 .1028.0735.2262.1616.2762.0882.0529.1616.0117.1616-.0911 0-.1029-.0734-.2263-.1616-.2762-.0881-.05-.1616-.0088-.1616.0911z" fill="#4d4d4d"/><path d="m46.172 41.1807.6289-.3643c.0058-.003.0117-.0059.0176-.0089l.0206-.0117c.2409-.1528.3878-.4555.3878-.8874 0-.8962-.6405-1.9922-1.431-2.4477-.3908-.2262-.7463-.2497-1.002-.1087v-.0029l.0706-.0412.0029.003c.2586-.1411.6112-.1146 1.002.1087.7904.4554 1.431 1.5515 1.431 2.4477 0 .429-.1469.7346-.3879.8873l-.0206.0118c-.0058.0029-.0117.0059-.0176.0088z" fill="#000"/><path d="m46.1735 41.1807.3085-.1793c.0059-.0029.0118-.0059.0176-.0088l.0206-.0118c.2409-.1528.3879-.4554.3879-.8873 0-.8962-.6406-1.9923-1.431-2.4477-.3908-.2263-.7464-.2498-1.002-.1087v-.003l.0705-.0411.003.0029c.2585-.141.6111-.1146 1.0019.1088.7905.4554 1.431 1.5514 1.431 2.4476 0 .429-.1469.7346-.3878.8874l-.0206.0118c-.0059.0029-.0118.0058-.0176.0088z" fill="#000"/><path d="m60.4447 45.6588-.0441 1.5485-.5553.7551v.0617c-.1117.0706-.5113-.1704-1.0138-.3555-.1704-.0617-.2821-.1028-.2821-.1028.0147-.0617.0265-.1264.0353-.194s.0147-.1381.0147-.2145c0-.0529 0-.1087-.0059-.1557-.0676-.9373-.7375-2.0245-1.5456-2.4917-.3731-.2145-.714-.2645-.9843-.1675-.3086.1116-.5172.4172-.5554.8756-.0059.05-.0059.1028-.0059.1557 0 .147.0177.3056.05.4614l-.2028-.1176-7.2871-4.4457-.432-.1381-.6229-.2028-.2821-.1087c.0323-.1264.0529-.2703.0529-.4261 0-.0411-.0059-.0852-.0059-.1293-.0587-.9461-.7287-2.048-1.5455-2.5181-.6142-.3556-1.149-.2527-1.3958.1968-.0411.0088-.0764.0353-.0999.0823-.094.1763-.0676.3644-.0705.5554 0 .1674.0411.3555.0617.5112-.2292-.1263-1.0901-.6053-1.3164-.8433-.2027-.2145-.3496-.5024-.4584-.7669-.1528-.3643-.4231-.3761-.4231-.3761l-.2791-.6523v-1.6602c0-.0676.0235-.1087.0587-.1293.0088-.0059.0177-.0088.0324-.0147.0617-.0235.1469-.0088.2468.0059.188.0264.4143.0705.5436-.0617.0235-.0235.0499-.05.0764-.0705l.0058.0058.3291.194 10.4195 4.6338.0323.0147c.0147.0088.0324.0176.05.0323.3408.1939 1.002.5289 1.0842.4408l6.6202 4.9394z" fill="#b37a00"/><path d="m57.4803 43.9719 1.5926.9138 1.4634-.0352s-1.9188-1.8894-2.4595-2.5212l-.4965.4261z" fill="#b37a00"/><path d="m57.4803 43.9719s1.2371.5671 1.7161.7757c.3702.1616 1.1988 1.3958 1.1988 1.3958l.1411-1.2929-2.4595-2.5212-.4965.4261z" fill="#b37a00"/><path d="m43.5441 38.8154c-.0147-.1616-.0323-.382.0265-.5377.0029-.0117.0822-.3438.0881-.3526-1.8423-.811-2.3801-1.4133-2.4065-1.4662.0059.0352.2791 1.287.4819 1.5015.1969.2115 1.5279.8785 1.8365 1.0519-.0088-.0646-.0206-.1322-.0265-.1969z" fill="#2d2d2d"/><path d="m65.5291 44.2601-.0088.0058c-.0206.0147-.2704.6906-1.2488 1.3664-.7817.5406-4.0697 1.1077-4.6456 1.2987l-.5083.8463s.3849.2556.7287.2468c1.0313-.0235 3.4379-.9373 4.3576-1.4927 1.4985-.9079 1.6366-1.8512 1.6366-1.8982l-.044-.9256z" fill="#ff935e"/><path d="m55.5007 45.3769c0 .1499.0176.3027.0499.4613l-.2027-.1146-8.3421-4.7866-.285-.1057c.0353-.1264.0559-.2704.0559-.429 0-.0441-.0059-.7111-.0089-.7552l8.7358 4.9482c-.0029.05-.0029.7258-.0029.7816z" fill="#2d2d2d"/><path d="m45.4535 37.4167c-.7288-.4172-1.4869-.2057-1.7601.3497.1116-.0852.3614-.238.4642-.3144.1352-.0999.2674-.0823.3703-.0088.2527-.0559.3349.0323.667.2203.855.4937 1.7689 1.6426 1.7689 2.6152 0 .0764-.0059.1469-.0118.2145-.0088.0676.0735.379.0588.4407 0 0 .1205-.1616.1763-.2468.0176-.1028.0411-.1146.0411-.235-.0029-1.1108-.7963-2.4712-1.7747-3.0354z" fill="#646464"/><path d="m47.0339 40.5961c0 .1205-.0088.2351-.0293.3379-.1705-.0617-.2851-.1058-.2851-.1058.0147-.0617.0294-.1263.0353-.1939.0088-.0676.0118-.1381.0118-.2145 0-.9726-.6935-2.1568-1.5486-2.6504-.3761-.2145-.7169-.2615-.9843-.1646-.3438.1234-.5642.4849-.5642 1.0314 0 .1499.0176.3027.05.4613l-.2028-.1146c-.0235-.144-.0353-.2879-.0353-.429 0-1.1136.7934-1.5573 1.7748-.9931.9873.5641 1.7777 1.9246 1.7777 3.0353z" fill="#2d2d2d"/><path d="m64.7346 44.9127c-.8345.6464-2.1392 1.4104-4.2254 1.5632-.2762.0206-.6494-.0206-1.0519-.1557-.4055-.9109-1.1431-1.7983-1.8747-2.2185-.476-.2733-1.5104-.4496-1.813-.0852-.2351.2821-.3409.4878-.432.9667.4996-1.19 1.3194-.7816 2.004-.3879.432.2498.8081.6729 1.0755 1.1578-.191-.1323.2409 1.0666.2409 1.0666s.0558.0117.1469.0294c.0206.1322.0323.2644.0323.3937 0 .1587.0294.3056-.0029.432l.285.1057s.097-.1263.2087-.2762c.2409-.3173 1.1665-.4113 1.2194-.4172.9961-.0852 3.0177-1.0755 3.7258-1.4516 1.3017-.6905 1.3752-1.4692 1.3958-1.4809l.235-.3291.0882.6993-.0235-1.1695c-.0911.3321-.2968.8345-1.2341 1.5574z" fill="#646464"/><path d="m58.858 47.3338c0 .1204-.0088.235-.0294.3379-.1704-.0617-.285-.1058-.285-.1058.0147-.0617.0294-.1264.0353-.1939.0088-.0676.0117-.1381.0117-.2145 0-.9726-.6934-2.1568-1.5485-2.6505-.3761-.2145-.7169-.2615-.9843-.1645-.3438.1234-.5642.4848-.5642 1.0314 0 .1498.0176.3026.0499.4613l-.2027-.1146c-.0235-.144-.0353-.288-.0353-.429 0-1.1136.7934-1.5573 1.7748-.9932.9873.5642 1.7777 1.9217 1.7777 3.0354z" fill="#1f1f1f"/><path d="m63.9651 38.9331-1.3399-3.3409-5.8856 3.3967h-.0029l1.3428 3.341c.1234.2115 1.5397-.3762 3.1647-1.3164 1.6278-.9374 2.8443-1.8688 2.7209-2.0804z" fill="#f3d052"/><path d="m57.1099 39.9118c.0178-.006.0416-.0119.0714-.0268l-.0625.0357z" fill="#829aa9"/><path d="m59.7472 38.4041-.0357.0208-.0357.0208-.0089-.0089c.0148-.006.0446-.0149.0803-.0327z" fill="#829aa9"/><path d="m62.0082 38.7094.1822-.0705.1939-.0735.0441-.0176-2.0422-1.4721-.0353.0206-2.4888 1.4398c0 .0029-.0029.0029-.0029.0029l-.0617.0353-.8286.476.8844 2.5534.3497.6024.0029.0029h.0088c.0147 0 .0324-.0029.0529-.0059.0147-.0029.0324-.0029.047-.0058.0735-.0147.1646-.0382.2704-.0735.0323-.0117.0705-.0235.1058-.0353.0734-.0235.1527-.0558.238-.0881.0058-.0029.0088-.0059.0147-.0059.0352-.0117.0705-.0294.1028-.0441.0029 0 .0059-.0029.0059-.0029.0587-.0235.1205-.0499.1851-.0793.0088-.0059.0206-.0088.0323-.0147.0764-.0353.1616-.0735.2439-.1117.1499-.0705.3085-.144.476-.2321.0353-.0176.0705-.0353.1029-.0529l-.7317-.7463 1.1225-.6641.1586-.0882.764.7758c.4731-.2792.8815-.5407 1.2194-.7758l-1.0108-1.0284z" fill="url(#c)"/><path d="m63.4945 38.1307-.9638-2.3536-.3672.2733.3232.1851.4966 1.8805-.0089.1352-.0058.0852.0205-.0088.0647.0029.6993.7141c.0206-.0265.0353-.05.047-.0676z" fill="url(#d)"/><path d="m63.3943 38.2721-.1851.0646-.1557-.0088-.0647-.0029-.0206.0088-.5406.2116-.0441.0176-.1939.0735-.1822.0705-.3908.2174-.62.3409-.1411.282-.2027.4026-.0059.0029-.1587.0882-1.1224.6641-1.5103.8962.3496.6023c.0059 0 .0059.003.0089.003h.0029c.0147 0 .0323-.003.0529-.0059.0147-.0029.0323-.0029.047-.0059.0735-.0147.1645-.0382.2703-.0734.0323-.0118.0705-.0235.1058-.0353.0735-.0235.1528-.0558.238-.0881.003-.003.0088-.0059.0118-.0059h.0029c.0353-.0118.0705-.0294.1028-.0441.003 0 .0059-.0029.0059-.0029.0588-.0235.1205-.05.1851-.0794.0089-.0059.0206-.0088.0324-.0147.0764-.0352.1616-.0734.2438-.1116.1499-.0705.3086-.144.4761-.2322.0352-.0176.0705-.0352.1028-.0528h.0029c.3262-.1675.6847-.3615 1.0667-.5818.0852-.0471.1645-.097.2439-.144.473-.2792.8815-.5407 1.2194-.7758.6053-.4143.9902-.7375 1.1283-.9109.0206-.0264.0353-.0499.047-.0675z" fill="#6f94a3"/><path d="m62.4871 36.2328-.3233-.1851-1.7366 1.005c-.0029 0-.0029.0029-.0058.0029l-.0353.0206 2.0422 1.4721.5406-.2116.0059-.0852.0088-.1352z" fill="url(#e)"/><path d="m53.7034 43.6638v-3.6025l.235-.5024.8815-1.3781 2.4977 3.1587-.2263.5466-.0705 1.8805-.7581-.3555-1.3458.9697zm3.2351-.0353.0647-1.7542.2115-.5201-2.3889-3.0206-.8139 1.2694-.1792.4907v3.5407l1.0783.6406 1.3399-.9668z" fill="#995b00"/><path d="m54.6531 37.7931 2.0862 1.1959 1.3399 3.3409-4.3312-2.3771z" fill="#c7a22a"/><path d="m56.6805 39.0508-.429-.2468-1.5985-.9139-.6288 2.0305 2.1332 1.1665.9697.5788.0499-.7345z" fill="url(#f)"/><path d="m62.628 35.6007-.094-.05.0029-.0029-2.7914-1.6308-5.8974 3.4114 2.8797 1.672s1.4045-.7229 3.0294-1.6602c1.6279-.9403 2.8708-1.7483 2.8708-1.7395z" fill="#eaf9ff"/><path d="m59.4078 32.1893-.094-.05.0029-.0029-10.7691-6.2823-5.8973 3.4115 10.8573 6.3234c.0029.0029 5.9002-3.4086 5.9002-3.3997z" fill="#fae35a"/><path d="m54.4268 37.6636-.6788 2.289.2968-.0235.6083-2.1362z" fill="#c7a22a"/><path d="m53.8483 37.3285-.808 2.0715.7081.5525.6788-2.289z" fill="#c7a22a"/><path d="m62.6217 35.6626-.2586.1558-4.6397 2.762-.9256.5495s-.6141-1.8335-3.288-3.5407l5.9002-3.4027.0177.003-.0236.0117c.2557.0852.4966.2057.7258.3497.003.0029.003.0029.0059.0059 1.4692.9373 2.383 2.8884 2.4859 3.1058z" fill="#faed76"/><path d="m53.5111 35.5919.3379 1.7366-.8081 2.0716-11.7887-6.629 1.3987-3.5055z" fill="#c7a22a"/><path d="m53.5718 41.7417-11.9885-6.7553-.1146-.0676-.1734-.094-.0441-.0264v-2.0305l11.7418 6.5996v.0059z" fill="#b37a00"/><path d="m53.9903 41.0045.5759.3379v-.1264c0-.1087.0177-.1763-.094-.2409 0 0-.1763-.1234-.3379-.2057-.1557-.0764-.144.2351-.144.2351z" fill="#995b00"/><path d="m65.4585 44.5483-.0088.0029c-.0176.0118-.4407.4966-1.2987 1.0902-.6817.473-3.0001 1.2752-4.1431 1.1165l-1.2988-.3144.1205 1.2312s.9785.4173 1.2782.432c1.2576.0646 3.3791-1.1431 4.1842-1.6308.9344-.5642 1.4692-.9668 1.6014-1.3634.1234-.3673.0941-.2028.0941-.5907l-.0559-.9902z" fill="#3a3a3a"/><path d="m64.6787 46.2033c.0794-.047.144-.1469.144-.2262v-.4026c0-.0793-.0646-.1058-.144-.0617l-1.0636.6141c-.0794.047-.144.1469-.144.2263v.4025c0 .0794.0646.1058.144.0617z" fill="#4b4146"/><path d="m64.6791 46.12c.0793-.0471.144-.147.144-.2263v-.4026c0-.0793-.0647-.1057-.144-.0617l-1.0637.6142c-.0793.047-.144.1469-.144.2262v.4026c0 .0793.0647.1057.144.0617z" fill="#fff5c7"/><path d="m63.6174 46.7096 1.0637-.6141c.0646-.0382.1175-.1205.1175-.1851v-.4026c0-.0646-.0529-.0852-.1175-.0499l-1.0637.6141c-.0646.0382-.1175.1205-.1175.1822v.4025c0 .0676.0529.0911.1175.0529z" fill="#fff5c7"/><path d="m63.4963 46.2528c0-.0646.0529-.144.1146-.1822l1.0637-.6141c.0647-.0352.1146-.0147.1146.047z" fill="#7eaea6"/><path d="m64.7917 45.9143c-.003.0647-.0529.144-.1146.1822l-1.0637.6143c-.0647.0353-.1146.0147-.1146-.047z" fill="#7eaea6"/><path d="m62.1807 46.9134v.2674c0 .0499-.0264.0911-.0734.1087l-.4848.188c-.0382.0147-.0882-.0205-.0882-.0675v-.0324l.4055-.1586c.0441-.0177.0735-.0588.0735-.1088v-.235l.0793-.0294c.0382-.0118.0881.0235.0881.0676z" fill="#4b4146"/><path d="m62.0135 46.8781v.235c0 .05-.0264.0911-.0735.1087l-.4055.1587v-.2351c0-.0499.0265-.094.0735-.1087z" fill="#fff2d1"/><path d="m65.7364 44.8011v.2379c0 .0441-.0177.0852-.0441.1087l-.2909.2438c-.0235.0206-.0529-.0059-.0529-.044v-.0294l.2439-.2056c.0264-.0235.0441-.0647.0441-.1087v-.2056l.047-.0382c.0235-.0235.0529.0029.0529.0411z" fill="#4b4146"/><path d="m65.6366 44.7977v.2087c0 .044-.0176.0852-.0441.1087l-.2439.2057v-.2087c0-.044.0177-.0881.0441-.1087z" fill="#fff2d1"/><path d="m65.7814 43.1965s.1439.1234.1674.1851c.0882.2351-.4877 1.1666-.4877 1.1666l-.0852-.2028s.4437-.7404.4055-1.1489z" fill="#646464"/><path d="m41.5891 34.0257v.6347l-.0058.3291v1.099l-.0089-.0059c-.0323.0264-.0617.0617-.094.094-.0852.0911-.1616.1176-.2292.1205v-2.7209c.0852.0911.3144.4525.3379.4495z" fill="#820000"/><path d="m41.4922 34.0404-.0529.5231-.1881-.5084v-.4789c.0852.0911.241.4642.241.4642z" fill="#b10000"/><path d="m41.4716 34.7341-.0059.1851-.0088.7581c0 .1675-.0823.3144-.2057.4084v-1.002l.0265.0177.0176-.2792.0147-.1557v-.0323l.0323.0176z" fill="#b10000"/><path d="m41.31 34.6371v.0294l-.0147.1588-.0176.2792-.0265-.0206v-.6466z" fill="#ef8800"/><path d="m53.9423 35.8597-.432-.2674-10.8573-6.3234-.523 1.3105 11.7212 6.7495 2.8796 1.6719.0088-.0764c-.1469-.2997-1.1548-2.2772-2.7973-3.0647z" fill="#c7a22a"/><path d="m59.8936 44.0749c-.0734-.05-.1557-.0911-.2262-.0676-.1352.0411-.0764.2557-.0529.3468.05.1792.1205.3379.1998.5025.1058.2204.2233.4438.4231.5907.0706.0529.1264.1087.2087.144.0852.0382.1792.0588.2703.0823.2439.0558.4114-.1088.6376-.1587.1058-.0235.2175-.0088.3232-.003.1146.0059.2028-.0117.3115-.044.094-.0265.2674-.1117.2615-.2263-.0029-.0529-.0323-.1029-.0588-.1499-.0352-.0617-.0705-.1234-.1057-.1822-.0294-.05-.0588-.0999-.097-.144-.0882-.0999-.2674-.1734-.3996-.1381-.0676.0176-.1352.0382-.2057.0499-.1616.0265-.3291.0529-.4936.0324-.2381-.0294-.3615-.1558-.5407-.3057-.1087-.0911-.2351-.1557-.3438-.2439-.0294-.0235-.0705-.0558-.1117-.0852z" fill="#cddae7"/><path d="m61.8937 45.0594.3202.0764c-.0058-.0117-.0146-.0264-.0205-.0382-.0353-.0617-.0705-.1234-.1058-.1821-.0294-.05-.0588-.0999-.097-.144-.0881-.0999-.2674-.1734-.3996-.1381-.0676.0176-.1352.0382-.2057.0499-.1616.0265-.3291.0529-.4936.0324-.238-.0294-.3614-.1558-.5407-.3056-.1087-.0911-.235-.1558-.3438-.2439-.0294-.0235-.0676-.0558-.1116-.0852-.0735-.05-.1558-.0911-.2263-.0676-.0441.0147-.0676.047-.0764.0911l-.0059.0734v.003l.6641.7111.3938.4907.2703-.238.3467-.0823.2615.2204z" fill="#adc2d7"/><path d="m65.7755 43.038c-.0264.0559-.0734.0911-.0911.1499-.0146.0588-.0088.1175-.0323.1763-.0264.0676-.0793.0881-.1351.1293-.0911.0646-.1734.0117-.194-.0852-.0323-.1646-.044-.335-.0323-.5025.0029-.0294.0059-.0588.0088-.0852.0265-.2057.2292-.3085.285-.5084.0412-.141.0059-.2468-.0058-.3849-.003-.0558.0117-.1146.044-.1616.0324-.047.0529.0118.0647.0382.0499.1322.0764.2762.097.4231.0147.1058.0264.2116.044.3144.0206.1528.0118.3615-.0529.4966z" fill="#cddae7"/><path d="m65.0704 43.0671c.0353-.0265.0735-.0441.1029-.0176.0176.0147.0206.0411.0235.0617.0323.2938.0499.6317-.0147.9226-.0558.2498-.141.4731-.332.6376-.2116.1822-.479.3615-.717.5084-.5113.3144-1.0784.5171-1.1959.5348-.1881.0323-.4202-.1264-.5818-.5113-.0647-.1499-.1411-.3673-.1029-.5377.0294-.1352.1999-.1587.3115-.191.0882-.0235.1734-.0588.2586-.0911.3497-.1411.7316-.2557 1.0607-.4437.2939-.1704.573-.3673.8404-.5789.0911-.0705.1793-.144.2645-.2174.0205-.0147.0499-.05.0822-.0764z" fill="#bdbdbd"/><path d="m65.0965 43.4788c.0029.0558.0029.1116 0 .1704 0 .1028-.0088.2027-.0265.2997-.0058.0206-.0088.0411-.0117.0617-.0118.05-.0265.0999-.047.1499-.0647.1557-.1087.3055-.2468.4201l-.0265.0206c-.1998.1763-.4554.3379-.6758.4731-.5025.3115-1.052.5054-1.1489.5201-.0088.0029-.0206.0029-.0265.0029-.0793 0-.1939-.0617-.2968-.2145-.0264-.0294-.044-.0646-.0646-.1058-.0206-.0382-.0411-.0764-.0588-.1204-.0088-.0177-.0176-.0441-.0293-.0735-.0147-.0411-.0324-.0911-.0471-.144-.0205-.0793-.0352-.1704-.0176-.2439.0088-.044.1029-.0646.1763-.0852l.0441-.0117c.094-.0265.1822-.0617.2733-.0941.0969-.0411.1998-.0793.2997-.1145.2615-.0941.5318-.1969.7757-.338.2674-.1528.5465-.3467.8551-.5876.0911-.0706.1821-.144.2674-.2175.0058-.0059.0088-.0088.0147-.0147.0088.0735.0146.1587.0176.2469z" fill="#211e1e"/><path d="m60.4062 44.7095c-.0617-.1704-.3997-.5495-.5995-.5348-.1645.0118-.0294.3086.0118.3997.1381.2938.3203.5641.5377.8051.0088.0088.0176.0205.0323.0205.0265.003.0382-.0352.0412-.0617.0058-.1498.0088-.3026.0029-.4554-.0029-.0588-.0088-.1205-.0264-.1734z" fill="#d47931"/><path d="m59.8344 42.4238-.1352-.1381c-.0647-.0646-.0441-.1734.0382-.2116l1.0931-.5201c.0911-.044.2027-.0235.2732.0471l.1352.1381c.0646.0646.0441.1733-.0382.2115l-1.0931.5201c-.0911.0441-.2027.0235-.2732-.047z" fill="#646464"/><path d="m62.7398 40.7606-.097-.1146c-.05-.0588-.0411-.1469.0235-.191l.7405-.5436c.1146-.0852.2762-.05.3496.0705l.0617.1029c.0353.0587.0206.1322-.0323.1733l-.7111.5407c-.1087.0734-.2527.0588-.3349-.0382z" fill="#646464"/><path d="m57.0865 43.4582-14.8888-8.5859-.0764.0353 14.8888 8.8504.0764-.0324z" fill="#646464"/><path d="m57.0101 43.4935-14.8888-8.5859v.285l14.8888 8.5654z" fill="#312d22"/><path d="m45.0991 33.4703-.1499.3938-.6288-.3673.7052-1.8424.2351.1381-.5553 1.4516z" fill="#c1d6d6"/><path d="m46.3569 33.5525c-.2057.5377-.576.8198-.8639.6523-.285-.1674-.3438-.6964-.1381-1.237.2057-.5377.573-.811.858-.6435.2879.1675.3496.6934.144 1.2282zm-.764-.4437c-.1176.3115-.0911.62.0529.7023s.3496-.0911.4672-.3996c.1205-.3115.094-.6112-.047-.6964-.144-.0793-.3526.0852-.4731.3937z" fill="#c1d6d6"/><path d="m47.2886 34.0787-.2762.7199c-.1528.0822-.3467.0911-.476.0147-.2821-.1646-.3409-.6935-.1352-1.2312.2057-.5348.5789-.811.8698-.6406.1381.0794.2439.2704.2732.4937l-.2556.2409c-.0206-.1645-.0852-.2938-.1704-.3438-.1528-.0881-.3585.0794-.479.3879-.1205.3144-.094.62.0617.7081.047.0265.1205.0294.1969.0059l.1822-.476z" fill="#c1d6d6"/><path d="m47.0913 35.1098.7052-1.8423.2351.1381-.7052 1.8423z" fill="#c1d6d6"/><path d="m48.8687 34.1199-.2292.3144c-.0559-.1704-.147-.3202-.2233-.3643-.0618-.0353-.1176-.0147-.1528.0735-.1235.3173.4378.4231.1821 1.0901-.141.3673-.379.4672-.5876.3467-.1558-.0911-.2704-.2997-.3115-.5436l.2292-.3085c.0323.2204.1322.4143.2292.4731.0734.044.141.0147.1822-.0911.1263-.3262-.4408-.4173-.1881-1.0696.1293-.3408.3585-.4701.5818-.3408.1352.0793.2409.2409.288.4201z" fill="#c1d6d6"/><path d="m49.3549 34.6366-.5612 1.4663-.2351-.1381.5612-1.4663-.2762-.1616.144-.379.7934.4613-.144.3791z" fill="#c1d6d6"/><path d="m49.171 36.3264.7052-1.8424.2351.1381-.7052 1.8424z" fill="#c1d6d6"/><path d="m50.9941 35.4921-.2586.241c-.0029-.1822-.0588-.3291-.141-.3761-.147-.0852-.3468.0823-.4643.3849-.1175.3085-.097.6083.05.6935.0793.044.1998.0147.3144-.0794l.0264.3703c-.1763.1439-.3761.1939-.5113.1146-.2791-.1646-.332-.6935-.1234-1.2312.2028-.5319.5701-.8081.8521-.6435.1381.0793.2351.285.2557.5259z" fill="#c1d6d6"/><path d="m51.8671 35.8654-.2292.3144c-.0559-.1704-.1469-.3202-.2233-.3643-.0618-.0353-.1176-.0147-.1528.0734-.1234.3174.4378.4232.1821 1.0902-.141.3702-.379.4672-.5876.3467-.1558-.0911-.2704-.2997-.3115-.5436l.2292-.3085c.0323.2203.1322.4143.2292.473.0734.0441.141.0147.1822-.091.1263-.3262-.4408-.4173-.191-1.0696.1293-.3409.3585-.4701.5818-.3409.1381.0794.2409.241.2909.4202z" fill="#c1d6d6"/><path d="m61.4888 45.1798c0-.1293.0881-.285.1998-.3526.0029-.0029.0059-.0029.0088-.0029l.1117-.0206c.0499.0118.0822.0617.0852.1381 0 .1293-.0882.285-.1998.3526-.1117.0617-.2057.0118-.2057-.1146z" fill="#dce4e8"/><path d="m60.6207 45.2857c-.003-.1587.1087-.3497.2468-.432.0029-.0029.0059-.0029.0088-.0058l.1381-.0265c.0617.0147.1028.0735.1028.1675.003.1587-.1087.3497-.2468.4319-.1351.0823-.2497.0206-.2497-.1351z" fill="#dce4e8"/><path d="m65.7877 42.2295c-.0205.0441-.047.0205-.0793.0382-.0382.0205-.0558.0881-.0735.1234-.0235.0499-.044.097-.0676.1469l.0382.141s-.1763.3468-.1792.3556c-.0088.0176-.1028-.094-.1117-.1029l-.0235-.0235c.003-.0293.0059-.0587.0089-.0852.0264-.2057.2291-.3085.285-.5083.0352-.1264-.003-.241-.003-.3644 0-.0734-.0029-.1498-.0029-.2233 0-.0646-.0118-.1293-.0118-.1939 0 .0029.0324.0441.0353.0529.0118.0294.0235.0587.0353.0881.0264.0647.0499.1293.0705.194.0176.0587.0323.1175.047.1792.0118.0558.0323.1234.0323.1822z" fill="#a3bed6"/><path d="m65.6164 42.7529c0 .0969-.05.2174-.1117.2673-.0617.05-.1116.0118-.1116-.0881 0-.097.0499-.2174.1116-.2674.0617-.047.1117-.0088.1117.0882z" fill="#dce4e8"/><path d="m65.8023 42.3031c0 .097-.05.2175-.1117.2674-.0617.05-.1116.0118-.1116-.0881 0-.097.0499-.2175.1116-.2674.0617-.05.1117-.0118.1117.0881z" fill="#dce4e8"/><path d="m65.073 43.4519c-.0852.0764-.1792.1557-.2703.2292-.2703.2263-.5495.4378-.8521.6229-.3321.2057-.7199.3409-1.0725.4966-.0852.0382-.1734.0794-.2645.1058-.0734.0264-.1733.0499-.2409.1028.0147.0529.0323.0999.047.1411 0-.0059.0029-.0088.0029-.0147.0089-.0441.1058-.0705.1822-.094l.047-.0147c.0941-.0294.1822-.0706.2762-.1087.0999-.0441.2028-.0882.3056-.1323.2645-.1087.5377-.2233.7846-.3761.2732-.1675.5553-.3761.8668-.6317.0823-.0647.1587-.1293.2351-.1969.0029-.0588.0029-.1146 0-.1704-.0206.0117-.0353.0294-.0471.0411z" fill="#bdbdbd"/><path d="m64.9054 44.0368c-.2703.2263-.5524.4379-.8521.623-.3321.2057-.7199.3408-1.0755.4995-.0852.0382-.1704.0764-.2615.1028-.0617.0206-.144.0412-.2057.0794.0206.0382.0412.0734.0676.1028.0353-.0176.0852-.0323.1293-.047l.047-.0118c.094-.0323.1822-.0734.2762-.1116.0999-.0441.2028-.0852.3056-.1293.2615-.1117.5377-.2263.7846-.3761.2732-.1704.5553-.3761.8668-.6318.0147-.0147.2233-.1116.1351-.0764.0206-.0499-.0529-.0646-.0411-.1175.0059-.0206.0088-.0411.0118-.0617-.0647.05-.1264.1028-.1881.1557z" fill="#bdbdbd"/><path d="m57.7234 38.5803-.9256.5495s-.6141-1.8335-3.288-3.5406c0 0 2.5887.1704 4.0726 2.7414.0499.0881.094.1704.141.2497z" fill="#f1c435"/><path d="m62.6223 35.6626-.2585.1557c-.0353.0059-.0735.0118-.1117.0176 0 0-.7963-2.248-2.1186-3.2765 1.4722.9345 2.386 2.8857 2.4888 3.1032z" fill="#f1c435"/><path d="m63.7629 44.7333c-.003-.2027.141-.4525.3173-.5583.0059-.0029.0088-.0029.0118-.0058l.1792-.0324c.0793.0206.1322.097.1352.2175.0029.2027-.1411.4525-.3174.5583-.1792.1028-.3261.0235-.3261-.1793z" fill="#dce4e8"/><path d="m57.234 41.357c-.0323-.2292.0235-.5906-.1675-.7669-.0558-.0499-.1264-.0441-.1969-.0441-.0823 0-.1645-.0029-.2468-.0058-.094-.0059-.1792.0411-.2527.1028-.1528.1264-.097.4143-.0823.5877.0177.2204.0529.4378.0794.6552.0147.1117.0235.2292.0675.3321.0735.1763.2792.2086.4467.2145.0911.0029.191-.0118.2527-.0852.047-.0559.0529-.1117.0499-.1793-.0059-.0911-.0058-.1822-.0058-.2732 0-.0235-.0001-.05.0058-.0735.003-.0059.0059-.0147.0118-.0176.0088-.0059.0176-.0059.0264-.003.0764.0088.1381.0676.2028.0999.0646.0324.1351.0735.2086.0588.0088-.0029.0206-.0059.0264-.0118.0089-.0088.0118-.0176.0118-.0293.0353-.1705 0-.3321-.1117-.4643-.0793-.097-.1851-.0823-.2967-.0793-.0059 0-.0089 0-.0147 0-.0059 0-.0118 0-.0147-.003.0029-.0029.0029-.0088 0-.0147z" fill="#646464"/></svg>