<svg fill="none" height="158" viewBox="0 0 166 158" width="166" xmlns="http://www.w3.org/2000/svg"><path clip-rule="evenodd" d="m19.5815 84.3233-15.56127-8.9917 37.29177-21.6043 16.0473 9.2601c.3024-.044.6079-.0665.9134-.0665 1.1379 0 2.2454.3035 3.2316.8648l87.4947 50.5673c.895.515.865 1.562.561 2.093-.136.228-.319.41-.561.546l-54.2993 31.436c-.971.561-2.0785.865-3.2164.865s-2.2454-.304-3.2315-.865l-87.494506-50.5669c-.910295-.5158-.864772-1.5627-.561341-2.0937.136544-.2276.318596-.4096.561341-.5462z" fill="#fff" fill-opacity=".2" fill-rule="evenodd"/><path d="m165.977 118.328-1.639-.319-10.893-2.154-76.6921-44.3312c-2.6247-1.5172-5.8866-1.5475-8.5264 0l-40.493 23.4552-9.8008 5.659-5.8259-1.1682 3.2164 4.6572c-.0303 1.26.5462 2.519 1.7751 3.232l84.8847 48.974c1.912 1.032 4.142 1.289 6.19.713.728-.197 1.411-.486 2.079-.865l51.128-29.584c.045-.016.061-.031.091-.046 1.229-.774 1.775-2.109 1.669-3.368l.015-.03z" fill="#d2d2da"/><path d="m101.693 137.672.273 18.63-82.579-47.638-2.2909-1.336c-1.2441-.713-1.8206-1.987-1.7903-3.246l-3.2163-4.6427 4.1418.8197 1.6841.333 9.8008-5.6435z" fill="#9fa0af"/><path d="m16.2335 100.274 3.1708 8.405-2.2909-1.335c-1.244-.714-4.4452-4.628-4.4149-5.887l-.5917-2.0027z" fill="#9394a1"/><path d="m107.869 138.081-6.175-.395.273 18.631c1.912 1.032 4.142 1.29 6.19.713z" fill="#9394a1"/><path d="m165.992 119.314-1.654-1.304-2.852 8.526c1.228-.774 2.442-1.927 2.958-3.49z" fill="#9394a1"/><path d="m164.202 121.71-54.299 31.436c-2.64 1.517-5.887 1.517-8.511 0l-87.4947-50.567c-2.3971-1.38-2.3971-4.8396 0-6.2202l54.2991-31.4355c2.6398-1.5172 5.8866-1.5172 8.5113 0l87.4943 50.5667c2.397 1.381 2.397 4.84 0 6.22z" fill="#e5e5e5"/><path d="m13.6076 98.2552c-.5765 1.0014-.4096 2.5488.8799 3.2918l87.4945 50.567c2.261 1.305 5.067 1.305 7.328 0l54.299-31.435c.379-.213.667-.516.88-.88.576-1.001.41-2.549-.88-3.292l-87.4945-50.5673c-2.2606-1.3047-5.0673-1.3047-7.3279 0l-54.2991 31.4356c-.3792.2275-.6675.5158-.8799.8799z" fill="#bfbece"/><path d="m163.729 118.6c-.137.227-.304.409-.561.561l-54.3 31.42c-.971.562-2.093.865-3.216.865s-2.245-.303-3.216-.865l-87.4947-50.566c-.9103-.5162-.8648-1.5631-.5614-2.0941.1365-.2276.3186-.4096.5614-.5462l15.9756-9.2395 37.2918-21.6043 1.0316-.5917c.971-.5613 2.0937-.8496 3.2164-.8496 1.1379 0 2.2454.2883 3.2164.8496l87.4949 50.5668c.895.531.864 1.563.561 2.094z" fill="#fff"/><path d="m153.975 112.729-57.1971 33.089-78.3763-45.348 57.1968-33.104z" fill="#546d7a"/><path d="m151.882 112.593-55.3607 32.043-21.5133-12.456-30.0094-17.387-24.7448-14.322 55.3611-32.0269 50.2331 29.0687v.0152z" fill="#7497ff"/><g fill="#919191"><path d="m115.607 150.78c-.258.015-.531.333-.607.728-.076.379.076.683.334.667.257-.015.531-.333.606-.728.091-.379-.06-.683-.333-.667z"/><path d="m117.381 149.748c-.258.016-.531.334-.607.729-.076.379.076.682.349.667.258-.015.531-.334.607-.728.061-.379-.091-.683-.349-.668z"/><path d="m119.143 148.717c-.258.015-.531.333-.607.728-.076.379.076.683.349.667.258-.015.531-.333.607-.728.075-.379-.076-.683-.349-.667z"/><path d="m120.917 147.685c-.258.016-.531.334-.607.729-.076.379.076.682.349.667.258-.015.531-.334.607-.728.061-.379-.091-.683-.349-.668z"/><path d="m122.676 146.653c-.258.015-.531.334-.607.728-.076.379.076.683.349.668.258-.015.531-.334.607-.729.06-.394-.092-.682-.349-.667z"/><path d="m124.437 145.622c-.258.015-.531.334-.607.728-.076.379.076.683.349.668.258-.016.531-.334.607-.729.076-.394-.076-.682-.349-.667z"/><path d="m126.211 144.589c-.257.016-.531.334-.606.729-.076.379.075.682.349.667.257-.015.531-.334.606-.728.061-.395-.091-.683-.349-.668z"/><path d="m147.967 132.331c-.258.015-.531.333-.607.728-.076.379.076.683.349.667.258-.015.531-.333.607-.728.061-.394-.091-.683-.349-.667z"/><path d="m149.728 131.3c-.258.015-.531.334-.606.728-.076.379.075.683.348.668.258-.015.531-.334.607-.729.076-.394-.076-.697-.349-.667z"/><path d="m151.503 130.268c-.258.015-.531.333-.607.728-.076.379.076.683.349.667.258-.015.531-.333.607-.728.06-.394-.091-.698-.349-.667z"/><path d="m153.261 129.221c-.258.015-.531.334-.607.728-.075.38.076.683.349.668.258-.015.531-.334.607-.728.061-.379-.091-.683-.349-.668z"/><path d="m155.023 128.189c-.258.015-.531.334-.607.728-.076.379.076.683.349.668.258-.016.531-.334.607-.729.076-.379-.076-.682-.349-.667z"/><path d="m156.797 127.158c-.258.015-.531.334-.607.728-.075.379.076.683.349.668.258-.016.531-.334.607-.729.061-.379-.091-.682-.349-.667z"/><path d="m158.556 126.126c-.258.015-.531.334-.607.728-.076.379.076.683.349.668.258-.016.531-.334.607-.729.076-.379-.076-.682-.349-.667z"/><path d="m134.828 141.222c.106 0 .212-.03.303-.076l4.415-2.564c.364-.212.577-.591.577-1.016v-.228c0-.333-.273-.607-.607-.607-.106 0-.212.031-.303.076l-4.415 2.564c-.365.213-.577.592-.577 1.017v.227c-.015.334.258.607.607.607z"/></g><path d="m135.27 140.707 3.899-2.261c.258-.152.409-.425.409-.713v-.197c0-.258-.288-.425-.5-.288l-3.899 2.26c-.258.152-.41.425-.41.713v.197c-.015.258.273.425.501.289z" fill="#4a4a4a"/><path d="m139.061 137.248c.228-.137.501.03.501.288v.197c0 .258-.121.486-.318.637l-1.062-.622z" fill="#5d5d5d"/><path d="m138.911 137.794-3.899 2.26c-.106.061-.198.152-.258.258v-.091c0-.288.152-.561.409-.713l3.9-2.26c.227-.137.5.03.5.288v.197c0 .061-.015.121-.03.167-.213-.121-.455-.197-.622-.106z" fill="#202020"/><path d="m102.513 84.525-34.6973 20.057-32.7251-18.9343 34.667-20.0872z" fill="#fff" fill-opacity=".2"/><path d="m106.596 127.173-40.8718-23.592v-57.6672l40.8718 23.5918z" fill="#ba9d5e"/><path d="m102.516 71.8564v48.2456l-32.7096-18.889v-48.2452z" fill="#a17f4c"/><path d="m135.105 52.9678-28.507 16.537v57.6672l28.507-16.446z" fill="#d1a64f"/><path d="m106.598 127.172 34.697-20.072v-57.6667l-34.697 20.072z" fill="#d2b371"/><path d="m110.677 71.8568v48.2452l26.535-15.353v-48.2458z" fill="#c5a666"/><path d="m135.635 103.823v-46.4095l1.577-.9103v48.2458l-26.535 15.369v-1.866z" fill="#a17f4c"/><path d="m110.677 92.6565v3.2618l26.535-16.7949-1.593-.8951z" fill="#f5df95"/><path d="m137.212 83.63v-4.506l-26.535 15.3688v4.506z" fill="#d2b371"/><path d="m135.635 103.823 1.577.926-26.535 15.369v-1.867z" fill="#f5df95"/><path d="m71.3843 100.288v-46.4099l-1.5779-.9103v48.2612l32.7246 18.888-.015-1.866z" fill="#c9a963"/><path d="m102.516 92.6577v3.2619l-32.7096-20.3147 1.5779-.8952z" fill="#dfbf7b"/><path d="m69.8064 80.11v-4.506l32.7246 18.8886v4.5059z" fill="#ba9d5e"/><path d="m71.3843 100.288-1.5779.94 32.7246 18.889-.015-1.866z" fill="#dfbf7b"/><path d="m135.134 53.0296-28.538 16.4763-40.8572-23.607 28.4922-16.4612z" fill="#d1a64f"/><path d="m65.7399 45.8989 34.6821-20.0569 40.872 23.5919-34.697 20.0719z" fill="#f5df95"/><path d="m106.596 64.8028-32.6943-18.9038 26.5203-15.3536 32.71 18.9038z" fill="#e3c87f"/><path d="m100.438 32.3812 31.116 17.9783 1.578-.9255-32.71-18.8886-26.5347 15.3536 1.6082.9255z" fill="#a17f4c"/><path d="m92.0629 56.5043-2.8068-1.6234 27.8699-14.7012-.015 1.8205z" fill="#d2b371"/><path d="m113.226 37.9187 3.899 2.2454-26.6415 15.4295-3.9143-2.2606z" fill="#f5df95"/><path d="m100.438 32.3812-.016-1.8358-26.5347 15.3536 1.6082.9255z" fill="#d2b371"/><path d="m133.709 64.499-.015 4.248-1.972 1.1227.015-4.2632-.986.5613 1.987-4.1873 1.942 1.9571z" fill="#654532"/><path d="m118.549 68.9744-5.871 11.2876 4.84 3.8081 5.856-11.2877z" fill="#c9c9c9"/><path d="m129.216 66.4864c-.061.2731-.167.5614-.304.8496-.121.2579-.258.5462-.47.7738-.182.1972-.394.4248-.607.5916l-.06 2.5337c.424-.2124.773-.1972.834 0l-2.094 1.2137c.107-.2882.41-.6523.804-.9406l-.06-2.5185c-.198.0455-.364.0607-.455.0607-.182 0-.349-.1214-.456-.2427-.121-.1366-.227-.3035-.288-.5007-.121-.3186-.152-.6979-.121-1.1075.015-.1214.015-.258.045-.3945 0-.0152.016-.1366.031-.1517l1.608-.8951 1.608-.8952c.015 0 .03.0911.03.1062.031.0911.046.1973.061.3035.03.3793 0 .7737-.106 1.2137z" fill="#654532"/><path d="m56.7581 98.3162-18.4789 10.7108 23.258 13.427 18.479-10.726z" fill="#fff" fill-opacity=".2"/><path d="m75.6915 130.707-23.2732-13.427v-25.0327l23.2732 13.4267z" fill="#bf9245"/><path d="m94.1544 94.948-18.4638 10.726v25.033l18.4638-10.665z" fill="#cfa658"/><path d="m83.5354 104.354-5.6438 3.278v7.631l5.6438-3.247z" stroke="#f6f6f7" stroke-miterlimit="10" stroke-width=".2252"/><path d="m81.5924 108.526-.0152 3.808-1.7599 1.002.0152-3.808-.88.5 1.7751-3.747 1.7447 1.745z" fill="#a05e00"/><path d="m94.1554 94.9481-18.4639 10.7259-10.9235-6.311-3.535-2.033-8.8147-5.0824 18.479-10.7112 8.8147 5.0825 3.5501 2.0481z" fill="#edce7d"/><path d="m64.7677 99.3625-3.5349-2.033 18.479-10.7111 3.5501 2.0482z" fill="#fee9ab"/><path d="m60.8092 119.95-6.6755-3.808v-5.765l6.6755 3.808z" fill="#ababab"/><path d="m60.4453 119.222-5.9473-3.384v-.273l5.9473 3.399z" fill="#595959"/><path d="m60.4453 118.494-5.9473-3.384v-.257l5.9473 3.383z" fill="#595959"/><path d="m60.4453 117.781-5.9473-3.398v-.258l5.9473 3.398z" fill="#595959"/><path d="m60.4453 117.052-5.9473-3.383v-.273l5.9473 3.398z" fill="#595959"/><path d="m60.4453 115.687-5.9473-3.383v-.835l5.9473 3.399z" fill="#595959"/><path d="m61.2355 97.3298-.0303 8.4352.7282-1.972.7738 2.792 1.0316-1.806.9255 2.868.1062-8.2842z" fill="#dbc68a"/><path d="m87.7544 102.23-1.6841.986v2.261l1.6841-.971z" fill="#a05e00"/><path d="m90.1199 100.865-1.6841.986v2.26l1.6841-.971z" fill="#a05e00"/><path d="m92.4868 99.4988-1.6841.9862v2.26l1.6841-.97z" fill="#a05e00"/><path d="m105.381 32.9563-14.2309 8.2685 17.9329 10.3319 14.231-8.2534z" fill="#fff" fill-opacity=".2"/><path d="m119.975 57.7768-17.933-10.347v-10.4532l17.933 10.347z" fill="#bf9245"/><path d="m134.222 39.0554-14.246 8.2685v10.4533l14.246-8.223z" fill="#cfa658"/><path d="m134.221 39.0555-14.246 8.2685-8.421-4.8549-2.715-1.5778-6.797-3.9143 14.246-8.2534 6.797 3.9143 2.731 1.5779z" fill="#edce7d"/><path d="m111.557 42.4691-2.716-1.5778 14.246-8.2534 2.731 1.5779z" fill="#fee9ab"/><path d="m108.84 40.8911-.015 6.5086.561-1.5172.592 2.1392.789-1.3806.713 2.2151.076-6.3873z" fill="#dbc68a"/><path d="m129.276 44.6687-1.29.7738v1.7295l1.29-.7586z" fill="#a05e00"/><path d="m131.113 43.6216-1.305.7586v1.7447l1.305-.7586z" fill="#a05e00"/><path d="m132.932 42.575-1.305.7585v1.7448l1.305-.7586z" fill="#a05e00"/><path d="m119.445 31.4996-4.021 2.3668-3.034-1.7296 4.02-2.3668z" fill="#ebebeb"/><path d="m118.945 31.485-3.581 2.1089-.136-.091 3.58-2.0937z" fill="#bfbfbf"/><path d="m118.566 31.2577-3.581 2.1088-.136-.0758 3.58-2.1088z" fill="#bfbfbf"/><path d="m118.185 31.0453-3.58 2.1089-.137-.0758 3.581-2.1089z" fill="#bfbfbf"/><path d="m117.805 30.8332-3.581 2.0937-.136-.0759 3.58-2.1088z" fill="#bfbfbf"/><path d="m117.078 30.4237-3.565 2.0936-.44-.2427 3.58-2.1088z" fill="#bfbfbf"/><path d="m123.996 46.8379-2.852 1.6385v3.8536l2.852-1.6385z" stroke="#f6f6f7" stroke-miterlimit="10" stroke-width=".1134"/><path d="m123.011 48.9325v1.9268l-.895.5007.015-1.9268-.439.2579.879-1.8813.88.8799z" fill="#a05e00"/><path d="m138.472 131.966c-.076.121-.167.212-.289.288l-6.978 4.036c-.425.242-.941.242-1.366 0l-1.912-1.108c-.182-.106-.318-.288-.364-.486-.045-.197-.015-.409.076-.576.061-.121.167-.212.288-.288l6.995-4.036c.409-.243.94-.243 1.35 0l1.911 1.108c.38.212.501.697.289 1.062z" fill="#919191"/><path d="m138.045 132.027-6.994 4.036c-.334.197-.743.197-1.077 0l-1.912-1.108c-.334-.197-.334-.683 0-.88l6.994-4.035c.334-.198.744-.198 1.077 0l1.912 1.107c.334.182.334.683 0 .88z" fill="#dce5f5"/><path d="m132.734 133.484c-1.153.546-3.747 1.502-4.915.986.015-.152.091-.303.243-.394l6.994-4.036c.136-.076.288-.106.44-.121.333.561.197 2.169-2.762 3.565z" fill="#e6eeff"/><path d="m139.502 25.963-4.84 4.779-2.867 1.8206 3.58-8.1168z" fill="#6382e1"/><path d="m131.476.838523 1.138 1.562667 17.311 30.98031 1.304-.713c.456-.2428.759-.7131.759-1.2441l.44-19.1465v-.3793c-.152-.7586-.819-1.7144-1.487-2.10886l-.076-.04551-15.399-8.95122-.758-.439989c-.622-.3641173-1.351-.4399955-2.003-.2579367z" fill="#acc1ff"/><path d="m132.053 1.62724-.577-.788901 1.214-.7434391c.576-.1517157 1.214-.1061769 1.79.1669111z" fill="#7c9bf6"/><path d="m145.086 13.0366.607 3.0798 6.721-3.8384v-.3793c-.152-.7586-.819-1.7143-1.487-2.1088l-.075-.04552z" fill="#7c9bf7"/><path d="m146.709 15.5246 5.704-3.2468-.425 19.1617c-.015.5159-.303 1.0014-.773 1.2441l-1.305.7283-3.217-4.4301z" fill="#8aa6fa"/><path d="m149.879 10.8063-17.174-9.982854c-.804-.470319-1.806.10619-1.836 1.031654l-.592 19.8596c-.015.6372.319 1.2441.88 1.5627l17.432 10.1346c.85.4855 1.912-.1062 1.942-1.0772l.577-19.3286c.03-.9103-.44-1.7447-1.229-2.1999z" fill="#7497ff"/><path d="m137.545 26.3119-5.75 6.2507 1.881-8.1168z" fill="#7497ff"/><path d="m43.7826 58.325 8.2382 3.9901 7.4188 2.6095-10.1649-10.0132z" fill="#389b4f"/><path d="m59.9236 16.7702-1.7296 2.382-39.613 54.6328-1.9723-1.0924c-.6979-.3641-1.1379-1.0771-1.1682-1.8812l-.6524-29.0536-.0152-.5765c.2276-1.1682 1.2441-2.5944 2.2606-3.2012l.1214-.0759 36.7304-21.1947 1.1682-.6827c.9558-.5462 2.0482-.6524 3.0343-.3944z" fill="#5aee7c"/><path d="m59.0448 17.9685.88-1.1986-1.8358-1.1227c-.8799-.2276-1.8509-.1517-2.7157.2579z" fill="#35c156"/><path d="m25.9116 42.9104-.9255 4.6729-10.2104-5.8259-.0152-.5765c.2276-1.1682 1.2441-2.5944 2.2605-3.2013l.1214-.0758z" fill="#35c156"/><path d="m23.4523 46.6585-8.663-4.9459.6524 29.0839c.0152.789.4703 1.5021 1.1682 1.8813l1.9723 1.0924 4.8701-6.721z" fill="#389b4f"/><path d="m18.6451 39.5123 39.4006-22.7574c1.2137-.6979 2.746.1517 2.7915 1.5627l.8951 30.1459c.0304.971-.4854 1.8812-1.3199 2.3667l-39.8102 22.985c-1.2896.7434-2.8978-.1517-2.9433-1.6385l-.8799-29.3267c-.0455-1.3654.6827-2.655 1.8661-3.3377z" fill="#39cb5b"/><path d="m46.2114 58.1128 13.2296 6.812-2.8522-12.3193z" fill="#39cb5b"/><path d="m22.7556 60.4484.091 5.8865-1.2592.7283-.091-5.8866-1.4717.8496-.0303-1.5171 4.2177-2.4578.0303 1.5323z" fill="#fff"/><path d="m27.0803 61.7676-.0303.0151-.9558.5462.0303 2.0785-1.2592.7282-.1214-7.4036 2.1999-1.2745c1.3047-.7586 2.0633-.2579 2.0937 1.3958.0151 1.1379-.2883 2.1392-.8497 2.8978l1.0772 1.8357-1.4261.8193zm-.0607-1.4565c.5462-.3186.8496-.9103.8345-1.6992-.0152-.7738-.3338-.9862-.88-.6676l-.9558.5614.0455 2.3516z" fill="#fff"/><path d="m31.0707 60.1898-.3337 1.5778-1.2896.7434 2.0026-8.6326 1.2896-.7434 2.1999 6.19-1.3351.7738-.3793-1.1531zm1.0165-4.8094-.6675 3.1557 1.4261-.8345z" fill="#fff"/><path d="m39.4604 50.4041-.6978 1.7144c-.3338-.4096-.8193-.5007-1.2593-.2428-.7889.4552-1.3654 1.7296-1.3351 2.9433.0152 1.2441.6221 1.8358 1.411 1.3806.4096-.2427.8951-.8496 1.2289-1.593l.7585.7434c-.5158 1.1227-1.2895 2.124-2.0178 2.5337-1.4868.8647-2.6247-.1366-2.655-2.3061-.0303-2.1392 1.0772-4.3998 2.5792-5.2797.713-.4097 1.4716-.3641 1.9874.1062z" fill="#fff"/><path d="m41.9935 52.2713-.6372 1.4716.0303 1.8206-1.2592.7282-.1214-7.4037 1.2592-.7283.0607 3.2013 1.8358-4.3088 1.4565-.8496-1.7751 4.1267 2.0178 3.2012-1.502.8648z" fill="#fff"/><path d="m45.3915 53.2413-.1214-7.4037 1.2593-.7282.1214 7.4037z" fill="#fff"/><path d="m51.0669 49.9335-2.3364-3.2467.0758 4.5666-1.1833.6828-.1214-7.4038 1.1075-.6372 2.3516 3.2467-.0759-4.5666 1.1683-.6827.1213 7.4037z" fill="#fff"/><path d="m57.4529 42.424.0455 2.8827c-.5158.8648-1.3503 1.7447-2.033 2.1543-1.502.8648-2.655-.1062-2.7005-2.2605-.0304-2.1392 1.1075-4.4453 2.655-5.3404.7282-.4248 1.5172-.4552 2.033-.0759l-.6828 1.6841c-.3641-.2883-.8799-.3035-1.3351-.0455-.8041.4703-1.4109 1.775-1.3957 3.0191.0152 1.2592.6675 1.8509 1.4868 1.3654.2579-.1517.5765-.4703.8648-.8648l-.0304-1.9116z" fill="#fff"/><path d="m43.0881 36.3098c.0152.2275.0152.4703 0 .713 0 .0304 0 .0607-.0152.0911-.0303.4855-.1213.971-.273 1.4565-.0152.0303-.0152.0607-.0304.091-.1517.5007-.3641.9861-.6069 1.4565-.0151.0303-.0303.0606-.0455.091-.2579.4703-.5462.9103-.8799 1.3199-.0152.0303-.0455.0607-.0607.0759-.3338.3944-.6979.7586-1.0772 1.0468-.0304.0152-.0455.0303-.0758.0607-.1821.1365-.3642.2579-.5614.3793-.1972.1213-.3945.2124-.5917.2882-.0303.0152-.0455.0304-.0759.0304-.3944.1517-.7737.2276-1.1226.2276-.0152 0-.0456 0-.0759 0-.349 0-.6979-.0911-.9862-.2428-.0151 0-.0455-.0151-.0607-.0303-.3034-.1517-.5461-.3793-.7585-.6676-.0152-.0151-.0304-.0303-.0455-.0607-.1973-.2882-.349-.6524-.44-1.062 0-.0303-.0152-.0455-.0152-.0758-.0455-.1821-.0758-.3945-.091-.6069-.0152-.2427-.0152-.4855 0-.7282 0-.0304 0-.0607.0152-.0911.0303-.4854.1365-.9861.273-1.4716.0152-.0303.0152-.0607.0304-.091.1517-.5007.3641-1.0014.622-1.4717.0152-.0303.0304-.0607.0455-.091.258-.4703.5462-.9255.88-1.3199.0151-.0304.0455-.0607.0607-.0759.3338-.3945.6827-.7434 1.062-1.0317.0303-.0151.0455-.0455.0758-.0607.1669-.1365.349-.2427.531-.3489.2124-.1213.4097-.2276.6221-.3034.0303-.0152.0455-.0152.0758-.0304.3945-.1517.7738-.2275 1.1227-.2275h.0759c.3489 0 .6979.091.9861.2427.0152.0152.0304.0152.0607.0304.2883.1668.5462.3792.7434.6827.0152.0151.0304.0303.0456.0607.1972.2882.3489.6372.4399 1.062 0 .0152.0152.0455.0152.0758.0607.1973.091.3945.1062.6069z" fill="#fff"/><path d="m33.256 41.1641v2.2606l11.8035-7.0396v-2.2606z" fill="#fff"/><path d="m39.9915 45.7311-1.6689 1.0013v-15.2322l1.6689-1.0166z" fill="#fff"/><path d="m41.7662 37.0836c.0152.1518.0152.3186 0 .4704v.0607c-.0151.3186-.091.6523-.182.9709 0 .0152-.0152.0455-.0152.0607-.1062.3338-.2427.6524-.4096.971 0 .0152-.0152.0455-.0304.0607-.1668.3186-.3641.6069-.5917.88-.0151.0151-.0303.0303-.0455.0455-.2124.2579-.4551.5006-.713.6978-.0152.0152-.0304.0152-.0455.0304-.1214.091-.2428.182-.3642.2427-.1365.0759-.273.1366-.3944.1973-.0152.0151-.0304.0151-.0455.0151-.258.1062-.5159.1518-.7434.1518-.0152 0-.0304 0-.0456 0-.2427 0-.4551-.0607-.6523-.1518-.0152 0-.0304-.0151-.0304-.0303-.1972-.1062-.3641-.2579-.5006-.44-.0152-.0151-.0152-.0303-.0304-.0303-.1365-.1973-.2276-.4248-.2883-.7131 0-.0152-.0151-.0303-.0151-.0455-.0304-.1214-.0455-.2579-.0607-.4096-.0152-.1669-.0152-.3186 0-.4855 0-.0152 0-.0455 0-.0607.0303-.3186.091-.6524.1821-.9862 0-.0152.0151-.0455.0151-.0606.1062-.3338.2428-.6676.4097-.971.0151-.0304.0151-.0456.0303-.0607.1669-.3186.3641-.6069.5917-.88.0152-.0151.0303-.0303.0455-.0607.2124-.2579.4552-.5006.7131-.6827.0151-.0151.0303-.0303.0607-.0455.1213-.091.2275-.1669.3489-.2427.1365-.0759.2731-.1517.4096-.1973.0152-.0151.0304-.0151.0455-.0151.258-.1062.5159-.1518.7435-.1518h.0455c.2427 0 .4551.0607.6523.1669.0152 0 .0152.0152.0304.0152.1972.1062.3641.2579.5007.4552.0151.0151.0151.0303.0303.0303.1365.1972.2276.4248.2883.6979 0 .0152.0151.0303.0151.0455.0152.1821.0455.3034.0455.4551z" fill="#39cb5b"/><path d="m40.781 37.6604v.2882.0304c-.0152.1972-.0455.4096-.1062.6068 0 .0152 0 .0304-.0152.0455-.0606.2124-.1517.4097-.2579.6069 0 .0152-.0152.0304-.0152.0455-.1062.1973-.2275.3793-.3641.5462-.0151.0152-.0151.0152-.0303.0304-.1366.1669-.2883.3034-.44.4399-.0152.0152-.0152.0152-.0303.0152-.0759.0607-.1518.1062-.2276.1517-.091.0455-.1669.091-.2427.1214-.0152 0-.0152.0152-.0304.0152-.1669.0607-.3186.091-.4703.091-.0152 0-.0152 0-.0304 0-.1517 0-.2882-.0303-.4096-.091-.0152 0-.0151 0-.0303-.0152-.1214-.0607-.2276-.1517-.3186-.2731 0 0-.0152-.0152-.0152-.0303-.0759-.1214-.1366-.2731-.1821-.44 0-.0152 0-.0152 0-.0304-.0151-.0758-.0303-.1668-.0303-.2579 0-.1062 0-.1972 0-.3034 0-.0152 0-.0304 0-.0455.0152-.1973.0607-.4097.1214-.6069 0-.0152 0-.0303.0151-.0455.0607-.2124.1518-.4096.258-.6069.0151-.0151.0151-.0303.0151-.0303.1062-.1973.2276-.3793.3641-.5462.0152-.0152.0152-.0303.0304-.0303.1365-.1669.2882-.3034.44-.4248.0151-.0152.0151-.0152.0303-.0304.0759-.0607.1517-.1062.2276-.1517.091-.0455.1669-.091.2579-.1214.0152 0 .0152-.0152.0303-.0152.1669-.0606.3186-.091.4704-.091h.0303c.1517 0 .2883.0304.4096.1062 0 0 .0152.0001.0152.0152.1214.0607.2276.1517.3034.2731 0 0 .0152.0152.0152.0303.0759.1214.1366.2731.1821.44v.0303c.0151.0911.0303.1669.0303.258z" fill="#fff"/><path d="m135.859 17.9678c.091-.1214.182-.349.182-.5766.015-1.5778 0-3.186.015-4.7638.015-1.2137.289-2.1392.744-2.82196.5-.7434 1.168-.98611 1.957-.86474.076-1.35027.303-1.71439.804-1.42613.531.30343.743.87993.88 2.4426.061.07583.136.15173.197.22753 1.426 1.6082 2.397 4.1419 2.488 6.63.046 1.2138.091 2.4426.015 3.5653-.091 1.2744.167 2.3972.804 3.5502.289.5159.349 1.0013.274 1.5323-3.095-1.8964-6.175-3.7777-9.27-5.6741-.061-.5614-.031-.971.242-1.1531.258-.1669.471-.3945.668-.6675z" fill="#dde6ff"/><path d="m139.606 25.8415c-.591-.3489-1.077-1.4261-1.077-2.4274.713.4399 1.441.88 2.155 1.3199 0 1.0014-.471 1.4716-1.078 1.1075z" fill="#dde5ff"/><path d="m142.809 10.9441c1.35.9558 2.458 3.2012 2.443 4.9915-.015 1.8206-1.138 2.5033-2.504 1.5323-1.38-.9861-2.488-3.2164-2.488-5.0218 0-1.8357 1.123-2.50331 2.549-1.502z" fill="#ff7573"/></svg>