<svg fill="none" height="318" viewBox="0 0 251 318" width="251" xmlns="http://www.w3.org/2000/svg"><path d="m211.587 199.839-85.341-19.642v-118.5289l85.341-17.61z" fill="#8c3123"/><path d="m40.9053 199.839 85.3407-19.642v-118.5289l-85.3407-17.61z" fill="#e05243"/><path d="m211.587 44.0581v155.7809l15.578-7.789v-141.0086z" fill="#e05243"/><path d="m40.9053 44.0581v155.7809l-15.5781-7.789v-141.0086z" fill="#8c3123"/><path d="m126.246 184.938-36.5745-10.159 36.5745-8.128 36.575 8.128z" fill="#f2b0a9"/><path d="m126.246 59.6362-36.5745 10.1597 36.5745 8.1277 36.575-8.1277z" fill="#5e1f18"/><path d="m162.821 225.577-36.575 18.287v-58.926l36.575-10.159z" fill="#e05243"/><path d="m89.6715 225.577 36.5745 18.287v-58.926l-36.5745-10.159z" fill="#8c3123"/><path d="m162.821 18.9975-36.575-18.287295v58.925895l36.575 10.1596z" fill="#e05243"/><path d="m89.6715 18.9975 36.5745-18.287295v58.925895l-36.5745 10.1596z" fill="#8c3123"/><path d="m126.246 152.427 36.575-4.064v-51.475l-36.575-6.0958z" fill="#e05243"/><path d="m126.246 152.427-36.5745-4.064v-51.475l36.5745-6.0958z" fill="#8c3123"/><path d="m24.1128 296.748h-14.52512l-3.26219 9.049h-4.7147l13.23931-34.67h4.0003l13.2631 34.67h-4.6909zm-13.144-3.762h11.7867l-5.9053-16.216zm29.2645-12.953.119 2.857c1.8891-2.222 4.4369-3.334 7.6436-3.334 3.6034 0 6.056 1.382 7.3577 4.144.8573-1.239 1.9685-2.239 3.3337-3.001 1.381-.762 3.0082-1.143 4.8814-1.143 5.6513 0 8.5245 2.993 8.6198 8.977v17.264h-4.4052v-17.002c0-1.841-.4207-3.214-1.262-4.119-.8413-.921-2.2542-1.381-4.2385-1.381-1.635 0-2.9923.492-4.0718 1.476-1.0794.969-1.7065 2.278-1.8811 3.929v17.097h-4.4289v-16.883c0-3.746-1.8335-5.619-5.5005-5.619-2.8892 0-4.8655 1.23-5.9291 3.691v18.811h-4.4052v-25.764zm54.5286 25.764c-.254-.508-.4604-1.413-.6191-2.715-2.0478 2.128-4.4925 3.191-7.334 3.191-2.5399 0-4.6274-.714-6.2624-2.143-1.6192-1.445-2.4288-3.27-2.4288-5.477 0-2.682 1.0159-4.762 3.0479-6.238 2.0478-1.492 4.921-2.239 8.6198-2.239h4.2861v-2.024c0-1.539-.4604-2.762-1.3811-3.667-.9207-.92-2.278-1.381-4.0718-1.381-1.5716 0-2.8891.397-3.9527 1.191s-1.5954 1.754-1.5954 2.881h-4.429c0-1.286.4524-2.524 1.3573-3.714.9207-1.207 2.1589-2.159 3.7146-2.858 1.5716-.698 3.2939-1.048 5.1671-1.048 2.9685 0 5.2941.747 6.9768 2.239 1.6827 1.476 2.5558 3.516 2.6193 6.119v11.859c0 2.365.3016 4.246.9049 5.643v.381zm-7.3102-3.358c1.3811 0 2.6907-.357 3.929-1.071 1.2382-.714 2.1351-1.643 2.6907-2.786v-5.286h-3.4527c-5.3973 0-8.096 1.579-8.096 4.738 0 1.381.4604 2.461 1.3811 3.239s2.1034 1.166 3.5479 1.166zm22.0733-.238h15.073v3.596h-20.454v-3.239l14.215-18.882h-14.001v-3.643h19.526v3.119zm18.502-9.524c0-2.524.492-4.794 1.476-6.81 1-2.017 2.381-3.572 4.143-4.668 1.778-1.095 3.802-1.643 6.072-1.643 3.509 0 6.342 1.215 8.501 3.644 2.175 2.428 3.262 5.659 3.262 9.691v.31c0 2.508-.484 4.762-1.452 6.762-.953 1.984-2.326 3.532-4.12 4.643-1.778 1.112-3.825 1.667-6.143 1.667-3.492 0-6.326-1.214-8.501-3.643-2.159-2.429-3.238-5.643-3.238-9.644zm4.429.524c0 2.857.659 5.151 1.976 6.881 1.334 1.73 3.111 2.596 5.334 2.596 2.238 0 4.016-.874 5.334-2.62 1.317-1.762 1.976-4.222 1.976-7.381 0-2.826-.675-5.112-2.024-6.858-1.333-1.762-3.111-2.643-5.334-2.643-2.175 0-3.929.865-5.262 2.595-1.334 1.731-2 4.207-2 7.43zm28.717-13.168.142 3.238c1.969-2.476 4.541-3.715 7.715-3.715 5.445 0 8.192 3.072 8.239 9.216v17.025h-4.405v-17.049c-.016-1.858-.444-3.231-1.286-4.12-.825-.889-2.119-1.333-3.881-1.333-1.429 0-2.683.381-3.762 1.143-1.08.762-1.921 1.762-2.524 3v18.359h-4.405v-25.764zm45.742 10.31c-3.921-1.127-6.779-2.508-8.572-4.143-1.778-1.651-2.667-3.683-2.667-6.096 0-2.73 1.087-4.984 3.262-6.762 2.19-1.794 5.032-2.691 8.524-2.691 2.382 0 4.501.46 6.358 1.381 1.873.921 3.318 2.191 4.334 3.81 1.032 1.619 1.548 3.389 1.548 5.31h-4.596c0-2.096-.667-3.739-2-4.929-1.334-1.207-3.215-1.81-5.644-1.81-2.254 0-4.016.5-5.286 1.5-1.254.984-1.881 2.358-1.881 4.12 0 1.413.595 2.611 1.786 3.595 1.206.969 3.246 1.858 6.12 2.667 2.889.81 5.143 1.707 6.762 2.691 1.635.968 2.842 2.103 3.619 3.405.794 1.302 1.191 2.834 1.191 4.596 0 2.809-1.095 5.064-3.286 6.762-2.191 1.683-5.12 2.524-8.787 2.524-2.381 0-4.603-.452-6.667-1.357-2.063-.921-3.659-2.175-4.786-3.762-1.111-1.588-1.667-3.39-1.667-5.406h4.596c0 2.096.77 3.755 2.31 4.977 1.555 1.206 3.627 1.81 6.214 1.81 2.413 0 4.263-.492 5.549-1.477 1.285-.984 1.928-2.325 1.928-4.024 0-1.698-.595-3.008-1.786-3.929-1.19-.936-3.349-1.857-6.476-2.762zm24.002-4.024h3.31c2.079-.032 3.714-.579 4.905-1.643 1.19-1.064 1.786-2.5 1.786-4.31 0-4.064-2.024-6.096-6.072-6.096-1.905 0-3.429.548-4.572 1.643-1.127 1.08-1.691 2.516-1.691 4.31h-4.405c0-2.746 1-5.024 3-6.834 2.016-1.825 4.572-2.738 7.668-2.738 3.27 0 5.834.865 7.691 2.595 1.857 1.731 2.786 4.136 2.786 7.215 0 1.508-.492 2.969-1.476 4.382-.969 1.412-2.294 2.468-3.977 3.167 1.905.603 3.373 1.603 4.405 3 1.048 1.397 1.572 3.103 1.572 5.119 0 3.112-1.016 5.58-3.048 7.406-2.032 1.825-4.675 2.738-7.929 2.738-3.255 0-5.906-.881-7.954-2.643-2.031-1.762-3.047-4.088-3.047-6.977h4.429c0 1.826.595 3.286 1.785 4.382 1.191 1.095 2.786 1.643 4.787 1.643 2.127 0 3.754-.556 4.881-1.667s1.691-2.707 1.691-4.786c0-2.016-.62-3.564-1.858-4.644-1.238-1.079-3.024-1.635-5.357-1.666h-3.31z" fill="#000"/></svg>