<svg fill="none" height="274" viewBox="0 0 315 274" width="315" xmlns="http://www.w3.org/2000/svg"><rect fill="#fff" height="47" rx="13" width="132" y="227"/><path d="m44.5204 255.202c-.6537 0-1.2447-.112-1.773-.336-.5193-.224-.9312-.546-1.2357-.967-.3044-.421-.4611-.918-.4701-1.491h2.0147c.0269.385.1612.69.403.914.2507.223.591.335 1.0208.335.4388 0 .7835-.103 1.0342-.309.2507-.215.3761-.492.3761-.832 0-.278-.0851-.506-.2552-.685s-.385-.318-.6447-.417c-.2507-.107-.6-.224-1.0477-.349-.6089-.179-1.1058-.354-1.4909-.524-.3761-.179-.7029-.443-.9805-.792-.2686-.358-.4029-.833-.4029-1.424 0-.555.1388-1.039.4163-1.451.2776-.412.6672-.725 1.1686-.94.5014-.224 1.0745-.336 1.7192-.336.9671 0 1.7506.238 2.3506.712.6089.466.9447 1.12 1.0073 1.961h-2.0684c-.0179-.322-.1567-.586-.4164-.792-.2507-.215-.5865-.323-1.0074-.323-.3671 0-.6626.094-.8865.282-.2149.189-.3223.462-.3223.82 0 .251.0806.461.2417.631.1702.161.3761.296.6179.403.2507.099.5999.215 1.0477.349.6089.179 1.1058.358 1.4909.538.385.179.7163.447.9939.805.2776.359.4164.829.4164 1.411 0 .501-.1299.967-.3895 1.397-.2597.429-.6403.774-1.1417 1.034-.5015.251-1.0969.376-1.7864.376zm5.9015-8.422c-.3313 0-.6089-.103-.8328-.309-.2149-.214-.3223-.479-.3223-.792s.1074-.573.3223-.779c.2239-.215.5015-.322.8328-.322s.6044.107.8193.322c.2239.206.3358.466.3358.779s-.1119.578-.3358.792c-.2149.206-.488.309-.8193.309zm.9268.887v7.441h-1.8805v-7.441zm4.7725-.121c.5551 0 1.0432.112 1.464.336.4209.215.7522.497.9939.846v-1.061h1.8939v7.495c0 .689-.1388 1.302-.4164 1.84-.2776.546-.6939.976-1.2491 1.289-.5552.323-1.2268.484-2.0148.484-1.0566 0-1.9251-.247-2.6057-.739-.6716-.492-1.0521-1.164-1.1417-2.015h1.867c.0985.341.309.609.6313.806.3313.206.7298.309 1.1954.309.5462 0 .9895-.166 1.3297-.497.3403-.322.5104-.815.5104-1.477v-1.155c-.2417.349-.5775.64-1.0073.873-.4209.232-.9044.349-1.4506.349-.6268 0-1.1999-.161-1.7193-.484-.5193-.322-.9312-.774-1.2357-1.356-.2955-.591-.4432-1.267-.4432-2.028 0-.753.1477-1.42.4432-2.002.3045-.582.7119-1.03 1.2223-1.343.5194-.313 1.0969-.47 1.7327-.47zm2.4579 3.841c0-.456-.0895-.846-.2686-1.168-.1791-.331-.4208-.582-.7253-.752-.3044-.179-.6313-.269-.9805-.269s-.6716.085-.9671.255-.5372.421-.7253.752c-.1791.323-.2686.708-.2686 1.156 0 .447.0895.841.2686 1.181.1881.332.4298.587.7253.766.3045.179.6268.269.9671.269.3492 0 .6761-.085.9805-.255.3045-.18.5462-.43.7253-.753.1791-.331.2686-.725.2686-1.182zm7.8539-3.828c.8865 0 1.6029.282 2.1491.847.5462.555.8193 1.334.8193 2.337v4.365h-1.8804v-4.11c0-.591-.1477-1.043-.4432-1.357-.2955-.322-.6985-.483-1.2089-.483-.5193 0-.9312.161-1.2357.483-.2955.314-.4432.766-.4432 1.357v4.11h-1.8804v-7.441h1.8804v.927c.2507-.323.5686-.573.9536-.753.394-.188.8238-.282 1.2894-.282zm9.8107-1.826v5.802c0 .636.1656 1.124.4969 1.464.3313.331.797.497 1.3969.497.6089 0 1.079-.166 1.4103-.497.3313-.34.497-.828.497-1.464v-5.802h1.8938v5.789c0 .797-.1746 1.473-.5238 2.028-.3403.546-.8014.958-1.3834 1.236-.5731.277-1.2134.416-1.9208.416-.6984 0-1.3342-.139-1.9072-.416-.5642-.278-1.0119-.69-1.3432-1.236-.3313-.555-.497-1.231-.497-2.028v-5.789zm9.3922 3.008c.2418-.34.5731-.622.9939-.846.4298-.233.9179-.349 1.4641-.349.6357 0 1.2088.157 1.7192.47.5194.313.9268.761 1.2223 1.343.3044.573.4567 1.24.4567 2.002 0 .761-.1523 1.437-.4567 2.028-.2955.582-.7029 1.034-1.2223 1.356-.5104.323-1.0835.484-1.7192.484-.5462 0-1.0298-.112-1.4506-.336-.4119-.224-.7477-.506-1.0074-.846v4.607h-1.8804v-10.987h1.8804zm3.9354 2.62c0-.448-.094-.833-.282-1.156-.1791-.331-.4209-.582-.7253-.752-.2955-.17-.6179-.255-.9671-.255-.3403 0-.6626.09-.9671.269-.2955.17-.5372.421-.7253.752-.1791.331-.2686.721-.2686 1.168 0 .448.0895.838.2686 1.169.1881.331.4298.586.7253.766.3045.17.6268.255.9671.255.3492 0 .6716-.09.9671-.269.3044-.179.5462-.434.7253-.766.188-.331.282-.725.282-1.181z" fill="#3454d1"/><rect fill="#fff" height="47" rx="13.5184" width="315" y="140"/><path d="m23.3477 165.812c-.5138 0-.952-.177-1.3147-.529-.3525-.363-.5288-.801-.5288-1.315 0-.524.1763-.962.5288-1.314.3627-.363.8009-.544 1.3147-.544.5238 0 .967.181 1.3297.544.3626.352.544.79.544 1.314 0 .514-.1814.952-.544 1.315-.3627.352-.8059.529-1.3297.529zm6.2271 0c-.5137 0-.9519-.177-1.3146-.529-.3526-.363-.5288-.801-.5288-1.315 0-.524.1762-.962.5288-1.314.3627-.363.8009-.544 1.3146-.544.5239 0 .9671.181 1.3298.544.3626.352.5439.79.5439 1.314 0 .514-.1813.952-.5439 1.315-.3627.352-.8059.529-1.3298.529zm6.2272 0c-.5137 0-.9519-.177-1.3146-.529-.3526-.363-.5289-.801-.5289-1.315 0-.524.1763-.962.5289-1.314.3627-.363.8009-.544 1.3146-.544.5239 0 .9671.181 1.3298.544.3626.352.5439.79.5439 1.314 0 .514-.1813.952-.5439 1.315-.3627.352-.8059.529-1.3298.529zm6.2272 0c-.5137 0-.9519-.177-1.3146-.529-.3526-.363-.5289-.801-.5289-1.315 0-.524.1763-.962.5289-1.314.3627-.363.8009-.544 1.3146-.544.5238 0 .9671.181 1.3297.544.3627.352.544.79.544 1.314 0 .514-.1813.952-.544 1.315-.3626.352-.8059.529-1.3297.529zm6.2272 0c-.5138 0-.952-.177-1.3146-.529-.3526-.363-.5289-.801-.5289-1.315 0-.524.1763-.962.5289-1.314.3626-.363.8008-.544 1.3146-.544.5238 0 .9671.181 1.3297.544.3627.352.544.79.544 1.314 0 .514-.1813.952-.544 1.315-.3626.352-.8059.529-1.3297.529zm6.2272 0c-.5138 0-.952-.177-1.3146-.529-.3526-.363-.5289-.801-.5289-1.315 0-.524.1763-.962.5289-1.314.3626-.363.8008-.544 1.3146-.544.5238 0 .9671.181 1.3297.544.3627.352.544.79.544 1.314 0 .514-.1813.952-.544 1.315-.3626.352-.8059.529-1.3297.529zm6.2272 0c-.5138 0-.952-.177-1.3146-.529-.3526-.363-.5289-.801-.5289-1.315 0-.524.1763-.962.5289-1.314.3626-.363.8008-.544 1.3146-.544.5238 0 .967.181 1.3297.544.3626.352.544.79.544 1.314 0 .514-.1814.952-.544 1.315-.3627.352-.8059.529-1.3297.529zm6.2272 0c-.5138 0-.952-.177-1.3147-.529-.3525-.363-.5288-.801-.5288-1.315 0-.524.1763-.962.5288-1.314.3627-.363.8009-.544 1.3147-.544.5238 0 .967.181 1.3297.544.3626.352.544.79.544 1.314 0 .514-.1814.952-.544 1.315-.3627.352-.8059.529-1.3297.529zm6.2271 0c-.5137 0-.9519-.177-1.3146-.529-.3526-.363-.5288-.801-.5288-1.315 0-.524.1762-.962.5288-1.314.3627-.363.8009-.544 1.3146-.544.5239 0 .9671.181 1.3298.544.3626.352.5439.79.5439 1.314 0 .514-.1813.952-.5439 1.315-.3627.352-.8059.529-1.3298.529zm6.2272 0c-.5137 0-.9519-.177-1.3146-.529-.3526-.363-.5289-.801-.5289-1.315 0-.524.1763-.962.5289-1.314.3627-.363.8009-.544 1.3146-.544.5239 0 .9671.181 1.3298.544.3626.352.5439.79.5439 1.314 0 .514-.1813.952-.5439 1.315-.3627.352-.8059.529-1.3298.529zm6.2272 0c-.5137 0-.9519-.177-1.3146-.529-.3526-.363-.5289-.801-.5289-1.315 0-.524.1763-.962.5289-1.314.3627-.363.8009-.544 1.3146-.544.5238 0 .9671.181 1.3297.544.3627.352.544.79.544 1.314 0 .514-.1813.952-.544 1.315-.3626.352-.8059.529-1.3297.529zm6.2272 0c-.5138 0-.952-.177-1.3146-.529-.3526-.363-.5289-.801-.5289-1.315 0-.524.1763-.962.5289-1.314.3626-.363.8008-.544 1.3146-.544.5238 0 .9671.181 1.3297.544.3627.352.544.79.544 1.314 0 .514-.1813.952-.544 1.315-.3626.352-.8059.529-1.3297.529zm6.2272 0c-.5138 0-.952-.177-1.3146-.529-.3526-.363-.5289-.801-.5289-1.315 0-.524.1763-.962.5289-1.314.3626-.363.8008-.544 1.3146-.544.5238 0 .9671.181 1.3297.544.3627.352.544.79.544 1.314 0 .514-.1813.952-.544 1.315-.3626.352-.8059.529-1.3297.529zm6.2271 0c-.514 0-.952-.177-1.315-.529-.352-.363-.528-.801-.528-1.315 0-.524.176-.962.528-1.314.363-.363.801-.544 1.315-.544.524 0 .967.181 1.33.544.362.352.544.79.544 1.314 0 .514-.182.952-.544 1.315-.363.352-.806.529-1.33.529zm6.227 0c-.513 0-.952-.177-1.314-.529-.353-.363-.529-.801-.529-1.315 0-.524.176-.962.529-1.314.362-.363.801-.544 1.314-.544.524 0 .967.181 1.33.544.363.352.544.79.544 1.314 0 .514-.181.952-.544 1.315-.363.352-.806.529-1.33.529zm6.227 0c-.513 0-.952-.177-1.314-.529-.353-.363-.529-.801-.529-1.315 0-.524.176-.962.529-1.314.362-.363.801-.544 1.314-.544.524 0 .968.181 1.33.544.363.352.544.79.544 1.314 0 .514-.181.952-.544 1.315-.362.352-.806.529-1.33.529zm6.228 0c-.514 0-.952-.177-1.315-.529-.353-.363-.529-.801-.529-1.315 0-.524.176-.962.529-1.314.363-.363.801-.544 1.315-.544.523 0 .967.181 1.329.544.363.352.544.79.544 1.314 0 .514-.181.952-.544 1.315-.362.352-.806.529-1.329.529zm6.227 0c-.514 0-.952-.177-1.315-.529-.352-.363-.529-.801-.529-1.315 0-.524.177-.962.529-1.314.363-.363.801-.544 1.315-.544.524 0 .967.181 1.33.544.362.352.544.79.544 1.314 0 .514-.182.952-.544 1.315-.363.352-.806.529-1.33.529zm6.227 0c-.514 0-.952-.177-1.315-.529-.352-.363-.528-.801-.528-1.315 0-.524.176-.962.528-1.314.363-.363.801-.544 1.315-.544.524 0 .967.181 1.33.544.362.352.544.79.544 1.314 0 .514-.182.952-.544 1.315-.363.352-.806.529-1.33.529zm6.227 0c-.514 0-.952-.177-1.314-.529-.353-.363-.529-.801-.529-1.315 0-.524.176-.962.529-1.314.362-.363.8-.544 1.314-.544.524 0 .967.181 1.33.544.363.352.544.79.544 1.314 0 .514-.181.952-.544 1.315-.363.352-.806.529-1.33.529zm6.227 0c-.513 0-.952-.177-1.314-.529-.353-.363-.529-.801-.529-1.315 0-.524.176-.962.529-1.314.362-.363.801-.544 1.314-.544.524 0 .967.181 1.33.544.363.352.544.79.544 1.314 0 .514-.181.952-.544 1.315-.363.352-.806.529-1.33.529zm6.228 0c-.514 0-.952-.177-1.315-.529-.353-.363-.529-.801-.529-1.315 0-.524.176-.962.529-1.314.363-.363.801-.544 1.315-.544.523 0 .967.181 1.329.544.363.352.544.79.544 1.314 0 .514-.181.952-.544 1.315-.362.352-.806.529-1.329.529z" fill="#2a2a2a"/><path d="m10.098 115.216c0 .636-.15 1.236-.45 1.8s-.78 1.026-1.44 1.386c-.66.348-1.506.522-2.538.522h-2.268v5.076h-2.052v-12.51h4.32c.96 0 1.77.168 2.43.504.672.324 1.17.768 1.494 1.332.336.564.504 1.194.504 1.89zm-4.428 2.034c.78 0 1.362-.174 1.746-.522.384-.36.576-.864.576-1.512 0-1.368-.774-2.052-2.322-2.052h-2.268v4.086zm5.7011 1.746c0-.996.204-1.878.612-2.646.42-.768.984-1.362 1.692-1.782.72-.432 1.512-.648 2.376-.648.78 0 1.458.156 2.034.468.588.3 1.056.678 1.404 1.134v-1.44h2.07v9.918h-2.07v-1.476c-.348.468-.822.858-1.422 1.17s-1.284.468-2.052.468c-.852 0-1.632-.216-2.34-.648-.708-.444-1.272-1.056-1.692-1.836-.408-.792-.612-1.686-.612-2.682zm8.118.036c0-.684-.144-1.278-.432-1.782-.276-.504-.642-.888-1.098-1.152s-.948-.396-1.476-.396-1.02.132-1.476.396c-.456.252-.828.63-1.116 1.134-.276.492-.414 1.08-.414 1.764s.138 1.284.414 1.8c.288.516.66.912 1.116 1.188.468.264.96.396 1.476.396.528 0 1.02-.132 1.476-.396s.822-.648 1.098-1.152c.288-.516.432-1.116.432-1.8zm8.3652 5.13c-.78 0-1.482-.138-2.106-.414-.612-.288-1.098-.672-1.458-1.152-.36-.492-.552-1.038-.576-1.638h2.124c.036.42.234.774.594 1.062.372.276.834.414 1.386.414.576 0 1.02-.108 1.332-.324.324-.228.486-.516.486-.864 0-.372-.18-.648-.54-.828-.348-.18-.906-.378-1.674-.594-.744-.204-1.35-.402-1.818-.594s-.876-.486-1.224-.882c-.336-.396-.504-.918-.504-1.566 0-.528.156-1.008.468-1.44.312-.444.756-.792 1.332-1.044.588-.252 1.26-.378 2.016-.378 1.128 0 2.034.288 2.718.864.696.564 1.068 1.338 1.116 2.322h-2.052c-.036-.444-.216-.798-.54-1.062s-.762-.396-1.314-.396c-.54 0-.954.102-1.242.306s-.432.474-.432.81c0 .264.096.486.288.666s.426.324.702.432c.276.096.684.222 1.224.378.72.192 1.308.39 1.764.594.468.192.87.48 1.206.864s.51.894.522 1.53c0 .564-.156 1.068-.468 1.512s-.756.792-1.332 1.044c-.564.252-1.23.378-1.998.378zm9.6152 0c-.78 0-1.482-.138-2.106-.414-.612-.288-1.098-.672-1.458-1.152-.36-.492-.552-1.038-.576-1.638h2.124c.036.42.234.774.594 1.062.372.276.834.414 1.386.414.576 0 1.02-.108 1.332-.324.324-.228.486-.516.486-.864 0-.372-.18-.648-.54-.828-.348-.18-.906-.378-1.674-.594-.744-.204-1.35-.402-1.818-.594s-.876-.486-1.224-.882c-.336-.396-.504-.918-.504-1.566 0-.528.156-1.008.468-1.44.312-.444.756-.792 1.332-1.044.588-.252 1.26-.378 2.016-.378 1.128 0 2.034.288 2.718.864.696.564 1.068 1.338 1.116 2.322h-2.052c-.036-.444-.216-.798-.54-1.062s-.762-.396-1.314-.396c-.54 0-.954.102-1.242.306s-.432.474-.432.81c0 .264.096.486.288.666s.426.324.702.432c.276.096.684.222 1.224.378.72.192 1.308.39 1.764.594.468.192.87.48 1.206.864s.51.894.522 1.53c0 .564-.156 1.068-.468 1.512s-.756.792-1.332 1.044c-.564.252-1.23.378-1.998.378zm19.3353-10.08-3.078 9.918h-2.16l-1.998-7.326-1.998 7.326h-2.16l-3.096-9.918h2.088l2.07 7.974 2.106-7.974h2.142l2.016 7.938 2.052-7.938zm5.8355 10.08c-.936 0-1.782-.21-2.538-.63-.756-.432-1.35-1.032-1.782-1.8-.432-.78-.648-1.68-.648-2.7 0-1.008.222-1.902.666-2.682s1.05-1.38 1.818-1.8 1.626-.63 2.574-.63 1.806.21 2.574.63 1.374 1.02 1.818 1.8.666 1.674.666 2.682-.228 1.902-.684 2.682-1.08 1.386-1.872 1.818c-.78.42-1.644.63-2.592.63zm0-1.782c.528 0 1.02-.126 1.476-.378.468-.252.846-.63 1.134-1.134s.432-1.116.432-1.836-.138-1.326-.414-1.818c-.276-.504-.642-.882-1.098-1.134s-.948-.378-1.476-.378-1.02.126-1.476.378c-.444.252-.798.63-1.062 1.134-.264.492-.396 1.098-.396 1.818 0 1.068.27 1.896.81 2.484.552.576 1.242.864 2.07.864zm9.2285-6.858c.3-.504.696-.894 1.188-1.17.504-.288 1.098-.432 1.782-.432v2.124h-.522c-.804 0-1.416.204-1.836.612-.408.408-.612 1.116-.612 2.124v5.22h-2.052v-9.918h2.052zm4.1722 3.474c0-.996.204-1.878.612-2.646.42-.768.984-1.362 1.692-1.782.72-.432 1.518-.648 2.394-.648.648 0 1.284.144 1.908.432.636.276 1.14.648 1.512 1.116v-4.788h2.07v13.32h-2.07v-1.494c-.336.48-.804.876-1.404 1.188-.588.312-1.266.468-2.034.468-.864 0-1.656-.216-2.376-.648-.708-.444-1.272-1.056-1.692-1.836-.408-.792-.612-1.686-.612-2.682zm8.118.036c0-.684-.144-1.278-.432-1.782-.276-.504-.642-.888-1.098-1.152s-.948-.396-1.476-.396-1.02.132-1.476.396c-.456.252-.828.63-1.116 1.134-.276.492-.414 1.08-.414 1.764s.138 1.284.414 1.8c.288.516.66.912 1.116 1.188.468.264.96.396 1.476.396.528 0 1.02-.132 1.476-.396s.822-.648 1.098-1.152c.288-.516.432-1.116.432-1.8z" fill="#fff"/><rect fill="#fff" height="50" rx="13.5184" width="315" y="36"/><path d="m22.1539 57.3746c-.262 0-.4836-.0907-.6649-.272-.1713-.1813-.2569-.4029-.2569-.6649 0-.2619.0856-.4835.2569-.6648.1813-.1813.4029-.272.6649-.272.2619 0 .4785.0907.6497.272.1813.1813.272.4029.272.6648 0 .262-.0907.4836-.272.6649-.1712.1813-.3878.272-.6497.272zm.6799 11.4236c0 .7353-.1863 1.2743-.5591 1.6168-.3727.3425-.9167.5137-1.6319.5137h-.8008v-1.1635h.5742c.3828 0 .6497-.0755.8008-.2266.1612-.1511.2418-.408.2418-.7707v-10.0485h1.375zm5.9392-1.6622c-.7757 0-1.4809-.1763-2.1155-.5289-.6246-.3526-1.1182-.8512-1.4808-1.4959-.3526-.6548-.5289-1.4103-.5289-2.2666 0-.8462.1813-1.5916.544-2.2363.3727-.6548.8764-1.1535 1.511-1.496.6347-.3526 1.3449-.5289 2.1306-.5289.7858 0 1.496.1763 2.1306.5289.6346.3425 1.1333.8361 1.4959 1.4808.3728.6448.5591 1.3952.5591 2.2515s-.1914 1.6118-.5742 2.2666c-.3727.6447-.8814 1.1433-1.5261 1.4959s-1.36.5289-2.1457.5289zm0-1.2088c.4936 0 .957-.1159 1.3901-.3476.4332-.2317.7808-.5792 1.0427-1.0426.272-.4634.408-1.0275.408-1.6924s-.131-1.229-.3929-1.6924-.6044-.8059-1.0275-1.0275c-.4231-.2317-.8815-.3475-1.3751-.3475-.5037 0-.9671.1158-1.3902.3475-.413.2216-.7454.5641-.9973 1.0275-.2518.4634-.3777 1.0275-.3777 1.6924 0 .6749.1209 1.2441.3626 1.7075.2519.4634.5843.8109.9973 1.0426.4131.2216.8664.3325 1.36.3325zm10.164-7.3589c.6246 0 1.1887.136 1.6924.408.5037.2619.8966.6598 1.1786 1.1937.2922.534.4382 1.1837.4382 1.9493v4.8807h-1.3599v-4.6843c0-.826-.2065-1.4556-.6195-1.8888-.4131-.4432-.9772-.6648-1.6924-.6648-.7253 0-1.3045.2266-1.7377.6799-.4231.4534-.6347 1.1132-.6347 1.9795v4.5785h-1.375v-11.1818h1.375v4.0799c.272-.4231.6448-.7505 1.1182-.9822.4836-.2317 1.0225-.3476 1.6168-.3476zm9.5899 0c1.0074 0 1.8233.3073 2.4479.9218.6246.6044.9369 1.4808.9369 2.6292v4.8807h-1.36v-4.6843c0-.826-.2065-1.4556-.6195-1.8888-.413-.4432-.9772-.6648-1.6924-.6648-.7253 0-1.3045.2266-1.7377.6799-.4231.4534-.6346 1.1132-.6346 1.9795v4.5785h-1.3751v-8.2806h1.3751v1.1787c.2719-.4231.6396-.7505 1.103-.9822.4735-.2317.9923-.3476 1.5564-.3476zm6.0691 8.5224c-.2619 0-.4835-.0907-.6648-.272-.1814-.1814-.272-.403-.272-.6649s.0906-.4835.272-.6649c.1813-.1813.4029-.2719.6648-.2719.2519 0 .4634.0906.6347.2719.1813.1814.272.403.272.6649s-.0907.4835-.272.6649c-.1713.1813-.3828.272-.6347.272zm2.2207-4.2612c0-.8462.1712-1.5866.5137-2.2212.3425-.6448.811-1.1434 1.4053-1.496.6044-.3526 1.2794-.5289 2.0248-.5289.6447 0 1.2441.1511 1.7982.4534.554.2921.9771.6799 1.2693 1.1635v-4.3821h1.3901v11.1818h-1.3901v-1.5564c-.272.4936-.675.9016-1.2089 1.224-.5339.3123-1.1585.4684-1.8737.4684-.7354 0-1.4053-.1813-2.0097-.544-.5943-.3626-1.0628-.8714-1.4053-1.5261-.3425-.6548-.5137-1.4003-.5137-2.2364zm7.0113.0151c0-.6246-.126-1.1685-.3778-1.6319s-.5943-.816-1.0275-1.0578c-.4231-.2518-.8915-.3777-1.4053-.3777s-.9822.1209-1.4053.3626c-.4231.2418-.7605.5944-1.0124 1.0578-.2518.4634-.3777 1.0073-.3777 1.6319 0 .6346.1259 1.1887.3777 1.6622.2519.4633.5893.821 1.0124 1.0728.4231.2418.8915.3627 1.4053.3627s.9822-.1209 1.4053-.3627c.4332-.2518.7757-.6095 1.0275-1.0728.2518-.4735.3778-1.0225.3778-1.6471zm7.3253 4.2914c-.7757 0-1.4809-.1763-2.1155-.5289-.6246-.3526-1.1182-.8512-1.4808-1.4959-.3526-.6548-.5289-1.4103-.5289-2.2666 0-.8462.1813-1.5916.544-2.2363.3727-.6548.8764-1.1535 1.511-1.496.6347-.3526 1.3449-.5289 2.1306-.5289s1.4959.1763 2.1306.5289c.6346.3425 1.1333.8361 1.4959 1.4808.3727.6448.5591 1.3952.5591 2.2515s-.1914 1.6118-.5742 2.2666c-.3727.6447-.8814 1.1433-1.5261 1.4959-.6448.3526-1.36.5289-2.1457.5289zm0-1.2088c.4936 0 .957-.1159 1.3901-.3476.4332-.2317.7807-.5792 1.0427-1.0426.2719-.4634.4079-1.0275.4079-1.6924s-.1309-1.229-.3928-1.6924c-.262-.4634-.6045-.8059-1.0276-1.0275-.423-.2317-.8814-.3475-1.375-.3475-.5037 0-.9671.1158-1.3902.3475-.413.2216-.7454.5641-.9973 1.0275-.2518.4634-.3777 1.0275-.3777 1.6924 0 .6749.1208 1.2441.3626 1.7075.2519.4634.5843.8109.9973 1.0426.413.2216.8663.3325 1.36.3325zm13.6092-3.3848c0 .2619-.0151.5389-.0453.8311h-6.6184c.0503.8159.3274 1.4556.8311 1.919.5137.4533 1.1332.68 1.8586.68.5943 0 1.0879-.136 1.4808-.408.4029-.2821.685-.6548.8462-1.1182h1.4808c-.2216.7958-.6649 1.4456-1.3297 1.9493-.6649.4936-1.4909.7404-2.4781.7404-.7858 0-1.491-.1763-2.1155-.5289-.6145-.3526-1.0981-.8512-1.4506-1.4959-.3526-.6548-.5289-1.4103-.5289-2.2666s.1713-1.6067.5138-2.2515c.3425-.6447.821-1.1383 1.4355-1.4808.6245-.3526 1.3398-.5289 2.1457-.5289.7857 0 1.4808.1713 2.0852.5138s1.0678.816 1.3902 1.4204c.3324.5943.4986 1.2693.4986 2.0248zm-1.4204-.2871c0-.5238-.1158-.9721-.3475-1.3448-.2317-.3828-.549-.6699-.952-.8613-.3928-.2015-.8311-.3022-1.3146-.3022-.6951 0-1.2894.2216-1.783.6648-.4836.4433-.7606 1.0578-.8311 1.8435zm10.7907-4.9411c1.1182 0 2.0903.2115 2.9163.6346.8261.4231 1.4607 1.0174 1.904 1.783.4432.7556.6648 1.632.6648 2.6293 0 .7958-.1309 1.5614-.3928 2.2968-.262.7253-.6448 1.3146-1.1484 1.7679-.4937.4533-1.0729.68-1.7378.68-.5036 0-.8915-.1259-1.1635-.3778-.272-.2518-.4281-.5943-.4684-1.0275-.3123.4332-.7102.7757-1.1937 1.0275-.4735.2519-.9772.3778-1.5111.3778-.7656 0-1.37-.2317-1.8132-.6951-.4332-.4735-.6498-1.1081-.6498-1.9039 0-.7556.1562-1.4607.4684-2.1155.3224-.6548.7656-1.1786 1.3298-1.5715.5641-.4029 1.2038-.6044 1.919-.6044.957 0 1.6017.3626 1.9341 1.0879l.1663-.9368h1.1937l-.7555 4.3669c-.0303.1914-.0454.3677-.0454.5289 0 .6044.267.9066.8009.9066.4029 0 .7505-.1914 1.0426-.5742.3022-.3828.5289-.8613.68-1.4355.1511-.5843.2266-1.1585.2266-1.7226 0-1.3196-.3979-2.3421-1.1937-3.0674-.7857-.7253-1.8989-1.088-3.3394-1.088-1.1988 0-2.2817.2922-3.2488.8764-.957.5742-1.7075 1.365-2.2514 2.3724-.544 1.0074-.816 2.1205-.816 3.3394-.0101 1.3297.3878 2.3522 1.1937 3.0675.8059.7253 1.9241 1.0879 3.3546 1.0879.9469 0 1.783-.1712 2.5083-.5137l.1813.9368c-.8965.3727-1.8837.5591-2.9616.5591s-2.0299-.2065-2.8559-.6195c-.816-.403-1.4506-.9873-1.9039-1.7529-.4433-.7555-.6649-1.6369-.6649-2.6443 0-1.4204.3274-2.7149.9822-3.8834.6548-1.1786 1.5614-2.1054 2.7199-2.7803 1.1685-.675 2.4781-1.0124 3.9287-1.0124zm-1.7226 8.7187c.4533 0 .8714-.1309 1.2542-.3928.3828-.272.685-.6347.9066-1.088.2216-.4634.3324-.9671.3324-1.5111 0-.5238-.146-.9469-.4382-1.2692-.282-.3325-.685-.4987-1.2088-.4987-.4835 0-.9117.1461-1.2844.4382-.3626.2821-.6447.6598-.8462 1.1333-.2015.4634-.3022.9469-.3022 1.4506 0 .5339.136.957.408 1.2693s.6649.4684 1.1786.4684zm12.8848-7.4495c.715 0 1.34.1562 1.874.4685.544.3123.947.7051 1.208 1.1786v-1.5111h1.391v8.4619c0 .7556-.162 1.4255-.484 2.0097-.322.5944-.786 1.0578-1.39 1.3902-.594.3324-1.29.4986-2.085.4986-1.088 0-1.995-.2568-2.72-.7706-.726-.5138-1.154-1.2139-1.285-2.1004h1.36c.151.5037.464.9067.937 1.2089.474.3123 1.043.4684 1.708.4684.755 0 1.37-.2367 1.843-.7102.484-.4734.725-1.1383.725-1.9946v-1.7377c-.272.4836-.675.8865-1.208 1.2089-.534.3223-1.159.4835-1.874.4835-.735 0-1.405-.1813-2.01-.544-.594-.3626-1.063-.8714-1.405-1.5261-.343-.6548-.514-1.4003-.514-2.2364 0-.8462.171-1.5866.514-2.2212.342-.6448.811-1.1434 1.405-1.496.605-.3526 1.275-.5289 2.01-.5289zm3.082 4.2612c0-.6246-.125-1.1685-.377-1.6319s-.595-.816-1.028-1.0578c-.423-.2518-.891-.3777-1.405-.3777s-.982.1209-1.405.3626c-.424.2418-.761.5944-1.013 1.0578s-.378 1.0073-.378 1.6319c0 .6346.126 1.1887.378 1.6622.252.4633.589.821 1.013 1.0728.423.2418.891.3627 1.405.3627s.982-.1209 1.405-.3627c.433-.2518.776-.6095 1.028-1.0728.252-.4735.377-1.0225.377-1.6471zm13.672-4.2763c.645 0 1.219.136 1.723.408.503.2619.901.6598 1.193 1.1937.293.534.439 1.1837.439 1.9493v4.8807h-1.36v-4.6843c0-.826-.207-1.4556-.62-1.8888-.403-.4432-.952-.6648-1.647-.6648-.715 0-1.284.2317-1.707.695-.423.4534-.635 1.1132-.635 1.9795v4.5634h-1.36v-4.6843c0-.826-.206-1.4556-.619-1.8888-.403-.4432-.952-.6648-1.648-.6648-.715 0-1.284.2317-1.707.695-.423.4534-.635 1.1132-.635 1.9795v4.5634h-1.375v-8.2806h1.375v1.1938c.272-.4332.635-.7656 1.088-.9973.464-.2317.972-.3476 1.526-.3476.696 0 1.31.1562 1.844.4685.534.3122.932.7706 1.194 1.375.231-.5843.614-1.0376 1.148-1.3599.534-.3224 1.128-.4836 1.783-.4836zm5.097 4.2612c0-.8462.171-1.5866.513-2.2212.343-.6448.811-1.1434 1.406-1.496.604-.3526 1.274-.5289 2.009-.5289.726 0 1.355.1562 1.889.4685s.932.7051 1.194 1.1786v-1.5111h1.39v8.2806h-1.39v-1.5413c-.272.4836-.68.8865-1.224 1.2089-.534.3123-1.159.4684-1.874.4684-.735 0-1.4-.1813-1.994-.544-.595-.3626-1.063-.8714-1.406-1.5261-.342-.6548-.513-1.4003-.513-2.2364zm7.011.0151c0-.6246-.126-1.1685-.378-1.6319s-.594-.816-1.027-1.0578c-.424-.2518-.892-.3777-1.406-.3777s-.982.1209-1.405.3626c-.423.2418-.761.5944-1.012 1.0578-.252.4634-.378 1.0073-.378 1.6319 0 .6346.126 1.1887.378 1.6622.251.4633.589.821 1.012 1.0728.423.2418.891.3627 1.405.3627s.982-.1209 1.406-.3627c.433-.2518.775-.6095 1.027-1.0728.252-.4735.378-1.0225.378-1.6471zm4.424-5.47c-.262 0-.484-.0907-.665-.272s-.272-.4029-.272-.6649c0-.2619.091-.4835.272-.6648s.403-.272.665-.272c.252 0 .463.0907.635.272.181.1813.271.4029.271.6648 0 .262-.09.4836-.271.6649-.172.1813-.383.272-.635.272zm.665 1.3448v8.2806h-1.375v-8.2806zm3.718-2.9012v11.1818h-1.375v-11.1818zm2.782 11.2725c-.262 0-.483-.0907-.665-.272-.181-.1814-.272-.403-.272-.6649s.091-.4835.272-.6649c.182-.1813.403-.2719.665-.2719.252 0 .463.0906.635.2719.181.1814.272.403.272.6649s-.091.4835-.272.6649c-.172.1813-.383.272-.635.272zm2.221-4.2461c0-.8563.171-1.6017.513-2.2363.343-.6448.816-1.1434 1.421-1.496.614-.3526 1.314-.5289 2.1-.5289 1.018 0 1.854.2468 2.509.7405.664.4936 1.103 1.1786 1.314 2.055h-1.481c-.141-.5037-.418-.9016-.831-1.1937-.403-.2922-.906-.4382-1.511-.4382-.786 0-1.42.2719-1.904.8159-.483.5339-.725 1.2945-.725 2.2817 0 .9973.242 1.7679.725 2.3119.484.544 1.118.816 1.904.816.605 0 1.108-.141 1.511-.4231s.68-.685.831-1.2089h1.481c-.221.8462-.665 1.5262-1.33 2.04-.664.5037-1.495.7555-2.493.7555-.786 0-1.486-.1763-2.1-.5289-.605-.3526-1.078-.8512-1.421-1.4959-.342-.6447-.513-1.4003-.513-2.2666zm13.303 4.2914c-.775 0-1.48-.1763-2.115-.5289-.625-.3526-1.118-.8512-1.481-1.4959-.353-.6548-.529-1.4103-.529-2.2666 0-.8462.182-1.5916.544-2.2363.373-.6548.877-1.1535 1.511-1.496.635-.3526 1.345-.5289 2.131-.5289s1.496.1763 2.13.5289c.635.3425 1.134.8361 1.496 1.4808.373.6448.559 1.3952.559 2.2515s-.191 1.6118-.574 2.2666c-.372.6447-.881 1.1433-1.526 1.4959s-1.36.5289-2.146.5289zm0-1.2088c.494 0 .957-.1159 1.391-.3476.433-.2317.78-.5792 1.042-1.0426.272-.4634.408-1.0275.408-1.6924s-.131-1.229-.393-1.6924-.604-.8059-1.027-1.0275c-.423-.2317-.882-.3475-1.375-.3475-.504 0-.967.1158-1.39.3475-.413.2216-.746.5641-.998 1.0275s-.378 1.0275-.378 1.6924c0 .6749.121 1.2441.363 1.7075.252.4634.584.8109.997 1.0426.413.2216.867.3325 1.36.3325zm16.012-7.3589c.645 0 1.219.136 1.723.408.503.2619.901.6598 1.194 1.1937.292.534.438 1.1837.438 1.9493v4.8807h-1.36v-4.6843c0-.826-.207-1.4556-.62-1.8888-.403-.4432-.952-.6648-1.647-.6648-.715 0-1.284.2317-1.707.695-.423.4534-.635 1.1132-.635 1.9795v4.5634h-1.36v-4.6843c0-.826-.206-1.4556-.619-1.8888-.403-.4432-.952-.6648-1.647-.6648-.716 0-1.285.2317-1.708.695-.423.4534-.635 1.1132-.635 1.9795v4.5634h-1.375v-8.2806h1.375v1.1938c.272-.4332.635-.7656 1.088-.9973.464-.2317.972-.3476 1.527-.3476.695 0 1.309.1562 1.843.4685.534.3122.932.7706 1.194 1.375.231-.5843.614-1.0376 1.148-1.3599.534-.3224 1.128-.4836 1.783-.4836z" fill="#2a2a2a"/><path d="m3.402 9.146v3.672h4.32v1.674h-4.32v3.834h4.86v1.674h-6.912v-12.528h6.912v1.674zm19.3935.774c.78 0 1.476.162 2.088.486.624.324 1.11.804 1.458 1.44.36.636.54 1.404.54 2.304v5.85h-2.034v-5.544c0-.888-.222-1.566-.666-2.034-.444-.48-1.05-.72-1.818-.72s-1.38.24-1.836.72c-.444.468-.666 1.146-.666 2.034v5.544h-2.034v-5.544c0-.888-.222-1.566-.666-2.034-.444-.48-1.05-.72-1.818-.72s-1.38.24-1.836.72c-.444.468-.666 1.146-.666 2.034v5.544h-2.052v-9.918h2.052v1.134c.336-.408.762-.726 1.278-.954s1.068-.342 1.656-.342c.792 0 1.5.168 2.124.504s1.104.822 1.44 1.458c.3-.6.768-1.074 1.404-1.422.636-.36 1.32-.54 2.052-.54zm6.0131 5.076c0-.996.204-1.878.612-2.646.42-.768.984-1.362 1.692-1.782.72-.432 1.512-.648 2.376-.648.78 0 1.458.156 2.034.468.588.3 1.056.678 1.404 1.134v-1.44h2.07v9.918h-2.07v-1.476c-.348.468-.822.858-1.422 1.17s-1.284.468-2.052.468c-.852 0-1.632-.216-2.34-.648-.708-.444-1.272-1.056-1.692-1.836-.408-.792-.612-1.686-.612-2.682zm8.118.036c0-.684-.144-1.278-.432-1.782-.276-.504-.642-.888-1.098-1.152s-.948-.396-1.476-.396-1.02.132-1.476.396c-.456.252-.828.63-1.116 1.134-.276.492-.414 1.08-.414 1.764s.138 1.284.414 1.8c.288.516.66.912 1.116 1.188.468.264.96.396 1.476.396.528 0 1.02-.132 1.476-.396s.822-.648 1.098-1.152c.288-.516.432-1.116.432-1.8zm5.8092-6.264c-.372 0-.684-.126-.936-.378s-.378-.564-.378-.936.126-.684.378-.936.564-.378.936-.378c.36 0 .666.126.918.378s.378.564.378.936-.126.684-.378.936-.558.378-.918.378zm1.008 1.314v9.918h-2.052v-9.918zm4.7461-3.402v13.32h-2.052v-13.32z" fill="#fff"/></svg>