<svg fill="none" height="250" viewBox="0 0 1200 250" width="1200" xmlns="http://www.w3.org/2000/svg" xmlns:xlink="http://www.w3.org/1999/xlink"><clipPath id="a"><path d="m0 0h1200v250h-1200z"/></clipPath><g clip-path="url(#a)"><path d="m0 0h1200v250h-1200z" fill="#f7f7ff"/><circle cx="909.5" cy="37.5" fill="#fff" r="8.5"/><g fill="#eeebff"><path d="m19.5 136.5c18 3.086 26 18 31.2484 28.927 1.9564 4.073 6.909 12.399 13.2516 18.573 7.1915 7 17.0826 4.222 21.0352 4.103 19.9648-2.103 37.9648-5.103 64.9648 8.397 14 7 29.525 25.723 30.214 54.223.276 11.397-3.812 21.308-8.5 29.5-1.654 3.324-8 12-12 15-8 7-15.206 10.046-24.214 12.777-13.329 4.037-38.515 5.12-52.1194 2.983-28.4957-4.393-55.7963-19.471-76.01907-46.184-12.40941-16.384-33.69923-51.756-35.26193-74.788-2.0223-29.444 12.4004-59.511 47.4004-53.511z"/><path d="m1034.67-22.7368c-6.98 7.0069-5.84 16.09953-4.73 22.569169.42 2.411501.84 7.640311-.02 12.354631-.98 5.3454-6.22 7.2209-8 8.408-9.47 5.3323-18.36 9.6528-26.048 24.0793-3.985 7.4805-4.967 20.6141 3.666 33.4118 3.452 5.1179 8.362 8.211 13.002 10.3572 1.77.9487 7.3 2.7887 10 2.8586 5.73.5815 9.87-.3333 14.7-1.9528 7.15-2.3978 18.61-9.818 23.94-15.0276 11.2-10.8753 18.53-26.0928 19.08-44.227.34-11.1242-1.36-33.41567-7.89-44.0735-8.34-13.6321-24.13-22.3824-37.7-8.7578z"/><path d="m1159.39 422.683c16.23-15.641 14.04-36.411 11.81-51.204-.83-5.513-1.55-17.447.63-28.148 2.49-12.134 14.51-16.163 18.62-18.785 21.83-11.709 42.28-21.14 60.47-53.653 9.42-16.858 12.27-46.737-6.8-76.298-7.63-11.821-18.68-19.097-29.15-24.203-3.99-2.244-16.49-6.694-22.65-6.979-13.02-1.591-22.49.301-33.58 3.766-16.4 5.131-42.85 21.505-55.25 33.126-26.03 24.258-43.43 58.59-45.52 99.883-1.3 25.33 1.53 76.199 15.92 100.787 18.37 31.448 53.95 52.12 85.5 21.708z"/><circle cx="193" cy="140" r="5"/></g><rect fill="#ff864b" height="17.6992" rx="4" transform="matrix(.909237 -.416279 .430575 .902555 1045 180.393)" width="17.7586"/><rect fill="#fff" height="25.5608" rx="5.30514" transform="matrix(.312417 -.949945 .954757 .297388 156 219.363)" width="25.6466"/><path d="m1140.61 133.804-3.3 8.307" stroke="#5c3bfe" stroke-linecap="round" stroke-linejoin="round" stroke-miterlimit="10" stroke-width="1.83796"/><path d="m1143.11 139.61-8.31-3.305" stroke="#5c3bfe" stroke-linecap="round" stroke-linejoin="round" stroke-miterlimit="10" stroke-width="1.83796"/><path d="m66.8948 64.05 15.0263 4.7136" stroke="#ff864b" stroke-linecap="round" stroke-linejoin="round" stroke-miterlimit="10" stroke-width="3.23764"/><path d="m76.7646 58.8945-4.7136 15.0263" stroke="#ff864b" stroke-linecap="round" stroke-linejoin="round" stroke-miterlimit="10" stroke-width="3.23764"/></g></svg>