<svg fill="none" height="60" viewBox="0 0 159 60" width="159" xmlns="http://www.w3.org/2000/svg"><path d="m5.80592 43.1083c-2.27185-13.1549 34.54558-34.45671 83.46398-37.15931 48.9181-2.7026 62.5741 7.30881 64.8461 20.46371s-23.077 25.3213-56.619 27.1744c-33.5419 1.8531-89.41924 2.6761-91.69108-10.4788z" fill="#ded8ff"/><path d="m11.0904 38.3782c.3058-3.711 2.8547-7.8921 7.3281-12.0955 4.461-4.1917 10.7748-8.3462 18.4691-12.0006 15.3866-7.30803 36.2246-12.58339 58.619-12.18439 22.4474.39995 36.0234 3.80756 43.8204 8.99079 3.889 2.5852 6.337 5.6103 7.74 8.929 1.405 3.3221 1.774 6.9671 1.458 10.8093-.62 7.5125-7.219 14.336-17.681 19.2396-10.432 4.89-24.562 7.7923-39.9102 7.5189-15.4024-.2745-35.7681-1.3031-52.1131-4.2065-8.1774-1.4525-15.312-3.3683-20.311-5.8741-5.0313-2.5219-7.7147-5.5417-7.4193-9.1265z" stroke="#5c3bfe"/></svg>