<svg fill="none" height="60" viewBox="0 0 97 60" width="97" xmlns="http://www.w3.org/2000/svg"><path d="m5.46554 45.7454c-2.22916-11.6726 18.30786-33.1473 47.29676-38.68348 28.989-5.53615 37.7973 2.58927 40.0265 14.26188 2.2291 11.6725-12.0771 24.2122-31.9539 28.0082-19.8769 3.796-53.14019 8.0859-55.36936-3.5866z" fill="#ded8ff"/><path d="m3.31272 34.43c.18249-3.2384 1.74341-6.817 4.45708-10.3572 2.7098-3.5351 6.5465-7.0014 11.2231-10.0095 9.3542-6.01681 22.0219-10.17066 35.6368-9.40344 13.6811.77095 21.9065 3.96962 26.6222 8.55354 4.6985 4.5672 6.0008 10.5977 5.6252 17.2632-.3687 6.5417-4.4058 12.3021-10.7279 16.3126-6.3213 4.01-14.8931 6.2431-24.2158 5.7177-9.4041-.5299-21.8234-1.8066-31.7842-4.6238-4.9841-1.4097-9.3117-3.1942-12.33607-5.4349-3.0169-2.2352-4.67759-4.8741-4.50041-8.0182z" stroke="#5c3bfe"/></svg>