<svg fill="none" height="35" viewBox="0 0 20 35" width="20" xmlns="http://www.w3.org/2000/svg"><g fill="#5c3bfe" stroke="#5c3bfe" stroke-width="2"><path d="m9.99999 26.2061-7.89359-11.7556-.00609-.0111c-.70378-1.2896-1.10031-2.7719-1.10031-4.3557 0-5.02234 4.03959-9.0837 8.99999-9.0837 4.96041 0 9.00001 4.06136 9.00001 9.0837 0 1.5838-.3965 3.0661-1.1003 4.3557l-.0061.0111z"/><path d="m14.8672 32.5c0 .0068-.0006.0264-.0199.066-.021.0431-.065.1108-.1524.1977-.1804.1792-.4923.3865-.9578.5821-.9269.3895-2.2769.6542-3.82009.6542-1.54316 0-2.89315-.2647-3.82009-.6542-.46553-.1956-.77738-.4029-.95778-.5821-.08738-.0868-.13141-.1546-.15242-.1977-.01929-.0396-.01992-.0592-.01992-.066s.00063-.0264.01992-.066c.02101-.0431.06504-.1109.15242-.1977.1804-.1792.49225-.3865.95778-.5821.92694-.3895 2.27693-.6542 3.82009-.6542 1.54319 0 2.89319.2647 3.82009.6542.4655.1956.7774.4029.9578.5821.0874.0869.1314.1546.1524.1977.0193.0396.0199.0592.0199.066z"/></g></svg>