<svg fill="none" height="548" viewBox="0 0 437 548" width="437" xmlns="http://www.w3.org/2000/svg" xmlns:xlink="http://www.w3.org/1999/xlink"><clipPath id="a"><path d="m323 221.058h55.4921v55.4921h-55.4921z"/></clipPath><g stroke="#000"><path d="m261.275 444.109h-45.658c-8.836 0-16-7.164-16-16v-96.326c0-8.836-7.163-16-16-16h-63.384"/><path d="m262.431 55.4922h-47.006c-8.837 0-16 7.1634-16 16v96.3258c0 8.836-7.164 16-16 16h-63.77"/><path d="m250.5 252.325h-24.5-26.575-79.77"/><rect height="174.725" rx="9.5" transform="matrix(0 -1 1 0 -239.638 763.188)" width="114.608" x="261.775" y="501.413"/><rect height="174.725" rx="9.5" transform="matrix(0 -1 1 0 -47.334 570.884)" width="114.608" x="261.775" y="309.109"/></g><circle cx="80.9259" cy="245.379" fill="#5c3bfe" r="80.9259" transform="matrix(0 -1 1 0 -164.4531 326.3049)"/><path d="m68.5405 224.4h1.566v12.6h-1.26v-10.692l-4.41 7.38h-.18l-4.41-7.38v10.692h-1.26v-12.6h1.566l4.194 7.02zm4.2625 8.316v-8.316h1.26v8.316c0 1.02.3 1.824.9 2.412.612.576 1.452.864 2.52.864s1.902-.288 2.502-.864c.612-.588.918-1.392.918-2.412v-8.316h1.26v8.316c0 1.368-.432 2.46-1.296 3.276-.876.816-2.004 1.224-3.384 1.224s-2.508-.408-3.384-1.224c-.864-.816-1.296-1.908-1.296-3.276zm13.3228-8.316v11.412h5.76v1.188h-7.02v-12.6zm5.2186 0h8.9996v1.188h-3.8696v11.412h-1.26v-11.412h-3.87zm10.8006 12.6v-12.6h1.26v12.6zm-64.2392 13.4h4.5c1.128 0 2.07.378 2.826 1.134s1.134 1.698 1.134 2.826-.378 2.07-1.134 2.826-1.698 1.134-2.826 1.134h-3.24v4.68h-1.26zm1.26 6.732h3.24c.78 0 1.422-.258 1.926-.774.516-.516.774-1.182.774-1.998 0-.804-.258-1.464-.774-1.98-.504-.528-1.146-.792-1.926-.792h-3.24zm10.6172-6.732v11.412h5.76v1.188h-7.02v-12.6zm17.6358 12.6h-1.332l-1.17-3.096h-5.976l-1.17 3.096h-1.332l4.842-12.6h1.296zm-5.49-11.034-2.538 6.75h5.076zm5.1314-1.566h9v1.188h-3.87v11.412h-1.26v-11.412h-3.87zm17.9107 0v1.188h-5.85v4.644h5.58v1.188h-5.58v5.58h-1.26v-12.6zm12.5757 10.926c-1.26 1.26-2.802 1.89-4.626 1.89s-3.366-.63-4.626-1.89c-1.26-1.284-1.89-2.826-1.89-4.626 0-1.812.63-3.348 1.89-4.608 1.26-1.272 2.802-1.908 4.626-1.908s3.366.636 4.626 1.908c1.26 1.26 1.89 2.796 1.89 4.608 0 1.8-.63 3.342-1.89 4.626zm-9.882-4.626c0 1.488.504 2.742 1.512 3.762s2.256 1.53 3.744 1.53 2.736-.51 3.744-1.53 1.512-2.274 1.512-3.762c0-1.476-.504-2.724-1.512-3.744-1.008-1.032-2.256-1.548-3.744-1.548s-2.736.516-3.744 1.548c-1.008 1.02-1.512 2.268-1.512 3.744zm23.1064 6.3h-1.44l-2.952-5.04h-3.528v5.04h-1.26v-12.6h5.04c1.032 0 1.92.372 2.664 1.116s1.116 1.632 1.116 2.664c0 .864-.258 1.626-.774 2.286-.492.648-1.14 1.092-1.944 1.332zm-4.14-11.412h-3.78v5.184h3.78c.696 0 1.29-.252 1.782-.756.492-.528.738-1.14.738-1.836 0-.708-.246-1.32-.738-1.836-.492-.504-1.086-.756-1.782-.756zm15.901-1.188h1.566v12.6h-1.26v-10.692l-4.41 7.38h-.18l-4.41-7.38v10.692h-1.26v-12.6h1.566l4.194 7.02z" fill="#fff"/><path d="m332.523 527.4v11.7h5.94v.9h-6.894v-12.6zm7.473.702c-.012-.288.102-.486.342-.594.252-.12.498-.12.738 0 .252.108.372.306.36.594.012.3-.108.51-.36.63-.24.12-.486.12-.738 0-.24-.12-.354-.33-.342-.63zm1.17 11.898h-.9v-9h.9zm6.896-9.198c1.068 0 1.914.33 2.538.99.636.648.954 1.518.954 2.61v5.598h-.918v-5.598c0-.84-.234-1.506-.702-1.998s-1.116-.738-1.944-.738c-.948 0-1.71.312-2.286.936s-.864 1.506-.864 2.646v4.752h-.9v-9h.9v1.71c.648-1.272 1.722-1.908 3.222-1.908zm12.518 4.95v-4.752h.9v9h-.9v-1.71c-.648 1.272-1.722 1.908-3.222 1.908-1.068 0-1.92-.324-2.556-.972-.624-.66-.936-1.536-.936-2.628v-5.598h.918v5.598c0 .84.234 1.506.702 1.998s1.116.738 1.944.738c.948 0 1.71-.312 2.286-.936s.864-1.506.864-2.646zm7.406-.396 3.582 4.644h-1.098l-3.042-3.924-3.042 3.924h-1.098l3.6-4.626-3.384-4.374h1.098l2.826 3.654 2.844-3.654h1.08z" fill="#808080"/><path d="m331.148 338.802c.996 0 1.788.312 2.376.936.6.612.9 1.464.9 2.556v5.706h-.9v-5.706c0-.828-.216-1.47-.648-1.926-.432-.468-1.014-.702-1.746-.702-.828 0-1.488.282-1.98.846-.48.564-.72 1.386-.72 2.466v5.022h-.9v-5.706c0-.828-.204-1.47-.612-1.926-.408-.468-.972-.702-1.692-.702-.828 0-1.5.288-2.016.864s-.774 1.392-.774 2.448v5.022h-.9v-9h.9v1.548c.624-1.164 1.59-1.746 2.898-1.746.66 0 1.236.162 1.728.486.492.312.852.762 1.08 1.35.312-.6.732-1.056 1.26-1.368s1.11-.468 1.746-.468zm13.742 2.232v-2.034h.918v9h-.918v-2.034c-.396.696-.93 1.242-1.602 1.638s-1.428.594-2.268.594c-1.272 0-2.37-.45-3.294-1.35-.912-.912-1.368-2.028-1.368-3.348s.456-2.43 1.368-3.33c.912-.912 2.01-1.368 3.294-1.368.84 0 1.596.198 2.268.594s1.206.942 1.602 1.638zm-6.516 5.184c.744.744 1.65 1.116 2.718 1.116 1.056 0 1.956-.372 2.7-1.116.732-.732 1.098-1.638 1.098-2.718s-.366-1.986-1.098-2.718c-.744-.744-1.644-1.116-2.7-1.116-1.068 0-1.974.372-2.718 1.116-.732.732-1.098 1.638-1.098 2.718s.366 1.986 1.098 2.718zm14.32 1.98c-1.356 0-2.484-.45-3.384-1.35s-1.35-2.016-1.35-3.348.45-2.448 1.35-3.348 2.028-1.35 3.384-1.35c.876 0 1.668.21 2.376.63.708.408 1.224.966 1.548 1.674l-.738.432c-.264-.576-.684-1.032-1.26-1.368-.564-.336-1.206-.504-1.926-.504-1.068 0-1.974.372-2.718 1.116-.732.732-1.098 1.638-1.098 2.718 0 1.092.366 2.004 1.098 2.736s1.638 1.098 2.718 1.098c.72 0 1.362-.168 1.926-.504.576-.336 1.014-.792 1.314-1.368l.756.45c-.36.696-.9 1.254-1.62 1.674-.72.408-1.512.612-2.376.612zm16.533-1.89c-1.26 1.26-2.796 1.89-4.608 1.89s-3.348-.63-4.608-1.89c-1.26-1.272-1.89-2.808-1.89-4.608s.63-3.33 1.89-4.59c1.26-1.272 2.796-1.908 4.608-1.908s3.348.636 4.608 1.908c1.26 1.26 1.89 2.79 1.89 4.59s-.63 3.336-1.89 4.608zm-8.55-.648c1.08 1.08 2.394 1.62 3.942 1.62 1.56 0 2.868-.54 3.924-1.62 1.08-1.104 1.62-2.424 1.62-3.96 0-1.548-.54-2.862-1.62-3.942-1.056-1.092-2.364-1.638-3.924-1.638-1.548 0-2.862.546-3.942 1.638-1.068 1.092-1.602 2.406-1.602 3.942s.534 2.856 1.602 3.96zm16.255 2.538c-1.152 0-2.136-.264-2.952-.792-.816-.54-1.368-1.266-1.656-2.178l.828-.486c.228.792.666 1.416 1.314 1.872.648.444 1.47.666 2.466.666s1.77-.228 2.322-.684c.564-.456.846-1.068.846-1.836 0-.684-.264-1.218-.792-1.602-.504-.36-1.326-.726-2.466-1.098l-.9-.288-.792-.306c-.372-.156-.63-.282-.774-.378-.576-.36-.948-.684-1.116-.972-.276-.48-.414-.99-.414-1.53 0-1.02.36-1.836 1.08-2.448.732-.624 1.644-.936 2.736-.936.96 0 1.788.24 2.484.72.708.48 1.23 1.122 1.566 1.926l-.81.45c-.588-1.452-1.668-2.178-3.24-2.178-.852 0-1.542.228-2.07.684-.516.444-.774 1.026-.774 1.746 0 .684.24 1.194.72 1.53s1.266.684 2.358 1.044c.708.24 1.248.438 1.62.594.408.168.828.39 1.26.666.864.528 1.296 1.314 1.296 2.358s-.378 1.884-1.134 2.52c-.744.624-1.746.936-3.006.936z" fill="#808080"/><path d="m318.818 154h-1.152l-3.654-12.6h1.008l3.258 11.322 3.51-11.322h1.134l3.528 11.322 3.24-11.322h1.008l-3.654 12.6h-1.152l-3.528-11.358zm13.241-11.898c-.012-.288.102-.486.342-.594.252-.12.498-.12.738 0 .252.108.372.306.36.594.012.3-.108.51-.36.63-.24.12-.486.12-.738 0-.24-.12-.354-.33-.342-.63zm1.17 11.898h-.9v-9h.9zm6.896-9.198c1.068 0 1.914.33 2.538.99.636.648.954 1.518.954 2.61v5.598h-.918v-5.598c0-.84-.234-1.506-.702-1.998s-1.116-.738-1.944-.738c-.948 0-1.71.312-2.286.936s-.864 1.506-.864 2.646v4.752h-.9v-9h.9v1.71c.648-1.272 1.722-1.908 3.222-1.908zm13.976 2.286v-5.688h.9v12.6h-.9v-2.088c-.372.72-.9 1.284-1.584 1.692-.672.396-1.434.594-2.286.594-1.284 0-2.388-.45-3.312-1.35-.9-.912-1.35-2.028-1.35-3.348s.45-2.43 1.35-3.33c.912-.912 2.016-1.368 3.312-1.368.852 0 1.614.204 2.286.612.684.396 1.212.954 1.584 1.674zm-6.534 5.13c.744.744 1.65 1.116 2.718 1.116 1.056 0 1.956-.372 2.7-1.116s1.116-1.65 1.116-2.718-.372-1.974-1.116-2.718-1.644-1.116-2.7-1.116c-1.068 0-1.974.372-2.718 1.116-.732.732-1.098 1.638-1.098 2.718s.366 1.986 1.098 2.718zm14.32 1.98c-1.32 0-2.442-.45-3.366-1.35-.912-.912-1.368-2.028-1.368-3.348s.456-2.43 1.368-3.33c.912-.912 2.034-1.368 3.366-1.368 1.308 0 2.418.456 3.33 1.368.924.9 1.386 2.01 1.386 3.33 0 1.308-.462 2.424-1.386 3.348-.924.9-2.034 1.35-3.33 1.35zm-2.718-1.98c.744.744 1.65 1.116 2.718 1.116 1.056 0 1.956-.372 2.7-1.116.732-.732 1.098-1.638 1.098-2.718s-.366-1.986-1.098-2.718c-.744-.744-1.644-1.116-2.7-1.116-1.068 0-1.974.372-2.718 1.116-.732.732-1.098 1.638-1.098 2.718s.366 1.986 1.098 2.718zm17.78.612 2.394-7.83h.954l-2.844 9h-.99l-2.502-7.668-2.502 7.668h-.99l-2.844-9h.954l2.394 7.83 2.52-7.83h.936zm5.387-5.472c0 .756.642 1.296 1.926 1.62.372.084.642.15.81.198.18.036.438.108.774.216.348.096.606.204.774.324.18.12.372.27.576.45.216.18.366.396.45.648.096.24.144.516.144.828 0 .756-.3 1.374-.9 1.854-.588.468-1.362.702-2.322.702-.852 0-1.578-.18-2.178-.54s-1.014-.846-1.242-1.458l.774-.45c.168.504.48.894.936 1.17.468.276 1.038.414 1.71.414.696 0 1.254-.15 1.674-.45.432-.3.648-.714.648-1.242 0-.816-.642-1.362-1.926-1.638-1.2-.288-2.004-.552-2.412-.792-.744-.432-1.116-1.05-1.116-1.854 0-.72.282-1.326.846-1.818.588-.492 1.326-.738 2.214-.738.708 0 1.332.162 1.872.486s.936.762 1.188 1.314l-.756.432c-.18-.432-.48-.768-.9-1.008-.408-.24-.876-.36-1.404-.36-.624 0-1.14.156-1.548.468s-.612.72-.612 1.224z" fill="#808080"/><rect height="174.725" rx="9.5" stroke="#000" transform="matrix(0 -1 1 0 146.667 376.883)" width="114.608" x="261.775" y="115.108"/><g clip-path="url(#a)" opacity=".5"><path d="m365.851 250.541c0-4.706 2.514-8.729 6.082-10.421-.993-1.299-2.325-2.52-4.118-3.796-2.319-1.654-7.458-1.842-10.826-.982-2.558.649-4.739 1.903-5.904 1.959-1.055.055-3.319-1.354-5.905-1.959-3.118-.733-6.52-.322-8.856.982-6.793 3.796-7.88 7.674-7.88 15.688 0 9.233 3.346 17.063 10.826 22.557 1.643 1.204 4.595 1.915 6.892.982 1.976-.804 3.03-1.787 4.923-1.959 2.763-.249 4.051.677 5.382 1.504 1.21.749 4.001 1.354 5.444.461 5.055-3.13 9.034-8.246 11.137-14.151-4.15-1.331-7.197-5.688-7.197-10.865zm-5.91-21.081c2.009-3.152 2.015-7.864 1.97-7.847-.832.277-3.64-.377-7.874 2.941-1.476 1.16-3.291 4.012-3.94 5.882-.494 1.421-.977 4.9-.988 4.906-.05.005 3.246-.178 4.922-.983 1.72-.821 4.612-2.857 5.91-4.899z" fill="#5c3bfe"/></g><circle cx="261.275" cy="444.109" fill="#5c3bfe" r="19.6534" transform="matrix(0 -1 1 0 -182.834 705.384)"/><circle cx="261.275" cy="251.804" fill="#5c3bfe" r="19.6534" transform="matrix(0 -1 1 0 9.471 513.079)"/><path clip-rule="evenodd" d="m271.157 438.513-11.969 11.969-7.795-7.795.818-.817 6.977 6.977 11.152-11.152z" fill="#fff" fill-rule="evenodd"/><path clip-rule="evenodd" d="m271.157 246.208-11.969 11.97-7.795-7.795.818-.818 6.977 6.978 11.152-11.152z" fill="#fff" fill-rule="evenodd"/><circle cx="261.275" cy="55.4921" fill="#5c3bfe" r="19.6534" transform="matrix(0 -1 1 0 205.7829 316.7671)"/><path clip-rule="evenodd" d="m271.157 49.8958-11.969 11.9696-7.795-7.7948.818-.8175 6.977 6.9774 11.152-11.1521z" fill="#fff" fill-rule="evenodd"/><path d="m326 38.125v15.3125h21.438v-17.9922z" fill="#5c3bfe" opacity=".5"/><path d="m350.5 35.0625v18.375h24.5v-21.4375z" fill="#5c3bfe" opacity=".5"/><path d="m350.5 56.5v18.375l24.5 3.0625v-21.4375z" fill="#5c3bfe" opacity=".5"/><path d="m326 56.5v15.3125l21.438 2.6797v-17.9922z" fill="#5c3bfe" opacity=".5"/><path d="m373.998 461.569c-1.701-.696-2.428-1.621-2.358-3 .073-1.61-.841-2.789-1.275-3.255.262-1.001 1.028-4.464.001-7.472-1.104-3.219-4.473-8.136-7.95-12.97-1.424-1.985-1.491-4.142-1.569-6.641-.074-2.383-.158-5.084-1.487-8.087-1.445-3.269-4.344-5.144-7.955-5.144-2.148 0-4.353.671-6.049 1.842-3.475 2.397-3.015 7.625-2.712 11.084.042.474.081.922.104 1.304.202 3.388.018 5.173-.222 5.716-.156.355-.923 1.364-1.734 2.433-.84 1.105-1.791 2.358-2.571 3.525-.93 1.405-1.681 3.552-2.408 5.629-.531 1.519-1.033 2.954-1.522 3.812-.926 1.65-.696 3.188-.504 3.899-.35.244-.857.723-1.284 1.627-.517 1.103-1.566 1.696-3.747 2.115-1.002.205-1.693.627-2.054 1.253-.526.911-.24 2.056.021 2.838.386 1.15.146 1.878-.291 3.2-.101.305-.216.65-.331 1.031-.183.601-.117 1.148.195 1.624.823 1.26 3.227 1.704 5.701 1.996 1.477.175 3.094.766 4.657 1.338 1.533.559 3.117 1.138 4.557 1.314.219.028.436.042.645.042 2.174 0 3.156-1.443 3.468-2.036.781-.159 3.475-.67 6.251-.738 2.772-.079 5.454.468 6.213.638.239.457.869 1.502 1.872 2.04.552.301 1.32.474 2.106.474.84 0 2.438-.199 3.702-1.529 1.261-1.336 4.412-3.042 6.713-4.288.514-.278.994-.538 1.415-.773 1.293-.717 1.998-1.741 1.935-2.809-.052-.888-.64-1.666-1.533-2.032zm-28.614-.257c-.161-1.134-1.619-2.258-3.307-3.559-1.381-1.064-2.946-2.271-3.377-3.292-.891-2.108-.189-5.813 1.036-7.721.605-.956 1.099-2.405 1.577-3.806.516-1.513 1.05-3.077 1.647-3.762.945-1.069 1.819-3.149 1.974-4.788.885.845 2.258 1.917 3.527 1.917.195 0 .385-.026.566-.077.868-.25 2.144-.988 3.379-1.701 1.064-.615 2.377-1.373 2.871-1.442.847 1.215 5.767 12.104 6.27 15.601.398 2.767-.023 5.055-.234 5.951-.17-.024-.373-.043-.586-.043-1.37 0-1.733.749-1.827 1.195-.243 1.161-.269 4.872-.272 5.706-.495.629-3.002 3.595-6.6 4.128-1.465.213-2.834.321-4.067.321-1.055 0-1.727-.082-2.007-.124l-1.808-2.069c.713-.352 1.426-1.095 1.238-2.435zm2.294-34.113c-.056.024-.112.05-.166.078-.006-.122-.019-.247-.038-.371-.198-1.136-.951-1.961-1.791-1.961-.062 0-.125.005-.194.015-.5.083-.892.459-1.107.991.189-1.168.851-2.033 1.636-2.033.922 0 1.702 1.243 1.702 2.714 0 .185-.014.37-.042.567zm7.167.876c.084-.269.13-.56.13-.862 0-1.334-.846-2.379-1.927-2.379-1.055 0-1.914 1.067-1.914 2.379 0 .09.004.179.012.268-.056-.021-.11-.042-.163-.062-.122-.368-.183-.752-.183-1.144 0-1.595 1.019-2.893 2.272-2.893s2.273 1.298 2.273 2.893c0 .664-.184 1.297-.5 1.8zm-.924 3.104c-.018.081-.057.117-.481.338-.215.111-.482.25-.816.454l-.223.135c-.898.544-2.998 1.818-3.569 1.892-.387.053-.627-.098-1.165-.464-.122-.082-.251-.17-.389-.259-.971-.637-1.596-1.339-1.666-1.613.316-.245 1.101-.858 1.503-1.22.815-.759 1.636-1.268 2.042-1.268.022 0 .041.001.061.005.478.084 1.655.554 2.515.897.397.159.741.296.982.383.761.261 1.158.595 1.206.72zm6.836 35.441c.429-1.936.923-4.57.843-6.122-.018-.353-.049-.737-.08-1.108-.056-.694-.14-1.726-.053-2.032.017-.008.036-.015.057-.021.003.888.196 2.659 1.612 3.276.422.184.904.277 1.434.277 1.418 0 2.992-.695 3.636-1.34.38-.38.699-.844.923-1.212.049.143.079.331.063.572-.084 1.309.552 3.046 1.763 3.686l.176.093c.432.226 1.577.827 1.596 1.113-.001 0-.01.033-.074.093-.287.262-1.297.778-2.274 1.276-1.732.885-3.696 1.888-4.578 2.815-1.242 1.307-2.646 2.185-3.494 2.185-.103 0-.196-.013-.278-.039-.921-.287-1.68-1.616-1.272-3.512zm-31.399-4.939c-.094-.439-.168-.787-.088-1.123.058-.249 1.288-.516 1.813-.63.738-.16 1.502-.326 2.001-.629.676-.409 1.041-1.163 1.364-1.829.233-.481.474-.979.761-1.142.017-.01.041-.021.088-.021.538 0 1.666 1.13 2.316 2.142.165.255.47.766.824 1.358 1.056 1.768 2.503 4.189 3.259 5.001.681.73 1.783 2.133 1.512 3.336-.198.933-1.255 1.692-1.505 1.86-.09.021-.202.031-.334.031-1.446 0-4.309-1.203-5.848-1.85l-.227-.095c-.859-.36-2.261-.587-3.618-.807-1.079-.175-2.556-.414-2.801-.63-.199-.222.032-.946.235-1.585.146-.459.297-.934.38-1.431.117-.792-.021-1.437-.132-1.956z" fill="#5c3bfe" opacity=".5"/></svg>