<svg fill="none" height="462" width="447" xmlns="http://www.w3.org/2000/svg" xmlns:xlink="http://www.w3.org/1999/xlink"><mask id="a" height="354" maskUnits="userSpaceOnUse" width="195" x="233" y="16"><path d="m255.084 29.884c.702-7.971 7.661-13.929 15.641-13.37l143.362 10.028c7.92.554 13.965 7.326 13.632 15.261-5.169 123.433-10.467 196.8-21.98 314.406-.774 7.906-7.703 13.776-15.624 13.222l-143.366-10.029c-7.976-.557-14.039-7.421-13.628-15.409 6.239-121.408 11.454-194.796 21.963-314.11z" fill="#fff"/></mask><path d="m12.08 133.474c-1.854-8.07 1.34-16.922 5.085-25.664 3.744-7.494 8.432-19.877 16.23-21.819l131.657-20.911c15.704-3.91 31.699 5.38 36.071 20.967 30.796 109.801 60.051 173.775 83.436 280.421 2.421 11.043-13.241 29.258-21.238 36.218a29.777 29.777 0 0 1 -12.393 6.442l-131.043 32.634c-15.825 3.941-31.919-5.527-36.17-21.278-29.209-108.214-46.888-179.353-71.635-287.01z" fill="#fbb500"/><path d="m21.824 107.388c-2.547-11.13 4.279-22.282 15.353-25.044l148.047-36.924c10.985-2.74 22.175 3.777 25.24 14.68 33.055 117.58 51.024 190.396 75.909 304.584 2.412 11.068-4.41 22.075-15.398 24.815l-148.051 36.927c-11.071 2.761-22.328-3.876-25.306-14.894-31.337-115.968-49.388-188.758-75.794-304.144z" fill="#fcde31"/><path clip-rule="evenodd" d="m210.542 194.374c-.049.012-.16-.292-.273-.746s-.224-.758-.273-.746c-.046.012-.138-.206-.209-.49s-.164-.502-.209-.49c-.045.011-.111-.095-.146-.235-.035-.141-.1-.247-.145-.235-.046.011-.121-.133-.167-.32-.047-.188-.122-.332-.167-.321-.045.012-.111-.094-.146-.235-.035-.14-.1-.246-.145-.235-.045.012-.101-.056-.124-.149-.024-.094-.08-.161-.125-.15s-.101-.056-.124-.15-.079-.161-.124-.15-.101-.056-.125-.15c-.023-.093-.079-.161-.124-.15-.045.012-.101-.056-.124-.149-.024-.094-.08-.161-.125-.15s-.101-.056-.124-.15-.079-.161-.124-.15-.099-.048-.12-.131-.125-.188-.232-.233-.209-.142-.228-.215c-.018-.073-.12-.169-.227-.214s-.207-.134-.223-.197-.259-.255-.541-.427c-.282-.171-.524-.354-.536-.404-.03-.121-1.333-.938-1.45-.909-.049.012-.269-.095-.489-.239-.22-.145-.45-.25-.511-.235-.061.016-.183-.035-.272-.113-.088-.077-.218-.126-.288-.109-.07.018-.2-.031-.288-.109-.088-.077-.226-.124-.306-.104s-.155-.002-.167-.049-.087-.069-.167-.049-.218-.027-.306-.104c-.088-.078-.226-.125-.306-.105s-.156-.002-.167-.049c-.012-.046-.132-.057-.267-.023-.135.033-.255.023-.267-.024s-.095-.067-.185-.045c-.09.023-.173.003-.185-.044s-.132-.057-.267-.024c-.135.034-.255.023-.267-.024-.012-.046-.132-.057-.267-.023-.135.033-.255.023-.267-.024-.011-.047-.132-.058-.267-.024s-.255.023-.267-.024c-.011-.047-.205-.039-.43.017-.226.056-.419.064-.431.017-.012-.05-.294-.017-.676.078-.383.096-.664.128-.677.079-.013-.053-.485.03-1.249.221-.765.191-1.221.338-1.208.391.012.049-.224.147-.552.229-.327.081-.564.179-.552.228.012.047-.197.139-.47.207s-.482.161-.47.208-.09.113-.225.146c-.135.034-.236.1-.224.147s-.089.113-.225.146c-.135.034-.236.1-.224.147s-.089.112-.225.146c-.135.034-.236.1-.224.147.012.046-.052.103-.143.126-.09.022-.154.079-.142.126.012.046-.09.112-.225.146s-.236.1-.224.146c.012.047-.044.102-.125.122-.08.02-.179.126-.221.236s-.141.216-.221.236-.136.075-.125.121c.012.047-.044.102-.124.122s-.18.126-.222.236c-.041.11-.133.214-.203.231-.07.018-.162.122-.203.232-.042.11-.126.212-.187.227-.061.016-.215.217-.341.447-.126.231-.27.429-.32.442-.116.029-.883 1.362-.853 1.483.013.05-.115.324-.283.609-.169.284-.294.568-.278.631s-.031.188-.105.278c-.073.09-.118.223-.1.296s-.027.206-.1.296-.116.232-.095.315c.02.084.001.161-.045.172-.045.011-.062.097-.039.191s.006.179-.039.191c-.045.011-.063.097-.04.19.023.094.006.18-.039.191s-.063.097-.04.191c.024.093.006.179-.039.19-.045.012-.063.097-.04.191.024.094.006.179-.039.191-.045.011-.053.135-.018.276.035.14.026.264-.019.275-.045.012-.062.097-.039.191s.005.18-.04.191-.043.173.003.361c.047.187.048.349.003.361-.045.011-.053.135-.018.275.035.141.027.265-.018.276-.046.012-.025.248.045.532.071.283.091.519.046.531-.049.012.003.361.13.871.127.511.179.86.13.872-.045.011-.034.212.024.446.059.234.143.417.188.406.05-.013.174.348.316.916.141.567.265.928.315.916.046-.012.138.206.209.49s.164.502.209.49c.045-.011.111.095.146.235.035.141.1.246.146.235.045-.011.12.133.166.32.047.188.122.332.167.32.045-.011.111.095.146.235.035.141.1.247.145.235.045-.011.101.057.124.15.024.094.08.161.125.15s.101.056.124.15c.023.093.079.161.124.15.046-.012.111.094.146.235.035.14.101.246.146.235.045-.012.098.047.119.131.021.083.125.188.232.233s.212.15.233.233c.034.139-.072.179-1.273.479-.819.204-1.318.295-1.332.241-.011-.046-.205-.039-.43.017-.226.056-.419.064-.431.017s-.132-.057-.267-.024c-.135.034-.255.023-.267-.023-.012-.047-.095-.067-.185-.045-.09.023-.173.003-.185-.044s-.087-.069-.167-.049-.218-.027-.306-.104c-.088-.078-.208-.129-.267-.115-.149.038-1.642-.914-1.681-1.071-.018-.071-.069-.12-.114-.108-.045.011-.099-.048-.12-.131-.021-.084-.125-.189-.232-.234a.487.487 0 0 1 -.254-.318c-.032-.13-.095-.228-.14-.216-.045.011-.111-.095-.146-.235-.035-.141-.1-.246-.145-.235-.046.011-.13-.171-.188-.405-.059-.235-.143-.417-.188-.406-.052.013-.238-.604-.507-1.682-.268-1.078-.394-1.71-.342-1.723.045-.011.044-.174-.003-.361s-.048-.35-.003-.361.053-.135.018-.276c-.035-.14-.027-.264.018-.275.045-.012.063-.098.04-.191-.024-.094-.006-.18.039-.191s.063-.097.04-.191c-.024-.093-.006-.179.039-.19s.063-.097.04-.191c-.024-.094-.006-.179.039-.191.045-.011.068-.078.05-.149-.042-.168.838-1.7 1-1.74.068-.017.115-.069.103-.116s.053-.104.143-.126c.09-.023.154-.079.142-.126-.011-.047.09-.113.225-.147.135-.033.236-.099.224-.146s.163-.131.388-.187l.41-.102-.806-3.235-.807-3.235-.655.163c-.382.095-.646.199-.634.249.012.046-.163.131-.388.187s-.4.14-.388.187c.011.047-.127.122-.307.167s-.318.12-.306.167-.089.112-.225.146c-.135.034-.236.1-.224.147.012.046-.089.112-.224.146-.136.034-.237.1-.225.146.012.047-.052.104-.143.126-.09.023-.154.08-.142.126.012.047-.044.102-.125.122-.08.02-.179.126-.221.236s-.133.214-.203.231c-.07.018-.162.122-.203.232-.042.11-.124.212-.182.226-.129.032-1.267 1.991-1.233 2.124.012.052-.061.23-.163.395-.103.164-.173.352-.157.417.016.064-.031.191-.104.281s-.116.231-.096.315c.021.083.001.16-.044.171-.045.012-.062.098-.039.191.023.094.005.18-.04.191s-.062.097-.039.191c.023.093.006.179-.04.19-.045.011-.062.097-.039.191s.006.179-.039.191c-.045.011-.063.097-.04.19.023.094.006.18-.039.191s-.063.097-.04.191c.024.093.006.179-.039.19-.045.012-.054.136-.019.276.035.141.027.265-.018.276s-.053.135-.018.276c.035.14.027.264-.018.276-.045.011-.054.135-.019.276.035.14.027.264-.018.275-.045.012-.043.174.003.361.047.188.048.35.003.361s-.034.212.024.446c.059.234.07.435.025.446-.047.012-.019.276.066.617.085.34.114.604.067.616-.052.013.074.645.342 1.723.269 1.078.455 1.695.507 1.682.046-.011.145.235.23.576.085.34.184.587.23.575.045-.011.13.171.188.406.059.234.143.416.188.405s.12.133.167.32.122.331.167.32.11.094.145.235c.035.14.101.246.146.235s.111.094.146.235c.035.14.1.246.145.235s.101.056.124.15c.024.093.08.161.125.15.045-.012.11.094.145.234.035.141.101.247.146.235.045-.011.101.057.124.15.024.094.079.161.125.15.045-.011.098.048.119.131s.125.188.232.233c.107.046.212.15.232.234.021.083.075.142.12.131s.099.048.12.131.125.188.232.233.209.142.227.215c.019.073.121.169.228.214s.207.134.223.198c.016.063.213.226.438.361s.42.288.433.34c.03.122.711.55.828.521.05-.013.317.124.595.303.278.18.554.314.615.299s.182.036.271.114c.088.077.226.124.306.104s.155.002.167.049c.011.047.095.067.185.044.09-.022.173-.002.185.044.011.047.095.067.185.045.09-.023.173-.003.185.044.011.047.095.067.185.044.09-.022.173-.002.185.044.011.047.132.058.267.024.135-.033.255-.023.267.024.011.047.095.067.185.044.09-.022.173-.002.185.045.011.047.168.048.348.003.181-.045.338-.043.349.004.012.046.169.048.349.003s.337-.043.349.003c.012.048.239.031.512-.037s.501-.085.513-.037c.014.056 2.779-.603 8.129-1.938 5.351-1.334 8.101-2.051 8.087-2.107-.012-.047.197-.14.47-.208s.482-.16.47-.207.126-.122.306-.167c.181-.045.318-.12.307-.167-.012-.047.089-.113.224-.146.135-.034.236-.1.225-.147-.012-.047.089-.113.224-.146.135-.034.236-.1.225-.147-.012-.046.089-.112.224-.146s.236-.1.225-.146c-.012-.047.052-.104.142-.126.09-.023.154-.08.143-.126-.012-.047.052-.104.142-.126.09-.023.155-.08.143-.126-.012-.047.052-.104.143-.126.09-.023.154-.08.142-.126-.012-.047.044-.102.125-.122.08-.02.179-.126.221-.236s.133-.214.203-.231c.07-.018.162-.122.203-.232.042-.11.127-.212.189-.228.062-.015.187-.169.279-.341.091-.172.206-.322.256-.335.119-.029 1.614-2.631 1.583-2.754-.013-.052.061-.229.163-.394s.173-.353.157-.417c-.016-.065.031-.191.104-.281s.118-.223.1-.296.027-.207.1-.297c.074-.09.117-.231.096-.315-.021-.083-.001-.16.044-.172.045-.011.063-.097.039-.19-.023-.094-.005-.18.04-.191s.063-.097.039-.191c-.023-.093-.005-.179.04-.19.045-.012.053-.136.018-.276-.035-.141-.027-.265.018-.276s.063-.097.04-.191c-.024-.093-.006-.179.039-.19.045-.012.053-.136.018-.276-.035-.141-.026-.265.019-.276s.053-.135.018-.276c-.035-.14-.027-.264.018-.276.045-.011.044-.173-.003-.361-.047-.187-.048-.349-.003-.36.045-.012.034-.212-.024-.447-.058-.234-.069-.434-.024-.446.049-.012-.003-.361-.13-.871-.128-.511-.18-.86-.131-.872.048-.012.011-.304-.088-.702-.099-.397-.204-.672-.251-.66zm7.468 29.966c-.048.012-.159-.292-.272-.746-.114-.454-.225-.758-.273-.746-.046.012-.139-.206-.209-.49-.071-.284-.164-.502-.21-.49-.045.011-.11-.095-.145-.235-.035-.141-.101-.246-.146-.235s-.12-.133-.167-.32c-.046-.188-.121-.332-.166-.32-.045.011-.101-.057-.125-.15-.023-.094-.079-.161-.124-.15s-.111-.095-.146-.235-.1-.246-.145-.235-.101-.056-.124-.15c-.024-.093-.08-.161-.125-.15-.045.012-.101-.056-.124-.149-.023-.094-.079-.162-.124-.15-.045.011-.101-.057-.125-.15-.023-.094-.079-.161-.124-.15s-.101-.056-.124-.15c-.024-.093-.08-.161-.125-.15-.045.012-.099-.047-.119-.131-.021-.083-.126-.188-.233-.233-.106-.045-.207-.135-.223-.199-.016-.065-.167-.197-.335-.295-.167-.097-.316-.221-.329-.275-.014-.054-.302-.269-.641-.477-.339-.209-.627-.422-.64-.475-.031-.124-.292-.288-.411-.258-.051.013-.367-.153-.702-.367-.335-.215-.652-.38-.704-.367s-.227-.066-.388-.175-.344-.185-.406-.17c-.062.016-.185-.035-.273-.113-.088-.077-.226-.124-.306-.104-.081.02-.156-.002-.167-.049-.012-.047-.095-.067-.185-.044-.09.022-.174.002-.185-.044-.012-.047-.095-.067-.185-.045-.09.023-.174.003-.185-.044-.012-.047-.095-.067-.185-.044-.09.022-.174.002-.185-.044-.012-.047-.095-.067-.185-.045-.091.023-.174.003-.185-.044-.012-.047-.132-.058-.267-.024s-.256.023-.267-.024c-.012-.047-.095-.066-.185-.044s-.174.003-.185-.044c-.012-.047-.169-.049-.349-.004s-.337.044-.349-.003-.132-.058-.267-.024-.255.023-.267-.024-.239-.03-.512.038-.501.084-.513.037c-.012-.05-.321-.01-.758.099s-.746.149-.758.098c-.013-.05-.322-.01-.759.099s-.728.219-.716.269c.013.051-.279.16-.716.269-.436.109-.728.219-.715.269.011.047-.198.14-.471.208-.272.068-.481.16-.47.207.012.047-.089.113-.224.147s-.236.099-.225.146c.012.047-.126.122-.306.167s-.318.12-.306.167c.011.047-.053.103-.143.126-.09.022-.154.079-.143.126.012.047-.089.113-.224.146-.135.034-.236.1-.224.147.011.047-.053.103-.143.126-.09.022-.154.079-.143.126.012.047-.052.103-.142.126-.09.022-.154.079-.143.126.012.046-.052.103-.142.126-.09.022-.155.079-.143.126.012.046-.052.103-.143.126-.09.022-.154.079-.142.126.012.046-.044.101-.125.121-.08.02-.179.126-.221.236s-.126.213-.188.228-.188.169-.279.341-.207.323-.257.335c-.127.032-1.855 3.058-1.822 3.192.015.06-.032.183-.106.273-.073.09-.12.216-.104.281.017.064-.054.252-.157.417-.102.165-.17.361-.152.436.019.075-.003.145-.048.156-.045.012-.063.097-.039.191.023.094.005.18-.04.191s-.063.097-.039.19c.023.094.005.18-.04.191s-.062.097-.039.191.005.179-.04.191c-.045.011-.062.097-.039.19.023.094.006.18-.04.191-.045.011-.053.135-.018.276.035.14.027.264-.018.276-.045.011-.063.097-.039.19.023.094.005.18-.04.191s-.044.174.003.361.048.35.003.361-.044.174.003.361.048.35.003.361-.034.212.024.446c.059.234.069.435.024.446-.049.012.003.361.131.872.127.51.179.859.13.871-.046.012-.025.248.045.532.071.283.164.501.21.49.049-.012.173.348.315.916.141.568.265.928.315.916.045-.011.13.171.188.405s.143.417.188.405c.045-.011.12.133.167.321.047.187.122.331.167.32.045-.012.11.094.145.235.035.14.101.246.146.235.045-.012.11.094.145.235.035.14.101.246.146.235.045-.012.11.094.145.235.035.14.101.246.146.234.045-.011.101.057.124.15.024.094.08.161.125.15s.101.056.124.15.079.161.124.15.101.056.125.15c.023.093.079.161.124.149.045-.011.099.048.12.132.02.083.125.188.232.233s.209.141.227.214.121.17.228.215.209.142.227.214c.018.073.121.17.228.215.106.045.206.131.221.192.033.133 2.979 1.994 3.107 1.962.05-.013.222.066.384.175.161.109.344.186.406.17.062-.015.185.036.273.113.088.078.226.125.306.105s.155.002.167.048c.012.047.095.067.185.045.09-.023.174-.003.185.044.012.047.095.067.185.044.09-.022.174-.002.185.044.012.047.095.067.185.045.09-.023.174-.003.185.044.012.047.095.067.185.044.09-.022.174-.002.185.045.012.046.095.066.185.044.09-.023.174-.003.185.044.012.047.132.058.267.024s.255-.023.267.024.132.057.267.024c.135-.034.255-.023.267.023.012.047.169.049.349.004s.337-.043.349.003c.011.047.205.04.43-.017.225-.056.419-.063.431-.017.012.05.294.017.676-.078.383-.095.664-.128.677-.078.013.052.43-.017 1.086-.181.655-.163 1.056-.298 1.043-.35-.012-.05.252-.154.634-.249s.646-.199.634-.248c-.012-.047.163-.131.388-.188.225-.056.4-.14.389-.187-.012-.047.126-.122.306-.167s.318-.12.306-.167c-.011-.046.09-.112.225-.146s.236-.1.224-.146c-.011-.047.09-.113.225-.147s.236-.099.224-.146.053-.104.143-.126c.09-.023.154-.079.142-.126-.011-.047.053-.104.143-.126.09-.023.154-.079.142-.126-.011-.047.053-.104.143-.126.09-.023.154-.079.143-.126-.012-.047.052-.104.142-.126.09-.023.154-.079.143-.126-.012-.047.052-.104.142-.126.09-.023.155-.079.143-.126s.044-.102.124-.122c.081-.02.18-.126.222-.236.041-.109.126-.212.188-.228.062-.015.188-.168.279-.34s.207-.323.257-.336c.127-.031 1.855-3.058 1.822-3.191-.016-.06.032-.183.105-.273.074-.09.119-.224.101-.297-.019-.073.026-.206.1-.296.073-.09.118-.223.1-.296s.027-.206.1-.296.116-.232.095-.315c-.02-.084 0-.161.045-.172.045-.012.062-.097.039-.191s-.006-.179.039-.191c.046-.011.063-.097.04-.19-.023-.094-.006-.18.039-.191s.063-.097.04-.191c-.023-.093-.006-.179.039-.19.045-.012.054-.136.019-.276-.035-.141-.027-.265.018-.276s.053-.135.018-.276c-.035-.14-.027-.264.018-.276.045-.011.054-.135.019-.276-.035-.14-.027-.264.018-.275.045-.012.044-.174-.003-.361-.047-.188-.048-.35-.003-.361s.034-.212-.024-.446c-.059-.234-.07-.435-.025-.446.049-.013.005-.333-.109-.787-.113-.454-.157-.775-.109-.787.049-.012.004-.332-.109-.786s-.224-.758-.273-.746zm4.388 24.586c-.045.011-.129-.171-.188-.405-.058-.235-.143-.417-.188-.406-.045.012-.101-.056-.124-.149-.023-.094-.079-.162-.124-.15-.045.011-.097-.038-.114-.109-.056-.223-1.137-.845-1.369-.787-.114.028-.216.013-.228-.034-.011-.047-.132-.058-.267-.024s-.255.023-.267-.024c-.011-.047-.205-.039-.43.017-.226.056-.4.141-.389.188.012.046-.126.121-.306.166s-.318.12-.306.167c.011.047-.053.104-.143.126-.09.023-.154.079-.142.126.011.047-.036.099-.104.116-.163.041-.678.937-.636 1.106.018.072-.004.139-.049.15-.045.012-.063.097-.04.191.024.094.006.18-.039.191-.054.013.498 2.347 1.615 6.831 1.118 4.483 1.726 6.803 1.78 6.79.045-.011.101.056.124.15.023.093.079.161.124.149.045-.011.099.048.12.132.021.083.125.188.232.233s.211.15.232.233c.022.089.099.137.184.115.08-.02.218.027.306.105.088.077.226.124.306.104s.155.002.167.049.095.067.185.044c.09-.022.173-.002.185.045.013.051.349.003.84-.12.492-.122.811-.238.798-.289-.012-.047.081-.111.206-.142a.456.456 0 0 0 .304-.256c.041-.11.124-.212.184-.227.14-.035.414-.512.378-.658-.015-.062.032-.186.105-.276s.116-.232.096-.315c-.021-.084-.001-.161.044-.172.045-.012.025-.248-.046-.532-.07-.283-.091-.519-.045-.531.054-.013-.427-2.063-1.404-5.979-.976-3.916-1.513-5.953-1.567-5.939zm-17.577-51.679c-.047.012-.018.276.066.617.085.34.114.604.067.616-.045.011-.053.136-.018.276s.027.265-.018.276-.054.135-.019.276c.035.14.027.264-.018.275-.045.012-.063.097-.039.191.023.094.005.18-.04.191s-.065.088-.044.172c.021.083-.022.225-.095.315-.074.09-.12.216-.104.281.016.064-.055.252-.157.417-.103.165-.176.343-.163.396.032.125-.368.821-.489.851-.051.013-.167.164-.259.336-.091.172-.216.325-.278.341-.062.015-.147.118-.189.228-.041.11-.141.216-.221.236s-.136.075-.125.121c.012.047-.052.104-.142.126-.09.023-.154.079-.143.126.012.047-.089.113-.224.147-.135.033-.236.099-.225.146.012.047-.089.113-.224.147-.135.033-.236.099-.225.146.012.049-.224.146-.552.228-.327.082-.564.18-.552.228.013.051-.279.16-.716.269-.436.109-.745.149-.758.099-.012-.047-.24-.031-.513.037-.272.068-.5.085-.512.038s-.169-.049-.349-.004-.337.044-.349-.003c-.011-.047-.132-.058-.267-.024s-.255.023-.267-.024c-.011-.047-.094-.067-.185-.044-.09.022-.173.002-.185-.044-.011-.047-.086-.069-.166-.049-.081.02-.218-.027-.307-.105-.088-.077-.211-.128-.273-.112-.062.015-.245-.061-.406-.17s-.335-.188-.386-.175c-.121.03-.8-.397-.832-.522-.013-.053-.161-.176-.329-.274-.168-.097-.318-.23-.334-.294-.016-.065-.117-.155-.224-.2s-.211-.15-.232-.233-.075-.142-.12-.131-.101-.056-.124-.15-.079-.161-.124-.15c-.045.012-.111-.094-.146-.235-.035-.14-.1-.246-.145-.235-.045.012-.111-.094-.146-.235-.035-.14-.1-.246-.145-.235-.047.012-.146-.235-.231-.575-.085-.341-.184-.587-.23-.576-.047.012-.146-.235-.231-.575-.085-.341-.113-.605-.066-.616.046-.012.018-.276-.067-.617-.085-.34-.113-.604-.067-.616.045-.011.044-.174-.003-.361-.046-.187-.048-.35-.003-.361s.063-.097.04-.191c-.023-.093-.006-.179.039-.19.045-.012.063-.097.04-.191-.024-.094-.006-.18.039-.191s.063-.097.04-.19c-.024-.094-.006-.18.039-.191s.065-.089.044-.172c-.02-.083.023-.225.096-.315s.121-.213.106-.274c-.036-.144.848-1.682.986-1.717.059-.014.14-.116.182-.226s.141-.216.221-.236c.081-.02.137-.074.125-.121s.052-.104.142-.126c.091-.023.155-.079.143-.126s.053-.104.143-.126c.09-.023.154-.079.142-.126-.011-.047.053-.104.143-.126.09-.023.154-.079.142-.126-.011-.047.09-.113.225-.147.135-.033.236-.099.224-.146-.011-.047.163-.131.389-.187.225-.056.4-.141.388-.188-.013-.053.443-.2 1.207-.391s1.237-.274 1.25-.221c.011.046.205.039.43-.017.226-.057.42-.064.431-.017.012.046.132.057.267.023.135-.033.255-.022.267.024.012.047.095.067.185.045.09-.023.173-.003.185.044s.095.067.185.044c.09-.022.173-.002.185.044.012.047.095.067.185.045.09-.023.173-.003.185.044s.087.069.167.049.218.027.306.104c.088.078.208.129.267.115.138-.035 1.641.908 1.677 1.052.015.061.115.147.222.192s.211.15.232.233c.021.084.074.143.119.131.045-.011.101.057.125.15.023.094.079.161.124.15s.101.056.124.15c.024.094.08.161.125.15s.101.056.124.15c.023.093.079.161.124.149.045-.011.12.133.167.321.047.187.122.331.167.32.045-.012.138.206.209.49s.164.502.209.49c.048-.012.153.264.252.661s.136.69.088.701zm7.469 29.967c-.047.011-.019.275.066.616s.114.605.067.616c-.045.012-.053.136-.018.276.035.141.026.265-.019.276s-.053.135-.018.276c.035.14.027.264-.018.276-.045.011-.063.097-.04.19.024.094.006.18-.039.191s-.065.089-.044.172c.02.083-.022.225-.096.315-.073.09-.118.223-.1.296s-.027.206-.1.296-.121.214-.106.275c.034.135-.6 1.258-.729 1.29-.05.013-.166.164-.257.336-.091.171-.225.327-.297.345s-.121.071-.11.118c.012.046-.052.103-.142.126-.09.022-.155.079-.143.126.012.046-.052.103-.142.126-.091.022-.155.079-.143.126.012.046-.053.103-.143.126-.09.022-.154.079-.142.126.011.046-.126.121-.307.166-.18.045-.318.12-.306.167s-.163.131-.388.187c-.225.057-.4.141-.388.188.013.052-.389.187-1.044.35-.655.164-1.073.233-1.086.181-.011-.047-.205-.039-.431.017-.225.056-.419.064-.43.017-.012-.047-.169-.049-.349-.004s-.337.044-.349-.003-.095-.067-.185-.044c-.09.022-.173.002-.185-.045-.012-.046-.095-.066-.185-.044-.09.023-.173.003-.185-.044s-.095-.067-.185-.044c-.09.022-.173.002-.185-.045s-.08-.07-.152-.052-.263-.057-.424-.166-.335-.188-.385-.175c-.128.032-1.216-.662-1.249-.797-.015-.061-.115-.147-.222-.192s-.21-.142-.228-.215-.12-.169-.227-.214-.212-.15-.232-.234c-.021-.083-.075-.142-.12-.131s-.101-.056-.124-.15c-.024-.093-.08-.161-.125-.149-.045.011-.11-.095-.145-.235-.035-.141-.101-.247-.146-.235-.045.011-.11-.095-.145-.235-.035-.141-.101-.247-.146-.235-.047.011-.145-.235-.23-.576-.085-.34-.184-.587-.231-.575-.046.011-.145-.235-.23-.576-.085-.34-.113-.605-.067-.616.047-.012.019-.276-.066-.617-.085-.34-.114-.604-.067-.616.045-.011.053-.135.018-.276-.035-.14-.026-.264.019-.276.045-.011.053-.135.018-.275-.035-.141-.027-.265.018-.276s.063-.097.039-.191c-.023-.093-.005-.179.04-.191.045-.011.063-.097.039-.19-.023-.094-.005-.18.04-.191s.067-.082.048-.156c-.019-.075.05-.272.152-.436.103-.165.176-.343.163-.396-.034-.133.617-1.246.747-1.278.059-.015.141-.117.182-.226.042-.11.133-.214.204-.232.07-.017.161-.122.203-.232.042-.109.141-.216.221-.236s.136-.074.125-.121c-.012-.047.052-.104.142-.126.09-.023.155-.079.143-.126s.089-.113.224-.146c.135-.034.237-.1.225-.147s.089-.113.224-.146c.135-.034.236-.1.225-.147-.012-.047.197-.139.47-.207s.482-.161.47-.208c-.013-.052.334-.174.88-.31s.909-.191.922-.139c.012.047.239.03.512-.038s.501-.085.513-.037c.012.047.132.057.267.024.135-.034.255-.023.267.023.012.047.132.058.267.024.135-.033.255-.023.267.024.011.047.095.067.185.044.09-.022.173-.002.185.045.011.046.095.066.185.044.09-.023.173-.003.185.044.011.047.08.071.152.053s.263.056.424.165.334.188.385.175c.12-.029 1.214.658 1.245.782.013.052.161.175.329.273.168.097.321.238.339.313.019.075.071.127.116.116.045-.012.101.056.124.149.024.094.08.162.125.15.045-.011.101.056.124.15s.079.161.124.15.111.094.146.235c.035.14.1.246.146.235.045-.011.11.094.145.235.035.14.101.246.146.235.046-.012.145.235.23.575.085.341.184.588.23.576.047-.012.146.235.231.575.085.341.113.605.067.617zm1.87 22.862c-.045.012-.101-.056-.124-.15-.023-.093-.079-.161-.124-.149-.045.011-.097-.038-.115-.11-.042-.169-.917-.718-1.08-.678-.068.018-.134-.007-.146-.053-.012-.047-.095-.067-.185-.045-.09.023-.173.003-.185-.044s-.132-.058-.267-.024-.255.023-.267-.024c-.011-.047-.205-.039-.43.017-.226.056-.4.141-.389.188.012.046-.126.121-.306.166s-.318.12-.306.167c.011.047-.053.104-.143.126-.09.023-.154.079-.143.126.012.047-.035.099-.103.116-.163.041-.678.937-.636 1.106.018.072-.004.139-.049.15-.046.012-.063.097-.04.191s.006.18-.039.191c-.054.013.498 2.347 1.615 6.831 1.118 4.483 1.726 6.803 1.779 6.79.046-.011.109.086.141.216.035.139.14.27.254.318.107.045.207.133.222.195.039.155.506.438.661.399.07-.017.136.007.148.053.012.047.095.067.185.045.09-.023.173-.003.185.044s.095.067.185.044c.09-.022.173-.002.185.045.013.051.349.003.84-.12.491-.122.811-.238.798-.289-.012-.047.052-.103.142-.126.09-.022.155-.079.143-.126s.052-.103.143-.126c.09-.022.154-.079.142-.126s.036-.099.105-.117c.155-.038.436-.507.397-.662-.016-.062.032-.186.105-.276s.116-.232.095-.316c-.02-.083-.001-.16.045-.171.053-.014-.506-2.376-1.637-6.916-1.132-4.541-1.747-6.889-1.801-6.876zm-7.862 1.961c-.045.012-.101-.056-.124-.15-.024-.093-.08-.161-.125-.149-.045.011-.096-.038-.114-.11-.042-.169-.917-.718-1.08-.678-.069.018-.134-.007-.146-.054-.012-.046-.095-.066-.185-.044-.09.023-.173.003-.185-.044s-.169-.048-.349-.004c-.18.045-.337.044-.349-.003-.011-.047-.168-.048-.349-.003-.18.045-.318.12-.306.166.012.047-.126.122-.306.167s-.318.12-.307.167c.012.047-.052.104-.142.126-.09.023-.154.079-.143.126.012.047-.035.099-.104.116-.162.041-.677.937-.635 1.106.018.071-.005.139-.05.15-.045.012-.062.097-.039.191s.006.18-.04.191c-.053.013.499 2.347 1.616 6.831 1.117 4.483 1.725 6.803 1.779 6.79.045-.011.109.086.141.216.035.139.139.27.254.318.106.045.207.133.222.195.039.155.506.438.661.399.07-.017.136.007.148.053.011.047.095.067.185.045.09-.023.173-.003.185.044.011.047.095.067.185.044.09-.022.173-.002.185.045.012.051.349.003.84-.12.491-.122.81-.238.798-.289-.012-.047.052-.103.142-.126.09-.022.155-.079.143-.126s.052-.103.142-.126c.091-.022.155-.079.143-.126s.036-.099.105-.117c.155-.038.435-.507.397-.662-.016-.062.032-.187.105-.276a.488.488 0 0 0 .074-.401c-.032-.13-.022-.245.023-.257.054-.013-.498-2.347-1.616-6.831-1.117-4.483-1.725-6.803-1.779-6.79z" fill="#fc3039" fill-rule="evenodd"/><path clip-rule="evenodd" d="m185.748 94.065c-.048.012-.157-.282-.267-.722s-.218-.734-.267-.722c-.046.012-.137-.199-.206-.474-.068-.275-.16-.485-.205-.474-.046.011-.12-.128-.165-.31-.045-.18-.119-.32-.165-.308-.045.01-.11-.091-.143-.227-.034-.136-.099-.238-.144-.227-.046.011-.111-.09-.144-.227-.034-.136-.099-.238-.144-.227-.046.011-.11-.09-.144-.227-.034-.136-.099-.238-.144-.226-.046.01-.101-.054-.124-.145-.022-.09-.078-.156-.123-.144-.045.011-.101-.054-.124-.145-.022-.09-.078-.155-.123-.144s-.101-.054-.123-.144c-.023-.091-.079-.156-.124-.145-.045.012-.101-.053-.123-.144-.023-.09-.078-.156-.124-.145-.045.012-.099-.045-.119-.126-.02-.08-.124-.181-.23-.224-.107-.043-.209-.136-.227-.207-.017-.07-.119-.163-.226-.206s-.207-.128-.222-.19c-.016-.061-.212-.217-.436-.346-.225-.13-.419-.276-.431-.325-.03-.118-1.535-1.024-1.653-.995-.049.013-.269-.09-.488-.228-.22-.138-.449-.239-.511-.223-.061.015-.183-.033-.271-.108-.088-.074-.218-.12-.288-.103-.071.018-.2-.029-.288-.103-.088-.075-.226-.12-.307-.1-.08.021-.155 0-.167-.045-.011-.045-.094-.064-.185-.041-.09.022-.174.004-.185-.042-.011-.045-.095-.064-.185-.041-.091.022-.174.004-.185-.042-.012-.045-.095-.064-.186-.041-.09.023-.174.004-.185-.041-.011-.046-.094-.064-.185-.042-.091.023-.174.004-.185-.041-.012-.046-.132-.055-.268-.021s-.256.025-.267-.02c-.012-.046-.095-.065-.185-.042-.091.022-.174.004-.186-.042-.011-.045-.168-.045-.349 0-.182.045-.339.045-.35 0-.012-.046-.169-.046-.35 0-.181.044-.339.044-.35-.001s-.206-.036-.432.02c-.227.057-.421.066-.432.02-.013-.05-.433.02-1.091.185-.659.164-1.078.235-1.091.184-.011-.045-.095-.064-.185-.041-.091.023-.155.078-.144.123.012.05-.364.179-.968.33-.603.15-.979.278-.967.328.012.046-.199.138-.473.206-.275.068-.485.16-.474.206.012.045-.127.119-.308.164s-.32.12-.309.165-.091.11-.227.144c-.135.034-.237.099-.226.144s-.091.11-.226.144c-.136.034-.238.099-.227.144.012.045-.053.1-.144.123-.09.023-.155.079-.144.124s-.091.11-.226.144c-.136.034-.238.099-.227.144.011.046-.053.101-.144.124-.09.022-.155.078-.144.123.011.046-.054.101-.144.124-.091.022-.156.078-.144.123.011.046-.046.1-.126.12-.081.02-.182.123-.224.23-.043.107-.135.21-.206.227s-.163.12-.206.226c-.043.107-.128.207-.189.223-.062.015-.217.212-.346.436-.129.225-.275.42-.324.431-.117.03-1.269 1.95-1.24 2.067.013.05-.09.27-.228.489-.137.22-.237.45-.222.51.015.063-.033.185-.107.273s-.119.226-.099.306c.021.081 0 .156-.045.168-.046.011-.064.094-.042.185.023.09.004.174-.041.186-.045.01-.064.094-.041.185.023.09.004.174-.041.185-.046.012-.064.095-.041.186.022.09.004.174-.042.185-.045.012-.064.095-.041.186.023.09.004.174-.041.185s-.064.095-.041.186c.022.09.004.174-.042.185-.045.011-.054.132-.02.268s.024.257-.021.268-.064.095-.041.185c.022.091.004.174-.041.186-.046.011-.046.169 0 .35.045.182.045.34-.001.35-.045.012-.045.17 0 .35.045.182.045.34 0 .351s-.036.206.021.433c.056.227.065.422.02.433-.048.012-.014.295.082.68s.13.668.082.68c-.051.013.041.515.247 1.34.205.825.359 1.312.411 1.299.047-.012.144.227.226.556.082.33.179.569.226.557.045-.011.12.128.165.309.045.182.119.321.164.31.046-.012.12.128.165.309s.119.321.164.309c.046-.011.11.091.144.227s.099.238.144.227c.046-.011.11.091.144.227s.099.238.144.227c.045-.012.101.053.124.144.022.091.078.156.123.144.045-.011.101.054.123.145.023.09.079.155.124.144s.101.054.123.145c.023.09.078.155.124.144.045-.011.101.054.123.144.023.091.078.156.124.145.045-.012.098.045.118.126.021.081.124.182.231.224.107.043.209.136.227.207.017.07.119.163.226.206s.207.129.223.191c.015.063.165.19.332.283.168.094.315.211.328.262.03.119 1.947 1.273 2.066 1.243.05-.012.223.063.384.167.161.105.337.179.391.166.054-.014.23.06.391.165.161.104.352.175.424.157s.141.004.152.049c.011.046.087.066.167.046.081-.02.218.025.306.099.088.075.226.119.307.099.08-.02.155.001.167.046.011.045.131.055.267.021l.247-.062-.205-.824c-.124-.495-.239-.817-.288-.804-.054.013-.363-1.107-.884-3.196s-.83-3.208-.884-3.195c-.045.011-.099-.045-.119-.126s-.124-.182-.231-.225c-.106-.042-.21-.143-.23-.224-.021-.081-.074-.138-.119-.126-.046.011-.101-.054-.124-.145-.022-.09-.078-.155-.123-.144s-.11-.091-.144-.227-.099-.238-.144-.227c-.045.012-.119-.128-.165-.309-.045-.181-.119-.321-.164-.309-.051.012-.192-.42-.37-1.134-.178-.715-.257-1.162-.206-1.175.046-.011.036-.206-.02-.433-.057-.227-.066-.421-.02-.433.045-.011.054-.132.02-.268s-.024-.256.021-.267c.045-.012.064-.095.041-.186-.023-.09-.004-.174.041-.185.046-.012.064-.095.042-.186-.023-.09-.005-.174.041-.185.045-.012.064-.095.041-.186-.023-.09-.004-.174.041-.185s.066-.087.046-.167c-.02-.081.024-.22.098-.307.075-.088.123-.208.109-.267-.038-.15.871-1.641 1.023-1.68.068-.016.115-.067.104-.113-.011-.045.045-.099.126-.119.08-.02.181-.124.224-.23a.462.462 0 0 1 .306-.252c.126-.032.22-.095.208-.14-.011-.045.091-.11.227-.144s.238-.099.226-.144a.086.086 0 0 1 .062-.103c.054-.014.881 3.183 2.437 9.426 2.013 8.078 2.376 9.46 2.501 9.536.12.072.527-.006 2.17-.416 1.294-.323 2.016-.534 2.002-.587-.011-.046.2-.137.474-.206.274-.068.485-.16.473-.205-.011-.046.165-.129.391-.185.227-.057.403-.14.391-.186-.011-.045.091-.11.227-.144s.238-.098.226-.144c-.011-.045.091-.11.227-.144s.237-.098.226-.144c-.011-.045.091-.11.227-.144.135-.034.237-.099.226-.144s.091-.11.226-.144c.136-.034.238-.099.227-.144-.012-.045.053-.101.144-.124.09-.022.155-.078.144-.123s.054-.101.144-.124c.091-.022.155-.078.144-.123s.054-.101.144-.124c.091-.022.156-.078.144-.123-.011-.046.046-.099.126-.119.081-.02.182-.124.224-.231.043-.107.144-.211.224-.231.081-.02.138-.074.126-.119-.011-.046.039-.097.111-.116.073-.018.208-.17.301-.337.093-.168.212-.316.265-.329s.23-.254.394-.536.339-.523.389-.535c.119-.03.402-.501.372-.62-.012-.051.118-.319.289-.596s.301-.547.288-.6c-.014-.053.061-.228.165-.389s.177-.344.161-.406c-.015-.063.033-.186.107-.274s.118-.226.098-.306c-.02-.081.001-.156.046-.168.045-.011.064-.094.041-.185-.022-.091-.004-.174.041-.185.046-.012.064-.095.042-.186-.023-.091-.004-.174.041-.185.045-.012.064-.095.041-.186-.022-.091-.004-.174.041-.185.046-.012.055-.132.021-.268s-.025-.257.021-.268c.045-.011.064-.095.041-.186-.023-.09-.004-.174.041-.185s.045-.169 0-.35c-.045-.182-.045-.34 0-.35.046-.012.055-.133.021-.269s-.025-.256.021-.267c.045-.012.036-.207-.021-.433-.056-.227-.065-.422-.02-.433.049-.012.007-.323-.103-.763-.109-.44-.151-.75-.102-.762.05-.013-.014-.406-.165-1.01-.15-.605-.278-.982-.329-.97zm6.659 26.715c-.048.012-.151-.254-.247-.639s-.199-.651-.247-.639c-.045.011-.128-.165-.185-.392-.056-.226-.139-.403-.185-.391-.045.011-.119-.128-.164-.31-.045-.181-.12-.32-.165-.309s-.101-.054-.123-.144c-.023-.091-.078-.156-.124-.145-.045.012-.11-.09-.144-.227-.034-.136-.098-.238-.144-.226-.045.011-.1-.054-.123-.145-.023-.09-.078-.155-.123-.144-.046.011-.101-.054-.124-.145-.022-.09-.078-.155-.123-.144-.046.011-.101-.054-.124-.144-.022-.091-.078-.156-.123-.145-.045.012-.101-.053-.124-.144-.022-.091-.078-.156-.123-.144-.045.011-.099-.046-.119-.127-.02-.08-.124-.181-.231-.224s-.207-.129-.222-.192c-.016-.062-.166-.189-.333-.283-.168-.093-.315-.21-.328-.261-.03-.12-1.534-1.026-1.654-.996-.051.013-.224-.062-.384-.167-.161-.104-.352-.175-.424-.157-.073.018-.141-.004-.152-.049-.012-.046-.087-.066-.167-.046-.081.02-.219-.025-.307-.099a.458.458 0 0 0 -.388-.078c-.126.031-.238.02-.25-.026-.011-.045-.094-.064-.185-.041-.09.022-.174.004-.185-.042-.011-.045-.132-.054-.268-.02-.135.033-.256.024-.267-.021-.011-.046-.132-.055-.268-.021-.135.034-.256.024-.267-.021s-.169-.045-.35 0-.339.045-.35-.001c-.013-.054-3.011.664-8.829 2.115l-8.809 2.197.781 3.133.781 3.134 7.739-1.93c5.104-1.274 7.745-1.903 7.759-1.848.011.045.205.036.432-.02.226-.057.421-.066.432-.021.011.046.132.055.268.021.135-.034.256-.024.267.021.011.046.095.064.185.042.091-.023.174-.004.185.041.012.045.095.064.186.041.09-.022.174-.004.185.042.011.045.077.068.146.051.153-.038 1.036.48 1.073.63.015.059.114.143.221.186.107.042.211.143.231.224s.074.138.119.126c.045-.011.101.054.123.145.023.09.078.155.124.144.045-.011.119.128.164.309.045.182.119.321.165.31.05-.013.185.391.349 1.051.165.66.236 1.08.185 1.093-.045.011-.055.131-.021.267s.025.257-.02.268c-.046.012-.057.124-.026.25a.463.463 0 0 1 -.077.389c-.075.088-.123.208-.109.268.038.15-.498 1.022-.651 1.06-.069.017-.117.069-.105.114.011.045-.054.101-.144.123-.091.023-.156.079-.144.124.011.045-.054.101-.145.124-.09.022-.155.078-.144.123.012.045-.127.119-.308.165-.181.045-.32.119-.309.164.013.055-2.751.774-8.13 2.115l-8.15 2.033.781 3.134.781 3.133 8.562-2.136c5.653-1.41 8.555-2.163 8.541-2.217-.011-.046.165-.129.391-.186.226-.056.402-.139.391-.185-.011-.045.091-.11.227-.144.135-.034.237-.098.226-.144-.011-.045.091-.11.226-.144.136-.034.238-.099.227-.144-.012-.045.09-.11.226-.144s.238-.099.227-.144c-.012-.045.053-.101.144-.124.09-.022.155-.078.144-.123s.053-.101.144-.124c.09-.022.155-.078.144-.123s.054-.101.144-.124c.091-.022.156-.078.144-.123-.011-.046.046-.099.126-.119.081-.02.182-.124.224-.231.043-.107.129-.207.191-.223.063-.016.19-.166.283-.333.093-.168.21-.315.261-.328.12-.03.899-1.33.87-1.45-.013-.051.062-.224.166-.385s.177-.344.161-.406c-.016-.063.032-.186.107-.274.074-.088.118-.226.098-.307-.02-.08.001-.155.046-.167.045-.011.064-.094.041-.185-.022-.091-.004-.174.041-.186.046-.011.064-.094.042-.185-.023-.091-.004-.174.041-.186.045-.011.064-.094.041-.185s-.004-.174.041-.185c.046-.012.055-.132.021-.268s-.025-.257.021-.268c.045-.011.054-.132.02-.268s-.024-.257.021-.268.054-.132.021-.268c-.034-.136-.025-.257.02-.268.046-.011.036-.206-.02-.433-.057-.226-.066-.421-.021-.432.048-.012.014-.296-.082-.681-.096-.384-.13-.668-.082-.68.051-.012-.02-.433-.185-1.092-.164-.66-.298-1.064-.349-1.052zm6.864 27.541c-.049.012-.158-.282-.267-.722-.11-.44-.219-.734-.268-.722-.045.012-.137-.199-.205-.474-.069-.275-.16-.485-.206-.474-.045.011-.11-.091-.144-.227s-.099-.238-.144-.227c-.045.012-.119-.128-.164-.309-.046-.181-.12-.32-.165-.309s-.11-.091-.144-.227-.099-.238-.144-.227-.101-.054-.123-.144c-.023-.091-.078-.156-.124-.145-.045.012-.11-.09-.144-.226-.034-.137-.098-.239-.144-.227-.045.011-.1-.054-.123-.145-.023-.09-.078-.155-.124-.144-.045.011-.1-.054-.123-.144-.023-.091-.078-.156-.123-.145-.046.011-.099-.045-.119-.126s-.124-.182-.231-.224c-.107-.043-.209-.136-.226-.207-.018-.07-.12-.163-.227-.206s-.208-.136-.226-.206c-.018-.071-.119-.164-.226-.207-.107-.042-.206-.125-.221-.184-.035-.138-2.976-1.909-3.114-1.874-.058.014-.178-.035-.266-.109s-.217-.121-.288-.103c-.071.017-.2-.029-.288-.104-.088-.074-.226-.118-.306-.098-.081.02-.156-.001-.167-.046-.012-.046-.087-.066-.167-.046-.081.02-.219-.025-.307-.099-.087-.074-.225-.119-.306-.099-.08.02-.156 0-.167-.046-.011-.045-.095-.064-.185-.041-.091.022-.174.004-.185-.041-.012-.046-.132-.055-.268-.021s-.256.024-.267-.021c-.012-.046-.095-.064-.186-.042-.09.023-.173.004-.185-.041-.011-.045-.131-.055-.267-.021s-.256.025-.268-.021c-.011-.045-.168-.045-.35 0-.181.045-.338.045-.349 0-.012-.046-.169-.046-.35-.001-.181.046-.339.045-.35 0-.012-.046-.24-.028-.515.041-.274.068-.503.086-.514.041-.013-.053-.707.088-1.914.389-1.208.301-1.886.502-1.873.555.011.046-.199.137-.473.206-.275.068-.485.16-.474.205.012.046-.127.12-.309.165-.181.045-.32.119-.308.165.011.045-.128.119-.309.164s-.32.119-.309.165c.012.045-.09.11-.226.144s-.238.098-.227.144c.012.045-.09.11-.226.144s-.238.099-.226.144c.011.045-.054.101-.145.123-.09.023-.155.079-.144.124.012.045-.053.101-.144.123-.09.023-.155.079-.144.124s-.053.101-.144.124c-.09.022-.155.078-.144.123s-.054.101-.144.124c-.091.022-.156.078-.144.123.011.045-.046.099-.126.119-.081.02-.181.124-.224.231s-.135.209-.206.227c-.071.017-.163.119-.206.226s-.128.207-.189.223c-.062.015-.217.211-.346.436s-.275.419-.325.431c-.117.03-1.021 1.537-.992 1.655.013.049-.09.269-.228.489-.137.219-.237.449-.222.511.015.061-.033.184-.107.272s-.121.217-.103.288-.029.201-.103.289-.119.226-.098.306c.02.081-.001.156-.046.167-.046.012-.064.095-.041.186.022.091.004.174-.042.185-.045.012-.064.095-.041.186s.004.174-.041.185c-.045.012-.064.095-.041.186.022.09.004.174-.042.185-.045.011-.063.095-.041.186.023.09.004.174-.041.185s-.055.132-.021.268.025.257-.02.268c-.046.011-.055.132-.021.268s.025.256-.021.268c-.045.011-.054.131-.02.268.034.136.024.256-.021.267-.045.012-.045.169 0 .351.045.181.045.339 0 .35-.046.012-.028.241.041.515.068.275.086.504.041.516-.048.012-.014.295.082.68s.13.668.082.68c-.051.013.027.46.205 1.175s.319 1.147.37 1.134c.047-.012.144.227.226.556.083.33.18.569.227.557.045-.011.119.128.164.309.045.182.119.321.165.31.045-.012.119.128.164.309s.119.321.165.309c.045-.011.11.091.144.227s.098.238.144.227c.045-.011.101.054.123.144.023.091.078.156.124.145.045-.012.11.09.144.227.033.136.098.238.144.226.045-.011.1.054.123.145.023.09.078.155.123.144.046-.011.101.054.124.145.022.09.078.155.123.144s.101.054.124.144c.022.091.078.156.123.145.045-.012.099.045.119.126s.124.182.231.224c.107.043.211.144.231.225.02.08.073.137.119.126.045-.011.097.039.115.111.018.073.17.208.337.302.168.093.316.213.329.266.013.054.208.203.432.332.225.129.419.275.431.325.03.118 1.329.9 1.447.871.049-.013.269.09.488.228.22.138.449.239.511.223.061-.015.183.033.271.108.088.074.218.121.288.103.071-.018.201.029.288.103.088.075.218.121.289.104.07-.018.2.028.288.103.088.074.225.119.306.099.08-.02.156 0 .167.046.011.045.095.064.185.041.155-.039.151-.096-.061-.948-.137-.55-.259-.899-.309-.887-.053.014-.361-1.1-.879-3.177-.773-3.103-.803-3.199-.991-3.275-.107-.043-.211-.144-.231-.224-.02-.081-.074-.138-.119-.127-.045.012-.101-.053-.123-.144-.023-.091-.078-.156-.124-.144-.045.011-.101-.054-.123-.145-.023-.09-.078-.155-.124-.144-.045.011-.11-.091-.144-.227s-.098-.238-.144-.227c-.045.011-.128-.165-.185-.392-.056-.226-.139-.403-.185-.391-.05.012-.178-.365-.329-.969-.15-.605-.214-.998-.164-1.01.045-.012.036-.206-.02-.433-.057-.227-.066-.422-.021-.433s.055-.132.021-.268-.025-.256.021-.268c.045-.011.054-.132.02-.268s-.024-.256.021-.267c.045-.012.064-.095.041-.186s-.004-.174.041-.185c.046-.012.064-.095.042-.186-.023-.091-.005-.174.041-.185.045-.012.067-.08.049-.153-.018-.072.053-.263.157-.424s.179-.335.166-.386c-.03-.12.502-1.007.622-1.037.051-.013.169-.16.262-.328s.228-.32.301-.338c.072-.018.122-.07.111-.115-.012-.045.053-.101.144-.123.09-.023.155-.079.144-.124s.09-.11.226-.144.238-.099.227-.144c-.012-.045.09-.11.226-.144l.247-.062 2.363 9.483 2.364 9.482.988-.246c.603-.151.996-.215 1.008-.164.012.046.24.027.515-.041.274-.068.484-.16.473-.206-.012-.05.336-.171.885-.308s.897-.258.885-.308c-.011-.046.165-.129.391-.185.226-.057.402-.14.391-.186-.011-.045.128-.119.309-.164s.32-.119.309-.165c-.012-.045.09-.11.226-.144s.238-.099.226-.144c-.011-.045.091-.11.227-.144s.238-.099.226-.144c-.011-.045.091-.11.227-.144s.237-.099.226-.144.054-.101.144-.124c.091-.022.156-.078.144-.123-.011-.045.054-.101.144-.124.091-.022.156-.078.145-.123-.012-.046.082-.108.208-.14a.46.46 0 0 0 .306-.251c.043-.107.144-.211.224-.231.081-.02.137-.074.126-.119-.011-.046.054-.101.144-.124.091-.022.156-.078.144-.123-.011-.046.039-.098.111-.116.073-.018.208-.17.301-.337.093-.168.213-.316.268-.33.054-.013.174-.162.267-.329.093-.168.211-.316.261-.328.119-.03 1.024-1.536.994-1.655-.012-.049.09-.27.228-.489.138-.22.239-.443.226-.496-.013-.054.061-.229.165-.39s.175-.352.157-.424c-.018-.073.004-.142.049-.153s.064-.095.041-.185c-.022-.091-.004-.174.042-.186.045-.011.063-.094.041-.185-.023-.091-.004-.174.041-.186.045-.011.064-.094.041-.185-.022-.091-.004-.174.041-.185.046-.012.064-.095.042-.186-.023-.091-.004-.174.041-.185.045-.012.064-.095.041-.186-.022-.091-.004-.174.041-.185.046-.012.055-.132.021-.268s-.025-.257.021-.268c.045-.011.054-.132.02-.268s-.024-.257.021-.268.045-.169 0-.35c-.045-.182-.045-.339 0-.351.046-.011.036-.206-.02-.432-.057-.227-.066-.422-.021-.433.049-.012.007-.323-.102-.763-.11-.44-.152-.75-.103-.762.05-.013-.013-.406-.164-1.01-.151-.605-.279-.982-.329-.969zm7.316 30.055c-.05.012-.172-.337-.309-.887s-.258-.899-.308-.886c-.046.011-.137-.2-.206-.475-.068-.274-.159-.485-.205-.474-.045.011-.129-.165-.185-.392-.057-.226-.14-.403-.185-.391-.046.011-.12-.128-.165-.31-.045-.181-.119-.32-.164-.309-.046.011-.11-.091-.144-.227s-.099-.238-.144-.227c-.046.012-.11-.09-.144-.226s-.099-.238-.144-.227c-.046.011-.11-.091-.144-.227s-.099-.238-.144-.227c-.046.011-.11-.091-.144-.227s-.099-.238-.144-.227c-.045.012-.101-.053-.124-.144-.022-.091-.078-.156-.123-.144-.045.011-.101-.054-.123-.145-.023-.09-.079-.155-.124-.144s-.101-.054-.123-.144c-.023-.091-.078-.156-.124-.145-.045.011-.101-.053-.123-.144-.023-.091-.078-.156-.124-.145-.045.012-.098-.045-.119-.126-.02-.08-.123-.181-.23-.224s-.209-.136-.227-.207c-.017-.07-.119-.163-.226-.206s-.206-.126-.221-.184c-.031-.127-2.146-1.415-2.271-1.384-.048.012-.199-.046-.336-.128a1.225 1.225 0 0 0 -.43-.162c-.1-.006-.189-.046-.2-.088s-.093-.058-.184-.036c-.09.023-.174.004-.185-.041s-.132-.055-.268-.021c-.135.034-.256.025-.267-.021-.011-.045-.095-.064-.185-.041-.091.022-.174.004-.185-.042-.012-.045-.169-.045-.35 0s-.339.045-.35 0c-.011-.046-.169-.046-.35-.001-.181.046-.339.045-.35 0-.013-.054-2.929.643-8.582 2.053l-8.562 2.136.781 3.133.781 3.133 6.833-1.704c4.5-1.123 6.84-1.676 6.853-1.622.012.046.206.036.433-.02.226-.057.421-.066.432-.02.011.045.132.054.267.021.136-.034.257-.025.268.02.011.046.132.055.267.021.136-.034.257-.024.268.021.011.046.095.064.185.042.091-.023.174-.004.185.041.012.045.077.068.146.051.162-.04 1.655.858 1.695 1.021.018.069.069.116.114.104.045-.011.101.054.123.145.023.091.078.156.124.144.045-.011.101.054.123.145.023.09.078.155.124.144.045-.011.11.091.144.227s.098.238.144.227c.045-.012.128.165.185.391.056.227.139.403.185.392.049-.012.157.282.267.722.11.439.218.733.267.721.046-.011.137.2.206.474l.123.495 3.258-.812c2.713-.677 3.272-.837 3.346-.96.1-.167-.054-.912-.182-.88zm-26.314-81.019c-.045.011-.045.17 0 .35.045.182.045.34 0 .35-.045.012-.055.133-.021.269s.025.256-.02.268c-.046.01-.055.132-.021.268s.025.256-.021.267c-.045.012-.064.095-.041.186.023.09.004.174-.041.185-.045.012-.066.087-.046.168.02.08-.024.218-.098.306-.075.088-.123.21-.108.272.016.062-.084.292-.222.511-.138.22-.24.441-.227.492.03.121-.253.591-.374.621-.052.013-.171.161-.264.329s-.22.318-.282.333c-.063.016-.149.116-.191.223-.043.107-.144.211-.224.231-.081.02-.138.074-.126.119.011.045-.054.101-.144.123-.091.023-.156.079-.144.124.011.045-.091.11-.227.144s-.238.099-.226.144a.086.086 0 0 1 -.062.103c-.054.014-.624-2.151-1.665-6.328-1.041-4.178-1.554-6.357-1.5-6.37a.085.085 0 0 1 .103.062c.011.045.132.055.268.02.135-.033.256-.024.267.022.011.045.124.056.249.025a.464.464 0 0 1 .389.078c.088.075.226.119.306.099.081-.02.156 0 .167.046.012.045.087.066.167.046.081-.02.219.024.307.099.087.074.207.123.266.108.139-.035 1.432.744 1.467.883.015.06.114.142.221.185s.211.144.231.225c.02.08.074.137.119.126s.101.053.123.144c.023.09.078.156.124.145.045-.012.11.09.144.226s.098.239.144.227c.045-.011.11.091.144.227s.098.238.144.227c.045-.011.119.128.164.31.045.18.119.32.165.308.051-.012.198.447.39 1.217s.277 1.244.226 1.257zm13.523 54.256c-.046.011-.036.206.02.433.057.227.066.421.021.433-.046.011-.055.131-.021.268.034.136.025.256-.021.267-.045.012-.064.095-.041.186s.004.174-.041.185c-.045.012-.064.095-.041.186.022.09.004.174-.042.185-.045.012-.063.095-.041.186.023.09.004.174-.041.185s-.066.087-.046.167c.02.081-.024.219-.098.307-.075.088-.123.208-.109.267.035.139-.865 1.64-1.004 1.675-.059.014-.142.114-.185.221-.042.107-.135.209-.205.226-.071.018-.164.12-.206.227-.043.107-.144.211-.224.231-.081.02-.138.073-.126.119.011.045-.091.11-.227.144-.135.034-.237.099-.226.144s-.054.101-.144.123c-.163.041-.179-.013-1.727-6.225l-1.562-6.267.247-.061c.136-.034.257-.025.268.02.011.046.132.055.267.021.136-.034.257-.024.268.021.011.046.095.064.185.042.091-.023.174-.004.185.041.012.045.087.066.167.046.081-.02.219.024.307.099.088.074.217.121.288.103.07-.018.2.029.288.103.088.075.208.124.267.109.14-.035 1.02.495 1.055.635.015.059.114.142.221.185s.209.136.226.206c.018.071.12.164.227.207.106.043.21.144.23.224.02.081.074.138.119.126.046-.011.11.091.144.227s.099.238.144.227.11.091.144.227.099.238.144.227c.045-.012.129.165.185.392.057.226.14.403.185.391.051-.012.192.419.37 1.134s.257 1.162.206 1.175z" fill="#35322b" fill-rule="evenodd"/><path d="m131.343 341.473 22.703-5.663 5.234 21.001a4.195 4.195 0 0 1 -3.054 5.086l-14.565 3.632a4.194 4.194 0 0 1 -5.084-3.056z" fill="#35322b"/><path d="m133.551 326.128 11.351-2.831 3.472 13.929-11.351 2.831z" fill="#eee"/><path clip-rule="evenodd" d="m158.992 417.028-13.099-52.553 6.104-1.522 13.286 53.303v6.388h-6.291z" fill="#35322b" fill-rule="evenodd"/><path d="m165.518 333.09 22.703-5.663 5.224 20.959a4.197 4.197 0 0 1 -3.055 5.086l-14.564 3.632a4.193 4.193 0 0 1 -5.084-3.056zm140.493 38.633 23.324 1.847-1.688 21.535a4.19 4.19 0 0 1 -4.509 3.852l-14.962-1.185a4.2 4.2 0 0 1 -3.853-4.514z" fill="#35322b"/><path d="m164.194 315.695 17.027-4.246 4.159 16.685-17.027 4.247z" fill="#eee"/><path clip-rule="evenodd" d="m193.133 408.511-13.076-52.465 6.104-1.522 13.263 53.215v7.404h-6.291zm50.737 24.589c-8.803-12.487-13.508-27.073-14.922-33.444l6.141-1.364c1.29 5.811 5.729 19.558 13.922 31.182 8.195 11.626 19.615 20.462 34.978 18.342 15.156-2.091 22.508-14.311 26.071-27.143 1.762-6.346 2.51-12.589 2.814-17.27.151-2.333.191-4.261.193-5.598a63.005 63.005 0 0 0 -.026-1.921l-.004-.091-.001-.019v-.002l3.142-.145c3.142-.146 3.142-.145 3.142-.143l.001.015.002.036.004.126a70.558 70.558 0 0 1 .031 2.155 95.607 95.607 0 0 1 -.206 5.995c-.322 4.953-1.117 11.654-3.031 18.546-3.789 13.645-12.317 29.078-31.273 31.693-18.749 2.587-32.178-8.465-40.978-20.95z" fill="#35322b" fill-rule="evenodd"/><path d="m242.777 20.694c1.012-11.377 10.951-19.882 22.34-19.085l157.663 11.028c11.299.79 19.93 10.46 19.471 21.782-5.24 129.212-10.93 208-23.15 331.125-1.12 11.277-11.012 19.649-22.313 18.858l-157.669-11.029c-11.385-.796-20.042-10.598-19.466-22.001 6.418-127.041 12.018-205.834 23.124-330.678z" fill="#35322b"/><g mask="url(#a)"><path d="m255.084 29.884c.702-7.971 7.661-13.929 15.641-13.37l143.362 10.028c7.92.554 13.965 7.326 13.632 15.261-5.169 123.433-10.467 196.8-21.98 314.406-.774 7.906-7.703 13.776-15.624 13.222l-143.366-10.029c-7.976-.557-14.039-7.421-13.628-15.409 6.239-121.408 11.454-194.796 21.963-314.11z" fill="#fff"/></g><path d="m285.538 348.421a2.807 2.807 0 0 1 2.996-2.605l62.952 4.404a2.808 2.808 0 0 1 -.391 5.602l-62.952-4.403a2.81 2.81 0 0 1 -2.605-2.998zm12.681-337.241 90.201 6.31-1.181 16.896a8.389 8.389 0 0 1 -8.953 7.784l-73.466-5.139a8.39 8.39 0 0 1 -7.782-8.955l1.181-16.895z" fill="#35322b"/><path d="m275.672 151.324c.324-4.623 4.332-8.109 8.953-7.786l96.639 6.761a8.39 8.39 0 0 1 7.782 8.955l-3.36 48.07a8.39 8.39 0 0 1 -8.952 7.785l-96.639-6.761a8.39 8.39 0 0 1 -7.783-8.955z" fill="#d4d4d4"/><path d="m280.83 155.01a6.292 6.292 0 0 1 6.714-5.839l90.026 6.298a6.291 6.291 0 0 1 5.836 6.716l-2.897 41.452a6.293 6.293 0 0 1 -6.715 5.839l-90.025-6.298a6.292 6.292 0 0 1 -5.837-6.716z" fill="#fff"/><path d="m286.009 158.691a4.193 4.193 0 0 1 4.476-3.892l83.412 5.834a4.196 4.196 0 0 1 3.891 4.478l-2.435 34.837a4.195 4.195 0 0 1 -4.477 3.892l-83.411-5.835a4.194 4.194 0 0 1 -3.891-4.478z" fill="#10cda0"/><path d="m322.4 181.208 12.642-17.864-3.796 13.549 10.393.727-15.476 17.666 5.685-13.417z" fill="#fff"/><path d="m390.808 172.675 6.007.42a2.097 2.097 0 0 1 1.945 2.239l-1.217 17.418a2.098 2.098 0 0 1 -2.238 1.946l-6.007-.42z" fill="#d4d4d4"/></svg>