<svg fill="none" height="164" viewBox="0 0 97 164" width="97" xmlns="http://www.w3.org/2000/svg"><g fill="#69c0ac"><path clip-rule="evenodd" d="m0 106c0-6.0751 4.92487-11 11-11 6.0751 0 11 4.9249 11 11 0 6.075-4.9249 11-11 11-6.07513 0-11-4.925-11-11zm11-8.871c-4.8993 0-8.87097 3.972-8.87097 8.871s3.97167 8.871 8.87097 8.871 8.871-3.972 8.871-8.871-3.9717-8.871-8.871-8.871z" fill-rule="evenodd"/><path clip-rule="evenodd" d="m11 101c.5523 0 1 .448 1 1v3.586l1.7071 1.707c.3905.39.3905 1.024 0 1.414-.3905.391-1.0237.391-1.4142 0l-2-2c-.1875-.187-.2929-.442-.2929-.707v-4c0-.552.4477-1 1-1z" fill-rule="evenodd"/><path d="m37.9825 99c-3.0662 0-4.9825 2.218-4.9825 5.754 0 3.521 1.8713 5.762 4.9825 5.762 3.0962 0 4.96-2.249 4.96-5.762 0-3.529-1.8788-5.754-4.96-5.754zm0 1.265c2.217 0 3.5697 1.738 3.5697 4.489 0 2.728-1.3452 4.496-3.5697 4.496-2.2545 0-3.5922-1.768-3.5922-4.496 0-2.751 1.3828-4.489 3.5922-4.489z"/><path d="m51.2394 102.041h-6.5532v1.097h2.6303v7.118h1.2926v-7.118h2.6303z"/><path d="m54.8694 106.514 3.2465 3.742h1.6759l-3.8552-4.344 3.7124-3.871h-1.5706l-3.209 3.437h-.3532v-3.437h-1.2926v8.215h1.2926v-3.742z"/><path d="m65.6388 101.896c-1.1047 0-2.0742.572-2.5927 1.517h-.1203v-1.372h-1.2324v10.959h1.2926v-3.978h.1202c.4434.869 1.3753 1.379 2.5326 1.379 2.0591 0 3.4043-1.684 3.4043-4.252 0-2.584-1.3377-4.253-3.4043-4.253zm-.3081 7.324c-1.458 0-2.3823-1.189-2.3823-3.071 0-1.89.9243-3.072 2.3898-3.072 1.4805 0 2.3672 1.151 2.3672 3.072 0 1.92-.8867 3.071-2.3747 3.071z"/><path d="m78.4072 110.256h1.2926v-8.215h-1.2926zm-4.1934-4.481c1.0596 0 1.751.663 1.751 1.692 0 1.021-.6839 1.692-1.751 1.692h-1.6008v-3.384zm-2.8934 4.481h2.8934c1.8562 0 3.0436-1.082 3.0436-2.789s-1.1874-2.789-3.0436-2.789h-1.6008v-2.637h-1.2926z"/><path d="m88.2447 102.041h-6.5532v1.097h2.6303v7.118h1.2926v-7.118h2.6303z"/><path d="m93.265 110.401c2.3071 0 3.735-1.615 3.735-4.252 0-2.645-1.4279-4.253-3.735-4.253s-3.735 1.608-3.735 4.253c0 2.637 1.4279 4.252 3.735 4.252zm0-1.181c-1.5331 0-2.3973-1.128-2.3973-3.071 0-1.951.8642-3.072 2.3973-3.072s2.3973 1.121 2.3973 3.072c0 1.943-.8642 3.071-2.3973 3.071z"/></g><path d="m38.6998 65.7123h1.5137v-12.178h-1.5053l-3.2292 2.3292v1.6035l3.0862-2.2449h.1346z" fill="#999c9b"/><path d="m48.026 65.9993c2.7247 0 4.2888-2.3124 4.2888-6.3549 0-4.034-1.5894-6.3971-4.2888-6.3971-2.7162 0-4.3056 2.3546-4.3056 6.3718 0 4.0509 1.5726 6.3802 4.3056 6.3802zm0-1.325c-1.7912 0-2.7835-1.7976-2.7835-5.0552 0-3.2154 1.0092-5.0384 2.7835-5.0384 1.7744 0 2.7667 1.8061 2.7667 5.0384 0 3.266-.9755 5.0552-2.7667 5.0552z" fill="#999c9b"/><path d="m58.9837 65.9993c2.7246 0 4.2888-2.3124 4.2888-6.3549 0-4.034-1.5894-6.3971-4.2888-6.3971-2.7162 0-4.3056 2.3546-4.3056 6.3718 0 4.0509 1.5726 6.3802 4.3056 6.3802zm0-1.325c-1.7912 0-2.7835-1.7976-2.7835-5.0552 0-3.2154 1.0091-5.0384 2.7835-5.0384s2.7667 1.8061 2.7667 5.0384c0 3.266-.9755 5.0552-2.7667 5.0552z" fill="#999c9b"/><path d="m72.3635 65.7123v-6.473h.1598l2.8676 6.2198h1.1269l2.8676-6.2198h.1597v6.473h1.4549v-9.0977h-1.6903l-3.2544 7.0554h-.1346l-3.246-7.0554h-1.7576v9.0977z" fill="#999c9b"/><path clip-rule="evenodd" d="m0 60.4211 21.9194-10.4211-10.3829 22-2.30729-9.2632z" fill="#999c9b" fill-rule="evenodd"/><path d="m9.99996 162.333c4.60234 0 8.33334-3.731 8.33334-8.333s-3.731-8.333-8.33334-8.333c-4.60237 0-8.33333 3.731-8.33333 8.333s3.73096 8.333 8.33333 8.333z" style="fill-rule:evenodd;clip-rule:evenodd;fill:#f0f0f0;stroke:#f0f0f0;stroke-linecap:round;stroke-linejoin:round"/><path d="m12.5 151.5-5 5" stroke="#868b9e" stroke-linecap="round" stroke-linejoin="round"/><path d="m7.5 151.5 5 5" stroke="#868b9e" stroke-linecap="round" stroke-linejoin="round"/><path d="m40.7285 15.9717h-4.418v-8.13137h-1.1425v9.15967h5.5605zm5.8233-.7427c-.2856.603-.8823.9268-1.7646.9268-1.1616 0-1.917-.857-1.9741-2.209v-.0508h4.9194v-.4189c0-2.1265-1.1235-3.4405-2.9707-3.4405-1.8789 0-3.085 1.3965-3.085 3.5484 0 2.1645 1.187 3.5356 3.085 3.5356 1.498 0 2.5645-.7236 2.8818-1.8916zm-1.8027-4.2275c1.0855 0 1.8091.7998 1.8345 2.0122h-3.7705c.0825-1.2124.8442-2.0122 1.936-2.0122zm4.6173 5.9985h1.0918v-4.0498c0-1.1997.7046-1.9297 1.7964-1.9297 1.0917 0 1.6123.584 1.6123 1.8154v4.1641h1.0918v-4.4307c0-1.625-.857-2.5327-2.3931-2.5327-1.0474 0-1.7139.4444-2.0567 1.1997h-.1015v-1.0791h-1.041zm8.0831-8.16309c.4189 0 .7617-.34277.7617-.76171 0-.41895-.3428-.76172-.7617-.76172-.419 0-.7618.34277-.7618.76172 0 .41894.3428.76171.7618.76171zm-.5459 8.16309h1.0918v-6.8428h-1.0918zm3.0938 0h1.0918v-4.0498c0-1.1997.7046-1.9297 1.7964-1.9297s1.6123.584 1.6123 1.8154v4.1641h1.0918v-4.4307c0-1.625-.857-2.5327-2.3931-2.5327-1.0474 0-1.7139.4444-2.0566 1.1997h-.1016v-1.0791h-1.041zm9.4161.1206c.914 0 1.6631-.3999 2.1074-1.1299h.1016v1.0093h1.041v-4.6846c0-1.4218-.9331-2.2788-2.6026-2.2788-1.4599 0-2.539.7237-2.685 1.8218h1.1045c.1523-.5396.7236-.8506 1.5425-.8506 1.0219 0 1.5488.4634 1.5488 1.3076v.6221l-1.9741.1206c-1.5933.0952-2.4947.7998-2.4947 2.0249 0 1.2505.9839 2.0376 2.3106 2.0376zm.2031-.9585c-.7935 0-1.3838-.4062-1.3838-1.1045 0-.6855.457-1.0473 1.4981-1.1172l1.8408-.1206v.6284c0 .9776-.8316 1.7139-1.9551 1.7139zm5.6773 3.1675.9966-3.6118h-1.2124l-.603 3.6118zm7.051-2.3296h1.1997l4.0752-8.09961v-1.06006h-6.062v1.02197h4.9003v.08887z" fill="#0e173c"/><path d="m12.6749 22.1626c.0851-.1112.2091-.1852.3456-.2107 5.1101-.9547 8.9795-5.464 8.9795-10.8828 0-6.11329-4.9249-11.0691-11-11.0691-6.07513 0-11 4.95581-11 11.0691 0 5.4188 3.86942 9.9281 8.97952 10.8828.1365.0255.26048.0995.34558.2107l1.2404 1.6215c.2202.2879.6488.2879.869 0z" fill="#fcde31"/><circle cx="11" cy="11" fill="#fff" r="6"/></svg>