<svg width="121" height="183" viewBox="0 0 121 183" fill="none" xmlns="http://www.w3.org/2000/svg">
<path fill-rule="evenodd" clip-rule="evenodd" d="M0 118.556C0 111.805 5.47208 106.333 12.2222 106.333C18.9724 106.333 24.4444 111.805 24.4444 118.556C24.4444 125.306 18.9724 130.778 12.2222 130.778C5.47208 130.778 0 125.306 0 118.556ZM12.2222 108.699C6.77856 108.699 2.36559 113.112 2.36559 118.556C2.36559 123.999 6.77856 128.412 12.2222 128.412C17.6659 128.412 22.0789 123.999 22.0789 118.556C22.0789 113.112 17.6659 108.699 12.2222 108.699Z" fill="#69C0AC"/>
<path fill-rule="evenodd" clip-rule="evenodd" d="M12.2222 113C12.8358 113 13.3333 113.498 13.3333 114.111V118.095L15.2301 119.992C15.664 120.426 15.664 121.13 15.2301 121.564C14.7962 121.997 14.0927 121.997 13.6587 121.564L11.4365 119.341C11.2281 119.133 11.1111 118.85 11.1111 118.556V114.111C11.1111 113.498 11.6085 113 12.2222 113Z" fill="#69C0AC"/>
<path d="M49.6307 117.455C49.6307 118.835 49.3814 120.028 48.8828 121.034C48.3842 122.04 47.7003 122.815 46.831 123.361C45.9616 123.906 44.9688 124.179 43.8523 124.179C42.7358 124.179 41.7429 123.906 40.8736 123.361C40.0043 122.815 39.3203 122.04 38.8217 121.034C38.3232 120.028 38.0739 118.835 38.0739 117.455C38.0739 116.074 38.3232 114.881 38.8217 113.875C39.3203 112.869 40.0043 112.094 40.8736 111.548C41.7429 111.003 42.7358 110.73 43.8523 110.73C44.9688 110.73 45.9616 111.003 46.831 111.548C47.7003 112.094 48.3842 112.869 48.8828 113.875C49.3814 114.881 49.6307 116.074 49.6307 117.455ZM48.0966 117.455C48.0966 116.321 47.907 115.364 47.5277 114.585C47.1527 113.805 46.6435 113.214 46 112.814C45.3608 112.413 44.6449 112.213 43.8523 112.213C43.0597 112.213 42.3416 112.413 41.6982 112.814C41.0589 113.214 40.5497 113.805 40.1705 114.585C39.7955 115.364 39.608 116.321 39.608 117.455C39.608 118.588 39.7955 119.545 40.1705 120.325C40.5497 121.104 41.0589 121.695 41.6982 122.095C42.3416 122.496 43.0597 122.696 43.8523 122.696C44.6449 122.696 45.3608 122.496 46 122.095C46.6435 121.695 47.1527 121.104 47.5277 120.325C47.907 119.545 48.0966 118.588 48.0966 117.455ZM51.9809 127.682V114.182H53.4382V115.741H53.6172C53.728 115.571 53.8814 115.354 54.0774 115.089C54.2777 114.821 54.5632 114.582 54.934 114.374C55.309 114.161 55.8161 114.054 56.4553 114.054C57.282 114.054 58.0107 114.261 58.6414 114.674C59.272 115.087 59.7642 115.673 60.1179 116.432C60.4716 117.19 60.6485 118.085 60.6485 119.116C60.6485 120.156 60.4716 121.058 60.1179 121.82C59.7642 122.579 59.2742 123.167 58.6478 123.585C58.0213 123.998 57.299 124.205 56.4809 124.205C55.8502 124.205 55.3452 124.1 54.9659 123.891C54.5867 123.678 54.2948 123.437 54.0902 123.169C53.8857 122.896 53.728 122.67 53.6172 122.491H53.4894V127.682H51.9809ZM53.4638 119.091C53.4638 119.832 53.5725 120.487 53.7898 121.053C54.0071 121.616 54.3246 122.057 54.7422 122.376C55.1598 122.692 55.6712 122.849 56.2763 122.849C56.907 122.849 57.4333 122.683 57.8551 122.351C58.2813 122.014 58.6009 121.562 58.8139 120.996C59.0313 120.425 59.1399 119.79 59.1399 119.091C59.1399 118.401 59.0334 117.778 58.8203 117.224C58.6115 116.666 58.2941 116.225 57.8679 115.901C57.446 115.573 56.9155 115.409 56.2763 115.409C55.6627 115.409 55.147 115.565 54.7294 115.876C54.3118 116.183 53.9965 116.613 53.7834 117.167C53.5703 117.717 53.4638 118.358 53.4638 119.091ZM66.9553 124.205C66.0093 124.205 65.1932 123.996 64.5072 123.578C63.8253 123.156 63.2991 122.568 62.9283 121.814C62.5618 121.055 62.3786 120.173 62.3786 119.168C62.3786 118.162 62.5618 117.276 62.9283 116.509C63.2991 115.737 63.8147 115.136 64.4752 114.706C65.14 114.271 65.9155 114.054 66.8019 114.054C67.3133 114.054 67.8182 114.139 68.3168 114.31C68.8154 114.48 69.2692 114.757 69.6783 115.141C70.0874 115.52 70.4134 116.023 70.6563 116.649C70.8992 117.276 71.0206 118.047 71.0206 118.963V119.602H63.4525V118.298H69.4866C69.4866 117.744 69.3758 117.25 69.1542 116.815C68.9368 116.381 68.6258 116.038 68.2209 115.786C67.8204 115.535 67.3474 115.409 66.8019 115.409C66.201 115.409 65.6812 115.558 65.2422 115.857C64.8076 116.151 64.4731 116.534 64.2387 117.007C64.0043 117.48 63.8871 117.987 63.8871 118.528V119.398C63.8871 120.139 64.015 120.768 64.2706 121.283C64.5306 121.795 64.8907 122.185 65.3509 122.453C65.8111 122.717 66.3459 122.849 66.9553 122.849C67.3516 122.849 67.7096 122.794 68.0292 122.683C68.353 122.568 68.6322 122.398 68.8665 122.172C69.1009 121.942 69.282 121.656 69.4099 121.315L70.8672 121.724C70.7138 122.219 70.456 122.653 70.0938 123.028C69.7316 123.399 69.2841 123.689 68.7515 123.898C68.2188 124.102 67.6201 124.205 66.9553 124.205ZM74.7131 118.094V124H73.2046V114.182H74.662V115.716H74.7899C75.02 115.217 75.3694 114.817 75.8381 114.514C76.3069 114.207 76.912 114.054 77.6535 114.054C78.3183 114.054 78.8999 114.19 79.3985 114.463C79.8971 114.732 80.2849 115.141 80.5619 115.69C80.8389 116.236 80.9774 116.926 80.9774 117.761V124H79.4688V117.864C79.4688 117.092 79.2685 116.491 78.868 116.061C78.4674 115.626 77.9177 115.409 77.2188 115.409C76.7373 115.409 76.3069 115.513 75.9276 115.722C75.5526 115.931 75.2565 116.236 75.0391 116.636C74.8218 117.037 74.7131 117.523 74.7131 118.094Z" fill="#69C0AC"/>
<path d="M42.9998 73.7915H44.6817V60.2603H43.0091L39.4211 62.8484V64.6301L42.8503 62.1358H42.9998V73.7915Z" fill="#999C9B"/>
<path d="M53.3623 74.1103C56.3897 74.1103 58.1276 71.541 58.1276 67.0494C58.1276 62.5671 56.3616 59.9415 53.3623 59.9415C50.3443 59.9415 48.5783 62.5577 48.5783 67.0212C48.5783 71.5223 50.3256 74.1103 53.3623 74.1103ZM53.3623 72.6381C51.3721 72.6381 50.2695 70.6408 50.2695 67.0212C50.2695 63.4486 51.3908 61.4231 53.3623 61.4231C55.3338 61.4231 56.4364 63.4298 56.4364 67.0212C56.4364 70.6502 55.3525 72.6381 53.3623 72.6381Z" fill="#999C9B"/>
<path d="M65.5375 74.1103C68.5648 74.1103 70.3028 71.541 70.3028 67.0494C70.3028 62.5671 68.5368 59.9415 65.5375 59.9415C62.5195 59.9415 60.7535 62.5577 60.7535 67.0212C60.7535 71.5223 62.5008 74.1103 65.5375 74.1103ZM65.5375 72.6381C63.5473 72.6381 62.4447 70.6408 62.4447 67.0212C62.4447 63.4486 63.566 61.4231 65.5375 61.4231C67.509 61.4231 68.6116 63.4298 68.6116 67.0212C68.6116 70.6502 67.5277 72.6381 65.5375 72.6381Z" fill="#999C9B"/>
<path d="M80.404 73.7915V66.5993H80.5815L83.7677 73.5102H85.0198L88.206 66.5993H88.3835V73.7915H90V63.683H88.1219L84.5059 71.5223H84.3564L80.7497 63.683H78.7968V73.7915H80.404Z" fill="#999C9B"/>
<path fill-rule="evenodd" clip-rule="evenodd" d="M0 67.9123L24.3548 56.3334L12.8183 80.7778L10.2547 70.4854L0 67.9123Z" fill="#999C9B"/>
<path fill-rule="evenodd" clip-rule="evenodd" d="M11.1113 181.148C16.2251 181.148 20.3706 177.003 20.3706 171.889C20.3706 166.775 16.2251 162.63 11.1113 162.63C5.99756 162.63 1.85205 166.775 1.85205 171.889C1.85205 177.003 5.99756 181.148 11.1113 181.148Z" fill="#F0F0F0" stroke="#F0F0F0" stroke-width="1.11111" stroke-linecap="round" stroke-linejoin="round"/>
<path d="M13.8888 169.111L8.33325 174.667" stroke="#868B9E" stroke-width="1.11111" stroke-linecap="round" stroke-linejoin="round"/>
<path d="M8.33325 169.111L13.8888 174.667" stroke="#868B9E" stroke-width="1.11111" stroke-linecap="round" stroke-linejoin="round"/>
<path d="M44.6615 11.3657C44.6068 10.8802 44.3811 10.504 43.9844 10.2373C43.5878 9.96712 43.0885 9.83204 42.4866 9.83204C42.0558 9.83204 41.683 9.90043 41.3684 10.0372C41.0538 10.1706 40.8093 10.3552 40.6349 10.5912C40.4639 10.8237 40.3784 11.0887 40.3784 11.3863C40.3784 11.6359 40.4366 11.8513 40.5528 12.0326C40.6725 12.2138 40.8281 12.366 41.0196 12.4891C41.2145 12.6088 41.4231 12.7096 41.6454 12.7917C41.8677 12.8704 42.0814 12.9353 42.2866 12.9866L43.3125 13.2534C43.6476 13.3354 43.9913 13.4466 44.3435 13.5868C44.6957 13.727 45.0223 13.9116 45.3232 14.1408C45.6241 14.3699 45.8669 14.6537 46.0516 14.9922C46.2397 15.3308 46.3337 15.736 46.3337 16.2079C46.3337 16.8029 46.1798 17.3313 45.8721 17.7929C45.5677 18.2545 45.1249 18.6187 44.5435 18.8855C43.9656 19.1522 43.2663 19.2856 42.4456 19.2856C41.6591 19.2856 40.9786 19.1607 40.4041 18.9111C39.8296 18.6615 39.3799 18.3076 39.0551 17.8493C38.7302 17.3877 38.5507 16.8405 38.5165 16.2079H40.1066C40.1374 16.5875 40.2605 16.9038 40.4759 17.1569C40.6948 17.4065 40.9735 17.5929 41.312 17.716C41.654 17.8356 42.0284 17.8955 42.4353 17.8955C42.8833 17.8955 43.2817 17.8254 43.6305 17.6852C43.9827 17.5416 44.2597 17.3432 44.4615 17.0902C44.6632 16.8337 44.7641 16.5345 44.7641 16.1925C44.7641 15.8813 44.6752 15.6266 44.4974 15.4282C44.323 15.2299 44.0853 15.0658 43.7844 14.9358C43.4869 14.8059 43.15 14.6913 42.7739 14.5921L41.5326 14.2536C40.6913 14.0245 40.0245 13.6877 39.5321 13.2431C39.0431 12.7986 38.7986 12.2104 38.7986 11.4786C38.7986 10.8733 38.9627 10.345 39.291 9.89359C39.6193 9.4422 40.0638 9.09169 40.6247 8.84206C41.1855 8.58901 41.8181 8.46249 42.5225 8.46249C43.2338 8.46249 43.8613 8.5873 44.405 8.83693C44.9522 9.08657 45.3831 9.43024 45.6977 9.86795C46.0123 10.3022 46.1764 10.8015 46.1901 11.3657H44.6615ZM48.0157 19.1112V11.2324H49.4879V12.5147H49.5853C49.7495 12.0804 50.0179 11.7419 50.3907 11.4991C50.7634 11.2529 51.2097 11.1298 51.7294 11.1298C52.2561 11.1298 52.6972 11.2529 53.0528 11.4991C53.4119 11.7453 53.6769 12.0839 53.8479 12.5147H53.93C54.118 12.0941 54.4173 11.759 54.8276 11.5094C55.238 11.2563 55.727 11.1298 56.2946 11.1298C57.0093 11.1298 57.5924 11.3538 58.0438 11.8017C58.4986 12.2497 58.726 12.9251 58.726 13.8279V19.1112H57.1923V13.9715C57.1923 13.438 57.0469 13.0516 56.7563 12.8122C56.4656 12.5729 56.1185 12.4532 55.715 12.4532C55.2157 12.4532 54.8276 12.6071 54.5506 12.9148C54.2736 13.2192 54.1351 13.6107 54.1351 14.0895V19.1112H52.6066V13.874C52.6066 13.4466 52.4732 13.1029 52.2065 12.843C51.9398 12.5831 51.5927 12.4532 51.1652 12.4532C50.8745 12.4532 50.6061 12.5301 50.3599 12.684C50.1171 12.8345 49.9205 13.0448 49.77 13.3149C49.623 13.5851 49.5494 13.898 49.5494 14.2536V19.1112H48.0157ZM60.6927 19.1112V11.2324H62.2264V19.1112H60.6927ZM61.4672 10.0167C61.2005 10.0167 60.9714 9.92779 60.7799 9.74997C60.5918 9.56873 60.4978 9.3533 60.4978 9.10366C60.4978 8.85061 60.5918 8.63518 60.7799 8.45736C60.9714 8.27612 61.2005 8.1855 61.4672 8.1855C61.734 8.1855 61.9614 8.27612 62.1495 8.45736C62.341 8.63518 62.4367 8.85061 62.4367 9.10366C62.4367 9.3533 62.341 9.56873 62.1495 9.74997C61.9614 9.92779 61.734 10.0167 61.4672 10.0167ZM67.8786 11.2324V12.4634H63.575V11.2324H67.8786ZM64.7291 9.34475H66.2628V16.7978C66.2628 17.0953 66.3073 17.3193 66.3962 17.4697C66.4851 17.6168 66.5997 17.7177 66.7399 17.7724C66.8835 17.8237 67.0391 17.8493 67.2067 17.8493C67.3298 17.8493 67.4375 17.8408 67.5298 17.8237C67.6221 17.8066 67.6939 17.7929 67.7452 17.7826L68.0222 19.0496C67.9333 19.0838 67.8068 19.118 67.6427 19.1522C67.4785 19.1898 67.2733 19.2103 67.0271 19.2137C66.6236 19.2206 66.2475 19.1488 65.8987 18.9983C65.5499 18.8479 65.2677 18.6153 65.0523 18.3007C64.8369 17.9861 64.7291 17.5911 64.7291 17.1158V9.34475ZM71.1892 14.4331V19.1112H69.6555V8.60611H71.1687V12.5147H71.2662C71.4508 12.0907 71.733 11.7539 72.1125 11.5042C72.4921 11.2546 72.988 11.1298 73.6001 11.1298C74.1404 11.1298 74.6123 11.2409 75.0158 11.4632C75.4227 11.6855 75.7373 12.0172 75.9596 12.4583C76.1853 12.896 76.2981 13.4432 76.2981 14.0997V19.1112H74.7644V14.2844C74.7644 13.7065 74.6157 13.2585 74.3182 12.9405C74.0207 12.619 73.6069 12.4583 73.0769 12.4583C72.7144 12.4583 72.3895 12.5352 72.1023 12.6891C71.8185 12.843 71.5945 13.0687 71.4303 13.3662C71.2696 13.6603 71.1892 14.0159 71.1892 14.4331ZM87.8937 13.1559L86.5036 13.4021C86.4455 13.2243 86.3531 13.055 86.2266 12.8943C86.1035 12.7336 85.9359 12.6019 85.7239 12.4993C85.5119 12.3968 85.2469 12.3455 84.9289 12.3455C84.4946 12.3455 84.1321 12.4429 83.8414 12.6378C83.5508 12.8293 83.4054 13.0773 83.4054 13.3816C83.4054 13.6449 83.5029 13.8569 83.6978 14.0176C83.8927 14.1784 84.2073 14.31 84.6416 14.4126L85.8932 14.6999C86.6181 14.8674 87.1584 15.1256 87.5141 15.4744C87.8697 15.8232 88.0475 16.2763 88.0475 16.8337C88.0475 17.3056 87.9108 17.7262 87.6372 18.0955C87.367 18.4614 86.9892 18.7487 86.5036 18.9573C86.0214 19.1659 85.4623 19.2702 84.8263 19.2702C83.944 19.2702 83.2242 19.0821 82.6668 18.7059C82.1094 18.3264 81.7674 17.7878 81.6409 17.0902L83.1233 16.8645C83.2156 17.2509 83.4054 17.5433 83.6927 17.7416C83.9799 17.9365 84.3544 18.034 84.816 18.034C85.3187 18.034 85.7205 17.9297 86.0214 17.7211C86.3224 17.5091 86.4728 17.2509 86.4728 16.9465C86.4728 16.7003 86.3805 16.4934 86.1958 16.3259C86.0146 16.1583 85.7359 16.0318 85.3597 15.9463L84.0261 15.6539C83.2909 15.4864 82.7471 15.2196 82.3949 14.8537C82.0461 14.4878 81.8717 14.0245 81.8717 13.4637C81.8717 12.9986 82.0017 12.5917 82.2616 12.2429C82.5215 11.8941 82.8805 11.6222 83.3387 11.4273C83.797 11.229 84.3219 11.1298 84.9135 11.1298C85.765 11.1298 86.4352 11.3144 86.9242 11.6838C87.4132 12.0497 87.7364 12.5404 87.8937 13.1559ZM93.3227 11.2324V12.4634H89.0192V11.2324H93.3227ZM90.1733 9.34475H91.707V16.7978C91.707 17.0953 91.7514 17.3193 91.8403 17.4697C91.9293 17.6168 92.0438 17.7177 92.184 17.7724C92.3276 17.8237 92.4832 17.8493 92.6508 17.8493C92.7739 17.8493 92.8816 17.8408 92.9739 17.8237C93.0663 17.8066 93.1381 17.7929 93.1894 17.7826L93.4664 19.0496C93.3775 19.0838 93.2509 19.118 93.0868 19.1522C92.9227 19.1898 92.7175 19.2103 92.4713 19.2137C92.0678 19.2206 91.6916 19.1488 91.3428 18.9983C90.994 18.8479 90.7119 18.6153 90.4964 18.3007C90.281 17.9861 90.1733 17.5911 90.1733 17.1158V9.34475ZM95.9409 19.2086C95.6605 19.2086 95.4194 19.1095 95.2177 18.9111C95.0159 18.7094 94.915 18.4666 94.915 18.1827C94.915 17.9023 95.0159 17.663 95.2177 17.4646C95.4194 17.2629 95.6605 17.162 95.9409 17.162C96.2213 17.162 96.4624 17.2629 96.6642 17.4646C96.8659 17.663 96.9668 17.9023 96.9668 18.1827C96.9668 18.3708 96.9189 18.5435 96.8232 18.7008C96.7308 18.8547 96.6077 18.9778 96.4539 19.0701C96.3 19.1625 96.129 19.2086 95.9409 19.2086ZM100.928 17.6749L100.851 18.234C100.799 18.6444 100.712 19.0718 100.589 19.5164C100.469 19.9644 100.345 20.3798 100.215 20.7628C100.088 21.1458 99.9838 21.4502 99.9017 21.6759H98.8143C98.8587 21.4639 98.9203 21.1766 98.9989 20.8141C99.0776 20.4551 99.1545 20.0533 99.2297 19.6087C99.305 19.1642 99.3614 18.7111 99.399 18.2494L99.4503 17.6749H100.928ZM110.534 8.60611V19.1112H108.944V10.1962H108.882L106.369 11.8376V10.3193L108.99 8.60611H110.534ZM113.641 19.1112L118.227 10.0423V9.96541H112.923V8.60611H119.868V10.0116L115.298 19.1112H113.641Z" fill="#0E173C"/>
<path d="M14.0832 25.403C14.1778 25.2794 14.3155 25.1972 14.4672 25.1688C20.1451 24.1081 24.4444 19.0977 24.4444 13.0768C24.4444 6.28429 18.9724 0.777832 12.2222 0.777832C5.47207 0.777832 0 6.28429 0 13.0768C0 19.0977 4.29936 24.1081 9.97725 25.1688C10.1289 25.1972 10.2667 25.2794 10.3612 25.403L11.7395 27.2046C11.9841 27.5245 12.4603 27.5245 12.705 27.2046L14.0832 25.403Z" fill="#FCDE31"/>
<circle cx="12.2223" cy="13.0001" r="6.66667" fill="white"/>
</svg>
