<svg fill="none" height="219" width="349" xmlns="http://www.w3.org/2000/svg" xmlns:xlink="http://www.w3.org/1999/xlink"><clipPath id="a"><path d="m0 0h22.336v22.336h-22.336z" transform="translate(101.443 146.115)"/></clipPath><path d="m0 12c0-6.627 5.373-12 12-12h325c6.627 0 12 5.373 12 12v206.707h-349z" fill="#fff"/><rect fill="#fcde31" height="44.672" rx="8" width="311.773" x="18.613" y="134.947"/><g clip-path="url(#a)"><path d="m101.443 150.303v-3.316c0-.481.39-.872.872-.872h3.316a.872.872 0 0 1 0 1.745h-2.443v2.443a.872.872 0 0 1 -1.745 0zm21.463-4.188h-3.315a.873.873 0 1 0 0 1.745h2.443v2.443a.871.871 0 1 0 1.745 0v-3.316a.873.873 0 0 0 -.873-.872zm-17.275 20.591h-2.443v-2.443a.873.873 0 0 0 -1.745 0v3.315c0 .482.39.873.872.873h3.316a.872.872 0 0 0 0-1.745zm17.275-3.316a.872.872 0 0 0 -.872.873v2.443h-2.443a.873.873 0 1 0 0 1.745h3.315a.873.873 0 0 0 .873-.873v-3.315a.873.873 0 0 0 -.873-.873zm-11.059-12.978v5.235c0 .482-.39.873-.872.873h-5.235a.873.873 0 0 1 -.873-.873v-5.235c0-.482.391-.872.873-.872h5.235c.482 0 .872.39.872.872zm-1.745.873h-3.49v3.49h3.49zm9.816 5.235h-5.235a.873.873 0 0 1 -.873-.873v-5.235c0-.482.391-.872.873-.872h5.235c.482 0 .872.39.872.872v5.235c0 .482-.39.873-.872.873zm-.873-5.235h-3.49v3.49h3.49zm-7.198 8.07v5.235c0 .482-.39.873-.872.873h-5.235a.873.873 0 0 1 -.873-.873v-5.235c0-.482.391-.872.873-.872h5.235c.482 0 .872.39.872.872zm-1.745.873h-3.49v3.49h3.49zm8.692 4.111h-2.988a.871.871 0 0 1 -.872-.872v-2.988c0-.482.39-.873.872-.873h2.988c.482 0 .873.391.873.873v2.988a.872.872 0 0 1 -.873.872zm-.872-2.988h-1.243v1.243h1.243z" fill="#0e173c"/></g><path d="m134.835 156.854h2.473c.681 0 1.209-.175 1.586-.523.371-.349.556-.841.556-1.478 0-.625-.194-1.115-.581-1.469-.393-.36-.93-.54-1.61-.54h-2.424zm0 6.192h-2.142v-11.978h4.864c1.257 0 2.253.338 2.989 1.013.736.669 1.104 1.58 1.104 2.731 0 .797-.197 1.497-.59 2.1a3.244 3.244 0 0 1 -1.668 1.311l2.615 4.823h-2.449l-2.349-4.491h-2.374zm12.315-7.628c-.614 0-1.121.202-1.519.606-.399.404-.62.938-.664 1.602h4.275c-.023-.676-.222-1.212-.598-1.611-.376-.398-.874-.597-1.494-.597zm4.059 5.129a3.132 3.132 0 0 1 -1.361 1.959c-.72.482-1.611.723-2.673.723-1.334 0-2.383-.418-3.146-1.254-.758-.83-1.137-1.975-1.137-3.436s.381-2.621 1.145-3.478c.764-.853 1.804-1.279 3.121-1.279 1.295 0 2.31.407 3.047 1.221.73.808 1.095 1.928 1.095 3.361v.664h-6.342v.108c.028.758.244 1.356.648 1.793.409.443.952.664 1.627.664 1.04 0 1.715-.348 2.025-1.046zm1.748-6.582h1.984v1.453h.141c.216-.51.576-.908 1.079-1.196.509-.293 1.101-.44 1.777-.44 1.012 0 1.793.294 2.34.88.548.587.822 1.422.822 2.507v5.877h-2.05v-5.387c0-1.389-.625-2.084-1.876-2.084-.664 0-1.19.197-1.577.59-.388.393-.581.924-.581 1.593v5.288h-2.059zm12.888-2.167v2.225h1.992v1.644h-1.992v4.457c0 .863.415 1.295 1.245 1.295.188 0 .415-.014.681-.041v1.61c-.332.066-.686.1-1.063.1-1.04 0-1.787-.191-2.241-.573-.448-.382-.672-1.013-.672-1.893v-4.955h-1.478v-1.644h1.478v-2.225zm10.818 9.779c.619 0 1.137-.177 1.552-.531.415-.36.622-.803.622-1.329v-.722l-2.05.133c-1.129.072-1.693.481-1.693 1.229 0 .376.146.675.44.896.288.216.664.324 1.129.324zm-.606 1.618c-.886 0-1.605-.246-2.159-.738-.564-.504-.846-1.165-.846-1.984s.299-1.461.896-1.926c.592-.465 1.442-.73 2.549-.797l2.34-.141v-.764c0-.924-.57-1.386-1.71-1.386-.996 0-1.59.316-1.784.946h-1.943c.083-.802.474-1.438 1.171-1.909.692-.476 1.577-.714 2.656-.714 1.162 0 2.061.269 2.698.806.631.536.946 1.289.946 2.257v6.201h-1.984v-1.245h-.141c-.537.93-1.433 1.394-2.689 1.394zm16.055 0c-1.345 0-2.291-.528-2.839-1.585h-.141v1.436h-1.984v-12.592h2.059v4.955h.141a2.692 2.692 0 0 1 1.096-1.17 3.294 3.294 0 0 1 1.668-.423c1.151 0 2.059.417 2.723 1.253.669.841 1.004 1.987 1.004 3.436 0 1.445-.335 2.588-1.004 3.429-.67.841-1.577 1.261-2.723 1.261zm-.647-7.628c-.703 0-1.259.263-1.669.789-.415.531-.622 1.247-.622 2.149 0 .908.204 1.625.614 2.15.415.526.974.789 1.677.789s1.256-.263 1.66-.789c.398-.52.598-1.236.598-2.15 0-.913-.202-1.632-.606-2.158-.399-.52-.949-.78-1.652-.78zm9.136 6.01c.619 0 1.137-.177 1.552-.531.415-.36.622-.803.622-1.329v-.722l-2.05.133c-1.129.072-1.693.481-1.693 1.229 0 .376.146.675.44.896.287.216.664.324 1.129.324zm-.606 1.618c-.886 0-1.605-.246-2.159-.738-.564-.504-.846-1.165-.846-1.984s.299-1.461.896-1.926c.592-.465 1.442-.73 2.549-.797l2.34-.141v-.764c0-.924-.57-1.386-1.71-1.386-.996 0-1.591.316-1.784.946h-1.943c.083-.802.474-1.438 1.171-1.909.692-.476 1.577-.714 2.656-.714 1.162 0 2.061.269 2.698.806.631.536.946 1.289.946 2.257v6.201h-1.984v-1.245h-.141c-.537.93-1.433 1.394-2.689 1.394zm9.592-11.397v2.225h1.992v1.644h-1.992v4.457c0 .863.415 1.295 1.245 1.295.188 0 .415-.014.681-.041v1.61c-.332.066-.686.1-1.063.1-1.04 0-1.787-.191-2.241-.573-.448-.382-.672-1.013-.672-1.893v-4.955h-1.478v-1.644h1.478v-2.225zm6.347 0v2.225h1.992v1.644h-1.992v4.457c0 .863.415 1.295 1.245 1.295.188 0 .415-.014.681-.041v1.61c-.332.066-.686.1-1.063.1-1.04 0-1.787-.191-2.241-.573-.448-.382-.672-1.013-.672-1.893v-4.955h-1.478v-1.644h1.478v-2.225zm7.318 3.62c-.614 0-1.121.202-1.519.606-.399.404-.62.938-.664 1.602h4.275c-.022-.676-.222-1.212-.598-1.611-.376-.398-.874-.597-1.494-.597zm4.059 5.129a3.128 3.128 0 0 1 -1.361 1.959c-.72.482-1.611.723-2.673.723-1.334 0-2.382-.418-3.146-1.254-.758-.83-1.137-1.975-1.137-3.436s.381-2.621 1.145-3.478c.764-.853 1.804-1.279 3.121-1.279 1.295 0 2.311.407 3.047 1.221.73.808 1.095 1.928 1.095 3.361v.664h-6.341v.108c.027.758.243 1.356.647 1.793.41.443.952.664 1.627.664 1.04 0 1.715-.348 2.025-1.046zm1.748-6.582h1.984v1.411h.141c.128-.454.41-.827.847-1.121.448-.293.96-.439 1.536-.439.354 0 .636.03.846.091v1.909c-.21-.077-.559-.116-1.046-.116-.664 0-1.203.191-1.618.573-.421.387-.631.896-.631 1.527v5.246h-2.059zm7.642 12.385c-.426 0-.697-.011-.813-.033v-1.677c.116.016.304.025.564.025.836 0 1.378-.393 1.627-1.179l.108-.398-3.246-9.123h2.258l2.125 7.089h.141l2.117-7.089h2.175l-3.279 9.372c-.388 1.123-.858 1.906-1.411 2.349-.559.442-1.348.664-2.366.664z" fill="#0e173c"/><path clip-rule="evenodd" d="m25.128 115.159c3.598 0 6.515-2.946 6.515-6.579 0-3.634-2.917-6.58-6.515-6.58s-6.515 2.946-6.515 6.58c0 3.633 2.917 6.579 6.515 6.579z" stroke="#69c0ac" stroke-linecap="round" stroke-linejoin="round" stroke-width="1.5"/><path d="m25.128 105.759v2.82l1.396 1.41" stroke="#69c0ac" stroke-linecap="round" stroke-linejoin="round" stroke-width="1.5"/><path d="m43.331 105.371c1.1 0 1.966.365 2.6 1.096.63.727.945 1.713.945 2.959s-.313 2.233-.94 2.96c-.637.734-1.506 1.101-2.605 1.101-1.106 0-1.978-.367-2.616-1.101-.63-.727-.945-1.714-.945-2.96s.32-2.234.961-2.964c.638-.727 1.504-1.091 2.6-1.091zm0 .892c-.788 0-1.413.284-1.875.854-.461.569-.692 1.339-.692 2.309 0 .971.227 1.739.682 2.305.458.576 1.087.864 1.885.864.791 0 1.416-.288 1.875-.864.45-.57.676-1.338.676-2.305 0-.974-.227-1.743-.682-2.309-.455-.57-1.078-.854-1.869-.854zm7.998 1.149c.737 0 1.328.272 1.772.817.44.544.66 1.271.66 2.18 0 .906-.221 1.631-.665 2.176-.444.547-1.033.821-1.767.821-.87 0-1.474-.324-1.81-.972h-.086v2.804h-.924v-7.724h.88v.967h.087c.186-.333.442-.594.768-.784.33-.19.69-.285 1.085-.285zm-.22 5.162c.53 0 .945-.192 1.246-.575.3-.383.45-.913.45-1.59 0-.676-.15-1.206-.45-1.59-.297-.383-.711-.574-1.241-.574-.523 0-.938.193-1.246.58-.308.39-.462.918-.462 1.584 0 .663.154 1.189.462 1.579.304.391.718.586 1.24.586zm6.483-4.345c-.462 0-.842.155-1.139.467-.297.311-.464.723-.5 1.235h3.19c-.01-.512-.157-.924-.44-1.235-.282-.312-.653-.467-1.111-.467zm2.449 3.577c-.14.501-.423.891-.849 1.171-.43.286-.96.429-1.59.429-.802 0-1.437-.27-1.906-.811-.47-.537-.704-1.264-.704-2.18 0-.913.236-1.642.709-2.186.473-.545 1.106-.817 1.901-.817.781 0 1.395.26 1.843.779.447.519.671 1.23.671 2.132v.355h-4.163v.043c.025.573.187 1.027.484 1.364.3.337.696.505 1.187.505.748 0 1.246-.261 1.493-.784zm1.595-4.292h.881v.913h.086c.308-.676.924-1.015 1.848-1.015.648 0 1.147.185 1.498.553.351.373.527.903.527 1.59v3.749h-.924v-3.523c0-1.024-.455-1.536-1.365-1.536-.508 0-.905.145-1.192.435-.29.29-.435.689-.435 1.198v3.426h-.924z" fill="#69c0ac"/><path d="m302.387 106.628h-.086l-1.971 1.429v-1.021l2.062-1.482h.962v7.75h-.967zm5.957 6.859c-.874 0-1.551-.355-2.031-1.064-.479-.709-.719-1.708-.719-2.997 0-1.278.241-2.273.725-2.986.483-.713 1.158-1.069 2.025-1.069.863 0 1.534.358 2.014 1.074.483.717.725 1.716.725 2.998 0 1.285-.238 2.28-.714 2.986-.48.705-1.155 1.058-2.025 1.058zm0-.843c.573 0 1.009-.276 1.31-.827.305-.555.457-1.352.457-2.391 0-1.027-.152-1.819-.457-2.374-.308-.555-.745-.832-1.31-.832-.566 0-1.005.279-1.316.838-.308.555-.462 1.344-.462 2.368 0 1.035.154 1.83.462 2.385.304.555.743.833 1.316.833zm6.998.843c-.873 0-1.55-.355-2.03-1.064s-.72-1.708-.72-2.997c0-1.278.242-2.273.725-2.986.484-.713 1.159-1.069 2.025-1.069.863 0 1.535.358 2.015 1.074.483.717.725 1.716.725 2.998 0 1.285-.238 2.28-.715 2.986-.48.705-1.154 1.058-2.025 1.058zm0-.843c.573 0 1.01-.276 1.311-.827.304-.555.456-1.352.456-2.391 0-1.027-.152-1.819-.456-2.374-.308-.555-.745-.832-1.311-.832-.565 0-1.004.279-1.316.838-.307.555-.461 1.344-.461 2.368 0 1.035.154 1.83.461 2.385.305.555.743.833 1.316.833zm7.622.66v-5.79h1.123l2.073 4.491h.086l2.079-4.491h1.079v5.79h-.929v-4.119h-.102l-1.832 3.958h-.719l-1.832-3.958h-.102v4.119z" fill="#999c9b"/><path clip-rule="evenodd" d="m279.2 108.233 13.029-6.233-6.172 13.159-1.371-5.54z" fill="#999c9b" fill-rule="evenodd"/><path d="m23.063 40.197v-10.127h-3.686v-1.85h9.52v1.85h-3.693v10.127h-2.142zm7.533-12.592h2.026v4.98h.15c.215-.508.575-.91 1.078-1.203.51-.288 1.102-.432 1.777-.432 1.018 0 1.806.294 2.365.88.565.592.847 1.428.847 2.507v5.86h-2.05v-5.37c0-1.39-.642-2.084-1.926-2.084-.67 0-1.206.202-1.61.606-.399.393-.598.919-.598 1.577v5.271h-2.059zm14.092 4.964c-.614 0-1.12.202-1.52.606-.398.404-.619.938-.663 1.602h4.275c-.023-.675-.222-1.212-.598-1.61-.376-.399-.874-.598-1.494-.598zm4.059 5.13a3.133 3.133 0 0 1 -1.361 1.959c-.72.481-1.61.722-2.673.722-1.334 0-2.383-.418-3.146-1.253-.758-.83-1.138-1.976-1.138-3.437 0-1.46.382-2.62 1.146-3.478.764-.852 1.804-1.278 3.121-1.278 1.295 0 2.31.406 3.047 1.22.73.808 1.095 1.928 1.095 3.362v.664h-6.342v.108c.028.758.244 1.356.648 1.793.41.442.952.664 1.627.664 1.04 0 1.715-.349 2.025-1.046h1.95zm12.801-.565h-4.407l-1.03 3.063h-2.166l4.25-11.978h2.407l4.259 11.978h-2.3zm-3.91-1.693h3.412l-1.627-4.939h-.14l-1.644 4.939zm8.738-7.836h2.059v12.592h-2.059zm9.302 12.742c-1.344 0-2.29-.529-2.839-1.586h-.14v1.436h-1.985v-12.592h2.059v4.956h.141a2.69 2.69 0 0 1 1.096-1.17 3.295 3.295 0 0 1 1.668-.424c1.151 0 2.059.418 2.723 1.253.67.842 1.004 1.987 1.004 3.437 0 1.444-.335 2.587-1.004 3.428-.67.841-1.577 1.262-2.723 1.262zm-.647-7.629c-.703 0-1.26.263-1.669.789-.415.531-.622 1.248-.622 2.15 0 .907.205 1.624.614 2.15.415.526.974.788 1.677.788s1.256-.262 1.66-.788c.398-.52.597-1.237.597-2.15s-.201-1.633-.605-2.158c-.399-.52-.95-.78-1.652-.78zm9.841-.149c-.614 0-1.12.202-1.519.606-.398.404-.62.938-.664 1.602h4.275c-.022-.675-.221-1.212-.598-1.61-.376-.399-.874-.598-1.494-.598zm4.06 5.13a3.133 3.133 0 0 1 -1.362 1.959c-.72.481-1.61.722-2.673.722-1.334 0-2.382-.418-3.146-1.253-.758-.83-1.137-1.976-1.137-3.437 0-1.46.382-2.62 1.145-3.478.764-.852 1.804-1.278 3.121-1.278 1.295 0 2.31.406 3.047 1.22.73.808 1.096 1.928 1.096 3.362v.664h-6.343v.108c.028.758.243 1.356.647 1.793.41.442.952.664 1.627.664 1.04 0 1.716-.349 2.026-1.046h1.95zm1.748-6.583h1.983v1.412h.142c.127-.454.409-.828.846-1.121.448-.293.96-.44 1.536-.44.354 0 .636.03.847.091v1.91c-.21-.078-.56-.117-1.046-.117-.665 0-1.204.191-1.62.573-.42.387-.63.896-.63 1.527v5.246h-2.058v-9.08zm9.683-2.166v2.224h1.992v1.644h-1.992v4.458c0 .863.415 1.294 1.245 1.294.188 0 .415-.013.681-.041v1.61a5.41 5.41 0 0 1 -1.062.1c-1.041 0-1.788-.191-2.242-.573-.448-.382-.672-1.013-.672-1.892v-4.956h-1.478v-1.644h1.478v-2.224zm3.707 4.134.98-4.865h1.992l-1.17 4.865zm3.816.63c0-.819.337-1.488 1.012-2.008.675-.515 1.55-.772 2.623-.772 1.079 0 1.94.227 2.582.68.647.46 1.007 1.102 1.079 1.926h-1.934c-.161-.697-.733-1.046-1.718-1.046-.476 0-.866.103-1.171.307-.315.205-.473.47-.473.797 0 .487.448.833 1.345 1.038l1.602.365c.874.2 1.513.493 1.917.88.415.398.623.93.623 1.594 0 .868-.363 1.571-1.088 2.108-.713.531-1.64.797-2.78.797-1.135 0-2.04-.232-2.715-.697-.68-.465-1.059-1.11-1.137-1.934h2.034c.21.713.833 1.07 1.867 1.07.521 0 .944-.105 1.27-.315.327-.205.49-.476.49-.813 0-.504-.418-.847-1.253-1.03l-1.611-.373c-1.71-.393-2.564-1.25-2.564-2.573zm13.498 6.483v-11.977h2.507l3.603 8.724h.149l3.603-8.724h2.507v11.978h-1.993v-8.425h-.116l-3.312 7.96h-1.527l-3.312-7.96h-.116v8.425h-1.993zm17.802-1.469c.62 0 1.137-.177 1.553-.531.415-.36.622-.803.622-1.328v-.722l-2.05.132c-1.129.072-1.694.482-1.694 1.229 0 .376.147.675.44.896.288.216.664.324 1.129.324zm-.606 1.619c-.885 0-1.605-.247-2.158-.739-.564-.503-.847-1.165-.847-1.984s.299-1.46.897-1.926c.592-.465 1.441-.73 2.548-.797l2.341-.14v-.764c0-.924-.57-1.386-1.71-1.386-.996 0-1.591.315-1.785.946h-1.942c.083-.803.473-1.439 1.17-1.91.692-.475 1.578-.713 2.657-.713 1.162 0 2.061.268 2.697.805.631.537.947 1.29.947 2.258v6.2h-1.984v-1.245h-.141c-.537.93-1.434 1.395-2.69 1.395zm6.97-12.742h2.058v12.592h-2.058zm4.338 0h2.058v12.592h-2.058z" fill="#0e173c"/><path d="m321.08 53.675a7.756 7.756 0 1 0 0-15.512 7.756 7.756 0 0 0 0 15.513z" style="fill-rule:evenodd;clip-rule:evenodd;fill:#f0f0f0;stroke:#f0f0f0;stroke-linecap:round;stroke-linejoin:round"/><path d="m323.407 43.593-4.654 4.654m0-4.654 4.654 4.654" stroke="#868b9e" stroke-linecap="round" stroke-linejoin="round"/><path d="m25.371 77.701v-.125h-5.82v-1.256h7.226v1.304l-5.015 9.969h-1.477l5.086-9.89zm7.673 9.891v-11.273h4.312c1.031 0 1.846.252 2.445.757.594.506.891 1.19.891 2.055 0 .583-.188 1.11-.563 1.578-.38.469-.84.753-1.382.852v.125c.77.099 1.383.393 1.836.883.453.494.68 1.114.68 1.859 0 .995-.337 1.77-1.008 2.328-.678.557-1.615.836-2.813.836zm1.406-6.414h2.25c1.713 0 2.57-.602 2.57-1.805 0-.573-.193-1.018-.578-1.336-.39-.317-.935-.476-1.633-.476h-2.61v3.617zm2.781 5.172c1.724 0 2.586-.664 2.586-1.992 0-1.313-.906-1.97-2.719-1.97h-2.648v3.962zm8.43.21c.693 0 1.266-.2 1.719-.6a1.92 1.92 0 0 0 .687-1.509v-.773l-2.265.148c-1.23.084-1.844.542-1.844 1.375 0 .422.161.756.484 1 .313.24.72.36 1.22.36zm-.25 1.18c-.828 0-1.505-.226-2.031-.68-.542-.457-.813-1.067-.813-1.827 0-.75.266-1.339.797-1.766.532-.427 1.29-.67 2.274-.727l2.43-.148v-.766c0-1.072-.636-1.609-1.907-1.609-1.068 0-1.7.349-1.898 1.047h-1.36c.089-.672.438-1.214 1.047-1.625.604-.411 1.357-.617 2.258-.617 1.02 0 1.813.247 2.375.742.552.495.828 1.182.828 2.062v5.766h-1.281v-1.242h-.125c-.563.927-1.427 1.39-2.594 1.39zm8.07-10.671v2.101h1.954v1.125h-1.953v4.766c0 .495.099.854.297 1.078.197.224.515.336.953.336.182 0 .385-.01.61-.031v1.132a4.559 4.559 0 0 1 -.774.079c-.87 0-1.492-.175-1.867-.524-.376-.349-.563-.924-.563-1.727v-5.109h-1.414v-1.125h1.414v-2.1h1.344zm5.493 0v2.101h1.953v1.125h-1.953v4.766c0 .495.1.854.297 1.078.198.224.516.336.953.336.183 0 .386-.01.61-.031v1.132a4.559 4.559 0 0 1 -.774.079c-.87 0-1.492-.175-1.867-.524s-.563-.924-.563-1.727v-5.109h-1.414v-1.125h1.414v-2.1h1.344zm6.82 3.14c-.671 0-1.223.227-1.655.68-.433.453-.675 1.052-.727 1.797h4.64c-.015-.745-.229-1.344-.64-1.797s-.95-.68-1.617-.68zm3.563 5.203a2.898 2.898 0 0 1 -1.234 1.703c-.625.417-1.396.626-2.313.626-1.166 0-2.09-.394-2.773-1.18-.682-.782-1.023-1.839-1.023-3.172 0-1.328.343-2.388 1.03-3.18.688-.791 1.61-1.187 2.767-1.187 1.135 0 2.028.377 2.68 1.132.65.756.976 1.79.976 3.102v.516h-6.055v.062c.037.834.27 1.495.703 1.985.438.49 1.013.734 1.727.734 1.088 0 1.812-.38 2.172-1.14h1.343zm1.9-6.242h1.28v1.25h.125c.125-.411.407-.747.844-1.008a2.86 2.86 0 0 1 1.492-.39c.255 0 .48.013.672.039v1.343c-.182-.051-.469-.078-.86-.078-.64 0-1.169.193-1.585.579-.417.385-.625.874-.625 1.468v5.219h-1.344v-8.422zm5.851 0h1.344v8.422h-1.344zm.672-1.71a.92.92 0 0 1 -.664-.274.921.921 0 0 1 -.274-.664c0-.26.091-.482.274-.664a.92.92 0 0 1 .664-.274c.26 0 .482.091.664.274a.904.904 0 0 1 .273.664.921.921 0 0 1 -.273.664.904.904 0 0 1 -.664.273zm6.274 2.75c-.672 0-1.224.226-1.657.679-.432.453-.674 1.052-.726 1.797h4.64c-.015-.745-.229-1.344-.64-1.797-.412-.453-.95-.68-1.617-.68zm3.562 5.202a2.898 2.898 0 0 1 -1.234 1.703c-.625.417-1.396.626-2.313.626-1.166 0-2.09-.394-2.773-1.18-.683-.782-1.024-1.839-1.024-3.172 0-1.328.344-2.388 1.032-3.18.687-.791 1.609-1.187 2.765-1.187 1.136 0 2.029.377 2.68 1.132.65.756.977 1.79.977 3.102v.516h-6.056v.062c.036.834.27 1.495.703 1.985.437.49 1.013.734 1.727.734 1.088 0 1.812-.38 2.171-1.14h1.344zm1.704-3.937c0-.698.299-1.281.898-1.75s1.346-.703 2.242-.703c.88 0 1.607.203 2.18.61.573.405.903.955.992 1.647h-1.328a1.36 1.36 0 0 0 -.61-.812c-.328-.203-.742-.305-1.242-.305-.505 0-.927.115-1.265.344-.344.24-.516.544-.516.914 0 .547.487.94 1.461 1.18l1.297.312c.802.193 1.393.47 1.773.828.386.37.579.855.579 1.454 0 .744-.323 1.356-.97 1.835-.635.475-1.437.712-2.406.712-.937 0-1.705-.209-2.304-.626-.6-.416-.935-.974-1.008-1.671h1.383c.245.776.903 1.164 1.976 1.164.568 0 1.034-.123 1.399-.368.364-.244.547-.56.547-.945 0-.573-.446-.969-1.336-1.187l-1.446-.352c-.796-.193-1.377-.469-1.742-.828-.37-.365-.554-.849-.554-1.453zm13.649 1.453a1.08 1.08 0 0 1 -.797-.313 1.077 1.077 0 0 1 -.313-.796c0-.323.104-.589.313-.797a1.08 1.08 0 0 1 .797-.313c.317 0 .58.104.789.313.203.208.304.474.304.797 0 .322-.101.588-.304.796a1.072 1.072 0 0 1 -.789.313zm10.281-5.047h-.125l-2.867 2.078v-1.484l3-2.156h1.399v11.273h-1.407v-9.71zm4.384 1.61c0-1 .341-1.823 1.023-2.47.677-.645 1.539-.968 2.586-.968 1.01 0 1.859.305 2.547.914.682.604 1.023 1.354 1.023 2.25 0 .589-.166 1.164-.5 1.727-.333.572-.961 1.354-1.883 2.343l-2.71 2.914v.125h5.281v1.266h-7.297v-.969l3.898-4.258c.724-.786 1.206-1.385 1.446-1.796.239-.412.359-.844.359-1.297a1.85 1.85 0 0 0 -.633-1.422c-.427-.38-.95-.57-1.57-.57-.662 0-1.195.203-1.602.609-.406.406-.609.94-.609 1.602v.007h-1.359v-.008zm20.781 8.101h-6.984v-11.273h6.984v1.265h-5.578v3.617h5.289v1.25h-5.289v3.875h5.578zm2.055-8.422h1.282v1.328h.125c.401-.984 1.185-1.476 2.351-1.476 1.115 0 1.891.492 2.328 1.476h.125a2.54 2.54 0 0 1 1.024-1.07c.463-.27.982-.406 1.555-.406.859 0 1.52.237 1.984.71.463.48.695 1.16.695 2.04v5.82h-1.344v-5.508c0-1.234-.591-1.851-1.773-1.851-.573 0-1.044.19-1.414.57-.359.37-.539.828-.539 1.375v5.414h-1.344v-5.719c0-.5-.159-.898-.476-1.195-.323-.297-.75-.445-1.282-.445-.547 0-1.01.208-1.39.625-.375.416-.563.921-.563 1.515v5.219h-1.344zm17.704-.148c1.073 0 1.932.396 2.578 1.187.641.792.961 1.85.961 3.172 0 1.318-.323 2.373-.969 3.164-.646.797-1.502 1.195-2.57 1.195-1.266 0-2.143-.47-2.633-1.414h-.125v4.079h-1.344v-11.235h1.282v1.406h.125c.27-.484.643-.864 1.117-1.14a3.104 3.104 0 0 1 1.578-.414zm-.32 7.507c.77 0 1.375-.278 1.812-.835.438-.558.656-1.329.656-2.313s-.218-1.755-.656-2.312c-.432-.558-1.034-.836-1.805-.836-.76 0-1.364.28-1.812.843-.448.568-.672 1.336-.672 2.305 0 .964.224 1.73.672 2.297.443.568 1.044.852 1.805.852zm7.555-9.46v2.101h1.953v1.125h-1.953v4.766c0 .495.099.854.296 1.078.198.224.516.336.954.336.182 0 .385-.01.609-.031v1.132a4.562 4.562 0 0 1 -.773.079c-.87 0-1.493-.175-1.868-.524s-.562-.924-.562-1.727v-5.109h-1.414v-1.125h1.414v-2.1h1.344zm4.305 13.578c-.214 0-.414-.016-.602-.047v-1.15c.135.027.323.04.563.04.385 0 .695-.105.929-.313.235-.214.44-.573.617-1.078l.157-.5-3.118-8.43h1.454l2.312 6.93h.125l2.305-6.93h1.429l-3.289 8.938c-.359.974-.742 1.64-1.148 2-.411.359-.99.539-1.734.539zm12.899-6c.088.588.393 1.057.914 1.406s1.182.523 1.984.523c.761 0 1.388-.182 1.883-.546.5-.37.75-.834.75-1.391 0-.927-.753-1.58-2.258-1.961l-1.445-.375c-1.021-.255-1.763-.625-2.227-1.11-.463-.484-.695-1.127-.695-1.93 0-.957.367-1.73 1.101-2.32.73-.593 1.691-.89 2.883-.89 1.089 0 2 .292 2.735.875.734.583 1.13 1.33 1.187 2.242h-1.414c-.099-.578-.372-1.031-.82-1.36-.453-.322-1.031-.484-1.735-.484-.75 0-1.351.172-1.804.516-.459.349-.688.807-.688 1.375 0 .443.167.802.5 1.078.339.276.896.513 1.672.711l1.18.313c1.166.291 2.005.682 2.515 1.171.506.49.758 1.149.758 1.977 0 1.037-.38 1.86-1.14 2.469-.761.614-1.784.922-3.071.922-1.192 0-2.172-.292-2.937-.875-.761-.584-1.177-1.362-1.25-2.336zm8.906-8.82h1.344v11.765h-1.344v-11.766zm7.094 10.703c.797 0 1.412-.276 1.844-.829.432-.546.648-1.32.648-2.32s-.216-1.776-.648-2.328c-.432-.547-1.047-.82-1.844-.82s-1.411.273-1.843.82c-.433.552-.649 1.328-.649 2.328s.216 1.773.649 2.32c.432.553 1.046.829 1.843.829zm0 1.21c-1.198 0-2.146-.387-2.843-1.164-.693-.78-1.04-1.846-1.04-3.195 0-1.354.347-2.42 1.04-3.195.692-.776 1.64-1.164 2.843-1.164s2.151.388 2.844 1.164 1.039 1.84 1.039 3.195c0 1.35-.346 2.414-1.039 3.195-.698.777-1.646 1.165-2.844 1.165zm7.579-10.671v2.101h1.953v1.125h-1.953v4.766c0 .495.099.854.297 1.078s.515.336.953.336c.182 0 .385-.01.609-.031v1.132a4.562 4.562 0 0 1 -.773.079c-.87 0-1.493-.175-1.868-.524s-.562-.924-.562-1.727v-5.109h-1.414v-1.125h1.414v-2.1h1.344zm3.234 4.406c0-.698.3-1.281.899-1.75s1.346-.703 2.242-.703c.88 0 1.607.203 2.18.61a2.3 2.3 0 0 1 .992 1.647h-1.328a1.36 1.36 0 0 0 -.61-.812c-.328-.203-.742-.305-1.242-.305-.505 0-.927.115-1.265.344-.344.24-.516.544-.516.914 0 .547.487.94 1.461 1.18l1.297.312c.802.193 1.393.47 1.773.828.386.37.578.855.578 1.454 0 .744-.323 1.356-.968 1.835-.636.475-1.438.712-2.407.712-.937 0-1.705-.209-2.304-.626-.599-.416-.935-.974-1.008-1.671h1.383c.244.776.903 1.164 1.976 1.164.568 0 1.034-.123 1.399-.368.364-.244.547-.56.547-.945 0-.573-.446-.969-1.336-1.187l-1.446-.352c-.797-.193-1.377-.469-1.742-.828-.37-.365-.555-.849-.555-1.453z" fill="#0e173c"/><path d="m23.628 51.02c1.3 0 2.323.43 3.072 1.294.745.86 1.117 2.025 1.117 3.498 0 1.472-.37 2.638-1.11 3.497-.754.868-1.78 1.302-3.08 1.302-1.307 0-2.337-.434-3.09-1.302-.745-.859-1.118-2.025-1.118-3.497 0-1.473.38-2.641 1.137-3.504.753-.86 1.777-1.289 3.072-1.289zm0 1.053c-.931 0-1.67.336-2.215 1.01-.546.672-.82 1.582-.82 2.729s.27 2.054.807 2.723c.542.681 1.284 1.022 2.228 1.022.935 0 1.674-.34 2.215-1.022.534-.673.8-1.58.8-2.723 0-1.151-.269-2.061-.806-2.73-.538-.673-1.274-1.01-2.21-1.01zm6.02-1.238h1.092v9.56h-1.092zm5.665 9.68c-.876 0-1.575-.321-2.095-.965-.52-.643-.78-1.502-.78-2.577 0-1.07.261-1.93.786-2.577.52-.643 1.217-.965 2.089-.965.478 0 .905.106 1.282.318.38.215.669.51.863.882h.095v-3.796h1.092v9.56h-1.04v-1.092h-.102c-.457.808-1.187 1.212-2.19 1.212zm.254-6.1c-.623 0-1.111.227-1.467.68-.355.456-.533 1.083-.533 1.878 0 .8.178 1.426.533 1.88.352.452.84.678 1.467.678.622 0 1.112-.228 1.472-.685s.54-1.081.54-1.873c0-.783-.18-1.405-.54-1.866-.364-.461-.855-.692-1.472-.692zm11.809 5.98h-1.111l-1.53-5.294h-.102l-1.523 5.294h-1.104l-1.917-6.843h1.104l1.346 5.472h.101l1.53-5.472h1.047l1.53 5.472h.102l1.346-5.472h1.098zm5.855-.864c.647 0 1.147-.224 1.498-.672.351-.445.527-1.073.527-1.886 0-.812-.176-1.443-.527-1.891-.351-.445-.85-.667-1.498-.667s-1.147.222-1.498.667c-.351.448-.527 1.079-.527 1.891 0 .813.175 1.441.527 1.886.351.448.85.672 1.498.672zm0 .984c-.974 0-1.744-.315-2.31-.946-.564-.634-.845-1.5-.845-2.596 0-1.1.281-1.965.844-2.596.563-.63 1.333-.946 2.31-.946.978 0 1.748.316 2.311.946s.845 1.496.845 2.596c0 1.096-.282 1.962-.845 2.596-.567.631-1.337.946-2.31.946zm7.6-.984c.648 0 1.147-.224 1.498-.672.352-.445.527-1.073.527-1.886 0-.812-.175-1.443-.526-1.891-.352-.445-.851-.667-1.499-.667-.647 0-1.146.222-1.498.667-.35.448-.526 1.079-.526 1.891 0 .813.175 1.441.526 1.886.352.448.851.672 1.498.672zm0 .984c-.973 0-1.743-.315-2.31-.946-.563-.634-.844-1.5-.844-2.596 0-1.1.281-1.965.844-2.596.563-.63 1.333-.946 2.31-.946.978 0 1.748.316 2.311.946s.844 1.496.844 2.596c0 1.096-.281 1.962-.844 2.596-.567.631-1.337.946-2.31.946zm7.322 0c-.876 0-1.574-.321-2.095-.965-.52-.643-.78-1.502-.78-2.577 0-1.07.262-1.93.786-2.577.52-.643 1.217-.965 2.089-.965.478 0 .905.106 1.282.318.38.215.669.51.863.882h.096v-3.796h1.091v9.56h-1.04v-1.092h-.102c-.457.808-1.187 1.212-2.19 1.212zm.254-6.1c-.622 0-1.111.227-1.467.68-.355.456-.533 1.083-.533 1.878 0 .8.178 1.426.533 1.88.352.452.84.678 1.467.678.622 0 1.113-.228 1.472-.685.36-.457.54-1.081.54-1.873 0-.783-.18-1.405-.54-1.866-.364-.461-.854-.692-1.472-.692zm9.99 1.34h2.253c.588 0 1.041-.153 1.358-.458.322-.3.483-.732.483-1.294 0-.55-.167-.98-.502-1.289-.334-.309-.797-.463-1.39-.463h-2.202zm0 4.64h-1.143v-9.16h3.498c.884 0 1.59.248 2.12.743.533.499.8 1.161.8 1.986 0 .64-.163 1.192-.49 1.657-.325.466-.776.79-1.351.971l2.12 3.803h-1.34l-1.961-3.625h-2.253zm9.752-.864c.648 0 1.147-.224 1.498-.672.351-.445.527-1.073.527-1.886 0-.812-.176-1.443-.527-1.891-.351-.445-.85-.667-1.498-.667-.647 0-1.147.222-1.498.667-.351.448-.527 1.079-.527 1.891 0 .813.176 1.441.527 1.886.351.448.85.672 1.498.672zm0 .984c-.973 0-1.743-.315-2.31-.946-.563-.634-.845-1.5-.845-2.596 0-1.1.282-1.965.845-2.596.562-.63 1.333-.946 2.31-.946.978 0 1.748.316 2.31.946.563.63.845 1.496.845 2.596 0 1.096-.282 1.962-.844 2.596-.567.631-1.338.946-2.31.946zm6.896-.958c.563 0 1.028-.163 1.397-.489a1.56 1.56 0 0 0 .558-1.225v-.629l-1.84.121c-1 .068-1.499.44-1.499 1.117 0 .343.132.614.394.813.254.194.584.292.99.292zm-.203.958c-.673 0-1.223-.184-1.65-.552-.44-.372-.66-.867-.66-1.485 0-.61.215-1.088.647-1.435s1.047-.544 1.847-.59l1.974-.12v-.623c0-.872-.516-1.307-1.549-1.307-.867 0-1.381.283-1.542.85h-1.105c.072-.546.356-.986.851-1.32.491-.335 1.102-.502 1.835-.502.829 0 1.472.201 1.93.603.448.402.672.96.672 1.676v4.685h-1.04v-1.01h-.103c-.456.754-1.159 1.13-2.107 1.13zm7.721 0c-.876 0-1.574-.321-2.094-.965-.52-.643-.781-1.502-.781-2.577 0-1.07.262-1.93.787-2.577.52-.643 1.217-.965 2.088-.965.479 0 .906.106 1.283.318.38.215.668.51.863.882h.095v-3.796h1.092v9.56h-1.041v-1.092h-.102c-.457.808-1.187 1.212-2.19 1.212zm.254-6.1c-.622 0-1.111.227-1.466.68-.356.456-.533 1.083-.533 1.878 0 .8.177 1.426.533 1.88.351.452.84.678 1.466.678.622 0 1.113-.228 1.473-.685s.539-1.081.539-1.873c0-.783-.179-1.405-.539-1.866-.364-.461-.855-.692-1.473-.692zm4.789 8.31.609-3.613h1.283l-.94 3.612h-.952zm7.762-8.913c0-.812.277-1.481.831-2.006.55-.524 1.251-.787 2.101-.787.821 0 1.511.248 2.07.743.554.49.831 1.1.831 1.828 0 .478-.135.946-.406 1.403-.271.465-.781 1.1-1.53 1.904l-2.202 2.368v.101h4.291v1.029h-5.929v-.788l3.167-3.459c.589-.639.98-1.126 1.175-1.46a2.07 2.07 0 0 0 .292-1.054c0-.457-.172-.842-.514-1.155-.347-.309-.773-.463-1.276-.463-.538 0-.972.165-1.302.495s-.495.764-.495 1.301v.007h-1.104zm10.857 6.799c-.868 0-1.585-.246-2.152-.737-.567-.486-.876-1.126-.927-1.917h1.124c.051.495.256.893.615 1.194.364.304.815.456 1.353.456.613 0 1.106-.192 1.479-.577.376-.385.564-.89.564-1.517s-.188-1.136-.564-1.53c-.373-.39-.86-.584-1.46-.584-.868 0-1.499.343-1.892 1.028h-1.073l.502-5.192h5.11v1.022h-4.215l-.261 2.939h.102c.444-.52 1.09-.78 1.936-.78.872 0 1.583.285 2.133.856s.825 1.308.825 2.21c0 .93-.296 1.683-.889 2.259-.592.58-1.362.87-2.31.87zm9.52-4.006a.876.876 0 0 1 -.647-.254.874.874 0 0 1 -.254-.647c0-.263.084-.479.254-.648a.876.876 0 0 1 .647-.254c.258 0 .472.085.641.254a.89.89 0 0 1 .248.648.89.89 0 0 1 -.248.647.868.868 0 0 1 -.641.254zm7.387 1.397c.072.478.32.859.743 1.142.423.284.961.425 1.612.425.618 0 1.128-.148 1.53-.444.406-.3.609-.677.609-1.13 0-.753-.611-1.284-1.834-1.593l-1.174-.305c-.83-.207-1.433-.508-1.809-.901-.377-.394-.565-.916-.565-1.568 0-.779.298-1.407.895-1.885.592-.483 1.373-.724 2.342-.724.884 0 1.625.237 2.222.711.596.474.918 1.081.965 1.822h-1.149c-.081-.47-.303-.838-.667-1.105-.368-.262-.838-.393-1.409-.393-.609 0-1.098.14-1.466.419a1.337 1.337 0 0 0 -.559 1.117c0 .36.135.652.406.876.275.224.728.417 1.359.578l.958.254c.948.236 1.629.554 2.044.952.411.397.616.933.616 1.606 0 .842-.309 1.51-.927 2.005-.618.5-1.449.75-2.495.75-.969 0-1.764-.237-2.386-.711-.618-.474-.957-1.107-1.016-1.898zm7.417-7.167h1.092v3.796h.101c.364-.8 1.088-1.2 2.171-1.2.775 0 1.373.222 1.797.667.419.44.628 1.062.628 1.866v4.43h-1.092v-4.163c0-1.21-.548-1.816-1.644-1.816-.605 0-1.085.178-1.441.533-.347.347-.52.813-.52 1.397v4.05h-1.092zm10.514 8.696c.648 0 1.147-.224 1.498-.672.351-.445.527-1.073.527-1.886 0-.812-.176-1.443-.527-1.891-.351-.445-.85-.667-1.498-.667-.647 0-1.147.222-1.498.667-.351.448-.527 1.079-.527 1.891 0 .813.176 1.441.527 1.886.351.448.851.672 1.498.672zm0 .984c-.973 0-1.743-.315-2.31-.946-.563-.634-.845-1.5-.845-2.596 0-1.1.282-1.965.845-2.596.562-.63 1.333-.946 2.31-.946.978 0 1.748.316 2.311.946s.844 1.496.844 2.596c0 1.096-.281 1.962-.844 2.596-.567.631-1.338.946-2.311.946zm8.121-7.084c.872 0 1.57.322 2.095.965.521.643.781 1.502.781 2.577 0 1.07-.263 1.928-.787 2.571-.525.648-1.221.971-2.089.971-1.028 0-1.741-.383-2.139-1.149h-.101v3.314h-1.092v-9.128h1.041v1.142h.101c.22-.393.523-.702.908-.926a2.523 2.523 0 0 1 1.282-.337zm-.26 6.1c.626 0 1.117-.226 1.473-.679.355-.453.533-1.079.533-1.879s-.178-1.426-.533-1.879c-.351-.452-.84-.679-1.467-.679-.617 0-1.108.229-1.472.686-.364.461-.546 1.085-.546 1.872 0 .783.182 1.405.546 1.867.359.46.848.691 1.466.691zm8.102-6.1c.872 0 1.57.322 2.095.965.52.643.781 1.502.781 2.577 0 1.07-.263 1.928-.787 2.571-.525.648-1.221.971-2.089.971-1.028 0-1.741-.383-2.139-1.149h-.102v3.314h-1.091v-9.128h1.041v1.142h.101c.22-.393.523-.702.908-.926a2.523 2.523 0 0 1 1.282-.337zm-.26 6.1c.626 0 1.117-.226 1.473-.679.355-.453.533-1.079.533-1.879s-.178-1.426-.533-1.879c-.352-.452-.84-.679-1.467-.679-.618 0-1.108.229-1.472.686-.364.461-.546 1.085-.546 1.872 0 .783.182 1.405.546 1.867.359.46.848.691 1.466.691zm4.795-5.98h1.092v6.844h-1.092v-6.843zm.546-1.39a.751.751 0 0 1 -.54-.221.749.749 0 0 1 -.222-.54c0-.212.074-.391.222-.54a.751.751 0 0 1 .54-.222c.211 0 .391.074.539.223a.732.732 0 0 1 .223.539.746.746 0 0 1 -.223.54.734.734 0 0 1 -.539.222zm2.548 1.39h1.041v1.08h.101c.364-.8 1.092-1.2 2.184-1.2.766 0 1.356.218 1.771.654.415.44.622 1.066.622 1.879v4.43h-1.092v-4.163c0-1.21-.537-1.816-1.612-1.816-.601 0-1.071.172-1.409.514-.343.343-.514.815-.514 1.416v4.05h-1.092v-6.843zm12.437 3.32c0-.748-.179-1.345-.539-1.79-.368-.444-.866-.666-1.492-.666s-1.115.222-1.466.667c-.343.435-.514 1.032-.514 1.79 0 .757.171 1.354.514 1.79.351.444.84.666 1.466.666.631 0 1.128-.222 1.492-.666.36-.445.539-1.041.539-1.79zm-1.98 6.152c-.817 0-1.481-.172-1.993-.515-.5-.334-.792-.787-.876-1.358h1.155c.059.284.237.506.533.666.305.17.698.254 1.181.254.613 0 1.092-.141 1.434-.425.347-.288.521-.683.521-1.187v-1.346h-.102c-.448.788-1.163 1.181-2.145 1.181-.88 0-1.581-.313-2.101-.94-.512-.621-.768-1.449-.768-2.481 0-1.033.258-1.862.774-2.489.525-.634 1.223-.952 2.095-.952.478 0 .914.108 1.308.324.393.22.689.514.888.882h.102v-1.085h1.041v6.963c0 .766-.275 1.376-.825 1.828-.551.453-1.291.68-2.222.68zm12.44-2.413c-1.244 0-2.228-.43-2.952-1.288-.728-.86-1.091-2.027-1.091-3.504s.361-2.647 1.085-3.51c.724-.86 1.707-1.289 2.952-1.289.964 0 1.79.275 2.475.825.686.55 1.096 1.268 1.232 2.152h-1.162c-.152-.592-.457-1.06-.914-1.403-.457-.347-1.001-.52-1.631-.52-.881 0-1.577.336-2.089 1.01-.516.672-.774 1.584-.774 2.735s.258 2.06.774 2.73c.517.672 1.215 1.009 2.095 1.009.639 0 1.185-.153 1.638-.457.457-.31.757-.728.901-1.257h1.162c-.153.842-.563 1.513-1.232 2.012-.673.504-1.496.756-2.469.756zm8.128-6.214c-.546 0-.995.184-1.346.552s-.548.855-.591 1.46h3.771c-.013-.605-.186-1.092-.521-1.46-.334-.368-.772-.552-1.313-.552zm2.894 4.228a2.352 2.352 0 0 1 -1.003 1.383c-.508.339-1.134.508-1.879.508-.948 0-1.699-.32-2.253-.958-.555-.635-.832-1.494-.832-2.577 0-1.08.28-1.94.838-2.584.559-.643 1.308-.965 2.247-.965.923 0 1.648.307 2.177.92.529.614.794 1.454.794 2.52v.42h-4.92v.05c.03.678.221 1.215.572 1.613.355.398.823.596 1.403.596.884 0 1.472-.308 1.764-.926zm1.723-5.072h1.041v1.079h.101c.364-.8 1.092-1.2 2.184-1.2.766 0 1.356.218 1.771.654.415.44.622 1.066.622 1.879v4.43h-1.092v-4.163c0-1.21-.537-1.816-1.612-1.816-.601 0-1.071.172-1.409.514-.343.343-.514.815-.514 1.416v4.05h-1.092zm9.187-1.708v1.708h1.587v.914h-1.587v3.872c0 .402.081.694.242.876.16.182.419.273.774.273.148 0 .313-.009.495-.026v.921a3.707 3.707 0 0 1 -.628.063c-.707 0-1.213-.141-1.517-.425-.305-.283-.457-.751-.457-1.403v-4.151h-1.149v-.914h1.149v-1.708zm5.722 2.552c-.546 0-.994.184-1.346.552-.351.368-.548.855-.59 1.46h3.771c-.013-.605-.187-1.092-.521-1.46s-.772-.552-1.314-.552zm2.895 4.228a2.357 2.357 0 0 1 -1.003 1.383c-.508.339-1.134.508-1.879.508-.948 0-1.699-.32-2.254-.958-.554-.635-.831-1.494-.831-2.577 0-1.08.279-1.94.838-2.584.558-.643 1.307-.965 2.247-.965.922 0 1.648.307 2.177.92.529.614.794 1.454.794 2.52v.42h-4.92v.05c.03.678.22 1.215.571 1.613.356.398.823.596 1.403.596.885 0 1.473-.308 1.765-.926zm1.722-5.072h1.041v1.016h.102c.102-.335.33-.608.686-.82a2.321 2.321 0 0 1 1.212-.317c.207 0 .389.01.546.032v1.092c-.148-.042-.381-.064-.698-.064-.521 0-.95.157-1.289.47s-.508.711-.508 1.193v4.24h-1.092z" fill="#868b9e"/><rect fill="#c8c7cc" height="3.723" rx="1.861" width="29.781" x="159.144" y="10.237"/></svg>