<svg width="1440" height="856" fill="none" xmlns="http://www.w3.org/2000/svg"><circle cx="367.5" cy="197.5" r="339.5" stroke="#fff" stroke-width="4" stroke-dasharray="10.5 10.5"/><circle cx="1156.5" cy="783.5" r="508.5" stroke="#fff" stroke-width="4" stroke-dasharray="10.5 10.5"/><g filter="url(#filter0_d)"><path d="M148.051 703.169c-4.791 22.654-46.004 47.228-66.05 42.989-20.045-4.239-44.873-44.181-40.551-64.616 4.321-20.435 45.81-45.766 65.35-41.634 18.945 4.006 45.084 45.137 41.251 63.261z" fill="url(#paint0_linear)"/></g><g clip-path="url(#clip0)"><path d="M94.576 692.06l-5.291-8.129.28 15.249 4.065-2.646 5.291 8.13-.28-15.249-4.065 2.645zm-17.486-.192l21.679-14.111a1.615 1.615 0 012.237.473l10.583 16.26a1.618 1.618 0 01-.473 2.236l-21.679 14.111a1.615 1.615 0 01-2.237-.473l-10.583-16.259a1.616 1.616 0 01.473-2.237zm27.917-10.455l2.709-1.764 5.292 8.13-2.71 1.764-5.291-8.13z" fill="#fff"/><g clip-path="url(#clip1)"><path d="M94.576 692.06l-5.291-8.129.28 15.249 4.065-2.646 5.291 8.13-.28-15.249-4.065 2.645zm-17.486-.192l21.679-14.111a1.615 1.615 0 012.237.473l10.583 16.26a1.618 1.618 0 01-.473 2.236l-21.679 14.111a1.615 1.615 0 01-2.237-.473l-10.583-16.259a1.616 1.616 0 01.473-2.237zm27.917-10.455l2.709-1.764 5.292 8.13-2.71 1.764-5.291-8.13z" fill="#fff"/></g></g><g filter="url(#filter1_d)"><path d="M932.187 498.7c-7.749.722-19.747-10.057-20.386-16.914-.638-6.857 9.707-18.81 16.698-19.46 6.99-.651 19.258 10.14 19.881 16.824.603 6.481-9.993 18.973-16.193 19.55z" fill="url(#paint1_linear)"/><path d="M932.187 498.7c-7.749.722-19.747-10.057-20.386-16.914-.638-6.857 9.707-18.81 16.698-19.46 6.99-.651 19.258 10.14 19.881 16.824.603 6.481-9.993 18.973-16.193 19.55z" fill="url(#paint2_linear)"/></g><circle opacity=".2" cx="510.637" cy="165.637" r="28.454" transform="rotate(162.673 510.637 165.637)" fill="#7D56FD"/><path d="M504.048 144.51l-2.756 9.553 10.455-3.261-7.699-6.292z" fill="#7D56FD"/><circle cx="510.638" cy="165.637" r="14.808" transform="rotate(162.673 510.638 165.637)" fill="#7D56FD" stroke="#fff" stroke-width="2"/><circle opacity=".2" cx="969.853" cy="811.276" r="32.993" transform="rotate(105.718 969.853 811.276)" fill="#F15A23"/><path d="M945.152 804.324l7.543 8.719 3.44-12.225-10.983 3.506z" fill="#F15A23"/><circle cx="969.853" cy="811.275" r="17.329" transform="rotate(105.718 969.853 811.275)" fill="#F15A23" stroke="#fff" stroke-width="2"/><g filter="url(#filter2_d)"><path d="M1368.24 224.071c-22.33 12.045-72.07-4.994-82.73-24.754-10.66-19.759 5.14-68.81 25.28-79.675 20.15-10.865 70.71 5.87 81.1 25.13 10.08 18.674-5.79 69.663-23.65 79.299z" fill="url(#paint3_linear)"/></g><g clip-path="url(#clip2)"><path d="M1341.32 168.646l13.13 3.927-24.17 19.321 5.05-16.871-13.12-3.927 24.16-19.321-5.05 16.871z" fill="#fff"/></g><defs><linearGradient id="paint0_linear" x1="51.029" y1="701.436" x2="128.278" y2="730.169" gradientUnits="userSpaceOnUse"><stop stop-color="#EC5017"/><stop offset="1" stop-color="#FF7644"/></linearGradient><linearGradient id="paint1_linear" x1="933.082" y1="464.589" x2="921.534" y2="494.993" gradientUnits="userSpaceOnUse"><stop stop-color="#EC5017"/><stop offset="1" stop-color="#FF7644"/></linearGradient><linearGradient id="paint2_linear" x1="930.622" y1="463.014" x2="924.918" y2="497.903" gradientUnits="userSpaceOnUse"><stop stop-color="#21B489"/><stop offset="1" stop-color="#108A67"/></linearGradient><linearGradient id="paint3_linear" x1="1327.43" y1="120.589" x2="1331.55" y2="226.531" gradientUnits="userSpaceOnUse"><stop/><stop offset="1" stop-color="#484848"/></linearGradient><clipPath id="clip0"><path fill="#fff" transform="rotate(-33.06 1192.964 228.27)" d="M0 0h38.8v38.8H0z"/></clipPath><clipPath id="clip1"><path fill="#fff" transform="rotate(-33.06 1192.964 228.27)" d="M0 0h38.8v38.8H0z"/></clipPath><clipPath id="clip2"><path fill="#fff" transform="rotate(16.66 174.297 4587.657)" d="M0 0h46.961v46.961H0z"/></clipPath><filter id="filter0_d" x="-19.045" y="589.46" width="227.475" height="227.179" filterUnits="userSpaceOnUse" color-interpolation-filters="sRGB"><feFlood flood-opacity="0" result="BackgroundImageFix"/><feColorMatrix in="SourceAlpha" values="0 0 0 0 0 0 0 0 0 0 0 0 0 0 0 0 0 0 127 0" result="hardAlpha"/><feOffset dy="10"/><feGaussianBlur stdDeviation="30"/><feColorMatrix values="0 0 0 0 0.972549 0 0 0 0 0.407843 0 0 0 0 0.2 0 0 0 0.3 0"/><feBlend in2="BackgroundImageFix" result="effect1_dropShadow"/><feBlend in="SourceGraphic" in2="effect1_dropShadow" result="shape"/></filter><filter id="filter1_d" x="891.773" y="447.297" width="76.631" height="76.437" filterUnits="userSpaceOnUse" color-interpolation-filters="sRGB"><feFlood flood-opacity="0" result="BackgroundImageFix"/><feColorMatrix in="SourceAlpha" values="0 0 0 0 0 0 0 0 0 0 0 0 0 0 0 0 0 0 127 0" result="hardAlpha"/><feOffset dy="5"/><feGaussianBlur stdDeviation="10"/><feColorMatrix values="0 0 0 0 0.113725 0 0 0 0 0.658824 0 0 0 0 0.501961 0 0 0 0.3 0"/><feBlend in2="BackgroundImageFix" result="effect1_dropShadow"/><feBlend in="SourceGraphic" in2="effect1_dropShadow" result="shape"/></filter><filter id="filter2_d" x="1222.08" y="66.212" width="232.949" height="231.876" filterUnits="userSpaceOnUse" color-interpolation-filters="sRGB"><feFlood flood-opacity="0" result="BackgroundImageFix"/><feColorMatrix in="SourceAlpha" values="0 0 0 0 0 0 0 0 0 0 0 0 0 0 0 0 0 0 127 0" result="hardAlpha"/><feOffset dy="10"/><feGaussianBlur stdDeviation="30"/><feColorMatrix values="0 0 0 0 0.2 0 0 0 0 0.2 0 0 0 0 0.2 0 0 0 0.3 0"/><feBlend in2="BackgroundImageFix" result="effect1_dropShadow"/><feBlend in="SourceGraphic" in2="effect1_dropShadow" result="shape"/></filter></defs></svg>