<svg fill="none" height="662" width="636" xmlns="http://www.w3.org/2000/svg" xmlns:xlink="http://www.w3.org/1999/xlink"><linearGradient id="a"><stop offset="0" stop-color="#fcba0d"/><stop offset=".54" stop-color="#fcba0d"/><stop offset="1" stop-color="#e68a00"/></linearGradient><linearGradient id="b" gradientUnits="userSpaceOnUse" x1="177.709" x2="203.501" xlink:href="#a" y1="259.568" y2="259.568"/><linearGradient id="c" gradientUnits="userSpaceOnUse" x1="177.703" x2="203.494" xlink:href="#a" y1="347.981" y2="347.981"/><linearGradient id="d" gradientUnits="userSpaceOnUse" x1="177.703" x2="203.494" xlink:href="#a" y1="436.397" y2="436.397"/><linearGradient id="e" gradientUnits="userSpaceOnUse" x1="177.703" x2="203.494" xlink:href="#a" y1="524.81" y2="524.81"/><linearGradient id="f" gradientUnits="userSpaceOnUse" x1="403.399" x2="429.191" xlink:href="#a" y1="259.566" y2="259.566"/><linearGradient id="g" gradientUnits="userSpaceOnUse" x1="403.398" x2="429.19" xlink:href="#a" y1="347.981" y2="347.981"/><linearGradient id="h" gradientUnits="userSpaceOnUse" x1="403.398" x2="429.19" xlink:href="#a" y1="436.396" y2="436.396"/><linearGradient id="i" gradientUnits="userSpaceOnUse" x1="403.398" x2="429.19" xlink:href="#a" y1="524.808" y2="524.808"/><mask id="j" height="367" maskUnits="userSpaceOnUse" width="220" x="402" y="260"><path d="m617.414 304.76c1.437-10.16-5.538-19.628-15.672-21.233l-124.961-19.792c-10.064-1.594-19.578 5.155-21.429 15.176-21.788 117.932-33.072 190.124-48.126 303.874-1.337 10.103 5.626 19.461 15.692 21.055l124.965 19.793c10.131 1.605 19.688-5.242 21.464-15.344 20.426-116.22 31.784-188.405 48.067-303.529z" fill="#fff"/></mask><path d="m126.463 61.794c1.34-34.501 29.772-61.71 64.299-61.71h362.496c34.645 0 63.127 27.391 64.327 62.016 5.727 165.263 6.238 278.749.197 442.095-1.276 34.513-29.717 61.741-64.253 61.741h-363.048c-34.414 0-62.803-27.039-64.222-61.423-6.75-163.564-6.221-277.244.204-442.719z" fill="#fff" fill-opacity=".25"/><path d="m5.464 157.044c1.34-34.501 29.77-61.71 64.298-61.71h362.496c34.646 0 63.127 27.391 64.327 62.016 5.727 165.263 6.238 278.749.197 442.095-1.276 34.513-29.717 61.741-64.253 61.741h-363.048c-34.414 0-62.802-27.039-64.222-61.423-6.75-163.564-6.22-277.244.205-442.719z" fill="#fff" fill-opacity=".25"/><path d="m55.998 112.077c1.34-34.501 29.771-61.71 64.299-61.71h362.496c34.645 0 63.126 27.391 64.326 62.016 5.728 165.264 6.238 278.749.197 442.095-1.276 34.513-29.717 61.741-64.253 61.741h-363.047c-34.414 0-62.803-27.039-64.222-61.423-6.75-163.563-6.221-277.244.204-442.719z" fill="#bebebd"/><path d="m73.039 119.359c1.213-28.683 24.876-51.31 53.584-51.31h347.971c28.85 0 52.573 22.835 53.622 51.667 6.045 166.225 6.628 274.82.315 427.612-1.184 28.66-24.842 51.208-53.527 51.208h-348.781c-28.546 0-52.144-22.33-53.498-50.844-7.114-149.833-6.878-258.327.314-428.333z" fill="#fff"/><path d="m465.602 85.54h-329.859c-24.399 0-44.474 19.175-45.35 43.559-.73 20.359-1.389 40.98-1.974 58.156-.208 6.084 4.666 11.126 10.753 11.126h402.779c6.067 0 10.933-5.009 10.754-11.074-.506-17.116-1.072-37.633-1.696-57.899-.755-24.509-20.886-43.868-45.407-43.868z" fill="#fcde31"/><path clip-rule="evenodd" d="m288.435 121.5c0 .074-.474.125-1.163.125s-1.163.05-1.163.124c0 .069-.345.124-.775.124-.431 0-.776.056-.776.125 0 .068-.174.124-.387.124s-.388.056-.388.124c0 .069-.232.125-.517.125-.284 0-.517.056-.517.124s-.174.124-.387.124-.388.056-.388.125c0 .068-.116.124-.258.124s-.259.056-.259.124c0 .069-.116.125-.258.125s-.258.056-.258.124c0 .069-.117.125-.259.125s-.258.055-.258.124c0 .068-.117.124-.259.124s-.258.056-.258.125c0 .068-.116.124-.259.124-.142 0-.258.056-.258.124 0 .069-.103.125-.23.125-.126 0-.314.111-.416.248s-.277.249-.388.249c-.11 0-.285.112-.387.249-.103.136-.265.248-.36.248-.096 0-.457.28-.803.622s-.692.622-.769.622c-.184 0-1.815 1.571-1.815 1.748 0 .075-.233.351-.517.614s-.517.554-.517.647-.116.25-.258.348c-.143.099-.259.267-.259.373 0 .107-.116.275-.258.373-.142.099-.259.279-.259.401 0 .121-.058.221-.129.221s-.129.1-.129.221c0 .122-.116.302-.258.401-.143.098-.259.278-.259.4s-.058.221-.129.221-.129.168-.129.373c0 .206-.058.373-.13.373-.071 0-.129.112-.129.249s-.058.249-.129.249-.129.168-.129.373-.058.373-.129.373-.13.168-.13.373-.058.373-.129.373-.129.168-.129.373-.058.373-.129.373-.129.28-.129.622-.059.621-.13.621c-.075 0-.129.415-.129.995 0 .581-.054.995-.129.995-.08 0-.129.705-.129 1.865 0 1.161.049 1.865.129 1.865.074 0 .129.373.129.871 0 .497.056.87.129.87.072 0 .13.332.13.746 0 .415.057.746.129.746.071 0 .129.168.129.373 0 .206.058.373.129.373s.129.168.129.373c0 .206.059.374.13.374s.129.167.129.373c0 .205.058.373.129.373s.129.111.129.248.058.249.129.249c.072 0 .13.168.13.373s.058.373.129.373.129.1.129.221c0 .122.116.302.259.401.142.098.258.279.258.4 0 .122.058.221.129.221s.129.1.129.222c0 .121.117.302.259.4.142.099.258.267.258.373 0 .107.116.275.259.373.142.099.258.255.258.348s.233.384.517.647.517.539.517.614c0 .177 1.631 1.749 1.815 1.749.077 0 .423.279.769.621s.707.622.803.622c.095 0 .257.112.36.249.102.137.277.248.387.248.111 0 .286.112.388.249s.29.249.416.249c.127 0 .23.056.23.124 0 .069.116.125.258.125.143 0 .259.055.259.124 0 .068.116.124.258.124s.259.056.259.125c0 .068.116.124.258.124s.259.056.259.124c0 .069.116.125.258.125s.258.056.258.124.175.124.388.124.388.056.388.125c0 .068.116.124.258.124s.258.056.258.124c0 .069.233.125.517.125.285 0 .517.056.517.124s.175.124.388.124.387.056.387.125.345.124.776.124c.43 0 .775.055.775.124 0 .075.517.125 1.292.125s1.292.049 1.292.124c0 .068.291.124.646.124s.646-.056.646-.124c0-.075.56-.124 1.421-.124.862 0 1.422-.049 1.422-.125 0-.069.344-.124.775-.124s.775-.055.775-.124.175-.125.388-.125.388-.056.388-.124.232-.124.516-.124c.285 0 .517-.056.517-.125 0-.068.175-.124.388-.124s.387-.056.387-.124c0-.069.117-.125.259-.125s.258-.056.258-.124.117-.124.259-.124.258-.056.258-.125c0-.068.175-.124.388-.124s.387-.056.387-.124c0-.069.104-.125.23-.125.127 0 .314-.112.416-.248.103-.137.29-.249.417-.249.21 0 .229.165.229 1.989 0 1.244-.048 1.99-.129 1.99-.071 0-.129.28-.129.622s-.058.621-.129.621-.129.168-.129.373c0 .206-.059.373-.13.373s-.129.112-.129.249-.058.249-.129.249-.129.099-.129.221-.117.302-.259.401c-.142.098-.258.251-.258.34 0 .226-1.892 2.022-2.13 2.022-.108 0-.196.056-.196.124 0 .069-.103.125-.23.125-.126 0-.313.112-.416.248-.109.146-.334.249-.545.249-.198 0-.359.056-.359.125 0 .068-.175.124-.388.124s-.388.056-.388.124c0 .069-.29.125-.646.125-.355 0-.646.055-.646.124 0 .079-.947.124-2.584.124s-2.584-.045-2.584-.124c0-.069-.233-.124-.517-.124s-.517-.056-.517-.125c0-.068-.174-.124-.387-.124-.214 0-.388-.056-.388-.124 0-.069-.116-.125-.258-.125s-.259-.056-.259-.124c0-.069-.116-.125-.258-.125s-.259-.055-.259-.124c0-.068-.116-.124-.258-.124s-.258-.056-.258-.125c0-.068-.089-.124-.196-.124-.256 0-2.13-1.804-2.13-2.05 0-.103-.058-.188-.129-.188s-.13-.112-.13-.249-.058-.249-.129-.249-.129-.167-.129-.373c0-.205-.058-.373-.129-.373s-.129-.279-.129-.621v-.622h-9.82v.995c0 .58.054.994.129.994.071 0 .129.28.129.622s.058.622.129.622.13.224.13.497c0 .274.058.498.129.498s.129.168.129.373.058.373.129.373.129.168.129.373.058.373.13.373c.071 0 .129.112.129.249 0 .136.058.248.129.248s.129.1.129.221c0 .122.116.302.259.401.142.099.258.266.258.373s.116.274.258.373c.143.099.259.252.259.34 0 .196 2.393 2.52 2.595 2.52.079 0 .307.168.506.373s.442.373.54.373.262.112.364.249c.103.137.29.248.417.248.126 0 .229.056.229.125 0 .068.117.124.259.124s.258.056.258.124c0 .069.117.125.259.125s.258.056.258.124c0 .069.116.124.258.124.143 0 .259.056.259.125 0 .068.116.124.258.124s.259.056.259.125c0 .068.116.124.258.124s.259.056.259.124c0 .069.174.125.387.125s.388.056.388.124.174.124.387.124c.214 0 .388.056.388.125 0 .068.174.124.388.124.213 0 .387.056.387.124 0 .069.233.125.517.125s.517.056.517.124.291.124.646.124.646.056.646.125c0 .071.388.124.905.124.516 0 .904.053.904.124 0 .079.947.125 2.584.125s2.584-.046 2.584-.125c0-.071.388-.124.905-.124s.904-.053.904-.124c0-.069.291-.125.646-.125.356 0 .646-.056.646-.124s.233-.124.517-.124.517-.056.517-.125c0-.068.174-.124.388-.124.213 0 .387-.056.387-.124 0-.069.175-.125.388-.125s.388-.056.388-.124.116-.124.258-.124.258-.056.258-.125c0-.068.175-.124.388-.124s.388-.056.388-.124c0-.069.116-.125.258-.125s.258-.056.258-.124c0-.069.104-.125.23-.125.127 0 .314-.111.416-.248.103-.137.29-.249.417-.249.126 0 .23-.056.23-.124 0-.069.103-.125.229-.125.127 0 .314-.111.417-.248.102-.137.276-.249.387-.249s.285-.112.388-.249c.102-.136.265-.248.361-.248.097 0 .399-.224.672-.498.274-.273.562-.497.641-.497.186 0 1.039-.82 1.039-.999 0-.075.291-.409.646-.742.356-.333.646-.681.646-.773s.117-.247.259-.346.258-.279.258-.401c0-.121.058-.221.129-.221s.13-.112.13-.248c0-.137.058-.249.129-.249s.129-.112.129-.249.058-.249.129-.249.129-.111.129-.248.059-.249.13-.249.129-.168.129-.373.058-.373.129-.373.129-.112.129-.249c0-.136.058-.248.129-.248.072 0 .13-.224.13-.498 0-.273.058-.497.129-.497s.129-.224.129-.498c0-.273.058-.497.129-.497.072 0 .129-.332.129-.746s.058-.746.13-.746c.085 0 .129-4.186.129-12.31s-.044-12.31-.129-12.31c-.072 0-.13-.332-.13-.747 0-.414-.057-.746-.129-.746-.071 0-.129-.223-.129-.497s-.058-.497-.129-.497-.129-.168-.129-.373c0-.206-.058-.373-.13-.373-.071 0-.129-.168-.129-.373 0-.206-.058-.373-.129-.373s-.129-.168-.129-.374c0-.205-.058-.373-.129-.373s-.13-.111-.13-.248-.058-.249-.129-.249-.129-.112-.129-.249c0-.136-.058-.248-.129-.248s-.129-.112-.129-.249-.059-.249-.13-.249-.129-.099-.129-.221-.116-.302-.258-.4c-.142-.099-.259-.267-.259-.373 0-.107-.116-.275-.258-.373-.142-.099-.259-.257-.259-.351s-.174-.328-.387-.52-.388-.41-.388-.486c0-.18-3.184-3.244-3.371-3.244-.079 0-.306-.168-.505-.373s-.442-.373-.54-.373-.262-.112-.365-.249c-.102-.137-.276-.249-.387-.249s-.285-.112-.388-.248c-.102-.137-.289-.249-.416-.249-.126 0-.23-.056-.23-.124 0-.069-.116-.125-.258-.125s-.259-.056-.259-.124c0-.069-.116-.124-.258-.124s-.258-.056-.258-.125c0-.068-.175-.124-.388-.124s-.388-.056-.388-.125c0-.068-.116-.124-.258-.124s-.259-.056-.259-.124c0-.069-.174-.125-.387-.125s-.388-.056-.388-.124-.174-.124-.387-.124c-.214 0-.388-.056-.388-.125 0-.068-.233-.124-.517-.124s-.517-.056-.517-.124c0-.069-.29-.125-.646-.125-.355 0-.646-.056-.646-.124 0-.075-.517-.124-1.292-.124s-1.292-.05-1.292-.125c0-.072-.431-.124-1.034-.124s-1.033.052-1.033.124zm45.481 0c0 .074-.474.125-1.163.125s-1.163.05-1.163.124c0 .069-.344.124-.775.124s-.775.056-.775.125c0 .068-.175.124-.388.124s-.387.056-.387.124c0 .069-.233.125-.517.125s-.517.056-.517.124-.116.124-.258.124c-.143 0-.259.056-.259.125 0 .068-.174.124-.388.124-.213 0-.387.056-.387.124 0 .069-.116.125-.259.125-.142 0-.258.056-.258.124 0 .069-.116.125-.258.125-.143 0-.259.055-.259.124 0 .068-.116.124-.258.124s-.259.056-.259.125c0 .068-.116.124-.258.124s-.258.056-.258.124c0 .069-.104.125-.23.125-.127 0-.314.111-.417.248-.102.137-.266.249-.364.249s-.341.168-.54.373-.429.373-.511.373-.492.336-.91.746c-.419.41-.827.746-.907.746-.188 0-.515.315-.515.496 0 .077-.348.469-.775.872-.426.403-.775.797-.775.876s-.175.3-.388.492c-.213.191-.387.425-.387.52 0 .094-.117.252-.259.35-.142.099-.258.279-.258.401 0 .121-.058.221-.129.221s-.13.112-.13.249c0 .136-.058.248-.129.248s-.129.112-.129.249-.058.249-.129.249-.129.112-.129.248c0 .137-.059.249-.13.249s-.129.112-.129.249-.058.248-.129.248-.129.168-.129.373c0 .206-.058.374-.129.374-.072 0-.13.111-.13.248s-.058.249-.129.249-.129.224-.129.497c0 .274-.058.498-.129.498s-.129.168-.129.373-.059.373-.13.373c-.072 0-.129.331-.129.746 0 .414-.057.746-.129.746-.077 0-.129.456-.129 1.119s-.053 1.119-.13 1.119c-.076 0-.129.456-.129 1.119s.053 1.119.129 1.119c.077 0 .13.456.13 1.119 0 .664.052 1.12.129 1.12.072 0 .129.331.129.746 0 .414.057.746.129.746.071 0 .13.168.13.373s.058.373.129.373.129.224.129.497c0 .274.058.498.129.498s.129.111.129.248.058.249.13.249c.071 0 .129.168.129.373s.058.373.129.373.129.112.129.249c0 .136.058.248.129.248s.13.112.13.249.058.249.129.249.129.112.129.248c0 .137.058.249.129.249s.129.112.129.249.059.248.13.248.129.1.129.222c0 .121.116.302.258.4.142.099.259.257.259.351s.174.328.387.52c.213.191.388.41.388.486 0 .194 3.709 3.741 3.911 3.741.092 0 .25.112.353.249.102.137.266.249.364.249s.341.168.54.373.455.373.569.373.207.056.207.124c0 .069.116.125.258.125s.258.055.258.124c0 .068.117.124.259.124s.258.056.258.125c0 .068.116.124.259.124.142 0 .258.056.258.124 0 .069.116.125.258.125.143 0 .259.056.259.124s.174.124.387.124c.214 0 .388.056.388.125 0 .068.116.124.259.124.142 0 .258.056.258.124 0 .069.233.125.517.125s.517.056.517.124.232.124.516.124c.285 0 .517.056.517.125 0 .068.291.124.646.124.356 0 .646.056.646.124 0 .075.517.125 1.292.125.776 0 1.293.049 1.293.124 0 .069.344.124.775.124.43 0 .775-.055.775-.124 0-.075.56-.124 1.421-.124.862 0 1.422-.049 1.422-.125 0-.068.29-.124.646-.124.355 0 .646-.056.646-.124 0-.069.232-.125.517-.125.284 0 .516-.056.516-.124s.175-.124.388-.124.388-.056.388-.125c0-.068.174-.124.387-.124s.388-.056.388-.124c0-.069.174-.125.388-.125.213 0 .387-.056.387-.124s.116-.124.259-.124c.142 0 .258-.056.258-.125 0-.068.116-.124.258-.124.143 0 .259-.056.259-.124 0-.069.116-.125.258-.125s.259-.056.259-.124c0-.069.103-.124.23-.124.126 0 .313-.112.416-.249.102-.137.277-.249.387-.249.111 0 .285-.112.388-.249.102-.136.277-.248.388-.248.11 0 .285-.112.387-.249.103-.137.261-.249.353-.249.202 0 3.911-3.547 3.911-3.741 0-.076.175-.295.388-.486.213-.192.387-.426.387-.52s.117-.252.259-.351c.142-.098.258-.279.258-.4 0-.122.058-.222.129-.222s.13-.111.13-.248.058-.249.129-.249.129-.112.129-.249c0-.136.058-.248.129-.248s.129-.112.129-.249.059-.249.13-.249.129-.112.129-.248c0-.137.058-.249.129-.249s.129-.112.129-.249.058-.248.129-.248c.072 0 .13-.168.13-.373 0-.206.058-.373.129-.373s.129-.168.129-.374c0-.205.058-.373.129-.373s.13-.223.13-.497.058-.497.129-.497.129-.28.129-.622.058-.622.129-.622c.075 0 .129-.414.129-.995 0-.58.054-.994.13-.994.079 0 .129-.622.129-1.617s-.05-1.616-.129-1.616c-.076 0-.13-.415-.13-.995s-.054-.995-.129-.995c-.071 0-.129-.28-.129-.622 0-.341-.058-.621-.129-.621s-.129-.224-.129-.498c0-.273-.059-.497-.13-.497s-.129-.168-.129-.373-.058-.373-.129-.373-.129-.168-.129-.373-.058-.373-.13-.373c-.071 0-.129-.112-.129-.249s-.058-.249-.129-.249-.129-.111-.129-.248-.058-.249-.129-.249-.13-.112-.13-.249c0-.136-.058-.248-.129-.248s-.129-.112-.129-.249-.058-.249-.129-.249-.129-.112-.129-.248c0-.137-.059-.249-.13-.249s-.129-.1-.129-.221c0-.122-.116-.302-.258-.401-.142-.098-.259-.256-.259-.35 0-.095-.174-.329-.387-.52-.213-.192-.388-.411-.388-.486 0-.194-3.709-3.742-3.911-3.742-.092 0-.25-.112-.353-.249-.102-.136-.277-.248-.387-.248-.111 0-.286-.112-.388-.249-.103-.137-.277-.249-.388-.249-.11 0-.285-.112-.387-.248-.103-.137-.29-.249-.416-.249-.127 0-.23-.056-.23-.124 0-.069-.117-.125-.259-.125s-.258-.056-.258-.124c0-.069-.116-.124-.259-.124-.142 0-.258-.056-.258-.125 0-.068-.116-.124-.258-.124-.143 0-.259-.056-.259-.125 0-.068-.174-.124-.387-.124-.214 0-.388-.056-.388-.124 0-.069-.175-.125-.388-.125s-.387-.056-.387-.124-.175-.124-.388-.124-.388-.056-.388-.125c0-.068-.232-.124-.516-.124-.285 0-.517-.056-.517-.124 0-.069-.291-.125-.646-.125-.356 0-.646-.056-.646-.124 0-.074-.474-.124-1.163-.124s-1.163-.051-1.163-.125c0-.073-.474-.124-1.163-.124s-1.163.051-1.163.124zm36.695 2.487c0 .069-.29.125-.646.125-.355 0-.646.056-.646.124s-.116.124-.258.124-.259.056-.259.125c0 .068-.088.124-.196.124-.338 0-1.612 1.324-1.612 1.676 0 .172-.059.313-.13.313s-.129.168-.129.374c0 .205-.058.373-.129.373s-.129.279-.129.621.058.622.129.622.129.224.129.497c0 .274.058.498.129.498s.13.112.13.248c0 .137.058.249.129.249s.129.086.129.19c0 .247 1.097 1.302 1.353 1.302.109 0 .197.056.197.125 0 .068.117.124.259.124s.258.056.258.124c0 .082 3.532.125 10.337.125s10.337-.043 10.337-.125c0-.068.116-.124.258-.124s.259-.056.259-.124c0-.069.103-.125.229-.125.127 0 .314-.112.417-.248.102-.137.289-.249.416-.249.134 0 .23-.092.23-.221 0-.122.116-.302.258-.401.142-.098.258-.279.258-.4 0-.122.059-.222.13-.222s.129-.111.129-.248.058-.249.129-.249c.078 0 .129-.497.129-1.243s-.051-1.244-.129-1.244c-.071 0-.129-.155-.129-.345a.67.67 0 0 0 -.259-.525c-.142-.099-.258-.254-.258-.344 0-.214-.584-.775-.805-.775-.094 0-.255-.112-.358-.249-.102-.137-.289-.249-.416-.249-.126 0-.23-.056-.23-.124 0-.069-.344-.124-.775-.124s-.775-.056-.775-.125c0-.081-3.101-.124-9.045-.124s-9.045.043-9.045.124zm-80.109 6.715c0 .071.388.124.904.124.517 0 .905.054.905.125 0 .068.174.124.388.124.213 0 .387.056.387.124 0 .069.175.125.388.125s.387.056.387.124.117.124.259.124.258.056.258.125c0 .068.104.124.23.124.127 0 .314.112.416.249.103.136.267.248.365.248.097 0 .341.168.54.373.199.206.428.373.508.373.19 0 1.042.82 1.042 1.003 0 .078.175.298.388.49.213.191.388.425.388.519 0 .095.116.252.258.351s.258.279.258.401c0 .121.059.221.13.221s.129.112.129.248c0 .137.058.249.129.249s.129.168.129.373.058.373.129.373.13.168.13.373.058.373.129.373c.074 0 .129.373.129.871 0 .497.055.87.129.87.077 0 .129.456.129 1.119s-.052 1.119-.129 1.119c-.072 0-.129.332-.129.746 0 .415-.057.746-.129.746-.071 0-.129.224-.129.498 0 .273-.059.497-.13.497s-.129.168-.129.373-.058.373-.129.373-.129.112-.129.249-.058.249-.129.249-.13.099-.13.221-.116.302-.258.4c-.142.099-.258.257-.258.351s-.175.328-.388.52c-.213.191-.388.412-.388.489 0 .183-.852 1.003-1.042 1.003-.08 0-.309.168-.508.373s-.443.373-.54.373c-.098 0-.262.112-.365.249-.102.137-.289.248-.416.248-.126 0-.23.056-.23.125 0 .068-.116.124-.258.124s-.259.056-.259.124c0 .069-.174.125-.387.125s-.388.056-.388.124c0 .069-.174.124-.387.124-.214 0-.388.056-.388.125 0 .071-.388.124-.905.124-.516 0-.904.054-.904.125s-.388.124-.904.124c-.517 0-.905-.053-.905-.124s-.388-.125-.904-.125c-.517 0-.905-.053-.905-.124 0-.069-.232-.125-.517-.125-.284 0-.517-.055-.517-.124 0-.068-.116-.124-.258-.124s-.258-.056-.258-.125c0-.068-.117-.124-.259-.124s-.258-.056-.258-.124c0-.069-.116-.125-.259-.125-.142 0-.258-.056-.258-.124s-.104-.124-.23-.124-.314-.112-.416-.249c-.103-.137-.262-.249-.354-.249-.218 0-2.101-1.812-2.101-2.022 0-.089-.116-.242-.258-.34-.143-.099-.259-.279-.259-.401 0-.121-.058-.221-.129-.221s-.129-.112-.129-.249c0-.136-.058-.248-.129-.248-.072 0-.13-.112-.13-.249s-.058-.249-.129-.249-.129-.112-.129-.248c0-.137-.058-.249-.129-.249s-.13-.168-.13-.373-.058-.373-.129-.373-.129-.28-.129-.622-.058-.622-.129-.622c-.081 0-.129-.704-.129-1.865 0-1.16.048-1.865.129-1.865.071 0 .129-.28.129-.622s.058-.621.129-.621.129-.168.129-.373c0-.206.059-.374.13-.374s.129-.111.129-.248.058-.249.129-.249.129-.112.129-.249c0-.136.058-.248.13-.248.071 0 .129-.112.129-.249s.058-.249.129-.249.129-.099.129-.221.116-.302.259-.4c.142-.099.258-.252.258-.341 0-.21 1.883-2.022 2.101-2.022.092 0 .251-.112.354-.249.102-.136.29-.248.416-.248s.23-.056.23-.125c0-.068.116-.124.258-.124.143 0 .259-.056.259-.124 0-.069.116-.125.258-.125s.259-.056.259-.124.116-.124.258-.124.258-.056.258-.125c0-.068.233-.124.517-.124.285 0 .517-.056.517-.124 0-.07.345-.125.775-.125.431 0 .776-.055.776-.124 0-.073.43-.124 1.033-.124s1.034.051 1.034.124zm45.481 0c0 .071.388.124.905.124s.904.054.904.125c0 .068.175.124.388.124s.388.056.388.124c0 .069.174.125.387.125s.388.056.388.124.116.124.258.124.259.056.259.125c0 .068.103.124.23.124.126 0 .313.112.416.249.102.136.277.248.387.248.111 0 .286.112.388.249s.262.249.354.249c.206 0 1.584 1.307 1.584 1.501 0 .077.175.297.388.488.213.192.387.438.387.548 0 .109.059.198.13.198s.129.112.129.249.058.249.129.249.129.112.129.248c0 .137.058.249.129.249.072 0 .13.112.13.249s.058.248.129.248.129.224.129.498c0 .273.058.497.129.497s.129.28.129.622.059.622.13.622c.079 0 .129.621.129 1.616s-.05 1.617-.129 1.617c-.071 0-.13.279-.13.621s-.058.622-.129.622-.129.224-.129.498c0 .273-.058.497-.129.497s-.129.112-.129.249c0 .136-.058.248-.13.248-.071 0-.129.112-.129.249s-.058.249-.129.249-.129.112-.129.248c0 .137-.058.249-.129.249s-.13.089-.13.199c0 .109-.174.356-.387.547-.213.192-.388.411-.388.488 0 .195-1.378 1.502-1.584 1.502-.092 0-.252.112-.354.248-.102.137-.277.249-.388.249-.11 0-.285.112-.387.249-.103.137-.29.248-.416.248-.127 0-.23.056-.23.125 0 .068-.117.124-.259.124s-.258.056-.258.124c0 .069-.175.125-.388.125s-.387.056-.387.124c0 .069-.175.124-.388.124s-.388.056-.388.125c0 .071-.387.124-.904.124s-.905.054-.905.125-.387.124-.904.124-.904-.053-.904-.124-.388-.125-.905-.125-.904-.053-.904-.124c0-.069-.175-.125-.388-.125s-.388-.055-.388-.124c0-.068-.174-.124-.387-.124s-.388-.056-.388-.125c0-.068-.116-.124-.258-.124s-.259-.056-.259-.124c0-.069-.116-.125-.258-.125s-.259-.056-.259-.124-.092-.124-.206-.124-.37-.168-.569-.373-.427-.373-.507-.373c-.202 0-1.56-1.327-1.56-1.525 0-.088-.116-.242-.259-.341-.142-.098-.258-.266-.258-.373 0-.106-.116-.274-.258-.373-.143-.098-.259-.278-.259-.4s-.058-.221-.129-.221-.129-.112-.129-.249-.058-.249-.129-.249c-.072 0-.13-.168-.13-.373s-.058-.373-.129-.373-.129-.168-.129-.373-.058-.373-.129-.373c-.072 0-.129-.331-.129-.746 0-.414-.058-.746-.13-.746-.078 0-.129-.539-.129-1.368s.051-1.368.129-1.368c.072 0 .13-.331.13-.746 0-.414.057-.746.129-.746.071 0 .129-.168.129-.373s.058-.373.129-.373.129-.168.129-.373.058-.373.13-.373c.071 0 .129-.112.129-.249 0-.136.058-.248.129-.248s.129-.112.129-.249.058-.249.129-.249.13-.089.13-.198c0-.11.174-.356.387-.548.213-.191.388-.411.388-.488 0-.181 1.372-1.501 1.56-1.501.08 0 .308-.168.507-.373s.455-.373.569-.373.206-.056.206-.125c0-.068.117-.124.259-.124s.258-.056.258-.124c0-.069.117-.125.259-.125s.258-.056.258-.124.175-.124.388-.124.387-.056.387-.125c0-.068.175-.124.388-.124s.388-.056.388-.124c0-.071.387-.125.904-.125s.905-.053.905-.124.387-.124.904-.124.904.053.904.124zm33.336 5.471c0 .068-.116.124-.258.124s-.259.056-.259.125c0 .068-.088.124-.197.124-.256 0-1.353 1.056-1.353 1.303 0 .104-.058.189-.129.189s-.129.112-.129.249-.059.249-.13.249-.129.168-.129.373-.058.373-.129.373-.129.279-.129.621.058.622.129.622.129.224.129.498c0 .273.058.497.129.497s.13.112.13.249c0 .136.058.248.129.248s.129.086.129.19c0 .247 1.097 1.302 1.353 1.302.109 0 .197.056.197.125 0 .068.117.124.259.124s.258.056.258.124c0 .082 3.532.125 10.337.125s10.337-.043 10.337-.125c0-.068.161-.124.359-.124.211 0 .436-.103.545-.249.103-.136.264-.248.358-.248.235 0 .805-.568.805-.803 0-.106.058-.192.129-.192s.129-.112.129-.249c0-.136.059-.248.13-.248s.129-.112.129-.249.058-.249.129-.249c.078 0 .129-.497.129-1.243s-.051-1.244-.129-1.244c-.071 0-.129-.112-.129-.248 0-.137-.058-.249-.129-.249s-.13-.112-.13-.249-.058-.248-.129-.248-.129-.087-.129-.193c0-.235-.57-.802-.805-.802-.094 0-.255-.112-.358-.249-.102-.137-.289-.249-.416-.249-.126 0-.23-.056-.23-.124 0-.082-3.575-.124-10.466-.124s-10.466.042-10.466.124zm0 11.937c0 .069-.116.125-.258.125s-.259.056-.259.124-.088.124-.197.124c-.256 0-1.353 1.056-1.353 1.303 0 .104-.058.189-.129.189s-.129.112-.129.249-.059.249-.13.249-.129.224-.129.497c0 .274-.058.498-.129.498s-.129.223-.129.497.058.497.129.497.129.224.129.498c0 .273.058.497.129.497s.13.112.13.249.058.248.129.248.129.086.129.19c0 .247 1.097 1.303 1.353 1.303.109 0 .197.056.197.124s.117.124.259.124.258.056.258.125c0 .081 3.532.124 10.337.124s10.337-.043 10.337-.124c0-.069.161-.125.359-.125.211 0 .436-.102.545-.248.103-.137.264-.249.358-.249.235 0 .805-.568.805-.803 0-.105.058-.192.129-.192s.129-.112.129-.249c0-.136.059-.248.13-.248s.129-.112.129-.249.058-.249.129-.249c.078 0 .129-.497.129-1.243s-.051-1.244-.129-1.244c-.071 0-.129-.111-.129-.248s-.058-.249-.129-.249-.13-.112-.13-.249c0-.136-.058-.248-.129-.248s-.129-.087-.129-.192c0-.235-.57-.803-.805-.803-.094 0-.255-.112-.358-.249-.109-.146-.334-.248-.545-.248-.198 0-.359-.056-.359-.125 0-.082-3.532-.124-10.337-.124s-10.337.042-10.337.124z" fill="#fc3039" fill-rule="evenodd"/><path clip-rule="evenodd" d="m136.258 121.209c0 .074-.458.125-1.126.125-.667 0-1.126.051-1.126.125 0 .069-.334.125-.751.125s-.751.055-.751.125c0 .069-.225.125-.501.125-.275 0-.5.056-.5.125s-.169.125-.376.125c-.206 0-.375.056-.375.125s-.169.125-.375.125c-.207 0-.376.056-.376.125s-.169.125-.375.125c-.207 0-.376.056-.376.125s-.112.125-.25.125-.25.056-.25.125-.113.125-.251.125c-.137 0-.25.056-.25.125s-.113.125-.25.125c-.138 0-.251.056-.251.125s-.112.125-.25.125-.25.056-.25.125-.1.125-.223.125c-.122 0-.304.112-.403.25-.099.137-.268.25-.375.25-.108 0-.277.112-.376.25-.099.137-.257.25-.35.25-.094 0-.386.225-.651.5s-.543.5-.618.5c-.179 0-2.01 1.829-2.01 2.007 0 .076-.225.353-.501.618-.275.264-.5.556-.5.65 0 .093-.113.25-.251.35-.137.099-.25.267-.25.374 0 .108-.112.276-.25.375-.138.1-.25.281-.25.403s-.057.222-.126.222c-.068 0-.125.113-.125.25 0 .138-.056.25-.125.25s-.125.113-.125.25c0 .138-.056.25-.125.25s-.125.113-.125.25c0 .138-.057.25-.125.25-.069 0-.126.113-.126.25 0 .138-.056.25-.125.25s-.125.169-.125.375c0 .207-.056.375-.125.375s-.125.113-.125.25c0 .138-.057.25-.125.25-.069 0-.125.225-.125.5s-.057.5-.126.5c-.068 0-.125.225-.125.5s-.056.5-.125.5-.125.281-.125.625-.056.625-.125.625c-.077 0-.125.625-.125 1.625s-.049 1.625-.126 1.625c-.068 0-.125.112-.125.25 0 .137.057.25.125.25.077 0 .126.583.126 1.5 0 .916.048 1.5.125 1.5.069 0 .125.333.125.75 0 .416.055.75.125.75.069 0 .125.225.125.5s.057.5.125.5c.069 0 .126.168.126.375 0 .206.056.375.125.375.068 0 .125.168.125.374 0 .207.056.375.125.375s.125.113.125.25c0 .138.056.25.125.25s.125.169.125.375c0 .207.057.375.126.375.068 0 .125.113.125.25 0 .138.056.25.125.25s.125.113.125.25c0 .138.056.25.125.25s.125.1.125.223c0 .122.113.303.251.402.137.099.25.268.25.375s.113.276.25.375c.138.099.25.257.25.35s.226.386.501.65.501.542.501.617c0 .178 2.333 2.508 2.511 2.508.075 0 .353.225.617.5.265.275.558.5.651.5.094 0 .251.112.351.25.099.137.28.25.403.25.122 0 .222.056.222.125s.113.125.251.125c.137 0 .25.056.25.125s.112.125.25.125.25.056.25.125.113.125.251.125c.137 0 .25.056.25.125s.113.125.25.125c.138 0 .251.056.251.125s.112.125.25.125.25.056.25.125.169.125.376.125c.206 0 .375.056.375.125s.113.125.25.125c.138 0 .251.056.251.125s.225.125.5.125c.276 0 .501.056.501.125s.225.125.5.125c.276 0 .501.056.501.125s.282.125.626.125.626.056.626.125c0 .073.417.125 1.001.125s1.001.052 1.001.125c0 .078.751.125 2.002.125 1.252 0 2.003-.047 2.003-.125 0-.072.375-.125.876-.125.5 0 .876-.054.876-.125 0-.069.225-.125.5-.125.276 0 .501-.056.501-.125s.225-.125.5-.125c.276 0 .501-.056.501-.125s.169-.125.375-.125c.207 0 .376-.056.376-.125s.169-.125.375-.125c.207 0 .376-.056.376-.125s.112-.125.25-.125.25-.056.25-.125.113-.125.251-.125c.137 0 .25-.056.25-.125s.113-.125.25-.125c.138 0 .251-.056.251-.125s.112-.125.25-.125.25-.056.25-.125.1-.125.223-.125c.122 0 .304-.113.403-.25.099-.138.268-.25.375-.25.108 0 .277-.113.376-.25.099-.138.258-.25.353-.25.094 0 .33-.169.523-.375s.413-.375.49-.375c.181 0 2.513-2.329 2.513-2.511 0-.076.169-.296.376-.489.206-.192.375-.417.375-.5 0-.082.169-.307.376-.5.206-.192.375-.44.375-.55s.056-.2.125-.2.125-.1.125-.222.113-.304.251-.403c.137-.099.25-.28.25-.402 0-.123.056-.223.125-.223s.125-.168.125-.375v-.375h-1.251c-.751 0-1.252.05-1.252.125 0 .082-1.71.125-4.88.125-3.171 0-4.881.044-4.881.125 0 .069-.1.125-.223.125-.122 0-.304.113-.403.25-.099.138-.28.25-.403.25-.122 0-.223.057-.223.125 0 .069-.112.125-.25.125s-.25.057-.25.125c0 .069-.169.125-.376.125-.206 0-.375.057-.375.125 0 .069-.225.125-.501.125-.275 0-.5.057-.5.125 0 .078-.668.125-1.752.125-1.085 0-1.752-.047-1.752-.125 0-.068-.282-.125-.626-.125s-.626-.056-.626-.125c0-.068-.169-.125-.375-.125-.207 0-.376-.056-.376-.125 0-.068-.112-.125-.25-.125s-.25-.056-.25-.125c0-.068-.113-.125-.251-.125-.137 0-.25-.056-.25-.125 0-.068-.113-.125-.25-.125-.138 0-.251-.056-.251-.125 0-.068-.1-.125-.222-.125-.123 0-.304-.112-.403-.25-.1-.137-.254-.25-.343-.25-.227 0-2.035-1.83-2.035-2.06 0-.104-.056-.189-.125-.189s-.125-.101-.125-.223-.113-.303-.251-.402a.683.683 0 0 1 -.25-.528c0-.191-.056-.347-.125-.347s-.125-.169-.125-.375c0-.207-.057-.375-.125-.375a.127.127 0 0 1 -.126-.125c0-.083 4.863-.125 14.339-.125 12.259 0 14.364-.026 14.517-.179.145-.145.179-.755.179-3.25 0-1.964-.045-3.071-.125-3.071-.07 0-.126-.333-.126-.75s-.055-.75-.125-.75c-.069 0-.125-.281-.125-.625s-.056-.625-.125-.625-.125-.169-.125-.375-.057-.375-.125-.375c-.069 0-.126-.169-.126-.375s-.056-.375-.125-.375c-.068 0-.125-.168-.125-.375 0-.206-.056-.375-.125-.375s-.125-.168-.125-.375c0-.206-.056-.375-.125-.375s-.125-.112-.125-.25c0-.137-.057-.25-.126-.25-.068 0-.125-.112-.125-.25 0-.137-.056-.25-.125-.25s-.125-.112-.125-.25c0-.137-.056-.25-.125-.25s-.125-.1-.125-.222-.113-.303-.251-.403c-.137-.099-.25-.28-.25-.402s-.056-.222-.125-.222-.125-.09-.125-.2-.169-.358-.376-.55c-.206-.193-.375-.416-.375-.496s-.282-.42-.626-.754c-.344-.335-.626-.672-.626-.748 0-.18-.572-.752-.753-.752-.076 0-.413-.282-.748-.625-.336-.344-.675-.625-.755-.625-.081 0-.304-.169-.497-.375s-.428-.375-.523-.375-.254-.113-.353-.25c-.099-.138-.28-.25-.403-.25-.122 0-.223-.056-.223-.125s-.112-.125-.25-.125-.25-.056-.25-.125-.113-.125-.25-.125c-.138 0-.251-.056-.251-.125s-.112-.125-.25-.125-.25-.056-.25-.125-.169-.125-.376-.125c-.206 0-.375-.056-.375-.125s-.113-.125-.251-.125c-.137 0-.25-.056-.25-.125s-.225-.125-.5-.125c-.276 0-.501-.056-.501-.125s-.169-.125-.375-.125c-.207 0-.376-.056-.376-.125s-.281-.125-.626-.125c-.344 0-.625-.056-.625-.125 0-.074-.459-.125-1.127-.125-.667 0-1.126-.051-1.126-.125 0-.076-.584-.125-1.502-.125-.917 0-1.502.049-1.502.125zm40.548 0c0 .073-.417.125-1.001.125s-1.001.052-1.001.125c0 .069-.282.125-.626.125s-.626.056-.626.125-.225.125-.5.125-.501.056-.501.125-.112.125-.25.125-.25.056-.25.125-.169.125-.376.125c-.206 0-.375.056-.375.125s-.113.125-.251.125c-.137 0-.25.056-.25.125s-.112.125-.25.125-.25.056-.25.125-.113.125-.251.125c-.137 0-.25.056-.25.125s-.113.125-.25.125c-.138 0-.251.056-.251.125s-.1.125-.222.125c-.123 0-.304.112-.403.25-.1.137-.258.25-.353.25s-.331.169-.523.375c-.193.206-.414.375-.491.375-.182 0-2.012 1.828-2.012 2.01 0 .077-.169.297-.376.49-.206.192-.375.44-.375.55s-.057.2-.125.2c-.069 0-.125.1-.125.222s-.113.303-.251.403c-.147.105-.25.323-.25.527 0 .191-.056.348-.125.348s-.125.112-.125.249c0 .138-.057.25-.126.25-.068 0-.125.169-.125.375 0 .207-.056.375-.125.375s-.125.169-.125.375c0 .207-.056.375-.125.375s-.125.225-.125.5-.057.5-.125.5c-.083 0-.126 4.542-.126 13.375v13.374h9.512v-11.75c0-7.749.042-11.749.125-11.749.069 0 .125-.281.125-.625s.056-.625.125-.625.125-.169.125-.375.057-.375.125-.375c.069 0 .126-.112.126-.25 0-.137.056-.25.125-.25s.125-.112.125-.25c0-.137.056-.25.125-.25s.125-.086.125-.19c0-.233 1.055-1.31 1.283-1.31.09 0 .245-.112.344-.25.099-.137.281-.25.403-.25.123 0 .223-.056.223-.125 0-.068.112-.125.25-.125s.25-.056.25-.125c0-.068.226-.125.501-.125s.501-.056.501-.125c0-.076.625-.125 1.626-.125 1.002 0 1.627.049 1.627.125 0 .069.169.125.376.125.206 0 .375.057.375.125 0 .069.157.125.348.125.204 0 .422.104.528.25.1.138.254.25.344.25.228 0 1.283 1.077 1.283 1.31 0 .104.057.19.125.19.069 0 .126.113.126.25 0 .138.056.25.125.25s.125.113.125.25c0 .138.056.25.125.25s.125.225.125.5.056.5.125.5c.083 0 .125 4.208.125 12.375v12.374h9.512v-12.999c0-8.583-.043-13-.126-13-.068 0-.125-.281-.125-.625 0-.343-.056-.625-.125-.625s-.125-.168-.125-.375c0-.206-.056-.375-.125-.375s-.125-.168-.125-.375c0-.206-.057-.375-.125-.375-.069 0-.126-.168-.126-.375 0-.206-.056-.375-.125-.375s-.125-.112-.125-.249c0-.138-.056-.25-.125-.25s-.125-.113-.125-.25c0-.138-.056-.25-.125-.25s-.125-.113-.125-.25c0-.138-.057-.25-.126-.25-.068 0-.125-.101-.125-.223s-.112-.303-.25-.402c-.138-.1-.25-.258-.25-.353 0-.094-.169-.33-.376-.522-.206-.193-.375-.413-.375-.49 0-.182-1.58-1.76-1.762-1.76-.077 0-.298-.169-.491-.375s-.428-.375-.523-.375-.254-.113-.353-.25c-.099-.138-.28-.25-.403-.25-.122 0-.223-.056-.223-.125s-.112-.125-.25-.125-.25-.056-.25-.125-.113-.125-.251-.125c-.137 0-.25-.056-.25-.125s-.112-.125-.25-.125-.25-.056-.25-.125-.169-.125-.376-.125c-.206 0-.375-.056-.375-.125s-.169-.125-.376-.125c-.206 0-.375-.056-.375-.125s-.169-.125-.376-.125c-.206 0-.375-.056-.375-.125s-.282-.125-.626-.125-.626-.056-.626-.125c0-.073-.417-.125-1.001-.125s-1.001-.052-1.001-.125c0-.077-.626-.125-1.627-.125s-1.627.048-1.627.125zm41.8 0c0 .074-.459.125-1.127.125-.667 0-1.126.051-1.126.125 0 .069-.334.125-.751.125s-.751.055-.751.125c0 .069-.169.125-.375.125-.207 0-.376.056-.376.125s-.225.125-.5.125c-.276 0-.501.056-.501.125s-.169.125-.375.125c-.207 0-.376.056-.376.125s-.112.125-.25.125-.25.056-.25.125-.169.125-.376.125c-.206 0-.375.056-.375.125s-.113.125-.251.125c-.137 0-.25.056-.25.125s-.113.125-.25.125c-.138 0-.25.056-.25.125s-.101.125-.223.125c-.123 0-.304.112-.403.25-.099.137-.268.25-.376.25-.107 0-.276.112-.375.25-.099.137-.268.25-.376.25-.107 0-.276.112-.375.25-.099.137-.253.25-.342.25-.21 0-3.788 3.573-3.788 3.783 0 .089-.112.242-.25.342-.138.099-.25.267-.25.375 0 .107-.113.275-.251.374-.137.1-.25.281-.25.403s-.056.222-.125.222-.125.101-.125.223-.113.303-.251.402c-.137.1-.25.281-.25.403s-.056.222-.125.222-.125.113-.125.25c0 .138-.057.25-.125.25-.069 0-.126.169-.126.375 0 .207-.056.375-.125.375-.068 0-.125.113-.125.25 0 .138-.056.25-.125.25s-.125.169-.125.375-.056.375-.125.375-.125.225-.125.5-.057.5-.126.5c-.068 0-.125.225-.125.5s-.056.5-.125.5-.125.333-.125.75-.056.75-.125.75c-.08 0-.125 1.042-.125 2.875s.045 2.875.125 2.875c.069 0 .125.333.125.75 0 .416.056.75.125.75s.125.225.125.5.057.5.125.5c.069 0 .126.225.126.5s.056.5.125.5.125.168.125.374c0 .207.056.375.125.375s.125.169.125.375c0 .207.057.375.125.375.069 0 .125.113.125.25 0 .138.057.25.126.25.068 0 .125.113.125.25 0 .138.056.25.125.25s.125.113.125.25c0 .138.056.25.125.25s.125.113.125.25c0 .138.057.25.126.25.068 0 .125.1.125.223 0 .122.112.303.25.402s.25.268.25.375.113.276.251.375c.137.099.25.257.25.35s.225.386.5.65c.276.264.501.542.501.617 0 .179 1.832 2.008 2.01 2.008.075 0 .354.225.618.5.265.275.558.5.651.5.094 0 .251.112.35.25.1.137.268.25.376.25.107 0 .276.112.375.25.099.137.281.25.403.25.123 0 .223.056.223.125s.113.125.25.125c.138 0 .251.056.251.125s.112.125.25.125c.137 0 .25.056.25.125s.113.125.25.125c.138 0 .251.056.251.125s.112.125.25.125.25.056.25.125.169.125.376.125c.206 0 .375.056.375.125s.169.125.376.125c.206 0 .375.056.375.125s.169.125.376.125c.206 0 .375.056.375.125s.225.125.501.125c.275 0 .5.056.5.125s.334.125.751.125.751.055.751.125c0 .073.417.125 1.001.125s1.001.052 1.001.125c0 .077.668.125 1.752.125 1.085 0 1.752-.048 1.752-.125 0-.072.376-.125.876-.125.501 0 .876-.054.876-.125 0-.069.226-.125.501-.125s.501-.056.501-.125.225-.125.5-.125c.276 0 .501-.056.501-.125s.169-.125.375-.125c.207 0 .376-.056.376-.125s.112-.125.25-.125.25-.056.25-.125.169-.125.376-.125c.206 0 .375-.056.375-.125s.113-.125.25-.125c.138 0 .251-.056.251-.125s.112-.125.25-.125.25-.056.25-.125.113-.125.251-.125c.137 0 .25-.056.25-.125s.1-.125.223-.125c.122 0 .303-.113.403-.25.099-.138.28-.25.403-.25.122 0 .222-.056.222-.125s.09-.125.201-.125c.11 0 .357-.169.55-.375s.417-.375.498-.375.364-.225.629-.5c.264-.275.542-.5.618-.5.179 0 1.759-1.579 1.759-1.757 0-.076.226-.354.501-.618s.501-.557.501-.65.112-.251.25-.35.25-.268.25-.375.113-.276.251-.375c.137-.099.25-.268.25-.375s.112-.276.25-.375.25-.28.25-.402c0-.123.057-.223.126-.223.068 0 .125-.112.125-.25 0-.234-.084-.25-1.377-.25-.834 0-1.377.05-1.377.125 0 .082-1.701.125-4.853.125-4.709 0-4.858.008-5.033.25-.099.138-.281.25-.403.25-.123 0-.223.057-.223.125 0 .069-.113.125-.25.125-.138 0-.251.057-.251.125 0 .069-.112.125-.25.125s-.25.057-.25.125c0 .069-.169.125-.376.125-.206 0-.375.057-.375.125 0 .069-.282.125-.626.125s-.625.057-.625.125c0 .077-.585.125-1.502.125-.918 0-1.502-.048-1.502-.125 0-.068-.282-.125-.626-.125s-.626-.056-.626-.125c0-.068-.168-.125-.375-.125-.206 0-.375-.056-.375-.125 0-.068-.169-.125-.376-.125-.206 0-.375-.056-.375-.125 0-.068-.113-.125-.251-.125-.137 0-.25-.056-.25-.125 0-.068-.113-.125-.25-.125-.138 0-.25-.056-.25-.125 0-.068-.09-.125-.201-.125-.11 0-.357-.168-.55-.375-.193-.206-.414-.375-.492-.375-.183 0-1.26-1.076-1.26-1.259 0-.077-.169-.298-.376-.49-.206-.193-.375-.441-.375-.551s-.057-.199-.125-.199c-.069 0-.126-.113-.126-.25 0-.138-.056-.25-.125-.25s-.125-.169-.125-.375c0-.207-.056-.375-.125-.375s-.125-.169-.125-.375v-.375h28.784v-1.5c0-.917.048-1.5.125-1.5.069 0 .125-.334.125-.75 0-.417-.056-.75-.125-.75-.076 0-.125-.542-.125-1.375s-.05-1.375-.125-1.375c-.069 0-.126-.281-.126-.625s-.056-.625-.125-.625-.125-.225-.125-.5-.056-.5-.125-.5-.125-.169-.125-.375-.056-.375-.125-.375-.125-.169-.125-.375-.057-.375-.126-.375c-.068 0-.125-.168-.125-.375 0-.206-.056-.375-.125-.375s-.125-.112-.125-.25c0-.137-.056-.25-.125-.25s-.125-.112-.125-.25c0-.137-.057-.25-.125-.25-.069 0-.126-.156-.126-.347a.683.683 0 0 0 -.25-.528c-.138-.099-.25-.28-.25-.402s-.057-.223-.125-.223c-.069 0-.125-.112-.125-.25 0-.137-.057-.25-.126-.25-.068 0-.125-.089-.125-.199s-.169-.358-.375-.55c-.207-.193-.376-.418-.376-.5 0-.083-.169-.308-.375-.5-.207-.193-.376-.413-.376-.49 0-.18-1.829-2.01-2.01-2.01-.075 0-.353-.225-.618-.5-.264-.275-.547-.5-.628-.5s-.305-.169-.498-.375-.441-.375-.551-.375-.2-.056-.2-.125-.112-.125-.25-.125-.25-.056-.25-.125-.113-.125-.251-.125c-.137 0-.25-.056-.25-.125s-.113-.125-.25-.125c-.138 0-.251-.056-.251-.125s-.112-.125-.25-.125-.25-.056-.25-.125-.113-.125-.251-.125c-.137 0-.25-.056-.25-.125s-.169-.125-.375-.125c-.207 0-.376-.056-.376-.125s-.169-.125-.375-.125c-.207 0-.376-.056-.376-.125s-.225-.125-.5-.125-.501-.056-.501-.125-.281-.125-.626-.125c-.344 0-.625-.056-.625-.125 0-.074-.459-.125-1.127-.125-.667 0-1.126-.051-1.126-.125 0-.076-.584-.125-1.502-.125-.917 0-1.501.049-1.501.125zm45.553.25c0 .076-.542.125-1.376.125-.835 0-1.377.049-1.377.125 0 .069-.334.125-.751.125s-.751.055-.751.125c0 .069-.281.125-.625.125-.345 0-.626.056-.626.125s-.225.125-.501.125c-.275 0-.5.056-.5.125s-.169.125-.376.125c-.206 0-.375.056-.375.125s-.169.125-.376.125c-.206 0-.375.056-.375.125s-.169.125-.376.125c-.206 0-.375.056-.375.125s-.169.125-.376.125c-.206 0-.375.056-.375.125s-.113.125-.25.125c-.138 0-.251.056-.251.125s-.112.125-.25.125c-.137 0-.25.056-.25.125s-.113.125-.25.125c-.138 0-.251.056-.251.125s-.112.125-.25.125-.25.056-.25.125-.101.125-.223.125-.304.112-.403.25c-.099.137-.268.25-.375.25-.108 0-.277.112-.376.25-.099.137-.253.25-.342.25-.193 0-2.787 2.563-2.787 2.754 0 .072-.136.268-.303.435-.167.166-.339.417-.384.557-.044.139-.133.254-.197.254s-.117.112-.117.249c0 .138-.056.25-.125.25s-.125.169-.125.375c0 .207-.056.375-.125.375s-.125.113-.125.25c0 .138-.057.25-.126.25-.068 0-.125.225-.125.5s-.056.5-.125.5-.125.225-.125.5-.056.5-.125.5c-.083 0-.125 4.417-.125 13v12.999h9.511v-10.375c0-6.833.043-10.374.125-10.374.069 0 .125-.281.125-.625s.057-.625.125-.625c.069 0 .126-.169.126-.375s.056-.375.125-.375.125-.169.125-.375.056-.375.125-.375.125-.112.125-.25c0-.137.056-.25.125-.25s.125-.085.125-.189c0-.247 1.816-2.061 2.063-2.061.105 0 .19-.056.19-.125 0-.068.113-.125.25-.125.138 0 .251-.056.251-.125 0-.068.112-.125.25-.125s.25-.056.25-.125c0-.068.169-.125.376-.125.206 0 .375-.056.375-.125 0-.068.282-.125.626-.125s.626-.056.626-.125c0-.074.459-.125 1.126-.125s1.126-.05 1.126-.125c0-.069.334-.125.751-.125h.751v-4.946c0-4.12-.03-4.976-.179-5.124-.203-.203-1.323-.249-1.323-.054zm-125.147 8.749c0 .069.225.125.5.125.276 0 .501.057.501.125 0 .069.169.125.375.125.207 0 .376.057.376.125 0 .069.169.125.375.125.207 0 .376.057.376.125 0 .069.112.125.25.125s.25.057.25.125c0 .069.1.125.223.125.122 0 .304.113.403.25.099.138.257.25.35.25.094 0 .387.225.651.5.265.275.544.5.622.5.184 0 .755.573.755.757 0 .079.169.301.375.493.207.193.376.428.376.523 0 .094.112.253.25.352s.25.28.25.403c0 .122.057.222.125.222.069 0 .126.113.126.25 0 .138.056.25.125.25s.125.169.125.375.056.375.125.375.125.056.125.125c0 .082-3.295.125-9.636.125s-9.637-.043-9.637-.125c0-.069.057-.125.126-.125.068 0 .125-.169.125-.375s.056-.375.125-.375.125-.156.125-.347c0-.204.103-.422.25-.528.138-.099.251-.28.251-.402 0-.123.056-.223.125-.223s.125-.1.125-.222c0-.123.113-.304.25-.403.138-.099.25-.253.25-.342 0-.211 1.574-1.783 1.785-1.783.089 0 .244-.112.343-.25.099-.137.281-.25.403-.25s.223-.056.223-.125c0-.068.112-.125.25-.125s.25-.056.25-.125c0-.068.169-.125.376-.125.206 0 .375-.056.375-.125 0-.068.169-.125.376-.125.206 0 .375-.056.375-.125 0-.068.225-.125.501-.125.275 0 .5-.056.5-.125 0-.077.709-.125 1.877-.125s1.878.048 1.878.125zm82.347 0c0 .069.281.125.626.125.344 0 .625.057.625.125 0 .069.169.125.376.125.206 0 .375.057.375.125 0 .069.113.125.25.125.138 0 .251.057.251.125 0 .069.112.125.25.125s.25.057.25.125c0 .069.113.125.251.125.137 0 .25.057.25.125 0 .069.1.125.223.125.122 0 .303.113.403.25.099.138.253.25.342.25.212 0 2.035 1.822 2.035 2.033 0 .089.113.243.251.342.137.099.25.268.25.375s.113.276.25.375c.138.099.251.28.251.403 0 .122.056.222.125.222s.125.169.125.375.056.375.125.375.125.113.125.25c0 .248-.083.25-9.511.25h-9.511v-.375c0-.206.056-.375.125-.375s.125-.169.125-.375.056-.375.125-.375.125-.112.125-.25c0-.137.057-.25.126-.25.068 0 .125-.1.125-.222 0-.123.112-.304.25-.403s.25-.268.25-.375.113-.276.251-.375c.137-.099.25-.253.25-.343 0-.212 1.07-1.282 1.283-1.282.09 0 .245-.112.344-.25.099-.137.268-.25.375-.25s.276-.112.376-.25c.099-.137.28-.25.403-.25.122 0 .222-.056.222-.125 0-.068.169-.125.376-.125.206 0 .375-.056.375-.125 0-.068.169-.125.376-.125.206 0 .375-.056.375-.125 0-.068.282-.125.626-.125s.626-.056.626-.125c0-.077.667-.125 1.752-.125 1.084 0 1.752.048 1.752.125z" fill="#35322b" fill-rule="evenodd"/><path d="m413.366 117.046a8.062 8.062 0 0 1 8.062-8.062h57.15a8.062 8.062 0 0 1 8.061 8.062v54.219a8.062 8.062 0 0 1 -8.061 8.062h-57.15a8.062 8.062 0 0 1 -8.062-8.062z" fill="#fff"/><path clip-rule="evenodd" d="m480.029 114.847h-7.491v.004h-10.788v7.491h10.788v11.157h7.491v-11.157h.004v-7.491h-.004zm-51.451 0h-7.492v.004h-.004v7.491h.004v11.157h7.492v-11.157h10.786v-7.491h-10.786zm29.465 14.451h-7.491v7.484h-7.485v7.485h7.491v-7.483h7.485zm-14.984.001h-7.491v7.485h7.491zm7.477 22.557h-14.983v7.486h14.983zm7.522-15.074h7.491v7.485h-7.491zm7.491 15.074h-7.491v7.486h7.491zm-36.969 21.934h-7.492v-.002h-.003v-7.492h.003v-11.158h7.492v11.158h10.788v7.492h-10.788zm51.449 0h-7.491v-.001h-10.788v-7.491h10.788v-11.16h7.491v11.16h.004v7.491h-.004z" fill="#35322b" fill-rule="evenodd"/><path d="m93.895 251.595c0-11.873 9.625-21.498 21.498-21.498h150.442c11.874 0 21.499 9.625 21.499 21.498v18.893c0 11.874-9.625 21.499-21.499 21.499h-150.442c-11.873 0-21.498-9.625-21.498-21.499z" fill="#bebebd"/><path d="m106.775 255.321c0-7.421 6.016-13.436 13.436-13.436h140.775c7.42 0 13.436 6.015 13.436 13.436v11.44c0 7.421-6.016 13.437-13.436 13.437h-140.775c-7.42 0-13.436-6.016-13.436-13.437z" fill="#ffe658"/><path d="m177.709 259.568a2.947 2.947 0 0 1 2.947-2.947h19.898a2.948 2.948 0 0 1 0 5.894h-19.898a2.946 2.946 0 0 1 -2.947-2.947z" fill="url(#b)"/><path d="m177.709 259.568a2.947 2.947 0 0 1 2.947-2.947h19.898a2.948 2.948 0 0 1 0 5.894h-19.898a2.946 2.946 0 0 1 -2.947-2.947z" fill="#f1af06"/><path d="m93.89 340.008c0-11.873 9.625-21.498 21.498-21.498h150.442c11.873 0 21.499 9.625 21.499 21.498v18.894c0 11.873-9.626 21.498-21.499 21.498h-150.442c-11.873 0-21.499-9.625-21.499-21.498v-18.894z" fill="#bebebd"/><path d="m106.769 343.734c0-7.42 6.015-13.436 13.436-13.436h140.774c7.421 0 13.437 6.016 13.437 13.436v11.44c0 7.421-6.016 13.437-13.437 13.437h-140.774c-7.421 0-13.436-6.016-13.436-13.437z" fill="#ffe658"/><path d="m177.703 347.981a2.947 2.947 0 0 1 2.947-2.947h19.897a2.947 2.947 0 0 1 0 5.894h-19.897a2.946 2.946 0 0 1 -2.947-2.947z" fill="url(#c)"/><path d="m177.703 347.981a2.947 2.947 0 0 1 2.947-2.947h19.897a2.947 2.947 0 0 1 0 5.894h-19.897a2.946 2.946 0 0 1 -2.947-2.947z" fill="#f1af06"/><path d="m93.89 428.423c0-11.873 9.625-21.498 21.498-21.498h150.442c11.873 0 21.499 9.625 21.499 21.498v18.894c0 11.873-9.626 21.498-21.499 21.498h-150.442c-11.873 0-21.499-9.625-21.499-21.498v-18.894z" fill="#bebebd"/><path d="m106.769 432.149c0-7.42 6.015-13.436 13.436-13.436h140.774c7.421 0 13.437 6.016 13.437 13.436v11.44c0 7.421-6.016 13.437-13.437 13.437h-140.774c-7.421 0-13.436-6.016-13.436-13.437z" fill="#ffe658"/><path d="m177.703 436.397a2.947 2.947 0 0 1 2.947-2.947h19.897a2.947 2.947 0 0 1 0 5.894h-19.897a2.946 2.946 0 0 1 -2.947-2.947z" fill="url(#d)"/><path d="m177.703 436.397a2.947 2.947 0 0 1 2.947-2.947h19.897a2.947 2.947 0 0 1 0 5.894h-19.897a2.946 2.946 0 0 1 -2.947-2.947z" fill="#f1af06"/><path d="m93.89 516.835c0-11.873 9.625-21.498 21.498-21.498h150.442c11.873 0 21.499 9.625 21.499 21.498v18.894c0 11.873-9.626 21.498-21.499 21.498h-150.442c-11.873 0-21.499-9.625-21.499-21.498v-18.894z" fill="#bebebd"/><path d="m106.769 520.561c0-7.42 6.015-13.436 13.436-13.436h140.774c7.421 0 13.437 6.016 13.437 13.436v11.44c0 7.421-6.016 13.437-13.437 13.437h-140.774c-7.421 0-13.436-6.016-13.436-13.437z" fill="#ffe658"/><path d="m177.703 524.81a2.947 2.947 0 0 1 2.947-2.947h19.897a2.947 2.947 0 0 1 0 5.895h-19.897a2.947 2.947 0 0 1 -2.947-2.948z" fill="url(#e)"/><path d="m177.703 524.81a2.947 2.947 0 0 1 2.947-2.947h19.897a2.947 2.947 0 0 1 0 5.895h-19.897a2.947 2.947 0 0 1 -2.947-2.948z" fill="#f1af06"/><path d="m319.581 251.594c0-11.873 9.625-21.498 21.498-21.498h150.445c11.874 0 21.499 9.625 21.499 21.498v18.893c0 11.874-9.625 21.499-21.499 21.499h-150.445c-11.873 0-21.498-9.625-21.498-21.499z" fill="#bebebd"/><path d="m332.46 255.321c0-7.421 6.015-13.436 13.436-13.436h140.777c7.42 0 13.436 6.015 13.436 13.436v11.44c0 7.421-6.016 13.437-13.436 13.437h-140.777c-7.421 0-13.436-6.016-13.436-13.437z" fill="#ffe658"/><path d="m403.399 259.566a2.947 2.947 0 0 1 2.947-2.947h19.898a2.948 2.948 0 0 1 0 5.894h-19.898a2.946 2.946 0 0 1 -2.947-2.947z" fill="url(#f)"/><path d="m403.399 259.566a2.947 2.947 0 0 1 2.947-2.947h19.898a2.948 2.948 0 0 1 0 5.894h-19.898a2.946 2.946 0 0 1 -2.947-2.947z" fill="#f1af06"/><path d="m319.577 340.007c0-11.873 9.626-21.498 21.499-21.498h150.445c11.873 0 21.498 9.625 21.498 21.498v18.894c0 11.873-9.625 21.498-21.498 21.498h-150.445c-11.874 0-21.499-9.625-21.499-21.498z" fill="#bebebd"/><path d="m332.457 343.733c0-7.42 6.015-13.436 13.436-13.436h140.777c7.42 0 13.436 6.016 13.436 13.436v11.44c0 7.421-6.016 13.437-13.436 13.437h-140.777c-7.421 0-13.436-6.016-13.436-13.437z" fill="#ffe658"/><path d="m403.398 347.981a2.947 2.947 0 0 1 2.947-2.947h19.898a2.948 2.948 0 0 1 0 5.894h-19.898a2.946 2.946 0 0 1 -2.947-2.947z" fill="url(#g)"/><path d="m403.398 347.981a2.947 2.947 0 0 1 2.947-2.947h19.898a2.948 2.948 0 0 1 0 5.894h-19.898a2.946 2.946 0 0 1 -2.947-2.947z" fill="#f1af06"/><path d="m319.577 428.422c0-11.873 9.626-21.498 21.499-21.498h150.445c11.873 0 21.498 9.625 21.498 21.498v18.894c0 11.873-9.625 21.498-21.498 21.498h-150.445c-11.874 0-21.499-9.625-21.499-21.498z" fill="#bebebd"/><path d="m332.457 432.149c0-7.42 6.015-13.436 13.436-13.436h140.777c7.42 0 13.436 6.016 13.436 13.436v11.44c0 7.421-6.016 13.437-13.436 13.437h-140.777c-7.421 0-13.436-6.016-13.436-13.437z" fill="#ffe658"/><path d="m403.398 436.396a2.947 2.947 0 0 1 2.947-2.947h19.898a2.948 2.948 0 0 1 0 5.895h-19.898a2.947 2.947 0 0 1 -2.947-2.948z" fill="url(#h)"/><path d="m403.398 436.396a2.947 2.947 0 0 1 2.947-2.947h19.898a2.948 2.948 0 0 1 0 5.895h-19.898a2.947 2.947 0 0 1 -2.947-2.948z" fill="#f1af06"/><path d="m319.577 516.834c0-11.873 9.626-21.498 21.499-21.498h150.445c11.873 0 21.498 9.625 21.498 21.498v18.894c0 11.873-9.625 21.498-21.498 21.498h-150.445c-11.874 0-21.499-9.625-21.499-21.498z" fill="#bebebd"/><path d="m332.457 520.558c0-7.421 6.015-13.437 13.436-13.437h140.777c7.42 0 13.436 6.016 13.436 13.437v11.44c0 7.42-6.016 13.436-13.436 13.436h-140.777c-7.421 0-13.436-6.016-13.436-13.436z" fill="#ffe658"/><path d="m403.398 524.808a2.947 2.947 0 0 1 2.947-2.947h19.898a2.948 2.948 0 0 1 0 5.895h-19.898a2.947 2.947 0 0 1 -2.947-2.948z" fill="url(#i)"/><path d="m403.398 524.808a2.947 2.947 0 0 1 2.947-2.947h19.898a2.948 2.948 0 0 1 0 5.895h-19.898a2.947 2.947 0 0 1 -2.947-2.948z" fill="#f1af06"/><path d="m629.318 302.871c2.036-14.5-7.932-27.952-22.395-30.243l-131.649-20.851c-14.354-2.273-27.921 7.285-30.583 21.572-22.326 119.838-34.191 195.737-49.321 311.428-1.885 14.413 8.066 27.697 22.423 29.971l131.654 20.852c14.458 2.289 28.092-7.412 30.64-21.826 20.868-118.049 32.804-193.916 49.231-310.903z" fill="#35322b"/><g mask="url(#j)"><path d="m617.411 304.762c1.438-10.16-5.536-19.631-15.672-21.236l-124.954-19.791c-10.066-1.594-19.58 5.158-21.43 15.181-21.972 119.066-33.356 191.888-48.577 306.723-1.339 10.105 5.624 19.466 15.691 21.06l124.958 19.792c10.133 1.604 19.69-5.244 21.465-15.348 20.607-117.338 32.064-190.153 48.519-306.381z" fill="#fff"/></g><path d="m457.668 405.785a7.965 7.965 0 0 1 9.126-6.604l90.836 14.562a7.965 7.965 0 0 1 6.604 9.125l-7.241 45.166a7.964 7.964 0 0 1 -9.125 6.603l-90.836-14.562a7.965 7.965 0 0 1 -6.604-9.125z" fill="#d4d4d4"/><path d="m462.234 409.705a5.974 5.974 0 0 1 6.844-4.953l84.619 13.566a5.973 5.973 0 0 1 4.953 6.844l-6.243 38.948a5.975 5.975 0 0 1 -6.845 4.953l-84.619-13.565a5.974 5.974 0 0 1 -4.953-6.844z" fill="#fff"/><path d="m466.821 413.625a3.983 3.983 0 0 1 4.563-3.302l78.403 12.569a3.983 3.983 0 0 1 3.302 4.562l-5.248 32.732a3.982 3.982 0 0 1 -4.562 3.302l-78.403-12.569a3.983 3.983 0 0 1 -3.302-4.563z" fill="#10cda0"/><path d="m499.34 437.991 13.467-15.822-4.735 12.49 9.768 1.566-16.131 15.395 6.511-12.205z" fill="#fff"/><path d="m564.765 435.706 5.645.905a1.992 1.992 0 0 1 1.651 2.282l-2.623 16.365a1.992 1.992 0 0 1 -2.282 1.651l-5.645-.905z" fill="#d4d4d4"/><path d="m519.439 604.74a2.621 2.621 0 0 0 -2.178-2.998l-58.173-9.213a2.62 2.62 0 1 0 -.82 5.175l58.173 9.214a2.62 2.62 0 0 0 2.998-2.178zm62.566-330.197-83.354-13.202-2.015 12.722c-.929 5.864 3.072 11.37 8.935 12.299l62.12 9.838c5.864.929 11.37-3.071 12.299-8.935z" fill="#35322b"/></svg>