<svg fill="none" height="217" width="375" xmlns="http://www.w3.org/2000/svg" xmlns:xlink="http://www.w3.org/1999/xlink"><linearGradient id="a" gradientUnits="userSpaceOnUse" x1="281.83" x2="327.574" y1="98.415" y2="18.517"><stop offset="0" stop-color="#f3b71c"/><stop offset="1" stop-color="#fffba7"/></linearGradient><linearGradient id="b" gradientUnits="userSpaceOnUse" x1="304.993" x2="304.993" y1="12.695" y2="104.569"><stop offset="0" stop-color="#f31c36"/><stop offset="1" stop-color="#e9038d"/></linearGradient><linearGradient id="c" gradientUnits="userSpaceOnUse" x1="316.594" x2="293.75" y1="15.694" y2="101.666"><stop offset="0" stop-color="#ffe551"/><stop offset="1" stop-color="#f27a0a"/></linearGradient><path d="m0 12c0-6.627 5.373-12 12-12h351c6.627 0 12 5.373 12 12v205h-375z" fill="#fff"/><rect fill="#c8c7cc" height="4.04" rx="2.02" width="32" x="172" y="33.63"/><rect fill="#fcde31" height="48" rx="8" width="335" x="20" y="127"/><path d="m132.89 150.808h2.473c.681 0 1.209-.175 1.586-.523.37-.349.556-.841.556-1.478 0-.625-.194-1.115-.581-1.469-.393-.36-.93-.54-1.611-.54h-2.423zm0 6.192h-2.142v-11.978h4.864c1.256 0 2.253.338 2.989 1.013.736.669 1.104 1.58 1.104 2.731 0 .796-.197 1.497-.59 2.1a3.244 3.244 0 0 1 -1.668 1.311l2.614 4.823h-2.448l-2.349-4.491h-2.374zm12.315-7.628c-.615 0-1.121.202-1.519.606-.399.404-.62.938-.664 1.602h4.275c-.023-.676-.222-1.212-.598-1.611-.376-.398-.875-.597-1.494-.597zm4.059 5.129a3.13 3.13 0 0 1 -1.362 1.959c-.719.482-1.61.723-2.672.723-1.334 0-2.383-.418-3.146-1.254-.759-.83-1.138-1.975-1.138-3.436s.382-2.621 1.146-3.478c.764-.853 1.804-1.279 3.121-1.279 1.295 0 2.31.407 3.046 1.221.731.807 1.096 1.928 1.096 3.361v.664h-6.342v.108c.028.758.244 1.356.648 1.793.409.443.952.664 1.627.664 1.04 0 1.715-.348 2.025-1.046zm4.454-8.749v2.225h1.992v1.644h-1.992v4.457c0 .863.415 1.295 1.245 1.295.188 0 .415-.014.681-.041v1.61c-.332.066-.686.1-1.063.1-1.04 0-1.787-.191-2.241-.573-.448-.382-.672-1.013-.672-1.893v-4.955h-1.478v-1.644h1.478v-2.225zm11.684 11.248h-1.984v-1.444h-.141c-.459 1.084-1.397 1.627-2.814 1.627-1.007 0-1.795-.296-2.365-.889-.581-.597-.872-1.43-.872-2.498v-5.877h2.059v5.387c0 1.378.63 2.067 1.892 2.067.664 0 1.193-.194 1.586-.581.387-.387.581-.916.581-1.585v-5.288h2.058zm2.122-9.081h1.984v1.411h.141c.127-.454.41-.827.847-1.121.448-.293.96-.439 1.535-.439.355 0 .637.03.847.091v1.909c-.21-.077-.559-.116-1.046-.116-.664 0-1.203.191-1.619.573-.42.387-.63.896-.63 1.527v5.246h-2.059zm6.679 0h1.984v1.453h.141c.216-.51.575-.908 1.079-1.196.509-.293 1.101-.44 1.776-.44 1.013 0 1.793.294 2.341.88.548.587.822 1.422.822 2.507v5.877h-2.05v-5.387c0-1.389-.626-2.084-1.876-2.084-.664 0-1.19.197-1.577.59-.388.393-.582.924-.582 1.593v5.288h-2.058zm19.351 9.23c-1.345 0-2.291-.528-2.839-1.585h-.141v1.436h-1.984v-12.592h2.059v4.955h.141a2.696 2.696 0 0 1 1.095-1.17 3.3 3.3 0 0 1 1.669-.423c1.151 0 2.058.417 2.722 1.253.67.841 1.005 1.987 1.005 3.436 0 1.445-.335 2.588-1.005 3.429-.669.841-1.577 1.261-2.722 1.261zm-.648-7.628c-.702 0-1.259.263-1.668.789-.415.531-.623 1.247-.623 2.149 0 .908.205 1.625.615 2.15.415.526.974.789 1.676.789.703 0 1.257-.263 1.66-.789.399-.52.598-1.236.598-2.15 0-.913-.202-1.632-.606-2.158-.398-.52-.949-.78-1.652-.78zm9.136 6.01c.62 0 1.137-.177 1.552-.531.416-.36.623-.803.623-1.329v-.722l-2.05.133c-1.129.072-1.694.481-1.694 1.229 0 .376.147.675.44.896.288.216.664.324 1.129.324zm-.606 1.618c-.885 0-1.605-.246-2.158-.738-.564-.504-.847-1.165-.847-1.984s.299-1.461.897-1.926c.592-.465 1.441-.73 2.548-.797l2.341-.141v-.764c0-.924-.57-1.386-1.71-1.386-.996 0-1.591.316-1.785.946h-1.942c.083-.802.473-1.438 1.17-1.909.692-.476 1.578-.714 2.657-.714 1.162 0 2.061.269 2.697.806.631.536.947 1.289.947 2.257v6.201h-1.984v-1.245h-.141c-.537.93-1.434 1.394-2.69 1.394zm9.593-11.397v2.225h1.992v1.644h-1.992v4.457c0 .863.415 1.295 1.245 1.295.188 0 .415-.014.68-.041v1.61a5.44 5.44 0 0 1 -1.062.1c-1.04 0-1.787-.191-2.241-.573-.448-.382-.673-1.013-.673-1.893v-4.955h-1.477v-1.644h1.477v-2.225zm6.347 0v2.225h1.992v1.644h-1.992v4.457c0 .863.415 1.295 1.245 1.295.188 0 .415-.014.68-.041v1.61a5.44 5.44 0 0 1 -1.062.1c-1.041 0-1.788-.191-2.241-.573-.449-.382-.673-1.013-.673-1.893v-4.955h-1.477v-1.644h1.477v-2.225zm7.318 3.62c-.615 0-1.121.202-1.519.606-.399.404-.62.938-.665 1.602h4.275c-.022-.676-.221-1.212-.597-1.611-.377-.398-.875-.597-1.494-.597zm4.059 5.129a3.13 3.13 0 0 1 -1.362 1.959c-.719.482-1.61.723-2.673.723-1.333 0-2.382-.418-3.146-1.254-.758-.83-1.137-1.975-1.137-3.436s.382-2.621 1.146-3.478c.763-.853 1.804-1.279 3.121-1.279 1.295 0 2.31.407 3.046 1.221.731.807 1.096 1.928 1.096 3.361v.664h-6.342v.108c.028.758.244 1.356.648 1.793.409.443.951.664 1.627.664 1.04 0 1.715-.348 2.025-1.046zm1.748-6.582h1.984v1.411h.141c.127-.454.409-.827.847-1.121.448-.293.96-.439 1.535-.439.354 0 .637.03.847.091v1.909c-.21-.077-.559-.116-1.046-.116-.664 0-1.204.191-1.619.573-.42.387-.631.896-.631 1.527v5.246h-2.058zm7.642 12.385c-.426 0-.698-.011-.814-.033v-1.677c.116.016.305.025.565.025.835 0 1.378-.393 1.627-1.179l.107-.398-3.245-9.123h2.258l2.125 7.089h.141l2.116-7.089h2.175l-3.279 9.372c-.387 1.123-.857 1.906-1.411 2.349-.559.442-1.347.664-2.365.664zm-209.205-113.304v-5.79l5.403-9.711h-3.48l-3.481 6.617h-.075l-3.47-6.617h-3.534l5.392 9.711v5.79h3.244zm9.955.247c3.48 0 5.704-2.224 5.704-6.016 0-3.738-2.255-5.994-5.704-5.994-3.448 0-5.704 2.267-5.704 5.994 0 3.782 2.224 6.016 5.704 6.016zm0-2.395c-1.547 0-2.524-1.3-2.524-3.61 0-2.288.999-3.61 2.524-3.61 1.526 0 2.514 1.322 2.514 3.61 0 2.31-.978 3.61-2.514 3.61zm18.281-9.368h-3.136v6.596c0 1.526-.87 2.525-2.267 2.525-1.386 0-2.149-.817-2.149-2.353v-6.768h-3.136v7.423c0 2.686 1.654 4.308 4.146 4.308 1.74 0 2.88-.838 3.448-2.288h.065v2.073h3.03v-11.516zm4.929 2.063 1.547-6.048h-2.976l-.913 6.048zm14.338-2.063h-3.276l-2.385 8.744h-.064l-2.396-8.744h-3.362l3.985 11.516h3.545zm8.72 7.993c-.29.88-1.17 1.45-2.32 1.45-1.6 0-2.642-1.128-2.642-2.772v-.193h7.938v-.956c0-3.502-2.116-5.769-5.468-5.769-3.405 0-5.553 2.385-5.553 6.059 0 3.684 2.127 5.951 5.671 5.951 2.847 0 4.91-1.515 5.253-3.77zm-2.46-5.92c1.397 0 2.353 1.01 2.418 2.482h-4.889c.107-1.44 1.096-2.481 2.47-2.481zm17.323 13.783c3.448 0 5.747-1.762 5.747-4.501v-11.355h-3.094v2.01h-.053c-.602-1.322-1.902-2.192-3.556-2.192-2.922 0-4.726 2.245-4.726 5.897 0 3.599 1.858 5.769 4.672 5.769 1.665 0 3.019-.838 3.556-2.063h.065v2.02c0 1.332-.903 2.223-2.525 2.223-1.192 0-2.095-.537-2.342-1.332h-3.072c.247 2.052 2.299 3.524 5.328 3.524zm.054-6.79c-1.558 0-2.525-1.224-2.525-3.33 0-2.094.978-3.405 2.525-3.405 1.568 0 2.567 1.333 2.567 3.406 0 2.084-.999 3.33-2.567 3.33zm13.35 2.697c3.481 0 5.704-2.224 5.704-6.016 0-3.738-2.256-5.994-5.704-5.994s-5.704 2.267-5.704 5.994c0 3.782 2.224 6.016 5.704 6.016zm0-2.395c-1.547 0-2.524-1.3-2.524-3.61 0-2.288.999-3.61 2.524-3.61 1.526 0 2.514 1.322 2.514 3.61 0 2.31-.978 3.61-2.514 3.61zm8.484-12.02v2.652h-1.622v2.364h1.622v6.047c0 2.246 1.053 3.148 3.76 3.148.634 0 1.171-.054 1.493-.129v-2.31a5.074 5.074 0 0 1 -.763.054c-.923 0-1.353-.419-1.353-1.3v-5.51h2.127v-2.364h-2.127v-2.653h-3.137zm12.822 0v2.652h-1.622v2.364h1.622v6.047c0 2.246 1.053 3.148 3.76 3.148.633 0 1.171-.054 1.493-.129v-2.31a5.094 5.094 0 0 1 -.763.054c-.924 0-1.353-.419-1.353-1.3v-5.51h2.127v-2.364h-2.127v-2.653h-3.137zm7.377 14.168h3.137v-6.574c0-1.515.87-2.557 2.353-2.557 1.428 0 2.159.903 2.159 2.385v6.746h3.137v-7.412c0-2.664-1.461-4.319-4.018-4.319-1.751 0-3.008.817-3.62 2.267h-.065v-6.036h-3.083zm20.741-3.523c-.29.88-1.171 1.45-2.32 1.45-1.601 0-2.643-1.128-2.643-2.772v-.193h7.939v-.956c0-3.502-2.116-5.769-5.468-5.769-3.405 0-5.554 2.385-5.554 6.059 0 3.684 2.127 5.951 5.672 5.951 2.847 0 4.91-1.515 5.253-3.77zm-2.46-5.92c1.397 0 2.353 1.01 2.417 2.482h-4.887c.107-1.44 1.095-2.481 2.47-2.481zm18.784-2.255c-1.665 0-2.943.838-3.566 2.191h-.065v-2.009h-3.094v15.276h3.137v-5.694h.065c.612 1.3 1.901 2.117 3.577 2.117 2.879 0 4.662-2.235 4.662-5.94 0-3.718-1.794-5.941-4.716-5.941zm-1.053 9.356c-1.536 0-2.546-1.332-2.546-3.416 0-2.062 1.01-3.427 2.546-3.427 1.569 0 2.557 1.343 2.557 3.427 0 2.095-.988 3.416-2.557 3.416zm12.996 2.59c3.48 0 5.704-2.225 5.704-6.017 0-3.738-2.256-5.994-5.704-5.994s-5.704 2.267-5.704 5.994c0 3.782 2.224 6.016 5.704 6.016zm0-2.396c-1.547 0-2.524-1.3-2.524-3.61 0-2.288.999-3.61 2.524-3.61s2.514 1.322 2.514 3.61c0 2.31-.978 3.61-2.514 3.61zm23.695-9.368h-3.094l-1.751 8.54h-.064l-2.052-8.54h-3.008l-2.041 8.54h-.064l-1.74-8.54h-3.159l3.062 11.516h3.298l2.073-8.143h.064l2.084 8.143h3.341zm9 7.993c-.29.88-1.171 1.45-2.321 1.45-1.6 0-2.642-1.128-2.642-2.772v-.193h7.938v-.956c0-3.502-2.116-5.769-5.467-5.769-3.406 0-5.554 2.385-5.554 6.059 0 3.684 2.127 5.951 5.672 5.951 2.846 0 4.909-1.515 5.253-3.77zm-2.46-5.92c1.396 0 2.352 1.01 2.417 2.482h-4.888c.107-1.44 1.096-2.481 2.471-2.481zm7.377 9.443h3.137v-6.435c0-1.622.902-2.567 2.449-2.567.451 0 .881.075 1.139.183v-2.761a3.197 3.197 0 0 0 -.892-.118c-1.353 0-2.331.795-2.739 2.256h-.064v-2.074h-3.03zm9.183-15.501.257 10.399h2.708l.257-10.399zm1.611 15.77c.978 0 1.751-.742 1.751-1.687s-.773-1.687-1.751-1.687-1.751.742-1.751 1.687.773 1.687 1.751 1.687z" fill="#0e173c"/><path d="m24.304 64.84c1.358 0 2.418.402 3.18 1.206.762.809 1.142 1.932 1.142 3.371 0 1.443-.38 2.569-1.142 3.377-.758.804-1.818 1.206-3.18 1.206h-3.142v-9.16zm-2 8.132h1.924c1.02 0 1.813-.311 2.38-.933.567-.623.85-1.492.85-2.61 0-1.12-.283-1.995-.85-2.62-.571-.627-1.365-.94-2.38-.94h-1.924zm10.895.165c.648 0 1.147-.225 1.498-.673.352-.445.527-1.073.527-1.885 0-.813-.175-1.443-.527-1.892-.35-.444-.85-.666-1.498-.666-.647 0-1.146.222-1.498.666-.351.449-.527 1.08-.527 1.892s.176 1.44.527 1.885c.352.448.85.673 1.498.673zm0 .984c-.973 0-1.743-.316-2.31-.946-.563-.635-.845-1.5-.845-2.596 0-1.1.282-1.966.845-2.597.563-.63 1.333-.945 2.31-.945.978 0 1.748.315 2.31.945.564.631.845 1.496.845 2.597 0 1.096-.281 1.961-.844 2.596-.567.63-1.337.946-2.31.946zm4.789-6.964h1.041v1.08h.101c.364-.8 1.092-1.2 2.184-1.2.766 0 1.356.218 1.771.653.415.44.622 1.067.622 1.88v4.43h-1.092v-4.164c0-1.21-.537-1.816-1.612-1.816-.6 0-1.07.172-1.41.515-.342.342-.513.814-.513 1.415v4.05h-1.092zm7.524 1.105.87-3.422h1.143l-.997 3.422zm5.43-2.812v1.707h1.587v.914h-1.587v3.872c0 .402.08.694.241.876s.42.273.775.273c.148 0 .313-.008.495-.025v.92c-.241.043-.45.064-.629.064-.706 0-1.212-.142-1.517-.425-.304-.284-.457-.752-.457-1.403v-4.153h-1.148v-.914h1.148v-1.706zm7.14 2.621h-1.149v-.914h1.149v-.666c0-1.325.683-1.987 2.05-1.987.195 0 .42.021.673.063v.914a2.875 2.875 0 0 0 -.61-.057c-.68 0-1.021.366-1.021 1.098v.635h1.568v.914h-1.568v5.929h-1.092zm6.693 5.066c.647 0 1.147-.225 1.498-.673.351-.445.527-1.073.527-1.885 0-.813-.176-1.443-.527-1.892-.351-.444-.85-.666-1.498-.666s-1.147.222-1.498.666c-.351.449-.527 1.08-.527 1.892s.176 1.44.527 1.885c.351.448.85.673 1.498.673zm0 .984c-.973 0-1.744-.316-2.31-.946-.563-.635-.845-1.5-.845-2.596 0-1.1.282-1.966.844-2.597.563-.63 1.333-.945 2.311-.945.977 0 1.748.315 2.31.945.563.631.845 1.496.845 2.597 0 1.096-.282 1.961-.845 2.596-.567.63-1.337.946-2.31.946zm4.789-6.964h1.04v1.016h.102c.102-.335.33-.607.686-.819.355-.212.76-.317 1.212-.317.207 0 .39.01.546.031v1.092c-.148-.042-.38-.063-.698-.063-.52 0-.95.156-1.289.47-.338.313-.508.71-.508 1.193v4.24h-1.091zm9.48 3.32c0-.749-.18-1.346-.54-1.79-.369-.444-.866-.666-1.492-.666s-1.115.222-1.466.666c-.343.436-.515 1.033-.515 1.79s.172 1.354.515 1.79c.35.444.84.667 1.466.667.63 0 1.128-.223 1.492-.667.36-.444.54-1.04.54-1.79zm-1.981 6.15c-.817 0-1.481-.17-1.993-.513-.5-.335-.792-.787-.876-1.359h1.155c.06.284.237.506.533.667.305.17.698.254 1.18.254.614 0 1.093-.142 1.435-.425.347-.288.52-.684.52-1.188v-1.345h-.1c-.45.787-1.165 1.18-2.146 1.18-.88 0-1.58-.313-2.101-.939-.512-.622-.768-1.45-.768-2.482s.258-1.862.774-2.488c.525-.635 1.223-.952 2.095-.952.478 0 .914.107 1.307.323.394.22.69.514.889.883h.102v-1.086h1.04v6.964c0 .766-.274 1.375-.825 1.828-.55.453-1.29.679-2.221.679zm7.753-8.626c-.546 0-.995.184-1.346.553-.351.368-.548.855-.59 1.46h3.77c-.013-.605-.186-1.092-.52-1.46-.335-.368-.773-.553-1.314-.553zm2.894 4.228a2.355 2.355 0 0 1 -1.003 1.384c-.507.338-1.134.508-1.879.508-.948 0-1.699-.32-2.253-.959-.554-.635-.832-1.494-.832-2.577 0-1.08.28-1.94.838-2.584.559-.643 1.308-.964 2.247-.964.923 0 1.649.306 2.178.92s.793 1.454.793 2.52v.419h-4.92v.05c.03.678.22 1.215.572 1.613.355.398.823.597 1.403.597.884 0 1.472-.31 1.764-.927zm3.272-6.78v1.708h1.587v.914h-1.587v3.872c0 .402.08.694.241.876.16.182.419.273.774.273.149 0 .314-.008.496-.025v.92c-.242.043-.451.064-.629.064-.707 0-1.212-.142-1.517-.425-.305-.284-.457-.752-.457-1.403v-4.153h-1.149v-.914h1.149v-1.706h1.092zm8.231 0v1.708h1.587v.914h-1.587v3.872c0 .402.08.694.242.876.16.182.419.273.774.273.148 0 .313-.008.495-.025v.92a3.708 3.708 0 0 1 -.628.064c-.707 0-1.213-.142-1.517-.425-.305-.284-.457-.752-.457-1.403v-4.153h-1.15v-.914h1.15v-1.706h1.091zm5.805 7.688c.647 0 1.147-.225 1.498-.673.351-.445.527-1.073.527-1.885 0-.813-.176-1.443-.527-1.892-.351-.444-.851-.666-1.498-.666-.648 0-1.147.222-1.498.666-.352.449-.527 1.08-.527 1.892s.175 1.44.527 1.885c.351.448.85.673 1.498.673zm0 .984c-.974 0-1.744-.316-2.311-.946-.563-.635-.844-1.5-.844-2.596 0-1.1.281-1.966.844-2.597.563-.63 1.333-.945 2.311-.945.977 0 1.747.315 2.31.945.563.631.844 1.496.844 2.597 0 1.096-.281 1.961-.844 2.596-.567.63-1.337.946-2.31.946zm8.377-6.964h1.041v1.016h.102c.101-.335.33-.607.685-.819.356-.212.76-.317 1.213-.317.207 0 .389.01.546.031v1.092c-.148-.042-.381-.063-.699-.063-.52 0-.95.156-1.288.47-.339.313-.508.71-.508 1.193v4.24h-1.092zm7.411.844c-.546 0-.995.184-1.346.553-.351.368-.548.855-.591 1.46h3.771c-.013-.605-.186-1.092-.521-1.46-.334-.368-.772-.553-1.313-.553zm2.894 4.228a2.353 2.353 0 0 1 -1.003 1.384c-.508.338-1.134.508-1.879.508-.948 0-1.699-.32-2.253-.959-.555-.635-.832-1.494-.832-2.577 0-1.08.28-1.94.838-2.584.559-.643 1.308-.964 2.247-.964.923 0 1.648.306 2.177.92s.794 1.454.794 2.52v.419h-4.92v.05c.03.678.221 1.215.572 1.613.355.398.823.597 1.403.597.884 0 1.472-.31 1.764-.927zm3.272-6.78v1.708h1.587v.914h-1.587v3.872c0 .402.08.694.241.876s.419.273.774.273c.148 0 .313-.008.495-.025v.92c-.241.043-.45.064-.628.064-.707 0-1.212-.142-1.517-.425-.305-.284-.457-.752-.457-1.403v-4.153h-1.149v-.914h1.149v-1.706h1.092zm8.756 8.551h-1.041v-1.073h-.102c-.36.796-1.088 1.194-2.184 1.194-.766 0-1.358-.22-1.777-.66-.415-.44-.622-1.065-.622-1.873v-4.43h1.092v4.163c0 1.202.537 1.803 1.612 1.803.605 0 1.077-.17 1.416-.508.342-.338.514-.808.514-1.409v-4.05h1.092zm1.976-6.843h1.041v1.016h.102c.101-.335.33-.607.685-.819.356-.212.76-.317 1.213-.317.207 0 .389.01.546.031v1.092c-.148-.042-.381-.063-.699-.063-.52 0-.95.156-1.288.47-.339.313-.508.71-.508 1.193v4.24h-1.092zm4.909 0h1.041v1.08h.102c.364-.8 1.092-1.2 2.184-1.2.766 0 1.356.218 1.771.653.414.44.622 1.067.622 1.88v4.43h-1.092v-4.164c0-1.21-.538-1.816-1.612-1.816-.601 0-1.071.172-1.41.515-.342.342-.514.814-.514 1.415v4.05h-1.092zm12.777-1.707v1.707h1.587v.914h-1.587v3.872c0 .402.08.694.241.876s.419.273.775.273c.148 0 .313-.008.495-.025v.92a3.709 3.709 0 0 1 -.629.064c-.706 0-1.212-.142-1.517-.425-.304-.284-.457-.752-.457-1.403v-4.153h-1.149v-.914h1.149v-1.706zm3.157-1.01h1.092v3.796h.102c.364-.8 1.087-1.2 2.171-1.2.774 0 1.373.223 1.796.667.419.44.628 1.062.628 1.866v4.431h-1.091v-4.164c0-1.21-.548-1.816-1.644-1.816-.606 0-1.086.178-1.441.534-.347.347-.521.812-.521 1.396v4.05h-1.092zm10.432 3.561c-.546 0-.994.184-1.346.553-.351.368-.548.855-.59 1.46h3.77c-.012-.605-.186-1.092-.52-1.46s-.772-.553-1.314-.553zm2.895 4.228a2.36 2.36 0 0 1 -1.003 1.384c-.508.338-1.135.508-1.879.508-.948 0-1.699-.32-2.254-.959-.554-.635-.831-1.494-.831-2.577 0-1.08.279-1.94.838-2.584.558-.643 1.307-.964 2.247-.964.922 0 1.648.306 2.177.92s.793 1.454.793 2.52v.419h-4.919v.05c.03.678.22 1.215.571 1.613.356.398.823.597 1.403.597.885 0 1.473-.31 1.765-.927zm8.714 1.892c-1.008 0-1.74-.404-2.197-1.213h-.101v1.092h-1.041v-9.56h1.091v3.796h.102a2.05 2.05 0 0 1 .863-.876 2.579 2.579 0 0 1 1.283-.323c.871 0 1.567.321 2.088.964.52.644.781 1.503.781 2.578 0 1.07-.263 1.927-.787 2.57-.521.648-1.215.972-2.082.972zm-.254-6.1c-.622 0-1.113.228-1.473.685-.364.457-.546 1.081-.546 1.873 0 .791.182 1.415.546 1.872.36.457.851.686 1.473.686.626 0 1.115-.227 1.466-.68.351-.452.527-1.079.527-1.878 0-.8-.176-1.426-.527-1.88-.351-.452-.84-.678-1.466-.678zm6.864 5.141c.563 0 1.028-.163 1.396-.489.373-.326.559-.734.559-1.225v-.628l-1.841.12c-.998.068-1.498.44-1.498 1.118 0 .342.131.613.394.812.254.195.584.292.99.292zm-.203.959c-.673 0-1.223-.184-1.651-.553-.44-.372-.66-.867-.66-1.485 0-.61.216-1.088.648-1.435.431-.347 1.047-.543 1.847-.59l1.974-.12v-.623c0-.871-.516-1.307-1.549-1.307-.867 0-1.381.283-1.542.85h-1.105c.072-.546.356-.986.851-1.32.491-.334 1.102-.501 1.834-.501.83 0 1.473.2 1.93.603.449.402.673.96.673 1.675v4.685h-1.041v-1.01h-.102c-.457.754-1.159 1.13-2.107 1.13zm6.737-8.671v1.707h1.587v.914h-1.587v3.872c0 .402.081.694.241.876.161.182.419.273.775.273.148 0 .313-.008.495-.025v.92a3.708 3.708 0 0 1 -.628.064c-.707 0-1.213-.142-1.518-.425-.304-.284-.457-.752-.457-1.403v-4.153h-1.148v-.914h1.148v-1.706zm4.643 0v1.707h1.587v.914h-1.587v3.872c0 .402.08.694.241.876s.419.273.775.273c.148 0 .313-.008.495-.025v.92a3.719 3.719 0 0 1 -.629.064c-.706 0-1.212-.142-1.517-.425-.305-.284-.457-.752-.457-1.403v-4.153h-1.149v-.914h1.149v-1.706zm5.722 2.55c-.546 0-.995.184-1.346.553-.351.368-.548.855-.59 1.46h3.77c-.013-.605-.186-1.092-.52-1.46-.335-.368-.773-.553-1.314-.553zm2.894 4.228a2.353 2.353 0 0 1 -1.003 1.384c-.508.338-1.134.508-1.879.508-.948 0-1.699-.32-2.253-.959-.554-.635-.832-1.494-.832-2.577 0-1.08.28-1.94.838-2.584.559-.643 1.308-.964 2.247-.964.923 0 1.649.306 2.178.92s.793 1.454.793 2.52v.419h-4.919v.05c.029.678.22 1.215.571 1.613.355.398.823.597 1.403.597.884 0 1.472-.31 1.764-.927zm1.723-5.072h1.041v1.016h.102c.101-.335.33-.607.685-.819.356-.212.76-.317 1.212-.317.208 0 .39.01.546.031v1.092c-.148-.042-.381-.063-.698-.063-.52 0-.95.156-1.288.47-.339.313-.508.71-.508 1.193v4.241h-1.092v-6.843zm5.366 9.325c-.173 0-.336-.013-.489-.038v-.933c.11.02.263.032.457.032.314 0 .565-.085.756-.254.19-.174.357-.466.501-.876l.127-.407-2.532-6.849h1.18l1.879 5.63h.102l1.872-5.63h1.162l-2.672 7.262c-.292.791-.604 1.333-.934 1.625-.334.292-.804.438-1.409.438zm-191.51 6.969v1.707h1.588v.914h-1.588v3.872c0 .402.08.694.241.876.16.182.419.273.774.273.149 0 .314-.008.495-.025v.92c-.24.043-.45.064-.628.064-.707 0-1.212-.142-1.517-.425-.305-.284-.457-.752-.457-1.403v-4.153h-1.148v-.914h1.149v-1.706h1.092zm5.805 7.687c.648 0 1.147-.225 1.498-.673.351-.445.527-1.073.527-1.885 0-.813-.176-1.443-.527-1.892-.351-.444-.85-.666-1.498-.666-.647 0-1.147.222-1.498.666-.351.449-.527 1.08-.527 1.892s.176 1.44.527 1.885c.351.448.85.673 1.498.673zm0 .984c-.973 0-1.743-.316-2.31-.946-.563-.635-.845-1.5-.845-2.596 0-1.1.282-1.966.845-2.597.562-.63 1.332-.945 2.31-.945s1.748.315 2.31.945c.564.631.845 1.496.845 2.597 0 1.096-.282 1.961-.844 2.596-.567.63-1.338.946-2.31.946zm10.485-.959c.563 0 1.028-.163 1.397-.489a1.56 1.56 0 0 0 .558-1.225v-.628l-1.84.12c-1 .068-1.499.44-1.499 1.118 0 .342.132.613.394.812.254.195.584.292.99.292zm-.203.959c-.673 0-1.223-.184-1.65-.553-.44-.372-.66-.867-.66-1.485 0-.61.215-1.088.647-1.435.431-.347 1.047-.543 1.847-.59l1.974-.12v-.623c0-.871-.516-1.307-1.549-1.307-.867 0-1.381.283-1.542.85h-1.105c.072-.546.356-.986.851-1.32.49-.334 1.102-.501 1.834-.501.83 0 1.473.2 1.93.603.449.402.673.96.673 1.675v4.685h-1.041v-1.01h-.102c-.457.754-1.16 1.13-2.107 1.13zm5.189-6.964h1.04v1.08h.102c.364-.8 1.092-1.2 2.184-1.2.766 0 1.356.218 1.77.653.415.44.623 1.067.623 1.88v4.43h-1.092v-4.164c0-1.21-.538-1.816-1.612-1.816-.601 0-1.071.172-1.41.515-.342.342-.514.814-.514 1.415v4.05h-1.091zm7.968 9.325c-.173 0-.336-.013-.488-.038v-.933c.11.02.262.032.457.032.313 0 .565-.085.755-.254.19-.174.358-.466.502-.876l.126-.407-2.532-6.849h1.18l1.88 5.63h.1l1.873-5.63h1.162l-2.672 7.262c-.292.791-.603 1.333-.933 1.625-.335.292-.804.438-1.41.438zm14.542-7.23a1.541 1.541 0 0 0 -.578-.87c-.322-.24-.717-.362-1.187-.362-.614 0-1.102.229-1.466.686-.36.457-.54 1.073-.54 1.847 0 .787.182 1.416.546 1.886.364.465.85.698 1.46.698.965 0 1.553-.4 1.765-1.2h1.104c-.101.648-.398 1.168-.889 1.562-.516.414-1.174.622-1.974.622-.96 0-1.724-.322-2.291-.965-.567-.648-.85-1.515-.85-2.603 0-1.066.283-1.919.85-2.558s1.329-.958 2.285-.958c.8 0 1.462.215 1.987.647.486.406.78.929.882 1.568zm5.448 3.885c.648 0 1.147-.225 1.498-.673.352-.445.527-1.073.527-1.885 0-.813-.175-1.443-.527-1.892-.35-.444-.85-.666-1.498-.666-.647 0-1.147.222-1.498.666-.35.449-.527 1.08-.527 1.892s.176 1.44.527 1.885c.352.448.85.673 1.498.673zm0 .984c-.973 0-1.743-.316-2.31-.946-.563-.635-.844-1.5-.844-2.596 0-1.1.281-1.966.844-2.597.563-.63 1.333-.945 2.31-.945.978 0 1.748.315 2.31.945.564.631.845 1.496.845 2.597 0 1.096-.281 1.961-.844 2.596-.567.63-1.337.946-2.31.946zm4.789-6.964h1.041v1.08h.102c.364-.8 1.091-1.2 2.183-1.2.766 0 1.356.218 1.771.653.415.44.622 1.067.622 1.88v4.43h-1.092v-4.164c0-1.21-.537-1.816-1.612-1.816-.6 0-1.07.172-1.41.515-.342.342-.513.814-.513 1.415v4.05h-1.092zm7.956 0 1.873 5.637h.101l1.873-5.637h1.168l-2.534 6.843h-1.117l-2.533-6.843h1.168zm8.87.844c-.546 0-.994.184-1.345.553-.352.368-.548.855-.59 1.46h3.77c-.013-.605-.186-1.092-.52-1.46-.335-.368-.773-.553-1.315-.553zm2.895 4.228a2.355 2.355 0 0 1 -1.003 1.384c-.508.338-1.134.508-1.879.508-.948 0-1.699-.32-2.253-.959-.555-.635-.832-1.494-.832-2.577 0-1.08.28-1.94.838-2.584.558-.643 1.308-.964 2.247-.964.922 0 1.648.306 2.177.92.53.614.794 1.454.794 2.52v.419h-4.92v.05c.03.678.22 1.215.572 1.613.355.398.823.597 1.402.597.885 0 1.473-.31 1.765-.927zm1.723-5.072h1.04v1.08h.102c.364-.8 1.092-1.2 2.184-1.2.766 0 1.356.218 1.771.653.414.44.622 1.067.622 1.88v4.43h-1.092v-4.164c0-1.21-.537-1.816-1.612-1.816-.601 0-1.07.172-1.41.515-.342.342-.514.814-.514 1.415v4.05h-1.091zm7.664 0h1.092v6.843h-1.092zm.546-1.39a.748.748 0 0 1 -.54-.222.749.749 0 0 1 -.222-.54c0-.211.074-.391.222-.54a.748.748 0 0 1 .54-.221c.211 0 .391.074.539.222a.735.735 0 0 1 .222.54.749.749 0 0 1 -.222.539.734.734 0 0 1 -.539.222zm5.277 2.234c-.546 0-.994.184-1.346.553-.351.368-.548.855-.59 1.46h3.771c-.013-.605-.187-1.092-.521-1.46s-.772-.553-1.314-.553zm2.895 4.228a2.357 2.357 0 0 1 -1.003 1.384c-.508.338-1.134.508-1.879.508-.948 0-1.699-.32-2.254-.959-.554-.635-.831-1.494-.831-2.577 0-1.08.279-1.94.838-2.584.558-.643 1.307-.964 2.247-.964.922 0 1.648.306 2.177.92s.793 1.454.793 2.52v.419h-4.919v.05c.03.678.22 1.215.571 1.613.356.398.823.597 1.403.597.885 0 1.473-.31 1.765-.927zm1.722-5.072h1.041v1.08h.102c.364-.8 1.092-1.2 2.183-1.2.766 0 1.357.218 1.771.653.415.44.623 1.067.623 1.88v4.43h-1.092v-4.164c0-1.21-.538-1.816-1.613-1.816-.6 0-1.07.172-1.409.515-.343.342-.514.814-.514 1.415v4.05h-1.092zm9.188-1.707v1.707h1.587v.914h-1.587v3.872c0 .402.08.694.241.876s.419.273.775.273c.148 0 .313-.008.495-.025v.92a3.719 3.719 0 0 1 -.629.064c-.706 0-1.212-.142-1.517-.425-.305-.284-.457-.752-.457-1.403v-4.153h-1.149v-.914h1.149v-1.706zm8.231 0v1.707h1.587v.914h-1.587v3.872c0 .402.081.694.242.876s.419.273.774.273c.148 0 .313-.008.495-.025v.92c-.241.043-.45.064-.628.064-.707 0-1.213-.142-1.517-.425-.305-.284-.457-.752-.457-1.403v-4.153h-1.149v-.914h1.149v-1.706zm5.722 2.55c-.546 0-.994.184-1.345.553-.352.368-.548.855-.591 1.46h3.771c-.013-.605-.186-1.092-.521-1.46-.334-.368-.772-.553-1.314-.553zm2.895 4.228a2.357 2.357 0 0 1 -1.003 1.384c-.508.338-1.134.508-1.879.508-.948 0-1.699-.32-2.253-.959-.555-.635-.832-1.494-.832-2.577 0-1.08.279-1.94.838-2.584.558-.643 1.307-.964 2.247-.964.922 0 1.648.306 2.177.92s.794 1.454.794 2.52v.419h-4.92v.05c.03.678.22 1.215.572 1.613.355.398.823.597 1.402.597.885 0 1.473-.31 1.765-.927zm1.723-5.072h1.041v1.016h.101c.102-.335.33-.607.686-.819a2.321 2.321 0 0 1 1.212-.317c.207 0 .389.01.546.031v1.092c-.148-.042-.381-.063-.698-.063-.521 0-.95.156-1.289.47-.338.313-.508.71-.508 1.193v4.241h-1.091v-6.843zm4.909 0h1.041v1.08h.101c.326-.8.963-1.2 1.911-1.2.906 0 1.536.4 1.892 1.2h.101a2.06 2.06 0 0 1 .832-.87c.376-.22.797-.33 1.263-.33.698 0 1.236.192 1.612.577.377.39.565.942.565 1.657v4.73h-1.092v-4.475c0-1.003-.48-1.505-1.441-1.505a1.54 1.54 0 0 0 -1.587 1.58v4.4h-1.091v-4.647c0-.406-.129-.73-.388-.97-.262-.242-.609-.362-1.041-.362-.444 0-.82.169-1.129.507a1.774 1.774 0 0 0 -.457 1.232v4.24h-1.092v-6.843zm11.257 0h1.091v6.844h-1.091v-6.843zm.546-1.39a.748.748 0 0 1 -.54-.222.749.749 0 0 1 -.222-.54c0-.211.074-.391.222-.54a.748.748 0 0 1 .54-.221c.211 0 .391.074.539.222a.735.735 0 0 1 .222.54.749.749 0 0 1 -.222.539.734.734 0 0 1 -.539.222zm2.548 1.39h1.041v1.08h.101c.364-.8 1.092-1.2 2.184-1.2.766 0 1.356.218 1.771.653.414.44.622 1.067.622 1.88v4.431h-1.092v-4.164c0-1.21-.537-1.816-1.612-1.816-.601 0-1.071.172-1.41.515-.342.342-.514.814-.514 1.415v4.05h-1.091v-6.843zm9.746 6.005c.563 0 1.028-.163 1.396-.489.373-.326.559-.734.559-1.225v-.628l-1.841.12c-.999.068-1.498.44-1.498 1.118 0 .342.131.613.393.812.254.195.584.292.991.292zm-.203.959c-.673 0-1.223-.184-1.651-.553-.44-.372-.66-.867-.66-1.485 0-.61.216-1.088.647-1.435.432-.347 1.048-.543 1.848-.59l1.974-.12v-.623c0-.871-.517-1.307-1.549-1.307-.868 0-1.382.283-1.543.85h-1.104c.072-.546.355-.986.851-1.32.49-.334 1.102-.501 1.834-.501.829 0 1.473.2 1.93.603.448.402.673.96.673 1.675v4.686h-1.041v-1.01h-.102c-.457.754-1.16 1.13-2.107 1.13zm5.252-9.68h1.091v9.56h-1.091zm4.033 9.623a.81.81 0 0 1 -.584-.242.808.808 0 0 1 -.241-.584c0-.228.08-.423.241-.584a.81.81 0 0 1 .584-.24c.228 0 .423.08.584.24.161.161.241.356.241.584 0 .225-.08.42-.241.584a.797.797 0 0 1 -.584.242z" fill="#868b9e"/><g clip-rule="evenodd" fill-rule="evenodd"><path d="m284.31 99.092c-8.74-5.024-19.26-8.36-23.768-17.46-4.605-9.292-2.531-20.485-.159-30.827 2.365-10.313 5.892-20.686 13.641-27.958 7.812-7.33 18.261-11.328 28.739-11.812 9.988-.462 19.249 3.733 27.449 9.216 7.746 5.179 14.068 12.18 17.598 20.903 3.481 8.606 3.912 18.135 1.945 27.4-1.989 9.37-6.603 17.825-13.064 24.967-7.05 7.794-14.993 16.288-25.239 17.377-10.2 1.085-18.384-6.772-27.142-11.806z" fill="url(#a)" opacity=".5"/><path d="m302.504 13.338c10.102.017 20.895-2.309 29.387 3.335 8.673 5.765 12.521 16.487 15.681 26.619 3.152 10.105 5.327 20.836 2.283 30.976-3.069 10.221-10.102 18.864-18.932 24.48-8.417 5.351-18.553 6.31-28.419 5.628-9.319-.644-18.324-3.572-25.779-9.377-7.355-5.727-12.532-13.766-15.501-22.766-3.001-9.1-3.268-18.71-1.274-28.099 2.175-10.245 4.772-21.54 13.095-27.563 8.287-5.997 19.336-3.25 29.459-3.233z" fill="url(#b)" opacity=".5"/><path d="m315.83 15.499c10.049 2.568 20.115 6.028 27.144 13.294 7.245 7.49 11.265 17.23 11.936 27.104.666 9.82-2.383 19.429-8.235 27.4-5.735 7.812-14.319 13.224-23.955 16.446-9.595 3.208-20.079 4.335-30.092 1.625-9.981-2.702-18.316-9.007-24.973-16.528-6.677-7.544-11.998-16.342-12.601-25.923-.599-9.513 3.896-18.242 9.327-26.113 5.427-7.865 12.011-15.395 21.521-18.594 9.491-3.192 19.977-1.254 29.928 1.289z" fill="url(#c)" opacity=".5"/></g><ellipse cx="304.452" cy="60.081" fill="#fff" rx="44.452" ry="44.081"/><path d="m281.157 68h2.718v-15.501h-2.74l-4.049 2.847v2.546l4.006-2.75h.065zm6.529-10.871h2.599c0-1.58 1.268-2.718 2.944-2.718 1.536 0 2.556 1.031 2.556 2.385 0 1.16-.451 1.934-2.47 3.92l-5.479 5.393v1.891h10.893v-2.267h-7.23v-.053l3.416-3.352c2.707-2.664 3.578-3.867 3.578-5.704 0-2.492-2.106-4.437-5.264-4.437-3.223 0-5.543 2.052-5.543 4.942zm15.262 2.965a1.53 1.53 0 0 0 1.536-1.547 1.53 1.53 0 0 0 -1.536-1.547c-.87 0-1.547.688-1.547 1.547 0 .86.677 1.547 1.547 1.547zm0 8.024c.86 0 1.536-.677 1.536-1.547a1.53 1.53 0 0 0 -1.536-1.547c-.87 0-1.547.688-1.547 1.547 0 .87.677 1.547 1.547 1.547zm10.16.194c3.438 0 5.822-2.213 5.822-5.425 0-2.954-2.127-5.103-5.081-5.103-1.557 0-2.836.613-3.512 1.654h-.054l.43-4.672h7.304v-2.267h-9.517l-.742 9.013h2.417c.591-1.053 1.633-1.644 2.965-1.644 1.826 0 3.116 1.279 3.116 3.094 0 1.826-1.279 3.104-3.126 3.104-1.633 0-2.879-.977-3.051-2.427h-2.6c.118 2.75 2.439 4.672 5.629 4.672zm13.834 0c3.545 0 6.048-1.848 6.048-4.502 0-1.998-1.44-3.534-3.513-3.963v-.065c1.772-.494 2.933-1.804 2.933-3.448 0-2.406-2.267-4.147-5.468-4.147s-5.479 1.752-5.479 4.136c0 1.665 1.171 2.987 2.944 3.46v.064c-2.074.419-3.502 1.955-3.502 3.963 0 2.643 2.481 4.501 6.037 4.501zm0-9.41c-1.612 0-2.74-.946-2.74-2.3 0-1.364 1.128-2.32 2.74-2.32 1.6 0 2.739.946 2.739 2.32 0 1.354-1.139 2.3-2.739 2.3zm0 7.293c-1.859 0-3.169-1.085-3.169-2.589s1.31-2.588 3.169-2.588c1.858 0 3.169 1.074 3.169 2.588 0 1.504-1.311 2.59-3.169 2.59z" fill="#0e173c"/></svg>