<svg fill="none" height="103" viewBox="0 0 94 103" width="94" xmlns="http://www.w3.org/2000/svg" xmlns:xlink="http://www.w3.org/1999/xlink"><linearGradient id="a" gradientUnits="userSpaceOnUse" x1="37.373" x2="37.373" y1="4.541" y2="91.006"><stop offset="0" stop-color="#f08116" stop-opacity=".2"/><stop offset="1" stop-color="#f08116" stop-opacity=".56"/></linearGradient><path d="m73.879 4.54h-65.08c-4.364 0-7.932 3.523-7.932 7.827v70.813c0 4.303 3.568 7.825 7.93 7.825h42.864c-.487-21.044 6.796-61.883 22.217-86.465z" fill="url(#a)"/><path d="m89.058 2.223c-4.458-3.922-9.854-2.346-15.18 2.318-.79.693-1.58 1.461-2.365 2.282-9.111 9.537-17.569 27.203-20.196 40.694 1.023 2.048 1.823 4.662 2.35 6.658.134.513.256.993.353 1.402.232.968.356 1.596.356 1.596s-.082-.305-.417-1.264a79.621 79.621 0 0 0 -.219-.621 7.13 7.13 0 0 0 -.14-.343c-.595-1.363-2.24-4.24-2.963-5.493a135.877 135.877 0 0 0 -1.623 5.01c2.089 3.772 3.361 10.234 3.361 10.234s-.11-.419-.635-1.88c-.466-1.293-2.787-5.306-3.337-6.244-.94 3.426-1.314 5.739-.977 6.302.655 1.09 1.278 2.974 1.825 5.056 1.236 4.69 2.095 10.4 2.095 10.4s.028.379.075.961a94.291 94.291 0 0 0 .24 11.715c.41 4.886 1.18 9.084 2.163 11.331l.667-.359c-1.443-4.426-2.029-10.227-1.772-16.917.388-10.225 2.773-22.556 7.18-35.408 7.444-19.403 17.772-34.969 27.225-42.403-8.616 7.678-20.277 32.53-23.768 41.733-3.909 10.306-6.679 19.977-8.348 29.243 2.88-8.687 12.193-12.42 12.193-12.42s4.567-5.559 9.905-13.5c-3.197.72-8.448 1.952-10.206 2.68-2.594 1.075-3.293 1.44-3.293 1.44s8.402-5.048 15.611-7.334c9.915-15.407 20.716-37.295 9.839-46.869z" fill="#f08116"/></svg>