<svg fill="none" height="89" viewBox="0 0 119 89" width="119" xmlns="http://www.w3.org/2000/svg"><path d="m66.19 30.62-13.795-4.593v-19.903l13.811 4.083-.017 20.413zm3.599-20.413 13.81-4.083-.047 19.889-13.763 4.607zm10.983-6.238-12.871-3.969-12.704 3.969 12.722 3.401 12.853-3.4zm20.195 26.651-13.794-4.593v-19.903l13.811 4.083zm3.59-20.413 13.811-4.083-.048 19.889-13.763 4.607zm11.003-6.238-12.872-3.969-12.704 3.969 12.722 3.402 12.854-3.401zm-101.535 35.327-13.81-4.083v19.903l13.793 4.593zm3.583 0 13.81-4.083-.047 19.89-13.763 4.606zm11.002-6.238-12.87-3.968-12.705 3.97 12.723 3.401 12.853-3.402zm20.186 26.651-13.794-4.593v-19.903l13.81 4.083zm3.599-20.413 13.811-4.083-.048 19.89-13.763 4.606zm10.984-6.238-12.872-3.968-12.704 3.97 12.723 3.401 12.853-3.402zm-31.977 55.739-13.794-4.593v-19.903l13.81 4.083zm3.6-20.413 13.81-4.083-.047 19.89-13.763 4.606zm10.993-6.238-12.872-3.968-12.704 3.968 12.723 3.403z" fill="#f08116"/></svg>