<svg fill="none" height="726" viewBox="0 0 320 726" width="320" xmlns="http://www.w3.org/2000/svg" xmlns:xlink="http://www.w3.org/1999/xlink"><linearGradient id="a" gradientUnits="userSpaceOnUse" x1="-17.975" x2="362.949" y1="186.442" y2="270.106"><stop offset="0" stop-color="#f08116"/><stop offset="1" stop-color="#f06416"/></linearGradient><linearGradient id="b"><stop offset="0" stop-color="#f08116"/><stop offset="1" stop-color="#fff" stop-opacity="0"/></linearGradient><linearGradient id="c" gradientUnits="userSpaceOnUse" x1="544.247" x2="101.585" xlink:href="#b" y1="473.584" y2="916.246"/><linearGradient id="d" gradientUnits="userSpaceOnUse" x1="507.924" x2="137.907" xlink:href="#b" y1="509.907" y2="879.924"/><linearGradient id="e"><stop offset="0" stop-color="#fff"/><stop offset="1" stop-color="#fff"/></linearGradient><radialGradient id="f" cx="0" cy="0" gradientTransform="matrix(0 12 -12 0 193 476)" gradientUnits="userSpaceOnUse" r="1" xlink:href="#e"/><radialGradient id="g" cx="0" cy="0" gradientTransform="matrix(0 18 -18 0 295 456)" gradientUnits="userSpaceOnUse" r="1" xlink:href="#e"/><filter id="h" color-interpolation-filters="sRGB" filterUnits="userSpaceOnUse" height="32.4" width="32.4" x="176.8" y="459.8"><feFlood flood-opacity="0" result="BackgroundImageFix"/><feColorMatrix in="SourceAlpha" values="0 0 0 0 0 0 0 0 0 0 0 0 0 0 0 0 0 0 127 0"/><feOffset/><feGaussianBlur stdDeviation="6"/><feColorMatrix values="0 0 0 0 1 0 0 0 0 1 0 0 0 0 1 0 0 0 0.5 0"/><feBlend in2="BackgroundImageFix" result="effect1_dropShadow"/><feBlend in="SourceGraphic" in2="effect1_dropShadow" result="shape"/></filter><filter id="i" color-interpolation-filters="sRGB" filterUnits="userSpaceOnUse" height="37.2" width="37.2" x="276.4" y="437.4"><feFlood flood-opacity="0" result="BackgroundImageFix"/><feColorMatrix in="SourceAlpha" values="0 0 0 0 0 0 0 0 0 0 0 0 0 0 0 0 0 0 127 0"/><feOffset/><feGaussianBlur stdDeviation="6"/><feColorMatrix values="0 0 0 0 1 0 0 0 0 1 0 0 0 0 1 0 0 0 0.5 0"/><feBlend in2="BackgroundImageFix" result="effect1_dropShadow"/><feBlend in="SourceGraphic" in2="effect1_dropShadow" result="shape"/></filter><mask id="j" height="727" maskUnits="userSpaceOnUse" width="320" x="0" y="0"><path d="m320 726h-320v-726h320z" fill="url(#a)"/></mask><g mask="url(#j)"><path d="m567.5 939.5c-122.238 122.24-330.835 111.83-465.915-23.254-135.08-135.08-145.491-343.677-23.254-465.915 122.238-122.238 330.835-111.827 465.916 23.253 135.08 135.081 145.491 343.678 23.253 465.916z" fill="url(#c)" opacity=".2"/><path d="m531.177 903.177c-102.177 102.173-278.25 91.766-393.27-23.253-115.02-115.02-125.43-291.093-23.253-393.27s278.25-91.767 393.27 23.253 125.431 291.093 23.253 393.27z" fill="url(#d)" opacity=".5"/></g><circle cx="193" cy="476" fill="url(#f)" fill-opacity=".1" r="12"/><g filter="url(#h)"><circle cx="193" cy="476" fill="#fff" r="4.2"/></g><circle cx="295" cy="456" fill="url(#g)" fill-opacity=".1" r="18"/><g filter="url(#i)"><circle cx="295" cy="456" fill="#fff" r="6.6"/></g></svg>