<svg fill="none" height="1590" viewBox="0 0 1511 1590" width="1511" xmlns="http://www.w3.org/2000/svg" xmlns:xlink="http://www.w3.org/1999/xlink"><linearGradient id="a"><stop offset="0" stop-color="#fff"/><stop offset="1" stop-color="#fff"/></linearGradient><radialGradient id="b" cx="0" cy="0" gradientTransform="matrix(0 30 -30 0 524.742 541.295)" gradientUnits="userSpaceOnUse" r="1" xlink:href="#a"/><radialGradient id="c" cx="0" cy="0" gradientTransform="matrix(0 20 -20 0 261.495 622.047)" gradientUnits="userSpaceOnUse" r="1" xlink:href="#a"/><radialGradient id="d" cx="0" cy="0" gradientTransform="matrix(0 20 -20 0 793.495 628.048)" gradientUnits="userSpaceOnUse" r="1" xlink:href="#a"/><filter id="e" color-interpolation-filters="sRGB" filterUnits="userSpaceOnUse" height="50.944" width="50.944" x="499.27" y="515.823"><feFlood flood-opacity="0" result="BackgroundImageFix"/><feColorMatrix in="SourceAlpha" values="0 0 0 0 0 0 0 0 0 0 0 0 0 0 0 0 0 0 127 0"/><feOffset/><feGaussianBlur stdDeviation="6"/><feColorMatrix values="0 0 0 0 1 0 0 0 0 1 0 0 0 0 1 0 0 0 0.5 0"/><feBlend in2="BackgroundImageFix" result="effect1_dropShadow"/><feBlend in="SourceGraphic" in2="effect1_dropShadow" result="shape"/></filter><filter id="f" color-interpolation-filters="sRGB" filterUnits="userSpaceOnUse" height="41.146" width="41.146" x="240.922" y="601.474"><feFlood flood-opacity="0" result="BackgroundImageFix"/><feColorMatrix in="SourceAlpha" values="0 0 0 0 0 0 0 0 0 0 0 0 0 0 0 0 0 0 127 0"/><feOffset/><feGaussianBlur stdDeviation="6"/><feColorMatrix values="0 0 0 0 1 0 0 0 0 1 0 0 0 0 1 0 0 0 0.5 0"/><feBlend in2="BackgroundImageFix" result="effect1_dropShadow"/><feBlend in="SourceGraphic" in2="effect1_dropShadow" result="shape"/></filter><filter id="g" color-interpolation-filters="sRGB" filterUnits="userSpaceOnUse" height="41.146" width="41.146" x="772.922" y="607.475"><feFlood flood-opacity="0" result="BackgroundImageFix"/><feColorMatrix in="SourceAlpha" values="0 0 0 0 0 0 0 0 0 0 0 0 0 0 0 0 0 0 127 0"/><feOffset/><feGaussianBlur stdDeviation="6"/><feColorMatrix values="0 0 0 0 1 0 0 0 0 1 0 0 0 0 1 0 0 0 0.5 0"/><feBlend in2="BackgroundImageFix" result="effect1_dropShadow"/><feBlend in="SourceGraphic" in2="effect1_dropShadow" result="shape"/></filter><linearGradient id="h"><stop offset="0" stop-color="#f08116"/><stop offset="1" stop-color="#fff" stop-opacity="0"/></linearGradient><linearGradient id="i" gradientUnits="userSpaceOnUse" x1="1114.27" x2="360.29" xlink:href="#h" y1="417.131" y2="1133.93"/><linearGradient id="j" gradientUnits="userSpaceOnUse" x1="1055.38" x2="425.134" xlink:href="#h" y1="479.079" y2="1078.24"/><path d="m1151.97 1211.74c-198.187 208.47-536.398 190.71-755.411-39.66-219.014-230.377-235.893-586.134-37.702-794.607 198.191-208.472 536.402-190.717 755.413 39.658 219.02 230.376 235.9 586.129 37.7 794.609z" fill="url(#i)" opacity=".2"/><path d="m1093.08 1149.79c-165.664 174.26-451.141 156.5-637.629-39.66-186.488-196.162-203.368-496.449-37.702-670.709 165.666-174.261 451.143-156.505 637.631 39.658 186.49 196.162 203.37 496.449 37.7 670.711z" fill="url(#j)" opacity=".5"/><circle cx="524.742" cy="541.295" fill="url(#b)" fill-opacity=".1" r="30" transform="matrix(.25881905 -.96592583 .96592583 .25881905 -133.922044 908.059395)"/><g filter="url(#e)"><circle cx="524.742" cy="541.295" fill="#fff" r="11" transform="matrix(.25881905 -.96592583 .96592583 .25881905 -133.922044 908.059395)"/></g><circle cx="261.495" cy="622.047" fill="url(#c)" fill-opacity=".1" r="20" transform="matrix(.25881905 -.96592583 .96592583 .25881905 -407.036149 713.634163)"/><g filter="url(#f)"><circle cx="261.495" cy="622.047" fill="#fff" r="7" transform="matrix(.25881905 -.96592583 .96592583 .25881905 -407.036149 713.634163)"/></g><circle cx="793.495" cy="628.048" fill="url(#d)" fill-opacity=".1" r="20" transform="matrix(.25881905 -.96592583 .96592583 .25881905 -18.524402 1231.95453)"/><g filter="url(#g)"><circle cx="793.495" cy="628.048" fill="#fff" r="7" transform="matrix(.25881905 -.96592583 .96592583 .25881905 -18.524402 1231.95453)"/></g></svg>