<svg fill="none" height="93" viewBox="0 0 86 93" width="86" xmlns="http://www.w3.org/2000/svg"><g clip-rule="evenodd" fill="#f08116" fill-rule="evenodd"><path d="m30.508 19.902c-12.02-2.204-21.522.103-25.31 6.707-2.825 4.928-2.018 11.463 1.96 18.447.338.595 1.092.8 1.682.46.59-.341.795-1.1.456-1.694-3.583-6.292-4.28-11.932-1.963-15.972 3.147-5.486 11.623-7.544 22.733-5.507a1.233 1.233 0 0 0 1.433-.998 1.24 1.24 0 0 0 -.991-1.443zm-17.1 33.644c4.86 5.377 11.173 10.42 18.374 14.605 17.434 10.134 35.994 12.843 45.142 6.563a1.246 1.246 0 0 0 .323-1.724 1.227 1.227 0 0 0 -1.712-.326c-8.187 5.62-25.818 3.047-42.52-6.662-6.986-4.06-13.1-8.944-17.784-14.126a1.227 1.227 0 0 0 -1.74-.083 1.247 1.247 0 0 0 -.083 1.753z"/><path d="m74.002 52.037c7.87-9.36 10.617-18.774 6.838-25.364-2.782-4.85-8.66-7.41-16.474-7.513-.68-.009-1.24.54-1.249 1.225a1.237 1.237 0 0 0 1.217 1.257c7.027.092 12.092 2.297 14.37 6.271 3.14 5.475.69 13.87-6.584 22.52a1.247 1.247 0 0 0 .145 1.75c.52.442 1.297.377 1.737-.146zm-20.225-31.721c-7.116 1.534-14.69 4.535-21.963 8.763-17.998 10.462-29.738 25.887-28.108 37.072a1.234 1.234 0 0 0 1.399 1.049 1.24 1.24 0 0 0 1.04-1.408c-1.448-9.931 9.681-24.553 26.901-34.563 7.056-4.101 14.39-7.007 21.247-8.486a1.24 1.24 0 0 0 .947-1.473 1.232 1.232 0 0 0 -1.463-.953z"/><path d="m24.625 73.905c4.115 11.568 10.846 18.69 18.416 18.69 5.52 0 10.628-3.79 14.61-10.46.351-.587.163-1.349-.42-1.702a1.228 1.228 0 0 0 -1.692.424c-3.58 5.995-7.976 9.256-12.498 9.256-6.288 0-12.292-6.352-16.095-17.044a1.23 1.23 0 0 0 -1.576-.75c-.64.23-.974.941-.745 1.586zm37.584-2.262c2.13-6.853 3.274-14.759 3.274-22.997 0-20.556-7.146-38.276-17.325-42.827a1.23 1.23 0 0 0 -1.626.631c-.276.626.004 1.36.626 1.638 9.078 4.058 15.86 20.875 15.86 40.558 0 7.992-1.108 15.648-3.161 22.255-.203.654.158 1.35.808 1.555a1.23 1.23 0 0 0 1.544-.813zm23.21-1.216c0-3.28-2.641-5.938-5.899-5.938s-5.899 2.659-5.899 5.938c0 3.28 2.641 5.939 5.899 5.939s5.899-2.659 5.899-5.939zm-2.465 0c0 1.91-1.538 3.457-3.434 3.457s-3.434-1.547-3.434-3.457c0-1.909 1.538-3.457 3.434-3.457s3.434 1.548 3.434 3.457zm-76.484 5.939c3.257 0 5.898-2.659 5.898-5.939s-2.641-5.938-5.899-5.938-5.898 2.659-5.898 5.938c0 3.28 2.64 5.939 5.898 5.939zm0-2.482c-1.897 0-3.435-1.547-3.435-3.457 0-1.909 1.538-3.457 3.434-3.457 1.897 0 3.434 1.548 3.434 3.457 0 1.91-1.537 3.457-3.434 3.457z"/><path d="m43.045 11.877c3.258 0 5.899-2.659 5.899-5.938 0-3.28-2.641-5.939-5.899-5.939s-5.898 2.659-5.898 5.939 2.64 5.938 5.898 5.938zm0-2.481c-1.896 0-3.434-1.548-3.434-3.457 0-1.91 1.538-3.457 3.434-3.457 1.897 0 3.434 1.547 3.434 3.457 0 1.909-1.537 3.457-3.434 3.457zm.905 43.45c-2.305.501-4.574-.973-5.073-3.293-.497-2.32.966-4.604 3.27-5.107 2.304-.5 4.574.973 5.073 3.293.498 2.32-.967 4.605-3.27 5.107z"/></g></svg>