<svg fill="none" height="106" viewBox="0 0 106 106" width="106" xmlns="http://www.w3.org/2000/svg"><path d="m74.602 4.433c-3.163 0-5.909.624-8.436 1.26 4.43 1.895 7.175 4.217 8.647 5.271 3.379 2.95 5.272 5.908 8.651 10.76.626 1.055 1.68 2.529 2.316 4.845.632 2.109.632 3.796.632 5.485 0 2.324-.21 4.218-.426 6.114-.206 1.482-.206 2.117-.413 2.537 0 .213 0 .42-.213.84 0 1.054 0 1.482.213 2.323 0 .84.207 1.688.207 3.164.215 2.741.215 4.637-.207 6.953v.848c-.428 1.894-.848 3.796-1.902 5.479.215.428.421.633.632 1.054 1.055-1.476 1.898-2.95 2.738-4.631 2.535-4.644 4.011-8.649 5.066-11.6 1.893-5.485 2.947-9.497 3.584-12.445 1.472-6.327 1.687-9.275 1.054-12.654 0-1.054-.422-2.957-1.476-4.85-2.324-4.218-5.905-6.116-8.436-7.382-1.687-.843-6.12-3.163-12.232-3.37zm-45.69.93c-2.43-.048-5.395.222-8.725 1.803-1.054.43-4.218 1.905-6.746 5.273-1.688 2.109-2.949 5.272-3.583 8.857-.633 3.164-.848 6.968.421 14.136.84 5.058 1.688 8.436 3.375 15.39.215.847 1.476 4.646 4.218 13.081l.206.42c.43 1.476 1.69 4.64 4.433 7.803 1.894 2.11 3.585 3.374 5.066 3.374h.413c2.742 0 4.646-2.109 6.327-3.796 0-.215 4.011-5.057 5.486-6.748-.213-.211-.627-.211-.84-.426-2.53-1.477-4.433-3.79-5.907-6.327-2.53-4.64-2.324-9.277-1.902-11.6l.213-3.576c-.84-5.7-.627-11.178.428-16.665.841-4.64 1.896-9.275 5.686-14.13 1.267-1.687 2.741-3.163 4.218-4.218a30.73 30.73 0 0 0 -10.545-2.526 34.323 34.323 0 0 0 -2.242-.125zm26.495 1.803c-1.055 0-2.11 0-3.164.215-4.218.84-8.223 3.164-11.386 7.167-3.163 4.013-4.003 7.803-4.844 12.234-.428 1.689-.428 3.163-.641 4.852 1.267-1.054 2.956-2.324 5.485-2.956 1.476-.422 5.272-1.681 8.436.213 1.054.634 2.53 1.904 4.005 5.487 3.163 8.855.008 17.926-.414 18.766-.213.841-.632 1.476-.848 1.895-.421 1.055-.839 1.903-1.26 3.592-.214 1.474-.429 2.742-.429 4.218.635 0 1.27.204 1.896.626 1.055 1.055 1.268 2.537 1.483 3.164.42 3.376.42 7.594.42 11.812 0 3.378 0 6.542.206 8.65.428 4.851 1.902 8.222 4.011 9.91 1.477 1.27 3.37 1.262 4.425 1.477h.428c3.163 0 8.22-2.109 10.117-5.061 1.054-1.688 1.482-3.164 1.902-5.273.215-1.265.207-1.894.422-3.163 0-.633.21-1.687.21-2.949 0-1.054.207-2.322.422-3.804.215-3.585.84-7.795 1.055-10.117.215-2.743 1.476-5.068 2.53-6.542-1.476-.213-2.952-1.474-3.791-3.583-1.268-2.324-1.483-2.957-1.696-4.011-.207-.841-.626-1.896-2.109-5.06-3.163-7.166-3.577-9.275-3.577-10.964-.213-2.324-.428-5.479 2.11-7.588 3.79-3.376 8.642-3.163 11.17-2.322v-.428c-.42-1.68-1.259-2.95-1.893-3.79-3.166-4.852-4.853-7.383-7.81-9.914a30.201 30.201 0 0 0 -9.062-5.272c-2.109-.633-4.646-1.483-7.81-1.483v.002zm23.312 24.732c-1.531-.105-3.484.156-5.173 1.639-.84.841-.84 2.53-.627 4.005 0 1.054.207 2.528 3.37 9.703 1.477 3.37 1.894 4.424 2.11 5.272.215.842.421 1.261 1.686 3.577.216.428.422.848.844 1.267.418-.632.633-1.687.84-3.376l.212-.626c.422-1.896.216-3.379.216-5.908 0-1.27-.216-2.108-.216-2.741-.212-1.055-.212-1.898-.212-3.164-.422-.636-.422-.843-.207-1.27 0-.421.207-1.045.422-2.315.21-1.687.426-3.163.426-4.85-.428-.215-.633-.422-1.055-.629 0 0-1.111-.477-2.636-.584zm-32.976.833c-1.343-.158-2.885.278-3.832.59-2.322.637-3.79 2.11-4.844 2.953-.633.633-1.267 1.265-1.902 2.109 0 1.472.207 2.957.422 4.429v.215l-.422 4.218a12.7 12.7 0 0 0 1.476 9.062c1.055 2.109 2.535 3.798 4.429 4.853 1.27.839 2.953 1.476 4.846 1.902 0-1.483.213-3.172.428-4.646.42-2.11.84-3.164 1.475-4.431.197-.6.483-1.166.847-1.68.207-.636 3.155-8.652.414-16.033-.627-1.687-1.261-2.742-2.11-3.163a3.098 3.098 0 0 0 -1.227-.38zm30.943 1.202c.55-.034 1.078.017 1.293.232.632.418-.215 1.472-.428 1.687-.207.215-.627.633-1.262.848-.839.207-1.476-.428-1.687-.428-.215-.213-.843-.84-.628-1.474.206-.422.422-.422 1.261-.633a5.99 5.99 0 0 1 1.45-.232zm-31.702 1.747c.709-.048 1.301.222 1.78.38.633.213 1.261.428 1.261.848.213.632-.413 1.054-.626 1.26-.635.633-1.69.642-1.69.642-1.054 0-1.687-.633-2.108-1.267-.215-.216-.422-.635-.207-1.055.207-.422.626-.635.842-.635.263-.105.51-.156.748-.173zm38.687 27.59c-1.055 1.476-2.531 3.378-2.742 5.905 0 .421 0 .636-.215 1.054 1.687.422 3.172.422 4.646.215 3.376-.426 5.692-2.117 6.112-2.535 1.476-1.054 3.378-3.163 2.95-4.002-.206-.422-.841-.216-4.218 0-.841 0-3.37.632-5.06.212h-.419c-.422-.212-.84-.428-1.054-.847zm-36.7 4.218c-.422.632-1.046 1.054-1.468 1.476-1.687 1.054-3.804 1.902-5.913 2.32-1.896.636-2.95.636-2.95 1.27-.214.84 1.895 1.895 2.95 2.315 3.591 1.476 7.174.633 7.809.422.42-.216 1.474-.637 2.529-1.27 0-2.316-.207-4.425-.422-6.114v-.213h-.211c-.637 0-1.476.009-2.324-.206z" fill="#f08116"/></svg>