<svg xmlns="http://www.w3.org/2000/svg" width="112" height="111" fill="none" viewBox="0 0 112 111">
  <path fill="#F08116" fill-rule="evenodd" d="M66.292.003c-.803 0-1.548.173-2.236.403 1.462.978 2.264 2.273 2.666 3.741.029.201.086.345.114.547.03.172.058.345.058.518.114 2.532-.66 2.849-1.204 4.345-.831 1.928-.602 4 .401 5.67.086.201.2.431.344.633-1.09-7.281 4.96-8.375 6.077-10.648.086-1.986-1.548-3.31-2.838-4.23-1.232-.749-2.35-.98-3.382-.98zm9.115 1.64c-.114.662-.028.49-.057.835-.029.23-.029.518-.057.748-.058.23-.115.46-.2.69-.058.231-.144.461-.23.691-.115.23-.2.432-.316.662-.086.115-.143.23-.229.346l-.172.259a9.94 9.94 0 0 1-.43.575c-.172.173-.315.374-.516.518v.03c-.172.143-.344.316-.544.46-.602.46-1.29.805-1.921 1.237-.2.144-.401.259-.573.432-.201.144-.373.287-.545.46-.2.173-.344.345-.516.547-.143.173-.315.374-.43.575a7.342 7.342 0 0 0-.401.605c-.115.23-.2.431-.316.662-.086.23-.172.431-.229.662-.086.259-.143.489-.2.719-.03.115-.03.259-.058.374-.029.115-.029.23-.057.345 0 .23-.029.49-.029.72 0 .173 0 .345.029.518 0 .23.029.46.086.72.029.23.086.46.143.69.086.23.144.46.23.69.057.145.143.288.2.404l-6.593-2.562a70.576 70.576 0 0 0-3.325-.863l-1.806-.432a53.044 53.044 0 0 0-5.217-.777c-.057 0-.086-.028-.143-.028a51.071 51.071 0 0 0-5.131-.26c-1.262 0-2.523.058-3.755.144-1.75.116-3.498.346-5.246.633-.43.058-.86.144-1.29.23-.889.173-1.749.375-2.58.576l-1.29.346c-.43.172-.831.374-1.233.546l-.945.432c-.058.029-.115.029-.144.058-.287.143-.544.259-.802.402a1.392 1.392 0 0 0-.201.087c-.316.144-.63.316-.889.46-.2.087-.401.202-.573.288a2.59 2.59 0 0 1-.258.144c-.258.144-.516.288-.745.432a7.2 7.2 0 0 0-.688.431c-.201.144-.402.26-.574.403-.028.029-.057.029-.086.058a6.633 6.633 0 0 0-.544.403l-.058.057-.43.345c-.057.03-.114.087-.171.116-.144.115-.287.259-.43.374-.03.057-.087.086-.115.115-.172.173-.344.316-.516.49-.029 0-.029.028-.057.057-.172.144-.344.316-.516.489-.03.029-.03.057-.058.057-.143.144-.286.288-.43.46-.057.058-.143.116-.2.174-.144.172-.316.345-.488.517-.028.058-.086.087-.114.144-.23.23-.43.46-.66.691l-.086.086c-.458.49-.946.979-1.462 1.41-.516.46-1.06.893-1.605 1.267-.573.403-1.118.748-1.72 1.093a17.43 17.43 0 0 1-1.806.864c-.602.259-1.232.489-1.863.69-1.204.26-2.436.749-3.497.835-.23 0-.487.057-.717.086-.258.058-.487.115-.716.173l-.688.259c-.23.086-.459.201-.688.317-.2.143-.43.258-.63.402-.202.144-.402.317-.574.49-.2.143-.401.345-.573.518-.172.201-.344.374-.488.575-.143.23-.315.432-.43.662a5.079 5.079 0 0 0-.401.662c-.115.259-.23.49-.315.748-.086.23-.172.49-.258.748-.058.23-.115.46-.144.691 0 .029-.028.058-.028.086-.058.26-.058.605-.086.777-.03.202-.058.374-.058.576 0 .115 0 .259.029.374.029.202.057.374.115.547.057.172.114.345.2.518v.029a5 5 0 0 0 .316.518c.114.172.229.345.372.518.144.144.316.316.488.46.172.173.344.317.544.46.688.605.86.806 1.749 1.267.143.086.287.144.459.23.028 0 .057.029.086.029 0 .057 0 .086.028.144.029.23.086.46.144.69.057.26.143.49.229.691.086.173.143.346.23.518.028.058.056.115.085.144.115.23.23.432.344.633l.43.605c.143.172.315.374.487.546.172.173.344.317.545.49 0 0 .029.028.057.028.172.144.344.288.516.403.201.144.402.26.631.374.2.116.43.23.66.317.171.086.372.144.573.201.028.03.057.03.114.058.115.029.258.057.373.086-.086 1.554-.115 3.022.115 3.54.258.575 1.519-1.18 2.78-3.194-.172 1.985-.287 4.316 0 5.007.316.72 2.035-1.525 3.526-4 20.324-4.72 38.87 9.381 40.82 29.296-.373-3.108-4.186-4.835-5.934-4.403-.86 2.13-2.322 4.863-4.673 6.561.2-1.9.115-3.856-.286-5.755-.631 2.647-1.864 5.122-3.555 7.252-2.723.201-5.446-1.123-6.88-3.108-.114-.087-.143-.26-.229-.374-.086-.202-.172-.403-.23-.605a2.397 2.397 0 0 1-.171-.604c-.029-.202-.029-.403-.029-.633v-.432c.029-.201.086-.403.143-.604.058-.202.115-.403.201-.605.115-.201.2-.403.344-.604.487-1.381.487-2.504-.401-3.166a3.257 3.257 0 0 0-.545-.287c-.115-.03-.258-.087-.373-.115-.086-.03-.143-.058-.229-.087-.2-.057-.401-.115-.602-.144a2.177 2.177 0 0 0-.602-.086 4.65 4.65 0 0 0-.63-.058c-.144 0-.287.03-.43.03-.23 0-.43.028-.631.086-.2.028-.401.057-.602.115-.2.057-.401.115-.602.201-.2.087-.373.173-.573.26-.172.086-.344.2-.545.287-6.679 4.374-2.695 14.62 1.863 17.583-1.72.317-3.468.691-3.956 1.065l-.057.058a26.958 26.958 0 0 0 3.87 1.928 94.356 94.356 0 0 0 4.644 1.381v.029c2.379.49 4.787.662 7.223.518 12.699-.892 23.105-10.59 24.996-23.368.058.26.115.49.172.748.086.518.201 1.065.258 1.612v.029c.058.259.086.518.115.748v.115c.029.26.057.518.057.748.03.317.058.634.058.95v.46c0 .144.028.317.028.461 0 .173-.028.345-.028.518v.403c0 .201-.03.374-.03.576 0 .115 0 .23-.028.374 0 .201-.028.403-.028.633-.03.086-.03.172-.03.259-.028.23-.056.431-.085.662 0 .086 0 .172-.029.259-.029.287-.086.546-.115.834v.058c-.057.259-.114.547-.172.806v.086l-.172.777c0 .029-.028.086-.028.115a7.739 7.739 0 0 1-.201.777v.087c-.086.287-.172.546-.23.805-.028.03-.028.058-.028.058l-.258.863c-.115.288-.2.547-.315.835-.115.288-.201.575-.316.834-.114.288-.229.547-.344.835h-.028c-.115.259-.23.547-.373.806a1.404 1.404 0 0 1-.086.201c-.029.029-.029.058-.057.086-1.864 3.77-4.615 7.08-8.055 9.67-.23.144-.459.316-.688.489-.057.058-.144.086-.2.144-.201.144-.402.288-.631.432l.086.172h.028l1.204-.172h.029c.745-.116 1.49-.26 2.236-.403.2-.03.43-.087.63-.144.144-.029.258-.058.402-.087.2-.028.401-.086.602-.115.172-.057.344-.086.516-.144 2.866-.69 5.647-1.64 8.313-2.762A45.937 45.937 0 0 1 52.877 111c3.296-.23 6.592-.777 9.774-1.698A45.83 45.83 0 0 0 89.74 87.575a46.03 46.03 0 0 1-7.711 18.504 45.167 45.167 0 0 0 7.654-6.389 45.689 45.689 0 0 0 12.068-24.46 46.021 46.021 0 0 1 .831 13.87c20.696-28.98 1.72-59.024-6.22-66.938-.03-.057-.058-.086-.058-.144-.028.03-.028.03-.028.058 0-.029 0-.029-.03-.058 0 .346-.028.691-.056 1.036a38.946 38.946 0 0 1-.287 1.929c-.143.633-.315 1.266-.487 1.899-.201.604-.43 1.237-.688 1.842-.258.575-.545 1.18-.86 1.755-.316.547-.66 1.123-1.032 1.64a21.994 21.994 0 0 1-1.175 1.554c-.43.518-.89.979-1.348 1.44-.286.258-.544.489-.831.719l-.66.575c-.515.403-1.031.777-1.605 1.123a19.85 19.85 0 0 1-1.69.978c-.603.288-1.205.547-1.807.806-.602.23-1.232.432-1.863.604-.63.173-1.29.317-1.92.432-.66.115-1.32.173-1.95.23-.458.03-.917.058-1.376.058-.659 0-1.318-.058-1.949-.115a14.45 14.45 0 0 1-1.95-.288c-.659-.115-1.29-.288-1.92-.49h-.029c.631-.057 1.262-.115 1.892-.23.66-.115 1.29-.259 1.921-.431.63-.173 1.261-.374 1.863-.605.63-.23 1.233-.518 1.806-.805a20.052 20.052 0 0 0 1.72-.95c.545-.374 1.09-.748 1.605-1.151a15.678 15.678 0 0 0 1.462-1.295c.488-.432.918-.921 1.347-1.41a28.39 28.39 0 0 0 1.204-1.554c.058-.087.115-.202.172-.288.287-.46.574-.921.832-1.381a19.876 19.876 0 0 0 1.548-3.598c.2-.604.344-1.237.487-1.87.115-.662.23-1.295.287-1.928.057-.662.114-1.324.114-1.957 0-.46-.028-.921-.057-1.382a39.402 39.402 0 0 0-.23-1.928 20.926 20.926 0 0 0-.43-1.928c-.2-.604-.4-1.238-.63-1.842a19.925 19.925 0 0 0-.802-1.784c-.316-.576-.631-1.151-.975-1.698a31.745 31.745 0 0 0-1.147-1.583c-.43-.489-.86-.978-1.318-1.467-.23-.23-.488-.49-.746-.72a52.784 52.784 0 0 0-3.984-2.82 5.338 5.338 0 0 0-.573-.288c-.946-.604-1.835-.92-2.724-1.209z" clip-rule="evenodd"/>
</svg>