<svg fill="none" height="539" viewBox="0 0 474 539" width="474" xmlns="http://www.w3.org/2000/svg" xmlns:xlink="http://www.w3.org/1999/xlink"><filter id="a" color-interpolation-filters="sRGB" filterUnits="userSpaceOnUse" height="238" width="238" x="236" y="301"><feFlood flood-opacity="0" result="BackgroundImageFix"/><feColorMatrix in="SourceAlpha" type="matrix" values="0 0 0 0 0 0 0 0 0 0 0 0 0 0 0 0 0 0 127 0"/><feOffset dy="24"/><feGaussianBlur stdDeviation="32"/><feColorMatrix type="matrix" values="0 0 0 0 0 0 0 0 0 0 0 0 0 0 0 0 0 0 0.06 0"/><feBlend in2="BackgroundImageFix" mode="normal" result="effect1_dropShadow"/><feColorMatrix in="SourceAlpha" type="matrix" values="0 0 0 0 0 0 0 0 0 0 0 0 0 0 0 0 0 0 127 0"/><feOffset dy="-8"/><feGaussianBlur stdDeviation="14.5"/><feColorMatrix type="matrix" values="0 0 0 0 0 0 0 0 0 0 0 0 0 0 0 0 0 0 0.01 0"/><feBlend in2="effect1_dropShadow" mode="normal" result="effect2_dropShadow"/><feBlend in="SourceGraphic" in2="effect2_dropShadow" mode="normal" result="shape"/></filter><filter id="b" color-interpolation-filters="sRGB" filterUnits="userSpaceOnUse" height="332" width="332" x="71" y="4"><feFlood flood-opacity="0" result="BackgroundImageFix"/><feColorMatrix in="SourceAlpha" type="matrix" values="0 0 0 0 0 0 0 0 0 0 0 0 0 0 0 0 0 0 127 0"/><feOffset dy="24"/><feGaussianBlur stdDeviation="40"/><feColorMatrix type="matrix" values="0 0 0 0 0 0 0 0 0 0 0 0 0 0 0 0 0 0 0.06 0"/><feBlend in2="BackgroundImageFix" mode="normal" result="effect1_dropShadow"/><feColorMatrix in="SourceAlpha" type="matrix" values="0 0 0 0 0 0 0 0 0 0 0 0 0 0 0 0 0 0 127 0"/><feOffset dy="-8"/><feGaussianBlur stdDeviation="14.5"/><feColorMatrix type="matrix" values="0 0 0 0 0 0 0 0 0 0 0 0 0 0 0 0 0 0 0.01 0"/><feBlend in2="effect1_dropShadow" mode="normal" result="effect2_dropShadow"/><feBlend in="SourceGraphic" in2="effect2_dropShadow" mode="normal" result="shape"/></filter><filter id="c" color-interpolation-filters="sRGB" filterUnits="userSpaceOnUse" height="153" width="204" x="204" y="0"><feFlood flood-opacity="0" result="BackgroundImageFix"/><feColorMatrix in="SourceAlpha" type="matrix" values="0 0 0 0 0 0 0 0 0 0 0 0 0 0 0 0 0 0 127 0"/><feOffset dy="24"/><feGaussianBlur stdDeviation="22"/><feColorMatrix type="matrix" values="0 0 0 0 0.996078 0 0 0 0 0.878431 0 0 0 0 0.2 0 0 0 0.1 0"/><feBlend in2="BackgroundImageFix" mode="normal" result="effect1_dropShadow"/><feColorMatrix in="SourceAlpha" type="matrix" values="0 0 0 0 0 0 0 0 0 0 0 0 0 0 0 0 0 0 127 0"/><feOffset dy="-8"/><feGaussianBlur stdDeviation="14.5"/><feColorMatrix type="matrix" values="0 0 0 0 0.996078 0 0 0 0 0.878431 0 0 0 0 0.2 0 0 0 0.05 0"/><feBlend in2="effect1_dropShadow" mode="normal" result="effect2_dropShadow"/><feBlend in="SourceGraphic" in2="effect2_dropShadow" mode="normal" result="shape"/></filter><filter id="d" color-interpolation-filters="sRGB" filterUnits="userSpaceOnUse" height="238" width="238" x="0" y="301"><feFlood flood-opacity="0" result="BackgroundImageFix"/><feColorMatrix in="SourceAlpha" type="matrix" values="0 0 0 0 0 0 0 0 0 0 0 0 0 0 0 0 0 0 127 0"/><feOffset dy="24"/><feGaussianBlur stdDeviation="32"/><feColorMatrix type="matrix" values="0 0 0 0 0 0 0 0 0 0 0 0 0 0 0 0 0 0 0.06 0"/><feBlend in2="BackgroundImageFix" mode="normal" result="effect1_dropShadow"/><feColorMatrix in="SourceAlpha" type="matrix" values="0 0 0 0 0 0 0 0 0 0 0 0 0 0 0 0 0 0 127 0"/><feOffset dy="-8"/><feGaussianBlur stdDeviation="14.5"/><feColorMatrix type="matrix" values="0 0 0 0 0 0 0 0 0 0 0 0 0 0 0 0 0 0 0.01 0"/><feBlend in2="effect1_dropShadow" mode="normal" result="effect2_dropShadow"/><feBlend in="SourceGraphic" in2="effect2_dropShadow" mode="normal" result="shape"/></filter><linearGradient id="e" gradientUnits="userSpaceOnUse" x1="119.562" x2="97.0568" y1="382.115" y2="405.586"><stop offset="0" stop-color="#00a0ff"/><stop offset=".01" stop-color="#00a1ff"/><stop offset=".26" stop-color="#00beff"/><stop offset=".51" stop-color="#00d2ff"/><stop offset=".76" stop-color="#00dfff"/><stop offset="1" stop-color="#00e3ff"/></linearGradient><linearGradient id="f" gradientUnits="userSpaceOnUse" x1="136.404" x2="102.538" y1="397.271" y2="397.271"><stop offset="0" stop-color="#ffe000"/><stop offset=".41" stop-color="#ffbd00"/><stop offset=".78" stop-color="#ffa500"/><stop offset="1" stop-color="#ff9c00"/></linearGradient><linearGradient id="g" gradientUnits="userSpaceOnUse" x1="123.804" x2="93.2782" y1="400.358" y2="432.18"><stop offset="0" stop-color="#ff3a44"/><stop offset="1" stop-color="#c31162"/></linearGradient><linearGradient id="h" gradientUnits="userSpaceOnUse" x1="99.262" x2="112.888" y1="370.665" y2="384.876"><stop offset="0" stop-color="#32a071"/><stop offset=".07" stop-color="#2da771"/><stop offset=".48" stop-color="#15cf74"/><stop offset=".8" stop-color="#06e775"/><stop offset="1" stop-color="#00f076"/></linearGradient><g filter="url(#a)"><rect fill="#fff" height="110" rx="30" width="110" x="300" y="341"/></g><path d="m365.563 392.681c-.047-4.913 4.195-7.303 4.389-7.414-2.402-3.359-6.126-3.817-7.434-3.854-3.127-.316-6.161 1.794-7.754 1.794-1.625 0-4.078-1.763-6.722-1.712-3.402.051-6.585 1.939-8.331 4.872-3.603 5.981-.916 14.769 2.536 19.603 1.726 2.367 3.744 5.01 6.385 4.917 2.583-.102 3.548-1.579 6.666-1.579 3.089 0 3.996 1.579 6.689 1.52 2.773-.043 4.518-2.378 6.185-4.767 1.995-2.713 2.796-5.386 2.828-5.523-.065-.021-5.385-1.968-5.437-7.857z" fill="#1a1a1a"/><path d="m360.475 378.233c1.389-1.666 2.34-3.933 2.076-6.233-2.011.085-4.526 1.334-5.975 2.963-1.281 1.436-2.426 3.79-2.13 6.003 2.259.162 4.579-1.093 6.029-2.733z" fill="#1a1a1a"/><g filter="url(#b)"><rect fill="#fff" height="172" rx="30" width="172" x="151" y="60"/></g><g stroke="#2a282a" stroke-width=".5"><path d="m289.695 145.582c0 2.943-1.425 5.769-4.05 8.363-2.625 2.596-6.436 4.944-11.166 6.922-9.458 3.955-22.542 6.408-37.007 6.408s-27.548-2.453-37.007-6.408c-4.729-1.978-8.541-4.326-11.166-6.922-2.624-2.594-4.049-5.42-4.049-8.363s1.425-5.769 4.049-8.364c2.625-2.595 6.437-4.944 11.166-6.922 9.459-3.955 22.542-6.407 37.007-6.407s27.549 2.452 37.007 6.407c4.73 1.978 8.541 4.327 11.166 6.922s4.05 5.421 4.05 8.364z"/><path d="m263.592 190.97c-2.539 1.471-5.69 1.645-9.241.662-3.552-.984-7.484-3.123-11.556-6.245-8.142-6.243-16.8-16.389-24.033-28.962s-11.658-25.171-12.975-35.37c-.658-5.1-.537-9.587.39-13.166.927-3.578 2.653-6.23 5.192-7.701 2.538-1.471 5.689-1.6454 9.24-.6618 3.552.9838 7.484 3.1218 11.556 6.2448 8.142 6.243 16.801 16.389 24.033 28.962 7.233 12.573 11.659 25.171 12.975 35.37.658 5.1.537 9.587-.39 13.166-.927 3.578-2.653 6.23-5.191 7.701z"/><path d="m263.592 100.189c-2.539-1.4713-5.69-1.6458-9.241-.6621-3.552.9841-7.484 3.1221-11.556 6.2441-8.142 6.244-16.8 16.39-24.033 28.962-7.233 12.573-11.658 25.172-12.975 35.37-.658 5.1-.537 9.587.39 13.167.927 3.578 2.653 6.229 5.192 7.7 2.538 1.471 5.689 1.646 9.24.662 3.552-.984 7.484-3.122 11.556-6.244 8.142-6.243 16.801-16.39 24.033-28.962 7.233-12.573 11.659-25.172 12.975-35.37.658-5.1.537-9.587-.39-13.167-.927-3.578-2.653-6.229-5.191-7.7z"/></g><ellipse cx="237.483" cy="145.58" fill="#2a282a" rx="10.4112" ry="10.449"/><path d="m0-.25h59" stroke="#000" stroke-dasharray="4 4" stroke-width=".5" transform="matrix(-.573576 .819153 -.819151 -.573577 156.171 262.384)"/><path d="m0-.25h59" stroke="#000" stroke-dasharray="4 4" stroke-width=".5" transform="matrix(.573576 .819153 .819151 -.573577 317 262.384)"/><g filter="url(#c)"><rect fill="#fee033" height="48" rx="24" width="116" x="248" y="37"/><path d="m278.702 66c-.14 0-.252-.0373-.336-.112s-.135-.1773-.154-.308l-1.666-8.974-.014-.112c0-.084.028-.154.084-.21.065-.056.135-.084.21-.084h1.232c.233 0 .364.0933.392.28l1.162 6.342 1.26-4.102c.093-.2333.247-.35.462-.35h.756c.233 0 .383.1167.448.35l1.274 4.088 1.162-6.328c.019-.1027.056-.1727.112-.21.065-.0467.159-.07.28-.07h1.232c.075 0 .14.028.196.084s.084.126.084.21c0 .0467-.005.084-.014.112l-1.666 8.974c-.047.28-.21.42-.49.42h-.938c-.131 0-.238-.0327-.322-.098s-.14-.1493-.168-.252l-1.568-4.676-1.568 4.676c-.093.2333-.261.35-.504.35zm12.514.14c-1.036 0-1.862-.2987-2.478-.896-.606-.6067-.928-1.456-.966-2.548l-.014-.35.014-.35c.047-1.064.374-1.8993.98-2.506.616-.6067 1.438-.91 2.464-.91 1.102 0 1.951.336 2.548 1.008.607.672.91 1.568.91 2.688v.294c0 .0933-.032.1727-.098.238-.065.0653-.149.098-.252.098h-4.648v.112c.019.5133.159.9473.42 1.302.271.3453.64.518 1.106.518.551 0 .994-.2147 1.33-.644.084-.1027.15-.168.196-.196.056-.028.136-.042.238-.042h1.204c.084 0 .154.028.21.084.066.0467.098.1073.098.182 0 .224-.135.49-.406.798-.261.2987-.639.56-1.134.784-.494.224-1.068.336-1.722.336zm1.554-4.41v-.042c0-.5507-.14-.994-.42-1.33-.27-.336-.648-.504-1.134-.504-.485 0-.863.168-1.134.504-.27.336-.406.7793-.406 1.33v.042zm7.422 4.41c-.961 0-1.708-.3313-2.24-.994v.518c0 .0933-.032.1727-.098.238-.056.0653-.135.098-.238.098h-1.106c-.093 0-.172-.0327-.238-.098-.065-.0653-.098-.1447-.098-.238v-9.268c0-.1027.033-.182.098-.238.066-.0653.145-.098.238-.098h1.19c.103 0 .182.0327.238.098.066.056.098.1353.098.238v3.108c.532-.616 1.251-.924 2.156-.924.943 0 1.666.308 2.17.924s.775 1.414.812 2.394c.01.112.014.2613.014.448 0 .196-.004.35-.014.462-.037 1.008-.308 1.8153-.812 2.422s-1.227.91-2.17.91zm-.518-1.498c1.008 0 1.545-.6207 1.61-1.862.01-.0933.014-.2333.014-.42s-.004-.3267-.014-.42c-.065-1.2413-.602-1.862-1.61-1.862-.522 0-.924.168-1.204.504-.27.3267-.415.7233-.434 1.19l-.014.532.014.546c.028.504.173.9287.434 1.274.262.3453.663.518 1.204.518zm7.372 1.358c-.271 0-.448-.1307-.532-.392l-2.996-8.988-.028-.126c0-.084.028-.154.084-.21s.126-.084.21-.084h1.232c.121 0 .214.0327.28.098.074.056.126.126.154.21l2.366 7.21 2.366-7.21c.018-.0747.065-.1447.14-.21.074-.0653.172-.098.294-.098h1.232c.074 0 .14.028.196.084.065.056.098.126.098.21l-.028.126-2.996 8.988c-.084.2613-.262.392-.532.392zm6.689-8.484c-.093 0-.172-.0327-.238-.098-.065-.0653-.098-.1447-.098-.238v-1.008c0-.0933.033-.1727.098-.238.066-.0653.145-.098.238-.098h1.274c.094 0 .173.0327.238.098.075.0653.112.1447.112.238v1.008c0 .0933-.032.1727-.098.238-.065.0653-.149.098-.252.098zm.056 8.484c-.093 0-.172-.0327-.238-.098-.065-.0653-.098-.1447-.098-.238v-6.608c0-.0933.033-.1727.098-.238.066-.0653.145-.098.238-.098h1.162c.103 0 .182.0327.238.098.066.056.098.1353.098.238v6.608c0 .0933-.032.1727-.098.238-.056.0653-.135.098-.238.098zm6.492.14c-1.036 0-1.862-.2987-2.478-.896-.607-.6067-.929-1.456-.966-2.548l-.014-.35.014-.35c.046-1.064.373-1.8993.98-2.506.616-.6067 1.437-.91 2.464-.91 1.101 0 1.95.336 2.548 1.008.606.672.91 1.568.91 2.688v.294c0 .0933-.033.1727-.098.238-.066.0653-.15.098-.252.098h-4.648v.112c.018.5133.158.9473.42 1.302.27.3453.639.518 1.106.518.55 0 .994-.2147 1.33-.644.084-.1027.149-.168.196-.196.056-.028.135-.042.238-.042h1.204c.084 0 .154.028.21.084.065.0467.098.1073.098.182 0 .224-.136.49-.406.798-.262.2987-.64.56-1.134.784-.495.224-1.069.336-1.722.336zm1.554-4.41v-.042c0-.5507-.14-.994-.42-1.33-.271-.336-.649-.504-1.134-.504-.486 0-.864.168-1.134.504-.271.336-.406.7793-.406 1.33v.042zm5.173 4.27c-.122 0-.22-.028-.294-.084-.066-.0653-.122-.154-.168-.266l-2.002-6.496c-.01-.028-.014-.07-.014-.126 0-.084.028-.154.084-.21.065-.0653.135-.098.21-.098h1.036c.102 0 .186.028.252.084.065.056.107.1167.126.182l1.372 4.634 1.456-4.592c.028-.084.074-.154.14-.21.074-.0653.168-.098.28-.098h.7c.112 0 .2.0327.266.098.074.056.126.126.154.21l1.456 4.592 1.372-4.634c.009-.0653.046-.126.112-.182.074-.056.158-.084.252-.084h1.036c.084 0 .154.0327.21.098.065.056.098.126.098.21l-.028.126-2.002 6.496c-.038.112-.094.2007-.168.266-.066.056-.159.084-.28.084h-.91c-.243 0-.397-.1167-.462-.35l-1.456-4.424-1.456 4.424c-.075.2333-.234.35-.476.35z" fill="#000"/></g><g filter="url(#d)"><rect fill="#fff" height="110" rx="30" width="110" x="64" y="341"/></g><path d="m103.658 380.544c-.457.525-.687 1.197-.644 1.879v29.694c-.043.682.187 1.354.644 1.879l.098.094 17.346-16.619v-.389l-17.346-16.632z" fill="url(#e)"/><path d="m126.842 403.016-5.74-5.544v-.389l5.74-5.558.126.068 6.874 3.745c1.96 1.06 1.96 2.805 0 3.879l-6.846 3.732z" fill="url(#f)"/><path d="m127.01 402.935-5.908-5.664-17.444 16.725c.399.337.909.529 1.441.544s1.052-.149 1.471-.463l20.454-11.142" fill="url(#g)"/><path d="m127.01 391.606-20.454-11.142c-.419-.314-.939-.478-1.471-.463s-1.041.207-1.441.544l17.458 16.726z" fill="url(#h)"/><path d="m126.842 402.814-20.286 11.074c-.404.29-.895.446-1.4.446s-.996-.156-1.4-.446l-.098.094.098.094c.403.292.895.449 1.4.449s.997-.157 1.4-.449l20.454-11.141z" fill="#443382" opacity=".2"/><path d="m103.658 413.807c-.457-.525-.687-1.197-.644-1.879v.202c-.043.682.187 1.354.644 1.879l.098-.094zm30.184-14.792-7 3.799.126.121 6.874-3.732c.39-.175.725-.446.97-.786.246-.339.394-.735.43-1.146-.079.374-.246.725-.489 1.028-.242.302-.554.548-.911.716z" fill="#443382" opacity=".12"/><path d="m106.556 380.651 27.286 14.874c.357.169.669.414.911.717.243.302.41.654.489 1.029-.035-.412-.184-.808-.429-1.147-.246-.34-.581-.611-.971-.787l-27.286-14.874c-1.96-1.061-3.556-.175-3.556 1.973v.202c.042-2.162 1.61-3.048 3.556-1.987z" fill="#fff" opacity=".25"/></svg>