<svg fill="none" height="760" viewBox="0 0 427 760" width="427" xmlns="http://www.w3.org/2000/svg" xmlns:xlink="http://www.w3.org/1999/xlink"><mask id="a" height="760" maskUnits="userSpaceOnUse" width="427" x="0" y="0"><path d="m.819824 0h426.180176v760c-235.373 0-426.180176-190.807-426.180176-426.18z" fill="#43497b"/></mask><g mask="url(#a)"><path d="m.819824 0h426.180176v800c-235.373 0-426.180176-190.807-426.180176-426.18z" fill="#7175d8" fill-opacity=".2"/><g clip-rule="evenodd" fill-rule="evenodd"><path d="m180 569c83.831 0 152-68.16 152-152.5s-68.169-152.5-152-152.5v-100c139.292 0 252 113.165 252 252.5s-112.708 252.5-252 252.5z" fill="#5ecba1"/><path d="m180 264c-83.8308 0-152 68.16-152 152.5s68.1692 152.5 152 152.5v100c-139.2922 0-252-113.165-252-252.5s112.7078-252.5 252-252.5z" fill="#5ecba1" fill-opacity=".15"/><path d="m443.571-263.715c-83.831 0-152 68.16-152 152.5 0 84.3402 68.169 152.5002 152 152.5002v99.9998c-139.292 0-252-113.1646-252-252.5 0-139.335 112.708-252.5 252-252.5z" fill="#5ecba1"/><path d="m252.82 359c-83.831 0-152-68.16-152-152.5s68.169-152.5001 152-152.5001v-100c-139.292 0-252.000176 113.1648-252.000176 252.5001 0 139.335 112.708176 252.5 252.000176 252.5z" fill="#7175d8"/></g></g></svg>