<svg fill="none" height="489" viewBox="0 0 1407 489" width="1407" xmlns="http://www.w3.org/2000/svg" xmlns:xlink="http://www.w3.org/1999/xlink"><linearGradient id="a" gradientUnits="userSpaceOnUse" x1="1406" x2="1" y1="519.381" y2="519.381"><stop offset="0" stop-color="#4f9beb" stop-opacity=".1"/><stop offset="1" stop-color="#4f9beb" stop-opacity=".1"/></linearGradient><g stroke="#4f9beb"><path clip-rule="evenodd" d="m1 376.717s148.479 76.529 280.728 61.569 530.508-267.593 743.462-283.527c212.95-15.934 380.81 42.346 380.81 42.346v159.352s-224.82-147.215-404.2-140.601c-179.385 6.614-523.605 241.244-652.082 267.741-128.478 26.497-348.718-75.261-348.718-75.261z" fill="url(#a)" fill-rule="evenodd" stroke-opacity=".5"/><path d="m3 349.241s149.379 65.469 277.332 51.208 535.952-253.62 742.398-283.775c206.45-30.1561 380.27 17.587 380.27 17.587" stroke-opacity=".4"/><path d="m3 64.8764s142.039 110.5856 277.273 100.2386c135.235-10.348 507.186-137.8659 718.227-160.31439 211.04-22.44841 404.5 60.07579 404.5 60.07579" stroke-opacity=".3"/></g></svg>