<svg fill="none" height="1833" viewBox="0 0 1400 1833" width="1400" xmlns="http://www.w3.org/2000/svg" xmlns:xlink="http://www.w3.org/1999/xlink"><linearGradient id="a" gradientUnits="userSpaceOnUse" x1="1400" x2=".000001" y1="2.42314" y2="2.4231"><stop offset="0" stop-color="#4f9beb" stop-opacity=".1"/><stop offset="1" stop-color="#4f9beb" stop-opacity=".1"/></linearGradient><linearGradient id="b"><stop offset="0" stop-color="#87d8f7"/><stop offset="1" stop-color="#4f9beb"/></linearGradient><linearGradient id="c" gradientUnits="userSpaceOnUse" x1="791.381" x2="-812.702" xlink:href="#b" y1="-722" y2="448.594"/><linearGradient id="d" gradientUnits="userSpaceOnUse" x1="1407.83" x2="1287.83" xlink:href="#b" y1="285" y2="389.335"/><linearGradient id="e" gradientUnits="userSpaceOnUse" x1="18.19" x2="-275.81" xlink:href="#b" y1="634" y2="889.62"/><linearGradient id="f" gradientUnits="userSpaceOnUse" x1="1353.59" x2="869.592" xlink:href="#b" y1="848" y2="1268.82"/><linearGradient id="g" gradientUnits="userSpaceOnUse" x1="1067.98" x2="1435.98" xlink:href="#b" y1="503" y2="183.04"/><mask id="h" height="1665" maskUnits="userSpaceOnUse" width="1400" x="0" y="112"><path clip-rule="evenodd" d="m0 247.616s214.016 49.241 386.016 35.294c172-13.946 465.64-158.922 660.964-169.626 195.33-10.705 353.02 67.859 353.02 67.859v1547.887s-332.69 84.33-508.555 29.14c-175.867-55.19-317.312-143.65-505.429-196.18-188.118-52.53-386.016-67.54-386.016-67.54z" fill="#fff" fill-rule="evenodd"/></mask><path clip-rule="evenodd" d="m0 215.219s217.289 61.877 382.102 38.647c164.812-23.229 419.718-199.1414 625.908-216.5692 206.19-17.4279 391.99 97.3852 391.99 97.3852v263.318h-1400" fill="url(#a)" fill-rule="evenodd"/><path d="m0 215.219s217.289 61.877 382.102 38.647c164.812-23.229 419.718-199.1414 625.908-216.5692 206.19-17.4279 391.99 97.3852 391.99 97.3852v263.318h-1400" stroke="#4f9beb" stroke-opacity=".4"/><path d="m0 1526s277.038 15.42 489.349 95.29 183.268 99.76 377.629 177.54c194.362 77.77 548.022-21.46 548.022-21.46" stroke="#4f9beb" stroke-opacity=".5"/><path clip-rule="evenodd" d="m0 247.616s214.016 49.241 386.016 35.294c172-13.946 465.64-158.922 660.964-169.626 195.33-10.705 353.02 67.859 353.02 67.859v1547.887s-332.69 84.33-508.555 29.14c-175.867-55.19-317.312-143.65-505.429-196.18-188.118-52.53-386.016-67.54-386.016-67.54z" fill="url(#c)" fill-rule="evenodd"/><g mask="url(#h)"><path d="m1446 405c0 25.405-20.59 46-46 46s-46-20.595-46-46 20.59-46 46-46 46 20.595 46 46z" stroke="url(#d)" stroke-width="28"/><g clip-rule="evenodd" fill-rule="evenodd"><path d="m-1 1075c81.1859 0 147-65.81 147-147 0-81.186-65.8141-147-147-147s-147 65.814-147 147c0 81.19 65.8141 147 147 147z" fill="url(#e)"/><path d="m1322 1574c133.65 0 242-108.35 242-242s-108.35-242-242-242-242 108.35-242 242 108.35 242 242 242z" fill="url(#f)"/><path d="m1092-49c-101.62 0-184 82.3796-184 184 0 101.62 82.38 184 184 184s184-82.38 184-184c0-101.6204-82.38-184-184-184z" fill="url(#g)"/></g></g><path d="m0 201.152s240.609 67.101 416.902 18.3c176.293-48.802 407.43-195.9662 588.608-216.55132 181.17-20.58508 394.49 104.91532 394.49 104.91532" stroke="#4f9beb" stroke-opacity=".3"/></svg>