<svg fill="none" height="1194" viewBox="0 0 1400 1194" width="1400" xmlns="http://www.w3.org/2000/svg" xmlns:xlink="http://www.w3.org/1999/xlink"><linearGradient id="a" gradientUnits="userSpaceOnUse" x1="1400" x2="0" y1="785.308" y2="785.308"><stop offset="0" stop-color="#4f9beb" stop-opacity=".1"/><stop offset="1" stop-color="#4f9beb" stop-opacity=".1"/></linearGradient><linearGradient id="b"><stop offset="0" stop-color="#87d8f7"/><stop offset="1" stop-color="#4f9beb"/></linearGradient><linearGradient id="c" gradientUnits="userSpaceOnUse" x1="791.381" x2="-289.201" xlink:href="#b" y1="-539" y2="681.153"/><linearGradient id="d" gradientUnits="userSpaceOnUse" x1="56.326" x2="-331.674" xlink:href="#b" y1="-267" y2="70.349"/><linearGradient id="e" gradientUnits="userSpaceOnUse" x1="-7.745" x2="103.255" xlink:href="#b" y1="622.01" y2="525.5"/><linearGradient id="f" gradientUnits="userSpaceOnUse" x1="1102.84" x2="1770.28" xlink:href="#b" y1="124.523" y2="-41.844"/><linearGradient id="g" gradientUnits="userSpaceOnUse" x1="165.84" x2="833.277" xlink:href="#b" y1="399.523" y2="233.156"/><linearGradient id="h" gradientUnits="userSpaceOnUse" x1="789.029" x2="1000.78" xlink:href="#b" y1="-87.737" y2="-136.603"/><path clip-rule="evenodd" d="m0 932.246s154.556-61.672 279.729-61.672 528.62 268.036 740.811 283.996c212.2 15.96 379.46-42.41 379.46-42.41v-296.16h-1400z" fill="url(#a)" fill-rule="evenodd" stroke="#4f9beb" stroke-opacity=".5"/><path d="m0 953.238s147.094-51.238 277.332-51.238 531.359 261.5 742.398 283.94c211.04 22.44 380.27-17.6 380.27-17.6" stroke="#4f9beb" stroke-opacity=".3"/><path clip-rule="evenodd" d="m0 0h1400v1017.34s-320.05 90.91-500.266 45.58c-180.211-45.33-370.586-244.016-551.976-244.016-181.391 0-347.758 78.776-347.758 78.776z" fill="url(#c)" fill-rule="evenodd"/><path clip-rule="evenodd" d="m31 315c107.143 0 194-86.857 194-194s-86.857-194-194-194-194 86.857-194 194 86.857 194 194 194z" fill="url(#d)" fill-rule="evenodd"/><path d="m16 525.5c0 9.113-7.387 16.5-16.5 16.5s-16.5-7.387-16.5-16.5 7.387-16.5 16.5-16.5 16.5 7.387 16.5 16.5z" stroke="url(#e)" stroke-width="78"/><path clip-rule="evenodd" d="m1614.36 536.809c-74.18 102.096-217.07 124.728-319.17 50.551-102.09-74.176-124.73-217.073-50.55-319.169 74.18-102.095 217.07-124.728 319.17-50.551 102.09 74.176 124.73 217.073 50.55 319.169z" fill="url(#f)" fill-rule="evenodd"/><path clip-rule="evenodd" d="m677.36 811.809c-74.176 102.096-217.073 124.728-319.169 50.551-102.096-74.176-124.728-217.073-50.551-319.169 74.176-102.095 217.073-124.728 319.169-50.551 102.095 74.176 124.728 217.073 50.551 319.169z" fill="url(#g)" fill-rule="evenodd"/><path d="m891.557 50.16c27.702 20.126 66.475 13.985 86.602-13.717s13.986-66.475-13.716-86.602-66.475-13.986-86.602 13.716-13.986 66.475 13.716 86.602z" stroke="url(#h)" stroke-width="40"/></svg>