<svg fill="none" height="1024" viewBox="0 0 320 1024" width="320" xmlns="http://www.w3.org/2000/svg" xmlns:xlink="http://www.w3.org/1999/xlink"><linearGradient id="a" gradientUnits="userSpaceOnUse" x1="580.636" x2="-200" y1="2.3511" y2="2.35108"><stop offset="0" stop-color="#4f9beb" stop-opacity=".1"/><stop offset="1" stop-color="#4f9beb" stop-opacity=".1"/></linearGradient><linearGradient id="b"><stop offset="0" stop-color="#87d8f7"/><stop offset="1" stop-color="#4f9beb"/></linearGradient><linearGradient id="c" gradientUnits="userSpaceOnUse" x1="241.272" x2="-653.16" xlink:href="#b" y1="-401.585" y2="251.135"/><linearGradient id="d" gradientUnits="userSpaceOnUse" x1="323.17" x2="256.259" xlink:href="#b" y1="159.915" y2="218.092"/><linearGradient id="e" gradientUnits="userSpaceOnUse" x1="-4.41987" x2="-168.353" xlink:href="#b" y1="378.711" y2="521.244"/><linearGradient id="f" gradientUnits="userSpaceOnUse" x1="407.087" x2="137.21" xlink:href="#b" y1="473.842" y2="708.488"/><linearGradient id="g" gradientUnits="userSpaceOnUse" x1="187.879" x2="393.075" xlink:href="#b" y1="281.471" y2="103.063"/><mask id="h" height="929" maskUnits="userSpaceOnUse" width="781" x="-200" y="63"><path clip-rule="evenodd" d="m-200 139.07s119.3345 27.456 215.2412 19.68c95.9068-7.776 259.6398-88.6146 368.5548-94.5833 108.914-5.9688 196.84 37.8383 196.84 37.8383v863.095s-185.506 47.02-283.569 16.251c-98.063-30.772-176.932-80.099-281.8258-109.389-104.8936-29.291-215.2412-37.66-215.2412-37.66z" fill="#fff" fill-rule="evenodd"/></mask><path clip-rule="evenodd" d="m-200 121.005s121.1598 34.503 213.0587 21.55c91.8993-12.952 234.0343-111.0407 349.0033-120.7585 114.97-9.7177 218.574 54.302 218.574 54.302v146.8255h-780.636" fill="url(#a)" fill-rule="evenodd"/><path d="m-200 121.005s121.1598 34.503 213.0587 21.55c91.8993-12.952 234.0343-111.0407 349.0033-120.7585 114.97-9.7177 218.574 54.302 218.574 54.302v146.8255h-780.636" stroke="#4f9beb" stroke-opacity=".4"/><path d="m-200 851.894s154.4757 8.597 272.8597 53.132c118.3843 44.535 102.1893 55.628 210.5653 98.994 108.375 43.37 305.575-11.96 305.575-11.96" stroke="#4f9beb" stroke-opacity=".5"/><path clip-rule="evenodd" d="m-200 139.07s119.3345 27.456 215.2412 19.68c95.9068-7.776 259.6398-88.6146 368.5548-94.5833 108.914-5.9688 196.84 37.8383 196.84 37.8383v863.095s-185.506 47.02-283.569 16.251c-98.063-30.772-176.932-80.099-281.8258-109.389-104.8936-29.291-215.2412-37.66-215.2412-37.66z" fill="url(#c)" fill-rule="evenodd"/><g mask="url(#h)"><path d="m338.259 226.827c0 10.745-8.711 19.456-19.456 19.456s-19.456-8.711-19.456-19.456 8.711-19.456 19.456-19.456 19.456 8.711 19.456 19.456z" stroke="url(#d)" stroke-width="28"/><g clip-rule="evenodd" fill-rule="evenodd"><path d="m-15.1202 624.612c45.269 0 81.9668-36.698 81.9668-81.967s-36.6978-81.967-81.9668-81.967-81.9668 36.698-81.9668 81.967 36.6978 81.967 81.9668 81.967z" fill="url(#e)"/><path d="m389.471 878.658c74.525 0 134.939-60.414 134.939-134.939 0-74.524-60.414-134.938-134.939-134.938-74.524 0-134.938 60.414-134.938 134.938 0 74.525 60.414 134.939 134.938 134.939z" fill="url(#f)"/><path d="m201.273-26.3225c-56.663 0-102.5979 45.9347-102.5979 102.5979 0 56.6636 45.9349 102.5976 102.5979 102.5976s102.598-45.934 102.598-102.5976c0-56.6632-45.935-102.5979-102.598-102.5979z" fill="url(#g)"/></g></g><path d="m-200 113.162s134.1631 37.415 232.4636 10.204c98.3004-27.2118 227.1814-109.2704 328.2044-120.74859 101.023-11.47821 219.968 58.50059 219.968 58.50059" stroke="#4f9beb" stroke-opacity=".3"/></svg>