<svg fill="none" height="615" viewBox="0 0 1032 615" width="1032" xmlns="http://www.w3.org/2000/svg" xmlns:xlink="http://www.w3.org/1999/xlink"><linearGradient id="a"><stop offset="0" stop-color="#87d8f7"/><stop offset="1" stop-color="#4f9beb"/></linearGradient><linearGradient id="b" gradientUnits="userSpaceOnUse" x1="569.789" x2="64.5068" xlink:href="#a" y1="845.5" y2="98.8992"/><linearGradient id="c" gradientUnits="userSpaceOnUse" x1="564.786" x2="135.622" xlink:href="#a" y1="777.5" y2="103.623"/><linearGradient id="d" gradientUnits="userSpaceOnUse" x1="219.523" x2="188.523" xlink:href="#a" y1="47.5" y2="74.4531"/><linearGradient id="e" gradientUnits="userSpaceOnUse" x1="946.001" x2="923.001" xlink:href="#a" y1="388.5" y2="408.497"/><path clip-rule="evenodd" d="m163.624 150.831c-90.3132 61.423-149.616 219.136-83.3 284.156 66.316 65.019 220.521 47.417 387.625 81.395s299.666 86.549 362.268 43.274c62.601-43.274 48.457-151.872 75.267-249.015s102.956-197.344 35.084-253.1106c-67.873-55.76645-223.422 18.3109-408.037 31.4817-184.615 13.1709-278.593.395-368.907 61.8189z" fill="url(#b)" fill-opacity=".2" fill-rule="evenodd"/><path d="m163.906 151.244c-45.049 30.639-82.3943 85.322-100.1921 140.47-17.8067 55.176-15.9903 110.609 16.9602 142.916 16.5014 16.178 38.4909 27.238 64.8399 35.248 26.35 8.011 57.029 12.964 90.886 16.95 19.487 2.295 40.027 4.268 61.393 6.321 52.844 5.078 110.74 10.642 170.256 22.743 41.787 8.497 81.413 18.155 118.317 27.186l2.517.616c35.946 8.797 69.275 16.953 99.483 22.804 30.915 5.988 58.534 9.556 82.322 8.931 23.788-.624 43.703-5.441 59.244-16.184 31.117-21.51 43.208-59.285 50.847-103.98 2.561-14.98 4.617-30.71 6.727-46.846 1.037-7.929 2.086-15.957 3.215-24.042 3.423-24.524 7.57-49.552 14.281-73.869 6.712-24.318 16.509-48.821 26.357-72.746 1.051-2.555 2.103-5.103 3.152-7.643 8.78-21.263 17.341-41.997 23.544-61.7 6.944-22.058 10.914-42.769 8.938-61.422-1.974-18.6294-9.881-35.226-26.743-49.0803-16.848-13.8431-39.169-19.656-66.123-20.3461-26.956-.6902-58.488 3.7442-93.707 10.3407-17.634 3.3028-36.19 7.1474-55.55 11.1587-57.94 12.0048-123.086 25.5028-192.303 30.4408-42.057 3.0004-79.411 4.6545-113.084 6.1456-3.286.1456-6.538.2896-9.755.4331-36.186 1.6142-68.048 3.171-96.961 6.2345-57.814 6.125-103.797 18.271-148.861 48.92z" stroke="#4f9beb" stroke-opacity=".5"/><path d="m126.044 130.293c-50.7675 34.968-92.8505 97.375-112.9064 160.313-20.0647 62.965-18.02686 126.252 19.1256 163.143 37.219 36.956 99.1578 50.475 175.4818 59.576 21.957 2.618 45.099 4.87 69.172 7.213 59.535 5.794 124.759 12.141 191.808 25.948 47.077 9.694 91.72 20.715 133.298 31.018l2.835.703c40.499 10.037 78.049 19.344 112.085 26.02 34.831 6.833 65.953 10.905 92.76 10.193 26.806-.713 49.255-6.21 66.778-18.478 35.082-24.56 48.708-67.689 57.315-118.688 2.885-17.094 5.202-35.044 7.58-53.457 1.168-9.047 2.35-18.205 3.621-27.428 3.857-27.982 8.528-56.534 16.088-84.276s18.596-55.696 29.691-82.994c1.185-2.915 2.37-5.822 3.552-8.721 9.892-24.26 19.542-47.922 26.532-70.405 7.82-25.172 12.3-48.816 10.07-70.114-2.23-21.2759-11.14-40.2301-30.16-56.0494-18.993-15.80752-44.156-22.44137-74.529-23.228973-30.376-.787658-65.907 4.272953-105.586 11.799573-19.869 3.7689-40.776 8.1559-62.588 12.733-65.277 13.6972-138.668 29.0974-216.647 34.7314-47.382 3.4234-89.466 5.3107-127.403 7.0122-3.703.166-7.366.3302-10.99.494-40.767 1.8418-76.667 3.6181-109.243 7.1136-65.141 6.9898-116.958 20.8502-167.74 55.8286z" stroke="#4f9beb" stroke-opacity=".5"/><path clip-rule="evenodd" d="m189.216 173.048c-83.51 53.446-138.3462 190.677-77.026 247.252 61.321 56.575 203.911 41.26 358.427 70.825s277.093 75.308 334.979 37.654c57.885-37.654 44.807-132.149 69.597-216.676 24.791-84.527 95.201-171.715 32.441-220.2389-62.76-48.524-206.591 15.9329-377.3 27.3929-170.709 11.461-257.608.344-341.118 53.791z" fill="url(#c)" fill-rule="evenodd"/><path d="m229 78.5c0 6.3513-5.149 11.5-11.5 11.5s-11.5-5.1487-11.5-11.5 5.149-11.5 11.5-11.5 11.5 5.1487 11.5 11.5z" stroke="url(#d)" stroke-width="8"/><path clip-rule="evenodd" d="m944.5 423c6.351 0 11.5-5.149 11.5-11.5s-5.149-11.5-11.5-11.5-11.5 5.149-11.5 11.5 5.149 11.5 11.5 11.5z" fill="url(#e)" fill-rule="evenodd"/><path d="m295.46 342.568c-5.45 0-10.154-.747-14.112-2.24-3.957-1.568-7.242-3.696-9.856-6.384-2.538-2.763-4.442-6.011-5.712-9.744-1.194-3.808-1.792-7.989-1.792-12.544v-48.272h17.472v46.816c0 3.136.336 5.824 1.008 8.064.747 2.165 1.718 3.957 2.912 5.376 1.27 1.344 2.763 2.315 4.48 2.912 1.792.597 3.734.896 5.824.896 4.256 0 7.691-1.307 10.304-3.92 2.688-2.613 4.032-7.056 4.032-13.328v-46.816h17.472v48.272c0 4.555-.634 8.736-1.904 12.544-1.269 3.808-3.21 7.093-5.824 9.856-2.613 2.688-5.936 4.779-9.968 6.272s-8.81 2.24-14.336 2.24zm48.836-79.184h17.472v77.616h-17.472zm79.816 63.392c.821.075 1.754.149 2.8.224h3.92c8.736 0 15.194-2.203 19.376-6.608 4.256-4.405 6.384-10.491 6.384-18.256 0-8.139-2.016-14.299-6.048-18.48s-10.416-6.272-19.152-6.272c-1.195 0-2.427.037-3.696.112-1.27 0-2.464.075-3.584.224zm50.512-24.64c0 6.72-1.046 12.581-3.136 17.584-2.091 5.003-5.078 9.147-8.96 12.432-3.808 3.285-8.475 5.749-14 7.392-5.526 1.643-11.723 2.464-18.592 2.464-3.136 0-6.795-.149-10.976-.448-4.182-.224-8.288-.747-12.32-1.568v-75.6c4.032-.747 8.213-1.232 12.544-1.456 4.405-.299 8.176-.448 11.312-.448 6.645 0 12.656.747 18.032 2.24 5.45 1.493 10.117 3.845 14 7.056 3.882 3.211 6.869 7.317 8.96 12.32 2.09 5.003 3.136 11.013 3.136 18.032zm10.674 9.856c0-5.227.784-9.781 2.352-13.664 1.642-3.957 3.77-7.243 6.384-9.856 2.613-2.613 5.6-4.592 8.96-5.936 3.434-1.344 6.944-2.016 10.528-2.016 8.362 0 14.97 2.576 19.824 7.728 4.853 5.077 7.28 12.581 7.28 22.512 0 .971-.038 2.053-.112 3.248-.075 1.12-.15 2.128-.224 3.024h-37.856c.373 3.435 1.978 6.16 4.816 8.176 2.837 2.016 6.645 3.024 11.424 3.024 3.061 0 6.048-.261 8.96-.784 2.986-.597 5.413-1.307 7.28-2.128l2.24 13.552c-.896.448-2.091.896-3.584 1.344-1.494.448-3.174.821-5.04 1.12-1.792.373-3.734.672-5.824.896-2.091.224-4.182.336-6.272.336-5.302 0-9.931-.784-13.888-2.352-3.883-1.568-7.131-3.696-9.744-6.384-2.539-2.763-4.443-6.011-5.712-9.744-1.195-3.733-1.792-7.765-1.792-12.096zm39.2-6.384c-.075-1.419-.336-2.8-.784-4.144-.374-1.344-1.008-2.539-1.904-3.584-.822-1.045-1.904-1.904-3.248-2.576-1.27-.672-2.875-1.008-4.816-1.008-1.867 0-3.472.336-4.816 1.008-1.344.597-2.464 1.419-3.36 2.464s-1.606 2.277-2.128 3.696c-.448 1.344-.784 2.725-1.008 4.144zm45.918 23.408c3.061 0 5.227-.299 6.496-.896s1.904-1.755 1.904-3.472c0-1.344-.821-2.501-2.464-3.472-1.643-1.045-4.144-2.203-7.504-3.472-2.613-.971-5.003-1.979-7.168-3.024-2.091-1.045-3.883-2.277-5.376-3.696-1.493-1.493-2.651-3.248-3.472-5.264s-1.232-4.443-1.232-7.28c0-5.525 2.053-9.893 6.16-13.104s9.744-4.816 16.912-4.816c3.584 0 7.019.336 10.304 1.008 3.285.597 5.899 1.269 7.84 2.016l-2.912 12.992c-1.941-.672-4.069-1.269-6.384-1.792-2.24-.523-4.779-.784-7.616-.784-5.227 0-7.84 1.456-7.84 4.368 0 .672.112 1.269.336 1.792s.672 1.045 1.344 1.568c.672.448 1.568.971 2.688 1.568 1.195.523 2.688 1.12 4.48 1.792 3.659 1.344 6.683 2.688 9.072 4.032 2.389 1.269 4.256 2.688 5.6 4.256 1.419 1.493 2.389 3.173 2.912 5.04.597 1.867.896 4.032.896 6.496 0 5.824-2.203 10.229-6.608 13.216-4.331 2.987-10.491 4.48-18.48 4.48-5.227 0-9.595-.448-13.104-1.344-3.435-.896-5.824-1.643-7.168-2.24l2.8-13.552c2.837 1.12 5.749 2.016 8.736 2.688 2.987.597 5.936.896 8.848.896zm54.135 11.984h-16.688v-58.912h16.688zm1.568-75.936c0 3.061-1.008 5.488-3.024 7.28-1.941 1.717-4.256 2.576-6.944 2.576s-5.04-.859-7.056-2.576c-1.941-1.792-2.912-4.219-2.912-7.28s.971-5.451 2.912-7.168c2.016-1.792 4.368-2.688 7.056-2.688s5.003.896 6.944 2.688c2.016 1.717 3.024 4.107 3.024 7.168zm28.343 44.576c0 9.333 3.771 14 11.312 14 1.718 0 3.323-.224 4.816-.672 1.494-.448 2.763-.971 3.808-1.568v-26.656c-.821-.149-1.792-.261-2.912-.336-1.12-.149-2.426-.224-3.92-.224-4.405 0-7.69 1.456-9.856 4.368-2.165 2.912-3.248 6.608-3.248 11.088zm36.624 23.968c0 9.632-2.464 16.763-7.392 21.392-4.853 4.704-12.394 7.056-22.624 7.056-3.584 0-7.168-.336-10.752-1.008-3.584-.597-6.906-1.419-9.968-2.464l2.912-14c2.614 1.045 5.339 1.867 8.176 2.464 2.912.597 6.198.896 9.856.896 4.779 0 8.139-1.045 10.08-3.136 2.016-2.091 3.024-4.779 3.024-8.064v-2.128c-1.792.821-3.658 1.456-5.6 1.904-1.866.373-3.92.56-6.16.56-8.138 0-14.373-2.389-18.704-7.168-4.33-4.853-6.496-11.611-6.496-20.272 0-4.331.672-8.251 2.016-11.76 1.344-3.584 3.286-6.645 5.824-9.184 2.614-2.539 5.787-4.48 9.52-5.824 3.734-1.419 7.952-2.128 12.656-2.128 2.016 0 4.07.112 6.16.336 2.166.149 4.294.373 6.384.672 2.091.299 4.07.672 5.936 1.12 1.942.373 3.659.784 5.152 1.232zm15.652-49.504c2.838-.821 6.496-1.568 10.976-2.24 4.48-.747 9.184-1.12 14.112-1.12 5.003 0 9.147.672 12.432 2.016 3.36 1.269 6.011 3.099 7.952 5.488 1.942 2.389 3.323 5.227 4.144 8.512.822 3.285 1.232 6.944 1.232 10.976v33.264h-16.688v-31.248c0-5.376-.709-9.184-2.128-11.424-1.418-2.24-4.069-3.36-7.952-3.36-1.194 0-2.464.075-3.808.224-1.344.075-2.538.187-3.584.336v45.472h-16.688z" fill="#fff"/></svg>