<svg fill="none" height="60" viewBox="0 0 145 60" width="145" xmlns="http://www.w3.org/2000/svg"><path clip-rule="evenodd" d="m144.13 34.272h-19.478c.459 4.632 3.866 6.12 7.733 6.12 3.963 0 7.153-.888 9.788-2.28v7.968c-3.343 1.9102-7.168 2.8265-11.021 2.64-9.69 0-16.505-6-16.505-17.952 0-10.056 5.775-18.048 15.225-18.048 9.473 0 14.403 7.872 14.403 18 0 .96-.097 3.024-.145 3.552zm-14.307-13.488c-2.489 0-5.244 1.752-5.244 6.192h10.271c0-4.44-2.586-6.192-5.027-6.192zm-30.8605 27.936c-3.48 0-5.6067-1.44-7.0083-2.496l-.0484 11.112-9.9566 2.088v-46.056h9.0866l.1934 2.448c2.1075-1.9853 4.9009-3.0932 7.8058-3.096 7.008 0 13.582 6.24 13.582 17.76 0 12.552-6.525 18.24-13.6545 18.24zm-2.2958-27.24c-2.2959 0-3.7217.816-4.7609 1.944l.0484 14.688c.9666 1.056 2.3683 1.872 4.7125 1.872 3.6733 0 6.1383-3.96 6.1383-9.288 0-5.16-2.513-9.216-6.1383-9.216zm-28.42-8.112h9.9808v34.656h-9.9808zm0-11.28 9.9808-2.088v8.064l-9.9808 2.112v-8.064zm-10.44 22.44v23.496h-9.9567v-34.656h8.9417l.29 2.928c2.4166-4.248 7.4191-3.384 8.7483-2.928v9.096c-1.2567-.408-5.5342-1.032-8.0233 2.064zm-20.6625 11.328c0 5.832 6.2833 4.032 7.54 3.504v8.064c-1.3292.72-3.7217 1.296-6.9842 1.296-1.3598.0394-2.7134-.1963-3.9785-.6929-1.2651-.4965-2.4153-1.2434-3.3806-2.1953s-1.7255-2.0889-2.2344-3.3417c-.5088-1.2529-.7557-2.5955-.7257-3.9461l.0242-31.608 9.715-2.064v8.496h7.5883v8.472h-7.5641v14.04zm-11.8659 1.68c0 7.128-5.5825 11.184-13.8475 11.184-3.70878-.0028-7.37745-.7625-10.7783-2.232v-9.432c3.335 1.8 7.49167 3.144 10.7783 3.144 2.2234 0 3.6975-.576 3.6975-2.4 0-4.752-15.1283-2.976-15.1283-13.92 0-6.984 5.51-11.16 13.5817-11.16 3.2866 0 6.5733.48 9.8841 1.8v9.312c-3.0596-1.5992-6.4516-2.4701-9.9083-2.544-2.0783 0-3.48.6-3.48 2.16 0 4.44 15.2008 2.328 15.2008 14.112z" fill="#6461fb" fill-rule="evenodd"/></svg>