<svg fill="none" height="87" viewBox="0 0 89 87" width="89" xmlns="http://www.w3.org/2000/svg" xmlns:xlink="http://www.w3.org/1999/xlink"><mask id="a" height="87" maskUnits="userSpaceOnUse" width="89" x="0" y="0"><path d="m88.9125 20.1371c-.3894 9.7832-6.4486 23.1944-18.148 40.2081-12.1187 17.7713-22.3461 26.6548-30.7415 26.6548-5.2248 0-9.5599-5.4146-13.1754-16.2398l-7.1123-29.7679c-2.6663-10.8126-5.5179-16.2272-8.5735-16.2272-.6638 0-2.98892 1.5817-6.97528 4.7366l-4.18652-6.0966c4.39427-4.3685 8.71807-8.7203 12.9826-13.0888 5.8553-5.72433 10.2532-8.72456 13.179-9.03421 6.9235-.753192 11.1843 4.60287 12.7824 16.05981 1.7243 12.3566 2.9258 20.0392 3.6007 23.0434 1.9987 10.2519 4.194 15.3736 6.5858 15.3736 1.8615 0 4.6575-3.3306 8.3992-9.9797 3.7231-6.6492 5.7107-11.7038 5.9776-15.1812.534-5.7367-1.4647-8.6241-5.9851-8.6241-2.1285 0-4.3275.5063-6.5895 1.6363 4.398-16.18556 12.7341-24.089747 25.0751-23.5877096 9.1705.2510656 13.4535 6.9628796 12.9529 20.0727096z" fill="#231f20"/></mask><g mask="url(#a)"><path d="m-11.4434-32.4998h111.886v126.286h-111.886z" fill="#5ad6ff"/></g></svg>