<svg fill="none" height="90" viewBox="0 0 101 90" width="101" xmlns="http://www.w3.org/2000/svg"><g fill="#93b1ff"><path d="m83.4948 28.8997c-1.0183-.3365-2.2062-.6731-3.2244-1.0097.1697-.6731.3394-1.5145.5091-2.1876 2.5456-11.9479.8485-21.53995-4.582-24.569-5.2609-3.02906-13.9158.16828-22.7405 7.74091-.8485.67313-1.697 1.51449-2.5455 2.35589-.5092-.5048-1.188-1.0096-1.6971-1.51448-9.164-8.07748-18.3281-11.4431-23.9284-8.24576-5.2608 3.02905-6.7882 12.11624-4.582 23.39104.1697 1.0097.5091 2.1876.6788 3.3656-1.3576.3366-2.5456.6731-3.7335 1.178-10.69141 3.7021-17.6493 9.592-17.6493 15.6501 0 6.2264 7.2973 12.4528 18.4978 16.3232.8485.3366 1.8668.5049 2.7153.8414-.3394 1.178-.5091 2.356-.8485 3.5339-2.0365 11.1066-.5092 19.8572 4.7517 22.8862 5.4306 3.0291 14.5946-.1683 23.4193-7.7409.6788-.6731 1.3576-1.178 2.0364-1.8511.8486.8414 1.8668 1.6828 2.7153 2.5242 8.655 7.4044 17.1402 10.2651 22.4011 7.2361 5.4305-3.1973 7.1276-12.6211 4.9214-24.0642-.1697-.8414-.3394-1.8511-.6788-2.6925.6788-.1682 1.1879-.3365 1.8667-.5048 11.7096-3.8705 19.1763-9.9286 19.1763-16.3232.51-6.7313-6.6181-12.6211-17.4792-16.3233zm-27.3225-16.9963c7.467-6.3947 14.4249-9.0872 17.6493-7.23611 3.3941 2.01937 4.7518 9.76031 2.5456 20.02541-.1697.6731-.3395 1.3463-.5092 2.0194-4.2426-1.0097-8.8246-1.6828-13.5763-2.1877-2.7153-3.8704-5.6003-7.5726-8.655-10.6017 1.0183-.6731 1.8668-1.3462 2.5456-2.0193zm-26.1345 37.8631c.8485 1.6829 1.8667 3.5339 2.8849 5.2167 1.0183 1.6829 2.0365 3.5339 3.2244 5.2168-3.3941-.3366-6.4488-.8414-9.3338-1.5146.8486-3.029 1.8668-5.8898 3.2245-8.9189zm0-10.2651c-1.188-3.029-2.3759-5.8898-3.2245-8.7506 2.885-.6731 5.9397-1.1779 9.1641-1.5145-1.0182 1.6828-2.0364 3.3656-3.0547 5.0484-1.0182 1.8511-2.0364 3.5339-2.8849 5.2167zm2.2061 5.2167c1.3577-2.6925 2.7153-5.385 4.2426-8.0775 1.5274-2.6924 3.2244-5.2167 4.9215-7.7409 3.0547-.1683 6.1093-.3365 9.164-.3365 3.2244 0 6.2791.1682 9.3338.3365 1.697 2.5242 3.3941 5.0485 4.9214 7.7409 1.5274 2.6925 3.0547 5.385 4.4124 8.0775-1.3577 2.6925-2.7153 5.385-4.4124 8.0775-1.5273 2.6925-3.2244 5.385-4.9214 7.7409-3.0547.1683-6.1094.3366-9.3338.3366s-6.279-.1683-9.164-.3366c-1.6971-2.5242-3.3941-5.0484-4.9215-7.7409-1.3576-2.6925-2.8849-5.385-4.2426-8.0775zm36.4866 10.0969c1.0182-1.8511 2.0364-3.5339 2.8849-5.385 1.3577 3.029 2.5456 6.0581 3.3941 8.9189-2.885.6731-6.1093 1.1779-9.5034 1.5145 1.1879-1.5145 2.2061-3.1973 3.2244-5.0484zm2.8849-15.1453c-.8485-1.6828-1.8667-3.5339-2.8849-5.2167-1.0183-1.6828-2.0365-3.3656-3.0547-5.0484 3.2243.3365 6.279 1.0097 9.3337 1.6828-1.0182 2.6925-2.2061 5.5532-3.3941 8.5823zm-20.8737-22.5496c2.0365 2.1876 4.073 4.5436 5.9397 7.0678-2.0364-.1683-4.0729-.1683-5.9397-.1683-2.0364 0-4.0729 0-5.9396.1683 2.0364-2.5242 4.0729-4.8802 5.9396-7.0678zm-23.2495-12.28453c3.3941-2.01937 10.8611.84141 18.8372 7.74093.5091.5048 1.0182.8414 1.5273 1.3462-2.8849 3.1974-5.9396 6.7313-8.6549 10.6017-4.7517.5049-9.3338 1.178-13.5764 2.0194-.3394-1.0097-.5091-2.0194-.6788-3.0291-1.8667-9.592-.6788-16.82804 2.5456-18.67913zm-4.9215 52.67193c-.8485-.1683-1.697-.5049-2.5455-.8414-4.9215-1.6829-8.9944-3.8705-11.87939-6.2264-2.54557-2.1877-3.7335-4.207-3.7335-6.0581 0-3.7022 5.43055-8.4141 14.76429-11.4431 1.188-.3366 2.2062-.6732 3.5638-1.0097 1.188 4.0387 2.885 8.414 4.9215 12.7893-2.2062 4.3753-3.9032 8.7506-5.0912 12.7894zm23.4193 19.6888c-3.9032 3.3656-7.8064 5.8898-11.3702 7.0678-3.0547 1.0097-5.6003 1.178-7.1276.3366-3.2244-1.8511-4.5821-8.9189-2.7153-18.3426.1697-1.0097.5091-2.1877.6788-3.3657 4.0729.8415 8.8247 1.5146 13.7461 2.0194 2.885 3.8705 5.77 7.5727 8.6549 10.6017-.5091.5048-1.1879 1.0097-1.8667 1.6828zm4.9215-4.8801c-2.0365-2.1877-4.073-4.5436-6.1094-7.2361 1.8667 0 3.9032.1683 5.9396.1683 2.0365 0 4.073 0 6.1094-.1683-1.8667 2.5242-3.9032 5.0484-5.9396 7.2361zm26.3042 5.8898c-.6788 3.1973-1.8667 5.385-3.3941 6.2264-3.2244 1.8511-10.0126-.5048-17.4796-6.8995-.8485-.6731-1.6971-1.5146-2.5456-2.356 2.885-3.029 5.77-6.7312 8.4853-10.7699 4.9214-.5049 9.5034-1.178 13.7461-2.0194.1697.8414.3394 1.6828.5091 2.3559 1.1879 5.2167 1.3576 9.9286.6788 13.4625zm3.7335-21.3717c-.5091.1683-1.1879.3366-1.6971.5049-1.3576-4.0388-3.0546-8.2458-5.0911-12.7894 2.0365-4.3753 3.7335-8.5823 4.9215-12.621 1.0182.3365 2.0364.6731 3.0546 1.0097 9.3338 3.1973 15.1038 7.9092 15.1038 11.6113 0 3.8705-6.2791 8.9189-16.2917 12.2845z"/><path d="m59.9057 44.5497c0 4.8802-4.0729 8.9189-8.9943 8.9189-4.9215 0-8.9944-4.0387-8.9944-8.9189 0-4.8801 4.0729-8.9188 8.9944-8.9188 4.9214 0 8.9943 3.8704 8.9943 8.9188z"/></g></svg>