<svg fill="none" height="131" viewBox="0 0 716 131" width="716" xmlns="http://www.w3.org/2000/svg"><g fill="#fff"><path d="m30.132 24.18v34.41h60.264v24.18h-60.264v47.43h-30.132v-130.2h98.394v24.18z"/><path d="m201.749 130.2-25.11-36.27h-1.488-26.226v36.27h-30.132v-130.2h56.358c11.532 0 21.514 1.922 29.946 5.766 8.556 3.844 15.128 9.3 19.716 16.368s6.882 15.438 6.882 25.11-2.356 18.042-7.068 25.11c-4.588 6.944-11.16 12.276-19.716 15.996l29.202 41.85zm-.558-82.956c0-7.316-2.356-12.896-7.068-16.74-4.712-3.968-11.594-5.952-20.646-5.952h-24.552v45.384h24.552c9.052 0 15.934-1.984 20.646-5.952s7.068-9.548 7.068-16.74z"/><path d="m255.568 0h30.132v130.2h-30.132z"/><path d="m316.6 0h59.148c14.136 0 26.598 2.728 37.386 8.18401 10.912 5.33199 19.344 12.89599 25.296 22.69199 6.076 9.796 9.114 21.204 9.114 34.224s-3.038 24.428-9.114 34.224c-5.952 9.796-14.384 17.422-25.296 22.878-10.788 5.332-23.25 7.998-37.386 7.998h-59.148zm57.66 105.462c13.02 0 23.374-3.596 31.062-10.788 7.812-7.316 11.718-17.174 11.718-29.574s-3.906-22.196-11.718-29.388c-7.688-7.316-18.042-10.974-31.062-10.974h-27.528v80.724z"/><path d="m554.197 102.3h-60.45l-11.532 27.9h-30.876l58.032-130.2h29.76l58.218 130.2h-31.62zm-9.486-22.878-20.646-49.848-20.646 49.848z"/><path d="m665.361 84.072v46.128h-30.132v-46.5l-50.406-83.7h31.992l34.782 57.846 34.782-57.846h29.574z"/></g></svg>