<svg fill="none" height="19" viewBox="0 0 69 19" width="69" xmlns="http://www.w3.org/2000/svg"><g fill="#687dff"><path d="m17.3466 13.5078v-9.11076h3.9545c.9994 0 1.7705.24985 2.3132.74954.5428.49969.8142 1.19754.8142 2.09354s-.2714 1.59815-.8142 2.10646c-.5427.49969-1.3138.74952-2.3132.74952h-2.3003v3.4117zm1.6542-4.71691h2.0418c1.189 0 1.7834-.51692 1.7834-1.55077 0-1.02523-.5944-1.53785-1.7834-1.53785h-2.0418zm8.8075 4.84611c-1.5508 0-2.3262-.8701-2.3262-2.6104v-3.83817h1.6154v3.86397c0 .448.0905.7797.2714.9951s.4695.3231.8658.3231c.4308 0 .784-.1465 1.0597-.4394.2757-.3015.4136-.6978.4136-1.1889v-3.55387h1.6154v6.31937h-1.5767v-.9434c-.4221.7151-1.0683 1.0726-1.9384 1.0726zm5.1964-.1292v-6.31937h1.5766v1.11138c.3101-.74954.9735-1.16307 1.9901-1.24061l.4911-.03877.1034 1.36984-.9305.09046c-1.0597.10339-1.5895.64616-1.5895 1.62827v3.3988zm5.0607 0v-6.31937h1.5766v1.11138c.3101-.74954.9735-1.16307 1.9901-1.24061l.4911-.03877.1034 1.36984-.9305.09046c-1.0597.10339-1.5895.64616-1.5895 1.62827v3.3988zm7.1965 0-2.4942-6.31937h1.6542l1.6154 4.44557 1.6283-4.44557h1.1372l1.6283 4.47137 1.6154-4.47137h1.5637l-2.4812 6.31937h-1.4086l-1.5379-4.07076-1.512 4.07076zm12.2611.1292c-.7151 0-1.3311-.1335-1.848-.4006-.5169-.267-.9176-.6461-1.2019-1.1372-.2757-.4911-.4135-1.0726-.4135-1.7446 0-.65479.1335-1.22771.4006-1.71879.2757-.49107.6505-.87446 1.1243-1.15015.4825-.28431 1.0296-.42646 1.6412-.42646.896 0 1.6025.2843 2.1194.85292.5256.56862.7883 1.344.7883 2.32618v.4781h-4.523c.1206 1.1286.7667 1.693 1.9384 1.693.3533 0 .7065-.0517 1.0597-.1551.3532-.112.6763-.2843.9692-.5169l.4524 1.0855c-.3016.2498-.6807.448-1.1373.5945-.4566.1464-.9132.2196-1.3698.2196zm-.2326-5.47934c-.4739 0-.8573.14646-1.1502.43938-.2929.29293-.4695.68923-.5298 1.18893h3.179c-.0344-.52554-.1809-.92616-.4393-1.20185-.2499-.28431-.6031-.42646-1.0597-.42646zm7.7666 5.47934c-.4652 0-.883-.1033-1.2535-.3101-.3619-.2068-.6332-.4868-.8142-.84v1.0209h-1.5766v-9.11076h1.6154v3.72185c.1895-.31877.4609-.57292.8142-.76246.3618-.19816.7667-.29723 1.2147-.29723.56 0 1.0468.13354 1.4603.40061.4136.26708.7367.64616.9693 1.13723.2326.48246.3489 1.064.3489 1.74466 0 .672-.1163 1.2578-.3489 1.7575-.2326.4911-.56.8702-.9822 1.1372-.4135.2671-.896.4006-1.4474.4006zm-.4523-1.2276c.4825 0 .8702-.1724 1.1631-.517.2929-.3532.4394-.8701.4394-1.5507 0-.68927-.1465-1.20189-.4394-1.53789-.2929-.34461-.6806-.51692-1.1631-.51692-.4824 0-.8701.17231-1.1631.51692-.2929.336-.4393.84862-.4393 1.53789 0 .6806.1464 1.1975.4393 1.5507.293.3446.6807.517 1.1631.517z"/><path d="m5.75247 13.4309 4.78853-10.76928h-1.7642l-4.78852 10.76928z"/><path d="m1.74885 13.4309 4.74688-10.76928h-1.74885l-4.74688 10.76928z"/></g></svg>