<svg fill="none" height="44" viewBox="0 0 32 44" width="32" xmlns="http://www.w3.org/2000/svg"><g clip-rule="evenodd" fill="#fff" fill-rule="evenodd"><path d="m6.10034 4.67768c2.55987-2.55987 6.03176-3.997992 9.65196-3.997992s7.0922 1.438122 9.6521 3.997992c2.5598 2.55987 3.9979 6.03182 3.9979 9.65202 0 6.7358.4815 11.0032.9436 13.5449.2308 1.2696.4559 2.1032.6112 2.5952.0777.2458.1377.4056.172.4914.0164.0412.027.0652.0306.0735.288.5987.2514 1.3038-.0986 1.8702-.3553.5749-.9829.9248-1.6588.9248h-27.29996c-.67582 0-1.303461-.3499-1.658764-.9248-.3500122-.5664-.3865678-1.2714-.098642-1.8702.003685-.0083.014207-.0323.030671-.0735.034315-.0858.09432-.2456.171941-.4914.155368-.492.380419-1.3256.611254-2.5952.46212-2.5417.94354-6.8091.94354-13.5449 0-3.6202 1.43813-7.09215 3.998-9.65202zm20.68316 25.25202c-.0906-.4019-.183-.8531-.2747-1.3574-.5129-2.8209-1.0065-7.3285-1.0065-14.2426 0-2.5859-1.0272-5.06582-2.8557-6.8943-1.8284-1.82848-4.3084-2.85571-6.8943-2.85571-2.5858 0-5.0658 1.02723-6.89425 2.85571-1.82848 1.82848-2.85571 4.3084-2.85571 6.8943 0 6.9141-.49357 11.4217-1.00645 14.2426-.09171.5043-.18415.9555-.27469 1.3574z"/><path d="m11.3996 37.9931c.9316-.5404 2.1248-.2233 2.6652.7083.1714.2955.4175.5407.7135.7113.296.1705.6316.2602.9733.2602.3416 0 .6772-.0897.9732-.2602.296-.1706.5421-.4158.7135-.7113.5404-.9316 1.7336-1.2487 2.6652-.7083.9316.5403 1.2487 1.7336.7083 2.6652-.5142.8865-1.2524 1.6223-2.1404 2.1338-.8881.5116-1.895.7808-2.9198.7808-1.0249 0-2.0318-.2692-2.9199-.7808-.888-.5115-1.6261-1.2473-2.1404-2.1338-.5404-.9316-.2233-2.1249.7083-2.6652z"/></g></svg>