<svg fill="none" height="52" viewBox="0 0 185 52" width="185" xmlns="http://www.w3.org/2000/svg" xmlns:xlink="http://www.w3.org/1999/xlink"><linearGradient id="a" gradientUnits="userSpaceOnUse" x1="30.293" x2="8.802" y1="11.176" y2="34.066"><stop offset="0" stop-color="#00a0ff"/><stop offset=".007" stop-color="#00a1ff"/><stop offset=".26" stop-color="#00beff"/><stop offset=".512" stop-color="#00d2ff"/><stop offset=".76" stop-color="#00dfff"/><stop offset="1" stop-color="#00e3ff"/></linearGradient><linearGradient id="b" gradientUnits="userSpaceOnUse" x1="46.742" x2="13.673" y1="25.665" y2="25.665"><stop offset="0" stop-color="#ffe000"/><stop offset=".409" stop-color="#ffbd00"/><stop offset=".775" stop-color="#ffa500"/><stop offset="1" stop-color="#ff9c00"/></linearGradient><linearGradient id="c" gradientUnits="userSpaceOnUse" x1="34.431" x2="5.287" y1="28.609" y2="59.651"><stop offset="0" stop-color="#ff3a44"/><stop offset="1" stop-color="#c31162"/></linearGradient><linearGradient id="d" gradientUnits="userSpaceOnUse" x1="10.474" x2="23.488" y1=".226" y2="14.087"><stop offset="0" stop-color="#32a071"/><stop offset=".069" stop-color="#2da771"/><stop offset=".476" stop-color="#15cf74"/><stop offset=".801" stop-color="#06e775"/><stop offset="1" stop-color="#00f076"/></linearGradient><g fill="#111"><path d="m178.167 1.027c3.171 0 5.74 2.412 5.74 5.389v38.494c0 2.977-2.569 5.39-5.74 5.39h-170.833c-3.17 0-5.74-2.413-5.74-5.39v-38.494c0-2.977 2.569-5.39 5.74-5.39h170.833zm0-1.027h-170.833c-3.759 0-6.834 2.887-6.834 6.416v38.494c0 3.529 3.075 6.416 6.834 6.416h170.833c3.758 0 6.833-2.887 6.833-6.416v-38.494c0-3.529-3.075-6.416-6.833-6.416z"/><path d="m65.308 13.14c0 1.077-.342 1.937-1.025 2.566-.766.757-1.777 1.142-3.007 1.142-1.189 0-2.187-.385-3.02-1.155-.834-.77-1.244-1.732-1.244-2.861 0-1.142.41-2.092 1.244-2.862.833-.77 1.831-1.155 3.02-1.155a4.39 4.39 0 0 1 1.681.321c.533.218.957.5 1.285.86l-.725.68c-.546-.603-1.284-.911-2.241-.911-.861 0-1.613.282-2.241.86-.629.564-.943 1.309-.943 2.22 0 .91.314 1.655.943 2.22.628.564 1.38.86 2.241.86.916 0 1.681-.283 2.296-.86.396-.373.629-.899.683-1.566h-2.979v-.937h3.977c.027.206.055.398.055.578zm6.3-3.208h-3.731v2.438h3.362v.924h-3.362v2.438h3.73v.95h-4.783v-7.7h4.784zm4.442 6.749h-1.053v-6.75h-2.297v-.949h5.63v.95h-2.296v6.75h.014zm6.368 0v-7.699h1.052v7.7h-1.052zm5.727 0h-1.052v-6.75h-2.297v-.949h5.631v.95h-2.296v6.75h.014zm12.955-1.001c-.806.783-1.804 1.168-3.007 1.168-1.202 0-2.2-.385-3.006-1.168-.806-.782-1.203-1.732-1.203-2.848 0-1.117.397-2.079 1.203-2.849.806-.783 1.804-1.168 3.006-1.168 1.19 0 2.187.385 3.007 1.168.806.783 1.216 1.732 1.216 2.849-.013 1.129-.41 2.078-1.216 2.848zm-5.234-.641c.601.577 1.353.86 2.227.86.875 0 1.627-.283 2.228-.86.601-.578.916-1.31.916-2.207 0-.899-.301-1.63-.916-2.207-.601-.578-1.353-.873-2.228-.873-.874 0-1.626.282-2.227.86-.602.59-.916 1.322-.916 2.22s.314 1.63.916 2.207zm7.927 1.642v-7.699h1.285l3.99 5.993h.041l-.041-1.489v-4.504h1.053v7.7h-1.094l-4.168-6.275h-.041l.041 1.488v4.786z" stroke="#111" stroke-miterlimit="10" stroke-width=".257"/><path d="m93.625 27.909c-3.212 0-5.836 2.297-5.836 5.453 0 3.144 2.624 5.453 5.836 5.453s5.836-2.31 5.836-5.453c0-3.156-2.624-5.453-5.836-5.453zm0 8.764c-1.763 0-3.28-1.36-3.28-3.31 0-1.964 1.517-3.311 3.28-3.311s3.28 1.347 3.28 3.31c0 1.95-1.53 3.31-3.28 3.31zm-12.737-8.764c-3.212 0-5.836 2.297-5.836 5.453 0 3.144 2.624 5.453 5.836 5.453 3.211 0 5.835-2.31 5.835-5.453 0-3.156-2.624-5.453-5.835-5.453zm0 8.764c-1.763 0-3.28-1.36-3.28-3.31 0-1.964 1.517-3.311 3.28-3.311s3.28 1.347 3.28 3.31c0 1.95-1.517 3.31-3.28 3.31zm-15.143-7.083v2.31h5.904c-.178 1.295-.642 2.258-1.34 2.912-.86.808-2.2 1.694-4.55 1.694-3.636 0-6.478-2.746-6.478-6.16 0-3.413 2.842-6.158 6.478-6.158 1.954 0 3.39.718 4.441 1.655l1.736-1.63c-1.476-1.321-3.43-2.335-6.19-2.335-4.976 0-9.158 3.798-9.158 8.482 0 4.67 4.182 8.481 9.157 8.481 2.692 0 4.715-.821 6.3-2.374 1.627-1.527 2.132-3.682 2.132-5.415 0-.538-.04-1.039-.136-1.45h-8.296zm61.924 1.796c-.479-1.219-1.955-3.477-4.975-3.477-2.993 0-5.48 2.207-5.48 5.453 0 3.054 2.46 5.453 5.767 5.453 2.665 0 4.209-1.526 4.838-2.412l-1.982-1.245c-.656.911-1.558 1.515-2.856 1.515s-2.228-.565-2.815-1.656l7.776-3.015zm-7.927 1.822c-.068-2.104 1.736-3.182 3.034-3.182 1.011 0 1.872.475 2.159 1.155zm-6.314 5.287h2.556v-16.04h-2.556zm-4.182-9.367h-.096c-.574-.642-1.667-1.22-3.061-1.22-2.911 0-5.576 2.4-5.576 5.48 0 3.054 2.665 5.44 5.576 5.44 1.38 0 2.487-.577 3.061-1.244h.082v.782c0 2.092-1.189 3.208-3.102 3.208-1.558 0-2.528-1.052-2.925-1.937l-2.227.872c.642 1.45 2.337 3.22 5.152 3.22 2.993 0 5.521-1.654 5.521-5.683v-9.804h-2.419v.886zm-2.938 7.545c-1.763 0-3.239-1.386-3.239-3.285 0-1.925 1.476-3.324 3.239-3.324 1.735 0 3.102 1.412 3.102 3.324.014 1.899-1.353 3.285-3.102 3.285zm33.332-14.218h-6.108v16.04h2.555v-6.082h3.567c2.829 0 5.603-1.925 5.603-4.979s-2.801-4.979-5.617-4.979zm.055 7.725h-3.621v-5.505h3.621c1.913 0 2.993 1.489 2.993 2.746 0 1.258-1.08 2.759-2.993 2.759zm15.771-2.297c-1.845 0-3.758.77-4.551 2.45l2.269.886c.478-.885 1.38-1.18 2.323-1.18 1.326 0 2.665.744 2.679 2.066v.166c-.465-.243-1.449-.616-2.665-.616-2.446 0-4.92 1.258-4.92 3.606 0 2.143 1.995 3.529 4.237 3.529 1.708 0 2.665-.719 3.252-1.566h.082v1.245h2.46v-6.146c.014-2.849-2.255-4.44-5.166-4.44zm-.314 8.79c-.834 0-1.995-.398-1.995-1.36 0-1.232 1.448-1.707 2.706-1.707 1.12 0 1.653.23 2.323.539-.191 1.475-1.558 2.528-3.034 2.528zm14.459-8.444-2.924 6.955h-.082l-3.034-6.954h-2.747l4.551 9.726-2.597 5.402h2.665l7.011-15.128h-2.843zm-22.96 10.266h2.556v-16.04h-2.556z"/></g><path d="m14.768 9.675c-.396.398-.628 1.013-.628 1.796v28.383c0 .796.232 1.412.628 1.797l.096.09 16.933-15.886v-.385l-16.933-15.885z" fill="url(#a)"/><path d="m37.443 31.155-5.644-5.3v-.385l5.644-5.3.123.065 6.683 3.567c1.914 1.014 1.914 2.682 0 3.709l-6.683 3.567z" fill="url(#b)"/><path d="m37.565 31.09-5.767-5.427-17.028 15.988c.628.629 1.667.706 2.842.077l19.953-10.637z" fill="url(#c)"/><path d="m37.565 20.248-19.967-10.65c-1.175-.629-2.214-.552-2.843.077l17.043 15.988z" fill="url(#d)"/><path d="m37.441 30.963-19.844 10.586c-1.107.59-2.104.552-2.733.013l-.096.09.096.09c.642.538 1.626.577 2.733-.014l19.967-10.65z" fill="#000" opacity=".2"/><path d="m14.767 41.471c-.396-.398-.628-1.013-.628-1.796v.192c0 .796.232 1.412.628 1.797l.096-.09zm29.482-14.14-6.82 3.631.123.116 6.683-3.567c.957-.514 1.435-1.18 1.435-1.848-.068.603-.547 1.206-1.421 1.668z" fill="#000" opacity=".12"/><path d="m17.598 9.778 26.65 14.217c.861.462 1.353 1.052 1.435 1.668 0-.667-.478-1.347-1.435-1.847l-26.65-14.218c-1.913-1.013-3.471-.166-3.471 1.887v.192c0-2.066 1.571-2.913 3.471-1.899z" fill="#111" opacity=".25"/></svg>