<svg fill="none" height="20" viewBox="0 0 116 20" width="116" xmlns="http://www.w3.org/2000/svg"><path d="m11.3828 8.66578h3.0069v5.76982c-.7721.5824-1.666 1.0294-2.6818 1.3409s-2.03841.4673-3.06777.4673c-1.47633 0-2.80366-.3115-3.98201-.9346-1.17835-.6365-2.10614-1.5101-2.78335-2.6208-.66367-1.1241-.995502-2.3905-.995502-3.79913 0-1.40861.331832-2.66822.995502-3.77885.67721-1.12418 1.61177-1.99778 2.80366-2.62082 1.1919-.63658 2.53278-.95487 4.02265-.95487 1.24607 0 2.37702.20994 3.39282.62981s1.8691 1.02937 2.5599 1.82848l-2.1129 1.95037c-1.0158-1.07-2.2416-1.60499-3.67729-1.60499-.90747 0-1.71335.18962-2.41765.56885-.7043.37924-1.25285.91424-1.64563 1.605s-.58917 1.48309-.58917 2.37702c0 .88037.19639 1.66593.58917 2.35673.39278.6907.93455 1.2325 1.62531 1.6253.7043.3792 1.50341.5688 2.39733.5688.9481 0 1.80143-.2031 2.55983-.6095zm8.7597-2.15353c.3792-.52823.8871-.92778 1.5237-1.19867.6501-.27088 1.3951-.40633 2.2348-.40633v2.92556c-.3521-.02708-.5892-.04063-.7111-.04063-.9074 0-1.6185.25734-2.1332.77202-.5147.50114-.772 1.25962-.772 2.2754v5.1604h-3.1694v-10.93022h3.0272zm16.1424 4.06325c0 .0407-.0203.3251-.0609.8533h-8.2688c.149.6772.5011 1.2122 1.0565 1.605.5553.3928 1.246.5892 2.0722.5892.5689 0 1.07-.0813 1.5034-.2438.447-.1761.8601-.447 1.2393-.8127l1.6863 1.8285c-1.0294 1.1784-2.5328 1.7675-4.5102 1.7675-1.2326 0-2.3229-.237-3.271-.711-.9481-.4876-1.6795-1.1581-2.1941-2.0114-.5147-.8533-.7721-1.8217-.7721-2.9052 0-1.07.2506-2.03165.7517-2.88493.5147-.86684 1.2122-1.53728 2.0926-2.01133.8939-.48759 1.8894-.73139 2.9865-.73139 1.07 0 2.0384.23026 2.9053.69076.8668.46051 1.544 1.12417 2.0316 1.99101.5011.85329.7517 1.84879.7517 2.98648zm-5.6683-3.27091c-.7178 0-1.3205.20316-1.8081.60949s-.7856.96164-.8939 1.66594h5.3838c-.1083-.69075-.4063-1.2393-.8939-1.64562-.4876-.41988-1.0836-.62981-1.7879-.62981zm12.9525 8.85791c-1.1648 0-2.2145-.237-3.149-.711-.9211-.4876-1.6457-1.1581-2.1739-2.0114-.5147-.8533-.772-1.8217-.772-2.9052 0-1.08355.2573-2.05196.772-2.90525.5282-.85329 1.2528-1.51696 2.1739-1.99101.9345-.48759 1.9842-.73139 3.149-.73139 1.1513 0 2.1535.2438 3.0068.73139.8668.47405 1.4967 1.15804 1.8894 2.05196l-2.4582 1.32056c-.5689-1.00227-1.3883-1.50341-2.4583-1.50341-.8262 0-1.5102.27089-2.052.81266s-.8126 1.27993-.8126 2.21449c0 .9345.2708 1.6727.8126 2.2145.5418.5417 1.2258.8126 2.052.8126 1.0835 0 1.9029-.5011 2.4583-1.5034l2.4582 1.3409c-.3927.8668-1.0226 1.544-1.8894 2.0316-.8533.4876-1.8555.7314-3.0068.7314zm13.177-11.25525c1.3544 0 2.4448.40633 3.271 1.21899.8397.81265 1.2596 2.01809 1.2596 3.61631v6.25745h-3.1694v-5.7699c0-.86679-.1896-1.51014-.5688-1.93001-.3793-.43342-.9278-.65012-1.6457-.65012-.7991 0-1.4357.25056-1.9097.7517-.4741.4876-.7111 1.21899-.7111 2.19413v5.4042h-3.1693v-15.074757h3.1693v5.282257c.4199-.41987.9278-.73816 1.5237-.95487.596-.23025 1.2461-.34538 1.9504-.34538zm11.704 0c1.693 0 2.9932.40633 3.9007 1.21899.9075.79911 1.3612 2.01132 1.3612 3.63663v6.23713h-2.9662v-1.3612c-.5959 1.0158-1.7066 1.5237-3.3319 1.5237-.8397 0-1.5711-.1422-2.1941-.4266-.6095-.2844-1.0768-.6772-1.4019-1.1784-.325-.5011-.4876-1.07-.4876-1.7065 0-1.0159.3793-1.815 1.1377-2.3974.7721-.58238 1.9572-.87358 3.5554-.87358h2.5192c0-.69075-.2099-1.21898-.6298-1.58468-.4198-.37923-1.0496-.56885-1.8894-.56885-.5824 0-1.158.09481-1.7269.28443-.5553.17607-1.0293.41987-1.4221.73139l-1.1377-2.21449c.5959-.41987 1.307-.74494 2.1332-.97519.8397-.23025 1.6998-.34538 2.5802-.34538zm-.2438 9.12205c.5417 0 1.0226-.1219 1.4424-.3657.4199-.2573.7179-.6298.8939-1.1174v-1.1174h-2.1738c-1.3003 0-1.9504.4267-1.9504 1.2799 0 .4064.1558.7314.4673.9752.3251.2303.7652.3454 1.3206.3454zm9.4647 2.1332c-.5554 0-1.0226-.1896-1.4019-.5688-.3792-.3793-.5688-.8533-.5688-1.4222 0-.5824.1896-1.0497.5688-1.4018.3793-.3657.8465-.5485 1.4019-.5485.5553 0 1.0225.1828 1.4018.5485.3792.3521.5688.8194.5688 1.4018 0 .5689-.1896 1.0429-.5688 1.4222-.3793.3792-.8465.5688-1.4018.5688zm10.4709-11.25525c1.0159 0 1.9369.23703 2.7631.71108.8397.4605 1.4966 1.1174 1.9707 1.97069.474.83974.711 1.8217.711 2.94588 0 1.1242-.237 2.1129-.711 2.9662-.4741.8397-1.131 1.4966-1.9707 1.9707-.8262.4605-1.7472.6907-2.7631.6907-1.395 0-2.4921-.4402-3.2912-1.3205v5.0994h-3.1694v-14.87162h3.0272v1.25962c.7855-.9481 1.93-1.42215 3.4334-1.42215zm-.5485 8.65475c.8127 0 1.4763-.2709 1.991-.8126.5282-.5553.7923-1.2935.7923-2.2145 0-.92102-.2641-1.65241-.7923-2.19418-.5147-.55531-1.1783-.83297-1.991-.83297s-1.4831.27766-2.0113.83297c-.5147.54177-.772 1.27316-.772 2.19418 0 .921.2573 1.6592.772 2.2145.5282.5417 1.1986.8126 2.0113.8126zm11.034-7.04975c.3792-.52823.8871-.92778 1.5236-1.19867.65-.27088 1.395-.40633 2.235-.40633v2.92556c-.352-.02708-.589-.04063-.711-.04063-.908 0-1.619.25734-2.1334.77202-.5147.50114-.772 1.25962-.772 2.2754v5.1604h-3.1694v-10.93022h3.0272zm10.6366 9.65025c-1.151 0-2.187-.237-3.108-.711-.908-.4876-1.619-1.1581-2.134-2.0114-.514-.8533-.772-1.8217-.772-2.9052 0-1.08355.258-2.05196.772-2.90525.515-.85329 1.226-1.51696 2.134-1.99101.921-.48759 1.957-.73139 3.108-.73139s2.181.2438 3.088.73139c.908.47405 1.619 1.13772 2.133 1.99101.515.85329.772 1.8217.772 2.90525 0 1.0835-.257 2.0519-.772 2.9052-.514.8533-1.225 1.5238-2.133 2.0114-.907.474-1.937.711-3.088.711zm0-2.6005c.813 0 1.476-.2709 1.991-.8126.528-.5553.792-1.2935.792-2.2145 0-.92102-.264-1.65241-.792-2.19418-.515-.55531-1.178-.83297-1.991-.83297s-1.483.27766-2.011.83297c-.528.54177-.793 1.27316-.793 2.19418 0 .921.265 1.6592.793 2.2145.528.5417 1.198.8126 2.011.8126z" fill="#fff"/></svg>