<svg fill="none" height="561" width="997" xmlns="http://www.w3.org/2000/svg"><path d="m43.021 332.196-7.995-21.851a47.745 47.745 0 0 1 -1.227-3.453 112.415 112.415 0 0 1 -1.272-4.315 87.459 87.459 0 0 1 -1.226 4.361 56.134 56.134 0 0 1 -1.227 3.498l-7.95 21.76zm21.579 24.804h-9.45c-1.06 0-1.922-.257-2.589-.772a5.131 5.131 0 0 1 -1.499-1.999l-4.906-13.402h-27.212l-4.906 13.402c-.242.696-.712 1.332-1.408 1.908-.697.575-1.56.863-2.59.863h-9.54l25.85-65.69h12.447zm29.65-19.898c-3.24.152-5.966.439-8.177.863-2.211.394-3.983.909-5.315 1.545-1.333.636-2.287 1.378-2.862 2.226a4.835 4.835 0 0 0 -.864 2.771c0 1.969.576 3.377 1.727 4.225 1.181.848 2.71 1.272 4.588 1.272 2.302 0 4.285-.409 5.951-1.227 1.696-.848 3.347-2.12 4.952-3.816zm-25.713-20.215c5.361-4.907 11.812-7.36 19.353-7.36 2.726 0 5.164.454 7.314 1.363 2.15.878 3.967 2.12 5.451 3.725 1.484 1.575 2.605 3.468 3.362 5.679.788 2.211 1.181 4.633 1.181 7.268v29.438h-5.088c-1.06 0-1.877-.151-2.453-.454-.575-.333-1.03-.985-1.363-1.954l-1-3.361a44.298 44.298 0 0 1 -3.452 2.816 21.171 21.171 0 0 1 -3.498 1.999 17.858 17.858 0 0 1 -3.907 1.227c-1.362.302-2.877.454-4.543.454-1.968 0-3.785-.258-5.45-.772-1.667-.546-3.105-1.348-4.317-2.408-1.211-1.06-2.15-2.378-2.816-3.952-.667-1.575-1-3.408-1-5.497 0-1.181.197-2.347.591-3.498.394-1.181 1.03-2.302 1.908-3.362.909-1.06 2.075-2.059 3.498-2.998s3.165-1.757 5.224-2.453c2.09-.697 4.513-1.257 7.269-1.681 2.756-.455 5.906-.727 9.449-.818v-2.726c0-3.119-.666-5.421-1.999-6.905-1.333-1.514-3.256-2.271-5.77-2.271-1.816 0-3.33.212-4.542.636-1.181.424-2.226.908-3.135 1.453-.908.515-1.741.985-2.498 1.409-.727.424-1.545.636-2.453.636-.788 0-1.454-.197-2-.591a5.412 5.412 0 0 1 -1.317-1.454zm72.602 30.573c2.271 0 4.179-.273 5.724-.818 1.544-.545 2.771-1.272 3.679-2.18a7.675 7.675 0 0 0 1.999-3.18 11.61 11.61 0 0 0 .636-3.862c0-1.423-.227-2.695-.681-3.816a7.004 7.004 0 0 0 -2.135-2.907c-.97-.818-2.226-1.439-3.771-1.863-1.514-.424-3.347-.636-5.497-.636h-12.311v19.262zm-12.357-46.701v18.99h9.722c4.179 0 7.329-.758 9.449-2.272 2.15-1.514 3.225-3.922 3.225-7.223 0-3.422-.969-5.86-2.907-7.314s-4.967-2.181-9.086-2.181zm10.403-9.449c4.301 0 7.98.409 11.039 1.227s5.558 1.984 7.496 3.498c1.969 1.514 3.407 3.346 4.316 5.497.908 2.15 1.363 4.573 1.363 7.268 0 1.545-.228 3.029-.682 4.452-.454 1.393-1.166 2.711-2.135 3.953-.939 1.211-2.15 2.316-3.634 3.316-1.454.999-3.195 1.847-5.225 2.544 9.026 2.029 13.538 6.905 13.538 14.628 0 2.786-.53 5.36-1.59 7.723-1.06 2.362-2.604 4.406-4.634 6.133-2.029 1.696-4.527 3.028-7.495 3.997s-6.36 1.454-10.176 1.454h-24.804v-65.69zm45.83 53.606c1.272 1.545 2.65 2.635 4.134 3.271 1.514.636 3.104.954 4.77.954 1.726 0 3.271-.303 4.634-.909 1.393-.636 2.574-1.605 3.543-2.907.969-1.333 1.711-3.014 2.226-5.043.515-2.059.772-4.512.772-7.359 0-5.118-.848-8.813-2.544-11.085-1.696-2.301-4.134-3.452-7.314-3.452-2.15 0-4.028.499-5.633 1.499-1.605.969-3.134 2.347-4.588 4.134zm0-28.802c1.878-1.968 3.952-3.528 6.224-4.679 2.301-1.181 4.921-1.772 7.859-1.772 2.695 0 5.118.53 7.268 1.59 2.181 1.06 4.028 2.59 5.543 4.589 1.544 1.968 2.725 4.361 3.543 7.177.818 2.817 1.227 5.982 1.227 9.495 0 3.786-.47 7.223-1.409 10.312s-2.286 5.739-4.043 7.95a18.166 18.166 0 0 1 -6.269 5.088c-2.453 1.212-5.179 1.817-8.177 1.817-1.454 0-2.771-.151-3.952-.454a13.917 13.917 0 0 1 -3.271-1.181c-1-.515-1.923-1.136-2.771-1.863a26.637 26.637 0 0 1 -2.363-2.498l-.499 3.134c-.182.788-.5 1.348-.954 1.681-.424.333-1.015.5-1.772.5h-7.405v-67.507h11.221zm87.035 25.395c.666 0 1.256.257 1.771.772l4.816 5.224c-2.665 3.302-5.951 5.83-9.858 7.587-3.877 1.757-8.541 2.635-13.992 2.635-4.876 0-9.268-.833-13.175-2.499-3.876-1.665-7.192-3.982-9.948-6.95s-4.876-6.512-6.36-10.631c-1.454-4.118-2.181-8.616-2.181-13.492 0-4.936.787-9.449 2.362-13.538 1.575-4.118 3.786-7.662 6.633-10.63 2.877-2.968 6.299-5.27 10.267-6.905 3.967-1.666 8.359-2.499 13.174-2.499 4.785 0 9.025.788 12.72 2.363 3.725 1.575 6.89 3.634 9.495 6.178l-4.089 5.679c-.242.363-.56.681-.954.954-.363.272-.878.408-1.545.408-.454 0-.923-.121-1.408-.363a38.313 38.313 0 0 1 -1.59-.954 39.615 39.615 0 0 0 -1.999-1.272 15.293 15.293 0 0 0 -2.635-1.227c-.999-.393-2.165-.711-3.498-.954-1.302-.272-2.816-.408-4.542-.408-2.938 0-5.634.53-8.087 1.59a17.215 17.215 0 0 0 -6.269 4.542c-1.756 1.969-3.119 4.392-4.088 7.269-.97 2.847-1.454 6.103-1.454 9.767 0 3.695.515 6.981 1.544 9.858 1.06 2.877 2.484 5.3 4.271 7.269a18.402 18.402 0 0 0 6.314 4.543c2.423 1.029 5.028 1.544 7.814 1.544 1.666 0 3.165-.091 4.497-.272 1.363-.182 2.605-.47 3.726-.864a16.463 16.463 0 0 0 3.225-1.499 20.751 20.751 0 0 0 3.044-2.317 3.78 3.78 0 0 1 .954-.636 2.158 2.158 0 0 1 1.045-.272zm45.6-21.261a5.206 5.206 0 0 1 -.999 1c-.303.242-.758.363-1.363.363-.576 0-1.136-.166-1.681-.5a29.837 29.837 0 0 0 -1.954-1.181c-.757-.454-1.665-.848-2.725-1.181-1.03-.363-2.317-.545-3.862-.545-1.968 0-3.695.363-5.179 1.09a9.807 9.807 0 0 0 -3.725 3.044c-.969 1.333-1.696 2.953-2.18 4.861-.485 1.878-.727 4.013-.727 6.405 0 2.484.257 4.695.772 6.633.545 1.938 1.318 3.574 2.317 4.906.999 1.302 2.211 2.302 3.634 2.998 1.424.667 3.029 1 4.816 1s3.225-.212 4.315-.636c1.121-.454 2.06-.939 2.817-1.454a66.52 66.52 0 0 0 1.953-1.454c.576-.454 1.212-.681 1.908-.681.909 0 1.59.348 2.045 1.045l3.225 4.088c-1.242 1.454-2.589 2.681-4.043 3.68a23.142 23.142 0 0 1 -4.543 2.362c-1.544.576-3.15.985-4.815 1.227a33.484 33.484 0 0 1 -4.907.363c-2.877 0-5.587-.53-8.131-1.59a19.472 19.472 0 0 1 -6.678-4.724c-1.908-2.06-3.423-4.573-4.543-7.541-1.09-2.999-1.636-6.406-1.636-10.222 0-3.422.485-6.587 1.454-9.494 1-2.938 2.453-5.467 4.361-7.587 1.908-2.15 4.271-3.831 7.087-5.042 2.817-1.212 6.057-1.818 9.722-1.818 3.483 0 6.526.561 9.131 1.681 2.635 1.121 4.997 2.726 7.087 4.816zm-292.746-102.16v3.912h-19.512v-34.392h4.632v30.48zm17.312-7.032c-1.968.064-3.648.224-5.04.48-1.376.24-2.504.56-3.384.96-.864.4-1.496.872-1.896 1.416a3.09 3.09 0 0 0 -.576 1.824c0 .64.104 1.192.312 1.656s.488.848.84 1.152c.368.288.792.504 1.272.648a6.319 6.319 0 0 0 1.584.192c.752 0 1.44-.072 2.064-.216a7.949 7.949 0 0 0 1.752-.672 9.275 9.275 0 0 0 1.584-1.032c.512-.4 1.008-.856 1.488-1.368zm-13.8-9.936c1.344-1.296 2.792-2.264 4.344-2.904s3.272-.96 5.16-.96c1.36 0 2.568.224 3.624.672s1.944 1.072 2.664 1.872 1.264 1.768 1.632 2.904.552 2.384.552 3.744v15.552h-1.896c-.416 0-.736-.064-.96-.192-.224-.144-.4-.416-.528-.816l-.48-2.304c-.64.592-1.264 1.12-1.872 1.584-.608.448-1.248.832-1.92 1.152-.672.304-1.392.536-2.16.696-.752.176-1.592.264-2.52.264a9.012 9.012 0 0 1 -2.664-.384 6.437 6.437 0 0 1 -2.184-1.2c-.608-.528-1.096-1.192-1.464-1.992-.352-.816-.528-1.776-.528-2.88 0-.96.264-1.88.792-2.76.528-.896 1.384-1.688 2.568-2.376s2.728-1.248 4.632-1.68c1.904-.448 4.24-.704 7.008-.768v-1.896c0-1.888-.408-3.312-1.224-4.272-.816-.976-2.008-1.464-3.576-1.464-1.056 0-1.944.136-2.664.408a9.455 9.455 0 0 0 -1.848.888c-.512.32-.96.616-1.344.888-.368.256-.736.384-1.104.384-.288 0-.536-.072-.744-.216a2.27 2.27 0 0 1 -.528-.576zm31.62 21.264c-1.92 0-3.4-.536-4.44-1.608-1.024-1.072-1.536-2.616-1.536-4.632v-14.88h-2.928a.99.99 0 0 1 -.648-.216c-.177-.16-.265-.4-.265-.72v-1.704l3.984-.504.984-7.512c.049-.24.153-.432.313-.576a.96.96 0 0 1 .672-.24h2.16v8.376h7.032v3.096h-7.034v14.592c0 1.024.248 1.784.744 2.28s1.136.744 1.92.744c.449 0 .833-.056 1.153-.168.335-.128.623-.264.863-.408s.44-.272.6-.384c.177-.128.329-.192.456-.192.225 0 .425.136.6.408l1.248 2.04c-.736.688-1.624 1.232-2.664 1.632a9.214 9.214 0 0 1 -3.215.576zm19.846-25.08c1.776 0 3.376.296 4.8.888a10.286 10.286 0 0 1 3.648 2.52c1.008 1.088 1.776 2.408 2.304 3.96.544 1.536.816 3.256.816 5.16 0 1.92-.272 3.648-.816 5.184-.528 1.536-1.296 2.848-2.304 3.936a10.286 10.286 0 0 1 -3.648 2.52c-1.424.576-3.024.864-4.8.864-1.792 0-3.408-.288-4.848-.864a10.286 10.286 0 0 1 -3.648-2.52c-1.008-1.088-1.784-2.4-2.328-3.936-.528-1.536-.792-3.264-.792-5.184 0-1.904.264-3.624.792-5.16.544-1.552 1.32-2.872 2.328-3.96a10.286 10.286 0 0 1 3.648-2.52c1.44-.592 3.056-.888 4.848-.888zm0 21.696c2.4 0 4.192-.8 5.376-2.4 1.184-1.616 1.776-3.864 1.776-6.744 0-2.896-.592-5.152-1.776-6.768s-2.976-2.424-5.376-2.424c-1.216 0-2.28.208-3.192.624a6.03 6.03 0 0 0 -2.256 1.8c-.592.784-1.04 1.752-1.344 2.904-.288 1.136-.432 2.424-.432 3.864 0 2.88.592 5.128 1.776 6.744 1.2 1.6 3.016 2.4 5.448 2.4zm639.242 119.208c.18-1.224.516-2.298 1.008-3.222.504-.924 1.134-1.692 1.89-2.304a7.749 7.749 0 0 1 2.592-1.404c.984-.324 2.046-.486 3.186-.486 1.152 0 2.196.168 3.132.504.948.324 1.758.78 2.43 1.368a5.871 5.871 0 0 1 1.566 2.106c.372.816.558 1.71.558 2.682 0 .828-.102 1.56-.306 2.196a5.145 5.145 0 0 1 -.846 1.656c-.36.48-.804.882-1.332 1.206a8.373 8.373 0 0 1 -1.782.81c1.608.468 2.814 1.218 3.618 2.25.804 1.02 1.206 2.304 1.206 3.852 0 1.248-.234 2.358-.702 3.33a7.296 7.296 0 0 1 -1.908 2.466c-.792.672-1.722 1.188-2.79 1.548a10.687 10.687 0 0 1 -3.366.522c-1.332 0-2.484-.156-3.456-.468-.972-.324-1.812-.78-2.52-1.368a7.896 7.896 0 0 1 -1.746-2.16 14.814 14.814 0 0 1 -1.188-2.826l1.674-.702c.444-.192.864-.246 1.26-.162.408.084.702.306.882.666.192.384.408.798.648 1.242.24.432.546.834.918 1.206.384.36.852.666 1.404.918.564.24 1.254.36 2.07.36.828 0 1.548-.132 2.16-.396.624-.276 1.14-.624 1.548-1.044.42-.432.732-.912.936-1.44s.306-1.05.306-1.566c0-.648-.078-1.242-.234-1.782a2.798 2.798 0 0 0 -.918-1.404c-.444-.384-1.08-.684-1.908-.9-.816-.228-1.89-.342-3.222-.342v-2.79c1.092-.012 2.01-.12 2.754-.324.756-.216 1.356-.504 1.8-.864.456-.372.78-.816.972-1.332.204-.516.306-1.08.306-1.692 0-.66-.102-1.242-.306-1.746a3.373 3.373 0 0 0 -.864-1.26 3.368 3.368 0 0 0 -1.296-.774 5.27 5.27 0 0 0 -1.674-.252 5.15 5.15 0 0 0 -1.638.252 4.708 4.708 0 0 0 -1.332.702c-.384.3-.708.66-.972 1.08a4.372 4.372 0 0 0 -.576 1.35c-.168.492-.396.822-.684.99-.276.168-.684.204-1.224.108zm29.883 15.876c.78 0 1.494-.126 2.142-.378a4.951 4.951 0 0 0 1.656-1.08 4.681 4.681 0 0 0 1.08-1.62 5.381 5.381 0 0 0 .378-2.034c0-.792-.126-1.5-.378-2.124a4.222 4.222 0 0 0 -1.044-1.602 4.431 4.431 0 0 0 -1.62-.99 5.723 5.723 0 0 0 -2.07-.36c-.78 0-1.488.132-2.124.396a4.836 4.836 0 0 0 -1.602 1.08c-.444.456-.786.99-1.026 1.602s-.36 1.26-.36 1.944c0 .768.108 1.47.324 2.106s.534 1.182.954 1.638c.42.444.936.792 1.548 1.044.624.252 1.338.378 2.142.378zm-1.422-13.464c-.192.24-.378.468-.558.684l-.504.648a7.904 7.904 0 0 1 3.942-1.008c1.008 0 1.974.168 2.898.504a6.72 6.72 0 0 1 2.43 1.476c.708.648 1.272 1.458 1.692 2.43.42.96.63 2.07.63 3.33a8.51 8.51 0 0 1 -.666 3.366 8.197 8.197 0 0 1 -1.836 2.736c-.792.768-1.746 1.38-2.862 1.836-1.104.444-2.328.666-3.672.666s-2.556-.216-3.636-.648a8.012 8.012 0 0 1 -2.772-1.818c-.756-.792-1.338-1.74-1.746-2.844s-.612-2.334-.612-3.69c0-1.176.252-2.406.756-3.69s1.284-2.634 2.34-4.05l6.372-8.55c.192-.252.468-.468.828-.648.372-.18.786-.27 1.242-.27h3.42zm18.849 11.772c.54.696 1.128 1.188 1.764 1.476a5.411 5.411 0 0 0 2.142.414c1.512 0 2.688-.552 3.528-1.656.852-1.104 1.278-2.748 1.278-4.932 0-1.128-.096-2.088-.288-2.88-.192-.804-.468-1.458-.828-1.962s-.798-.87-1.314-1.098-1.098-.342-1.746-.342c-.984 0-1.836.216-2.556.648-.708.42-1.368 1.026-1.98 1.818zm-.198-11.088a9.753 9.753 0 0 1 2.61-2.178c.984-.552 2.124-.828 3.42-.828 1.032 0 1.968.21 2.808.63a5.956 5.956 0 0 1 2.16 1.8c.6.792 1.062 1.776 1.386 2.952.336 1.164.504 2.502.504 4.014 0 1.356-.186 2.622-.558 3.798-.36 1.164-.882 2.178-1.566 3.042a7.486 7.486 0 0 1 -2.484 2.016c-.972.48-2.07.72-3.294.72-1.08 0-1.998-.174-2.754-.522a7.15 7.15 0 0 1 -2.034-1.44v7.794h-3.87v-24.462h2.34c.528 0 .864.246 1.008.738zm32.433 15.696h-3.708c-.3 0-.54-.078-.72-.234a2.145 2.145 0 0 1 -.414-.522l-4.23-6.786a4.091 4.091 0 0 1 -.432 1.062l-3.834 5.724a3.128 3.128 0 0 1 -.45.522c-.156.156-.366.234-.63.234h-3.456l6.354-9.468-6.102-8.892h3.708c.3 0 .516.048.648.144.144.084.27.216.378.396l4.158 6.48c.108-.396.276-.774.504-1.134l3.51-5.274c.24-.408.546-.612.918-.612h3.546l-6.102 8.73zm-272.365-12.768v-12.624c0-1.008.072-2.112.216-3.312l-11.616 15.936zm9.264 0v2.976c0 .288-.096.536-.288.744-.176.208-.448.312-.816.312h-3.672v8.736h-4.488v-8.736h-14.952c-.368 0-.688-.104-.96-.312a1.57 1.57 0 0 1 -.504-.816l-.528-2.64 16.584-22.08h4.848v21.816zm16.156 9.072c1.04 0 1.968-.144 2.784-.432.816-.304 1.496-.72 2.04-1.248a5.375 5.375 0 0 0 1.272-1.92 6.53 6.53 0 0 0 .432-2.4c0-1.056-.168-1.968-.504-2.736a4.868 4.868 0 0 0 -1.368-1.896 5.39 5.39 0 0 0 -2.064-1.128 8.46 8.46 0 0 0 -2.592-.384 8.46 8.46 0 0 0 -2.592.384c-.8.24-1.496.616-2.088 1.128-.576.496-1.032 1.128-1.368 1.896-.32.768-.48 1.68-.48 2.736 0 .864.144 1.664.432 2.4a5.534 5.534 0 0 0 1.248 1.92c.56.528 1.248.944 2.064 1.248.816.288 1.744.432 2.784.432zm0-27.288c-.944 0-1.776.144-2.496.432-.704.288-1.288.672-1.752 1.152a4.784 4.784 0 0 0 -1.056 1.704 6.13 6.13 0 0 0 -.336 2.04c0 .72.096 1.424.288 2.112.208.688.528 1.304.96 1.848.448.528 1.032.952 1.752 1.272s1.6.48 2.64.48 1.92-.16 2.64-.48 1.296-.744 1.728-1.272a4.98 4.98 0 0 0 .96-1.848 7.259 7.259 0 0 0 .312-2.112c0-.72-.12-1.4-.36-2.04a4.375 4.375 0 0 0 -1.056-1.704c-.464-.48-1.048-.864-1.752-1.152s-1.528-.432-2.472-.432zm5.448 12.96c2.128.656 3.72 1.696 4.776 3.12 1.072 1.424 1.608 3.192 1.608 5.304 0 1.52-.288 2.896-.864 4.128a8.983 8.983 0 0 1 -2.424 3.144c-1.04.864-2.288 1.536-3.744 2.016-1.44.464-3.04.696-4.8.696s-3.368-.232-4.824-.696c-1.44-.48-2.68-1.152-3.72-2.016a8.983 8.983 0 0 1 -2.424-3.144c-.576-1.232-.864-2.608-.864-4.128 0-2.112.528-3.88 1.584-5.304 1.072-1.424 2.672-2.464 4.8-3.12-1.728-.688-3.032-1.688-3.912-3-.864-1.312-1.296-2.888-1.296-4.728 0-1.296.256-2.504.768-3.624a8.571 8.571 0 0 1 2.16-2.904c.944-.832 2.072-1.48 3.384-1.944 1.312-.48 2.76-.72 4.344-.72s3.024.24 4.32.72c1.312.464 2.432 1.112 3.36 1.944a8.435 8.435 0 0 1 2.184 2.904 8.391 8.391 0 0 1 .792 3.624c0 1.84-.44 3.416-1.32 4.728-.864 1.312-2.16 2.312-3.888 3zm17.739 11.88c.72.928 1.504 1.584 2.352 1.968.864.368 1.816.552 2.856.552 2.016 0 3.584-.736 4.704-2.208 1.136-1.472 1.704-3.664 1.704-6.576 0-1.504-.128-2.784-.384-3.84-.256-1.072-.624-1.944-1.104-2.616s-1.064-1.16-1.752-1.464-1.464-.456-2.328-.456c-1.312 0-2.448.288-3.408.864-.944.56-1.824 1.368-2.64 2.424zm-.264-14.784a13.004 13.004 0 0 1 3.48-2.904c1.312-.736 2.832-1.104 4.56-1.104 1.376 0 2.624.28 3.744.84 1.12.544 2.08 1.344 2.88 2.4s1.416 2.368 1.848 3.936c.448 1.552.672 3.336.672 5.352 0 1.808-.248 3.496-.743 5.064-.48 1.552-1.177 2.904-2.089 4.056a9.982 9.982 0 0 1 -3.312 2.688c-1.296.64-2.76.96-4.392.96-1.44 0-2.664-.232-3.672-.696a9.533 9.533 0 0 1 -2.712-1.92v10.392h-5.16v-32.616h3.12c.704 0 1.152.328 1.344.984zm43.245 20.928h-4.944c-.4 0-.72-.104-.96-.312a2.86 2.86 0 0 1 -.552-.696l-5.64-9.048a5.455 5.455 0 0 1 -.576 1.416l-5.112 7.632a4.17 4.17 0 0 1 -.6.696c-.208.208-.488.312-.84.312h-4.608l8.472-12.624-8.136-11.856h4.944c.4 0 .688.064.864.192.192.112.36.288.504.528l5.544 8.64a5.538 5.538 0 0 1 .672-1.512l4.68-7.032c.32-.544.728-.816 1.224-.816h4.728l-8.136 11.64zm282.916-2.436c.28 0 .5.084.66.252.16.16.24.368.24.624v1.56h-11.688v-.876c0-.176.036-.36.108-.552a1.48 1.48 0 0 1 .348-.528l5.376-5.388c.456-.456.86-.892 1.212-1.308.36-.416.664-.832.912-1.248.256-.416.448-.836.576-1.26.136-.432.204-.884.204-1.356a3.09 3.09 0 0 0 -.216-1.2 2.218 2.218 0 0 0 -.576-.864 2.234 2.234 0 0 0 -.876-.516 3.299 3.299 0 0 0 -1.116-.18c-.392 0-.756.056-1.092.168a3.139 3.139 0 0 0 -.888.468c-.256.2-.472.44-.648.72a3.096 3.096 0 0 0 -.372.9c-.12.328-.276.548-.468.66-.184.112-.456.136-.816.072l-1.356-.24c.12-.816.344-1.532.672-2.148a5.072 5.072 0 0 1 1.26-1.536 5.166 5.166 0 0 1 1.728-.936 6.752 6.752 0 0 1 2.124-.324c.768 0 1.472.116 2.112.348a4.728 4.728 0 0 1 1.668.972c.472.416.84.924 1.104 1.524s.396 1.276.396 2.028c0 .64-.096 1.232-.288 1.776a7.016 7.016 0 0 1 -.756 1.56c-.32.496-.696.98-1.128 1.452a53.37 53.37 0 0 1 -1.344 1.416l-4.176 4.272a9.54 9.54 0 0 1 1.032-.228c.352-.056.684-.084.996-.084zm11.246-3.948v-6.312c0-.504.036-1.056.108-1.656l-5.808 7.968zm4.632 0v1.488a.53.53 0 0 1 -.144.372c-.088.104-.224.156-.408.156h-1.836v4.368h-2.244v-4.368h-7.476a.768.768 0 0 1 -.48-.156.785.785 0 0 1 -.252-.408l-.264-1.32 8.292-11.04h2.424v10.908zm5.27 3.312c.36.464.752.792 1.176.984.432.184.908.276 1.428.276 1.008 0 1.792-.368 2.352-1.104.568-.736.852-1.832.852-3.288 0-.752-.064-1.392-.192-1.92-.128-.536-.312-.972-.552-1.308a2.127 2.127 0 0 0 -.876-.732 2.851 2.851 0 0 0 -1.164-.228c-.656 0-1.224.144-1.704.432-.472.28-.912.684-1.32 1.212zm-.132-7.392a6.502 6.502 0 0 1 1.74-1.452c.656-.368 1.416-.552 2.28-.552.688 0 1.312.14 1.872.42a3.97 3.97 0 0 1 1.44 1.2c.4.528.708 1.184.924 1.968.224.776.336 1.668.336 2.676 0 .904-.124 1.748-.372 2.532a6.164 6.164 0 0 1 -1.044 2.028 4.991 4.991 0 0 1 -1.656 1.344c-.648.32-1.38.48-2.196.48-.72 0-1.332-.116-1.836-.348a4.766 4.766 0 0 1 -1.356-.96v5.196h-2.58v-16.308h1.56c.352 0 .576.164.672.492zm21.622 10.464h-2.472c-.2 0-.36-.052-.48-.156a1.43 1.43 0 0 1 -.276-.348l-2.82-4.524a2.727 2.727 0 0 1 -.288.708l-2.556 3.816a2.085 2.085 0 0 1 -.3.348.568.568 0 0 1 -.42.156h-2.304l4.236-6.312-4.068-5.928h2.472c.2 0 .344.032.432.096a.73.73 0 0 1 .252.264l2.772 4.32c.072-.264.184-.516.336-.756l2.34-3.516c.16-.272.364-.408.612-.408h2.364l-4.068 5.82zm-423.358-144.328c-.088.144-.18.252-.276.324a.635.635 0 0 1 -.36.096c-.152 0-.324-.064-.516-.192a7.53 7.53 0 0 0 -.696-.42 5.272 5.272 0 0 0 -.972-.432c-.376-.136-.824-.204-1.344-.204-.48 0-.904.06-1.272.18-.36.12-.664.288-.912.504a2.128 2.128 0 0 0 -.564.768 2.44 2.44 0 0 0 -.18.948c0 .44.116.808.348 1.104.232.288.536.536.912.744.384.208.82.392 1.308.552.488.152.984.316 1.488.492.512.176 1.012.376 1.5.6s.92.508 1.296.852c.384.344.692.764.924 1.26s.348 1.1.348 1.812c0 .768-.132 1.488-.396 2.16a5.108 5.108 0 0 1 -1.152 1.764c-.496.496-1.112.888-1.848 1.176-.728.288-1.56.432-2.496.432a7.786 7.786 0 0 1 -1.62-.168 8.538 8.538 0 0 1 -1.5-.444c-.472-.2-.916-.44-1.332-.72a6.716 6.716 0 0 1 -1.116-.936l.816-1.344a.792.792 0 0 1 .276-.264.736.736 0 0 1 .372-.096c.184 0 .388.088.612.264.224.168.492.356.804.564.32.2.704.388 1.152.564.448.168.984.252 1.608.252 1.016 0 1.8-.248 2.352-.744.56-.496.84-1.18.84-2.052 0-.488-.116-.884-.348-1.188a2.776 2.776 0 0 0 -.924-.78 6.437 6.437 0 0 0 -1.296-.528 76.09 76.09 0 0 1 -1.488-.456c-.504-.168-1-.36-1.488-.576a5.021 5.021 0 0 1 -1.308-.864c-.376-.36-.68-.8-.912-1.32-.232-.528-.348-1.184-.348-1.968 0-.624.12-1.228.36-1.812a4.67 4.67 0 0 1 1.068-1.548c.472-.456 1.052-.82 1.74-1.092s1.472-.408 2.352-.408c.992 0 1.9.156 2.724.468a6.206 6.206 0 0 1 2.148 1.332zm12.047 6.828a3.63 3.63 0 0 0 -.192-1.2c-.12-.376-.3-.7-.54-.972-.24-.28-.54-.496-.9-.648-.352-.16-.76-.24-1.224-.24-.936 0-1.672.268-2.208.804s-.876 1.288-1.02 2.256zm-6.156 1.584c.032.696.14 1.3.324 1.812.184.504.428.924.732 1.26.312.336.68.588 1.104.756.432.16.912.24 1.44.24.504 0 .94-.056 1.308-.168.368-.12.688-.248.96-.384.272-.144.504-.272.696-.384.192-.12.368-.18.528-.18a.55.55 0 0 1 .48.24l.732.948c-.304.36-.648.664-1.032.912a6.25 6.25 0 0 1 -1.224.612c-.432.152-.876.26-1.332.324-.456.072-.9.108-1.332.108a6.53 6.53 0 0 1 -2.364-.42 5.383 5.383 0 0 1 -1.884-1.26c-.528-.552-.944-1.236-1.248-2.052-.296-.816-.444-1.756-.444-2.82 0-.848.132-1.64.396-2.376a5.799 5.799 0 0 1 1.152-1.92 5.417 5.417 0 0 1 1.824-1.284c.72-.32 1.532-.48 2.436-.48a5.73 5.73 0 0 1 2.088.372c.64.24 1.192.596 1.656 1.068a4.861 4.861 0 0 1 1.08 1.74c.264.68.396 1.456.396 2.328 0 .4-.044.668-.132.804s-.248.204-.48.204h-7.86zm11.358 5.916v-12.24h1.56c.352 0 .576.164.672.492l.168 1.068c.224-.256.456-.488.696-.696a4.234 4.234 0 0 1 1.656-.924c.32-.088.664-.132 1.032-.132.392 0 .752.056 1.08.168s.616.272.864.48c.256.208.476.46.66.756s.336.628.456.996a3.761 3.761 0 0 1 1.632-1.836 4.116 4.116 0 0 1 1.092-.42 4.977 4.977 0 0 1 1.188-.144c.656 0 1.24.104 1.752.312.52.208.956.512 1.308.912.36.392.632.876.816 1.452s.276 1.232.276 1.968v7.788h-2.58v-7.788c0-.864-.188-1.512-.564-1.944-.368-.44-.916-.66-1.644-.66-.328 0-.636.056-.924.168s-.54.276-.756.492a2.337 2.337 0 0 0 -.516.816c-.12.32-.18.696-.18 1.128v7.788h-2.58v-7.788c0-.896-.18-1.552-.54-1.968-.36-.424-.888-.636-1.584-.636-.48 0-.924.124-1.332.372-.408.24-.784.572-1.128.996v9.024zm23.09-12.24v12.24h-2.58v-12.24zm.432-3.696c0 .232-.048.452-.144.66a1.723 1.723 0 0 1 -.372.552c-.16.152-.348.276-.564.372a1.707 1.707 0 0 1 -.672.132c-.232 0-.452-.044-.66-.132-.2-.096-.376-.22-.528-.372a2.03 2.03 0 0 1 -.372-.552 1.676 1.676 0 0 1 -.132-.66c0-.24.044-.464.132-.672.096-.208.22-.388.372-.54.152-.16.328-.284.528-.372.208-.096.428-.144.66-.144.24 0 .464.048.672.144.216.088.404.212.564.372.16.152.284.332.372.54.096.208.144.432.144.672zm9.87 13.716c.632 0 1.164-.072 1.596-.216.44-.152.796-.356 1.068-.612.28-.256.48-.556.6-.9.128-.352.192-.728.192-1.128 0-.816-.28-1.456-.84-1.92-.552-.472-1.428-.708-2.628-.708h-3.468v5.484zm-3.48-12.864v5.4h2.808c1.2 0 2.096-.232 2.688-.696s.888-1.132.888-2.004c0-.952-.28-1.64-.84-2.064-.552-.424-1.42-.636-2.604-.636zm2.94-2.196c1.104 0 2.048.108 2.832.324.784.208 1.428.508 1.932.9s.872.872 1.104 1.44c.24.56.36 1.192.36 1.896 0 .408-.064.804-.192 1.188-.12.376-.312.732-.576 1.068-.256.328-.58.624-.972.888a5.618 5.618 0 0 1 -1.392.66c2.448.52 3.672 1.82 3.672 3.9 0 .736-.14 1.412-.42 2.028a4.434 4.434 0 0 1 -1.2 1.584c-.52.44-1.164.784-1.932 1.032s-1.644.372-2.628.372h-6.336v-17.28zm15.036 4.848c.904 0 1.72.148 2.448.444.736.296 1.36.716 1.872 1.26.52.544.92 1.204 1.2 1.98s.42 1.648.42 2.616-.14 1.84-.42 2.616a5.67 5.67 0 0 1 -1.2 1.992 5.192 5.192 0 0 1 -1.872 1.26c-.728.296-1.544.444-2.448.444-.912 0-1.736-.148-2.472-.444a5.333 5.333 0 0 1 -1.872-1.26 5.67 5.67 0 0 1 -1.2-1.992c-.28-.776-.42-1.648-.42-2.616s.14-1.84.42-2.616.68-1.436 1.2-1.98a5.333 5.333 0 0 1 1.872-1.26c.736-.296 1.56-.444 2.472-.444zm0 10.596c1.104 0 1.924-.368 2.46-1.104.544-.744.816-1.804.816-3.18s-.272-2.436-.816-3.18c-.536-.752-1.356-1.128-2.46-1.128-1.12 0-1.952.376-2.496 1.128-.544.744-.816 1.804-.816 3.18s.272 2.436.816 3.18c.544.736 1.376 1.104 2.496 1.104zm11.527-15.924v17.76h-2.58v-17.76zm11.476 8.532c-.36-.464-.756-.788-1.188-.972a3.545 3.545 0 0 0 -1.404-.276c-1.008 0-1.796.372-2.364 1.116-.568.736-.852 1.828-.852 3.276 0 .752.064 1.396.192 1.932.128.528.312.96.552 1.296s.532.58.876.732.732.228 1.164.228c.656 0 1.22-.14 1.692-.42.48-.288.924-.692 1.332-1.212zm2.58-8.532v17.76h-1.56c-.344 0-.564-.164-.66-.492l-.228-1.332a6.43 6.43 0 0 1 -1.752 1.452c-.648.368-1.404.552-2.268.552a4.228 4.228 0 0 1 -1.872-.408 4.087 4.087 0 0 1 -1.44-1.212c-.4-.528-.712-1.18-.936-1.956-.216-.784-.324-1.68-.324-2.688 0-.912.12-1.756.36-2.532.248-.776.6-1.448 1.056-2.016a4.802 4.802 0 0 1 1.656-1.344c.656-.328 1.388-.492 2.196-.492.72 0 1.332.116 1.836.348.504.224.956.54 1.356.948v-6.588zm11.736 17.892c-.12.328-.312.572-.576.732a1.483 1.483 0 0 1 -.804.252h-1.092l7.104-17.952c.112-.296.284-.524.516-.684.24-.16.512-.24.816-.24h1.092zm23.183-2.652c.6 0 1.104-.072 1.512-.216s.732-.336.972-.576c.248-.24.424-.52.528-.84.112-.32.168-.66.168-1.02 0-.376-.06-.712-.18-1.008a1.85 1.85 0 0 0 -.564-.768c-.256-.216-.588-.38-.996-.492-.4-.112-.884-.168-1.452-.168h-3.252v5.088zm-3.264-12.336v5.016h2.568c1.104 0 1.936-.2 2.496-.6.568-.4.852-1.036.852-1.908 0-.904-.256-1.548-.768-1.932s-1.312-.576-2.4-.576zm2.748-2.496c1.136 0 2.108.108 2.916.324s1.468.524 1.98.924c.52.4.9.884 1.14 1.452s.36 1.208.36 1.92c0 .408-.06.8-.18 1.176a3.41 3.41 0 0 1 -.564 1.044c-.248.32-.568.612-.96.876a5.683 5.683 0 0 1 -1.38.672c2.384.536 3.576 1.824 3.576 3.864 0 .736-.14 1.416-.42 2.04a4.555 4.555 0 0 1 -1.224 1.62c-.536.448-1.196.8-1.98 1.056s-1.68.384-2.688.384h-6.552v-17.352zm15.117 4.848c.912 0 1.74.148 2.484.444a5.384 5.384 0 0 1 1.92 1.26 5.492 5.492 0 0 1 1.236 1.992c.288.784.432 1.66.432 2.628 0 .976-.144 1.856-.432 2.64a5.611 5.611 0 0 1 -1.236 2.004 5.307 5.307 0 0 1 -1.92 1.272c-.744.296-1.572.444-2.484.444-.92 0-1.756-.148-2.508-.444a5.424 5.424 0 0 1 -1.932-1.272 5.845 5.845 0 0 1 -1.236-2.004c-.288-.784-.432-1.664-.432-2.64 0-.968.144-1.844.432-2.628.296-.784.708-1.448 1.236-1.992a5.504 5.504 0 0 1 1.932-1.26c.752-.296 1.588-.444 2.508-.444zm0 10.404c1.024 0 1.78-.344 2.268-1.032.496-.688.744-1.696.744-3.024s-.248-2.34-.744-3.036c-.488-.696-1.244-1.044-2.268-1.044-1.04 0-1.812.352-2.316 1.056-.496.696-.744 1.704-.744 3.024s.248 2.328.744 3.024c.504.688 1.276 1.032 2.316 1.032zm11.814-15.732v17.832h-2.964v-17.832zm11.161 8.664c-.336-.408-.704-.696-1.104-.864a3.195 3.195 0 0 0 -1.272-.252c-.448 0-.852.084-1.212.252s-.668.424-.924.768c-.256.336-.452.768-.588 1.296-.136.52-.204 1.136-.204 1.848 0 .72.056 1.332.168 1.836.12.496.288.904.504 1.224.216.312.48.54.792.684.312.136.66.204 1.044.204.616 0 1.14-.128 1.572-.384s.84-.62 1.224-1.092zm2.964-8.664v17.832h-1.812c-.392 0-.64-.18-.744-.54l-.252-1.188a6.182 6.182 0 0 1 -1.716 1.38c-.64.352-1.388.528-2.244.528-.672 0-1.288-.14-1.848-.42a4.196 4.196 0 0 1 -1.452-1.212c-.4-.536-.712-1.196-.936-1.98-.216-.784-.324-1.68-.324-2.688 0-.912.124-1.76.372-2.544a6.19 6.19 0 0 1 1.068-2.04 4.918 4.918 0 0 1 1.668-1.344c.648-.328 1.376-.492 2.184-.492.688 0 1.276.108 1.764.324a4.52 4.52 0 0 1 1.308.876v-6.492zm11.613 17.964c-.12.328-.312.572-.576.732a1.483 1.483 0 0 1 -.804.252h-1.092l7.104-17.952c.112-.296.284-.524.516-.684.24-.16.512-.24.816-.24h1.092zm20.532-14.496v4.08h5.496v3h-5.496v4.164h7.176v3.12h-11.256v-17.484h11.256v3.12zm21.63 14.364h-3.576c-.264 0-.48-.064-.648-.192a1.498 1.498 0 0 1 -.384-.456l-2.22-3.816c-.04.136-.088.264-.144.384s-.116.232-.18.336l-1.824 3.096c-.112.16-.244.308-.396.444a.849.849 0 0 1 -.588.204h-3.312l4.176-6.432-4.008-6.012h3.576c.264 0 .456.036.576.108.128.064.24.176.336.336l2.22 3.684c.048-.144.108-.284.18-.42.072-.144.152-.288.24-.432l1.584-2.772c.112-.176.228-.304.348-.384a.866.866 0 0 1 .468-.12h3.408l-4.008 5.844zm6.083.192c-.592 0-1.116-.084-1.572-.252a3.29 3.29 0 0 1 -1.14-.732 3.222 3.222 0 0 1 -.696-1.152 4.436 4.436 0 0 1 -.24-1.5v-6.432h-1.056a.718.718 0 0 1 -.492-.18c-.136-.128-.204-.312-.204-.552v-1.452l1.98-.384.732-3.036c.096-.384.368-.576.816-.576h1.944v3.636h3.084v2.544h-3.084v6.18c0 .288.068.528.204.72.144.184.348.276.612.276.136 0 .248-.012.336-.036.096-.032.176-.064.24-.096.072-.04.136-.072.192-.096a.476.476 0 0 1 .216-.048c.112 0 .2.028.264.084a.81.81 0 0 1 .216.24l1.128 1.764c-.48.36-1.02.632-1.62.816-.6.176-1.22.264-1.86.264zm8.718-10.716c.384-.672.824-1.2 1.32-1.584a2.775 2.775 0 0 1 1.728-.576c.56 0 1.016.132 1.368.396l-.24 2.736c-.04.176-.108.296-.204.36-.088.064-.212.096-.372.096-.064 0-.148-.004-.252-.012a59.516 59.516 0 0 0 -.324-.024 4.647 4.647 0 0 0 -.348-.036 2.216 2.216 0 0 0 -.312-.024c-.544 0-.98.144-1.308.432-.32.288-.592.688-.816 1.2v7.56h-3.72v-12.444h2.208c.184 0 .336.016.456.048a.717.717 0 0 1 .312.156.542.542 0 0 1 .192.264c.048.112.088.248.12.408zm12.467 5.46c-.744.032-1.356.096-1.836.192s-.86.216-1.14.36-.476.308-.588.492a1.199 1.199 0 0 0 -.156.6c0 .424.116.724.348.9.232.168.572.252 1.02.252.48 0 .9-.084 1.26-.252s.724-.44 1.092-.816zm-6.696-5.652a7.494 7.494 0 0 1 2.496-1.476 8.726 8.726 0 0 1 2.952-.492c.752 0 1.428.124 2.028.372.608.24 1.12.58 1.536 1.02.424.432.748.948.972 1.548s.336 1.256.336 1.968v7.776h-1.704c-.352 0-.62-.048-.804-.144-.176-.096-.324-.296-.444-.6l-.264-.684c-.312.264-.612.496-.9.696a5.94 5.94 0 0 1 -.9.516 4.27 4.27 0 0 1 -.984.3 5.64 5.64 0 0 1 -1.152.108 5.208 5.208 0 0 1 -1.548-.216 3.36 3.36 0 0 1 -1.188-.66 2.919 2.919 0 0 1 -.744-1.068c-.176-.432-.264-.928-.264-1.488 0-.448.112-.9.336-1.356.224-.464.612-.884 1.164-1.26.552-.384 1.296-.704 2.232-.96s2.116-.4 3.54-.432v-.528c0-.728-.152-1.252-.456-1.572-.296-.328-.72-.492-1.272-.492-.44 0-.8.048-1.08.144s-.532.204-.756.324c-.216.12-.428.228-.636.324a1.763 1.763 0 0 1 -.744.144c-.256 0-.472-.064-.648-.192a1.67 1.67 0 0 1 -.432-.456zm20.241 7.656c.536 0 .972-.068 1.308-.204.344-.136.612-.312.804-.528s.324-.46.396-.732.108-.548.108-.828c0-.32-.044-.608-.132-.864a1.368 1.368 0 0 0 -.432-.648c-.2-.176-.468-.312-.804-.408s-.76-.144-1.272-.144h-2.832v4.356zm-2.856-11.388v4.32h2.112a6.96 6.96 0 0 0 1.212-.096c.36-.064.664-.176.912-.336.256-.16.448-.38.576-.66.136-.28.204-.632.204-1.056 0-.416-.052-.76-.156-1.032a1.484 1.484 0 0 0 -.48-.672 2.018 2.018 0 0 0 -.828-.36 5.557 5.557 0 0 0 -1.176-.108zm2.376-3.036c1.208 0 2.236.112 3.084.336s1.54.54 2.076.948.924.904 1.164 1.488c.248.584.372 1.236.372 1.956 0 .392-.056.772-.168 1.14-.112.36-.288.7-.528 1.02-.24.312-.548.6-.924.864a5.802 5.802 0 0 1 -1.356.684c1.152.28 2.004.732 2.556 1.356s.828 1.432.828 2.424a5 5 0 0 1 -.432 2.076 4.78 4.78 0 0 1 -1.272 1.68c-.552.472-1.236.844-2.052 1.116-.816.264-1.748.396-2.796.396h-6.984v-17.484zm15.266 4.848c.944 0 1.804.148 2.58.444s1.44.72 1.992 1.272a5.61 5.61 0 0 1 1.296 2.016c.312.784.468 1.668.468 2.652 0 .992-.156 1.888-.468 2.688a5.73 5.73 0 0 1 -1.296 2.028 5.737 5.737 0 0 1 -1.992 1.284c-.776.296-1.636.444-2.58.444-.952 0-1.82-.148-2.604-.444a5.993 5.993 0 0 1 -2.016-1.284 5.87 5.87 0 0 1 -1.308-2.028c-.304-.8-.456-1.696-.456-2.688 0-.984.152-1.868.456-2.652a5.745 5.745 0 0 1 1.308-2.016 5.844 5.844 0 0 1 2.016-1.272c.784-.296 1.652-.444 2.604-.444zm0 10.068c.856 0 1.484-.3 1.884-.9.408-.608.612-1.528.612-2.76s-.204-2.148-.612-2.748c-.4-.6-1.028-.9-1.884-.9-.88 0-1.524.3-1.932.9s-.612 1.516-.612 2.748.204 2.152.612 2.76c.408.6 1.052.9 1.932.9zm12.409-15.396v17.964h-3.72v-17.964zm10.543 8.856c-.28-.312-.584-.528-.912-.648a2.814 2.814 0 0 0 -1.032-.192c-.344 0-.66.068-.948.204a1.96 1.96 0 0 0 -.756.66c-.208.296-.372.684-.492 1.164s-.18 1.06-.18 1.74c0 .656.048 1.208.144 1.656s.228.812.396 1.092c.176.272.384.468.624.588s.508.18.804.18c.272 0 .516-.024.732-.072.224-.056.428-.132.612-.228s.356-.216.516-.36c.168-.152.332-.324.492-.516zm3.72-8.856v17.964h-2.304c-.464 0-.768-.208-.912-.624l-.288-.948a7.295 7.295 0 0 1 -.78.72 5.066 5.066 0 0 1 -.888.564 4.504 4.504 0 0 1 -1.02.348c-.36.088-.752.132-1.176.132a3.833 3.833 0 0 1 -1.8-.432 4.148 4.148 0 0 1 -1.428-1.248c-.4-.544-.716-1.208-.948-1.992-.224-.792-.336-1.692-.336-2.7 0-.928.128-1.788.384-2.58.256-.8.616-1.488 1.08-2.064a5.073 5.073 0 0 1 1.692-1.368 4.788 4.788 0 0 1 2.172-.492c.648 0 1.192.092 1.632.276s.84.432 1.2.744v-6.3z" fill="#333"/><path d="m509 268h125" stroke="#c2c2c2"/><path d="m4.059 139.698c0-1.301.448-2.408 1.353-3.313.905-.906 2.013-1.363 3.322-1.363 1.31 0 2.417.457 3.323 1.363.905.905 1.362 2.012 1.362 3.313 0 1.31-.457 2.417-1.362 3.323-.906.914-2.013 1.362-3.323 1.362s-2.417-.448-3.322-1.362c-.905-.906-1.353-2.013-1.353-3.323zm-1.978 0c0 1.811.633 3.349 1.916 4.597 1.274 1.257 2.857 1.881 4.737 1.881 1.881 0 3.463-.624 4.738-1.881 1.283-1.248 1.916-2.786 1.916-4.597 0-1.81-.633-3.34-1.916-4.596-1.275-1.248-2.857-1.881-4.738-1.881-1.88 0-3.463.633-4.737 1.881-1.283 1.256-1.916 2.786-1.916 4.596zm15.038 1.987c0 1.212.44 2.258 1.336 3.155.897.896 1.951 1.345 3.164 1.345a4.06 4.06 0 0 0 1.24-.203 4.92 4.92 0 0 0 1.001-.43c.255-.158.501-.334.739-.536.228-.203.386-.343.457-.431.07-.088.123-.149.158-.193l-1.17-1.169-.271.334c-.176.211-.466.439-.87.668a2.557 2.557 0 0 1 -1.284.342c-.738 0-1.371-.281-1.907-.835-.536-.562-.8-1.239-.8-2.047 0-.809.264-1.486.8-2.039.536-.563 1.169-.835 1.907-.835.457 0 .879.114 1.283.351.405.229.66.413.783.554.123.14.21.255.272.351l1.169-1.169-.378-.413c-.255-.29-.668-.58-1.248-.87a4.161 4.161 0 0 0 -1.88-.43c-1.214 0-2.268.448-3.165 1.344-.896.897-1.336 1.943-1.336 3.156zm11.69.711h4.227v3.604h1.802v-8.64h-1.802v3.419h-4.226v-3.419h-1.802v8.64h1.802v-3.604zm15.213-.711c0 .808-.272 1.485-.8 2.039-.535.562-1.168.835-1.898.835-.738 0-1.37-.273-1.907-.835-.536-.554-.8-1.231-.8-2.039 0-.809.264-1.486.8-2.048.536-.554 1.169-.835 1.907-.835.73 0 1.363.281 1.899.835.527.562.8 1.239.8 2.048zm-7.198 0c0 1.212.44 2.258 1.336 3.155.897.896 1.951 1.345 3.164 1.345s2.259-.449 3.156-1.345c.896-.897 1.344-1.943 1.344-3.155 0-1.213-.448-2.268-1.344-3.164-.897-.897-1.943-1.345-3.156-1.345s-2.267.448-3.164 1.345c-.896.896-1.336 1.951-1.336 3.164zm10.978-4.325v8.64h4.324c.914 0 1.644-.229 2.17-.703.528-.466.8-1.072.8-1.819 0-.282-.052-.554-.157-.8a2.185 2.185 0 0 0 -.343-.58 2.73 2.73 0 0 0 -.44-.396 4.68 4.68 0 0 0 -.351-.228c-.07-.027-.115-.044-.15-.053l.246-.167c.167-.123.334-.334.493-.633.158-.299.246-.633.246-1.002 0-.65-.246-1.195-.73-1.617-.492-.422-1.142-.633-1.969-.633l-4.14-.009zm4.324 4.782c.343 0 .624.114.844.342.21.229.325.501.325.827 0 .351-.105.641-.317.852-.21.211-.5.316-.852.316h-2.523v-2.337zm.72-2.347c0 .281-.087.501-.245.659a.925.925 0 0 1 -.66.246h-2.338v-1.802h2.338c.273 0 .493.08.66.238.158.158.246.378.246.659zm6.021 2.601h4.228v3.604h1.802v-8.64h-1.802v3.419h-4.228v-3.419h-1.802v8.64h1.802zm15.214-.711c0 .808-.272 1.485-.8 2.039-.536.562-1.169.835-1.898.835-.739 0-1.371-.273-1.907-.835-.537-.554-.8-1.231-.8-2.039 0-.809.263-1.486.8-2.048.536-.554 1.168-.835 1.907-.835.73 0 1.362.281 1.898.835.528.562.8 1.239.8 2.048zm-7.198 0c0 1.212.44 2.258 1.336 3.155.896.896 1.95 1.345 3.164 1.345 1.213 0 2.259-.449 3.155-1.345.897-.897 1.345-1.943 1.345-3.155 0-1.213-.448-2.268-1.345-3.164-.896-.897-1.942-1.345-3.155-1.345s-2.268.448-3.164 1.345c-.897.896-1.336 1.951-1.336 3.164zm17.28-4.325-4.5 5.669v-5.669h-1.803v8.64h1.618l4.5-5.669v5.669h1.801v-8.64h-1.617zm-2.348-2.698c-.36 0-.659-.114-.896-.36a1.22 1.22 0 0 1 -.36-.906h-1.345c0 .721.246 1.328.738 1.802.492.484 1.116.721 1.872.721s1.38-.237 1.872-.721c.493-.474.739-1.081.739-1.802h-1.355c0 .37-.123.668-.36.906-.246.246-.545.36-.906.36zm10.09 11.338h11.699v-8.64h-1.793v7.023h-3.156v-7.023h-1.802v7.023h-3.146v-7.023h-1.802zm18.809.176c1.142 0 2.127-.431 2.971-1.31.843-.879 1.265-1.942 1.265-3.19s-.422-2.303-1.265-3.182c-.844-.879-1.829-1.318-2.971-1.318-.51 0-1.002.114-1.485.325-.493.22-.809.395-.958.527-.15.141-.264.246-.343.326v-.994h-1.802v12.419h1.802v-4.772l.123.132a4.357 4.357 0 0 0 .94.641c.211.115.475.211.782.282.299.079.616.114.941.114zm-.176-7.374c.686 0 1.292.281 1.819.844.528.562.791 1.248.791 2.039s-.263 1.467-.791 2.03c-.527.562-1.133.844-1.819.844-.685 0-1.292-.282-1.819-.844-.528-.563-.791-1.239-.791-2.03s.263-1.477.791-2.039c.527-.563 1.134-.844 1.819-.844zm12.683-1.442-4.5 5.669v-5.669h-1.802v8.64h1.617l4.5-5.669v5.669h1.802v-8.64zm8.639 12.419h1.802v-3.603c1.494 0 2.707-.422 3.639-1.283.931-.853 1.397-1.925 1.397-3.208 0-1.284-.466-2.356-1.397-3.217-.932-.862-2.145-1.283-3.639-1.283v-3.78h-1.802v3.78c-1.503 0-2.715.421-3.647 1.283-.932.861-1.398 1.933-1.398 3.217 0 1.283.466 2.355 1.398 3.208.932.861 2.144 1.283 3.647 1.283zm0-5.22c-1.019 0-1.819-.255-2.39-.783-.572-.518-.853-1.213-.853-2.091 0-.879.281-1.574.853-2.101.571-.519 1.371-.782 2.39-.782zm1.802-5.757c1.02 0 1.811.263 2.382.782.571.527.861 1.222.861 2.101 0 .878-.29 1.573-.861 2.091-.571.528-1.362.783-2.382.783zm6.126.176h2.971v7.022h1.793v-7.022h2.97v-1.618h-7.734zm-136.986 302.022h9.536v2.698h1.986v-4.5h-1.538v-10.802h-1.976v10.802h-6.03v-10.802h-1.978zm13.218-8.64v8.64h4.325c.914 0 1.643-.229 2.17-.703.528-.466.8-1.072.8-1.819 0-.282-.052-.554-.158-.8a2.185 2.185 0 0 0 -.343-.58 2.734 2.734 0 0 0 -.439-.396 4.674 4.674 0 0 0 -.352-.228c-.07-.027-.114-.044-.149-.053l.246-.167c.167-.123.334-.334.492-.633.159-.299.246-.633.246-1.002 0-.65-.246-1.195-.73-1.617-.491-.422-1.142-.633-1.968-.633zm4.325 4.782c.343 0 .624.114.844.342.21.229.325.501.325.827 0 .351-.106.641-.317.852-.21.211-.5.316-.852.316h-2.523v-2.337zm.72-2.347c0 .281-.088.501-.246.659a.925.925 0 0 1 -.659.246h-2.338v-1.802h2.338c.273 0 .492.08.66.238.157.158.245.378.245.659zm12.226 2.514.097-.897c0-1.213-.405-2.215-1.213-3.023-.809-.809-1.81-1.213-3.024-1.213-1.212 0-2.25.439-3.111 1.301-.861.861-1.3 1.898-1.3 3.111 0 1.266.448 2.347 1.335 3.243.888.897 1.943 1.345 3.164 1.345.457 0 .905-.062 1.336-.194.43-.131.782-.272 1.046-.43.273-.158.527-.334.765-.536.246-.203.404-.343.474-.431s.123-.149.159-.202l-1.17-1.169-.272.334c-.176.22-.483.439-.923.668-.44.228-.905.343-1.415.343-.694 0-1.292-.22-1.802-.668-.51-.44-.808-.967-.905-1.582zm-4.148-3.595c.668 0 1.212.193 1.652.58s.712.879.817 1.485h-5a2.9 2.9 0 0 1 .896-1.485c.44-.387.984-.58 1.635-.58zm5.317.264h2.97v7.022h1.794v-7.022h2.97v-1.618h-7.734zm16.014 2.707c0 .808-.273 1.485-.8 2.039-.536.562-1.17.835-1.899.835-.738 0-1.37-.273-1.907-.835-.536-.554-.8-1.231-.8-2.039 0-.809.264-1.486.8-2.048.536-.554 1.17-.835 1.907-.835.73 0 1.363.281 1.899.835.527.562.8 1.239.8 2.048zm-7.199 0c0 1.212.44 2.258 1.336 3.155.897.896 1.952 1.345 3.164 1.345 1.213 0 2.26-.449 3.156-1.345.896-.897 1.344-1.943 1.344-3.155 0-1.213-.448-2.268-1.344-3.164-.897-.897-1.943-1.345-3.156-1.345-1.212 0-2.267.448-3.164 1.345-.896.896-1.336 1.951-1.336 3.164zm10.978-4.325v8.64h4.324c.914 0 1.644-.229 2.171-.703.527-.466.8-1.072.8-1.819 0-.282-.053-.554-.158-.8a2.185 2.185 0 0 0 -.343-.58 2.734 2.734 0 0 0 -.44-.396 4.701 4.701 0 0 0 -.351-.228c-.07-.027-.114-.044-.15-.053l.246-.167c.168-.123.335-.334.493-.633s.246-.633.246-1.002c0-.65-.246-1.195-.73-1.617-.492-.422-1.142-.633-1.968-.633zm4.324 4.782c.343 0 .624.114.844.342.21.229.325.501.325.827 0 .351-.105.641-.316.852s-.501.316-.853.316h-2.522v-2.337zm.72-2.347c0 .281-.087.501-.245.659a.925.925 0 0 1 -.66.246h-2.337v-1.802h2.338c.272 0 .492.08.659.238.158.158.246.378.246.659zm11.155 6.205v-5.581c0-.914-.343-1.679-1.01-2.303-.677-.624-1.539-.94-2.593-.94-.422 0-.835.061-1.23.176a4.157 4.157 0 0 0 -.95.386 5 5 0 0 0 -.686.501c-.21.185-.351.317-.413.387-.061.07-.105.132-.14.176l1.169 1.169.237-.308c.14-.193.396-.378.765-.571.369-.194.79-.29 1.248-.29.527 0 .958.158 1.292.466.334.316.51.694.51 1.151l-3.156.545c-.782.132-1.397.439-1.846.914-.448.483-.668 1.081-.668 1.793 0 .65.29 1.239.87 1.749s1.31.765 2.19.765a3.807 3.807 0 0 0 1.616-.378 3.66 3.66 0 0 0 .536-.326c.167-.123.282-.202.334-.254.053-.053.097-.097.123-.115v.897zm-4.14-1.433c-.474 0-.843-.114-1.125-.325-.28-.22-.413-.474-.413-.764 0-.308.097-.563.3-.765.193-.211.456-.343.782-.396l2.794-.448v.176c0 .809-.21 1.424-.624 1.863-.413.44-.984.659-1.714.659zm9.545-7.207c-.975 0-1.757.282-2.355.844-.598.563-.897 1.266-.897 2.127 0 .387.07.738.194 1.072.123.334.263.589.413.774.15.193.316.36.51.501.193.14.334.237.413.272a.68.68 0 0 0 .184.079l-1.891 2.971h1.978l1.714-2.698h1.89v2.698h1.793v-8.64h-3.947zm2.154 1.53v2.882h-2.162c-.405 0-.747-.131-1.029-.413a1.397 1.397 0 0 1 -.413-1.028c0-.404.14-.747.413-1.028a1.424 1.424 0 0 1 1.029-.413zm9.72.088h4.228v7.022h1.802v-8.64h-7.831v8.64h1.802v-7.022zm15.487 7.022v-5.581c0-.914-.343-1.679-1.011-2.303-.677-.624-1.538-.94-2.593-.94-.422 0-.835.061-1.23.176a4.157 4.157 0 0 0 -.95.386 5 5 0 0 0 -.685.501c-.21.185-.352.317-.413.387-.062.07-.105.132-.14.176l1.168 1.169.238-.308c.14-.193.395-.378.764-.571.37-.194.791-.29 1.248-.29.528 0 .958.158 1.292.466.334.316.51.694.51 1.151l-3.155.545c-.782.132-1.398.439-1.846.914-.448.483-.668 1.081-.668 1.793 0 .65.29 1.239.87 1.749s1.31.765 2.189.765a3.806 3.806 0 0 0 1.617-.378c.193-.097.369-.203.536-.326s.281-.202.334-.254c.053-.053.097-.097.123-.115v.897zm-4.14-1.433c-.474 0-.844-.114-1.125-.325-.281-.22-.413-.474-.413-.764 0-.308.097-.563.299-.765.193-.211.457-.343.782-.396l2.795-.448v.176c0 .809-.211 1.424-.624 1.863-.413.44-.984.659-1.714.659zm7.655-7.207v2.523c0 1.239-.079 2.197-.219 2.883-.141.685-.325 1.125-.536 1.327-.211.193-.501.299-.871.299a3.913 3.913 0 0 1 -.624-.097v1.714l.159.035c.096.035.237.061.413.097.175.026.351.044.509.044.642 0 1.169-.167 1.574-.484.404-.325.738-.967 1.002-1.916.263-.949.386-2.25.386-3.893v-.906h3.059v7.023h1.802v-8.64zm15.487 0-4.5 5.669v-5.669h-1.802v8.64h1.617l4.5-5.669v5.669h1.802v-8.64zm3.243 1.618h2.971v7.022h1.793v-7.022h2.97v-1.618h-7.734zm13.939 7.198c1.143 0 2.127-.431 2.971-1.31s1.266-1.942 1.266-3.19-.422-2.303-1.266-3.182-1.828-1.318-2.971-1.318c-.509 0-1.002.114-1.485.325-.492.22-.809.395-.958.527-.149.141-.264.246-.343.326v-.994h-1.802v12.419h1.802v-4.772l.123.132a4.357 4.357 0 0 0 .941.641 3.1 3.1 0 0 0 .782.282c.299.079.615.114.94.114zm-.175-7.374c.685 0 1.292.281 1.819.844.527.562.791 1.248.791 2.039s-.264 1.467-.791 2.03c-.527.562-1.134.844-1.819.844-.686 0-1.292-.282-1.82-.844-.527-.563-.791-1.239-.791-2.03s.264-1.477.791-2.039c.528-.563 1.134-.844 1.82-.844zm13.314 7.198v-5.581c0-.914-.343-1.679-1.011-2.303-.676-.624-1.538-.94-2.592-.94-.422 0-.835.061-1.231.176a4.158 4.158 0 0 0 -.949.386 5.01 5.01 0 0 0 -.686.501 5.581 5.581 0 0 0 -.413.387c-.061.07-.105.132-.14.176l1.169 1.169.237-.308c.14-.193.395-.378.764-.571.37-.194.791-.29 1.249-.29.527 0 .958.158 1.291.466.334.316.51.694.51 1.151l-3.155.545c-.782.132-1.397.439-1.846.914-.448.483-.668 1.081-.668 1.793 0 .65.29 1.239.87 1.749.581.51 1.31.765 2.189.765a3.809 3.809 0 0 0 1.617-.378c.193-.097.369-.203.536-.326s.281-.202.334-.254c.053-.053.097-.097.123-.115v.897zm-4.14-1.433c-.474 0-.843-.114-1.125-.325-.281-.22-.413-.474-.413-.764 0-.308.097-.563.299-.765.193-.211.457-.343.782-.396l2.795-.448v.176c0 .809-.211 1.424-.624 1.863-.413.44-.984.659-1.714.659z" fill="#c2c2c2"/><path d="m4.604 73h19.072v5.397h3.972v-9h-3.076v-21.604h-3.955v21.604h-12.057v-21.604h-3.956zm26.436-17.28v17.28h8.649c1.828 0 3.287-.457 4.341-1.406 1.055-.932 1.6-2.145 1.6-3.639a4.06 4.06 0 0 0 -.316-1.6c-.212-.492-.44-.878-.686-1.16a5.502 5.502 0 0 0 -.879-.79 9.598 9.598 0 0 0 -.703-.458c-.14-.053-.229-.088-.299-.105l.492-.334c.334-.246.668-.668.985-1.266a4.226 4.226 0 0 0 .492-2.004c0-1.3-.492-2.39-1.46-3.234-.984-.844-2.284-1.266-3.937-1.266l-8.279-.017zm8.649 9.563c.685 0 1.248.229 1.687.686.422.457.65 1.002.65 1.652 0 .703-.21 1.283-.633 1.705-.421.422-1.001.633-1.704.633h-5.045v-4.676h5.044zm1.44-4.693c0 .562-.175 1.002-.491 1.318-.334.317-.774.492-1.319.492h-4.675v-3.603h4.675c.545 0 .985.158 1.319.475.316.316.492.755.492 1.318zm24.452 5.027.193-1.793c0-2.426-.808-4.43-2.425-6.047-1.618-1.617-3.622-2.425-6.047-2.425-2.426 0-4.5.879-6.223 2.601-1.723 1.723-2.602 3.797-2.602 6.223 0 2.531.897 4.693 2.672 6.486 1.776 1.793 3.885 2.69 6.328 2.69.915 0 1.811-.124 2.672-.387.862-.264 1.565-.545 2.092-.862a10.373 10.373 0 0 0 1.53-1.072c.492-.404.808-.685.949-.861.14-.176.246-.299.316-.404l-2.336-2.338-.545.668c-.351.44-.967.879-1.845 1.336a6.01 6.01 0 0 1 -2.83.685c-1.39 0-2.584-.44-3.604-1.336-1.02-.879-1.617-1.933-1.81-3.164h13.517zm-8.297-7.19c1.336 0 2.426.388 3.305 1.16.879.774 1.424 1.759 1.635 2.972h-10.001c.316-1.213.914-2.198 1.793-2.971s1.968-1.16 3.27-1.16zm10.635.528h5.941v14.045h3.586v-14.045h5.942v-3.234h-15.47v3.234zm32.573 14.045v-11.162c0-1.828-.685-3.358-2.021-4.606-1.354-1.248-3.077-1.88-5.186-1.88a8.86 8.86 0 0 0 -2.46.351c-.792.229-1.425.492-1.9.774-.491.298-.948.632-1.37 1.002-.422.369-.703.632-.827.773-.122.14-.21.264-.28.351l2.337 2.338.475-.615c.281-.386.79-.756 1.53-1.142.737-.387 1.581-.58 2.495-.58 1.055 0 1.916.316 2.584.931.668.633 1.02 1.389 1.02 2.303l-6.31 1.09c-1.565.263-2.796.879-3.692 1.828-.897.967-1.336 2.162-1.336 3.586 0 1.3.58 2.478 1.74 3.498s2.62 1.53 4.377 1.53c.598 0 1.178-.089 1.775-.23.58-.158 1.073-.333 1.46-.527a7.25 7.25 0 0 0 1.072-.65c.334-.246.562-.404.668-.51.105-.105.193-.193.246-.228v1.793zm-8.28-2.865c-.948 0-1.687-.229-2.25-.65-.562-.44-.825-.95-.825-1.53 0-.615.193-1.125.597-1.53.387-.421.914-.685 1.565-.79l5.59-.897v.352c0 1.617-.422 2.847-1.248 3.726-.827.88-1.97 1.319-3.428 1.319zm33.136-14.414-9 11.338v-11.339h-3.604v17.28h3.235l9-11.338v11.338h3.603v-17.28h-3.234zm15.486 17.279h23.396v-17.28h-3.585v14.046h-6.311v-14.046h-3.604v14.045h-6.292v-14.045h-3.604zm37.617.352c2.285 0 4.254-.862 5.942-2.62 1.687-1.757 2.531-3.884 2.531-6.38 0-2.497-.844-4.606-2.531-6.364-1.688-1.758-3.657-2.636-5.942-2.636-1.019 0-2.004.228-2.971.65-.984.44-1.617.791-1.916 1.055-.298.28-.527.492-.685.65v-1.986h-3.604v24.838h3.604v-9.545l.246.263c.141.141.387.334.721.58s.72.475 1.16.704c.422.228.949.421 1.564.562a7.357 7.357 0 0 0 1.881.229zm-.351-14.749c1.371 0 2.584.563 3.638 1.688 1.055 1.125 1.582 2.496 1.582 4.078s-.527 2.936-1.582 4.06c-1.054 1.126-2.267 1.688-3.638 1.688s-2.584-.562-3.639-1.687-1.582-2.479-1.582-4.06c0-1.583.527-2.954 1.582-4.079s2.268-1.688 3.639-1.688zm25.365-2.882-9 11.338v-11.339h-3.604v17.28h3.235l9-11.338v11.338h3.603v-17.28h-3.234zm17.279 24.838h3.604v-7.207c2.988 0 5.414-.844 7.277-2.567 1.863-1.705 2.795-3.85 2.795-6.416s-.932-4.71-2.795-6.434c-1.863-1.722-4.289-2.566-7.277-2.566v-7.559h-3.604v7.56c-3.006 0-5.432.843-7.295 2.566-1.863 1.722-2.795 3.867-2.795 6.433 0 2.567.932 4.711 2.795 6.416 1.863 1.723 4.289 2.567 7.295 2.567zm0-10.442c-2.039 0-3.639-.51-4.781-1.564-1.143-1.037-1.705-2.426-1.705-4.184s.562-3.146 1.705-4.201c1.142-1.037 2.742-1.565 4.781-1.565zm3.604-11.514c2.039 0 3.621.528 4.763 1.565 1.143 1.055 1.723 2.443 1.723 4.201s-.58 3.147-1.723 4.184c-1.142 1.054-2.724 1.564-4.763 1.564zm12.252.352h5.941v14.045h3.586v-14.045h5.941v-3.234h-15.468zm22.306 10.986v-5.765h3.78c.808 0 1.494.281 2.056.826.545.563.826 1.248.826 2.057 0 .826-.281 1.511-.826 2.056-.562.563-1.248.826-2.056.826zm10.266-2.865c0-1.722-.598-3.146-1.793-4.271s-2.76-1.688-4.711-1.688h-3.779v-5.396h-3.604v17.279h7.383c1.951 0 3.516-.545 4.711-1.67 1.195-1.107 1.793-2.531 1.793-4.254zm6.117-11.338h-3.603v17.28h3.603z" fill="#333"/><path d="m8.743 4.22c-1.89 0-3.472.634-4.746 1.882-1.283 1.256-1.916 2.786-1.916 4.596s.633 3.349 1.916 4.597c1.274 1.257 2.857 1.88 4.746 1.88.633 0 1.248-.087 1.846-.263s1.09-.378 1.459-.598c.369-.228.72-.483 1.054-.764.335-.29.546-.492.642-.607.097-.114.167-.202.211-.272l-1.265-1.266-.141.22c-.106.132-.273.29-.501.483a7.544 7.544 0 0 1 -.782.58c-.3.194-.668.352-1.117.493-.448.14-.922.21-1.415.21-1.31 0-2.417-.456-3.322-1.362-.905-.914-1.362-2.021-1.362-3.322 0-1.31.457-2.417 1.362-3.322.914-.906 2.022-1.354 3.322-1.354.493 0 .967.062 1.407.202.44.141.8.29 1.072.449.281.158.536.351.773.57.246.23.396.379.466.467s.114.15.15.193l1.256-1.266-.193-.246a4.284 4.284 0 0 0 -.633-.606 10.734 10.734 0 0 0 -1.002-.712c-.386-.237-.87-.44-1.459-.606a6.608 6.608 0 0 0 -1.828-.255zm5.836 5.758h2.97v7.022h1.794v-7.022h2.97v-1.618h-7.733v1.618zm15.653-1.618-4.5 5.67v-5.67h-1.801v8.64h1.617l4.5-5.669v5.669h1.802v-8.64zm5.133 0v2.523c0 1.24-.079 2.197-.22 2.883-.14.685-.325 1.125-.536 1.327-.21.193-.5.299-.87.299a3.884 3.884 0 0 1 -.624-.097v1.714l.158.035c.097.035.238.061.413.097.176.026.352.044.51.044.642 0 1.17-.167 1.574-.484.404-.325.738-.967 1.002-1.916.263-.95.386-2.25.386-3.893v-.906h3.059v7.023h1.802v-8.64zm10.987 7.11v-2.882h1.977c.404 0 .747.14 1.028.413.273.281.413.624.413 1.028 0 .413-.14.756-.413 1.029a1.391 1.391 0 0 1 -1.028.413h-1.977zm5.22-1.432c0-.861-.299-1.573-.896-2.136-.598-.562-1.38-.843-2.356-.843h-1.977v-2.699h-1.803v8.64h3.78c.975 0 1.757-.273 2.355-.835.597-.554.896-1.266.896-2.127z" fill="#c2c2c2"/><path d="m82.53 548-.273 1.354h2.707l-.563 2.698h-2.768l-.273 1.344h2.787l-.625 3.604h1.53l.624-3.604h2.97l-.623 3.604h1.53l.624-3.604h2.707l.264-1.344h-2.699l.545-2.698h2.786l.273-1.354h-2.795l.633-3.604h-1.53l-.633 3.604h-2.971l.633-3.604h-1.53l-.632 3.604h-2.699zm3.963 1.354h2.97l-.544 2.698h-2.97zm8.367 1.344c0 1.969.51 3.542 1.538 4.72 1.02 1.178 2.277 1.758 3.771 1.758 1.485 0 2.742-.58 3.77-1.758 1.029-1.178 1.547-2.751 1.547-4.72s-.518-3.533-1.547-4.711c-1.028-1.177-2.285-1.766-3.77-1.766-1.494 0-2.751.589-3.77 1.766-1.029 1.178-1.539 2.742-1.539 4.711zm8.64 0c0 1.459-.334 2.602-.984 3.437-.651.835-1.433 1.248-2.347 1.248s-1.696-.413-2.355-1.248c-.65-.835-.985-1.978-.985-3.437 0-1.45.334-2.593.985-3.427.659-.827 1.44-1.249 2.355-1.249.914 0 1.696.422 2.347 1.249.65.834.984 1.977.984 3.427zm2.786 6.302h2.066l1.353-3.331h5.581l1.354 3.331h2.065l-5.221-12.604h-1.977zm6.214-10.354 2.065 5.221h-4.139zm13.772 10.354c1.152 0 2.119-.36 2.892-1.09.774-.721 1.16-1.591 1.16-2.601 0-.378-.07-.747-.211-1.099a4.045 4.045 0 0 0 -.448-.861 3.164 3.164 0 0 0 -.571-.616c-.229-.184-.378-.307-.466-.36s-.149-.097-.193-.114l.325-.255c.202-.167.404-.457.615-.879a3.07 3.07 0 0 0 .316-1.389c0-.879-.36-1.652-1.081-2.32-.72-.677-1.59-1.011-2.61-1.011h-5.124v12.604zm-3.418-1.705v-4.14h3.418c.589 0 1.082.194 1.477.598.396.395.598.888.598 1.476 0 .581-.202 1.073-.598 1.468a2.034 2.034 0 0 1 -1.477.598zm3.146-9.176c.492 0 .896.158 1.222.484.325.325.492.729.492 1.221s-.167.897-.492 1.222a1.66 1.66 0 0 1 -1.222.492h-3.146v-3.419zm5.388 10.881h2.065l1.354-3.331h5.581l1.353 3.331h2.066l-5.221-12.604h-1.978zm6.214-10.354 2.065 5.221h-4.14zm13.772 10.354c1.151 0 2.118-.36 2.892-1.09.773-.721 1.16-1.591 1.16-2.601 0-.378-.071-.747-.211-1.099a4.091 4.091 0 0 0 -.448-.861 3.17 3.17 0 0 0 -.572-.616c-.228-.184-.378-.307-.466-.36-.087-.053-.149-.097-.193-.114l.325-.255c.202-.167.405-.457.616-.879a3.07 3.07 0 0 0 .316-1.389c0-.879-.36-1.652-1.081-2.32-.721-.677-1.591-1.011-2.61-1.011h-5.124v12.604zm-3.419-1.705v-4.14h3.419c.589 0 1.081.194 1.477.598.395.395.597.888.597 1.476 0 .581-.202 1.073-.597 1.468a2.037 2.037 0 0 1 -1.477.598zm3.147-9.176c.492 0 .896.158 1.221.484.325.325.492.729.492 1.221s-.167.897-.492 1.222a1.655 1.655 0 0 1 -1.221.492h-3.147v-3.419zm11.425 2.514c-.966 0-1.687.184-2.162.536l.185-2.971h5.484v-1.802h-7.286l-.36 7.111h1.441l.237-.299c.15-.193.44-.387.862-.58s.896-.29 1.424-.29c.711 0 1.309.246 1.793.721.474.483.72 1.081.72 1.801 0 .721-.246 1.328-.72 1.802-.475.484-1.073.721-1.793.721a4.26 4.26 0 0 1 -1.178-.15 4.575 4.575 0 0 1 -.897-.342 4.035 4.035 0 0 1 -.65-.44 4.344 4.344 0 0 1 -.396-.351 1.029 1.029 0 0 1 -.123-.159l-1.256 1.257.158.22c.123.132.299.29.545.483.246.194.536.387.87.58.334.194.764.352 1.283.493.519.14 1.063.211 1.644.211 1.336 0 2.425-.405 3.252-1.205.826-.808 1.248-1.845 1.248-3.111 0-1.23-.414-2.241-1.222-3.032-.809-.8-1.846-1.204-3.103-1.204zm170.002-.633-.272 1.354h2.707l-.563 2.698h-2.768l-.273 1.344h2.786l-.624 3.604h1.53l.624-3.604h2.97l-.624 3.604h1.53l.624-3.604h2.707l.263-1.344h-2.698l.545-2.698h2.786l.273-1.354h-2.795l.633-3.604h-1.53l-.632 3.604h-2.971l.633-3.604h-1.53l-.632 3.604zm3.964 1.354h2.971l-.545 2.698h-2.971zm9.721-4.958v12.604h4.412c1.749 0 3.252-.615 4.509-1.863 1.248-1.24 1.881-2.716 1.881-4.43 0-1.723-.633-3.199-1.881-4.438-1.257-1.248-2.76-1.864-4.509-1.864zm4.412 1.811c1.222 0 2.259.431 3.111 1.301.862.87 1.284 1.933 1.284 3.199 0 1.257-.422 2.32-1.284 3.19-.852.871-1.889 1.31-3.111 1.31h-2.435v-9zm12.955 6.653c.422 0 .782-.061 1.081-.184l-2.795 4.324h1.978l3.603-5.581.255-.36c.158-.238.325-.598.492-1.081.159-.475.246-.958.246-1.442 0-1.169-.439-2.18-1.318-3.032-.879-.853-1.934-1.283-3.182-1.283s-2.311.43-3.19 1.274c-.879.853-1.31 1.863-1.31 3.041 0 1.169.413 2.18 1.248 3.041s1.802 1.283 2.892 1.283zm-2.347-4.315c0-.721.255-1.336.783-1.846a2.672 2.672 0 0 1 1.924-.773c.756 0 1.389.263 1.916.773.519.51.783 1.125.783 1.846s-.264 1.327-.783 1.837c-.527.51-1.16.764-1.916.764-.755 0-1.397-.254-1.924-.764a2.445 2.445 0 0 1 -.783-1.837zm12.147 6.653v-3.867h5.493v-1.802h-5.493v-3.331h6.934v-1.802h-8.912v12.604h9.088v-1.802zm15.214 1.802c1.151 0 2.118-.36 2.891-1.09.774-.721 1.16-1.591 1.16-2.601 0-.378-.07-.747-.21-1.099a4.043 4.043 0 0 0 -.449-.861 3.134 3.134 0 0 0 -.571-.616c-.228-.184-.378-.307-.466-.36s-.149-.097-.193-.114l.325-.255c.202-.167.404-.457.615-.879s.317-.888.317-1.389c0-.879-.361-1.652-1.081-2.32-.721-.677-1.591-1.011-2.611-1.011h-5.124v12.604zm-3.419-1.705v-4.14h3.419c.589 0 1.081.194 1.476.598.396.395.598.888.598 1.476 0 .581-.202 1.073-.598 1.468a2.033 2.033 0 0 1 -1.476.598zm3.146-9.176c.492 0 .897.158 1.222.484.325.325.492.729.492 1.221s-.167.897-.492 1.222-.73.492-1.222.492h-3.146v-3.419zm7.199-1.723v12.604h1.977v-5.493h5.397v-1.793h-5.397v-3.516h6.838v-1.802zm11.337 0v12.604h1.978v-5.493h5.396v-1.793h-5.396v-3.516h6.838v-1.802zm177.671 3.604-.272 1.354h2.707l-.563 2.698h-2.768l-.273 1.344h2.786l-.624 3.604h1.53l.624-3.604h2.97l-.624 3.604h1.53l.624-3.604h2.707l.263-1.344h-2.698l.545-2.698h2.786l.273-1.354h-2.795l.633-3.604h-1.53l-.632 3.604h-2.971l.633-3.604h-1.53l-.632 3.604zm3.964 1.354h2.971l-.545 2.698h-2.971zm9.721-4.958v12.604h1.977v-5.493h5.397v-1.793h-5.397v-3.516h6.838v-1.802zm11.338 0v12.604h1.977v-5.493h5.397v-1.793h-5.397v-3.516h6.838v-1.802zm11.338 0v12.604h1.977v-5.493h5.397v-1.793h-5.397v-3.516h6.838v-1.802zm11.338 0v12.604h1.977v-5.493h5.397v-1.793h-5.397v-3.516h6.838v-1.802zm11.337 0v12.604h1.978v-5.493h5.396v-1.793h-5.396v-3.516h6.838v-1.802zm11.338 0v12.604h1.978v-5.493h5.396v-1.793h-5.396v-3.516h6.838v-1.802zm177.626 3.604-.272 1.354h2.707l-.563 2.698h-2.768l-.273 1.344h2.786l-.624 3.604h1.53l.624-3.604h2.97l-.624 3.604h1.53l.624-3.604h2.707l.263-1.344h-2.698l.545-2.698h2.786l.273-1.354h-2.795l.633-3.604h-1.53l-.632 3.604h-2.971l.633-3.604h-1.53l-.632 3.604zm3.964 1.354h2.971l-.545 2.698h-2.971zm13.588-4.958c-.255.51-.58.897-.976 1.178-.395.281-.966.457-1.722.536v1.354h2.25v9.536h1.977v-12.604zm9.624 10.802v-3.867h5.493v-1.802h-5.493v-3.331h6.935v-1.802h-8.912v12.604h9.087v-1.802zm13.685-10.802c-.255.51-.58.897-.976 1.178-.395.281-.967.457-1.723.536v1.354h2.25v9.536h1.978v-12.604zm9.624 10.802v-3.867h5.493v-1.802h-5.493v-3.331h6.934v-1.802h-8.912v12.604h9.088v-1.802zm13.684-10.802c-.255.51-.58.897-.975 1.178-.396.281-.967.457-1.723.536v1.354h2.25v9.536h1.978v-12.604zm9.624 10.802v-3.867h5.493v-1.802h-5.493v-3.331h6.935v-1.802h-8.912v12.604h9.088v-1.802z" fill="#333"/><path d="m1 499.501c0-12.959 10.505-23.464 23.463-23.464h225.537v46.927h-225.536c-12.959 0-23.464-10.505-23.464-23.463z" fill="#0abab5"/><path d="m250 476.037h249v46.927h-249z" fill="#d9ebff"/><path d="m499 476.037h249v46.927h-249z" fill="#fff"/><path d="m748 476.037h225.537c12.958 0 23.463 10.505 23.463 23.464 0 12.958-10.505 23.463-23.463 23.463h-225.537z" fill="#1e1e1e"/></svg>