<svg fill="none" height="76" viewBox="0 0 357 76" width="357" xmlns="http://www.w3.org/2000/svg" xmlns:xlink="http://www.w3.org/1999/xlink"><filter id="a" color-interpolation-filters="sRGB" filterUnits="userSpaceOnUse" height="75" width="192" x="0" y=".977539"><feFlood flood-opacity="0" result="BackgroundImageFix"/><feColorMatrix in="SourceAlpha" result="hardAlpha" type="matrix" values="0 0 0 0 0 0 0 0 0 0 0 0 0 0 0 0 0 0 127 0"/><feMorphology in="SourceAlpha" operator="erode" radius="12" result="effect1_dropShadow"/><feOffset dy="15"/><feGaussianBlur stdDeviation="13"/><feColorMatrix type="matrix" values="0 0 0 0 0.0594444 0 0 0 0 0.445833 0 0 0 0 0.434856 0 0 0 0.35 0"/><feBlend in2="BackgroundImageFix" mode="normal" result="effect1_dropShadow"/><feBlend in="SourceGraphic" in2="effect1_dropShadow" mode="normal" result="shape"/></filter><g filter="url(#a)"><rect fill="#0abab5" height="46" rx="12" width="164" x="14" y=".977539"/></g><path d="m29 14.9775h18c.2652 0 .5196.1054.7071.2929.1875.1876.2929.4419.2929.7071v16c0 .2653-.1054.5196-.2929.7071-.1875.1876-.4419.2929-.7071.2929h-18c-.2652 0-.5196-.1053-.7071-.2929-.1875-.1875-.2929-.4418-.2929-.7071v-16c0-.2652.1054-.5195.2929-.7071.1875-.1875.4419-.2929.7071-.2929zm17 4.238-7.928 7.1-8.072-7.122v11.784h16zm-15.489-2.238 7.55 6.662 7.441-6.662z" fill="#fff"/><path d="m63.469 27.8715-.007 1.106h-6.181v-10.031h6.181v1.106h-4.823v3.332h3.906v1.064h-3.906v3.423zm1.3211-3.619h3.458v1.057h-3.458zm5.1423 4.725v-7.091h.749c.1773 0 .287.0864.329.259l.091.728c.2613-.322.5553-.5856.882-.791.3267-.2053.7047-.308 1.134-.308.476 0 .861.133 1.155.399.2987.266.5133.6254.644 1.078.1027-.2566.2333-.4783.392-.665.1633-.1866.3453-.3406.546-.462.2007-.1213.413-.21.637-.266.2287-.056.4597-.084.693-.084.3733 0 .7047.0607.994.182.294.1167.5413.2894.742.518.2053.2287.3617.511.469.847.1073.3314.161.7117.161 1.141v4.515h-1.253v-4.515c0-.5553-.1213-.9753-.364-1.26-.2427-.2893-.5927-.434-1.05-.434-.2053 0-.4013.0374-.588.112-.182.07-.343.175-.483.315s-.252.3174-.336.532c-.0793.21-.119.455-.119.735v4.515h-1.253v-4.515c0-.5693-.1143-.994-.343-1.274s-.5623-.42-1.001-.42c-.308 0-.5927.084-.854.252-.2613.1634-.5017.3874-.721.672v5.285zm15.1897-3.192c-.574.0187-1.064.0654-1.47.14-.4013.07-.7303.1634-.987.28-.252.1167-.4363.2544-.553.413-.112.1587-.168.336-.168.532 0 .1867.0303.3477.091.483.0607.1354.1423.2474.245.336.1073.084.231.147.371.189.1447.0374.2987.056.462.056.2193 0 .42-.021.602-.063.182-.0466.3523-.112.511-.196.1633-.084.3173-.1843.462-.301.1493-.1166.294-.2496.434-.399zm-4.025-2.898c.392-.378.8143-.6603 1.267-.847.4527-.1866.9543-.28 1.505-.28.3967 0 .749.0654 1.057.196.308.1307.567.3127.777.546.21.2334.3687.5157.476.847.1073.3314.161.6954.161 1.092v4.536h-.553c-.1213 0-.2147-.0186-.28-.056-.0653-.042-.1167-.1213-.154-.238l-.14-.672c-.1867.1727-.3687.3267-.546.462-.1773.1307-.364.2427-.56.336-.196.0887-.406.1564-.63.203-.2193.0514-.4643.077-.735.077-.2753 0-.5343-.0373-.777-.112-.2427-.0793-.455-.196-.637-.35-.1773-.154-.3197-.3476-.427-.581-.1027-.238-.154-.518-.154-.84 0-.28.077-.5483.231-.805.154-.2613.4037-.4923.749-.693.3453-.2006.7957-.364 1.351-.49.5553-.1306 1.2367-.2053 2.044-.224v-.553c0-.5506-.119-.966-.357-1.246-.238-.2846-.5857-.427-1.043-.427-.308 0-.567.0397-.777.119-.2053.0747-.385.161-.539.259-.1493.0934-.28.1797-.392.259-.1073.0747-.2147.112-.322.112-.084 0-.1563-.021-.217-.063-.0607-.0466-.112-.1026-.154-.168zm8.292-1.001v7.091h-1.246v-7.091zm.266-2.226c0 .1214-.0257.2357-.077.343-.0467.1027-.112.196-.196.28-.0793.0794-.175.1424-.287.189-.1073.0467-.2217.07-.343.07s-.2357-.0233-.343-.07c-.1027-.0466-.1937-.1096-.273-.189-.0793-.084-.1423-.1773-.189-.28-.0467-.1073-.07-.2216-.07-.343 0-.1213.0233-.2356.07-.343.0467-.112.1097-.2076.189-.287.0793-.084.1703-.1493.273-.196.1073-.0466.2217-.07.343-.07s.2357.0234.343.07c.112.0467.2077.112.287.196.084.0794.1493.175.196.287.0513.1074.077.2217.077.343zm2.9043-.994v10.311h-1.246v-10.311z" fill="#fff"/><path clip-rule="evenodd" d="m193 12.9775c0-6.62738 5.373-11.999961 12-11.999961h140c6.627 0 12 5.372581 12 11.999961v22c0 6.6275-5.373 12-12 12h-140c-6.627 0-12-5.3725-12-12z" fill="#f0f5fa" fill-rule="evenodd"/><path d="m227.265 14.4053c-.285-.2368-.629-.3921-.995-.4492s-.74-.0139-1.083.125l-17.921 7.2354c-.384.1576-.71.4281-.936.7756-.226.3474-.341.7553-.329 1.1696.011.4143.148.8153.393 1.1498.244.3346.585.5868.976.7233l3.625 1.2608 2.021 6.6816c.027.0893.067.1742.118.2524.008.012.019.0209.027.0326.059.0823.13.1551.211.2157.023.0176.046.0341.07.0497.095.063.2.1091.311.1361l.012.001.006.0029c.067.0135.135.0204.203.0205.006 0 .012-.0031.018-.0032.103-.0018.204-.0195.301-.0523.023-.0077.042-.0206.064-.0299.073-.03.141-.0684.205-.1145.05-.0428.101-.0855.152-.1282l2.702-2.9834 4.03 3.1221c.355.2762.792.4263 1.241.4267.472-.0006.928-.1632 1.294-.4604.365-.2973.618-.7112.714-1.1724l3.263-16.0166c.074-.3605.048-.7343-.074-1.0814s-.336-.6545-.619-.8893zm-12.895 12.3086c-.139.1381-.233.3141-.272.5059l-.31 1.504-.784-2.5931 4.065-2.1169zm8.302 5.3037-4.763-3.6895c-.199-.1539-.449-.2272-.7-.2051s-.484.1379-.653.3243l-.866.9552.306-1.4865 7.083-7.083c.169-.1688.272-.3926.29-.6308.019-.2383-.049-.4752-.19-.6679-.142-.1926-.347-.3283-.58-.3824-.233-.0542-.477-.0232-.689.0874l-10.165 5.2926-3.724-1.3629 17.978-7.1924z" fill="#0abab5"/><path d="m245.064 20.0875h-3.248v8.89h-1.351v-8.89h-3.255v-1.141h7.854zm4.067 4.571c0-.2893-.042-.553-.126-.791-.08-.2426-.199-.4503-.357-.623-.154-.1773-.343-.3126-.567-.406-.224-.098-.479-.147-.763-.147-.598 0-1.071.175-1.421.525-.346.3454-.56.826-.644 1.442zm1.008 3.325c-.154.1867-.339.35-.553.49-.215.1354-.446.2474-.693.336-.243.0887-.495.154-.756.196-.262.0467-.521.07-.777.07-.49 0-.943-.0816-1.358-.245-.411-.168-.768-.4106-1.071-.728-.299-.322-.532-.7186-.7-1.19-.168-.4713-.252-1.0126-.252-1.624 0-.4946.074-.9566.224-1.386.154-.4293.373-.8003.658-1.113.284-.3173.632-.5646 1.043-.742.41-.182.872-.273 1.386-.273.424 0 .816.0724 1.176.217.364.14.676.3454.938.616.266.266.473.5974.623.994.149.392.224.84.224 1.344 0 .196-.021.3267-.063.392-.042.0654-.122.098-.238.098h-4.739c.014.448.074.8377.182 1.169.112.3314.266.609.462.833.196.2194.429.385.7.497.27.1074.574.161.91.161.312 0 .581-.035.805-.105.228-.0746.424-.154.588-.238.163-.084.298-.161.406-.231.112-.0746.207-.112.287-.112.102 0 .182.0397.238.119zm2.765-9.317v10.311h-1.246v-10.311zm6.602 5.992c0-.2893-.042-.553-.126-.791-.08-.2426-.199-.4503-.357-.623-.154-.1773-.343-.3126-.567-.406-.224-.098-.479-.147-.763-.147-.598 0-1.071.175-1.421.525-.346.3454-.56.826-.644 1.442zm1.008 3.325c-.154.1867-.339.35-.553.49-.215.1354-.446.2474-.693.336-.243.0887-.495.154-.756.196-.262.0467-.521.07-.777.07-.49 0-.943-.0816-1.358-.245-.411-.168-.768-.4106-1.071-.728-.299-.322-.532-.7186-.7-1.19-.168-.4713-.252-1.0126-.252-1.624 0-.4946.074-.9566.224-1.386.154-.4293.373-.8003.658-1.113.284-.3173.632-.5646 1.043-.742.41-.182.872-.273 1.386-.273.424 0 .816.0724 1.176.217.364.14.676.3454.938.616.266.266.473.5974.623.994.149.392.224.84.224 1.344 0 .196-.021.3267-.063.392-.042.0654-.122.098-.238.098h-4.739c.014.448.074.8377.182 1.169.112.3314.266.609.462.833.196.2194.429.385.7.497.27.1074.574.161.91.161.312 0 .581-.035.805-.105.228-.0746.424-.154.588-.238.163-.084.298-.161.406-.231.112-.0746.207-.112.287-.112.102 0 .182.0397.238.119zm3.948-2.471c.252 0 .474-.035.665-.105s.352-.168.483-.294.229-.2753.294-.448c.065-.1773.098-.371.098-.581 0-.434-.133-.7793-.399-1.036-.261-.2566-.642-.385-1.141-.385-.504 0-.889.1284-1.155.385-.261.2567-.392.602-.392 1.036 0 .21.033.4037.098.581.07.1727.17.322.301.448s.292.224.483.294.413.105.665.105zm2.247 3.85c0-.1726-.049-.3126-.147-.42-.098-.1073-.231-.1913-.399-.252-.163-.0606-.355-.1026-.574-.126-.219-.028-.453-.049-.7-.063-.243-.014-.49-.028-.742-.042s-.495-.0373-.728-.07c-.261.1214-.476.2754-.644.462-.163.182-.245.3967-.245.644 0 .1587.04.3057.119.441.084.14.21.259.378.357.168.1027.378.182.63.238.257.0607.558.091.903.091.336 0 .637-.0303.903-.091.266-.0606.49-.147.672-.259.187-.112.329-.245.427-.399s.147-.3243.147-.511zm1.267-7.196v.462c0 .154-.098.252-.294.294l-.805.105c.159.308.238.6487.238 1.022 0 .3454-.068.6604-.203.945-.131.28-.313.5204-.546.721-.233.2007-.513.3547-.84.462-.327.1074-.681.161-1.064.161-.331 0-.644-.0396-.938-.119-.149.0934-.264.1937-.343.301-.079.1027-.119.2077-.119.315 0 .168.068.2964.203.385.14.084.322.1447.546.182.224.0374.478.0607.763.07.289.0094.583.0257.882.049.303.0187.597.0537.882.105.289.0514.546.1354.77.252.224.1167.404.2777.539.483.14.2054.21.4714.21.798 0 .3034-.077.5974-.231.882-.149.2847-.366.5367-.651.756-.285.224-.635.4014-1.05.532-.411.1354-.875.203-1.393.203s-.971-.0513-1.358-.154c-.387-.1026-.709-.2403-.966-.413-.257-.1726-.45-.3733-.581-.602-.126-.224-.189-.4596-.189-.707 0-.35.11-.6463.329-.889.219-.2426.52-.4363.903-.581-.21-.0933-.378-.217-.504-.371-.121-.1586-.182-.371-.182-.637 0-.1026.019-.2076.056-.315.037-.112.093-.2216.168-.329.079-.112.175-.217.287-.315s.243-.1843.392-.259c-.35-.196-.623-.455-.819-.777-.196-.3266-.294-.7046-.294-1.134 0-.3453.065-.658.196-.938.135-.2846.322-.525.56-.721.238-.2006.52-.3546.847-.462.331-.1073.693-.161 1.085-.161.308 0 .595.035.861.105.266.0654.509.1634.728.294zm2.306 1.141c.224-.4853.5-.8633.826-1.134.327-.2753.726-.413 1.197-.413.15 0 .292.0164.427.049.14.0327.264.084.371.154l-.091.931c-.028.1167-.098.175-.21.175-.065 0-.161-.014-.287-.042s-.268-.042-.427-.042c-.224 0-.424.0327-.602.098-.172.0654-.329.1634-.469.294-.135.126-.259.2847-.371.476-.107.1867-.205.4014-.294.644v4.48h-1.253v-7.091h.714c.136 0 .229.0257.28.077.052.0514.087.14.105.266zm7.486 2.478c-.574.0187-1.064.0654-1.47.14-.402.07-.731.1634-.987.28-.252.1167-.437.2544-.553.413-.112.1587-.168.336-.168.532 0 .1867.03.3477.091.483.06.1354.142.2474.245.336.107.084.231.147.371.189.144.0374.298.056.462.056.219 0 .42-.021.602-.063.182-.0466.352-.112.511-.196.163-.084.317-.1843.462-.301.149-.1166.294-.2496.434-.399zm-4.025-2.898c.392-.378.814-.6603 1.267-.847.452-.1866.954-.28 1.505-.28.396 0 .749.0654 1.057.196.308.1307.567.3127.777.546.21.2334.368.5157.476.847.107.3314.161.6954.161 1.092v4.536h-.553c-.122 0-.215-.0186-.28-.056-.066-.042-.117-.1213-.154-.238l-.14-.672c-.187.1727-.369.3267-.546.462-.178.1307-.364.2427-.56.336-.196.0887-.406.1564-.63.203-.22.0514-.465.077-.735.077-.276 0-.535-.0373-.777-.112-.243-.0793-.455-.196-.637-.35-.178-.154-.32-.3476-.427-.581-.103-.238-.154-.518-.154-.84 0-.28.077-.5483.231-.805.154-.2613.403-.4923.749-.693.345-.2006.795-.364 1.351-.49.555-.1306 1.236-.2053 2.044-.224v-.553c0-.5506-.119-.966-.357-1.246-.238-.2846-.586-.427-1.043-.427-.308 0-.567.0397-.777.119-.206.0747-.385.161-.539.259-.15.0934-.28.1797-.392.259-.108.0747-.215.112-.322.112-.084 0-.157-.021-.217-.063-.061-.0466-.112-.1026-.154-.168zm6.976 6.09v-7.091h.749c.177 0 .287.0864.329.259l.091.728c.261-.322.555-.5856.882-.791.326-.2053.704-.308 1.134-.308.476 0 .861.133 1.155.399.298.266.513.6254.644 1.078.102-.2566.233-.4783.392-.665.163-.1866.345-.3406.546-.462.2-.1213.413-.21.637-.266.228-.056.459-.084.693-.084.373 0 .704.0607.994.182.294.1167.541.2894.742.518.205.2287.361.511.469.847.107.3314.161.7117.161 1.141v4.515h-1.253v-4.515c0-.5553-.122-.9753-.364-1.26-.243-.2893-.593-.434-1.05-.434-.206 0-.402.0374-.588.112-.182.07-.343.175-.483.315s-.252.3174-.336.532c-.08.21-.119.455-.119.735v4.515h-1.253v-4.515c0-.5693-.115-.994-.343-1.274-.229-.28-.563-.42-1.001-.42-.308 0-.593.084-.854.252-.262.1634-.502.3874-.721.672v5.285z" fill="#49494f"/></svg>