<svg fill="none" height="69" viewBox="0 0 133 69" width="133" xmlns="http://www.w3.org/2000/svg"><path d="m90.2448 29.8025-.1292.483zm-29.0866-5.5806-.2924.4056zm-53.23571-18.74148c-.17231-.2158-.13705-.53041.07874-.70272l3.51657-2.80785c.2157-.17231.5304-.13705.7027.07874s.137.5304-.0788.70271l-3.12578 2.49587 2.49588 3.1258c.1723.21579.137.5304-.0787.70271-.2158.1723-.5304.13705-.7028-.07874zm119.90151 49.01188c-4.922-6.0153-19.382-19.3049-37.7084-24.2068l.2584-.966c18.591 4.9727 33.217 18.4205 38.224 24.5396zm-37.7084-24.2068c-5.7581-1.5402-10.0929-2.4331-13.3462-2.8054-3.2653-.3736-5.3843-.2151-6.7468.2946-1.3151.4918-1.9416 1.3155-2.2313 2.4091-.3032 1.1443-.2374 2.5859-.0857 4.2877l-.9961.0887c-.1499-1.6828-.2395-3.2942.1151-4.6325.368-1.3891 1.2121-2.4779 2.8476-3.0897 1.5881-.594 3.8993-.7303 7.2109-.3514 3.3236.3803 7.7123 1.2872 13.4909 2.8329zm-22.41 4.186c.2957 3.3189 1.5432 7.778 3.2428 11.3193.8502 1.7714 1.7989 3.2821 2.7743 4.3022.9879 1.0332 1.9111 1.472 2.7322 1.3467l.1509.9886c-1.3089.1997-2.5406-.5301-3.6059-1.6442-1.0777-1.1271-2.0804-2.7423-2.953-4.5606-1.746-3.638-3.0299-8.213-3.3374-11.6633zm8.7493 16.9682c.83-.1266 1.6249-.792 2.027-2.0731.4029-1.2835.392-3.1563-.4243-5.5395-1.6322-4.7658-6.4489-11.4556-17.1918-19.1996l.5848-.8112c10.8275 7.805 15.8268 14.6463 17.5531 19.6868.863 2.5199.9169 4.6191.4323 6.163-.4854 1.5463-1.5303 2.5638-2.8302 2.7622zm-15.5891-26.8122c-17.1552-12.3664-42.2199-17.79813-52.60826-18.96218l.11136-.99378c10.4613 1.17222 35.7244 6.63266 53.0817 19.14476z" fill="#333"/></svg>