<svg fill="none" height="73" viewBox="0 0 67 73" width="67" xmlns="http://www.w3.org/2000/svg"><path d="m55.8018 70.7907c.2727-.0431.4588-.2992.4157-.572l-.7032-4.4447c-.0431-.2727-.2992-.4589-.572-.4157-.2727.0431-.4588.2992-.4157.572l.625 3.9508-3.9508.6251c-.2728.0431-.4589.2992-.4157.572.0431.2727.2992.4588.5719.4157zm-.0782-.4938c.294-.4045.2939-.4046.2936-.4048s-.0007-.0005-.0013-.0009c-.0012-.0009-.0031-.0023-.0056-.0041-.005-.0036-.0126-.0092-.0227-.0165-.0202-.0148-.0505-.0369-.0905-.0664-.0802-.0588-.1995-.1467-.3554-.2623-.3119-.2314-.7704-.574-1.3556-1.018-1.1705-.8881-2.8478-2.182-4.8729-3.8036-4.0509-3.2436-9.4908-7.7962-15.0496-13.0334-5.5604-5.2388-11.2306-11.154-15.7477-17.1227-4.5248-5.9788-7.8558-11.9639-8.79978-17.3459l-.98497.1728c.9854 5.618 4.43165 11.7569 8.98735 17.7766 4.5634 6.0299 10.2771 11.9877 15.8593 17.247 5.5838 5.2608 11.0454 9.8313 15.1103 13.0862 2.0328 1.6277 3.717 2.9269 4.8935 3.8196.5883.4464 1.0497.7911 1.3643 1.0245.1573.1167.278.2056.3594.2654.0407.0299.0717.0525.0925.0677.0104.0076.0183.0134.0236.0172.0027.002.0047.0034.0061.0044.0007.0005.0012.0009.0016.0012.0003.0003.0006.0004.2945-.404zm-46.00748-53.0786c-.46928-2.6754-.21166-4.7759.55378-6.4218.7644-1.64383 2.0579-2.88281 3.7483-3.79729 3.4062-1.8428 8.3602-2.33272 13.5293-2.12969 5.1498.20227 10.429 1.08773 14.4276 1.92523 1.9976.41841 3.6721.8241 4.8465 1.12499.5872.15043 1.0491.27462 1.3638.36105.1573.04322.2778.07699.3587.09988.0404.01145.071.02017.0913.02599.0101.00291.0177.0051.0227.00654.0025.00072.0043.00125.0055.00159.0006.00017.001.00029.0013.00037.0002.00007.0003.00008.1399-.48003.1396-.48012.1393-.4802.1388-.48032-.0003-.00011-.0009-.00029-.0017-.0005-.0014-.00042-.0035-.00103-.0063-.00183-.0055-.0016-.0137-.00395-.0244-.00703-.0215-.00615-.0532-.01521-.0948-.02699-.0833-.02356-.2062-.05803-.3661-.10195-.3198-.08784-.7873-.21352-1.3805-.36549-1.1861-.30389-2.8752-.71309-4.8897-1.13503-4.0258-.8432-9.3655-1.74036-14.5933-1.9457-5.2085-.20457-10.3911.27289-14.0445 2.24939-1.8395.99516-3.3066 2.3788-4.1792 4.25512-.87162 1.8744-1.12738 4.1917-.63195 7.0163z" fill="#333"/></svg>