<svg width="386" height="181" fill="none" xmlns="http://www.w3.org/2000/svg"><rect width="386" height="180.838" rx="21.151" fill="#fff"/><path d="M30.974 37.094h-1.288a.62.62 0 01-.37-.111 1.262 1.262 0 01-.281-.34l-2.806-3.887c-.128-.193-.267-.326-.415-.4-.148-.079-.35-.118-.607-.118h-1.273v4.856h-1.429V26.486h1.43v4.648h1.102c.222 0 .41-.034.563-.103.158-.07.313-.205.466-.407l2.776-3.731a.999.999 0 01.267-.289.625.625 0 01.377-.118h1.207l-3.206 4.36c-.241.34-.552.575-.932.703.261.07.48.18.659.333.182.148.355.356.518.622l3.242 4.59zm4.936-3.376c-.606.02-1.125.07-1.554.148a4.376 4.376 0 00-1.044.296c-.266.124-.461.27-.585.437a.953.953 0 00-.177.563c0 .197.032.367.096.51.064.144.15.262.259.356.114.089.244.155.392.2.153.04.316.059.489.059.232 0 .444-.022.636-.067.193-.05.373-.118.54-.207.174-.089.336-.195.49-.318a4.04 4.04 0 00.459-.422v-1.555zm-4.256-3.065c.415-.4.861-.698 1.34-.895a4.137 4.137 0 011.591-.296c.42 0 .792.069 1.118.207.326.138.6.33.822.577.222.247.39.546.503.896.114.35.17.735.17 1.155v4.797h-.584a.604.604 0 01-.296-.06c-.07-.044-.124-.128-.163-.251l-.148-.71c-.198.182-.39.345-.578.488a3.624 3.624 0 01-.592.355c-.207.094-.43.165-.666.215a3.417 3.417 0 01-.777.081c-.292 0-.566-.04-.822-.118a1.985 1.985 0 01-.674-.37 1.794 1.794 0 01-.451-.615 2.231 2.231 0 01-.163-.888c0-.296.081-.58.244-.851.163-.277.427-.521.792-.733.365-.212.842-.385 1.429-.519.587-.138 1.308-.217 2.161-.236v-.585c0-.583-.125-1.022-.377-1.318-.252-.301-.62-.451-1.103-.451-.326 0-.6.042-.822.125-.217.08-.407.17-.57.274-.158.099-.296.19-.414.274a.594.594 0 01-.34.119.393.393 0 01-.23-.067.7.7 0 01-.163-.178l-.237-.422zm13.634-1.058v7.499h-1.325v-3.51h-3.598v3.51H39.04v-7.5h1.325v2.992h3.598v-2.991h1.325zm5.994 4.123c-.607.02-1.125.07-1.555.148a4.373 4.373 0 00-1.044.296c-.266.124-.461.27-.584.437a.953.953 0 00-.178.563c0 .197.032.367.096.51.064.144.15.262.26.356.113.089.243.155.392.2.153.04.315.059.488.059.232 0 .444-.022.637-.067.192-.05.372-.118.54-.207a2.86 2.86 0 00.489-.318 4.03 4.03 0 00.459-.422v-1.555zm-4.257-3.065a4.28 4.28 0 011.34-.895 4.138 4.138 0 011.592-.296c.42 0 .792.069 1.117.207.326.138.6.33.822.577.222.247.39.546.504.896.113.35.17.735.17 1.155v4.797h-.585a.604.604 0 01-.296-.06c-.07-.044-.123-.128-.163-.251l-.148-.71c-.197.182-.39.345-.578.488a3.624 3.624 0 01-.592.355c-.207.094-.429.165-.666.215a3.417 3.417 0 01-.777.081c-.291 0-.565-.04-.822-.118a1.986 1.986 0 01-.674-.37 1.792 1.792 0 01-.451-.615 2.23 2.23 0 01-.163-.888c0-.296.081-.58.244-.851.163-.277.427-.521.792-.733.366-.212.842-.385 1.43-.519.586-.138 1.307-.217 2.16-.236v-.585c0-.583-.125-1.022-.377-1.318-.252-.301-.62-.451-1.103-.451-.326 0-.6.042-.822.125-.217.08-.407.17-.57.274-.157.099-.296.19-.414.274a.594.594 0 01-.34.119.393.393 0 01-.23-.067.701.701 0 01-.163-.178l-.237-.422zm13.96 6.44h-1.317v-6.462h-2.37c-.059.953-.147 1.777-.266 2.473-.118.69-.261 1.28-.43 1.769-.162.484-.347.878-.554 1.184a2.813 2.813 0 01-.644.704 1.904 1.904 0 01-.696.34c-.237.06-.474.089-.71.089-.42 0-.63-.067-.63-.2v-.836h.385c.168 0 .338-.03.51-.09.173-.059.341-.172.504-.34.168-.168.328-.402.481-.703.153-.306.291-.7.415-1.184.128-.489.237-1.079.325-1.77.094-.696.166-1.52.215-2.472h4.782v7.499zm10.764-6.166a.587.587 0 01-.119.126.266.266 0 01-.163.044.45.45 0 01-.244-.088 3.372 3.372 0 00-.333-.208 2.363 2.363 0 00-.481-.2 2.173 2.173 0 00-.696-.096c-.37 0-.696.067-.977.2a1.878 1.878 0 00-.71.563c-.188.247-.332.545-.43.895-.094.35-.14.743-.14 1.178 0 .454.05.858.154 1.214.104.35.25.646.437.888.193.237.422.42.689.548.271.123.575.185.91.185.321 0 .585-.037.792-.111.208-.08.378-.166.511-.26.138-.093.252-.177.34-.251a.431.431 0 01.275-.119.29.29 0 01.251.126l.37.482a2.627 2.627 0 01-.555.518 3.529 3.529 0 01-.673.362 3.719 3.719 0 01-.748.208 4.77 4.77 0 01-.8.066c-.468 0-.905-.086-1.31-.259a3.01 3.01 0 01-1.044-.747 3.56 3.56 0 01-.696-1.214c-.167-.48-.251-1.024-.251-1.636 0-.558.076-1.074.23-1.548.157-.473.384-.88.68-1.221a3.119 3.119 0 011.103-.807c.44-.192.943-.289 1.51-.289.528 0 .992.087 1.392.26.405.167.763.407 1.074.717l-.348.474zm4.565 5.241c.494 0 .884-.113 1.17-.34.286-.232.43-.548.43-.948 0-.177-.028-.338-.082-.48a.936.936 0 00-.267-.386 1.267 1.267 0 00-.496-.252 2.698 2.698 0 00-.747-.088H74.7v2.494h1.613zm-1.613-5.685v2.354h1.443c.217 0 .417-.03.6-.089.187-.064.347-.15.48-.259.134-.113.238-.246.312-.4a1.206 1.206 0 00.037-.917.82.82 0 00-.252-.348 1.264 1.264 0 00-.466-.245 2.272 2.272 0 00-.711-.096H74.7zm1.48-.888c.464 0 .861.047 1.192.14.33.094.602.223.814.385.212.158.368.346.466.563.1.217.149.45.149.696 0 .163-.023.333-.067.51a1.685 1.685 0 01-.688.955 2.25 2.25 0 01-.711.304c.572.099 1.014.299 1.325.6.31.296.466.688.466 1.177 0 .365-.074.683-.222.955a1.955 1.955 0 01-.6.673 2.622 2.622 0 01-.888.408 4.33 4.33 0 01-1.095.133h-2.887v-7.5h2.746zm8.335 3.501v-2.613h-1.258a1.78 1.78 0 00-.71.126 1.29 1.29 0 00-.467.31 1.1 1.1 0 00-.244.423c-.05.153-.074.306-.074.459 0 .405.148.723.444.955.296.227.7.34 1.214.34h1.095zm1.259-3.501v7.499h-1.259v-3.161h-.577a1.39 1.39 0 00-.348.037.842.842 0 00-.237.089.633.633 0 00-.17.155c-.05.06-.101.128-.156.207l-1.643 2.214a.864.864 0 01-.31.348c-.12.074-.294.11-.526.11h-.918l2.176-2.827c.178-.296.412-.494.703-.592-.38-.05-.7-.139-.962-.267a2.3 2.3 0 01-.644-.451 1.678 1.678 0 01-.355-.585 1.941 1.941 0 01-.112-.644c0-.257.05-.514.149-.77.103-.257.266-.484.488-.681.222-.203.508-.365.859-.489.355-.128.785-.192 1.288-.192h2.554zm1.458.77a3.249 3.249 0 011.022-.644c.404-.163.89-.245 1.458-.245.454 0 .854.057 1.2.17.345.11.633.255.865.437.237.183.415.393.533.63.124.232.186.473.186.725 0 .148-.025.304-.075.466-.044.163-.12.319-.229.467-.108.148-.25.286-.422.414a2.116 2.116 0 01-.644.311c.479.143.854.373 1.125.689.277.316.415.703.415 1.162 0 .345-.08.659-.237.94-.158.276-.37.513-.637.71-.266.193-.577.341-.933.445-.35.104-.718.155-1.103.155-.241 0-.488-.022-.74-.066a3.796 3.796 0 01-.725-.208 3.854 3.854 0 01-.674-.362 2.632 2.632 0 01-.555-.518l.37-.482a.29.29 0 01.252-.126.46.46 0 01.281.119c.104.074.23.158.378.252.148.093.328.18.54.259.217.074.481.11.792.11.272 0 .513-.031.726-.095.217-.07.4-.163.547-.282a1.205 1.205 0 00.459-.955c0-.37-.155-.668-.466-.895-.306-.227-.772-.34-1.4-.34h-.85v-.874h.85c.272 0 .517-.028.734-.082a1.98 1.98 0 00.555-.237c.153-.099.269-.217.348-.355a.936.936 0 00-.289-1.229 1.593 1.593 0 00-.503-.237 2.543 2.543 0 00-.71-.089c-.297 0-.549.03-.756.09a3.41 3.41 0 00-.518.192c-.138.069-.252.133-.34.192a.437.437 0 01-.23.089.33.33 0 01-.163-.037.493.493 0 01-.133-.156l-.304-.51zm13.393-.77v7.499h-1.318V32c0-.099.005-.205.015-.319.01-.113.022-.227.037-.34-.045.099-.09.19-.134.274-.044.084-.09.16-.14.23l-3.62 4.922a1.262 1.262 0 01-.207.23.394.394 0 01-.267.103h-.8v-7.499h1.326v5.093c0 .094-.005.198-.015.311-.01.109-.022.22-.037.333.044-.093.089-.18.133-.259.044-.084.089-.16.133-.23l3.62-4.922c.054-.08.124-.153.207-.222a.406.406 0 01.274-.111h.793zm10.759 1.332a.612.612 0 01-.118.126.268.268 0 01-.163.044.453.453 0 01-.245-.088 3.297 3.297 0 00-.333-.208 2.34 2.34 0 00-.481-.2 2.169 2.169 0 00-.696-.096c-.37 0-.696.067-.977.2a1.885 1.885 0 00-.711.563c-.187.247-.33.545-.429.895-.094.35-.141.743-.141 1.178 0 .454.052.858.156 1.214.103.35.249.646.437.888.192.237.422.42.688.548.271.123.575.185.911.185.32 0 .584-.037.792-.111.207-.08.377-.166.51-.26.139-.093.252-.177.341-.251a.431.431 0 01.274-.119c.108 0 .192.042.252.126l.37.482a2.638 2.638 0 01-.555.518 3.547 3.547 0 01-.674.362 3.716 3.716 0 01-.748.208 4.762 4.762 0 01-.799.066c-.469 0-.906-.086-1.311-.259a3.012 3.012 0 01-1.043-.747 3.564 3.564 0 01-.696-1.214c-.168-.48-.252-1.024-.252-1.636 0-.558.077-1.074.23-1.548.157-.473.385-.88.681-1.221a3.112 3.112 0 011.103-.807c.439-.192.942-.289 1.51-.289.528 0 .992.087 1.391.26.405.167.763.407 1.074.717l-.348.474zm11.557 6.167h-1.326v-6.492h-3.597v6.492h-1.325v-7.5h6.248v7.5zm5.09-7.618a3.82 3.82 0 011.48.274c.44.183.815.442 1.126.777.311.336.547.743.71 1.222.168.474.252 1.004.252 1.592 0 .592-.084 1.125-.252 1.599a3.374 3.374 0 01-.71 1.214 3.17 3.17 0 01-1.126.777 3.912 3.912 0 01-1.48.266 4 4 0 01-1.496-.266 3.175 3.175 0 01-1.125-.777 3.463 3.463 0 01-.718-1.214 4.897 4.897 0 01-.244-1.6c0-.587.081-1.117.244-1.591.168-.479.407-.886.718-1.221a3.175 3.175 0 011.125-.778 3.906 3.906 0 011.496-.274zm0 6.692c.74 0 1.293-.246 1.658-.74.365-.498.548-1.192.548-2.08 0-.893-.183-1.59-.548-2.088-.365-.498-.918-.747-1.658-.747-.375 0-.703.064-.985.192a1.867 1.867 0 00-.696.555c-.182.242-.32.54-.414.896-.089.35-.133.748-.133 1.192 0 .888.182 1.582.547 2.08.371.494.931.74 1.681.74zm10.293-5.24a.589.589 0 01-.119.125.263.263 0 01-.162.044.453.453 0 01-.245-.088 3.414 3.414 0 00-.333-.208 2.365 2.365 0 00-.481-.2 2.177 2.177 0 00-.696-.096c-.37 0-.696.067-.977.2a1.885 1.885 0 00-.711.563c-.187.247-.33.545-.429.895-.094.35-.141.743-.141 1.178 0 .454.052.858.156 1.214.103.35.249.646.436.888.193.237.422.42.689.548.271.123.575.185.91.185.321 0 .585-.037.793-.111.207-.08.377-.166.51-.26.139-.093.252-.177.341-.251a.431.431 0 01.274-.119.29.29 0 01.251.126l.371.482a2.619 2.619 0 01-.556.518 3.509 3.509 0 01-.673.362 3.716 3.716 0 01-.748.208 4.762 4.762 0 01-.799.066c-.469 0-.906-.086-1.311-.259a3.012 3.012 0 01-1.043-.747 3.532 3.532 0 01-.696-1.214c-.168-.48-.252-1.024-.252-1.636 0-.558.076-1.074.229-1.548.158-.473.385-.88.682-1.221a3.112 3.112 0 011.103-.807c.439-.192.942-.289 1.51-.289.528 0 .992.087 1.391.26.405.167.763.407 1.074.717l-.348.474zm7.919-.326h-2.88v6.492h-1.317v-6.492h-2.88v-1.007h7.077v1.007zm5.083 3.116c-.607.02-1.125.07-1.555.148a4.39 4.39 0 00-1.044.296c-.266.124-.461.27-.584.437a.95.95 0 00-.178.563c0 .197.032.367.096.51.064.144.151.262.259.356.114.089.245.155.393.2.153.04.315.059.488.059.232 0 .444-.022.637-.067.192-.05.372-.118.54-.207a2.85 2.85 0 00.489-.318c.158-.124.311-.264.459-.422v-1.555zm-4.257-3.065c.415-.4.861-.698 1.34-.895a4.138 4.138 0 011.592-.296c.419 0 .792.069 1.117.207.326.138.6.33.822.577.222.247.39.546.504.896.113.35.17.735.17 1.155v4.797h-.585a.604.604 0 01-.296-.06c-.069-.044-.123-.128-.163-.251l-.148-.71c-.197.182-.39.345-.577.488a3.622 3.622 0 01-.593.355 3.18 3.18 0 01-.666.215 3.416 3.416 0 01-.777.081c-.291 0-.565-.04-.822-.118a1.988 1.988 0 01-.674-.37 1.791 1.791 0 01-.451-.615 2.222 2.222 0 01-.163-.888c0-.296.081-.58.244-.851.163-.277.427-.521.792-.733.366-.212.842-.385 1.429-.519.587-.138 1.308-.217 2.162-.236v-.585c0-.583-.126-1.022-.378-1.318-.251-.301-.619-.451-1.103-.451-.326 0-.599.042-.822.125-.217.08-.407.17-.57.274a8.92 8.92 0 00-.414.274.595.595 0 01-.341.119.393.393 0 01-.229-.067.696.696 0 01-.163-.178l-.237-.422zm10.266 5.515c.494 0 .884-.113 1.17-.34.286-.232.429-.548.429-.948 0-.177-.027-.338-.081-.48a.93.93 0 00-.267-.386 1.259 1.259 0 00-.496-.252 2.693 2.693 0 00-.747-.088h-1.621v2.494h1.613zm-1.613-5.685v2.354h1.443c.217 0 .417-.03.6-.089.187-.064.348-.15.481-.259a1.22 1.22 0 00.311-.4 1.206 1.206 0 00.037-.917.822.822 0 00-.252-.348 1.263 1.263 0 00-.466-.245 2.277 2.277 0 00-.711-.096h-1.443zm1.48-.888c.464 0 .861.047 1.192.14.331.094.602.223.814.385.212.158.368.346.467.563.098.217.148.45.148.696 0 .163-.023.333-.067.51a1.68 1.68 0 01-.688.955 2.26 2.26 0 01-.711.304c.572.099 1.014.299 1.325.6.311.296.466.688.466 1.177 0 .365-.074.683-.222.955a1.958 1.958 0 01-.599.673 2.623 2.623 0 01-.889.408 4.32 4.32 0 01-1.095.133h-2.887v-7.5h2.746zm15.9 6.5v3.175c0 .128-.037.227-.111.296a.356.356 0 01-.274.111h-.814v-2.583h-10.268v-7.5h1.325v6.5h3.058v-6.5h1.325v6.5h3.057v-6.5h1.325v6.5h1.377zm7.597-6.5v7.499h-1.318V32c0-.099.005-.205.015-.319.01-.113.022-.227.037-.34-.045.099-.089.19-.133.274-.045.084-.092.16-.141.23l-3.62 4.922a1.245 1.245 0 01-.207.23.395.395 0 01-.267.103h-.799v-7.499h1.325v5.093c0 .094-.005.198-.015.311-.01.109-.022.22-.037.333a4.18 4.18 0 01.133-.259c.045-.084.089-.16.133-.23l3.62-4.922a1.11 1.11 0 01.208-.222.406.406 0 01.274-.111h.792zm6.47.37a.827.827 0 01.274-.267.684.684 0 01.363-.103h1.029l-1.947 2.857a2.386 2.386 0 01-.37.452 1.392 1.392 0 01-.474.266c.237.064.437.166.599.304.163.133.309.306.437.518l1.969 3.102h-.918c-.236 0-.419-.04-.547-.119a1.047 1.047 0 01-.334-.34l-1.458-2.332c-.232-.385-.58-.578-1.044-.578h-.807v3.376h-1.325v-7.506h1.325v3.242h.711c.395 0 .703-.168.925-.503l1.592-2.37zm5.817-.489a3.82 3.82 0 011.48.274c.44.183.815.442 1.126.777.31.336.547.743.71 1.222.168.474.252 1.004.252 1.592 0 .592-.084 1.125-.252 1.599-.163.473-.4.878-.71 1.214a3.17 3.17 0 01-1.126.777 3.912 3.912 0 01-1.48.266 4 4 0 01-1.496-.266 3.175 3.175 0 01-1.125-.777 3.463 3.463 0 01-.718-1.214 4.897 4.897 0 01-.244-1.6c0-.587.081-1.117.244-1.591.168-.479.407-.886.718-1.221a3.175 3.175 0 011.125-.778 3.906 3.906 0 011.496-.274zm0 6.692c.74 0 1.293-.246 1.658-.74.365-.498.548-1.192.548-2.08 0-.893-.183-1.59-.548-2.088-.365-.498-.918-.747-1.658-.747-.375 0-.703.064-.985.192a1.867 1.867 0 00-.696.555c-.182.242-.32.54-.414.896-.089.35-.133.748-.133 1.192 0 .888.182 1.582.547 2.08.371.494.931.74 1.681.74zm13.432-6.595v7.52h-1.192v-4.981c0-.139.007-.292.022-.46.02-.172.044-.332.074-.48l-2.606 4.567a.49.49 0 01-.155.178.38.38 0 01-.222.066h-.148a.417.417 0 01-.385-.244l-2.651-4.582c.025.148.047.31.067.488.02.173.03.329.03.467v4.982h-1.192v-7.521h1.058c.094 0 .186.022.274.066.089.04.166.116.23.23l2.339 3.908c.114.227.215.467.304.718.084-.261.182-.5.296-.718l2.295-3.908a.506.506 0 01.229-.237c.089-.04.18-.06.274-.06h1.059z" fill="#979797"/><path fill-rule="evenodd" clip-rule="evenodd" d="M21.15 60.284c0-6.64 5.384-12.024 12.025-12.024H173.46c6.641 0 12.024 5.383 12.024 12.024V82.33c0 6.64-5.383 12.024-12.024 12.024H33.175c-6.64 0-12.024-5.383-12.024-12.024V60.284z" fill="#0ABAB5"/><path d="M36.18 62.29h18.037a1.002 1.002 0 011.002 1.001v16.033a1.002 1.002 0 01-1.002 1.002H36.18a1.002 1.002 0 01-1.002-1.002V63.29a1.002 1.002 0 011.002-1.002zm17.035 4.246L45.27 73.65l-8.089-7.136v11.808h16.033V66.536zm-15.52-2.243l7.565 6.676 7.456-6.676H37.694zM70.72 75.177l-.006 1.108H64.52V66.234h6.194v1.108H65.88v3.339h3.914v1.066H65.88v3.43h4.84zm1.325-3.627h3.465v1.06h-3.466v-1.06zm5.152 4.735V69.18h.75c.178 0 .288.086.33.26l.092.729c.261-.323.556-.587.883-.793a2.09 2.09 0 011.137-.309c.477 0 .862.134 1.157.4.3.267.514.627.645 1.08.103-.257.234-.479.393-.666a2.324 2.324 0 011.186-.73c.229-.055.46-.084.694-.084.374 0 .706.061.996.183.295.117.543.29.744.519.205.23.362.512.47.849.107.332.16.713.16 1.143v4.524H85.58v-4.524c0-.556-.121-.977-.364-1.263-.244-.29-.594-.434-1.053-.434a1.57 1.57 0 00-.589.112c-.182.07-.343.175-.484.315a1.53 1.53 0 00-.336.534c-.08.21-.12.455-.12.736v4.524h-1.255v-4.524c0-.57-.115-.996-.344-1.277-.23-.28-.563-.42-1.003-.42-.309 0-.594.084-.856.252a2.783 2.783 0 00-.722.673v5.296h-1.256zm15.22-3.198c-.574.018-1.065.065-1.472.14-.402.07-.732.164-.99.28-.252.117-.436.255-.553.414a.903.903 0 00-.169.533c0 .188.03.349.092.484a.95.95 0 00.245.337c.108.084.232.147.372.19.145.037.3.056.463.056.22 0 .42-.021.603-.064.182-.046.353-.112.512-.196.164-.084.318-.185.463-.301.15-.117.295-.25.435-.4v-1.473zm-4.032-2.904a4.056 4.056 0 011.27-.849 3.92 3.92 0 011.507-.28c.398 0 .75.065 1.06.196.308.13.568.313.778.547.21.234.37.517.477.849.108.332.161.697.161 1.094v4.545h-.554a.571.571 0 01-.28-.056c-.066-.042-.117-.121-.155-.238l-.14-.674c-.187.173-.37.328-.547.463a3.425 3.425 0 01-.561.337 3.015 3.015 0 01-.631.203c-.22.052-.466.077-.737.077-.276 0-.535-.037-.779-.112a1.88 1.88 0 01-.638-.35 1.698 1.698 0 01-.428-.583 2.113 2.113 0 01-.154-.841c0-.281.077-.55.231-.807.155-.262.405-.493.751-.694.346-.202.797-.365 1.354-.492.556-.13 1.239-.205 2.048-.224v-.554c0-.552-.12-.968-.358-1.249-.238-.285-.587-.427-1.045-.427-.309 0-.568.04-.778.119a2.76 2.76 0 00-.54.26c-.15.093-.281.18-.393.259a.563.563 0 01-.323.112.372.372 0 01-.218-.063.661.661 0 01-.154-.168l-.224-.4zm8.309-1.003v7.105h-1.249V69.18h1.249zm.266-2.23a.785.785 0 01-.077.343.951.951 0 01-.197.28.88.88 0 01-.287.19.854.854 0 01-.344.07.853.853 0 01-.617-.26 1.024 1.024 0 01-.19-.28.853.853 0 01-.07-.344c0-.121.024-.236.07-.343a.88.88 0 01.19-.288c.08-.084.17-.15.274-.197a.853.853 0 01.343-.07c.122 0 .236.024.344.07a.83.83 0 01.287.197c.085.08.15.175.197.288a.786.786 0 01.077.343zm2.91-.997v10.332h-1.248V65.953h1.248z" fill="#fff"/><path fill-rule="evenodd" clip-rule="evenodd" d="M200.516 60.284c0-6.64 5.384-12.024 12.025-12.024h140.284c6.641 0 12.025 5.383 12.025 12.024V82.33c0 6.64-5.384 12.024-12.025 12.024H212.541c-6.641 0-12.025-5.383-12.025-12.024V60.284z" fill="#F0F5FA"/><path d="M234.851 61.717a2.05 2.05 0 00-2.082-.325l-17.957 7.25a2.052 2.052 0 00-1.268 1.95 2.053 2.053 0 001.372 1.876l3.633 1.263 2.024 6.696c.028.09.068.174.119.253.008.012.019.02.027.032a.995.995 0 00.282.266c.095.063.2.11.311.137h.012l.007.004c.066.013.134.02.202.02.007 0 .013-.003.019-.003a.995.995 0 00.302-.053c.022-.007.042-.02.064-.03.072-.03.141-.068.205-.114l.152-.129 2.708-2.99 4.038 3.13c.356.276.793.426 1.244.427a2.058 2.058 0 002.012-1.636l3.269-16.05a2.029 2.029 0 00-.695-1.974zm-12.92 12.334a.994.994 0 00-.273.506l-.311 1.507-.785-2.598 4.073-2.121-2.704 2.706zm8.318 5.314l-4.772-3.697a1.004 1.004 0 00-1.356.12l-.868.957.307-1.49 7.097-7.097a.997.997 0 00.1-1.302.998.998 0 00-1.271-.295L219.3 71.864l-3.732-1.366 18.015-7.207-3.334 16.074z" fill="#0ABAB5"/><path d="M252.686 67.377h-3.255v8.908h-1.354v-8.908h-3.261v-1.143h7.87v1.143zm4.074 4.58c0-.29-.042-.554-.126-.792a1.674 1.674 0 00-.358-.625 1.502 1.502 0 00-.568-.406 1.886 1.886 0 00-.764-.148c-.599 0-1.073.176-1.424.526-.346.347-.561.828-.645 1.445h3.885zm1.01 3.332c-.154.187-.339.35-.554.491a3.52 3.52 0 01-.694.337 4.091 4.091 0 01-.758.196c-.261.047-.521.07-.778.07-.491 0-.945-.081-1.361-.245a3.086 3.086 0 01-1.073-.73 3.428 3.428 0 01-.702-1.192c-.168-.472-.252-1.015-.252-1.627 0-.496.075-.959.224-1.39a3.28 3.28 0 01.66-1.114 2.952 2.952 0 011.045-.744 3.39 3.39 0 011.389-.273c.425 0 .818.072 1.178.217.365.14.678.346.94.617.266.267.475.599.624.996.15.393.225.842.225 1.347 0 .196-.021.327-.063.393-.043.065-.122.098-.239.098h-4.749c.014.449.075.84.183 1.171.112.332.266.61.463.835.196.22.43.386.701.498.271.108.575.161.912.161.313 0 .582-.035.807-.105a4.065 4.065 0 00.996-.47.55.55 0 01.287-.112c.103 0 .183.04.239.12l.35.455zm2.772-9.336v10.332h-1.249V65.953h1.249zm6.615 6.004c0-.29-.043-.554-.127-.792a1.672 1.672 0 00-.357-.625 1.514 1.514 0 00-.569-.406 1.886 1.886 0 00-.764-.148c-.599 0-1.073.176-1.424.526-.346.347-.561.828-.645 1.445h3.886zm1.01 3.332c-.155.187-.339.35-.555.491a3.52 3.52 0 01-.694.337 4.101 4.101 0 01-.757.196c-.262.047-.522.07-.779.07-.491 0-.945-.081-1.361-.245a3.086 3.086 0 01-1.073-.73 3.411 3.411 0 01-.701-1.192c-.169-.472-.253-1.015-.253-1.627 0-.496.075-.959.225-1.39.154-.43.374-.801.659-1.114a2.96 2.96 0 011.045-.744 3.393 3.393 0 011.389-.273c.425 0 .818.072 1.178.217.365.14.678.346.94.617.267.267.475.599.624.996.15.393.225.842.225 1.347 0 .196-.021.327-.063.393-.042.065-.122.098-.239.098h-4.748c.014.449.074.84.182 1.171.112.332.267.61.463.835.196.22.43.386.701.498.272.108.575.161.912.161.313 0 .582-.035.807-.105a4.065 4.065 0 00.996-.47.55.55 0 01.287-.112c.103 0 .183.04.239.12l.351.455zm3.956-2.476c.253 0 .475-.035.666-.105.192-.07.354-.168.484-.295.131-.126.23-.276.295-.449a1.66 1.66 0 00.098-.582c0-.435-.133-.78-.4-1.038-.261-.257-.643-.386-1.143-.386-.505 0-.891.129-1.157.386-.262.257-.393.603-.393 1.038 0 .21.033.405.098.582a1.287 1.287 0 00.786.744c.191.07.414.105.666.105zm2.252 3.858a.596.596 0 00-.148-.42.977.977 0 00-.399-.253 2.39 2.39 0 00-.576-.127 9.976 9.976 0 00-.701-.063l-.744-.042a8.793 8.793 0 01-.729-.07 1.963 1.963 0 00-.645.463.934.934 0 00-.127 1.087c.085.14.211.26.379.358.169.103.379.182.631.238.258.061.559.091.905.091.337 0 .639-.03.905-.09.267-.062.491-.148.674-.26a1.26 1.26 0 00.427-.4.928.928 0 00.148-.512zm1.269-7.21v.462c0 .155-.098.253-.294.295l-.807.105c.159.309.239.65.239 1.024a2.172 2.172 0 01-.751 1.67 2.441 2.441 0 01-.842.463 3.393 3.393 0 01-1.066.16c-.332 0-.645-.039-.94-.118a1.23 1.23 0 00-.343.301.51.51 0 00-.12.316c0 .168.068.297.204.386.14.084.322.144.547.182.224.037.479.06.764.07.29.01.585.026.884.05.304.018.599.053.884.104.29.052.547.136.772.253.224.117.404.278.54.484.14.206.21.472.21.8 0 .303-.077.598-.231.883-.15.286-.368.538-.653.758a3.27 3.27 0 01-1.052.533 4.448 4.448 0 01-1.396.203c-.519 0-.972-.051-1.36-.154a3.18 3.18 0 01-.968-.414 1.821 1.821 0 01-.583-.603 1.427 1.427 0 01-.189-.709c0-.35.11-.647.33-.89.219-.243.521-.438.904-.582a1.352 1.352 0 01-.505-.372c-.121-.16-.182-.372-.182-.638 0-.103.019-.209.056-.316.038-.112.094-.222.169-.33a1.799 1.799 0 01.68-.575 2.196 2.196 0 01-.821-.779 2.169 2.169 0 01-.294-1.136c0-.346.065-.66.196-.94a2.09 2.09 0 01.561-.722c.239-.201.522-.356.849-.463a3.51 3.51 0 011.087-.161c.309 0 .596.035.863.105.266.065.51.163.729.294h1.929zm2.311 1.143c.225-.487.501-.865.828-1.137.327-.276.727-.413 1.2-.413.149 0 .292.016.427.049.141.032.265.084.372.154l-.091.933c-.028.117-.098.175-.21.175-.066 0-.162-.014-.288-.042a1.977 1.977 0 00-.428-.042c-.224 0-.425.033-.603.098-.173.066-.33.164-.47.295-.136.126-.26.285-.372.477a4.137 4.137 0 00-.294.645v4.49h-1.256V69.18h.715c.136 0 .23.025.281.077.051.051.087.14.105.266l.084 1.08zm7.501 2.483c-.575.018-1.066.065-1.473.14-.402.07-.732.164-.989.28-.253.117-.437.255-.554.414a.905.905 0 00-.169.533c0 .188.031.349.092.484.06.136.142.248.245.337.108.084.232.147.372.19.145.037.299.056.463.056.22 0 .421-.021.603-.064.182-.046.353-.112.512-.196.164-.084.318-.185.463-.301.15-.117.295-.25.435-.4v-1.473zm-4.033-2.904a4.051 4.051 0 011.269-.849c.454-.187.957-.28 1.508-.28.398 0 .751.065 1.059.196.309.13.569.313.779.547.21.234.369.517.477.849.108.332.161.697.161 1.094v4.545h-.554a.57.57 0 01-.28-.056c-.066-.042-.117-.121-.155-.238l-.14-.674a7.525 7.525 0 01-.547.463 3.453 3.453 0 01-.561.337 3.033 3.033 0 01-.631.203c-.22.052-.466.077-.737.077a2.64 2.64 0 01-.779-.112 1.886 1.886 0 01-.638-.35 1.7 1.7 0 01-.428-.583 2.111 2.111 0 01-.154-.841c0-.281.077-.55.231-.807.155-.262.405-.493.751-.694.346-.202.797-.365 1.354-.492.556-.13 1.239-.205 2.048-.224v-.554c0-.552-.119-.968-.358-1.249-.238-.285-.587-.427-1.045-.427-.309 0-.568.04-.779.119a2.802 2.802 0 00-.54.26c-.149.093-.28.18-.392.259a.566.566 0 01-.323.112.375.375 0 01-.218-.063.673.673 0 01-.154-.168l-.224-.4zm6.99 6.102V69.18h.75c.178 0 .288.086.33.26l.091.729c.262-.323.557-.587.884-.793a2.089 2.089 0 011.136-.309c.477 0 .863.134 1.158.4.299.267.514.627.645 1.08.103-.257.234-.479.393-.666a2.31 2.31 0 011.185-.73c.229-.055.461-.084.695-.084.374 0 .706.061.996.183.294.117.542.29.743.519.206.23.363.512.47.849.108.332.161.713.161 1.143v4.524h-1.255v-4.524c0-.556-.122-.977-.365-1.263-.243-.29-.594-.434-1.052-.434-.206 0-.402.037-.589.112-.183.07-.344.175-.484.315s-.253.318-.337.534a2.09 2.09 0 00-.119.736v4.524h-1.256v-4.524c0-.57-.114-.996-.343-1.277-.23-.28-.564-.42-1.003-.42-.309 0-.594.084-.856.252a2.786 2.786 0 00-.723.673v5.296h-1.255z" fill="#49494F"/><rect opacity=".3" x="21.151" y="110.387" width="343.697" height="50.102" rx="12.024" stroke="#0ABAB5" stroke-width="1.002" stroke-dasharray="4.01 4.01"/><path d="M44.986 140.418h-1.28v-7.63h-4.173v7.63h-1.286v-8.634h6.74v8.634zm4.148-6.205c.449 0 .853.075 1.214.223.365.144.674.355.926.631.257.273.453.603.59.992.136.385.204.818.204 1.299s-.068.916-.205 1.304a2.75 2.75 0 01-.589.992 2.559 2.559 0 01-.926.632 3.25 3.25 0 01-1.214.216c-.453 0-.862-.072-1.227-.216a2.628 2.628 0 01-.926-.632 2.82 2.82 0 01-.595-.992 3.918 3.918 0 01-.204-1.304c0-.481.068-.914.204-1.299.14-.389.339-.719.595-.992.257-.276.566-.487.926-.631a3.235 3.235 0 011.227-.223zm0 5.375c.577 0 1.008-.194 1.292-.583.285-.389.427-.936.427-1.641 0-.706-.142-1.253-.427-1.642-.284-.392-.715-.589-1.292-.589-.585 0-1.022.197-1.31.589-.285.389-.428.936-.428 1.642 0 .705.142 1.252.427 1.641.289.389.726.583 1.31.583zm8.358-4.136a.684.684 0 01-.108.108c-.032.024-.08.036-.145.036a.373.373 0 01-.204-.072 1.818 1.818 0 00-.265-.162 1.949 1.949 0 00-.385-.163 1.689 1.689 0 00-.553-.078c-.288 0-.543.052-.763.157-.22.104-.405.252-.553.444a2.085 2.085 0 00-.331.704 3.51 3.51 0 00-.114.932c0 .356.04.675.12.956.08.276.194.511.343.703.148.189.328.333.54.433.213.096.45.144.71.144.253 0 .461-.03.626-.09.164-.064.3-.132.408-.204.109-.072.199-.139.27-.199a.334.334 0 01.223-.096c.097 0 .17.036.223.108l.337.433a2.21 2.21 0 01-.476.439 2.62 2.62 0 01-.553.295 3.138 3.138 0 01-.619.168 3.88 3.88 0 01-.65.054c-.38 0-.737-.07-1.07-.21a2.459 2.459 0 01-.86-.614 2.961 2.961 0 01-.57-.986 3.945 3.945 0 01-.21-1.334c0-.453.062-.872.186-1.257a2.83 2.83 0 01.559-.992c.248-.28.553-.499.914-.655.36-.16.773-.241 1.238-.241.437 0 .822.071 1.155.211.332.14.629.338.89.595l-.313.433zm6.424-.253h-2.303v5.219h-1.178v-5.219h-2.303v-.889h5.784v.889zm4.048 2.507a8.587 8.587 0 00-1.214.115 3.268 3.268 0 00-.812.228c-.208.096-.359.211-.45.343a.722.722 0 00-.139.433c0 .152.024.284.072.397.052.108.12.198.205.27.088.068.19.118.306.15.116.032.243.048.379.048a2.091 2.091 0 00.92-.204c.132-.068.258-.15.379-.246.12-.097.238-.207.354-.331v-1.203zm-3.439-2.543c.341-.324.71-.567 1.107-.727.4-.16.84-.241 1.316-.241.349 0 .658.058.926.175.269.112.495.27.68.475.184.204.322.449.414.733.097.285.145.599.145.944v3.896h-.523a.522.522 0 01-.265-.054.408.408 0 01-.144-.217l-.126-.535c-.157.145-.311.273-.463.385a3.226 3.226 0 01-.481.283c-.165.076-.341.134-.53.174-.188.04-.396.06-.625.06-.24 0-.467-.032-.68-.096a1.547 1.547 0 01-.546-.307 1.46 1.46 0 01-.373-.511 1.792 1.792 0 01-.132-.715c0-.241.064-.471.192-.692.132-.224.345-.424.637-.601.297-.176.682-.32 1.155-.433.477-.112 1.062-.176 1.755-.192v-.445c0-.461-.098-.806-.294-1.034-.197-.228-.485-.343-.866-.343-.257 0-.473.032-.65.096a2.558 2.558 0 00-.45.217c-.124.076-.235.146-.33.21a.5.5 0 01-.29.097.347.347 0 01-.21-.067.57.57 0 01-.138-.156l-.21-.379zm8.373 4.431c.376 0 .675-.088.895-.264a.892.892 0 00.331-.728c0-.132-.02-.254-.06-.366a.692.692 0 00-.204-.301.965.965 0 00-.38-.192 1.953 1.953 0 00-.576-.073h-1.269v1.924h1.263zm-1.263-4.503v1.834h1.124c.169 0 .323-.024.463-.072.145-.048.267-.114.367-.199a.908.908 0 00.24-.312.917.917 0 00.09-.403.836.836 0 00-.06-.313.65.65 0 00-.192-.27.962.962 0 00-.355-.193 1.82 1.82 0 00-.553-.072h-1.124zm1.16-.781c.377 0 .702.038.974.114.273.072.497.174.674.306.176.133.304.287.385.463.084.177.126.367.126.572 0 .132-.018.27-.054.414a1.315 1.315 0 01-.187.415 1.45 1.45 0 01-.36.355 1.675 1.675 0 01-.572.252c.45.081.798.241 1.046.481.253.241.38.56.38.956a1.6 1.6 0 01-.187.788c-.12.22-.285.405-.493.553a2.197 2.197 0 01-.734.331c-.28.072-.577.108-.89.108h-2.386v-6.108h2.278zm12.942 5.218v2.615a.357.357 0 01-.096.265.334.334 0 01-.247.096h-.727v-2.086H76.34v-6.108h1.173v5.218h2.374v-5.218h1.179v5.218h2.369v-5.218h1.178v5.218h1.124zm6.18-5.218v6.108h-1.179v-3.992a3.786 3.786 0 01.048-.565 6.7 6.7 0 01-.12.24 1.513 1.513 0 01-.114.193l-2.808 3.829a.89.89 0 01-.174.205.361.361 0 01-.247.096h-.709v-6.114h1.172v3.998a3.374 3.374 0 01-.048.559c.08-.177.159-.319.235-.427l2.807-3.836a.984.984 0 01.175-.198.383.383 0 01.252-.096h.71zm5.163.318a.73.73 0 01.24-.228.61.61 0 01.32-.09h.919l-1.545 2.308a1.823 1.823 0 01-.3.373c-.105.096-.233.17-.385.222.192.057.354.141.487.253.132.108.25.25.354.427l1.557 2.525h-.811c-.213 0-.377-.034-.493-.102a.93.93 0 01-.289-.307l-1.118-1.846a.92.92 0 00-.824-.457h-.631v2.718h-1.173v-6.114h1.173v2.609h.553c.168 0 .31-.034.427-.102a.88.88 0 00.306-.301l1.233-1.888zm10.471 5.79h-1.178v-5.219h-2.796v5.219h-1.172v-6.108h5.146v6.108zm4.079-6.205c.449 0 .854.075 1.215.223.364.144.673.355.925.631.257.273.453.603.59.992.136.385.204.818.204 1.299s-.068.916-.204 1.304c-.137.389-.333.72-.59.992a2.557 2.557 0 01-.925.632 3.255 3.255 0 01-1.215.216 3.31 3.31 0 01-1.226-.216 2.622 2.622 0 01-.926-.632 2.807 2.807 0 01-.595-.992 3.9 3.9 0 01-.205-1.304c0-.481.068-.914.205-1.299.14-.389.338-.719.595-.992a2.52 2.52 0 01.926-.631 3.23 3.23 0 011.226-.223zm0 5.375c.577 0 1.008-.194 1.293-.583.284-.389.427-.936.427-1.641 0-.706-.143-1.253-.427-1.642-.285-.392-.716-.589-1.293-.589-.585 0-1.022.197-1.311.589-.284.389-.426.936-.426 1.642 0 .705.142 1.252.426 1.641.289.389.726.583 1.311.583zm9.33.83h-1.172v-5.189h-1.822a19.04 19.04 0 01-.216 1.996 9.118 9.118 0 01-.349 1.425 4.03 4.03 0 01-.457.95 2.246 2.246 0 01-.529.565 1.554 1.554 0 01-.571.265 2.472 2.472 0 01-.589.072c-.365 0-.547-.06-.547-.18v-.74h.324c.137 0 .273-.022.409-.066.14-.048.277-.138.409-.27a2.2 2.2 0 00.385-.566c.12-.24.23-.555.33-.943.101-.393.187-.87.259-1.431.072-.562.128-1.227.168-1.996h3.968v6.108zm6.826-6.108l-3.391 7.882a.495.495 0 01-.145.204c-.06.048-.148.072-.264.072h-.872l1.118-2.435-2.507-5.723h1.022a.35.35 0 01.235.072.418.418 0 01.12.162l1.551 3.667c.032.093.062.187.09.283.032.092.058.184.079.277.028-.097.058-.191.09-.283.032-.096.066-.19.102-.283l1.497-3.661a.388.388 0 01.132-.168.337.337 0 01.205-.066h.938zm5.312 0v6.108h-1.172v-2.543a8.179 8.179 0 01-1.473.252c-.457.028-.856-.012-1.197-.12a1.577 1.577 0 01-.805-.571c-.193-.273-.289-.641-.289-1.106v-2.02h1.178v1.839c0 .281.054.505.163.674a.87.87 0 00.487.348c.216.065.485.085.805.061a8.875 8.875 0 001.131-.187v-2.735h1.172zm6.78 0v6.108h-1.179v-3.992a3.833 3.833 0 01.048-.565c-.04.084-.08.164-.12.24a1.513 1.513 0 01-.114.193l-2.808 3.829a.891.891 0 01-.174.205.36.36 0 01-.247.096h-.709v-6.114h1.172v3.998a3.418 3.418 0 01-.048.559c.08-.177.159-.319.235-.427l2.807-3.836a.988.988 0 01.175-.198.382.382 0 01.252-.096h.71zm6.588.889h-2.303v5.219h-1.178v-5.219h-2.303v-.889h5.784v.889zm6.069 4.395c.377 0 .676-.088.896-.264a.891.891 0 00.331-.728c0-.132-.02-.254-.06-.366a.694.694 0 00-.205-.301.962.962 0 00-.378-.192 1.96 1.96 0 00-.578-.073h-1.268v1.924h1.262zm-1.262-4.503v1.834h1.124c.168 0 .323-.024.463-.072.144-.048.267-.114.367-.199a.908.908 0 00.24-.312.918.918 0 00.03-.716.65.65 0 00-.192-.27.965.965 0 00-.355-.193 1.819 1.819 0 00-.553-.072h-1.124zm1.16-.781c.377 0 .702.038.974.114.273.072.497.174.673.306.177.133.305.287.385.463.084.177.126.367.126.572 0 .132-.018.27-.054.414a1.316 1.316 0 01-.186.415 1.436 1.436 0 01-.361.355 1.666 1.666 0 01-.571.252c.449.081.798.241 1.046.481.253.241.379.56.379.956 0 .301-.062.564-.186.788-.121.22-.285.405-.493.553a2.202 2.202 0 01-.734.331c-.28.072-.577.108-.89.108h-2.387v-6.108h2.279zm6.828 3.396a8.601 8.601 0 00-1.215.115 3.275 3.275 0 00-.812.228c-.208.096-.358.211-.45.343a.717.717 0 00-.139.433c0 .152.024.284.072.397a.82.82 0 00.205.27c.088.068.19.118.306.15.117.032.243.048.379.048a2.085 2.085 0 00.92-.204c.132-.068.259-.15.379-.246.12-.097.238-.207.355-.331v-1.203zm-3.439-2.543c.34-.324.709-.567 1.106-.727.401-.16.84-.241 1.316-.241.349 0 .658.058.926.175.269.112.495.27.68.475.184.204.322.449.415.733.096.285.144.599.144.944v3.896h-.523a.525.525 0 01-.265-.054.41.41 0 01-.144-.217l-.126-.535a5.449 5.449 0 01-.463.385 3.277 3.277 0 01-.481.283 2.505 2.505 0 01-.529.174c-.189.04-.397.06-.626.06-.24 0-.466-.032-.679-.096a1.548 1.548 0 01-.547-.307 1.461 1.461 0 01-.373-.511 1.796 1.796 0 01-.132-.715c0-.241.064-.471.192-.692.133-.224.345-.424.638-.601.296-.176.681-.32 1.154-.433.477-.112 1.062-.176 1.756-.192v-.445c0-.461-.099-.806-.295-1.034-.196-.228-.485-.343-.866-.343-.256 0-.473.032-.649.096a2.562 2.562 0 00-.451.217 10.49 10.49 0 00-.331.21.498.498 0 01-.288.097.35.35 0 01-.211-.067.57.57 0 01-.138-.156l-.21-.379zm14.264-.853v6.108h-8.273v-6.108h1.172v5.218h2.375v-5.218h1.179v5.218h2.368v-5.218h1.179zm5.53 2.374c0-.232-.034-.447-.102-.643a1.35 1.35 0 00-.757-.848 1.592 1.592 0 00-.638-.12c-.493 0-.881.142-1.166.427-.281.285-.459.679-.535 1.184h3.198zm.968 2.862a2.33 2.33 0 01-.499.439c-.188.12-.388.219-.601.295a3.638 3.638 0 01-.661.168 4.217 4.217 0 01-.668.054c-.42 0-.811-.07-1.172-.21a2.696 2.696 0 01-.932-.626 2.942 2.942 0 01-.613-1.022 4.215 4.215 0 01-.217-1.406c0-.425.067-.82.199-1.185.132-.369.32-.689.565-.962.248-.272.551-.487.908-.643a2.97 2.97 0 011.202-.235c.373 0 .716.063 1.028.187.317.12.59.296.818.529.228.232.407.519.535.86.132.34.198.729.198 1.166 0 .18-.02.303-.06.367-.04.06-.114.09-.222.09h-4.004c.012.365.064.683.156.956.092.268.219.493.379.673.164.181.359.315.583.403.225.088.475.132.752.132.26 0 .485-.03.673-.09.192-.06.357-.124.493-.192.14-.072.256-.139.349-.199.096-.06.18-.09.252-.09a.26.26 0 01.223.108l.336.433zm8.342-4.094a.687.687 0 01-.108.108c-.032.024-.08.036-.145.036a.372.372 0 01-.204-.072 1.778 1.778 0 00-.265-.162 1.942 1.942 0 00-.384-.163 1.693 1.693 0 00-.553-.078c-.289 0-.544.052-.764.157-.22.104-.405.252-.553.444a2.088 2.088 0 00-.331.704 3.514 3.514 0 00-.114.932c0 .356.04.675.12.956.08.276.195.511.343.703.148.189.329.333.541.433.212.096.449.144.709.144.253 0 .461-.03.626-.09.164-.064.3-.132.409-.204.108-.072.198-.139.27-.199a.334.334 0 01.223-.096c.096 0 .17.036.222.108l.337.433a2.236 2.236 0 01-.475.439c-.173.12-.357.219-.553.295a3.145 3.145 0 01-.62.168 3.867 3.867 0 01-.649.054 2.73 2.73 0 01-1.07-.21 2.462 2.462 0 01-.86-.614 2.964 2.964 0 01-.571-.986 3.952 3.952 0 01-.21-1.334c0-.453.062-.872.186-1.257.128-.385.315-.715.559-.992a2.57 2.57 0 01.914-.655c.361-.16.773-.241 1.238-.241.437 0 .822.071 1.155.211.332.14.629.338.89.595l-.313.433zm3.805-1.239c.449 0 .854.075 1.215.223.365.144.673.355.926.631.256.273.453.603.589.992.136.385.204.818.204 1.299s-.068.916-.204 1.304c-.136.389-.333.72-.589.992a2.561 2.561 0 01-.926.632 3.255 3.255 0 01-1.215.216c-.453 0-.861-.072-1.226-.216a2.631 2.631 0 01-.926-.632 2.822 2.822 0 01-.595-.992 3.925 3.925 0 01-.205-1.304c0-.481.069-.914.205-1.299a2.83 2.83 0 01.595-.992c.257-.276.565-.487.926-.631a3.234 3.234 0 011.226-.223zm0 5.375c.578 0 1.008-.194 1.293-.583.285-.389.427-.936.427-1.641 0-.706-.142-1.253-.427-1.642-.285-.392-.715-.589-1.293-.589-.585 0-1.022.197-1.31.589-.285.389-.427.936-.427 1.642 0 .705.142 1.252.427 1.641.288.389.725.583 1.31.583zm6.681-5.375c.449 0 .854.075 1.214.223.365.144.674.355.926.631.257.273.453.603.59.992.136.385.204.818.204 1.299s-.068.916-.204 1.304c-.137.389-.333.72-.59.992a2.553 2.553 0 01-.926.632c-.36.144-.765.216-1.214.216-.453 0-.862-.072-1.227-.216a2.627 2.627 0 01-.925-.632 2.824 2.824 0 01-.596-.992 3.926 3.926 0 01-.204-1.304c0-.481.068-.914.204-1.299.141-.389.339-.719.596-.992.256-.276.565-.487.925-.631a3.24 3.24 0 011.227-.223zm0 5.375c.577 0 1.008-.194 1.293-.583.284-.389.426-.936.426-1.641 0-.706-.142-1.253-.426-1.642-.285-.392-.716-.589-1.293-.589-.585 0-1.022.197-1.311.589-.284.389-.427.936-.427 1.642 0 .705.143 1.252.427 1.641.289.389.726.583 1.311.583zm6.861.042c.581 0 1.016-.182 1.305-.547.292-.368.438-.89.438-1.563 0-.669-.142-1.188-.426-1.557-.281-.373-.704-.559-1.269-.559a1.99 1.99 0 00-.745.132c-.217.084-.403.21-.56.379a1.692 1.692 0 00-.348.625c-.08.245-.121.527-.121.848 0 .709.145 1.26.433 1.653.289.393.72.589 1.293.589zm.415-6.667c-.397.032-.74.118-1.028.258a2.01 2.01 0 00-.71.559c-.184.237-.324.52-.421.848a4.512 4.512 0 00-.168 1.1c.1-.18.225-.344.373-.493a2.3 2.3 0 01.517-.378c.192-.109.403-.191.631-.247.229-.056.469-.084.722-.084.408 0 .775.072 1.1.216.325.145.599.347.824.608.228.26.402.575.523.944.12.364.18.771.18 1.22 0 .457-.07.87-.21 1.239a2.66 2.66 0 01-.602.937 2.595 2.595 0 01-.932.602c-.364.14-.769.21-1.214.21-.421 0-.812-.068-1.172-.204a2.304 2.304 0 01-.932-.686c-.265-.316-.473-.731-.626-1.244-.148-.513-.222-1.145-.222-1.894 0-.637.058-1.225.174-1.762a4.272 4.272 0 01.559-1.406c.261-.401.6-.724 1.016-.968.417-.245.924-.391 1.522-.439l2.176-.181.066.614a.511.511 0 01-.06.336c-.052.092-.144.143-.277.151l-1.809.144zm13.09 6.565v2.615a.358.358 0 01-.096.265.333.333 0 01-.246.096h-.728v-2.086h-8.327v-6.108h1.173v5.218h2.374v-5.218h1.179v5.218h2.369v-5.218h1.178v5.218h1.124zm4.818-2.844c0-.232-.034-.447-.103-.643a1.342 1.342 0 00-.757-.848 1.59 1.59 0 00-.637-.12c-.493 0-.882.142-1.167.427-.28.285-.459.679-.535 1.184h3.199zm.968 2.862a2.38 2.38 0 01-.499.439c-.189.12-.389.219-.602.295a3.638 3.638 0 01-.661.168 4.204 4.204 0 01-.667.054c-.421 0-.812-.07-1.173-.21a2.706 2.706 0 01-.932-.626 2.942 2.942 0 01-.613-1.022 4.216 4.216 0 01-.216-1.406c0-.425.066-.82.198-1.185.132-.369.321-.689.565-.962.249-.272.551-.487.908-.643a2.975 2.975 0 011.203-.235c.372 0 .715.063 1.028.187.316.12.589.296.817.529.229.232.407.519.535.86.133.34.199.729.199 1.166 0 .18-.02.303-.06.367-.04.06-.115.09-.223.09h-4.004c.012.365.064.683.156.956.093.268.219.493.379.673.164.181.359.315.583.403.225.088.475.132.752.132.26 0 .485-.03.673-.09a3.304 3.304 0 00.842-.391c.096-.06.18-.09.252-.09.097 0 .171.036.223.108l.337.433zm6.331-5.236v6.108h-1.178v-2.814h-2.796v2.814h-1.172v-6.108h1.172v2.404h2.796v-2.404h1.178zm6.778 0v6.108h-1.178v-3.992a3.833 3.833 0 01.048-.565c-.04.084-.08.164-.12.24a1.514 1.514 0 01-.115.193l-2.807 3.829a.897.897 0 01-.175.205.36.36 0 01-.246.096h-.71v-6.114h1.173v3.998a3.418 3.418 0 01-.048.559c.08-.177.158-.319.234-.427l2.808-3.836a.98.98 0 01.174-.198.385.385 0 01.253-.096h.709zm5.518 2.374c0-.232-.034-.447-.102-.643a1.413 1.413 0 00-.289-.511 1.333 1.333 0 00-.469-.337 1.584 1.584 0 00-.637-.12c-.493 0-.882.142-1.166.427-.281.285-.459.679-.535 1.184h3.198zm.968 2.862a2.355 2.355 0 01-.499.439c-.188.12-.389.219-.601.295a3.66 3.66 0 01-.661.168 4.217 4.217 0 01-.668.054c-.421 0-.811-.07-1.172-.21a2.687 2.687 0 01-.932-.626 2.927 2.927 0 01-.613-1.022 4.19 4.19 0 01-.217-1.406c0-.425.066-.82.199-1.185.132-.369.32-.689.565-.962.248-.272.551-.487.908-.643a2.967 2.967 0 011.202-.235c.373 0 .716.063 1.028.187.317.12.589.296.818.529.228.232.407.519.535.86.132.34.198.729.198 1.166 0 .18-.02.303-.06.367-.04.06-.114.09-.222.09h-4.004c.012.365.064.683.156.956.092.268.218.493.379.673.164.181.358.315.583.403.224.088.475.132.751.132.261 0 .485-.03.674-.09.192-.06.356-.124.493-.192.14-.072.256-.139.348-.199a.501.501 0 01.253-.09c.096 0 .17.036.222.108l.337.433zm9.208-5.236v6.108h-1.179v-2.814h-2.796v2.814h-1.172v-6.108h1.172v2.404h2.796v-2.404h1.179zm4.758 3.396a8.601 8.601 0 00-1.215.115 3.275 3.275 0 00-.812.228c-.208.096-.358.211-.45.343a.717.717 0 00-.139.433c0 .152.024.284.072.397a.833.833 0 00.205.27c.088.068.19.118.306.15.117.032.243.048.379.048a2.085 2.085 0 00.92-.204c.132-.068.259-.15.379-.246.12-.097.238-.207.355-.331v-1.203zm-3.439-2.543c.34-.324.709-.567 1.106-.727.401-.16.84-.241 1.317-.241.348 0 .657.058.925.175.269.112.495.27.68.475.184.204.322.449.415.733.096.285.144.599.144.944v3.896h-.523a.525.525 0 01-.265-.054.41.41 0 01-.144-.217l-.126-.535a5.449 5.449 0 01-.463.385 3.226 3.226 0 01-.481.283 2.486 2.486 0 01-.529.174 3.02 3.02 0 01-.625.06c-.241 0-.467-.032-.68-.096a1.548 1.548 0 01-.547-.307 1.461 1.461 0 01-.373-.511 1.796 1.796 0 01-.132-.715c0-.241.064-.471.192-.692.133-.224.345-.424.638-.601.296-.176.681-.32 1.154-.433.477-.112 1.062-.176 1.756-.192v-.445c0-.461-.099-.806-.295-1.034-.196-.228-.485-.343-.866-.343-.256 0-.473.032-.649.096a2.562 2.562 0 00-.451.217c-.124.076-.234.146-.331.21a.498.498 0 01-.288.097.35.35 0 01-.211-.067.57.57 0 01-.138-.156l-.21-.379zm12.913 1.521c0-.232-.034-.447-.102-.643a1.413 1.413 0 00-.289-.511 1.338 1.338 0 00-.468-.337 1.592 1.592 0 00-.638-.12c-.493 0-.882.142-1.166.427-.281.285-.459.679-.535 1.184h3.198zm.968 2.862a2.33 2.33 0 01-.499.439c-.188.12-.389.219-.601.295a3.638 3.638 0 01-.661.168 4.217 4.217 0 01-.668.054c-.421 0-.811-.07-1.172-.21a2.696 2.696 0 01-.932-.626 2.942 2.942 0 01-.613-1.022 4.19 4.19 0 01-.217-1.406c0-.425.066-.82.199-1.185.132-.369.32-.689.565-.962.248-.272.551-.487.908-.643a2.967 2.967 0 011.202-.235c.373 0 .716.063 1.028.187.317.12.589.296.818.529.228.232.407.519.535.86.132.34.198.729.198 1.166 0 .18-.02.303-.06.367-.04.06-.114.09-.222.09h-4.004c.012.365.064.683.156.956.092.268.218.493.379.673.164.181.359.315.583.403.224.088.475.132.752.132.26 0 .484-.03.673-.09.192-.06.357-.124.493-.192.14-.072.256-.139.349-.199.096-.06.18-.09.252-.09a.26.26 0 01.223.108l.336.433zm1.095-3.24h3.006v.998h-3.006v-.998zm4.399 4.112v-6.108h.703c.165 0 .267.078.307.234l.084.583c.224-.268.473-.487.746-.655.276-.172.599-.259.967-.259.405 0 .734.113.986.337.253.221.437.521.554.902a1.892 1.892 0 01.811-.944c.173-.1.355-.174.547-.222.197-.049.395-.073.596-.073.324 0 .613.052.865.157.257.1.473.248.65.445.176.196.31.438.402.727.093.289.139.617.139.986v3.89h-1.179v-3.89c0-.457-.1-.802-.3-1.034-.197-.232-.485-.349-.866-.349a1.3 1.3 0 00-.481.09 1.12 1.12 0 00-.403.259 1.307 1.307 0 00-.27.433 1.722 1.722 0 00-.097.601v3.89h-1.178v-3.89c0-.473-.094-.822-.283-1.046-.188-.225-.464-.337-.829-.337a1.32 1.32 0 00-.704.199 2.277 2.277 0 00-.595.541v4.533h-1.172zm13.051-2.712a8.585 8.585 0 00-1.214.115 3.275 3.275 0 00-.812.228c-.208.096-.359.211-.451.343a.723.723 0 00-.138.433c0 .152.024.284.072.397.052.108.12.198.205.27.088.068.19.118.306.15.116.032.243.048.379.048a2.091 2.091 0 00.92-.204c.132-.068.258-.15.379-.246.12-.097.238-.207.354-.331v-1.203zm-3.439-2.543c.341-.324.71-.567 1.107-.727.4-.16.839-.241 1.316-.241.349 0 .658.058.926.175.269.112.495.27.68.475a2 2 0 01.414.733c.097.285.145.599.145.944v3.896h-.523a.522.522 0 01-.265-.054.41.41 0 01-.144-.217l-.126-.535a5.449 5.449 0 01-.463.385 3.277 3.277 0 01-.481.283 2.505 2.505 0 01-.529.174c-.189.04-.397.06-.626.06-.24 0-.467-.032-.679-.096a1.539 1.539 0 01-.547-.307 1.449 1.449 0 01-.373-.511 1.796 1.796 0 01-.132-.715c0-.241.064-.471.192-.692.132-.224.345-.424.637-.601.297-.176.682-.32 1.155-.433.477-.112 1.062-.176 1.755-.192v-.445c0-.461-.098-.806-.294-1.034-.197-.228-.485-.343-.866-.343a1.91 1.91 0 00-.649.096 2.528 2.528 0 00-.451.217 9.448 9.448 0 00-.331.21.5.5 0 01-.289.097.346.346 0 01-.21-.067.57.57 0 01-.138-.156l-.211-.379zm7.218-.853v6.108h-1.172v-6.108h1.172zm.223-1.888a.767.767 0 01-.066.312.896.896 0 01-.181.259.837.837 0 01-.258.174.841.841 0 01-.62 0 .945.945 0 01-.258-.174.935.935 0 01-.174-.259.814.814 0 01-.061-.312.79.79 0 01.235-.571.782.782 0 01.258-.175.775.775 0 01.62 0c.1.04.186.098.258.175a.806.806 0 01.247.571zm2.512-.878v8.874h-1.179v-8.874h1.179z" fill="#49494F"/></svg>