<svg fill="none" height="574" viewBox="0 0 266 574" width="266" xmlns="http://www.w3.org/2000/svg"><rect fill="#fff" height="570.5" rx="28.25" width="261.586" x="1.75" y="1.75"/><path d="m0 0h265v574h-265z" fill="#0abab5"/><path d="m46.6953 299h4.5117v-21.006h-4.5117zm7.8076-21.006v4.058h6.0059v16.948h4.4971v-16.948h5.9912v-4.058zm23.1006-.146h-4.2041l3.3106 4.497h3.2959zm15.1611 15c0 .791-.3076 1.435-.9228 1.933-.6152.513-1.4502.762-2.5342.762-.9375 0-1.8457-.205-2.6953-.63-.8643-.41-1.4209-.747-1.6699-.996s-.4395-.454-.5713-.615l-2.71 2.695.3369.366c.1905.235.5127.528.9668.865.4395.351.9668.688 1.5528 1.01.5859.337 1.3476.63 2.2558.865.9082.234 1.8604.351 2.8272.351 2.4902 0 4.4385-.615 5.8447-1.846 1.4063-1.23 2.1094-2.812 2.1094-4.76 0-1.377-.3516-2.505-1.0693-3.413-.7032-.894-1.5674-1.539-2.5928-1.934-1.0254-.381-2.0362-.732-3.0469-1.025s-1.875-.645-2.5781-1.07-1.0694-.996-1.0694-1.699c0-.615.2637-1.157.7911-1.597.5273-.439 1.2158-.659 2.0654-.659.7178 0 1.4062.176 2.0801.498.6738.337 1.1279.601 1.333.806s.3662.366.4834.513l2.6953-2.857-.2637-.293c-.1611-.205-.4394-.454-.8203-.732-.3809-.279-.835-.557-1.3477-.821-.5127-.263-1.1718-.498-1.9775-.703-.791-.205-1.626-.293-2.4902-.293-2.168 0-3.9405.601-5.3028 1.802s-2.0507 2.651-2.0507 4.351c0 1.377.3662 2.505 1.0693 3.413.7178.893 1.582 1.538 2.5928 1.933 1.0107.381 2.0214.718 3.0468 1.011s1.8897.645 2.5928 1.084c.7031.425 1.0693.982 1.0693 1.685zm26.2354-5.699-7.192-9.155h-4.058v21.006h4.512v-13.945l6.738 8.54 6.753-8.599v14.004h4.497v-21.006h-3.984zm27.451 3.003h-5.112l2.563-6.899zm1.494 3.897 1.802 4.951h4.805l-8.262-21.006h-4.79l-8.262 21.006h4.805l1.802-4.951zm19.512-6.445v3.295h3.75v2.857l-.454.381c-.322.293-.864.571-1.626.849-.776.279-1.626.41-2.564.41-1.962 0-3.603-.659-4.921-1.977-1.319-1.318-1.978-2.959-1.978-4.922s.659-3.603 1.978-4.922c1.318-1.318 2.959-1.977 4.921-1.977.704 0 1.407.117 2.095.337.674.219 1.231.454 1.655.717.411.264.806.557 1.158.894.351.351.586.586.688.732.103.147.191.249.249.323l2.857-2.857-.337-.439c-.22-.279-.572-.63-1.07-1.04-.498-.411-1.054-.821-1.699-1.231-.644-.41-1.45-.747-2.446-1.04s-2.051-.439-3.15-.439c-3.208 0-5.917 1.069-8.115 3.208-2.197 2.138-3.296 4.716-3.296 7.734s1.099 5.61 3.296 7.749c2.198 2.139 4.907 3.208 8.115 3.208 1.114 0 2.183-.146 3.238-.439 1.054-.293 1.904-.616 2.549-.967.644-.352 1.259-.762 1.845-1.231.586-.468.952-.791 1.128-.981s.293-.337.381-.44v-7.792zm13.184 11.396h4.511v-21.006h-4.511zm20.112-21.445c-3.208 0-5.918 1.069-8.115 3.208-2.198 2.138-3.296 4.716-3.296 7.734s1.098 5.61 3.296 7.749c2.197 2.139 4.907 3.208 8.115 3.208 1.084 0 2.139-.146 3.164-.454 1.025-.293 1.846-.63 2.476-.996.629-.366 1.215-.791 1.772-1.275.557-.483.908-.82 1.069-1.01.162-.191.279-.352.367-.469l-2.71-2.856-.235.307c-.161.22-.41.469-.761.762-.352.293-.762.586-1.216.879-.469.293-1.04.542-1.743.747-.704.205-1.421.307-2.183.307-1.963 0-3.604-.659-4.922-1.977s-1.977-2.959-1.977-4.922.659-3.603 1.977-4.922c1.318-1.318 2.959-1.977 4.922-1.977.703 0 1.406.117 2.095.337.673.219 1.23.454 1.655.717.41.264.806.557 1.157.894.352.351.586.586.689.732.102.147.19.249.249.323l2.856-2.857-.337-.439c-.22-.279-.571-.63-1.069-1.04-.498-.411-1.055-.821-1.699-1.231-.645-.41-1.451-.747-2.447-1.04s-2.05-.439-3.149-.439zm16.348 15.439.747-15h-4.805l.747 15zm-4.058 4.058c0 .6.234 1.128.703 1.567.469.454 1.025.674 1.699.674.659 0 1.231-.22 1.7-.674.468-.439.703-.967.703-1.567 0-.601-.235-1.128-.703-1.582-.469-.44-1.041-.674-1.7-.674-.674 0-1.23.234-1.699.674-.469.454-.703.981-.703 1.582z" fill="#fff"/><rect height="570.5" rx="28.25" stroke="#1c6d88" stroke-width="3.5" width="261.586" x="1.75" y="1.75"/></svg>