<svg fill="none" height="764" width="336" xmlns="http://www.w3.org/2000/svg"><path d="m3.402 51h12.715v3.598h2.649v-6h-2.051v-14.403h-2.637v14.403h-8.038v-14.403h-2.638zm17.625-11.52v11.52h5.766c1.219 0 2.191-.305 2.895-.938.703-.62 1.066-1.43 1.066-2.425 0-.375-.07-.739-.211-1.067a2.927 2.927 0 0 0 -.457-.773 3.664 3.664 0 0 0 -.586-.527 6.412 6.412 0 0 0 -.469-.305c-.093-.035-.152-.059-.199-.07l.328-.223c.223-.164.445-.445.656-.844.211-.398.329-.844.329-1.336 0-.867-.329-1.594-.973-2.156-.656-.563-1.524-.844-2.625-.844l-5.52-.011zm5.766 6.376c.457 0 .832.152 1.125.456.281.305.434.669.434 1.102 0 .469-.141.855-.422 1.137-.282.281-.668.422-1.137.422h-3.363v-3.117zm.96-3.13c0 .376-.116.669-.327.88-.223.21-.516.328-.88.328h-3.116v-2.404h3.117c.363 0 .656.106.879.317.21.21.328.504.328.879zm16.302 3.352.129-1.195c0-1.617-.54-2.953-1.618-4.031-1.078-1.079-2.414-1.618-4.03-1.618-1.618 0-3 .586-4.15 1.735-1.148 1.148-1.734 2.531-1.734 4.148 0 1.688.598 3.13 1.782 4.324 1.183 1.196 2.59 1.793 4.218 1.793.61 0 1.207-.082 1.782-.257.574-.176 1.043-.364 1.394-.575a6.92 6.92 0 0 0 1.02-.715c.328-.269.539-.456.633-.574.093-.117.163-.199.21-.27l-1.558-1.558-.364.446c-.234.292-.644.585-1.23.89a4.008 4.008 0 0 1 -1.887.457c-.925 0-1.722-.293-2.402-.89-.68-.586-1.078-1.29-1.207-2.11zm-5.532-4.793c.891 0 1.618.258 2.204.774.586.515.949 1.172 1.09 1.98h-6.669c.211-.809.61-1.465 1.196-1.98.586-.516 1.312-.774 2.18-.774zm7.09.352h3.961v9.363h2.39v-9.363h3.962v-2.157h-10.313zm21.715 9.363v-7.441c0-1.22-.457-2.239-1.347-3.07-.903-.833-2.051-1.255-3.458-1.255-.562 0-1.113.082-1.64.235-.528.152-.95.328-1.266.515-.328.2-.633.422-.914.668a7.158 7.158 0 0 0 -.55.516c-.083.094-.141.176-.188.234l1.558 1.559.317-.41c.187-.258.527-.504 1.02-.762a3.553 3.553 0 0 1 1.663-.387c.704 0 1.278.211 1.723.621.445.422.68.926.68 1.536l-4.207.726c-1.043.176-1.864.586-2.461 1.219-.598.644-.89 1.441-.89 2.39 0 .868.386 1.653 1.16 2.333.773.68 1.745 1.02 2.917 1.02.399 0 .785-.06 1.184-.153.387-.106.715-.223.973-.352.257-.129.492-.27.714-.433.223-.164.375-.27.446-.34.07-.07.129-.13.164-.153v1.196zm-5.52-1.91c-.632 0-1.124-.153-1.5-.434-.374-.293-.55-.633-.55-1.02 0-.41.129-.75.398-1.019.258-.281.61-.457 1.043-.527l3.727-.598v.235c0 1.078-.282 1.898-.832 2.484-.551.586-1.313.879-2.285.879zm22.09-9.61-6 7.56v-7.56h-2.402v11.52h2.156l6-7.559v7.559h2.403v-11.52zm10.325 11.52h15.597v-11.52h-2.39v9.364h-4.207v-9.364h-2.403v9.364h-4.195v-9.364h-2.402zm25.078.234c1.523 0 2.836-.574 3.961-1.746s1.687-2.59 1.687-4.254-.562-3.07-1.687-4.242-2.438-1.758-3.961-1.758c-.68 0-1.336.153-1.981.434-.656.293-1.078.527-1.277.703-.199.188-.352.328-.457.434v-1.325h-2.402v16.56h2.402v-6.364l.164.176a5.896 5.896 0 0 0 1.254.855 4.14 4.14 0 0 0 1.043.375c.398.105.82.152 1.254.152zm-.235-9.832c.914 0 1.723.375 2.426 1.125s1.055 1.664 1.055 2.72c0 1.054-.352 1.956-1.055 2.706s-1.512 1.125-2.426 1.125-1.722-.375-2.425-1.125-1.055-1.652-1.055-2.707.352-1.969 1.055-2.719 1.511-1.125 2.425-1.125zm16.911-1.922-6 7.56v-7.56h-2.403v11.52h2.156l6-7.559v7.559h2.403v-11.52zm11.519 16.56h2.402v-4.806c1.993 0 3.61-.562 4.852-1.71 1.242-1.137 1.863-2.567 1.863-4.278 0-1.71-.621-3.14-1.863-4.289-1.242-1.148-2.859-1.71-4.852-1.71v-5.04h-2.402v5.04c-2.004 0-3.621.562-4.863 1.71s-1.863 2.578-1.863 4.29c0 1.71.621 3.14 1.863 4.276 1.242 1.149 2.859 1.711 4.863 1.711v4.805zm0-6.962c-1.359 0-2.426-.34-3.187-1.043-.762-.691-1.137-1.617-1.137-2.789s.375-2.098 1.137-2.8c.761-.692 1.828-1.044 3.187-1.044zm2.402-7.676c1.36 0 2.414.352 3.176 1.043.762.703 1.149 1.63 1.149 2.801 0 1.172-.387 2.098-1.149 2.79-.762.702-1.816 1.042-3.176 1.042zm8.168.235h3.961v9.363h2.391v-9.363h3.961v-2.157h-10.313zm14.872 7.324v-3.844h2.519c.539 0 .996.188 1.371.551.363.375.551.832.551 1.371 0 .55-.188 1.008-.551 1.371-.375.375-.832.55-1.371.55h-2.519zm6.843-1.91c0-1.149-.398-2.098-1.195-2.848s-1.84-1.125-3.141-1.125h-2.519v-3.598h-2.403v11.52h4.922c1.301 0 2.344-.363 3.141-1.113.797-.739 1.195-1.688 1.195-2.836zm4.078-7.559h-2.402v11.52h2.402z" fill="#333"/><path d="m6.162 2.48c-1.26 0-2.314.422-3.164 1.254-.855.838-1.277 1.858-1.277 3.065s.422 2.232 1.277 3.064c.85.838 1.904 1.254 3.164 1.254.422 0 .832-.058 1.23-.176.399-.117.727-.252.973-.398a5.97 5.97 0 0 0 .703-.51c.223-.193.364-.328.428-.404.065-.076.111-.135.14-.182l-.843-.843-.094.146a2.57 2.57 0 0 1 -.334.322 5.027 5.027 0 0 1 -.521.387c-.2.129-.446.234-.744.328-.3.094-.616.14-.944.14-.873 0-1.611-.304-2.215-.907a3.034 3.034 0 0 1 -.908-2.215c0-.873.305-1.612.908-2.215.61-.604 1.348-.902 2.215-.902.328 0 .645.04.938.134a3.7 3.7 0 0 1 .715.3c.187.105.357.233.515.38.164.152.264.252.31.31.048.06.077.1.1.13l.838-.844-.129-.164a2.86 2.86 0 0 0 -.422-.405 7.16 7.16 0 0 0 -.667-.474 3.888 3.888 0 0 0 -.973-.405 4.406 4.406 0 0 0 -1.219-.17zm3.89 3.838h1.981v4.682h1.196v-4.682h1.98v-1.078h-5.156v1.078zm10.437-1.078-3 3.78v-3.78h-1.2v5.76h1.077l3-3.78v3.78h1.201v-5.76zm3.422 0v1.682c0 .826-.053 1.465-.146 1.922-.094.457-.217.75-.358.885-.14.128-.334.199-.58.199a2.591 2.591 0 0 1 -.416-.065v1.143l.106.023c.064.024.158.041.275.065.117.017.234.029.34.029.428 0 .78-.111 1.049-.322.27-.217.492-.645.668-1.278.175-.632.258-1.5.258-2.595v-.604h2.038v4.682h1.202v-5.76l-4.437-.006zm7.324 4.74v-1.92h1.319c.27 0 .498.093.685.275a.951.951 0 0 1 .276.686.932.932 0 0 1 -.276.685.928.928 0 0 1 -.685.275h-1.319zm3.48-.955c0-.574-.198-1.048-.597-1.423-.398-.375-.92-.563-1.57-.563h-1.318v-1.799h-1.202v5.76h2.52c.65 0 1.172-.182 1.57-.557.399-.369.598-.843.598-1.418z" fill="#c2c2c2"/><path d="m34.3 228.344-6.336-17.316a37.895 37.895 0 0 1 -.972-2.736 89.125 89.125 0 0 1 -1.008-3.42 69.152 69.152 0 0 1 -.972 3.456 44.27 44.27 0 0 1 -.972 2.772l-6.3 17.244zm17.1 19.656h-7.488c-.84 0-1.524-.204-2.052-.612a4.065 4.065 0 0 1 -1.188-1.584l-3.888-10.62h-21.564l-3.888 10.62c-.192.552-.564 1.056-1.116 1.512s-1.236.684-2.052.684h-7.56l20.484-52.056h9.864zm23.496-15.768c-2.568.12-4.728.348-6.48.684-1.752.312-3.156.72-4.212 1.224s-1.812 1.092-2.268 1.764a3.832 3.832 0 0 0 -.684 2.196c0 1.56.456 2.676 1.368 3.348.936.672 2.148 1.008 3.636 1.008 1.824 0 3.396-.324 4.716-.972 1.344-.672 2.652-1.68 3.924-3.024zm-20.376-16.02c4.248-3.888 9.36-5.832 15.336-5.832 2.16 0 4.092.36 5.796 1.08 1.704.696 3.144 1.68 4.32 2.952 1.176 1.248 2.064 2.748 2.664 4.5.624 1.752.936 3.672.936 5.76v23.328h-4.032c-.84 0-1.488-.12-1.944-.36-.456-.264-.816-.78-1.08-1.548l-.792-2.664a35.073 35.073 0 0 1 -2.736 2.232 16.822 16.822 0 0 1 -2.772 1.584c-.96.432-1.992.756-3.096.972-1.08.24-2.28.36-3.6.36-1.56 0-3-.204-4.32-.612-1.32-.432-2.46-1.068-3.42-1.908s-1.704-1.884-2.232-3.132-.792-2.7-.792-4.356c0-.936.156-1.86.468-2.772.312-.936.816-1.824 1.512-2.664.72-.84 1.644-1.632 2.772-2.376s2.508-1.392 4.14-1.944c1.656-.552 3.576-.996 5.76-1.332 2.184-.36 4.68-.576 7.488-.648v-2.16c0-2.472-.528-4.296-1.584-5.472-1.056-1.2-2.58-1.8-4.572-1.8-1.44 0-2.64.168-3.6.504a14.05 14.05 0 0 0 -2.484 1.152c-.72.408-1.38.78-1.98 1.116-.576.336-1.224.504-1.944.504-.624 0-1.152-.156-1.584-.468a4.298 4.298 0 0 1 -1.044-1.152zm57.533 24.228c1.8 0 3.312-.216 4.536-.648s2.196-1.008 2.916-1.728a6.077 6.077 0 0 0 1.584-2.52c.336-.96.504-1.98.504-3.06 0-1.128-.18-2.136-.54-3.024a5.549 5.549 0 0 0 -1.692-2.304c-.768-.648-1.764-1.14-2.988-1.476-1.2-.336-2.652-.504-4.356-.504h-9.756v15.264zm-9.792-37.008v15.048h7.704c3.312 0 5.808-.6 7.488-1.8 1.704-1.2 2.556-3.108 2.556-5.724 0-2.712-.768-4.644-2.304-5.796s-3.936-1.728-7.2-1.728zm8.244-7.488c3.408 0 6.324.324 8.748.972s4.404 1.572 5.94 2.772c1.56 1.2 2.7 2.652 3.42 4.356s1.08 3.624 1.08 5.76c0 1.224-.18 2.4-.54 3.528a10.229 10.229 0 0 1 -1.692 3.132c-.744.96-1.704 1.836-2.88 2.628-1.152.792-2.532 1.464-4.14 2.016 7.152 1.608 10.728 5.472 10.728 11.592 0 2.208-.42 4.248-1.26 6.12s-2.064 3.492-3.672 4.86c-1.608 1.344-3.588 2.4-5.94 3.168s-5.04 1.152-8.064 1.152h-19.656v-52.056zm36.318 42.48c1.008 1.224 2.1 2.088 3.276 2.592 1.2.504 2.46.756 3.78.756 1.368 0 2.592-.24 3.672-.72 1.104-.504 2.04-1.272 2.808-2.304.768-1.056 1.356-2.388 1.764-3.996.408-1.632.612-3.576.612-5.832 0-4.056-.672-6.984-2.016-8.784-1.344-1.824-3.276-2.736-5.796-2.736-1.704 0-3.192.396-4.464 1.188-1.272.768-2.484 1.86-3.636 3.276zm0-22.824c1.488-1.56 3.132-2.796 4.932-3.708 1.824-.936 3.9-1.404 6.228-1.404 2.136 0 4.056.42 5.76 1.26 1.728.84 3.192 2.052 4.392 3.636 1.224 1.56 2.16 3.456 2.808 5.688s.972 4.74.972 7.524c0 3-.372 5.724-1.116 8.172s-1.812 4.548-3.204 6.3a14.405 14.405 0 0 1 -4.968 4.032c-1.944.96-4.104 1.44-6.48 1.44-1.152 0-2.196-.12-3.132-.36a11.07 11.07 0 0 1 -2.592-.936c-.792-.408-1.524-.9-2.196-1.476-.648-.6-1.272-1.26-1.872-1.98l-.396 2.484c-.144.624-.396 1.068-.756 1.332-.336.264-.804.396-1.404.396h-5.868v-53.496h8.892zm68.971 20.124c.528 0 .996.204 1.404.612l3.816 4.14c-2.112 2.616-4.716 4.62-7.812 6.012-3.072 1.392-6.768 2.088-11.088 2.088-3.864 0-7.344-.66-10.44-1.98-3.072-1.32-5.7-3.156-7.884-5.508s-3.864-5.16-5.04-8.424c-1.152-3.264-1.728-6.828-1.728-10.692 0-3.912.624-7.488 1.872-10.728 1.248-3.264 3-6.072 5.256-8.424 2.28-2.352 4.992-4.176 8.136-5.472 3.144-1.32 6.624-1.98 10.44-1.98 3.792 0 7.152.624 10.08 1.872 2.952 1.248 5.46 2.88 7.524 4.896l-3.24 4.5a2.83 2.83 0 0 1 -.756.756c-.288.216-.696.324-1.224.324-.36 0-.732-.096-1.116-.288a29.074 29.074 0 0 1 -1.26-.756 31.815 31.815 0 0 0 -1.584-1.008c-.6-.36-1.296-.684-2.088-.972-.792-.312-1.716-.564-2.772-.756-1.032-.216-2.232-.324-3.6-.324-2.328 0-4.464.42-6.408 1.26a13.641 13.641 0 0 0 -4.968 3.6c-1.392 1.56-2.472 3.48-3.24 5.76-.768 2.256-1.152 4.836-1.152 7.74 0 2.928.408 5.532 1.224 7.812.84 2.28 1.968 4.2 3.384 5.76a14.578 14.578 0 0 0 5.004 3.6c1.92.816 3.984 1.224 6.192 1.224 1.32 0 2.508-.072 3.564-.216a14.805 14.805 0 0 0 2.952-.684 13.087 13.087 0 0 0 2.556-1.188 16.453 16.453 0 0 0 2.412-1.836c.24-.216.492-.384.756-.504.264-.144.54-.216.828-.216zm36.136-16.848c-.264.336-.528.6-.792.792-.24.192-.6.288-1.08.288-.456 0-.9-.132-1.332-.396-.432-.288-.948-.6-1.548-.936-.6-.36-1.32-.672-2.16-.936-.816-.288-1.836-.432-3.06-.432-1.56 0-2.928.288-4.104.864a7.768 7.768 0 0 0 -2.952 2.412c-.768 1.056-1.344 2.34-1.728 3.852-.384 1.488-.576 3.18-.576 5.076 0 1.968.204 3.72.612 5.256.432 1.536 1.044 2.832 1.836 3.888a8.064 8.064 0 0 0 2.88 2.376c1.128.528 2.4.792 3.816.792s2.556-.168 3.42-.504c.888-.36 1.632-.744 2.232-1.152.6-.432 1.116-.816 1.548-1.152.456-.36.96-.54 1.512-.54.72 0 1.26.276 1.62.828l2.556 3.24a16.557 16.557 0 0 1 -3.204 2.916 18.36 18.36 0 0 1 -3.6 1.872c-1.224.456-2.496.78-3.816.972a26.496 26.496 0 0 1 -3.888.288c-2.28 0-4.428-.42-6.444-1.26a15.43 15.43 0 0 1 -5.292-3.744c-1.512-1.632-2.712-3.624-3.6-5.976-.864-2.376-1.296-5.076-1.296-8.1 0-2.712.384-5.22 1.152-7.524.792-2.328 1.944-4.332 3.456-6.012 1.512-1.704 3.384-3.036 5.616-3.996s4.8-1.44 7.704-1.44c2.76 0 5.172.444 7.236 1.332 2.088.888 3.96 2.16 5.616 3.816l-2.34 3.24zm-238.978-72.832v1.956h-9.756v-17.196h2.316v15.24zm8.656-3.516c-.984.032-1.824.112-2.52.24-.688.12-1.252.28-1.692.48-.432.2-.748.436-.948.708a1.545 1.545 0 0 0 -.288.912c0 .32.052.596.156.828s.244.424.42.576c.184.144.396.252.636.324.248.064.512.096.792.096.376 0 .72-.036 1.032-.108.312-.08.604-.192.876-.336.28-.144.544-.316.792-.516.256-.2.504-.428.744-.684zm-6.9-4.968c.672-.648 1.396-1.132 2.172-1.452s1.636-.48 2.58-.48c.68 0 1.284.112 1.812.336s.972.536 1.332.936.632.884.816 1.452.276 1.192.276 1.872v7.776h-.948c-.208 0-.368-.032-.48-.096-.112-.072-.2-.208-.264-.408l-.24-1.152c-.32.296-.632.56-.936.792a5.87 5.87 0 0 1 -.96.576 5.17 5.17 0 0 1 -1.08.348 5.54 5.54 0 0 1 -1.26.132c-.472 0-.916-.064-1.332-.192a3.219 3.219 0 0 1 -1.092-.6 2.905 2.905 0 0 1 -.732-.996c-.176-.408-.264-.888-.264-1.44 0-.48.132-.94.396-1.38.264-.448.692-.844 1.284-1.188s1.364-.624 2.316-.84c.952-.224 2.12-.352 3.504-.384v-.948c0-.944-.204-1.656-.612-2.136-.408-.488-1.004-.732-1.788-.732-.528 0-.972.068-1.332.204-.352.128-.66.276-.924.444-.256.16-.48.308-.672.444a.962.962 0 0 1 -.552.192.637.637 0 0 1 -.372-.108 1.134 1.134 0 0 1 -.264-.288zm15.81 10.632c-.96 0-1.7-.268-2.22-.804-.512-.536-.768-1.308-.768-2.316v-7.44h-1.464a.495.495 0 0 1 -.324-.108c-.088-.08-.132-.2-.132-.36v-.852l1.992-.252.492-3.756a.509.509 0 0 1 .156-.288.48.48 0 0 1 .336-.12h1.08v4.188h3.516v1.548h-3.516v7.296c0 .512.124.892.372 1.14s.568.372.96.372c.224 0 .416-.028.576-.084.168-.064.312-.132.432-.204s.22-.136.3-.192c.088-.064.164-.096.228-.096.112 0 .212.068.3.204l.624 1.02a4.058 4.058 0 0 1 -1.332.816 4.607 4.607 0 0 1 -1.608.288zm9.923-12.54c.888 0 1.688.148 2.4.444s1.32.716 1.824 1.26.888 1.204 1.152 1.98c.272.768.408 1.628.408 2.58 0 .96-.136 1.824-.408 2.592a5.47 5.47 0 0 1 -1.152 1.968 5.143 5.143 0 0 1 -1.824 1.26c-.712.288-1.512.432-2.4.432-.896 0-1.704-.144-2.424-.432a5.143 5.143 0 0 1 -1.824-1.26 5.61 5.61 0 0 1 -1.164-1.968c-.264-.768-.396-1.632-.396-2.592 0-.952.132-1.812.396-2.58.272-.776.66-1.436 1.164-1.98a5.143 5.143 0 0 1 1.824-1.26c.72-.296 1.528-.444 2.424-.444zm0 10.848c1.2 0 2.096-.4 2.688-1.2.592-.808.888-1.932.888-3.372 0-1.448-.296-2.576-.888-3.384s-1.488-1.212-2.688-1.212c-.608 0-1.14.104-1.596.312a3.015 3.015 0 0 0 -1.128.9c-.296.392-.52.876-.672 1.452a7.882 7.882 0 0 0 -.216 1.932c0 1.44.296 2.564.888 3.372.6.8 1.508 1.2 2.724 1.2z" fill="#333"/><path d="m3.04 102.799c0-.867.298-1.606.901-2.209.604-.604 1.342-.908 2.215-.908s1.612.304 2.215.908c.604.603.908 1.342.908 2.209 0 .873-.304 1.611-.908 2.215-.603.609-1.342.908-2.215.908s-1.611-.299-2.215-.908c-.603-.604-.902-1.342-.902-2.215zm-1.32 0c0 1.207.423 2.232 1.278 3.064.85.838 1.904 1.254 3.158 1.254s2.309-.416 3.158-1.254c.856-.832 1.278-1.857 1.278-3.064s-.422-2.227-1.278-3.065c-.85-.832-1.904-1.253-3.158-1.253s-2.308.421-3.158 1.253c-.855.838-1.277 1.858-1.277 3.065zm10.026 1.324c0 .809.293 1.506.89 2.104.598.597 1.302.896 2.11.896.275 0 .55-.047.826-.135.27-.088.492-.181.668-.287.17-.105.334-.222.492-.357.153-.135.258-.229.305-.287.047-.059.082-.1.106-.129l-.78-.78-.181.223c-.117.141-.31.293-.58.445-.27.153-.551.229-.856.229-.492 0-.914-.188-1.271-.557a1.897 1.897 0 0 1 -.534-1.365c0-.539.176-.99.534-1.359.357-.375.779-.557 1.271-.557.305 0 .586.076.856.234.27.153.439.276.521.37.082.093.14.169.182.234l.779-.779-.252-.276c-.17-.193-.445-.386-.832-.58a2.779 2.779 0 0 0 -1.254-.287c-.809 0-1.512.299-2.11.897-.597.597-.89 1.294-.89 2.103zm7.793.475h2.818v2.402h1.202v-5.76h-1.202v2.28h-2.817v-2.28h-1.201v5.76h1.201v-2.402zm10.143-.475c0 .539-.182.99-.534 1.359-.357.375-.779.557-1.265.557-.492 0-.914-.182-1.272-.557-.357-.369-.533-.82-.533-1.359s.176-.99.533-1.365c.358-.369.78-.557 1.272-.557.486 0 .908.188 1.265.557.352.375.534.826.534 1.365zm-4.8 0c0 .809.294 1.506.891 2.104.598.597 1.301.896 2.11.896.808 0 1.506-.299 2.103-.896.598-.598.897-1.295.897-2.104s-.299-1.512-.897-2.109c-.597-.598-1.295-.897-2.103-.897-.809 0-1.512.299-2.11.897-.597.597-.89 1.3-.89 2.109zm7.32-2.883v5.76h2.882c.61 0 1.096-.152 1.447-.469.352-.31.534-.715.534-1.213 0-.187-.036-.369-.106-.533a1.471 1.471 0 0 0 -.229-.387 1.87 1.87 0 0 0 -.292-.263 3.53 3.53 0 0 0 -.235-.153c-.047-.017-.076-.029-.1-.035l.165-.111c.11-.082.222-.223.328-.422.105-.199.164-.422.164-.668 0-.434-.164-.797-.487-1.078-.328-.281-.761-.422-1.312-.422l-2.76-.006zm2.882 3.188c.228 0 .416.076.563.228.14.153.216.334.216.551 0 .234-.07.428-.21.568-.141.141-.335.211-.569.211h-1.682v-1.558zm.48-1.565a.598.598 0 0 1 -.164.44.618.618 0 0 1 -.44.164h-1.558v-1.201h1.559a.61.61 0 0 1 .44.158.596.596 0 0 1 .163.439zm4.014 1.735h2.819v2.402h1.2v-5.76h-1.2v2.28h-2.819v-2.28h-1.201v5.76h1.201zm10.143-.475c0 .539-.182.99-.533 1.359-.358.375-.78.557-1.266.557-.492 0-.914-.182-1.272-.557-.357-.369-.533-.82-.533-1.359s.176-.99.533-1.365c.358-.369.78-.557 1.272-.557.486 0 .908.188 1.266.557.351.375.533.826.533 1.365zm-4.8 0c0 .809.294 1.506.892 2.104.597.597 1.3.896 2.109.896s1.506-.299 2.103-.896c.598-.598.897-1.295.897-2.104s-.299-1.512-.897-2.109c-.597-.598-1.294-.897-2.103-.897s-1.512.299-2.11.897c-.597.597-.89 1.3-.89 2.109zm11.52-2.883-3 3.78v-3.78h-1.2v5.76h1.077l3-3.779v3.779h1.202v-5.76h-1.08zm-1.564-1.799a.79.79 0 0 1 -.598-.24.812.812 0 0 1 -.24-.603h-.896c0 .48.164.884.492 1.2.328.323.744.481 1.248.481s.92-.158 1.248-.48c.328-.317.492-.72.492-1.201h-.902a.817.817 0 0 1 -.24.603.813.813 0 0 1 -.604.24zm6.726 7.559h7.8v-5.76h-1.196v4.682h-2.103v-4.682h-1.202v4.682h-2.097v-4.682h-1.202zm12.54.117c.761 0 1.418-.287 1.98-.873.563-.586.844-1.295.844-2.127s-.281-1.535-.844-2.121-1.219-.879-1.98-.879c-.34 0-.668.076-.99.217-.329.146-.54.264-.64.352-.099.093-.175.164-.228.216v-.662h-1.201v8.28h1.201v-3.182l.082.088a3.038 3.038 0 0 0 .627.428c.14.076.317.14.522.187.199.053.41.076.627.076zm-.118-4.916c.457 0 .862.188 1.213.563.352.375.528.832.528 1.359s-.176.979-.528 1.354c-.351.375-.756.562-1.213.562s-.86-.187-1.213-.562a1.91 1.91 0 0 1 -.527-1.354c0-.527.176-.984.528-1.359.351-.375.755-.563 1.212-.563zm8.456-.961-3 3.78v-3.78h-1.202v5.76h1.078l3-3.779v3.779h1.202v-5.76h-1.079zm5.76 8.28h1.2v-2.403c.996 0 1.805-.281 2.426-.855.621-.569.932-1.283.932-2.139 0-.855-.31-1.57-.932-2.144-.62-.575-1.43-.856-2.426-.856v-2.52h-1.2v2.52c-1.003 0-1.811.281-2.432.856-.621.574-.932 1.289-.932 2.144 0 .856.31 1.57.932 2.139.62.574 1.43.855 2.431.855v2.403zm0-3.481c-.68 0-1.214-.17-1.594-.521-.381-.346-.569-.809-.569-1.395s.188-1.049.569-1.4c.38-.346.913-.522 1.593-.522v3.838zm1.2-3.838c.68 0 1.207.176 1.588.522.381.351.575.814.575 1.4s-.194 1.049-.575 1.395c-.38.351-.908.521-1.588.521zm4.084.117h1.98v4.682h1.196v-4.682h1.98v-1.078h-5.156z" fill="#c2c2c2"/><path d="m157.124 405.208c.18-1.224.516-2.298 1.008-3.222.504-.924 1.134-1.692 1.89-2.304a7.749 7.749 0 0 1 2.592-1.404c.984-.324 2.046-.486 3.186-.486 1.152 0 2.196.168 3.132.504.948.324 1.758.78 2.43 1.368a5.871 5.871 0 0 1 1.566 2.106c.372.816.558 1.71.558 2.682 0 .828-.102 1.56-.306 2.196a5.145 5.145 0 0 1 -.846 1.656c-.36.48-.804.882-1.332 1.206a8.373 8.373 0 0 1 -1.782.81c1.608.468 2.814 1.218 3.618 2.25.804 1.02 1.206 2.304 1.206 3.852 0 1.248-.234 2.358-.702 3.33a7.296 7.296 0 0 1 -1.908 2.466c-.792.672-1.722 1.188-2.79 1.548a10.687 10.687 0 0 1 -3.366.522c-1.332 0-2.484-.156-3.456-.468-.972-.324-1.812-.78-2.52-1.368a7.896 7.896 0 0 1 -1.746-2.16 14.814 14.814 0 0 1 -1.188-2.826l1.674-.702c.444-.192.864-.246 1.26-.162.408.084.702.306.882.666.192.384.408.798.648 1.242.24.432.546.834.918 1.206.384.36.852.666 1.404.918.564.24 1.254.36 2.07.36.828 0 1.548-.132 2.16-.396.624-.276 1.14-.624 1.548-1.044.42-.432.732-.912.936-1.44s.306-1.05.306-1.566c0-.648-.078-1.242-.234-1.782a2.798 2.798 0 0 0 -.918-1.404c-.444-.384-1.08-.684-1.908-.9-.816-.228-1.89-.342-3.222-.342v-2.79c1.092-.012 2.01-.12 2.754-.324.756-.216 1.356-.504 1.8-.864.456-.372.78-.816.972-1.332.204-.516.306-1.08.306-1.692 0-.66-.102-1.242-.306-1.746a3.373 3.373 0 0 0 -.864-1.26 3.368 3.368 0 0 0 -1.296-.774 5.27 5.27 0 0 0 -1.674-.252 5.15 5.15 0 0 0 -1.638.252 4.708 4.708 0 0 0 -1.332.702c-.384.3-.708.66-.972 1.08a4.372 4.372 0 0 0 -.576 1.35c-.168.492-.396.822-.684.99-.276.168-.684.204-1.224.108zm29.883 15.876c.78 0 1.494-.126 2.142-.378a4.951 4.951 0 0 0 1.656-1.08 4.681 4.681 0 0 0 1.08-1.62 5.381 5.381 0 0 0 .378-2.034c0-.792-.126-1.5-.378-2.124a4.222 4.222 0 0 0 -1.044-1.602 4.431 4.431 0 0 0 -1.62-.99 5.723 5.723 0 0 0 -2.07-.36c-.78 0-1.488.132-2.124.396a4.836 4.836 0 0 0 -1.602 1.08c-.444.456-.786.99-1.026 1.602s-.36 1.26-.36 1.944c0 .768.108 1.47.324 2.106s.534 1.182.954 1.638c.42.444.936.792 1.548 1.044.624.252 1.338.378 2.142.378zm-1.422-13.464c-.192.24-.378.468-.558.684l-.504.648a7.904 7.904 0 0 1 3.942-1.008c1.008 0 1.974.168 2.898.504a6.72 6.72 0 0 1 2.43 1.476c.708.648 1.272 1.458 1.692 2.43.42.96.63 2.07.63 3.33a8.51 8.51 0 0 1 -.666 3.366 8.197 8.197 0 0 1 -1.836 2.736c-.792.768-1.746 1.38-2.862 1.836-1.104.444-2.328.666-3.672.666s-2.556-.216-3.636-.648a8.012 8.012 0 0 1 -2.772-1.818c-.756-.792-1.338-1.74-1.746-2.844s-.612-2.334-.612-3.69c0-1.176.252-2.406.756-3.69s1.284-2.634 2.34-4.05l6.372-8.55c.192-.252.468-.468.828-.648.372-.18.786-.27 1.242-.27h3.42zm18.849 11.772c.54.696 1.128 1.188 1.764 1.476a5.411 5.411 0 0 0 2.142.414c1.512 0 2.688-.552 3.528-1.656.852-1.104 1.278-2.748 1.278-4.932 0-1.128-.096-2.088-.288-2.88-.192-.804-.468-1.458-.828-1.962s-.798-.87-1.314-1.098-1.098-.342-1.746-.342c-.984 0-1.836.216-2.556.648-.708.42-1.368 1.026-1.98 1.818zm-.198-11.088a9.753 9.753 0 0 1 2.61-2.178c.984-.552 2.124-.828 3.42-.828 1.032 0 1.968.21 2.808.63a5.956 5.956 0 0 1 2.16 1.8c.6.792 1.062 1.776 1.386 2.952.336 1.164.504 2.502.504 4.014 0 1.356-.186 2.622-.558 3.798-.36 1.164-.882 2.178-1.566 3.042a7.486 7.486 0 0 1 -2.484 2.016c-.972.48-2.07.72-3.294.72-1.08 0-1.998-.174-2.754-.522a7.15 7.15 0 0 1 -2.034-1.44v7.794h-3.87v-24.462h2.34c.528 0 .864.246 1.008.738zm32.433 15.696h-3.708c-.3 0-.54-.078-.72-.234a2.145 2.145 0 0 1 -.414-.522l-4.23-6.786a4.091 4.091 0 0 1 -.432 1.062l-3.834 5.724a3.128 3.128 0 0 1 -.45.522c-.156.156-.366.234-.63.234h-3.456l6.354-9.468-6.102-8.892h3.708c.3 0 .516.048.648.144.144.084.27.216.378.396l4.158 6.48c.108-.396.276-.774.504-1.134l3.51-5.274c.24-.408.546-.612.918-.612h3.546l-6.102 8.73zm-218.365-12.768v-12.624c0-1.008.072-2.112.216-3.312l-11.616 15.936zm9.264 0v2.976c0 .288-.096.536-.288.744-.176.208-.448.312-.816.312h-3.672v8.736h-4.488v-8.736h-14.952c-.368 0-.688-.104-.96-.312a1.57 1.57 0 0 1 -.504-.816l-.528-2.64 16.584-22.08h4.848v21.816zm16.156 9.072c1.04 0 1.968-.144 2.784-.432.816-.304 1.496-.72 2.04-1.248a5.376 5.376 0 0 0 1.272-1.92 6.53 6.53 0 0 0 .432-2.4c0-1.056-.168-1.968-.504-2.736a4.867 4.867 0 0 0 -1.368-1.896 5.391 5.391 0 0 0 -2.064-1.128 8.46 8.46 0 0 0 -2.592-.384 8.46 8.46 0 0 0 -2.592.384c-.8.24-1.496.616-2.088 1.128-.576.496-1.032 1.128-1.368 1.896-.32.768-.48 1.68-.48 2.736 0 .864.144 1.664.432 2.4a5.534 5.534 0 0 0 1.248 1.92c.56.528 1.248.944 2.064 1.248.816.288 1.744.432 2.784.432zm0-27.288c-.944 0-1.776.144-2.496.432-.704.288-1.288.672-1.752 1.152a4.784 4.784 0 0 0 -1.056 1.704 6.13 6.13 0 0 0 -.336 2.04c0 .72.096 1.424.288 2.112.208.688.528 1.304.96 1.848.448.528 1.032.952 1.752 1.272s1.6.48 2.64.48 1.92-.16 2.64-.48 1.296-.744 1.728-1.272c.448-.544.768-1.16.96-1.848a7.259 7.259 0 0 0 .312-2.112c0-.72-.12-1.4-.36-2.04a4.376 4.376 0 0 0 -1.056-1.704c-.464-.48-1.048-.864-1.752-1.152s-1.528-.432-2.472-.432zm5.448 12.96c2.128.656 3.72 1.696 4.776 3.12 1.072 1.424 1.608 3.192 1.608 5.304 0 1.52-.288 2.896-.864 4.128a8.983 8.983 0 0 1 -2.424 3.144c-1.04.864-2.288 1.536-3.744 2.016-1.44.464-3.04.696-4.8.696s-3.368-.232-4.824-.696c-1.44-.48-2.68-1.152-3.72-2.016a8.983 8.983 0 0 1 -2.424-3.144c-.576-1.232-.864-2.608-.864-4.128 0-2.112.528-3.88 1.584-5.304 1.072-1.424 2.672-2.464 4.8-3.12-1.728-.688-3.032-1.688-3.912-3-.864-1.312-1.296-2.888-1.296-4.728 0-1.296.256-2.504.768-3.624a8.571 8.571 0 0 1 2.16-2.904c.944-.832 2.072-1.48 3.384-1.944 1.312-.48 2.76-.72 4.344-.72s3.024.24 4.32.72c1.312.464 2.432 1.112 3.36 1.944a8.434 8.434 0 0 1 2.184 2.904 8.391 8.391 0 0 1 .792 3.624c0 1.84-.44 3.416-1.32 4.728-.864 1.312-2.16 2.312-3.888 3zm17.74 11.88c.72.928 1.503 1.584 2.351 1.968.864.368 1.816.552 2.856.552 2.016 0 3.585-.736 4.704-2.208 1.137-1.472 1.705-3.664 1.705-6.576 0-1.504-.129-2.784-.385-3.84-.255-1.072-.624-1.944-1.103-2.616-.48-.672-1.065-1.16-1.753-1.464s-1.464-.456-2.328-.456c-1.312 0-2.448.288-3.407.864-.945.56-1.825 1.368-2.64 2.424zm-.265-14.784a13.004 13.004 0 0 1 3.48-2.904c1.313-.736 2.833-1.104 4.56-1.104 1.377 0 2.624.28 3.745.84 1.12.544 2.08 1.344 2.88 2.4s1.416 2.368 1.847 3.936c.448 1.552.672 3.336.672 5.352 0 1.808-.248 3.496-.743 5.064-.48 1.552-1.176 2.904-2.088 4.056a9.982 9.982 0 0 1 -3.313 2.688c-1.296.64-2.76.96-4.391.96-1.44 0-2.665-.232-3.672-.696a9.533 9.533 0 0 1 -2.712-1.92v10.392h-5.16v-32.616h3.12c.704 0 1.151.328 1.344.984zm43.245 20.928h-4.944c-.4 0-.72-.104-.96-.312a2.86 2.86 0 0 1 -.552-.696l-5.64-9.048a5.455 5.455 0 0 1 -.576 1.416l-5.112 7.632a4.17 4.17 0 0 1 -.6.696c-.208.208-.488.312-.84.312h-4.608l8.472-12.624-8.136-11.856h4.944c.4 0 .688.064.864.192.192.112.36.288.504.528l5.544 8.64a5.538 5.538 0 0 1 .672-1.512l4.68-7.032c.32-.544.728-.816 1.224-.816h4.728l-8.136 11.64zm182.916-2.436c.28 0 .5.084.66.252.16.16.24.368.24.624v1.56h-11.688v-.876c0-.176.036-.36.108-.552a1.48 1.48 0 0 1 .348-.528l5.376-5.388c.456-.456.86-.892 1.212-1.308.36-.416.664-.832.912-1.248.256-.416.448-.836.576-1.26.136-.432.204-.884.204-1.356a3.09 3.09 0 0 0 -.216-1.2 2.218 2.218 0 0 0 -.576-.864 2.234 2.234 0 0 0 -.876-.516 3.299 3.299 0 0 0 -1.116-.18c-.392 0-.756.056-1.092.168a3.139 3.139 0 0 0 -.888.468c-.256.2-.472.44-.648.72a3.096 3.096 0 0 0 -.372.9c-.12.328-.276.548-.468.66-.184.112-.456.136-.816.072l-1.356-.24c.12-.816.344-1.532.672-2.148a5.072 5.072 0 0 1 1.26-1.536 5.166 5.166 0 0 1 1.728-.936 6.752 6.752 0 0 1 2.124-.324c.768 0 1.472.116 2.112.348a4.728 4.728 0 0 1 1.668.972c.472.416.84.924 1.104 1.524s.396 1.276.396 2.028c0 .64-.096 1.232-.288 1.776a7.016 7.016 0 0 1 -.756 1.56c-.32.496-.696.98-1.128 1.452a53.37 53.37 0 0 1 -1.344 1.416l-4.176 4.272a9.54 9.54 0 0 1 1.032-.228c.352-.056.684-.084.996-.084zm11.246-3.948v-6.312c0-.504.036-1.056.108-1.656l-5.808 7.968zm4.632 0v1.488a.53.53 0 0 1 -.144.372c-.088.104-.224.156-.408.156h-1.836v4.368h-2.244v-4.368h-7.476a.768.768 0 0 1 -.48-.156.785.785 0 0 1 -.252-.408l-.264-1.32 8.292-11.04h2.424v10.908zm5.27 3.312c.36.464.752.792 1.176.984.432.184.908.276 1.428.276 1.008 0 1.792-.368 2.352-1.104.568-.736.852-1.832.852-3.288 0-.752-.064-1.392-.192-1.92-.128-.536-.312-.972-.552-1.308a2.127 2.127 0 0 0 -.876-.732 2.851 2.851 0 0 0 -1.164-.228c-.656 0-1.224.144-1.704.432-.472.28-.912.684-1.32 1.212zm-.132-7.392a6.502 6.502 0 0 1 1.74-1.452c.656-.368 1.416-.552 2.28-.552.688 0 1.312.14 1.872.42a3.97 3.97 0 0 1 1.44 1.2c.4.528.708 1.184.924 1.968.224.776.336 1.668.336 2.676 0 .904-.124 1.748-.372 2.532a6.164 6.164 0 0 1 -1.044 2.028 4.991 4.991 0 0 1 -1.656 1.344c-.648.32-1.38.48-2.196.48-.72 0-1.332-.116-1.836-.348a4.766 4.766 0 0 1 -1.356-.96v5.196h-2.58v-16.308h1.56c.352 0 .576.164.672.492zm21.622 10.464h-2.472c-.2 0-.36-.052-.48-.156a1.43 1.43 0 0 1 -.276-.348l-2.82-4.524a2.727 2.727 0 0 1 -.288.708l-2.556 3.816a2.085 2.085 0 0 1 -.3.348.568.568 0 0 1 -.42.156h-2.304l4.236-6.312-4.068-5.928h2.472c.2 0 .344.032.432.096a.73.73 0 0 1 .252.264l2.772 4.32c.072-.264.184-.516.336-.756l2.34-3.516c.16-.272.364-.408.612-.408h2.364l-4.068 5.82zm-323.358-103.328c-.088.144-.18.252-.276.324a.635.635 0 0 1 -.36.096c-.152 0-.324-.064-.516-.192a7.53 7.53 0 0 0 -.696-.42 5.272 5.272 0 0 0 -.972-.432c-.376-.136-.824-.204-1.344-.204-.48 0-.904.06-1.272.18-.36.12-.664.288-.912.504a2.128 2.128 0 0 0 -.564.768 2.44 2.44 0 0 0 -.18.948c0 .44.116.808.348 1.104.232.288.536.536.912.744.384.208.82.392 1.308.552.488.152.984.316 1.488.492.512.176 1.012.376 1.5.6s.92.508 1.296.852c.384.344.692.764.924 1.26s.348 1.1.348 1.812c0 .768-.132 1.488-.396 2.16a5.108 5.108 0 0 1 -1.152 1.764c-.496.496-1.112.888-1.848 1.176-.728.288-1.56.432-2.496.432a7.786 7.786 0 0 1 -1.62-.168 8.538 8.538 0 0 1 -1.5-.444c-.472-.2-.916-.44-1.332-.72a6.716 6.716 0 0 1 -1.116-.936l.816-1.344a.792.792 0 0 1 .276-.264.736.736 0 0 1 .372-.096c.184 0 .388.088.612.264.224.168.492.356.804.564.32.2.704.388 1.152.564.448.168.984.252 1.608.252 1.016 0 1.8-.248 2.352-.744.56-.496.84-1.18.84-2.052 0-.488-.116-.884-.348-1.188a2.776 2.776 0 0 0 -.924-.78 6.437 6.437 0 0 0 -1.296-.528 76.09 76.09 0 0 1 -1.488-.456c-.504-.168-1-.36-1.488-.576a5.021 5.021 0 0 1 -1.308-.864c-.376-.36-.68-.8-.912-1.32-.232-.528-.348-1.184-.348-1.968 0-.624.12-1.228.36-1.812a4.67 4.67 0 0 1 1.068-1.548c.472-.456 1.052-.82 1.74-1.092s1.472-.408 2.352-.408c.992 0 1.9.156 2.724.468a6.206 6.206 0 0 1 2.148 1.332zm12.047 6.828a3.63 3.63 0 0 0 -.192-1.2c-.12-.376-.3-.7-.54-.972-.24-.28-.54-.496-.9-.648-.352-.16-.76-.24-1.224-.24-.936 0-1.672.268-2.208.804s-.876 1.288-1.02 2.256zm-6.156 1.584c.032.696.14 1.3.324 1.812.184.504.428.924.732 1.26.312.336.68.588 1.104.756.432.16.912.24 1.44.24.504 0 .94-.056 1.308-.168.368-.12.688-.248.96-.384.272-.144.504-.272.696-.384.192-.12.368-.18.528-.18a.55.55 0 0 1 .48.24l.732.948c-.304.36-.648.664-1.032.912a6.25 6.25 0 0 1 -1.224.612c-.432.152-.876.26-1.332.324-.456.072-.9.108-1.332.108a6.53 6.53 0 0 1 -2.364-.42 5.383 5.383 0 0 1 -1.884-1.26c-.528-.552-.944-1.236-1.248-2.052-.296-.816-.444-1.756-.444-2.82 0-.848.132-1.64.396-2.376a5.799 5.799 0 0 1 1.152-1.92 5.417 5.417 0 0 1 1.824-1.284c.72-.32 1.532-.48 2.436-.48a5.73 5.73 0 0 1 2.088.372c.64.24 1.192.596 1.656 1.068a4.861 4.861 0 0 1 1.08 1.74c.264.68.396 1.456.396 2.328 0 .4-.044.668-.132.804s-.248.204-.48.204zm11.358 5.916v-12.24h1.56c.352 0 .576.164.672.492l.168 1.068c.224-.256.456-.488.696-.696a4.234 4.234 0 0 1 1.656-.924c.32-.088.664-.132 1.032-.132.392 0 .752.056 1.08.168s.616.272.864.48c.256.208.476.46.66.756s.336.628.456.996a3.761 3.761 0 0 1 1.632-1.836 4.116 4.116 0 0 1 1.092-.42 4.977 4.977 0 0 1 1.188-.144c.656 0 1.24.104 1.752.312.52.208.956.512 1.308.912.36.392.632.876.816 1.452s.276 1.232.276 1.968v7.788h-2.58v-7.788c0-.864-.188-1.512-.564-1.944-.368-.44-.916-.66-1.644-.66-.328 0-.636.056-.924.168s-.54.276-.756.492a2.337 2.337 0 0 0 -.516.816c-.12.32-.18.696-.18 1.128v7.788h-2.581v-7.788c0-.896-.18-1.552-.54-1.968-.36-.424-.888-.636-1.584-.636-.48 0-.924.124-1.332.372-.408.24-.784.572-1.128.996v9.024h-2.58zm23.09-12.24v12.24h-2.58v-12.24zm.432-3.696c0 .232-.048.452-.144.66a1.723 1.723 0 0 1 -.372.552c-.16.152-.348.276-.564.372a1.707 1.707 0 0 1 -.672.132c-.232 0-.452-.044-.66-.132-.2-.096-.376-.22-.528-.372a2.03 2.03 0 0 1 -.372-.552 1.676 1.676 0 0 1 -.132-.66c0-.24.044-.464.132-.672.096-.208.22-.388.372-.54.152-.16.328-.284.528-.372.208-.096.428-.144.66-.144.24 0 .464.048.672.144.216.088.404.212.564.372.16.152.284.332.372.54.096.208.144.432.144.672zm9.87 13.716c.632 0 1.164-.072 1.596-.216.44-.152.796-.356 1.068-.612.28-.256.48-.556.6-.9.128-.352.192-.728.192-1.128 0-.816-.28-1.456-.84-1.92-.552-.472-1.428-.708-2.628-.708h-3.468v5.484zm-3.48-12.864v5.4h2.808c1.2 0 2.096-.232 2.688-.696s.888-1.132.888-2.004c0-.952-.28-1.64-.84-2.064-.552-.424-1.42-.636-2.604-.636zm2.94-2.196c1.104 0 2.048.108 2.832.324.784.208 1.428.508 1.932.9s.872.872 1.104 1.44c.24.56.36 1.192.36 1.896 0 .408-.064.804-.192 1.188-.12.376-.312.732-.576 1.068-.256.328-.58.624-.972.888a5.618 5.618 0 0 1 -1.392.66c2.448.52 3.672 1.82 3.672 3.9 0 .736-.14 1.412-.42 2.028a4.434 4.434 0 0 1 -1.2 1.584c-.52.44-1.164.784-1.932 1.032s-1.644.372-2.628.372h-6.337v-17.28h5.748zm15.036 4.848c.904 0 1.72.148 2.448.444.736.296 1.36.716 1.872 1.26.52.544.92 1.204 1.2 1.98s.42 1.648.42 2.616-.14 1.84-.42 2.616a5.67 5.67 0 0 1 -1.2 1.992 5.192 5.192 0 0 1 -1.872 1.26c-.728.296-1.544.444-2.448.444-.912 0-1.736-.148-2.472-.444a5.333 5.333 0 0 1 -1.872-1.26 5.67 5.67 0 0 1 -1.2-1.992c-.28-.776-.42-1.648-.42-2.616s.14-1.84.42-2.616.68-1.436 1.2-1.98a5.333 5.333 0 0 1 1.872-1.26c.736-.296 1.56-.444 2.472-.444zm0 10.596c1.104 0 1.924-.368 2.46-1.104.544-.744.816-1.804.816-3.18s-.272-2.436-.816-3.18c-.536-.752-1.356-1.128-2.46-1.128-1.12 0-1.952.376-2.496 1.128-.544.744-.816 1.804-.816 3.18s.272 2.436.816 3.18c.544.736 1.376 1.104 2.496 1.104zm11.527-15.924v17.76h-2.58v-17.76zm11.476 8.532c-.36-.464-.756-.788-1.188-.972a3.545 3.545 0 0 0 -1.404-.276c-1.008 0-1.796.372-2.364 1.116-.568.736-.852 1.828-.852 3.276 0 .752.064 1.396.192 1.932.128.528.312.96.552 1.296s.532.58.876.732.732.228 1.164.228c.656 0 1.22-.14 1.692-.42.48-.288.924-.692 1.332-1.212zm2.58-8.532v17.76h-1.56c-.344 0-.564-.164-.66-.492l-.228-1.332a6.422 6.422 0 0 1 -1.752 1.452c-.648.368-1.404.552-2.268.552a4.228 4.228 0 0 1 -1.872-.408 4.087 4.087 0 0 1 -1.44-1.212c-.4-.528-.712-1.18-.936-1.956-.216-.784-.324-1.68-.324-2.688 0-.912.12-1.756.36-2.532.248-.776.6-1.448 1.056-2.016a4.802 4.802 0 0 1 1.656-1.344c.656-.328 1.388-.492 2.196-.492.72 0 1.332.116 1.836.348.504.224.956.54 1.356.948v-6.588zm11.736 17.892c-.12.328-.312.572-.576.732a1.483 1.483 0 0 1 -.804.252h-1.092l7.104-17.952c.112-.296.284-.524.516-.684.24-.16.512-.24.816-.24h1.092zm23.183-2.652c.6 0 1.104-.072 1.512-.216s.732-.336.972-.576c.248-.24.424-.52.528-.84.112-.32.168-.66.168-1.02 0-.376-.06-.712-.18-1.008a1.85 1.85 0 0 0 -.564-.768c-.256-.216-.588-.38-.996-.492-.4-.112-.884-.168-1.452-.168h-3.252v5.088zm-3.264-12.336v5.016h2.568c1.104 0 1.936-.2 2.496-.6.568-.4.852-1.036.852-1.908 0-.904-.256-1.548-.768-1.932s-1.312-.576-2.4-.576zm2.748-2.496c1.136 0 2.108.108 2.916.324s1.468.524 1.98.924c.52.4.9.884 1.14 1.452s.36 1.208.36 1.92c0 .408-.06.8-.18 1.176a3.41 3.41 0 0 1 -.564 1.044c-.248.32-.568.612-.96.876a5.683 5.683 0 0 1 -1.38.672c2.384.536 3.576 1.824 3.576 3.864 0 .736-.14 1.416-.42 2.04a4.555 4.555 0 0 1 -1.224 1.62c-.536.448-1.196.8-1.98 1.056s-1.68.384-2.688.384h-6.552v-17.352zm15.117 4.848c.912 0 1.74.148 2.484.444a5.384 5.384 0 0 1 1.92 1.26 5.492 5.492 0 0 1 1.236 1.992c.288.784.432 1.66.432 2.628 0 .976-.144 1.856-.432 2.64a5.611 5.611 0 0 1 -1.236 2.004 5.307 5.307 0 0 1 -1.92 1.272c-.744.296-1.572.444-2.484.444-.92 0-1.756-.148-2.508-.444a5.424 5.424 0 0 1 -1.932-1.272 5.845 5.845 0 0 1 -1.236-2.004c-.288-.784-.432-1.664-.432-2.64 0-.968.144-1.844.432-2.628.296-.784.708-1.448 1.236-1.992a5.504 5.504 0 0 1 1.932-1.26c.752-.296 1.588-.444 2.508-.444zm0 10.404c1.024 0 1.78-.344 2.268-1.032.496-.688.744-1.696.744-3.024s-.248-2.34-.744-3.036c-.488-.696-1.244-1.044-2.268-1.044-1.04 0-1.812.352-2.316 1.056-.496.696-.744 1.704-.744 3.024s.248 2.328.744 3.024c.504.688 1.276 1.032 2.316 1.032zm11.814-15.732v17.832h-2.964v-17.832zm11.161 8.664c-.336-.408-.704-.696-1.104-.864a3.195 3.195 0 0 0 -1.272-.252c-.448 0-.852.084-1.212.252s-.668.424-.924.768c-.256.336-.452.768-.588 1.296-.136.52-.204 1.136-.204 1.848 0 .72.056 1.332.168 1.836.12.496.288.904.504 1.224.216.312.48.54.792.684.312.136.66.204 1.044.204.616 0 1.14-.128 1.572-.384s.84-.62 1.224-1.092zm2.964-8.664v17.832h-1.812c-.392 0-.64-.18-.744-.54l-.252-1.188a6.182 6.182 0 0 1 -1.716 1.38c-.64.352-1.388.528-2.244.528-.672 0-1.288-.14-1.848-.42a4.196 4.196 0 0 1 -1.452-1.212c-.4-.536-.712-1.196-.936-1.98-.216-.784-.324-1.68-.324-2.688 0-.912.124-1.76.372-2.544a6.19 6.19 0 0 1 1.068-2.04 4.918 4.918 0 0 1 1.668-1.344c.648-.328 1.376-.492 2.184-.492.688 0 1.276.108 1.764.324a4.52 4.52 0 0 1 1.308.876v-6.492zm11.613 17.964c-.12.328-.312.572-.576.732a1.483 1.483 0 0 1 -.804.252h-1.092l7.104-17.952c.112-.296.284-.524.516-.684.24-.16.512-.24.816-.24h1.092zm20.532-14.496v4.08h5.496v3h-5.496v4.164h7.176v3.12h-11.256v-17.484h11.256v3.12zm21.63 14.364h-3.576c-.264 0-.48-.064-.648-.192a1.498 1.498 0 0 1 -.384-.456l-2.22-3.816c-.04.136-.088.264-.144.384s-.116.232-.18.336l-1.824 3.096c-.112.16-.244.308-.396.444a.849.849 0 0 1 -.588.204h-3.312l4.176-6.432-4.008-6.012h3.576c.264 0 .456.036.576.108.128.064.24.176.336.336l2.22 3.684c.048-.144.108-.284.18-.42.072-.144.152-.288.24-.432l1.584-2.772c.112-.176.228-.304.348-.384a.866.866 0 0 1 .468-.12h3.408l-4.008 5.844zm6.083.192c-.592 0-1.116-.084-1.572-.252a3.29 3.29 0 0 1 -1.14-.732 3.222 3.222 0 0 1 -.696-1.152 4.436 4.436 0 0 1 -.24-1.5v-6.432h-1.056a.718.718 0 0 1 -.492-.18c-.136-.128-.204-.312-.204-.552v-1.452l1.98-.384.732-3.036c.096-.384.368-.576.816-.576h1.944v3.636h3.084v2.544h-3.084v6.18c0 .288.068.528.204.72.144.184.348.276.612.276.136 0 .248-.012.336-.036.096-.032.176-.064.24-.096.072-.04.136-.072.192-.096a.476.476 0 0 1 .216-.048c.112 0 .2.028.264.084a.81.81 0 0 1 .216.24l1.128 1.764c-.48.36-1.02.632-1.62.816-.6.176-1.22.264-1.86.264zm8.718-10.716c.384-.672.824-1.2 1.32-1.584a2.775 2.775 0 0 1 1.728-.576c.56 0 1.016.132 1.368.396l-.24 2.736c-.04.176-.108.296-.204.36-.088.064-.212.096-.372.096-.064 0-.148-.004-.252-.012a59.516 59.516 0 0 0 -.324-.024 4.647 4.647 0 0 0 -.348-.036 2.216 2.216 0 0 0 -.312-.024c-.544 0-.98.144-1.308.432-.32.288-.592.688-.816 1.2v7.56h-3.72v-12.444h2.208c.184 0 .336.016.456.048a.717.717 0 0 1 .312.156.542.542 0 0 1 .192.264c.048.112.088.248.12.408zm12.467 5.46c-.744.032-1.356.096-1.836.192s-.86.216-1.14.36-.476.308-.588.492a1.199 1.199 0 0 0 -.156.6c0 .424.116.724.348.9.232.168.572.252 1.02.252.48 0 .9-.084 1.26-.252s.724-.44 1.092-.816zm-6.696-5.652a7.494 7.494 0 0 1 2.496-1.476 8.726 8.726 0 0 1 2.952-.492c.752 0 1.428.124 2.028.372.608.24 1.12.58 1.536 1.02.424.432.748.948.972 1.548s.336 1.256.336 1.968v7.776h-1.704c-.352 0-.62-.048-.804-.144-.176-.096-.324-.296-.444-.6l-.264-.684c-.312.264-.612.496-.9.696a5.94 5.94 0 0 1 -.9.516 4.27 4.27 0 0 1 -.984.3 5.64 5.64 0 0 1 -1.152.108 5.208 5.208 0 0 1 -1.548-.216 3.36 3.36 0 0 1 -1.188-.66 2.919 2.919 0 0 1 -.744-1.068c-.176-.432-.264-.928-.264-1.488 0-.448.112-.9.336-1.356.224-.464.612-.884 1.164-1.26.552-.384 1.296-.704 2.232-.96s2.116-.4 3.54-.432v-.528c0-.728-.152-1.252-.456-1.572-.296-.328-.72-.492-1.272-.492-.44 0-.8.048-1.08.144s-.532.204-.756.324c-.216.12-.428.228-.636.324a1.763 1.763 0 0 1 -.744.144c-.256 0-.472-.064-.648-.192a1.67 1.67 0 0 1 -.432-.456l-.672-1.164zm20.241 7.656c.536 0 .972-.068 1.308-.204.344-.136.612-.312.804-.528s.324-.46.396-.732.108-.548.108-.828c0-.32-.044-.608-.132-.864a1.368 1.368 0 0 0 -.432-.648c-.2-.176-.468-.312-.804-.408s-.76-.144-1.272-.144h-2.832v4.356zm-2.856-11.388v4.32h2.112a6.96 6.96 0 0 0 1.212-.096c.36-.064.664-.176.912-.336.256-.16.448-.38.576-.66.136-.28.204-.632.204-1.056 0-.416-.052-.76-.156-1.032a1.484 1.484 0 0 0 -.48-.672 2.018 2.018 0 0 0 -.828-.36 5.557 5.557 0 0 0 -1.176-.108zm2.376-3.036c1.208 0 2.236.112 3.084.336s1.54.54 2.076.948.924.904 1.164 1.488c.248.584.372 1.236.372 1.956 0 .392-.056.772-.168 1.14-.112.36-.288.7-.528 1.02-.24.312-.548.6-.924.864a5.802 5.802 0 0 1 -1.356.684c1.152.28 2.004.732 2.556 1.356s.828 1.432.828 2.424a5 5 0 0 1 -.432 2.076 4.78 4.78 0 0 1 -1.272 1.68c-.552.472-1.236.844-2.052 1.116-.816.264-1.748.396-2.796.396h-6.984v-17.484zm15.266 4.848c.944 0 1.804.148 2.58.444s1.44.72 1.992 1.272a5.61 5.61 0 0 1 1.296 2.016c.312.784.468 1.668.468 2.652 0 .992-.156 1.888-.468 2.688a5.73 5.73 0 0 1 -1.296 2.028 5.737 5.737 0 0 1 -1.992 1.284c-.776.296-1.636.444-2.58.444-.952 0-1.82-.148-2.604-.444a5.993 5.993 0 0 1 -2.016-1.284 5.87 5.87 0 0 1 -1.308-2.028c-.304-.8-.456-1.696-.456-2.688 0-.984.152-1.868.456-2.652a5.745 5.745 0 0 1 1.308-2.016 5.844 5.844 0 0 1 2.016-1.272c.784-.296 1.652-.444 2.604-.444zm0 10.068c.856 0 1.484-.3 1.884-.9.408-.608.612-1.528.612-2.76s-.204-2.148-.612-2.748c-.4-.6-1.028-.9-1.884-.9-.88 0-1.524.3-1.932.9s-.612 1.516-.612 2.748.204 2.152.612 2.76c.408.6 1.052.9 1.932.9zm12.409-15.396v17.964h-3.72v-17.964zm10.543 8.856c-.28-.312-.584-.528-.912-.648a2.814 2.814 0 0 0 -1.032-.192c-.344 0-.66.068-.948.204a1.96 1.96 0 0 0 -.756.66c-.208.296-.372.684-.492 1.164s-.18 1.06-.18 1.74c0 .656.048 1.208.144 1.656s.228.812.396 1.092c.176.272.384.468.624.588s.508.18.804.18c.272 0 .516-.024.732-.072.224-.056.428-.132.612-.228s.356-.216.516-.36c.168-.152.332-.324.492-.516zm3.72-8.856v17.964h-2.304c-.464 0-.768-.208-.912-.624l-.288-.948a7.295 7.295 0 0 1 -.78.72 5.066 5.066 0 0 1 -.888.564 4.504 4.504 0 0 1 -1.02.348c-.36.088-.752.132-1.176.132a3.833 3.833 0 0 1 -1.8-.432 4.148 4.148 0 0 1 -1.428-1.248c-.4-.544-.716-1.208-.948-1.992-.224-.792-.336-1.692-.336-2.7 0-.928.128-1.788.384-2.58.256-.8.616-1.488 1.08-2.064a5.073 5.073 0 0 1 1.692-1.368 4.788 4.788 0 0 1 2.172-.492c.648 0 1.192.092 1.632.276s.84.432 1.2.744v-6.3z" fill="#333"/><path d="m1 358h125" stroke="#c2c2c2"/><path d="m2.201 485v-8.402h1.319v7.201h4.02v-7.201h1.317v7.201h1.026v3h-1.324v-1.799h-6.359zm8.813-5.76h2.76c.55 0 .988.143 1.312.428.324.281.486.639.486 1.072 0 .246-.054.471-.164.674-.105.199-.215.338-.328.416l-.164.111c.024.008.057.022.1.041.043.02.12.071.234.153.113.078.21.166.293.263.086.094.162.223.229.387.07.164.105.342.105.533 0 .496-.178.901-.533 1.213-.352.313-.834.469-1.447.469h-2.883zm2.883 3.182h-1.682v1.558h1.681c.239 0 .428-.07.569-.21.14-.141.21-.331.21-.569a.773.773 0 0 0 -.216-.551.741.741 0 0 0 -.563-.228zm.316-1.119a.595.595 0 0 0 .164-.44c0-.187-.055-.334-.164-.439a.592.592 0 0 0 -.44-.164h-1.558v1.201h1.558c.184 0 .33-.053.44-.158zm8.314 1.236h-4.5c.063.406.262.758.598 1.055.34.297.742.445 1.207.445.336 0 .648-.076.938-.228.293-.153.5-.301.62-.446l.182-.222.78.779c-.024.031-.061.076-.112.135a3.79 3.79 0 0 1 -.82.644c-.18.102-.414.197-.703.287-.285.086-.58.129-.885.129-.816 0-1.521-.299-2.115-.896a2.981 2.981 0 0 1 -.885-2.162c0-.809.287-1.5.861-2.075.578-.578 1.27-.867 2.075-.867.808 0 1.48.27 2.015.809.54.535.809 1.207.809 2.015zm-2.76-2.396c-.433 0-.798.128-1.095.386-.293.254-.49.584-.592.991h3.334a1.636 1.636 0 0 0 -.545-.991c-.293-.258-.66-.386-1.101-.386zm3.54.175v-1.078h5.156v1.078h-1.98v4.682h-1.196v-4.682zm10.142 3.164a1.89 1.89 0 0 0 .533-1.359c0-.539-.177-.994-.533-1.365-.355-.371-.777-.557-1.265-.557-.489 0-.912.186-1.272.557-.355.371-.533.826-.533 1.365 0 .535.178.988.533 1.359.36.372.783.557 1.272.557.488 0 .91-.185 1.265-.557zm-3.375.745c-.594-.598-.89-1.299-.89-2.104 0-.809.296-1.512.89-2.109.598-.598 1.301-.897 2.11-.897.808 0 1.51.299 2.103.897.598.597.897 1.3.897 2.109 0 .805-.3 1.506-.897 2.104-.594.593-1.295.89-2.103.89-.809 0-1.512-.297-2.11-.89zm6.428-4.987h2.76c.55 0 .988.143 1.312.428.324.281.486.639.486 1.072 0 .246-.054.471-.163.674-.106.199-.215.338-.329.416l-.164.111c.024.008.057.022.1.041.043.02.121.071.234.153.114.078.211.166.293.263.086.094.162.223.229.387.07.164.105.342.105.533 0 .496-.178.901-.533 1.213-.352.313-.834.469-1.447.469h-2.883zm2.883 3.182h-1.682v1.558h1.682c.238 0 .428-.07.568-.21.14-.141.211-.331.211-.569a.773.773 0 0 0 -.217-.551.741.741 0 0 0 -.562-.228zm.316-1.119a.596.596 0 0 0 .164-.44c0-.187-.055-.334-.164-.439a.592.592 0 0 0 -.44-.164h-1.558v1.201h1.559c.183 0 .33-.053.44-.158zm7.6 3.697h-1.201v-.598l-.082.077a2.863 2.863 0 0 1 -.58.392 2.648 2.648 0 0 1 -.487.17 2.333 2.333 0 0 1 -.592.076c-.586 0-1.072-.17-1.459-.51-.386-.339-.58-.728-.58-1.166 0-.472.149-.869.446-1.189.3-.32.71-.523 1.23-.609l2.104-.364a.998.998 0 0 0 -.34-.767c-.223-.207-.51-.311-.862-.311-.304 0-.582.065-.832.194-.246.125-.416.251-.51.38l-.158.205-.779-.779.094-.117c.043-.051.135-.137.275-.258a3.45 3.45 0 0 1 .457-.334 2.64 2.64 0 0 1 .633-.258c.266-.078.54-.117.82-.117.704 0 1.28.209 1.729.627.45.414.674.926.674 1.535zm-2.76-.961c.488 0 .87-.144 1.143-.434.277-.293.416-.709.416-1.248v-.117l-1.864.299a.937.937 0 0 0 -.521.264.708.708 0 0 0 -.2.515c0 .192.092.36.276.504.188.145.438.217.75.217zm6.363-4.799h2.637v5.76h-1.195v-1.799h-1.26l-1.143 1.799h-1.318l1.26-1.98a.727.727 0 0 1 -.13-.053 3.031 3.031 0 0 1 -.269-.182 1.977 1.977 0 0 1 -.345-.334 2.054 2.054 0 0 1 -.398-1.23c0-.575.197-1.047.591-1.418.398-.375.922-.563 1.57-.563zm1.442 1.02h-1.442a.932.932 0 0 0 -.685.275.931.931 0 0 0 -.276.686c0 .273.092.502.276.685a.93.93 0 0 0 .685.276h1.442zm6.474.058v4.682h-1.2v-5.76h5.22v5.76h-1.201v-4.682zm10.324 4.682h-1.2v-.598l-.083.077a2.857 2.857 0 0 1 -.58.392 2.648 2.648 0 0 1 -.486.17 2.333 2.333 0 0 1 -.592.076c-.586 0-1.072-.17-1.459-.51-.387-.339-.58-.728-.58-1.166 0-.472.148-.869.445-1.189.301-.32.711-.523 1.23-.609l2.104-.364a.998.998 0 0 0 -.34-.767c-.222-.207-.51-.311-.86-.311-.305 0-.583.065-.833.194-.246.125-.416.251-.51.38l-.158.205-.78-.779.095-.117c.043-.051.134-.137.275-.258.145-.125.297-.236.457-.334.16-.097.371-.183.633-.258.266-.078.539-.117.82-.117.703 0 1.28.209 1.729.627.449.414.673.926.673 1.535zm-2.76-.961c.489 0 .87-.144 1.143-.434.278-.293.416-.709.416-1.248v-.117l-1.863.299a.937.937 0 0 0 -.521.264.708.708 0 0 0 -.2.515c0 .192.092.36.276.504.187.145.437.217.75.217zm5.104-4.799h4.442v5.76h-1.202v-4.682h-2.038v.604c0 1.098-.088 1.965-.264 2.601-.172.633-.395 1.057-.668 1.272-.27.215-.62.322-1.049.322a2.204 2.204 0 0 1 -.615-.094l-.106-.023v-1.143c.16.039.3.061.416.065.246 0 .44-.067.58-.199.145-.133.264-.426.358-.879.097-.457.146-1.098.146-1.922zm10.325 0h1.078v5.76h-1.202v-3.779l-3 3.779h-1.078v-5.76h1.201v3.78l3-3.78zm2.162 1.078v-1.078h5.156v1.078h-1.98v4.682h-1.196v-4.682zm9.293 4.799c-.215 0-.424-.025-.627-.076a2.47 2.47 0 0 1 -.522-.187 4.44 4.44 0 0 1 -.387-.235 3.27 3.27 0 0 1 -.24-.193l-.082-.088v3.182h-1.2v-8.28h1.201v.662a7.76 7.76 0 0 1 .229-.216c.101-.09.314-.207.638-.352.325-.145.655-.217.99-.217.762 0 1.422.293 1.981.879.563.582.844 1.289.844 2.121s-.281 1.541-.844 2.127c-.559.582-1.219.873-1.98.873zm1.095-4.353c-.351-.375-.756-.563-1.213-.563s-.86.188-1.213.563a1.915 1.915 0 0 0 -.527 1.359c0 .527.176.979.528 1.354.351.375.755.562 1.212.562s.862-.187 1.213-.562a1.91 1.91 0 0 0 .528-1.354c0-.531-.176-.984-.528-1.359zm7.664 4.236h-1.201v-.598c-.015.016-.043.041-.082.077a2.14 2.14 0 0 1 -.223.175 2.821 2.821 0 0 1 -.357.217 2.65 2.65 0 0 1 -.486.17 2.332 2.332 0 0 1 -.592.076c-.586 0-1.072-.17-1.459-.51-.387-.339-.58-.728-.58-1.166 0-.472.148-.869.445-1.189.301-.32.711-.523 1.23-.609l2.104-.364a.997.997 0 0 0 -.34-.767c-.222-.207-.51-.311-.861-.311-.305 0-.582.065-.832.194-.246.125-.416.251-.51.38l-.158.205-.78-.779.094-.117a2.85 2.85 0 0 1 .276-.258c.144-.125.297-.236.457-.334.16-.097.371-.183.633-.258.265-.078.539-.117.82-.117.703 0 1.279.209 1.729.627.449.414.673.926.673 1.535zm-2.76-.961c.489 0 .87-.144 1.143-.434.278-.293.416-.709.416-1.248v-.117l-1.863.299a.937.937 0 0 0 -.522.264.708.708 0 0 0 -.199.515c0 .192.092.36.276.504.187.145.437.217.75.217z" fill="#c2c2c2"/><rect fill="#0abab5" height="217" rx="24" transform="matrix(0 1 -1 0 754 318)" width="48" x="218" y="536"/><rect fill="#d9ebff" height="217" rx="24" transform="matrix(0 1 -1 0 814 378)" width="48" x="218" y="596"/><rect fill="#fff" height="217" rx="24" transform="matrix(0 1 -1 0 874 438)" width="48" x="218" y="656"/><rect fill="#1e1e1e" height="217" rx="24" transform="matrix(0 1 -1 0 934 498)" width="48" x="218" y="716"/><path d="m239.529 557-.272 1.354h2.707l-.563 2.698h-2.768l-.273 1.344h2.786l-.624 3.604h1.53l.624-3.604h2.97l-.624 3.604h1.53l.624-3.604h2.707l.263-1.344h-2.698l.545-2.698h2.786l.273-1.354h-2.795l.633-3.604h-1.53l-.632 3.604h-2.971l.633-3.604h-1.53l-.632 3.604zm3.964 1.354h2.971l-.545 2.698h-2.971zm8.367 1.344c0 1.969.51 3.542 1.538 4.72 1.02 1.178 2.277 1.758 3.771 1.758 1.485 0 2.742-.58 3.77-1.758 1.029-1.178 1.547-2.751 1.547-4.72s-.518-3.533-1.547-4.711c-1.028-1.177-2.285-1.766-3.77-1.766-1.494 0-2.751.589-3.771 1.766-1.028 1.178-1.538 2.742-1.538 4.711zm8.64 0c0 1.459-.334 2.602-.984 3.437-.651.835-1.433 1.248-2.347 1.248s-1.696-.413-2.356-1.248c-.65-.835-.984-1.978-.984-3.437 0-1.45.334-2.593.984-3.427.66-.827 1.442-1.249 2.356-1.249s1.696.422 2.347 1.249c.65.834.984 1.977.984 3.427zm2.786 6.302h2.066l1.353-3.331h5.581l1.354 3.331h2.065l-5.221-12.604h-1.977zm6.214-10.354 2.065 5.221h-4.139zm13.772 10.354c1.152 0 2.119-.36 2.892-1.09.774-.721 1.16-1.591 1.16-2.601 0-.378-.07-.747-.211-1.099a4.045 4.045 0 0 0 -.448-.861 3.164 3.164 0 0 0 -.571-.616c-.229-.184-.378-.307-.466-.36s-.149-.097-.193-.114l.325-.255c.202-.167.404-.457.615-.879a3.07 3.07 0 0 0 .316-1.389c0-.879-.36-1.652-1.081-2.32-.72-.677-1.59-1.011-2.61-1.011h-5.124v12.604zm-3.418-1.705v-4.14h3.418c.589 0 1.082.194 1.477.598.396.395.598.888.598 1.476 0 .581-.202 1.073-.598 1.468a2.034 2.034 0 0 1 -1.477.598zm3.146-9.176c.492 0 .896.158 1.222.484.325.325.492.729.492 1.221s-.167.897-.492 1.222a1.66 1.66 0 0 1 -1.222.492h-3.146v-3.419zm5.388 10.881h2.065l1.354-3.331h5.581l1.353 3.331h2.066l-5.221-12.604h-1.978zm6.214-10.354 2.065 5.221h-4.14zm13.772 10.354c1.151 0 2.118-.36 2.892-1.09.773-.721 1.16-1.591 1.16-2.601 0-.378-.071-.747-.211-1.099a4.091 4.091 0 0 0 -.448-.861 3.17 3.17 0 0 0 -.572-.616c-.228-.184-.378-.307-.466-.36-.087-.053-.149-.097-.193-.114l.325-.255c.202-.167.405-.457.616-.879a3.07 3.07 0 0 0 .316-1.389c0-.879-.36-1.652-1.081-2.32-.721-.677-1.591-1.011-2.61-1.011h-5.124v12.604zm-3.419-1.705v-4.14h3.419c.589 0 1.081.194 1.477.598.395.395.597.888.597 1.476 0 .581-.202 1.073-.597 1.468a2.037 2.037 0 0 1 -1.477.598zm3.147-9.176c.492 0 .896.158 1.221.484.325.325.492.729.492 1.221s-.167.897-.492 1.222a1.655 1.655 0 0 1 -1.221.492h-3.147v-3.419zm11.425 2.514c-.966 0-1.687.184-2.162.536l.185-2.971h5.484v-1.802h-7.286l-.36 7.111h1.441l.237-.299c.15-.193.44-.387.862-.58s.896-.29 1.424-.29c.711 0 1.309.246 1.793.721.474.483.72 1.081.72 1.801 0 .721-.246 1.328-.72 1.802-.475.484-1.073.721-1.793.721a4.26 4.26 0 0 1 -1.178-.15 4.575 4.575 0 0 1 -.897-.342 4.035 4.035 0 0 1 -.65-.44 4.344 4.344 0 0 1 -.396-.351 1.029 1.029 0 0 1 -.123-.159l-1.256 1.257.158.22c.123.132.299.29.545.483.246.194.536.387.87.58.334.194.764.352 1.283.493.519.14 1.063.211 1.644.211 1.336 0 2.425-.405 3.252-1.205.826-.808 1.248-1.845 1.248-3.111 0-1.23-.414-2.241-1.222-3.032-.809-.8-1.846-1.204-3.103-1.204zm-79.998 59.367-.272 1.354h2.707l-.563 2.698h-2.768l-.273 1.344h2.786l-.624 3.604h1.53l.624-3.604h2.97l-.624 3.604h1.53l.624-3.604h2.707l.263-1.344h-2.698l.545-2.698h2.786l.273-1.354h-2.795l.633-3.604h-1.53l-.632 3.604h-2.971l.633-3.604h-1.53l-.632 3.604zm3.964 1.354h2.971l-.545 2.698h-2.971zm9.721-4.958v12.604h4.412c1.749 0 3.252-.615 4.509-1.863 1.248-1.24 1.881-2.716 1.881-4.43 0-1.723-.633-3.199-1.881-4.438-1.257-1.248-2.76-1.864-4.509-1.864zm4.412 1.811c1.222 0 2.259.431 3.111 1.301.862.87 1.284 1.933 1.284 3.199 0 1.257-.422 2.32-1.284 3.19-.852.871-1.889 1.31-3.111 1.31h-2.435v-9zm12.955 6.653c.422 0 .782-.061 1.081-.184l-2.795 4.324h1.978l3.603-5.581.255-.36c.158-.238.325-.598.492-1.081.159-.475.246-.958.246-1.442 0-1.169-.439-2.18-1.318-3.032-.879-.853-1.934-1.283-3.182-1.283s-2.311.43-3.19 1.274c-.879.853-1.31 1.863-1.31 3.041 0 1.169.413 2.18 1.248 3.041s1.802 1.283 2.892 1.283zm-2.347-4.315c0-.721.255-1.336.783-1.846a2.672 2.672 0 0 1 1.924-.773c.756 0 1.389.263 1.916.773.519.51.783 1.125.783 1.846s-.264 1.327-.783 1.837c-.527.51-1.16.764-1.916.764-.755 0-1.397-.254-1.924-.764a2.445 2.445 0 0 1 -.783-1.837zm12.147 6.653v-3.867h5.493v-1.802h-5.493v-3.331h6.934v-1.802h-8.912v12.604h9.088v-1.802zm15.214 1.802c1.151 0 2.118-.36 2.891-1.09.774-.721 1.16-1.591 1.16-2.601 0-.378-.07-.747-.21-1.099a4.043 4.043 0 0 0 -.449-.861 3.134 3.134 0 0 0 -.571-.616c-.228-.184-.378-.307-.466-.36s-.149-.097-.193-.114l.325-.255c.202-.167.404-.457.615-.879s.317-.888.317-1.389c0-.879-.361-1.652-1.081-2.32-.721-.677-1.591-1.011-2.611-1.011h-5.124v12.604zm-3.419-1.705v-4.14h3.419c.589 0 1.081.194 1.476.598.396.395.598.888.598 1.476 0 .581-.202 1.073-.598 1.468a2.033 2.033 0 0 1 -1.476.598zm3.146-9.176c.492 0 .897.158 1.222.484.325.325.492.729.492 1.221s-.167.897-.492 1.222-.73.492-1.222.492h-3.146v-3.419zm7.199-1.723v12.604h1.977v-5.493h5.397v-1.793h-5.397v-3.516h6.838v-1.802zm11.337 0v12.604h1.978v-5.493h5.396v-1.793h-5.396v-3.516h6.838v-1.802zm-74.329 63.604-.272 1.354h2.707l-.563 2.698h-2.768l-.273 1.344h2.786l-.624 3.604h1.53l.624-3.604h2.97l-.624 3.604h1.53l.624-3.604h2.707l.263-1.344h-2.698l.545-2.698h2.786l.273-1.354h-2.795l.633-3.604h-1.53l-.632 3.604h-2.971l.633-3.604h-1.53l-.632 3.604zm3.964 1.354h2.971l-.545 2.698h-2.971zm9.721-4.958v12.604h1.977v-5.493h5.397v-1.793h-5.397v-3.516h6.838v-1.802zm11.338 0v12.604h1.977v-5.493h5.397v-1.793h-5.397v-3.516h6.838v-1.802zm11.338 0v12.604h1.977v-5.493h5.397v-1.793h-5.397v-3.516h6.838v-1.802zm11.338 0v12.604h1.977v-5.493h5.397v-1.793h-5.397v-3.516h6.838v-1.802zm11.337 0v12.604h1.978v-5.493h5.396v-1.793h-5.396v-3.516h6.838v-1.802zm11.338 0v12.604h1.978v-5.493h5.396v-1.793h-5.396v-3.516h6.838v-1.802zm-70.374 63.604-.272 1.354h2.707l-.563 2.698h-2.768l-.273 1.344h2.786l-.624 3.604h1.53l.624-3.604h2.97l-.624 3.604h1.53l.624-3.604h2.707l.263-1.344h-2.698l.545-2.698h2.786l.273-1.354h-2.795l.633-3.604h-1.53l-.632 3.604h-2.971l.633-3.604h-1.53l-.632 3.604zm3.964 1.354h2.971l-.545 2.698h-2.971zm13.588-4.958c-.255.51-.58.897-.976 1.178-.395.281-.966.457-1.722.536v1.354h2.25v9.536h1.977v-12.604zm9.624 10.802v-3.867h5.493v-1.802h-5.493v-3.331h6.935v-1.802h-8.912v12.604h9.087v-1.802zm13.685-10.802c-.255.51-.58.897-.976 1.178-.395.281-.967.457-1.723.536v1.354h2.25v9.536h1.978v-12.604zm9.624 10.802v-3.867h5.493v-1.802h-5.493v-3.331h6.934v-1.802h-8.912v12.604h9.088v-1.802zm13.684-10.802c-.255.51-.58.897-.975 1.178-.396.281-.967.457-1.723.536v1.354h2.25v9.536h1.978v-12.604zm9.624 10.802v-3.867h5.493v-1.802h-5.493v-3.331h6.935v-1.802h-8.912v12.604h9.088v-1.802z" fill="#333"/></svg>