<svg fill="none" height="194" viewBox="0 0 358 194" width="358" xmlns="http://www.w3.org/2000/svg"><g stroke="#aeaeae" stroke-width="2"><path d="m144.827 26.4639c8.444 6.6976 10.34 20.5354 5.986 38.0102-4.331 17.3782-14.764 37.9459-30.308 57.5429s-33.1962 34.438-49.1324 42.611c-16.0247 8.218-29.9308 9.522-38.3748 2.824-8.4441-6.697-10.3399-20.535-5.9856-38.01 4.3302-17.378 14.7631-37.9453 30.3073-57.5427 15.5443-19.5973 33.1965-34.4383 49.1325-42.611 16.025-8.218 29.931-9.5221 38.375-2.8244z"/><path d="m204.787 26.4639c8.444 6.6976 10.34 20.5354 5.986 38.0102-4.331 17.3782-14.764 37.9459-30.308 57.5429s-33.196 34.438-49.132 42.611c-16.025 8.218-29.931 9.522-38.3753 2.824-8.444-6.697-10.3399-20.535-5.9856-38.01 4.3303-17.378 14.7629-37.9453 30.3069-57.5427 15.545-19.5973 33.197-34.4383 49.133-42.611 16.025-8.218 29.931-9.5221 38.375-2.8244z"/><path d="m264.747 26.4639c8.444 6.6976 10.34 20.5354 5.985 38.0102-4.33 17.3782-14.763 37.9459-30.307 57.5429s-33.197 34.438-49.133 42.611c-16.024 8.218-29.931 9.522-38.375 2.824-8.444-6.697-10.339-20.535-5.985-38.01 4.33-17.378 14.763-37.9453 30.307-57.5427 15.544-19.5973 33.197-34.4383 49.133-42.611 16.025-8.218 29.931-9.5221 38.375-2.8244z"/><path d="m324.706 26.4639c8.444 6.6976 10.34 20.5354 5.986 38.0102-4.33 17.3782-14.763 37.9459-30.307 57.5429-15.545 19.597-33.197 34.438-49.133 42.611-16.025 8.218-29.931 9.522-38.375 2.824-8.444-6.697-10.34-20.535-5.985-38.01 4.33-17.378 14.763-37.9453 30.307-57.5427 15.544-19.5973 33.196-34.4383 49.133-42.611 16.024-8.218 29.93-9.5221 38.374-2.8244z"/></g></svg>