<svg fill="none" height="283" viewBox="0 0 279 283" width="279" xmlns="http://www.w3.org/2000/svg"><path d="m140.237 1.86351c-.065-.35553-.375-.61351-.737-.61351s-.672.25798-.737.61351l-12.232 66.08809-34.0965-57.9192c-.1834-.31161-.5631-.44796-.9028-.3243-.3398.12367-.543.4721-.4832.8287l11.1095 66.2858-51.8497-42.7644c-.2789-.2301-.6823-.2283-.9593.0041-.2769.2324-.3487.6293-.1705.944l33.111 58.4884-63.3495-22.4516c-.3408-.1208-.7193.0188-.9001.3319s-.1124.7107.1626.9454l51.1184 43.6366-67.20793.569c-.36156.003-.66947.264-.73225.62-.06279.356.13742.706.47613.833l62.96005 23.521-62.96005 23.521c-.33871.127-.53892.477-.47613.833.06278.356.37069.617.73225.62l67.20793.569-51.1184 43.637c-.275.234-.3434.632-.1626.945s.5593.453.9001.332l63.3495-22.452-33.111 58.489c-.1782.314-.1064.711.1705.944.277.232.6804.234.9593.004l51.8497-42.765-11.1095 66.286c-.0598.357.1434.705.4832.829.3397.124.7194-.013.9028-.324l34.0965-57.92 12.232 66.088c.065.356.375.614.737.614s.672-.258.737-.614l12.232-66.088 34.096 57.92c.184.311.564.448.903.324.34-.124.543-.472.483-.829l-11.109-66.286 51.85 42.765c.279.23.682.228.959-.004.277-.233.349-.63.171-.944l-33.111-58.489 63.349 22.452c.341.121.719-.019.9-.332s.112-.711-.163-.945l-51.118-43.637 67.208-.569c.362-.003.669-.264.732-.62s-.137-.706-.476-.833l-62.96-23.521 62.96-23.521c.339-.127.539-.477.476-.833s-.37-.617-.732-.62l-67.208-.569 51.118-43.6366c.275-.2347.344-.6323.163-.9454s-.559-.4527-.9-.3319l-63.349 22.4516 33.111-58.4884c.178-.3147.106-.7116-.171-.944s-.68-.2342-.959-.0041l-51.85 42.7644 11.109-66.2858c.06-.3566-.143-.70503-.483-.8287-.339-.12366-.719.01269-.903.3243l-34.096 57.9192z" stroke="#333" stroke-linecap="square" stroke-linejoin="round" stroke-width="1.5"/></svg>