<svg fill="none" height="66" viewBox="0 0 66 66" width="66" xmlns="http://www.w3.org/2000/svg"><circle cx="33.1696" cy="33.1704" fill="#fffcde" r="32.7983"/><path d="m19.0765 32.0189-.1588.7892h1.5784l-.328 1.5733h-1.6143l-.1589.7841h1.6246l-.3639 2.1011h.8917l.3639-2.1011h1.7322l-.3639 2.1011h.8917l.3639-2.1011h1.5784l.1537-.7841h-1.5733l.3178-1.5733h1.6245l.1589-.7892h-1.6297l.369-2.1012h-.8917l-.369 2.1012h-1.7322l.369-2.1012h-.8917l-.369 2.1012zm2.3113.7892h1.7322l-.3178 1.5733h-1.7321zm7.8203-.5791h-1.1581v-.8302c0-.1845.0563-.3383.1793-.4612.1179-.1179.2665-.1794.4459-.1794.1793.0051.3536.041.5278.1076v-.9481l-.0974-.0205c-.0512-.0205-.1434-.0358-.2664-.0563-.123-.0154-.246-.0257-.3741-.0257-.9737 0-1.4657.5279-1.4657 1.5733v.8405h-.738v.9429h.738v4.0947h1.0454v-4.0947h1.1582zm4.93 2.5214c0 .4714-.1588.866-.4663 1.1889-.3126.328-.6816.4868-1.107.4868-.4304 0-.7994-.1588-1.112-.4868-.3126-.3229-.4664-.7175-.4664-1.1889 0-.4715.1538-.8661.4664-1.1941.3126-.3229.6816-.4869 1.112-.4869.4254 0 .7944.164 1.107.4869.3075.328.4663.7226.4663 1.1941zm-4.1971 0c0 .7072.2562 1.317.7789 1.8397.5228.5228 1.1377.7841 1.8449.7841.7073 0 1.3171-.2613 1.8398-.7841.5227-.5227.7841-1.1325.7841-1.8397 0-.7073-.2614-1.3222-.7841-1.845-.5227-.5227-1.1325-.784-1.8398-.784-.7072 0-1.3221.2613-1.8449.784-.5227.5228-.7789 1.1377-.7789 1.845zm10.2853 0c0 .4714-.1588.866-.4663 1.1889-.3126.328-.6816.4868-1.107.4868-.4304 0-.7994-.1588-1.112-.4868-.3126-.3229-.4664-.7175-.4664-1.1889 0-.4715.1538-.8661.4664-1.1941.3126-.3229.6816-.4869 1.112-.4869.4254 0 .7944.164 1.107.4869.3075.328.4663.7226.4663 1.1941zm-4.1971 0c0 .7072.2562 1.317.7789 1.8397.5228.5228 1.1377.7841 1.8449.7841s1.3171-.2613 1.8398-.7841c.5227-.5227.7841-1.1325.7841-1.8397 0-.7073-.2614-1.3222-.7841-1.845-.5227-.5227-1.1326-.784-1.8398-.784s-1.3221.2613-1.8449.784c-.5227.5228-.7789 1.1377-.7789 1.845zm8.5532-2.629c-.6663 0-1.2454.2562-1.7322.7687-.492.5124-.7328 1.1274-.7328 1.8551s.2408 1.3478.7328 1.8603c.4868.5125 1.0659.7636 1.7322.7636.2921 0 .5791-.0615.8609-.1845.287-.123.4715-.2255.5586-.3024.0871-.0819.1537-.1434.1999-.1896v.5791h1.0505v-7.3488h-1.0505v2.8903l-.0718-.0769c-.041-.041-.1076-.0973-.2101-.1691-.0974-.0717-.2101-.1384-.3331-.205s-.2767-.123-.4561-.1691-.3639-.0717-.5483-.0717zm.1024 4.3099c-.3997 0-.7533-.164-1.0608-.492s-.4612-.7277-.4612-1.1889c0-.4613.1537-.8559.4612-1.1839.3075-.3279.6611-.4919 1.0608-.4919.3998 0 .7534.164 1.0609.4919.3075.328.4612.7226.4612 1.1839 0 .4612-.1537.8609-.4612 1.1889s-.6611.492-1.0609.492z" fill="#878787"/></svg>