<svg fill="none" height="60" viewBox="0 0 60 60" width="60" xmlns="http://www.w3.org/2000/svg" xmlns:xlink="http://www.w3.org/1999/xlink"><filter id="a" color-interpolation-filters="sRGB" filterUnits="userSpaceOnUse" height="36" width="35" x="14" y="8"><feFlood flood-opacity="0" result="BackgroundImageFix"/><feGaussianBlur in="BackgroundImage" stdDeviation="1.5"/><feComposite in2="SourceAlpha" operator="in" result="effect1_backgroundBlur"/><feBlend in="SourceGraphic" in2="effect1_backgroundBlur" mode="normal" result="shape"/></filter><circle cx="36" cy="34" fill="#82c8f4" r="14"/><circle cx="16.5" cy="19.5" fill="#0abab5" r="5.5"/><circle cx="13" cy="37" fill="#f0f5fa" r="3"/><g fill="#fff" fill-opacity=".6" filter="url(#a)"><path d="m37.2359 40c-.5493.6133-1.3475 1-2.2359 1h-15c-1.6569 0-3-1.3438-3-3v-23c0-1.6562 1.3431-3 3-3h1.2673c.3458-.5977.9923-1 1.7327-1h16c1.1046 0 2 .8945 2 2v25c0 1.1055-.8954 2-2 2z"/><path d="m46 31c0 2.7614-2.2386 5-5 5s-5-2.2386-5-5 2.2386-5 5-5 5 2.2386 5 5z"/></g><g stroke="#000" stroke-width=".75"><path d="m37.6929 39.1927c0 .8886-.6361 1.6256-1.4741 1.7771-.1111.0202-.2222.0303-.3332.0303h-16.7813c-.9997 0-1.8074-.8078-1.8074-1.8074v-24.8892c0-.1818.0303-.3534.0808-.515.2221-.7472.9188-1.2924 1.7366-1.2924h1.9266" stroke-miterlimit="10"/><path d="m41.4369 36v1.6966c0 .8886-.6361 1.6256-1.4741 1.7771-.1111.0202-.2222.0303-.3332.0303h-16.7813c-.9997 0-1.8074-.8078-1.8074-1.8074v-24.8892c0-.1818.0303-.3534.0808-.515.2221-.7472.9188-1.2924 1.7366-1.2924h16.7814c.9895 0 1.7972.8078 1.7972 1.8074v13.1926" stroke-miterlimit="10"/><circle cx="41" cy="31" r="5" stroke-linecap="round" stroke-linejoin="round"/><path d="m41 29v4" stroke-linecap="round" stroke-linejoin="round"/><path d="m39 31h4" stroke-linecap="round" stroke-linejoin="round"/></g><circle cx="34.7675" cy="14.7441" fill="#000" r="1.248"/><circle cx="31.0234" cy="14.7441" fill="#000" r="1.248"/><circle cx="38.5117" cy="14.7441" fill="#000" r="1.248"/></svg>