<svg fill="none" height="196" viewBox="0 0 197 196" width="197" xmlns="http://www.w3.org/2000/svg"><g fill="#333"><path d="m0 88.3766 20.5946-.3395.0566 3.3947-14.71046.2263 10.46706 6.0539v.3961l-10.29732 6.4499 14.71042-.226.0566 3.394-20.538029.34-.056579-3.621 10.184108-6.3935-10.4104215-6.0539z"/><path d="m22.6883 80.0587-21.726111 1.7539.905251-3.5645 17.36956-1.1881-14.59721-9.392.90526-3.5645 18.16165 12.0512z"/><path d="m11.3164 52.1081c.9053-1.7539 2.2066-2.8855 3.9605-3.4512 1.7539-.5658 3.4513-.3961 5.2052.4526 1.6974.8487 2.8289 2.15 3.3947 3.9605.5658 1.7539.3961 3.5078-.4526 5.2052l-1.9237 3.7342 6.2802 3.225-1.5276 2.9986-18.38799-9.392zm9.2223 4.6961c.4526-.9053.5092-1.754.2263-2.6592-.2829-.9053-.9052-1.5842-1.8671-2.0369-.9052-.4526-1.8105-.5657-2.7157-.2828-.9053.2263-1.5842.792-2.0369 1.6973l-1.9236 3.7342 6.3933 3.2815z"/><path d="m45.0369 14.5977 12.7867 16.1248-2.6591 2.0934-9.1092-11.4854 1.4711 12.0512-.3395.2829-11.3723-4.2434 9.1091 11.542-2.546 2.0369-12.8433-16.1249 2.8855-2.2631 11.2591 4.1868-1.5276-11.9381z"/><path d="m65.2924 27.4402-14.8235-16.0118 3.3947-1.47099 11.5986 12.95649-1.5276-17.36962 3.3947-1.47104 1.6973 21.72616z"/><path d="m80.2859 1.18841c1.9237-.396051 3.6211-.05658 5.1487.96183 1.5276 1.01842 2.4894 2.48946 2.8289 4.35655s0 3.56441-1.0184 5.09211c-1.0184 1.5276-2.4895 2.4894-4.4131 2.8289l-4.1303.7921 1.3579 6.9591-3.3381.6224-3.9039-20.19853zm1.9803 10.18409c.9618-.1697 1.7539-.6789 2.2065-1.471.5092-.7921.679-1.69736.4527-2.71577-.1698-1.01841-.679-1.81051-1.4711-2.31972-.7921-.56578-1.6408-.73552-2.6026-.50921l-4.1302.7921 1.3579 7.0723z"/><path d="m130.527 4.58286-4.809 20.02874-3.281-.7921 3.451-14.25773-8.487 8.59993-.396-.1132-3.677-11.54197-3.452 14.31437-3.281-.7921 4.752-20.0288 3.565.848677 3.621 11.485423 8.487-8.54334z"/><path d="m132.96 28.4598 3.508-21.49984 3.282 1.75393-3.056 17.14331 12.674-11.8815 3.225 1.7539-16.068 14.7104z"/><path d="m162.833 24.1029c1.471 1.2448 2.263 2.829 2.433 4.6395.113 1.8105-.396 3.4513-1.698 4.9223-1.244 1.4145-2.772 2.2066-4.639 2.3763-1.867.1132-3.508-.4526-4.979-1.6974l-3.168-2.7723-4.64 5.3184-2.546-2.2066 13.466-15.5591zm-6.789 7.8079c.735.6789 1.584.9618 2.546.8486.961-.1131 1.753-.5092 2.432-1.3013s1.019-1.6407.962-2.6026c-.056-.9618-.452-1.7539-1.188-2.3763l-3.168-2.7723-4.696 5.4315z"/><path d="m191.236 65.744-18.728 8.5433-1.414-3.0552 13.352-6.1105-12.051-1.4144-.17-.3961 6.846-10.0144-13.352 6.1105-1.414-3.0553 18.727-8.5433 1.528 3.3381-6.79 9.9578 11.938 1.4145z"/><path d="m173.923 82.3771 19.124-10.5236.622 3.6776-15.333 8.1473 17.2 2.6592.623 3.621-21.5-3.5644z"/><path d="m195.819 103.198c-.114 1.924-.793 3.508-2.15 4.753-1.358 1.245-2.999 1.811-4.923 1.697-1.923-.113-3.451-.792-4.696-2.206-1.245-1.358-1.81-2.999-1.697-4.979l.226-4.1868-7.072-.3395.17-3.3947 20.594.9618zm-10.354-.509c-.057 1.019.226 1.811.905 2.49.622.679 1.471 1.018 2.546 1.075 1.018.056 1.924-.227 2.603-.849.678-.622 1.075-1.414 1.131-2.433l.226-4.1866-7.185-.3395z"/><path d="m180.485 151.235-18.274-9.449 1.584-2.998 13.013 6.733-6.337-10.354.17-.34 12.107-.792-13.069-6.789 1.584-2.999 18.275 9.449-1.697 3.225-11.995.792 6.28 10.297z"/><path d="m156.723 147.84 20.086 8.543-2.49 2.773-15.898-7.016 8.543 15.163-2.489 2.716-10.467-19.124z"/><path d="m153.893 177.94c-1.584 1.131-3.281 1.527-5.092 1.244-1.81-.283-3.281-1.244-4.413-2.829-1.075-1.527-1.471-3.225-1.188-5.035.283-1.811 1.245-3.282 2.829-4.413l3.451-2.433-4.073-5.771 2.772-1.98 11.938 16.803zm-5.997-8.431c-.792.566-1.301 1.358-1.414 2.264-.113.905.113 1.81.679 2.659.622.848 1.358 1.358 2.263 1.527.905.17 1.81 0 2.602-.622l3.452-2.433-4.131-5.827z"/><path d="m106.594 195.536-3.847-20.255 3.338-.622 2.715 14.427 4.244-11.315.396-.057 8.091 9.053-2.716-14.428 3.338-.622 3.847 20.255-3.564.679-8.034-8.94-4.244 11.26z"/><path d="m94.5995 174.772 5.7145 21.047-3.6777-.283-4.3-16.86-6.6196 16.068-3.6776-.283 8.5433-20.028z"/><path d="m69.1962 191.066c-1.8671-.566-3.225-1.641-4.1302-3.225-.9053-1.641-1.075-3.339-.5092-5.206.5657-1.81 1.6407-3.168 3.2249-4.073 1.6408-.906 3.3382-1.019 5.2053-.51l4.017 1.189 2.0369-6.79 3.2249.962-5.8841 19.746zm2.9421-9.902c-.9619-.283-1.8671-.169-2.6592.283-.7921.453-1.3579 1.188-1.6408 2.207-.2829 1.018-.2263 1.923.1697 2.772.3961.849 1.1316 1.415 2.0935 1.697l4.017 1.189 2.0369-6.903z"/><path d="m26.1958 164.701 13.5789-15.503 2.546 2.207-9.6749 11.033 11.542-3.678.2829.283-2.0934 11.938 9.6749-11.033 2.546 2.207-13.5788 15.502-2.7723-2.376 2.0934-11.825-11.4855 3.621z"/><path d="m35.1355 142.465-13.0696 17.483-2.0934-3.055 10.5801-13.806-16.7472 4.696-2.0368-3.055 21.0472-5.601z"/><path d="m6.6206 132.506c-.73552-1.81-.67894-3.564 0-5.261.73552-1.698 1.98025-2.886 3.7908-3.565 1.7539-.679 3.5078-.679 5.2052.057 1.6973.735 2.8855 1.98 3.621 3.79l1.5276 3.904 6.5631-2.602 1.2448 3.168-19.18015 7.582zm9.6183-3.79c-.3394-.906-.9618-1.585-1.867-1.924-.9053-.34-1.8106-.34-2.7724.056-.9618.397-1.64077 1.019-2.03682 1.868-.39605.848-.39605 1.753-.05658 2.659l1.5276 3.904 6.6763-2.66z"/></g></svg>