<svg fill="none" height="60" viewBox="0 0 60 60" width="60" xmlns="http://www.w3.org/2000/svg" xmlns:xlink="http://www.w3.org/1999/xlink"><filter id="a" color-interpolation-filters="sRGB" filterUnits="userSpaceOnUse" height="37" width="37" x="12" y="11.7402"><feFlood flood-opacity="0" result="BackgroundImageFix"/><feGaussianBlur in="BackgroundImage" stdDeviation="1.5"/><feComposite in2="SourceAlpha" operator="in" result="effect1_backgroundBlur"/><feBlend in="SourceGraphic" in2="effect1_backgroundBlur" mode="normal" result="shape"/></filter><filter id="b" color-interpolation-filters="sRGB" filterUnits="userSpaceOnUse" height="41.4257" width="40.4238" x="16.0874" y="12.0137"><feFlood flood-opacity="0" result="BackgroundImageFix"/><feGaussianBlur in="BackgroundImage" stdDeviation="1.94629"/><feComposite in2="SourceAlpha" operator="in" result="effect1_backgroundBlur"/><feBlend in="SourceGraphic" in2="effect1_backgroundBlur" mode="normal" result="shape"/></filter><circle cx="16.6777" cy="33.0586" fill="#0abab5" r="11.6777"/><g filter="url(#a)"><circle cx="30.5" cy="30.2402" fill="#fff" fill-opacity=".6" r="15.5"/></g><circle cx="38.0876" cy="18.1364" fill="#f0f5fa" r="7.13638"/><circle cx="51.595" cy="26.3353" fill="#82c8f4" r="2.59505"/><g filter="url(#b)"><path d="m32.1426 46.3891c3.3229-.4777 6.4074-2.0007 8.8069-4.3484s3.9895-5.3983 4.5396-8.7099c.5501-3.3117.0318-6.7124-1.4799-9.7098-1.5116-2.9974-4.0208-5.3544-7.0108-6.8807" stroke="#000" stroke-linecap="round" stroke-linejoin="round" stroke-width=".75"/></g><g stroke="#000" stroke-linecap="round" stroke-linejoin="round" stroke-width=".75"><path d="m24.1184 44.5165c-3.0125-1.4908-5.4911-3.866-7.0805-6.785s-2.2081-6.2321-1.7674-9.4644c.4407-3.2322 1.9182-6.2177 4.2207-8.5286s5.3118-3.8285 8.5967-4.3353"/><path d="m41.4043 14.7168-5.4296 1.4783 1.4784 5.4296"/><path d="m19.332 46.0664 5.4582-1.3692-1.3692-5.4581"/></g></svg>