<svg fill="none" height="241" viewBox="0 0 215 241" width="215" xmlns="http://www.w3.org/2000/svg" xmlns:xlink="http://www.w3.org/1999/xlink"><filter id="a" color-interpolation-filters="sRGB" filterUnits="userSpaceOnUse" height="223.593" width="211.757" x=".891022" y="16.891"><feFlood flood-opacity="0" result="BackgroundImageFix"/><feColorMatrix in="SourceAlpha" type="matrix" values="0 0 0 0 0 0 0 0 0 0 0 0 0 0 0 0 0 0 127 0"/><feOffset dy="5"/><feGaussianBlur stdDeviation="8.55449"/><feColorMatrix type="matrix" values="0 0 0 0 0.73559 0 0 0 0 0.763628 0 0 0 0 0.791667 0 0 0 0.17 0"/><feBlend in2="BackgroundImageFix" mode="normal" result="effect1_dropShadow"/><feBlend in="SourceGraphic" in2="effect1_dropShadow" mode="normal" result="shape"/></filter><clipPath id="b"><path d="m18 29h177.539v189.375h-177.539z"/></clipPath><clipPath id="c"><path d="m18 29h177.539v189.375h-177.539z"/></clipPath><clipPath id="d"><path d="m157.401 199.964h26.3021v11.8359h-26.3021z"/></clipPath><clipPath id="e"><path d="m157.401 199.964h26.3021v11.8359h-26.3021z"/></clipPath><g clip-path="url(#b)" filter="url(#a)"><g clip-path="url(#c)"><path d="m18 35.5755c0-3.6315 2.944-6.5755 6.5755-6.5755h159.1275c3.632 0 6.576 2.944 6.576 6.5755v182.7995h-165.7035c-3.6315 0-6.5755-2.944-6.5755-6.576z" fill="#d9ebff"/><path d="m176.054 193.205 7.327-4.358c.2-.118.322-.333.322-.565v-5.415h-159.1279v5.989c0 .479.496.798.9316.598l4.5748-2.097c.1759-.081.3785-.08.5537.003l7.8217 3.676c.1637.077.3518.083.5202.017l6.2901-2.472c.1262-.049.2647-.059.3964-.026l10.5991 2.588c.0816.02.1661.024.2492.012l8.455-1.21c.063-.009.1269-.009.1899.001l8.0723 1.199c.1223.018.2473.002.3606-.048l8.5951-3.767c.1473-.064.313-.073.466-.023l11.6626 3.766c.1955.063.4092.031.5778-.086l4.2733-2.976c.175-.121.3983-.151.5989-.078l6.9296 2.499c.154.056.323.052.475-.011l7.449-3.088c.16-.066.34-.066.5-.001l7.585 3.089c.129.053.271.063.405.03l10.491-2.578c.147-.036.302-.02.439.045l6.625 3.145c.149.071.32.083.478.033l7.618-2.387c.111-.035.229-.039.342-.014l7.772 1.764c.122.028.25.02.367-.022l7.045-2.525c.168-.061.354-.05.515.03l10.626 5.286c.2.1.437.091.629-.023z" fill="#fff"/><path d="m24.5735 44.124h159.128v138.743h-159.128z" fill="#fff"/><path d="m32.4651 88.1797h143.3459" stroke="#dadada" stroke-dasharray="1.97 1.97" stroke-width=".328776"/><path d="m32.4651 144.729 143.3459.001" stroke="#dadada" stroke-dasharray="1.97 1.97" stroke-width=".328776"/><path d="m32.8241 53.355c.2577-.2209.5631-.3928.916-.5155.3559-.1228.7502-.1841 1.1829-.1841.359 0 .6827.0429.9712.1289.2915.0859.5385.2071.7411.3636.2025.1534.3574.3375.4648.5523.1105.2118.1657.445.1657.6997 0 .313-.0721.5968-.2163.8515-.1411.2516-.3559.4557-.6444.6122.1534.0736.2931.1611.4189.2623.1289.0982.2378.2087.3268.3314.092.1197.1626.2501.2117.3913.0522.1411.0783.2915.0783.4511 0 .3007-.0568.5815-.1704.8423-.1104.2608-.2731.4879-.4879.6812-.2117.1933-.4725.3468-.7824.4603-.31.1105-.6644.1657-1.0633.1657-.2332 0-.4618-.0215-.6858-.0644-.221-.0399-.4327-.0982-.6352-.1749-.2026-.0768-.3928-.1688-.5708-.2762s-.336-.2271-.4741-.359l.3636-.5938c.0338-.043.0737-.0783.1197-.1059.0491-.0307.1028-.046.1611-.046.0798 0 .1673.0322.2624.0967.0951.0613.2102.1304.3452.2071s.2946.1473.4787.2117c.1872.0614.4112.0921.672.0921.4143 0 .7349-.089.962-.267s.3406-.4511.3406-.8193c0-.1504-.0307-.2854-.092-.4051-.0614-.1196-.1489-.2209-.2624-.3037-.1135-.0829-.2516-.1458-.4142-.1888-.1596-.046-.3376-.069-.534-.069h-.939l-.0046-.9942h.8562c.3835 0 .6827-.0752.8975-.2256.2179-.1534.3268-.3743.3268-.6628 0-.2547-.1028-.4572-.3084-.6076-.2025-.1534-.4971-.2301-.8837-.2301-.224 0-.4173.0246-.58.0737-.1595.049-.2992.1027-.4188.1611-.1166.0552-.2164.1074-.2992.1564-.0798.0491-.1519.0737-.2164.0737-.0613 0-.1135-.0153-.1565-.046-.0429-.0307-.0828-.0767-.1196-.1381zm7.8749 4.0137c-.3284.0154-.6045.0445-.8285.0875-.2241.0399-.4036.092-.5386.1565-.135.0644-.2317.1396-.29.2255s-.0874.1795-.0874.2808c0 .1994.0583.3421.1749.428.1197.086.2746.1289.4649.1289.2332 0 .4342-.0414.603-.1243.1718-.0859.339-.2148.5017-.3866zm-2.6053-2.0483c.5432-.4971 1.1968-.7456 1.9609-.7456.2761 0 .5232.046.741.1381.2179.0889.402.2148.5524.3774.1503.1596.2639.3513.3406.5754.0798.224.1197.4694.1197.7364v2.9827h-.5156c-.1074 0-.1902-.0154-.2485-.0461-.0583-.0337-.1044-.0997-.1381-.1979l-.1013-.3406c-.1196.1074-.2362.2025-.3498.2854-.1135.0798-.2317.1473-.3544.2025s-.2547.0967-.3959.1243c-.138.0307-.2915.046-.4602.046-.1995 0-.3836-.0261-.5524-.0782-.1688-.0553-.3145-.1366-.4373-.244-.1227-.1074-.2178-.2409-.2853-.4004-.0675-.1596-.1013-.3453-.1013-.557 0-.1197.0199-.2378.0598-.3544.0399-.1197.1044-.2332.1934-.3406.092-.1074.2102-.2087.3544-.3038s.3206-.178.5293-.2486c.2117-.0705.4572-.1273.7365-.1703.2792-.046.5983-.0736.9574-.0828v-.2762c0-.3161-.0675-.5493-.2026-.6996-.135-.1535-.3298-.2302-.5845-.2302-.1841 0-.3376.0215-.4603.0645-.1197.0429-.2256.092-.3176.1473-.0921.0521-.1765.0997-.2532.1427-.0736.0429-.1565.0644-.2485.0644-.0798 0-.1473-.02-.2025-.0598-.0553-.043-.0998-.0921-.1335-.1473zm7.4984-.359c.0552-.089.1304-.1611.2255-.2163.0951-.0553.1964-.0829.3038-.0829h.8929l-1.1 1.7537c-.0768.1228-.155.2225-.2348.2992-.0798.0736-.1764.132-.29.1749.1535.046.2793.1151.3775.2071.0982.089.1871.2026.2669.3407l1.1047 1.947h-.7871c-.1994 0-.3544-.0338-.4649-.1013-.1104-.0675-.204-.1642-.2807-.29l-.6951-1.3072c-.0613-.1135-.1411-.1979-.2393-.2531-.0951-.0553-.2071-.0829-.336-.0829h-.4281v2.0345h-1.1369v-4.7226h1.1369v1.947h.3682c.1289 0 .2317-.023.3084-.069.0798-.0491.1473-.1227.2026-.2209zm4.5631 2.4073c-.3284.0154-.6045.0445-.8285.0875-.224.0399-.4036.092-.5386.1565-.135.0644-.2316.1396-.2899.2255-.0584.0859-.0875.1795-.0875.2808 0 .1994.0583.3421.1749.428.1197.086.2746.1289.4649.1289.2332 0 .4342-.0414.603-.1243.1718-.0859.339-.2148.5017-.3866zm-2.6052-2.0483c.5431-.4971 1.1967-.7456 1.9608-.7456.2762 0 .5232.046.741.1381.2179.0889.402.2148.5524.3774.1503.1596.2639.3513.3406.5754.0798.224.1197.4694.1197.7364v2.9827h-.5155c-.1074 0-.1903-.0154-.2486-.0461-.0583-.0337-.1043-.0997-.1381-.1979l-.1013-.3406c-.1196.1074-.2362.2025-.3498.2854-.1135.0798-.2316.1473-.3544.2025-.1227.0552-.2547.0967-.3958.1243-.1381.0307-.2916.046-.4603.046-.1995 0-.3836-.0261-.5524-.0782-.1687-.0553-.3145-.1366-.4372-.244-.1228-.1074-.2179-.2409-.2854-.4004-.0675-.1596-.1013-.3453-.1013-.557 0-.1197.02-.2378.0599-.3544.0398-.1197.1043-.2332.1933-.3406.092-.1074.2102-.2087.3544-.3038s.3207-.178.5293-.2486c.2118-.0705.4572-.1273.7365-.1703.2792-.046.5984-.0736.9574-.0828v-.2762c0-.3161-.0675-.5493-.2025-.6996-.1351-.1535-.3299-.2302-.5846-.2302-.1841 0-.3376.0215-.4603.0645-.1197.0429-.2255.092-.3176.1473-.092.0521-.1764.0997-.2531.1427-.0737.0429-.1565.0644-.2486.0644-.0798 0-.1473-.02-.2025-.0598-.0553-.043-.0998-.0921-.1335-.1473zm4.4005-.1473c.178-.1718.399-.3114.6629-.4188.2639-.1105.5799-.1657.9481-.1657.2916 0 .5509.0353.7779.1058.2271.0676.4174.1611.5708.2808.1565.1166.2746.2516.3544.4051.0829.1503.1243.3084.1243.4741 0 .089-.0138.1825-.0414.2807-.0246.0952-.0675.1888-.1289.2808-.0583.0921-.1366.178-.2348.2578-.0982.0767-.2194.1427-.3636.1979.2578.0982.4649.2424.6214.4327.1596.1902.2393.425.2393.7042 0 .2302-.0537.4342-.1611.6122-.1043.178-.2439.3299-.4188.4557-.1749.1227-.3759.2163-.603.2807-.224.0645-.4557.0967-.695.0967-.135 0-.2808-.0123-.4373-.0368-.1534-.0246-.3084-.066-.4649-.1243-.1565-.0614-.3099-.1411-.4603-.2393-.1503-.1013-.2869-.2256-.4096-.3729l.3268-.4142c.046-.0706.115-.1059.2071-.1059.0706 0 .1381.023.2025.069.0645.043.1381.0921.221.1473.0859.0522.1872.1013.3038.1473.1166.043.2623.0645.4372.0645.2854 0 .5017-.0645.649-.1934.1473-.1288.221-.2899.221-.4833 0-.1902-.0767-.339-.2302-.4464-.1503-.1074-.3958-.1611-.7364-.1611h-.534v-.7411h.534c.2976 0 .5262-.0522.6858-.1565s.2393-.2424.2393-.4142c0-.1565-.0705-.2854-.2117-.3867-.1381-.1012-.3437-.1519-.6168-.1519-.1626 0-.3007.0169-.4142.0507-.1136.0337-.2118.0705-.2946.1104-.0798.0368-.1473.0721-.2025.1059-.0553.0337-.1074.0506-.1565.0506-.0522 0-.0967-.0092-.1335-.0276-.0368-.0215-.0767-.066-.1197-.1335zm11.2705-2.4441h1.0909v6.6558h-.6398c-.0951 0-.1765-.0154-.244-.0461-.0644-.0337-.1273-.089-.1887-.1657l-3.4797-4.4371c.0092.1012.0153.201.0184.2992.0061.0951.0092.1825.0092.2623v4.0874h-1.0863v-6.6558h.6444c.0552 0 .1013.0031.1381.0092.0368.0031.0706.0123.1012.0276.0307.0123.0599.0323.0875.0599.0276.0245.0583.0583.0921.1012l3.4889 4.451c-.0122-.1074-.0215-.2117-.0276-.313-.0031-.1043-.0046-.201-.0046-.29zm3.443.6628c-.2271 0-.4036.0706-.5294.2118-.1227.1381-.1841.3314-.1841.5799 0 .2486.0614.4419.1841.58.1258.1381.3023.2071.5294.2071.224 0 .3973-.069.5201-.2071.1258-.1381.1887-.3314.1887-.58 0-.2485-.0629-.4418-.1887-.5799-.1228-.1412-.2961-.2118-.5201-.2118zm.0046 2.3475c-.2394 0-.4573-.0399-.6537-.1197-.1933-.0798-.359-.1887-.4971-.3268-.138-.1411-.2454-.3053-.3222-.4925-.0767-.1872-.115-.3882-.115-.603 0-.2178.0383-.4204.115-.6075.0768-.1903.1842-.3545.3222-.4925.1381-.1412.3038-.2517.4971-.3315.1964-.0797.4143-.1196.6537-.1196.2393 0 .4556.0414.649.1242.1963.0798.3636.1903.5017.3315.1381.138.2455.3022.3222.4925.0767.1871.115.3881.115.6029s-.0383.4158-.115.603-.1841.3514-.3222.4925c-.1381.1381-.3054.247-.5017.3268-.1934.0798-.4097.1197-.649.1197zm-1.565.4557h3.1115v.8055h-3.1115zm8.2158 2.3382v.8516h-3.6823v-.8516h1.3487v-3.8802c0-.1534.0046-.3114.0138-.4741l-.9574.8009c-.0552.043-.1105.0706-.1657.0829-.0522.0092-.1028.0092-.1519 0-.046-.0092-.0875-.0246-.1243-.0461-.0368-.0245-.0644-.0506-.0828-.0782l-.3591-.4925 2.0299-1.7261h.9344v5.8134z" fill="#49494f"/><path d="m35.2296 35.6226-10.1506 2.4114c-.2963.0704-.5055.3352-.5055.6398v4.7927c0 .3631.2943.6575.6575.6575h158.47v-8.6184c0-.5284-.592-.841-1.028-.5431l-6.496 4.4335c-.206.1404-.473.1526-.691.0315l-8.945-4.9764c-.21-.1173-.469-.1097-.672.0198l-7.832 4.9816c-.171.1088-.383.1327-.574.0645l-10.896-3.8861c-.132-.047-.275-.0507-.409-.0106l-8.278 2.4764c-.125.0374-.259.0367-.384-.002l-7.925-2.4621c-.154-.0477-.319-.0375-.466.0288l-8.536 3.8576c-.15.0681-.321.077-.478.0247l-11.649-3.8791c-.2-.0666-.42-.0332-.591.0897l-4.148 2.9781c-.237.1701-.557.1638-.788-.0155l-5.3682-4.1842c-.211-.1644-.5005-.1847-.7323-.0513l-8.6533 4.9811c-.1779.1024-.3935.1158-.5827.0363l-7.5305-3.1629c-.1316-.0553-.2777-.0662-.4161-.0311l-10.4786 2.6553c-.1511.0382-.3107.0216-.4507-.0469l-6.6143-3.2379c-.1531-.0749-.3292-.0875-.4913-.0351l-7.5917 2.4528c-.1234.0399-.2559.0424-.3807.0072l-6.3256-1.7843c-.1493-.0421-.3088-.0301-.4501.034l-5.5633 2.5228c-.2018.0915-.4362.0752-.6235-.0434l-4.9287-3.1224c-.1497-.0949-.3314-.1253-.5038-.0843z" fill="#fff"/><g fill="#49494f"><path d="m37.786 72.9782h-2.0989v5.7904h-.9758v-5.7904h-2.1082v-.8194h5.1829zm1.5363 1.0402c.3437 0 .6537.0568.9298.1703.2793.1105.5155.2716.7089.4833.1964.2087.3467.4618.4511.7595.1043.2946.1564.626.1564.9942s-.0521.7012-.1564.9988c-.1044.2977-.2547.5508-.4511.7595-.1934.2087-.4296.3698-.7089.4833-.2761.1105-.5861.1657-.9298.1657-.3467 0-.6597-.0552-.9389-.1657-.2762-.1135-.5125-.2746-.7089-.4833s-.3483-.4618-.4557-.7595c-.1043-.2976-.1565-.6306-.1565-.9988s.0522-.6996.1565-.9942c.1074-.2977.2593-.5508.4557-.7595.1964-.2117.4327-.3728.7089-.4833.2792-.1135.5922-.1703.9389-.1703zm0 4.115c.4419 0 .7718-.1489.9897-.4465.2178-.2977.3268-.7165.3268-1.2566s-.109-.9589-.3268-1.2566c-.2179-.3007-.5478-.4511-.9897-.4511-.448 0-.7824.1504-1.0034.4511-.2178.2977-.3268.7165-.3268 1.2566s.109.9589.3268 1.2566c.221.2976.5554.4465 1.0034.4465zm4.9624.0046c.2884 0 .5171-.0675.6858-.2026.1688-.138.2532-.3237.2532-.5569 0-.1013-.0154-.1949-.046-.2808-.0307-.089-.0829-.1657-.1565-.2301-.0737-.0645-.1703-.1136-.29-.1473-.1197-.0368-.267-.0553-.4419-.0553h-.9712v1.473zm-.9666-3.4476v1.4039h.8607c.1289 0 .2471-.0184.3545-.0552.1104-.0369.204-.0875.2807-.1519.0798-.0675.1412-.1473.1841-.2394.0461-.0951.0691-.1979.0691-.3084 0-.0828-.0154-.1626-.046-.2393-.0277-.0767-.0768-.1458-.1473-.2072-.0675-.0613-.1581-.1104-.2716-.1472-.1135-.0369-.2547-.0553-.4235-.0553zm.8884-.5984c.2884 0 .537.0292.7456.0875.2087.0552.3805.1335.5155.2347.1351.1013.2332.2194.2946.3545.0645.135.0967.2807.0967.4372 0 .1013-.0138.2072-.0414.3176-.0277.1105-.0752.2164-.1427.3176-.0675.0982-.1596.1888-.2762.2716-.1135.0829-.2593.1473-.4373.1933.3437.0614.6107.1841.8009.3683.1933.1841.29.428.29.7318 0 .2301-.0476.4311-.1427.603-.092.1688-.2179.3099-.3774.4234-.1596.1136-.3468.198-.5616.2532s-.4418.0829-.6812.0829h-1.8273v-4.6766zm5.245 2.6007c-.3651.0122-.6751.0414-.9298.0874-.2547.043-.4618.1013-.6213.1749-.1596.0737-.2747.1611-.3453.2624-.0705.0982-.1058.2087-.1058.3314 0 .1166.0184.2179.0552.3038.0399.0828.0921.1519.1565.2071.0675.0522.1458.0905.2348.1151.0889.0245.1856.0368.2899.0368.1381 0 .2639-.0138.3775-.0414.1166-.0276.2255-.066.3268-.1151.1012-.0522.1979-.1151.2899-.1887.0921-.0737.1826-.158.2716-.2532zm-2.6328-1.947c.2608-.2486.5431-.4343.8469-.557.3069-.1227.6429-.1841 1.008-.1841.267 0 .5033.0445.7089.1335.2056.0859.3789.2071.5201.3636s.247.3437.3176.5615c.0736.2179.1105.4588.1105.7227v2.9827h-.4005c-.089 0-.1565-.0139-.2025-.0415-.046-.0307-.0829-.0859-.1105-.1657l-.0966-.4096c-.1197.1104-.2379.2086-.3545.2946-.1166.0828-.2393.1549-.3682.2163-.1258.0583-.2608.1028-.405.1335-.1443.0307-.3038.046-.4787.046-.1842 0-.3575-.0245-.5202-.0736-.1595-.0522-.2991-.1305-.4188-.2348s-.2148-.2347-.2854-.3912c-.0675-.1565-.1013-.3391-.1013-.5478 0-.1841.0491-.3605.1473-.5293.1013-.1718.2639-.3253.4879-.4603.2271-.135.5217-.2455.8838-.3314.3651-.0859.8132-.135 1.344-.1473v-.3406c0-.3529-.0752-.6168-.2255-.7917-.1504-.1749-.3713-.2624-.6628-.2624-.1964 0-.3621.0246-.4971.0737-.132.0491-.2471.1043-.3453.1657-.0951.0583-.1795.112-.2531.1611-.0706.0491-.1442.0736-.221.0736-.0613 0-.115-.0168-.1611-.0506-.0429-.0337-.0782-.0736-.1058-.1197zm5.5026 2.8721c.1473.1934.3053.3284.4741.4051.1718.0767.3636.1151.5753.1151.4112 0 .7288-.1473.9528-.4419.2271-.2977.3406-.7303.3406-1.298 0-.2977-.026-.5508-.0782-.7595-.0491-.2117-.1227-.3836-.2209-.5155-.0952-.135-.2133-.2332-.3545-.2946-.1411-.0644-.3007-.0967-.4787-.0967-.2608 0-.4879.0583-.6812.175-.1902.1166-.3667.2823-.5293.4971zm-.046-2.8261c.0982-.1166.2025-.2225.313-.3176.1135-.0982.2347-.1811.3636-.2486.1289-.0706.2654-.1243.4096-.1611.1473-.0399.3038-.0598.4695-.0598.267 0 .5079.0522.7227.1565.2179.1043.4035.2577.5569.4603.1535.2025.2716.4526.3544.7502.086.2977.1289.6398.1289 1.0265 0 .3467-.0475.6689-.1427.9666-.092.2946-.2255.5508-.4004.7687-.1718.2178-.3836.3897-.6352.5155-.2486.1227-.5293.1841-.8423.1841-.2793 0-.5186-.046-.7181-.1381-.1994-.092-.3774-.2209-.5339-.3866v2.0298h-.8976v-6.2461h.5386c.1258 0 .204.0599.2347.1796zm6.2022-.7733c.3437 0 .6536.0568.9298.1703.2792.1105.5155.2716.7088.4833.1964.2087.3468.4618.4511.7595.1043.2946.1565.626.1565.9942s-.0522.7012-.1565.9988c-.1043.2977-.2547.5508-.4511.7595-.1933.2087-.4296.3698-.7088.4833-.2762.1105-.5861.1657-.9298.1657-.3467 0-.6597-.0552-.939-.1657-.2761-.1135-.5124-.2746-.7088-.4833s-.3483-.4618-.4557-.7595c-.1043-.2976-.1565-.6306-.1565-.9988s.0522-.6996.1565-.9942c.1074-.2977.2593-.5508.4557-.7595.1964-.2117.4327-.3728.7088-.4833.2793-.1135.5923-.1703.939-.1703zm0 4.115c.4419 0 .7718-.1489.9896-.4465.2179-.2977.3268-.7165.3268-1.2566s-.1089-.9589-.3268-1.2566c-.2178-.3007-.5477-.4511-.9896-.4511-.448 0-.7825.1504-1.0034.4511-.2179.2977-.3268.7165-.3268 1.2566s.1089.9589.3268 1.2566c.2209.2976.5554.4465 1.0034.4465zm4.9624.0046c.2884 0 .517-.0675.6858-.2026.1688-.138.2531-.3237.2531-.5569 0-.1013-.0153-.1949-.046-.2808-.0307-.089-.0828-.1657-.1565-.2301-.0736-.0645-.1703-.1136-.29-.1473-.1196-.0368-.2669-.0553-.4418-.0553h-.9712v1.473zm-.9666-3.4476v1.4039h.8607c.1289 0 .247-.0184.3544-.0552.1105-.0369.2041-.0875.2808-.1519.0798-.0675.1411-.1473.1841-.2394.046-.0951.069-.1979.069-.3084 0-.0828-.0153-.1626-.046-.2393-.0276-.0767-.0767-.1458-.1473-.2072-.0675-.0613-.158-.1104-.2715-.1472-.1136-.0369-.2547-.0553-.4235-.0553zm.8883-.5984c.2885 0 .537.0292.7457.0875.2086.0552.3805.1335.5155.2347.135.1013.2332.2194.2946.3545.0644.135.0966.2807.0966.4372 0 .1013-.0138.2072-.0414.3176-.0276.1105-.0752.2164-.1427.3176-.0675.0982-.1595.1888-.2761.2716-.1136.0829-.2593.1473-.4373.1933.3437.0614.6106.1841.8009.3683.1933.1841.29.428.29.7318 0 .2301-.0476.4311-.1427.603-.0921.1688-.2179.3099-.3775.4234-.1595.1136-.3467.198-.5615.2532s-.4419.0829-.6812.0829h-1.8274v-4.6766zm8.8919 4.6766h-.9022v-3.9953h-2.1403v3.9953h-.8976v-4.6766h3.9401zm2.0452-1.1508c.1473.1934.3053.3284.4741.4051.1718.0767.3636.1151.5753.1151.4112 0 .7288-.1473.9528-.4419.2271-.2977.3406-.7303.3406-1.298 0-.2977-.026-.5508-.0782-.7595-.0491-.2117-.1227-.3836-.2209-.5155-.0952-.135-.2133-.2332-.3545-.2946-.1411-.0644-.3007-.0967-.4787-.0967-.2608 0-.4879.0583-.6812.175-.1902.1166-.3667.2823-.5293.4971zm-.046-2.8261c.0982-.1166.2025-.2225.313-.3176.1135-.0982.2347-.1811.3636-.2486.1289-.0706.2654-.1243.4096-.1611.1473-.0399.3038-.0598.4695-.0598.267 0 .5079.0522.7227.1565.2178.1043.4035.2577.5569.4603.1535.2025.2716.4526.3544.7502.086.2977.1289.6398.1289 1.0265 0 .3467-.0475.6689-.1427.9666-.092.2946-.2255.5508-.4004.7687-.1719.2178-.3836.3897-.6352.5155-.2486.1227-.5293.1841-.8423.1841-.2793 0-.5186-.046-.7181-.1381-.1994-.092-.3774-.2209-.5339-.3866v2.0298h-.8976v-6.2461h.5386c.1258 0 .204.0599.2347.1796zm8.2689-.6997v4.6766h-.9022v-3.0563c0-.0614.0031-.1289.0092-.2026.0062-.0767.0154-.1534.0277-.2301-.0307.0644-.0614.1258-.0921.1841-.0276.0552-.0568.1043-.0875.1473l-2.1495 2.932c-.0338.0552-.0782.1074-.1335.1565-.0552.0491-.1181.0737-.1887.0737h-.5431v-4.6812h.8975v3.0609c0 .0614-.003.1305-.0092.2072-.0061.0736-.0153.1473-.0276.2209.0614-.135.1212-.2439.1795-.3268l2.1496-2.9366c.0337-.0522.0782-.1028.1334-.1519.0583-.0491.1228-.0737.1934-.0737zm5.0849 0v4.6766h-.9022v-2.1542h-2.1403v2.1542h-.8976v-4.6766h.8976v1.8412h2.1403v-1.8412zm3.601 2.1588v-1.5604h-.7411c-.1688 0-.3099.0246-.4235.0737-.1135.046-.2055.1074-.2761.1841-.0675.0767-.1166.1611-.1473.2531-.0276.0921-.0414.1841-.0414.2762 0 .2424.0874.4327.2623.5708.1749.135.4127.2025.7135.2025zm.8561-2.1588v4.6766h-.8561v-1.9471h-.3176c-.089 0-.1627.0077-.221.0231-.0583.0122-.1089.0322-.1519.0598-.0398.0276-.0751.0614-.1058.1013-.0307.0398-.0614.0843-.0921.1334l-.9528 1.3165c-.0307.0521-.0629.0982-.0966.138-.0338.0369-.0721.0691-.1151.0967-.043.0246-.0936.0445-.1519.0598-.0583.0123-.1273.0185-.2071.0185h-.6214l1.3118-1.7353c.1135-.1933.2685-.3238.4649-.3913-.2332-.0307-.4311-.0859-.5938-.1657-.1595-.0828-.29-.1779-.3912-.2853-.1013-.1105-.1749-.2302-.221-.3591-.046-.1319-.069-.2654-.069-.4004 0-.1657.0322-.3284.0967-.4879.0644-.1596.1672-.3023.3084-.4281.1411-.1258.3237-.2271.5477-.3038.224-.0798.494-.1197.8101-.1197zm5.066.6813h-1.7629v3.9953h-.9022v-3.9953h-1.7629v-.6813h4.428zm2.4625-.7549c.3437 0 .6539.0568.9299.1703.279.1105.515.2716.709.4833.196.2087.346.4618.451.7595.104.2946.156.626.156.9942s-.052.7012-.156.9988c-.105.2977-.255.5508-.451.7595-.194.2087-.43.3698-.709.4833-.276.1105-.5862.1657-.9299.1657-.3468 0-.6598-.0552-.939-.1657-.2762-.1135-.5125-.2746-.7088-.4833-.1964-.2087-.3483-.4618-.4557-.7595-.1044-.2976-.1565-.6306-.1565-.9988s.0521-.6996.1565-.9942c.1074-.2977.2593-.5508.4557-.7595.1963-.2117.4326-.3728.7088-.4833.2792-.1135.5922-.1703.939-.1703zm0 4.115c.4419 0 .7719-.1489.9899-.4465.218-.2977.327-.7165.327-1.2566s-.109-.9589-.327-1.2566c-.218-.3007-.548-.4511-.9899-.4511-.448 0-.7825.1504-1.0034.4511-.2179.2977-.3268.7165-.3268 1.2566s.1089.9589.3268 1.2566c.2209.2976.5554.4465 1.0034.4465z"/><path d="m39.4384 100.45c0 .494-.0798.948-.2394 1.362-.1564.412-.3789.768-.6674 1.068-.2884.298-.6336.53-1.0356.695-.402.166-.8485.249-1.3394.249-.4879 0-.9344-.083-1.3395-.249-.402-.165-.7472-.397-1.0356-.695-.2854-.3-.5079-.656-.6674-1.068-.1596-.414-.2394-.868-.2394-1.362 0-.4909.0798-.9436.2394-1.3578.1595-.4143.382-.7702.6674-1.0679.2884-.3007.6336-.5339 1.0356-.6996.4051-.1688.8516-.2532 1.3395-.2532.4909 0 .9374.0844 1.3394.2532.402.1657.7472.3989 1.0356.6996.2885.2977.511.6536.6674 1.0679.1596.4142.2394.8669.2394 1.3578zm-1.0034 0c0-.393-.0537-.7456-.1611-1.0586s-.2609-.5785-.4603-.7963c-.1964-.2179-.4358-.3851-.7181-.5017-.2792-.1166-.5922-.1749-.9389-.1749-.3468 0-.6613.0583-.9436.1749-.2793.1166-.5186.2838-.7181.5017-.1994.2178-.3529.4833-.4603.7963s-.1611.6656-.1611 1.0586c0 .396.0537.75.1611 1.063.1074.31.2609.574.4603.792.1995.218.4388.385.7181.502.2823.113.5968.17.9436.17.3467 0 .6597-.057.9389-.17.2823-.117.5217-.284.7181-.502.1994-.218.3529-.482.4603-.792.1074-.313.1611-.667.1611-1.063zm5.8589-.6904h-1.7628v3.9954h-.9022v-3.9954h-1.7629v-.6812h4.4279zm3.4665-.4373c.046-.0706.1074-.1289.1841-.1749s.158-.069.2439-.069h.7043l-1.183 1.7676c-.0736.116-.1503.212-.2301.285-.0798.074-.178.131-.2946.171.1473.043.2716.107.3728.193.1013.083.1918.192.2716.327l1.1922 1.933h-.6214c-.1627 0-.2885-.026-.3775-.078-.0859-.056-.1595-.134-.2209-.235l-.8561-1.413c-.0706-.117-.1596-.204-.267-.263-.1043-.058-.2255-.087-.3636-.087h-.4833v2.08h-.8976v-4.6806h.8976v1.9976h.4234c.1289 0 .2378-.026.3268-.078.0921-.052.1703-.129.2348-.23zm4.4061 2.3567c-.3652.012-.6751.041-.9298.087-.2547.043-.4618.102-.6214.175-.1595.074-.2746.161-.3452.263-.0706.098-.1059.208-.1059.331 0 .117.0185.218.0553.304.0399.083.092.152.1565.207.0675.052.1457.091.2347.115.089.025.1857.037.29.037.1381 0 .2639-.014.3774-.041.1166-.028.2256-.066.3268-.116.1013-.052.198-.115.29-.188.0921-.074.1826-.158.2716-.253zm-2.6328-1.947c.2608-.2486.5431-.4342.8469-.557.3068-.1227.6428-.1841 1.008-.1841.267 0 .5033.0445.7088.1335.2056.0859.379.2071.5202.3636.1411.1565.247.3437.3176.562.0736.217.1104.458.1104.722v2.983h-.4004c-.089 0-.1565-.014-.2025-.042-.0461-.03-.0829-.085-.1105-.165l-.0967-.41c-.1196.111-.2378.209-.3544.295-.1166.083-.2393.155-.3682.216-.1258.058-.2608.103-.4051.134-.1442.03-.3038.046-.4787.046-.1841 0-.3575-.025-.5201-.074-.1596-.052-.2992-.131-.4189-.235-.1196-.104-.2148-.235-.2853-.391-.0675-.157-.1013-.339-.1013-.548 0-.184.0491-.36.1473-.529.1013-.172.2639-.325.4879-.46.2271-.135.5217-.246.8838-.332.3651-.086.8131-.135 1.344-.147v-.341c0-.353-.0752-.617-.2256-.7915-.1503-.1749-.3712-.2623-.6628-.2623-.1964 0-.3621.0245-.4971.0736-.1319.0491-.247.1043-.3452.1657-.0951.0585-.1795.1125-.2531.1615-.0706.049-.1443.073-.221.073-.0614 0-.1151-.017-.1611-.05-.0429-.034-.0782-.074-.1058-.12zm4.3104-.1657c.1749-.1657.3897-.3007.6444-.4051.2547-.1043.56-.1565.916-.1565.2854 0 .537.0353.7549.1059.2178.0675.4004.1596.5477.2762.1504.1135.2624.2439.336.3912.0767.1473.1151.301.1151.46 0 .092-.0154.189-.046.29-.0277.098-.0737.194-.1381.286-.0645.092-.1504.178-.2578.257-.1043.077-.2347.142-.3912.194.2884.089.517.23.6858.423.1688.194.2531.434.2531.723 0 .218-.0506.414-.1518.589-.0982.175-.2317.324-.4005.446-.1688.12-.3636.212-.5846.277-.2209.064-.451.096-.6904.096-.1473 0-.2992-.013-.4557-.041-.1534-.028-.3053-.071-.4557-.129-.1503-.058-.293-.133-.428-.226-.135-.092-.2562-.204-.3636-.336l.2577-.331c.0399-.055.0967-.083.1703-.083.0583 0 .1182.025.1795.074.0645.046.1412.097.2302.152.092.055.201.107.3268.156.1289.046.2884.069.4787.069.1626 0 .3068-.02.4326-.06.1289-.039.2363-.095.3222-.165.089-.071.1565-.154.2026-.249.046-.095.069-.199.069-.313 0-.221-.0905-.397-.2716-.529-.181-.132-.4602-.198-.8377-.198h-.5293v-.598h.5293c.3314 0 .5892-.062.7733-.185.1841-.125.2762-.286.2762-.483 0-.086-.02-.167-.0599-.244-.0399-.08-.1012-.1486-.1841-.2069-.0798-.0614-.181-.109-.3038-.1427-.1196-.0338-.2593-.0506-.4188-.0506-.178 0-.3284.0184-.4511.0552-.1227.0337-.2271.0721-.313.1151-.0859.0429-.158.0828-.2163.1196-.0553.0333-.1028.0503-.1427.0503-.043 0-.0798-.007-.1105-.023-.0276-.0181-.0583-.0533-.092-.1055zm6.8347 2.1127c-.3652.012-.6751.041-.9298.087-.2547.043-.4618.102-.6214.175-.1596.074-.2746.161-.3452.263-.0706.098-.1059.208-.1059.331 0 .117.0184.218.0552.304.0399.083.0921.152.1565.207.0676.052.1458.091.2348.115.089.025.1856.037.29.037.1381 0 .2639-.014.3774-.041.1166-.028.2255-.066.3268-.116.1013-.052.1979-.115.29-.188.092-.074.1826-.158.2716-.253zm-2.6329-1.947c.2608-.2486.5432-.4342.8469-.557.3069-.1227.6429-.1841 1.0081-.1841.2669 0 .5032.0445.7088.1335.2056.0859.379.2071.5201.3636.1412.1565.2471.3437.3176.562.0737.217.1105.458.1105.722v2.983h-.4004c-.089 0-.1565-.014-.2026-.042-.046-.03-.0828-.085-.1104-.165l-.0967-.41c-.1197.111-.2378.209-.3544.295-.1166.083-.2394.155-.3682.216-.1259.058-.2609.103-.4051.134-.1442.03-.3038.046-.4787.046-.1841 0-.3575-.025-.5201-.074-.1596-.052-.2992-.131-.4189-.235s-.2148-.235-.2854-.391c-.0675-.157-.1012-.339-.1012-.548 0-.184.0491-.36.1473-.529.1012-.172.2639-.325.4879-.46.227-.135.5216-.246.8837-.332.3652-.086.8132-.135 1.3441-.147v-.341c0-.353-.0752-.617-.2256-.7915-.1503-.1749-.3713-.2623-.6628-.2623-.1964 0-.3621.0245-.4971.0736-.132.0491-.247.1043-.3452.1657-.0951.0585-.1795.1125-.2532.1615-.0706.049-.1442.073-.2209.073-.0614 0-.1151-.017-.1611-.05-.043-.034-.0783-.074-.1059-.12zm8.5451-.6536v4.6766h-.9021v-2.154h-2.1404v2.154h-.8975v-4.6766h.8975v1.8416h2.1404v-1.8416zm3.1407-.0737c.3437 0 .6536.0568.9298.1703.2792.1105.5155.2716.7088.4833.1964.2087.3468.4617.4511.7597.1044.294.1565.626.1565.994s-.0521.701-.1565.999c-.1043.297-.2547.551-.4511.759-.1933.209-.4296.37-.7088.484-.2762.11-.5861.165-.9298.165-.3467 0-.6597-.055-.939-.165-.2761-.114-.5124-.275-.7088-.484-.1964-.208-.3483-.462-.4557-.759-.1043-.298-.1565-.631-.1565-.999s.0522-.7.1565-.994c.1074-.298.2593-.551.4557-.7597.1964-.2117.4327-.3728.7088-.4833.2793-.1135.5923-.1703.939-.1703zm0 4.1153c.4419 0 .7718-.149.9896-.447.2179-.297.3268-.716.3268-1.256s-.1089-.959-.3268-1.257c-.2178-.3007-.5477-.451-.9896-.451-.448 0-.7825.1503-1.0034.451-.2179.298-.3268.717-.3268 1.257s.1089.959.3268 1.256c.2209.298.5554.447 1.0034.447zm3.066.096c0-.083.0153-.161.046-.234.0307-.074.0721-.138.1243-.194.0552-.055.1197-.098.1933-.129.0737-.033.1534-.05.2394-.05.0828 0 .1611.017.2347.05.0737.031.1381.074.1933.129.0553.056.0982.12.1289.194.0338.073.0506.151.0506.234 0 .086-.0168.166-.0506.24-.0307.073-.0736.138-.1289.193-.0552.055-.1196.098-.1933.129-.0736.031-.1519.046-.2347.046-.086 0-.1657-.015-.2394-.046-.0736-.031-.1381-.074-.1933-.129-.0522-.055-.0936-.12-.1243-.193-.0307-.074-.046-.154-.046-.24zm0-3.4058c0-.0828.0153-.1611.046-.2347.0307-.0737.0721-.1381.1243-.1933.0552-.0553.1197-.0982.1933-.1289.0737-.0338.1534-.0507.2394-.0507.0828 0 .1611.0169.2347.0507.0737.0307.1381.0736.1933.1289.0553.0552.0982.1196.1289.1933.0338.0736.0506.1519.0506.2347 0 .0859-.0168.1657-.0506.2398-.0307.073-.0736.138-.1289.193-.0552.055-.1196.098-.1933.129-.0736.03-.1519.046-.2347.046-.086 0-.1657-.016-.2394-.046-.0736-.031-.1381-.074-.1933-.129-.0522-.055-.0936-.12-.1243-.193-.0307-.0741-.046-.1539-.046-.2398z"/><path d="m37.5269 120.852h-.8443v-5.007h-1.7872c-.0369.723-.0881 1.351-.1539 1.882-.0631.531-.1394.985-.2288 1.361-.0895.373-.1907.679-.3038.915-.1131.237-.238.422-.3748.557-.1342.134-.2788.226-.434.276-.1552.047-.3196.071-.4932.071-.3103 0-.4655-.055-.4655-.166v-.533h.2801c.1 0 .1999-.018.2998-.055.1026-.039.1999-.118.292-.236.0947-.121.1841-.294.2683-.517.0868-.227.1644-.525.2328-.896.0683-.373.1262-.831.1735-1.373.05-.542.0882-1.19.1145-1.945h3.4245zm4.5527-4.009-2.2252 5.172c-.0236.058-.0552.103-.0946.135-.0395.031-.0974.047-.1736.047h-.5721l.7338-1.598-1.6452-3.756h.6707c.0658 0 .1171.016.1539.047.0368.032.0631.068.0789.107l1.0179 2.407c.021.06.0408.122.0592.185.021.061.0381.121.0513.182.0184-.064.0381-.125.0591-.186.0211-.063.0434-.125.0671-.185l.9824-2.403c.0184-.045.0473-.082.0868-.11.0394-.029.0842-.044.1341-.044zm2.9022.209c.0395-.06.0921-.11.1578-.15.0658-.039.1355-.059.2091-.059h.6037l-1.014 1.515c-.0631.1-.1289.182-.1973.245-.0683.063-.1525.112-.2525.146.1263.037.2328.092.3196.165.0868.071.1644.165.2328.281l1.0218 1.657h-.5326c-.1394 0-.2472-.023-.3235-.068-.0737-.047-.1368-.114-.1894-.201l-.7338-1.211c-.0605-.1-.1368-.175-.2288-.225-.0895-.05-.1934-.075-.3117-.075h-.4143v1.784h-.7693v-4.013h.7693v1.712h.363c.1105 0 .2038-.022.2801-.067.0789-.044.146-.11.2012-.197zm5.9167 0c.0395-.06.0921-.11.1579-.15.0657-.039.1354-.059.2091-.059h.6036l-1.014 1.515c-.0631.1-.1288.182-.1972.245s-.1526.112-.2525.146c.1262.037.2328.092.3196.165.0867.071.1643.165.2327.281l1.0219 1.657h-.5327c-.1394 0-.2472-.023-.3235-.068-.0736-.047-.1367-.114-.1893-.201l-.7339-1.211c-.0605-.1-.1367-.175-.2288-.225-.0894-.05-.1933-.075-.3117-.075h-.4142v1.784h-.7694v-4.013h.7694v1.712h.3629c.1105 0 .2039-.022.2801-.067.079-.044.146-.11.2013-.197zm2.3764 2.813c.1263.166.2617.282.4064.347.1473.066.3117.099.4931.099.3525 0 .6247-.126.8167-.379.1947-.255.292-.626.292-1.112 0-.255-.0224-.472-.0671-.651-.0421-.182-.1052-.329-.1894-.442-.0815-.116-.1828-.2-.3038-.253-.1209-.055-.2577-.082-.4103-.082-.2235 0-.4182.049-.5839.149-.163.1-.3143.242-.4537.427zm-.0394-2.422c.0841-.1.1736-.191.2682-.272.0974-.085.2013-.156.3117-.213.1105-.061.2275-.107.3512-.139.1262-.034.2603-.051.4024-.051.2288 0 .4353.045.6194.134.1867.09.3459.221.4774.395.1315.173.2328.388.3038.643.0736.255.1104.548.1104.88 0 .297-.0407.573-.1223.828-.0789.253-.1933.472-.3432.659-.1473.187-.3288.334-.5445.442-.213.105-.4537.158-.722.158-.2393 0-.4445-.04-.6154-.119-.171-.078-.3235-.189-.4577-.331v1.74h-.7693v-5.354h.4616c.1078 0 .1749.051.2012.154zm5.7465 1.629c-.313.011-.5786.036-.797.075-.2183.037-.3958.087-.5326.15-.1367.063-.2354.138-.2959.225-.0605.084-.0907.179-.0907.284 0 .1.0158.187.0473.26.0342.071.0789.131.1342.178.0578.045.1249.078.2012.099s.1591.031.2485.031c.1184 0 .2262-.012.3236-.035.0999-.024.1933-.057.2801-.099.0868-.045.1696-.099.2485-.162s.1565-.135.2328-.217zm-2.2567-1.669c.2235-.213.4655-.372.7259-.477.263-.105.551-.158.864-.158.2289 0 .4314.038.6076.115.1762.073.3248.177.4458.311s.2118.295.2723.482c.0631.186.0947.393.0947.619v2.557h-.3433c-.0763 0-.1341-.012-.1736-.036-.0394-.026-.071-.074-.0947-.142l-.0828-.351c-.1026.095-.2039.179-.3038.252-.1.071-.2052.133-.3156.186-.1079.05-.2236.088-.3472.114-.1236.027-.2604.04-.4103.04-.1578 0-.3065-.021-.4459-.063-.1367-.045-.2564-.112-.359-.202-.1026-.089-.1841-.201-.2446-.335-.0579-.134-.0868-.291-.0868-.469 0-.158.0421-.31.1263-.454.0868-.147.2262-.279.4182-.395.1946-.115.4471-.21.7575-.284.313-.073.697-.116 1.152-.126v-.292c0-.302-.0644-.529-.1933-.679s-.3183-.224-.5681-.224c-.1684 0-.3104.021-.4261.063-.1131.042-.2118.089-.2959.142-.0816.05-.1539.096-.217.138-.0605.042-.1237.063-.1894.063-.0526 0-.0986-.015-.1381-.044-.0368-.028-.0671-.063-.0907-.102zm6.7407.19c-.0236.029-.0473.052-.071.071-.021.016-.0526.023-.0947.023s-.0868-.015-.1341-.047c-.0447-.034-.1026-.07-.1736-.106-.0684-.04-.1526-.075-.2525-.107-.0973-.034-.2183-.051-.363-.051-.1893 0-.3564.034-.501.102-.1447.069-.2657.166-.363.292-.0947.127-.167.28-.217.462-.05.181-.075.385-.075.611 0 .234.0264.444.079.628.0526.181.1275.335.2248.461.0974.124.2157.219.3551.284.1394.063.2946.095.4656.095.1657 0 .3024-.02.4103-.059.1078-.042.1972-.087.2683-.134.071-.048.1302-.091.1775-.13.0473-.043.096-.064.146-.064.0631 0 .1118.024.1459.071l.221.284c-.0921.114-.196.21-.3117.288-.1131.079-.2341.144-.363.194-.1288.05-.2643.087-.4063.11-.1394.024-.2815.036-.4261.036-.2499 0-.484-.046-.7023-.138-.2157-.092-.4037-.226-.5642-.403-.1578-.176-.2827-.392-.3748-.647-.092-.258-.1381-.549-.1381-.876 0-.297.0408-.572.1223-.824.0842-.253.2065-.47.367-.651.163-.184.3629-.328.5996-.43.2368-.105.5077-.158.8128-.158.2867 0 .5392.046.7575.138s.4129.222.5839.391zm4.2354-.75v4.009h-.7732v-1.847h-1.8346v1.847h-.7693v-4.009h.7693v1.578h1.8346v-1.578zm2.5306 3.444c.263 0 .4603-.063.5918-.189.1315-.129.1973-.292.1973-.489 0-.09-.0145-.174-.0434-.253-.029-.081-.075-.151-.1381-.209-.0632-.06-.146-.108-.2486-.142-.0999-.037-.2235-.055-.3708-.055h-.8167v1.337zm-.0118-1.897c.2761 0 .5089.034.6983.102.192.066.3459.155.4616.269.1157.11.1986.239.2485.386.0526.145.0789.296.0789.454 0 .181-.0328.35-.0986.505-.0631.152-.1578.284-.2841.394-.1262.111-.2814.198-.4655.261-.1815.06-.3906.091-.6273.091h-1.5623v-4.009h.7338v1.547zm3.101-1.547v4.009h-.7694v-4.009zm4.4528 0v4.009h-.7733v-2.62c0-.053.0026-.111.0079-.174.0052-.065.0131-.131.0236-.197-.0263.055-.0526.108-.0789.158-.0236.047-.0486.089-.0749.126l-1.8425 2.513c-.0289.048-.0671.092-.1144.134s-.1013.064-.1618.064h-.4655v-4.013h.7693v2.624c0 .052-.0026.112-.0079.177-.0052.063-.0131.127-.0236.19.0526-.116.1039-.209.1538-.28l1.8425-2.518c.0289-.044.0671-.088.1144-.13.05-.042.1052-.063.1657-.063zm-1.6926-.986c.1052 0 .1933-.012.2644-.036.0736-.023.1315-.062.1735-.114.0448-.053.0763-.121.0947-.205.0211-.087.0316-.192.0316-.316h.4537c.0526 0 .0934.024.1223.071s.0434.1.0434.158c0 .131-.0276.25-.0828.355-.0526.105-.1302.196-.2328.272-.1026.074-.2275.132-.3748.174-.1447.039-.3091.059-.4932.059s-.3498-.02-.4971-.059c-.1447-.042-.2683-.1-.3709-.174-.1025-.076-.1814-.167-.2367-.272-.0526-.105-.0789-.224-.0789-.355 0-.058.0145-.111.0434-.158.029-.047.0697-.071.1223-.071h.4537c0 .124.0092.229.0277.316.021.084.0526.152.0946.205.0448.052.1026.091.1736.114.0737.024.1631.036.2683.036z"/></g><path d="m37.5468 135.317h-.7693v-5.05h-2.8249v5.05h-.7654v-5.653h4.3596zm1.8132-.962c.1289.173.2696.296.4221.367.1526.071.3235.106.5129.106.3735 0 .6602-.133.8601-.398.1999-.266.2998-.645.2998-1.137 0-.26-.0236-.484-.071-.67-.0447-.187-.1104-.34-.1972-.458-.0868-.121-.1934-.209-.3196-.264-.1263-.055-.2696-.083-.43-.083-.2289 0-.4301.052-.6037.158-.1709.105-.3288.254-.4734.446zm-.0355-2.415c.1683-.208.3629-.375.5839-.501.2209-.126.4734-.189.7575-.189.2314 0 .4405.044.6273.134.1867.087.3459.217.4774.39.1315.171.2327.385.3038.64.071.255.1065.548.1065.879 0 .295-.0395.57-.1184.825-.0789.253-.1933.472-.3432.659-.1473.184-.3288.33-.5445.438-.213.105-.4537.158-.722.158-.2446 0-.455-.041-.6312-.123-.1736-.084-.3275-.2-.4616-.347v1.768h-.7062v-5.35h.4221c.1 0 .1618.048.1855.146zm7.0646-.619v3.996h-.7023v-2.714c0-.053.0027-.109.0079-.17.0053-.06.0119-.121.0198-.181-.0237.052-.0474.101-.0711.146-.0236.045-.0486.085-.0749.122l-1.9293 2.624c-.0289.042-.0657.083-.1104.122-.0421.037-.0895.055-.1421.055h-.4261v-3.996h.7062v2.714c0 .05-.0026.105-.0078.166-.0053.058-.0119.117-.0198.177.0237-.05.0474-.096.071-.138.0237-.044.0474-.085.0711-.122l1.9292-2.624c.029-.042.0658-.081.1105-.118.0447-.039.0934-.059.146-.059zm3.9488 0v3.996h-.7022v-1.696c-.342.089-.6642.146-.9666.17-.2999.021-.5629-.003-.7891-.071-.2236-.069-.4011-.189-.5326-.359-.1289-.174-.1933-.413-.1933-.719v-1.321h.7062v1.215c0 .192.0381.343.1144.454.0789.11.1933.186.3432.228.15.043.3354.054.5563.036.221-.018.4748-.062.7615-.13v-1.803zm4.4338 0v3.996h-.7023v-2.714c0-.053.0026-.109.0079-.17.0053-.06.0118-.121.0197-.181-.0237.052-.0473.101-.071.146s-.0487.085-.075.122l-1.9292 2.624c-.0289.042-.0658.083-.1105.122-.0421.037-.0894.055-.142.055h-.4261v-3.996h.7062v2.714c0 .05-.0026.105-.0079.166-.0052.058-.0118.117-.0197.177.0237-.05.0473-.096.071-.138.0237-.044.0473-.085.071-.122l1.9293-2.624c.0289-.042.0657-.081.1104-.118.0448-.039.0934-.059.146-.059zm4.3315 0v3.996h-.7062v-1.87h-1.9174v1.87h-.7063v-3.996h.7063v1.594h1.9174v-1.594zm3.1738 2.197c-.3235.011-.5997.037-.8285.079-.2262.04-.4116.092-.5563.158-.142.066-.2459.143-.3117.233-.0631.089-.0947.189-.0947.3 0 .105.0171.196.0513.272s.0802.139.1381.189c.0605.048.1302.083.2091.107.0816.021.1683.031.2604.031.1236 0 .2367-.011.3393-.035.1026-.026.1986-.063.288-.111.0921-.047.1789-.104.2604-.169.0842-.066.1657-.141.2446-.225zm-2.2685-1.633c.2209-.213.4589-.372.7141-.477.2551-.106.5378-.158.8482-.158.2236 0 .4221.037.5957.11.1736.074.3196.176.438.308.1183.131.2078.291.2683.477.0604.187.0907.392.0907.616v2.556h-.3117c-.0684 0-.121-.01-.1578-.031-.0368-.024-.0658-.069-.0868-.134l-.0789-.379c-.1052.097-.2078.184-.3077.26-.1.074-.2052.137-.3157.19-.1104.05-.2288.088-.355.114-.1237.029-.2617.044-.4143.044-.1552 0-.3012-.022-.4379-.064-.1368-.044-.2565-.11-.359-.197-.1-.087-.1802-.196-.2407-.327-.0579-.134-.0868-.292-.0868-.474 0-.158.0434-.309.1302-.453.0868-.148.2275-.278.4221-.391.1947-.113.4485-.205.7615-.276.313-.074.697-.116 1.152-.127v-.311c0-.311-.0671-.545-.2012-.702-.1341-.161-.3301-.241-.5879-.241-.1735 0-.3195.022-.4379.067-.1157.042-.217.091-.3038.146-.0841.053-.1578.101-.2209.146-.0605.042-.121.063-.1815.063-.0473 0-.0881-.012-.1223-.035-.0342-.027-.0631-.058-.0868-.095zm3.8531 2.998c0-.068.0118-.132.0355-.193.0263-.06.0605-.113.1026-.158.0447-.044.0973-.08.1578-.106.0605-.027.1249-.04.1933-.04s.1329.013.1933.04c.0605.026.1131.062.1579.106.0447.045.0802.098.1065.158.0263.061.0394.125.0394.193 0 .071-.0131.137-.0394.198-.0263.058-.0618.109-.1065.154-.0448.044-.0974.078-.1579.102-.0604.026-.1249.04-.1933.04s-.1328-.014-.1933-.04c-.0605-.024-.1131-.058-.1578-.102-.0421-.045-.0763-.096-.1026-.154-.0237-.061-.0355-.127-.0355-.198zm0-2.959c0-.068.0118-.132.0355-.193.0263-.06.0605-.113.1026-.158.0447-.044.0973-.08.1578-.106.0605-.027.1249-.04.1933-.04s.1329.013.1933.04c.0605.026.1131.062.1579.106.0447.045.0802.098.1065.158.0263.061.0394.125.0394.193 0 .071-.0131.137-.0394.198-.0263.058-.0618.109-.1065.154-.0448.044-.0974.08-.1579.106-.0604.024-.1249.036-.1933.036s-.1328-.012-.1933-.036c-.0605-.026-.1131-.062-.1578-.106-.0421-.045-.0763-.096-.1026-.154-.0237-.061-.0355-.127-.0355-.198zm8.363 3.393h-.7694v-5.05h-2.8248v5.05h-.7654v-5.653h4.3596zm1.8131-.962c.1289.173.2696.296.4222.367.1525.071.3235.106.5129.106.3735 0 .6602-.133.8601-.398.1999-.266.2998-.645.2998-1.137 0-.26-.0237-.484-.071-.67-.0447-.187-.1105-.34-.1973-.458-.0868-.121-.1933-.209-.3195-.264-.1263-.055-.2696-.083-.4301-.083-.2288 0-.43.052-.6036.158-.171.105-.3288.254-.4735.446zm-.0355-2.415c.1684-.208.363-.375.5839-.501.221-.126.4735-.189.7575-.189.2315 0 .4406.044.6273.134.1868.087.3459.217.4774.39.1315.171.2328.385.3038.64s.1065.548.1065.879c0 .295-.0394.57-.1183.825-.0789.253-.1933.472-.3433.659-.1473.184-.3287.33-.5444.438-.2131.105-.4537.158-.722.158-.2446 0-.455-.041-.6313-.123-.1736-.084-.3274-.2-.4616-.347v1.768h-.7062v-5.35h.4222c.0999 0 .1617.048.1854.146zm7.0647-.619v3.996h-.7023v-2.714c0-.053.0026-.109.0079-.17.0053-.06.0118-.121.0197-.181-.0236.052-.0473.101-.071.146s-.0486.085-.075.122l-1.9292 2.624c-.0289.042-.0658.083-.1105.122-.0421.037-.0894.055-.142.055h-.4261v-3.996h.7062v2.714c0 .05-.0026.105-.0079.166-.0052.058-.0118.117-.0197.177.0237-.05.0473-.096.071-.138.0237-.044.0473-.085.071-.122l1.9293-2.624c.0289-.042.0657-.081.1104-.118.0448-.039.0934-.059.146-.059zm6.3791 0v3.996h-5.3775v-3.996h.7063v3.464h1.6294v-3.464h.7062v3.464h1.6294v-3.464zm4.5057 3.996h-.7023v-3.444h-1.2625c-.0315.508-.0789.947-.142 1.318-.0631.368-.1394.682-.2288.943-.0868.258-.1855.468-.2959.631-.1079.16-.2223.285-.3433.375-.1183.089-.242.15-.3708.181-.1263.032-.2525.048-.3788.048-.2236 0-.3353-.036-.3353-.107v-.446h.2051c.0894 0 .1802-.015.2722-.047.0921-.032.1815-.092.2683-.182.0894-.089.1749-.214.2565-.374.0815-.163.1551-.374.2209-.632.0684-.26.1263-.574.1736-.942.05-.371.0881-.811.1144-1.318h2.5487zm4.4322-3.996v3.996h-.7022v-2.714c0-.053.0026-.109.0079-.17.0052-.06.0118-.121.0197-.181-.0237.052-.0474.101-.071.146-.0237.045-.0487.085-.075.122l-1.9293 2.624c-.0289.042-.0657.083-.1104.122-.0421.037-.0894.055-.1421.055h-.426v-3.996h.7062v2.714c0 .05-.0027.105-.0079.166-.0053.058-.0119.117-.0198.177.0237-.05.0474-.096.0711-.138.0236-.044.0473-.085.071-.122l1.9292-2.624c.029-.042.0658-.081.1105-.118.0447-.039.0934-.059.146-.059zm5.5041.536h-1.886v3.46h-.706v-3.996h2.592zm3.889-.536v3.996h-.706v-1.87h-1.918v1.87h-.706v-3.996h.706v1.594h1.918v-1.594zm4.436 0v3.996h-.702v-2.714c0-.053.003-.109.008-.17.005-.06.012-.121.02-.181-.024.052-.048.101-.071.146-.024.045-.049.085-.075.122l-1.93 2.624c-.029.042-.065.083-.11.122-.042.037-.09.055-.142.055h-.426v-3.996h.706v2.714c0 .05-.003.105-.008.166-.005.058-.012.117-.02.177.024-.05.048-.096.071-.138.024-.044.048-.085.071-.122l1.93-2.624c.029-.042.065-.081.11-.118.045-.039.093-.059.146-.059zm4.505 3.996h-.702v-3.444h-1.262c-.032.508-.079.947-.143 1.318-.063.368-.139.682-.228.943-.087.258-.186.468-.296.631-.108.16-.222.285-.343.375-.119.089-.242.15-.371.181-.127.032-.253.048-.379.048-.224 0-.335-.036-.335-.107v-.446h.205c.089 0 .18-.015.272-.047s.181-.092.268-.182c.09-.089.175-.214.257-.374.081-.163.155-.374.221-.632.068-.26.126-.574.173-.942.05-.371.088-.811.115-1.318h2.548zm2.539-.513c.142 0 .264-.017.367-.051.105-.037.192-.087.26-.15.068-.065.12-.142.154-.229.034-.086.051-.181.051-.284 0-.094-.014-.182-.043-.264-.029-.084-.078-.158-.146-.221-.066-.063-.153-.113-.261-.15-.107-.037-.239-.055-.394-.055h-.852v1.404zm-.012-1.917c.276 0 .508.033.694.099.19.065.341.154.454.264.116.111.199.238.249.383.05.144.075.294.075.449 0 .179-.032.345-.095.498-.063.15-.157.28-.28.39-.124.108-.276.194-.458.257-.181.06-.39.09-.627.09h-1.535v-3.996h.671v1.566zm3.054-1.566v3.996h-.703v-3.996zm3.684 1.562c0-.163-.024-.312-.071-.446-.045-.136-.112-.254-.201-.351-.087-.1-.194-.176-.32-.229-.126-.055-.269-.083-.43-.083-.337 0-.603.099-.801.296-.194.195-.315.466-.363.813zm.568 1.874c-.087.105-.191.197-.312.276-.121.077-.251.14-.39.19-.137.05-.279.086-.426.11-.148.026-.294.04-.438.04-.276 0-.531-.046-.766-.138-.231-.095-.432-.232-.603-.411-.169-.181-.3-.405-.395-.67-.094-.266-.142-.571-.142-.916 0-.279.042-.539.126-.781.087-.242.211-.451.371-.627.161-.179.357-.319.588-.418.232-.103.492-.154.781-.154.24 0 .461.04.663.122.205.079.382.195.529.347.15.15.267.337.351.56.084.221.126.474.126.758 0 .11-.012.184-.035.221-.024.037-.069.055-.134.055h-2.671c.008.253.042.472.102.659.063.187.15.343.261.469.11.124.242.217.394.281.153.06.324.09.513.09.176 0 .327-.019.454-.059.129-.042.239-.087.331-.134s.168-.091.229-.13c.063-.042.117-.063.162-.063.058 0 .102.022.134.067z" fill="#0abab5"/><path d="m37.7597 160.305h-.7536c-.0842 0-.1552-.023-.213-.067-.0553-.045-.1079-.11-.1578-.194l-1.4243-2.028c-.0342-.052-.0697-.096-.1065-.13-.0342-.037-.0724-.066-.1144-.087-.0421-.023-.0895-.039-.1421-.047-.0499-.01-.1091-.016-.1775-.016h-.6668v2.569h-.8403v-5.666h.8403v2.45h.5721c.1157 0 .2144-.017.2959-.051.0842-.037.1644-.109.2407-.217l1.4242-1.949c.0421-.068.0921-.124.1499-.166.0605-.044.1329-.067.217-.067h.7102l-1.6689 2.312c-.0657.095-.1407.174-.2249.237-.0841.06-.1762.109-.2761.146.142.037.2617.098.359.185.0999.084.1959.202.288.351zm2.5699-1.78c-.313.011-.5786.036-.7969.075-.2184.037-.3959.087-.5327.15-.1367.063-.2354.138-.2959.225-.0605.084-.0907.179-.0907.284 0 .1.0158.187.0473.261.0342.071.0789.13.1342.177.0578.045.1249.078.2012.099s.1591.031.2485.031c.1184 0 .2262-.012.3236-.035.0999-.024.1933-.057.2801-.099.0868-.045.1696-.098.2485-.162.0789-.063.1565-.135.2328-.217zm-2.2567-1.669c.2236-.213.4655-.372.7259-.477.263-.105.5511-.158.864-.158.2289 0 .4314.038.6076.115.1763.073.3249.177.4458.311.121.135.2118.295.2723.482.0631.186.0947.393.0947.619v2.557h-.3433c-.0763 0-.1341-.012-.1736-.036-.0394-.026-.071-.073-.0947-.142l-.0828-.351c-.1026.095-.2039.179-.3038.253-.1.071-.2052.132-.3156.185-.1079.05-.2236.088-.3472.114-.1236.027-.2604.04-.4103.04-.1578 0-.3064-.021-.4458-.063-.1368-.045-.2565-.112-.3591-.202-.1025-.089-.1841-.201-.2446-.335-.0578-.134-.0868-.291-.0868-.469 0-.158.0421-.309.1263-.454.0868-.147.2262-.279.4182-.395.1946-.115.4471-.21.7575-.284.313-.073.697-.115 1.152-.126v-.292c0-.302-.0644-.529-.1933-.678-.1289-.15-.3183-.225-.5681-.225-.1684 0-.3104.021-.4261.063-.1131.042-.2118.089-.2959.142-.0816.05-.1539.096-.217.138-.0605.042-.1236.063-.1894.063-.0526 0-.0986-.014-.1381-.043-.0368-.029-.0671-.064-.0907-.103zm4.701 2.462c.1263.166.2617.282.4064.348.1473.065.3117.098.4931.098.3525 0 .6247-.126.8167-.379.1947-.255.292-.626.292-1.112 0-.255-.0224-.472-.0671-.651-.0421-.182-.1052-.329-.1894-.442-.0815-.116-.1828-.2-.3038-.253-.1209-.055-.2577-.082-.4103-.082-.2235 0-.4182.05-.5839.15-.163.1-.3143.242-.4537.426zm-.0394-2.422c.0841-.1.1736-.191.2682-.272.0974-.084.2013-.155.3117-.213.1105-.061.2275-.107.3512-.138.1262-.035.2603-.052.4024-.052.2288 0 .4353.045.6194.134.1867.09.3459.221.4774.395s.2327.388.3038.643c.0736.255.1104.548.1104.88 0 .297-.0407.573-.1223.828-.0789.253-.1933.472-.3432.659-.1473.187-.3288.334-.5445.442-.213.105-.4537.158-.722.158-.2393 0-.4445-.04-.6154-.118-.171-.079-.3235-.19-.4577-.332v1.74h-.7693v-5.354h.4616c.1078 0 .1749.052.2012.154zm6.8496-.016h-1.511v3.425h-.7733v-3.425h-1.5111v-.584h3.7954zm2.0952-.647c.2946 0 .5603.049.797.146.2393.095.4419.233.6076.414.1683.179.2972.396.3866.651.0894.253.1342.537.1342.853 0 .315-.0448.601-.1342.856s-.2183.472-.3866.651c-.1657.178-.3683.317-.6076.414-.2367.095-.5024.142-.797.142-.2972 0-.5654-.047-.8048-.142-.2367-.097-.4392-.236-.6076-.414-.1683-.179-.2985-.396-.3906-.651-.0894-.255-.1341-.541-.1341-.856 0-.316.0447-.6.1341-.853.0921-.255.2223-.472.3906-.651.1684-.181.3709-.319.6076-.414.2394-.097.5076-.146.8048-.146zm0 3.527c.3788 0 .6615-.127.8483-.382.1867-.256.2801-.615.2801-1.078 0-.462-.0934-.821-.2801-1.077-.1868-.257-.4695-.386-.8483-.386-.384 0-.6707.129-.86.386-.1868.256-.2801.615-.2801 1.077 0 .463.0933.822.2801 1.078.1893.255.476.382.86.382zm5.2796.02c.4524-.026.7969-.168 1.0336-.426.2394-.258.359-.609.359-1.054 0-.444-.1196-.795-.359-1.053-.2367-.26-.5812-.404-1.0336-.43zm-.6747-2.963c-.455.026-.8022.17-1.0416.43-.2367.258-.355.609-.355 1.053 0 .445.1183.796.355 1.054.2394.258.5866.4 1.0416.426zm.6983-.58c.3262.016.6208.075.8838.178.2656.102.4918.243.6786.422.1867.176.3301.388.43.635.1.247.1499.522.1499.825 0 .305-.0499.581-.1499.828-.0999.247-.2433.46-.43.639-.1868.176-.413.316-.6786.418-.263.1-.5576.158-.8838.174v1.318h-.722v-1.318c-.3287-.016-.6246-.074-.8877-.174-.263-.102-.4879-.242-.6746-.418-.1868-.179-.3301-.392-.43-.639-.1-.247-.15-.523-.15-.828 0-.303.05-.578.15-.825.0999-.247.2432-.459.43-.635.1867-.179.4116-.32.6746-.422.2631-.103.559-.162.8877-.178v-1.598h.722zm5.5366 1.618c0-.153-.0224-.294-.0671-.423-.0421-.128-.1052-.24-.1894-.335-.0841-.095-.1867-.168-.3077-.221-.121-.052-.2604-.079-.4182-.079-.3235 0-.5786.094-.7654.28-.1841.187-.3011.446-.3511.778zm.6352 1.878c-.0947.11-.2039.206-.3275.288-.1236.079-.2551.143-.3945.193s-.2841.087-.434.11c-.1473.024-.2933.036-.4379.036-.2762 0-.5326-.046-.7694-.138-.234-.095-.4379-.232-.6115-.41-.1709-.182-.3051-.406-.4024-.671-.0947-.268-.142-.576-.142-.923 0-.279.0434-.538.1302-.778.0868-.242.2104-.452.3708-.631.1631-.179.3617-.319.5958-.422s.4971-.154.789-.154c.2446 0 .4695.041.6747.122.2078.079.3866.195.5365.348.15.152.267.34.3512.564.0868.223.1302.478.1302.765 0 .119-.0132.199-.0395.241-.0263.039-.0749.059-.146.059h-2.6275c.0079.239.042.448.1025.627.0605.177.1434.324.2486.442.1078.119.2354.207.3827.265.1473.057.3117.086.4932.086.1709 0 .3182-.019.4418-.059.1263-.039.2341-.081.3235-.126.0921-.047.1684-.091.2289-.13.0631-.04.1183-.059.1657-.059.0631 0 .1118.023.146.071zm4.3402.572h-.7693v-3.405h-1.1955c-.0315.505-.0789.941-.142 1.31-.0631.365-.1394.677-.2288.935-.0894.255-.1894.463-.2999.623-.1078.158-.2235.282-.3472.371-.1209.087-.2459.145-.3748.174-.1288.031-.2577.047-.3866.047-.2393 0-.359-.04-.359-.118v-.486h.213c.0895 0 .1789-.014.2683-.043.0921-.032.1815-.091.2683-.178.0894-.089.1736-.213.2525-.371.0789-.157.1512-.364.217-.619.0657-.258.1223-.571.1696-.939.0474-.368.0842-.805.1105-1.31h2.6039zm2.5378-.564c.263 0 .4603-.064.5918-.19.1315-.129.1972-.292.1972-.489 0-.09-.0144-.174-.0434-.253-.0289-.081-.0749-.151-.1381-.209-.0631-.06-.1459-.108-.2485-.142-.1-.037-.2236-.055-.3709-.055h-.8167v1.338zm-.0119-1.898c.2762 0 .509.034.6983.102.1921.066.3459.156.4617.269.1157.11.1985.239.2485.386.0526.145.0789.296.0789.454 0 .182-.0329.35-.0986.505-.0631.153-.1578.284-.2841.395-.1262.11-.2814.197-.4655.26-.1815.06-.3906.091-.6273.091h-1.5624v-4.009h.7338v1.547z" fill="#49494f"/><path d="m37.5468 174.771h-.7693v-5.05h-2.8249v5.05h-.7654v-5.653h4.3596zm1.8132-.962c.1289.173.2696.296.4221.367.1526.071.3235.106.5129.106.3735 0 .6602-.133.8601-.398.1999-.266.2998-.645.2998-1.136 0-.261-.0236-.484-.071-.671-.0447-.187-.1104-.339-.1972-.458-.0868-.121-.1934-.209-.3196-.264-.1263-.055-.2696-.083-.43-.083-.2289 0-.4301.053-.6037.158-.1709.105-.3288.254-.4734.446zm-.0355-2.415c.1683-.207.3629-.375.5839-.501.2209-.126.4734-.189.7575-.189.2314 0 .4405.045.6273.134.1867.087.3459.217.4774.391.1315.171.2327.384.3038.639.071.255.1065.548.1065.88 0 .294-.0395.569-.1184.824-.0789.253-.1933.472-.3432.659-.1473.184-.3288.33-.5445.438-.213.105-.4537.158-.722.158-.2446 0-.455-.041-.6312-.123-.1736-.084-.3275-.199-.4616-.347v1.768h-.7062v-5.35h.4221c.1 0 .1618.049.1855.146zm7.0646-.619v3.996h-.7023v-2.714c0-.052.0027-.109.0079-.17.0053-.06.0119-.121.0198-.181-.0237.053-.0474.101-.0711.146-.0236.045-.0486.085-.0749.122l-1.9293 2.624c-.0289.042-.0657.083-.1104.122-.0421.037-.0895.055-.1421.055h-.4261v-3.996h.7062v2.714c0 .05-.0026.105-.0078.166-.0053.058-.0119.117-.0198.177.0237-.05.0474-.096.071-.138.0237-.044.0474-.085.0711-.122l1.9292-2.624c.029-.042.0658-.081.1105-.118.0447-.039.0934-.059.146-.059zm3.9488 0v3.996h-.7022v-1.696c-.342.089-.6642.146-.9666.17-.2999.021-.5629-.003-.7891-.071-.2236-.069-.4011-.188-.5326-.359-.1289-.174-.1933-.413-.1933-.718v-1.322h.7062v1.215c0 .192.0381.343.1144.454.0789.11.1933.186.3432.229.15.042.3354.053.5563.035.221-.018.4748-.062.7615-.13v-1.803zm4.4338 0v3.996h-.7023v-2.714c0-.052.0026-.109.0079-.17.0053-.06.0118-.121.0197-.181-.0237.053-.0473.101-.071.146s-.0487.085-.075.122l-1.9292 2.624c-.0289.042-.0658.083-.1105.122-.0421.037-.0894.055-.142.055h-.4261v-3.996h.7062v2.714c0 .05-.0026.105-.0079.166-.0052.058-.0118.117-.0197.177.0237-.05.0473-.096.071-.138.0237-.044.0473-.085.071-.122l1.9293-2.624c.0289-.042.0657-.081.1104-.118.0448-.039.0934-.059.146-.059zm4.3315 0v3.996h-.7062v-1.87h-1.9174v1.87h-.7063v-3.996h.7063v1.594h1.9174v-1.594zm3.1738 2.197c-.3235.011-.5997.037-.8285.079-.2262.04-.4116.092-.5563.158-.142.066-.2459.143-.3117.233-.0631.089-.0947.189-.0947.3 0 .105.0171.196.0513.272s.0802.139.1381.189c.0605.048.1302.083.2091.107.0816.021.1683.031.2604.031.1236 0 .2367-.011.3393-.035.1026-.026.1986-.063.288-.111.0921-.047.1789-.103.2604-.169.0842-.066.1657-.141.2446-.225zm-2.2685-1.633c.2209-.213.4589-.372.7141-.477.2551-.106.5378-.158.8482-.158.2236 0 .4221.037.5957.11.1736.074.3196.177.438.308.1183.132.2078.291.2683.477.0604.187.0907.392.0907.616v2.556h-.3117c-.0684 0-.121-.01-.1578-.031-.0368-.024-.0658-.068-.0868-.134l-.0789-.379c-.1052.097-.2078.184-.3077.26-.1.074-.2052.137-.3157.19-.1104.05-.2288.088-.355.114-.1237.029-.2617.044-.4143.044-.1552 0-.3012-.021-.4379-.064-.1368-.044-.2565-.11-.359-.197-.1-.087-.1802-.196-.2407-.327-.0579-.134-.0868-.292-.0868-.474 0-.157.0434-.309.1302-.453.0868-.148.2275-.278.4221-.391.1947-.113.4485-.205.7615-.276.313-.074.697-.116 1.152-.126v-.312c0-.31-.0671-.545-.2012-.702-.1341-.161-.3301-.241-.5879-.241-.1735 0-.3195.022-.4379.067-.1157.042-.217.091-.3038.146-.0841.053-.1578.101-.2209.146-.0605.042-.121.063-.1815.063-.0473 0-.0881-.012-.1223-.035-.0342-.027-.0631-.058-.0868-.095zm3.8531 2.998c0-.068.0118-.132.0355-.193.0263-.06.0605-.113.1026-.158.0447-.044.0973-.08.1578-.106s.1249-.04.1933-.04.1329.014.1933.04c.0605.026.1131.062.1579.106.0447.045.0802.098.1065.158.0263.061.0394.125.0394.193 0 .072-.0131.137-.0394.198-.0263.058-.0618.109-.1065.154-.0448.044-.0974.079-.1579.102-.0604.027-.1249.04-.1933.04s-.1328-.013-.1933-.04c-.0605-.023-.1131-.058-.1578-.102-.0421-.045-.0763-.096-.1026-.154-.0237-.061-.0355-.126-.0355-.198zm0-2.958c0-.069.0118-.133.0355-.194.0263-.06.0605-.113.1026-.158.0447-.044.0973-.08.1578-.106s.1249-.04.1933-.04.1329.014.1933.04c.0605.026.1131.062.1579.106.0447.045.0802.098.1065.158.0263.061.0394.125.0394.194 0 .071-.0131.136-.0394.197-.0263.058-.0618.109-.1065.154-.0448.044-.0974.08-.1579.106-.0604.024-.1249.036-.1933.036s-.1328-.012-.1933-.036c-.0605-.026-.1131-.062-.1578-.106-.0421-.045-.0763-.096-.1026-.154-.0237-.061-.0355-.126-.0355-.197zm7.9724 2.225c.0421 0 .0789.017.1104.051l.3038.327c-.2314.269-.5129.478-.8443.628-.3287.15-.7272.225-1.1954.225-.405 0-.7733-.07-1.1047-.209-.3314-.143-.6141-.34-.8482-.592-.2341-.255-.4156-.561-.5445-.916s-.1933-.745-.1933-1.171.0671-.817.2012-1.172c.1342-.355.3222-.66.5642-.915.2446-.256.5366-.453.8759-.592.3392-.142.7141-.213 1.1244-.213.4024 0 .7575.064 1.0652.193s.5786.304.8127.525l-.2525.351c-.0157.026-.0368.049-.0631.067-.0237.016-.0565.024-.0986.024-.0474 0-.1052-.025-.1736-.075-.0684-.053-.1578-.111-.2683-.174s-.2486-.12-.4143-.17c-.1657-.052-.3695-.078-.6115-.078-.2919 0-.5589.051-.8009.153-.242.1-.4511.246-.6273.438-.1736.192-.309.426-.4063.703-.0974.276-.146.587-.146.935 0 .352.0499.666.1499.943.1026.276.2407.51.4143.702.1762.189.3826.334.6194.434.2393.1.4971.15.7732.15.1684 0 .3196-.009.4538-.028.1367-.021.2617-.052.3748-.095.1157-.042.2222-.094.3195-.157.1-.066.1986-.144.2959-.233.0447-.04.0895-.059.1342-.059zm4.5309 1.167h-.7022v-3.444h-1.2625c-.0316.508-.079.947-.1421 1.318-.0631.368-.1394.682-.2288.943-.0868.258-.1854.468-.2959.631-.1078.161-.2223.286-.3432.375-.1184.089-.242.15-.3709.181-.1263.032-.2525.048-.3788.048-.2235 0-.3353-.036-.3353-.107v-.446h.2052c.0894 0 .1801-.015.2722-.047.092-.031.1815-.092.2683-.181.0894-.09.1749-.215.2564-.375.0815-.163.1552-.374.2209-.631.0684-.261.1263-.575.1736-.943.05-.371.0881-.81.1144-1.318h2.5487zm4.4323-3.996v3.996h-.7023v-2.714c0-.052.0026-.109.0079-.17.0053-.06.0118-.121.0197-.181-.0236.053-.0473.101-.071.146s-.0486.085-.075.122l-1.9292 2.624c-.0289.042-.0658.083-.1105.122-.0421.037-.0894.055-.142.055h-.4261v-3.996h.7062v2.714c0 .05-.0026.105-.0079.166-.0052.058-.0118.117-.0197.177.0237-.05.0473-.096.071-.138.0237-.044.0474-.085.071-.122l1.9293-2.624c.0289-.042.0657-.081.1104-.118.0448-.039.0934-.059.146-.059zm6.3791 0v3.996h-5.3774v-3.996h.7062v3.464h1.6294v-3.464h.7062v3.464h1.6294v-3.464zm3.4286.197c.0368-.058.0855-.105.146-.142s.1249-.055.1933-.055h.5484l-1.0376 1.523c-.0631.097-.1289.177-.1973.24-.0684.061-.1525.108-.2525.142.1263.035.2328.089.3196.162.0868.071.1644.163.2328.276l1.0494 1.653h-.4892c-.1262 0-.2236-.021-.2919-.063-.0684-.042-.1276-.102-.1776-.181l-.7772-1.243c-.1236-.205-.3091-.308-.5563-.308h-.43v1.799h-.7063v-4h.7063v1.728h.3787c.2104 0 .3748-.089.4932-.268zm3.0797-.26c.292 0 .555.048.7891.146.234.097.4339.235.5996.414.1658.179.292.396.3788.651.0894.252.1341.535.1341.848 0 .316-.0447.6-.1341.852-.0868.253-.213.469-.3788.647-.1657.179-.3656.317-.5996.415-.2341.094-.4971.142-.7891.142-.2946 0-.5602-.048-.797-.142-.234-.098-.4339-.236-.5996-.415-.1657-.178-.2933-.394-.3827-.647-.0868-.252-.1302-.536-.1302-.852 0-.313.0434-.596.1302-.848.0894-.255.217-.472.3827-.651s.3656-.317.5996-.414c.2368-.098.5024-.146.797-.146zm0 3.566c.3945 0 .6891-.131.8837-.394.1947-.266.292-.635.292-1.109 0-.476-.0973-.847-.292-1.112-.1946-.266-.4892-.399-.8837-.399-.1999 0-.3748.034-.5247.103-.1473.068-.2709.167-.3709.296-.0973.128-.171.288-.2209.477-.0474.187-.071.398-.071.635 0 .474.0973.843.2919 1.109.1973.263.4958.394.8956.394zm7.1384-3.515v4.008h-.635v-2.655c0-.073.003-.155.011-.244.011-.092.024-.178.04-.257l-1.3889 2.434c-.0211.04-.0487.072-.0829.095-.0342.024-.0736.036-.1183.036h-.079c-.0447 0-.0854-.012-.1223-.036-.0342-.023-.0618-.055-.0828-.095l-1.4124-2.442c.0131.079.025.166.0355.261.0105.092.0158.175.0158.248v2.655h-.6352v-4.008h.5641c.05 0 .0987.012.146.036.0474.021.0881.061.1223.122l1.2467 2.083c.0605.121.1145.249.1618.383.0447-.14.0973-.267.1578-.383l1.2231-2.083c.0337-.063.0747-.105.1227-.126.047-.021.096-.032.146-.032zm7.365 0v4.008h-.635v-2.655c0-.073.004-.155.012-.244.01-.092.023-.178.039-.257l-1.389 2.434c-.021.04-.048.072-.082.095-.035.024-.074.036-.119.036h-.079c-.044 0-.085-.012-.122-.036-.034-.023-.062-.055-.083-.095l-1.412-2.442c.013.079.025.166.035.261.011.092.016.175.016.248v2.655h-.635v-4.008h.564c.05 0 .099.012.146.036.047.021.088.061.122.122l1.247 2.083c.061.121.114.249.162.383.045-.14.097-.267.158-.383l1.223-2.083c.034-.063.075-.105.122-.126s.096-.032.146-.032zm3.676 1.574c0-.163-.024-.311-.071-.446-.045-.136-.112-.253-.201-.351-.087-.1-.194-.176-.32-.229-.126-.055-.27-.082-.43-.082-.337 0-.604.098-.801.295-.195.195-.316.466-.363.813zm.568 1.874c-.087.105-.191.198-.312.276-.121.077-.251.14-.39.19-.137.05-.279.087-.426.11-.148.027-.294.04-.438.04-.277 0-.532-.046-.766-.138-.231-.095-.432-.232-.603-.411-.169-.181-.3-.405-.395-.67-.095-.266-.142-.571-.142-.916 0-.278.042-.539.126-.781.087-.242.211-.451.371-.627.161-.179.357-.318.588-.418.231-.103.492-.154.781-.154.24 0 .46.041.663.122.205.079.381.195.529.347.15.15.267.337.351.56.084.221.126.474.126.758 0 .11-.012.184-.035.221-.024.037-.069.055-.135.055h-2.671c.008.253.043.472.103.659.063.187.15.343.26.47.111.123.242.217.395.28.152.06.323.09.513.09.176 0 .327-.019.454-.059.128-.042.239-.087.331-.134s.168-.091.229-.13c.063-.042.117-.063.162-.063.057 0 .102.022.134.067zm4.321.56h-.703v-3.444h-1.262c-.032.508-.079.947-.142 1.318-.063.368-.14.682-.229.943-.087.258-.185.468-.296.631-.108.161-.222.286-.343.375-.119.089-.242.15-.371.181-.126.032-.253.048-.379.048-.223 0-.335-.036-.335-.107v-.446h.205c.089 0 .18-.015.272-.047.092-.031.182-.092.269-.181.089-.09.174-.215.256-.375.082-.163.155-.374.221-.631.068-.261.126-.575.174-.943.049-.371.088-.81.114-1.318h2.549zm3.43-3.799c.037-.058.085-.105.146-.142.06-.037.125-.055.193-.055h.548l-1.037 1.523c-.063.097-.129.177-.197.24-.069.061-.153.108-.253.142.126.035.233.089.32.162.086.071.164.163.232.276l1.05 1.653h-.489c-.127 0-.224-.021-.292-.063-.069-.042-.128-.102-.178-.181l-.777-1.243c-.124-.205-.309-.308-.556-.308h-.43v1.799h-.707v-4h.707v1.728h.378c.211 0 .375-.089.493-.268zm4.977-.197v3.996h-.702v-2.714c0-.052.003-.109.008-.17.005-.06.012-.121.02-.181-.024.053-.048.101-.071.146-.024.045-.049.085-.075.122l-1.93 2.624c-.028.042-.065.083-.11.122-.042.037-.089.055-.142.055h-.426v-3.996h.706v2.714c0 .05-.003.105-.008.166-.005.058-.012.117-.02.177.024-.05.048-.096.071-.138.024-.044.048-.085.072-.122l1.929-2.624c.029-.042.066-.081.11-.118.045-.039.094-.059.146-.059zm3.677 1.562c0-.163-.024-.311-.071-.446-.045-.136-.112-.253-.201-.351-.087-.1-.194-.176-.32-.229-.126-.055-.269-.082-.43-.082-.337 0-.603.098-.801.295-.194.195-.315.466-.363.813zm.568 1.874c-.087.105-.191.198-.312.276-.121.077-.251.14-.39.19-.137.05-.279.087-.426.11-.148.027-.294.04-.438.04-.276 0-.531-.046-.766-.138-.231-.095-.432-.232-.603-.411-.169-.181-.3-.405-.395-.67-.094-.266-.142-.571-.142-.916 0-.278.042-.539.126-.781.087-.242.211-.451.371-.627.161-.179.357-.318.588-.418.232-.103.492-.154.781-.154.24 0 .461.041.663.122.205.079.382.195.529.347.15.15.267.337.351.56.084.221.126.474.126.758 0 .11-.012.184-.035.221-.024.037-.069.055-.134.055h-2.671c.007.253.042.472.102.659.063.187.15.343.261.47.11.123.242.217.394.28.153.06.324.09.513.09.176 0 .327-.019.454-.059.129-.042.239-.087.331-.134s.168-.091.229-.13c.063-.042.117-.063.162-.063.058 0 .102.022.134.067z" fill="#0abab5"/><path d="m170.002 77.917v.8516h-3.682v-.8516h1.348v-3.8802c0-.1534.005-.3115.014-.4741l-.957.8009c-.056.043-.111.0706-.166.0829-.052.0092-.103.0092-.152 0-.046-.0092-.087-.0246-.124-.0461-.037-.0245-.065-.0506-.083-.0782l-.359-.4925 2.03-1.7261h.934v5.8134zm1.986-3.8065c0 .3713.095.6551.286.8515.193.1933.466.29.819.29.184 0 .348-.0292.493-.0875.144-.0583.265-.1381.363-.2393.098-.1013.172-.221.221-.3591.052-.138.078-.2869.078-.4464 0-.1811-.027-.3422-.082-.4833-.056-.1443-.134-.2655-.235-.3637-.102-.0982-.223-.1733-.364-.2255-.138-.0522-.29-.0783-.456-.0783-.171 0-.326.0292-.464.0875-.139.0552-.257.1335-.355.2347-.098.1013-.173.2225-.225.3637-.053.1381-.079.29-.079.4557zm1.51 2.0758c.052-.0644.101-.1273.147-.1887.046-.0613.091-.1227.134-.1841-.154.0982-.322.1734-.506.2256-.185.0491-.378.0736-.58.0736-.231 0-.456-.0399-.677-.1197s-.417-.1994-.589-.359c-.172-.1626-.312-.3621-.419-.5984-.104-.2393-.157-.5186-.157-.8377 0-.2976.056-.5769.166-.8377.111-.2608.266-.4894.465-.6858s.439-.3514.718-.4649c.279-.1136.588-.1703.925-.1703.341 0 .646.0537.916.1611.273.1074.505.2577.695.451.194.1934.341.425.442.6951.104.27.157.5661.157.8883 0 .2056-.019.4005-.056.5846-.033.1841-.082.3621-.147.5339-.064.1688-.143.3345-.235.4971-.092.1627-.194.3238-.308.4833l-1.524 2.1726c-.052.0736-.13.1365-.234.1887-.105.0491-.223.0737-.355.0737h-1.045z" fill="#49494f"/><path d="m174.986 119.793c.123 0 .219.035.29.106.074.067.11.158.11.271v.682h-4.566v-.378c0-.077.016-.156.046-.239.034-.086.086-.163.157-.23l2.021-2.026c.168-.171.319-.336.451-.492.135-.157.247-.312.336-.465s.156-.308.202-.465c.049-.159.074-.327.074-.502 0-.159-.023-.299-.069-.418-.046-.123-.112-.226-.198-.309-.083-.083-.184-.144-.304-.184-.117-.043-.248-.064-.396-.064-.135 0-.261.02-.377.059-.114.037-.215.091-.304.162-.089.067-.164.147-.226.239-.061.092-.107.193-.138.304-.052.141-.119.234-.202.28s-.203.057-.359.033l-.599-.106c.046-.319.135-.599.267-.838.132-.242.297-.443.493-.603.199-.163.426-.284.681-.364.258-.082.534-.124.829-.124.307 0 .587.046.842.138.255.089.473.217.654.382.181.166.322.365.423.599.101.233.152.492.152.778 0 .245-.037.472-.111.681-.07.208-.167.408-.29.598-.119.19-.26.375-.423.552-.163.178-.333.36-.511.544l-1.5 1.532c.144-.043.286-.075.428-.096.144-.025.28-.037.409-.037z" fill="#49494f"/><path d="m164.524 159.246c.122 0 .219.035.289.106.074.067.111.158.111.271v.682h-4.566v-.378c0-.076.015-.156.046-.239.034-.086.086-.163.156-.23l2.021-2.026c.169-.171.319-.336.451-.492.135-.157.247-.311.336-.465.089-.153.157-.308.203-.465.049-.159.073-.327.073-.501 0-.16-.023-.3-.069-.419-.046-.123-.112-.226-.198-.309-.082-.083-.184-.144-.303-.184-.117-.043-.249-.064-.396-.064-.135 0-.261.02-.378.06-.113.036-.214.09-.303.161-.089.067-.165.147-.226.239s-.107.193-.138.304c-.052.141-.12.235-.203.281-.082.046-.202.056-.359.032l-.598-.106c.046-.319.135-.598.267-.838.132-.242.296-.443.492-.603.2-.162.427-.284.682-.363.257-.083.534-.125.828-.125.307 0 .588.046.843.138.254.089.472.217.653.382.181.166.322.366.424.599.101.233.151.492.151.778 0 .245-.036.472-.11.681-.071.209-.167.408-.29.598-.12.191-.261.375-.423.553-.163.178-.333.359-.511.543l-1.501 1.533c.144-.043.287-.076.428-.097.144-.025.281-.037.41-.037zm3.385.244c.187 0 .352-.026.493-.078.141-.056.259-.131.354-.226.098-.095.172-.208.221-.34s.074-.275.074-.428c0-.366-.101-.642-.304-.829-.202-.187-.482-.281-.838-.281s-.635.094-.837.281c-.203.187-.304.463-.304.829 0 .153.024.296.073.428.05.132.122.245.217.34.098.095.218.17.359.226.141.052.305.078.492.078zm0-5.059c-.168 0-.314.027-.437.079s-.226.122-.308.211c-.08.086-.14.186-.18.3-.037.113-.055.233-.055.359 0 .132.015.26.046.386.034.123.089.233.166.332.076.095.178.172.303.23.126.058.281.087.465.087s.339-.029.465-.087.227-.135.304-.23c.077-.099.13-.209.161-.332.034-.126.051-.254.051-.386 0-.126-.02-.246-.06-.359-.04-.114-.1-.214-.18-.3-.079-.089-.181-.159-.303-.211-.123-.052-.269-.079-.438-.079zm1.123 2.403c.405.132.705.335.898.608.193.27.29.601.29.994 0 .295-.057.561-.17.801-.111.239-.267.443-.47.612-.202.169-.446.299-.732.391-.282.092-.595.138-.939.138-.343 0-.658-.046-.943-.138-.283-.092-.525-.222-.728-.391-.202-.169-.36-.373-.474-.612-.11-.24-.165-.506-.165-.801 0-.393.096-.724.29-.994.193-.273.492-.476.897-.608-.322-.135-.564-.327-.727-.575-.16-.249-.239-.548-.239-.898 0-.251.05-.486.152-.704.104-.218.248-.407.432-.566.184-.163.404-.289.658-.378.258-.092.54-.138.847-.138s.588.046.843.138c.257.089.478.215.662.378.185.159.327.348.429.566.104.218.156.453.156.704 0 .35-.081.649-.244.898-.16.248-.4.44-.723.575zm1.936-1.33c.046-.319.135-.598.267-.838.132-.242.296-.443.493-.603.199-.162.426-.284.681-.363.258-.083.534-.125.829-.125.306 0 .583.045.828.134.249.086.46.207.635.363.175.154.309.335.401.544.095.208.142.434.142.676 0 .212-.024.399-.073.562-.046.159-.114.299-.203.419-.089.119-.199.221-.331.303-.132.083-.281.152-.447.207.399.126.697.318.893.576.197.258.295.581.295.971 0 .331-.062.625-.184.879-.123.255-.289.47-.497.645-.209.171-.451.302-.728.391-.273.089-.563.133-.87.133-.334 0-.626-.038-.874-.115-.249-.076-.465-.19-.649-.34-.184-.151-.341-.335-.47-.553-.128-.218-.239-.469-.331-.755l.502-.207c.132-.055.254-.069.368-.041.117.024.201.086.253.184.055.107.115.213.18.318.067.104.147.198.239.28.092.08.199.146.322.198.126.049.275.074.447.074.193 0 .362-.031.506-.092.144-.065.264-.147.359-.249.098-.101.17-.213.216-.336.049-.125.074-.251.074-.377 0-.16-.017-.304-.051-.433-.033-.132-.104-.244-.211-.336-.108-.092-.263-.164-.465-.216-.2-.052-.468-.078-.806-.078v-.81c.279-.004.511-.03.695-.079s.33-.116.437-.202c.111-.089.188-.195.231-.318s.064-.258.064-.405c0-.313-.087-.551-.262-.713-.175-.163-.408-.244-.7-.244-.135 0-.259.02-.373.06-.113.036-.216.09-.308.161-.089.067-.164.147-.226.239-.061.092-.107.193-.138.304-.052.141-.121.235-.207.281-.083.046-.201.056-.354.032z" fill="#49494f"/><g clip-path="url(#d)"><g clip-path="url(#e)" fill="#979797"><path d="m161.213 204.61c0 .412-.045.769-.135 1.072-.088.3-.208.549-.362.746-.153.197-.335.344-.545.441-.209.096-.432.144-.671.144-.241 0-.466-.048-.674-.144-.206-.097-.386-.244-.539-.441-.154-.197-.274-.446-.362-.746-.088-.303-.131-.66-.131-1.072s.043-.77.131-1.072.208-.552.362-.75c.153-.199.333-.347.539-.443.208-.097.433-.145.674-.145.239 0 .462.048.671.145.21.096.392.244.545.443.154.198.274.448.362.75.09.302.135.66.135 1.072zm-.608 0c0-.36-.031-.661-.093-.904-.059-.246-.14-.443-.243-.592-.101-.149-.218-.255-.352-.319-.133-.066-.272-.099-.417-.099s-.284.033-.418.099c-.133.064-.251.17-.351.319-.101.149-.182.346-.244.592-.059.243-.089.544-.089.904 0 .359.03.661.089.904.062.243.143.439.244.588.1.15.218.257.351.323.134.063.273.095.418.095s.284-.032.417-.095c.134-.066.251-.173.352-.323.103-.149.184-.345.243-.588.062-.243.093-.545.093-.904zm2.712 1.94c.154 0 .291-.021.411-.063.123-.044.226-.104.309-.181.086-.079.151-.172.194-.279.046-.11.07-.23.07-.362 0-.162-.028-.3-.083-.414-.052-.116-.125-.21-.217-.283-.09-.072-.194-.125-.312-.158-.118-.035-.242-.052-.372-.052-.129 0-.253.017-.371.052-.118.033-.224.086-.316.158-.09.073-.162.167-.217.283-.052.114-.079.252-.079.414 0 .132.022.252.066.362.046.107.111.2.194.279.086.077.189.137.309.181.123.042.261.063.414.063zm0-3.896c-.14 0-.264.02-.371.062-.105.042-.194.099-.266.171-.07.072-.124.157-.161.253-.036.097-.053.2-.053.309 0 .108.015.212.046.313.031.1.08.19.148.269.068.077.156.139.263.188.11.046.241.069.394.069.154 0 .284-.023.392-.069.109-.049.198-.111.266-.188.068-.079.117-.169.148-.269.031-.101.046-.205.046-.313 0-.109-.019-.212-.056-.309-.035-.096-.089-.181-.161-.253-.07-.072-.159-.129-.266-.171-.106-.042-.228-.062-.369-.062zm.674 1.854c.294.083.52.222.678.417.158.196.236.445.236.75 0 .206-.039.392-.118.559-.077.164-.185.305-.325.421-.138.116-.305.206-.5.269-.195.062-.41.092-.645.092-.234 0-.449-.03-.644-.092-.195-.063-.363-.153-.503-.269s-.249-.257-.325-.421c-.077-.167-.116-.353-.116-.559 0-.305.079-.554.237-.75.158-.195.384-.334.677-.417-.247-.092-.435-.229-.562-.411-.125-.184-.187-.403-.187-.658 0-.173.034-.335.102-.486s.164-.283.289-.395.274-.199.447-.263c.176-.063.371-.095.585-.095.213 0 .407.032.582.095.176.064.326.151.451.263s.221.244.289.395.102.313.102.486c0 .255-.063.474-.191.658-.125.182-.311.319-.559.411zm1.645 2.094c0-.057.01-.11.029-.161.022-.05.051-.094.086-.131.037-.038.081-.067.131-.089.051-.022.105-.033.162-.033s.11.011.161.033c.05.022.094.051.131.089.037.037.067.081.089.131.022.051.033.104.033.161 0 .059-.011.114-.033.165-.022.048-.052.091-.089.128s-.081.066-.131.085c-.051.022-.104.033-.161.033s-.111-.011-.162-.033c-.05-.019-.094-.048-.131-.085-.035-.037-.064-.08-.086-.128-.019-.051-.029-.106-.029-.165zm0-2.466c0-.057.01-.11.029-.161.022-.05.051-.094.086-.131.037-.037.081-.067.131-.089.051-.022.105-.033.162-.033s.11.011.161.033c.05.022.094.052.131.089s.067.081.089.131c.022.051.033.104.033.161 0 .06-.011.114-.033.165-.022.048-.052.091-.089.128s-.081.067-.131.089c-.051.019-.104.029-.161.029s-.111-.01-.162-.029c-.05-.022-.094-.052-.131-.089-.035-.037-.064-.08-.086-.128-.019-.051-.029-.105-.029-.165zm1.66-.608c.031-.215.09-.404.178-.569.087-.166.198-.305.332-.417.136-.112.29-.196.463-.253.176-.06.364-.089.566-.089.199 0 .383.028.552.085s.314.138.434.244c.123.105.218.232.286.381s.102.315.102.497c0 .149-.02.282-.059.401-.037.116-.092.218-.164.305-.071.088-.156.163-.257.224s-.214.112-.339.151c.307.079.537.215.691.408.156.191.233.429.233.717 0 .217-.041.412-.125.585-.081.173-.192.321-.335.444-.142.12-.309.213-.5.279-.188.064-.391.095-.608.095-.25 0-.463-.03-.641-.092-.178-.063-.328-.15-.45-.259-.123-.11-.224-.239-.303-.388-.079-.152-.146-.315-.2-.49l.253-.105c.065-.029.129-.037.19-.023.064.013.11.049.138.108.029.061.064.135.106.22.043.086.103.168.177.247.075.079.169.146.283.201.116.054.263.082.441.082.164 0 .307-.027.43-.079.125-.055.228-.125.309-.211.084-.085.146-.18.188-.286.041-.105.062-.209.062-.312 0-.127-.016-.243-.049-.348-.033-.106-.094-.197-.184-.273-.09-.077-.214-.137-.372-.181-.155-.044-.356-.066-.601-.066v-.424c.201-.002.372-.024.512-.066.143-.041.258-.098.346-.171.089-.072.154-.159.194-.26.041-.1.062-.212.062-.335 0-.136-.022-.254-.066-.355-.041-.101-.099-.184-.174-.25-.074-.066-.163-.115-.266-.148-.101-.033-.211-.049-.329-.049s-.229.017-.332.053c-.101.035-.191.084-.27.147-.076.062-.141.135-.194.221-.052.085-.09.179-.111.283-.029.076-.065.128-.109.154-.042.024-.103.031-.184.02zm6.734 2.989v.447h-2.525v-.447h1.009v-3.212c0-.097.004-.194.01-.293l-.838.72c-.029.024-.057.039-.086.046-.028.004-.054.004-.079 0-.024-.004-.047-.013-.069-.026-.019-.013-.035-.028-.046-.043l-.184-.253 1.404-1.213h.477v4.274z"/><path d="m179.1 205.938 3.022-3.022.466.465-3.488 3.487-2.092-2.092.465-.465z"/></g></g><path d="m195.539 218.375c-2.63-.987-5.26-5.261-5.26-5.261v5.261z" fill="#d9ebff"/></g></g><circle cx="180.5" cy="34.5" fill="#ffe3ea" r="34.5"/><path d="m180.5 22.0791v25.53m0 0 6.21-6.21m-6.21 6.21-6.21-6.21" stroke="#fff" stroke-width="2"/></svg>