<svg fill="none" height="198" width="381" xmlns="http://www.w3.org/2000/svg" xmlns:xlink="http://www.w3.org/1999/xlink"><linearGradient id="a" gradientUnits="userSpaceOnUse" x1="8.488" x2="8.488" y1="8.486" y2="29.705"><stop offset="0" stop-color="#67ff81"/><stop offset="1" stop-color="#01b41f"/></linearGradient><mask id="b" height="301" maskUnits="userSpaceOnUse" width="381" x="0" y="0"><path clip-rule="evenodd" d="m0 13.792c0-7.617 6.175-13.792 13.792-13.792h353.285c7.617 0 13.792 6.175 13.792 13.792v272.656c0 7.617-6.175 13.792-13.792 13.792h-353.285c-7.617 0-13.792-6.175-13.792-13.792z" fill="#fff" fill-rule="evenodd"/></mask><rect fill="#fff" height="197.243" rx="13.487" width="381"/><g mask="url(#b)"><path d="m27.277 82.898v-11.212h-8.796v11.212h1.399v-9.953h5.998v9.953h1.4zm2.59 2.798h1.352v-4.118h.124c.458.893 1.46 1.468 2.61 1.468 2.13 0 3.513-1.702 3.513-4.328v-.016c0-2.61-1.391-4.328-3.512-4.328-1.166 0-2.098.552-2.611 1.485h-.124v-1.337h-1.353v11.174zm3.776-3.847c-1.523 0-2.456-1.196-2.456-3.131v-.016c0-1.934.933-3.131 2.456-3.131 1.53 0 2.44 1.181 2.44 3.131v.016c0 1.95-.91 3.131-2.44 3.131zm5.83 1.05h1.352l4.141-6.248h.124v6.247h1.353v-8.376h-1.353l-4.142 6.247h-.124v-6.247h-1.353v8.376zm14.742-7.258v-1.119h-5.362v8.376h1.352v-7.257zm3.125 3.978.311-3.978h2.914v7.257h1.352v-8.376h-5.478l-.358 4.988c-.085 1.244-.396 2.215-1.165 2.215-.202 0-.412-.031-.482-.054v1.22c.109.038.327.085.614.085 1.399 0 2.113-1.049 2.292-3.357zm9.288 3.427c1.126 0 2.004-.49 2.533-1.383h.124v1.235h1.352v-5.734c0-1.74-1.142-2.79-3.186-2.79-1.787 0-3.061.886-3.279 2.2l-.008.046h1.352l.008-.023c.218-.653.878-1.026 1.88-1.026 1.252 0 1.881.56 1.881 1.593v.761l-2.4.148c-1.951.117-3.055.98-3.055 2.471v.016c0 1.522 1.205 2.486 2.798 2.486zm-1.415-2.518v-.015c0-.832.56-1.282 1.834-1.36l2.238-.14v.762c0 1.196-1.002 2.098-2.378 2.098-.97 0-1.694-.498-1.694-1.345zm7.788 2.37h10.35v-8.376h-1.351v7.257h-3.147v-7.257h-1.353v7.257h-3.147v-7.257h-1.352zm15.061.148c1.127 0 2.005-.49 2.533-1.383h.124v1.235h1.353v-5.734c0-1.74-1.143-2.79-3.186-2.79-1.787 0-3.062.886-3.28 2.2l-.007.046h1.352l.008-.023c.217-.653.878-1.026 1.88-1.026 1.251 0 1.88.56 1.88 1.593v.761l-2.4.148c-1.951.117-3.054.98-3.054 2.471v.016c0 1.522 1.204 2.486 2.797 2.486zm-1.414-2.518v-.015c0-.832.56-1.282 1.834-1.36l2.237-.14v.762c0 1.196-1.002 2.098-2.377 2.098-.972 0-1.694-.498-1.694-1.345zm11.214 2.518c1.974 0 3.171-1.119 3.458-2.253l.016-.063h-1.352l-.031.07c-.226.505-.925 1.042-2.06 1.042-1.492 0-2.447-1.01-2.486-2.743h6.03v-.529c0-2.502-1.383-4.196-3.66-4.196s-3.753 1.772-3.753 4.36v.007c0 2.627 1.445 4.305 3.838 4.305zm-.093-7.467c1.235 0 2.152.785 2.292 2.44h-4.63c.147-1.593 1.095-2.44 2.338-2.44zm7.011 7.32v-5.96h.147l2.634 5.726h1.042l2.642-5.727h.147v5.96h1.352v-8.376h-1.569l-3 6.496h-.124l-2.984-6.496h-1.639v8.376h1.352zm14.596 0h3.567c1.802 0 2.867-.948 2.867-2.402v-.015c0-.972-.676-1.717-1.741-1.865v-.124c.785-.164 1.368-.948 1.368-1.78v-.015c0-1.313-.925-2.176-2.51-2.176h-3.551v8.376zm1.352-4.834v-2.424h2.005c.94 0 1.36.482 1.36 1.197v.015c0 .793-.49 1.212-1.578 1.212zm0 3.715v-2.596h1.904c1.204 0 1.803.389 1.803 1.275v.015c0 .84-.521 1.305-1.547 1.305h-2.16zm17.402-7.258h-6.776v1.119h2.712v7.257h1.352v-7.257h2.712zm4.811 8.524c1.974 0 3.171-1.119 3.458-2.253l.016-.063h-1.352l-.031.07c-.226.505-.925 1.042-2.06 1.042-1.492 0-2.447-1.01-2.486-2.743h6.03v-.529c0-2.502-1.383-4.196-3.66-4.196s-3.753 1.772-3.753 4.36v.007c0 2.627 1.445 4.305 3.838 4.305zm-.093-7.467c1.236 0 2.152.785 2.292 2.44h-4.631c.148-1.593 1.096-2.44 2.339-2.44zm7.392 4.04.31-3.978h2.914v7.257h1.352v-8.376h-5.478l-.357 4.988c-.086 1.244-.397 2.215-1.166 2.215-.202 0-.412-.031-.482-.054v1.22c.109.038.327.085.614.085 1.399 0 2.114-1.049 2.293-3.357zm10.406 3.427c1.974 0 3.17-1.119 3.458-2.253l.015-.063h-1.352l-.031.07c-.225.505-.925 1.042-2.059 1.042-1.492 0-2.448-1.01-2.487-2.743h6.03v-.529c0-2.502-1.383-4.196-3.66-4.196-2.276 0-3.753 1.772-3.753 4.36v.007c0 2.627 1.446 4.305 3.839 4.305zm-.093-7.467c1.235 0 2.152.785 2.292 2.44h-4.631c.147-1.593 1.095-2.44 2.339-2.44zm11.02.062v-1.119h-5.362v8.376h1.352v-7.257zm1.789 10.055h1.352v-4.118h.124c.459.893 1.461 1.468 2.611 1.468 2.129 0 3.512-1.702 3.512-4.328v-.016c0-2.61-1.391-4.328-3.512-4.328-1.166 0-2.098.552-2.611 1.485h-.124v-1.337h-1.352zm3.776-3.847c-1.523 0-2.455-1.196-2.455-3.131v-.016c0-1.934.932-3.131 2.455-3.131 1.531 0 2.44 1.181 2.44 3.131v.016c0 1.95-.909 3.131-2.44 3.131zm8.138 1.197c1.126 0 2.004-.49 2.533-1.383h.124v1.235h1.352v-5.734c0-1.74-1.142-2.79-3.186-2.79-1.787 0-3.061.886-3.279 2.2l-.008.046h1.352l.008-.023c.218-.653.878-1.026 1.881-1.026 1.251 0 1.88.56 1.88 1.593v.761l-2.401.148c-1.95.117-3.054.98-3.054 2.471v.016c0 1.522 1.205 2.486 2.798 2.486zm-1.415-2.518v-.015c0-.832.56-1.282 1.834-1.36l2.238-.14v.762c0 1.196-1.002 2.098-2.378 2.098-.971 0-1.694-.498-1.694-1.345zm9.14 2.37v-5.96h.148l2.634 5.727h1.041l2.642-5.727h.148v5.96h1.352v-8.376h-1.57l-2.999 6.496h-.124l-2.984-6.496h-1.64v8.376zm18.086.156c2.416 0 3.9-1.648 3.9-4.305v-.015c0-2.526-1.445-4.134-3.698-4.134-1.267 0-2.269.544-2.837 1.546h-.124l.023-.171c.311-2.284 1.158-3.194 3.108-3.28l.855-.038c.972-.047 1.857-.249 2.122-.497v-1.197c-.723.295-1.516.42-2.184.45l-.839.04c-2.992.14-4.227 2.035-4.227 6.48v.016c0 3.356 1.336 5.105 3.901 5.105zm0-1.197c-1.601 0-2.518-1.142-2.518-3.108v-.015c0-1.873.917-2.938 2.518-2.938 1.6 0 2.517 1.065 2.517 2.938v.015c0 1.966-.917 3.108-2.517 3.108zm9.341 1.19c2.386 0 3.862-1.648 3.862-4.329v-.016c0-2.688-1.476-4.328-3.862-4.328-2.385 0-3.862 1.64-3.862 4.328v.016c0 2.68 1.477 4.328 3.862 4.328zm0-1.198c-1.585 0-2.478-1.157-2.478-3.131v-.016c0-1.981.893-3.131 2.478-3.131s2.479 1.15 2.479 3.131v.016c0 1.974-.894 3.131-2.479 3.131zm11.378-7.327h-6.776v1.119h2.712v7.257h1.352v-7.257h2.712zm6.096 8.376h1.398v-4.001h2.829c2.105 0 3.597-1.485 3.597-3.614v-.015c0-2.13-1.492-3.582-3.597-3.582h-4.227zm3.869-9.969c1.601 0 2.526.878 2.526 2.355v.015c0 1.476-.925 2.354-2.526 2.354h-2.471v-4.723h2.471zm9.241 10.117c1.974 0 3.17-1.119 3.458-2.253l.015-.063h-1.352l-.031.07c-.225.505-.924 1.042-2.059 1.042-1.492 0-2.448-1.01-2.486-2.743h6.029v-.529c0-2.502-1.383-4.196-3.659-4.196-2.277 0-3.754 1.772-3.754 4.36v.007c0 2.627 1.446 4.305 3.839 4.305zm-.093-7.467c1.235 0 2.152.785 2.292 2.44h-4.631c.147-1.593 1.095-2.44 2.339-2.44zm9.093 7.467c2.012 0 3.139-1.08 3.481-2.595l.016-.086-1.337.008-.015.047c-.311.932-1.026 1.43-2.153 1.43-1.492 0-2.455-1.236-2.455-3.163v-.016c0-1.888.948-3.1 2.455-3.1 1.205 0 1.951.668 2.16 1.492l.008.023h1.344l-.007-.046c-.249-1.492-1.469-2.666-3.505-2.666-2.347 0-3.838 1.694-3.838 4.297v.016c0 2.657 1.499 4.36 3.846 4.36zm11.051-8.524h-6.776v1.119h2.712v7.257h1.352v-7.257h2.712zm4.835 8.524c2.386 0 3.862-1.647 3.862-4.328v-.016c0-2.688-1.476-4.328-3.862-4.328-2.385 0-3.862 1.64-3.862 4.328v.016c0 2.68 1.477 4.328 3.862 4.328zm0-1.197c-1.585 0-2.479-1.157-2.479-3.131v-.016c0-1.981.894-3.131 2.479-3.131s2.479 1.15 2.479 3.131v.016c0 1.974-.894 3.131-2.479 3.131zm5.861 3.847h1.352v-4.118h.124c.459.893 1.461 1.468 2.611 1.468 2.129 0 3.512-1.702 3.512-4.328v-.016c0-2.61-1.391-4.328-3.512-4.328-1.165 0-2.098.552-2.611 1.485h-.124v-1.337h-1.352zm3.776-3.847c-1.523 0-2.455-1.196-2.455-3.131v-.016c0-1.934.932-3.131 2.455-3.131 1.531 0 2.44 1.181 2.44 3.131v.016c0 1.95-.909 3.131-2.44 3.131zm8.138 1.197c1.126 0 2.004-.49 2.533-1.383h.124v1.235h1.352v-5.734c0-1.74-1.142-2.79-3.186-2.79-1.787 0-3.061.886-3.279 2.2l-.008.046h1.353l.007-.023c.218-.653.878-1.026 1.881-1.026 1.251 0 1.88.56 1.88 1.593v.761l-2.401.148c-1.95.117-3.054.98-3.054 2.471v.016c0 1.522 1.205 2.486 2.798 2.486zm-1.415-2.518v-.015c0-.832.56-1.282 1.834-1.36l2.238-.14v.762c0 1.196-1.002 2.098-2.378 2.098-.971 0-1.694-.498-1.694-1.345zm13.29 2.37h1.352v-8.376h-1.352v3.466h-4.15v-3.466h-1.352v8.376h1.352v-3.791h4.15zm10.12-11.212h-1.002l-1.22 4.421h1.546zm2.58 0h-1.002l-1.22 4.421h1.546zm6.513 11.477c.754 0 1.438-.125 2.052-.373l.994 1.375h1.57l-1.461-2.005c1.275-1.002 1.989-2.696 1.989-4.864v-.016c0-3.59-1.958-5.858-5.144-5.858-3.17 0-5.144 2.26-5.144 5.858v.016c0 3.582 1.927 5.867 5.144 5.867zm0-1.29c-2.331 0-3.714-1.803-3.714-4.577v-.016c0-2.797 1.43-4.569 3.714-4.569 2.293 0 3.715 1.772 3.715 4.57v.015c0 1.64-.498 2.945-1.376 3.737l-.979-1.344h-1.569l1.445 1.99a3.926 3.926 0 0 1 -1.236.194zm8.759 1.025h1.353l1.864-6.48h.125l1.872 6.48h1.36l2.347-8.376h-1.344l-1.648 6.698h-.124l-1.873-6.698h-1.282l-1.873 6.698h-.124l-1.647-6.698h-1.352zm13.562.148c1.973 0 3.17-1.119 3.457-2.253l.016-.063h-1.352l-.031.07c-.226.505-.925 1.042-2.059 1.042-1.492 0-2.448-1.01-2.487-2.743h6.03v-.529c0-2.502-1.383-4.196-3.66-4.196s-3.753 1.772-3.753 4.36v.007c0 2.627 1.445 4.305 3.839 4.305zm-.094-7.467c1.236 0 2.153.785 2.293 2.44h-4.632c.148-1.593 1.096-2.44 2.339-2.44zm5.504.528h1.002l1.22-4.421h-1.546zm2.579 0h1.003l1.22-4.421h-1.547zm-336.769 25.791h1.352v-7.257h4.072v7.257h1.352v-8.376h-6.776zm9.187 2.798h1.352v-4.119h.124c.459.894 1.461 1.469 2.611 1.469 2.13 0 3.512-1.702 3.512-4.328v-.016c0-2.61-1.39-4.328-3.512-4.328-1.166 0-2.098.552-2.61 1.485h-.125v-1.337h-1.352zm3.776-3.847c-1.523 0-2.455-1.196-2.455-3.131v-.016c0-1.934.932-3.131 2.455-3.131 1.53 0 2.44 1.181 2.44 3.131v.016c0 1.95-.91 3.131-2.44 3.131zm5.83 1.049h1.352l4.141-6.247h.125v6.247h1.352v-8.376h-1.352l-4.142 6.247h-.124v-6.247h-1.352zm14.742-7.257v-1.119h-5.362v8.376h1.352v-7.257zm3.125 3.978.311-3.978h2.914v7.257h1.352v-8.376h-5.478l-.357 4.988c-.086 1.244-.397 2.215-1.166 2.215a2.01 2.01 0 0 1 -.482-.054v1.22c.11.039.327.085.614.085 1.399 0 2.114-1.049 2.292-3.357zm9.288 3.427c1.127 0 2.005-.489 2.533-1.383h.124v1.235h1.352v-5.734c0-1.74-1.142-2.79-3.185-2.79-1.788 0-3.062.886-3.28 2.2l-.007.046h1.352l.008-.023c.217-.653.878-1.026 1.88-1.026 1.251 0 1.88.56 1.88 1.593v.761l-2.4.148c-1.951.117-3.054.98-3.054 2.471v.016c0 1.523 1.204 2.486 2.797 2.486zm-1.414-2.518v-.015c0-.832.56-1.282 1.834-1.36l2.237-.14v.762c0 1.196-1.002 2.098-2.377 2.098-.972 0-1.694-.498-1.694-1.345zm7.787 2.37h10.35v-8.376h-1.352v7.258h-3.146v-7.258h-1.352v7.258h-3.148v-7.258h-1.352zm15.061.148c1.127 0 2.005-.489 2.533-1.383h.125v1.235h1.352v-5.734c0-1.74-1.142-2.79-3.186-2.79-1.787 0-3.062.886-3.28 2.2l-.007.046h1.352l.008-.023c.217-.653.878-1.026 1.88-1.026 1.251 0 1.88.56 1.88 1.593v.761l-2.4.148c-1.95.117-3.054.98-3.054 2.471v.016c0 1.523 1.204 2.486 2.797 2.486zm-1.414-2.518v-.015c0-.832.56-1.282 1.834-1.36l2.238-.14v.762c0 1.196-1.003 2.098-2.378 2.098-.971 0-1.694-.498-1.694-1.345zm11.215 2.518c1.973 0 3.17-1.119 3.457-2.253l.016-.063h-1.352l-.031.07c-.226.506-.925 1.042-2.06 1.042-1.491 0-2.447-1.01-2.486-2.743h6.03v-.529c0-2.502-1.383-4.196-3.66-4.196s-3.753 1.772-3.753 4.36v.007c0 2.627 1.445 4.305 3.838 4.305zm-.094-7.467c1.236 0 2.153.785 2.292 2.44h-4.63c.147-1.593 1.095-2.44 2.338-2.44zm11.106-1.057h-6.776v1.119h2.712v7.257h1.352v-7.257h2.712zm5.917 8.376h3.566c1.803 0 2.868-.948 2.868-2.4v-.016c0-.972-.676-1.717-1.741-1.865v-.124c.785-.164 1.368-.948 1.368-1.78v-.015c0-1.313-.925-2.176-2.51-2.176h-3.551zm1.352-4.833v-2.424h2.005c.94 0 1.359.482 1.359 1.197v.015c0 .793-.489 1.212-1.577 1.212zm0 3.715v-2.596h1.904c1.204 0 1.802.389 1.802 1.275v.015c0 .839-.52 1.306-1.546 1.306zm17.401-7.258h-6.775v1.119h2.711v7.257h1.353v-7.257h2.711zm4.812 8.524c1.974 0 3.17-1.119 3.458-2.253l.015-.063h-1.352l-.031.07c-.225.506-.924 1.042-2.059 1.042-1.492 0-2.448-1.01-2.486-2.743h6.029v-.529c0-2.502-1.383-4.196-3.659-4.196-2.277 0-3.754 1.772-3.754 4.36v.007c0 2.627 1.446 4.305 3.839 4.305zm-.093-7.467c1.235 0 2.152.785 2.292 2.44h-4.631c.148-1.593 1.096-2.44 2.339-2.44zm7.391 4.04.311-3.978h2.914v7.257h1.352v-8.376h-5.478l-.358 4.988c-.085 1.244-.396 2.215-1.165 2.215-.202 0-.412-.031-.482-.054v1.22c.109.039.326.085.614.085 1.399 0 2.114-1.049 2.292-3.357zm10.407 3.427c1.973 0 3.17-1.119 3.457-2.253l.016-.063h-1.352l-.031.07c-.226.506-.925 1.042-2.059 1.042-1.492 0-2.448-1.01-2.487-2.743h6.03v-.529c0-2.502-1.383-4.196-3.66-4.196s-3.753 1.772-3.753 4.36v.007c0 2.627 1.445 4.305 3.839 4.305zm-.094-7.467c1.236 0 2.153.785 2.293 2.44h-4.632c.148-1.593 1.096-2.44 2.339-2.44zm11.021.062v-1.119h-5.362v8.376h1.352v-7.257zm1.789 10.055h1.352v-4.119h.124c.458.894 1.461 1.469 2.611 1.469 2.129 0 3.512-1.702 3.512-4.328v-.016c0-2.61-1.391-4.328-3.512-4.328-1.166 0-2.098.552-2.611 1.485h-.124v-1.337h-1.352zm3.776-3.847c-1.523 0-2.455-1.196-2.455-3.131v-.016c0-1.934.932-3.131 2.455-3.131 1.531 0 2.44 1.181 2.44 3.131v.016c0 1.95-.909 3.131-2.44 3.131zm8.137 1.197c1.127 0 2.005-.489 2.534-1.383h.124v1.235h1.352v-5.734c0-1.74-1.142-2.79-3.186-2.79-1.787 0-3.062.886-3.279 2.2l-.008.046h1.352l.008-.023c.218-.653.878-1.026 1.88-1.026 1.251 0 1.881.56 1.881 1.593v.761l-2.401.148c-1.951.117-3.054.98-3.054 2.471v.016c0 1.523 1.204 2.486 2.797 2.486zm-1.414-2.518v-.015c0-.832.56-1.282 1.834-1.36l2.238-.14v.762c0 1.196-1.003 2.098-2.378 2.098-.971 0-1.694-.498-1.694-1.345zm9.14 2.37v-5.96h.148l2.634 5.727h1.041l2.642-5.727h.148v5.96h1.352v-8.376h-1.57l-2.999 6.496h-.125l-2.984-6.496h-1.639v8.376zm18.085.156c2.417 0 3.901-1.647 3.901-4.305v-.015c0-2.526-1.445-4.134-3.699-4.134-1.266 0-2.269.544-2.836 1.546h-.124l.023-.171c.311-2.284 1.158-3.194 3.108-3.28l.855-.038c.971-.047 1.857-.249 2.121-.497v-1.197c-.722.295-1.515.42-2.183.45l-.839.04c-2.992.14-4.227 2.035-4.227 6.48v.016c0 3.357 1.336 5.105 3.9 5.105zm0-1.197c-1.6 0-2.517-1.142-2.517-3.108v-.015c0-1.873.917-2.938 2.517-2.938 1.601 0 2.518 1.065 2.518 2.938v.015c0 1.966-.917 3.108-2.518 3.108zm9.342 1.189c2.386 0 3.862-1.647 3.862-4.328v-.016c0-2.688-1.476-4.328-3.862-4.328-2.385 0-3.862 1.64-3.862 4.328v.016c0 2.681 1.477 4.328 3.862 4.328zm0-1.197c-1.585 0-2.479-1.157-2.479-3.131v-.016c0-1.981.894-3.131 2.479-3.131s2.479 1.15 2.479 3.131v.016c0 1.974-.894 3.131-2.479 3.131zm11.378-7.327h-6.776v1.119h2.712v7.257h1.352v-7.257h2.712zm-198.706 27.376h1.398v-11.212h-1.39l-2.985 2.144v1.477l2.852-2.067h.125zm7.04.078c.559 0 1.01-.458 1.01-1.01 0-.559-.451-1.01-1.01-1.01-.552 0-1.01.451-1.01 1.01 0 .552.458 1.01 1.01 1.01zm17.97-.078v-11.212h-8.796v11.212h1.398v-9.953h6v9.953zm6.008.148c1.974 0 3.17-1.119 3.458-2.253l.016-.063h-1.353l-.03.07c-.226.506-.925 1.042-2.06 1.042-1.492 0-2.447-1.01-2.486-2.743h6.03v-.529c0-2.502-1.384-4.196-3.66-4.196-2.277 0-3.753 1.772-3.753 4.36v.007c0 2.627 1.445 4.305 3.838 4.305zm-.093-7.467c1.235 0 2.152.785 2.292 2.44h-4.631c.148-1.593 1.096-2.44 2.339-2.44zm5.666 10.117h1.352v-4.119h.125c.458.894 1.46 1.469 2.61 1.469 2.13 0 3.513-1.702 3.513-4.328v-.016c0-2.61-1.391-4.328-3.512-4.328-1.166 0-2.098.552-2.611 1.484h-.125v-1.336h-1.351v11.174zm3.777-3.847c-1.523 0-2.456-1.196-2.456-3.131v-.016c0-1.934.933-3.131 2.456-3.131 1.53 0 2.44 1.181 2.44 3.131v.016c0 1.95-.91 3.131-2.44 3.131zm9.256 1.197c1.974 0 3.17-1.119 3.458-2.253l.015-.063h-1.352l-.03.07c-.226.506-.925 1.042-2.06 1.042-1.492 0-2.448-1.01-2.486-2.743h6.03v-.529c0-2.502-1.384-4.196-3.66-4.196-2.277 0-3.754 1.772-3.754 4.36v.007c0 2.627 1.446 4.305 3.839 4.305zm-.093-7.467c1.235 0 2.152.785 2.292 2.44h-4.631c.148-1.593 1.096-2.44 2.339-2.44zm9.147-2.223c1.601 0 2.666-1.103 2.666-2.548h-1.213c0 .847-.536 1.631-1.453 1.631-.901 0-1.453-.784-1.453-1.631h-1.212c0 1.445 1.065 2.548 2.665 2.548zm-3.489 9.542h1.353l4.141-6.247h.124v6.247h1.353v-8.376h-1.353l-4.141 6.247h-.124v-6.247h-1.353zm9.575 2.215v-2.215h6.55v2.215h1.26v-3.333h-1.337v-7.258h-5.711l-.326 4.67c-.078 1.127-.381 2.183-.995 2.588h-.7v3.333h1.26zm5.121-3.333h-4.118v-.125c.396-.52.614-1.414.691-2.432l.264-3.582h3.163zm4.19 1.118h1.352l4.142-6.247h.124v6.247h1.352v-8.376h-1.352l-4.142 6.247h-.124v-6.247h-1.352zm15.449-8.376h-6.775v1.119h2.711v7.257h1.353v-7.257h2.711zm4.812 8.524c1.974 0 3.17-1.119 3.458-2.253l.015-.063h-1.352l-.031.07c-.225.506-.924 1.042-2.059 1.042-1.492 0-2.448-1.01-2.486-2.743h6.029v-.529c0-2.502-1.383-4.196-3.659-4.196-2.277 0-3.753 1.772-3.753 4.36v.007c0 2.627 1.445 4.305 3.838 4.305zm-.093-7.467c1.235 0 2.152.785 2.292 2.44h-4.631c.148-1.593 1.096-2.44 2.339-2.44zm9.88 7.319h1.352v-7.257h4.071v7.257h1.352v-8.376h-6.775zm12.628.148c2.386 0 3.862-1.647 3.862-4.328v-.016c0-2.688-1.476-4.328-3.862-4.328-2.385 0-3.862 1.64-3.862 4.328v.016c0 2.681 1.477 4.328 3.862 4.328zm0-1.197c-1.585 0-2.478-1.157-2.478-3.131v-.016c0-1.981.893-3.131 2.478-3.131s2.479 1.15 2.479 3.131v.016c0 1.974-.894 3.131-2.479 3.131zm13.509 1.197c2.012 0 3.139-1.08 3.481-2.595l.016-.086-1.337.008-.016.047c-.31.932-1.025 1.429-2.152 1.429-1.492 0-2.455-1.235-2.455-3.162v-.016c0-1.888.948-3.1 2.455-3.1 1.204 0 1.95.668 2.16 1.492l.008.023h1.344l-.007-.046c-.249-1.492-1.469-2.666-3.505-2.666-2.347 0-3.839 1.694-3.839 4.297v.016c0 2.657 1.5 4.359 3.847 4.359zm8.805 0c2.013 0 3.14-1.08 3.482-2.595l.015-.086-1.336.008-.016.047c-.311.932-1.026 1.429-2.152 1.429-1.492 0-2.456-1.235-2.456-3.162v-.016c0-1.888.948-3.1 2.456-3.1 1.204 0 1.95.668 2.16 1.492l.008.023h1.344l-.008-.046c-.248-1.492-1.468-2.666-3.504-2.666-2.347 0-3.839 1.694-3.839 4.297v.016c0 2.657 1.5 4.359 3.846 4.359zm5.372-.148h2.991c1.92 0 3.147-1.103 3.147-2.836v-.015c0-1.733-1.227-2.836-3.147-2.836h-1.639v-2.689h-1.352zm7.599 0h1.352v-8.376h-1.352zm-4.608-4.569c1.096 0 1.795.676 1.795 1.718v.015c0 1.034-.691 1.718-1.795 1.718h-1.639v-3.451zm10.329 1.29.311-3.978h2.914v7.257h1.352v-8.376h-5.479l-.357 4.989c-.085 1.243-.396 2.214-1.165 2.214-.203 0-.412-.031-.482-.054v1.22c.109.039.326.085.614.085 1.398 0 2.113-1.049 2.292-3.357zm8.759-.536 3.279 3.815h1.733l-3.916-4.429 3.768-3.947h-1.624l-3.24 3.504h-.427v-3.504h-1.353v8.376h1.353v-3.815zm9.66 3.963c1.974 0 3.171-1.119 3.458-2.253l.016-.063h-1.352l-.031.07c-.226.506-.925 1.042-2.06 1.042-1.492 0-2.447-1.01-2.486-2.743h6.03v-.529c0-2.502-1.383-4.196-3.66-4.196s-3.753 1.772-3.753 4.36v.007c0 2.627 1.445 4.305 3.838 4.305zm-.093-7.467c1.236 0 2.152.785 2.292 2.44h-4.631c.148-1.593 1.096-2.44 2.339-2.44zm9.888 7.319h1.352v-4.957c0-1.469.847-2.37 2.183-2.37 1.337 0 1.958.723 1.958 2.23v5.097h1.352v-5.423c0-1.99-1.049-3.101-2.929-3.101-1.236 0-2.02.521-2.44 1.407h-.124v-4.585h-1.352zm12.014.063c.265 0 .521-.031.785-.078v-1.15a5.713 5.713 0 0 1 -.621.031c-.871 0-1.213-.396-1.213-1.383v-4.74h1.834v-1.119h-1.834v-2.168h-1.398v2.168h-1.321v1.119h1.321v5.082c0 1.6.722 2.238 2.447 2.238zm5.527 0c.264 0 .521-.031.785-.078v-1.15a5.73 5.73 0 0 1 -.622.031c-.87 0-1.212-.396-1.212-1.383v-4.74h1.834v-1.119h-1.834v-2.168h-1.399v2.168h-1.321v1.119h1.321v5.082c0 1.6.723 2.238 2.448 2.238zm2.55 2.735h1.352v-4.119h.125c.458.894 1.461 1.469 2.611 1.469 2.129 0 3.512-1.702 3.512-4.328v-.016c0-2.61-1.391-4.328-3.512-4.328-1.166 0-2.098.552-2.611 1.484h-.125v-1.336h-1.352zm3.777-3.847c-1.523 0-2.456-1.196-2.456-3.131v-.016c0-1.934.933-3.131 2.456-3.131 1.531 0 2.44 1.181 2.44 3.131v.016c0 1.95-.909 3.131-2.44 3.131zm8.557 1.197c1.904 0 3.357-1.033 3.357-2.525v-.016c0-1.196-.762-1.88-2.339-2.261l-1.29-.311c-.987-.241-1.407-.598-1.407-1.165v-.016c0-.738.731-1.251 1.725-1.251 1.011 0 1.663.458 1.842 1.119h1.329c-.187-1.368-1.407-2.246-3.163-2.246-1.779 0-3.116 1.049-3.116 2.44v.008c0 1.204.707 1.888 2.277 2.261l1.298.311c1.033.249 1.461.645 1.461 1.212v.016c0 .761-.801 1.297-1.928 1.297-1.072 0-1.74-.458-1.965-1.157h-1.384c.156 1.383 1.438 2.284 3.303 2.284zm6.303-6.084c.56 0 1.011-.459 1.011-1.01 0-.56-.451-1.01-1.011-1.01-.551 0-1.01.45-1.01 1.01 0 .551.459 1.01 1.01 1.01zm0 6.014c.56 0 1.011-.458 1.011-1.01 0-.559-.451-1.01-1.011-1.01-.551 0-1.01.451-1.01 1.01 0 .552.459 1.01 1.01 1.01zm6.949-11.78h-1.298l-3.543 14.5h1.298zm4.594 0h-1.298l-3.543 14.5h1.298zm3.988 11.765c.264 0 .521-.031.785-.078v-1.15a5.73 5.73 0 0 1 -.622.031c-.87 0-1.212-.396-1.212-1.383v-4.74h1.834v-1.119h-1.834v-2.168h-1.399v2.168h-1.321v1.119h1.321v5.082c0 1.6.723 2.238 2.448 2.238zm3.654.015c.559 0 1.01-.458 1.01-1.01 0-.559-.451-1.01-1.01-1.01-.552 0-1.01.451-1.01 1.01 0 .552.458 1.01 1.01 1.01zm3.366-.078h1.352v-5.19c0-1.181.832-2.137 1.927-2.137 1.057 0 1.741.645 1.741 1.64v5.687h1.352v-5.384c0-1.065.769-1.943 1.935-1.943 1.181 0 1.748.614 1.748 1.849v5.478h1.352v-5.789c0-1.756-.955-2.735-2.665-2.735-1.158 0-2.114.583-2.564 1.469h-.125c-.388-.87-1.181-1.469-2.315-1.469-1.096 0-1.888.521-2.261 1.422h-.125v-1.274h-1.352zm17.012.148c1.973 0 3.17-1.119 3.457-2.253l.016-.063h-1.352l-.031.07c-.226.506-.925 1.042-2.059 1.042-1.492 0-2.448-1.01-2.487-2.743h6.03v-.529c0-2.502-1.383-4.196-3.66-4.196s-3.753 1.772-3.753 4.36v.007c0 2.627 1.445 4.305 3.839 4.305zm-.094-7.467c1.236 0 2.153.785 2.293 2.44h-4.632c.148-1.593 1.096-2.44 2.339-2.44zm9.093-4.383h-1.297l-3.543 14.5h1.297zm1.183 11.702h1.399v-4.436h2.758l2.402 4.436h1.639l-2.595-4.654c1.406-.443 2.253-1.655 2.253-3.209v-.016c0-2.012-1.414-3.333-3.574-3.333h-4.282zm1.399-5.68v-4.289h2.696c1.446 0 2.316.8 2.316 2.137v.015c0 1.368-.816 2.137-2.254 2.137zm11.782 5.828c2.385 0 3.862-1.647 3.862-4.328v-.016c0-2.688-1.477-4.328-3.862-4.328-2.386 0-3.862 1.64-3.862 4.328v.016c0 2.681 1.476 4.328 3.862 4.328zm0-1.197c-1.585 0-2.479-1.157-2.479-3.131v-.016c0-1.981.894-3.131 2.479-3.131s2.478 1.15 2.478 3.131v.016c0 1.974-.893 3.131-2.478 3.131zm5.783 1.049h1.352v-3.178l.785-.761 3.139 3.939h1.702l-3.893-4.856 3.652-3.52h-1.64l-3.621 3.66h-.124v-6.986h-1.352zm7.049 2.036h9.286v-1.259h-9.286zm14.463-1.888c2.121 0 3.512-1.717 3.512-4.328v-.016c0-2.626-1.383-4.328-3.512-4.328-1.15 0-2.153.575-2.611 1.469h-.124v-4.647h-1.352v11.702h1.352v-1.336h.124c.513.932 1.445 1.484 2.611 1.484zm-.311-1.197c-1.523 0-2.456-1.196-2.456-3.131v-.016c0-1.934.933-3.131 2.456-3.131 1.531 0 2.44 1.181 2.44 3.131v.016c0 1.95-.909 3.131-2.44 3.131zm9.109 1.197c2.385 0 3.862-1.647 3.862-4.328v-.016c0-2.688-1.477-4.328-3.862-4.328-2.386 0-3.862 1.64-3.862 4.328v.016c0 2.681 1.476 4.328 3.862 4.328zm0-1.197c-1.586 0-2.479-1.157-2.479-3.131v-.016c0-1.981.893-3.131 2.479-3.131 1.585 0 2.478 1.15 2.478 3.131v.016c0 1.974-.893 3.131-2.478 3.131zm8.681 1.112c.264 0 .521-.031.785-.078v-1.15a5.73 5.73 0 0 1 -.622.031c-.87 0-1.212-.396-1.212-1.383v-4.74h1.834v-1.119h-1.834v-2.168h-1.399v2.168h-1.321v1.119h1.321v5.082c0 1.6.723 2.238 2.448 2.238zm-336.184 18.937h7.08v-1.258h-5.145v-.14l2.456-2.619c1.966-2.09 2.51-3.023 2.51-4.305v-.015c0-1.811-1.461-3.139-3.38-3.139-2.09 0-3.59 1.429-3.598 3.419l.008.007 1.336.008.008-.015c0-1.321.862-2.199 2.152-2.199 1.274 0 2.044.885 2.044 2.066v.016c0 .979-.404 1.562-1.803 3.108l-3.668 4.103zm10.825.078c.559 0 1.01-.458 1.01-1.01 0-.559-.451-1.01-1.01-1.01-.552 0-1.01.451-1.01 1.01 0 .552.458 1.01 1.01 1.01zm9.174-.078h1.398v-5.105h6.154v5.105h1.4v-11.212h-1.4v4.848h-6.154v-4.848h-1.398zm13.84.148c1.127 0 2.005-.489 2.534-1.383h.124v1.235h1.352v-5.734c0-1.741-1.142-2.79-3.186-2.79-1.787 0-3.061.886-3.279 2.199l-.008.047h1.352l.008-.023c.218-.653.878-1.026 1.88-1.026 1.252 0 1.881.559 1.881 1.593v.761l-2.401.148c-1.95.117-3.054.979-3.054 2.471v.016c0 1.523 1.205 2.486 2.798 2.486zm-1.414-2.518v-.015c0-.832.56-1.282 1.834-1.36l2.238-.14v.762c0 1.196-1.002 2.098-2.378 2.098-.971 0-1.694-.498-1.694-1.345zm8.534 2.37 3.007-3.838h.498v3.838h1.305v-3.838h.497l3.007 3.838h1.694l-3.636-4.444 3.465-3.932h-1.6l-2.93 3.528h-.497v-3.528h-1.305v3.528h-.498l-2.93-3.528h-1.623l3.489 3.963-3.614 4.413zm12.846 0v-5.959h.148l2.634 5.726h1.041l2.642-5.726h.148v5.959h1.352v-8.376h-1.57l-2.999 6.496h-.124l-2.984-6.496h-1.64v8.376zm10.376 0h1.352l4.141-6.247h.125v6.247h1.352v-8.376h-1.352l-4.142 6.247h-.124v-6.247h-1.352zm15.449-8.376h-6.776v1.119h2.712v7.257h1.352v-7.257h2.712zm4.812 8.524c1.973 0 3.17-1.119 3.457-2.253l.016-.063h-1.352l-.031.07c-.226.506-.925 1.042-2.059 1.042-1.492 0-2.448-1.01-2.487-2.743h6.03v-.529c0-2.502-1.383-4.196-3.66-4.196s-3.753 1.772-3.753 4.36v.007c0 2.627 1.445 4.305 3.839 4.305zm-.094-7.467c1.236 0 2.153.785 2.293 2.44h-4.632c.148-1.593 1.096-2.44 2.339-2.44zm12.025-3.893h-1.003l-1.22 4.421h1.547zm2.58 0h-1.003l-1.22 4.421h1.546zm4.228 6.115h1.578c1.694 0 2.665.777 2.665 2.028v.016c0 1.204-1.041 2.028-2.611 2.028-1.507 0-2.556-.692-2.696-1.834l-.008-.062h-1.383l.008.093c.155 1.888 1.779 3.093 4.095 3.093 2.253 0 4.025-1.43 4.025-3.279v-.016c0-1.601-1.057-2.603-2.487-2.751v-.124c1.244-.303 2.091-1.337 2.091-2.557v-.015c0-1.748-1.492-2.999-3.598-2.999-2.176 0-3.613 1.142-3.808 2.991l-.015.148h1.383l.008-.062c.14-1.127 1.025-1.788 2.377-1.788 1.407 0 2.223.715 2.223 1.819v.015c0 1.174-.909 1.997-2.331 1.997h-1.516zm9.909 5.245c1.127 0 2.005-.489 2.534-1.383h.124v1.235h1.352v-5.734c0-1.741-1.142-2.79-3.186-2.79-1.787 0-3.061.886-3.279 2.199l-.008.047h1.352l.008-.023c.218-.653.878-1.026 1.88-1.026 1.252 0 1.881.559 1.881 1.593v.761l-2.401.148c-1.95.117-3.054.979-3.054 2.471v.016c0 1.523 1.205 2.486 2.797 2.486zm-1.414-2.518v-.015c0-.832.56-1.282 1.834-1.36l2.238-.14v.762c0 1.196-1.002 2.098-2.378 2.098-.971 0-1.694-.498-1.694-1.345zm7.788 2.37h1.352v-7.257h4.072v7.257h1.352v-8.376h-6.776zm9.901 2.938c1.484 0 2.176-.544 2.868-2.425l3.271-8.889h-1.422l-2.292 6.892h-.125l-2.3-6.892h-1.445l3.1 8.384-.155.498c-.303.963-.769 1.313-1.539 1.313-.186 0-.396-.008-.559-.039v1.111c.186.031.42.047.598.047zm10.943-2.79c2.012 0 3.139-1.08 3.481-2.595l.015-.086-1.336.008-.016.047c-.31.932-1.025 1.429-2.152 1.429-1.492 0-2.455-1.235-2.455-3.162v-.016c0-1.888.948-3.1 2.455-3.1 1.204 0 1.95.668 2.16 1.492l.008.023h1.344l-.008-.046c-.248-1.492-1.468-2.666-3.504-2.666-2.347 0-3.839 1.694-3.839 4.297v.016c0 2.657 1.5 4.359 3.847 4.359zm11.051-8.524h-6.776v1.119h2.712v7.257h1.352v-7.257h2.712zm1.696 8.376h1.352l4.141-6.247h.125v6.247h1.352v-8.376h-1.352l-4.142 6.247h-.124v-6.247h-1.352zm15.449-8.376h-6.776v1.119h2.712v7.257h1.352v-7.257h2.712zm1.696 8.376h2.991c1.92 0 3.147-1.103 3.147-2.836v-.015c0-1.733-1.227-2.836-3.147-2.836h-1.639v-2.689h-1.352zm2.991-4.569c1.096 0 1.795.676 1.795 1.718v.015c0 1.034-.691 1.718-1.795 1.718h-1.639v-3.451zm4.431-2.222h1.003l1.22-4.421h-1.547zm2.58 0h1.003l1.219-4.421h-1.546zm-176.674 26.978c2.2 0 3.808-1.383 3.808-3.256v-.015c0-1.593-1.08-2.611-2.666-2.751v-.031c1.352-.295 2.308-1.243 2.308-2.627v-.015c0-1.702-1.375-2.891-3.465-2.891-2.052 0-3.458 1.22-3.637 3.046l-.008.078h1.345l.007-.078c.11-1.134 1.018-1.834 2.293-1.834 1.32 0 2.067.676 2.067 1.85v.015c0 1.119-.902 1.943-2.2 1.943h-1.297v1.181h1.36c1.515 0 2.47.769 2.47 2.145v.015c0 1.189-.963 2.013-2.385 2.013-1.437 0-2.416-.762-2.525-1.865l-.008-.078h-1.344l.008.093c.14 1.772 1.608 3.062 3.87 3.062zm7.297-.109c.559 0 1.01-.458 1.01-1.01 0-.559-.451-1.01-1.01-1.01-.552 0-1.01.451-1.01 1.01 0 .552.458 1.01 1.01 1.01zm9.174-.078h1.398v-5.105h6.154v5.105h1.4v-11.212h-1.4v4.848h-6.154v-4.848h-1.398zm13.84.148c1.127 0 2.005-.489 2.534-1.383h.124v1.235h1.352v-5.734c0-1.741-1.142-2.79-3.186-2.79-1.787 0-3.061.886-3.279 2.199l-.008.047h1.352l.008-.023c.218-.653.878-1.026 1.88-1.026 1.252 0 1.881.559 1.881 1.593v.761l-2.401.148c-1.95.117-3.054.979-3.054 2.471v.016c0 1.523 1.205 2.486 2.798 2.486zm-1.414-2.518v-.015c0-.832.56-1.282 1.834-1.36l2.238-.14v.762c0 1.196-1.002 2.098-2.378 2.098-.971 0-1.694-.498-1.694-1.345zm8.534 2.37 3.007-3.838h.498v3.838h1.305v-3.838h.497l3.007 3.838h1.694l-3.636-4.444 3.465-3.932h-1.6l-2.93 3.528h-.497v-3.528h-1.305v3.528h-.498l-2.93-3.528h-1.623l3.489 3.963-3.614 4.413zm12.846 0v-5.959h.148l2.634 5.726h1.041l2.642-5.726h.148v5.959h1.352v-8.376h-1.57l-2.999 6.496h-.124l-2.984-6.496h-1.64v8.376zm10.376 0h1.352l4.141-6.247h.125v6.247h1.352v-8.376h-1.352l-4.142 6.247h-.124v-6.247h-1.352zm15.449-8.376h-6.776v1.119h2.712v7.257h1.352v-7.257h2.712zm4.812 8.524c1.973 0 3.17-1.119 3.457-2.253l.016-.063h-1.352l-.031.07c-.226.506-.925 1.042-2.059 1.042-1.492 0-2.448-1.01-2.487-2.743h6.03v-.529c0-2.502-1.383-4.196-3.66-4.196s-3.753 1.772-3.753 4.36v.007c0 2.627 1.445 4.305 3.839 4.305zm-.094-7.467c1.236 0 2.153.785 2.293 2.44h-4.632c.148-1.593 1.096-2.44 2.339-2.44zm15.382 7.319h1.352v-8.376h-1.352v3.466h-4.15v-3.466h-1.352v8.376h1.352v-3.792h4.15zm6.062.148c1.127 0 2.005-.489 2.533-1.383h.125v1.235h1.352v-5.734c0-1.741-1.142-2.79-3.186-2.79-1.787 0-3.062.886-3.279 2.199l-.008.047h1.352l.008-.023c.217-.653.878-1.026 1.88-1.026 1.251 0 1.881.559 1.881 1.593v.761l-2.401.148c-1.951.117-3.054.979-3.054 2.471v.016c0 1.523 1.204 2.486 2.797 2.486zm-1.414-2.518v-.015c0-.832.56-1.282 1.834-1.36l2.238-.14v.762c0 1.196-1.003 2.098-2.378 2.098-.971 0-1.694-.498-1.694-1.345zm13.788-1.445 3.279 3.815h1.733l-3.916-4.429 3.769-3.947h-1.624l-3.241 3.504h-.427v-3.504h-1.352v8.376h1.352v-3.815zm8.433.536.311-3.978h2.914v7.257h1.352v-8.376h-5.478l-.358 4.989c-.085 1.243-.396 2.214-1.165 2.214-.202 0-.412-.031-.482-.054v1.22c.109.039.326.085.614.085 1.398 0 2.113-1.049 2.292-3.357zm9.287 3.427c1.127 0 2.005-.489 2.534-1.383h.124v1.235h1.352v-5.734c0-1.741-1.142-2.79-3.186-2.79-1.787 0-3.061.886-3.279 2.199l-.008.047h1.352l.008-.023c.218-.653.878-1.026 1.88-1.026 1.251 0 1.881.559 1.881 1.593v.761l-2.401.148c-1.951.117-3.054.979-3.054 2.471v.016c0 1.523 1.204 2.486 2.797 2.486zm-1.414-2.518v-.015c0-.832.56-1.282 1.834-1.36l2.238-.14v.762c0 1.196-1.003 2.098-2.378 2.098-.971 0-1.694-.498-1.694-1.345zm7.788 2.37h3.567c1.802 0 2.867-.948 2.867-2.401v-.015c0-.971-.676-1.717-1.741-1.865v-.124c.785-.164 1.368-.948 1.368-1.78v-.015c0-1.314-.925-2.176-2.51-2.176h-3.551zm1.352-4.833v-2.424h2.005c.94 0 1.36.482 1.36 1.197v.015c0 .793-.49 1.212-1.578 1.212zm0 3.715v-2.596h1.904c1.204 0 1.802.389 1.802 1.275v.015c0 .839-.52 1.306-1.546 1.306zm7.112 1.118h1.352l4.141-6.247h.125v6.247h1.352v-8.376h-1.352l-4.142 6.247h-.124v-6.247h-1.352zm11.688.148c1.127 0 2.005-.489 2.533-1.383h.125v1.235h1.352v-5.734c0-1.741-1.143-2.79-3.186-2.79-1.787 0-3.062.886-3.279 2.199l-.008.047h1.352l.008-.023c.217-.653.878-1.026 1.88-1.026 1.251 0 1.881.559 1.881 1.593v.761l-2.401.148c-1.951.117-3.054.979-3.054 2.471v.016c0 1.523 1.204 2.486 2.797 2.486zm-1.414-2.518v-.015c0-.832.559-1.282 1.834-1.36l2.238-.14v.762c0 1.196-1.003 2.098-2.378 2.098-.971 0-1.694-.498-1.694-1.345zm13.856-6.006h-6.775v1.119h2.711v7.257h1.352v-7.257h2.712zm2.419 11.314c1.484 0 2.175-.544 2.867-2.425l3.271-8.889h-1.422l-2.292 6.892h-.124l-2.3-6.892h-1.446l3.101 8.384-.156.498c-.303.963-.769 1.313-1.538 1.313-.187 0-.396-.008-.56-.039v1.111c.187.031.42.047.599.047zm7.826-.14h1.352v-4.119h.125c.458.894 1.461 1.469 2.611 1.469 2.129 0 3.512-1.702 3.512-4.328v-.016c0-2.61-1.391-4.328-3.512-4.328-1.166 0-2.098.552-2.611 1.484h-.125v-1.336h-1.352zm3.777-3.847c-1.523 0-2.456-1.196-2.456-3.131v-.016c0-1.934.933-3.131 2.456-3.131 1.53 0 2.44 1.181 2.44 3.131v.016c0 1.95-.91 3.131-2.44 3.131zm9.256 1.197c1.974 0 3.17-1.119 3.458-2.253l.015-.063h-1.352l-.031.07c-.225.506-.924 1.042-2.059 1.042-1.492 0-2.448-1.01-2.486-2.743h6.029v-.529c0-2.502-1.383-4.196-3.659-4.196-2.277 0-3.754 1.772-3.754 4.36v.007c0 2.627 1.446 4.305 3.839 4.305zm-.093-7.467c1.235 0 2.152.785 2.292 2.44h-4.631c.148-1.593 1.096-2.44 2.339-2.44zm9.88 7.319h3.566c1.803 0 2.867-.948 2.867-2.401v-.015c0-.971-.676-1.717-1.74-1.865v-.124c.785-.164 1.367-.948 1.367-1.78v-.015c0-1.314-.924-2.176-2.509-2.176h-3.551zm1.352-4.833v-2.424h2.004c.941 0 1.36.482 1.36 1.197v.015c0 .793-.489 1.212-1.577 1.212zm0 3.715v-2.596h1.903c1.205 0 1.803.389 1.803 1.275v.015c0 .839-.521 1.306-1.546 1.306zm17.401-7.258h-6.776v1.119h2.712v7.257h1.352v-7.257h2.712zm4.812 8.524c1.973 0 3.17-1.119 3.458-2.253l.015-.063h-1.352l-.031.07c-.225.506-.925 1.042-2.059 1.042-1.492 0-2.448-1.01-2.487-2.743h6.03v-.529c0-2.502-1.383-4.196-3.66-4.196-2.276 0-3.753 1.772-3.753 4.36v.007c0 2.627 1.446 4.305 3.839 4.305zm-.093-7.467c1.235 0 2.152.785 2.292 2.44h-4.631c.147-1.593 1.095-2.44 2.339-2.44zm7.391 4.04.311-3.978h2.914v7.257h1.352v-8.376h-5.478l-.358 4.989c-.085 1.243-.396 2.214-1.165 2.214-.202 0-.412-.031-.482-.054v1.22c.109.039.326.085.614.085 1.398 0 2.113-1.049 2.292-3.357zm10.406 3.427c1.974 0 3.171-1.119 3.458-2.253l.016-.063h-1.352l-.031.07c-.226.506-.925 1.042-2.06 1.042-1.491 0-2.447-1.01-2.486-2.743h6.03v-.529c0-2.502-1.383-4.196-3.66-4.196s-3.753 1.772-3.753 4.36v.007c0 2.627 1.445 4.305 3.838 4.305zm-.093-7.467c1.236 0 2.153.785 2.292 2.44h-4.631c.148-1.593 1.096-2.44 2.339-2.44zm11.02.062v-1.119h-5.361v8.376h1.352v-7.257zm1.789 10.055h1.352v-4.119h.125c.458.894 1.461 1.469 2.611 1.469 2.129 0 3.512-1.702 3.512-4.328v-.016c0-2.61-1.391-4.328-3.512-4.328-1.166 0-2.098.552-2.611 1.484h-.125v-1.336h-1.352zm3.777-3.847c-1.523 0-2.456-1.196-2.456-3.131v-.016c0-1.934.933-3.131 2.456-3.131 1.53 0 2.44 1.181 2.44 3.131v.016c0 1.95-.91 3.131-2.44 3.131zm8.137 1.197c1.127 0 2.005-.489 2.533-1.383h.125v1.235h1.352v-5.734c0-1.741-1.143-2.79-3.186-2.79-1.787 0-3.062.886-3.279 2.199l-.008.047h1.352l.008-.023c.217-.653.878-1.026 1.88-1.026 1.251 0 1.881.559 1.881 1.593v.761l-2.401.148c-1.951.117-3.054.979-3.054 2.471v.016c0 1.523 1.204 2.486 2.797 2.486zm-1.414-2.518v-.015c0-.832.559-1.282 1.834-1.36l2.238-.14v.762c0 1.196-1.003 2.098-2.378 2.098-.971 0-1.694-.498-1.694-1.345zm9.14 2.37v-5.959h.147l2.634 5.726h1.042l2.642-5.726h.147v5.959h1.352v-8.376h-1.569l-3 6.496h-.124l-2.984-6.496h-1.639v8.376zm13.802.148c1.973 0 3.17-1.119 3.458-2.253l.015-.063h-1.352l-.031.07c-.225.506-.925 1.042-2.059 1.042-1.492 0-2.448-1.01-2.487-2.743h6.03v-.529c0-2.502-1.383-4.196-3.66-4.196-2.276 0-3.753 1.772-3.753 4.36v.007c0 2.627 1.445 4.305 3.839 4.305zm-.094-7.467c1.236 0 2.153.785 2.293 2.44h-4.631c.147-1.593 1.095-2.44 2.338-2.44zm-273.287 15.107h-1.003l-1.22 4.421h1.547zm2.58 0h-1.003l-1.22 4.421h1.546l.676-4.421zm7.212 11.477c3.202 0 5.144-2.293 5.144-5.867v-.016c0-3.589-1.958-5.858-5.144-5.858-3.17 0-5.144 2.261-5.144 5.858v.016c0 3.582 1.927 5.867 5.144 5.867zm0-1.29c-2.331 0-3.714-1.803-3.714-4.577v-.016c0-2.797 1.43-4.569 3.714-4.569 2.292 0 3.714 1.772 3.714 4.569v.016c0 2.774-1.414 4.577-3.714 4.577zm13.36-7.351h-6.777v1.119h2.712v7.257h1.352v-7.257h2.712v-1.119zm1.695 8.376h1.352v-7.257h4.072v7.257h1.352v-8.376h-6.776zm9.186 2.798h1.352v-4.119h.125c.458.894 1.46 1.469 2.61 1.469 2.13 0 3.513-1.702 3.513-4.328v-.016c0-2.61-1.391-4.328-3.512-4.328-1.166 0-2.098.552-2.611 1.484h-.125v-1.336h-1.352zm3.777-3.847c-1.523 0-2.456-1.196-2.456-3.131v-.016c0-1.934.933-3.131 2.456-3.131 1.53 0 2.44 1.181 2.44 3.131v.016c0 1.95-.91 3.131-2.44 3.131zm8.137 1.197c1.127 0 2.005-.489 2.533-1.383h.125v1.235h1.352v-5.734c0-1.741-1.143-2.79-3.186-2.79-1.787 0-3.062.886-3.28 2.199l-.007.047h1.352l.008-.023c.217-.653.878-1.026 1.88-1.026 1.251 0 1.88.559 1.88 1.593v.761l-2.4.148c-1.95.117-3.054.979-3.054 2.471v.016c0 1.523 1.204 2.486 2.797 2.486zm-1.414-2.518v-.015c0-.832.56-1.282 1.834-1.36l2.238-.14v.762c0 1.196-1.003 2.098-2.378 2.098-.971 0-1.694-.498-1.694-1.345zm7.788 2.37h3.566c1.803 0 2.868-.948 2.868-2.401v-.015c0-.971-.676-1.717-1.741-1.865v-.124c.785-.164 1.368-.948 1.368-1.78v-.015c0-1.314-.925-2.176-2.51-2.176h-3.551zm1.352-4.833v-2.424h2.005c.94 0 1.359.482 1.359 1.197v.015c0 .793-.489 1.212-1.577 1.212h-1.788zm0 3.715v-2.596h1.903c1.205 0 1.803.389 1.803 1.275v.015c0 .839-.52 1.306-1.546 1.306zm7.111 1.118h1.352l4.142-6.247h.124v6.247h1.352v-8.376h-1.352l-4.141 6.247h-.125v-6.247h-1.352zm15.45-8.376h-6.776v1.119h2.712v7.257h1.352v-7.257h2.712zm1.696 8.376h2.991c1.919 0 3.147-1.103 3.147-2.836v-.015c0-1.733-1.228-2.836-3.147-2.836h-1.639v-2.689h-1.352zm2.991-4.569c1.096 0 1.795.676 1.795 1.718v.015c0 1.034-.691 1.718-1.795 1.718h-1.639v-3.451zm14.698 4.569h1.352v-8.376h-1.352v3.466h-4.15v-3.466h-1.352v8.376h1.352v-3.792h4.15zm7.204.148c2.386 0 3.862-1.647 3.862-4.328v-.016c0-2.688-1.476-4.328-3.862-4.328-2.385 0-3.861 1.64-3.861 4.328v.016c0 2.681 1.476 4.328 3.861 4.328zm0-1.197c-1.585 0-2.478-1.157-2.478-3.131v-.016c0-1.981.893-3.131 2.478-3.131 1.586 0 2.479 1.15 2.479 3.131v.016c0 1.974-.893 3.131-2.479 3.131zm7.205 1.049v-5.959h.148l2.634 5.726h1.041l2.642-5.726h.148v5.959h1.352v-8.376h-1.57l-2.999 6.496h-.124l-2.984-6.496h-1.64v8.376zm13.802.148c1.974 0 3.171-1.119 3.458-2.253l.016-.063h-1.352l-.031.07c-.226.506-.925 1.042-2.059 1.042-1.492 0-2.448-1.01-2.487-2.743h6.03v-.529c0-2.502-1.383-4.196-3.66-4.196s-3.753 1.772-3.753 4.36v.007c0 2.627 1.445 4.305 3.838 4.305zm-.093-7.467c1.236 0 2.153.785 2.292 2.44h-4.631c.148-1.593 1.096-2.44 2.339-2.44zm5.667 10.117h1.352v-4.119h.124c.458.894 1.461 1.469 2.611 1.469 2.129 0 3.512-1.702 3.512-4.328v-.016c0-2.61-1.391-4.328-3.512-4.328-1.166 0-2.098.552-2.611 1.484h-.124v-1.336h-1.352zm3.776-3.847c-1.523 0-2.455-1.196-2.455-3.131v-.016c0-1.934.932-3.131 2.455-3.131 1.531 0 2.44 1.181 2.44 3.131v.016c0 1.95-.909 3.131-2.44 3.131zm5.752-5.742h1.002l1.22-4.421h-1.546zm2.58 0h1.002l1.22-4.421h-1.546zm24.942-48.334h149.057v.933h-149.057zm-189.626-69.3c2.3 0 3.645-1.336 3.645-3.605v-7.888h-2.005v7.871c0 1.212-.575 1.865-1.655 1.865-.995 0-1.523-.645-1.578-1.508l-.007-.054h-1.959l.008.086c.078 1.919 1.376 3.232 3.551 3.232zm8.192-.14c1.12 0 2.02-.481 2.487-1.305h.132v1.165h1.911v-5.803c0-1.795-1.227-2.852-3.41-2.852-2.021 0-3.389.948-3.575 2.378l-.008.07h1.825l.008-.031c.194-.56.769-.878 1.655-.878 1.041 0 1.593.466 1.593 1.313v.73l-2.184.132c-2.067.125-3.224 1.01-3.224 2.526v.015c0 1.547 1.173 2.541 2.79 2.541zm-.878-2.633v-.015c0-.7.505-1.096 1.585-1.166l1.912-.124v.683c0 1.01-.863 1.772-2.028 1.772-.855 0-1.469-.427-1.469-1.15zm11.121 2.665c2.153 0 3.404-1.157 3.683-2.898l.016-.062-1.826.008-.016.03c-.24.894-.854 1.353-1.857 1.353-1.313 0-2.098-1.057-2.098-2.86v-.015c0-1.78.777-2.821 2.098-2.821 1.057 0 1.686.59 1.865 1.414l.008.023h1.826v-.03c-.218-1.757-1.523-2.969-3.706-2.969-2.557 0-4.057 1.64-4.057 4.383v.015c0 2.774 1.508 4.43 4.064 4.43zm5.364-.17h1.934v-2.985l.677-.691 2.727 3.675h2.331l-3.652-4.903 3.419-3.59h-2.238l-3.131 3.481h-.133v-6.767h-1.934zm13.089 0h1.81v-7.975h.132l3.108 7.972h1.368l3.108-7.972h.14v7.972h1.803v-11.211h-2.3l-3.365 8.625h-.132l-3.372-8.625h-2.3v11.212zm14.773-9.916c.63 0 1.15-.505 1.15-1.142 0-.63-.52-1.142-1.15-1.142-.637 0-1.158.513-1.158 1.142 0 .637.52 1.142 1.158 1.142zm-.971 9.915h1.934v-8.494h-1.934v8.493zm4.135 0h1.935v-11.78h-1.935zm7.47.04c.372 0 .73-.032 1.01-.086v-1.492a5.66 5.66 0 0 1 -.653.03c-.808 0-1.142-.357-1.142-1.204v-4.282h1.795v-1.5h-1.795v-2.082h-1.966v2.082h-1.321v1.5h1.32v4.74c0 1.64.801 2.292 2.751 2.292zm6.272.131c2.54 0 4.087-1.663 4.087-4.413v-.016c0-2.735-1.554-4.398-4.087-4.398-2.525 0-4.087 1.67-4.087 4.398v.016c0 2.75 1.538 4.413 4.087 4.413zm0-1.57c-1.344 0-2.114-1.048-2.114-2.835v-.016c0-1.787.77-2.844 2.114-2.844 1.336 0 2.106 1.057 2.106 2.844v.016c0 1.787-.762 2.836-2.106 2.836zm5.775 1.4h1.935v-4.95c0-1.275.715-2.083 1.865-2.083 1.173 0 1.709.668 1.709 1.99v5.042h1.935v-5.494c0-2.02-1.033-3.163-2.929-3.163-1.228 0-2.044.552-2.448 1.461h-.132v-1.298h-1.935v8.493z" fill="#000"/><path d="m338.464 26.73h1.171v-4.296c0-1.273.734-2.054 1.893-2.054 1.158 0 1.697.626 1.697 1.933v4.418h1.172v-4.701c0-1.724-.91-2.687-2.539-2.687-1.071 0-1.751.451-2.115 1.219h-.108v-1.092h-1.171zm10.954.128c2.068 0 3.347-1.427 3.347-3.75v-.014c0-2.33-1.279-3.751-3.347-3.751-2.067 0-3.346 1.42-3.346 3.75v.014c0 2.324 1.279 3.751 3.346 3.751zm0-1.037c-1.373 0-2.148-1.003-2.148-2.714v-.013c0-1.717.775-2.714 2.148-2.714 1.374 0 2.149.997 2.149 2.714v.013c0 1.71-.775 2.714-2.149 2.714zm6.214.91h1.172l1.616-5.617h.108l1.623 5.616h1.179l2.033-7.26h-1.165l-1.427 5.806h-.108l-1.623-5.805h-1.111l-1.623 5.805h-.108l-1.428-5.805h-1.171zm-317.262-2.121h1.132v-7.422h.074l3.071 7.421h1.024l3.07-7.42h.075v7.42h1.13v-9.717h-1.406l-3.327 8.108h-.108l-3.327-8.108h-1.407v9.717zm11.972 0h6.02v-1.092h-4.807v-3.34h4.559v-1.077h-4.56v-3.118h4.809v-1.091h-6.02v9.717zm11.319.228c2.168 0 3.59-1.131 3.59-2.95v-.006c0-1.4-.802-2.216-2.83-2.667l-1.077-.242c-1.32-.29-1.852-.815-1.852-1.59v-.006c0-1.017.937-1.59 2.149-1.596 1.266-.007 2.074.626 2.209 1.481l.013.088h1.212l-.007-.095c-.1-1.447-1.454-2.592-3.394-2.592-2.007 0-3.414 1.138-3.42 2.747v.007c0 1.408.841 2.303 2.787 2.734l1.078.236c1.333.296 1.892.848 1.892 1.657v.006c0 .99-.963 1.67-2.283 1.67-1.4 0-2.41-.612-2.498-1.582l-.007-.074h-1.212l.007.074c.141 1.582 1.515 2.7 3.643 2.7zm8.712 0c2.169 0 3.59-1.131 3.59-2.95v-.006c0-1.4-.802-2.216-2.829-2.667l-1.077-.242c-1.32-.29-1.852-.815-1.852-1.59v-.006c0-1.017.936-1.59 2.148-1.596 1.266-.007 2.074.626 2.209 1.481l.013.088h1.212l-.006-.095c-.101-1.447-1.455-2.592-3.394-2.592-2.007 0-3.415 1.138-3.421 2.747v.007c0 1.408.841 2.303 2.788 2.734l1.077.236c1.334.296 1.892.848 1.892 1.657v.006c0 .99-.963 1.67-2.282 1.67-1.401 0-2.411-.612-2.499-1.582l-.007-.074h-1.212l.007.074c.141 1.582 1.515 2.7 3.643 2.7zm4.753-.229h1.272l.977-2.78h3.865l.977 2.78h1.273l-3.583-9.717h-1.199zm4.128-8.148h.108l1.522 4.337h-3.152zm9.412 8.377c2.486 0 4.129-1.589 4.129-3.986v-1.186h-3.94v1.064h2.727v.236c0 1.643-1.171 2.754-2.909 2.754-1.953 0-3.172-1.521-3.172-3.966v-.014c0-2.41 1.24-3.96 3.165-3.96 1.448 0 2.425.688 2.822 1.94l.02.068h1.226l-.013-.068c-.384-1.845-1.9-3.057-4.055-3.057-2.66 0-4.404 2.013-4.404 5.077v.014c0 3.104 1.718 5.084 4.404 5.084zm6.194-.229h6.021v-1.09h-4.809v-3.34h4.559v-1.079h-4.559v-3.118h4.809v-1.091h-6.02v9.717zm11.319.23c2.168 0 3.589-1.132 3.589-2.95v-.007c0-1.4-.801-2.216-2.828-2.667l-1.078-.242c-1.32-.29-1.852-.815-1.852-1.59v-.006c0-1.017.936-1.59 2.148-1.596 1.266-.007 2.075.626 2.209 1.481l.014.088h1.212l-.007-.095c-.101-1.447-1.454-2.592-3.394-2.592-2.007 0-3.414 1.138-3.421 2.747v.007c0 1.408.842 2.303 2.788 2.734l1.078.236c1.333.296 1.892.848 1.892 1.657v.006c0 .99-.963 1.67-2.283 1.67-1.401 0-2.411-.612-2.498-1.582l-.007-.074h-1.212l.006.074c.142 1.582 1.516 2.7 3.644 2.7z" fill="#8a8a8f"/><g clip-rule="evenodd" fill-rule="evenodd"><path d="m22.309 8.486c2.13 0 3.195 0 4.342.363a4.506 4.506 0 0 1 2.693 2.693c.363 1.147.363 2.212.363 4.342v6.423c0 2.13 0 3.195-.363 4.342a4.506 4.506 0 0 1 -2.693 2.693c-1.147.363-2.212.363-4.342.363h-6.423c-2.13 0-3.195 0-4.342-.363a4.506 4.506 0 0 1 -2.693-2.693c-.363-1.147-.363-2.212-.363-4.342v-6.423c0-2.13 0-3.195.363-4.342a4.506 4.506 0 0 1 2.693-2.693c1.147-.363 2.212-.363 4.342-.363z" fill="url(#a)"/><path d="m26.877 18.83c0 3.565-3.483 6.455-7.78 6.455a9.375 9.375 0 0 1 -1.53-.125c-.426-.04-.682 0-1.121.136-.164.051-.356.154-.575.27-.492.264-1.124.602-1.902.602-.014 0 .035-.049.12-.132.278-.276.941-.933.941-1.46v-.242c-2.227-1.135-3.713-3.175-3.713-5.503 0-3.564 3.483-6.454 7.78-6.454s7.78 2.89 7.78 6.454z" fill="#fff"/></g></g></svg>