<svg fill="none" height="79" viewBox="0 0 140 79" width="140" xmlns="http://www.w3.org/2000/svg"><path d="m139.354 7.64645c.195.19526.195.51184 0 .7071l-3.182 3.18195c-.196.1953-.512.1953-.708 0-.195-.1952-.195-.5118 0-.7071l2.829-2.8284-2.829-2.82843c-.195-.19526-.195-.51184 0-.70711.196-.19526.512-.19526.708 0zm-137.854 70.35355c0 .2761-.22386.5-.5.5-.276142 0-.5-.2239-.5-.5zm-1-8.5c0-.2761.223858-.5.5-.5.27614 0 .5.2239.5.5zm1-17c0 .2761-.22386.5-.5.5-.276142 0-.5-.2239-.5-.5zm-.30527-15.6229c.05359-.2709.31664-.447.58753-.3934s.44705.3166.39346.5875zm6.2844-12.6011c-.15362.2295-.46418.2909-.69364.1373-.22947-.1536-.29095-.4642-.13733-.6936zm9.24057-10.6278c.2294-.1537.54-.0922.6936.1373.1536.2294.0922.54-.1373.6936zm13.3515-4.47248c-.2709.05359-.5339-.12257-.5875-.39346s.1225-.53394.3934-.58753zm15.4288-1.67572c.2761 0 .5.22385.5.5s-.2239.5-.5.5zm17 1c-.2761 0-.5-.22385-.5-.5s.2239-.5.5-.5zm17-1c.2761 0 .5.22385.5.5s-.2239.5-.5.5zm17 1c-.2761 0-.5-.22385-.5-.5s.2239-.5.5-.5zm17-1c.276 0 .5.22385.5.5s-.224.5-.5.5zm17 1c-.276 0-.5-.22385-.5-.5s.224-.5.5-.5zm-130 69.5v-8.5h1v8.5zm0-25.5v-8.5h1v8.5zm0-8.5c0-2.437.238908-4.8187.69473-7.1229l.98099.1941c-.44325 2.2406-.67572 4.5573-.67572 6.9288zm6.14816-20.2803c2.66465-3.9802 6.09134-7.4069 10.07154-10.0715l.5563.8309c-3.8715 2.592-7.2049 5.9254-9.79687 9.7969zm23.22894-15.52497c2.3042-.45582 4.6859-.69473 7.1229-.69473v1c-2.3715 0-4.6883.23248-6.9288.67572zm7.1229-.69473h8.5v1h-8.5zm25.5 0h17v1h-17zm34 0h17v1h-17zm34 0h8.5v1h-8.5zm9.207-.20711c.391.39053.391 1.02369 0 1.41422l-6.364 6.36399c-.39.3905-1.024.3905-1.414 0-.391-.3906-.391-1.0237 0-1.4142l5.657-5.6569-5.657-5.65685c-.391-.39053-.391-1.02369 0-1.414218.39-.390526 1.024-.390526 1.414 0zm-137.707 70.70711c0 .5523-.44772 1-1 1-.552285 0-1-.4477-1-1zm-2-8.5c0-.5523.447715-1 1-1 .55228 0 1 .4477 1 1zm2-17c0 .5523-.44772 1-1 1-.552285 0-1-.4477-1-1zm-1.295762-15.7199c.107181-.5418.633272-.8941 1.175052-.7869.54179.1072.8941.6333.78692 1.175zm7.190372-12.2259c-.30724.4589-.92835.5819-1.38728.2746-.45893-.3072-.5819-.9284-.27465-1.3873zm8.54689-11.3215c.4589-.3073 1.0801-.1843 1.3873.2746.3073.459.1843 1.0801-.2746 1.3873zm13.7267-3.56649c-.5417.10718-1.0678-.24513-1.175-.78691-.1072-.54179.2451-1.06788.7869-1.17506zm15.3318-2.66621c.5523 0 1 .44772 1 1s-.4477 1-1 1zm17 2c-.5523 0-1-.44772-1-1s.4477-1 1-1zm17-2c.5523 0 1 .44772 1 1s-.4477 1-1 1zm17 2c-.5523 0-1-.44772-1-1s.4477-1 1-1zm17-2c.552 0 1 .44772 1 1s-.448 1-1 1zm17 2c-.552 0-1-.44772-1-1s.448-1 1-1zm-130.5 69v-8.5h2v8.5zm0-25.5v-8.5h2v8.5zm0-8.5c0-2.4698.242126-4.884.704238-7.2199l1.961972.3881c-.43696 2.2088-.66621 4.493-.66621 6.8318zm6.23268-20.5585c2.70101-4.0345 6.17432-7.5078 10.20882-10.2088l1.1127 1.6619c-3.8173 2.5556-7.104 5.8423-9.65959 9.6596zm23.54742-15.73726c2.3359-.46211 4.7501-.70424 7.2199-.70424v2c-2.3388 0-4.623.22926-6.8318.66621zm7.2199-.70424h8.5v2h-8.5zm25.5 0h17v2h-17zm34 0h17v2h-17zm34 0h8.5v2h-8.5z" fill="#dadada"/></svg>