<svg fill="none" height="110" viewBox="0 0 163 110" width="163" xmlns="http://www.w3.org/2000/svg"><path d="m161.773 107.319c.234-.147.306-.455.16-.689l-2.383-3.818c-.146-.234-.455-.305-.689-.159s-.306.455-.159.689l2.118 3.393-3.394 2.118c-.234.146-.305.455-.159.689s.454.306.689.159zm-.265-.424c.113-.488.113-.488.112-.488s-.002 0-.004-.001c-.003-.001-.008-.002-.015-.003-.014-.004-.035-.008-.062-.015-.055-.013-.137-.032-.246-.057-.217-.051-.54-.127-.963-.227-.846-.201-2.092-.499-3.69-.888-3.195-.777-7.798-1.919-13.428-3.376-11.261-2.9122-26.629-7.0819-43.057-12.1103-16.4299-5.0287-33.9141-10.9143-49.4102-17.258-15.5073-6.3482-28.9816-13.1387-37.4219-19.9659l-.6289.7775c8.5597 6.9238 22.148 13.7588 37.6719 20.1139 15.5351 6.3596 33.051 12.2552 49.4962 17.2887 16.4469 5.0339 31.8289 9.2075 43.0989 12.1231 5.636 1.457 10.244 2.6 13.443 3.379 1.6.389 2.847.688 3.695.889.424.1.748.176.966.228.109.025.192.044.247.057.028.007.049.011.063.015.007.001.012.003.015.003.002.001.003.001.004.001.001.001.002.001.114-.486zm-148.1851-54.3892c-8.42652-6.8161-11.63293-13.3732-11.81464-19.3376-.18226-5.9818 2.67277-11.4925 6.63328-16.2135 3.95746-4.7173 8.97706-8.59559 13.01986-11.29908 2.0192-1.35024 3.7896-2.40408 5.0543-3.11985.6322-.35783 1.1378-.63101 1.4845-.81434.1734-.09166.307-.16085.3968-.20692.045-.02303.079-.04028.1015-.05167.0113-.00569.0197-.00992.0252-.01268.0027-.00137.0047-.00238.006-.00302.0006-.00031.0011-.00051.0014-.00067.0002-.0001.0002-.00012-.2226-.447721-.2228-.447602-.2232-.447426-.2237-.447167-.0005.000214-.0012.000573-.002.001-.0017.000847-.0042.002067-.0073.003662-.0064.003181-.0157.007851-.0278.013985-.0243.012275-.0601.030433-.1068.05439-.0935.047927-.2309.119071-.4081.212783-.3545.187428-.8685.465188-1.5097.828088-1.2822.72569-3.0742 1.79247-5.1176 3.15887-4.0821 2.72976-9.1875 6.66884-13.23007 11.48764-4.03949 4.8152-7.059466 10.5596-6.866717 16.8866.193283 6.3443 3.611877 13.1498 12.185287 20.0847z" fill="#333"/></svg>