<svg fill="none" height="46" viewBox="0 0 343 46" width="343" xmlns="http://www.w3.org/2000/svg"><path clip-rule="evenodd" d="m0 12c0-6.62743 5.37258-12 12-12h319c6.627 0 12 5.37258 12 12v22c0 6.6274-5.373 12-12 12h-319c-6.62742 0-12-5.3726-12-12z" fill="#fff" fill-rule="evenodd"/><path d="m20.3236 25.9285c.0747 0 .14.0303.196.091l.539.581c-.4107.476-.91.847-1.498 1.113-.5833.266-1.2903.399-2.121.399-.7187 0-1.372-.1237-1.96-.371-.588-.252-1.0897-.602-1.505-1.05-.4153-.4527-.7373-.994-.966-1.624s-.343-1.323-.343-2.079.119-1.449.357-2.079.5717-1.1713 1.001-1.624c.434-.4527.952-.8027 1.554-1.05.602-.252 1.267-.378 1.995-.378.714 0 1.344.1143 1.89.343s1.0267.539 1.442.931l-.448.623c-.028.0467-.0653.0863-.112.119-.042.028-.1003.042-.175.042-.084 0-.1867-.0443-.308-.133-.1213-.0933-.28-.196-.476-.308s-.441-.2123-.735-.301c-.294-.0933-.6557-.14-1.085-.14-.518 0-.9917.091-1.421.273-.4293.1773-.8003.4363-1.113.777-.308.3407-.5483.756-.721 1.246s-.259 1.043-.259 1.659c0 .6253.0887 1.183.266 1.673.182.49.427.9053.735 1.246.3127.336.679.5927 1.099.77.4247.1773.882.266 1.372.266.2987 0 .567-.0163.805-.049.2427-.0373.4643-.0933.665-.168.2053-.0747.3943-.168.567-.28.1773-.1167.3523-.2543.525-.413.0793-.07.1587-.105.238-.105zm4.7028-5.131c.518 0 .9847.0863 1.4.259.4154.1727.77.4177 1.064.735s.518.7023.672 1.155c.1587.448.238.9497.238 1.505 0 .56-.0793 1.064-.238 1.512-.154.448-.378.8307-.672 1.148s-.6486.5623-1.064.735c-.4153.168-.882.252-1.4.252-.5226 0-.994-.084-1.414-.252-.4153-.1727-.77-.4177-1.064-.735s-.5203-.7-.679-1.148c-.154-.448-.231-.952-.231-1.512 0-.5553.077-1.057.231-1.505.1587-.4527.385-.8377.679-1.155s.6487-.5623 1.064-.735c.42-.1727.8914-.259 1.414-.259zm0 6.328c.7 0 1.2227-.2333 1.568-.7.3454-.4713.518-1.127.518-1.967 0-.8447-.1726-1.5027-.518-1.974-.3453-.4713-.868-.707-1.568-.707-.3546 0-.665.0607-.931.182-.2613.1213-.4806.2963-.658.525-.1726.2287-.3033.511-.392.847-.084.3313-.126.707-.126 1.127 0 .84.1727 1.4957.518 1.967.35.4667.8797.7 1.589.7zm7.7784-6.328c.518 0 .9847.0863 1.4.259s.77.4177 1.064.735.518.7023.672 1.155c.1587.448.238.9497.238 1.505 0 .56-.0793 1.064-.238 1.512-.154.448-.378.8307-.672 1.148s-.6487.5623-1.064.735c-.4153.168-.882.252-1.4.252-.5227 0-.994-.084-1.414-.252-.4153-.1727-.77-.4177-1.064-.735s-.5203-.7-.679-1.148c-.154-.448-.231-.952-.231-1.512 0-.5553.077-1.057.231-1.505.1587-.4527.385-.8377.679-1.155s.6487-.5623 1.064-.735c.42-.1727.8913-.259 1.414-.259zm0 6.328c.7 0 1.2227-.2333 1.568-.7.3453-.4713.518-1.127.518-1.967 0-.8447-.1727-1.5027-.518-1.974s-.868-.707-1.568-.707c-.3547 0-.665.0607-.931.182-.2613.1213-.4807.2963-.658.525-.1727.2287-.3033.511-.392.847-.084.3313-.126.707-.126 1.127 0 .84.1727 1.4957.518 1.967.35.4667.8797.7 1.589.7zm7.9884.049c.7 0 1.2273-.2217 1.582-.665.3593-.448.539-1.0733.539-1.876 0-.798-.1727-1.421-.518-1.869-.3407-.448-.854-.672-1.54-.672-.3314 0-.63.0537-.896.161-.266.1027-.4924.2543-.679.455-.182.2007-.3244.448-.427.742-.098.294-.147.63-.147 1.008 0 .4247.0443.805.133 1.141.0886.336.2193.6207.392.854.1773.2333.3943.413.651.539.2613.1213.5646.182.91.182zm.483-7.931c-.476.042-.8844.147-1.225.315-.336.168-.616.3967-.84.686-.224.2847-.392.6277-.504 1.029s-.1774.854-.196 1.358c.112-.224.2566-.4247.434-.602.1773-.182.3803-.336.609-.462.2286-.1307.476-.2287.742-.294.2706-.07.5576-.105.861-.105.4713 0 .8936.084 1.267.252.378.1633.6976.3967.959.7.266.3033.469.6697.609 1.099.14.4247.21.896.21 1.414 0 .5273-.0817 1.0057-.245 1.435-.1587.4247-.3874.7887-.686 1.092-.2987.2987-.658.5297-1.078.693-.4154.1633-.882.245-1.4.245-.476 0-.9217-.0793-1.337-.238-.4154-.1587-.7747-.42-1.078-.784-.3034-.364-.5437-.8423-.721-1.435-.1727-.5973-.259-1.3323-.259-2.205 0-.7467.0676-1.4327.203-2.058.1353-.6253.3523-1.169.651-1.631.3033-.462.693-.833 1.169-1.113.4806-.2847 1.064-.4573 1.75-.518l2.534-.217.07.644c.014.1447-.007.266-.063.364s-.1564.1517-.301.161zm15.1854 7.812v3.003c0 .1213-.035.2147-.105.28-.0653.07-.1517.105-.259.105h-.77v-2.443h-9.709v-7.091h1.253v6.146h2.891v-6.146h1.253v6.146h2.891v-6.146h1.253v6.146zm5.7146-3.374c0-.2893-.042-.553-.126-.791-.0794-.2427-.1984-.4503-.357-.623-.154-.1773-.343-.3127-.567-.406-.224-.098-.4784-.147-.763-.147-.5974 0-1.071.175-1.421.525-.3454.3453-.56.826-.644 1.442zm1.008 3.325c-.154.1867-.3384.35-.553.49-.2147.1353-.4457.2473-.693.336-.2427.0887-.4947.154-.756.196-.2614.0467-.5204.07-.777.07-.49 0-.9427-.0817-1.358-.245-.4107-.168-.7677-.4107-1.071-.728-.2987-.322-.532-.7187-.7-1.19s-.252-1.0127-.252-1.624c0-.4947.0746-.9567.224-1.386.154-.4293.3733-.8003.658-1.113.2846-.3173.6323-.5647 1.043-.742.4106-.182.8726-.273 1.386-.273.4246 0 .8166.0723 1.176.217.364.14.6766.3453.938.616.266.266.4736.5973.623.994.1493.392.224.84.224 1.344 0 .196-.021.3267-.063.392s-.1214.098-.238.098h-4.739c.014.448.0746.8377.182 1.169.112.3313.266.609.462.833.196.2193.4293.385.7.497.2706.1073.574.161.91.161.3126 0 .581-.035.805-.105.2286-.0747.4246-.154.588-.238.1633-.084.2986-.161.406-.231.112-.0747.2076-.112.287-.112.1026 0 .182.0397.238.119zm7.3854-6.097v7.091h-1.253v-3.318h-3.402v3.318h-1.253v-7.091h1.253v2.828h3.402v-2.828zm7.8987 0v7.091h-1.246v-4.816c0-.0933.0047-.1937.014-.301s.021-.2147.035-.322c-.042.0933-.084.1797-.126.259s-.0863.1517-.133.217l-3.423 4.655c-.0513.0747-.1167.147-.196.217-.0747.0653-.1587.098-.252.098h-.756v-7.091h1.253v4.816c0 .0887-.0047.1867-.014.294-.0093.1027-.021.2077-.035.315.042-.0887.084-.1703.126-.245.042-.0793.084-.1517.126-.217l3.423-4.655c.0513-.0747.1167-.1447.196-.21.0793-.07.1657-.105.259-.105zm6.5507 2.772c0-.2893-.042-.553-.126-.791-.0793-.2427-.1983-.4503-.357-.623-.154-.1773-.343-.3127-.567-.406-.224-.098-.4783-.147-.763-.147-.5973 0-1.071.175-1.421.525-.3453.3453-.56.826-.644 1.442zm1.008 3.325c-.154.1867-.3383.35-.553.49-.2146.1353-.4456.2473-.693.336-.2426.0887-.4946.154-.756.196-.2613.0467-.5203.07-.777.07-.49 0-.9426-.0817-1.358-.245-.4106-.168-.7676-.4107-1.071-.728-.2986-.322-.532-.7187-.7-1.19s-.252-1.0127-.252-1.624c0-.4947.0747-.9567.224-1.386.154-.4293.3734-.8003.658-1.113.2847-.3173.6324-.5647 1.043-.742.4107-.182.8727-.273 1.386-.273.4247 0 .8167.0723 1.176.217.364.14.6767.3453.938.616.266.266.4737.5973.623.994.1494.392.224.84.224 1.344 0 .196-.021.3267-.063.392s-.1213.098-.238.098h-4.739c.014.448.0747.8377.182 1.169.112.3313.266.609.462.833.196.2193.4294.385.7.497.2707.1073.574.161.91.161.3127 0 .581-.035.805-.105.2287-.0747.4247-.154.588-.238.1634-.084.2987-.161.406-.231.112-.0747.2077-.112.287-.112.1027 0 .182.0397.238.119zm1.2675.224c0-.1213.021-.2357.063-.343.0467-.1073.1073-.2007.182-.28.0793-.0793.1727-.1423.28-.189s.2217-.07.343-.07.2357.0233.343.07.2007.1097.28.189.1423.1727.189.28.07.2217.07.343c0 .126-.0233.2427-.07.35-.0467.1027-.1097.1937-.189.273s-.1727.14-.28.182c-.1073.0467-.2217.07-.343.07s-.2357-.0233-.343-.07c-.1073-.042-.2007-.1027-.28-.182-.0747-.0793-.1353-.1703-.182-.273-.042-.1073-.063-.224-.063-.35zm3.1436 0c0-.1213.021-.2357.063-.343.0467-.1073.1073-.2007.182-.28.0793-.0793.1727-.1423.28-.189s.2217-.07.343-.07.2357.0233.343.07.2007.1097.28.189.1423.1727.189.28.07.2217.07.343c0 .126-.0233.2427-.07.35-.0467.1027-.1097.1937-.189.273s-.1727.14-.28.182c-.1073.0467-.2217.07-.343.07s-.2357-.0233-.343-.07c-.1073-.042-.2007-.1027-.28-.182-.0747-.0793-.1353-.1703-.182-.273-.042-.1073-.063-.224-.063-.35zm3.1436 0c0-.1213.021-.2357.063-.343.0467-.1073.1073-.2007.182-.28.0793-.0793.1727-.1423.28-.189s.2217-.07.343-.07.2357.0233.343.07.2007.1097.28.189.1423.1727.189.28.07.2217.07.343c0 .126-.0233.2427-.07.35-.0467.1027-.1097.1937-.189.273s-.1727.14-.28.182c-.1073.0467-.2217.07-.343.07s-.2357-.0233-.343-.07c-.1073-.042-.2007-.1027-.28-.182-.0747-.0793-.1353-.1703-.182-.273-.042-.1073-.063-.224-.063-.35z" fill="#979797"/><path d="m264.739 12.4081 18.462 10.154c.079.0432.144.1066.19.1836.045.0771.069.1649.069.2544s-.024.1773-.069.2544c-.046.077-.111.1404-.19.1836l-18.462 10.154c-.076.0419-.162.0632-.248.0619-.087-.0014-.172-.0253-.247-.0696-.075-.0442-.137-.1071-.18-.1826-.043-.0754-.066-.1608-.066-.2477v-20.308c0-.0869.023-.1723.066-.2477.043-.0755.105-.1384.18-.1826s.16-.0682.247-.0695c.086-.0014.172.0199.248.0618zm1.259 11.592v6.617l13.85-7.617-13.85-7.617v6.617h5v2z" fill="#0abab5"/><rect fill="#0abab5" height="46" rx="12" width="46" x="297"/><path d="m314.499 13h11c.155 0 .309.0361.447.1056.139.0694.26.1702.353.2944l2.7 3.6v15c0 .2652-.105.5196-.293.7071-.187.1875-.442.2929-.707.2929h-16c-.265 0-.519-.1054-.707-.2929-.187-.1875-.293-.4419-.293-.7071v-15l2.7-3.6c.093-.1242.214-.225.353-.2944.139-.0695.292-.1056.447-.1056zm12.5 6h-14v12h14zm-.5-2-1.5-2h-10l-1.5 2zm-9.5 4v2c0 .7956.316 1.5587.879 2.1213.562.5626 1.326.8787 2.121.8787.796 0 1.559-.3161 2.121-.8787.563-.5626.879-1.3257.879-2.1213v-2h2v2c0 1.3261-.527 2.5979-1.464 3.5355-.938.9377-2.21 1.4645-3.536 1.4645s-2.598-.5268-3.535-1.4645c-.938-.9376-1.465-2.2094-1.465-3.5355v-2z" fill="#fff"/></svg>