<svg fill="none" height="60" viewBox="0 0 60 60" width="60" xmlns="http://www.w3.org/2000/svg" xmlns:xlink="http://www.w3.org/1999/xlink"><filter id="a" color-interpolation-filters="sRGB" filterUnits="userSpaceOnUse" height="43.6316" width="42.4834" x="10.5925" y="7.99876"><feFlood flood-opacity="0" result="BackgroundImageFix"/><feGaussianBlur in="BackgroundImage" stdDeviation="1.7223"/><feComposite in2="SourceAlpha" operator="in" result="effect1_backgroundBlur"/><feBlend in="SourceGraphic" in2="effect1_backgroundBlur" mode="normal" result="shape"/></filter><circle cx="47.2223" cy="30.8512" fill="#0abab5" r="6.77698"/><circle cx="40.4468" cy="10.2964" fill="#82c8f4" r="2.2964"/><circle cx="21.5007" cy="37.2781" fill="#f0f5fa" r="15.5007"/><g filter="url(#a)"><path d="m23.4413 14.0634 6.2565-1.6223-.0004-.0014 3.182-.8251.0004.0015.4055-.1052c.7245-.1879 1.4455.0321 2.01.4623.5645.4301 1.0032 1.088 1.2083 1.8621l1.2825 4.8396 2.5766-.6681c1.9438-.504 3.9435.5959 4.5708 2.4595l.7537 2.814 3.8464 14.5149c.4165 1.5716-.5364 3.1928-2.1207 3.6036l-25.8045 6.6911c-1.5873.4115-3.2187-.54-3.6351-2.1112l-1.227-4.6305-.0484.0126c-.6064.1572-1.2269-.2016-1.3859-.8014l-.909-3.4301c-.159-.5999.2037-1.2136.8101-1.3709l.05-.0129-1.1281-4.257c-.4163-1.5712.5334-3.192 2.1207-3.6036l1.1652-.3021c-.3667-1.9223.829-3.8409 2.7668-4.3433l2.8872-.7487-1.2828-4.8409c-.2051-.774-.1491-1.5601.1291-2.2086.2781-.6484.7965-1.1902 1.5201-1.3779z" fill="#fff" fill-opacity=".67"/></g><g stroke="#000" stroke-width=".861151"><path d="m15.7245 35.3068-1.1588-4.4207c-.3414-1.3024.4389-2.6442 1.7353-2.9841l1.7259-.4524" stroke-miterlimit="10"/><path d="m45.3718 22.7823 3.8907 14.8425c.3413 1.3024-.4416 2.6449-1.7354 2.9841l-26.1019 6.842c-1.2964.3399-2.6346-.4466-2.9759-1.749l-1.3962-5.3261" stroke-miterlimit="10"/><path d="m23.7546 22.2406.9097 3.4704-6.6374 1.7399-.077-.2939c-.458-1.7471.5902-3.5495 2.3292-4.0054z" stroke-miterlimit="10"/><path d="m44.68 20.1478.6856 2.6154c-.2019-.7703-.4039-1.5407-.6051-2.3083-.7866.2005-1.5725.4037-2.3591.6042l-3.9683 1.0402-.9097-3.4704 3.162-.8288c1.7391-.4559 3.5366.6006 3.9946 2.3477z" stroke-miterlimit="10"/><path d="m36.0811 13.1251 2.353 8.9765-13.7703 3.6096-2.353-8.9765c-.3553-1.3553.2123-2.6923 1.2583-2.9665l9.9575-2.6102c1.0488-.2749 2.1992.6118 2.5545 1.9671z" stroke-miterlimit="10"/></g><path d="m45.9757 38.8091-8.2527 2.1632c-.2951.0774-.6014-.1026-.6791-.3991s.1009-.6035.396-.6809l8.2527-2.1633c.2951-.0773.6013.1027.6791.3991.0777.2965-.1009.6036-.396.681z" fill="#000"/><path d="m32.5611 11.4103-2.108.5526 2.9525 11.2636 2.108-.5526z" stroke="#000" stroke-miterlimit="10" stroke-width=".861151"/><rect height="5.06128" rx=".717626" stroke="#000" stroke-width=".861151" transform="matrix(.96731203 -.25358912 .25358912 .96731203 -8.653902 4.857737)" width="5.06128" x="14.5159" y="35.9968"/></svg>