<svg fill="none" height="60" viewBox="0 0 60 60" width="60" xmlns="http://www.w3.org/2000/svg" xmlns:xlink="http://www.w3.org/1999/xlink"><filter id="a" color-interpolation-filters="sRGB" filterUnits="userSpaceOnUse" height="40" width="42" x="12" y="8"><feFlood flood-opacity="0" result="BackgroundImageFix"/><feGaussianBlur in="BackgroundImage" stdDeviation="1.5"/><feComposite in2="SourceAlpha" operator="in" result="effect1_backgroundBlur"/><feBlend in="SourceGraphic" in2="effect1_backgroundBlur" mode="normal" result="shape"/></filter><circle cx="48" cy="11" fill="#0abab5" r="3"/><circle cx="22.5" cy="29.5" fill="#82c8f4" r="12.5"/><circle cx="42" cy="44" fill="#f0f5fa" r="7"/><g filter="url(#a)"><path clip-rule="evenodd" d="m40.0334 17.2301c-.4438 1.3524-1.2081 2.9839-2.3883 4.951.3628-.0542.7978-.1164 1.2718-.1787 1.3096-.1721 2.9406-.3477 4.162-.3477 1.2072 0 2.5766.0871 3.6386.1734.5323.0432.9898.0865 1.3144.1189.1623.0162.2915.0298.3803.0393l.1021.011.0103.0012c.8898.0079 1.563.4035 1.9812 1.0193.4096.6032.5476 1.3749.4763 2.1097-.1033 1.0643-.6759 2.2004-1.7005 2.7279.1684.1841.3095.3934.4231.6173.3158.6222.4311 1.3728.3603 2.0903-.0708.718-.3322 1.4422-.8154 1.9953-.2658.3043-.5933.5498-.9785.7114.0933.1601.1667.3328.2222.5072.1892.5945.213 1.316.0861 2.0058-.195 1.0596-.7942 2.2108-1.8887 2.661.0904.1648.1604.3417.2121.5199.1646.5663.178 1.2372.0494 1.8756-.2524 1.2535-1.1211 2.5971-2.762 2.612l-.0443.005-.2003.022c-.1745.0189-.4282.0458-.746.0781-.6355.0647-1.5276.1509-2.5544.2371-2.0506.1722-4.6505.3454-6.8192.3454-2.1585 0-4.8291-.0863-6.9563-.1723-1.0645-.043-1.9944-.086-2.6582-.1183-.2208-.0107-.4122-.0203-.5693-.0282v.0375c0 .631-.4963 1.1425-1.1084 1.1425h-6.4254c-.6122 0-1.1084-.5115-1.1084-1.1425v-17.6214c0-.631.4962-1.1425 1.1084-1.1425h6.4254c.6121 0 1.1084.5115 1.1084 1.1425v.2118c.097-.0438.2035-.0962.3169-.1587.5304-.2918 1.212-.801 1.7983-1.6698.0893-.1322.1862-.2773.2904-.4332.6323-.9462 1.5315-2.2917 2.5914-3.586 1.2271-1.4984 2.7181-2.9907 4.3249-3.7153.4276-.1928.8745-.605 1.3143-1.1725.434-.5599.8306-1.2309 1.1687-1.8859.3371-.6531.6101-1.2787.799-1.7418.0943-.2311.1673-.4209.2164-.5522.0246-.0656.0432-.1166.0555-.1507l.0137-.0383.0033-.0092.0007-.0021c.0694-.1991.2527-.3322.4579-.3322.6385 0 1.3753.1257 2.018.5043.6578.3874 1.1949 1.0286 1.415 1.9965.2158.949.1182 2.1714-.3932 3.7293z" fill="#fff" fill-opacity=".67" fill-rule="evenodd"/></g><g stroke="#000" stroke-linecap="round" stroke-linejoin="round" stroke-width=".75"><path d="m47.9747 27.706c3.0228 0 3.5267-5.0381.5038-5.0381 0 0-3.0642-.3359-5.458-.3359s-6.4656.6718-6.4656.6718c6.0458-9.2702 2.687-11.0839.3359-11.0839 0 0-1.7129 4.7694-3.8625 5.7099-3.0229 1.3225-5.7683 5.5419-7.0534 7.3892s-3.0021 2.1832-3.0021 2.1832l-.0021 15.786s6.4008.3359 10.7293.3359 10.4121-.6717 10.4121-.6717c2.687 0 3.0229-4.1985 1.5115-4.7023m2.3511-10.2441h-3.8626m3.8626 0c2.3511.5038 2.1832 5.206-.8397 5.206m0 0h-4.3664m4.3664 0c1.6794.3359 1.3435 5.0381-1.5114 5.0381m0 0h-4.5344"/><path d="m15.2266 26.1727c0-.2647.2146-.4793.4793-.4793h6.7664c.2648 0 .4794.2146.4794.4793v17.5144c0 .2647-.2146.4793-.4794.4793h-6.7664c-.2647 0-.4793-.2146-.4793-.4793z"/></g></svg>