<svg fill="none" height="60" viewBox="0 0 60 60" width="60" xmlns="http://www.w3.org/2000/svg" xmlns:xlink="http://www.w3.org/1999/xlink"><filter id="a" color-interpolation-filters="sRGB" filterUnits="userSpaceOnUse" height="39.5833" width="39.2486" x="10.5562" y="8.77886"><feFlood flood-opacity="0" result="BackgroundImageFix"/><feGaussianBlur in="BackgroundImage" stdDeviation="1.38889"/><feComposite in2="SourceAlpha" operator="in" result="effect1_backgroundBlur"/><feBlend in="SourceGraphic" in2="effect1_backgroundBlur" mode="normal" result="shape"/></filter><circle cx="39.7231" cy="37.9457" fill="#0abab5" r="15.2778"/><circle cx="9.86111" cy="33.0838" fill="#f0f5fa" r="4.86111"/><circle cx="39.7231" cy="8.77778" fill="#82c8f4" r="2.77778"/><g filter="url(#a)"><path clip-rule="evenodd" d="m30.3229 11.5566c-2.3575 0-4.6384.7794-6.3371 2.195-.15.125-.2945.2541-.4332.3871-1.1134-.5953-2.3689-.8761-3.6314-.8111-1.3055.0672-2.5656.5016-3.6352 1.2532s-1.9054 1.7898-2.4112 2.9952c-.5058 1.2055-.661 2.5292-.4479 3.819s.786 2.4932 1.6527 3.4719 1.992 1.6928 3.2466 2.0603c.0666.0195.1335.038.2005.0555l1.3816 17.9605c.0278.3618.3295.6412.6924.6412h18.75c.3629 0 .6645-.2794.6924-.6412l1.3742-17.8654c.2075-.0406.4135-.0908.6175-.1506 1.2545-.3675 2.3799-1.0816 3.2466-2.0603s1.4395-2.1821 1.6527-3.4719c.2131-1.2898.0578-2.6135-.4479-3.819-.5058-1.2054-1.3416-2.2436-2.4112-2.9952-1.0697-.7516-2.3297-1.186-3.6352-1.2532-1.1934-.0615-2.3805.1861-3.4473.7162-.1076-.0997-.2184-.1972-.3325-.2922-1.6987-1.4156-3.9796-2.195-6.3371-2.195z" fill="#fff" fill-opacity=".67" fill-rule="evenodd"/></g><g stroke="#000" stroke-linecap="round" stroke-linejoin="round" stroke-width=".75"><path d="m20.2771 27.5283 1.3889 18.0556h18.75l1.3889-18.0556"/><path d="m21.666 42.1123h18.0556"/><path d="m39.4443 26.9704c1.132.3207 2.3315.3154 3.4606-.0154 1.1291-.3307 2.1419-.9735 2.922-1.8543.78-.8808 1.2956-1.9639 1.4874-3.1247s.0521-2.3521-.4031-3.4371c-.4552-1.0849-1.2074-2.0193-2.1701-2.6957s-2.0967-1.0673-3.2717-1.1279c-1.175-.0605-2.3432.2119-3.3703.7858"/><path d="m23.0474 26.9704c-1.132.3207-2.3315.3154-3.4606-.0154-1.1291-.3307-2.1419-.9735-2.922-1.8543-.78-.8808-1.2956-1.9639-1.4874-3.1247s-.0521-2.3521.4031-3.4371c.4552-1.0849 1.2074-2.0193 2.1701-2.6957s2.0967-1.0673 3.2717-1.1279c1.175-.0605 2.3432.2119 3.3703.7858"/><path d="m39.7216 19.8898c0-1.8418-.878-3.6082-2.4408-4.9105s-3.6824-2.034-5.8925-2.034c-2.2102 0-4.3298.7317-5.8926 2.034s-2.4408 3.0687-2.4408 4.9105"/></g></svg>