<svg fill="none" height="171" viewBox="0 0 170 171" width="170" xmlns="http://www.w3.org/2000/svg" xmlns:xlink="http://www.w3.org/1999/xlink"><linearGradient id="a"><stop offset="0" stop-color="#fff72b"/><stop offset="1" stop-color="#ffc632"/></linearGradient><linearGradient id="b" gradientUnits="userSpaceOnUse" x1="82.4818" x2="82.4814" xlink:href="#a" y1="38.1604" y2="130.005"/><linearGradient id="c" gradientUnits="userSpaceOnUse" x1="115.88" x2="115.88" xlink:href="#a" y1="63.2074" y2="104.956"/><clipPath id="d"><path d="m0 0h91.8455v91.8455h-91.8455z" transform="matrix(1 .00000343 .00000236 1 44.9089 38.1598)"/></clipPath><mask id="e" height="171" maskUnits="userSpaceOnUse" width="170" x="0" y="0"><rect fill="#ff7944" height="169.561" rx="37.2379" transform="matrix(1 -.00000032 -.00000139 1 .163696 .479469)" width="169.561"/></mask><rect fill="#f28256" height="169.561" rx="37.2379" transform="matrix(1 -.00000043 -.0000015 1 .163635 .479454)" width="169.561"/><g fill="#fff" mask="url(#e)"><rect height="39.6581" opacity=".1" rx="19.829" transform="matrix(.773958 -.633237 .773957 .633237 9.58383 68.37)" width="415.244"/><rect height="39.6581" opacity=".1" rx="19.829" transform="matrix(.773958 -.633238 .773957 .633238 90.8315 66.8916)" width="415.244"/></g><g clip-path="url(#d)"><path d="m49.7163 51.7686c-2.9334 1.3743-4.8074 4.3214-4.8074 7.5609l.0001 34.7442c0 13.9163 6.5231 22.7583 14.1333 28.3393 13.8042 10.123 33.0752 10.123 46.8797 0 7.61-5.581 14.133-14.423 14.133-28.339v-34.7442c0-3.2395-1.874-6.1866-4.808-7.561l-25.6808-12.0312c-4.4888-2.1029-9.6799-2.103-14.1687-.0001z" fill="url(#b)"/><path d="m56.446 58.2675c-2.3435 1.098-3.8406 3.4524-3.8406 6.0404l.0001 27.7567c0 11.1174 5.2112 18.1814 11.291 22.6404 11.028 8.087 26.4233 8.087 37.4515 0 6.08-4.459 11.291-11.523 11.291-22.6402v-27.7567c0-2.588-1.497-4.9424-3.841-6.0404l-20.5164-9.6116c-3.586-1.68-7.7331-1.68-11.3192 0z" fill="#fbffcf" opacity=".4"/><path d="m115.88 104.956c11.528 0 20.874-9.3454 20.874-20.874 0-11.5287-9.346-20.8745-20.874-20.8746-11.529 0-20.8747 9.3458-20.8747 20.8744 0 11.5287 9.3457 20.8742 20.8747 20.8742z" fill="url(#c)"/><path d="m104.22 77.8217c1.153-1.1528 3.022-1.1528 4.175 0l7.485 7.4848 15.834-15.8343c1.153-1.1528 3.022-1.1528 4.175 0 1.152 1.1528 1.152 3.0219 0 4.1747l-17.922 17.9218c-1.153 1.1528-3.022 1.1528-4.175 0l-9.572-9.5723c-1.122-1.1474-1.098-3.0043 0-4.1747z" fill="#fff"/></g></svg>