<svg fill="none" height="170" viewBox="0 0 170 170" width="170" xmlns="http://www.w3.org/2000/svg" xmlns:xlink="http://www.w3.org/1999/xlink"><linearGradient id="a" gradientUnits="userSpaceOnUse" x1="85.1818" x2="85.1818" y1="132.256" y2="37.6996"><stop offset="0" stop-color="#fff72b"/><stop offset="1" stop-color="#ffc632"/></linearGradient><mask id="b" height="170" maskUnits="userSpaceOnUse" width="170" x="0" y="0"><rect fill="#70cdf9" height="169.561" rx="37.2379" width="169.561" x=".224121" y=".018372"/></mask><rect fill="#1e96ed" height="169.561" rx="37.2379" width="169.561" x=".224121" y=".018372"/><g fill="#fff" mask="url(#b)"><path d="m370.373 112.232 63.568 24.384c26.715 10.247 44.351 35.9 44.351 64.513 0 38.161-30.936 69.096-69.097 69.096h-463.1364c-39.0191 0-70.6506-31.631-70.6506-70.65v-30.509c0-19.18 7.798-37.535 21.602-50.85l23.4636-22.633c8.1167-7.8292 17.9896-13.6016 28.7934-16.8348l88.4807-26.4788c19.9396-5.9672 41.4958-2.8386 58.9164 8.5507l93.3729 61.0459c16.735 10.942 37.323 14.279 56.659 9.186l80.376-21.175c14.324-3.773 29.471-2.95 43.301 2.355z" opacity=".1"/><path d="m-96.7437 77.5485-63.5683 24.3835c-26.715 10.247-44.35 35.9-44.35 64.513 0 38.161 30.935 69.096 69.096 69.096l463.137.001c39.019 0 70.65-31.631 70.65-70.651v-30.509c0-19.179-7.797-37.5341-21.602-50.8493l-23.463-22.6329c-8.117-7.8292-17.99-13.6017-28.794-16.8349l-88.481-26.4789c-19.939-5.9672-41.495-2.8387-58.916 8.5507l-93.3723 61.0456c-16.7357 10.9416-37.3239 14.2797-56.6592 9.1856l-80.3766-21.1747c-14.3235-3.7734-29.4708-2.9495-43.3006 2.3553z" opacity=".2"/></g><path d="m88.5174 128.91c-1.8406 1.846-4.8306 1.846-6.6712 0l-2.2751-2.282c-1.3487-1.353-3.3809-1.757-5.1446-1.023l-2.9752 1.237c-2.4069 1.002-5.1694-.143-6.1633-2.553l-1.2286-2.979c-.7284-1.766-2.4512-2.917-4.3615-2.914l-3.2223.005c-2.6069.004-4.7212-2.11-4.7172-4.717l.0049-3.222c.0029-1.911-1.1483-3.634-2.9142-4.362l-2.979-1.228c-2.41-.994-3.5542-3.757-2.5529-6.1638l1.2377-2.9752c.7337-1.7637.3294-3.796-1.0234-5.1446l-2.282-2.2751c-1.8461-1.8406-1.8461-4.8306 0-6.6712l2.2821-2.2751c1.3528-1.3487 1.757-3.3809 1.0233-5.1446l-1.2377-2.9752c-1.0013-2.4069.143-5.1694 2.5529-6.1633l2.979-1.2287c1.766-.7283 2.9171-2.4511 2.9142-4.3614l-.0049-3.2224c-.0039-2.6068 2.1103-4.7211 4.7172-4.7171l3.2224.0049c1.9103.0029 3.6331-1.1483 4.3614-2.9142l1.2286-2.979c.994-2.41 3.7564-3.5542 6.1633-2.5529l2.9753 1.2376c1.7637.7337 3.7959.3295 5.1446-1.0233l2.2751-2.282c1.8405-1.8462 4.8306-1.8462 6.6711 0l2.2751 2.282c1.3487 1.3528 3.3809 1.757 5.1447 1.0233l2.9752-1.2377c2.4066-1.0012 5.1696.143 6.1636 2.553l1.228 2.979c.729 1.7659 2.451 2.9171 4.362 2.9142l3.222-.005c2.607-.0039 4.721 2.1104 4.717 4.7172l-.005 3.2224c-.003 1.9103 1.149 3.6331 2.915 4.3614l2.979 1.2287c2.41.9939 3.554 3.7563 2.552 6.1633l-1.237 2.9752c-.734 1.7637-.33 3.7959 1.023 5.1446l2.282 2.2751c1.846 1.8406 1.846 4.8306 0 6.6711l-2.282 2.2751c-1.353 1.3487-1.757 3.3809-1.023 5.1447l1.237 2.9752c1.002 2.4068-.143 5.1698-2.552 6.1638l-2.979 1.228c-1.766.728-2.918 2.451-2.915 4.362l.005 3.222c.004 2.607-2.11 4.721-4.717 4.717l-3.222-.005c-1.911-.003-3.633 1.148-4.362 2.914l-1.228 2.979c-.994 2.41-3.757 3.555-6.1637 2.553l-2.9752-1.237c-1.7637-.734-3.796-.33-5.1446 1.023z" fill="url(#a)"/><path d="m88.5153 121.028c-1.8405 1.846-4.8306 1.846-6.6711 0l-.9685-.971c-1.3486-1.353-3.3809-1.757-5.1446-1.023l-1.2664.526c-2.407 1.002-5.1694-.143-6.1634-2.552l-.5229-1.269c-.7284-1.766-2.4512-2.917-4.3614-2.914l-1.3717.002c-2.6069.004-4.7212-2.11-4.7172-4.717l.0021-1.372c.0029-1.91-1.1483-3.633-2.9142-4.361l-1.2681-.523c-2.4099-.994-3.5542-3.7563-2.5529-6.1632l.5268-1.2665c.7337-1.7637.3295-3.7959-1.0233-5.1446l-.9714-.9685c-1.8461-1.8405-1.8461-4.8306 0-6.6711l.9714-.9684c1.3528-1.3487 1.7571-3.3809 1.0233-5.1447l-.5268-1.2664c-1.0013-2.4069.143-5.1694 2.5529-6.1633l1.2681-.523c1.7659-.7284 2.9171-2.4512 2.9142-4.3614l-.0021-1.3717c-.004-2.6069 2.1103-4.7212 4.7172-4.7172l1.3717.0021c1.9102.0029 3.633-1.1482 4.3614-2.9142l.523-1.2681c.9939-2.4099 3.7564-3.5542 6.1633-2.5529l1.2664.5269c1.7638.7337 3.796.3294 5.1447-1.0234l.9684-.9714c1.8405-1.8461 4.8306-1.8461 6.6711 0l.9685.9714c1.3487 1.3528 3.3809 1.7571 5.1446 1.0234l1.2665-.5269c2.4069-1.0012 5.1691.143 6.1631 2.553l.523 1.268c.728 1.766 2.451 2.9171 4.362 2.9142l1.371-.0021c2.607-.0039 4.721 2.1103 4.717 4.7172l-.002 1.3717c-.003 1.9102 1.149 3.6331 2.915 4.3614l1.268.523c2.41.9939 3.554 3.7564 2.553 6.1633l-.527 1.2665c-.734 1.7637-.33 3.7959 1.023 5.1446l.971.9684c1.847 1.8406 1.847 4.8306 0 6.6712l-.971.9684c-1.353 1.3487-1.757 3.3809-1.023 5.1446l.527 1.2665c1.001 2.4069-.143 5.1692-2.553 6.1632l-1.268.523c-1.766.728-2.918 2.451-2.915 4.361l.002 1.372c.004 2.607-2.11 4.721-4.717 4.717l-1.371-.002c-1.911-.003-3.634 1.149-4.362 2.914l-.523 1.269c-.994 2.409-3.7562 3.554-6.1632 2.552l-1.2664-.526c-1.7637-.734-3.796-.33-5.1446 1.023z" fill="#fbffcf" opacity=".34"/><g stroke="#fff" stroke-width="4.71003"><circle r="12.9526" transform="matrix(1 -.00000124 -.00000172 1 83.8268 83.6211)"/><path d="m2.35501-2.35501h10.75689" stroke-linecap="round" stroke-linejoin="round" transform="matrix(.707104 .707109 -.707105 .707109 90.5515 92.9077)"/></g></svg>