<svg fill="none" height="163" viewBox="0 0 163 163" width="163" xmlns="http://www.w3.org/2000/svg" xmlns:xlink="http://www.w3.org/1999/xlink"><linearGradient id="a" gradientUnits="userSpaceOnUse" x1="82.5051" x2="82.5051" y1="36.0383" y2="123.109"><stop offset="0" stop-color="#fff72b"/><stop offset="1" stop-color="#ffc632"/></linearGradient><mask id="b" height="163" maskUnits="userSpaceOnUse" width="163" x="0" y="0"><rect fill="#89ff52" height="162" rx="37" width="162" x=".038452" y=".038269"/></mask><rect fill="#0cba7b" height="162" rx="37" width="162" x=".038452" y=".038269"/><g mask="url(#b)"><g fill="#fff"><ellipse cx="162.038" cy="169.402" opacity=".1" rx="101.25" ry="82.8409"/><ellipse cx=".038452" cy="169.402" opacity=".1" rx="101.25" ry="82.8409"/><ellipse cx="-78.7115" cy="116.016" opacity=".1" rx="101.25" ry="82.8409"/><ellipse cx="234.038" cy="116.016" opacity=".1" rx="101.25" ry="82.8409"/></g><circle cx="82.5051" cy="79.5737" fill="url(#a)" r="43.5354"/><circle cx="82.1109" cy="79.1791" fill="#fbffcf" opacity=".34" r="35.2971"/></g><path clip-rule="evenodd" d="m103.852 71.7844c.738.3963 1.199 1.1665 1.199 2.0045v8.9107l-1.466-1.4663-1.472 1.4721v-8.0671c0-.2867-.306-.4696-.559-.3341l-18.7445 10.0581c-.6717.3604-1.4793.3604-2.1511 0l-18.5057-9.9299c-1.599-.858-1.599-3.151 0-4.009l18.5057-9.9298c.6718-.3605 1.4794-.3605 2.1511 0zm-9.5756 10.2163c.7577-.4066 1.6752.1423 1.6752 1.0022v5.4581c0 .838-.4608 1.6082-1.1993 2.0044l-10.8672 5.8312c-1.3435.7209-2.9588.7209-4.3023 0l-10.7724-5.7803c-.7385-.3962-1.1992-1.1664-1.1992-2.0045v-5.458c0-.8599.9174-1.4088 1.6752-1.0022l11.372 6.102c.6718.3605 1.4794.3605 2.1511 0z" fill="#fff" fill-rule="evenodd"/></svg>