<svg fill="none" height="38" viewBox="0 0 131 38" width="131" xmlns="http://www.w3.org/2000/svg"><path d="m123.078 37.241h-115.31483c-1.97211 0-3.86345-.7845-5.25794-2.181-1.39449-1.3964-2.177898-3.2904-2.177898-5.2653v-21.6689c0-1.97489.783408-3.86893 2.177898-5.26539 1.39449-1.39647 3.28583-2.180963 5.25794-2.180963h93.69183c3.819-.001956 7.601.749653 11.13 2.211953 3.53 1.4623 6.737 3.60661 9.438 6.31041 2.701 2.70379 4.844 5.91409 6.306 9.44749s2.215 7.3207 2.215 11.1454c0 .9804-.194 1.9511-.569 2.8565-.376.9054-.926 1.7276-1.62 2.4194-.693.6919-1.517 1.2397-2.422 1.6122-.906.3724-1.876.5622-2.855.5582z" fill="#fff"/></svg>