<svg fill="none" height="135" viewBox="0 0 131 135" width="131" xmlns="http://www.w3.org/2000/svg"><path d="m123.049 36.5898h-115.29987c-1.97211 0-3.86347-.7845-5.25796-2.181-1.39449-1.3964-2.177877-3.2905-2.177877-5.2654v-21.66878c0-1.9749.783387-3.86889 2.177877-5.26535 1.39449-1.396455 3.28585-2.1809954 5.25796-2.1809954h93.69187c7.705-.0079105 15.099 3.0478954 20.556 8.4960254 5.457 5.4481 8.532 12.8429 8.547 20.5596.008.9879-.18 1.9675-.554 2.8817-.374.9143-.926 1.7449-1.623 2.4435-.698.6985-1.527 1.2511-2.44 1.6255s-1.891.5631-2.878.5552z" fill="#fff"/><path d="m123.049 85.4235h-115.29987c-1.97211 0-3.86347-.7846-5.25796-2.181-1.39449-1.3965-2.177877-3.2905-2.177877-5.2654v-21.639c0-1.9749.783387-3.8689 2.177877-5.2653 1.39449-1.3965 3.28585-2.181 5.25796-2.181h93.69187c7.711 0 15.106 3.0675 20.558 8.5276 5.453 5.4602 8.516 12.8657 8.516 20.5875-.004.9779-.2 1.9455-.578 2.8474-.377.9019-.928 1.7206-1.621 2.4093s-1.515 1.2339-2.419 1.6045-1.871.5593-2.848.5554z" fill="#fff"/><path d="m123.049 134.241h-115.29987c-1.97211 0-3.86347-.784-5.25796-2.181-1.39449-1.396-2.177877-3.29-2.177877-5.265v-21.669c0-1.975.783387-3.869 2.177877-5.2656 1.39449-1.3965 3.28585-2.181 5.25796-2.181h93.69187c7.711 0 15.106 3.0676 20.558 8.5276 5.453 5.46 8.516 12.866 8.516 20.588 0 .98-.194 1.951-.569 2.856-.376.906-.926 1.728-1.62 2.42-.693.691-1.517 1.239-2.422 1.612-.906.372-1.876.562-2.855.558z" fill="#00a351"/></svg>