<svg fill="none" height="66" viewBox="0 0 66 66" width="66" xmlns="http://www.w3.org/2000/svg"><rect fill="#fff" height="66" rx="13.9228" width="66"/><path d="m25.086 33.1923c0 4.401 3.1851 7.511 7.4039 7.511 4.2922 0 7.4039-3.11 7.4039-7.511h11.5005c0 10.4287-7.9278 17.9433-18.9044 17.9433s-18.9043-7.5111-18.9043-17.9433z" fill="#5b40ff"/><path d="m39.8975 33.1917c0-4.4639-3.1222-7.616-7.4039-7.616-4.2188 0-7.4039 3.1556-7.4039 7.616h-11.5075c0-10.6351 7.9243-18.1917 18.9009-18.1917s18.9114 7.5531 18.9114 18.1917z" fill="#1ae2d3"/><path d="m19.8192 26.772 7.6064 8.2388c.4121.4478.0978 1.1755-.5134 1.1755h-15.2129c-.6077 0-.9255-.7277-.5134-1.1755l7.6065-8.2388c.2794-.3008.7509-.3008 1.0268 0z" fill="#5b40ff"/><path d="m46.2859 40.8296 7.6065-8.2387c.4121-.4478.0978-1.1755-.5134-1.1755h-15.2129c-.6077 0-.9255.7277-.5134 1.1755l7.6065 8.2387c.2759.3009.7473.3009 1.0267 0z" fill="#1ae2d3"/></svg>