<svg fill="none" height="87" viewBox="0 0 131 87" width="131" xmlns="http://www.w3.org/2000/svg"><path d="m8.26391.802624h115.30009c1.972 0 3.863.784536 5.258 2.180986 1.394 1.39645 2.178 3.29043 2.178 5.26532v21.60917c0 1.9749-.784 3.8689-2.178 5.2653-1.395 1.3965-3.286 2.181-5.258 2.181h-93.6915c-7.693.0119-15.0771-3.0299-20.53497-8.4591-5.45784-5.4292-8.544475-12.8033-8.583816-20.50702-.011934-.99166.17408-1.97571.547086-2.8944.37301-.91869.92552-1.7535 1.62509-2.45545.69958-.70195 1.53212-1.25689 2.44878-1.63224.91666-.375354 1.89896-.563555 2.88924-.553566z" fill="#00a351"/><path d="m123.55 86.2409h-93.6917c-7.7109 0-15.106-3.0675-20.55846-8.5276-5.45246-5.4602-8.51563-12.8657-8.51563-20.5876 0-1.9749.78343-3.8689 2.17792-5.2653 1.39449-1.3965 3.2858-2.181 5.25791-2.181h115.32996c1.972 0 3.863.7845 5.258 2.181 1.394 1.3964 2.178 3.2904 2.178 5.2653v21.6093c.007.9829-.179 1.9576-.549 2.8679s-.917 1.7383-1.608 2.436c-.691.6978-1.514 1.2516-2.42 1.6296-.906.3779-1.878.5725-2.859.5724z" fill="#fff"/></svg>