<svg fill="none" height="428" viewBox="0 0 131 428" width="131" xmlns="http://www.w3.org/2000/svg"><path d="m8.2375 183.759h115.2955c1.972 0 3.863-.785 5.258-2.181 1.394-1.397 2.178-3.291 2.178-5.265v-21.669c0-1.974-.784-3.868-2.178-5.265-1.395-1.396-3.286-2.181-5.258-2.181h-93.6878c-3.8179 0-7.5984.753-11.1257 2.217-3.5273 1.463-6.7323 3.607-9.432 6.311-2.69968 2.703-4.84119 5.913-6.30224 9.445-1.46106 3.532-2.213059 7.318-2.213059 11.142-.000008.98.1933 1.951.568829 2.856.37553.905.9259 1.727 1.61951 2.419.6936.692 1.51681 1.24 2.42237 1.612.90556.373 1.87564.562 2.85459.559z" fill="#fff"/><path d="m8.2375 232.589h115.2955c1.972 0 3.863-.784 5.258-2.18 1.394-1.397 2.178-3.291 2.178-5.266v-21.668c0-1.974-.784-3.868-2.178-5.265-1.395-1.396-3.286-2.181-5.258-2.181h-93.6878c-3.8179 0-7.5984.753-11.1257 2.216-3.5273 1.464-6.7323 3.608-9.432 6.312-2.69968 2.703-4.84119 5.913-6.30224 9.445-1.46106 3.532-2.213059 7.318-2.213059 11.141-.000008.981.1933 1.951.568829 2.857.37553.905.9259 1.727 1.61951 2.419.6936.692 1.51681 1.24 2.42237 1.612.90556.373 1.87564.562 2.85459.558z" fill="#00a351"/><path d="m8.23748 330.266h115.29552c1.972 0 3.863-.784 5.258-2.181 1.394-1.396 2.178-3.29 2.178-5.265v-21.668c0-1.975-.784-3.869-2.178-5.265-1.395-1.396-3.286-2.181-5.258-2.181h-93.6878c-7.7055-.008-15.099 3.048-20.55594 8.496-5.45698 5.448-8.531056 12.842-8.546817 20.559-.007924.987.180532 1.967.554387 2.881.37386.914.92563 1.745 1.62319 2.444.69757.698 1.52697 1.251 2.43988 1.625.91292.374 1.89111.563 2.87758.555z" fill="#fff"/><path d="m8.2375 379.099h115.2955c1.972 0 3.863-.785 5.258-2.181 1.394-1.397 2.178-3.291 2.178-5.265v-21.639c0-1.975-.784-3.868-2.178-5.265-1.395-1.396-3.286-2.181-5.258-2.181h-93.6878c-3.8179 0-7.5984.753-11.1257 2.216-3.5273 1.464-6.7323 3.608-9.432 6.312-2.69968 2.703-4.84119 5.913-6.30224 9.445-1.46106 3.532-2.213059 7.318-2.213059 11.141.003898.978.200085 1.946.577359 2.848.37728.901.92826 1.72 1.62148 2.409.69322.688 1.5151 1.234 2.41872 1.604.90363.371 1.87129.559 2.84774.556z" fill="#00a351"/><path d="m8.2375 427.914h115.2955c1.972 0 3.863-.784 5.258-2.181 1.394-1.396 2.178-3.29 2.178-5.265v-21.668c0-1.975-.784-3.869-2.178-5.265-1.395-1.396-3.286-2.181-5.258-2.181h-93.6878c-3.8179 0-7.5984.753-11.1257 2.216s-6.7323 3.608-9.432 6.311c-2.69968 2.704-4.84119 5.914-6.30224 9.446-1.46106 3.532-2.213059 7.318-2.213059 11.141-.000008.981.1933 1.951.568829 2.857.37553.905.9259 1.727 1.61951 2.419.6936.692 1.51681 1.24 2.42237 1.612.90556.373 1.87564.562 2.85459.558z" fill="#fff"/><path d="m8.2375 37.2794h115.2955c1.972 0 3.863-.7845 5.258-2.1809 1.394-1.3964 2.178-3.2904 2.178-5.2652v-21.69778c0-1.97482-.784-3.86875-2.178-5.26516-1.395-1.3964-3.286-2.180892-5.258-2.180892h-93.6878c-3.8229-.003918-7.6091.747242-11.1418 2.210472-3.5326 1.46322-6.7425 3.60979-9.44567 6.31682-2.70322 2.70704-4.84677 5.92144-6.30793 9.45904-1.46117 3.5377-2.211266 7.3292-2.207353 11.1575-.000032.9829.194254 1.956.571643 2.8633.37738.9073.93041 1.7308 1.62718 2.423.69677.6923 1.52349 1.2395 2.43249 1.6102.909.3706 1.88229.5574 2.86374.5496z" fill="#fff"/><path d="m8.2375 86.0955h115.2955c1.972 0 3.863-.7845 5.258-2.1809 1.394-1.3964 2.178-3.2903 2.178-5.2652v-21.668c0-1.9748-.784-3.8687-2.178-5.2651-1.395-1.3964-3.286-2.1809-5.258-2.1809h-93.6878c-3.8192 0-7.6009.7535-11.1292 2.2176-3.5282 1.464-6.7339 3.6099-9.43376 6.3149-2.69987 2.7051-4.84107 5.9164-6.30125 9.4504s-2.210743 7.3215-2.208789 11.146c.001947.9791.196703 1.9482.573109 2.8518.3764.9037.92707 1.7241 1.62048 2.4143.69341.6903 1.51596 1.2368 2.42055 1.6083s1.87346.5607 2.85116.5568z" fill="#00a351"/><path d="m123.533 98.3075h-93.6878c-7.7106 0-15.1055 3.0675-20.5577 8.5275-5.45225 5.46-8.515299 12.865-8.515299 20.587 0 1.974.783389 3.868 2.177829 5.265 1.39444 1.396 3.28569 2.181 5.25772 2.181h115.32525c1.972 0 3.863-.785 5.258-2.181 1.394-1.397 2.178-3.291 2.178-5.265v-21.609c0-1.975-.784-3.869-2.178-5.265-1.395-1.3965-3.286-2.1809-5.258-2.1809z" fill="#fff"/></svg>