<svg fill="none" height="66" viewBox="0 0 66 66" width="66" xmlns="http://www.w3.org/2000/svg" xmlns:xlink="http://www.w3.org/1999/xlink"><linearGradient id="a" gradientUnits="userSpaceOnUse" x1="22.3284" x2="59.5452" y1="45.9328" y2="21.6972"><stop offset="0" stop-color="#5643eb"/><stop offset=".5927" stop-color="#8e80f7"/><stop offset="1" stop-color="#b0a6ff"/></linearGradient><linearGradient id="b" gradientUnits="userSpaceOnUse" x1="30.451" x2="12.6579" y1="57.307" y2="14.2144"><stop offset="0" stop-color="#5643f0"/><stop offset=".409796" stop-color="#5643f0"/><stop offset=".6524" stop-color="#3f2dd3"/></linearGradient><linearGradient id="c" gradientUnits="userSpaceOnUse" x1="18.7919" x2="17.1978" y1="21.838" y2="40.6901"><stop offset=".1546" stop-color="#5643eb"/><stop offset=".3721" stop-color="#8e80f7"/><stop offset=".5216" stop-color="#b0a6ff"/></linearGradient><rect fill="#fff" height="66" rx="13.9228" width="66"/><path d="m19.4413 47.0759s3.225 4.4483 15.6245 3.8922c10.3978-.5004 13.178-7.4508 15.6246-13.734 2.3909-6.2832 7.2284-20.8512 7.2284-20.8512h-13.734s-4.0591-.8897-6.9504 8.3961c-2.8914 9.2857-7.7289 25.4107-17.7931 22.2969z" fill="url(#a)"/><path d="m45.1303 46.9648s-3.9479 4.7819-15.1798 4.4482c-9.2857-.3336-11.8435-5.5603-14.29-10.6758-2.391-5.1155-4.2815-13.5116-4.2815-13.5116h14.7349l1.0565.9452.278.5561s1.3345 3.781 1.8905 5.0043c3.3918 7.284 5.1155 15.5689 15.7914 13.2336z" fill="url(#b)"/><path d="m8.76538 30.6727h14.12322s.0556-2.2797 1.2789-3.0582c1.0009-.6672 2.4466-.2224 3.225 1.0565 0 0-.5004-2.6134-4.2259-2.6134-6.0051 0-10.0086 0-10.0086 0s-4.17021.2224-4.39262 4.6151z" fill="url(#c)"/></svg>