<svg fill="none" height="66" viewBox="0 0 66 66" width="66" xmlns="http://www.w3.org/2000/svg"><rect fill="#000" height="66" rx="13.9228" width="66"/><g fill="#489f5a"><path d="m31.4688 37.4651c0 4.5391-1.4606 6.6995-9.9045 6.6995-10.1924 0-10.641-3.5348-10.6639-7.4293 0-.1445.0576-.2831.1601-.3853.1025-.1021.2416-.1595.3865-.1595h3.7557c.1421.0015.2782.0578.3797.157s.1605.2337.1648.3753c.1419 2.7821 1.5044 3.2354 5.6731 3.2354 4.3086 0 4.9575-.2205 5.0409-2.4952.0835-2.333-1.763-2.4743-6.468-2.4016-6.5369.0998-8.6275-2.231-8.6275-6.1754 0-5.1983 2.2638-6.5623 9.3244-6.5623 8.736 0 9.9983 2.3767 10.0755 7.4168.0008.0725-.0127.1444-.0399.2115-.0272.0672-.0674.1284-.1184.18-.0511.0516-.1118.0926-.1788.1207s-.1389.0427-.2116.043h-3.8537c-.1436-.001-.2811-.0579-.3832-.1585s-.1608-.237-.1635-.38c-.0772-2.9214-.9055-3.1813-5.1348-3.1813-3.6471 0-4.4733.2911-4.4733 2.3537 0 2.3621 1.2289 2.0523 4.8927 2.1562 4.851.1414 10.3677.104 10.3677 6.3793z"/><path d="m54.5597 44.1278h-4.4129c-.0807-.0014-.1601-.0208-.2323-.0568s-.1354-.0876-.1849-.1511l-6.7665-8.4586h-2.8062v8.1196c0 .1445-.0576.2831-.1602.3852-.1025.1022-.2415.1596-.3865.1596h-3.4594c-.1449 0-.284-.0574-.3865-.1596-.1025-.1021-.1601-.2407-.1601-.3852v-20.6702c0-.0714.0141-.1421.0416-.2081s.0678-.1259.1186-.1763c.0508-.0505.1111-.0904.1774-.1175.0663-.0272.1373-.041.209-.0407h3.4594c.0717-.0003.1427.0135.209.0407.0663.0271.1266.067.1774.1175.0508.0504.0911.1103.1186.1763s.0417.1367.0417.2081v8.0427h2.7603l6.5578-8.3774c.0512-.0648.1165-.1172.1909-.1533.0745-.036.1562-.0547.2389-.0546h4.3545c.1024-.0007.2029.0275.2899.0812.0871.0537.1572.1308.2023.2224.0451.0917.0633.1941.0527.2956-.0107.1015-.0499.1979-.113.2782l-7.5009 9.598c-.0754.0962-.1164.2148-.1164.3368 0 .1221.041.2407.1164.3369l7.7909 9.7269c.0636.0798.1035.1758.1151.277.0117.1013-.0054.2038-.0493.2958-.0439.0921-.1129.17-.199.2249-.0861.055-.186.0848-.2883.086z"/></g></svg>