<svg fill="none" height="169" viewBox="0 0 825 169" width="825" xmlns="http://www.w3.org/2000/svg" xmlns:xlink="http://www.w3.org/1999/xlink"><linearGradient id="a" gradientUnits="userSpaceOnUse" x1="63.9441" x2="239.467" y1="143.069" y2="28.8366"><stop offset="0" stop-color="#5643eb"/><stop offset=".5927" stop-color="#8e80f7"/><stop offset="1" stop-color="#b0a6ff"/></linearGradient><linearGradient id="b" gradientUnits="userSpaceOnUse" x1="102.237" x2="18.2657" y1="196.725" y2="-6.52271"><stop offset="0" stop-color="#fff"/><stop offset=".409796" stop-color="#b0a7ff"/><stop offset=".6524" stop-color="#604fe6"/></linearGradient><linearGradient id="c" gradientUnits="userSpaceOnUse" x1="47.2705" x2="39.7465" y1="29.4073" y2="118.338"><stop offset=".1546" stop-color="#5643eb"/><stop offset=".3721" stop-color="#8e80f7"/><stop offset=".5216" stop-color="#b0a6ff"/></linearGradient><g fill="#fff"><path d="m430.996 2.88584v.5246l-70.254 162.88856h-21.758l-70.255-162.88856v-.5246h30.933l41.419 90.23136c4.194 9.1808 7.078 16.5248 9.175 22.2958 3.408-9.181 6.553-16.5252 9.437-22.8204l40.895-89.96906h30.408z"/><path d="m452.493 2.62354h28.312v162.62646h-28.312z"/><path d="m689.208 166.299h-27.787l-12.845-87.8706c-1.049-8.3937-1.835-13.902-1.835-16.525-1.835 3.4099-4.981 8.6559-9.437 15.2135l-33.031 56.3941h-13.631l-33.03-56.1318c-3.408-4.9838-6.816-10.2298-9.962-15.7381-.262 3.1476-.524 6.2952-1.049 9.7051-.524 3.4099-.786 6.033-1.048 7.3445l-12.321 87.6083h-27.787l21.234-163.67546h16.252l43.779 75.01786c3.932 6.033 7.34 11.8036 10.486 17.0496 3.145-5.246 6.815-11.0166 10.485-17.0496l44.041-75.01786h16.253z"/><path d="m735.084 163.938c-10.223-3.41-19.398-8.394-27.263-14.689l13.107-22.033c6.292 5.246 13.108 9.443 20.972 12.328s15.991 4.459 24.38 4.459c8.65 0 15.728-1.836 21.495-5.771 5.768-3.934 8.651-9.18 8.651-16s-2.883-12.328-8.913-16.263c-6.029-3.934-14.68-7.8686-26.214-11.5408-32.244-10.4921-48.497-27.017-48.497-49.5748 0-9.1805 2.359-17.3119 7.34-24.1317s11.534-11.80349 19.661-15.47569c8.389-3.40991 17.301-5.24601 27.263-5.24601 9.437 0 18.612 1.3115 27.001 3.93451 8.389 2.623 17.039 6.81979 25.69 12.59039l-12.059 20.9841c-6.815-4.4591-13.369-7.6067-19.66-9.7052-6.292-2.0984-12.846-2.8853-19.399-2.8853-7.602 0-14.156 1.5738-19.137 4.7214-5.243 3.1477-7.864 7.6068-7.864 13.6397 0 6.8198 2.883 11.8035 8.389 15.738 5.767 3.6722 13.893 7.3444 24.641 11.0166 15.729 4.9837 28.05 11.5412 36.963 19.4103 8.912 7.869 13.369 18.0985 13.369 30.9515 0 9.967-2.621 18.361-7.602 25.705-4.981 7.345-12.059 12.853-20.71 16.788-8.65 3.934-18.612 5.77-29.36 5.77-11.272.262-22.02-1.311-32.244-4.721z"/></g><path d="m50.3327 148.462s15.2044 20.984 73.6623 18.361c49.022-2.361 62.129-35.148 73.663-64.788 11.272-29.6403 34.079-98.363 34.079-98.363h-64.75s-19.136-4.196812-32.768 39.6074c-13.631 43.8041-36.4381 119.8716-83.8863 105.1826z" fill="url(#a)"/><path d="m171.443 147.937s-18.612 22.558-71.5653 20.984c-43.7782-1.574-55.8369-26.23-67.3713-50.362-11.2722-24.1313-20.1851-63.7387-20.1851-63.7387h69.4684l4.9807 4.4591 1.3108 2.623s6.2915 17.8365 8.9129 23.6071c15.9909 34.3615 24.1169 73.4445 74.4489 62.4275z" fill="url(#b)"/><path d="m0 71.0834h66.5848s.2621-10.7543 6.0293-14.4265c4.7186-3.1476 11.5344-1.0491 15.2045 4.9838 0 0-2.3594-12.3282-19.9231-12.3282-28.3116 0-47.1861 0-47.1861 0s-19.66082 1.0492-20.7094 21.7709z" fill="url(#c)"/></svg>