<svg fill="none" height="233" viewBox="0 0 148 233" width="148" xmlns="http://www.w3.org/2000/svg"><path d="m8.23466 49.12h93.69134c7.711 0 15.106 3.0675 20.559 8.5276 5.452 5.4602 8.515 12.8657 8.515 20.5876 0 1.9749-.783 3.8689-2.178 5.2653-1.394 1.3965-3.285 2.181-5.258 2.181h-115.32934c-1.9721 0-3.86342-.7845-5.25791-2.181-1.39449-1.3964-2.177922-3.2904-2.177922-5.2653v-21.6689c0-1.9749.783432-3.8689 2.177922-5.2653 1.39449-1.3965 3.28581-2.181 5.25791-2.181z" fill="#fff"/><path d="m123.55 232.241h-115.31534c-1.9721 0-3.86347-.784-5.25796-2.181-1.39448-1.396-2.177872-3.29-2.177872-5.265v-21.669c0-1.975.783392-3.869 2.177872-5.266 1.39449-1.396 3.28586-2.181 5.25796-2.181h93.69134c7.711 0 15.106 3.068 20.559 8.528 5.452 5.46 8.515 12.866 8.515 20.588 0 .979-.193 1.948-.567 2.853-.375.904-.924 1.726-1.616 2.417-.692.692-1.513 1.24-2.417 1.614-.904.373-1.873.564-2.85.562z" fill="#fff"/><path d="m8.23501 146.802h115.31499c1.972 0 3.863.785 5.258 2.181 1.394 1.397 2.178 3.291 2.178 5.266v21.609c0 1.975-.784 3.869-2.178 5.265-1.395 1.397-3.286 2.181-5.258 2.181h-93.6916c-7.693.012-15.077-3.029-20.53488-8.459-5.45784-5.429-8.544505-12.803-8.583846-20.507-.011901-.99.173618-1.973.545706-2.891.37209-.917.92329-1.752 1.62128-2.453.69799-.702 1.52877-1.257 2.4437-1.634.91493-.376 1.89561-.566 2.88465-.558z" fill="#00a351"/><path d="m24.9457 36.5895h115.2953c1.972 0 3.864-.7845 5.258-2.1809 1.395-1.3964 2.178-3.2904 2.178-5.2652v-21.66801c0-1.97482-.783-3.86876-2.178-5.26517-1.394-1.396405-3.286-2.1808926-5.258-2.1808926h-93.6876c-7.7106 0-15.1054 3.0673626-20.5577 8.5273226-5.4522 5.45995-8.5153 12.86525-8.5153 20.58675 0 .9804.1933 1.9511.5688 2.8564.3756.9054.9259 1.7275 1.6195 2.4194.6936.6918 1.5168 1.2396 2.4224 1.612.9056.3725 1.8756.5622 2.8546.5583z" fill="#00a351"/><path d="m24.9457 134.266h115.2953c1.972 0 3.864-.784 5.258-2.181 1.395-1.396 2.178-3.29 2.178-5.265v-21.668c0-1.975-.783-3.869-2.178-5.265-1.394-1.3964-3.286-2.1809-5.258-2.1809h-93.6876c-7.7055-.0079-15.0989 3.0479-20.5559 8.4959s-8.5311 12.842-8.5468 20.559c-.0079.987.1805 1.967.5544 2.881.3738.914.9256 1.745 1.6232 2.444.6975.698 1.5269 1.251 2.4398 1.625.913.374 1.8911.563 2.8776.555z" fill="#fff"/><path d="m24.9457 183.099h115.2953c1.972 0 3.864-.785 5.258-2.181 1.395-1.397 2.178-3.291 2.178-5.265v-21.639c0-1.975-.783-3.868-2.178-5.265-1.394-1.396-3.286-2.181-5.258-2.181h-93.6876c-7.7106 0-15.1054 3.068-20.5577 8.528-5.4522 5.46-8.5153 12.865-8.5153 20.586.0039.978.2001 1.946.5774 2.848.3772.901.9282 1.72 1.6215 2.409.6932.688 1.515 1.234 2.4186 1.604.9037.371 1.8713.559 2.8478.556z" fill="#fff"/><path d="m24.9457 231.914h115.2953c1.972 0 3.864-.784 5.258-2.181 1.395-1.396 2.178-3.29 2.178-5.265v-21.668c0-1.975-.783-3.869-2.178-5.265-1.394-1.396-3.286-2.181-5.258-2.181h-93.6876c-7.7106 0-15.1054 3.068-20.5577 8.527-5.4522 5.46-8.5153 12.866-8.5153 20.587 0 .981.1933 1.951.5688 2.857.3756.905.9259 1.727 1.6195 2.419s1.5168 1.24 2.4224 1.612c.9056.373 1.8756.562 2.8546.558z" fill="#00a351"/></svg>