<svg fill="none" height="130" viewBox="0 0 825 130" width="825" xmlns="http://www.w3.org/2000/svg"><g fill="#fff"><path d="m119.397 89.3902c0 26.4268-8.468 39.0058-57.4981 39.0058-59.16513 0-61.765545-20.581-61.8989-43.251 0-.4173.0822177-.8306.241942-1.2163.159724-.3856.393829-.7359.688961-1.0311.295127-.2951.645507-.5292 1.031117-.689.38561-.1597.79889-.2418 1.21627-.2418h21.75911c.826.0052 1.6181.3296 2.2105.9054.5923.5758.9391 1.3583.9678 2.1839.8223 16.2029 8.7347 18.8479 32.9164 18.8479 25.004 0 28.8935-1.289 29.2491-14.5138.5112-13.58-10.2238-14.4024-37.5393-13.9801-37.9395.5779-50.07481-13.0021-50.07481-35.9836 0-30.24931 13.13551-38.20616 54.11991-38.20616 50.697 0 58.032 13.84666 58.476 43.18476.006.4221-.072.8413-.229 1.2333-.156.392-.389.7491-.685 1.0507-.295.3016-.647.5419-1.036.7068s-.806.2513-1.228.2542h-22.226c-.8336-.0056-1.6321-.3363-2.2256-.9215-.5936-.5853-.9354-1.379-.9527-2.2123-.4445-17.025-5.2453-18.5364-29.8048-18.5364-21.159 0-25.9598 1.6892-25.9598 13.7133 0 13.7578 7.1345 11.9575 28.4046 12.5576 28.049.8001 60.0763.5779 60.0763 37.1394z"/><path d="m241.95 1.99844h20.982c.839-.00002 1.644.33175 2.239.923.596.59125.933 1.39395.939 2.23303v119.21953c0 .416-.082.828-.242 1.213-.16.384-.395.733-.69 1.026-.296.294-.646.526-1.032.683-.385.157-.798.237-1.214.234h-20.982c-.837 0-1.639-.333-2.231-.925-.592-.591-.925-1.394-.925-2.231v-47.2301h-65.744v47.2301c0 .416-.082.828-.242 1.213-.16.384-.394.733-.69 1.026-.295.294-.646.526-1.031.683-.386.157-.799.237-1.215.234h-20.981c-.416.003-.829-.077-1.215-.234-.385-.157-.736-.389-1.031-.683-.296-.293-.53-.642-.69-1.026-.16-.385-.242-.797-.242-1.213v-119.21953c.006-.83908.343-1.64178.938-2.23303.596-.59125 1.401-.92302 2.24-.923h20.981c.839-.00002 1.644.33175 2.24.923.595.59125.933 1.39395.938 2.23303v47.31873h65.633v-47.31873c.003-.4231.09-.84133.257-1.23026.166-.38894.409-.74069.713-1.03465.305-.29396.665-.52424 1.059-.67726s.816-.22571 1.238-.21386z"/><path d="m417.712 127.575h-21.581c-.656-.002-1.296-.206-1.833-.583-.537-.378-.944-.912-1.168-1.529l-6.667-18.603h-64.166l-6.668 18.603c-.221.619-.628 1.155-1.165 1.533s-1.179.58-1.836.579h-21.559c-.507-.003-1.007-.127-1.457-.362-.45-.236-.837-.576-1.129-.991-.291-.416-.479-.895-.547-1.399-.069-.503-.015-1.015.155-1.493l42.763-119.17529c.197-.6379.592-1.19675 1.127-1.59612.535-.39938 1.183-.6187 1.851-.62646h41.295c.668.00776 1.316.22708 1.851.62646.536.39937.93.95822 1.128 1.59612l42.673 119.17529c.179.485.236 1.007.165 1.519-.07.513-.265 1-.568 1.42-.303.419-.705.757-1.169.985-.465.228-.978.338-1.495.321zm-40.184-45.6299-19.737-55.1201h-6.867l-19.737 55.1201z"/><path d="m825 6.9771v18.3363c0 .4174-.082.8307-.242 1.2163s-.394.736-.689 1.0311-.645.5293-1.031.689-.799.2419-1.216.2419h-72.745v25.7819h72.745c.417 0 .83.0823 1.216.242s.736.3938 1.031.689c.295.2951.529.6455.689 1.0311s.242.7989.242 1.2163v18.3363c0 .8429-.335 1.6513-.931 2.2473-.596.5961-1.404.931-2.247.931h-72.745v25.4044h72.745c.843 0 1.651.334 2.247.931.596.596.931 1.404.931 2.247v18.67c-.006.839-.343 1.641-.939 2.233-.595.591-1.4.923-2.239.923h-96.905c-.843 0-1.651-.335-2.247-.931s-.931-1.405-.931-2.248v-119.2189c0-.84293.335-1.65136.931-2.2474.596-.59605 1.404-.93087 2.247-.93087h96.905c.843 0 1.651.33482 2.247.93087.596.59604.931 1.40447.931 2.2474z"/><path d="m562.224 64.8086c0 49.6304-15.558 63.8544-64.455 63.8544-47.363 0-64.455-14.224-64.455-63.8544 0-52.7641 17.136-63.832526 64.455-63.832526 47.652 0 64.455 11.068426 64.455 63.832526zm-26.671 0c0-24.4484 0-35.9836-37.784-35.9836s-37.784 11.1129-37.784 35.9836 0 35.9834 37.784 35.9834 37.695-11.8239 37.695-35.9834z"/><path d="m694.201 129.997h-25.516c-.475-.001-.943-.11-1.37-.318-.428-.207-.802-.509-1.097-.882l-39.273-49.2523h-16.247v47.2743c0 .417-.082.831-.242 1.216-.159.386-.393.736-.689 1.032-.295.295-.645.529-1.031.688-.385.16-.799.242-1.216.242h-20.003c-.427.015-.852-.056-1.251-.209-.398-.153-.762-.385-1.069-.681-.307-.297-.551-.652-.718-1.045-.166-.393-.252-.816-.252-1.243v-120.39717c0-.84294.335-1.65136.931-2.24741.596-.59604 1.405-.93087 2.248-.93087h20.003c.843 0 1.651.33483 2.247.93087.596.59605.931 1.40447.931 2.24741v46.82977h16.025l38.051-48.89675c.301-.37792.683-.68377 1.117-.89526.435-.21149.911-.32325 1.394-.32714h25.293c.596-.00118 1.18.16525 1.686.48029s.913.76596 1.175 1.30135c.262.53538.368 1.13362.307 1.72642-.062.59279-.29 1.15631-.656 1.6261l-43.541 56.09789c-.443.5554-.685 1.2451-.685 1.9559s.242 1.4005.685 1.9559l45.23 56.6537c.345.467.556 1.02.61 1.598.053.579-.053 1.161-.308 1.684-.254.522-.647.965-1.135 1.279-.488.315-1.053.49-1.634.506z"/></g></svg>