<svg fill="none" height="40" viewBox="0 0 40 40" width="40" xmlns="http://www.w3.org/2000/svg" xmlns:xlink="http://www.w3.org/1999/xlink"><clipPath id="a"><path d="m0 0h40v40h-40z"/></clipPath><g clip-path="url(#a)"><path d="m15.9882 38.9879 5.6535-3.5493 6.2736 2.281 2.4876-6.1945 6.4162-1.8422-1.6286-6.4736 4.108-5.2617-5.1226-4.2801.2307-6.67136-6.6601-.45162-3.7346-5.5329-5.6536 3.54933-6.2736-2.28102-2.4876 6.19456-6.41617 1.84211 1.62855 6.4737-4.108013 5.2616 5.122663 4.2801-.23074 6.6714 6.66011.4516z" fill="#fdfeff"/><path d="m17.3455 32.5783 3.7462-2.3519 4.1571 1.5115 1.6483-4.1047 4.2516-1.2207-1.0791-4.2896 2.722-3.4866-3.3944-2.8361.1529-4.4206-4.4132-.2993-2.4747-3.66624-3.7462 2.35188-4.1571-1.51147-1.6483 4.10473-4.25157 1.2206 1.07913 4.2897-2.72209 3.4865 3.39443 2.8361-.1529 4.4207 4.4132.2992z" fill="#e46e3e"/></g></svg>