<svg fill="none" height="66" viewBox="0 0 203 66" width="203" xmlns="http://www.w3.org/2000/svg"><rect fill="#e46e3e" height="66" rx="13.9228" width="203"/><g fill="#fff"><path d="m62.2203 30.8131c-1.6941-1.6058-4.187-2.6215-7.4026-3.043-1.3158-.1358-2.6039-.4673-3.8217-.9835-.6584-.2713-1.2254-.7254-1.6339-1.3087-.2969-.483-.454-1.0389-.4537-1.6058-.0371-.4828.058-.9667.2752-1.3995.2171-.4329.5481-.7984.9573-1.0573.9795-.6383 2.3123-.9595 3.9422-.9595.8087.0032 1.6115.1388 2.3765.4015.5829.2044 1.1202.5208 1.5817.9313.4455.4038.838.8624 1.1682 1.3649.3526.6365.9383 1.1114 1.6339 1.3248.3589.1169.7387.1559 1.1139.1144.3752-.0416.7372-.1627 1.0619-.3553.309-.1803.5762-.4242.7838-.7156.2076-.2913.351-.6235.4205-.9745.0732-.3642.0707-.7397-.0073-1.1029-.078-.3633-.23-.7066-.4463-1.0087-.6106-.992-1.3717-1.8832-2.2561-2.6415-.9509-.8173-2.0379-1.4613-3.2116-1.9028-1.3296-.4904-2.7379-.7326-4.1549-.7146-1.8242-.0271-3.6358.3058-5.3312.9795-1.531.5976-2.8713 1.5993-3.8779 2.8985-.9863 1.3345-1.5043 2.9574-1.4733 4.6166-.014 1.1841.2351 2.3565.7294 3.4326s1.2214 2.0289 2.1289 2.7898c1.8185 1.6057 4.3195 2.5893 7.4347 2.9305 2.0554.2328 3.5367.8029 4.4159 1.6539.3958.3642.7116.8067.9272 1.2995.2157.4927.3264 1.025.3253 1.5628.0375.7653-.1815 1.5211-.6223 2.1478-.4814.6252-1.1279 1.1035-1.8667 1.381-.9403.3633-1.9427.5392-2.9506.5178-.9517.0109-1.8995-.1245-2.8101-.4014-.7503-.2257-1.4545-.5833-2.0795-1.0558-.4945-.3814-.9046-.8612-1.2043-1.4091-.2837-.5944-.7471-1.0846-1.3248-1.401-.5966-.3315-1.2971-.4234-1.959-.257-.3692.0796-.7176.2352-1.0232.4571-.3055.2219-.5614.5051-.7512.8316-.1932.3419-.2977.7267-.304 1.1194s.0858.7807.2679 1.1286c.5734 1.304 1.4436 2.456 2.5411 3.3641 1.1585.9579 2.486 1.6905 3.9141 2.1598 1.5255.5102 3.1245.7665 4.733.7588 1.3778.0065 2.7492-.1883 4.0707-.5781 1.2609-.3647 2.4417-.964 3.4805-1.7664 1.0159-.795 1.8392-1.8091 2.4086-2.9666.6099-1.2648.9151-2.6548.8912-4.0587 0-2.6575-.8912-4.8414-2.6455-6.4993"/><path d="m90.2048 28.2321c-.9603-1.6785-2.3446-3.0753-4.0144-4.0506-1.7603-1.0052-3.758-1.5195-5.7848-1.4893-1.9617-.0291-3.8954.467-5.6008 1.4369-1.7053.9698-3.1203 2.3781-4.0981 4.0789-1.0032 1.7328-1.5347 3.6983-1.5416 5.7005v17.0132c-.0094.3625.0551.723.1897 1.0597.1345.3367.3362.6424.5927.8986.2566.2562.5626.4575.8995.5915s.6976.198 1.06.1881c.3636.0082.725-.0589 1.0614-.1971.3365-.1382.6407-.3444.8936-.6058.4944-.5229.7627-1.2196.7467-1.939v-7.6274c.4608.3396.9481.6416 1.4572.9032 1.4893.7655 3.143 1.1555 4.8174 1.1361 1.9581.0258 3.8847-.494 5.564-1.5014 1.6252-.9872 2.9582-2.3895 3.8619-4.0626.9464-1.7623 1.4285-3.7365 1.401-5.7366.0291-2.0305-.4851-4.0319-1.4893-5.7969zm-14.8855 2.5893c.4884-.9054 1.216-1.6594 2.1035-2.1798.902-.5391 1.936-.8171 2.9868-.8029 1.0679-.0201 2.1203.2579 3.0389.8029.8876.5294 1.618 1.286 2.1156 2.1919.5353.9842.8038 2.0914.7788 3.2115.0156 1.1107-.254 2.2067-.7828 3.1835-.4889.9062-1.2163 1.6614-2.1036 2.1838-.9244.5147-1.9648.7848-3.0228.7848s-2.0985-.2701-3.0229-.7848c-.8876-.5127-1.6126-1.2655-2.0915-2.1718-.5042-.9912-.767-2.0875-.767-3.1995s.2628-2.2083.767-3.1995"/><path d="m118.507 33.1656c-.116-1.7369-.627-3.4243-1.494-4.9338-.959-1.6791-2.344-3.076-4.014-4.0506-1.735-.9989-3.707-1.5133-5.709-1.4893-2.018-.0264-4.007.4864-5.76 1.4853-1.6852.9697-3.0829 2.3688-4.0509 4.0546-1.0042 1.765-1.5184 3.7664-1.4894 5.7969-.0271 2.0038.4624 3.9808 1.4211 5.7406.9138 1.6699 2.2513 3.0698 3.8782 4.0586 1.679 1.0074 3.606 1.5272 5.564 1.5014 1.878.0215 3.725-.4714 5.343-1.4251.335-.2018.66-.4215.971-.6584.123.4403.361.8395.691 1.1562.529.4734 1.213.7351 1.923.7351s1.394-.2617 1.923-.7351c.271-.2511.486-.5571.63-.8977.144-.3405.214-.7078.205-1.0774v-9.2493zm-6.138 4.0545c-.477.9051-1.197 1.6587-2.08 2.1759-.676.4028-1.426.6659-2.205.7736-.78.1077-1.573.0579-2.333-.1465s-1.471-.5592-2.091-1.0434c-.621-.4843-1.137-1.088-1.52-1.7756-.522-.98-.795-2.0732-.795-3.1835 0-1.1102.273-2.2035.795-3.1834.507-.9074 1.244-1.666 2.136-2.1999.67-.4055 1.416-.6709 2.192-.7804s1.566-.0607 2.322.1434c.757.204 1.464.5591 2.08 1.044.616.4848 1.127 1.0892 1.503 1.7768.505.9908.769 2.0873.769 3.1995 0 1.1123-.264 2.2087-.769 3.1995"/><path d="m137.033 23.3539c-.831-.4697-1.955-.6864-3.4-.6864-1.575-.0165-3.125.3912-4.488 1.1802-.276.1549-.544.3237-.803.5058-.12-.2707-.288-.517-.498-.7266-.378-.397-.867-.6697-1.404-.7817-.537-.1121-1.095-.0583-1.6.1543s-.934.5738-1.229 1.0358-.443 1.0028-.423 1.5507v16.8606c0 .7166.284 1.4037.791 1.9104s1.194.7913 1.91.7913c.717 0 1.404-.2846 1.911-.7913.506-.5067.791-1.1938.791-1.9104v-10.8229c-.026-.7753.229-1.534.719-2.1357.55-.6517 1.283-1.1241 2.103-1.3569 1.065-.3046 2.183-.3704 3.276-.1927h.088c1.068.0683 1.827.0683 2.497-.3171.268-.1607.497-.378.672-.6367.175-.2586.291-.5524.34-.8607.142-.5388.093-1.1101-.139-1.6166-.233-.5065-.633-.917-1.134-1.1614"/><path d="m159.859 41.0135-6.716-8.2577 6.219-5.5921c.27-.2155.493-.4857.652-.7929.159-.3073.252-.6447.272-.9902s-.033-.6913-.155-1.015c-.123-.3236-.313-.6177-.557-.8631-.452-.514-1.087-.8309-1.77-.8832-.345-.0191-.69.0334-1.013.1543-.323.121-.618.3076-.866.5482l-7.844 7.0815v-13.356c.009-.3584-.054-.7151-.185-1.0488s-.327-.6378-.578-.8942c-.25-.2475-.547-.4425-.874-.5735s-.677-.1953-1.029-.1893c-.358-.0129-.716.0482-1.05.1797-.333.1314-.637.3303-.89.5843-.254.2539-.452.5574-.583.8915s-.192.6917-.178 1.0503v25.3913c-.014.3584.047.7158.178 1.0497s.329.6372.583.8908.557.4521.891.5831.691.1916 1.049.1781c.353.0077.703-.0559 1.03-.187s.624-.3269.873-.5757c.251-.2557.447-.5591.578-.8921.131-.3331.194-.6891.185-1.0469v-5.1224l1.136-1.0237 6.536 8.0289c.21.2816.476.5166.781.69.305.1735.644.2816.993.3176.078.0043.155.0043.233 0 .628-.006 1.233-.2399 1.702-.6584.286-.2127.523-.4838.696-.7953.173-.3114.278-.6561.308-1.0112.035-.6808-.187-1.3499-.623-1.8747"/></g></svg>