<svg fill="none" height="66" viewBox="0 0 150 66" width="150" xmlns="http://www.w3.org/2000/svg"><rect fill="#fff" height="66" rx="13.9228" width="150"/><g fill="#5b40ff"><path d="m51.8239 35.1489c0 6.1119-4.0854 10.8804-10.2515 10.8804-2.4769 0-4.6756-.8293-6.4443-2.287l-.1939 1.3096c-.0464.311-.312.5416-.6261.5416h-4.6757c-.3499 0-.6324-.2835-.6324-.6347v-26.3241c0-.3512.2825-.6347.6324-.6347h5.6896c.35 0 .6325.2835.6325.6347v7.2902c1.5705-1.0662 3.4951-1.6564 5.6179-1.6564 5.9679 0 10.2515 4.5357 10.2515 10.8804zm-6.9102 0c0-2.6805-1.8867-4.5739-4.5197-4.5739-2.6329 0-4.5196 1.8934-4.5196 4.5739 0 2.6804 1.8867 4.5738 4.5196 4.5738 2.633 0 4.5197-1.8892 4.5197-4.5738z"/><path d="m94.3768 34.5329 6.0712 9.19c.114.1735.175.3766.175.5839v.182c0 .3512-.283.6347-.6325.6347h-6.3051c-.3753 0-.7231-.201-.9128-.5289l-2.9998-5.2001-2.9997 5.2001c-.1877.3258-.5355.5289-.9128.5289h-6.3811c-.3499 0-.6324-.2835-.6324-.6347v-.182c0-.2073.0611-.4104.175-.5839l6.1091-9.2662-5.833-8.8791c-.1138-.1734-.1749-.3744-.1749-.5817v-.1841c0-.3512.2824-.6347.6324-.6347h6.2229c.3774 0 .7273.2031.9149.531l1.5031 2.6297 1.3723 2.4477 1.4166-2.4477 1.4672-2.6212c.1876-.3343.5376-.5395.9191-.5395h6.1408c.3497 0 .6327.2835.6327.6347v.1862c0 .2052-.059.404-.171.5775z"/><path d="m114.848 38.8783h4.813c.35 0 .632.2835.632.6346v4.978c0 .3512-.282.6347-.632.6347h-16.453c-.35 0-.633-.2835-.633-.6347v-2.3589c0-.2137.066-.4231.186-.5987l7.694-11.2295h-6.777c-.35 0-.633-.2835-.633-.6346v-4.8574c0-.3512.283-.6347.633-.6347h15.827c.35 0 .632.2835.632.6347v2.0373c0 .2158-.065.4273-.189.6051l-7.964 11.4664z"/><path d="m62.0705 35.1787c0 2.6614 1.9225 4.5422 4.469 4.5422 2.5908 0 4.4691-1.8808 4.4691-4.5422h6.9418c0 6.3065-4.7853 10.8508-11.4109 10.8508s-11.4108-4.5421-11.4108-10.8508z"/></g><path d="m71.0105 35.1781c0-2.6995-1.8846-4.6056-4.4691-4.6056-2.5465 0-4.469 1.9083-4.469 4.6056h-6.9461c0-6.4313 4.7832-11.001 11.4088-11.001s11.4151 4.5676 11.4151 11.001z" fill="#1ae2d3"/><path d="m58.8891 31.2966 4.5914 4.9822c.2487.2708.059.7108-.3099.7108h-9.1827c-.3668 0-.5586-.44-.3099-.7108l4.5914-4.9822c.1686-.1819.4532-.1819.6197 0z" fill="#5b40ff"/><path d="m74.8084 39.3631 4.5914-4.9822c.2487-.2708.059-.7109-.3099-.7109h-9.1827c-.3668 0-.5586.4401-.3099.7109l4.5914 4.9822c.1665.1819.4511.1819.6197 0z" fill="#1ae2d3"/></svg>