<svg fill="none" height="184" viewBox="0 0 184 184" width="184" xmlns="http://www.w3.org/2000/svg" xmlns:xlink="http://www.w3.org/1999/xlink"><clipPath id="a"><path d="m37.2551 30.2695h110.213v110.213h-110.213z"/></clipPath><rect fill="#5643f0" height="184" rx="20" width="184"/><g clip-path="url(#a)"><path d="m111.226 61.6915-.025-.0021-.025.0012c-1.182.0529-2.119.097-3.015.2936-.908.1993-1.763.5514-2.806 1.2018-3.042 1.8975-5.668 5.5718-7.1442 10.1153-1.4786 4.5512-1.8156 10.0092-.2409 15.5091 4.3761 15.2846 21.2181 23.9256 45.9051 23.9256 1.77 0 3.205 1.435 3.205 3.206v14.373c0 1.77-1.435 3.205-3.205 3.205h-.059-.061-.063-.064-.066-.068-.069-.071-.073-.074-.076-.077-.079-.081-.082-.083-.086-.087-.088-.09-.092-.093-.094-.096-.098-.099-.101-.102-.104-.105-.106-.108-.11-.111-.113-.113-.116-.117-.118-.119-.122-.122-.124-.125-.127-.128-.129-.131-.132-.134-.135-.136-.137-.139-.14-.142-.143-.144-.145-.147-.148-.149-.151-.151-.153-.155-.155-.157-.158-.159-.161-.161-.163-.164-.166-.166-.168-.168-.17-.172-.172-.173-.175-.175-.177-.178-.179-.18-.182-.182-.183-.185-.186-.186-.188-.189-.189-.191-.192-.193-.194-.195-.196-.197-.198-.199-.2-.201-.202-.202-.204-.205-.206-.206-.208-.208-.21-.21-.211-.212-.213-.214-.215-.215-.217-.217-.218-.219-.22-.221-.221-.223-.223-.224-.225-.225-.226-.228-.227-.229-.229-.231-.23-.232-.232-.234-.233-.235-.235-.236-.237-.237-.238-.239-.239-.24-.241-.241-.242-.242-.244-.243-.245-.245-.245-.247-.246-.248-.248-.248-.249-.25-.25-.251-.251-.252-.253-.252-.254-.254-.254-.255-.255-.256-.256-.257-.257-.258-.258-.258-.259-.26-.26-.26-.26-.261-.262-.262-.262-.262-.263-.263-.264-.264-.264-.265-.265-.265-.266-.266-.266-.266-.267-.267-.267-.268-.268-.268-.268-.269-.269-.269-.269-.269-.27-.27-.27-.2704-.2704-.2707-.2708-.2709-.2711-.2713-.2714-.2715-.2717-.2718-.2719-.272-.2721-.2722-.2723-.2724-.2725-.2725-.2726-.2726-.2727-.2728-.2727-.2728-.2729-.2728-.2729-.2728-.2729-.2728-.2729-.2728-.2728-.2727-.2727-.2727-.2726-.2725-.2725-.2724-.2723-.2722-.2722-.272-.2719-.2719-.2716-.2716-.2714-.2713-.2712-.271-.2708-.2706-.2705-.2703-.2702-.2699-.2697-.2696-.2693-.2691-.2688-.2687-.2683-.2682-.2679-.2676-.2674-.2671-.2668-.2666-.2662-.266-.2656-.2654-.265-.2647-.2643-.2641-.2637-.2633-.263-.2626-.2622-.2619-.2615-.2611-.2606-.2603-.2599-.2595-.259-.2587-.2581-.2578-.2573-.2568-.2564-.2559-.2554-.255-.2544-.254-.2534-.253-.2524-.2519-.2514-.2509-.2503-.2498-.2492-.2487-.2481-.2475-.2469-.2464-.2457-.2452-.2445-.244-.2433-.2427-.242-.2414-.2408-.2401-.2395-.2388-.2381-.2375-.2367-.2361-.2354-.2347-.2339-.2333-.2325-.2318-.231-.2303-.2296-.2288-.228-.2273-.2264-.2257-.2249-.2242-.2233-.2225-.2217-.2208-.2201-.2192-.2183-.2175-.2167-.2158-.2149-.214-.2132-.2123-.2113-.2105-.2096-.2086-.2078-.2068-.2059-.2049-.204-.203-.2021-.2011-.2001-.1991-.1982-.1972-.1961-.1952-.1942-.1931-.1921-.1911-.19-.189-.1879-.1869-.1858-.1847-.1837-.1825-.1815-.1804-.1793-.1781-.1771-.1759-.1748-.1737-.1725-.1713-.1702-.1691-.1678-.1667-.1655-.1643-.1632-.1619-.1607-.1595-.1582-.1571-.1558-.1545-.1533-.1521-.1508-.1495-.1482-.147-.1457-.1444-.143-.1418-.1405-.1391-.1378-.1365-.1351-.1338-.1324-.1311-.1297-.1283-.1269-.1256-.1242-.1227-.1214-.1199-.1186-.1171-.1156-.1142-.1128-.1113-.1099-.1084-.1069-.1055-.104-.1024-.101-.0995-.0979-.0965-.0949-.0934-.0918-.0903-.0888-.0871-.0857-.084-.0825-.0809-.0793-.0777-.0761-.0745-.0729-.0712-.0697-.0679-.0664-.0647-.063-.0614-.0597-.058c-1.8391 0-3.3042-1.547-3.2003-3.386l-.3875-.022.3875.022c.1385-2.455.1131-5.308.0654-8.455-.006-.4-.0124-.805-.0189-1.215-.0447-2.816-.0928-5.854-.0513-9.058.3816-29.5116 12.3883-46.9765 22.3711-56.4287 12.0688-11.4269 28.2452-17.8897 44.3598-17.7425l.003-.3881-.003.3881c10.793.0975 20.633 3.2541 27.717 8.8609 7.908 6.2579 12.06 15.0801 12.006 25.5405-.03 5.8794-1.967 12.0832-5.463 17.4616-1.198 1.8427-2.748 3.813-4.431 5.4145-1.691 1.6091-3.478 2.8095-5.15 3.1751-2.148.4694-4.055-.4332-4.908-2.2657-.381-.818-.559-1.8051-.619-3.1062-.06-1.3033 0-2.8862.077-4.8895v-.0146c.129-3.3745.292-7.6461-.211-11.6455-.502-3.9935-1.677-7.8025-4.299-10.1691-2.613-2.359-5.271-3.6857-7.883-3.9053zm-67.0528 65.0275-.003.391h.3911 19.1168.6165l-.2666-.556c-3.1745-6.62-4.8411-13.796-4.8599-21.059-.0455-17.6869 9.5507-34.7303 25.2252-43.7492 7.7312-4.4481 16.6127-6.6869 25.7657-6.5164v.0003l.014-.0003c4.438-.0788 9.002 1.7923 13.231 5.6088 3.67 3.3128 5.41 7.9721 6.188 12.8499.778 4.8787.587 9.9271.432 13.9827-.006.1435-.011.2896-.017.4374-.007.1983-.015.3996-.022.6018l-.038 1.0538.712-.7777c2.998-3.2745 7.003-9.6228 7.043-17.3827.049-9.5502-4.141-16.5195-10.433-21.1073-6.279-4.5778-14.634-6.7753-22.938-6.8503-12.6563-.1264-27.5638 4.6341-39.3885 15.5321-11.8333 10.906-20.5581 27.9385-20.8735 52.3111-.0362 2.805-.0014 5.492.038 8.037.0041.266.0083.53.0124.793.0356 2.254.0693 4.39.0538 6.4zm27.3007.198.1123.193h.2229 17.1909 1.1886l-.9595-.701c-2.9595-2.164-5.5756-4.77-7.7981-7.795-5.3701-7.31-8.0657-16.624-7.5798-26.2282.3024-5.9761 1.8238-11.701 4.3995-16.7719l-.6296-.4407c-12.9742 13.8818-16.2175 34.4728-6.1472 51.7438zm36.4691.189.028.004h.028 32.283.388v-.388-7.243-.376l-.376-.012c-13.395-.427-24.414-3.286-32.816-8.487-7.9099-4.898-13.3219-11.8244-15.6709-20.0283-2.0346-7.1071-1.6638-15.0769 1.3354-22.0234l.5914-1.3695-1.1838.9077c-7.8492 6.019-11.8307 15.4202-12.296 24.6193-.3798 7.5052 1.4928 15.3702 5.9913 21.7292 4.504 6.368 11.6267 11.207 21.6976 12.667z" fill="#fff" stroke="#fff" stroke-width=".776149"/></g></svg>