<svg fill="none" height="134" viewBox="0 0 132 134" width="132" xmlns="http://www.w3.org/2000/svg"><g fill="#fff"><path d="m8.45068 84.5596h115.31032c1.972 0 3.864-.7845 5.258-2.1809s2.178-3.2903 2.178-5.2652v-21.6679c0-1.9749-.784-3.8688-2.178-5.2652s-3.286-2.1809-5.258-2.1809h-93.6877c-7.7107 0-15.1055 3.0674-20.55776 8.5273-5.45225 5.46-8.5153 12.8652-8.5153 20.5867 0 .9791.19281 1.9486.56742 2.853.3746.9044.92363 1.7259 1.61566 2.4175s1.51349 1.2398 2.41733 1.6131 1.87233.5645 2.85003.5625z"/><path d="m8.45068 36.5596h115.31032c1.972 0 3.864-.7845 5.258-2.1809s2.178-3.2903 2.178-5.2652v-21.66794c0-1.97481-.784-3.86873-2.178-5.26513-1.394-1.396409-3.286-2.18091828-5.258-2.18091828h-93.6877c-7.7107 0-15.1055 3.06737828-20.55776 8.52732828-5.45225 5.45996-8.5153 12.86516-8.5153 20.58666 0 .9791.19281 1.9486.56742 2.853.3746.9044.92363 1.7259 1.61566 2.4175s1.51349 1.2398 2.41733 1.6131 1.87233.5645 2.85003.5625z"/><path d="m7.90599 133.914h115.31101c1.972 0 3.863-.784 5.257-2.181 1.395-1.396 2.178-3.29 2.178-5.265v-21.668c0-1.975-.783-3.869-2.178-5.2649-1.394-1.3964-3.285-2.1809-5.257-2.1809h-93.6884c-3.8192-.002-7.6013.7496-11.1303 2.2119-3.5291 1.4619-6.7358 3.6069-9.43706 6.3099-2.70126 2.704-4.84408 5.914-6.30607 9.447-1.46198 3.534-2.214481 7.321-2.214481 11.145-.000015.981.193298 1.951.568831 2.857.37552.905.92587 1.727 1.61949 2.419.69361.692 1.51683 1.24 2.42239 1.612.90555.373 1.87564.562 2.85459.558z"/></g></svg>