<svg fill="none" height="184" viewBox="0 0 184 184" width="184" xmlns="http://www.w3.org/2000/svg"><rect fill="#fff" height="184" rx="20" width="184"/><path d="m36 91.8438s21.1875-38.8438 56.5-38.8438c35.312 0 56.5 38.8438 56.5 38.8438s-21.188 38.8442-56.5 38.8442c-35.3125 0-56.5-38.8442-56.5-38.8442zm56.5 24.7182c6.5558 0 12.843-2.604 17.479-7.239 4.635-4.636 7.24-10.9234 7.24-17.4792 0-6.5559-2.605-12.8432-7.24-17.4788-4.636-4.6357-10.9232-7.24-17.479-7.24s-12.8431 2.6043-17.4788 7.24c-4.6357 4.6356-7.24 10.9229-7.24 17.4788 0 6.5558 2.6043 12.8432 7.24 17.4792 4.6357 4.635 10.923 7.239 17.4788 7.239z" fill="#191919"/></svg>