<svg fill="none" height="66" viewBox="0 0 203 66" width="203" xmlns="http://www.w3.org/2000/svg"><rect fill="#000" height="66" rx="13.9228" width="203"/><g fill="#fff"><path d="m50.7729 37.1372c0 4.5736-1.4656 6.7508-9.9512 6.7508-10.2397 0-10.6897-3.562-10.7128-7.4855 0-.0722.0142-.1438.0419-.2105.0276-.0667.0681-.1274.1192-.1785.0511-.051.1117-.0916.1785-.1192.0667-.0277.1382-.0419.2105-.0419h3.7658c.143.0009.28.0571.3826.1567.1025.0997.1625.2351.1674.378.1424 2.8042 1.5118 3.2619 5.6969 3.2619 4.3274 0 5.0006-.2231 5.0621-2.5118.0885-2.3503-1.7694-2.4926-6.4969-2.4195-6.5662.1-8.6664-2.2503-8.6664-6.2277 0-5.2352 2.2733-6.6123 9.3665-6.6123 8.7741 0 10.0435 2.3964 10.1204 7.4739.001.0731-.0124.1457-.0396.2135-.0271.0678-.0674.1296-.1185.1818-.0512.0522-.1121.0938-.1794.1224-.0672.0285-.1395.0435-.2126.044h-3.8466c-.1442-.001-.2824-.0582-.3851-.1595-.1028-.1013-.1619-.2387-.1649-.3829-.077-2.9465-.9078-3.2081-5.1583-3.2081-3.662 0-4.4929.2924-4.4929 2.3734 0 2.381 1.2348 2.0694 4.916 2.1733 4.8544.1385 10.3974.1 10.3974 6.4277z"/><path d="m71.9829 22.0117h3.6312c.1453 0 .2846.0574.3876.1597.1031.1024.1615.2413.1625.3865v20.6332c0 .0721-.0142.1434-.0419.2099-.0277.0666-.0683.1269-.1194.1777-.0512.0508-.1118.091-.1785.1182-.0668.0272-.1382.041-.2103.0404h-3.6312c-.1448 0-.2838-.0575-.3862-.1599-.1024-.1025-.16-.2414-.16-.3863v-8.174h-11.3782v8.174c0 .0721-.0143.1434-.042.2099-.0277.0666-.0683.1269-.1194.1777s-.1118.091-.1785.1182-.1382.041-.2102.0404h-3.6312c-.0721.0006-.1435-.0132-.2102-.0404s-.1274-.0674-.1785-.1182c-.0512-.0508-.0917-.1111-.1194-.1777-.0277-.0665-.042-.1378-.042-.2099v-20.6332c.001-.1452.0594-.2841.1625-.3865.103-.1023.2424-.1597.3876-.1597h3.6312c.1452 0 .2845.0574.3876.1597.103.1024.1614.2413.1625.3865v8.1894h11.359v-8.1894c.0005-.0732.0156-.1456.0444-.2129s.0708-.1282.1235-.1791c.0526-.0509.1149-.0907.1832-.1172s.1411-.0391.2143-.037z"/><path d="m102.402 43.7454h-3.7347c-.1136-.0003-.2244-.0356-.3173-.1009-.0928-.0654-.1634-.1578-.202-.2646l-1.154-3.2196h-11.1052l-1.154 3.2196c-.0381.1072-.1086.1998-.2016.2653-.093.0654-.2039.1004-.3177.1002h-3.7312c-.0879-.0005-.1744-.0219-.2522-.0627-.0779-.0407-.1449-.0995-.1954-.1715-.0504-.0719-.0829-.1549-.0947-.242-.0119-.0871-.0026-.1757.0269-.2585l7.4009-20.6256c.0341-.1104.1024-.2071.1951-.2762.0926-.0691.2047-.1071.3203-.1084h7.147c.1156.0013.2277.0393.3203.1084.0927.0691.161.1658.1952.2762l7.3853 20.6256c.031.084.041.1743.029.263s-.046.1731-.099.2457c-.052.0725-.122.1311-.202.1705s-.169.0585-.259.0555zm-6.9544-7.8971-3.4157-9.5396h-1.1886l-3.4158 9.5396z"/><path d="m172.891 22.8737v3.1734c0 .0723-.014.1438-.042.2105-.027.0668-.068.1274-.119.1785s-.112.0916-.179.1192c-.066.0277-.138.0419-.21.0419h-12.59v4.4621h12.59c.072 0 .144.0142.21.0418.067.0277.128.0682.179.1193s.092.1117.119.1784c.028.0668.042.1383.042.2105v3.1735c0 .1459-.058.2858-.161.3889-.103.1032-.243.1611-.389.1611h-12.59v4.3967h12.59c.146 0 .286.058.389.1611.103.1032.161.2431.161.389v3.2311c-.001.1453-.059.2842-.162.3865s-.243.1598-.388.1598h-16.771c-.146 0-.286-.058-.389-.1611-.103-.1032-.161-.2431-.161-.389v-20.6332c0-.1459.058-.2858.161-.389.103-.1031.243-.1611.389-.1611h16.771c.146 0 .286.058.389.1611.103.1032.161.2431.161.389z"/><path d="m127.413 32.8823c0 8.5895-2.693 11.0513-11.155 11.0513-8.198 0-11.156-2.4618-11.156-11.0513 0-9.1318 2.966-11.0475 11.156-11.0475 8.247 0 11.155 1.9157 11.155 11.0475zm-4.616 0c0-4.2313 0-6.2277-6.539-6.2277-6.54 0-6.54 1.9233-6.54 6.2277s0 6.2277 6.54 6.2277c6.539 0 6.523-2.0464 6.523-6.2277z"/><path d="m150.254 44.1645h-4.416c-.082-.0003-.163-.0191-.237-.0551-.074-.0359-.139-.0881-.19-.1527l-6.797-8.5241h-2.812v8.1818c0 .0722-.014.1438-.042.2105-.027.0667-.068.1274-.119.1784-.051.0511-.112.0916-.179.1193-.066.0276-.138.0419-.21.0419h-3.462c-.074.0025-.147-.0098-.216-.0363-.069-.0264-.132-.0666-.185-.1179-.054-.0513-.096-.1129-.125-.1809s-.043-.1411-.043-.215v-20.8371c0-.1459.058-.2858.161-.389.103-.1031.243-.1611.389-.1611h3.462c.146 0 .286.058.389.1611.103.1032.161.2431.161.389v8.1048h2.773l6.586-8.4625c.052-.0654.118-.1184.193-.155s.158-.0559.241-.0566h4.378c.103-.0002.204.0286.292.0831.087.0546.158.1326.203.2253.045.0926.064.1962.053.2987-.011.1026-.05.2002-.114.2815l-7.535 9.7088c-.077.0961-.119.2155-.119.3385s.042.2424.119.3385l7.828 9.805c.06.0809.096.1765.105.2767.009.1001-.009.2009-.053.2913s-.112.167-.196.2215c-.085.0545-.183.0848-.283.0876z"/></g></svg>