<svg fill="none" height="111" viewBox="0 0 568 111" width="568" xmlns="http://www.w3.org/2000/svg"><path d="m180.143 55.3826s-40.103 54.3824-89.5717 54.3824c-49.4689 0-89.5713-54.3824-89.5713-54.3824s40.1024-54.3826 89.5713-54.3826c49.4687 0 89.5717 54.3826 89.5717 54.3826z" fill="#23f000" stroke="#6c6c6c" stroke-linejoin="round"/><path d="m91.0283 98.7969c24.4817 0 44.3287-19.8466 44.3287-44.3286s-19.847-44.3287-44.3287-44.3287c-24.482 0-44.3287 19.8467-44.3287 44.3287 0 11.7488 4.5707 22.4301 12.031 30.3627-1.8424-3.3358-2.891-7.1713-2.891-11.2517 0-12.872 10.4348-23.3068 23.3068-23.3068s23.3066 10.4348 23.3066 23.3068-10.4346 23.3068-23.3066 23.3068c-.3754 0-.7487-.0089-1.1197-.0264 4.1116 1.2595 8.4774 1.9372 13.0016 1.9372z" fill="#191919"/><circle cx="123.475" cy="26.5919" fill="#23f000" r="11.8819"/><g fill="#fff"><path d="m225.557 111 12.414-43.5287h57.043l28.443-26.2428h-78.257l4.085-13.9857h57.672l28.442-26.2428h-108.742l-31.429 110z"/><path d="m341.371 79.7285-8.8 31.2715h-30.171l8.8-29.2287 28.757-28.2857h51.542c4.086 0 7.334-1.2047 9.743-3.6142 2.515-2.5143 3.772-5.8143 3.772-9.9s-1.257-7.2286-3.772-9.4286c-2.409-2.2-5.657-3.3-9.743-3.3h-57.671l27.343-26.2428h34.886c5.866 0 11.209.94286 16.028 2.82857s8.905 4.55713 12.257 8.01423c3.457 3.4572 6.129 7.5953 8.015 12.4143 1.885 4.8191 2.828 10.1619 2.828 16.0286 0 5.9714-.943 11.419-2.828 16.3428-1.886 4.819-4.558 8.9571-8.015 12.4143-3.352 3.3523-7.438 5.9714-12.257 7.8571s-10.162 2.8286-16.028 2.8286z"/><path d="m519.414 45.4715c-5.657-1.9905-12.572-2.9857-20.743-2.9857-7.648 0-8.329-.0002-12.1-1.2573s-5.343-3.8762-5.343-6.2857c0-2.2 1.572-4.7143 4.086-5.9714 3.143-1.5714 5.343-1.5714 11-1.5714h14.457 29.857l26.714-26.39991h-31.743l-10.371.00005c-4.089 0-7.543-.000269-11.629 0-4.085.00027-11-.00005-15.399-.00005l-23.258-.00007c-5.971.00007-9.742 3.14285-14.142 7.22856-5.029 4.66942-7.177 9.16682-8.958 13.67152-1.676 4.4-2.514 8.8524-2.514 13.3571 0 4.2953.786 8.5381 2.357 12.7286 1.572 4.0857 4.086 7.7523 7.543 11 3.562 3.1428 8.172 5.7095 13.829 7.7 5.657 1.8857 9.481 2.8285 17.757 2.8285h.003c7.646 0 13.669 0 17.754.9427 4.086 1.5715 5.971 3.5619 5.971 5.9715 0 2.2-.314 4.7142-3.457 6.6-3.038 1.7809-8.171 1.5714-13.828 1.5714h-13.2c-3.773 0-55.315-.3142-59.243-.3142l-26.557 26.5573h80.771c4.4 0 9.114.157 13.514.157s5.029-.157 9.429-.157c9.009 0 11.157.785 17.443-1.415 6.285-2.2 9.009-3.666 12.885-7.228 3.877-3.5619 6.653-7.5429 8.329-11.9429 1.781-4.4 2.671-8.8523 2.671-13.3571 0-4.4-.838-8.6428-2.514-12.7285-1.571-4.0857-4.138-7.7524-7.7-11-3.457-3.2476-8.014-5.8143-13.671-7.7z"/></g></svg>