<svg fill="none" height="66" viewBox="0 0 66 66" width="66" xmlns="http://www.w3.org/2000/svg"><rect fill="#fff" height="66" rx="13.9228" width="66"/><path d="m26.6192 45.5874h-15.6192v2.1649h15.6192z" fill="#32388e"/><path d="m41.562 45.5874h-15.6193v2.1649h15.6193z" fill="#d0131b"/><path d="m57.1812 45.5874h-15.6192v2.1649h15.6192z" fill="#ffd800"/><g fill="#000"><path d="m56.9868 22.7378h-2.833v2.8329h2.833z"/><path d="m27.2197 40.3359h-2.926v2.833h2.926z"/><path d="m31.7608 40.3359h-2.8329v2.833h2.8329z"/><path d="m42.0864 20.8013h-2.833v2.8329h2.833z"/><path d="m46.6613 20.8013h-2.8329v2.8329h2.8329z"/><path d="m54.2467 27.3635v5.4037c0 1.3446-1.0909 2.4355-2.4355 2.4355h-5.0316c-.2368 0-.4652-.0338-.685-.1014 1.4545-.9895 2.4101-2.6554 2.4101-4.5412 0-3.0274-2.4609-5.4968-5.4968-5.4968s-5.4967 2.4609-5.4967 5.4968c0 1.8689.9387 3.5264 2.3763 4.5158-.2453.0845-.5074.1268-.7696.1268h-7.78c.3721-.7272.592-1.556.592-2.4355v-13.7672h-2.926v13.7672c0 1.3446-1.0909 2.4355-2.4355 2.4355h-.8118-4v-12.245h-2.9259v13.7672c0 1.3446-1.0909 2.4355-2.4355 2.4355h-.8118v2.926h.8118c2.4693 0 4.5412-1.6829 5.1669-3.9492h4.1945.8118 12.5495c1.4546 0 2.833-.592 3.8308-1.6152 1.0064 1.0317 2.3763 1.6152 3.8309 1.6152h5.0316c2.9513 0 5.3614-2.4017 5.3614-5.3615v-5.4037h-2.9259zm-11.2303.6173c1.4122 0 2.5708 1.1501 2.5708 2.5708s-2.5708 2.9767-2.5708 2.9767-2.5708-1.556-2.5708-2.9767 1.1585-2.5708 2.5708-2.5708z"/><path d="m13.926 22.9575h-2.926v14.9596h2.926z"/></g></svg>