<svg fill="none" height="184" viewBox="0 0 184 184" width="184" xmlns="http://www.w3.org/2000/svg"><rect fill="#fff" height="184" rx="20" width="184"/><path d="m144.824 91.8214s-23.466 31.8216-52.4122 31.8216-52.4118-31.8216-52.4118-31.8216 23.4656-31.8214 52.4118-31.8214 52.4122 31.8214 52.4122 31.8214z" fill="#000"/><path d="m92.6791 117.226c14.3259 0 25.9389-11.613 25.9389-25.9384s-11.613-25.9385-25.9389-25.9385c-14.3254 0-25.9384 11.6131-25.9384 25.9385 0 6.8747 2.6745 13.1244 7.0397 17.7664-1.078-1.952-1.6916-4.196-1.6916-6.584 0-7.5317 6.1058-13.6375 13.6378-13.6375 7.5319 0 13.6377 6.1058 13.6377 13.6375 0 7.532-6.1058 13.638-13.6377 13.638-.2197 0-.4381-.005-.6552-.015 2.4058.736 4.9605 1.133 7.6077 1.133z" fill="#23f000"/><circle cx="111.665" cy="74.9736" fill="#000" r="6.95258"/></svg>