<svg fill="none" height="173" viewBox="0 0 814 173" width="814" xmlns="http://www.w3.org/2000/svg"><path d="m72.6638 135.745h-72.6638l62.7786-135.745h72.6634z" fill="#32388e"/><path d="m135.516 6.79199-16.967 36.83361 17.115 92.1204h23.606z" fill="#d0131b"/><path d="m160.967 130.431 59.533-130.431h-23.533l-42.713 93.0067z" fill="#ffd800"/><g fill="#000"><path d="m321.461 45.6325c6.216 5.1353 9.324 13.6698 9.324 25.6038v64.0097h-25.443v-57.8619c0-4.9906-.651-8.8239-2.024-11.5-2.458-4.9182-7.012-7.305-13.879-7.305-8.385 0-14.095 3.544-17.203 10.7044-1.59 3.761-2.458 8.6069-2.458 14.4654v51.4971h-24.865v-94.8933h24.07v13.8868c3.181-4.9183 6.216-8.39 9.036-10.5598 5.059-3.8333 11.565-5.7861 19.371-5.7861 9.903 0 17.854 2.6037 24.071 7.7389z"/><path d="m391.576 77.4564c4.626-.5786 7.951-1.3019 9.902-2.1698 3.542-1.5189 5.349-3.8333 5.349-7.088 0-3.9057-1.373-6.5818-4.12-8.1007-2.747-1.5188-6.722-2.2421-12.071-2.2421-5.927 0-10.192 1.4465-12.65 4.3396-1.807 2.1698-2.963 5.0629-3.542 8.7516h-23.998c.506-8.3176 2.892-15.1887 7.012-20.4685 6.578-8.39 17.926-12.5849 33.973-12.5849 10.481 0 19.733 2.0974 27.829 6.2201 8.096 4.1226 12.144 11.9339 12.144 23.3616v43.6127c0 3.038.072 6.655.144 10.994.145 3.255.651 5.497 1.518 6.654.795 1.157 2.024 2.098 3.687 2.893v3.689h-27.034c-.723-1.953-1.301-3.689-1.591-5.425-.289-1.735-.506-3.616-.722-5.786-3.47 3.689-7.446 6.871-11.927 9.475-5.349 3.11-11.493 4.629-18.216 4.629-8.674 0-15.83-2.459-21.468-7.377-5.638-4.919-8.457-11.862-8.457-20.903 0-11.7167 4.554-20.179 13.589-25.3865 4.988-2.8208 12.289-4.9183 21.975-6.0755zm15.179 11.5723c-1.59 1.0126-3.18 1.8082-4.843 2.3868-1.59.5786-3.831 1.1573-6.65 1.7359l-5.638 1.0126c-5.277.9402-9.108 2.0974-11.421 3.3993-3.903 2.2422-5.855 5.7857-5.855 10.5597 0 4.267 1.157 7.305 3.614 9.186 2.386 1.88 5.277 2.82 8.747 2.82 5.421 0 10.408-1.591 15.035-4.701 4.553-3.11 6.939-8.896 7.156-17.2137v-9.1856z"/><path d="m506.434 43.4619c2.819 2.2422 5.783 5.8585 8.746 10.9214v-14.0314h23.998v132.6481h-24.576v-49.472c-1.879 3.833-5.06 7.233-9.541 10.27-4.482 2.966-10.626 4.485-18.433 4.485-10.987 0-20.311-4.412-28.046-13.164-7.734-8.751-11.565-20.541-11.565-35.2231 0-15.8396 3.903-28.4969 11.638-37.9717 7.734-9.4748 17.348-14.2484 28.696-14.2484 7.807 0 14.24 1.9528 19.083 5.7861zm5.349 62.4901c2.313-4.845 3.47-10.9209 3.47-18.3706 0-5.8585-1.012-11.066-2.964-15.6226-3.542-8.2453-9.758-12.4403-18.721-12.4403-6.289 0-11.349 2.3868-15.18 7.2327s-5.71 12.151-5.71 21.9874c0 6.5818.867 12.0064 2.602 16.2014 3.253 7.956 9.324 11.934 18.143 11.934 8.602.072 14.746-3.617 18.36-10.922z"/><path d="m624.256 42.0883c6.65 2.9654 12.071 7.6667 16.408 14.1038 3.904 5.6415 6.434 12.2232 7.59 19.6729.651 4.3396.94 10.6321.795 18.8774h-69.247c.361 9.5476 3.686 16.2016 9.975 20.0346 3.759 2.387 8.385 3.544 13.734 3.544 5.638 0 10.264-1.447 13.806-4.34 1.951-1.591 3.614-3.761 5.132-6.509h25.371c-.65 5.641-3.758 11.355-9.18 17.214-8.529 9.258-20.456 13.886-35.78 13.886-12.65 0-23.781-3.905-33.467-11.716-9.686-7.812-14.529-20.469-14.529-38.0445 0-16.4905 4.337-29.0754 13.083-37.8993s20.023-13.1635 33.973-13.1635c8.313-.0724 15.758 1.3742 22.336 4.3396zm-37.154 21.4811c-3.542 3.6164-5.71 8.5346-6.65 14.7547h42.792c-.434-6.5817-2.674-11.6446-6.65-15.044s-8.891-5.1352-14.746-5.1352c-6.289 0-11.276 1.8082-14.746 5.4245z"/><path d="m714.466 37.9659c.289 0 1.012.0723 2.168.1446v25.4591c-1.59-.1446-2.963-.2893-4.192-.3616s-2.241-.0723-2.964-.0723c-9.975 0-16.697 3.2547-20.167 9.7641-1.952 3.6887-2.891 9.3302-2.891 16.9245v45.4937h-25.01v-95.11h23.709v16.5629c3.831-6.3648 7.156-10.7044 10.047-13.0189 4.626-3.9056 10.698-5.8584 18.143-5.8584.434 0 .795 0 1.157.0723z"/><path d="m768.823 77.4564c4.626-.5786 7.951-1.3019 9.903-2.1698 3.542-1.5189 5.349-3.8333 5.349-7.088 0-3.9057-1.374-6.5818-4.12-8.1007-2.747-1.5188-6.723-2.2421-12.072-2.2421-5.927 0-10.192 1.4465-12.649 4.3396-1.808 2.1698-2.964 5.0629-3.542 8.7516h-23.998c.506-8.3176 2.891-15.1887 7.011-20.4685 6.578-8.39 17.926-12.5849 33.973-12.5849 10.481 0 19.734 2.0974 27.829 6.2201 8.096 4.1226 12.144 11.9339 12.144 23.3616v43.6127c0 3.038.072 6.655.145 10.994.144 3.255.65 5.497 1.518 6.654.795 1.157 2.023 2.098 3.686 2.893v3.689h-27.034c-.723-1.953-1.301-3.689-1.59-5.425-.289-1.735-.506-3.616-.723-5.786-3.47 3.689-7.445 6.871-11.927 9.475-5.349 3.11-11.493 4.629-18.215 4.629-8.674 0-15.83-2.459-21.468-7.377-5.639-4.919-8.458-11.862-8.458-20.903 0-11.7167 4.554-20.179 13.59-25.3865 4.987-2.8208 12.288-4.9183 21.974-6.0755zm15.179 11.5723c-1.59 1.0126-3.18 1.8082-4.843 2.3868-1.59.5786-3.831 1.1573-6.65 1.7359l-5.638 1.0126c-5.277.9402-9.108 2.0974-11.421 3.3993-3.903 2.2422-5.855 5.7857-5.855 10.5597 0 4.267 1.157 7.305 3.615 9.186 2.385 1.88 5.276 2.82 8.746 2.82 5.421 0 10.409-1.591 15.035-4.701s6.939-8.896 7.156-17.2137v-9.1856z"/></g></svg>