<svg fill="none" height="66" viewBox="0 0 203 66" width="203" xmlns="http://www.w3.org/2000/svg" xmlns:xlink="http://www.w3.org/1999/xlink"><clipPath id="a"><path d="m76.382 18.0817h91.4616v28.0285h-91.4616z"/></clipPath><rect fill="#fff" height="66" rx="13.9228" width="203"/><g clip-path="url(#a)" fill="#5b40ff"><path d="m99.2474 35.2301c0 6.1117-4.0929 10.8801-10.2701 10.8801-2.4815 0-4.6842-.8293-6.4561-2.2869l-.1943 1.3095c-.0464.311-.3125.5416-.6272.5416h-4.6842c-.3505 0-.6335-.2835-.6335-.6347v-26.3234c0-.3512.283-.6346.6335-.6346h5.7c.3506 0 .6336.2834.6336.6346v7.2901c1.5733-1.0662 3.5015-1.6564 5.6282-1.6564 5.9787 0 10.2701 4.5356 10.2701 10.8801zm-6.9228 0c0-2.6804-1.8901-4.5738-4.5279-4.5738-2.6377 0-4.5279 1.8934-4.5279 4.5738 0 2.6803 1.8902 4.5737 4.5279 4.5737 2.6378 0 4.5279-1.8891 4.5279-4.5737z"/><path d="m139.467 34.6144 6.082 9.1898c.114.1735.176.3766.176.5839v.1819c0 .3512-.283.6347-.634.6347h-6.317c-.376 0-.724-.201-.914-.5289l-3.005-5.2-3.006 5.2c-.187.3258-.536.5289-.914.5289h-6.393c-.35 0-.633-.2835-.633-.6347v-.1819c0-.2073.061-.4104.175-.5839l6.12-9.266-5.843-8.8788c-.114-.1735-.176-.3745-.176-.5818v-.184c0-.3512.283-.6347.634-.6347h6.234c.378 0 .729.2031.917.531l1.506 2.6296 1.374 2.4477 1.42-2.4477 1.47-2.6211c.187-.3343.538-.5395.92-.5395h6.152c.351 0 .634.2835.634.6347v.1861c0 .2052-.059.4041-.171.5776z"/><path d="m159.976 38.9597h4.821c.351 0 .634.2834.634.6346v4.9778c0 .3512-.283.6347-.634.6347h-16.483c-.351 0-.634-.2835-.634-.6347v-2.3588c0-.2136.066-.4231.186-.5987l7.708-11.2291h-6.789c-.351 0-.634-.2835-.634-.6347v-4.8572c0-.3512.283-.6347.634-.6347h15.856c.35 0 .633.2835.633.6347v2.0372c0 .2158-.065.4273-.19.6051l-7.978 11.4661z"/><path d="m112.872 46.1116c6.665 0 11.477-4.5755 11.477-10.9259 0-6.3898-4.812-10.9258-11.477-10.9258-6.666 0-11.477 4.536-11.477 10.9258 0 6.3504 4.811 10.9259 11.477 10.9259zm0-6.3504c-2.564 0-4.496-1.8933-4.496-4.5755 0-2.6821 1.932-4.5754 4.496-4.5754 2.603 0 4.496 1.8933 4.496 4.5754 0 2.6822-1.893 4.5755-4.496 4.5755z"/></g><path d="m46.9653 32.1597c0 3.4256 2.4791 5.8464 5.763 5.8464 3.3408 0 5.7629-2.4208 5.7629-5.8464h8.9516c0 8.1174-6.1707 13.9665-14.7145 13.9665-8.5439 0-14.7146-5.8464-14.7146-13.9665z" fill="#5b40ff"/><path d="m58.4938 32.1599c0-3.4746-2.4302-5.9281-5.7629-5.9281-3.2838 0-5.763 2.4562-5.763 5.9281h-8.9571c0-8.2781 6.168-14.1599 14.7119-14.1599s14.72 5.8791 14.72 14.1599z" fill="#1ae2d3"/><path d="m42.8646 27.1632 5.9206 6.4128c.3208.3485.0761.9149-.3996.9149h-11.8413c-.473 0-.7203-.5664-.3996-.9149l5.9207-6.4128c.2174-.2342.5844-.2342.7992 0z" fill="#5b40ff"/><path d="m63.4657 38.1048 5.9207-6.4128c.3207-.3485.0761-.9149-.3996-.9149h-11.8413c-.473 0-.7204.5664-.3996.9149l5.9206 6.4128c.2148.2342.5818.2342.7992 0z" fill="#1ae2d3"/></svg>