<svg fill="none" height="230" viewBox="0 0 692 230" width="692" xmlns="http://www.w3.org/2000/svg"><path d="m1 190h690" stroke="#fff" stroke-linecap="round"/><path d="m1 4h690" stroke="#fff" stroke-linecap="round"/><g fill="#f48353"><path d="m116.175 96.3585c-9.91-9.3928-24.4921-15.3338-43.3012-17.7994-7.6964-.7943-15.2311-2.7334-22.3548-5.7531-3.8513-1.5869-7.1676-4.2433-9.5572-7.6551-1.7367-2.825-2.6553-6.0766-2.6535-9.3928-.2171-2.8243.3393-5.6544 1.6094-8.1863s3.2059-4.67 5.5996-6.1846c5.7296-3.7337 13.5256-5.6123 23.0593-5.6123 4.7309.0189 9.4267.8122 13.9013 2.3482 3.4094 1.1959 6.5523 3.0466 9.2519 5.4479 2.6059 2.3619 4.9019 5.0446 6.8333 7.9838 2.0619 3.7229 5.4879 6.5008 9.5569 7.7491 2.1.684 4.321.9121 6.516.6691 2.195-.2429 4.312-.9514 6.211-2.078 1.808-1.0547 3.371-2.4815 4.585-4.1858 1.215-1.7043 2.053-3.6473 2.46-5.7001.428-2.1307.414-4.3268-.043-6.4516-.456-2.1248-1.345-4.1331-2.61-5.9-3.572-5.8031-8.024-11.0157-13.197-15.4511-5.563-4.7808-11.921-8.5481-18.7858-11.13046-7.7774-2.86846-16.0151-4.28519-24.3039-4.17979-10.6702-.1584-21.267 1.7886-31.184 5.72965-8.9556 3.4954-16.7952 9.3548-22.6836 16.9539-5.76934 7.8062-8.79887 17.2993-8.6179 27.0043-.08192 6.9262 1.37542 13.7842 4.2668 20.0786 2.8913 6.2944 7.1445 11.8681 12.4524 16.3185 10.6373 9.3929 25.2666 15.1459 43.4886 17.1419 12.0227 1.362 20.6876 4.696 25.8301 9.674 2.3156 2.13 4.1627 4.719 5.4239 7.601 1.2613 2.883 1.9092 5.996 1.9025 9.142.2199 4.476-1.0615 8.898-3.6397 12.563-2.8161 3.657-6.598 6.455-10.9191 8.078-5.5006 2.125-11.3637 3.154-17.2593 3.029-5.567.064-11.1108-.728-16.4373-2.348-4.389-1.32-8.5079-3.412-12.1637-6.176-2.8928-2.231-5.2915-5.037-7.0446-8.242-1.6593-3.477-4.3703-6.344-7.749-8.195-3.49-1.939-7.5873-2.477-11.4592-1.503-2.1593.465-4.19766 1.376-5.98484 2.674-1.78719 1.297-3.28384 2.954-4.39423 4.863-1.13007 2.001-1.74144 4.252-1.77835 6.549-.036918 2.297.5018 4.566 1.56701 6.601 3.35445 7.628 8.44441 14.366 14.86411 19.678 6.7763 5.603 14.5417 9.888 22.8949 12.634 8.9235 2.984 18.2762 4.483 27.6852 4.438 8.0592.038 16.0808-1.101 23.8108-3.382 7.3755-2.133 14.2822-5.638 20.3592-10.332 5.942-4.65 10.758-10.582 14.089-17.353 3.567-7.398 5.352-15.528 5.213-23.74 0-15.545-5.213-28.319-15.475-38.0175"/><path d="m279.867 81.2591c-5.617-9.818-13.715-17.9884-23.482-23.6933-10.296-5.8799-21.982-8.8885-33.837-8.7118-11.475-.1701-22.786 2.7319-32.761 8.4049-9.976 5.6731-18.252 13.9108-23.972 23.8593-5.868 10.136-8.976 21.6328-9.017 33.3448v99.516c-.055 2.12.322 4.229 1.109 6.199.787 1.969 1.967 3.758 3.468 5.256 1.5 1.499 3.291 2.676 5.261 3.46 1.971.784 4.08 1.158 6.2 1.1 2.127.048 4.241-.345 6.209-1.153s3.748-2.014 5.227-3.543c2.892-3.059 4.461-7.134 4.368-11.342v-44.616c2.695 1.987 5.545 3.753 8.524 5.283 8.711 4.478 18.384 6.759 28.178 6.646 11.454.151 22.723-2.89 32.546-8.782 9.507-5.775 17.304-13.977 22.59-23.764 5.535-10.308 8.356-21.856 8.195-33.556.17-11.877-2.838-23.5836-8.712-33.9079zm-87.071 15.1459c2.857-5.2963 7.113-9.7067 12.304-12.7507 5.277-3.1534 11.325-4.7793 17.471-4.6964 6.247-.1175 12.402 1.5089 17.776 4.6964 5.192 3.0968 9.464 7.5227 12.375 12.8212 3.131 5.7575 4.701 12.2335 4.555 18.7855.091 6.497-1.485 12.908-4.579 18.621-2.859 5.301-7.114 9.718-12.304 12.775-5.407 3.01-11.493 4.59-17.682 4.59s-12.275-1.58-17.682-4.59c-5.192-3-9.433-7.403-12.234-12.704-2.949-5.798-4.486-12.211-4.486-18.715 0-6.505 1.537-12.918 4.486-18.7156"/><path d="m445.415 110.117c-.677-10.1595-3.664-20.0302-8.735-28.8596-5.613-9.8214-13.711-17.9928-23.482-23.6933-10.149-5.8433-21.681-8.8522-33.391-8.7118-11.806-.154-23.438 2.8453-33.697 8.6884-9.856 5.6721-18.031 13.8557-23.693 23.7167-5.874 10.3243-8.882 22.0306-8.712 33.9076-.158 11.722 2.704 23.286 8.312 33.58 5.346 9.768 13.169 17.956 22.684 23.74 9.823 5.892 21.092 8.933 32.546 8.782 10.984.126 21.792-2.757 31.255-8.336 1.962-1.18 3.859-2.466 5.682-3.851.717 2.575 2.112 4.911 4.039 6.763 3.092 2.769 7.097 4.3 11.248 4.3s8.156-1.531 11.248-4.3c1.587-1.469 2.843-3.259 3.686-5.251.842-1.992 1.25-4.14 1.198-6.302v-54.103zm-35.904 23.717c-2.788 5.293-7.001 9.702-12.163 12.727-3.955 2.356-8.341 3.895-12.901 4.525s-9.199.339-13.645-.857c-4.445-1.195-8.604-3.271-12.233-6.103-3.628-2.833-6.651-6.364-8.89-10.386-3.053-5.732-4.649-12.127-4.649-18.621 0-6.495 1.596-12.89 4.649-18.6217 2.968-5.3078 7.275-9.7448 12.493-12.8682 3.922-2.3715 8.284-3.9241 12.823-4.5645s9.16-.3552 13.586.8384c4.425 1.1936 8.563 3.2709 12.165 6.1067 3.601 2.8358 6.591 6.3713 8.789 10.3936 2.956 5.7957 4.497 12.2087 4.497 18.7157 0 6.506-1.541 12.919-4.497 18.715"/><path d="m553.784 52.7272c-4.861-2.7474-11.436-4.0154-19.89-4.0154-9.212-.0963-18.28 2.2884-26.253 6.9037-1.614.9058-3.182 1.8933-4.696 2.9587-.701-1.5836-1.688-3.0245-2.912-4.2502-2.211-2.3224-5.076-3.9173-8.215-4.5728s-6.403-.3406-9.359.9028c-2.955 1.2435-5.463 3.3566-7.189 6.0588-1.726 2.7023-2.59 5.8658-2.476 9.0704v98.6248c0 4.191 1.665 8.21 4.629 11.174s6.983 4.629 11.175 4.629c4.191 0 8.211-1.665 11.174-4.629 2.964-2.964 4.629-6.983 4.629-11.174v-63.308c-.154-4.5351 1.339-8.9726 4.203-12.4924 3.22-3.8118 7.504-6.5755 12.305-7.9369 6.226-1.7818 12.769-2.1667 19.161-1.1271h.517c6.246.3992 10.684.3992 14.605-1.8551 1.566-.9399 2.907-2.2109 3.929-3.724s1.701-3.2315 1.989-5.0348c.83-3.1515.542-6.4932-.815-9.4561-1.358-2.9629-3.7-5.3637-6.629-6.7934"/><path d="m687.303 156.024-39.285-48.302 36.373-32.7106c1.584-1.2604 2.885-2.8408 3.817-4.638.932-1.7971 1.474-3.7706 1.592-5.7917.117-2.021-.193-4.0441-.91-5.9371-.718-1.8931-1.827-3.6135-3.254-5.0489-2.647-3.0064-6.363-4.8602-10.356-5.1659-2.016-.112-4.034.1953-5.925.9026-1.892.7073-3.616 1.7992-5.065 3.2067l-45.883 41.4222v-78.1245c.054-2.0965-.314-4.1825-1.08-6.13459-.766-1.95213-1.916-3.73074-3.382-5.23071-1.464-1.44786-3.203-2.58842-5.115-3.3546-1.911-.766188-3.956-1.1425207-6.015-1.10695528-2.098-.07575722-4.189.28196728-6.142 1.05084528-1.953.76887-3.727 1.93237-5.21 3.41774s-2.644 3.26068-3.41 5.215c-.766 1.95437-1.121 4.04567-1.042 6.14327v148.5232c-.079 2.097.276 4.187 1.042 6.14s1.928 3.727 3.411 5.211c1.484 1.483 3.258 2.645 5.211 3.411s4.043 1.121 6.14 1.042c2.06.044 4.108-.328 6.021-1.094 1.912-.767 3.65-1.912 5.109-3.368 1.465-1.496 2.615-3.27 3.381-5.218.767-1.949 1.134-4.031 1.081-6.124v-29.963l6.645-5.988 38.229 46.964c1.228 1.648 2.784 3.022 4.571 4.037 1.786 1.014 3.764 1.647 5.808 1.857.453.026.908.026 1.362 0 3.676-.035 7.214-1.403 9.956-3.851 1.672-1.244 3.06-2.83 4.072-4.652s1.625-3.838 1.799-5.915c.205-3.982-1.094-7.896-3.64-10.966"/></g><g stroke="#fff"><circle cx="112.5" cy="44.5" r="15"/><circle cx="172.5" cy="214.5" r="15"/><path d="m257.5 115c0 19.619-15.459 35.5-34.5 35.5s-34.5-15.881-34.5-35.5c0-19.6195 15.459-35.5 34.5-35.5s34.5 15.8805 34.5 35.5z"/><path d="m131.5 135c0 29.561-23.294 53.5-52 53.5-28.7056 0-52-23.939-52-53.5s23.2944-53.5 52-53.5c28.706 0 52 23.939 52 53.5z"/><path d="m104.5 55.5c0 26.5001-21.9284 48-49 48s-49-21.4999-49-48 21.9284-48 49-48 49 21.4999 49 48z"/><path d="m73.5 55.5c0 9.3757-7.8216 17-17.5 17s-17.5-7.6243-17.5-17 7.8216-17 17.5-17 17.5 7.6243 17.5 17z"/><path d="m99.5 134.5c0 12.14-10.0632 22-22.5 22s-22.5-9.86-22.5-22 10.0632-22 22.5-22 22.5 9.86 22.5 22z"/><path d="m289.5 115.5c0 35.891-29.542 65-66 65s-66-29.109-66-65c0-35.8914 29.542-65 66-65s66 29.1086 66 65z"/><circle cx="379.5" cy="115.5" r="66"/><path d="m602.5 114.5c0 35.891-29.542 65-66 65s-66-29.109-66-65c0-35.8914 29.542-65 66-65s66 29.1086 66 65z"/><circle cx="527" cy="103" r="22.5"/><path d="m413.5 115c0 19.619-15.459 35.5-34.5 35.5s-34.5-15.881-34.5-35.5c0-19.6195 15.459-35.5 34.5-35.5s34.5 15.8805 34.5 35.5z"/><circle cx="429.5" cy="164.5" r="15"/><circle cx="488.5" cy="164.5" r="15"/><circle cx="488.5" cy="64.5" r="15"/><circle cx="602.5" cy="164.5" r="15"/><circle cx="602.5" cy="15.5" r="15"/><circle cx="674.5" cy="63.5" r="15"/><circle cx="675.5" cy="165.5" r="15"/><circle cx="16.5" cy="146.5" r="15"/></g></svg>