<svg fill="none" height="184" viewBox="0 0 184 184" width="184" xmlns="http://www.w3.org/2000/svg"><rect fill="#fff" height="184" rx="20" width="184"/><path d="m53.5594 125.042c-1.187 2.132-2.1317 5.339-2.1317 7.36 0 .409-.6331.605-.8384.252l-13.8808-23.872c-.4748-.828-.8285-2.016-.8285-3.086 0-1.071.3537-2.374.8285-3.203l7.1222-12.4614-4.7708-2.7038c-.8852-.5017-.5428-1.851.4746-1.8698l20.4146-.3779c1.1097-.0205 2.1401.5733 2.6786 1.5438l9.9605 17.9491c.4914.885-.4936 1.856-1.372 1.352l-4.953-2.841zm11.3956-71.9142c2.253-3.9203 5.9352-6.0563 10.4411-6.0563 4.8692 0 8.6677 2.2577 11.3954 6.8799l3.7348 6.2591c.1859.3115.1885.6992.0069 1.0131l-12.2076 21.1045c-.8308 1.4364-2.6698 1.9254-4.1044 1.0916l-17.4751-10.1577c-1.4313-.832-1.9182-2.6661-1.0878-4.0984zm1.6569 92.4432c-6.7637 0-12.3403-5.578-12.3403-12.341 0-1.899.8333-5.107 2.0203-7.122l3.5071-6.253c.1769-.316.5105-.511.8722-.511h24.5446c1.6568 0 3 1.343 3 3v20.227c0 1.657-1.3432 3-3.0001 3zm22.5538-93.1603c-.8253-1.4301-1.779-2.6578-2.8488-3.6816-.7897-.7557-.2479-2.7291.845-2.7291h24.1941c2.611 0 4.627 1.0715 5.819 3.0911l7.238 12.3409 4.644-2.7473c.879-.5198 1.88.4564 1.383 1.348l-9.908 17.757c-.537.9629-1.559 1.5535-2.662 1.538l-20.2696-.2856c-1.0198-.0143-1.3663-1.367-.479-1.8699l4.7426-2.6879zm44.9823 67.1713c1.667 0 3.206-.209 4.627-.626 1.046-.307 2.469 1.124 1.926 2.07l-12.256 21.341c-1.187 2.016-3.319 3.204-5.81 3.204h-13.891v5.521c0 1.015-1.336 1.385-1.858.514l-10.5085-17.547c-.5683-.949-.5683-2.133-.0001-3.082l10.5086-17.552c.522-.87 1.858-.501 1.858.514v5.643zm11.385-21.3623c1.071 1.8993 1.667 3.9153 1.667 6.0523 0 4.273-2.733 8.783-6.526 10.915-1.783.955-4.278 1.55-6.764 1.55h-7.262c-.357 0-.687-.19-.866-.499l-12.199-21.1044c-.833-1.44-.335-3.2824 1.11-4.1069l17.457-9.9634c1.432-.8176 3.256-.3255 4.083 1.1017z" fill="#5b40ff"/></svg>