<svg fill="none" height="66" viewBox="0 0 203 66" width="203" xmlns="http://www.w3.org/2000/svg" xmlns:xlink="http://www.w3.org/1999/xlink"><linearGradient id="a" gradientUnits="userSpaceOnUse" x1="29.2663" x2="65.8002" y1="45.8083" y2="21.9969"><stop offset="0" stop-color="#5643eb"/><stop offset=".5927" stop-color="#8e80f7"/><stop offset="1" stop-color="#b0a6ff"/></linearGradient><linearGradient id="b" gradientUnits="userSpaceOnUse" x1="37.2439" x2="19.794" y1="56.9698" y2="14.6722"><stop offset="0" stop-color="#5643f0"/><stop offset=".409796" stop-color="#5643f0"/><stop offset=".6524" stop-color="#3f2dd3"/></linearGradient><linearGradient id="c" gradientUnits="userSpaceOnUse" x1="25.7931" x2="24.2302" y1="22.164" y2="40.6639"><stop offset=".1546" stop-color="#5643eb"/><stop offset=".3721" stop-color="#8e80f7"/><stop offset=".5216" stop-color="#b0a6ff"/></linearGradient><rect fill="#fff" height="66" rx="13.9228" width="203"/><g fill="#5643f0"><path d="m105.835 16.6473v.1092l-14.6354 33.8842h-4.5326l-14.6358-33.8842v-.1092h6.4441l8.6285 18.77c.8738 1.9098 1.4745 3.4376 1.9114 4.638.71-1.9098 1.3653-3.4375 1.966-4.7471l8.5193-18.7154h6.3345z"/><path d="m110.314 16.5928h5.898v33.8296h-5.898z"/><path d="m159.627 50.6407h-5.789l-2.676-18.2789c-.218-1.7461-.382-2.8919-.382-3.4376-.382.7094-1.038 1.8006-1.966 3.1647l-6.881 11.7313h-2.84l-6.881-11.6767c-.71-1.0367-1.42-2.128-2.075-3.2738-.055.6547-.109 1.3095-.219 2.0188-.109.7094-.163 1.255-.218 1.5278l-2.567 18.2244h-5.788l4.423-34.0479h3.386l9.12 15.6053c.819 1.2549 1.529 2.4553 2.184 3.5466.656-1.0913 1.42-2.2917 2.185-3.5466l9.174-15.6053h3.386z"/><path d="m169.184 50.1494c-2.13-.7094-4.041-1.7461-5.68-3.0556l2.731-4.5834c1.31 1.0913 2.73 1.9643 4.369 2.5645 1.638.6002 3.331.9276 5.078.9276 1.803 0 3.277-.3819 4.479-1.2004 1.201-.8185 1.802-1.9097 1.802-3.3284s-.601-2.5645-1.857-3.383c-1.256-.8184-3.058-1.6369-5.461-2.4008-6.717-2.1825-10.103-5.6201-10.103-10.3126 0-1.9097.491-3.6012 1.529-5.0199 1.038-1.4186 2.403-2.4553 4.096-3.2192 1.747-.7094 3.604-1.0913 5.679-1.0913 1.966 0 3.878.2728 5.625.8184 1.748.5457 3.55 1.4187 5.352 2.6191l-2.512 4.3651c-1.42-.9276-2.785-1.5823-4.096-2.0188-1.31-.4366-2.676-.6002-4.041-.6002-1.584 0-2.949.3273-3.987.9821-1.092.6548-1.638 1.5824-1.638 2.8373 0 1.4187.601 2.4554 1.748 3.2739 1.201.7639 2.894 1.5278 5.133 2.2917 3.277 1.0367 5.843 2.4008 7.7 4.0377s2.785 3.7649 2.785 6.4385c0 2.0735-.546 3.8195-1.583 5.3473-1.038 1.5278-2.512 2.6737-4.315 3.4921-1.802.8185-3.877 1.2004-6.116 1.2004-2.348.0546-4.587-.2728-6.717-.9821z"/></g><path d="m26.4308 46.93s3.1674 4.3651 15.3456 3.8195c10.2122-.4911 12.9428-7.3116 15.3457-13.4773 2.3482-6.1658 7.0994-20.4615 7.0994-20.4615h-13.4889s-3.9866-.8731-6.8263 8.2391c-2.8398 9.1122-7.591 24.9358-17.4755 21.8802z" fill="url(#a)"/><path d="m51.6611 46.8209s-3.8774 4.6925-14.9088 4.3651c-9.12-.3274-11.6321-5.4564-14.0349-10.4763-2.3483-5.0199-4.2051-13.259-4.2051-13.259h14.4719l1.0376.9276.2731.5456s1.3106 3.7104 1.8567 4.9108c3.3313 7.1479 5.0242 15.2779 15.5095 12.9862z" fill="url(#b)"/><path d="m15.9456 30.8335h13.8711s.0546-2.2371 1.2561-3.001c.9829-.6548 2.4028-.2183 3.1674 1.0367 0 0-.4915-2.5645-4.1504-2.5645-5.898 0-9.83 0-9.83 0s-4.0958.2182-4.3142 4.5288z" fill="url(#c)"/></svg>