<svg fill="none" height="170" viewBox="0 0 509 170" width="509" xmlns="http://www.w3.org/2000/svg"><g fill="#fff"><path d="m84.8328 71.5643c-7.2989-6.9183-18.0396-11.2942-31.8935-13.1102-5.6689-.5851-11.2186-2.0133-16.4657-4.2375-2.8366-1.1689-5.2794-3.1254-7.0394-5.6384-1.2792-2.0809-1.9558-4.4758-1.9544-6.9184-.1599-2.0802.2499-4.1648 1.1854-6.0297s2.3613-3.4397 4.1244-4.5553c4.2202-2.7501 9.9624-4.1338 16.9845-4.1338 3.4846.014 6.9434.5982 10.2392 1.7296 2.5112.8809 4.8261 2.244 6.8145 4.0127 1.9193 1.7397 3.6105 3.7156 5.0331 5.8805 1.5191 2.7422 4.0425 4.7882 7.0394 5.7077 1.5465.5038 3.1826.6718 4.7992.4928 1.6166-.1789 3.1763-.7007 4.5752-1.5306 1.3313-.7768 2.4824-1.8277 3.3769-3.083.8946-1.2554 1.5121-2.6865 1.8118-4.1985.3153-1.5694.3046-3.1869-.0317-4.752-.3362-1.565-.9907-3.0442-1.9227-4.3456-2.6308-4.2744-5.91-8.1138-9.7203-11.3807-4.097-3.5213-8.7803-6.29617-13.8367-8.19822-5.7284-2.11279-11.796-3.15629-17.9012-3.07866-7.8592-.11667-15.6644 1.31741-22.9688 4.22019-6.5963 2.57459-12.3707 6.89039-16.7078 12.48759-4.24945 5.7497-6.48088 12.7419-6.34758 19.8902-.06034 5.1016 1.01307 10.1529 3.14273 14.7891 2.12965 4.6361 5.26235 8.7415 9.17195 12.0195 7.835 6.9183 18.6103 11.1558 32.0318 12.6259 8.8555 1.0032 15.2377 3.4592 19.0255 7.1259 1.7055 1.5689 3.066 3.4754 3.995 5.5984.929 2.1231 1.4062 4.4162 1.4013 6.7335.1616 3.2967-.7819 6.5537-2.6809 9.2537-2.0742 2.693-4.8598 4.754-8.0426 5.949-4.0515 1.566-8.37 2.324-12.7124 2.232-4.1004.046-8.1838-.537-12.1071-1.73-3.2327-.972-6.2665-2.513-8.9592-4.549-2.1307-1.643-3.8975-3.71-5.1888-6.071-1.2222-2.561-3.2189-4.672-5.7076-6.0359-2.5706-1.4281-5.5885-1.8239-8.44037-1.107-1.5904.3427-3.09179 1.0135-4.40816 1.9695-1.31636.9564-2.41873 2.1764-3.2366 3.5824-.832361 1.473-1.2826712 3.131-1.30986106 4.823-.02718984 1.692.36960506 3.364 1.15420106 4.863 2.47074 5.618 6.21978 10.581 10.94829 14.494 4.9911 4.127 10.7108 7.283 16.8634 9.305 6.5727 2.198 13.4615 3.302 20.3918 3.269 5.9361.028 11.8444-.811 17.538-2.491 5.4325-1.571 10.52-4.153 14.9955-7.61 4.377-3.425 7.9243-7.794 10.3775-12.782 2.6275-5.449 3.9425-11.437 3.8397-17.4857 0-11.4499-3.8397-20.8588-11.398-28.002"/><path d="m205.402 60.443c-4.138-7.2316-10.102-13.2495-17.296-17.4515-7.584-4.3309-16.191-6.5469-24.923-6.4167-8.452-.1253-16.783 2.0121-24.131 6.1906-7.347 4.1786-13.443 10.2461-17.656 17.5738-4.322 7.4657-6.612 15.9337-6.642 24.5601v73.2997c-.04 1.562.238 3.115.817 4.566.58 1.45 1.449 2.768 2.554 3.871 1.106 1.104 2.424 1.971 3.876 2.549 1.451.577 3.005.853 4.566.81 1.567.035 3.124-.254 4.574-.849 1.449-.595 2.76-1.484 3.849-2.61 2.13-2.253 3.286-5.255 3.217-8.354v-32.862c1.986 1.463 4.085 2.764 6.279 3.891 6.416 3.298 13.541 4.979 20.755 4.895 8.436.111 16.737-2.129 23.972-6.469 7.002-4.253 12.745-10.294 16.638-17.503 4.078-7.593 6.155-16.0984 6.037-24.7158.125-8.7482-2.091-17.3708-6.417-24.9752zm-64.133 11.1558c2.104-3.901 5.239-7.1496 9.063-9.3916 3.886-2.3227 8.341-3.5203 12.868-3.4592 4.601-.0865 9.135 1.1114 13.093 3.4592 3.824 2.2809 6.971 5.5409 9.115 9.4435 2.306 4.2407 3.463 9.0108 3.355 13.8367.067 4.7851-1.094 9.5073-3.373 13.7156-2.106 3.904-5.24 7.158-9.063 9.409-3.982 2.217-8.465 3.381-13.023 3.381-4.559 0-9.041-1.164-13.024-3.381-3.824-2.209-6.948-5.452-9.011-9.3571-2.172-4.2705-3.304-8.9937-3.304-13.7848 0-4.791 1.132-9.5144 3.304-13.7848"/><path d="m327.338 81.6984c-.499-7.4829-2.7-14.7533-6.434-21.2567-4.135-7.234-10.1-13.2527-17.296-17.4515-7.476-4.3039-15.97-6.5201-24.595-6.4167-8.695-.1135-17.263 2.0957-24.82 6.3995-7.259 4.1778-13.28 10.2055-17.451 17.4687-4.327 7.6045-6.542 16.2271-6.417 24.9752-.116 8.6333 1.992 17.1511 6.123 24.7331 3.937 7.195 9.7 13.226 16.708 17.486 7.235 4.34 15.535 6.58 23.972 6.469 8.09.092 16.051-2.031 23.021-6.14 1.445-.869 2.842-1.816 4.185-2.837.528 1.897 1.555 3.617 2.975 4.981 2.278 2.04 5.227 3.168 8.285 3.168 3.057 0 6.007-1.128 8.284-3.168 1.17-1.082 2.095-2.4 2.715-3.867.621-1.467.921-3.05.883-4.642v-39.8498zm-26.446 17.4687c-2.053 3.8989-5.157 7.1459-8.959 9.3739-2.912 1.736-6.144 2.869-9.502 3.334-3.359.464-6.776.249-10.05-.632-3.274-.88-6.338-2.409-9.011-4.495-2.672-2.086-4.899-4.688-6.548-7.65-2.248-4.222-3.424-8.9321-3.424-13.7156s1.176-9.4936 3.424-13.7156c2.186-3.9095 5.359-7.1776 9.202-9.4782 2.889-1.7467 6.102-2.8903 9.445-3.362s6.747-.2616 10.007.6175c3.259.8792 6.307 2.4092 8.96 4.498 2.652 2.0887 4.854 4.6928 6.474 7.6555 2.177 4.2688 3.312 8.9927 3.312 13.7848s-1.135 9.516-3.312 13.7847"/><path d="m407.158 39.4272c-3.581-2.0236-8.424-2.9576-14.65-2.9576-6.785-.0709-13.464 1.6855-19.337 5.085-1.189.6671-2.344 1.3945-3.459 2.1793-.516-1.1665-1.243-2.2277-2.145-3.1306-1.628-1.7106-3.739-2.8853-6.051-3.3681-2.312-.4829-4.716-.2509-6.893.665-2.177.9158-4.024 2.4723-5.295 4.4626-1.272 1.9904-1.908 4.3205-1.824 6.6809v72.6423c0 3.087 1.227 6.048 3.409 8.231 2.183 2.183 5.144 3.409 8.231 3.409s6.048-1.226 8.231-3.409 3.409-5.144 3.409-8.231v-46.6294c-.113-3.3404.987-6.6088 3.096-9.2014 2.372-2.8076 5.528-4.8432 9.063-5.846 4.586-1.3124 9.406-1.5959 14.114-.8302h.38c4.601.2941 7.87.2941 10.758-1.3663 1.153-.6923 2.141-1.6285 2.894-2.743s1.253-2.3802 1.465-3.7084c.611-2.3213.399-4.7827-.601-6.965-.999-2.1824-2.725-3.9507-4.882-5.0037"/><path d="m505.502 115.512-28.936-35.5778 26.791-24.0931c1.167-.9284 2.125-2.0924 2.812-3.4161.686-1.3238 1.086-2.7774 1.172-4.266.087-1.4886-.142-2.9787-.67-4.373-.529-1.3944-1.346-2.6615-2.397-3.7188-1.949-2.2144-4.686-3.5798-7.628-3.805-1.485-.0825-2.971.1438-4.364.6648s-2.663 1.3252-3.73 2.3619l-33.796 30.5099v-57.5433c.04-1.5441-.231-3.08059-.795-4.51844-.565-1.43785-1.412-2.7479-2.491-3.85272-1.079-1.06643-2.36-1.90652-3.768-2.47086-1.407-.56434-2.914-.841531-4.43-.815335-1.546-.055799-3.086.207685-4.524.774005-1.439.56632-2.745 1.4233-3.838 2.51737-1.092 1.09406-1.947 2.40168-2.511 3.84115-.564 1.43948-.826 2.97983-.768 4.52483v109.3965c-.058 1.544.203 3.084.768 4.522.564 1.439 1.419 2.745 2.512 3.838s2.399 1.948 3.838 2.512c1.439.565 2.978.826 4.523.768 1.517.033 3.025-.241 4.434-.806s2.689-1.408 3.764-2.48c1.079-1.102 1.926-2.409 2.49-3.844.565-1.435.835-2.969.796-4.51v-22.0698l4.895-4.4104 28.157 34.5912c.905 1.214 2.051 2.226 3.367 2.973 1.316.748 2.773 1.214 4.278 1.369.334.018.669.018 1.003 0 2.708-.026 5.314-1.034 7.334-2.837 1.231-.916 2.253-2.084 2.999-3.426.745-1.342 1.197-2.827 1.325-4.357.151-2.933-.806-5.816-2.681-8.077"/></g></svg>