<svg fill="none" height="233" viewBox="0 0 131 233" width="131" xmlns="http://www.w3.org/2000/svg"><g fill="#fff"><path d="m123.236 36.9088h-115.31463c-1.97211 0-3.86344-.7845-5.25793-2.181s-2.177905-3.2905-2.177905-5.2654v-21.66883c0-1.97489.783415-3.8689 2.177905-5.26536s3.28582-2.180981 5.25793-2.180981h93.69163c7.711 0 15.106 3.067481 20.558 8.527641 5.453 5.46013 8.516 12.86573 8.516 20.58753 0 .9791-.193 1.9487-.567 2.8531-.375.9044-.924 1.7259-1.616 2.4176-.692.6916-1.514 1.2398-2.418 1.6131-.903.3734-1.872.5645-2.85.5626z"/><path d="m123.236 134.59h-115.31463c-1.97211 0-3.86344-.785-5.25793-2.181-1.39449-1.397-2.177905-3.291-2.177905-5.266v-21.668c0-1.975.783415-3.869 2.177905-5.266 1.39449-1.3962 3.28582-2.1807 5.25793-2.1807h93.69163c7.711 0 15.106 3.0677 20.558 8.5277 5.453 5.46 8.516 12.866 8.516 20.587 0 .98-.193 1.949-.567 2.853-.375.905-.924 1.726-1.616 2.418s-1.514 1.24-2.418 1.613c-.903.374-1.872.565-2.85.563z"/><path d="m7.92071 49.1353h115.31529c1.972 0 3.863.7845 5.258 2.181 1.394 1.3964 2.177 3.2904 2.177 5.2653v21.6093c0 1.9749-.783 3.8689-2.177 5.2654-1.395 1.3964-3.286 2.1809-5.258 2.1809h-93.6919c-7.7006.0159-15.093-3.0283-20.55496-8.4644-5.4619-5.4361-8.547125-12.8201-8.578621-20.5316-.007952-.9892.180984-1.97.555776-2.8852.374795-.9153.927935-1.7466 1.627105-2.4453.69917-.6988 1.53037-1.251 2.44505-1.6246.91468-.3735 1.89451-.5608 2.88226-.5508z"/><path d="m123.236 232.241h-115.31463c-1.97211 0-3.86344-.784-5.25793-2.181-1.39449-1.396-2.177905-3.29-2.177905-5.265v-21.669c0-1.975.783415-3.869 2.177905-5.266 1.39449-1.396 3.28582-2.181 5.25793-2.181h93.69163c7.711 0 15.106 3.068 20.558 8.528 5.453 5.46 8.516 12.866 8.516 20.588 0 .979-.193 1.948-.567 2.853-.375.904-.924 1.726-1.616 2.417-.692.692-1.514 1.24-2.418 1.614-.903.373-1.872.564-2.85.562z"/></g><path d="m7.92101 146.803h115.31499c1.972 0 3.863.784 5.258 2.181 1.394 1.396 2.178 3.29 2.178 5.265v21.609c0 1.975-.784 3.869-2.178 5.266-1.395 1.396-3.286 2.181-5.258 2.181h-93.6916c-7.6955.015-15.0834-3.025-20.54449-8.454-5.46106-5.43-8.549745-12.806-8.589092-20.513-.011934-.991.174064-1.975.547074-2.894.373008-.919.925518-1.754 1.625098-2.456s1.53212-1.256 2.44878-1.632c.91666-.375 1.89896-.563 2.88924-.553z" fill="#00a351"/></svg>