<svg fill="none" height="20" viewBox="0 0 109 20" width="109" xmlns="http://www.w3.org/2000/svg"><g fill="#fff"><path d="m29.1058 2.01562h-5.9286v15.80708h3.5795v-4.9679h2.3491c3.0873 0 5.4811-2.4162 5.4811-5.41959 0-3.00335-2.3938-5.41959-5.4811-5.41959zm0 7.45194h-2.3491v-4.06469h2.3491c1.0962 0 1.9016.88068 1.9016 2.03234s-.8054 2.03235-1.9016 2.03235z"/><path d="m43.7112 6.53195v6.16475c0 1.6033-.8501 2.3259-2.0806 2.3259-1.0738 0-1.9463-.6548-1.9463-2.0549v-6.43575h-3.3559v6.93255c0 3.0485 1.924 4.6744 4.1836 4.6744 1.4766 0 2.5952-.542 3.1992-1.3775v1.0613h3.3558v-11.29075z"/><path d="m53.1076 8.54171v-2.00976h-3.3558v11.29075h3.3558v-5.1034c0-2.2356 1.9688-2.80011 3.3559-2.5743v-3.83887c-1.4095 0-2.9084.72261-3.3559 2.23558z"/><path d="m61.6116 8.54171v-2.00976h-3.3558v11.29075h3.3558v-5.1034c0-2.2356 1.9688-2.80011 3.3558-2.5743v-3.83887c-1.4094 0-2.9083.72261-3.3558 2.23558z"/><path d="m79.0645 6.53195-1.6108 6.05185-1.7451-6.05185h-3.132l-1.7451 6.05185-1.6107-6.05185h-3.5796l3.5796 11.29075h3.132l1.7898-6.0292 1.7898 6.0292h3.1321l3.5795-11.29075z"/><path d="m86.7604 13.5322h7.9421c.0895-.429.1342-.8806.1342-1.3549 0-3.40977-2.4161-5.9615-5.6825-5.9615-3.5347 0-5.9509 2.59689-5.9509 5.9615 0 3.3647 2.3714 5.9616 6.197 5.9616 2.1254 0 3.7809-.7904 4.8771-2.3259l-2.6846-1.5581c-.4475.4968-1.2305.8581-2.1477.8581-1.2305 0-2.2596-.4065-2.6847-1.5808zm-.0671-2.5291c.3132-1.15166 1.1634-1.78394 2.4386-1.78394 1.0067 0 2.0134.47421 2.3714 1.78394z"/><path d="m103.653 6.2158c-1.499 0-2.595.51938-3.333 1.37748v-5.57766h-3.3562v15.80708h3.3562v-1.0613c.738.8581 1.834 1.3775 3.333 1.3775 2.931 0 5.347-2.5969 5.347-5.9616 0-3.36461-2.416-5.9615-5.347-5.9615zm-.671 8.7165c-1.544 0-2.662-1.0613-2.662-2.755 0-1.6936 1.118-2.75491 2.662-2.75491s2.662 1.06131 2.662 2.75491c0 1.6937-1.118 2.755-2.662 2.755z"/><path d="m10.6916 19.9861 8.9595-19.9861h-3.3009l-8.95951 19.9861z"/><path d="m3.25566 19.9861 8.83684-19.9861h-3.25571l-8.83679 19.9861z"/></g></svg>