<svg fill="none" height="184" viewBox="0 0 184 184" width="184" xmlns="http://www.w3.org/2000/svg"><rect fill="#fff" height="184" rx="20" width="184"/><path d="m72.3596 93.1096c0 11.3974 8.2488 19.4504 19.1749 19.4504 11.1155 0 19.1745-8.053 19.1745-19.4504h29.785c0 27.0064-20.532 46.4664-48.9595 46.4664-28.4277 0-48.9593-19.451-48.9593-46.4664z" fill="#5b40ff"/><path d="m110.719 93.1096c0-11.56-8.086-19.7226-19.1753-19.7226-10.926 0-19.1748 8.1717-19.1748 19.7226h-29.8025c0-27.541 20.5225-47.1096 48.9502-47.1096 28.4274 0 48.9774 19.5595 48.9774 47.1096z" fill="#1ae2d3"/><path d="m58.7202 76.4852 19.6995 21.3352c1.0672 1.1597.2532 3.0436-1.3296 3.0436h-39.399c-1.5738 0-2.3968-1.8839-1.3296-3.0436l19.6995-21.3352c.7236-.7791 1.9446-.7791 2.6592 0z" fill="#5b40ff"/><path d="m127.017 111.029 19.7-21.3347c1.067-1.1596.253-3.044-1.33-3.044h-39.399c-1.574 0-2.397 1.8844-1.329 3.044l19.699 21.3347c.715.78 1.936.78 2.659 0z" fill="#1ae2d3"/></svg>