<svg fill="none" height="66" viewBox="0 0 201 66" width="201" xmlns="http://www.w3.org/2000/svg"><rect fill="#1f1f1f" height="66" rx="13.9228" width="201"/><path d="m54.0678 44.9987h-16.0678l13.8819-29.9987h16.0678z" fill="#32388e"/><path d="m67.966 16.501-3.7519 8.1399 3.7845 20.358h5.22z" fill="#d0131b"/><path d="m73.5938 43.8242 13.1642-28.8242h-5.2037l-9.4449 20.5537z" fill="#ffd800"/><g fill="#fff"><path d="m166.709 20.8701h-4.429v4.4291h4.429z"/><path d="m120.171 48.3833h-4.575v4.4291h4.575z"/><path d="m127.258 48.3833h-4.43v4.4291h4.43z"/><path d="m143.401 17.8423h-4.429v4.4291h4.429z"/><path d="m150.567 17.8423h-4.43v4.4291h4.43z"/><path d="m162.426 28.102v8.4483c0 2.1022-1.706 3.8077-3.808 3.8077h-7.867c-.37 0-.727-.0529-1.071-.1587 2.274-1.5468 3.768-4.1514 3.768-7.0997 0-4.7331-3.847-8.5937-8.593-8.5937-4.747 0-8.594 3.8473-8.594 8.5937 0 2.9219 1.468 5.5132 3.715 7.0601-.383.1322-.793.1983-1.203.1983h-12.163c.581-1.137.925-2.4327.925-3.8077v-21.5239h-4.574v21.5239c0 2.1022-1.706 3.8077-3.808 3.8077h-1.269-6.254v-19.0119h-4.574v21.3917c0 2.1022-1.706 3.8077-3.808 3.8077h-1.269v4.5745h1.269c3.86 0 7.1-2.631 8.078-6.1743h6.558 1.269 19.62c2.274 0 4.429-.9254 5.989-2.5252 1.573 1.613 3.715 2.5252 5.989 2.5252h7.867c4.614 0 8.382-3.7548 8.382-8.3822v-8.4482h-4.574zm-17.558.9652c2.208 0 4.019 1.7981 4.019 4.0192 0 2.2212-4.019 4.6538-4.019 4.6538s-4.019-2.4326-4.019-4.6538c0-2.2211 1.798-4.0192 4.019-4.0192z"/><path d="m99.348 21.3462h-4.4952v23.5336h4.4952z"/></g></svg>