<svg fill="none" height="173" viewBox="0 0 564 173" width="564" xmlns="http://www.w3.org/2000/svg"><g fill="#5b40ff"><path d="m140.872 105.845c0 37.723-25.216 67.155-63.2736 67.155-15.2881 0-28.8587-5.119-39.775-14.115l-1.1971 8.082c-.2862 1.92-1.9256 3.343-3.8643 3.343h-28.85866c-2.15985 0-3.90334-1.75-3.90334-3.917v-162.47572c0-2.16756 1.74349-3.91728 3.90334-3.91728h35.11706c2.1598 0 3.9033 1.74972 3.9033 3.91728v44.99642c9.6933-6.581 21.5725-10.2241 34.6747-10.2241 36.8346 0 63.2736 27.9955 63.2736 67.1554zm-42.651 0c0-16.5442-11.6449-28.2307-27.8958-28.2307s-27.8959 11.6865-27.8959 28.2307c0 16.544 11.645 28.23 27.8959 28.23s27.8958-11.66 27.8958-28.23z"/><path d="m403.51 102.043 37.472 56.723c.703 1.07 1.08 2.324 1.08 3.603v1.123c0 2.168-1.743 3.918-3.903 3.918h-38.916c-2.316 0-4.463-1.241-5.634-3.265l-18.515-32.095-18.515 32.095c-1.158 2.011-3.305 3.265-5.633 3.265h-39.385c-2.16 0-3.904-1.75-3.904-3.918v-1.123c0-1.279.378-2.533 1.08-3.603l37.707-57.193-36.002-54.8024c-.703-1.0707-1.08-2.3112-1.08-3.5909v-1.136c0-2.1675 1.743-3.9172 3.903-3.9172h38.409c2.329 0 4.489 1.2535 5.647 3.2774l9.277 16.2306 8.47 15.1076 8.744-15.1076 9.055-16.1784c1.158-2.0631 3.318-3.3296 5.673-3.3296h37.902c2.159 0 3.903 1.7497 3.903 3.9172v1.1491c0 1.2666-.364 2.494-1.054 3.5647z"/><path d="m529.87 128.864h29.705c2.16 0 3.903 1.749 3.903 3.917v30.724c0 2.168-1.743 3.918-3.903 3.918h-101.552c-2.16 0-3.904-1.75-3.904-3.918v-14.559c0-1.319.404-2.611 1.145-3.695l47.491-69.3098h-41.831c-2.16 0-3.903-1.7497-3.903-3.9172v-29.9803c0-2.1675 1.743-3.9172 3.903-3.9172h97.688c2.16 0 3.903 1.7497 3.903 3.9172v12.5745c0 1.3319-.403 2.6376-1.171 3.7345l-49.156 70.7723z"/><path d="m204.114 106.027c0 16.427 11.866 28.035 27.584 28.035 15.99 0 27.583-11.608 27.583-28.035h42.846c0 38.925-29.535 66.973-70.429 66.973s-70.43-28.035-70.43-66.973z"/></g><path d="m259.295 106.026c0-16.6616-11.632-28.4264-27.583-28.4264-15.718 0-27.584 11.7779-27.584 28.4264h-42.871c0-39.6951 29.522-67.8995 70.416-67.8995s70.455 28.1913 70.455 67.8995z" fill="#1ae2d3"/><path d="m184.481 82.0721 28.338 30.7509c1.536 1.671.365 4.387-1.912 4.387h-56.677c-2.264 0-3.448-2.716-1.912-4.387l28.338-30.7509c1.041-1.123 2.797-1.123 3.825 0z" fill="#5b40ff"/><path d="m282.734 131.856 28.338-30.751c1.536-1.6709.365-4.3869-1.912-4.3869h-56.677c-2.264 0-3.448 2.716-1.913 4.3869l28.339 30.751c1.028 1.123 2.784 1.123 3.825 0z" fill="#1ae2d3"/></svg>