<svg fill="none" height="331" viewBox="0 0 131 331" width="131" xmlns="http://www.w3.org/2000/svg"><path d="m122.736 86.0764h-115.30016c-1.97211 0-3.86344-.7845-5.25793-2.181-1.394494-1.3965-2.17791-3.2905-2.17791-5.2654v-21.6688c0-1.9749.783416-3.8689 2.17791-5.2654 1.39449-1.3965 3.28582-2.181 5.25793-2.181h93.69116c3.818 0 7.599.7531 11.127 2.2163 3.527 1.4632 6.732 3.6078 9.432 6.3114s4.841 5.9132 6.302 9.4456 2.213 7.3185 2.213 11.1419c.001.9804-.193 1.9511-.568 2.8565-.376.9054-.926 1.7276-1.62 2.4194-.694.6919-1.517 1.2398-2.422 1.6122-.906.3725-1.876.5622-2.855.5583z" fill="#fff"/><path d="m122.736 134.909h-115.30016c-1.97211 0-3.86344-.785-5.25793-2.181-1.394494-1.397-2.17791-3.291-2.17791-5.266v-21.668c0-1.975.783416-3.869 2.17791-5.266 1.39449-1.3963 3.28582-2.1808 5.25793-2.1808h93.69116c3.818 0 7.599.7531 11.127 2.2158 3.527 1.464 6.732 3.608 9.432 6.312 2.7 2.703 4.841 5.913 6.302 9.446 1.461 3.532 2.213 7.318 2.213 11.141.001.981-.193 1.952-.568 2.857-.376.905-.926 1.728-1.62 2.419-.694.692-1.517 1.24-2.422 1.613-.906.372-1.876.562-2.855.558z" fill="#00a351"/><path d="m122.736 232.59h-115.30016c-1.97211 0-3.86344-.785-5.25793-2.181-1.394494-1.397-2.17791-3.291-2.17791-5.266v-21.668c0-1.975.783416-3.869 2.17791-5.266 1.39449-1.396 3.28582-2.181 5.25793-2.181h93.69116c7.706-.008 15.1 3.048 20.557 8.496s8.531 12.843 8.547 20.56c.008.988-.18 1.967-.554 2.882-.374.914-.926 1.744-1.623 2.443-.698.699-1.527 1.251-2.44 1.626-.913.374-1.892.563-2.878.555z" fill="#fff"/><path d="m122.736 281.423h-115.30016c-1.97211 0-3.86344-.784-5.25793-2.181-1.394494-1.396-2.17791-3.29-2.17791-5.265v-21.639c0-1.975.783416-3.869 2.17791-5.265 1.39449-1.397 3.28582-2.181 5.25793-2.181h93.69116c3.818 0 7.599.753 11.127 2.216 3.527 1.463 6.732 3.608 9.432 6.311 2.7 2.704 4.841 5.914 6.302 9.446s2.213 7.318 2.213 11.142c-.003.978-.2 1.945-.577 2.847s-.928 1.721-1.621 2.41c-.694.688-1.516 1.234-2.419 1.604-.904.371-1.872.559-2.848.555z" fill="#00a351"/><g fill="#fff"><path d="m122.736 330.241h-115.30016c-1.97211 0-3.86344-.784-5.25793-2.181-1.394494-1.396-2.17791-3.29-2.17791-5.265v-21.669c0-1.975.783416-3.869 2.17791-5.266 1.39449-1.396 3.28582-2.181 5.25793-2.181h93.69116c3.818 0 7.599.754 11.127 2.217 3.527 1.463 6.732 3.607 9.432 6.311s4.841 5.913 6.302 9.446c1.461 3.532 2.213 7.318 2.213 11.142.001.98-.193 1.951-.568 2.856-.376.906-.926 1.728-1.62 2.42-.694.691-1.517 1.239-2.422 1.612-.906.372-1.876.562-2.855.558z"/><path d="m7.43584.62207h93.69116c7.711 0 15.106 3.06748 20.559 8.52763 5.452 5.4602 8.515 12.8657 8.515 20.5875 0 1.9749-.783 3.8689-2.177 5.2654-1.395 1.3964-3.286 2.181-5.258 2.181h-115.33016c-1.97211 0-3.86344-.7846-5.25793-2.181-1.394494-1.3965-2.17791-3.2905-2.17791-5.2654v-21.60924c0-1.97489.783416-3.8689 2.17791-5.26535 1.39449-1.39646 3.28582-2.180979 5.25793-2.180979z"/></g></svg>