<svg fill="none" height="67" viewBox="0 0 204 67" width="204" xmlns="http://www.w3.org/2000/svg"><path d="m.348145 14.372c0-7.68934 6.233445-13.922781 13.922755-13.922781h175.4471c7.689 0 13.923 6.233451 13.923 13.922781v38.7054c0 7.6894-6.234 13.9228-13.923 13.9228h-175.4471c-7.6893 0-13.922755-6.2334-13.922755-13.9228z" fill="#fff"/><path d="m72.4856 33.326s-11.3015 15.326-25.2428 15.326c-13.9412 0-25.2428-15.326-25.2428-15.326s11.3016-15.326 25.2428-15.326c13.9413 0 25.2428 15.326 25.2428 15.326z" fill="#000"/><path d="m47.3716 45.5614c6.8995 0 12.4926-5.5931 12.4926-12.4926s-5.5931-12.4926-12.4926-12.4926-12.4926 5.5931-12.4926 12.4926c0 3.311 1.2881 6.3212 3.3905 8.5568-.5192-.9401-.8147-2.021-.8147-3.171 0-3.6275 2.9407-6.5683 6.5683-6.5683 3.6275 0 6.5683 2.9408 6.5683 6.5683 0 3.6276-2.9408 6.5683-6.5683 6.5683-.1058 0-.211-.0025-.3156-.0074 1.1587.3549 2.3891.5459 3.6641.5459z" fill="#23f000"/><g fill="#000"><circle cx="56.5157" cy="25.2118" r="3.34854"/><path d="m85.2842 49 3.4986-12.2672h16.0752l8.016-7.3957h-22.0541l1.1514-3.9414h16.2527l8.016-7.3957h-30.6458l-8.8571 31z"/><path d="m117.923 40.1871-2.48 8.8129h-8.503l2.48-8.2372 8.104-7.9714h14.526c1.151 0 2.067-.3395 2.746-1.0186.708-.7085 1.062-1.6385 1.062-2.79 0-1.1514-.354-2.0371-1.062-2.6571-.679-.62-1.595-.93-2.746-.93h-16.253l7.706-7.3957h9.831c1.653 0 3.159.2657 4.517.7971 1.358.5315 2.51 1.2843 3.455 2.2586.974.9743 1.727 2.1405 2.258 3.4986.532 1.3581.797 2.8638.797 4.5171 0 1.6829-.265 3.2181-.797 4.6057-.531 1.3581-1.284 2.5243-2.258 3.4986-.945.9447-2.097 1.6828-3.455 2.2143-1.358.5314-2.864.7971-4.517.7971z"/><path d="m168.098 30.5329c-1.594-.561-3.542-.8414-5.845-.8414-2.156 0-2.347-.0001-3.41-.3544s-1.506-1.0924-1.506-1.7714c0-.62.443-1.3286 1.151-1.6829.886-.4428 1.506-.4428 3.1-.4428h4.075 8.414l7.529-7.44h-8.946-2.923-3.277-4.34-6.554c-1.683 0-2.746.8857-3.986 2.0371-1.417 1.316-2.023 2.5834-2.524 3.8529-.473 1.24-.709 2.4948-.709 3.7643 0 1.2105.221 2.4062.664 3.5871.443 1.1515 1.152 2.1848 2.126 3.1 1.004.8858 2.303 1.6091 3.897 2.17 1.594.5315 2.672.7972 5.004.7972h.001c2.155 0 3.852 0 5.004.2657 1.151.4428 1.683 1.0038 1.683 1.6828 0 .62-.089 1.3286-.975 1.86-.856.5019-2.303.4429-3.897.4429h-3.72c-1.063 0-15.588-.0886-16.696-.0886l-7.484 7.4843h22.763c1.24 0 2.569.0443 3.809.0443s1.417-.0443 2.657-.0443c2.539 0 3.144.2214 4.915-.3986 1.772-.62 2.539-1.0333 3.632-2.0371 1.092-1.0038 1.875-2.1257 2.347-3.3657.502-1.24.753-2.4948.753-3.7643 0-1.24-.236-2.4357-.709-3.5871-.443-1.1515-1.166-2.1848-2.17-3.1-.974-.9153-2.258-1.6386-3.853-2.17z"/></g></svg>