<svg fill="none" height="66" viewBox="0 0 201 66" width="201" xmlns="http://www.w3.org/2000/svg"><rect fill="#1f1f1f" height="66" rx="13.9228" width="201"/><path d="m83.5258 42.1792h-36.5121v3.5113h36.5121z" fill="#32388e"/><path d="m118.474 42.1792h-36.5119v3.5113h36.5119z" fill="#d0131b"/><path d="m155 42.1792h-36.512v3.5113h36.512z" fill="#ffd800"/><g fill="#fff"><path d="m61.5253 21.5223c1.1795.9738 1.7693 2.5923 1.7693 4.8555v12.1387h-4.828v-10.9729c0-.9464-.1234-1.6733-.3841-2.1808-.4663-.9327-1.3304-1.3853-2.6334-1.3853-1.5911 0-2.6747.6721-3.2644 2.0299-.3018.7133-.4664 1.6322-.4664 2.7432v9.7659h-4.7183v-17.9955h4.5674v2.6335c.6035-.9327 1.1796-1.591 1.7145-2.0025.9602-.727 2.1946-1.0973 3.6759-1.0973 1.8791 0 3.3879.4801 4.5675 1.4676z"/><path d="m74.8299 27.5437c.8778-.1097 1.5087-.2469 1.8791-.4115.6721-.288 1.015-.7269 1.015-1.3442 0-.7406-.2606-1.2481-.7819-1.5362-.5212-.288-1.2755-.4252-2.2905-.4252-1.1247 0-1.934.2744-2.4003.823-.3429.4115-.5624.9601-.6721 1.6596h-4.5537c.096-1.5773.5486-2.8803 1.3304-3.8816 1.2482-1.5911 3.4016-2.3866 6.4465-2.3866 1.9889 0 3.7445.3978 5.2807 1.1796s2.3043 2.2631 2.3043 4.4303v8.2707c0 .5761.0137 1.2619.0274 2.0849.0275.6172.1235 1.0424.2881 1.2618.1509.2195.384.3978.6995.5487v.6995h-5.1298c-.1372-.3703-.2469-.6995-.3018-1.0287-.0548-.3155-.096-.6858-.1371-1.0973-.6584.6995-1.4128 1.303-2.2632 1.7968-1.0149.5898-2.1808.8778-3.4564.8778-1.6459 0-3.0038-.4663-4.0737-1.399-1.0698-.9327-1.6047-2.2494-1.6047-3.9639 0-2.222.8641-3.8268 2.5786-4.8143.9464-.535 2.3317-.9327 4.1697-1.1522zm2.8803 2.2083c-.3017.192-.6035.3429-.9189.4526-.3155.1097-.727.2194-1.2619.3292l-1.0699.192c-1.0012.1783-1.7282.3978-2.1671.6447-.7407.4251-1.111 1.0972-1.111 2.0025 0 .8092.2195 1.3853.6858 1.7419.4526.3566 1.0013.535 1.6597.535 1.0287 0 1.9751-.3018 2.8529-.8916.8641-.5898 1.3167-1.6871 1.3579-3.2644v-1.7419z"/><path d="m96.6247 21.111c.5349.4252 1.0972 1.111 1.6596 2.0711v-2.6746h4.5537v25.1552h-4.6634v-9.3818c-.3566.727-.9601 1.3716-1.8105 1.9477-.8504.5624-2.0163.8504-3.4976.8504-2.0849 0-3.8542-.8367-5.3218-2.4963-1.4677-1.6597-2.1946-3.8954-2.1946-6.6797 0-3.0038.7407-5.4041 2.2083-7.2009s3.2918-2.7021 5.4452-2.7021c1.4814 0 2.7021.3703 3.6211 1.111zm1.015 11.8506c.4389-.9189.6583-2.0711.6583-3.4838 0-1.111-.192-2.0986-.5623-2.9627-.6721-1.5636-1.8517-2.3591-3.5525-2.3591-1.1933 0-2.1534.4526-2.8804 1.3716-.7269.9189-1.0835 2.3043-1.0835 4.1696 0 1.2482.1646 2.2769.4938 3.0724.6172 1.5088 1.7693 2.2632 3.4427 2.2632 1.6322.0137 2.7981-.6858 3.4839-2.0712z"/><path d="m118.982 20.8501c1.262.5624 2.29 1.4539 3.113 2.6747.741 1.0698 1.221 2.318 1.44 3.7307.124.823.179 2.0163.151 3.5799h-13.14c.069 1.8105.7 3.0724 1.893 3.7994.713.4526 1.591.672 2.606.672 1.07 0 1.948-.2743 2.62-.8229.37-.3018.686-.7133.974-1.2345h4.814c-.123 1.0699-.713 2.1534-1.742 3.2644-1.618 1.7557-3.881 2.6335-6.789 2.6335-2.401 0-4.513-.7406-6.351-2.222-1.838-1.4813-2.757-3.8816-2.757-7.2146 0-3.1273.823-5.5138 2.483-7.1872s3.799-2.4963 6.446-2.4963c1.578-.0274 2.991.2606 4.239.8229zm-7.05 4.0737c-.672.6858-1.084 1.6185-1.262 2.7981h8.12c-.083-1.2482-.508-2.2083-1.262-2.853-.755-.6446-1.687-.9738-2.798-.9738-1.194 0-2.14.3429-2.798 1.0287z"/><path d="m136.099 20.0547c.055 0 .192.0138.412.0275v4.828c-.302-.0274-.563-.0549-.796-.0686s-.425-.0137-.562-.0137c-1.893 0-3.169.6172-3.827 1.8517-.37.6995-.549 1.7693-.549 3.2095v8.6274h-4.745v-18.0366h4.499v3.141c.727-1.207 1.357-2.03 1.906-2.4689.878-.7407 2.03-1.111 3.443-1.111.082.0137.151.0137.219.0137z"/><path d="m146.414 27.5437c.878-.1097 1.508-.2469 1.879-.4115.672-.288 1.015-.7269 1.015-1.3442 0-.7406-.261-1.2481-.782-1.5362-.521-.288-1.276-.4252-2.291-.4252-1.124 0-1.934.2744-2.4.823-.343.4115-.562.9601-.672 1.6596h-4.554c.096-1.5773.549-2.8803 1.331-3.8816 1.248-1.5911 3.401-2.3866 6.446-2.3866 1.989 0 3.745.3978 5.281 1.1796s2.304 2.2631 2.304 4.4303v8.2707c0 .5761.014 1.2619.028 2.0849.027.6172.123 1.0424.288 1.2618.151.2195.384.3978.699.5487v.6995h-5.13c-.137-.3703-.246-.6995-.301-1.0287-.055-.3155-.096-.6858-.137-1.0973-.659.6995-1.413 1.303-2.264 1.7968-1.015.5898-2.18.8778-3.456.8778-1.646 0-3.004-.4663-4.074-1.399s-1.604-2.2494-1.604-3.9639c0-2.222.864-3.8268 2.578-4.8143.947-.535 2.332-.9327 4.17-1.1522zm2.88 2.2083c-.302.192-.603.3429-.919.4526-.315.1097-.727.2194-1.262.3292l-1.07.192c-1.001.1783-1.728.3978-2.167.6447-.74.4251-1.111 1.0972-1.111 2.0025 0 .8092.22 1.3853.686 1.7419.453.3566 1.001.535 1.66.535 1.028 0 1.975-.3018 2.853-.8916.877-.5898 1.316-1.6871 1.358-3.2644v-1.7419z"/></g></svg>