<svg fill="none" height="227" viewBox="0 0 271 227" width="271" xmlns="http://www.w3.org/2000/svg"><g fill="#fff"><path d="m122.356 132.255h-114.94317c-1.96601 0-3.85149-.782-5.24166-2.174-1.390178-1.392-2.17117-3.28-2.17117-5.249v-21.602c0-1.969.780992-3.8567 2.17117-5.2489 1.39017-1.3921 3.27565-2.1742 5.24166-2.1742h93.40117c3.807 0 7.576.7507 11.092 2.2094 3.517 1.4586 6.712 3.5967 9.403 6.2917 2.692 2.695 4.827 5.895 6.283 9.417 1.457 3.521 2.207 7.295 2.207 11.107 0 .977-.193 1.945-.567 2.848-.375.902-.924 1.722-1.615 2.412-.691.689-1.512 1.235-2.415 1.607-.903.371-1.87.56-2.846.556z"/><path d="m122.356 226.968h-114.94317c-1.96601 0-3.85149-.782-5.24166-2.175-1.390178-1.392-2.17117-3.28-2.17117-5.249v-21.602c0-1.968.780992-3.856 2.17117-5.249 1.39017-1.392 3.27565-2.174 5.24166-2.174h93.40117c3.807 0 7.576.751 11.092 2.21 3.517 1.458 6.712 3.596 9.403 6.291 2.692 2.696 4.827 5.895 6.283 9.417 1.457 3.521 2.207 7.296 2.207 11.107 0 .978-.193 1.945-.567 2.848-.375.903-.924 1.722-1.615 2.412s-1.512 1.236-2.415 1.607-1.87.56-2.846.557z"/><path d="m122.356 83.7432h-114.94317c-1.96601 0-3.85149-.7821-5.24166-2.1742-1.390178-1.3921-2.17117-3.2803-2.17117-5.2491v-21.6018c0-1.9688.780992-3.8569 2.17117-5.2491 1.39017-1.3921 3.27565-2.1742 5.24166-2.1742h93.40117c3.807 0 7.576.7507 11.092 2.2094 3.517 1.4586 6.712 3.5966 9.403 6.2919 2.692 2.6952 4.827 5.8949 6.283 9.4164 1.457 3.5215 2.207 7.2958 2.207 11.1074 0 .9774-.193 1.9451-.567 2.8477-.375.9026-.924 1.7222-1.615 2.4119s-1.512 1.2359-2.415 1.6072-1.87.5604-2.846.5565z"/><path d="m262.92 132.255h-114.943c-1.966 0-3.852-.782-5.242-2.174s-2.171-3.28-2.171-5.249v-21.602c0-1.969.781-3.8567 2.171-5.2489 1.39-1.3921 3.276-2.1742 5.242-2.1742h93.401c3.807 0 7.575.7507 11.092 2.2094 3.517 1.4586 6.712 3.5967 9.403 6.2917 2.692 2.695 4.827 5.895 6.283 9.417 1.457 3.521 2.206 7.295 2.206 11.107 0 .977-.192 1.945-.567 2.848-.374.902-.923 1.722-1.614 2.412-.692.689-1.512 1.235-2.415 1.607-.903.371-1.87.56-2.846.556z"/></g><g fill="#00a351"><path d="m262.92 226.968h-114.943c-1.966 0-3.852-.782-5.242-2.175-1.39-1.392-2.171-3.28-2.171-5.249v-21.602c0-1.968.781-3.856 2.171-5.249 1.39-1.392 3.276-2.174 5.242-2.174h93.401c3.807 0 7.576.751 11.092 2.21 3.517 1.458 6.712 3.596 9.403 6.291 2.692 2.696 4.827 5.895 6.283 9.417 1.457 3.521 2.206 7.296 2.206 11.107 0 .978-.192 1.945-.567 2.848-.374.903-.923 1.722-1.614 2.412-.692.69-1.512 1.236-2.415 1.607s-1.87.56-2.846.557z"/><path d="m262.92 83.7432h-114.943c-1.966 0-3.852-.7821-5.242-2.1742s-2.171-3.2803-2.171-5.2491v-21.6018c0-1.9688.781-3.8569 2.171-5.2491 1.39-1.3921 3.276-2.1742 5.242-2.1742h93.401c3.807 0 7.575.7507 11.092 2.2094 3.517 1.4586 6.712 3.5966 9.403 6.2919 2.692 2.6952 4.827 5.8949 6.283 9.4164 1.457 3.5215 2.206 7.2958 2.206 11.1074 0 .9774-.192 1.9451-.567 2.8477-.374.9026-.923 1.7222-1.614 2.4119-.692.6897-1.512 1.2359-2.415 1.6072s-1.87.5604-2.846.5565z"/><path d="m122.356 179.673h-114.94317c-1.96601 0-3.85149-.782-5.24166-2.174-1.390178-1.393-2.17117-3.281-2.17117-5.25v-21.601c0-1.969.780992-3.857 2.17117-5.249 1.39017-1.393 3.27565-2.175 5.24166-2.175h93.40117c3.807 0 7.576.751 11.092 2.21 3.517 1.458 6.712 3.596 9.403 6.292 2.692 2.695 4.827 5.895 6.283 9.416 1.457 3.522 2.207 7.296 2.207 11.107 0 .978-.193 1.946-.567 2.848-.375.903-.924 1.722-1.615 2.412s-1.512 1.236-2.415 1.607c-.903.372-1.87.561-2.846.557z"/><path d="m122.356 36.4484h-114.94317c-1.96601 0-3.85149-.7821-5.24166-2.1742-1.390178-1.3921-2.17117-3.2803-2.17117-5.2491v-21.60179c0-1.96879.780992-3.85694 2.17117-5.24908 1.39017-1.39214 3.27565-2.17423 5.24166-2.17423h93.40117c3.807 0 7.576.75074 11.092 2.20939 3.517 1.45865 6.712 3.59664 9.403 6.29187 2.692 2.69524 4.827 5.89494 6.283 9.41644 1.457 3.5215 2.207 7.2958 2.207 11.1074 0 .9774-.193 1.9451-.567 2.8477-.375.9026-.924 1.7222-1.615 2.4119s-1.512 1.2359-2.415 1.6072-1.87.5604-2.846.5565z"/></g><path d="m148.006 143.225h114.943c1.966 0 3.852.782 5.242 2.174s2.171 3.28 2.171 5.249v21.602c0 1.969-.781 3.857-2.171 5.249s-3.276 2.174-5.242 2.174h-93.401c-3.806 0-7.575-.751-11.092-2.209-3.516-1.459-6.712-3.597-9.403-6.292s-4.826-5.895-6.283-9.417c-1.457-3.521-2.206-7.295-2.206-11.107 0-.977.192-1.945.567-2.848.374-.902.923-1.722 1.614-2.412.692-.689 1.512-1.235 2.415-1.607.903-.371 1.87-.56 2.846-.556z" fill="#fff"/><path d="m148.006.00032044h114.943c1.966 0 3.852.78206656 5.242 2.17420956 1.39 1.39214 2.171 3.28031 2.171 5.24909v21.60178c0 1.9688-.781 3.857-2.171 5.2491s-3.276 2.1742-5.242 2.1742h-93.401c-3.806 0-7.575-.7507-11.092-2.2094-3.516-1.4586-6.712-3.5966-9.403-6.2918-2.691-2.6953-4.826-5.895-6.283-9.4164-1.457-3.5215-2.206-7.2958-2.206-11.10748 0-.97734.192-1.94509.567-2.84767.374-.90257.923-1.72223 1.614-2.41194.692-.6897 1.512-1.235864 2.415-1.607171.903-.371304 1.87-.56042863 2.846-.55651856z" fill="#fff"/></svg>