<svg fill="none" height="92" viewBox="0 0 92 92" width="92" xmlns="http://www.w3.org/2000/svg" xmlns:xlink="http://www.w3.org/1999/xlink"><clipPath id="a"><path d="m0 0h91.08v91.08h-91.08z" transform="matrix(1 0 0 -1 0 91.08)"/></clipPath><g clip-path="url(#a)" fill="#5b40ff"><path d="m45.5394 91.08c-14.0284 0-26.7405-6.5817-35.0622-16.5609l-3.41375 3.362c-.69377.7475-1.76111 1.0145-2.71994.6408-.96061-.267-1.65439-1.1213-1.76112-2.134l-2.5598468-17.6126c-.2899622-2.1678 2.2093968-3.4048 3.0401468-2.9883.54257.0765 18.73721 2.6697 17.60231 2.5077 1.0139.1068 1.8145.8009 2.1347 1.762s.1067 2.0272-.6404 2.7747l-4.0542 4.0561c6.3472 8.1122 16.3926 13.3412 27.4343 13.3412 19.0432 0 34.7954-15.5304 34.8488-34.5811 0-.0534 0-.0534 0-.1068 0-.678-.0231-1.3579-.064-2.0307-.105-1.6872 1.3697-3.0523 3.0508-2.8067l5.3758.7867c1.2737.1869 2.2361 1.2583 2.2788 2.5451.0178.5054.0267 1.0091.0267 1.5039.0018 24.9862-20.4325 45.5409-45.5169 45.5409z"/><path d="m88.0188 35.8269c-.5425-.0766-18.7372-2.6697-17.6023-2.5077-1.0139-.1068-1.8144-.8009-2.1346-1.762s-.1068-2.0272.6404-2.7747l4.2676-4.2697c-6.2938-8.2724-16.4478-13.6615-27.6496-13.6615-19.0965 0-34.8488 15.5837-34.8488 34.6878.0178.3471-.0427 1.0946.0748 2.5148.1405 1.7122-1.34846 3.1004-3.02952 2.8637l-5.37586-.7564c-1.27014-.1798-2.234306-1.237-2.2930096-2.5202-.06759845-1.4861-.037357-2.6839-.0444727-3.2232.5870393-24.4932 20.8736623-44.41780348 45.5168623-44.41780348 14.1886 0 27.0092 6.68839348 35.3291 16.88120348l3.1469-3.1485c.7009-.7795 1.8643-.9824 2.7199-.6407.9606.267 1.6544 1.1213 1.7612 2.134l2.5598 17.6108c.2224 1.6535-1.3022 3.2802-3.0384 2.9901z"/></g></svg>