<svg fill="none" height="86" viewBox="0 0 132 86" width="132" xmlns="http://www.w3.org/2000/svg"><path d="m123.722.47868h-115.29618c-1.97203 0-3.86327.78451-5.25771 2.18091s-2.177845 3.2903-2.177845 5.26511v21.6084c0 1.9748.783405 3.8687 2.177845 5.2651s3.28568 2.1809 5.25771 2.1809h93.68818c7.692.0119 15.076-3.0298 20.534-8.4588s8.544-12.8028 8.583-20.50625c.012-.99162-.174-1.97563-.547-2.89429-.373-.91865-.925-1.75343-1.625-2.45536-.699-.70192-1.532-1.25684-2.448-1.63218-.917-.375334-1.899-.563529-2.889-.55354z" fill="#00a351"/><path d="m8.44 85.9143h93.688c7.711 0 15.105-3.0674 20.558-8.5274 5.452-5.4599 8.515-12.8652 8.515-20.5867 0-1.9748-.783-3.8688-2.178-5.2652-1.394-1.3964-3.286-2.1809-5.258-2.1809h-115.325c-1.97203 0-3.8633.7845-5.25773 2.1809-1.39444 1.3964-2.17782 3.2904-2.17782 5.2652v21.6084c-.007852.9829.17868 1.9576.54884 2.8678.37015.9103.91661 1.7382 1.60785 2.436.69124.6977 1.51357 1.2515 2.41959 1.6294s1.87779.5725 2.85927.5725z" fill="#fff"/></svg>