<svg fill="none" height="330" viewBox="0 0 131 330" width="131" xmlns="http://www.w3.org/2000/svg"><g fill="#fff"><path d="m7.7425 134.589h115.3105c1.972 0 3.863-.784 5.258-2.18 1.394-1.397 2.178-3.291 2.178-5.266v-21.668c0-1.974-.784-3.868-2.178-5.265-1.395-1.3962-3.286-2.1807-5.258-2.1807h-93.6879c-7.7107 0-15.1055 3.0677-20.55773 8.5277-5.45225 5.46-8.515302 12.865-8.515302 20.586 0 .979.192811 1.949.567414 2.853.374608.905.923628 1.726 1.615658 2.418.69204.691 1.51349 1.24 2.41733 1.613s1.87233.564 2.85003.562z"/><path d="m7.74255 232.266h115.31045c1.972 0 3.863-.784 5.258-2.181 1.394-1.396 2.178-3.29 2.178-5.265v-21.668c0-1.975-.784-3.869-2.178-5.265-1.395-1.396-3.286-2.181-5.258-2.181h-93.6879c-7.7106 0-15.1054 3.067-20.55769 8.527-5.45225 5.46-8.515296 12.866-8.515296 20.587 0 .979.19281 1.949.567414 2.853.374602.904.923632 1.726 1.615662 2.418.69203.691 1.51349 1.239 2.41733 1.613.90384.373 1.87233.564 2.85003.562z"/><path d="m123.053 146.816h-115.31017c-1.97204 0-3.86331.784-5.25774 2.181-1.39444 1.396-2.177824 3.29-2.177824 5.265v21.608c0 1.975.783384 3.869 2.177824 5.265 1.39443 1.397 3.2857 2.181 5.25774 2.181h93.68817c7.7.016 15.092-3.028 20.554-8.464s8.547-12.82 8.578-20.531c.008-.989-.181-1.97-.555-2.885-.375-.915-.928-1.746-1.627-2.445-.7-.699-1.531-1.251-2.445-1.624-.915-.374-1.895-.561-2.883-.551z"/><path d="m7.7425 329.914h115.3105c1.972 0 3.863-.784 5.258-2.18 1.394-1.397 2.178-3.291 2.178-5.266v-21.668c0-1.975-.784-3.869-2.178-5.265-1.395-1.396-3.286-2.181-5.258-2.181h-93.6879c-7.7107 0-15.1055 3.068-20.55773 8.528-5.45225 5.459-8.515302 12.865-8.515302 20.586 0 .979.192811 1.949.567414 2.853.374608.905.923628 1.726 1.615658 2.418.69204.691 1.51349 1.24 2.41733 1.613s1.87233.564 2.85003.562z"/></g><path d="m123.053 244.479h-115.31045c-1.97203 0-3.8633.784-5.25773 2.181-1.39444 1.396-2.177828 3.29-2.177828 5.265v21.608c0 1.975.783388 3.869 2.177828 5.265 1.39443 1.397 3.2857 2.181 5.25773 2.181h93.68845c7.695.016 15.082-3.024 20.543-8.453 5.461-5.43 8.55-12.806 8.589-20.512.012-.992-.174-1.976-.547-2.894-.373-.919-.926-1.754-1.625-2.456-.7-.702-1.532-1.256-2.449-1.632-.916-.375-1.899-.563-2.889-.553z" fill="#00a351"/><path d="m123.053.307617h-93.6879c-7.7106 0-15.1055 3.067363-20.55772 8.527303-5.45225 5.45998-8.515281 12.86518-8.515281 20.58678 0 1.9748.783391 3.8687 2.177811 5.2651 1.39444 1.3964 3.28571 2.1809 5.25774 2.1809h115.32535c1.972 0 3.863-.7845 5.258-2.1809 1.394-1.3964 2.178-3.2903 2.178-5.2651v-21.60847c0-1.97482-.784-3.86876-2.178-5.26516-1.395-1.39641-3.286-2.180894-5.258-2.180894z" fill="#fff"/></svg>