<svg fill="none" height="184" viewBox="0 0 184 184" width="184" xmlns="http://www.w3.org/2000/svg" xmlns:xlink="http://www.w3.org/1999/xlink"><linearGradient id="a" gradientUnits="userSpaceOnUse" x1="65.3989" x2="153.205" y1="121.048" y2="63.8683"><stop offset="0" stop-color="#5643eb"/><stop offset=".5927" stop-color="#8e80f7"/><stop offset="1" stop-color="#b0a6ff"/></linearGradient><linearGradient id="b" gradientUnits="userSpaceOnUse" x1="98.4432" x2="44.3151" y1="139.808" y2="50.7541"><stop offset="0" stop-color="#6353eb"/><stop offset=".6524" stop-color="#4738c2"/></linearGradient><linearGradient id="c" gradientUnits="userSpaceOnUse" x1="57.0554" x2="53.2945" y1="64.201" y2="108.679"><stop offset=".1546" stop-color="#5643eb"/><stop offset=".3721" stop-color="#8e80f7"/><stop offset=".5216" stop-color="#b0a6ff"/></linearGradient><rect fill="#fff" height="184" rx="20" width="184"/><path d="m58.6852 123.688s7.5565 10.491 36.8291 9.17c24.5037-1.1 31.1067-17.607 36.8287-32.354 5.723-14.746 17.094-49.2275 17.094-49.2275h-32.427s-9.611-2.0542-16.433 19.8085c-6.8234 21.8627-18.195 60.012-41.8918 52.603z" fill="url(#a)"/><path d="m119.211 123.54s-9.317 11.299-35.8019 10.492c-21.9361-.734-28.0254-13.133-33.6745-25.238-5.7224-12.1051-10.0509-31.9136-10.0509-31.9136h34.7749l2.4944 2.2743.6603 1.3205s3.0813 8.9506 4.4019 11.8118c7.85 17.241 12.0318 36.682 37.1958 31.253z" fill="url(#b)"/><path d="m33.3744 85.0243h33.3076s.1468-5.3557 3.008-7.1898c2.3477-1.5407 6.0892-.4402 7.9967 2.7145 0 0-1.5406-6.236-10.4178-6.236-14.2328 0-23.6234 0-23.6234 0s-9.7576.4402-10.2711 10.7113z" fill="url(#c)"/></svg>