<svg fill="none" height="501" viewBox="0 0 1145 501" width="1145" xmlns="http://www.w3.org/2000/svg" xmlns:xlink="http://www.w3.org/1999/xlink"><filter id="a" color-interpolation-filters="sRGB" filterUnits="userSpaceOnUse" height="483.473" width="483.473" x="569.72" y=".720001"><feFlood flood-opacity="0" result="BackgroundImageFix"/><feBlend in="SourceGraphic" in2="BackgroundImageFix" mode="normal" result="shape"/><feGaussianBlur result="effect1_foregroundBlur" stdDeviation="50.14"/></filter><mask id="b" height="103" maskUnits="userSpaceOnUse" width="209" x="0" y="291"><path d="m104.246 291.695c-57.2103 6.856-102.71777 64.012-104.246 101.763h208.48c.013-53.708-40.936-109.336-104.234-101.763z" fill="#553df8"/></mask><g stroke="#fff"><g stroke-linecap="round" stroke-linejoin="round" stroke-miterlimit="10" stroke-width="2.5974"><path d="m374.67 309.963 3.927 11.34"/><path d="m382.303 313.67-11.34 3.927"/><path d="m468.493 209.317-.358 11.995"/><path d="m474.311 215.493-11.994-.358"/></g><circle cx="151" cy="246" r="10" stroke-width="2"/><path d="m403.234 433.124c0-14.242-5.683-30.185-16.048-46.126-10.359-15.932-25.358-31.804-43.887-45.886-37.061-28.167-88.161-49.112-144.299-49.112-56.274 0-90.977 11.735-111.6145 30.494-20.6124 18.736-27.3855 44.656-27.3855 73.506 0 28.61 15.4595 54.587 40.605 73.446 25.146 18.86 59.931 30.554 98.395 30.554 38.637 0 89.854-2.472 131.385-12.166 20.772-4.848 39.038-11.485 52.088-20.464 13.03-8.964 20.761-20.183 20.761-34.246z" stroke-width="2"/></g><path d="m104.246 292.122c-57.2103 6.856-102.71777 64.011-104.246 101.763h208.48c.013-53.709-40.936-109.337-104.234-101.763z" fill="#d867f4"/><g mask="url(#b)"><path d="m187.5 323.5s-13-16.5-66.5-22.5-105.5 28-105.5 28m180 65s-74.5-63.627-193-35.5m227 0s-122.5-58.206-214-20.5" stroke="#fbfbfb" stroke-linecap="round" stroke-miterlimit="10" stroke-width="2"/></g><path d="m1143.94 260.622c0 21.65-8.63 45.842-24.34 69.992-15.69 24.139-38.41 48.175-66.46 69.494-56.106 42.642-133.465 74.351-218.458 74.351-85.136 0-137.743-17.751-169.069-46.225-31.299-28.45-41.556-67.792-41.556-111.48 0-43.433 23.471-82.836 61.577-111.416 38.107-28.58 90.8-46.289 149.048-46.289 58.43 0 135.913 3.737 198.758 18.407 31.43 7.336 59.11 17.387 78.91 31.01 19.78 13.608 31.59 30.695 31.59 52.156z" stroke="#fff" stroke-width="2.11336"/><path d="m502.196 321.601c15.572 3.153 30.774-7.027 33.954-22.738 3.181-15.71-6.864-31.002-22.436-34.155-15.572-3.152-30.774 7.028-33.955 22.739-3.181 15.71 6.865 31.002 22.437 34.154z" fill="#ffab37"/><g fill="#000"><path d="m498.917 304.951c.272-.028.56.072.784.283.173.159 4.132 3.922 9.958 1.705.534-.202 1.093.077 1.296.594.203.518-.079 1.102-.593 1.309-7.068 2.669-11.86-1.946-12.068-2.133-.393-.39-.407-1.035-.018-1.432.182-.191.408-.29.641-.326z"/><path d="m513.352 294.579c-.189-.08-.37-.199-.496-.39-.294-.474-.169-1.091.306-1.409 4.254-2.762 7.917.029 9.263 1.896.318.458.232 1.083-.223 1.405-.435.326-1.074.238-1.416-.204-.29-.39-2.933-3.762-6.554-1.389-.261.175-.596.21-.88.091z"/><path d="m491.722 290.2c-.193-.06-.37-.199-.495-.39-.295-.474-.17-1.091.305-1.409 4.254-2.763 7.917.029 9.263 1.896.318.458.233 1.083-.222 1.405-.436.326-1.075.238-1.417-.204-.29-.39-2.932-3.762-6.553-1.389-.261.175-.597.21-.881.091z"/></g><g filter="url(#a)"><path d="m748.761 321.217c-43.499-34.626-50.691-97.958-16.065-141.456 34.626-43.499 97.958-50.691 141.457-16.065 43.498 34.626 50.69 97.958 16.064 141.456-34.626 43.499-97.958 50.691-141.456 16.065z" fill="#f474ef"/></g></svg>