<svg fill="none" height="193" viewBox="0 0 967 193" width="967" xmlns="http://www.w3.org/2000/svg" xmlns:xlink="http://www.w3.org/1999/xlink"><filter id="a" color-interpolation-filters="sRGB" filterUnits="userSpaceOnUse" height="319.276" width="327.061" x="389.99" y="9.10791"><feFlood flood-opacity="0" result="BackgroundImageFix"/><feBlend in="SourceGraphic" in2="BackgroundImageFix" mode="normal" result="shape"/><feGaussianBlur result="effect1_foregroundBlur" stdDeviation="35"/></filter><g filter="url(#a)" opacity=".7"><path d="m502.143 233.287c-43.157-34.355-55.141-91.101-26.767-126.746 28.375-35.6448 86.363-36.691 129.521-2.336 43.157 34.354 55.141 91.1 26.766 126.745-28.374 35.645-86.362 36.692-129.52 2.337z" fill="#ff74f1"/></g><path d="m399.515 223.947c-4.505-13.511-14.939-26.838-29.814-38.683-14.866-11.837-34.114-22.15-56.146-29.649-44.068-15-99.169-18.708-152.425-.952-53.385 17.798-82.5953 39.906-96.2406 64.229-13.6285 24.294-11.8558 51.026-2.7312 78.395 9.0487 27.141 31.9307 46.895 61.7498 56.833 29.82 9.938 66.518 10.031 103.008-2.135 36.653-12.22 84.46-30.764 120.792-53.095 18.173-11.17 33.402-23.243 42.942-35.888 9.526-12.626 13.312-25.715 8.865-39.055z" stroke="#fff" stroke-width="2"/><path d="m1203.94 165.629c0 21.651-8.63 45.843-24.34 69.992-15.69 24.14-38.41 48.175-66.46 69.495-56.11 42.641-133.465 74.351-218.458 74.351-85.136 0-137.743-17.751-169.069-46.226-31.299-28.45-41.556-67.792-41.556-111.479 0-43.434 23.471-82.836 61.577-111.416 38.107-28.5807 90.8-46.2893 149.048-46.2893 58.43 0 135.918 3.7371 198.758 18.4064 31.43 7.3363 59.11 17.3876 78.91 31.0099 19.78 13.608 31.59 30.696 31.59 52.156z" stroke="#fff" stroke-width="2.11336"/><path clip-rule="evenodd" d="m558.293 125c12.017 0 21.758 9.741 21.758 21.758 0 5.187-1.815 9.951-4.845 13.69l.912 12.623-11.39-5.522c-2.033.628-4.194.967-6.435.967h-97.536c-12.016 0-21.757-9.741-21.757-21.758s9.741-21.758 21.757-21.758z" fill="#ba38db" fill-rule="evenodd"/><g stroke="#fff" stroke-linecap="round" stroke-width="2"><path d="m467 146h86"/><g stroke-miterlimit="10"><path d="m610.256 67.5001-32.761-6.7048c-2.47-.5055-4.082-2.9389-3.576-5.4118l5.299-25.8917c.505-2.4681 2.94-4.0783 5.414-3.5719l32.761 6.7049c2.47.5055 4.082 2.9389 3.576 5.4117l-5.3 25.8965c-.505 2.4681-2.943 4.0726-5.413 3.5671z"/><path d="m586.773 41.0386c2.352.4813 4.649-1.0337 5.13-3.3839s-1.036-4.6456-3.388-5.1269c-2.352-.4814-4.648 1.0337-5.129 3.3838-.481 2.3502 1.036 4.6456 3.387 5.127z"/><path d="m599.767 53.9814c-1.659-4.0984-6.335-6.0656-10.426-4.3903-.594.2433-1.188.4864-1.782.7293"/><path d="m592.397 58.1949c4.592-2.9985 9.185-5.9942 13.778-8.991 3.582-2.3377 8.368-1.4428 10.864 2.0317.319.4437.637.8873.956 1.3308"/></g></g><path d="m462.243 129.521c1.687-11.475-6.248-22.144-17.722-23.83-11.475-1.687-22.144 6.248-23.83 17.722-1.687 11.475 6.248 22.144 17.722 23.83 11.475 1.687 22.144-6.248 23.83-17.722z" fill="#ffab37"/><path d="m456.447 118.924c-.424-1.387-1.715-2.392-3.157-2.414-1.649-.04-2.954 1.008-3.405 2.395-.796-1.224-2.357-1.876-3.926-1.388-1.387.424-2.34 1.743-2.363 3.185-.036 1.193.511 2.202 1.336 2.821l5.533 4.18c.405.299.955.204 1.247-.164l4.18-5.533c.641-.84.892-1.957.555-3.082z" fill="#b93d3d"/><path d="m425.515 123.804c-.096-1.447.778-2.839 2.099-3.405 1.528-.623 3.12-.107 4.034 1.029.335-1.42 1.537-2.591 3.17-2.667 1.448-.096 2.833.805 3.367 2.145.432 1.095.278 2.233-.279 3.13l-3.687 5.874c-.24.404-.793.536-1.217.264l-5.873-3.687c-.898-.557-1.53-1.512-1.614-2.683z" fill="#b93d3d"/><path d="m437.22 134.648c.256-.097.56-.076.831.07.208.109 5.009 2.714 10.06-.941.462-.334 1.075-.21 1.405.237.331.447.21 1.085-.233 1.418-6.131 4.414-11.958 1.203-12.207 1.076-.481-.274-.662-.894-.39-1.378.127-.232.318-.387.534-.482z" fill="#000"/><path d="m648.621 146.171-7.67 9.229" stroke="#ba38db" stroke-linecap="round" stroke-linejoin="round" stroke-miterlimit="10" stroke-width="2.5974"/><path d="m649.399 154.621-9.228-7.67" stroke="#ba38db" stroke-linecap="round" stroke-linejoin="round" stroke-miterlimit="10" stroke-width="2.5974"/><g stroke="#fff" stroke-width="2"><path d="m172.621 3.17139-7.67 9.22851" stroke-linecap="round" stroke-linejoin="round" stroke-miterlimit="10"/><path d="m173.399 11.621-9.228-7.67032" stroke-linecap="round" stroke-linejoin="round" stroke-miterlimit="10"/><circle cx="293" cy="79" r="10"/><path d="m61.3393 99.5061.006.0067.0062.0065c2.2949 2.4437 4.3615 7.2757 6.4735 16.5887l.0072.031c2.1029 9.273 2.3305 14.56 1.3127 17.718l-.0033.011-.003.01c-.4772 1.598-1.0815 2.509-1.9143 3.167-.8748.691-2.0888 1.175-3.9637 1.735-3.7487 1.079-13.2991 3.383-21.624 5.271-8.3425 1.892-17.9561 3.934-21.7988 4.573-1.9296.302-3.2327.389-4.3216.143-1.0372-.234-1.98-.796-3.1075-2.031l-.0048-.005-.0049-.005c-2.2686-2.415-4.35128-7.285-6.45351-16.554l-.00728-.033c-2.11082-9.307-2.32532-14.563-1.32552-17.756h.00005l.00292-.009c.48412-1.603 1.0928-2.517 1.92705-3.172.87594-.687 2.09045-1.163 3.96569-1.703l.0087-.003c3.7227-1.109 13.2789-3.39 21.6306-5.284 8.335-1.89 17.9354-3.9542 21.7767-4.556l.0113-.0018c1.928-.3247 3.2296-.4189 4.3135-.1768 1.0319.2305 1.97.7922 3.0901 2.0287z"/></g><path d="m34.1649 134.449c-1.1236 1.073-2.9883.511-3.3319-1.004l-3.8563-17.004c-.3437-1.515 1.0962-2.826 2.5728-2.343l16.1288 5.281c1.4366.471 1.8522 2.303.7591 3.347z" fill="#fcfcfc"/></svg>