<svg fill="none" height="290" viewBox="0 0 795 290" width="795" xmlns="http://www.w3.org/2000/svg" xmlns:xlink="http://www.w3.org/1999/xlink"><filter id="a" color-interpolation-filters="sRGB" filterUnits="userSpaceOnUse" height="462.404" width="458.9" x="306" y="33"><feFlood flood-opacity="0" result="BackgroundImageFix"/><feBlend in="SourceGraphic" in2="BackgroundImageFix" mode="normal" result="shape"/><feGaussianBlur result="effect1_foregroundBlur" stdDeviation="35"/></filter><filter id="b" color-interpolation-filters="sRGB" filterUnits="userSpaceOnUse" height="462.404" width="458.9" x="256" y="0"><feFlood flood-opacity="0" result="BackgroundImageFix"/><feBlend in="SourceGraphic" in2="BackgroundImageFix" mode="normal" result="shape"/><feGaussianBlur result="effect1_foregroundBlur" stdDeviation="35"/></filter><linearGradient id="c" gradientUnits="userSpaceOnUse" x1="227.5" x2="397.441" y1="189" y2="178.535"><stop offset="0" stop-color="#fff"/><stop offset=".817918" stop-color="#fff" stop-opacity="0"/></linearGradient><g filter="url(#a)" opacity=".4"><path d="m460.972 357.762c-46.929-37.357-51.627-109.529-10.495-161.201 41.133-51.673 112.521-63.278 159.45-25.921s51.628 109.53 10.496 161.202c-41.133 51.673-112.521 63.277-159.451 25.92z" fill="#20d5b4"/></g><g filter="url(#b)" opacity=".4"><path d="m410.972 324.762c-46.929-37.357-51.628-109.529-10.495-161.201 41.132-51.673 112.521-63.278 159.45-25.921s51.628 109.53 10.495 161.202c-41.133 51.673-112.521 63.277-159.45 25.92z" fill="#20d5b4"/></g><path d="m392.517 197.451c0-25.886 20.973-46.859 46.859-46.859z" fill="#1f9a93"/><path d="m392.517 197.451c0-25.886 20.973-46.859 46.859-46.859" stroke="#fff" stroke-miterlimit="10" stroke-width="3"/><path d="m566.897 224.312c.12-1.397.195-2.794.195-4.221 0-26.818-21.739-48.557-48.556-48.557-6.611 0-12.906 1.322-18.66 3.711-9.149-25.781-33.743-44.245-62.649-44.245-34.479 0-62.814 26.246-66.134 59.855-26.157 4.296-46.093 26.982-46.093 54.34 0 30.423 24.669 55.092 55.092 55.092h172.713c21.694 0 39.287-17.592 39.287-39.287.015-16.751-10.457-31.024-25.195-36.688z" fill="#1f9a93"/><path d="m420 250.391 37.078-37.519c.77-.779 2.023-.794 2.811-.033l37.958 36.625" stroke="#1fbaa5" stroke-linecap="round" stroke-miterlimit="10" stroke-width="5"/><path d="m458.47 211.467v87.578" stroke="#1fbaa5" stroke-width="5"/><path d="m188.769 171.766c5.225 1.889 9.754 5.333 12.999 9.868l-21.979 14.914c-.981.665-.997 2.124-.011 2.807l21.818 15.122c-3.295 4.506-7.862 7.907-13.108 9.747-5.555 1.948-11.58 2.042-17.189.27s-10.509-5.318-13.979-10.118c-3.47-4.801-5.327-10.603-5.296-16.554.031-5.952 1.949-11.737 5.471-16.506 3.521-4.769 8.46-8.268 14.089-9.986s11.652-1.565 17.185.436z" fill="#ffab37" stroke="#ffab37" stroke-width="2"/><path d="m179.562 183.44c-.042 2.176-1.819 3.907-3.97 3.866s-3.861-1.837-3.82-4.013c.042-2.176 1.819-3.906 3.97-3.866 2.151.041 3.861 1.838 3.82 4.013z" fill="#30200a"/><path clip-rule="evenodd" d="m300.661 209.236c-.037-.227.179-.442.483-.481 1.145-.144 2.325-.332 3.54-.566 1.276-.245 2.469-.544 3.589-.893.287-.09.605.01.711.222s-.041.457-.328.546c-1.172.366-2.418.678-3.744.933-1.246.239-2.456.432-3.634.581-.304.038-.58-.115-.617-.342zm-6.124.321c-.025.23-.293.41-.598.401-2.583-.073-4.976-.375-7.202-.855-.29-.063-.447-.293-.35-.515s.41-.35.701-.288c2.143.463 4.449.754 6.943.825.305.008.532.202.506.432zm20.054-4.645c-.195-.17-.162-.434.074-.589 1.911-1.253 3.52-2.717 4.905-4.337.169-.198.513-.262.768-.144s.325.374.156.572c-1.435 1.678-3.115 3.21-5.123 4.527-.236.155-.586.142-.78-.029zm-33.75 1.907c-.16.201-.501.275-.762.163-2.123-.907-4.063-1.969-5.857-3.114-.229-.145-.248-.408-.044-.587.204-.178.554-.205.783-.059 1.754 1.119 3.642 2.151 5.698 3.03.261.112.343.365.182.567zm-10.967-6.674c-.228.161-.579.158-.782-.007-1.57-1.27-3.029-2.552-4.409-3.764-.094-.082-.187-.165-.28-.246-.195-.171-.161-.435.075-.589.237-.155.586-.142.78.029.093.081.185.162.278.244 1.382 1.214 2.828 2.485 4.383 3.743.204.165.184.429-.045.59zm53.464-4.728c-.282-.08-.415-.319-.296-.536.954-1.741 1.777-3.566 2.534-5.427.091-.223.401-.357.694-.299.292.058.455.286.365.509-.764 1.876-1.599 3.729-2.572 5.505-.118.216-.443.327-.725.248zm-125.247 3.972c.008.23-.234.429-.54.446-1.236.067-2.414-.016-3.516-.293-.286-.071-.43-.307-.322-.526.109-.219.429-.338.715-.266.945.236 1.976.313 3.095.253.306-.017.56.156.568.386zm5.465-1.19c-.11-.211.032-.457.318-.55 1.912-.62 3.948-1.41 6.095-2.289.274-.112.607-.04.743.161.137.201.025.455-.249.567-2.157.884-4.229 1.689-6.191 2.325-.285.092-.606-.003-.716-.214zm56.912-6.011c-.219.169-.57.177-.783.02-.893-.657-1.763-1.226-2.627-1.682-.919-.486-1.84-.916-2.762-1.295-.263-.108-.35-.36-.194-.564.156-.203.496-.28.759-.172.957.393 1.911.839 2.862 1.341.924.488 1.838 1.087 2.755 1.763.214.157.209.421-.01.589zm-44.734 1.23c-.138-.2-.03-.455.243-.568 1.972-.821 4.009-1.65 6.095-2.432.279-.105.607-.023.734.182.126.206.002.457-.277.561-2.064.774-4.084 1.596-6.05 2.414-.273.114-.606.044-.745-.157zm112.333-9.013c-.295-.052-.467-.275-.385-.5.693-1.887 1.385-3.762 2.142-5.57.093-.222.405-.354.696-.294.292.06.453.289.36.511-.75 1.791-1.437 3.652-2.13 5.54-.083.225-.388.365-.683.313zm-100.033 4.429c-.099-.214.055-.457.344-.542 2.159-.634 4.36-1.171 6.589-1.557.301-.052.59.087.646.311.055.225-.144.449-.445.501-2.165.376-4.311.899-6.429 1.521-.29.084-.605-.02-.705-.234zm20.921-1.687c-.086.224-.394.361-.688.306-2.172-.404-4.343-.568-6.506-.541-.306.004-.546-.179-.537-.41.009-.23.264-.42.57-.424 2.251-.028 4.517.143 6.786.565.293.055.461.28.375.504zm123.475-9.592c-.305.022-.566-.146-.581-.375-.053-.801-.405-1.873-1.065-3.08-.114-.209.023-.456.307-.552.283-.096.606-.004.721.205.686 1.256 1.082 2.421 1.144 3.347.015.229-.22.433-.526.455zm-39.618-4.156c-.278-.088-.398-.331-.269-.544 1.132-1.873 2.457-3.594 4.086-5.073.199-.181.549-.213.781-.071s.258.404.059.585c-1.543 1.402-2.817 3.05-3.921 4.875-.129.213-.458.315-.736.228zm34.168-4.724c-.232.158-.582.15-.781-.018-1.843-1.551-4.103-2.949-6.741-3.918-.27-.099-.371-.348-.227-.556.144-.207.48-.296.75-.197 2.781 1.022 5.145 2.488 7.059 4.1.2.167.173.431-.06.589zm-24.435-4.067c-.124-.206.002-.457.281-.56 1.149-.425 2.391-.769 3.737-1.025 1.587-.301 3.114-.457 4.58-.487.306-.007.549.175.543.405-.006.231-.259.422-.565.429-1.381.028-2.826.175-4.334.461-1.271.242-2.436.566-3.51.962-.28.104-.607.02-.732-.185z" fill-rule="evenodd" stroke="url(#c)" stroke-linecap="round" stroke-linejoin="round"/><g stroke="#fff"><g stroke-linecap="round" stroke-linejoin="round" stroke-miterlimit="10"><path d="m790.621 250.172-7.67 9.228" stroke-width="2"/><path d="m791.399 258.621-9.228-7.671" stroke-width="2"/><path d="m210.621 110.172-7.67 9.228" stroke-width="2.5974"/><path d="m211.399 118.621-9.228-7.671" stroke-width="2.5974"/></g><circle cx="11" cy="285" r="10" stroke-width="2"/><path d="m656.854 178.162 26.798 6.438c2.095.503 4.209-.792 4.712-2.885l4.834-20.123c.503-2.094-.792-4.206-2.888-4.71l-26.798-6.438c-2.094-.503-4.207.792-4.709 2.885l-4.835 20.123c-.502 2.093.791 4.207 2.886 4.71zm33.138-19.957c1.366.328 2.211 1.705 1.883 3.07l-4.834 20.122c-.328 1.364-1.706 2.207-3.072 1.879l-26.798-6.437c-1.364-.328-2.207-1.705-1.879-3.069l4.834-20.123c.327-1.364 1.704-2.207 3.068-1.88z" fill="#fff"/><path d="m639.205 171.527c.138.033.284.023.42-.034l17.683-7.32c.202-.083.351-.257.401-.469.051-.212-.003-.436-.143-.601l-12.427-14.547c-.165-.193-.428-.278-.676-.22-.249.059-.443.254-.503.502l-5.257 21.866c-.06.249.025.51.219.675.084.075.181.124.283.148zm16.717-8.252-15.584 6.45 4.633-19.269z" fill="#fff"/><path d="m685.674 157.168c4.477 1.075 8.993-1.693 10.068-6.169 1.076-4.476-1.69-8.994-6.167-10.069-4.476-1.076-8.993 1.691-10.069 6.168-1.076 4.478 1.692 8.994 6.168 10.07zm3.583-14.915c3.746.9 6.062 4.681 5.162 8.428s-4.681 6.063-8.427 5.163c-3.747-.9-6.063-4.681-5.163-8.428s4.681-6.063 8.428-5.163z" fill="#fff"/><path d="m667.516 152.805c4.476 1.075 8.994-1.691 10.069-6.169 1.076-4.477-1.692-8.994-6.168-10.069s-8.994 1.691-10.07 6.169c-1.075 4.477 1.693 8.994 6.169 10.069zm3.583-14.915c3.747.9 6.063 4.681 5.163 8.429-.9 3.747-4.681 6.063-8.428 5.163s-6.064-4.681-5.163-8.429c.9-3.747 4.681-6.063 8.428-5.163z" fill="#fff"/></g></svg>