<svg fill="none" height="199" viewBox="0 0 1049 199" width="1049" xmlns="http://www.w3.org/2000/svg"><g stroke-linecap="round" stroke-linejoin="round" stroke-miterlimit="10" stroke-width="2.5974"><path d="m460.67 91.9634 3.927 11.3396" stroke="#ff4858"/><path d="m468.303 95.6697-11.34 3.927" stroke="#ff4858"/><path d="m696.621 21.1716-7.67 9.2285" stroke="#fff"/><path d="m697.4 29.6208-9.229-7.6704" stroke="#fff"/></g><circle cx="290.5" cy="33.9709" r="14.0909" stroke="#fff" stroke-width="2.81818"/><path d="m1 197.5 42.1366-50.666c.2845-.342.7155-.528 1.1596-.499l16.4628 1.063c.5377.035 1.0472-.244 1.3077-.716l25.0636-45.362c.6136-1.11 2.2715-.888 2.5704.345l20.3753 84.049c.328 1.355 2.223 1.439 2.67.119l25.146-74.251c.252-.746 1.074-1.134 1.811-.855l26.473 10.028c.795.302 1.672-.175 1.853-1.006l23.722-109.2269c.321-1.47413 2.429-1.45661 2.725.0226l27.13 135.7543c.133.667.73 1.14 1.41 1.118l34.534-1.115c.254-.009.501-.086.714-.225l37.03-24.098c.576-.375 1.339-.273 1.797.239l21.471 24.041c.563.632 1.555.618 2.101-.029l20.077-23.797c.509-.604 1.418-.663 2.001-.131l27.134 24.739c.289.264.676.393 1.066.357l32.95-3.057c.385-.035.739-.23.975-.537l16.504-21.487c.432-.563 1.22-.71 1.826-.341l41.918 25.479 32.082 26.093c.557.452 1.367.407 1.871-.104l25.347-25.769c.143-.145.252-.319.32-.511l15.653-44.177c.351-.991 1.632-1.249 2.34-.472l25.99 28.508 20.699 29.882c.158.227.379.402.636.503l21.908 8.599c.513.202 1.095.082 1.487-.305l22.391-22.138c.073-.072.154-.136.242-.191l41.253-25.735c.318-.199.702-.261 1.067-.172l38.575 9.427c.343.084.64.294.833.588l18.905 28.807c.367.56 1.081.778 1.699.521l31.635-13.202c.238-.099.444-.263.594-.473l17.438-24.316c.537-.748 1.64-.778 2.216-.059l18.045 22.514c.719.897 2.153.585 2.435-.529l5.085-20.09c.306-1.212 1.931-1.436 2.555-.353l11.161 19.373c.221.384.612.64 1.052.689l27.647 3.058c.203.022.399.089.573.196l29.716 18.175c.523.32 1.193.26 1.651-.148l38.759-34.489c.098-.088.183-.188.253-.3l30.802-49.0204c.513-.817 1.682-.8763 2.275-.1155l38.036 48.7679c.27.338.67.536 1.1.536h46.08" stroke="#fff" stroke-linecap="round" stroke-linejoin="round" stroke-width="2"/><g fill="#fff"><path d="m284.287 7.40489c1.387-.30225 2.83-.48085 4.286-.56328v-6.84161c-2.074.0824294-4.094.357176-6.058.796799z"/><path d="m271.772 13.8069c1.071-.9617 2.212-1.8409 3.434-2.6378l-3.421-5.93485c-1.731 1.09906-3.352 2.34923-4.849 3.72305z"/><path d="m277.61 9.78161c1.278-.65943 2.61-1.20898 3.998-1.6486l-1.772-6.62184c-1.965.61822-3.847 1.40133-5.647 2.34927z"/><path d="m267.169 19.206c.783-1.209 1.662-2.363 2.638-3.4345l-4.836-4.8359c-1.374 1.4975-2.624 3.1186-3.723 4.8496z"/><path d="m262.842 32.5871c.068-1.47.261-2.8988.563-4.2863l-6.608-1.7722c-.44 1.9645-.701 3.9841-.797 6.0585z"/><path d="m264.119 25.6081c.454-1.3876 1.003-2.7202 1.649-3.9978l-5.921-3.4208c-.948 1.7997-1.731 3.6818-2.35 5.6463z"/><path d="m298.328 8.13301c1.387.45336 2.72 1.0029 3.997 1.6486l3.421-5.92117c-1.799-.94794-3.682-1.73105-5.646-2.34927z" opacity=".43"/><path d="m304.729 11.1691c1.209.7831 2.363 1.6623 3.435 2.6378l4.836-4.83588c-1.498-1.37383-3.119-2.62404-4.85-3.7231z" opacity=".43"/><path d="m291.362 6.84161c1.47.06869 2.899.26103 4.286.56328l1.773-6.608091c-1.965-.439623-3.984-.7006314-6.059-.796799z" opacity=".43"/><path d="m263.405 39.6486c-.302-1.3876-.481-2.8301-.563-4.2864h-6.842c.082 2.0745.357 4.094.797 6.0586z"/><path d="m265.782 46.3253c-.66-1.2776-1.209-2.6102-1.649-3.9978l-6.622 1.7722c.618 1.9646 1.402 3.8467 2.349 5.6465z"/><path d="m275.206 56.7664c-1.209-.7831-2.363-1.6623-3.434-2.6377l-4.836 4.8358c1.497 1.3738 3.118 2.624 4.849 3.7231z"/><path d="m269.807 52.1641c-.962-1.0716-1.841-2.2119-2.638-3.4346l-5.935 3.4208c1.099 1.731 2.35 3.3521 3.723 4.8496z"/><path d="m281.608 59.8162c-1.388-.4534-2.72-1.0029-3.998-1.6486l-3.421 5.9212c1.8.9479 3.682 1.731 5.647 2.3492z"/><path d="m469.231 113.956c-.867.262-1.775.448-2.697.574l.345 4.349c1.315-.157 2.585-.433 3.812-.812z"/><path d="m476.864 109.255c-.632.665-1.313 1.282-2.05 1.85l2.474 3.6c1.045-.786 2.013-1.662 2.895-2.611z"/><path d="m473.355 112.108c-.779.484-1.598.9-2.458 1.25l1.461 4.12c1.217-.492 2.374-1.085 3.471-1.778z"/><path d="m479.518 105.59c-.437.808-.938 1.586-1.504 2.317l3.319 2.83c.797-1.021 1.51-2.115 2.122-3.271z"/><path d="m481.595 96.8652c.03.938-.02 1.856-.142 2.7534l4.29.7934c.18-1.2711.244-2.5681.201-3.8918z"/><path d="m481.134 101.366c-.218.905-.5 1.78-.846 2.625l3.937 1.876c.511-1.192.914-2.428 1.208-3.708z"/><path d="m460.268 114.201c-.905-.218-1.78-.501-2.625-.847l-1.876 3.937c1.192.512 2.428.915 3.708 1.209z" opacity=".43"/><path d="m456.045 112.594c-.808-.437-1.586-.938-2.317-1.504l-2.83 3.318c1.021.798 2.115 1.511 3.271 2.122z" opacity=".43"/><path d="m464.761 114.671c-.938.03-1.856-.02-2.753-.142l-.793 4.29c1.271.18 2.568.245 3.891.201z" opacity=".43"/><path d="m480.88 92.4044c.262.8668.449 1.7749.574 2.6965l4.35-.345c-.157-1.3146-.434-2.5847-.812-3.8114z"/><path d="m479.033 88.2795c.483.779.9 1.5985 1.249 2.4585l4.121-1.4606c-.492-1.2178-1.085-2.3748-1.778-3.4712z"/><path d="m472.515 82.1171c.808.4368 1.586.9376 2.316 1.5037l2.831-3.3182c-1.022-.7979-2.115-1.5109-3.271-2.1223z"/><path d="m476.179 84.7707c.666.6327 1.282 1.3133 1.85 2.0504l3.601-2.474c-.786-1.045-1.663-2.0126-2.612-2.8953z"/><path d="m468.291 80.501c.905.2183 1.78.5004 2.625.8465l1.876-3.9368c-1.192-.5119-2.428-.9148-3.708-1.2088z"/></g></svg>