<svg fill="none" height="399" viewBox="0 0 1166 399" width="1166" xmlns="http://www.w3.org/2000/svg"><g stroke="#fff"><g stroke-linecap="round" stroke-linejoin="round" stroke-miterlimit="10" stroke-width="2.5974"><path d="m395.018 151.971 3.927 11.339"/><path d="m402.651 155.677-11.339 3.927"/><path d="m630.969 81.179-7.67 9.2286"/><path d="m631.748 89.6282-9.228-7.6703"/></g><circle cx="172.348" cy="75.0074" r="10" stroke-width="2"/><path d="m371.514 224.947c-4.504-13.511-14.938-26.838-29.813-38.683-14.866-11.837-34.115-22.15-56.147-29.65-44.067-14.999-99.168-18.707-152.425-.952-53.3847 17.799-82.5945 39.907-96.2399 64.23-13.6285 24.294-11.8558 51.026-2.7311 78.395 9.0486 27.141 31.9306 46.895 61.7502 56.833 29.8198 9.938 66.5178 10.03 103.0078-2.135 36.653-12.22 84.46-30.764 120.792-53.095 18.173-11.17 33.401-23.243 42.942-35.888 9.526-12.626 13.312-25.715 8.864-39.055z" stroke-width="2"/><path d="m1164.29 102.629c0 21.651-8.64 45.843-24.34 69.992-15.69 24.14-38.41 48.175-66.46 69.495-56.11 42.641-133.466 74.351-218.459 74.351-85.137 0-137.743-17.751-169.069-46.226-31.3-28.45-41.557-67.792-41.557-111.479 0-43.434 23.471-82.8363 61.578-111.4164 38.107-28.5803 90.8-46.28888 149.048-46.28888 58.43 0 135.913 3.73712 198.759 18.40638 31.43 7.3363 59.11 17.3876 78.91 31.0103 19.78 13.6077 31.59 30.6953 31.59 52.1556z" stroke-width="2.11336"/></g><circle cx="536.345" cy="126.003" fill="#ff864b" r="42.4545" transform="matrix(.96592583 .25881905 -.25881905 .96592583 50.887489 -134.522853)"/><path d="m515.758 119.823 2.317.621 1.372-2.949 1.313.352-1.372 2.948 2.55.684 1.373-2.949 1.313.352-1.372 2.949 2.399.643-.545 1.099-2.392-.641-1.089 2.191 2.317.621-.536 1.094-2.324-.623-1.365 2.951-1.313-.352 1.365-2.95-2.551-.684-1.365 2.951-1.313-.352 1.365-2.951-2.392-.641.543-1.092 2.377.637 1.104-2.187-2.324-.623zm3.092 2.074-1.089 2.191 2.551.684 1.089-2.192zm11.744 2.233-.372 1.388-1.705-.457-1.616 6.03-1.539-.413 1.615-6.029-1.086-.291.372-1.389 1.086.291.332-1.237c.414-1.545 1.34-2.124 2.779-1.739.186.05.366.112.541.186.174.073.297.136.37.188l.135.068-.374 1.396c-.23-.169-.475-.291-.735-.366-.266-.072-.511-.043-.735.086-.223.129-.372.332-.446.608l-.327 1.223zm5.109 7.224c.586-.355.971-.877 1.156-1.566.186-.695.114-1.342-.216-1.943-.329-.6-.809-.985-1.438-1.153-.628-.169-1.238-.076-1.829.278-.586.355-.972.88-1.158 1.574-.185.689-.112 1.334.218 1.935.334.602.816.987 1.445 1.156.629.168 1.236.075 1.822-.281zm-4.603-.206c-.559-.974-.699-1.98-.422-3.016.28-1.042.905-1.845 1.875-2.41.976-.563 1.985-.705 3.026-.426 1.042.279 1.842.906 2.4 1.88.564.976.706 1.985.427 3.026-.278 1.037-.905 1.836-1.881 2.4-.969.56-1.975.7-3.016.421s-1.845-.904-2.409-1.875zm13.568 2.609c.586-.356.971-.878 1.156-1.567.186-.694.114-1.342-.216-1.942-.329-.601-.809-.986-1.438-1.154-.628-.169-1.238-.076-1.829.278-.586.355-.972.88-1.158 1.574-.185.69-.112 1.334.218 1.935.334.602.816.987 1.445 1.156.629.168 1.236.075 1.822-.28zm-4.603-.207c-.559-.974-.699-1.98-.422-3.016.28-1.042.904-1.845 1.875-2.41.976-.563 1.985-.705 3.026-.426 1.042.279 1.842.906 2.4 1.88.564.976.706 1.985.427 3.026-.278 1.037-.905 1.837-1.881 2.4-.969.56-1.975.7-3.016.421s-1.845-.904-2.409-1.875zm13.211-3.513c.276.074.536.182.779.322.249.137.45.28.605.429.16.146.299.291.417.436.119.139.2.247.244.324l.076.142 1.14-4.257 1.547.415-2.899 10.821-1.547-.414.228-.853c-.089.052-.215.118-.377.198-.156.082-.468.161-.936.235-.466.069-.915.046-1.348-.07-.981-.263-1.731-.866-2.249-1.808-.518-.948-.633-1.957-.346-3.029.288-1.071.891-1.885 1.812-2.442.921-.562 1.873-.712 2.854-.449zm-2.916 5.237c.328.605.784.986 1.368 1.143.589.157 1.174.055 1.756-.306.582-.362.964-.882 1.146-1.561.184-.685.114-1.329-.21-1.933-.323-.604-.779-.985-1.368-1.143-.583-.157-1.169-.055-1.756.306-.582.361-.965.884-1.148 1.568-.182.68-.111 1.321.212 1.926z" fill="#fff"/><path d="m361.554 75.9869c-3.394-11.0899-15.136-17.3283-26.226-13.9339-11.09 3.3945-17.328 15.1363-13.934 26.2262 3.395 11.0899 15.137 17.3288 26.227 13.9338 11.089-3.3943 17.328-15.1362 13.933-26.2261z" fill="#ffab37"/><path d="m351.776 68.8973c-.978-1.0713-2.575-1.4261-3.888-.8285-1.506.6709-2.236 2.177-2.049 3.6233-1.243-.7642-2.934-.6845-4.142.429-1.072.9782-1.367 2.5778-.77 3.8908.479 1.0931 1.406 1.7698 2.416 1.976l6.791 1.4045c.494.0966.95-.2244 1.056-.682l1.405-6.791c.219-1.0336-.032-2.1507-.819-3.0221z" fill="#b93d3d"/><path d="m325.921 86.5647c-.708-1.2665-.514-2.8985.437-3.9762 1.113-1.2175 2.772-1.4342 4.085-.7996-.306-1.4261.278-2.9993 1.722-3.7681 1.266-.7072 2.903-.4873 3.96.4947.86.8044 1.209 1.8978 1.09 2.9477l-.813 6.8868c-.044.4678-.487.8248-.986.7604l-6.887-.8137c-1.05-.1187-2.03-.7104-2.608-1.732z" fill="#b93d3d"/><path d="m341.145 91.3454c.189-.1978.473-.3086.78-.2933.235.009 5.689.3047 8.685-5.1616.275-.5004.882-.6509 1.372-.3889.49.2621.654.8904.397 1.381-3.647 6.6159-10.288 6.2123-10.568 6.205-.552-.042-.98-.524-.943-1.0786.015-.2635.122-.4853.277-.6636z" fill="#000"/><g fill="#fff"><path clip-rule="evenodd" d="m513.294 47.6772c.533-2.4225-.272-4.9675-2.1-6.6398-1.104-1.0099-2.511-1.6311-3.984-1.7855.518-2.399.068-5.1876-1.33-7.943-1.469-2.899-4.709-7.1279-11.797-10.8097-7.087-3.6819-12.41-3.9015-15.627-3.436-3.978.5743-7.083 2.4891-8.52 5.2551-.508.9788-.601 1.9031-.278 2.747-1.237.9132-2.205 2.034-2.886 3.3434-1.813 3.4907-1.632 6.9548.542 10.295 2.146 3.298 6.171 6.4505 12.306 9.6375 5.53 2.8728 9.936 4.3951 13.473 4.6555 3.296.2418 5.904-.5809 7.932-2.5093.231.2934.486.5706.766.8266.065.0589.136.1078.211.1471.228.1184.497.1445.749.0642 1.923-.6096 3.413-1.9548 4.234-3.7778 1.689.9958 3.748 1.2508 5.647.6531.334-.1049.587-.3812.662-.7234zm-8.555-7.2795c-.326.6273-.635.7651-.839.8128-.88.21-2.458-.6783-4.294-1.928 2.383-1.416 3.605-5.4271 3.863-8.2609.256.4118.477.8047.663 1.1733 1.505 2.9715 1.732 6.0372.607 8.2028zm-29.199-13.6162c-.212-2.7638 2.367-6.0699 4.537-7.9102 1.834-.1027 4.203.0742 7.078.9103-1.72 1.6985-4.801 5.1249-5.585 9.1481-1.158-.4293-2.263-.813-3.278-1.1659-.954-.3318-1.891-.6572-2.752-.9823zm17.639-4.5422c2.204 1.1449 4.004 2.337 5.475 3.5157-.401 2.3838-1.432 6.875-4.273 9.8297-1.847-1.2718-3.917-2.6027-6.173-3.7747zm-12.655 24.3618c-5.745-2.9845-9.637-6.0017-11.567-8.9675-1.783-2.7416-1.929-5.4636-.445-8.3209.547-1.0528 1.336-1.9567 2.35-2.6974 1.411 1.133 3.802 1.9633 6.787 3.0001 2.945 1.0235 6.281 2.1824 9.655 3.9347 3.373 1.7524 6.24 3.8161 8.769 5.6374 1.77 1.2741 3.296 2.3717 4.644 3.0964-.486.7217-.835 1.5316-1.024 2.3903-.302 1.3688-.176 2.778.322 4.0465-3.494 3.7147-9.546 3.0466-19.491-2.1196zm26.629-1.1519c-.256-.2324-.615-.313-.946-.2129-.331.101-.584.3686-.666.7037-.405 1.6448-1.401 2.8717-2.832 3.5074-1.022-1.1863-1.442-2.8044-1.101-4.3506.165-.7495.5-1.4473.974-2.0408.629.1633 1.217.1947 1.773.0625.893-.2133 1.608-.8241 2.124-1.8168.022-.0418.042-.0853.063-.1275 1.236.009 2.404.4656 3.328 1.31 1.168 1.0688 1.755 2.632 1.6 4.1904-1.532.2889-3.143-.157-4.317-1.2254z" fill-rule="evenodd"/><path d="m59.6144 131.258c.1688-1.128-.1517-2.281-.8793-3.162-3.7428-4.532-8.8541-8.534-14.7815-11.572-5.9274-3.037-12.1607-4.849-18.0256-5.241-1.1395-.075-2.2623.337-3.0801 1.133-.8189.797-1.2625 1.91-1.2153 3.054l1.4471 35.329c.05 1.231.7386 2.303 1.8396 2.867 1.1018.565 2.3737.497 3.4018-.181l29.5241-19.457c.9558-.63 1.6007-1.639 1.7692-2.77zm-34.5762-3.654c.7339-1.432 2.5086-1.993 3.9563-1.251s2.0287 2.511 1.2952 3.942c-.7334 1.431-2.5086 1.992-3.9563 1.25-1.4476-.741-2.029-2.509-1.2952-3.941zm6.7301 18.451c-1.4477-.742-2.0287-2.511-1.2952-3.942s2.5086-1.993 3.9563-1.251 2.0287 2.511 1.2952 3.942-2.5086 1.993-3.9563 1.251zm6.7101-2.196c.1411-2.082-.9504-4.157-2.9337-5.173-2.6498-1.358-5.9031-.322-7.2519 2.31-1.3487 2.631-.2895 5.877 2.3602 7.235.2377.122.4795.223.7245.307l-4.4071 2.904c-.4062.268-.7897.123-.9365.048-.1461-.075-.4879-.302-.5083-.788l-.7037-17.206c.1282.079.2596.156.397.226 2.6497 1.358 5.9031.322 7.2518-2.309 1.3488-2.632.2896-5.878-2.3609-7.236-1.8787-.963-4.0608-.721-5.652.439l-.1571-3.837c4.9307.021 10.3536 1.431 15.4111 4.023 5.0582 2.592 9.3687 6.17 12.2651 10.161zm18.0165-11.873-2.4735 1.63c-3.1236-4.335-7.7633-8.207-13.1944-10.991-5.431-2.783-11.2845-4.287-16.6265-4.291l-.121-2.96c-.0187-.458.1517-.885.4792-1.204.326-.317.7557-.475 1.2099-.445 5.5343.368 11.4373 2.089 17.0697 4.976 5.6323 2.886 10.4765 6.673 14.0085 10.951.2899.351.4126.792.3453 1.242-.0674.452-.3148.84-.6972 1.092z"/></g></svg>