<svg fill="none" height="175" viewBox="0 0 375 175" width="375" xmlns="http://www.w3.org/2000/svg" xmlns:xlink="http://www.w3.org/1999/xlink"><linearGradient id="a" gradientUnits="userSpaceOnUse" x1="423.44" x2="-77.3253" y1="231.267" y2="38.0243"><stop offset="0" stop-color="#fff"/><stop offset=".887264" stop-color="#fff" stop-opacity="0"/></linearGradient><g stroke-linecap="round" stroke-width="2"><path d="m-15 32.2163c25.729 27.7692 86.1971 82.9877 132.749 85.2047 22.474 1.07 50.668-13.486 50.395-37.385-.403-35.3224-46.043-27.2136-33.702 8.2606 9.874 28.3794 26.157 44.7034 66.973 59.8884 37.184 9.815 48.894-3.865 89.393-20.076 40.499-16.21 114.523-9.364 131.363 75.042" stroke="url(#a)" stroke-dasharray="16 12"/><g stroke="#fff" stroke-linejoin="round" stroke-miterlimit="10"><path d="m92.4341 58.7559-4.2467 5.1093"/><path d="m92.8647 63.4342-5.1093-4.2467"/><path d="m339.583 145.342-5.665 6.816"/><path d="m340.157 151.583-6.816-5.665"/></g></g><path d="m260.158 88.4053c-.676-.2077-1.055-.9236-.848-1.6001.208-.6765.925-1.0555 1.601-.8478 1.675.5149 3.867.4915 4.8-2.5432.616-2.0044-.503-2.7984-.733-2.9385-.598-.3589-.809-1.1381-.46-1.7425.348-.6047 1.103-.8303 1.716-.4878 1.108.6101 2.935 2.6331 1.925 5.9212-1.143 3.7172-4.283 5.3814-8.001 4.2387z" fill="#ff774d"/><path d="m250.78 66.6182-13.903-4.2731c-1.101-6.7-6.62-8.3061-9.495-8.202-.7.0256-1.249.609-1.233 1.3099l.158 6.7031c-3.101.9581-5.853 2.7808-7.896 5.2296l-4.911-1.5093c-.676-.2077-1.392.1712-1.6.8478l-3.762 12.2392c-.208.6765.172 1.3924.848 1.6001l6.227 1.9139c.918 3.278 2.792 6.1877 5.36 8.3295l-1.51 4.9101c-.207.6765.172 1.3923.848 1.6001l7.344 2.2571c.676.2077 1.392-.1713 1.6-.8478l1.128-3.6717 7.344 2.2571-1.129 3.6722c-.207.676.172 1.392.848 1.6l7.344 2.257c.676.208 1.392-.171 1.6-.848l1.509-4.91c6.647-.6467 12.326-5.2377 14.301-11.6633 2.697-8.7731-2.247-18.1048-11.02-20.8015z" fill="#ff8a67"/><path d="m248.523 73.9624-9.792-3.0095c-.676-.2077-1.055-.9236-.847-1.6001s.924-1.0555 1.6-.8477l9.791 3.0095c.676.2077 1.056.9236.848 1.6001s-.924 1.0555-1.6.8477z" fill="#444"/><path d="m260.983 52.2409c-1.316 4.281-5.853 6.6848-10.134 5.369s-6.685-5.853-5.369-10.1341c1.316-4.281 5.853-6.6848 10.134-5.369s6.685 5.853 5.369 10.1341z" stroke="#fff" stroke-width="2"/><path d="m254.97 51.8597c-.193.5542-.525.9433-.998 1.1671-.471.2176-1.002.2626-1.593.1351l-.288.8313-.633-.2199.285-.8218c-.516-.2215-.918-.527-1.206-.9164-.288-.3895-.438-.833-.448-1.3307l1.35-.2614c.027.5738.277.9817.75 1.2238l.568-1.6343c-.006-.0022-.01-.0033-.01-.0033l-.015-.016c-.192-.1584-.347-.2931-.463-.4042-.117-.1111-.249-.2593-.396-.4446-.141-.1831-.244-.3562-.307-.5193-.055-.1673-.088-.3659-.1-.5958-.006-.2278.033-.4613.116-.7007.193-.5541.527-.9358 1.001-1.1449.482-.2069.995-.2437 1.542-.1104l.285-.8218.633.2198-.292.8407c.822.3983 1.272 1.0522 1.351 1.9619l-1.318.2618c-.02-.4303-.18-.7433-.479-.9389l-.548 1.5775c.505.4365.834.7589.987.9675.365.5148.44 1.0807.226 1.6979zm-2.097-4.0521c-.048.1385-.046.2766.005.4143.053.1314.168.2878.345.4692l.459-1.3225c-.202-.0278-.373-.0025-.513.0758-.14.0784-.239.1994-.296.3632zm-.044 4.0601c.433.0518.711-.0986.834-.4513.055-.1574.05-.3072-.013-.4492-.058-.1399-.174-.2932-.349-.4598z" fill="#fff"/><path d="m227.059 74.0631c-1.35-.4149-2.11-1.8508-1.696-3.2002.415-1.3494 1.851-2.1104 3.201-1.6955 1.35.415 2.11 1.8508 1.695 3.2002-.415 1.3495-1.85 2.1105-3.2 1.6955zm.752-2.4466.012.0038zm0 0 .012.0038zm0 0 .012.0038zm0 0 .012.0038zm0 0 .012.0038zm0-.0012.013.0038zm0 0 .012.0036zm0 0 .012.0036z" fill="#444"/><path d="m48.5987 126.393c1.6516 5.089-1.1351 10.553-6.2243 12.205-5.0891 1.652-10.5535-1.135-12.2051-6.224s1.1351-10.554 6.2242-12.205c5.0892-1.652 10.5536 1.135 12.2052 6.224z" stroke="#fff" stroke-width="2"/><path d="m42.6923 130.149c.193.677.1344 1.289-.1758 1.835-.3124.538-.8027.948-1.471 1.23l.2895 1.016-.7732.22-.2862-1.004c-.6594.138-1.2649.115-1.8164-.069-.5516-.183-1.0041-.516-1.3577-.998l1.1463-1.187c.4216.545.9484.773 1.5803.684l-.5692-1.996c-.0076.002-.0115.003-.0115.003l-.0264-.005c-.2977-.023-.5422-.049-.7334-.078-.1912-.028-.423-.083-.6955-.163-.2648-.083-.4845-.182-.6592-.299-.1691-.126-.3388-.298-.509-.516-.1625-.22-.2855-.476-.3688-.768-.193-.677-.1284-1.282.1939-1.815.33-.535.8093-.925 1.438-1.171l-.2862-1.004.7731-.221.2929 1.027c1.0814-.175 1.9746.157 2.6796.996l-1.115 1.166c-.3162-.409-.6886-.606-1.1172-.592l.5495 1.927c.7966.081 1.3421.171 1.6366.27.713.254 1.177.758 1.392 1.512zm-4.8529-2.535c.0482.17.1449.304.2899.404.1428.093.3636.167.6625.223l-.4606-1.615c-.2177.112-.3683.254-.4519.428-.0837.174-.0969.36-.0399.56zm2.7553 4.019c.4617-.248.6311-.588.5083-1.018-.0548-.193-.1624-.337-.3228-.432-.1527-.098-.3724-.169-.6592-.212z" fill="#fff"/></svg>