<svg fill="none" height="242" viewBox="0 0 375 242" width="375" xmlns="http://www.w3.org/2000/svg" xmlns:xlink="http://www.w3.org/1999/xlink"><filter id="a" color-interpolation-filters="sRGB" filterUnits="userSpaceOnUse" height="399.594" width="399.594" x="149.72" y=".719696"><feFlood flood-opacity="0" result="BackgroundImageFix"/><feBlend in="SourceGraphic" in2="BackgroundImageFix" mode="normal" result="shape"/><feGaussianBlur result="effect1_foregroundBlur" stdDeviation="59.1402"/></filter><mask id="b" height="62" maskUnits="userSpaceOnUse" width="125" x="-18" y="181"><path d="m44.4085 181.416c-34.25 4.104-61.4936 38.322-62.4085 60.922h124.809c.008-32.153-24.5066-65.456-62.4005-60.922z" fill="#553df8"/></mask><g stroke="#fff"><g stroke-linecap="round" stroke-linejoin="round" stroke-miterlimit="10" stroke-width="1.39994"><path d="m195.998 184 2.116 6.112"/><path d="m200.112 185.998-6.112 2.116"/><path d="m255.039 112.71-.193 6.465"/><path d="m258.174 116.039-6.464-.193"/></g><circle cx="62.3855" cy="162.434" r="5.38977" stroke-width="1.07796"/><path d="m223.401 266.084c0-8.526-3.402-18.07-9.607-27.614-6.202-9.537-15.181-19.039-26.274-27.47-22.187-16.862-52.778-29.401-86.386-29.401-33.6892 0-54.4644 7.025-66.8195 18.255-12.3399 11.217-16.3947 26.734-16.3947 44.006 0 17.127 9.255 32.679 24.3087 43.969 15.0539 11.291 35.8781 18.292 58.9055 18.292 23.13 0 53.792-1.48 78.655-7.284 12.436-2.902 23.371-6.875 31.183-12.251 7.801-5.366 12.429-12.083 12.429-20.502z" stroke-width="1.19733"/></g><path d="m44.4085 181.672c-34.25 4.104-61.4936 38.321-62.4085 60.921h124.809c.008-32.153-24.5066-65.455-62.4005-60.921z" fill="#d867f4"/><g mask="url(#b)"><path d="m94.2492 200.456s-7.7826-9.877-39.811-13.469c-32.0285-3.592-63.15894 16.762-63.15894 16.762m107.75924 38.913s-44.6003-38.091-115.5419-21.252m135.8964 0s-73.3361-34.846-128.11374-12.273" stroke="#fbfbfb" stroke-linecap="round" stroke-miterlimit="10" stroke-width="1.19733"/></g><path d="m554.086 115.114c2.538 11.39.831 25.129-4.598 39.675-5.427 14.539-14.559 29.847-26.817 44.351-24.516 29.011-61.495 54.762-106.207 64.727-44.788 9.982-74.544 6.812-94.362-4.495-19.801-11.297-29.81-30.791-34.932-53.774-5.092-22.849 2.635-46.329 19.331-65.832s42.34-34.997 72.983-41.8267c30.738-6.8507 71.938-13.9692 106.719-13.6206 17.395.1743 33.136 2.2165 45.15 7.0615 12 4.8396 20.217 12.4438 22.733 23.7338z" stroke="#fff" stroke-width="1.13905"/><g filter="url(#a)"><path d="m313.387 245.904c-25.067-19.954-29.211-56.45-9.258-81.517 19.954-25.067 56.45-29.211 81.517-9.258 25.066 19.954 29.211 56.45 9.258 81.517-19.954 25.066-56.45 29.211-81.517 9.258z" fill="#f474ef"/></g><path d="m274.907 192.639c12.099 2.45 23.91-5.46 26.382-17.667 2.471-12.206-5.334-24.087-17.433-26.537-12.099-2.449-23.91 5.46-26.381 17.667-2.472 12.207 5.333 24.088 17.432 26.537z" fill="#ffab37"/><g fill="#000"><path d="m272.359 179.702c.212-.021.436.056.61.22.134.124 3.21 3.047 7.737 1.325.415-.157.849.06 1.007.462s-.062.856-.461 1.016c-5.491 2.074-9.215-1.511-9.377-1.657-.305-.303-.315-.804-.013-1.113.141-.148.316-.225.497-.253z"/><path d="m283.575 171.644c-.147-.062-.287-.155-.385-.304-.228-.368-.131-.847.238-1.094 3.305-2.146 6.151.023 7.197 1.473.247.356.18.841-.173 1.091-.339.254-.835.185-1.101-.158-.225-.303-2.278-2.923-5.092-1.079-.203.136-.463.163-.684.071z"/><path d="m266.77 168.241c-.15-.046-.288-.155-.386-.303-.228-.368-.131-.847.238-1.094 3.305-2.147 6.151.022 7.197 1.473.247.356.181.841-.173 1.091-.338.253-.835.185-1.1-.158-.226-.303-2.279-2.923-5.092-1.08-.203.136-.464.164-.684.071z"/></g></svg>