<svg fill="none" height="183" viewBox="0 0 375 183" width="375" xmlns="http://www.w3.org/2000/svg"><g stroke="#fff"><path d="m310.168 3.04797-7.371 8.86883" stroke-linecap="round" stroke-linejoin="round" stroke-miterlimit="10" stroke-width="2.49615"/><path d="m310.916 11.1678-8.869-7.37135" stroke-linecap="round" stroke-linejoin="round" stroke-miterlimit="10" stroke-width="2.49615"/><circle cx="118" cy="38" r="14" stroke-width="2"/><path d="m-139 191.801 40.4941-48.691c.2734-.329.6876-.507 1.1144-.479l15.8211 1.022c.5167.033 1.0063-.235 1.2567-.688l24.0866-43.5945c.5896-1.0672 2.183-.8532 2.4702.3317l19.581 80.7728c.3156 1.302 2.1367 1.383 2.5664.114l24.16492-71.357c.24289-.717 1.03227-1.089 1.7404-.821l25.44138 9.637c.7643.29 1.6072-.168 1.7806-.967l22.798-104.969c.3077-1.4167 2.3342-1.3998 2.6183.0217l26.0726 130.4623c.1282.641.7011 1.096 1.3546 1.075l33.1877-1.072c.244-.008.482-.083.686-.216l35.587-23.159c.554-.36 1.287-.262 1.727.23l20.634 23.104c.542.607 1.495.593 2.02-.028l19.294-22.87c.489-.58 1.362-.637 1.923-.126l26.076 23.775c.278.254.65.378 1.024.344l31.666-2.938c.37-.034.71-.222.937-.517l15.861-20.649c.415-.541 1.172-.683 1.755-.328l40.284 24.486 30.831 25.076c.536.435 1.314.392 1.798-.1l24.359-24.764c.137-.14.242-.307.307-.491l15.044-42.455c.337-.952 1.568-1.201 2.248-.454l24.977 27.397 19.893 28.717c.151.218.363.386.61.483l21.055 8.264c.492.194 1.052.079 1.428-.293l21.519-21.275c.07-.07.148-.131.232-.184l39.645-24.732c.306-.191.675-.25 1.025-.164l37.072 9.059c.329.08.615.282.801.565l18.167 27.684c.354.538 1.04.748 1.634.5l30.401-12.687c.229-.095.427-.253.571-.454l16.758-23.368c.516-.72 1.576-.748 2.13-.057l17.342 21.636c.69.862 2.069.563 2.339-.508l4.887-19.307c.295-1.164 1.856-1.38 2.455-.34l10.726 18.619c.213.369.589.615 1.012.662l26.569 2.938c.195.022.383.086.551.189l28.557 17.466c.502.307 1.147.25 1.587-.142l37.248-33.145c.094-.084.176-.18.243-.287l29.601-47.1103c.494-.7851 1.617-.8422 2.187-.111l36.557 46.8673c.253.325.642.515 1.054.515h44.279" stroke-linecap="round" stroke-linejoin="round" stroke-width="1.92204"/></g><path d="m281.692 93.3786 3.774 10.8974" stroke="#ff4858" stroke-linecap="round" stroke-linejoin="round" stroke-miterlimit="10" stroke-width="2.49615"/><path d="m289.027 96.9405-10.897 3.7735" stroke="#ff4858" stroke-linecap="round" stroke-linejoin="round" stroke-miterlimit="10" stroke-width="2.49615"/><g fill="#fff"><path d="m112.184 12.1162c1.334-.2904 2.72-.4621 4.12-.5413v-6.5749c-1.994.07922-3.935.34325-5.823.76574z"/><path d="m100.157 18.2688c1.03-.9242 2.125-1.7692 3.301-2.535l-3.288-5.7035c-1.6635 1.0562-3.2215 2.2576-4.6606 3.5779z"/><path d="m105.768 14.4003c1.228-.6337 2.508-1.1618 3.842-1.5843l-1.703-6.36373c-1.888.59412-3.697 1.34671-5.427 2.25769z"/><path d="m95.7337 23.4574c.7525-1.1619 1.5975-2.2709 2.5349-3.3007l-4.6474-4.6474c-1.3202 1.4391-2.5217 2.9971-3.5779 4.6606z"/><path d="m91.5749 36.3168c.0661-1.4126.2509-2.7858.5414-4.1192l-6.3505-1.7032c-.4225 1.888-.6734 3.8288-.7658 5.8224z"/><path d="m92.8026 29.6099c.4357-1.3335.9638-2.6142 1.5844-3.842l-5.6904-3.2875c-.911 1.7296-1.6636 3.5383-2.2577 5.4263z"/><path d="m125.678 12.816c1.333.4357 2.614.9638 3.842 1.5843l3.287-5.69034c-1.729-.91098-3.538-1.66357-5.426-2.25769z" opacity=".43"/><path d="m131.83 15.7337c1.162.7526 2.271 1.5975 3.301 2.5349l4.647-4.6473c-1.439-1.3203-2.997-2.5217-4.66-3.578z" opacity=".43"/><path d="m118.984 11.5749c1.412.066 2.785.2509 4.119.5413l1.703-6.35046c-1.888-.42249-3.829-.67332-5.822-.76574z" opacity=".43"/><path d="m92.1163 43.1031c-.2905-1.3335-.4621-2.7198-.5414-4.1193h-6.5749c.0792 1.9936.3433 3.9344.7658 5.8224z"/><path d="m94.4003 49.5195c-.6338-1.2278-1.1619-2.5085-1.5844-3.8419l-6.3636 1.7031c.5941 1.888 1.3466 3.6968 2.2576 5.4263z"/><path d="m103.458 59.5536c-1.162-.7526-2.271-1.5975-3.301-2.5349l-4.6476 4.6473c1.4391 1.3203 2.9971 2.5217 4.6606 3.5779z"/><path d="m98.2687 55.1307c-.9242-1.0298-1.7691-2.1256-2.5349-3.3007l-5.7035 3.2875c1.0562 1.6635 2.2576 3.2214 3.5779 4.6605z"/><path d="m109.61 62.4845c-1.334-.4357-2.614-.9638-3.842-1.5843l-3.288 5.6904c1.73.911 3.539 1.6635 5.427 2.2576z"/><path d="m289.919 114.514c-.833.252-1.706.431-2.591.552l.331 4.179c1.263-.15 2.484-.416 3.663-.78z"/><path d="m297.255 109.996c-.608.639-1.262 1.232-1.971 1.778l2.378 3.46c1.004-.755 1.934-1.598 2.782-2.51z"/><path d="m293.883 112.738c-.749.465-1.536.865-2.363 1.201l1.404 3.96c1.17-.473 2.282-1.043 3.336-1.709z"/><path d="m299.805 106.474c-.42.777-.901 1.524-1.445 2.226l3.189 2.72c.767-.981 1.452-2.032 2.04-3.143z"/><path d="m301.801 98.0893c.029.9015-.019 1.7837-.137 2.6457l4.123.763c.174-1.222.235-2.4681.194-3.7402z"/><path d="m301.358 102.415c-.209.87-.481 1.711-.813 2.522l3.783 1.803c.492-1.145.879-2.333 1.162-3.563z"/><path d="m281.305 114.749c-.869-.209-1.71-.481-2.522-.813l-1.803 3.783c1.145.492 2.333.879 3.564 1.162z" opacity=".43"/><path d="m277.247 113.205c-.777-.42-1.524-.901-2.226-1.445l-2.72 3.188c.981.767 2.032 1.452 3.143 2.04z" opacity=".43"/><path d="m285.624 115.201c-.902.029-1.784-.019-2.646-.137l-.763 4.123c1.222.174 2.468.235 3.74.194z" opacity=".43"/><path d="m301.114 93.8024c.252.8331.431 1.7058.552 2.5915l4.18-.3316c-.151-1.2634-.416-2.4839-.78-3.6629z"/><path d="m299.339 89.8384c.465.7486.865 1.5361 1.201 2.3626l3.959-1.4037c-.472-1.1703-1.042-2.2822-1.708-3.3358z"/><path d="m293.075 83.9161c.776.4198 1.524.9011 2.226 1.4451l2.72-3.1888c-.981-.7668-2.032-1.452-3.143-2.0396z"/><path d="m296.596 86.4663c.64.608 1.232 1.2621 1.778 1.9705l3.461-2.3776c-.756-1.0043-1.598-1.9341-2.51-2.7824z"/><path d="m289.016 82.3631c.87.2097 1.71.4808 2.522.8134l1.803-3.7833c-1.145-.4919-2.333-.8792-3.563-1.1617z"/></g></svg>