<svg fill="none" height="313" viewBox="0 0 375 313" width="375" xmlns="http://www.w3.org/2000/svg" xmlns:xlink="http://www.w3.org/1999/xlink"><filter id="a" color-interpolation-filters="sRGB" filterUnits="userSpaceOnUse" height="441.676" width="441.676" x="75.7196" y=".719696"><feFlood flood-opacity="0" result="BackgroundImageFix"/><feBlend in="SourceGraphic" in2="BackgroundImageFix" mode="normal" result="shape"/><feGaussianBlur result="effect1_foregroundBlur" stdDeviation="59.1402"/></filter><clipPath id="b"><path d="m88 158h31.903v30.3838h-31.903z"/></clipPath><mask id="c" height="59" maskUnits="userSpaceOnUse" width="123" x="-15" y="256"><path d="m46.4475 257.185c-33.7226 3.836-60.5467 35.82-61.4475 56.944h122.887c.008-30.054-24.1291-61.182-61.4395-56.944z" fill="#553df8"/></mask><g filter="url(#a)"><path d="m251.102 278.66c-31.536-25.104-36.751-71.021-11.647-102.558 25.104-31.536 71.021-36.751 102.558-11.647s36.751 71.021 11.647 102.558-71.021 36.751-102.558 11.647z" fill="#54fff5"/></g><path d="m211 316.477c0-29.911 47.805-186.477 202.849-186.477s199.403 85.702 199.403 85.702 183.468-11.628 174.424 104.22c0 50.059-150.864 63.078-200.925 63.078s-375.751-16.464-375.751-66.523z" fill="#4c2ede"/><g fill="#6a7bff"><path d="m66.9924 269.078c.8723-9.235 1.4711-18.55.4841-27.786-.9926-9.317-3.901-20.201-9.4947-28.04-3.2258-4.525-14.3082-15.02-15.5336-2.869-.6021 6.009 2.3328 11.401 4.5373 16.85 2.1119 5.221 4.9896 10.235 6.8547 15.536 2.9674 8.461 5.0883 17.177 8.3558 25.555"/><path d="m62.1882 274.044c-3.294-11.309-6.9749-22.523-12.7051-32.549-4.7775-8.372-11.2742-16.609-19.5907-22.32-2.6682-1.831-7.7924-4.889-12.9944-6.667-5.728-1.959-11.55028-2.366-14.29158 2.126-4.23079 6.927 2.89118 14.6 7.79788 19.17 7.0303 6.543 15.0616 12.029 21.9352 18.765 7.9468 7.776 14.9032 16.425 23.1996 23.894"/><path d="m42.7064 269.107c-7.0154-7.252-15.0741-13.583-23.8819-18.753-2.9709-1.746-18.128147-10.296-17.44352-1.147.4661 6.273 8.5773 9.425 13.59302 11.574 10.3336 4.434 21.3952 7.408 31.116 12.973"/></g><path d="m6.10388 250.672s20.62482 7.239 42.96092 25.884" stroke="#fff" stroke-linecap="round" stroke-miterlimit="10" stroke-width=".589444"/><path d="m13.1763 220.581s24.1285 10.569 48.6071 58.438" stroke="#fff" stroke-linecap="round" stroke-miterlimit="10" stroke-width=".589444"/><path d="m48.1108 212.825s14.6942 17.213 17.788 63.044" stroke="#fff" stroke-linecap="round" stroke-miterlimit="10" stroke-width=".589444"/><path clip-rule="evenodd" d="m172.13 181.915c7.083 0 12.825 5.742 12.825 12.825 0 3.058-1.07 5.866-2.856 8.07l.538 7.44-6.714-3.255c-1.199.371-2.473.57-3.793.57h-57.492c-7.083 0-12.825-5.742-12.825-12.825s5.742-12.825 12.825-12.825z" fill="#6a7bff" fill-rule="evenodd"/><path d="m114.78 194.293h57.177" stroke="#fff" stroke-linecap="round" stroke-width="1.17889"/><path clip-rule="evenodd" d="m291.045 229.009h-76.628c-8.789 0-15.915 7.125-15.915 15.915s7.126 15.915 15.915 15.915h76.628c8.789 0 15.915-7.125 15.915-15.915s-7.126-15.915-15.915-15.915zm-76.628-1.179c-9.441 0-17.094 7.653-17.094 17.094s7.653 17.094 17.094 17.094h76.628c9.441 0 17.094-7.653 17.094-17.094s-7.653-17.094-17.094-17.094z" fill="#fff" fill-rule="evenodd"/><path d="m212.649 240.798h81.932" stroke="#fff" stroke-linecap="round" stroke-width="1.17889"/><path d="m212.649 247.282h28.883" stroke="#fff" stroke-linecap="round" stroke-width="1.17889"/><circle cx="250.079" cy="246.987" fill="#fff" r=".884166"/><g stroke="#fff" stroke-linecap="round" stroke-linejoin="round" stroke-miterlimit="10"><path d="m185.847 76.4211 2.315 6.345"/><path d="m190.347 78.4952-6.685 2.1974"/><g stroke-width="1.66667"><path d="m277.269 143 3.462 10"/><path d="m284 146.269-10 3.463"/></g></g><g clip-path="url(#b)"><path d="m103.146 188.384c8.366 0 15.147-6.802 15.147-15.192s-6.781-15.192-15.147-15.192c-8.3647 0-15.146 6.802-15.146 15.192s6.7813 15.192 15.146 15.192z" fill="#ffab37"/><path d="m119.776 179.014c.328-.988-.032-2.125-.858-2.752-.953-.712-2.161-.637-3.008.011.032-1.062-.614-2.093-1.737-2.454-.996-.319-2.118.053-2.733.903-.498.69-.604 1.519-.371 2.241l1.526 4.77c.106.34.466.521.805.415l4.756-1.53c.741-.234 1.355-.797 1.62-1.604z" fill="#ea3974"/><g fill="#000"><path d="m97.8929 175.519c.7722 0 1.3981-1.037 1.3981-2.316s-.6259-2.316-1.3981-2.316-1.3981 1.037-1.3981 2.316.6259 2.316 1.3981 2.316z"/><path d="m94.2175 169.484c-.0741 0-.1482-.021-.2224-.053-.2648-.127-.3813-.446-.2542-.712.0636-.127 1.5888-3.282 5.5608-3.282.2966 0 .5296.233.5296.531 0 .297-.233.531-.5296.531-3.3047 0-4.5863 2.656-4.5969 2.677-.0954.191-.286.308-.4873.308z"/><path d="m112.785 170.355c-.148 0-.296-.063-.402-.18-.085-.096-1.991-2.231-5.148-1.349-.286.074-.572-.085-.657-.372-.074-.287.085-.574.371-.659 3.824-1.062 6.133 1.572 6.228 1.679.191.223.17.552-.053.743-.095.096-.212.138-.339.138z"/><path d="m107.298 173.723c-.105 0-.222-.032-.317-.106-.233-.17-.286-.51-.117-.744 1.578-2.146 3.909-1.466 4.915-.797.243.16.318.489.159.733-.159.245-.487.319-.731.16-.212-.138-2.14-1.296-3.495.542-.096.138-.255.212-.414.212z"/><path d="m103.729 183.571c-.159 0-.307-.063-.413-.202-.18-.233-.148-.563.085-.743l1.546-1.233-.974-.414c-.159-.074-.276-.212-.307-.393-.032-.17.021-.351.148-.478l.974-.967-1.832-.712c-.275-.106-.413-.414-.307-.69s.413-.414.688-.308l2.606 1.009c.169.064.296.213.328.393.043.181-.021.361-.148.489l-1.006.988 1.059.457c.169.074.296.233.318.414.021.181-.053.372-.191.489l-2.235 1.774c-.106.085-.222.127-.339.127z"/></g></g><path d="m46.4475 257.424c-33.7226 3.836-60.5467 35.82-61.4475 56.944h122.887c.008-30.054-24.1291-61.182-61.4395-56.944z" fill="#4c2ede"/><g mask="url(#c)" stroke="#d6e0ff" stroke-linecap="round" stroke-miterlimit="10" stroke-width="1.17889"><path d="m53.9773 252.32-4.4887 66.793"/><path d="m52.1967 279.418-40.0822-12.87"/><path d="m65.811 317.572 29.388-47.993"/><path d="m72.8271 257.035 4.1262 42.528"/><path d="m75.4812 320.845 30.8048-24.413"/><path d="m94.8369 305.5 13.3121-1.622"/><path d="m-8.56348 288.08 35.10848 29.492"/></g></svg>