<svg fill="none" height="249" viewBox="0 0 375 249" width="375" xmlns="http://www.w3.org/2000/svg" xmlns:xlink="http://www.w3.org/1999/xlink"><filter id="a" color-interpolation-filters="sRGB" filterUnits="userSpaceOnUse" height="451.204" width="451.204" x="43.7197" y=".719696"><feFlood flood-opacity="0" result="BackgroundImageFix"/><feBlend in="SourceGraphic" in2="BackgroundImageFix" mode="normal" result="shape"/><feGaussianBlur result="effect1_foregroundBlur" stdDeviation="59.1402"/></filter><g filter="url(#a)"><path d="m221.755 286.077c-33.002-26.271-38.459-74.32-12.188-107.322 26.27-33.002 74.32-38.459 107.322-12.188 33.002 26.27 38.458 74.32 12.188 107.322-26.271 33.002-74.32 38.458-107.322 12.188z" fill="#6fda44"/></g><g stroke="#fff"><g stroke-linecap="round" stroke-linejoin="round" stroke-miterlimit="10" stroke-width="1.54315"><path d="m167.686 191.288 2.333 6.737"/><path d="m172.22 193.49-6.737 2.333"/><path d="m328.904 111.884-4.557 5.483"/><path d="m329.367 116.904-5.483-4.557"/></g><circle cx="35.3945" cy="145.563" r="5.94113" stroke-width="1.18823"/><path d="m153.722 234.644c-2.677-8.027-8.876-15.945-17.713-22.982-8.832-7.033-20.268-13.16-33.357-17.615-26.1814-8.912-58.9179-11.115-90.5581-.566-31.7167 10.574-49.0707 23.709-57.1776 38.16-8.0968 14.433-7.0437 30.315-1.6226 46.575 5.3759 16.125 18.9704 27.861 36.6866 33.765 17.7164 5.905 39.5189 5.959 61.1981-1.268 21.7763-7.26 50.1786-18.277 71.7646-31.545 10.796-6.636 19.844-13.809 25.512-21.321 5.659-7.501 7.909-15.277 5.267-23.203z" stroke-width="1.18823"/><path d="m624.721 161.973c0 12.863-5.132 27.236-14.46 41.583-9.325 14.342-22.821 28.622-39.487 41.288-33.334 25.334-79.294 44.173-129.789 44.173-50.581 0-81.835-10.546-100.446-27.463-18.596-16.903-24.69-40.276-24.69-66.232 0-25.804 13.945-49.214 36.585-66.193 22.639-16.98 53.945-27.501 88.551-27.501 34.714 0 80.748 2.22 118.085 10.935 18.674 4.359 35.12 10.33 46.883 18.424 11.751 8.084 18.768 18.236 18.768 30.986z" stroke-width="1.25557"/></g><path d="m312.117 233.871c-4.901 18.292-23.704 29.147-41.996 24.246s-29.148-23.704-24.246-41.996c4.901-18.292 23.703-29.148 41.996-24.246 18.292 4.901 29.147 23.703 24.246 41.996z" fill="#ff864b"/><g fill="#fff"><path d="m261.516 218.838 1.871.501 1.108-2.381 1.061.284-1.109 2.382 2.06.552 1.109-2.382 1.06.284-1.108 2.382 1.938.519-.44.888-1.932-.518-.88 1.77 1.871.502-.432.883-1.877-.503-1.103 2.383-1.06-.284 1.102-2.383-2.06-.552-1.102 2.383-1.061-.284 1.102-2.383-1.932-.518.439-.882 1.92.515.891-1.767-1.877-.503zm2.497 1.675-.879 1.77 2.06.552.879-1.77z"/><path d="m273.498 222.317-.3 1.121-1.378-.369-1.304 4.87-1.244-.333 1.305-4.87-.878-.235.301-1.122.878.235.267-.999c.335-1.248 1.083-1.716 2.245-1.404.15.04.296.09.437.149.141.06.24.111.299.152l.109.056-.302 1.127c-.186-.136-.383-.235-.594-.296-.215-.058-.413-.034-.593.07s-.301.268-.36.491l-.265.988z"/><path d="m277.625 228.152c.473-.287.784-.709.933-1.266.151-.56.092-1.083-.174-1.568s-.653-.796-1.161-.932-1.001-.061-1.478.225c-.473.287-.785.71-.935 1.271-.149.557-.091 1.078.176 1.563.27.486.659.797 1.167.933s.999.061 1.472-.226zm-3.718-.167c-.451-.787-.565-1.599-.34-2.436.225-.841.73-1.49 1.514-1.946.788-.455 1.603-.57 2.444-.345.841.226 1.487.732 1.938 1.519.455.788.57 1.603.345 2.444-.225.837-.731 1.483-1.519 1.938-.783.453-1.595.566-2.436.341-.842-.226-1.49-.731-1.946-1.515z"/><path d="m284.866 230.092c.473-.287.784-.709.933-1.265.15-.561.092-1.084-.174-1.569s-.653-.796-1.161-.932-1.001-.061-1.478.225c-.473.287-.785.711-.935 1.271-.149.557-.091 1.078.175 1.563.271.486.66.797 1.168.933s.998.061 1.472-.226zm-3.719-.167c-.451-.787-.564-1.599-.34-2.436.226-.841.73-1.49 1.515-1.946.788-.455 1.603-.57 2.444-.344.841.225 1.487.731 1.938 1.518.455.789.57 1.603.345 2.444-.225.837-.731 1.484-1.519 1.939-.783.452-1.595.565-2.437.34-.841-.226-1.489-.73-1.946-1.515z"/><path d="m291.818 227.088c.223.06.433.147.629.26.201.111.364.226.488.347.13.117.242.234.337.351.096.113.162.2.198.262l.061.115.921-3.438 1.249.335-2.341 8.74-1.25-.335.185-.689c-.073.042-.174.095-.305.161-.126.066-.378.129-.756.189-.376.056-.739.037-1.089-.057-.792-.212-1.398-.699-1.816-1.46-.418-.765-.511-1.58-.279-2.446.232-.865.719-1.523 1.463-1.973.744-.453 1.512-.574 2.305-.362zm-2.355 4.229c.265.49.633.797 1.105.924.475.127.948.045 1.418-.248.47-.292.779-.712.926-1.26.148-.553.091-1.073-.17-1.561-.261-.489-.629-.796-1.105-.924-.471-.126-.944-.044-1.418.247-.47.292-.779.715-.927 1.267-.147.549-.09 1.067.171 1.555z"/><path d="m52.6153 94.839c.8005-.0921 1.5277-.5226 1.9951-1.1808 2.4035-3.3858 4.1937-7.6076 5.1764-12.2089.9826-4.6012 1.0733-9.186.2625-13.2583-.1578-.7911-.6458-1.4811-1.3387-1.8927-.6945-.4121-1.535-.5101-2.3063-.2678l-23.8321 7.4796c-.8305.2603-1.435.927-1.6176 1.7817-.1826.8552.0976 1.7102.7487 2.287l18.6975 16.5625c.605.5362 1.4121.7906 2.2145.6977zm-3.8616-24.2557c1.1116.2374 1.8201 1.3449 1.5801 2.4687s-1.3397 1.8452-2.4507 1.6079c-1.1111-.2373-1.8201-1.3449-1.5801-2.4687s1.3391-1.8453 2.4507-1.6079zm-11.3487 7.9814c.24-1.1238 1.3397-1.8452 2.4507-1.6079 1.1111.2373 1.8202 1.3449 1.5802 2.4687s-1.3397 1.8452-2.4508 1.6079c-1.111-.2373-1.8201-1.3449-1.5801-2.4687zm2.7311 4.1733c1.446-.2864 2.6603-1.4121 2.9892-2.9517.4392-2.0569-.8651-4.0857-2.9081-4.522s-4.0623.8827-4.5016 2.9396c-.0394.1845-.0639.368-.0763.5505l-2.7906-2.4724c-.2575-.2278-.2289-.516-.2046-.63.0242-.1134.1159-.3882.4442-.4915l11.6066-3.6419c-.0306.102-.0587.2057-.0814.3123-.4393 2.057.865 4.0857 2.908 4.522 2.043.4364 4.0623-.8826 4.5017-2.9401.3115-1.4583-.2545-2.9023-1.3384-3.7744l2.5882-.8123c.8919 3.3671.9269 7.325.0885 11.251-.8386 3.9265-2.4872 7.5243-4.6768 10.2333zm11.4095 10.107-1.5667-1.3875c2.3828-2.9273 4.1716-6.8036 5.072-11.0196.9003-4.2159.8505-8.485-.1281-12.1295l1.9968-.6265c.3086-.0969.6314-.0592.9089.1056.2764.1641.4632.4281.526.7435.7656 3.8427.6766 8.1853-.2571 12.5575-.9338 4.3723-2.6265 8.3724-4.8952 11.5676-.1861.2623-.4645.427-.7838.4638-.3206.0371-.6307-.0604-.8728-.2749z"/><path clip-rule="evenodd" d="m267.938 145.075c.379-1.722-.194-3.532-1.494-4.721-.785-.718-1.785-1.16-2.832-1.27.368-1.706.048-3.689-.946-5.648-1.045-2.061-3.349-5.068-8.389-7.687-5.039-2.618-8.825-2.774-11.112-2.443-2.829.409-5.037 1.77-6.058 3.737-.362.696-.428 1.353-.198 1.953-.879.65-1.568 1.447-2.052 2.378-1.29 2.482-1.161 4.945.385 7.32 1.526 2.346 4.388 4.587 8.751 6.854 3.932 2.042 7.065 3.125 9.58 3.31 2.344.172 4.199-.413 5.641-1.784.164.208.345.405.544.587.046.042.097.077.15.105.162.084.354.103.533.046 1.367-.434 2.427-1.39 3.011-2.687 1.201.708 2.665.89 4.015.465.238-.075.418-.271.471-.515zm-6.084-5.176c-.231.446-.451.544-.596.578-.626.149-1.748-.482-3.054-1.371 1.695-1.007 2.564-3.859 2.747-5.874.183.293.339.572.472.834 1.07 2.113 1.231 4.293.431 5.833zm-20.763-9.682c-.15-1.966 1.684-4.317 3.227-5.625 1.304-.073 2.989.053 5.033.647-1.223 1.208-3.414 3.644-3.972 6.505-.823-.305-1.609-.578-2.331-.829-.678-.236-1.344-.467-1.957-.698zm12.544-3.23c1.567.814 2.846 1.662 3.892 2.5-.285 1.695-1.018 4.888-3.038 6.99-1.313-.905-2.786-1.851-4.39-2.685zm-9 17.323c-4.085-2.122-6.852-4.268-8.224-6.377-1.268-1.949-1.372-3.885-.317-5.916.389-.749.95-1.392 1.671-1.919 1.003.806 2.704 1.397 4.826 2.134 2.094.728 4.467 1.552 6.865 2.798 2.399 1.246 4.438 2.713 6.236 4.008 1.259.906 2.344 1.687 3.303 2.202-.346.513-.594 1.089-.729 1.7-.215.973-.125 1.975.229 2.877-2.484 2.642-6.788 2.167-13.86-1.507zm18.936-.819c-.182-.165-.438-.223-.673-.151s-.415.262-.473.5c-.288 1.17-.997 2.042-2.014 2.494-.727-.843-1.026-1.994-.783-3.094.118-.533.356-1.029.693-1.451.447.116.865.139 1.26.045.636-.152 1.144-.586 1.511-1.292.015-.03.03-.061.044-.091.879.007 1.71.331 2.367.932.831.76 1.248 1.871 1.138 2.979-1.09.206-2.235-.111-3.07-.871z" fill-rule="evenodd"/></g><path d="m126.355 185.129c-3.394-11.09-15.136-17.328-26.226-13.934-11.0898 3.395-17.3282 15.136-13.9338 26.226s15.1368 17.329 26.2258 13.934c11.09-3.394 17.329-15.136 13.934-26.226z" fill="#ffab37"/><path d="m116.577 178.039c-.978-1.071-2.575-1.426-3.888-.828-1.506.671-2.237 2.177-2.049 3.623-1.244-.764-2.934-.684-4.143.429-1.071.978-1.366 2.578-.769 3.891.479 1.093 1.406 1.77 2.416 1.976l6.791 1.405c.494.096.95-.225 1.056-.683l1.405-6.79c.219-1.034-.033-2.151-.819-3.023z" fill="#b93d3d"/><path d="m90.7213 195.707c-.7072-1.267-.5133-2.899.4376-3.976 1.1126-1.218 2.7724-1.435 4.0854-.8-.3062-1.426.2775-2.999 1.7211-3.768 1.2666-.707 2.9037-.487 3.9606.495.86.804 1.209 1.897 1.09 2.947l-.813 6.887c-.044.468-.488.825-.986.76l-6.8872-.813c-1.0499-.119-2.0303-.711-2.6085-1.732z" fill="#b93d3d"/><path d="m105.945 200.487c.19-.197.473-.308.781-.293.235.009 5.689.305 8.685-5.161.275-.501.882-.651 1.372-.389s.654.89.397 1.381c-3.647 6.616-10.288 6.212-10.568 6.205-.552-.042-.981-.524-.943-1.079.015-.263.122-.485.276-.664z" fill="#000"/></svg>