<svg fill="none" height="304" viewBox="0 0 1132 304" width="1132" xmlns="http://www.w3.org/2000/svg" xmlns:xlink="http://www.w3.org/1999/xlink"><filter id="a" color-interpolation-filters="sRGB" filterUnits="userSpaceOnUse" height="129.561" width="129.561" x="739.04" y="162.039"><feFlood flood-opacity="0" result="BackgroundImageFix"/><feBlend in="SourceGraphic" in2="BackgroundImageFix" mode="normal" result="shape"/><feGaussianBlur result="effect1_foregroundBlur" stdDeviation="20"/></filter><filter id="b" color-interpolation-filters="sRGB" filterUnits="userSpaceOnUse" height="647.84" width="641.099" x="-.000488" y="61"><feFlood flood-opacity="0" result="BackgroundImageFix"/><feBlend in="SourceGraphic" in2="BackgroundImageFix" mode="normal" result="shape"/><feGaussianBlur result="effect1_foregroundBlur" stdDeviation="35"/></filter><mask id="c" fill="#fff"><path d="m544.455 153.012c-.002-12.15 9.847-22.001 21.997-22.003l78.961-.009c12.151-.001 22.002 9.847 22.003 21.997l.006 45.799-100.962.012c-12.15.001-22.001-9.847-22.003-21.998z" fill="#fff"/></mask><path d="m76 191h97" stroke="#fff" stroke-linecap="round" stroke-width="2"/><path d="m125 181h97" stroke="#fff" stroke-linecap="round" stroke-width="2"/><g filter="url(#a)" opacity=".7"><path d="m788.387 246.207c-10.707-8.524-12.477-24.113-3.954-34.82s24.112-12.478 34.82-3.954c10.707 8.523 12.477 24.112 3.954 34.819s-24.113 12.478-34.82 3.955z" fill="#36cffe"/></g><path d="m417.707 123 3.926 11.339" stroke="#fff" stroke-linecap="round" stroke-linejoin="round" stroke-miterlimit="10" stroke-width="2"/><path d="m425.339 126.706-11.339 3.927" stroke="#fff" stroke-linecap="round" stroke-linejoin="round" stroke-miterlimit="10" stroke-width="2"/><circle cx="641" cy="264" fill="#fff" r="2"/><g filter="url(#b)" opacity=".6"><path d="m202.176 533.624c-72.999-58.11-79.18-171.794-13.804-253.921 65.375-82.126 177.55-101.596 250.549-43.486s79.18 171.794 13.805 253.92c-65.375 82.127-177.55 101.596-250.55 43.487z" fill="#36cffe"/></g><circle cx="209.5" cy="296.5" r="14.5" stroke="#1180e7" stroke-width="2"/><path d="m814.915 233.434c-1.803 9.929-11.314 16.516-21.242 14.713-9.929-1.803-16.516-11.314-14.713-21.242.855-4.709 3.953-9.402 7.498-12.069 0 0 .618 3.76 2.161 6.361 1.542 2.602 3.677 3.487 3.677 3.487s-1.01-15.438 14.762-22.853c-.858 11.119 10.218 18.602 7.857 31.603z" fill="#ff774d" stroke="#ff774d" stroke-width="3"/><path d="m803.917 241.038c-.871 4.795-5.457 7.978-10.244 7.109-4.787-.87-7.962-5.462-7.091-10.257.413-2.275 1.908-4.542 3.617-5.83 0 0 .298 1.816 1.041 3.072s1.773 1.683 1.773 1.683-.485-7.456 7.121-11.039c-.416 5.37 4.924 8.982 3.783 15.262z" fill="#fff" stroke="#ff774d" stroke-width="3"/><path d="m667.422 198.796v2l2-.001v-2zm-122.965-21.986-2 .001zm100.956-45.81v-2zm22.003 21.997h2zm-122.961.015h2zm21.997-20.003 78.962-.009-.001-4-78.961.009zm98.964 19.989.006 45.798 4-.001-.006-45.798zm2.005 43.798-100.961.012v4l100.962-.012zm-120.964-19.986-.002-23.798h-4l.002 23.799zm20.003 19.998c-11.046.001-20.001-8.952-20.003-19.998l-4 .001c.002 13.255 10.748 23.998 24.003 23.997zm78.954-63.808c11.045-.001 20.001 8.952 20.002 19.998l4-.001c-.002-13.255-10.748-23.999-24.003-23.997zm-78.962-3.991c-13.255.002-23.999 10.748-23.997 24.003h4c-.002-11.046 8.952-20.001 19.997-20.003z" fill="#fff" mask="url(#c)"/><path d="m587.763 152.651h61.498m-61.498 8.786h61.498" stroke="#fff" stroke-linecap="round" stroke-linejoin="round" stroke-width="2"/><path d="m587.763 168.34h61.498m-61.498 8.785h61.498" stroke="#fff" stroke-linecap="round" stroke-linejoin="round" stroke-width="2"/><path d="m347 264.526h82.429c12.15 0 22-9.85 22-22v-2.526c0-12.15-9.85-22-22-22h-60.429c-12.15 0-22 9.85-22 22z" fill="#1180e7"/><path d="m430.798 236.739h-62.126m62.126 8.786h-62.126" stroke="#fff" stroke-linecap="round" stroke-linejoin="round" stroke-width="2"/><path d="m575.675 148.544c-.281-10.837-9.294-19.396-20.131-19.115-10.838.28-19.396 9.293-19.116 20.131.281 10.838 9.294 19.396 20.131 19.115 10.838-.28 19.396-9.293 19.116-20.131z" fill="#ffab37"/><path d="m569.466 143.03c.175-1.345-.536-2.699-1.755-3.275-1.388-.671-2.904-.283-3.823.724-.205-1.349-1.282-2.507-2.807-2.698-1.345-.174-2.665.581-3.241 1.8-.492 1.001-.415 2.071.048 2.917l3.096 5.695c.23.411.734.542 1.125.342l5.695-3.097c.87-.467 1.515-1.321 1.662-2.408z" fill="#ea3974"/><path d="m540.803 148.458c-.654-1.188-.463-2.713.432-3.715 1.047-1.131 2.599-1.325 3.823-.724-.278-1.335.277-2.802 1.63-3.512 1.188-.654 2.717-.439 3.7.485.799.756 1.119 1.78 1.002 2.761l-.8 6.433c-.043.437-.46.768-.926.705l-6.433-.8c-.98-.117-1.893-.675-2.428-1.633z" fill="#ea3974"/><path d="m566.782 151.232c1.042 5.503-2.57 10.804-8.074 11.846-5.504 1.043-10.804-2.57-11.847-8.074z" fill="#fff"/><path d="m1264.23 373.124c0-14.242-5.68-30.185-16.04-46.126-10.36-15.932-25.36-31.804-43.89-45.886-37.06-28.167-88.16-49.112-144.3-49.112-56.27 0-90.977 11.735-111.614 30.494-20.613 18.736-27.386 44.656-27.386 73.506 0 28.61 15.459 54.587 40.605 73.446 25.146 18.86 59.935 30.554 98.395 30.554 38.64 0 89.85-2.472 131.38-12.166 20.78-4.848 39.04-11.485 52.09-20.464 13.03-8.964 20.76-20.183 20.76-34.246z" stroke="#fff" stroke-width="2"/></svg>