<svg fill="none" height="251" viewBox="0 0 835 251" width="835" xmlns="http://www.w3.org/2000/svg" xmlns:xlink="http://www.w3.org/1999/xlink"><linearGradient id="a" gradientUnits="userSpaceOnUse" x1="835.911" x2="-68.5722" y1="416.103" y2="67.0671"><stop offset="0" stop-color="#fff"/><stop offset=".887264" stop-color="#fff" stop-opacity="0"/></linearGradient><circle cx="20.5" cy="195.5" r="19.5" stroke="#fff" stroke-width="2"/><g stroke-linecap="round"><path d="m192.707 87 3.926 11.3393" stroke="#fff" stroke-linejoin="round" stroke-miterlimit="10" stroke-width="2.5974"/><path d="m200.339 90.7064-11.339 3.9269" stroke="#fff" stroke-linejoin="round" stroke-miterlimit="10" stroke-width="2.5974"/><path d="m43.9999 56.5766c46.4716 50.1564 155.6891 149.8924 239.7721 153.8964 40.593 1.933 91.516-24.358 91.023-67.524-.729-63.7996-83.164-49.1535-60.872 14.92 17.833 51.259 64.315 82.324 120.965 108.17 37.573 14.745 88.313-6.981 161.462-36.26 73.15-29.279 206.853-16.913 237.268 135.54" stroke="url(#a)" stroke-dasharray="16 12" stroke-width="2"/><g stroke="#fff" stroke-linejoin="round" stroke-miterlimit="10" stroke-width="2.5974"><path d="m806.621 163.171-7.67 9.229"/><path d="m807.399 171.621-9.228-7.67"/></g></g><path d="m529.196 173.552c-1.158-.356-1.808-1.582-1.452-2.741s1.583-1.808 2.741-1.452c2.869.882 6.625.842 8.222-4.356 1.056-3.434-.861-4.794-1.256-5.034-1.023-.615-1.385-1.949-.788-2.985s1.891-1.422 2.94-.835c1.898 1.045 5.029 4.51 3.298 10.142-1.958 6.368-7.337 9.219-13.705 7.261z" fill="#ff774d"/><path d="m513.131 136.232-23.814-7.319c-1.887-11.477-11.341-14.228-16.265-14.05-1.199.044-2.139 1.043-2.112 2.244l.271 11.482c-5.312 1.641-10.027 4.763-13.526 8.958l-8.412-2.585c-1.158-.356-2.385.293-2.741 1.452l-6.444 20.965c-.356 1.159.294 2.385 1.452 2.741l10.666 3.279c1.574 5.615 4.783 10.599 9.182 14.268l-2.586 8.41c-.356 1.159.295 2.385 1.453 2.741l12.579 3.867c1.158.356 2.385-.294 2.741-1.452l1.933-6.29 12.579 3.866-1.933 6.29c-.356 1.159.294 2.385 1.452 2.741l12.579 3.866c1.158.356 2.385-.293 2.741-1.452l2.586-8.411c11.385-1.107 21.114-8.972 24.497-19.978 4.619-15.028-3.849-31.013-18.878-35.633z" fill="#ff8a67"/><path d="m509.265 148.811-16.772-5.155c-1.158-.356-1.809-1.582-1.452-2.741.356-1.158 1.583-1.808 2.741-1.452l16.772 5.155c1.158.356 1.808 1.582 1.452 2.741s-1.583 1.808-2.741 1.452z" fill="#444"/><path d="m531.29 111.813c-2.369 7.71-10.54 12.039-18.25 9.669s-12.039-10.541-9.669-18.25c2.37-7.7099 10.541-12.0389 18.25-9.6693 7.71 2.3697 12.039 10.5403 9.669 18.2503z" stroke="#fff" stroke-width="2"/><path d="m520.169 111.976c-.307.884-.866 1.523-1.675 1.915-.806.38-1.702.457-2.69.228l-.531 1.53-1.021-.354.526-1.514c-.898-.375-1.596-.89-2.092-1.546-.497-.655-.761-1.394-.792-2.218l1.226-.241c.018 1.302.705 2.252 2.06 2.849l1.63-4.693c-.448-.358-.804-.666-1.07-.924-.255-.254-.504-.562-.746-.926-.242-.363-.379-.754-.412-1.172-.022-.414.052-.865.222-1.352.307-.884.851-1.502 1.634-1.852.797-.359 1.666-.425 2.604-.201l.525-1.5135 1.021.3545-.532 1.53c.641.312 1.158.745 1.549 1.3.392.556.613 1.198.665 1.927l-1.198.213c-.048-1.033-.522-1.788-1.423-2.267l-1.536 4.421c.44.344.797.652 1.07.925.274.272.53.596.768.971.25.379.389.783.417 1.212.041.433-.026.899-.199 1.398zm-4.175-8.005c-.181.522-.166.991.045 1.407s.606.871 1.184 1.364l1.411-4.064c-.613-.137-1.162-.092-1.646.133-.47.218-.801.605-.994 1.16zm.212 8.992c.666.129 1.246.07 1.738-.178.493-.248.838-.655 1.035-1.222.192-.556.174-1.051-.056-1.487-.226-.447-.632-.924-1.217-1.432z" fill="#fff"/><path d="m472.498 148.984c-2.312-.711-3.614-3.17-2.904-5.482.71-2.311 3.169-3.615 5.482-2.904 2.312.711 3.615 3.17 2.904 5.482-.71 2.311-3.169 3.615-5.482 2.904zm1.288-4.191.022.007zm0 0 .022.007zm0 0 .022.007zm0 0 .022.007zm0 0 .022.007zm.001-.002.022.007zm0 0 .021.006zm0 0 .021.006z" fill="#444"/><path d="m25.24 198.632c0 1.248-.424 2.296-1.272 3.144-.848.832-1.944 1.32-3.288 1.464v2.16h-1.44v-2.136c-1.296-.08-2.4-.424-3.312-1.032s-1.568-1.424-1.968-2.448l1.44-.84c.592 1.632 1.872 2.528 3.84 2.688v-6.624c-.72-.256-1.304-.488-1.752-.696-.432-.208-.88-.488-1.344-.84s-.808-.784-1.032-1.296c-.208-.512-.312-1.112-.312-1.8 0-1.248.416-2.264 1.248-3.048.848-.8 1.912-1.264 3.192-1.392v-2.136h1.44v2.16c.944.112 1.784.432 2.52.96s1.296 1.24 1.68 2.136l-1.416.792c-.512-1.28-1.44-2.024-2.784-2.232v6.24c.704.24 1.288.472 1.752.696s.928.52 1.392.888c.48.368.832.816 1.056 1.344.24.528.36 1.144.36 1.848zm-8.76-8.256c0 .736.224 1.32.672 1.752s1.144.832 2.088 1.2v-5.736c-.832.096-1.504.392-2.016.888-.496.48-.744 1.112-.744 1.896zm4.2 11.232c.896-.128 1.6-.456 2.112-.984s.768-1.192.768-1.992c0-.784-.24-1.4-.72-1.848-.48-.464-1.2-.888-2.16-1.272z" fill="#fff"/></svg>