<svg fill="none" height="235" viewBox="0 0 359 235" width="359" xmlns="http://www.w3.org/2000/svg"><path d="m137.889 241.443c-3.291-9.869-10.922-19.628-21.833-28.317-10.903-8.681-25.0262-16.25-41.1999-21.755-32.3508-11.011-72.80202-13.732-111.8947-.699-39.2216 13.076-60.6237 29.301-70.6094 47.1-9.968 17.77-8.684 37.338-1.988 57.423 6.621 19.857 23.3681 34.33 45.2321 41.617 21.8644 7.287 48.7857 7.358 75.5642-1.57 26.9422-8.982 62.0667-22.608 88.7526-39.01 13.3491-8.205 24.5131-17.061 31.4981-26.319 6.971-9.239 9.711-18.772 6.478-28.47z" stroke="#fff" stroke-width="2"/><path clip-rule="evenodd" d="m256.75 159.37c9.079 0 16.439 7.36 16.439 16.439 0 3.919-1.372 7.518-3.661 10.343l.69 9.536-8.606-4.172c-1.536.475-3.169.731-4.862.731h-73.69c-9.079 0-16.438-7.36-16.438-16.438 0-9.079 7.359-16.439 16.438-16.439z" fill="#ba38db" fill-rule="evenodd"/><g stroke="#fff" stroke-linecap="round" stroke-width="2"><path d="m188.021 174.991h64.485"/><path d="m328.148 133.018-24.752-5.066c-1.866-.382-3.084-2.22-2.701-4.088l4.003-19.562c.382-1.865 2.221-3.081 4.091-2.699l24.751 5.066c1.866.382 3.084 2.22 2.702 4.089l-4.004 19.565c-.382 1.865-2.224 3.077-4.09 2.695z" stroke-miterlimit="10"/><path d="m310.406 113.025c1.777.364 3.512-.781 3.876-2.557.363-1.775-.783-3.509-2.56-3.873s-3.512.781-3.875 2.557c-.363 1.775.782 3.509 2.559 3.873z" stroke-miterlimit="10"/><path d="m320.223 122.804c-1.253-3.097-4.786-4.583-7.877-3.317-.449.184-.897.367-1.346.551" stroke-miterlimit="10"/><path d="m314.655 125.987c3.123-2.039 6.248-4.078 9.372-6.116 3.287-2.145 7.676-1.322 9.968 1.864" stroke-miterlimit="10"/></g><path d="m184.182 162.785c1.274-8.669-4.72-16.73-13.39-18.004-8.669-1.275-16.73 4.72-18.004 13.389s4.721 16.73 13.39 18.004c8.669 1.275 16.73-4.72 18.004-13.389z" fill="#ffab37"/><path d="m179.803 154.779c-.321-1.048-1.296-1.807-2.385-1.825-1.246-.029-2.232.762-2.573 1.81-.601-.924-1.78-1.417-2.966-1.049-1.048.321-1.768 1.317-1.785 2.407-.028.901.386 1.663 1.009 2.131l4.181 3.158c.305.226.72.155.941-.123l3.158-4.181c.485-.635.675-1.479.42-2.328z" fill="#b93d3d"/><path d="m156.433 158.466c-.073-1.094.588-2.145 1.586-2.573 1.154-.47 2.357-.081 3.048.777.253-1.072 1.161-1.957 2.395-2.014 1.093-.073 2.14.607 2.543 1.62.327.827.211 1.687-.21 2.365l-2.786 4.438c-.181.305-.599.405-.919.199l-4.437-2.785c-.679-.421-1.156-1.143-1.22-2.027z" fill="#b93d3d"/><path d="m165.277 166.659c.193-.074.423-.058.628.052.157.082 3.784 2.05 7.6-.71.349-.253.812-.159 1.062.178.25.338.158.82-.176 1.072-4.632 3.334-9.035.908-9.223.813-.364-.208-.5-.675-.295-1.042.096-.175.241-.292.404-.363z" fill="#000"/><g stroke="#fff" stroke-width="2"><path d="m316.268 197.438-3.477 4.184" stroke-linecap="round" stroke-linejoin="round" stroke-miterlimit="10"/><path d="m316.621 201.268-4.183-3.477" stroke-linecap="round" stroke-linejoin="round" stroke-miterlimit="10"/><path d="m13 57c0 3.8097-3.29988 7-7.5 7-4.20011 0-7.5-3.1903-7.5-7s3.29989-7 7.5-7c4.20012 0 7.5 3.1903 7.5 7z"/><path d="m354.605 2.89453-7 8.42147" stroke-linecap="round" stroke-linejoin="round" stroke-miterlimit="10"/><path d="m355.315 10.604-8.421-6.99951" stroke-linecap="round" stroke-linejoin="round" stroke-miterlimit="10"/><path d="m90.9487 90.0085.006.0067.0062.0065c2.0376 2.1695 3.8871 6.4784 5.7817 14.8333l.0065.028c1.8866 8.319 2.0835 13.036 1.18 15.84l-.0033.01-.003.011c-.424 1.419-.9565 2.216-1.6824 2.789-.7679.606-1.8399 1.036-3.5209 1.539-3.3599.966-11.9239 3.033-19.3917 4.727-7.4837 1.697-16.1044 3.528-19.5485 4.1-1.7301.271-2.8818.346-3.8377.13-.9043-.204-1.7325-.693-2.7343-1.791l-.0048-.005-.0048-.005c-2.014-2.144-3.878-6.487-5.7639-14.803l-.0065-.028c-1.8935-8.35-2.079-13.04-1.1912-15.875l.003-.01c.4301-1.424.9666-2.2231 1.6936-2.7935.7688-.6031 1.8411-1.0261 3.5225-1.5105l.0087-.0026c3.3355-.9938 11.9044-3.0389 19.3972-4.7383 7.478-1.6959 16.0865-3.5465 19.5282-4.0857v.0001l.0113-.0019c1.7286-.2911 2.8788-.3721 3.83-.1596.899.2008 1.7229.69 2.7181 1.7885z"/></g><path d="m66.9104 121.034c-1.1235 1.074-2.9882.512-3.3318-1.003l-3.2987-14.545c-.3436-1.515 1.0962-2.827 2.5728-2.343l13.7965 4.517c1.4366.47 1.8522 2.303.7591 3.347z" fill="#fcfcfc"/></svg>