<svg fill="none" height="226" viewBox="0 0 375 226" width="375" xmlns="http://www.w3.org/2000/svg" xmlns:xlink="http://www.w3.org/1999/xlink"><filter id="a" color-interpolation-filters="sRGB" filterUnits="userSpaceOnUse" height="362.404" width="359.987" x="7.32031" y="25"><feFlood flood-opacity="0" result="BackgroundImageFix"/><feBlend in="SourceGraphic" in2="BackgroundImageFix" mode="normal" result="shape"/><feGaussianBlur result="effect1_foregroundBlur" stdDeviation="35"/></filter><linearGradient id="b" gradientUnits="userSpaceOnUse" x1="476.645" x2="138.115" y1="203.414" y2="41.3135"><stop offset="0" stop-color="#fff"/><stop offset=".887264" stop-color="#f5834b"/></linearGradient><g filter="url(#a)" opacity=".7"><path d="m135.937 270.743c-32.373-25.77-35.614-75.557-7.24-111.202 28.375-35.645 77.62-43.65 109.993-17.88 32.374 25.77 35.615 75.556 7.24 111.201-28.374 35.646-77.62 43.651-109.993 17.881z" fill="#ffdf38"/></g><g stroke="#f5834b" stroke-width="3"><rect height="36.9304" rx="18.4652" transform="matrix(.97685557 -.21389999 .21389999 .97685557 -37.691518 13.936426)" width="168.731" x="45.5542" y="181.14"/><circle cx="186.553" cy="168.187" r="4.99315" transform="matrix(.9615479 -.27463729 .27463729 .9615479 -39.017066 57.701553)"/><path d="m191.877 170.837 9.024 3.778" stroke-linecap="round"/></g><circle cx="148.3" cy="177.259" fill="#f5834b" opacity=".3" r="2.16715" transform="matrix(.99683124 -.07954547 .07954547 .99683124 -13.630224 12.358285)"/><circle cx="156.352" cy="175.498" fill="#f5834b" opacity=".5" r="2.16715" transform="matrix(.99683124 -.07954547 .07954547 .99683124 -13.464629 12.993205)"/><circle cx="164.467" cy="173.721" fill="#f5834b" opacity=".6" r="2.16715" transform="matrix(.99683124 -.07954547 .07954547 .99683124 -13.297562 13.633086)"/><path d="m351.067 21.876c.892-.1937 1.458-1.0745 1.264-1.966l-1.368-6.2986c-.612-2.8159 1.181-5.60543 3.997-6.2173 2.815-.61187 5.605 1.18189 6.217 3.9977l1.369 6.2987c.193.8915 1.073 1.458 1.966 1.2641.891-.1937 1.458-1.0745 1.264-1.966l-1.369-6.2987c-.998-4.59736-5.551-7.52501-10.149-6.52588-4.597.99878-7.524 5.552-6.525 10.14918l1.368 6.2987c.194.8915 1.075 1.4578 1.966 1.2641z" stroke="#fff" stroke-width="2"/><path d="m366.742 13.647-.978.2123.213.9772.437 2.014c.27 1.2417-.521 2.4726-1.763 2.7424s-2.473-.5216-2.742-1.7633l-.438-2.014-.212-.9772-.978.2124-6.984 1.5176-.977.2123.212.9772.438 2.014c.27 1.2417-.522 2.4726-1.763 2.7424-1.242.2698-2.473-.5216-2.743-1.7633l-.437-2.014-.213-.9772-.977.2124-8.669 1.8837c-.487.1058-.922.4088-1.152.8826-.229.4737-.198 1.0028.021 1.4506v.001l10.652 21.784.003.0075.004.0075c.828 1.6243 2.871 2.5921 4.652 2.2051l20.996-4.5623c1.783-.3875 3.237-2.1155 3.318-3.9359l.001-.009v-.0089l.649-24.2396v-.0014c.013-.4969-.177-.992-.583-1.3283-.406-.3365-.928-.4303-1.415-.3246z" stroke="#fff" stroke-width="2"/><path d="m28.6099 95.7607.7385.6742zm15.9607-10.6838.2011-.9796zm-4.595 15.5371.7584.652zm-12.8436 8.097c.549-.836.5496-.836.5502-.835h.001c.0006.001.0011.001.0016.001.0009.001.0014.001.0015.001.0003.001-.0009 0-.0034-.002-.0051-.004-.0157-.011-.0311-.022-.0309-.023-.081-.061-.1456-.114-.1295-.107-.3146-.273-.5181-.499-.4088-.453-.8766-1.126-1.136-2.021-.4962-1.71-.3251-4.599 3.4963-8.7851l-1.477-1.3484c-4.1232 4.5164-4.691 8.1025-3.9401 10.6915.3642 1.255 1.0166 2.187 1.572 2.803.2786.309.5367.542.7298.701.0967.08.1778.142.2377.186.03.022.0548.039.0737.052.0094.007.0174.012.0239.017.0032.002.006.004.0085.005.0012.001.0023.002.0033.003.0005 0 .0012 0 .0015.001.0006 0 .0013 0 .5503-.835zm2.2164-12.2761c2.3428-2.5661 4.9519-5.1021 7.536-6.9891l-1.1795-1.6152c-2.7362 1.998-5.4472 4.6421-7.8335 7.2559zm7.536-6.9891c1.331-.9719 2.7173-1.9438 4.0592-2.6135 1.3643-.6808 2.5159-.9626 3.4258-.7758l.4023-1.9592c-1.5782-.324-3.2345.2036-4.7211.9455-1.509.753-3.0166 1.8173-4.3457 2.7878zm7.485-3.3893c.2955.0606.4361.1823.5294.331.1145.1825.2105.4983.2146 1.0057.0084 1.0267-.3596 2.465-1.003 4.0972-1.2781 3.2423-3.4596 6.8037-4.8933 8.4722l1.5169 1.3034c1.5984-1.8601 3.8885-5.6211 5.237-9.0421.6699-1.6995 1.1539-3.4281 1.1424-4.847-.0058-.7154-.1377-1.4421-.5204-2.0522-.4038-.6438-1.0297-1.0648-1.8213-1.2274zm-5.1523 13.9061c-2.3402 2.7234-3.8029 4.0354-4.6457 4.6584-.4197.311-.6672.436-.7761.483-.0532.022-.0673.024-.0474.019.0102-.002.0294-.006.0567-.009.0137-.002.0295-.003.0472-.004.0088-.001.0182-.001.028-.001.0049-.001.0099-.001.0151-.001h.0078.0039c.002 0 .004 0-.0033 1s-.0053 1-.0032 1h.004.0082.0165c.0112 0 .0225-.001.0341-.001.023-.002.0469-.004.0716-.007.0493-.005.102-.014.1581-.027.1119-.026.2396-.067.3862-.129.2908-.124.6746-.34 1.1818-.715 1.0111-.748 2.5845-2.183 4.9734-4.963z" fill="#fff"/><g stroke-width="2"><path d="m-4.36583 116.344.00344-.003 18.00799-18.1846c.0005-.0005.0011-.001.0016-.0016.321-.3198.9379-.5884 1.5869-.5884h15.8924c1.4261 0 2.3551 1.0002 2.3551 2.1785v15.8921c0 .65-.2695 1.268-.59 1.589l-18.1881 18.188c-.8455.845-2.3313.845-3.1769 0l-15.89243-15.893c-.84556-.845-.84556-2.331 0-3.177zm23.72083-9.183c0 2.495 2.0369 4.532 4.5316 4.532s4.5317-2.037 4.5317-4.532c0-2.494-2.037-4.531-4.5317-4.531s-4.5316 2.037-4.5316 4.531z" stroke="#fff"/><circle cx="337" cy="197" r="8" stroke="#fff"/><g stroke-linecap="round"><path d="m178 48.7783c16.784 20.0018 56.691 60.1877 89.273 63.7577 15.729 1.723 36.195-6.914 37.105-23.1583 1.346-24.0091-31.072-20.525-24.042 4.1166 5.623 19.7137 34.305 39.1597 42.457 41.7587 21.559 6.873 36.308 1.43 65.489-7.785s80.837-1.283 88.768 56.793" stroke="url(#b)" stroke-dasharray="16 12"/><path d="m108.535 43.9248-6.908 8.3121" stroke="#fff" stroke-linejoin="round" stroke-miterlimit="10"/><path d="m109.236 51.5356-8.312-6.9086" stroke="#fff" stroke-linejoin="round" stroke-miterlimit="10"/></g></g></svg>