<svg fill="none" height="232" viewBox="0 0 362 232" width="362" xmlns="http://www.w3.org/2000/svg" xmlns:xlink="http://www.w3.org/1999/xlink"><filter id="a" color-interpolation-filters="sRGB" filterUnits="userSpaceOnUse" height="369.053" width="366.564" x="107.537" y="23.4453"><feFlood flood-opacity="0" result="BackgroundImageFix"/><feBlend in="SourceGraphic" in2="BackgroundImageFix" mode="normal" result="shape"/><feGaussianBlur result="effect1_foregroundBlur" stdDeviation="35"/></filter><filter id="b" color-interpolation-filters="sRGB" filterUnits="userSpaceOnUse" height="369.053" width="366.564" x="72.0132" y="0"><feFlood flood-opacity="0" result="BackgroundImageFix"/><feBlend in="SourceGraphic" in2="BackgroundImageFix" mode="normal" result="shape"/><feGaussianBlur result="effect1_foregroundBlur" stdDeviation="35"/></filter><linearGradient id="c" gradientUnits="userSpaceOnUse" x1="72.0339" x2="192.769" y1="154.544" y2="147.109"><stop offset="0" stop-color="#fff"/><stop offset=".817918" stop-color="#fff" stop-opacity="0"/></linearGradient><g filter="url(#a)" opacity=".4"><path d="m237.906 274.443c-33.341-26.541-36.68-77.816-7.457-114.527s79.941-44.956 113.282-18.415c33.341 26.54 36.68 77.816 7.457 114.527-29.223 36.71-79.941 44.955-113.282 18.415z" fill="#20d5b4"/></g><g filter="url(#b)" opacity=".4"><path d="m202.382 250.997c-33.341-26.54-36.679-77.815-7.456-114.526 29.223-36.7111 79.941-44.9559 113.282-18.415 33.341 26.54 36.679 77.815 7.456 114.526s-79.941 44.956-113.282 18.415z" fill="#20d5b4"/></g><path d="m189.271 160.549c0-18.391 14.9-33.291 33.291-33.291z" fill="#1f9a93"/><path d="m189.271 160.549c0-18.391 14.9-33.291 33.291-33.291" stroke="#fff" stroke-miterlimit="10" stroke-width="3"/><path d="m313.16 179.632c.086-.993.139-1.985.139-2.999 0-19.053-15.445-34.498-34.497-34.498-4.697 0-9.169.94-13.257 2.637-6.5-18.316-23.973-31.434-44.509-31.434-24.496 0-44.627 18.647-46.986 42.524-18.583 3.052-32.747 19.17-32.747 38.607 0 21.614 17.526 39.14 39.141 39.14h122.704c15.413 0 27.912-12.499 27.912-27.912.011-11.901-7.429-22.041-17.9-26.065z" fill="#1f9a93"/><path d="m208.796 198.159 25.94-26.248c.77-.779 2.023-.793 2.812-.033l26.556 25.623" stroke="#1fbaa5" stroke-linecap="round" stroke-miterlimit="10" stroke-width="5"/><path d="m236.127 170.506v62.22" stroke="#1fbaa5" stroke-width="5"/><path d="m44.4203 142.573c3.5631 1.289 6.6645 3.61 8.9227 6.666l-15.3686 10.428c-.8633.586-.8782 1.87-.0085 2.473l15.2534 10.572c-2.2915 3.036-5.4193 5.329-8.9976 6.584-3.8882 1.363-8.1044 1.429-12.0296.189s-7.3546-3.721-9.7835-7.081-3.7291-7.422-3.7073-11.589c.0217-4.167 1.3645-8.218 3.83-11.557 2.4654-3.338 5.9227-5.787 9.8623-6.99 3.9395-1.202 8.1546-1.095 12.0267.305z" fill="#ffab37" stroke="#ffab37" stroke-width="2"/><path d="m37.976 150.595c-.0294 1.546-1.2921 2.775-2.8203 2.746s-2.7432-1.305-2.7138-2.851 1.2921-2.775 2.8202-2.746c1.5282.029 2.7433 1.305 2.7139 2.851z" fill="#30200a"/><path clip-rule="evenodd" d="m124.012 168.922c-.027-.162.127-.315.343-.342.813-.103 1.651-.236 2.515-.402.906-.174 1.754-.387 2.549-.635.204-.064.431.007.506.158.075.15-.029.324-.233.388-.833.26-1.718.482-2.661.663-.885.17-1.745.307-2.581.412-.216.028-.412-.081-.438-.242zm-4.351.227c-.018.164-.209.292-.425.285-1.836-.051-3.536-.266-5.117-.607-.206-.045-.318-.208-.249-.366.069-.157.292-.249.498-.204 1.523.328 3.162.535 4.933.585.217.006.378.144.36.307zm14.247-3.299c-.139-.122-.115-.309.053-.419 1.357-.89 2.501-1.93 3.485-3.081.12-.141.364-.187.545-.103.182.084.231.266.111.407-1.02 1.192-2.213 2.28-3.64 3.216-.168.11-.416.101-.554-.02zm-23.978 1.354c-.113.143-.356.195-.541.116-1.508-.644-2.887-1.399-4.162-2.212-.162-.103-.175-.29-.03-.417s.393-.146.555-.043c1.247.796 2.588 1.529 4.049 2.153.185.08.243.26.129.403zm-7.791-4.741c-.162.114-.411.112-.556-.005-1.115-.902-2.152-1.813-3.1321-2.674-.0667-.059-.1331-.117-.1992-.175-.1382-.122-.1142-.309.0537-.419.1678-.11.4159-.1.5542.021.0654.058.1311.115.197.173.9814.863 2.0094 1.766 3.1144 2.66.144.117.13.304-.032.419zm37.983-3.36c-.2-.056-.294-.226-.21-.38.678-1.237 1.262-2.534 1.801-3.856.064-.158.285-.253.492-.212.208.041.324.203.26.361-.543 1.333-1.136 2.65-1.827 3.911-.084.154-.315.233-.516.176zm-88.982 2.823c.0055.163-.1662.305-.3835.316-.8783.048-1.715-.011-2.4981-.207-.2033-.051-.3055-.219-.2284-.374.0772-.156.3045-.241.5078-.19.6713.169 1.4035.223 2.1985.18.2174-.011.3981.111.4037.275zm3.8827-.846c-.0781-.15.023-.325.2259-.391 1.3588-.44 2.8049-1.001 4.3303-1.626.1946-.08.4309-.028.5279.115.097.142.0179.323-.1767.403-1.5324.627-3.0048 1.199-4.3986 1.651-.2029.066-.4307-.002-.5088-.152zm40.4335-4.27c-.1557.119-.4049.126-.5567.014-.6338-.467-1.2522-.871-1.866-1.195-.6532-.346-1.3074-.651-1.9619-.92-.1871-.077-.2489-.256-.138-.401.1108-.144.3523-.199.5394-.122.6796.279 1.3573.596 2.0326.952.6568.348 1.3063.773 1.9578 1.253.1518.112.1486.299-.0072.419zm-31.7815.874c-.0984-.143-.021-.323.1728-.404 1.4011-.584 2.848-1.172 4.3303-1.728.1981-.074.4313-.016.5209.13.0896.145.0016.324-.1965.398-1.4665.55-2.9013 1.134-4.2983 1.715-.1938.081-.4308.031-.5292-.111zm79.8073-6.404c-.209-.037-.332-.196-.273-.355.492-1.34.984-2.673 1.521-3.957.067-.158.288-.252.495-.209.207.042.322.205.255.363-.532 1.272-1.02 2.594-1.513 3.936-.058.159-.276.259-.485.222zm-71.0684 3.146c-.0708-.152.0385-.324.2441-.384 1.5339-.45 3.0973-.832 4.6815-1.107.2138-.037.4191.062.4585.222.0394.159-.1019.318-.3157.355-1.5384.267-3.0635.639-4.568 1.081-.2056.06-.4296-.014-.5004-.167zm14.8631-1.198c-.0612.159-.28.257-.4886.218-1.543-.287-3.0859-.404-4.6222-.385-.2174.003-.3884-.127-.382-.291.0064-.163.1878-.298.4051-.301 1.599-.02 3.209.101 4.821.401.2086.039.328.199.2667.358zm87.7233-6.814c-.217.015-.402-.104-.413-.267-.037-.569-.288-1.331-.756-2.188-.082-.149.016-.324.218-.393.201-.068.431-.002.512.146.488.892.769 1.721.813 2.378.011.163-.157.308-.374.324zm-28.147-2.953c-.197-.062-.283-.235-.191-.387.805-1.331 1.746-2.553 2.903-3.604.142-.129.39-.151.555-.05s.183.287.042.416c-1.097.995-2.002 2.166-2.786 3.463-.091.151-.326.224-.523.162zm24.275-3.356c-.165.112-.413.106-.555-.013-1.309-1.102-2.915-2.095-4.789-2.783-.191-.071-.264-.248-.161-.395.102-.148.341-.211.533-.14 1.975.725 3.655 1.767 5.015 2.912.142.119.122.307-.043.419zm-17.36-2.89c-.088-.146.001-.324.2-.398.816-.301 1.699-.546 2.655-.728 1.127-.214 2.212-.325 3.253-.346.218-.004.391.125.386.288-.004.164-.183.3-.401.304-.981.02-2.008.125-3.079.328-.903.172-1.731.402-2.494.684-.198.073-.431.014-.52-.132z" fill-rule="evenodd" stroke="url(#c)" stroke-linecap="round" stroke-linejoin="round"/><g stroke="#fff"><circle cx="77" cy="70" r="8" stroke-width="2"/><path d="m5.47314 103.786-.21369 7.16" stroke-linecap="round" stroke-linejoin="round" stroke-miterlimit="10" stroke-width="2"/><path d="m8.94572 107.472-7.15959-.213" stroke-linecap="round" stroke-linejoin="round" stroke-miterlimit="10" stroke-width="2"/><g fill="#fff"><path d="m283.783 92.9762 18.17 4.365c1.421.3414 2.854-.5365 3.195-1.9558l3.278-13.6436c.341-1.4202-.537-2.8524-1.958-3.1938l-18.17-4.365c-1.42-.3412-2.852.537-3.193 1.9562l-3.278 13.6437c-.341 1.4193.536 2.8521 1.956 3.1933zm22.469-13.5311c.926.2225 1.499 1.1562 1.277 2.0811l-3.278 13.6437c-.222.9249-1.157 1.4966-2.082 1.2742l-18.17-4.365c-.925-.2222-1.497-1.1557-1.275-2.0807l3.278-13.6436c.222-.925 1.156-1.4969 2.081-1.2747z"/><path d="m271.817 88.4791c.094.0224.193.0159.285-.0227l11.99-4.9633c.137-.0563.237-.1745.272-.3181.034-.1435-.002-.2956-.098-.4077l-8.425-9.863c-.112-.1313-.291-.1885-.459-.1491-.169.04-.3.1717-.34.3404l-3.565 14.8254c-.04.1687.017.3456.148.4578.057.0508.123.0837.192.1003zm11.335-5.5952-10.567 4.3734 3.142-13.0652z"/><path d="m303.324 78.7431c3.035.7291 6.098-1.1476 6.827-4.1826s-1.147-6.098-4.182-6.8271-6.098 1.1465-6.827 4.1824 1.147 6.0982 4.182 6.8273zm2.43-10.1125c2.539.6101 4.11 3.1737 3.5 5.7144-.611 2.5407-3.174 4.1111-5.714 3.5009-2.541-.6103-4.111-3.1739-3.501-5.7146s3.174-4.1111 5.715-3.5007z"/><path d="m291.012 75.7839c3.035.7291 6.098-1.1465 6.828-4.1824.729-3.0359-1.148-6.0982-4.183-6.8273s-6.098 1.1465-6.827 4.1824 1.147 6.0982 4.182 6.8273zm2.43-10.1125c2.54.6103 4.111 3.1739 3.501 5.7146-.611 2.5407-3.174 4.1111-5.715 3.5007-2.541-.6103-4.111-3.1739-3.501-5.7146.611-2.5407 3.174-4.1111 5.715-3.5007z"/></g></g><g stroke="#1f9a93" stroke-linecap="round" stroke-linejoin="round" stroke-miterlimit="10" stroke-width="2"><path d="m333.473 137.786-.214 7.16"/><path d="m336.946 141.472-7.16-.213"/></g></svg>