<svg fill="none" height="329" viewBox="0 0 1254 329" width="1254" xmlns="http://www.w3.org/2000/svg" xmlns:xlink="http://www.w3.org/1999/xlink"><filter id="a" color-interpolation-filters="sRGB" filterUnits="userSpaceOnUse" height="113.413" width="113.413" x="795" y="18.9433"><feFlood flood-opacity="0" result="BackgroundImageFix"/><feBlend in="SourceGraphic" in2="BackgroundImageFix" mode="normal" result="shape"/><feGaussianBlur result="effect1_foregroundBlur" stdDeviation="10"/></filter><clipPath id="b"><path d="m275 0h36.75v35h-36.75z"/></clipPath><mask id="c" height="103" maskUnits="userSpaceOnUse" width="209" x="0" y="100"><path d="m104.246 100.695c-57.2103 6.856-102.71777 64.012-104.246 101.763h208.48c.013-53.708-40.936-109.3364-104.234-101.763z" fill="#553df8"/></mask><path d="m1253.88 251.5c0-34.726-55.5-216.5-235.5-216.5-180.004 0-231.504 99.5-231.504 99.5s-213-13.5-202.5 121c0 58.119 175.148 73.233 233.267 73.233 58.118 0 436.237-19.114 436.237-77.233z" fill="#4c2ede"/><g fill="#6a7bff"><path d="m139.065 121.838c1.548-16.495 2.629-33.1298.996-49.6169-1.642-16.6305-6.551-36.0481-16.071-50.0146-5.491-8.0618-24.3834-26.74029-26.5526-5.0372-1.0661 10.7326 3.9216 20.3445 7.6596 30.0626 3.581 9.3095 8.473 18.2471 11.631 27.7014 5.024 15.0921 8.599 30.6437 14.138 45.5847"/><path d="m130.951 130.824c-5.589-20.212-11.833-40.2503-21.555-58.1688-8.105-14.9601-19.1266-29.681-33.2357-39.886-4.5266-3.2721-13.2199-8.7373-22.0452-11.9157-9.7176-3.4998-19.5951-4.227-24.2458 3.7993-7.1776 12.3804 4.9049 26.0912 13.2292 34.2592 11.927 11.6926 25.5523 21.4968 37.2134 33.5335 13.4818 13.8955 25.2831 29.3515 39.3581 42.6995"/><path d="m97.9145 121.832c-11.8848-12.873-25.549-24.1011-40.4941-33.258-5.0409-3.0922-30.7617-18.2319-29.6527-1.9467.7548 11.1654 14.5275 16.7337 23.043 20.5327 17.5437 7.838 36.3341 13.072 52.8293 22.928"/></g><g stroke="#fff"><path d="m35.8027 89.0564s34.9904 12.9366 72.8833 46.2556" stroke-linecap="round" stroke-miterlimit="10"/><path d="m47.8011 35.2803s40.9345 18.8884 82.4629 104.4327" stroke-linecap="round" stroke-miterlimit="10"/><path d="m107.068 21.4198s24.929 30.7616 30.178 112.6642" stroke-linecap="round" stroke-miterlimit="10"/></g><path clip-rule="evenodd" d="m402.294 27c12.016 0 21.758 9.7414 21.758 21.758 0 5.1874-1.816 9.9509-4.846 13.6897l.913 12.6229-11.39-5.522c-2.034.6288-4.195.9674-6.435.9674h-97.536c-12.017 0-21.758-9.7414-21.758-21.758s9.741-21.758 21.758-21.758z" fill="#6a7bff" fill-rule="evenodd"/><path d="m305 48h97" stroke="#fff" stroke-linecap="round" stroke-width="2"/><path clip-rule="evenodd" d="m621 56h-130c-14.912 0-27 12.0883-27 27s12.088 27 27 27h130c14.912 0 27-12.0883 27-27s-12.088-27-27-27zm-130-2c-16.016 0-29 12.9837-29 29s12.984 29 29 29h130c16.016 0 29-12.9837 29-29s-12.984-29-29-29z" fill="#6a7bff" fill-rule="evenodd"/><path d="m488 76h139" stroke="#fff" stroke-linecap="round" stroke-width="2"/><path d="m488 87h49" stroke="#fff" stroke-linecap="round" stroke-width="2"/><circle cx="551.5" cy="86.5" fill="#fff" r="1.5"/><path d="m374.67 118.963 3.927 11.34" stroke="#fff" stroke-linecap="round" stroke-linejoin="round" stroke-miterlimit="10" stroke-width="2.5974"/><path d="m382.303 122.67-11.34 3.927" stroke="#fff" stroke-linecap="round" stroke-linejoin="round" stroke-miterlimit="10" stroke-width="2.5974"/><circle cx="688" cy="30" r="6" stroke="#fff" stroke-width="2"/><path d="m673.067 120.576c5.15-10.392.9-22.9905-9.492-28.1401s-22.991-.9-28.14 9.4921c-5.15 10.392-.9 22.99 9.492 28.14s22.99.9 28.14-9.492z" fill="#ffab37"/><path d="m669.95 112.257c.836-1.185.841-2.82-.024-3.974-.979-1.328-2.606-1.719-3.979-1.226.48-1.378.04-3.012-1.307-3.954-1.185-.836-2.811-.782-3.965.083-.965.702-1.428 1.752-1.412 2.783l.084 6.935c.011.503.422.879.892.885l6.934-.084c1.057-.007 2.094-.493 2.777-1.448z" fill="#ea3974"/><path d="m640.124 103.071c-.025-1.45.917-2.797 2.264-3.2976 1.556-.5474 3.121.0457 3.979 1.2256.404-1.4018 1.661-2.5126 3.297-2.5083 1.45-.0249 2.789.9424 3.257 2.3073.378 1.115.169 2.244-.432 3.113l-3.971 5.685c-.259.392-.818.497-1.228.205l-5.685-3.971c-.869-.601-1.454-1.585-1.481-2.759z" fill="#ea3974"/><path d="m663.312 118.675c-1.764 5.727-7.829 8.936-13.556 7.172s-8.936-7.829-7.172-13.556z" fill="#fff"/><g clip-path="url(#b)"><path d="m292.448 35c9.636 0 17.447-7.835 17.447-17.5 0-9.66498-7.811-17.5-17.447-17.5s-17.448 7.83502-17.448 17.5c0 9.665 7.812 17.5 17.448 17.5z" fill="#ffab37"/><path d="m311.604 24.2063c.378-1.1381-.037-2.4475-.989-3.1696-1.098-.8199-2.489-.7342-3.465.0123.037-1.2238-.707-2.4109-2.001-2.8269-1.147-.3672-2.44.0612-3.148 1.0402-.573.7954-.695 1.75-.427 2.5821l1.757 5.4948c.122.3916.537.5996.928.4773l5.478-1.7623c.854-.2692 1.562-.9178 1.867-1.8479z" fill="#ea3974"/><g fill="#000"><path d="m286.396 20.1801c.889 0 1.611-1.1944 1.611-2.6678s-.722-2.6679-1.611-2.6679c-.89 0-1.611 1.1945-1.611 2.6679s.721 2.6678 1.611 2.6678z"/><path d="m282.162 13.2291c-.085 0-.171-.0245-.256-.0612-.305-.1469-.439-.514-.293-.82.073-.1468 1.83-3.78143 6.406-3.78143.341 0 .61.26923.61.61189 0 .34265-.269.61188-.61.61188-3.807 0-5.283 3.05946-5.296 3.08396-.109.2202-.329.3549-.561.3549z"/><path d="m303.551 14.2325c-.171 0-.342-.0734-.464-.2081-.097-.1101-2.294-2.5699-5.93-1.5542-.329.0857-.658-.0979-.756-.4283-.086-.3304.098-.6608.427-.7587 4.405-1.2238 7.064 1.8112 7.174 1.9335.22.257.195.6364-.061.8567-.11.1101-.244.1591-.39.1591z"/><path d="m297.231 18.1119c-.123 0-.257-.0367-.367-.1224-.268-.1958-.329-.5874-.134-.8567 1.818-2.472 4.502-1.6888 5.662-.9178.28.1836.366.563.183.8444-.183.2815-.562.3672-.842.1836-.244-.1591-2.465-1.493-4.027.6241-.109.1591-.292.2448-.475.2448z"/><path d="m293.119 29.4563c-.183 0-.354-.0734-.476-.2325-.208-.2692-.171-.6486.097-.8567l1.782-1.4195-1.123-.4773c-.183-.0857-.317-.2448-.354-.4528-.036-.1958.025-.4039.171-.5507l1.123-1.1136-2.111-.82c-.317-.1224-.476-.4772-.354-.7954s.476-.4773.793-.3549l3.002 1.1626c.195.0734.341.2447.378.4528.049.208-.024.416-.171.5629l-1.159 1.1381 1.22.5262c.195.0857.342.2693.366.4773.025.208-.061.4283-.219.5629l-2.575 2.0437c-.122.098-.256.1469-.39.1469z"/></g></g><path d="m403.234 242.124c0-14.242-5.683-30.185-16.048-46.126-10.359-15.932-25.358-31.804-43.887-45.886-37.061-28.167-88.161-49.112-144.299-49.112-56.274 0-90.977 11.735-111.6145 30.494-20.6124 18.736-27.3855 44.656-27.3855 73.506 0 28.61 15.4595 54.587 40.605 73.446 25.146 18.86 59.931 30.554 98.395 30.554 38.637 0 89.854-2.472 131.385-12.166 20.772-4.848 39.038-11.485 52.088-20.464 13.03-8.964 20.761-20.183 20.761-34.246z" stroke="#fff" stroke-width="2"/><path d="m104.246 101.122c-57.2103 6.856-102.71777 64.011-104.246 101.763h208.48c.013-53.709-40.936-109.3366-104.234-101.763z" fill="#4c2ede"/><g mask="url(#c)" stroke="#d6e0ff" stroke-linecap="round" stroke-miterlimit="10" stroke-width="2"><path d="m117.021 92-7.615 119.365"/><path d="m114 140.427-68-23"/><path d="m137.097 208.61 49.857-85.766"/><path d="m149 100.427 7 76"/><path d="m153.503 214.46 52.26-43.628"/><path d="m186.34 187.038 22.584-2.899"/><path d="m10.9197 155.907 59.5619 52.703"/></g><g filter="url(#a)" opacity=".7"><path d="m835.438 96.0874c-11.288-8.985-13.154-25.4191-4.169-36.7065s25.419-13.1537 36.706-4.1686c11.288 8.985 13.154 25.4191 4.169 36.7065-8.985 11.2872-25.419 13.1542-36.706 4.1686z" fill="#f474ef"/></g><path d="m864.228 75.7449c.466-2.5708-.805-5.272-3.099-6.5324-2.615-1.4467-5.609-.8271-7.489 1.072-.292-2.6566-2.251-5.0036-5.198-5.4968-2.58-.4393-5.256.8856-6.49 3.1884-1.015 1.889-.96 3.9879-.132 5.7026l5.477 11.3426c.388.8038 1.355 1.141 2.159.7529l11.342-5.4768c1.715-.828 3.05-2.4419 3.43-4.5525z" fill="#e7e7e7"/></svg>