<svg fill="none" height="189" viewBox="0 0 886 189" width="886" xmlns="http://www.w3.org/2000/svg" xmlns:xlink="http://www.w3.org/1999/xlink"><mask id="a" height="103" maskUnits="userSpaceOnUse" width="209" x="677" y="115"><path d="m781.246 115.695c-57.21 6.856-102.718 64.012-104.246 101.763h208.48c.013-53.708-40.936-109.336-104.234-101.763z" fill="#553df8"/></mask><mask id="b" fill="#fff"><path d="m528.857 69.4121c.002-12.1503-9.846-22.0009-21.997-22.0021l-115.849-.0106c-12.151-.0011-22.002 9.8477-22.004 21.998l-.007 45.5906 137.85.013c12.15.001 22.001-9.848 22.003-21.9984z" fill="#fff"/></mask><path d="m482 280.124c0-14.242 5.683-30.185 16.049-46.126 10.359-15.932 25.357-31.804 43.886-45.886 37.061-28.167 88.162-49.112 144.299-49.112 56.274 0 90.977 11.735 111.615 30.494 20.612 18.736 27.385 44.656 27.385 73.506 0 28.61-15.459 54.587-40.605 73.446-25.146 18.86-59.93 30.554-98.395 30.554-38.637 0-89.854-2.472-131.384-12.166-20.773-4.848-39.038-11.485-52.088-20.464-13.03-8.964-20.762-20.183-20.762-34.246z" stroke="#fff" stroke-width="2"/><path d="m781.246 116.122c-57.21 6.856-102.718 64.011-104.246 101.763h208.48c.013-53.709-40.936-109.337-104.234-101.763z" fill="#003fba"/><g mask="url(#a)"><path d="m848.051 130.587s-20.463-12.563-80.218 2.136-102.1 71.711-102.1 71.711m218.749-1.388s-105.045-38.817-221.039 38.165m243.484-89.675s-154.389-14.039-237.638 62.551" stroke="#fbfbfb" stroke-linecap="round" stroke-miterlimit="10" stroke-width="2"/></g><path d="m661.494 68.3174-.358 11.9946" stroke="#fff" stroke-linecap="round" stroke-linejoin="round" stroke-miterlimit="10" stroke-width="2.5974"/><path d="m667.312 74.4937-11.995-.358" stroke="#fff" stroke-linecap="round" stroke-linejoin="round" stroke-miterlimit="10" stroke-width="2.5974"/><circle cx="281" cy="155" r="10" stroke="#fff" stroke-width="2"/><g fill="#fff"><path d="m501.837 73.7389c-5.381-.6092-9.24-5.4534-8.63-10.8341l1.733-15.3117c.609-5.3807 5.454-9.2396 10.834-8.6304 5.381.6092 9.24 5.4534 8.631 10.8342l-1.734 15.3116c-.607 5.3627-5.471 9.2376-10.834 8.6304z"/><path clip-rule="evenodd" d="m487.656 61.0494c1.058.1198 1.819 1.0745 1.699 2.1324-.845 7.4646 4.511 14.1883 11.975 15.0334 7.465.8451 14.189-4.5109 15.034-11.9755.12-1.0579 1.074-1.8184 2.132-1.6987 1.058.1198 1.819 1.0745 1.699 2.1324-1.085 9.5805-9.718 16.4575-19.298 15.3728-9.581-1.0846-16.458-9.7177-15.373-19.2982.12-1.0579 1.074-1.8184 2.132-1.6986z" fill-rule="evenodd"/><path clip-rule="evenodd" d="m497.718 92.9867 1.48-13.0726 3.831.4337-1.48 13.0727z" fill-rule="evenodd"/><path clip-rule="evenodd" d="m488.816 91.814c.12-1.058 1.075-1.8185 2.133-1.6987l17.839 2.0198c1.058.1197 1.819 1.0745 1.699 2.1324s-1.075 1.8184-2.133 1.6986l-17.839-2.0197c-1.058-.1198-1.818-1.0745-1.699-2.1324z" fill-rule="evenodd"/><path d="m369 114.988v2h-2v-2zm137.85.013v-2zm22.003-21.9984-2-.0003zm-159.846-23.6052 2 .0003zm159.85.0147 2 .0003zm-21.997-20.0021-115.85-.0106.001-4 115.85.0106zm-135.853 19.9877-.007 45.5903h-4l.007-45.5909zm-2.007 43.5903 137.85.013v4l-137.85-.013zm157.853-19.9857.004-23.5906 4 .0007-.004 23.5905zm-20.003 19.9987c11.046.001 20.002-8.953 20.003-19.9987l4 .0006c-.002 13.2551-10.749 23.9991-24.003 23.9981zm-115.84-63.6016c-11.045-.001-20.001 8.9526-20.003 19.9983l-4-.0006c.002-13.2548 10.749-23.9989 24.004-23.9977zm115.851-3.9894c13.254.0013 23.998 10.7475 23.996 24.0024l-4-.0007c.002-11.0456-8.951-20.0006-19.997-20.0017z" mask="url(#b)"/></g><path d="m473.198 76h-81m81 11h-81" stroke="#fff" stroke-linecap="round" stroke-linejoin="round" stroke-width="2"/><path d="m5.70654 72 3.92694 11.3393" stroke="#fff" stroke-linecap="round" stroke-linejoin="round" stroke-miterlimit="10" stroke-width="2.5974"/><path d="m13.3393 75.7059-11.3393 3.9269" stroke="#fff" stroke-linecap="round" stroke-linejoin="round" stroke-miterlimit="10" stroke-width="2.5974"/><g fill="#fff"><rect height="35" rx="1.02941" width="2.05882" x="78.5488" y="102.607"/><rect height="50.098" rx="1.02941" width="2.05882" x="86.0981" y="95.0586"/><rect height="44.6078" rx="1.02941" width="2.05882" x="93.647" y="97.8037"/><rect height="22.6471" rx="1.02941" width="2.05882" x="101.196" y="108.784"/><rect height="53.5294" rx="1.02941" width="2.05882" x="108.745" y="93"/><rect height="32.2549" rx="1.02941" width="2.05882" x="116.294" y="103.98"/><rect height="50.098" rx="1.02941" width="2.05882" x="123.843" y="95.0586"/><rect height="44.6078" rx="1.02941" width="2.05882" x="131.392" y="97.8037"/><rect height="19.902" rx="1.02941" width="2.05882" x="138.941" y="110.157"/><rect height="19.902" rx="1.02941" width="2.05882" x="71" y="110.157"/></g><path d="m211.241 62.445c15.6-3.0091 25.786-18.2077 22.75-33.9468-3.036-15.7392-18.144-26.05895-33.744-23.04979s-25.786 18.20769-22.75 33.94689 18.144 26.0589 33.744 23.0497z" fill="#ffab37"/><path d="m201.874 48.2944c.241-.1293.545-.1466.833-.0367.22.0815 5.313 2.055 9.858-2.2116.417-.3904 1.04-.3453 1.425.0559.384.4012.345 1.0495-.051 1.4361-5.521 5.1575-11.708 2.7131-11.972 2.6193-.512-.2113-.77-.8024-.562-1.3179.096-.2459.267-.4235.469-.5451z" fill="#000"/><path d="m211.277 33.2103c-.205-.0017-.418-.0433-.607-.1723-.452-.3262-.571-.944-.253-1.4187 2.883-4.1734 7.333-2.9854 9.288-1.7709.468.3024.627.9126.328 1.3836-.278.4671-.903.6289-1.387.3502-.417-.2503-4.143-2.3633-6.589 1.209-.175.2612-.472.4218-.78.4191z" fill="#000"/><path d="m189.608 37.39c-.201.0182-.418-.0433-.607-.1723-.452-.3262-.571-.944-.253-1.4188 2.883-4.1733 7.333-2.9853 9.288-1.7708.468.3024.627.9126.328 1.3836-.278.4671-.903.6289-1.387.3502-.417-.2503-4.143-2.3633-6.589 1.209-.175.2611-.472.4218-.78.4191z" fill="#000"/></svg>