<svg fill="none" height="267" viewBox="0 0 991 267" width="991" xmlns="http://www.w3.org/2000/svg" xmlns:xlink="http://www.w3.org/1999/xlink"><filter id="a" color-interpolation-filters="sRGB" filterUnits="userSpaceOnUse" height="482.404" width="478.9" x="222" y="0"><feFlood flood-opacity="0" result="BackgroundImageFix"/><feBlend in="SourceGraphic" in2="BackgroundImageFix" mode="normal" result="shape"/><feGaussianBlur result="effect1_foregroundBlur" stdDeviation="40"/></filter><linearGradient id="b" gradientUnits="userSpaceOnUse" x1="1063.69" x2="497.331" y1="358.681" y2="87.4864"><stop offset="0" stop-color="#fff"/><stop offset=".887264" stop-color="#f5834b"/></linearGradient><g filter="url(#a)" opacity=".7"><path d="m386.973 334.763c-46.929-37.357-51.628-109.53-10.495-161.202 41.132-51.672 112.521-63.277 159.45-25.92s51.628 109.529 10.495 161.202c-41.133 51.672-112.521 63.277-159.45 25.92z" fill="#ffdf38"/></g><g stroke="#f5834b" stroke-width="3"><rect height="54.8845" rx="27.4422" transform="matrix(.97685557 -.21389999 .21389999 .97685557 -38.107153 56.525135)" width="245.948" x="242.148" y="204.355"/><circle cx="447.347" cy="186.093" r="7.91269" transform="matrix(.9615479 -.27463729 .27463729 .9615479 -33.906644 130.013833)"/><path d="m455.066 189.935 13.081 5.477" stroke-linecap="round"/></g><g fill="#f5834b"><circle cx="391.896" cy="199.245" opacity=".3" r="3.14157" transform="matrix(.99683124 -.07954547 .07954547 .99683124 -14.607213 31.804913)"/><circle cx="403.568" cy="196.691" opacity=".5" r="3.14157" transform="matrix(.99683124 -.07954547 .07954547 .99683124 -14.367068 32.725274)"/><circle cx="415.331" cy="194.117" opacity=".6" r="3.14157" transform="matrix(.99683124 -.07954547 .07954547 .99683124 -14.125044 33.652811)"/></g><path d="m558.621 217.171-7.67 9.229" stroke="#f5834b" stroke-linecap="round" stroke-linejoin="round" stroke-miterlimit="10" stroke-width="2.5974"/><path d="m559.399 225.621-9.228-7.67" stroke="#f5834b" stroke-linecap="round" stroke-linejoin="round" stroke-miterlimit="10" stroke-width="2.5974"/><circle cx="267" cy="113" r="13" stroke="#fff" stroke-width="2"/><path d="m957.07 157.822c1.919-.417 3.137-2.312 2.72-4.231l-2.117-9.744c-.829-3.817 1.602-7.6 5.419-8.43 3.816-.829 7.6 1.604 8.429 5.42l2.118 9.745c.417 1.919 2.31 3.138 4.231 2.721 1.919-.417 3.137-2.312 2.72-4.231l-2.117-9.745c-1.662-7.653-9.239-12.524-16.892-10.861-7.651 1.662-12.522 9.239-10.86 16.891l2.118 9.745c.417 1.919 2.312 3.137 4.231 2.72z" stroke="#fff" stroke-width="2"/><path d="m981.224 144.648-.977.212.212.977.678 3.116c.481 2.217-.931 4.412-3.147 4.894-2.216.481-4.412-.93-4.894-3.147l-.677-3.116-.212-.977-.977.213-10.806 2.348-.977.212.212.977.678 3.116c.481 2.216-.931 4.412-3.147 4.894-2.216.481-4.412-.931-4.894-3.147l-.677-3.116-.212-.977-.977.212-13.412 2.915c-.609.132-1.132.504-1.406 1.069s-.242 1.206.031 1.766l.001.001 16.479 33.702.003.008.004.007c1.169 2.292 4.081 3.672 6.594 3.126l32.482-7.059c2.516-.546 4.589-3.01 4.704-5.579v-.009l.001-.009 1.004-37.501v-.001c.015-.622-.22-1.219-.704-1.62s-1.115-.521-1.724-.389z" stroke="#fff" stroke-width="2"/><path d="m127.757 221.605.739.674zm20.179-13.508.201-.979zm-5.809 19.644.758.652zm-16.239 10.236c.549-.835.55-.835.551-.835 0 0 0 .001.001.001 0 0 .001.001.001.001h.001c-.001 0-.003-.002-.007-.005-.009-.005-.024-.016-.045-.032-.043-.031-.111-.082-.197-.153-.172-.142-.415-.362-.683-.658-.536-.594-1.152-1.479-1.494-2.658-.661-2.279-.392-6.023 4.48-11.359l-1.478-1.348c-5.173 5.666-5.838 10.108-4.922 13.265.446 1.539 1.247 2.684 1.93 3.44.342.38.658.666.894.86.118.098.217.173.289.225.036.027.065.048.087.063.011.007.02.014.028.019l.009.006c.001.001.003.002.004.002 0 .001.001.001.001.001.001.001.001.001.55-.835zm2.608-15.698c2.967-3.251 6.279-6.471 9.567-8.872l-1.18-1.615c-3.439 2.512-6.853 5.84-9.865 9.139zm9.567-8.872c1.682-1.228 3.451-2.469 5.169-3.327 1.742-.869 3.264-1.258 4.503-1.003l.402-1.959c-1.907-.392-3.934.243-5.798 1.173-1.885.941-3.775 2.274-5.456 3.501zm9.672-4.33c.439.09.681.283.84.537.18.287.306.741.312 1.41.011 1.349-.47 3.206-1.287 5.279-1.625 4.123-4.397 8.652-6.232 10.786l1.517 1.304c1.999-2.327 4.88-7.055 6.576-11.357.843-2.14 1.44-4.287 1.426-6.029-.007-.877-.169-1.741-.618-2.456-.469-.749-1.197-1.241-2.132-1.433zm-6.367 18.012c-2.965 3.451-4.829 5.126-5.917 5.931-.542.401-.873.571-1.035.64-.079.034-.112.041-.104.039.004-.001.019-.004.043-.007.012-.001.027-.003.044-.003.008-.001.018-.001.027-.002h.015.008.004c.002 0 .004 0-.004 1-.007 1-.005 1-.003 1h.004.008.017c.012 0 .023-.001.035-.002.024-.001.049-.003.075-.006.052-.006.109-.016.171-.03.124-.028.271-.075.444-.149.343-.146.811-.407 1.441-.872 1.256-.929 3.23-2.728 6.244-6.235z" fill="#fff"/><path d="m85.8792 247.442.0034-.004 22.7684-22.992c.001 0 .001-.001.002-.001.461-.46 1.311-.822 2.193-.822h20.093c1.939 0 3.242 1.374 3.242 3.019v20.092c0 .884-.363 1.735-.824 2.196l-22.995 22.995c-1.172 1.172-3.218 1.172-4.39 0l-20.0928-20.093c-1.1723-1.172-1.1723-3.218 0-4.39zm30.4418-11.424c0 3.008 2.457 5.465 5.465 5.465s5.465-2.457 5.465-5.465-2.457-5.465-5.465-5.465-5.465 2.457-5.465 5.465z" stroke="#fff" stroke-width="2"/><path d="m564.059 99.9751c28.079 33.4629 94.845 100.6939 149.354 106.6659 26.315 2.883 60.553-11.566 62.076-38.743 2.251-40.167-51.983-34.338-40.222 6.887 9.408 32.98 57.392 65.514 71.03 69.862 36.068 11.499 60.744 2.392 109.564-13.024s135.239-2.146 148.509 95.015" stroke="url(#b)" stroke-dasharray="16 12" stroke-linecap="round" stroke-width="2"/><path d="m11.6211 162.171-7.67033 9.229" stroke="#fff" stroke-linecap="round" stroke-linejoin="round" stroke-miterlimit="10" stroke-width="2.5974"/><path d="m12.3994 170.621-9.2285-7.67" stroke="#fff" stroke-linecap="round" stroke-linejoin="round" stroke-miterlimit="10" stroke-width="2.5974"/></svg>