<svg fill="none" height="242" viewBox="0 0 375 242" width="375" xmlns="http://www.w3.org/2000/svg" xmlns:xlink="http://www.w3.org/1999/xlink"><filter id="a" color-interpolation-filters="sRGB" filterUnits="userSpaceOnUse" height="524.204" width="519.104" x="-144" y="0"><feFlood flood-opacity="0" result="BackgroundImageFix"/><feBlend in="SourceGraphic" in2="BackgroundImageFix" mode="normal" result="shape"/><feGaussianBlur result="effect1_foregroundBlur" stdDeviation="35"/></filter><filter id="b" color-interpolation-filters="sRGB" filterUnits="userSpaceOnUse" height="87.6395" width="87.6395" x="285" y="64.1064"><feFlood flood-opacity="0" result="BackgroundImageFix"/><feBlend in="SourceGraphic" in2="BackgroundImageFix" mode="normal" result="shape"/><feGaussianBlur result="effect1_foregroundBlur" stdDeviation="10"/></filter><mask id="c" fill="#fff"><path d="m157.945 130.625c-.001-8.284 6.714-15.001 14.999-15.002l49.681-.006c8.284-.001 15.001 6.714 15.002 14.998l.003 28.935-64.681.008c-8.285.001-15.001-6.714-15.002-14.998z" fill="#fff"/></mask><g filter="url(#a)" opacity=".7"><path d="m25.998 374.603c-55.2273-43.962-59.9032-129.97-10.4439-192.102s134.3249-76.862 189.5519-32.899c55.227 43.962 59.903 129.969 10.444 192.102-49.459 62.132-134.3246 76.862-189.552 32.899z" fill="#36cffe"/></g><g stroke-width="2"><circle cx="46.5" cy="236.5" r="11.5" stroke="#1180e7"/><g stroke-linecap="round" stroke-linejoin="round" stroke-miterlimit="10"><path d="m24.8242 82.3398 3.6919 10.6606" stroke="#fff"/><path d="m31.9999 85.8237-10.6605 3.6919" stroke="#fff"/><path d="m195.056 205.786-3.876 4.663" stroke="#1180e7"/><path d="m195.449 210.055-4.663-3.876" stroke="#1180e7"/></g></g><path d="m237.63 159.55v2h2v-2zm-64.681.008v2zm-15.002-14.998h-2zm64.678-28.943v-2zm15.002 14.998h2zm-64.683-14.992v2zm-14.999 15.002h2zm14.999-13.002 49.681-.006v-4l-49.682.006zm62.683 12.993.003 28.934h4l-.003-28.935zm2.003 26.934-64.681.008v4l64.681-.008zm-77.683-12.991-.002-13.934h-4l.002 13.935zm13.002 12.999c-7.18.001-13.001-5.819-13.002-12.999l-4 .001c.001 9.389 7.613 16.999 17.002 16.998zm49.676-39.941c7.18-.001 13.001 5.819 13.002 12.999l4-.001c-.001-9.389-7.614-16.999-17.002-16.998zm-49.682-3.994c-9.389.001-16.999 7.613-16.998 17.002h4c-.001-7.18 5.819-13.001 12.999-13.002z" fill="#fff" mask="url(#c)"/><path d="m186.009 129.647h39.853m-39.853 5.694h39.853" stroke="#fff" stroke-linecap="round" stroke-linejoin="round" stroke-width="2"/><path d="m186.009 139.814h39.853m-39.853 5.694h39.853" stroke="#fff" stroke-linecap="round" stroke-linejoin="round" stroke-width="2"/><path d="m76 202.145h52.672c8.284 0 15-6.791 15-15.075s-6.716-15.075-15-15.075h-37.672c-8.2843 0-15 6.716-15 15z" fill="#1180e7"/><path d="m130.303 184.138h-40.2587m40.2587 5.693h-40.2587" stroke="#fff" stroke-linecap="round" stroke-linejoin="round" stroke-width="2"/><path d="m178.03 119.12c-.208-8.026-6.883-14.364-14.909-14.156-8.026.207-14.364 6.882-14.157 14.908.208 8.027 6.883 14.365 14.909 14.157s14.365-6.882 14.157-14.909z" fill="#ffab37"/><path d="m173.432 115.037c.129-.996-.397-1.998-1.3-2.425-1.028-.497-2.151-.209-2.831.536-.152-.999-.95-1.856-2.079-1.997-.996-.129-1.973.429-2.4 1.332-.364.742-.308 1.534.035 2.161l2.294 4.217c.169.304.543.402.832.254l4.218-2.294c.644-.346 1.122-.978 1.231-1.784z" fill="#ea3974"/><path d="m152.204 119.057c-.484-.88-.343-2.009.32-2.751.775-.838 1.925-.981 2.831-.536-.206-.988.205-2.075 1.208-2.601.879-.484 2.012-.325 2.739.359.592.56.829 1.319.742 2.045l-.592 4.764c-.032.324-.34.569-.686.522l-4.764-.592c-.726-.086-1.402-.5-1.798-1.21z" fill="#ea3974"/><path d="m171.444 121.111c.772 4.076-1.904 8.002-5.98 8.774s-8.001-1.904-8.773-5.98z" fill="#fff"/><g filter="url(#b)" opacity=".7"><path d="m318.263 121.188c-7.325-5.83-8.536-16.495-2.706-23.8195 5.831-7.3246 16.496-8.5358 23.82-2.7051 7.325 5.8306 8.536 16.4956 2.705 23.8196-5.83 7.325-16.495 8.536-23.819 2.705z" fill="#36cffe"/></g><path d="m334.41 102.451c-1.234 6.792-7.74 11.298-14.532 10.065-6.792-1.234-11.298-7.74-10.065-14.5317.585-3.2209 2.705-6.4315 5.129-8.256 0 0 .424 2.5723 1.479 4.3518 1.055 1.7796 2.516 2.3852 2.516 2.3852s-.691-10.5606 10.098-15.6336c-.587 7.6063 6.99 12.7255 5.375 21.6193z" fill="#ff774d" stroke="#ff774d" stroke-width="3"/><path d="m326.887 107.653c-.596 3.28-3.734 5.457-7.009 4.863-3.274-.595-5.446-3.737-4.85-7.017.282-1.556 1.305-3.107 2.474-3.988 0 0 .204 1.242.712 2.101.509.86 1.213 1.152 1.213 1.152s-.332-5.1004 4.871-7.552c-.284 3.674 3.369 6.145 2.589 10.441z" fill="#fff" stroke="#ff774d" stroke-width="3"/><path d="m623.234 288.124c0-14.242-5.683-30.185-16.048-46.126-10.359-15.932-25.358-31.804-43.887-45.886-37.061-28.167-88.161-49.112-144.299-49.112-56.274 0-90.977 11.735-111.614 30.494-20.613 18.736-27.386 44.656-27.386 73.506 0 28.61 15.459 54.587 40.605 73.446 25.146 18.86 59.931 30.554 98.395 30.554 38.637 0 89.854-2.472 131.385-12.166 20.772-4.848 39.038-11.485 52.088-20.464 13.03-8.964 20.761-20.183 20.761-34.246z" stroke="#fff" stroke-width="2"/></svg>