<svg fill="none" height="179" viewBox="0 0 375 179" width="375" xmlns="http://www.w3.org/2000/svg" xmlns:xlink="http://www.w3.org/1999/xlink"><mask id="a" height="71" maskUnits="userSpaceOnUse" width="144" x="261" y="114"><path d="m333.004 114.477c-39.254 4.704-70.477 43.919-71.525 69.821h143.041c.009-36.85-28.087-75.017-71.516-69.821z" fill="#553df8"/></mask><mask id="b" fill="#fff"><path d="m308 52.2195c.002-12.1502-9.846-22.0009-21.997-22.002l-81.852-.0075c-12.15-.0012-22.002 9.8477-22.003 21.9979l-.005 31.2152 103.852.0095c12.15.0011 22.002-9.8477 22.004-21.998z" fill="#fff"/></mask><path d="m128 227.295c0-9.692 3.869-20.571 10.96-31.477 7.085-10.897 17.349-21.761 30.038-31.405 25.381-19.289 60.376-33.632 98.816-33.632 38.577 0 62.293 8.046 76.37 20.841 14.051 12.771 18.687 30.452 18.687 50.201 0 19.509-10.541 37.247-27.735 50.142-17.193 12.895-40.992 20.9-67.322 20.9-26.502 0-61.614-1.696-90.074-8.339-14.236-3.323-26.724-7.865-35.631-13.993-8.887-6.114-14.109-13.727-14.109-23.238z" stroke="#fff" stroke-width="2"/><path d="m333.004 114.77c-39.254 4.704-70.477 43.919-71.525 69.821h143.041c.009-36.85-28.087-75.017-71.516-69.821z" fill="#003fba"/><g mask="url(#a)"><path d="m378.839 124.694s-14.039-8.619-55.038 1.466c-40.999 10.086-70.053 49.202-70.053 49.202m150.087-.952s-72.073-26.633-151.658 26.186m167.058-61.528s-105.929-9.632-163.047 42.917" stroke="#fbfbfb" stroke-linecap="round" stroke-miterlimit="10" stroke-width="2"/></g><path d="m119.096 59.694c9.164-2.3274 14.689-11.709 12.341-20.9543-2.348-9.2454-11.681-14.8535-20.844-12.5261-9.164 2.3274-14.6895 11.709-12.3414 20.9543 2.3484 9.2454 11.6804 14.8535 20.8444 12.5261z" fill="#ffab37"/><path d="m113.041 51.6114c.139-.0851.319-.1059.494-.0506.133.0408 3.227 1.037 5.78-1.6549.234-.2464.606-.2411.848-.0161.242.2251.242.6115.02.8549-3.102 3.255-6.862 2.0169-7.022 1.9703-.312-.1078-.485-.4501-.379-.7636.048-.1493.143-.2608.259-.34z" fill="#000"/><path d="m118.106 42.3245c-.122.006-.25-.0113-.367-.0814-.28-.1782-.372-.5411-.199-.8341 1.568-2.5791 4.252-2.0272 5.456-1.3734.289.1635.404.5205.243.8106-.149.2872-.515.4049-.812.2561-.256-.1343-2.543-1.2606-3.873.9462-.095.1612-.265.2669-.448.276z" fill="#000"/><path d="m105.377 45.5579c-.119.0177-.25-.0113-.366-.0814-.28-.1782-.373-.5411-.2-.8341 1.568-2.5791 4.253-2.0272 5.457-1.3734.288.1635.403.5205.242.8106-.149.2872-.514.4049-.812.2561-.256-.1343-2.543-1.2606-3.872.9462-.095.1612-.266.2669-.449.276z" fill="#000"/><circle cx="3" cy="148" r="8" stroke="#fff" stroke-width="2"/><g fill="#fff"><rect height="24.9998" rx=".735289" width="1.47058" x="53.3921" y="105.862"/><rect height="35.7841" rx=".735289" width="1.47058" x="58.7842" y="100.47"/><rect height="31.8625" rx=".735289" width="1.47058" x="64.1763" y="102.431"/><rect height="16.1764" rx=".735289" width="1.47058" x="69.5688" y="110.274"/><rect height="38.235" rx=".735289" width="1.47058" x="74.9609" y="99"/><rect height="23.0391" rx=".735289" width="1.47058" x="80.3525" y="106.843"/><rect height="35.7841" rx=".735289" width="1.47058" x="85.7446" y="100.47"/><rect height="31.8625" rx=".735289" width="1.47058" x="91.1367" y="102.431"/><rect height="14.2156" rx=".735289" width="1.47058" x="96.5293" y="111.255"/><rect height="14.2156" rx=".735289" width="1.47058" x="48" y="111.255"/><path d="m286.727 50.9466c-4.236-.4796-7.274-4.2935-6.795-8.5299l1.365-12.0551c.48-4.2363 4.294-7.2745 8.53-6.7949 4.236.4797 7.274 4.2936 6.795 8.53l-1.365 12.0551c-.478 4.2221-4.308 7.2728-8.53 6.7948z"/><g clip-rule="evenodd" fill-rule="evenodd"><path d="m275.562 40.9559c.833.0943 1.432.846 1.338 1.6789-.666 5.877 3.551 11.1706 9.428 11.836s11.171-3.5515 11.836-9.4285c.095-.8329.846-1.4317 1.679-1.3374s1.432.846 1.338 1.6789c-.854 7.5428-7.651 12.9573-15.194 12.1033s-12.958-7.651-12.104-15.1938c.095-.8329.846-1.4317 1.679-1.3374z"/><path d="m283.485 66.0999 1.165-10.2923 3.016.3415-1.165 10.2923z"/><path d="m276.476 65.1771c.094-.8329.846-1.4317 1.679-1.3374l14.045 1.5902c.833.0943 1.432.8459 1.337 1.6789-.094.8329-.846 1.4316-1.679 1.3373l-14.045-1.5902c-.833-.0943-1.432-.8459-1.337-1.6788z"/></g><path d="m182.143 83.4231v2l-2.001-.0002.001-2.0001zm103.852.0095v-2zm22.004-21.998-2-.0003zm-103.848-31.2246v-2zm-22.003 21.9979-2-.0003zm103.855-21.9904v2zm21.997 22.002 2 .0003zm-21.997-20.002-81.852-.0075v-4l81.853.0075zm-101.855 19.9908-.005 31.2151-4-.0006.005-31.2152zm-2.005 29.2148 103.852.0095v4l-103.852-.0095zm123.856-19.9888.001-9.2151 4 .0006-.001 9.2152zm-20.004 19.9983c11.046.001 20.002-8.9525 20.004-19.9983l4 .0007c-.003 13.2547-10.749 23.9988-24.004 23.9976zm-81.844-49.2226c-11.046-.0011-20.002 8.9525-20.003 19.9983l-4-.0007c.002-13.2548 10.748-23.9989 24.003-23.9976zm81.853-3.9925c13.255.0012 23.998 10.7474 23.996 24.0023l-4-.0006c.002-11.0456-8.951-20.0007-19.997-20.0017z" mask="url(#b)"/></g><g stroke="#fff" stroke-linecap="round" stroke-linejoin="round" stroke-width="2"><path d="m264 53h-64m64 8h-64"/><path d="m41.894 2.03223-3.0755 11.22187" stroke-miterlimit="10"/><path d="m45.9669 9.18001-11.2218-3.07552" stroke-miterlimit="10"/><path d="m355.462 99.8252-.211 7.0628" stroke-miterlimit="10"/><path d="m358.888 103.462-7.063-.211" stroke-miterlimit="10"/></g></svg>