<svg width="55" height="54" viewBox="0 0 55 54" fill="none" xmlns="http://www.w3.org/2000/svg">
<rect width="55" height="53" rx="12" transform="matrix(-1 0 0 1 55 0.5)" fill="#6B4EE6" fill-opacity="0.05"/>
<path d="M25.6056 8.63215C26.5347 8.10038 27.7447 8.09798 28.6729 8.63215C33.3427 11.2708 38.014 13.9054 42.6829 16.5456C43.5611 17.0403 44.1485 18.0176 44.1396 19.0295V34.9048C44.1461 35.9586 43.5007 36.9592 42.5742 37.4427C37.9197 40.0668 33.2677 42.6941 28.6141 45.3183C27.6658 45.8604 26.4315 45.8187 25.5129 45.2321C24.1175 44.4231 22.7197 43.6182 21.3242 42.8101C21.039 42.6401 20.7175 42.5048 20.5162 42.2283C20.6942 41.9884 21.0124 41.9585 21.2711 41.8537C21.8535 41.6685 22.3885 41.3712 22.9236 41.0827C23.0589 40.9901 23.2241 41.0256 23.3538 41.1085C24.547 41.7926 25.7297 42.4967 26.927 43.1743C27.1824 43.3217 27.441 43.126 27.6593 43.0043C32.2267 40.4228 36.7998 37.8512 41.3664 35.2689C41.5356 35.1875 41.6292 35.0079 41.6154 34.8226C41.6186 29.5857 41.6162 24.3478 41.617 19.1109C41.6364 18.9006 41.5147 18.7072 41.3245 18.6212C36.6862 16.0091 32.0503 13.3929 27.4128 10.7802C27.3325 10.7249 27.2373 10.6953 27.1398 10.6951C27.0423 10.695 26.947 10.7244 26.8665 10.7794C22.229 13.3929 17.5939 16.0115 12.9564 18.6234C12.767 18.7096 12.6398 18.8998 12.6623 19.1109C12.6631 24.3478 12.6623 29.5857 12.6623 34.8234C12.6543 34.9138 12.6742 35.0045 12.7193 35.0833C12.7643 35.1621 12.8325 35.2252 12.9145 35.2641C14.1521 35.9659 15.3912 36.6627 16.6296 37.3621C17.3272 37.7376 18.1837 37.9607 18.9524 37.673C19.6307 37.4298 20.1061 36.7376 20.0932 36.0174C20.0996 30.8111 20.09 25.6039 20.098 20.3983C20.081 20.1672 20.3003 19.9763 20.525 19.998C21.1196 19.994 21.715 19.99 22.3096 19.9996C22.5578 19.994 22.7286 20.2429 22.6979 20.4757C22.6955 25.7151 22.7043 30.9545 22.6939 36.1938C22.6955 37.5901 22.1219 39.1095 20.8303 39.7927C19.2391 40.617 17.2725 40.4422 15.7005 39.6518C14.3397 38.9726 13.041 38.171 11.7044 37.4434C10.7755 36.9626 10.1332 35.9579 10.1398 34.9049V19.0295C10.13 17.9967 10.7408 17.0016 11.6463 16.5141C16.3 13.8879 20.9528 11.2596 25.6056 8.63215Z" fill="#7A60E9"/>
<path d="M29.6655 19.6289C31.6951 19.4983 33.8679 19.5515 35.6943 20.5514C37.1084 21.3176 37.8924 22.9257 37.9173 24.4967C37.8778 24.7086 37.6563 24.8255 37.454 24.811C36.8652 24.8102 36.2761 24.819 35.6873 24.807C35.4375 24.8166 35.2923 24.5862 35.2609 24.3654C35.0917 23.6137 34.6818 22.8693 33.9743 22.5067C32.8882 21.9629 31.6289 21.9903 30.4446 22.0016C29.5801 22.0475 28.6504 22.1224 27.9179 22.6308C27.3556 23.0159 27.1848 23.7933 27.3855 24.4194C27.5747 24.869 28.0936 25.0141 28.5183 25.1478C30.9642 25.7875 33.5562 25.7238 35.9555 26.5657C36.9488 26.9089 37.9206 27.5761 38.2606 28.6162C38.7053 30.0101 38.5104 31.6763 37.5186 32.7953C36.7144 33.7162 35.543 34.2174 34.3747 34.4896C32.8205 34.8362 31.2076 34.845 29.6293 34.6911C28.1452 34.5219 26.6007 34.132 25.455 33.1208C24.4753 32.2701 23.9967 30.9446 24.0442 29.6653C24.0556 29.4493 24.2707 29.2986 24.4777 29.3163C25.0707 29.3115 25.6637 29.3099 26.2567 29.3171C26.4936 29.3002 26.6692 29.5049 26.6813 29.7281C26.7907 30.4443 27.0599 31.196 27.6844 31.6206C28.8896 32.3982 30.4019 32.3449 31.782 32.3667C32.9253 32.316 34.2087 32.3006 35.1418 31.545C35.634 31.1139 35.7799 30.3928 35.6468 29.7724C35.5027 29.2487 34.9548 29.0046 34.4843 28.845C32.0697 28.0812 29.4487 28.3584 27.0575 27.4946C26.0867 27.1515 25.1479 26.5029 24.775 25.5055C24.2545 24.094 24.493 22.348 25.5887 21.2668C26.657 20.1912 28.1992 19.777 29.6655 19.6288V19.6289Z" fill="#7A60E9"/>
</svg>
