<svg width="55" height="54" viewBox="0 0 55 54" fill="none" xmlns="http://www.w3.org/2000/svg">
<rect width="55" height="53" rx="12" transform="matrix(-1 0 0 1 55 0.5)" fill="#6B4EE6" fill-opacity="0.05"/>
<path d="M27.1396 30.0615C29.0726 30.0615 30.6396 28.4945 30.6396 26.5615C30.6396 24.6285 29.0726 23.0615 27.1396 23.0615C25.2067 23.0615 23.6396 24.6285 23.6396 26.5615C23.6396 28.4945 25.2067 30.0615 27.1396 30.0615Z" fill="#7A60E9"/>
<path fill-rule="evenodd" clip-rule="evenodd" d="M10.309 24.2875C9.47187 25.0655 9.14741 25.7901 9.14741 26.4268C9.14741 27.0634 9.47187 27.788 10.309 28.566C11.1461 29.3438 12.4137 30.0917 14.0655 30.741C17.3621 32.0368 21.9843 32.8599 27.1396 32.8599C32.295 32.8599 36.9171 32.0368 40.2138 30.741C41.8656 30.0917 43.1332 29.3438 43.9703 28.566C44.8074 27.788 45.1319 27.0634 45.1319 26.4268C45.1319 25.7901 44.8074 25.0655 43.9703 24.2875C43.1332 23.5097 41.8656 22.7618 40.2138 22.1126C36.9171 20.8168 32.295 19.9936 27.1396 19.9936C21.9843 19.9936 17.3621 20.8168 14.0655 22.1126C12.4137 22.7618 11.1461 23.5097 10.309 24.2875ZM13.3493 20.1816C16.9278 18.7751 21.8037 17.9268 27.1396 17.9268C32.4756 17.9268 37.3515 18.7751 40.93 20.1816C42.7158 20.8836 44.2302 21.7446 45.3156 22.7533C46.401 23.7619 47.1396 25.0015 47.1396 26.4268C47.1396 27.852 46.401 29.0916 45.3156 30.1002C44.2302 31.1089 42.7158 31.9699 40.93 32.6719C37.3515 34.0784 32.4756 34.9268 27.1396 34.9268C21.8037 34.9268 16.9278 34.0784 13.3493 32.6719C11.5635 31.9699 10.0491 31.1089 8.96366 30.1002C7.8783 29.0916 7.13965 27.852 7.13965 26.4268C7.13965 25.0015 7.8783 23.7619 8.96366 22.7533C10.0491 21.7446 11.5635 20.8836 13.3493 20.1816Z" fill="#7A60E9"/>
<path fill-rule="evenodd" clip-rule="evenodd" d="M20.6316 11.0099C19.5629 10.6642 18.7941 10.7349 18.2607 11.0428C17.7273 11.3508 17.2817 11.9812 17.0468 13.0796C16.8119 14.1779 16.8165 15.633 17.0951 17.3718C17.6511 20.8421 19.2632 25.2271 21.8305 29.6738C24.3978 34.1205 27.3892 37.709 30.1166 39.9257C31.4832 41.0364 32.741 41.768 33.8096 42.1136C34.8783 42.4594 35.6471 42.3887 36.1805 42.0807C36.7139 41.7728 37.1595 41.1424 37.3944 40.044C37.6293 38.9457 37.6247 37.4906 37.3461 35.7518C36.7901 32.2814 35.178 27.8965 32.6108 23.4498C30.0435 19.0031 27.052 15.4145 24.3246 13.1978C22.958 12.0872 21.7002 11.3556 20.6316 11.0099ZM25.5858 11.646C28.5464 14.0522 31.6853 17.8475 34.3425 22.4499C36.9997 27.0524 38.7171 31.6684 39.3206 35.4354C39.6218 37.3153 39.6545 39.038 39.3499 40.4622C39.0453 41.8863 38.3745 43.1231 37.1803 43.8125C35.9862 44.502 34.5797 44.4645 33.1941 44.0162C31.8084 43.568 30.3328 42.6783 28.8554 41.4775C25.8948 39.0713 22.7559 35.276 20.0987 30.6736C17.4415 26.0712 15.7241 21.4552 15.1206 17.6881C14.8194 15.8082 14.7867 14.0856 15.0914 12.6613C15.396 11.2373 16.0668 10.0005 17.2609 9.31106C18.455 8.62162 19.8615 8.65908 21.2471 9.10733C22.6328 9.55562 24.1084 10.4453 25.5858 11.646Z" fill="#7A60E9"/>
<path fill-rule="evenodd" clip-rule="evenodd" d="M37.3939 13.0795C37.159 11.9811 36.7134 11.3507 36.18 11.0428C35.6466 10.7348 34.8779 10.6641 33.8091 11.0099C32.7406 11.3556 31.4827 12.0871 30.1161 13.1978C27.3887 15.4145 24.3973 19.0031 21.83 23.4497C19.2627 27.8964 17.6506 32.2814 17.0946 35.7517C16.816 37.4905 16.8114 38.9457 17.0463 40.0439C17.2813 41.1423 17.7268 41.7727 18.2603 42.0807C18.7937 42.3887 19.5624 42.4593 20.6311 42.1136C21.6997 41.7679 22.9576 41.0364 24.3241 39.9257C27.0515 37.709 30.043 34.1204 32.6103 29.6737C35.1776 25.2271 36.7896 20.8421 37.3456 17.3717C37.6242 15.6329 37.6288 14.1778 37.3939 13.0795ZM39.3201 17.6881C38.7166 21.4551 36.9993 26.0712 34.342 30.6736C31.6848 35.276 28.5459 39.0713 25.5853 41.4775C24.1079 42.6783 22.6323 43.5679 21.2466 44.0162C19.861 44.4644 18.4546 44.5019 17.2604 43.8125C16.0663 43.123 15.3955 41.8863 15.0909 40.4622C14.7863 39.038 14.8189 37.3153 15.1201 35.4354C15.7237 31.6683 17.441 27.0523 20.0982 22.4499C22.7554 17.8475 25.8943 14.0522 28.8549 11.646C30.3324 10.4452 31.8079 9.55557 33.1936 9.10728C34.5792 8.65903 35.9857 8.62157 37.1798 9.31101C38.374 10.0005 39.0448 11.2372 39.3494 12.6613C39.654 14.0855 39.6213 15.8082 39.3201 17.6881Z" fill="#7A60E9"/>
</svg>
