<svg width="719" height="963" viewBox="0 0 719 963" fill="none" xmlns="http://www.w3.org/2000/svg">
<path d="M180.63 843.12C200.545 857.443 262.426 905.905 275.385 858.39C283.496 828.648 270.43 787.732 255.236 762.935C243.307 743.468 214.295 712.852 187.581 717.35C182.142 718.266 184.305 726.337 185.582 729.872C193.441 751.62 226.535 769.385 244.002 780.627C283.677 806.165 328.013 826.783 373.84 838.111C407.49 846.429 443.482 847.52 473.512 826.6C494.857 811.73 513.639 785.039 504.002 757.989C482.556 697.791 417.08 668.543 365.67 641.358C362.848 639.866 220.396 558.989 222.119 594.219C223.013 612.497 241.889 628.748 255.28 637.889C308.575 674.268 370.628 700.192 431.865 719.129C477.941 733.377 531.239 746.039 577.81 724.588C604.432 712.326 624.159 685.941 630.073 656.984C638.753 614.489 614.106 581.256 583.718 555.509C526.56 507.083 454.7 485.062 384.169 465.168C329.619 449.781 273.038 434.226 216.156 430.458C203.07 429.591 175.719 428.078 167.94 443.541C159.921 459.482 200.183 481.809 208.18 485.872C273.333 518.973 355.363 520.764 426.634 513.443C495.834 506.335 563.258 496.39 628.807 444.872C655.999 423.5 693.499 387 677.499 354.5C661.499 322 564.499 289 564.499 289C564.499 289 379.377 234.138 266.032 202.535C244.699 196.587 223.376 190.632 201.823 185.522C196.274 184.207 186.134 180.441 179.883 181.253C173.738 182.051 175.71 190.822 176.909 194.166C181.939 208.193 194.682 219.099 207.082 226.134C274.712 264.5 368.127 252.656 441.259 240.82C511.519 229.449 582.793 212.76 645.03 175.802C650.678 172.448 690.594 150.926 686.726 138.937C684.618 132.405 661.149 121.888 651.486 119.388" stroke="#F7C852" stroke-width="2" stroke-linecap="round"/>
</svg>
