<svg width="55" height="54" viewBox="0 0 55 54" fill="none" xmlns="http://www.w3.org/2000/svg">
<rect width="55" height="53" rx="12" transform="matrix(-1 0 0 1 55 0.353516)" fill="#6B4EE6" fill-opacity="0.05"/>
<path d="M10 9.35352H45V44.3535H10V9.35352Z" fill="#7A60E9"/>
<path d="M26.8055 22.3148H28.4844V25.2133H23.9453V38.1086L23.825 38.1414C23.661 38.1852 21.5008 38.1852 21.0359 38.1359L20.6641 38.1031V25.2133H16.125V22.3148L17.5633 22.2984C18.3508 22.2875 20.3742 22.2875 22.0586 22.2984C23.743 22.3094 25.8758 22.3148 26.8055 22.3148ZM39.6188 36.7414C38.9516 37.4469 38.2352 37.8406 37.043 38.1633C36.5235 38.3055 36.436 38.3109 35.2657 38.3055C34.0953 38.3 34.0024 38.3 33.4336 38.1523C31.9625 37.775 30.7758 37.0367 29.9664 35.9922C29.7367 35.6969 29.3594 35.0844 29.3594 35.0078C29.3594 34.9859 29.4141 34.9367 29.4852 34.9039C29.5563 34.8711 29.7039 34.7781 29.8242 34.707C29.9446 34.6359 30.1633 34.5047 30.311 34.4281C30.4586 34.3516 30.8852 34.1 31.2571 33.8758C31.6289 33.6516 31.968 33.4711 32.0063 33.4711C32.0446 33.4711 32.1157 33.5477 32.1703 33.6406C32.4985 34.193 33.2641 34.8984 33.8055 35.1391C34.1391 35.2812 34.8774 35.4398 35.2328 35.4398C35.561 35.4398 36.1625 35.2977 36.4852 35.15C36.8297 34.9914 37.0047 34.8328 37.2125 34.5156C37.3547 34.2914 37.3711 34.2312 37.3657 33.8047C37.3657 33.4109 37.3438 33.3016 37.2344 33.1211C36.9282 32.618 36.5125 32.3555 34.8282 31.6117C33.0891 30.8406 32.3071 30.3813 31.6727 29.7633C31.2024 29.3039 31.1094 29.1781 30.8141 28.6039C30.4313 27.8656 30.3821 27.625 30.3766 26.5258C30.3711 25.7547 30.3875 25.5031 30.4696 25.2406C30.5844 24.8469 30.9563 24.0867 31.1258 23.8953C31.4758 23.4852 31.6016 23.3594 31.8477 23.157C32.5914 22.5445 33.7508 22.1398 34.861 22.1016C34.9868 22.1016 35.4024 22.1234 35.7907 22.1508C36.9063 22.2437 37.6664 22.5172 38.3993 23.1023C38.9516 23.5398 39.7883 24.568 39.7063 24.7047C39.6516 24.7867 37.4696 26.2414 37.3274 26.2852C37.2399 26.3125 37.1797 26.2797 37.0594 26.1375C36.3157 25.2461 36.0149 25.0547 35.293 25.0109C34.7789 24.9781 34.5055 25.0383 34.161 25.268C33.8 25.5086 33.625 25.875 33.625 26.3836C33.6305 27.1273 33.9149 27.4773 34.9649 27.9969C35.643 28.3305 36.2227 28.6039 36.2664 28.6039C36.3321 28.6039 37.7375 29.3039 38.1039 29.5227C39.8102 30.5234 40.5047 31.5516 40.6852 33.3234C40.8164 34.6578 40.4391 35.8773 39.6188 36.7414Z" fill="white"/>
</svg>
