<svg width="122" height="31" viewBox="0 0 122 31" fill="none" xmlns="http://www.w3.org/2000/svg">
<path d="M30.56 5.50762H36.824C38.424 5.50762 39.784 6.05162 40.904 7.13962C42.008 8.22762 42.56 9.56362 42.56 11.1476C42.56 12.7316 42.008 14.0676 40.904 15.1556C39.784 16.2436 38.424 16.7876 36.824 16.7876H33.872V22.3076H30.56V5.50762ZM33.872 13.6916H36.824C37.528 13.6916 38.112 13.4516 38.576 12.9716C39.04 12.4756 39.272 11.8676 39.272 11.1476C39.272 10.4116 39.04 9.80362 38.576 9.32362C38.112 8.84362 37.528 8.60362 36.824 8.60362H33.872V13.6916ZM52.4923 16.7876V10.3076H55.5883V22.3076H52.4923V20.9636C51.7563 22.0836 50.5643 22.6436 48.9163 22.6436C47.6043 22.6436 46.5163 22.2036 45.6523 21.3236C44.8043 20.4276 44.3803 19.2116 44.3803 17.6756V10.3076H47.4763V17.2916C47.4763 18.0756 47.6843 18.6836 48.1003 19.1156C48.5323 19.5476 49.1163 19.7636 49.8523 19.7636C50.6683 19.7636 51.3083 19.5156 51.7723 19.0196C52.2523 18.5076 52.4923 17.7636 52.4923 16.7876ZM61.5198 10.3076V12.3716C61.7918 11.6196 62.2558 11.0516 62.9118 10.6676C63.5678 10.2676 64.3198 10.0676 65.1678 10.0676V13.5236C64.2238 13.3956 63.3758 13.5876 62.6238 14.0996C61.8878 14.5956 61.5198 15.4196 61.5198 16.5716V22.3076H58.4238V10.3076H61.5198ZM70.0745 10.3076V12.3716C70.3465 11.6196 70.8105 11.0516 71.4665 10.6676C72.1225 10.2676 72.8745 10.0676 73.7225 10.0676V13.5236C72.7785 13.3956 71.9305 13.5876 71.1785 14.0996C70.4425 14.5956 70.0745 15.4196 70.0745 16.5716V22.3076H66.9785V10.3076H70.0745ZM87.0052 17.6996L89.0452 10.3076H92.3332L88.5172 22.3076H85.5652L83.3572 15.0356L81.1492 22.3076H78.1972L74.3812 10.3076H77.6692L79.7092 17.6756L81.8932 10.3076H84.8212L87.0052 17.6996ZM105.197 17.5796H96.1492C96.5492 19.0836 97.6772 19.8356 99.5332 19.8356C100.717 19.8356 101.613 19.4356 102.221 18.6356L104.717 20.0756C103.533 21.7876 101.789 22.6436 99.4852 22.6436C97.5012 22.6436 95.9092 22.0436 94.7092 20.8436C93.5092 19.6436 92.9092 18.1316 92.9092 16.3076C92.9092 14.5156 93.5012 13.0116 94.6852 11.7956C95.8532 10.5796 97.3732 9.97162 99.2452 9.97162C101.021 9.97162 102.469 10.5796 103.589 11.7956C104.741 13.0116 105.317 14.5156 105.317 16.3076C105.317 16.6436 105.277 17.0676 105.197 17.5796ZM96.1012 15.1796H102.221C102.045 14.3956 101.685 13.7956 101.141 13.3796C100.613 12.9636 99.9812 12.7556 99.2452 12.7556C98.4132 12.7556 97.7252 12.9716 97.1812 13.4036C96.6372 13.8196 96.2772 14.4116 96.1012 15.1796ZM114.463 9.97162C116.079 9.97162 117.455 10.5876 118.591 11.8196C119.743 13.0516 120.319 14.5476 120.319 16.3076C120.319 18.0996 119.743 19.6036 118.591 20.8196C117.471 22.0356 116.095 22.6436 114.463 22.6436C112.783 22.6436 111.487 22.0596 110.575 20.8916V22.3076H107.479V5.50762H110.575V11.7236C111.487 10.5556 112.783 9.97162 114.463 9.97162ZM111.511 18.7556C112.135 19.3796 112.927 19.6916 113.887 19.6916C114.847 19.6916 115.639 19.3796 116.263 18.7556C116.903 18.1156 117.223 17.2996 117.223 16.3076C117.223 15.3156 116.903 14.5076 116.263 13.8836C115.639 13.2436 114.847 12.9236 113.887 12.9236C112.927 12.9236 112.135 13.2436 111.511 13.8836C110.887 14.5076 110.575 15.3156 110.575 16.3076C110.575 17.2996 110.887 18.1156 111.511 18.7556Z" fill="#7ECED1"/>
<path d="M10 23.3076L19 4.30762H16L7 23.3076H10Z" fill="#7ECED1"/>
<path d="M3 23.3076L12 4.30762H9L0 23.3076H3Z" fill="#7ECED1"/>
</svg>
