<svg fill="none" height="158" viewBox="0 0 158 158" width="158" xmlns="http://www.w3.org/2000/svg" xmlns:xlink="http://www.w3.org/1999/xlink"><filter id="a" color-interpolation-filters="sRGB" filterUnits="userSpaceOnUse" height="108.254" width="108.067" x="-23.2803" y="66.8644"><feFlood flood-opacity="0" result="BackgroundImageFix"/><feBlend in="SourceGraphic" in2="BackgroundImageFix" mode="normal" result="shape"/><feGaussianBlur result="effect1_foregroundBlur" stdDeviation="6.6137"/></filter><linearGradient id="b" gradientUnits="userSpaceOnUse" x1="18.8481" x2="131.243" y1="128.754" y2="118.383"><stop offset="0" stop-color="#e7a25d"/><stop offset=".6712" stop-color="#f8b366"/></linearGradient><mask id="c" height="158" maskUnits="userSpaceOnUse" width="158" x="0" y="0"><circle cx="79" cy="79" fill="#c4c4c4" r="79"/></mask><mask id="d" height="230" maskUnits="userSpaceOnUse" width="140" x="5" y="28"><path d="m48.6503 60.7823s-10.7229-26.5372-2.0284-24.6368c3.3542.7389 17.3637 11.5849 17.3637 11.5849s14.0147-12.2175 33.0873-1.449c0 0 10.6641-19.3402 15.9121-17.3849 2.528.9343 3.251 11.2053 3.509 25.0361.178 9.3894 43.303 60.2154 22.154 123.9924-15.986 48.347-53.0187 90.155-101.9184 76.549-21.941-6.094-45.11385-47.59-22.0557-100.612 0 0 8.5739 22.234 20.463-2.928 12.2132-25.905-1.1754-71.3478 13.5134-90.1517z" fill="#f9b466"/></mask><g mask="url(#c)"><ellipse cx="56" cy="90" fill="#25253e" rx="121" ry="138"/><path d="m48.8024 60.6299s-10.7229-26.5372-2.0284-24.6367c3.3542.7388 17.3637 11.5849 17.3637 11.5849s14.0147-12.2176 33.0873-1.449c0 0 10.664-19.3402 15.912-17.385 2.528.9343 3.252 11.2054 3.51 25.0361.177 9.3895 43.302 60.2148 22.153 123.9918-15.986 48.348-53.0186 90.156-101.9183 76.55-21.941-6.094-45.11385-47.59-22.0557-100.613 0 0 8.5739 22.234 20.463-2.927 12.2132-25.906-1.1754-71.3482 13.5134-90.1521z" fill="#f9b466"/><path d="m75.8421 81.0898c-1.5115.2999-8.1949-3.1035-.8758-4.4975 7.3393-1.4126 2.3855 4.2364.8758 4.4975z" fill="#3f3d56"/><path d="m58.6901 93.8655c2.9095-2.6603 3.1051-7.1825.437-10.1006-2.6682-2.9181-7.1899-3.127-10.0994-.4667-2.9095 2.6604-3.1051 7.1826-.4369 10.1007s7.1898 3.127 10.0993.4666z" fill="#e5a05c" opacity=".3"/><path d="m102.027 85.8441c2.909-2.6604 3.105-7.1826.437-10.1007-2.6686-2.9181-7.1902-3.127-10.0997-.4666-2.9095 2.6603-3.1052 7.1825-.437 10.1006s7.1898 3.127 10.0997.4667z" fill="#e5a05c" opacity=".3"/><path d="m92.6584 71.2085c.6827-.6242.7286-1.6852.1026-2.3698s-1.6869-.7336-2.3695-.1095c-.6826.6242-.7285 1.6852-.1025 2.3698s1.6868.7337 2.3694.1095z" fill="#3f3d56"/><path d="m61.4504 77.7612c.6827-.6241.7286-1.6851.1026-2.3697-.626-.6847-1.6869-.7337-2.3695-.1095-.6826.6241-.7285 1.6851-.1025 2.3697.626.6847 1.6868.7337 2.3694.1095z" fill="#3f3d56"/><g stroke="#e5a05c" stroke-linecap="round" stroke-miterlimit="10" stroke-width="1.39734"><path d="m33.7981 79.9453s4.1292-.0817 13.4838.9539"/><path d="m32.7842 89.4941s8.4024-5.7426 18.7331-5.2263"/><path d="m111.22 73.0781s9.91-2.3448 19.361 1.8483"/><path d="m108.933 69.2305s8.402-5.7427 18.733-5.2264"/></g><path d="m49.2277 160.536c20.8029-8.537 30.691-32.428 22.0397-53.323-8.6512-20.8943-32.5048-30.9107-53.3077-22.3739-20.80291 8.5368-30.691 32.4279-22.03973 53.3229 8.65127 20.894 32.52333 30.931 53.30773 22.374z" fill="#ff8400"/><g filter="url(#a)"><path d="m46.3872 158.835c20.803-8.537 30.6911-32.429 22.0398-53.323-8.6513-20.8945-32.5048-30.9108-53.3077-22.374-20.80296 8.5367-30.6911 32.428-22.03979 53.323 8.65128 20.894 32.52339 30.931 53.30769 22.374z" fill="#ff8400"/></g><path d="m44.4594 120.084c-.7264-.754-1.6807-1.187-2.7075-1.293-.6384-.088-1.319-.1-1.9658.006.3073-.355.5774-.751.7715-1.19.2803-.629.4271-1.323.3796-2.026-.066-.723-.2705-1.395-.5544-2.03-.4393-1.091-1.1961-2.041-2.1403-2.707-.9864-.591-2.1028-.876-3.2529-.832-1.1095.007-2.2089.229-3.2576.628l-1.8147-4.385-1.9315 2.811 1.1102 2.678-2.1007.877-1.1626-2.818-3.3659-.467 1.8147 4.385-5.7651 2.361 3.2177 2.543c.3783-.197.8106-.293 1.221-.333.2331.011.4239.098.5928.242.2771.343.4747.722.6116 1.157l4.9154 11.885c.1976.379.3345.814.3549 1.243-.0287.213.022.39-.1603.557-.1638.187-.1824.167-.738.414l-.9617 4.237 5.7263-2.363 1.8148 4.385 2.7137-1.1-1.8147-4.386 2.1193-.855 1.8147 4.385 2.6546-1.084-1.813-4.424c1.3289-.581 2.5498-1.362 3.6423-2.323.9928-.908 1.7053-2.082 2.0529-3.37.2328-1.332.0771-2.682-.4129-3.951-.3634-1.048-.9057-2.007-1.6084-2.857zm-15.9687-3.794-.0355-.079 1.8423-.752c1.0301-.419 4.3382-2.213 5.6324.708 1.2757 2.901-3.3749 4.69-3.3749 4.69l-1.8424.752-.0879-.218zm3.452 8.373 2.1193-.855c.4357-.175 1.9386-.728 2.4723-.918.2178-.087.4728-.134.6873-.143.0777.003.1756-.012.2533-.008.3902-.021.7583.016 1.1046.109.2313.05.461.139.6502.264.3024.209.5828.475.8226.778.1656.221.2923.441.3987.68.2129.477.3076.987.2284 1.47-.108.696-.427 1.323-.915 1.807-.9152.911-1.9959 1.601-3.1847 2.091l-2.1193.856z" fill="#fff"/><path d="m34.1944 127.942c-4.246 6.83-2.7888 13.184 11.2048 13.15 6.4615-.013 35.2732.657 52.1032-3.315 17.9516-4.25 23.2186-21.193 17.6136-27.038-15.4188-16.0491-73.9356 5.965-80.9216 17.203z" fill="url(#b)"/><path d="m65.6281 256.47c-4.3772-6.781-11.1336-11.647-18.9297-13.623-14.0332-3.548-37.04529-11.424-47.88915-26.62-16.93395-23.768-15.39055-56.745-33.13785-53.614-26.8869 4.771-7.6079 65.2 38.97658 87.341 30.81592 14.62 60.98012 6.516 60.98012 6.516z" fill="#f9b466"/><g stroke="#e5a05c"><path d="m32.7687 134.844s-6.553-17.216 52.9052-27.704c4.0396-.708 18.9331-2.2 34.6511-11.4974" stroke-linecap="round" stroke-miterlimit="10" stroke-width="1.43434"/><path d="m34.8789 137.355s2.5883-3.15 8.4823-3.092" stroke-linecap="round" stroke-miterlimit="10" stroke-width="1.43434"/><path d="m33.1972 134.376s2.1442-2.781 7.0788-3.935" stroke-linecap="round" stroke-miterlimit="10" stroke-width="1.43434"/></g><g mask="url(#d)"><path d="m154.644 164.425c5.265-16.653-1.175-33.553-14.384-37.748-13.21-4.194-28.187 5.905-33.452 22.559-5.266 16.653 1.174 33.553 14.384 37.747 13.209 4.195 28.186-5.905 33.452-22.558z" fill="#e5a05c" opacity=".49"/></g><path d="m101.048 46.8162s4.872-9.9541 9.282-13.8376" stroke="#e5a05c" stroke-linecap="round" stroke-miterlimit="10" stroke-width="1.39734"/><path d="m39.9866 151.488c13.466-3.582 26.2779-9.588 40.0533-11.774 21.3971-3.371 44.7081 4.791 57.9161 22.003 13.209 17.213 14.758 43.034 2.165 60.631-11.125 15.582-30.271 22.716-47.666 30.748-20.0749 9.252-39.1343 20.672-56.7393 34.008-12.8364 9.723-25.7399 21.894-27.94887 37.869-.48562 3.578-.39363 7.3.84162 10.685 3.18535 8.691 25.10095 23.017 61.42525-12.771" stroke="#ff8400" stroke-linecap="round" stroke-miterlimit="10" stroke-width="2.86868"/><path d="m61.45 48.9539s-8.7176-7.215-12.734-8.8408c-4.1886-1.6922-2.6371 3.8291-2.6371 3.8291" stroke="#e5a05c" stroke-linecap="round" stroke-miterlimit="10" stroke-width="1.39734"/><path d="m95.808 198.539c-20.6931-23.242-46.865-7.557-51.9967-4.096-.3613.256-.8359-.019-.7972-.465.5695-6.416 2.8188-39.069-7.9174-48.207-6.7954-5.763-41.6673 53.584-20.4367 86.446 15.0305 23.233 30.3871 31.28 59.5783 22.274 32.5047-10.02 38.8657-36.507 21.5697-55.952z" fill="#f9b466"/><path d="m30.0615 148.09s2.2063 3.43.3684 9.028" stroke="#e5a05c" stroke-linecap="round" stroke-miterlimit="10" stroke-width="1.43434"/><path d="m12.996 200.9c-1.8751-29.253 13.767-54.49 21.2181-54.885 7.9982-.448 10.3389 37.117 8.8093 47.284-.1097.734.745 1.222 1.385.823 6.2985-3.894 31.0911-17.384 47.863-1.117 20.7316 20.11 11.5816 38.625 11.5816 38.625" stroke="#e5a05c" stroke-linecap="round" stroke-miterlimit="10" stroke-width="1.43434"/></g></svg>