<svg fill="none" height="307" width="345" xmlns="http://www.w3.org/2000/svg" xmlns:xlink="http://www.w3.org/1999/xlink"><defs><path id="a" d="m150.288 128.438-3.068-3.068.877-.877 3.944 3.945-3.944 3.944-.877-.876z"/><path id="b" d="m264.813 124.187-.645-.645-4.244 4.245v.644h.644zm.644-.645.644-.644-.644-.644-.644.644zm-4.511 5.801h-1.933v-1.934l6.122-6.122c.085-.086.201-.134.322-.134s.237.048.322.134l1.289 1.289c.086.085.134.201.134.322s-.048.237-.134.322z"/><path id="c" d="m299.57 122.507h2.278v.912h-.911v5.924c0 .121-.048.237-.134.322s-.201.133-.322.133h-6.38c-.121 0-.237-.048-.322-.133s-.133-.201-.133-.322v-5.924h-.912v-.912h2.279v-1.367c0-.121.048-.236.133-.322s.201-.133.322-.133h3.646c.121 0 .237.048.322.133s.134.201.134.322zm.455.912h-5.468v5.468h5.468zm-4.101 1.367h.911v2.734h-.911zm1.823 0h.911v2.734h-.911zm-1.823-3.19v.911h2.734v-.911z"/></defs><g fill="#6a7482"><path d="m.684 271.805h2.368c1.045 0 1.86.311 2.446.932s.879 1.481.879 2.588-.293 1.976-.879 2.598-1.398.928-2.446.928h-2.368zm.879.791v5.464h1.431c.798 0 1.411-.235 1.841-.704s.645-1.145.645-2.021c0-.882-.215-1.559-.645-2.031s-1.04-.708-1.841-.708zm5.82 6.255v-5.079h.85v5.079zm.425-5.933c-.143 0-.267-.052-.371-.156s-.156-.228-.156-.371a.5.5 0 0 1 .156-.371c.104-.1.228-.157.371-.157a.51.51 0 0 1 .376.157c.104.1.156.224.156.371a.5.5 0 0 1 -.156.371.51.51 0 0 1 -.376.156zm1.484 2.256a1.3 1.3 0 0 1 .527-1.07c.355-.279.811-.419 1.367-.419.524 0 .96.14 1.309.419s.532.635.552 1.065h-.811c-.029-.247-.14-.441-.332-.581s-.438-.21-.747-.21-.558.07-.747.21a.64.64 0 0 0 -.283.542c0 .345.281.589.845.732l.786.191c.511.13.871.299 1.079.508s.317.494.317.869c0 .442-.189.805-.566 1.089s-.863.419-1.455.419c-.553 0-1.011-.136-1.372-.41a1.5 1.5 0 0 1 -.605-1.093h.85c.094.54.488.81 1.182.81.342 0 .612-.067.811-.2s.303-.321.303-.552a.55.55 0 0 0 -.181-.434c-.117-.108-.317-.199-.601-.274l-.894-.229c-.889-.228-1.333-.689-1.333-1.382zm6.421 3.042c.4 0 .736-.124 1.006-.371a1.21 1.21 0 0 0 .41-.923v-.415l-1.357.083c-.342.023-.607.106-.796.249a.69.69 0 0 0 -.278.576.7.7 0 0 0 .278.581c.185.147.431.22.737.22zm-.19.722c-.505 0-.913-.139-1.226-.419s-.464-.648-.464-1.104a1.28 1.28 0 0 1 .479-1.045c.322-.26.776-.407 1.362-.439l1.455-.083v-.425c0-.309-.098-.552-.293-.728s-.469-.263-.82-.263c-.322 0-.584.071-.786.214a.93.93 0 0 0 -.386.591h-.82c.029-.452.225-.823.586-1.113s.84-.439 1.426-.439c.596 0 1.068.149 1.416.449s.527.701.527 1.206v3.511h-.806v-.874h-.02c-.153.289-.378.522-.674.698a1.84 1.84 0 0 1 -.957.263zm6.06 0a1.91 1.91 0 0 1 -.977-.249c-.283-.166-.508-.398-.674-.698h-.02v.86h-.81v-7.046h.85v2.817h.02a1.75 1.75 0 0 1 .664-.688c.283-.166.607-.249.962-.249.641 0 1.159.239 1.553.717s.591 1.115.591 1.91-.197 1.435-.591 1.914-.916.712-1.567.712zm-.166-4.506c-.433 0-.786.174-1.06.522s-.41.798-.41 1.358.137 1.017.41 1.362a1.29 1.29 0 0 0 1.06.517c.449 0 .804-.167 1.064-.503s.391-.797.391-1.376-.13-1.034-.391-1.373a1.27 1.27 0 0 0 -1.064-.507zm3.232 4.419v-7.046h.85v7.046zm4.033-4.429a1.3 1.3 0 0 0 -.981.41c-.257.27-.399.619-.425 1.045h2.759c-.01-.43-.138-.78-.386-1.05s-.57-.405-.967-.405zm1.333 2.974h.835c-.075.449-.309.818-.703 1.108s-.861.434-1.411.434c-.726 0-1.297-.234-1.714-.703s-.625-1.103-.625-1.904c0-.794.208-1.434.625-1.919s.978-.727 1.675-.727c.684 0 1.224.229 1.621.688s.596 1.074.596 1.846v.322h-3.643v.049c0 .488.134.879.4 1.172s.628.439 1.084.439c.319 0 .591-.073.815-.22a1.03 1.03 0 0 0 .444-.585zm3.682 1.542c-.651 0-1.177-.239-1.577-.717s-.596-1.115-.596-1.909.199-1.426.596-1.905a1.92 1.92 0 0 1 1.558-.722c.358 0 .679.081.962.244a1.67 1.67 0 0 1 .654.669h.02v-2.793h.85v7.046h-.811v-.86h-.015a1.85 1.85 0 0 1 -.674.698c-.283.166-.605.249-.967.249zm.161-4.506a1.28 1.28 0 0 0 -1.069.512c-.264.339-.395.795-.395 1.368s.132 1.033.395 1.372a1.28 1.28 0 0 0 1.069.507c.44 0 .793-.17 1.06-.512s.4-.801.4-1.367-.135-1.021-.405-1.363a1.28 1.28 0 0 0 -1.055-.517zm-28.897-39.737v.791h-4.277v-7.046h.879v6.255zm2.793.879c-.71 0-1.279-.236-1.709-.708s-.645-1.115-.645-1.919.215-1.442.645-1.914.999-.713 1.709-.713 1.274.238 1.704.713.644 1.11.644 1.914-.215 1.439-.644 1.914-.998.713-1.704.713zm-1.089-1.245a1.33 1.33 0 0 0 1.089.498c.456 0 .817-.164 1.084-.493s.4-.794.4-1.387-.133-1.053-.4-1.382-.628-.498-1.084-.498a1.33 1.33 0 0 0 -1.089.498c-.267.332-.4.793-.4 1.382s.133 1.05.4 1.382zm5.972.523c.4 0 .736-.124 1.006-.372a1.2 1.2 0 0 0 .41-.922v-.415l-1.357.083c-.342.022-.607.105-.796.249a.69.69 0 0 0 -.278.576c0 .241.093.434.278.581s.431.22.737.22zm-.19.722c-.505 0-.913-.14-1.226-.42s-.464-.647-.464-1.103c0-.436.159-.785.479-1.045s.776-.407 1.362-.44l1.455-.083v-.424c0-.31-.098-.552-.293-.728s-.469-.264-.82-.264c-.322 0-.584.072-.786.215a.93.93 0 0 0 -.386.591h-.82c.029-.452.225-.824.586-1.113s.84-.44 1.426-.44c.596 0 1.068.15 1.416.45s.527.701.527 1.206v3.51h-.806v-.874h-.02a1.76 1.76 0 0 1 -.674.699 1.85 1.85 0 0 1 -.957.263zm5.459 0c-.651 0-1.177-.239-1.577-.718s-.596-1.114-.596-1.909.199-1.426.596-1.904a1.92 1.92 0 0 1 1.558-.723c.358 0 .679.082.962.244a1.68 1.68 0 0 1 .654.669h.02v-2.793h.85v7.046h-.811v-.859h-.015a1.85 1.85 0 0 1 -.674.698c-.283.166-.605.249-.967.249zm.161-4.507c-.449 0-.806.171-1.069.513s-.395.794-.395 1.367.132 1.034.395 1.372.62.508 1.069.508a1.28 1.28 0 0 0 1.06-.513c.267-.342.4-.8.4-1.367s-.135-1.02-.405-1.362a1.27 1.27 0 0 0 -1.055-.518zm3.496 4.419v-5.078h.85v5.078zm.425-5.932c-.143 0-.267-.052-.371-.157s-.156-.227-.156-.371a.5.5 0 0 1 .156-.371.52.52 0 0 1 .371-.156.52.52 0 0 1 .376.156.5.5 0 0 1 .156.371.5.5 0 0 1 -.156.371.51.51 0 0 1 -.376.157zm1.572 5.932v-5.078h.801v.811h.02a1.57 1.57 0 0 1 .63-.659c.274-.156.601-.24.981-.24.553 0 .985.168 1.294.503s.464.788.464 1.367v3.296h-.85v-3.144c0-.414-.098-.728-.293-.943s-.487-.327-.874-.327c-.4 0-.721.13-.962.391s-.361.605-.361 1.035v2.988zm7.339-.708a1.3 1.3 0 0 0 1.069-.507c.27-.339.405-.787.405-1.343s-.135-1.009-.405-1.348-.627-.513-1.069-.513a1.27 1.27 0 0 0 -1.055.508c-.261.335-.391.786-.391 1.353s.13 1.017.391 1.352.615.498 1.055.498zm.029 2.622c-.557 0-1.035-.141-1.436-.424s-.636-.637-.708-1.07h.874c.085.235.244.422.479.562s.509.21.825.21c.436 0 .78-.116 1.03-.347s.381-.537.381-.918v-.801h-.02c-.159.28-.382.503-.669.669a1.9 1.9 0 0 1 -.957.244c-.648 0-1.167-.236-1.558-.708s-.586-1.102-.586-1.889c0-.795.195-1.428.586-1.9s.92-.708 1.577-.708c.358 0 .68.083.967.249a1.84 1.84 0 0 1 .684.694h.015v-.855h.811v4.976c0 .609-.208 1.097-.625 1.465s-.973.551-1.67.551zm-29.365-54.33h-.879v-7.046h4.277v.791h-3.398v2.422h3.12v.782h-3.12zm6.182.088c-.71 0-1.279-.236-1.709-.708s-.645-1.115-.645-1.919.215-1.442.645-1.914.999-.713 1.709-.713 1.274.238 1.704.713.645 1.11.645 1.914-.215 1.439-.645 1.914-.998.713-1.704.713zm-1.089-1.245a1.33 1.33 0 0 0 1.089.498c.456 0 .817-.164 1.084-.493s.4-.794.4-1.387-.133-1.053-.4-1.382-.628-.498-1.084-.498a1.33 1.33 0 0 0 -1.089.498c-.267.332-.4.793-.4 1.382s.133 1.05.4 1.382zm8.516-2.256h-.83c-.065-.293-.21-.534-.435-.722s-.509-.284-.864-.284c-.443 0-.799.171-1.069.513s-.405.794-.405 1.367c0 .583.135 1.042.405 1.377a1.32 1.32 0 0 0 1.079.503c.342 0 .623-.085.845-.254s.374-.413.449-.722h.835a1.86 1.86 0 0 1 -.688 1.245c-.391.319-.872.478-1.445.478-.71 0-1.278-.234-1.704-.703s-.64-1.113-.64-1.924c0-.797.213-1.434.64-1.909s.991-.718 1.694-.718c.605 0 1.097.171 1.475.513s.601.755.659 1.24zm4.961-1.665v5.078h-.806v-.825h-.02c-.316.609-.853.913-1.611.913-.55 0-.981-.166-1.294-.498s-.464-.792-.464-1.372v-3.296h.85v3.145c0 .846.391 1.269 1.172 1.269.41 0 .732-.128.967-.385s.356-.609.356-1.045v-2.984zm1.016 1.402a1.3 1.3 0 0 1 .527-1.07c.355-.28.811-.42 1.367-.42.524 0 .96.14 1.309.42s.532.635.552 1.065h-.811a.8.8 0 0 0 -.332-.581c-.192-.14-.438-.21-.747-.21s-.558.07-.747.21a.64.64 0 0 0 -.283.542c0 .345.282.589.845.732l.786.19c.511.131.871.3 1.079.508s.317.495.317.869c0 .443-.189.806-.566 1.089s-.863.42-1.455.42c-.553 0-1.011-.137-1.372-.41a1.52 1.52 0 0 1 -.605-1.094h.85c.094.541.488.811 1.182.811.342 0 .612-.067.81-.2a.64.64 0 0 0 .303-.552c0-.182-.06-.327-.181-.435s-.317-.198-.601-.273l-.893-.23c-.889-.227-1.333-.688-1.333-1.381zm-14.84-47.788h-.879v-3.208h-3.867v3.208h-.879v-7.045h.879v3.046h3.867v-3.046h.879zm3.34.088c-.71 0-1.279-.236-1.709-.708s-.645-1.115-.645-1.919.215-1.442.645-1.914.999-.713 1.709-.713 1.274.238 1.704.713.645 1.11.645 1.914-.215 1.439-.645 1.914-.998.713-1.704.713zm-1.089-1.245a1.33 1.33 0 0 0 1.089.498c.456 0 .817-.164 1.084-.493s.4-.794.4-1.387-.133-1.053-.4-1.381-.628-.498-1.084-.498a1.33 1.33 0 0 0 -1.089.498c-.267.332-.4.792-.4 1.381s.133 1.05.4 1.382zm8.315-3.921-1.865 5.078h-.869l-1.87-5.078h.894l1.401 4.175h.02l1.406-4.175h.884zm2.559.65c-.394 0-.721.136-.981.41s-.399.618-.425 1.045h2.759c-.01-.43-.138-.78-.386-1.05s-.57-.405-.967-.405zm1.333 2.973h.835c-.075.45-.309.819-.703 1.109s-.861.434-1.411.434c-.726 0-1.297-.234-1.714-.703s-.625-1.103-.625-1.904c0-.794.208-1.434.625-1.919s.978-.728 1.675-.728c.684 0 1.224.23 1.621.689s.596 1.074.596 1.846v.322h-3.642v.049c0 .488.133.879.4 1.172s.628.439 1.084.439c.319 0 .591-.073.816-.22s.373-.341.444-.586zm1.758 1.455v-5.078h.801v.83h.02a1.26 1.26 0 0 1 .454-.669 1.27 1.27 0 0 1 .776-.249c.068 0 .182.012.342.035v.825c-.091-.033-.243-.049-.454-.049-.329 0-.593.109-.791.327s-.298.506-.298.864v3.164z"/><path d="m1.563 78.236h-.879v-7.046h.879zm1.235 0v-5.078h.801v.811h.02a1.57 1.57 0 0 1 .63-.659c.274-.156.601-.239.981-.239.553 0 .985.168 1.294.503s.464.788.464 1.367v3.296h-.85v-3.144c0-.413-.098-.728-.293-.942s-.487-.327-.874-.327c-.4 0-.721.13-.962.391s-.361.605-.361 1.035v2.988h-.85zm5.317 0v-5.078h.85v5.078zm.425-5.933c-.143 0-.267-.052-.371-.156s-.156-.228-.156-.371a.5.5 0 0 1 .156-.371.52.52 0 0 1 .371-.156.51.51 0 0 1 .376.156c.104.101.156.225.156.371a.5.5 0 0 1 -.156.371.51.51 0 0 1 -.376.156zm1.846-.371h.85v1.226h.986v.698h-.986v3.018c0 .231.05.402.151.513s.26.161.479.161a2.17 2.17 0 0 0 .352-.025v.713c-.111.026-.29.039-.537.039-.466 0-.798-.104-.996-.312s-.298-.557-.298-1.045v-3.062h-.757v-.698h.757v-1.226zm2.788 6.304v-5.078h.85v5.078zm.425-5.933c-.143 0-.267-.052-.371-.156s-.156-.228-.156-.371a.5.5 0 0 1 .156-.371.52.52 0 0 1 .371-.156.51.51 0 0 1 .376.156c.104.101.156.225.156.371a.5.5 0 0 1 -.156.371.51.51 0 0 1 -.376.156zm3.247 5.298c.4 0 .736-.124 1.006-.371a1.21 1.21 0 0 0 .41-.923v-.415l-1.357.083c-.342.023-.607.106-.796.249a.69.69 0 0 0 -.278.576c0 .241.093.435.278.581s.431.22.737.22zm-.19.723c-.505 0-.913-.14-1.226-.42s-.464-.648-.464-1.104c0-.436.159-.784.479-1.045s.776-.407 1.362-.439l1.455-.083v-.425c0-.309-.098-.552-.293-.727s-.469-.264-.82-.264c-.322 0-.584.072-.786.215a.93.93 0 0 0 -.386.591h-.82c.029-.452.225-.824.586-1.113s.84-.439 1.426-.439c.596 0 1.068.15 1.416.449s.527.702.527 1.206v3.511h-.806v-.874h-.02c-.153.29-.378.522-.674.698a1.84 1.84 0 0 1 -.957.264zm3.579-.088v-7.046h.85v7.046zm199.097-66.236h-.879v-7.046h.879zm5.454-3.413h-.83a1.28 1.28 0 0 0 -.435-.723c-.221-.189-.509-.283-.864-.283-.443 0-.799.171-1.069.513s-.405.794-.405 1.367c0 .583.135 1.042.405 1.377a1.32 1.32 0 0 0 1.079.503c.342 0 .623-.085.845-.254a1.25 1.25 0 0 0 .449-.723h.835c-.065.508-.295.923-.689 1.245s-.872.478-1.445.478c-.71 0-1.278-.234-1.704-.703s-.64-1.113-.64-1.924c0-.798.214-1.434.64-1.909s.991-.718 1.694-.718c.606 0 1.097.171 1.475.513s.6.755.659 1.24zm2.896 3.501c-.71 0-1.28-.236-1.709-.708s-.645-1.115-.645-1.919.215-1.442.645-1.914.999-.713 1.709-.713 1.274.238 1.704.713.644 1.11.644 1.914-.215 1.439-.644 1.914-.998.713-1.704.713zm-1.089-1.245c.27.332.633.498 1.089.498s.817-.164 1.084-.493.4-.794.4-1.387-.134-1.053-.4-1.382-.629-.498-1.084-.498-.819.166-1.089.498-.401.793-.401 1.382.134 1.05.401 1.382zm4.297 1.157v-5.078h.8v.811h.02a1.57 1.57 0 0 1 .63-.659c.273-.16.6-.239.981-.239.554 0 .985.168 1.294.503s.464.788.464 1.367v3.295h-.85v-3.145c0-.413-.097-.728-.293-.942s-.486-.327-.874-.327c-.4 0-.721.13-.961.391s-.362.605-.362 1.035v2.988zm-145.584 0h-.879v-6.255h-2.222v-.791h5.322v.791h-2.222v6.255zm3.735-4.429c-.394 0-.721.137-.981.41s-.399.618-.425 1.045h2.759c-.01-.43-.138-.78-.386-1.05s-.57-.405-.967-.405zm1.333 2.974h.835c-.075.449-.309.819-.703 1.108s-.861.435-1.411.435c-.726 0-1.297-.234-1.714-.703s-.625-1.104-.625-1.904c0-.794.208-1.434.625-1.919s.978-.728 1.675-.728c.684 0 1.224.229 1.621.688s.596 1.074.596 1.846v.322h-3.643v.049c0 .488.133.879.4 1.172s.628.44 1.084.44c.319 0 .591-.073.816-.22a1.03 1.03 0 0 0 .444-.586zm3.457-.479h-.02l-1.225 1.934h-.942l1.728-2.539-1.699-2.539h.947l1.221 1.904h.019l1.206-1.904h.947l-1.713 2.505 1.69 2.573h-.942l-1.216-1.934zm3.174-4.37h.85v1.226h.986v.698h-.986v3.018c0 .231.05.402.151.513s.26.161.478.161a2.22 2.22 0 0 0 .352-.024v.712c-.111.026-.29.039-.537.039-.466 0-.797-.104-.996-.312s-.298-.557-.298-1.045v-3.062h-.757v-.698h.757z"/></g><rect height="271.093" rx="13.777" stroke="#7b61ff" stroke-dasharray="4.76 4.76" width="289.677" x="54.823" y="34.81"/><g fill="#3139ce"><path d="m88.478 68.943h-.049l-.546 1.121-1.517 2.767-1.517-2.767-.545-1.121h-.05v5.296h-1.071v-6.922h1.329l1.855 3.521h.06l1.855-3.521h1.269v6.922h-1.071v-5.296zm4.725 5.415c-.357 0-.684-.063-.982-.189a2.09 2.09 0 0 1 -.744-.535c-.205-.238-.364-.522-.476-.853a3.53 3.53 0 0 1 -.168-1.121 3.44 3.44 0 0 1 .168-1.111c.112-.337.271-.621.476-.853a2.03 2.03 0 0 1 .744-.545c.297-.126.625-.189.982-.189s.681.063.972.189a2.01 2.01 0 0 1 .754.545c.205.231.364.516.476.853a3.45 3.45 0 0 1 .169 1.111c0 .41-.056.783-.169 1.121-.112.331-.271.615-.476.853-.205.231-.456.41-.754.535-.291.126-.615.189-.972.189zm0-.893c.37 0 .668-.112.893-.337.225-.231.337-.575.337-1.031v-.873c0-.456-.112-.797-.337-1.022-.225-.231-.522-.347-.893-.347s-.668.116-.893.347c-.225.225-.337.565-.337 1.022v.873c0 .456.112.8.337 1.031.225.225.522.337.893.337zm3.575.774v-5.157h1.081v.992h.05c.073-.264.225-.496.456-.694s.552-.298.962-.298h.288v1.041h-.426c-.43 0-.76.069-.992.208-.225.139-.337.344-.337.615v3.293h-1.081zm5.771.119a2.48 2.48 0 0 1 -.992-.189 2.09 2.09 0 0 1 -.743-.535 2.54 2.54 0 0 1 -.476-.853c-.106-.337-.159-.711-.159-1.121a3.63 3.63 0 0 1 .159-1.111c.112-.337.271-.621.476-.853a2.03 2.03 0 0 1 .743-.545 2.48 2.48 0 0 1 .992-.189c.377 0 .708.066.992.198a1.95 1.95 0 0 1 .724.555c.192.231.334.502.426.813a3.28 3.28 0 0 1 .149 1.002v.407h-3.54v.169c0 .397.115.724.347.982.238.251.575.377 1.011.377.318 0 .585-.069.804-.208s.403-.327.555-.565l.635.625c-.192.317-.47.572-.833.764-.364.185-.787.278-1.27.278zm0-4.552a1.33 1.33 0 0 0 -.516.099 1.19 1.19 0 0 0 -.396.278 1.28 1.28 0 0 0 -.248.426 1.59 1.59 0 0 0 -.089.546v.069h2.4v-.099c0-.397-.103-.714-.308-.952-.205-.245-.486-.367-.843-.367zm9.074 3.58h-.049a1.43 1.43 0 0 1 -.556.714c-.251.172-.548.258-.892.258-.655 0-1.16-.235-1.517-.704-.357-.476-.536-1.141-.536-1.993s.179-1.514.536-1.983c.357-.476.862-.714 1.517-.714.344 0 .641.086.892.258.258.165.443.403.556.714h.049v-3.036h1.081v7.339h-1.081zm-1.17.04c.331 0 .608-.079.833-.238.225-.165.337-.38.337-.645v-1.765a.74.74 0 0 0 -.337-.635c-.225-.165-.502-.248-.833-.248-.377 0-.677.122-.902.367-.225.238-.337.555-.337.952v.892c0 .397.112.717.337.962.225.238.525.357.902.357zm5.82.932c-.371 0-.701-.063-.992-.189a2.09 2.09 0 0 1 -.744-.535c-.205-.238-.363-.522-.476-.853-.106-.337-.159-.711-.159-1.121a3.63 3.63 0 0 1 .159-1.111 2.44 2.44 0 0 1 .476-.853 2.03 2.03 0 0 1 .744-.545c.291-.126.621-.189.992-.189.377 0 .707.066.991.198a1.94 1.94 0 0 1 .724.555 2.28 2.28 0 0 1 .427.813 3.28 3.28 0 0 1 .149 1.002v.407h-3.541v.169c0 .397.116.724.347.982.238.251.575.377 1.012.377.317 0 .585-.069.803-.208s.403-.327.555-.565l.635.625a2.08 2.08 0 0 1 -.833.764c-.364.185-.787.278-1.269.278zm0-4.552a1.33 1.33 0 0 0 -.516.099c-.152.066-.284.159-.397.278a1.3 1.3 0 0 0 -.248.426c-.06.165-.089.347-.089.546v.069h2.4v-.099c0-.397-.102-.714-.307-.952-.205-.245-.486-.367-.843-.367zm4.915 4.433c-.377 0-.661-.096-.853-.288-.191-.198-.287-.476-.287-.833v-3.154h-.803v-.883h.436c.178 0 .301-.04.367-.119.073-.079.109-.208.109-.387v-.902h.972v1.408h1.081v.883h-1.081v3.392h1.002v.883zm5.973 0c-.284 0-.503-.079-.655-.238a1.11 1.11 0 0 1 -.277-.625h-.05c-.099.324-.281.569-.545.734s-.585.248-.962.248c-.536 0-.949-.139-1.24-.417-.284-.278-.426-.651-.426-1.121 0-.516.185-.903.555-1.16.377-.258.926-.387 1.646-.387h.932v-.436c0-.317-.086-.562-.257-.734s-.44-.258-.804-.258c-.304 0-.552.066-.744.198s-.353.301-.485.506l-.645-.585c.172-.291.413-.529.724-.714.311-.192.717-.288 1.22-.288.667 0 1.18.155 1.537.466s.535.757.535 1.339v2.588h.546v.883h-.605zm-2.182-.704c.337 0 .615-.073.833-.218.218-.152.327-.354.327-.605v-.744h-.912c-.747 0-1.121.231-1.121.694v.178c0 .231.076.407.228.526.159.112.374.169.645.169zm4.392-5.375c-.225 0-.39-.053-.496-.159a.57.57 0 0 1 -.149-.407v-.169a.57.57 0 0 1 .149-.407c.106-.106.271-.159.496-.159s.387.053.486.159a.57.57 0 0 1 .149.407v.169a.57.57 0 0 1 -.149.407c-.099.106-.261.159-.486.159zm-.546.922h1.081v5.157h-1.081zm3.726 5.157c-.37 0-.648-.093-.833-.278-.179-.192-.268-.456-.268-.793v-6.268h1.081v6.456h.714v.883zm3.363.119c-.489 0-.899-.086-1.229-.258a2.7 2.7 0 0 1 -.863-.714l.694-.635c.192.231.403.413.635.545.238.126.512.188.823.188.317 0 .552-.059.704-.178a.62.62 0 0 0 .238-.516c0-.165-.056-.304-.169-.417-.105-.119-.294-.195-.565-.228l-.476-.059c-.529-.066-.945-.218-1.25-.456-.297-.245-.446-.605-.446-1.081 0-.251.046-.473.139-.665a1.37 1.37 0 0 1 .387-.496 1.8 1.8 0 0 1 .605-.317 2.67 2.67 0 0 1 .783-.109c.463 0 .84.073 1.131.218.297.145.562.347.793.605l-.664.635a1.67 1.67 0 0 0 -.526-.407 1.47 1.47 0 0 0 -.734-.178c-.297 0-.519.059-.664.178-.139.119-.208.274-.208.466 0 .198.062.347.188.446s.327.172.605.218l.476.059c.569.086.982.255 1.24.506.264.245.396.575.396.992 0 .251-.049.479-.148.684-.093.198-.229.37-.407.516a1.9 1.9 0 0 1 -.645.337 2.79 2.79 0 0 1 -.843.119zm14.374-3.92-3.068-3.068.877-.876 3.944 3.945-3.944 3.945-.877-.876 3.068-3.068zm-61.81 56.505h-.049l-.546 1.121-1.517 2.767-1.517-2.767-.545-1.121h-.05v5.296h-1.071v-6.922h1.329l1.855 3.521h.06l1.855-3.521h1.269v6.922h-1.071v-5.296zm4.725 5.415a2.51 2.51 0 0 1 -.982-.188 2.08 2.08 0 0 1 -.744-.536c-.205-.238-.364-.522-.476-.853-.112-.337-.168-.71-.168-1.12s.056-.78.168-1.111a2.43 2.43 0 0 1 .476-.853c.205-.238.453-.42.744-.545.297-.126.625-.189.982-.189a2.42 2.42 0 0 1 .972.189 2.01 2.01 0 0 1 .754.545 2.43 2.43 0 0 1 .476.853 3.44 3.44 0 0 1 .169 1.111c0 .41-.056.783-.169 1.12-.112.331-.271.615-.476.853a2.06 2.06 0 0 1 -.754.536c-.291.125-.615.188-.972.188zm0-.892c.37 0 .668-.113.893-.337.225-.232.337-.576.337-1.032v-.873c0-.456-.112-.796-.337-1.021-.225-.232-.522-.347-.893-.347s-.668.115-.893.347c-.225.225-.337.565-.337 1.021v.873c0 .456.112.8.337 1.032.225.224.522.337.893.337zm3.575.773v-5.157h1.081v.992h.05c.073-.264.225-.496.456-.694s.552-.298.962-.298h.288v1.042h-.426c-.43 0-.76.069-.992.208-.225.139-.337.344-.337.615v3.292h-1.081zm5.771.119c-.37 0-.701-.063-.992-.188s-.538-.304-.743-.536c-.205-.238-.364-.522-.476-.853a3.72 3.72 0 0 1 -.159-1.12 3.63 3.63 0 0 1 .159-1.111c.112-.337.271-.621.476-.853a2.03 2.03 0 0 1 .743-.545c.291-.126.622-.189.992-.189.377 0 .708.066.992.199a1.95 1.95 0 0 1 .724.555c.192.231.334.502.426.813.099.311.149.645.149 1.002v.406h-3.54v.169c0 .397.115.724.347.982.238.251.575.377 1.011.377.318 0 .585-.07.804-.209s.403-.327.555-.565l.635.625c-.192.317-.47.572-.833.764-.364.185-.787.277-1.27.277zm0-4.552c-.185 0-.357.033-.516.099a1.19 1.19 0 0 0 -.396.278c-.106.119-.189.261-.248.427s-.089.347-.089.545v.069h2.4v-.099c0-.396-.103-.714-.308-.952-.205-.244-.486-.367-.843-.367zm9.074 3.58h-.049c-.113.304-.298.543-.556.714-.251.172-.548.258-.892.258-.655 0-1.16-.234-1.517-.704-.357-.476-.536-1.14-.536-1.993s.179-1.514.536-1.984c.357-.476.862-.714 1.517-.714.344 0 .641.086.892.258.258.165.443.403.556.714h.049v-3.035h1.081v7.339h-1.081zm-1.17.04c.331 0 .608-.079.833-.238.225-.165.337-.38.337-.645v-1.765a.74.74 0 0 0 -.337-.635c-.225-.165-.502-.248-.833-.248-.377 0-.677.123-.902.367-.225.238-.337.556-.337.952v.893c0 .397.112.717.337.962.225.238.525.357.902.357zm5.82.932a2.49 2.49 0 0 1 -.992-.188 2.08 2.08 0 0 1 -.744-.536c-.205-.238-.363-.522-.476-.853a3.72 3.72 0 0 1 -.159-1.12 3.63 3.63 0 0 1 .159-1.111 2.44 2.44 0 0 1 .476-.853c.205-.238.453-.42.744-.545a2.49 2.49 0 0 1 .992-.189c.377 0 .707.066.991.199a1.94 1.94 0 0 1 .724.555c.192.231.334.502.427.813.099.311.149.645.149 1.002v.406h-3.541v.169c0 .397.116.724.347.982.238.251.575.377 1.012.377.317 0 .585-.07.803-.209s.403-.327.555-.565l.635.625a2.08 2.08 0 0 1 -.833.764c-.364.185-.787.277-1.269.277zm0-4.552c-.185 0-.357.033-.516.099-.152.066-.284.159-.397.278-.106.119-.188.261-.248.427a1.61 1.61 0 0 0 -.089.545v.069h2.4v-.099c0-.396-.102-.714-.307-.952-.205-.244-.486-.367-.843-.367zm4.915 4.433c-.377 0-.661-.096-.853-.287-.191-.199-.287-.476-.287-.833v-3.154h-.803v-.883h.436c.178 0 .301-.039.367-.119.073-.079.109-.208.109-.387v-.902h.972v1.408h1.081v.883h-1.081v3.392h1.002v.882zm5.973 0c-.284 0-.503-.079-.655-.238-.152-.165-.244-.373-.277-.625h-.05c-.099.324-.281.569-.545.734s-.585.248-.962.248c-.536 0-.949-.139-1.24-.416-.284-.278-.426-.652-.426-1.121 0-.516.185-.902.555-1.16.377-.258.926-.387 1.646-.387h.932v-.436c0-.318-.086-.562-.257-.734s-.44-.258-.804-.258c-.304 0-.552.066-.744.198s-.353.301-.485.506l-.645-.585c.172-.291.413-.529.724-.714.311-.192.717-.288 1.22-.288.667 0 1.18.156 1.537.466s.535.757.535 1.339v2.589h.546v.882zm-2.182-.704c.337 0 .615-.073.833-.218.218-.152.327-.354.327-.605v-.744h-.912c-.747 0-1.121.232-1.121.694v.179c0 .231.076.407.228.526.159.112.374.168.645.168zm4.392-5.375c-.225 0-.39-.053-.496-.159a.57.57 0 0 1 -.149-.406v-.169c0-.165.05-.301.149-.407.106-.105.271-.158.496-.158s.387.053.486.158.149.242.149.407v.169a.57.57 0 0 1 -.149.406c-.099.106-.261.159-.486.159zm-.546.922h1.081v5.157h-1.081zm3.726 5.157c-.37 0-.648-.092-.833-.277-.179-.192-.268-.457-.268-.794v-6.268h1.081v6.457h.714v.882zm3.363.119c-.489 0-.899-.086-1.229-.258a2.7 2.7 0 0 1 -.863-.714l.694-.634c.192.231.403.413.635.545.238.126.512.189.823.189.317 0 .552-.06.704-.179a.62.62 0 0 0 .238-.516c0-.165-.056-.304-.169-.416-.105-.119-.294-.195-.565-.228l-.476-.06c-.529-.066-.945-.218-1.25-.456-.297-.245-.446-.605-.446-1.081 0-.251.046-.473.139-.664.093-.199.222-.364.387-.496a1.82 1.82 0 0 1 .605-.318c.238-.072.499-.109.783-.109.463 0 .84.073 1.131.218a2.61 2.61 0 0 1 .793.605l-.664.635a1.67 1.67 0 0 0 -.526-.407 1.47 1.47 0 0 0 -.734-.178c-.297 0-.519.059-.664.178-.139.119-.208.275-.208.467 0 .198.062.347.188.446s.327.172.605.218l.476.06c.569.085.982.254 1.24.505.264.245.396.576.396.992 0 .251-.049.479-.148.684-.093.199-.229.371-.407.516a1.91 1.91 0 0 1 -.645.337 2.77 2.77 0 0 1 -.843.119zm-53.585 1.081h56.075v.764h-56.075z"/><use xlink:href="#a"/></g><g fill="#5860f0"><path d="m88.478 177.943h-.049l-.546 1.121-1.517 2.767-1.517-2.767-.545-1.121h-.05v5.296h-1.071v-6.922h1.329l1.855 3.521h.06l1.855-3.521h1.269v6.922h-1.071v-5.296zm4.725 5.415a2.51 2.51 0 0 1 -.982-.188 2.08 2.08 0 0 1 -.744-.536c-.205-.238-.364-.522-.476-.853-.112-.337-.168-.71-.168-1.12s.056-.78.168-1.111a2.43 2.43 0 0 1 .476-.853c.205-.238.453-.42.744-.545.297-.126.625-.189.982-.189a2.42 2.42 0 0 1 .972.189c.297.125.549.307.754.545a2.43 2.43 0 0 1 .476.853 3.44 3.44 0 0 1 .169 1.111c0 .41-.056.783-.169 1.12-.112.331-.271.615-.476.853a2.06 2.06 0 0 1 -.754.536c-.291.125-.615.188-.972.188zm0-.892c.37 0 .668-.113.893-.337.225-.232.337-.576.337-1.032v-.873c0-.456-.112-.796-.337-1.021-.225-.232-.522-.347-.893-.347s-.668.115-.893.347c-.225.225-.337.565-.337 1.021v.873c0 .456.112.8.337 1.032.225.224.522.337.893.337zm3.575.773v-5.157h1.081v.992h.05c.073-.264.225-.496.456-.694s.552-.298.962-.298h.288v1.042h-.426c-.43 0-.76.069-.992.208-.225.139-.337.344-.337.615v3.292h-1.081zm5.771.119c-.37 0-.701-.063-.992-.188s-.538-.304-.743-.536c-.205-.238-.364-.522-.476-.853a3.72 3.72 0 0 1 -.159-1.12 3.63 3.63 0 0 1 .159-1.111c.112-.337.271-.621.476-.853a2.03 2.03 0 0 1 .743-.545c.291-.126.622-.189.992-.189.377 0 .708.066.992.199a1.95 1.95 0 0 1 .724.555c.192.231.334.502.426.813.099.311.149.645.149 1.002v.406h-3.54v.169c0 .397.115.724.347.982.238.251.575.377 1.011.377.318 0 .585-.07.804-.209s.403-.327.555-.565l.635.625c-.192.317-.47.572-.833.764-.364.185-.787.277-1.27.277zm0-4.552c-.185 0-.357.033-.516.099a1.19 1.19 0 0 0 -.396.278c-.106.119-.189.261-.248.427s-.089.347-.089.545v.069h2.4v-.099c0-.396-.103-.714-.308-.952-.205-.244-.486-.367-.843-.367zm9.074 3.58h-.049c-.113.304-.298.543-.556.714-.251.172-.548.258-.892.258-.655 0-1.16-.234-1.517-.704-.357-.476-.536-1.14-.536-1.993s.179-1.514.536-1.984c.357-.476.862-.714 1.517-.714.344 0 .641.086.892.258.258.165.443.403.556.714h.049v-3.035h1.081v7.339h-1.081zm-1.17.04c.331 0 .608-.079.833-.238.225-.165.337-.38.337-.645v-1.765a.74.74 0 0 0 -.337-.635c-.225-.165-.502-.248-.833-.248-.377 0-.677.123-.902.367-.225.238-.337.556-.337.952v.893c0 .397.112.717.337.962.225.238.525.357.902.357zm5.82.932a2.49 2.49 0 0 1 -.992-.188 2.08 2.08 0 0 1 -.744-.536c-.205-.238-.363-.522-.476-.853a3.72 3.72 0 0 1 -.159-1.12 3.63 3.63 0 0 1 .159-1.111 2.44 2.44 0 0 1 .476-.853c.205-.238.453-.42.744-.545s.621-.189.992-.189c.377 0 .707.066.991.199a1.94 1.94 0 0 1 .724.555c.192.231.334.502.427.813.099.311.149.645.149 1.002v.406h-3.541v.169c0 .397.116.724.347.982.238.251.575.377 1.012.377.317 0 .585-.07.803-.209s.403-.327.555-.565l.635.625a2.08 2.08 0 0 1 -.833.764c-.364.185-.787.277-1.269.277zm0-4.552c-.185 0-.357.033-.516.099-.152.066-.284.159-.397.278-.106.119-.188.261-.248.427a1.61 1.61 0 0 0 -.089.545v.069h2.4v-.099c0-.396-.102-.714-.307-.952-.205-.244-.486-.367-.843-.367zm4.915 4.433c-.377 0-.661-.096-.853-.287-.191-.199-.287-.476-.287-.833v-3.154h-.803v-.883h.436c.178 0 .301-.039.367-.119.073-.079.109-.208.109-.387v-.902h.972v1.408h1.081v.883h-1.081v3.392h1.002v.882zm5.973 0c-.284 0-.503-.079-.655-.238-.152-.165-.244-.373-.277-.625h-.05c-.099.324-.281.569-.545.734s-.585.248-.962.248c-.536 0-.949-.139-1.24-.416-.284-.278-.426-.652-.426-1.121 0-.516.185-.902.555-1.16.377-.258.926-.387 1.646-.387h.932v-.436c0-.318-.086-.562-.257-.734s-.44-.258-.804-.258c-.304 0-.552.066-.744.198s-.353.301-.485.506l-.645-.585c.172-.291.413-.529.724-.714.311-.192.717-.288 1.22-.288.667 0 1.18.156 1.537.466s.535.757.535 1.339v2.589h.546v.882zm-2.182-.704c.337 0 .615-.073.833-.218.218-.152.327-.354.327-.605v-.744h-.912c-.747 0-1.121.232-1.121.694v.179c0 .231.076.407.228.526.159.112.374.168.645.168zm4.392-5.375c-.225 0-.39-.053-.496-.159a.57.57 0 0 1 -.149-.406v-.169c0-.165.05-.301.149-.407.106-.105.271-.158.496-.158s.387.053.486.158.149.242.149.407v.169a.57.57 0 0 1 -.149.406c-.099.106-.261.159-.486.159zm-.546.922h1.081v5.157h-1.081zm3.726 5.157c-.37 0-.648-.092-.833-.277-.179-.192-.268-.457-.268-.794v-6.268h1.081v6.457h.714v.882zm3.363.119c-.489 0-.899-.086-1.229-.258s-.619-.41-.863-.714l.694-.634c.192.231.403.413.635.545.238.126.512.189.823.189.317 0 .552-.06.704-.179a.62.62 0 0 0 .238-.516c0-.165-.056-.304-.169-.416-.105-.119-.294-.195-.565-.228l-.476-.06c-.529-.066-.945-.218-1.25-.456-.297-.245-.446-.605-.446-1.081 0-.251.046-.473.139-.664.093-.199.222-.364.387-.496a1.82 1.82 0 0 1 .605-.318c.238-.072.499-.109.783-.109.463 0 .84.073 1.131.218a2.61 2.61 0 0 1 .793.605l-.664.635a1.67 1.67 0 0 0 -.526-.407 1.47 1.47 0 0 0 -.734-.178c-.297 0-.519.059-.664.178-.139.119-.208.275-.208.467 0 .198.062.347.188.446s.327.172.605.218l.476.06c.569.085.982.254 1.24.505.264.245.396.576.396.992 0 .251-.049.479-.148.684-.093.199-.229.371-.407.516a1.91 1.91 0 0 1 -.645.337 2.77 2.77 0 0 1 -.843.119z"/><use xlink:href="#a" y="51"/></g><g fill="#3139ce"><path d="m83.438 235.358c-.245 0-.426-.063-.545-.188a.7.7 0 0 1 -.179-.486v-.149c0-.192.06-.35.179-.476.119-.132.301-.198.545-.198s.427.066.546.198c.119.126.178.284.178.476v.149a.7.7 0 0 1 -.178.486c-.119.125-.301.188-.546.188zm2.876 0c-.245 0-.426-.063-.545-.188a.7.7 0 0 1 -.178-.486v-.149c0-.192.059-.35.178-.476.119-.132.301-.198.545-.198s.426.066.545.198c.119.126.178.284.178.476v.149a.7.7 0 0 1 -.178.486c-.119.125-.301.188-.545.188zm2.876 0c-.245 0-.427-.063-.546-.188a.7.7 0 0 1 -.178-.486v-.149c0-.192.059-.35.178-.476.119-.132.301-.198.546-.198s.426.066.545.198c.119.126.178.284.178.476v.149a.7.7 0 0 1 -.178.486c-.119.125-.301.188-.545.188z"/><use xlink:href="#a" y="102.997"/></g><g fill="#c4c4c4"><path d="m88.478 273.943h-.049l-.546 1.121-1.517 2.767-1.517-2.767-.545-1.121h-.05v5.296h-1.071v-6.922h1.329l1.855 3.521h.06l1.855-3.521h1.269v6.922h-1.071v-5.296zm4.725 5.415a2.51 2.51 0 0 1 -.982-.188 2.08 2.08 0 0 1 -.744-.536c-.205-.238-.364-.522-.476-.853-.112-.337-.168-.71-.168-1.12s.056-.78.168-1.111a2.43 2.43 0 0 1 .476-.853c.205-.238.453-.42.744-.545.297-.126.625-.189.982-.189a2.42 2.42 0 0 1 .972.189c.297.125.549.307.754.545a2.43 2.43 0 0 1 .476.853 3.44 3.44 0 0 1 .169 1.111c0 .41-.056.783-.169 1.12-.112.331-.271.615-.476.853a2.06 2.06 0 0 1 -.754.536c-.291.125-.615.188-.972.188zm0-.892c.37 0 .668-.113.893-.337.225-.232.337-.576.337-1.032v-.873c0-.456-.112-.796-.337-1.021-.225-.232-.522-.347-.893-.347s-.668.115-.893.347c-.225.225-.337.565-.337 1.021v.873c0 .456.112.8.337 1.032.225.224.522.337.893.337zm3.575.773v-5.157h1.081v.992h.05c.073-.264.225-.496.456-.694s.552-.298.962-.298h.288v1.042h-.426c-.43 0-.76.069-.992.208-.225.139-.337.344-.337.615v3.292h-1.081zm5.771.119c-.37 0-.701-.063-.992-.188s-.538-.304-.743-.536c-.205-.238-.364-.522-.476-.853a3.72 3.72 0 0 1 -.159-1.12 3.63 3.63 0 0 1 .159-1.111c.112-.337.271-.621.476-.853a2.03 2.03 0 0 1 .743-.545c.291-.126.622-.189.992-.189.377 0 .708.066.992.199a1.95 1.95 0 0 1 .724.555c.192.231.334.502.426.813.099.311.149.645.149 1.002v.406h-3.54v.169c0 .397.115.724.347.982.238.251.575.377 1.011.377.318 0 .585-.07.804-.209s.403-.327.555-.565l.635.625c-.192.317-.47.572-.833.764-.364.185-.787.277-1.27.277zm0-4.552c-.185 0-.357.033-.516.099a1.19 1.19 0 0 0 -.396.278c-.106.119-.189.261-.248.427s-.089.347-.089.545v.069h2.4v-.099c0-.396-.103-.714-.308-.952-.205-.244-.486-.367-.843-.367zm9.074 3.58h-.049c-.113.304-.298.543-.556.714-.251.172-.548.258-.892.258-.655 0-1.16-.234-1.517-.704-.357-.476-.536-1.14-.536-1.993s.179-1.514.536-1.984c.357-.476.862-.714 1.517-.714.344 0 .641.086.892.258.258.165.443.403.556.714h.049v-3.035h1.081v7.339h-1.081zm-1.17.04c.331 0 .608-.079.833-.238.225-.165.337-.38.337-.645v-1.765a.74.74 0 0 0 -.337-.635c-.225-.165-.502-.248-.833-.248-.377 0-.677.123-.902.367-.225.238-.337.556-.337.952v.893c0 .397.112.717.337.962.225.238.525.357.902.357zm5.82.932a2.49 2.49 0 0 1 -.992-.188 2.08 2.08 0 0 1 -.744-.536c-.205-.238-.363-.522-.476-.853a3.72 3.72 0 0 1 -.159-1.12 3.63 3.63 0 0 1 .159-1.111 2.44 2.44 0 0 1 .476-.853c.205-.238.453-.42.744-.545s.621-.189.992-.189c.377 0 .707.066.991.199a1.94 1.94 0 0 1 .724.555c.192.231.334.502.427.813.099.311.149.645.149 1.002v.406h-3.541v.169c0 .397.116.724.347.982.238.251.575.377 1.012.377.317 0 .585-.07.803-.209s.403-.327.555-.565l.635.625a2.08 2.08 0 0 1 -.833.764c-.364.185-.787.277-1.269.277zm0-4.552c-.185 0-.357.033-.516.099-.152.066-.284.159-.397.278-.106.119-.188.261-.248.427a1.61 1.61 0 0 0 -.089.545v.069h2.4v-.099c0-.396-.102-.714-.307-.952-.205-.244-.486-.367-.843-.367zm4.915 4.433c-.377 0-.661-.096-.853-.287-.191-.199-.287-.476-.287-.833v-3.154h-.803v-.883h.436c.178 0 .301-.039.367-.119.073-.079.109-.208.109-.387v-.902h.972v1.408h1.081v.883h-1.081v3.392h1.002v.882zm5.973 0c-.284 0-.503-.079-.655-.238-.152-.165-.244-.373-.277-.625h-.05c-.099.324-.281.569-.545.734s-.585.248-.962.248c-.536 0-.949-.139-1.24-.416-.284-.278-.426-.652-.426-1.121 0-.516.185-.902.555-1.16.377-.258.926-.387 1.646-.387h.932v-.436c0-.318-.086-.562-.257-.734s-.44-.258-.804-.258c-.304 0-.552.066-.744.198s-.353.301-.485.506l-.645-.585c.172-.291.413-.529.724-.714.311-.192.717-.288 1.22-.288.667 0 1.18.156 1.537.466s.535.757.535 1.339v2.589h.546v.882zm-2.182-.704c.337 0 .615-.073.833-.218.218-.152.327-.354.327-.605v-.744h-.912c-.747 0-1.121.232-1.121.694v.179c0 .231.076.407.228.526.159.112.374.168.645.168zm4.392-5.375c-.225 0-.39-.053-.496-.159a.57.57 0 0 1 -.149-.406v-.169c0-.165.05-.301.149-.407.106-.105.271-.158.496-.158s.387.053.486.158.149.242.149.407v.169a.57.57 0 0 1 -.149.406c-.099.106-.261.159-.486.159zm-.546.922h1.081v5.157h-1.081zm3.726 5.157c-.37 0-.648-.092-.833-.277-.179-.192-.268-.457-.268-.794v-6.268h1.081v6.457h.714v.882zm3.363.119c-.489 0-.899-.086-1.229-.258s-.619-.41-.863-.714l.694-.634c.192.231.403.413.635.545.238.126.512.189.823.189.317 0 .552-.06.704-.179a.62.62 0 0 0 .238-.516c0-.165-.056-.304-.169-.416-.105-.119-.294-.195-.565-.228l-.476-.06c-.529-.066-.945-.218-1.25-.456-.297-.245-.446-.605-.446-1.081 0-.251.046-.473.139-.664.093-.199.222-.364.387-.496a1.82 1.82 0 0 1 .605-.318c.238-.072.499-.109.783-.109.463 0 .84.073 1.131.218a2.61 2.61 0 0 1 .793.605l-.664.635a1.67 1.67 0 0 0 -.526-.407 1.47 1.47 0 0 0 -.734-.178c-.297 0-.519.059-.664.178-.139.119-.208.275-.208.467 0 .198.062.347.188.446s.327.172.605.218l.476.06c.569.085.982.254 1.24.505.264.245.396.576.396.992 0 .251-.049.479-.148.684-.093.199-.229.371-.407.516a1.91 1.91 0 0 1 -.645.337 2.77 2.77 0 0 1 -.843.119z"/><use xlink:href="#a" y="147"/></g><circle cx="228.937" cy="75.114" fill="#41c6a7" r="9.114"/><path d="m228.481 74.658v-2.734h.911v2.734h2.735v.911h-2.735v2.734h-.911v-2.734h-2.734v-.911z" fill="#fff"/><circle cx="228.937" cy="125.24" fill="#77d5bf" r="9.114"/><path d="m228.481 124.784v-2.734h.911v2.734h2.735v.911h-2.735v2.735h-.911v-2.735h-2.734v-.911z" fill="#fff"/><circle cx="228.937" cy="274.253" fill="#e5e5e5" r="9.114"/><path d="m228.481 273.798v-2.735h.911v2.735h2.735v.911h-2.735v2.734h-.911v-2.734h-2.734v-.911z" fill="#9b9b9b"/><circle cx="263.114" cy="75.114" fill="#d6d7f5" r="9.114"/><path d="m264.813 74.059-.645-.644-4.244 4.244v.644h.644zm.644-.644.644-.644-.644-.644-.644.644zm-4.511 5.8h-1.933v-1.934l6.122-6.122c.085-.085.201-.133.322-.133s.237.048.322.133l1.289 1.289c.086.085.134.201.134.322s-.048.237-.134.322l-6.122 6.122z" fill="#3139ce"/><circle cx="297.291" cy="75.114" fill="#f7dfe5" r="9.114"/><path d="m299.57 72.379h2.278v.911h-.911v5.924c0 .121-.048.237-.134.322s-.201.133-.322.133h-6.38c-.121 0-.237-.048-.322-.133s-.133-.201-.133-.322v-5.924h-.912v-.911h2.279v-1.367c0-.121.048-.237.133-.322s.201-.133.322-.133h3.646c.121 0 .237.048.322.133s.134.201.134.322zm.455.911h-5.468v5.468h5.468zm-4.101 1.367h.911v2.734h-.911zm1.823 0h.911v2.734h-.911zm-1.823-3.19v.911h2.734v-.911z" fill="#d95d7b"/><circle cx="263.114" cy="125.24" fill="#e9eaf5" r="9.114"/><use fill="#3139ce" xlink:href="#b"/><circle cx="297.291" cy="125.24" fill="#f2e7ea" r="9.114"/><use fill="#d95d7b" xlink:href="#c"/><circle cx="263.114" cy="274.253" fill="#e6e6e6" r="9.114"/><path d="m264.813 273.199-.645-.644-4.244 4.244v.645h.644zm.644-.644.644-.644-.644-.645-.644.645zm-4.511 5.8h-1.933v-1.933l6.122-6.123c.085-.085.201-.133.322-.133s.237.048.322.133l1.289 1.29c.086.085.134.201.134.322s-.048.237-.134.322z" fill="#9b9b9b"/><circle cx="297.291" cy="274.253" fill="#e5e5e5" r="9.114"/><path d="m299.57 271.519h2.278v.911h-.911v5.925c0 .12-.048.236-.134.322s-.201.133-.322.133h-6.38c-.121 0-.237-.048-.322-.133a.46.46 0 0 1 -.133-.322v-5.925h-.912v-.911h2.279v-1.367c0-.121.048-.237.133-.322s.201-.134.322-.134h3.646c.121 0 .237.048.322.134s.134.201.134.322zm.455.911h-5.468v5.469h5.468zm-4.101 1.368h.911v2.734h-.911zm1.823 0h.911v2.734h-.911zm-1.823-3.19v.911h2.734v-.911z" fill="#9b9b9b"/><g fill="#41c6a7"><circle cx="228.937" cy="175.368" r="9.114"/><circle cx="228.937" cy="175.366" fill-opacity=".3" r="10.937"/></g><path d="m228.481 174.911v-2.734h.911v2.734h2.735v.911h-2.735v2.735h-.911v-2.735h-2.734v-.911z" fill="#fff"/><g fill="#d6d7f5"><circle cx="263.114" cy="175.368" r="9.114"/><circle cx="263.114" cy="175.366" fill-opacity=".3" r="10.937"/></g><use fill="#3139ce" xlink:href="#b" y="50.125"/><g fill="#f7dfe5"><circle cx="297.291" cy="175.368" r="9.114"/><circle cx="297.291" cy="175.366" fill-opacity=".3" r="10.937"/></g><use fill="#d95d7b" xlink:href="#c" y="50.125"/><circle cx="228.937" cy="225.494" fill="#41c6a7" r="9.114"/><path d="m228.937 221.696a3.8 3.8 0 0 0 -2.11.64c-.625.417-1.111 1.01-1.399 1.704s-.362 1.458-.216 2.194a3.8 3.8 0 0 0 2.984 2.984c.736.147 1.5.071 2.194-.216a3.79 3.79 0 0 0 1.704-1.399c.417-.624.64-1.358.64-2.109" stroke="#fff" stroke-linecap="round" stroke-linejoin="round" stroke-width="1.367"/><circle cx="263.114" cy="225.494" fill="#d6d7f5" r="9.114"/><path d="m263.114 221.696a3.8 3.8 0 0 0 -2.11.64c-.624.417-1.111 1.01-1.399 1.704s-.362 1.458-.216 2.194.509 1.414 1.04 1.945a3.79 3.79 0 0 0 1.944 1.039c.737.147 1.5.071 2.194-.216a3.79 3.79 0 0 0 2.344-3.508" stroke="#fff" stroke-linecap="round" stroke-linejoin="round" stroke-width="1.367"/><circle cx="297.291" cy="225.494" fill="#f7dfe5" r="9.114"/><path d="m297.291 221.696a3.8 3.8 0 0 0 -2.11.64c-.624.417-1.111 1.01-1.398 1.704a3.79 3.79 0 0 0 -.216 2.194c.146.737.508 1.414 1.039 1.945s1.208.893 1.944 1.039 1.5.071 2.194-.216 1.287-.774 1.705-1.399.64-1.358.64-2.109" stroke="#fff" stroke-linecap="round" stroke-linejoin="round" stroke-width="1.367"/></svg>