<svg fill="none" height="451" viewBox="0 0 395 451" width="395" xmlns="http://www.w3.org/2000/svg" xmlns:xlink="http://www.w3.org/1999/xlink"><filter id="a" color-interpolation-filters="sRGB" filterUnits="userSpaceOnUse" height="133.295" width="132.687" x="167.998" y="153.342"><feFlood flood-opacity="0" result="BackgroundImageFix"/><feBlend in="SourceGraphic" in2="BackgroundImageFix" mode="normal" result="shape"/><feGaussianBlur result="effect1_foregroundBlur" stdDeviation="6.6137"/></filter><filter id="b" color-interpolation-filters="sRGB" filterUnits="userSpaceOnUse" height="25.6521" width="25.6156" x="36.7222" y="168.484"><feFlood flood-opacity="0" result="BackgroundImageFix"/><feBlend in="SourceGraphic" in2="BackgroundImageFix" mode="normal" result="shape"/><feGaussianBlur result="effect1_foregroundBlur" stdDeviation="3.30685"/></filter><linearGradient id="c" gradientUnits="userSpaceOnUse" x1="216.051" x2="333.347" y1="216.988" y2="305.914"><stop offset="0" stop-color="#e7a25d"/><stop offset=".6712" stop-color="#f8b366"/></linearGradient><mask id="d" height="246" maskUnits="userSpaceOnUse" width="279" x="116" y="150"><path d="m304.545 177.799s13.032-34.976 19.728-25.496c2.578 3.663 6.516 26.43 6.516 26.43s24.239.574 33.119 27.722c0 0 27.282-9.229 30.612-2.729 1.611 3.124-6.731 13.645-18.654 27.183-8.091 9.193-11.314 96.058-87.791 138.826-57.931 32.462-130.362 40.111-165.45-16.016-15.754-25.172-1.54-85.5 67.311-116.238 0 0-11.314 28.943 22.27 15.189 34.551-14.184 61.655-69.7 92.339-74.871z" fill="#f9b466"/></mask><path d="m227.667 403.661c63.514 0 115.002-12.267 115.002-27.399s-51.488-27.399-115.002-27.399-115.002 12.267-115.002 27.399 51.488 27.399 115.002 27.399z" fill="#e5a05c" opacity=".17"/><path d="m139.411 177.249c3.115 96.596 73.577 172.581 73.577 172.581s65.378-80.653 62.263-177.249c-3.151-96.5966-73.613-172.581-73.613-172.581s-65.378 80.6526-62.227 177.249z" fill="#5258cd"/><path d="m271.885 160.262c-41.497 42.624-45.149 106.507-45.149 106.507s63.696-5.243 105.228-47.867c41.533-42.625 45.149-106.507 45.149-106.507s-63.695 5.206-105.228 47.867z" fill="#3f3d56"/><path d="m152.942 209.156c51.629 81.443 36.162 184.288 36.162 184.288s-99.1772-29.195-150.7707-110.637c-51.6293-81.443-36.16198-184.2875-36.16198-184.2875s99.14068 29.1945 150.77068 110.6365z" fill="#3f3d56"/><path d="m304.825 177.787s13.033-34.975 19.728-25.495c2.578 3.663 6.516 26.429 6.516 26.429s24.24.575 33.119 27.722c0 0 27.283-9.229 30.612-2.729 1.612 3.124-6.731 13.646-18.653 27.184-8.092 9.192-11.315 96.057-87.792 138.825-57.931 32.462-130.362 40.111-165.45-16.015-15.753-25.173-1.539-85.501 67.312-116.239 0 0-11.314 28.943 22.27 15.19 34.551-14.185 61.654-69.701 92.338-74.872z" fill="#f9b466"/><path d="m312.844 221.273c-1.719-1.041-5.156-10.198 3.115-5.099 8.306 5.099-1.432 6.176-3.115 5.099z" fill="#3f3d56"/><path d="m285.096 218.472c5.141 0 9.309-4.18 9.309-9.337 0-5.156-4.168-9.336-9.309-9.336s-9.309 4.18-9.309 9.336c0 5.157 4.168 9.337 9.309 9.337z" fill="#e5a05c" opacity=".3"/><path d="m333.862 248.89c5.141 0 9.309-4.18 9.309-9.337 0-5.156-4.168-9.336-9.309-9.336s-9.309 4.18-9.309 9.336c0 5.157 4.168 9.337 9.309 9.337z" fill="#e5a05c" opacity=".3"/><path d="m337.729 226.554c1.206 0 2.184-.981 2.184-2.191 0-1.209-.978-2.19-2.184-2.19s-2.184.981-2.184 2.19c0 1.21.978 2.191 2.184 2.191z" fill="#3f3d56"/><path d="m301.924 205.401c1.206 0 2.184-.98 2.184-2.19s-.978-2.19-2.184-2.19-2.184.98-2.184 2.19.978 2.19 2.184 2.19z" fill="#3f3d56"/><g stroke="#e5a05c" stroke-linecap="round" stroke-miterlimit="10" stroke-width="1.39734"><path d="m273.389 183.173s4.046 3.555 12.137 12.784"/><path d="m264.008 191.471s13.14 1.867 22.628 11.455"/><path d="m353.947 244.688s11.601 6.463 17.007 18.816"/><path d="m355.129 238.978s13.14 1.867 22.628 11.455"/></g><path d="m217.319 274.311c27.533 10.091 58.074-4.201 68.135-31.923s-4.082-58.353-31.615-68.444c-27.533-10.09-58.074 4.202-68.135 31.924s4.082 58.389 31.615 68.443z" fill="#ff8400"/><g filter="url(#a)"><path d="m216.082 270.173c27.533 10.09 58.074-4.202 68.134-31.924 10.061-27.722-4.081-58.353-31.614-68.443-27.534-10.091-58.074 4.201-68.135 31.923s4.081 58.389 31.615 68.444z" fill="#ff8400"/></g><path d="m248.326 231.183c-.036-1.364-.573-2.621-1.468-3.626-.537-.647-1.182-1.257-1.898-1.724.609-.072 1.218-.216 1.79-.467.824-.359 1.576-.898 2.149-1.616.572-.754.966-1.58 1.253-2.442.537-1.436.644-3.016.322-4.488-.43-1.437-1.253-2.694-2.399-3.663-1.074-.97-2.327-1.724-3.688-2.262l2.113-5.818-4.333 1.006-1.288 3.555-2.793-1.006 1.36-3.734-2.828-3.412-2.113 5.818-7.626-2.801.859 5.278c.538.144 1.039.431 1.468.755.215.215.323.466.359.754-.036.574-.18 1.113-.43 1.651l-5.729 15.765c-.143.538-.394 1.077-.752 1.508-.214.179-.322.395-.644.395-.322.036-.322 0-1.074-.251l-4.655 3.231 7.591 2.765-2.113 5.818 3.581 1.328 2.112-5.817 2.793 1.041-2.113 5.818 3.509 1.292 2.148-5.853c1.791.611 3.652.934 5.55.97 1.754 0 3.473-.503 4.941-1.437 1.396-1.077 2.435-2.513 3.079-4.165.573-1.329.895-2.729.967-4.166zm-12.03-17.703.035-.108 2.435.898c1.361.503 6.123 1.688 4.798 5.638-1.325 3.914-7.376 1.544-7.376 1.544l-2.434-.898.107-.287zm-4.046 11.096 2.792 1.041c.573.216 2.507 1.006 3.187 1.293.286.108.573.287.788.467.071.072.179.144.25.215.394.324.716.683.967 1.078.179.251.322.538.394.826.107.466.143.969.107 1.472-.035.359-.107.682-.214 1.005-.215.647-.573 1.221-1.075 1.616-.716.575-1.575.898-2.47.934-1.683.072-3.33-.215-4.905-.79l-2.793-1.041z" fill="#fff"/><path d="m231.534 229.712c-10.097 2.837-14.286 10.234-.788 22.515 6.23 5.674 33.37 31.672 53.062 42.661 21.017 11.706 40.995.036 40.745-10.522-.717-29.015-76.406-59.322-93.019-54.654z" fill="url(#c)"/><path d="m148.683 381.069c1.754-10.378-.466-21.007-6.23-29.769-10.383-15.764-25.6-43.594-22.664-67.761 4.619-37.777 35.124-68.156 15.288-80.76-30.075-19.068-64.6974 56.054-39.3482 118.357 16.7922 41.188 52.9542 59.933 52.9542 59.933z" fill="#f9b466"/><path d="m326.091 92.3249c6.842 0 12.388-5.5627 12.388-12.4247 0-6.8619-5.546-12.4246-12.388-12.4246s-12.388 5.5627-12.388 12.4246c0 6.862 5.546 12.4247 12.388 12.4247z" fill="#5258cd"/><path d="m49.53 187.522c3.4209 0 6.1941-2.781 6.1941-6.212s-2.7732-6.212-6.1941-6.212-6.1941 2.781-6.1941 6.212 2.7732 6.212 6.1941 6.212z" fill="#5dd9bd"/><g filter="url(#b)"><path d="m49.53 187.522c3.4209 0 6.1941-2.781 6.1941-6.212s-2.7732-6.212-6.1941-6.212-6.1941 2.781-6.1941 6.212 2.7732 6.212 6.1941 6.212z" fill="#5dd9bd"/></g><g stroke="#e5a05c"><path d="m224.087 235.1s8.843-22.335 75.296 19.894c4.511 2.873 20.157 14.544 43.466 19.427" stroke-linecap="round" stroke-miterlimit="10" stroke-width="1.43434"/><path d="m223.908 239.373s5.263-.755 10.885 4.488" stroke-linecap="round" stroke-miterlimit="10" stroke-width="1.43434"/><path d="m224.911 235.03s4.511-.79 10.276 2.441" stroke-linecap="round" stroke-miterlimit="10" stroke-width="1.43434"/></g><g mask="url(#d)"><path d="m315.349 370.816c19.722-11.394 28.396-33.326 19.374-48.987s-32.323-19.12-52.045-7.726c-19.722 11.393-28.397 33.325-19.375 48.986s32.324 19.121 52.046 7.727z" fill="#e5a05c" opacity=".49"/></g><path d="m367.266 210.465s13.448-5.293 21.11-5.15" stroke="#e5a05c" stroke-linecap="round" stroke-miterlimit="10" stroke-width="1.39734"/><path d="m216.388 257.471c16.112 8.403 33.728 13.897 48.908 23.915 23.559 15.585 38.812 43.954 36.377 72.142-2.434 28.189-23.666 54.403-51.271 60.256-24.418 5.207-49.123-4.775-72.933-12.352-27.461-8.762-55.854-14.544-84.5327-17.201-20.9095-1.939-44.0388-1.58-60.2222 11.85-3.6162 3.017-6.8027 6.679-8.5929 11.024-4.5829 11.168 3.9026 44.241 70.3547 41.763" stroke="#ff8400" stroke-linecap="round" stroke-miterlimit="10" stroke-width="2.86868"/><path d="m327.273 177.679s-2.041-14.615-4.476-19.714c-2.542-5.315-5.907 1.364-5.907 1.364" stroke="#e5a05c" stroke-linecap="round" stroke-miterlimit="10" stroke-width="1.39734"/><path d="m228.705 351.876c.537-40.577-38.453-48.513-46.438-49.698-.573-.072-.787-.754-.358-1.149 6.194-5.674 37.093-35.12 34.802-53.362-1.468-11.527-87.254 14.903-95.74 65.212-5.979 35.586 1.719 56.844 37.737 73.865 40.101 18.961 69.532-.933 69.997-34.868z" fill="#f9b466"/><path d="m128.026 319.558s-20.731-13.933 1.575-70.239" stroke="#e5a05c" stroke-linecap="round" stroke-miterlimit="10" stroke-width="1.43434"/><path d="m209.826 245.468s-.895 5.243-7.591 9.013" stroke="#e5a05c" stroke-linecap="round" stroke-miterlimit="10" stroke-width="1.43434"/><path d="m146.93 281.274c23.938-29.803 61.2-40.326 68.719-34.15 8.091 6.607-22.713 44.82-33.132 53.259-.752.61-.358 1.831.609 2.011 9.488 1.795 45.22 10.629 47.046 41.044 2.256 37.597-22.843 47.365-22.843 47.365" stroke="#e5a05c" stroke-linecap="round" stroke-miterlimit="10" stroke-width="1.43434"/><path d="m118.505 66.4086 18.414-9.8623c2.385-1.2764 3.284-4.2512 2.011-6.6415l-9.833-18.4511c-1.273-2.3903-4.24-3.2899-6.626-2.0135l-18.413 9.8623c-2.385 1.2764-3.284 4.2512-2.012 6.6414l9.833 18.4512c1.277 2.3893 4.242 3.2937 6.626 2.0135z" fill="#5dd9bd"/><path d="m116.369 41.3613 6.707 12.7725" stroke="#fff" stroke-linecap="round" stroke-miterlimit="10" stroke-width="1.54942"/><path d="m113.355 51.1113 12.735-6.7273" stroke="#fff" stroke-linecap="round" stroke-miterlimit="10" stroke-width="1.54942"/></svg>