<svg fill="none" height="365" viewBox="0 0 343 365" width="343" xmlns="http://www.w3.org/2000/svg"><rect fill="#d1dcfa" height="36" rx="3.99968" width="62" x="281" y="191"/><path d="m305.337 212h-.942v-3.286h-3.584v3.286h-.938v-7.109h.938v3.056h3.584v-3.056h.942zm1.284-2.69c0-.518.101-.984.303-1.397.205-.413.488-.732.849-.957.365-.225.78-.337 1.246-.337.719 0 1.3.249 1.743.747.446.498.669 1.161.669 1.988v.063c0 .514-.1.977-.298 1.387-.195.407-.477.724-.845.952-.364.228-.784.342-1.26.342-.716 0-1.297-.249-1.743-.747-.443-.498-.664-1.158-.664-1.978zm.908.107c0 .586.135 1.056.406 1.411.273.355.638.532 1.093.532.459 0 .824-.179 1.094-.537.27-.361.405-.866.405-1.513 0-.58-.138-1.049-.415-1.407-.273-.361-.638-.542-1.093-.542-.446 0-.806.178-1.08.533-.273.354-.41.862-.41 1.523zm5.884-2.7.025.586c.387-.456.909-.684 1.567-.684.739 0 1.242.283 1.509.85.175-.254.403-.459.683-.615.283-.157.617-.235 1.001-.235 1.159 0 1.748.614 1.768 1.841v3.54h-.904v-3.486c0-.378-.086-.66-.258-.845-.173-.189-.463-.283-.869-.283-.336 0-.614.101-.835.302-.222.199-.35.468-.386.806v3.506h-.908v-3.462c0-.768-.376-1.152-1.128-1.152-.593 0-.998.252-1.216.757v3.857h-.903v-5.283zm10.112 5.381c-.716 0-1.298-.235-1.748-.703-.449-.472-.673-1.102-.673-1.89v-.166c0-.524.099-.991.297-1.401.202-.414.482-.736.84-.967.362-.235.752-.352 1.172-.352.687 0 1.221.226 1.602.679.381.452.571 1.1.571 1.943v.376h-3.579c.013.521.164.943.454 1.265.293.319.664.478 1.113.478.319 0 .589-.065.811-.195.221-.13.415-.303.581-.518l.552.43c-.443.68-1.107 1.021-1.993 1.021zm-.112-4.737c-.364 0-.67.134-.918.401-.247.263-.4.634-.459 1.113h2.647v-.068c-.026-.459-.15-.814-.371-1.065-.222-.254-.521-.381-.899-.381z" fill="#000"/><rect fill="#d1dcfa" height="36" rx="3.99968" width="62" x="70" y="191"/><path d="m86.168 208.831c-.8041-.231-1.39-.514-1.7578-.85-.3646-.338-.5469-.755-.5469-1.25 0-.559.223-1.022.6689-1.386.4492-.368 1.0319-.552 1.7481-.552.4883 0 .9228.094 1.3037.283.3841.189.6803.449.8887.781.2115.332.3173.695.3173 1.089h-.9423c0-.429-.1368-.766-.4102-1.01-.2734-.248-.6592-.372-1.1572-.372-.4623 0-.8236.103-1.084.308-.2572.202-.3858.483-.3858.845 0 .29.1221.535.3663.737.2474.199.6656.381 1.2548.547.5925.166 1.0547.35 1.3868.552.3352.198.5826.431.7421.698.1628.267.2442.581.2442.942 0 .577-.2246 1.039-.6738 1.387-.4493.345-1.0498.518-1.8018.518-.4883 0-.944-.093-1.3672-.279-.4232-.188-.7503-.446-.9814-.771-.2279-.326-.3418-.695-.3418-1.109h.9424c0 .43.1578.77.4736 1.021.319.247.7438.371 1.2744.371.4948 0 .874-.101 1.1377-.303s.3955-.477.3955-.825-.1221-.617-.3662-.806c-.2441-.192-.6869-.38-1.3281-.566zm5.8935 3.267c-.7161 0-1.2988-.235-1.748-.703-.4492-.472-.6739-1.102-.6739-1.89v-.166c0-.524.0993-.991.2979-1.401.2018-.414.4818-.736.8398-.967.3614-.235.752-.352 1.1719-.352.6869 0 1.2207.226 1.6016.679.3808.452.5713 1.1.5713 1.943v.376h-3.5791c.013.521.1644.943.4541 1.265.2929.319.664.478 1.1133.478.319 0 .5891-.065.8105-.195s.415-.303.5811-.518l.5517.43c-.4427.68-1.1068 1.021-1.9922 1.021zm-.1123-4.737c-.3646 0-.6706.134-.918.401-.2473.263-.4003.634-.4589 1.113h2.6465v-.068c-.0261-.459-.1498-.814-.3711-1.065-.2214-.254-.5209-.381-.8985-.381zm4.4483-1.923v1.279h.9863v.698h-.9863v3.276c0 .212.0439.371.1318.479.0879.104.2376.156.4492.156.1042 0 .2474-.019.4297-.058v.732c-.2376.065-.4687.098-.6934.098-.4036 0-.708-.122-.913-.367-.2051-.244-.3077-.59-.3077-1.04v-3.276h-.9619v-.698h.9619v-1.279zm3.2714 0v1.279h.9861v.698h-.9861v3.276c0 .212.044.371.1319.479.0879.104.2372.156.4492.156.104 0 .247-.019.43-.058v.732c-.238.065-.469.098-.6937.098-.4036 0-.708-.122-.9131-.367-.205-.244-.3076-.59-.3076-1.04v-3.276h-.9619v-.698h.9619v-1.279zm3.0271 6.562h-.903v-5.283h.903zm-.976-6.685c0-.146.044-.27.132-.371.091-.101.224-.151.4-.151s.309.05.4.151.137.225.137.371c0 .147-.046.269-.137.367-.091.097-.224.146-.4.146s-.309-.049-.4-.146c-.088-.098-.132-.22-.132-.367zm3.281 1.402.029.664c.404-.508.931-.762 1.582-.762 1.117 0 1.68.63 1.69 1.89v3.491h-.904v-3.496c-.003-.381-.091-.663-.263-.845-.17-.182-.435-.273-.796-.273-.293 0-.55.078-.772.234-.221.156-.393.361-.517.615v3.765h-.904v-5.283zm4.448 2.597c0-.823.191-1.477.572-1.962.38-.489.885-.733 1.513-.733.645 0 1.148.228 1.509.684l.044-.586h.825v5.156c0 .684-.203 1.222-.61 1.616-.404.394-.948.591-1.631.591-.381 0-.754-.081-1.118-.244-.365-.163-.643-.386-.835-.669l.469-.542c.387.479.861.718 1.42.718.44 0 .782-.124 1.026-.371.247-.248.371-.596.371-1.045v-.454c-.361.416-.855.625-1.48.625-.618 0-1.119-.249-1.503-.747-.381-.498-.572-1.177-.572-2.037zm.908.103c0 .596.122 1.064.367 1.406.244.339.586.508 1.025.508.57 0 .988-.259 1.255-.776v-2.412c-.277-.505-.692-.757-1.245-.757-.44 0-.783.171-1.03.512-.248.342-.372.848-.372 1.519zm7.998 1.182c0-.245-.092-.433-.278-.567-.182-.136-.503-.254-.962-.351-.455-.098-.818-.215-1.089-.352-.267-.137-.465-.299-.595-.488-.127-.189-.191-.414-.191-.674 0-.433.183-.799.547-1.099.368-.299.837-.449 1.406-.449.599 0 1.084.155 1.455.464.375.309.562.705.562 1.187h-.908c0-.248-.106-.461-.318-.64-.208-.179-.472-.269-.791-.269-.328 0-.586.072-.771.215-.186.143-.278.331-.278.562 0 .218.086.382.258.493.173.111.484.216.933.317.452.101.819.222 1.099.362s.486.309.62.507c.136.196.205.435.205.718 0 .472-.189.851-.567 1.138-.377.283-.867.425-1.469.425-.424 0-.798-.075-1.123-.225-.326-.15-.581-.358-.767-.625-.182-.27-.273-.561-.273-.874h.903c.016.303.137.544.361.723.228.175.528.263.899.263.341 0 .615-.068.82-.205.208-.14.312-.325.312-.556z" fill="#000"/><rect fill="#d1dcfa" height="36" rx="3.99968" width="63" x="140" y="191"/><path d="m158.976 209.217v2.783h-.938v-7.109h2.622c.778 0 1.387.198 1.826.595.443.397.664.923.664 1.577 0 .691-.216 1.223-.649 1.597-.43.371-1.047.557-1.851.557zm0-.767h1.684c.501 0 .886-.117 1.152-.351.267-.238.401-.58.401-1.026 0-.423-.134-.761-.401-1.015-.266-.254-.633-.386-1.098-.396h-1.738zm7.783-.923c-.137-.022-.285-.034-.445-.034-.592 0-.994.252-1.206.757v3.75h-.903v-5.283h.879l.015.61c.296-.472.716-.708 1.259-.708.176 0 .31.023.401.069zm.498 1.783c0-.518.101-.984.303-1.397.205-.413.488-.732.849-.957.365-.225.78-.337 1.245-.337.72 0 1.301.249 1.743.747.446.498.669 1.161.669 1.988v.063c0 .514-.099.977-.297 1.387-.196.407-.477.724-.845.952-.365.228-.785.342-1.26.342-.716 0-1.297-.249-1.743-.747-.443-.498-.664-1.158-.664-1.978zm.908.107c0 .586.135 1.056.405 1.411.274.355.638.532 1.094.532.459 0 .824-.179 1.094-.537.27-.361.405-.866.405-1.513 0-.58-.138-1.049-.415-1.407-.273-.361-.638-.542-1.094-.542-.446 0-.805.178-1.079.533-.273.354-.41.862-.41 1.523zm5.337 2.583v-4.585h-.835v-.698h.835v-.449c0-.59.168-1.049.503-1.377.338-.329.815-.494 1.431-.494.364 0 .825.1 1.381.298l-.151.762c-.407-.163-.794-.244-1.162-.244-.387 0-.667.088-.84.264-.169.172-.254.433-.254.781v.459h1.079v.698h-1.079v4.585zm3.765 0h-.909v-5.283h.909zm2.451 0h-.904v-7.5h.904zm3.642.098c-.716 0-1.298-.235-1.748-.703-.449-.472-.674-1.102-.674-1.89v-.166c0-.524.1-.991.298-1.401.202-.414.482-.736.84-.967.362-.235.752-.352 1.172-.352.687 0 1.221.226 1.602.679.38.452.571 1.1.571 1.943v.376h-3.579c.013.521.164.943.454 1.265.293.319.664.478 1.113.478.319 0 .589-.065.811-.195.221-.13.415-.303.581-.518l.552.43c-.443.68-1.107 1.021-1.993 1.021zm-.112-4.737c-.365 0-.671.134-.918.401-.247.263-.4.634-.459 1.113h2.647v-.068c-.026-.459-.15-.814-.372-1.065-.221-.254-.52-.381-.898-.381z" fill="#000"/><rect fill="#d1dcfa" height="36" rx="3.99968" width="62" x="211" y="191"/><path d="m220.311 204.891 2.324 5.8 2.324-5.8h1.216v7.109h-.938v-2.769l.088-2.988-2.334 5.757h-.718l-2.329-5.742.093 2.973v2.769h-.937v-7.109zm9.57 7.207c-.716 0-1.299-.235-1.748-.703-.449-.472-.674-1.102-.674-1.89v-.166c0-.524.099-.991.298-1.401.202-.414.482-.736.84-.967.361-.235.752-.352 1.172-.352.686 0 1.22.226 1.601.679.381.452.571 1.1.571 1.943v.376h-3.579c.013.521.165.943.454 1.265.293.319.664.478 1.114.478.319 0 .589-.065.81-.195.222-.13.415-.303.581-.518l.552.43c-.443.68-1.107 1.021-1.992 1.021zm-.112-4.737c-.365 0-.671.134-.918.401-.248.263-.401.634-.459 1.113h2.646v-.068c-.026-.459-.15-.814-.371-1.065-.221-.254-.521-.381-.898-.381zm5.776.166c-.137-.022-.285-.034-.444-.034-.593 0-.995.252-1.206.757v3.75h-.904v-5.283h.879l.015.61c.296-.472.716-.708 1.26-.708.175 0 .309.023.4.069zm2.856 3.833c.323 0 .604-.097.845-.293.241-.195.374-.439.4-.732h.855c-.016.303-.12.591-.313.864-.192.274-.449.492-.771.655-.319.162-.658.244-1.016.244-.719 0-1.292-.24-1.718-.718-.424-.482-.635-1.139-.635-1.973v-.151c0-.514.094-.972.283-1.372.189-.401.459-.711.811-.933.354-.221.773-.332 1.254-.332.593 0 1.084.178 1.475.532.394.355.604.816.63 1.382h-.855c-.026-.342-.156-.622-.39-.84-.231-.221-.518-.332-.86-.332-.458 0-.815.166-1.069.498-.251.329-.376.806-.376 1.431v.171c0 .609.125 1.077.376 1.406s.609.493 1.074.493zm4.019-4.004c.4-.491.921-.737 1.562-.737 1.117 0 1.68.63 1.69 1.89v3.491h-.903v-3.496c-.004-.381-.092-.663-.264-.845-.169-.182-.435-.273-.796-.273-.293 0-.55.078-.771.234-.222.156-.394.361-.518.615v3.765h-.903v-7.5h.903zm7.866 4.644c-.052-.104-.094-.29-.127-.557-.42.437-.921.655-1.504.655-.521 0-.949-.147-1.284-.44-.332-.296-.498-.67-.498-1.123 0-.55.208-.976.625-1.279.42-.306 1.009-.459 1.768-.459h.879v-.415c0-.316-.095-.567-.284-.752-.188-.189-.467-.283-.835-.283-.322 0-.592.081-.81.244s-.327.36-.327.591h-.909c0-.264.093-.518.279-.762.189-.247.442-.443.762-.586.322-.143.675-.215 1.059-.215.609 0 1.086.153 1.431.459.345.303.524.721.537 1.255v2.432c0 .485.062.87.185 1.157v.078zm-1.499-.688c.283 0 .552-.074.806-.22.254-.147.438-.337.552-.571v-1.084h-.708c-1.107 0-1.661.323-1.661.971 0 .283.095.505.284.664.188.16.431.24.727.24zm4.531-4.595.03.664c.403-.508.931-.762 1.582-.762 1.116 0 1.679.63 1.689 1.89v3.491h-.903v-3.496c-.003-.381-.091-.663-.264-.845-.169-.182-.434-.273-.796-.273-.293 0-.55.078-.771.234-.222.156-.394.361-.518.615v3.765h-.903v-5.283zm5.889-1.279v1.279h.986v.698h-.986v3.276c0 .212.044.371.132.479.088.104.237.156.449.156.104 0 .247-.019.43-.058v.732c-.238.065-.469.098-.694.098-.403 0-.708-.122-.913-.367-.205-.244-.307-.59-.307-1.04v-3.276h-.962v-.698h.962v-1.279zm5.122 5.161c0-.245-.093-.433-.278-.567-.183-.136-.503-.254-.962-.351-.456-.098-.819-.215-1.089-.352-.267-.137-.465-.299-.596-.488-.127-.189-.19-.414-.19-.674 0-.433.182-.799.547-1.099.368-.299.836-.449 1.406-.449.599 0 1.084.155 1.455.464.374.309.562.705.562 1.187h-.909c0-.248-.105-.461-.317-.64-.208-.179-.472-.269-.791-.269-.329 0-.586.072-.771.215-.186.143-.279.331-.279.562 0 .218.086.382.259.493s.483.216.933.317c.452.101.818.222 1.098.362s.487.309.62.507c.137.196.205.435.205.718 0 .472-.188.851-.566 1.138-.378.283-.867.425-1.47.425-.423 0-.797-.075-1.123-.225-.325-.15-.581-.358-.766-.625-.183-.27-.274-.561-.274-.874h.904c.016.303.136.544.361.723.228.175.527.263.898.263.342 0 .616-.068.821-.205.208-.14.312-.325.312-.556z" fill="#000"/><rect fill="#d1dcfa" height="36" rx="3.99968" width="62" y="191"/><path d="m8.48047 209.759.13672.937.20019-.844 1.40622-4.961h.791l1.3721 4.961.1953.859.1514-.957 1.1035-4.863h.9424l-1.7236 7.109h-.8545l-1.4649-5.181-.1123-.542-.1123.542-1.51854 5.181h-.85449l-1.71875-7.109h.9375zm8.18363 2.241h-.9034v-5.283h.9034zm-.9766-6.685c0-.146.0439-.27.1318-.371.0912-.101.2246-.151.4004-.151s.3093.05.4004.151c.0912.101.1367.225.1367.371 0 .147-.0455.269-.1367.367-.0911.097-.2246.146-.4004.146s-.3092-.049-.4004-.146c-.0879-.098-.1318-.22-.1318-.367zm3.6523.123v1.279h.9864v.698h-.9864v3.276c0 .212.044.371.1319.479.0879.104.2376.156.4492.156.1042 0 .2474-.019.4297-.058v.732c-.2376.065-.4688.098-.6934.098-.4036 0-.708-.122-.9131-.367-.205-.244-.3076-.59-.3076-1.04v-3.276h-.9619v-.698h.9619v-1.279zm2.9493 1.918c.4004-.491.9212-.737 1.5625-.737 1.1165 0 1.6796.63 1.6894 1.89v3.491h-.9033v-3.496c-.0033-.381-.0912-.663-.2637-.845-.1692-.182-.4345-.273-.7959-.273-.2929 0-.5501.078-.7715.234-.2213.156-.3938.361-.5175.615v3.765h-.9034v-7.5h.9034zm4.3847 1.958c0-.81.1921-1.461.5762-1.953.3841-.494.887-.742 1.5088-.742.6185 0 1.1084.212 1.4697.635v-2.754h.9033v7.5h-.83l-.044-.566c-.3613.442-.8642.664-1.5088.664-.612 0-1.1116-.251-1.499-.752-.3841-.502-.5762-1.156-.5762-1.963zm.9033.103c0 .599.1237 1.068.3711 1.406.2474.339.5892.508 1.0254.508.5729 0 .9912-.257 1.2549-.771v-2.427c-.2702-.498-.6852-.747-1.2451-.747-.4427 0-.7878.171-1.0352.512-.2474.342-.3711.848-.3711 1.519zm7.5147-1.89c-.1367-.022-.2848-.034-.4443-.034-.5925 0-.9945.252-1.2061.757v3.75h-.9033v-5.283h.8789l.0146.61c.2963-.472.7162-.708 1.2598-.708.1758 0 .3093.023.4004.069zm3.9014 4.473c-.0521-.104-.0944-.29-.127-.557-.4199.437-.9212.655-1.5039.655-.5208 0-.9489-.147-1.2842-.44-.332-.296-.498-.67-.498-1.123 0-.55.2083-.976.625-1.279.4199-.306 1.0091-.459 1.7676-.459h.8789v-.415c0-.316-.0944-.567-.2832-.752-.1888-.189-.4672-.283-.835-.283-.3223 0-.5924.081-.8105.244s-.3272.36-.3272.591h-.9082c0-.264.0928-.518.2783-.762.1888-.247.4427-.443.7617-.586.3223-.143.6755-.215 1.0596-.215.6087 0 1.0856.153 1.4307.459.345.303.5241.721.5371 1.255v2.432c0 .485.0618.87.1855 1.157v.078zm-1.4991-.688c.2832 0 .5518-.074.8057-.22.2539-.147.4378-.337.5518-.571v-1.084h-.708c-1.1068 0-1.6602.323-1.6602.971 0 .283.0944.505.2832.664.1888.16.4313.24.7275.24zm8.3545-.557 1.0157-4.038h.9033l-1.5381 5.283h-.7324l-1.2842-4.004-1.25 4.004h-.7324l-1.5332-5.283h.8984l1.04 3.955 1.2305-3.955h.7276zm6.1035 1.245c-.052-.104-.0944-.29-.1269-.557-.4199.437-.9212.655-1.5039.655-.5208 0-.9489-.147-1.2842-.44-.332-.296-.498-.67-.498-1.123 0-.55.2083-.976.625-1.279.4199-.306 1.0091-.459 1.7675-.459h.8789v-.415c0-.316-.0944-.567-.2832-.752-.1888-.189-.4671-.283-.8349-.283-.3223 0-.5925.081-.8106.244s-.3271.36-.3271.591h-.9082c0-.264.0928-.518.2783-.762.1888-.247.4427-.443.7617-.586.3223-.143.6755-.215 1.0596-.215.6087 0 1.0856.153 1.4307.459.345.303.524.721.5371 1.255v2.432c0 .485.0618.87.1855 1.157v.078zm-1.499-.688c.2832 0 .5518-.074.8057-.22.2539-.147.4378-.337.5517-.571v-1.084h-.708c-1.1067 0-1.6601.323-1.6601.971 0 .283.0944.505.2832.664.1888.16.4313.24.7275.24zm4.6582.688h-.9033v-7.5h.9033z" fill="#000"/><rect fill="#f3f2f2" height="36" rx="3.99968" width="62" x="281" y="260"/><path d="m298.486 278.759.137.937.2-.844 1.406-4.961h.792l1.372 4.961.195.859.151-.957 1.104-4.863h.942l-1.723 7.109h-.855l-1.465-5.181-.112-.542-.112.542-1.519 5.181h-.854l-1.719-7.109h.937zm10.298 2.241c-.052-.104-.094-.29-.127-.557-.42.437-.921.655-1.504.655-.521 0-.949-.147-1.284-.44-.332-.296-.498-.67-.498-1.123 0-.55.208-.976.625-1.279.42-.306 1.009-.459 1.768-.459h.879v-.415c0-.316-.095-.567-.284-.752-.188-.189-.467-.283-.835-.283-.322 0-.592.081-.81.244s-.327.36-.327.591h-.908c0-.264.092-.518.278-.762.189-.247.443-.443.762-.586.322-.143.675-.215 1.059-.215.609 0 1.086.153 1.431.459.345.303.524.721.537 1.255v2.432c0 .485.062.87.185 1.157v.078zm-1.499-.688c.283 0 .552-.074.806-.22.254-.147.438-.337.552-.571v-1.084h-.708c-1.107 0-1.661.323-1.661.971 0 .283.095.505.284.664.188.16.431.24.727.24zm4.658.688h-.903v-7.5h.903zm2.432 0h-.903v-7.5h.903zm3.643.098c-.717 0-1.299-.235-1.748-.703-.45-.472-.674-1.102-.674-1.89v-.166c0-.524.099-.991.298-1.401.201-.414.481-.736.839-.967.362-.235.752-.352 1.172-.352.687 0 1.221.226 1.602.679.381.452.571 1.1.571 1.943v.376h-3.579c.013.521.164.943.454 1.265.293.319.664.478 1.113.478.319 0 .59-.065.811-.195s.415-.303.581-.518l.552.43c-.443.68-1.107 1.021-1.992 1.021zm-.113-4.737c-.364 0-.67.134-.918.401-.247.263-.4.634-.459 1.113h2.647v-.068c-.026-.459-.15-.814-.371-1.065-.222-.254-.521-.381-.899-.381zm4.449-1.923v1.279h.986v.698h-.986v3.276c0 .212.043.371.131.479.088.104.238.156.45.156.104 0 .247-.019.429-.058v.732c-.237.065-.468.098-.693.098-.404 0-.708-.122-.913-.367-.205-.244-.308-.59-.308-1.04v-3.276h-.962v-.698h.962v-1.279zm5.122 5.161c0-.245-.093-.433-.279-.567-.182-.136-.503-.254-.962-.351-.455-.098-.818-.215-1.089-.352-.266-.137-.465-.299-.595-.488-.127-.189-.191-.414-.191-.674 0-.433.183-.799.547-1.099.368-.299.837-.449 1.406-.449.599 0 1.084.155 1.456.464.374.309.561.705.561 1.187h-.908c0-.248-.106-.461-.318-.64-.208-.179-.472-.269-.791-.269-.328 0-.585.072-.771.215s-.278.331-.278.562c0 .218.086.382.258.493.173.111.484.216.933.317.453.101.819.222 1.099.362s.486.309.62.507c.137.196.205.435.205.718 0 .472-.189.851-.567 1.138-.377.283-.867.425-1.469.425-.423 0-.798-.075-1.123-.225-.326-.15-.581-.358-.767-.625-.182-.27-.273-.561-.273-.874h.903c.016.303.137.544.361.723.228.175.528.263.899.263.342 0 .615-.068.82-.205.208-.14.313-.325.313-.556z" fill="#000"/><rect fill="#fff" height="35" rx="3.49968" stroke="#d1dcfa" stroke-dasharray="5 5" width="61" x="70.5" y="260.5"/><path d="m81.0654 279.145h-2.9785l-.6689 1.855h-.9668l2.7148-7.109h.8203l2.7198 7.109h-.962zm-2.6953-.772h2.417l-1.2109-3.325zm6.1328 2.627h-.9033v-7.5h.9033zm2.4317 0h-.9034v-7.5h.9034zm6.167-3.169c-.8041-.231-1.39-.514-1.7578-.85-.3646-.338-.5469-.755-.5469-1.25 0-.559.223-1.022.6689-1.386.4492-.368 1.0319-.552 1.7481-.552.4882 0 .9228.094 1.3037.283.3841.189.6803.449.8886.781.2116.332.3174.695.3174 1.089h-.9424c0-.429-.1367-.766-.4101-1.01-.2734-.248-.6592-.372-1.1572-.372-.4623 0-.8236.103-1.084.308-.2572.202-.3858.483-.3858.845 0 .29.1221.535.3663.737.2473.199.6656.381 1.2548.547.5925.166 1.0547.35 1.3868.552.3352.198.5826.431.7421.698.1628.267.2442.581.2442.942 0 .577-.2246 1.039-.6738 1.387-.4493.345-1.0499.518-1.8018.518-.4883 0-.944-.093-1.3672-.279-.4232-.188-.7503-.446-.9814-.771-.2279-.326-.3418-.695-.3418-1.109h.9423c0 .43.1579.77.4737 1.021.319.247.7438.371 1.2744.371.4948 0 .874-.101 1.1377-.303s.3955-.477.3955-.825-.1221-.617-.3662-.806c-.2442-.192-.6869-.38-1.3281-.566zm5.8935 3.267c-.7161 0-1.2988-.235-1.748-.703-.4492-.472-.6739-1.102-.6739-1.89v-.166c0-.524.0993-.991.2979-1.401.2018-.414.4818-.736.8398-.967.3614-.235.752-.352 1.1719-.352.6869 0 1.2212.226 1.6012.679.381.452.572 1.1.572 1.943v.376h-3.5794c.013.521.1644.943.4541 1.265.2929.319.664.478 1.1132.478.3191 0 .5892-.065.8106-.195.2215-.13.4155-.303.5815-.518l.551.43c-.442.68-1.1065 1.021-1.9919 1.021zm-.1123-4.737c-.3646 0-.6706.134-.918.401-.2474.263-.4003.634-.4589 1.113h2.6461v-.068c-.026-.459-.149-.814-.3708-1.065-.2213-.254-.5208-.381-.8984-.381zm4.4482-1.923v1.279h.986v.698h-.986v3.276c0 .212.044.371.132.479.088.104.238.156.449.156.104 0 .248-.019.43-.058v.732c-.238.065-.469.098-.694.098-.403 0-.708-.122-.913-.367-.205-.244-.307-.59-.307-1.04v-3.276h-.962v-.698h.962v-1.279zm3.272 0v1.279h.986v.698h-.986v3.276c0 .212.043.371.131.479.088.104.238.156.45.156.104 0 .247-.019.429-.058v.732c-.237.065-.468.098-.693.098-.404 0-.708-.122-.913-.367-.205-.244-.308-.59-.308-1.04v-3.276h-.962v-.698h.962v-1.279zm3.027 6.562h-.903v-5.283h.903zm-.977-6.685c0-.146.044-.27.132-.371.091-.101.225-.151.401-.151.175 0 .309.05.4.151s.137.225.137.371c0 .147-.046.269-.137.367-.091.097-.225.146-.4.146-.176 0-.31-.049-.401-.146-.088-.098-.132-.22-.132-.367zm3.282 1.402.029.664c.404-.508.931-.762 1.582-.762 1.116 0 1.68.63 1.689 1.89v3.491h-.903v-3.496c-.003-.381-.091-.663-.264-.845-.169-.182-.434-.273-.796-.273-.293 0-.55.078-.771.234s-.394.361-.518.615v3.765h-.903v-5.283zm4.448 2.597c0-.823.19-1.477.571-1.962.381-.489.886-.733 1.514-.733.644 0 1.147.228 1.509.684l.044-.586h.825v5.156c0 .684-.204 1.222-.611 1.616-.403.394-.947.591-1.631.591-.38 0-.753-.081-1.118-.244-.364-.163-.643-.386-.835-.669l.469-.542c.387.479.861.718 1.421.718.439 0 .781-.124 1.025-.371.248-.248.372-.596.372-1.045v-.454c-.362.416-.855.625-1.48.625-.618 0-1.12-.249-1.504-.747-.381-.498-.571-1.177-.571-2.037zm.908.103c0 .596.122 1.064.366 1.406.244.339.586.508 1.026.508.569 0 .988-.259 1.255-.776v-2.412c-.277-.505-.692-.757-1.246-.757-.439 0-.782.171-1.03.512-.247.342-.371.848-.371 1.519zm7.998 1.182c0-.245-.093-.433-.278-.567-.183-.136-.503-.254-.962-.351-.456-.098-.819-.215-1.089-.352-.267-.137-.466-.299-.596-.488-.127-.189-.19-.414-.19-.674 0-.433.182-.799.547-1.099.368-.299.836-.449 1.406-.449.599 0 1.084.155 1.455.464.374.309.562.705.562 1.187h-.909c0-.248-.105-.461-.317-.64-.208-.179-.472-.269-.791-.269-.329 0-.586.072-.772.215-.185.143-.278.331-.278.562 0 .218.086.382.259.493.172.111.483.216.933.317.452.101.818.222 1.098.362s.487.309.62.507c.137.196.205.435.205.718 0 .472-.188.851-.566 1.138-.378.283-.868.425-1.47.425-.423 0-.797-.075-1.123-.225-.325-.15-.581-.358-.766-.625-.183-.27-.274-.561-.274-.874h.903c.017.303.137.544.362.723.228.175.527.263.898.263.342 0 .615-.068.821-.205.208-.14.312-.325.312-.556z" fill="#000"/><rect fill="#fff" height="35" rx="3.49968" stroke="#d1dcfa" stroke-dasharray="5 5" width="62" x="140.5" y="260.5"/><path d="m158.476 272.217v2.783h-.938v-7.109h2.622c.778 0 1.387.198 1.826.595.443.397.664.923.664 1.577 0 .691-.216 1.223-.649 1.597-.43.371-1.047.557-1.851.557zm0-.767h1.684c.501 0 .886-.117 1.152-.351.267-.238.401-.58.401-1.026 0-.423-.134-.761-.401-1.015-.266-.254-.633-.386-1.098-.396h-1.738zm7.783-.923c-.137-.022-.285-.034-.445-.034-.592 0-.994.252-1.206.757v3.75h-.903v-5.283h.879l.015.61c.296-.472.716-.708 1.259-.708.176 0 .31.023.401.069zm.498 1.783c0-.518.101-.984.303-1.397.205-.413.488-.732.849-.957.365-.225.78-.337 1.245-.337.72 0 1.301.249 1.743.747.446.498.669 1.161.669 1.988v.063c0 .514-.099.977-.297 1.387-.196.407-.477.724-.845.952-.365.228-.785.342-1.26.342-.716 0-1.297-.249-1.743-.747-.443-.498-.664-1.158-.664-1.978zm.908.107c0 .586.135 1.056.405 1.411.274.355.638.532 1.094.532.459 0 .824-.179 1.094-.537.27-.361.405-.866.405-1.513 0-.58-.138-1.049-.415-1.407-.273-.361-.638-.542-1.094-.542-.446 0-.805.178-1.079.533-.273.354-.41.862-.41 1.523zm5.337 2.583v-4.585h-.835v-.698h.835v-.449c0-.59.168-1.049.503-1.377.338-.329.815-.494 1.431-.494.364 0 .825.1 1.381.298l-.151.762c-.407-.163-.794-.244-1.162-.244-.387 0-.667.088-.84.264-.169.172-.254.433-.254.781v.459h1.079v.698h-1.079v4.585zm3.765 0h-.909v-5.283h.909zm2.451 0h-.904v-7.5h.904zm3.642.098c-.716 0-1.298-.235-1.748-.703-.449-.472-.674-1.102-.674-1.89v-.166c0-.524.1-.991.298-1.401.202-.414.482-.736.84-.967.362-.235.752-.352 1.172-.352.687 0 1.221.226 1.602.679.38.452.571 1.1.571 1.943v.376h-3.579c.013.521.164.943.454 1.265.293.319.664.478 1.113.478.319 0 .589-.065.811-.195.221-.13.415-.303.581-.518l.552.43c-.443.68-1.107 1.021-1.993 1.021zm-.112-4.737c-.365 0-.671.134-.918.401-.247.263-.4.634-.459 1.113h2.647v-.068c-.026-.459-.15-.814-.372-1.065-.221-.254-.52-.381-.898-.381zm-25.85 15.238c0-.245-.092-.433-.278-.567-.182-.136-.503-.254-.962-.351-.456-.098-.818-.215-1.089-.352-.267-.137-.465-.299-.595-.488-.127-.189-.191-.414-.191-.674 0-.433.182-.799.547-1.099.368-.299.837-.449 1.406-.449.599 0 1.084.155 1.455.464.375.309.562.705.562 1.187h-.908c0-.248-.106-.461-.318-.64-.208-.179-.472-.269-.791-.269-.328 0-.586.072-.771.215-.186.143-.278.331-.278.562 0 .218.086.382.258.493.173.111.484.216.933.317.452.101.819.222 1.099.362s.486.309.62.507c.136.196.205.435.205.718 0 .472-.189.851-.567 1.138-.377.283-.867.425-1.469.425-.424 0-.798-.075-1.123-.225-.326-.15-.581-.358-.767-.625-.182-.27-.273-.561-.273-.874h.903c.016.303.137.544.361.723.228.175.528.263.899.263.341 0 .615-.068.82-.205.208-.14.312-.325.312-.556zm4.273 1.499c-.716 0-1.299-.235-1.748-.703-.449-.472-.674-1.102-.674-1.89v-.166c0-.524.099-.991.298-1.401.202-.414.482-.736.84-.967.361-.235.752-.352 1.172-.352.686 0 1.22.226 1.601.679.381.452.571 1.1.571 1.943v.376h-3.579c.013.521.165.943.454 1.265.293.319.665.478 1.114.478.319 0 .589-.065.81-.195.222-.13.415-.303.581-.518l.552.43c-.443.68-1.107 1.021-1.992 1.021zm-.112-4.737c-.365 0-.671.134-.918.401-.248.263-.401.634-.459 1.113h2.646v-.068c-.026-.459-.15-.814-.371-1.065-.221-.254-.521-.381-.898-.381zm4.448-1.923v1.279h.986v.698h-.986v3.276c0 .212.044.371.132.479.088.104.237.156.449.156.104 0 .247-.019.43-.058v.732c-.238.065-.469.098-.694.098-.403 0-.708-.122-.913-.367-.205-.244-.307-.59-.307-1.04v-3.276h-.962v-.698h.962v-1.279zm3.271 0v1.279h.987v.698h-.987v3.276c0 .212.044.371.132.479.088.104.238.156.449.156.105 0 .248-.019.43-.058v.732c-.238.065-.469.098-.693.098-.404 0-.708-.122-.913-.367-.205-.244-.308-.59-.308-1.04v-3.276h-.962v-.698h.962v-1.279zm3.028 6.562h-.904v-5.283h.904zm-.977-6.685c0-.146.044-.27.132-.371.091-.101.225-.151.4-.151.176 0 .31.05.401.151s.136.225.136.371c0 .147-.045.269-.136.367-.091.097-.225.146-.401.146-.175 0-.309-.049-.4-.146-.088-.098-.132-.22-.132-.367zm3.281 1.402.03.664c.403-.508.931-.762 1.582-.762 1.116 0 1.679.63 1.689 1.89v3.491h-.903v-3.496c-.003-.381-.091-.663-.264-.845-.169-.182-.434-.273-.796-.273-.293 0-.55.078-.771.234-.222.156-.394.361-.518.615v3.765h-.903v-5.283zm4.449 2.597c0-.823.19-1.477.571-1.962.381-.489.885-.733 1.514-.733.644 0 1.147.228 1.508.684l.044-.586h.825v5.156c0 .684-.203 1.222-.61 1.616-.404.394-.947.591-1.631.591-.381 0-.753-.081-1.118-.244-.364-.163-.643-.386-.835-.669l.469-.542c.387.479.861.718 1.421.718.439 0 .781-.124 1.025-.371.248-.248.371-.596.371-1.045v-.454c-.361.416-.854.625-1.479.625-.619 0-1.12-.249-1.504-.747-.381-.498-.571-1.177-.571-2.037zm.908.103c0 .596.122 1.064.366 1.406.244.339.586.508 1.025.508.57 0 .988-.259 1.255-.776v-2.412c-.276-.505-.691-.757-1.245-.757-.439 0-.783.171-1.03.512-.248.342-.371.848-.371 1.519zm7.998 1.182c0-.245-.093-.433-.278-.567-.183-.136-.503-.254-.962-.351-.456-.098-.819-.215-1.089-.352-.267-.137-.466-.299-.596-.488-.127-.189-.19-.414-.19-.674 0-.433.182-.799.546-1.099.368-.299.837-.449 1.407-.449.599 0 1.084.155 1.455.464.374.309.561.705.561 1.187h-.908c0-.248-.106-.461-.317-.64-.209-.179-.472-.269-.791-.269-.329 0-.586.072-.772.215-.185.143-.278.331-.278.562 0 .218.086.382.259.493.172.111.483.216.932.317.453.101.819.222 1.099.362s.487.309.62.507c.137.196.205.435.205.718 0 .472-.189.851-.566 1.138-.378.283-.868.425-1.47.425-.423 0-.797-.075-1.123-.225s-.581-.358-.767-.625c-.182-.27-.273-.561-.273-.874h.903c.017.303.137.544.362.723.227.175.527.263.898.263.342 0 .615-.068.82-.205.209-.14.313-.325.313-.556z" fill="#000"/><rect fill="#fff" height="35" rx="3.49968" stroke="#d1dcfa" stroke-dasharray="5 5" width="61" x="211.5" y="260.5"/><path d="m233.994 272.744c-.088.752-.366 1.333-.835 1.743-.465.407-1.085.611-1.86.611-.84 0-1.514-.301-2.022-.904-.504-.602-.756-1.408-.756-2.417v-.683c0-.661.117-1.242.351-1.743.238-.502.573-.886 1.006-1.153.433-.27.934-.405 1.504-.405.755 0 1.361.212 1.816.635.456.42.721 1.002.796 1.748h-.942c-.082-.567-.259-.977-.532-1.231-.271-.254-.65-.381-1.138-.381-.599 0-1.07.222-1.411.665-.339.442-.508 1.072-.508 1.889v.689c0 .771.161 1.385.483 1.84.323.456.773.684 1.353.684.521 0 .919-.117 1.196-.352.28-.237.466-.649.557-1.235zm3.696-2.217c-.136-.022-.284-.034-.444-.034-.592 0-.994.252-1.206.757v3.75h-.903v-5.283h.879l.014.61c.296-.472.716-.708 1.26-.708.176 0 .309.023.4.069zm2.93 4.571c-.716 0-1.299-.235-1.748-.703-.449-.472-.674-1.102-.674-1.89v-.166c0-.524.1-.991.298-1.401.202-.414.482-.736.84-.967.361-.235.752-.352 1.172-.352.687 0 1.221.226 1.601.679.381.452.572 1.1.572 1.943v.376h-3.579c.013.521.164.943.454 1.265.293.319.664.478 1.113.478.319 0 .589-.065.81-.195.222-.13.416-.303.582-.518l.551.43c-.442.68-1.106 1.021-1.992 1.021zm-.112-4.737c-.365 0-.671.134-.918.401-.248.263-.401.634-.459 1.113h2.646v-.068c-.026-.459-.149-.814-.371-1.065-.221-.254-.521-.381-.898-.381zm6.484 4.639c-.052-.104-.094-.29-.127-.557-.42.437-.921.655-1.504.655-.521 0-.949-.147-1.284-.44-.332-.296-.498-.67-.498-1.123 0-.55.208-.976.625-1.279.42-.306 1.009-.459 1.768-.459h.879v-.415c0-.316-.095-.567-.284-.752-.188-.189-.467-.283-.835-.283-.322 0-.592.081-.81.244s-.327.36-.327.591h-.908c0-.264.092-.518.278-.762.189-.247.443-.443.762-.586.322-.143.675-.215 1.059-.215.609 0 1.086.153 1.431.459.345.303.524.721.537 1.255v2.432c0 .485.062.87.185 1.157v.078zm-1.499-.688c.283 0 .552-.074.806-.22.254-.147.438-.337.552-.571v-1.084h-.708c-1.107 0-1.661.323-1.661.971 0 .283.095.505.284.664.188.16.431.24.727.24zm4.903-5.874v1.279h.986v.698h-.986v3.276c0 .212.043.371.131.479.088.104.238.156.45.156.104 0 .247-.019.429-.058v.732c-.237.065-.468.098-.693.098-.404 0-.708-.122-.913-.367-.205-.244-.308-.59-.308-1.04v-3.276h-.962v-.698h.962v-1.279zm4.238 6.66c-.716 0-1.299-.235-1.748-.703-.449-.472-.674-1.102-.674-1.89v-.166c0-.524.099-.991.298-1.401.202-.414.482-.736.84-.967.361-.235.752-.352 1.171-.352.687 0 1.221.226 1.602.679.381.452.571 1.1.571 1.943v.376h-3.579c.013.521.165.943.454 1.265.293.319.664.478 1.114.478.319 0 .589-.065.81-.195.222-.13.415-.303.581-.518l.552.43c-.443.68-1.107 1.021-1.992 1.021zm-.113-4.737c-.364 0-.67.134-.917.401-.248.263-.401.634-.459 1.113h2.646v-.068c-.026-.459-.15-.814-.371-1.065-.221-.254-.521-.381-.899-.381zm-31.132 9.53 2.324 5.8 2.324-5.8h1.216v7.109h-.938v-2.769l.088-2.988-2.334 5.757h-.717l-2.33-5.742.093 2.973v2.769h-.937v-7.109zm9.57 7.207c-.716 0-1.299-.235-1.748-.703-.449-.472-.674-1.102-.674-1.89v-.166c0-.524.099-.991.298-1.401.202-.414.482-.736.84-.967.361-.235.752-.352 1.172-.352.687 0 1.22.226 1.601.679.381.452.572 1.1.572 1.943v.376h-3.58c.013.521.165.943.455 1.265.293.319.664.478 1.113.478.319 0 .589-.065.81-.195.222-.13.415-.303.581-.518l.552.43c-.443.68-1.107 1.021-1.992 1.021zm-.112-4.737c-.365 0-.671.134-.918.401-.248.263-.401.634-.459 1.113h2.646v-.068c-.026-.459-.15-.814-.371-1.065-.221-.254-.521-.381-.898-.381zm5.776.166c-.137-.022-.285-.034-.444-.034-.593 0-.995.252-1.206.757v3.75h-.904v-5.283h.879l.015.61c.296-.472.716-.708 1.26-.708.175 0 .309.023.4.069zm2.856 3.833c.323 0 .604-.097.845-.293.241-.195.375-.439.401-.732h.854c-.016.303-.12.591-.312.864-.192.274-.45.492-.772.655-.319.162-.657.244-1.016.244-.719 0-1.292-.24-1.718-.718-.423-.482-.635-1.139-.635-1.973v-.151c0-.514.094-.972.283-1.372.189-.401.459-.711.811-.933.355-.221.773-.332 1.255-.332.592 0 1.084.178 1.474.532.394.355.604.816.63 1.382h-.854c-.026-.342-.157-.622-.391-.84-.231-.221-.518-.332-.859-.332-.459 0-.816.166-1.07.498-.25.329-.376.806-.376 1.431v.171c0 .609.126 1.077.376 1.406.251.329.609.493 1.074.493zm4.019-4.004c.4-.491.921-.737 1.563-.737 1.116 0 1.679.63 1.689 1.89v3.491h-.903v-3.496c-.004-.381-.091-.663-.264-.845-.169-.182-.435-.273-.796-.273-.293 0-.55.078-.771.234-.222.156-.394.361-.518.615v3.765h-.903v-7.5h.903zm7.866 4.644c-.052-.104-.094-.29-.127-.557-.42.437-.921.655-1.504.655-.52 0-.948-.147-1.284-.44-.332-.296-.498-.67-.498-1.123 0-.55.209-.976.625-1.279.42-.306 1.009-.459 1.768-.459h.879v-.415c0-.316-.095-.567-.284-.752-.188-.189-.467-.283-.835-.283-.322 0-.592.081-.81.244s-.327.36-.327.591h-.908c0-.264.092-.518.278-.762.189-.247.443-.443.762-.586.322-.143.675-.215 1.059-.215.609 0 1.086.153 1.431.459.345.303.524.721.537 1.255v2.432c0 .485.062.87.186 1.157v.078zm-1.499-.688c.283 0 .552-.074.806-.22.254-.147.438-.337.552-.571v-1.084h-.708c-1.107 0-1.661.323-1.661.971 0 .283.095.505.284.664.188.16.431.24.727.24zm4.531-4.595.03.664c.403-.508.931-.762 1.582-.762 1.116 0 1.68.63 1.689 1.89v3.491h-.903v-3.496c-.003-.381-.091-.663-.264-.845-.169-.182-.434-.273-.796-.273-.293 0-.55.078-.771.234s-.394.361-.518.615v3.765h-.903v-5.283zm5.889-1.279v1.279h.986v.698h-.986v3.276c0 .212.044.371.132.479.088.104.238.156.449.156.104 0 .248-.019.43-.058v.732c-.238.065-.469.098-.693.098-.404 0-.708-.122-.914-.367-.205-.244-.307-.59-.307-1.04v-3.276h-.962v-.698h.962v-1.279z" fill="#000"/><rect fill="#fff" height="35" rx="3.49968" stroke="#d1dcfa" stroke-dasharray="5 5" width="61" x=".5" y="260.5"/><path d="m22.7188 271.831c-.8041-.231-1.39-.514-1.7579-.85-.3645-.338-.5468-.755-.5468-1.25 0-.559.2229-1.022.6689-1.386.4492-.368 1.0319-.552 1.7481-.552.4882 0 .9228.094 1.3037.283.3841.189.6803.449.8886.781.2116.332.3174.695.3174 1.089h-.9424c0-.429-.1367-.766-.4101-1.01-.2735-.248-.6592-.372-1.1572-.372-.4623 0-.8236.103-1.084.308-.2572.202-.3858.483-.3858.845 0 .29.1221.535.3662.737.2474.199.6657.381 1.2549.547.5925.166 1.0547.35 1.3867.552.3353.198.5827.431.7422.698.1628.267.2442.581.2442.942 0 .577-.2246 1.039-.6739 1.387-.4492.345-1.0498.518-1.8017.518-.4883 0-.944-.093-1.3672-.279-.4232-.188-.7503-.446-.9815-.771-.2278-.326-.3417-.695-.3417-1.109h.9423c0 .43.1579.77.4737 1.021.319.247.7438.371 1.2744.371.4948 0 .874-.101 1.1377-.303.2636-.202.3955-.477.3955-.825s-.1221-.617-.3662-.806c-.2442-.192-.6869-.38-1.3281-.566zm5.8935 3.267c-.7161 0-1.2988-.235-1.748-.703-.4493-.472-.6739-1.102-.6739-1.89v-.166c0-.524.0993-.991.2979-1.401.2018-.414.4818-.736.8398-.967.3614-.235.752-.352 1.1719-.352.6868 0 1.2207.226 1.6016.679.3808.452.5713 1.1.5713 1.943v.376h-3.5791c.013.521.1643.943.4541 1.265.2929.319.664.478 1.1132.478.319 0 .5892-.065.8106-.195.2213-.13.415-.303.581-.518l.5518.43c-.4427.68-1.1068 1.021-1.9922 1.021zm-.1123-4.737c-.3646 0-.6706.134-.918.401-.2474.263-.4004.634-.459 1.113h2.6465v-.068c-.026-.459-.1497-.814-.3711-1.065-.2213-.254-.5208-.381-.8984-.381zm4.0771-.644.0293.664c.4037-.508.931-.762 1.5821-.762 1.1165 0 1.6797.63 1.6894 1.89v3.491h-.9033v-3.496c-.0032-.381-.0911-.663-.2637-.845-.1692-.182-.4345-.273-.7959-.273-.2929 0-.5501.078-.7714.234-.2214.156-.3939.361-.5176.615v3.765h-.9033v-5.283zm4.4434 2.597c0-.81.1921-1.461.5762-1.953.3841-.494.887-.742 1.5088-.742.6185 0 1.1084.212 1.4697.635v-2.754h.9033v7.5h-.8301l-.0439-.566c-.3613.442-.8643.664-1.5088.664-.612 0-1.1117-.251-1.499-.752-.3841-.502-.5762-1.156-.5762-1.963zm.9033.103c0 .599.1237 1.068.3711 1.406.2474.339.5892.508 1.0254.508.5729 0 .9912-.257 1.2549-.771v-2.427c-.2702-.498-.6852-.747-1.2451-.747-.4427 0-.7878.171-1.0352.512-.2474.342-.3711.848-.3711 1.519zm-19.8486 7.474 2.3242 5.8 2.3242-5.8h1.2159v7.109h-.9375v-2.769l.0878-2.988-2.3339 5.757h-.7178l-2.3291-5.742.0928 2.973v2.769h-.9375v-7.109zm7.1387 4.419c0-.518.1009-.984.3027-1.397.2051-.413.4883-.732.8496-.957.3646-.225.7796-.337 1.2451-.337.7194 0 1.3005.249 1.7432.747.446.498.6689 1.161.6689 1.988v.063c0 .514-.0992.977-.2978 1.387-.1953.407-.4769.724-.8447.952-.3646.228-.7845.342-1.2598.342-.7162 0-1.2972-.249-1.7432-.747-.4427-.498-.664-1.158-.664-1.978zm.9082.107c0 .586.1351 1.056.4052 1.411.2735.355.6381.532 1.0938.532.459 0 .8236-.179 1.0937-.537.2702-.361.4053-.866.4053-1.513 0-.58-.1383-1.049-.415-1.407-.2735-.361-.638-.542-1.0938-.542-.4459 0-.8056.178-1.0791.533-.2734.354-.4101.862-.4101 1.523zm5.8886-2.7.0293.664c.4037-.508.931-.762 1.5821-.762 1.1165 0 1.6797.63 1.6894 1.89v3.491h-.9033v-3.496c-.0033-.381-.0911-.663-.2637-.845-.1692-.182-.4345-.273-.7959-.273-.2929 0-.5501.078-.7715.234-.2213.156-.3938.361-.5175.615v3.765h-.9034v-5.283zm6.8555 5.381c-.7161 0-1.2988-.235-1.748-.703-.4493-.472-.6739-1.102-.6739-1.89v-.166c0-.524.0993-.991.2979-1.401.2018-.414.4818-.736.8398-.967.3614-.235.752-.352 1.1719-.352.6869 0 1.2207.226 1.6016.679.3808.452.5713 1.1.5713 1.943v.376h-3.5791c.013.521.1643.943.4541 1.265.2929.319.664.478 1.1132.478.319 0 .5892-.065.8106-.195.2213-.13.415-.303.581-.518l.5518.43c-.4427.68-1.1068 1.021-1.9922 1.021zm-.1123-4.737c-.3646 0-.6706.134-.918.401-.2474.263-.4004.634-.4589 1.113h2.6464v-.068c-.026-.459-.1497-.814-.3711-1.065-.2213-.254-.5208-.381-.8984-.381zm4.8828 3.316 1.2305-3.96h.9668l-2.124 6.098c-.3288.879-.8513 1.319-1.5674 1.319l-.1709-.015-.3369-.063v-.733l.2441.02c.306 0 .5436-.062.7129-.186.1725-.123.3141-.35.4248-.678l.2002-.538-1.8848-5.224h.9864z" fill="#000"/><rect fill="#f3f2f2" height="36" rx="3.99968" width="62" x="281" y="329"/><path d="m292.08 347.217v2.783h-.937v-7.109h2.622c.778 0 1.386.198 1.826.595.443.397.664.923.664 1.577 0 .691-.217 1.223-.65 1.597-.429.371-1.046.557-1.85.557zm0-.767h1.685c.501 0 .885-.117 1.152-.351.267-.238.4-.58.4-1.026 0-.423-.133-.761-.4-1.015s-.633-.386-1.099-.396h-1.738zm8.433 3.55c-.052-.104-.095-.29-.127-.557-.42.437-.921.655-1.504.655-.521 0-.949-.147-1.284-.44-.332-.296-.498-.67-.498-1.123 0-.55.208-.976.625-1.279.42-.306 1.009-.459 1.767-.459h.879v-.415c0-.316-.094-.567-.283-.752-.189-.189-.467-.283-.835-.283-.322 0-.593.081-.811.244s-.327.36-.327.591h-.908c0-.264.093-.518.278-.762.189-.247.443-.443.762-.586.322-.143.676-.215 1.06-.215.608 0 1.085.153 1.43.459.345.303.524.721.537 1.255v2.432c0 .485.062.87.186 1.157v.078zm-1.499-.688c.283 0 .551-.074.805-.22.254-.147.438-.337.552-.571v-1.084h-.708c-1.107 0-1.66.323-1.66.971 0 .283.094.505.283.664.189.16.431.24.728.24zm5.327-.635 1.23-3.96h.967l-2.124 6.098c-.329.879-.851 1.319-1.567 1.319l-.171-.015-.337-.063v-.733l.244.02c.306 0 .544-.062.713-.186.172-.123.314-.35.425-.678l.2-.538-1.885-5.224h.986zm3.857-3.96.025.586c.387-.456.909-.684 1.567-.684.739 0 1.242.283 1.509.85.176-.254.403-.459.683-.615.284-.157.617-.235 1.001-.235 1.159 0 1.748.614 1.768 1.841v3.54h-.903v-3.486c0-.378-.087-.66-.259-.845-.173-.189-.462-.283-.869-.283-.336 0-.614.101-.835.302-.222.199-.35.468-.386.806v3.506h-.908v-3.462c0-.768-.376-1.152-1.128-1.152-.593 0-.998.252-1.216.757v3.857h-.903v-5.283zm10.113 5.381c-.717 0-1.299-.235-1.749-.703-.449-.472-.673-1.102-.673-1.89v-.166c0-.524.099-.991.298-1.401.201-.414.481-.736.839-.967.362-.235.752-.352 1.172-.352.687 0 1.221.226 1.602.679.381.452.571 1.1.571 1.943v.376h-3.579c.013.521.164.943.454 1.265.293.319.664.478 1.113.478.319 0 .59-.065.811-.195s.415-.303.581-.518l.552.43c-.443.68-1.107 1.021-1.992 1.021zm-.113-4.737c-.364 0-.67.134-.918.401-.247.263-.4.634-.459 1.113h2.647v-.068c-.026-.459-.15-.814-.371-1.065-.222-.254-.521-.381-.899-.381zm4.077-.644.03.664c.403-.508.931-.762 1.582-.762 1.116 0 1.679.63 1.689 1.89v3.491h-.903v-3.496c-.003-.381-.091-.663-.264-.845-.169-.182-.434-.273-.796-.273-.293 0-.55.078-.771.234-.222.156-.394.361-.518.615v3.765h-.903v-5.283zm5.889-1.279v1.279h.986v.698h-.986v3.276c0 .212.044.371.132.479.088.104.238.156.449.156.104 0 .248-.019.43-.058v.732c-.238.065-.469.098-.694.098-.403 0-.708-.122-.913-.367-.205-.244-.307-.59-.307-1.04v-3.276h-.962v-.698h.962v-1.279zm5.122 5.161c0-.245-.093-.433-.278-.567-.182-.136-.503-.254-.962-.351-.456-.098-.819-.215-1.089-.352-.267-.137-.465-.299-.596-.488-.127-.189-.19-.414-.19-.674 0-.433.182-.799.547-1.099.368-.299.836-.449 1.406-.449.599 0 1.084.155 1.455.464.374.309.562.705.562 1.187h-.909c0-.248-.105-.461-.317-.64-.208-.179-.472-.269-.791-.269-.329 0-.586.072-.771.215-.186.143-.279.331-.279.562 0 .218.086.382.259.493s.483.216.933.317c.452.101.818.222 1.098.362s.487.309.62.507c.137.196.205.435.205.718 0 .472-.188.851-.566 1.138-.378.283-.867.425-1.47.425-.423 0-.797-.075-1.123-.225-.325-.15-.581-.358-.766-.625-.183-.27-.274-.561-.274-.874h.904c.016.303.136.544.361.723.228.175.527.263.898.263.342 0 .616-.068.821-.205.208-.14.312-.325.312-.556z" fill="#000"/><rect fill="#fff" height="35" rx="3.49968" stroke="#d1dcfa" stroke-dasharray="5 5" width="62" x="140.5" y="329.5"/><path d="m156.183 346.831c-.804-.231-1.39-.514-1.758-.85-.365-.338-.547-.755-.547-1.25 0-.559.223-1.022.669-1.386.449-.368 1.032-.552 1.748-.552.488 0 .923.094 1.304.283.384.189.68.449.888.781.212.332.318.695.318 1.089h-.943c0-.429-.136-.766-.41-1.01-.273-.248-.659-.372-1.157-.372-.462 0-.824.103-1.084.308-.257.202-.386.483-.386.845 0 .29.122.535.366.737.248.199.666.381 1.255.547.593.166 1.055.35 1.387.552.335.198.583.431.742.698.163.267.244.581.244.942 0 .577-.224 1.039-.673 1.387-.45.345-1.05.518-1.802.518-.489 0-.944-.093-1.367-.279-.424-.188-.751-.446-.982-.771-.228-.326-.342-.695-.342-1.109h.943c0 .43.158.77.473 1.021.319.247.744.371 1.275.371.495 0 .874-.101 1.137-.303.264-.202.396-.477.396-.825s-.122-.617-.366-.806c-.244-.192-.687-.38-1.328-.566zm4.682 3.169h-.903v-5.283h.903zm-.976-6.685c0-.146.044-.27.132-.371.091-.101.224-.151.4-.151s.309.05.4.151.137.225.137.371c0 .147-.046.269-.137.367-.091.097-.224.146-.4.146s-.309-.049-.4-.146c-.088-.098-.132-.22-.132-.367zm2.212 3.999c0-.823.19-1.477.571-1.962.381-.489.885-.733 1.514-.733.644 0 1.147.228 1.508.684l.044-.586h.825v5.156c0 .684-.203 1.222-.61 1.616-.404.394-.947.591-1.631.591-.381 0-.753-.081-1.118-.244-.364-.163-.643-.386-.835-.669l.469-.542c.387.479.861.718 1.421.718.439 0 .781-.124 1.025-.371.248-.248.371-.596.371-1.045v-.454c-.361.416-.854.625-1.479.625-.619 0-1.12-.249-1.504-.747-.381-.498-.571-1.177-.571-2.037zm.908.103c0 .596.122 1.064.366 1.406.244.339.586.508 1.025.508.57 0 .988-.259 1.255-.776v-2.412c-.276-.505-.691-.757-1.245-.757-.439 0-.783.171-1.03.512-.248.342-.371.848-.371 1.519zm5.776-2.7.029.664c.404-.508.931-.762 1.582-.762 1.117 0 1.68.63 1.69 1.89v3.491h-.903v-3.496c-.004-.381-.092-.663-.264-.845-.169-.182-.435-.273-.796-.273-.293 0-.55.078-.771.234-.222.156-.394.361-.518.615v3.765h-.903v-5.283zm6.904 2.593c0-.518.101-.984.303-1.397.205-.413.488-.732.85-.957.364-.225.779-.337 1.245-.337.719 0 1.3.249 1.743.747.446.498.669 1.161.669 1.988v.063c0 .514-.099.977-.298 1.387-.195.407-.477.724-.845.952-.364.228-.784.342-1.259.342-.716 0-1.298-.249-1.743-.747-.443-.498-.665-1.158-.665-1.978zm.909.107c0 .586.135 1.056.405 1.411.273.355.638.532 1.094.532.459 0 .823-.179 1.093-.537.271-.361.406-.866.406-1.513 0-.58-.139-1.049-.415-1.407-.274-.361-.638-.542-1.094-.542-.446 0-.806.178-1.079.533-.274.354-.41.862-.41 1.523zm8.296 2.061c-.352.413-.868.62-1.548.62-.563 0-.993-.163-1.289-.489-.293-.328-.441-.813-.445-1.455v-3.437h.904v3.413c0 .801.325 1.201.976 1.201.69 0 1.149-.257 1.377-.771v-3.843h.903v5.283h-.859zm3.481-6.04v1.279h.986v.698h-.986v3.276c0 .212.044.371.132.479.088.104.237.156.449.156.104 0 .247-.019.43-.058v.732c-.238.065-.469.098-.694.098-.403 0-.708-.122-.913-.367-.205-.244-.307-.59-.307-1.04v-3.276h-.962v-.698h.962v-1.279z" fill="#000"/><rect fill="#fff" height="35" rx="3.49968" stroke="#d1dcfa" stroke-dasharray="5 5" width="61" x="211.5" y="329.5"/><path d="m223.188 340.714h-3.081v2.519h3.58v.767h-4.517v-7.109h4.468v.771h-3.531v2.285h3.081zm1.207.6c0-.81.192-1.461.576-1.953.384-.494.887-.742 1.508-.742.619 0 1.109.212 1.47.635v-2.754h.904v7.5h-.831l-.043-.566c-.362.442-.865.664-1.509.664-.612 0-1.112-.251-1.499-.752-.384-.502-.576-1.156-.576-1.963zm.903.103c0 .599.124 1.068.371 1.406.247.339.589.508 1.025.508.573 0 .992-.257 1.255-.771v-2.427c-.27-.498-.685-.747-1.245-.747-.443 0-.788.171-1.035.512-.247.342-.371.848-.371 1.519zm5.942 2.583h-.903v-5.283h.903zm-.976-6.685c0-.146.044-.27.132-.371.091-.101.224-.151.4-.151s.309.05.4.151.137.225.137.371c0 .147-.046.269-.137.367-.091.097-.224.146-.4.146s-.309-.049-.4-.146c-.088-.098-.132-.22-.132-.367zm3.652.123v1.279h.986v.698h-.986v3.276c0 .212.044.371.132.479.088.104.237.156.449.156.104 0 .247-.019.43-.058v.732c-.238.065-.469.098-.694.098-.403 0-.708-.122-.913-.367-.205-.244-.307-.59-.307-1.04v-3.276h-.962v-.698h.962v-1.279zm2.227 7.172h-.777l2.969-7.719h.771zm3.72-3.296c0-.81.192-1.461.576-1.953.385-.494.887-.742 1.509-.742.619 0 1.109.212 1.47.635v-2.754h.903v7.5h-.83l-.044-.566c-.361.442-.864.664-1.509.664-.612 0-1.111-.251-1.499-.752-.384-.502-.576-1.156-.576-1.963zm.904.103c0 .599.123 1.068.371 1.406.247.339.589.508 1.025.508.573 0 .991-.257 1.255-.771v-2.427c-.27-.498-.685-.747-1.245-.747-.443 0-.788.171-1.035.512-.248.342-.371.848-.371 1.519zm7.153 2.681c-.716 0-1.299-.235-1.748-.703-.449-.472-.674-1.102-.674-1.89v-.166c0-.524.099-.991.298-1.401.202-.414.482-.736.84-.967.361-.235.752-.352 1.172-.352.686 0 1.22.226 1.601.679.381.452.571 1.1.571 1.943v.376h-3.579c.013.521.165.943.454 1.265.293.319.665.478 1.114.478.319 0 .589-.065.81-.195.222-.13.415-.303.581-.518l.552.43c-.443.68-1.107 1.021-1.992 1.021zm-.112-4.737c-.365 0-.671.134-.918.401-.248.263-.401.634-.459 1.113h2.646v-.068c-.026-.459-.15-.814-.371-1.065-.221-.254-.521-.381-.898-.381zm4.204 4.639h-.904v-7.5h.904zm3.642.098c-.716 0-1.299-.235-1.748-.703-.449-.472-.674-1.102-.674-1.89v-.166c0-.524.1-.991.298-1.401.202-.414.482-.736.84-.967.361-.235.752-.352 1.172-.352.687 0 1.221.226 1.602.679.38.452.571 1.1.571 1.943v.376h-3.579c.013.521.164.943.454 1.265.293.319.664.478 1.113.478.319 0 .589-.065.811-.195.221-.13.415-.303.581-.518l.551.43c-.442.68-1.106 1.021-1.992 1.021zm-.112-4.737c-.365 0-.671.134-.918.401-.247.263-.4.634-.459 1.113h2.647v-.068c-.027-.459-.15-.814-.372-1.065-.221-.254-.52-.381-.898-.381zm4.448-1.923v1.279h.987v.698h-.987v3.276c0 .212.044.371.132.479.088.104.238.156.449.156.104 0 .248-.019.43-.058v.732c-.238.065-.469.098-.693.098-.404 0-.708-.122-.913-.367-.206-.244-.308-.59-.308-1.04v-3.276h-.962v-.698h.962v-1.279zm4.239 6.66c-.717 0-1.299-.235-1.749-.703-.449-.472-.673-1.102-.673-1.89v-.166c0-.524.099-.991.297-1.401.202-.414.482-.736.84-.967.362-.235.752-.352 1.172-.352.687 0 1.221.226 1.602.679.381.452.571 1.1.571 1.943v.376h-3.579c.013.521.164.943.454 1.265.293.319.664.478 1.113.478.319 0 .59-.065.811-.195s.415-.303.581-.518l.552.43c-.443.68-1.107 1.021-1.992 1.021zm-.113-4.737c-.364 0-.67.134-.918.401-.247.263-.4.634-.459 1.113h2.647v-.068c-.026-.459-.15-.814-.371-1.065-.222-.254-.521-.381-.899-.381zm-40.727 9.53 2.324 5.8 2.324-5.8h1.216v7.109h-.938v-2.769l.088-2.988-2.334 5.757h-.717l-2.33-5.742.093 2.973v2.769h-.937v-7.109zm9.57 7.207c-.716 0-1.299-.235-1.748-.703-.449-.472-.674-1.102-.674-1.89v-.166c0-.524.099-.991.298-1.401.202-.414.482-.736.84-.967.361-.235.752-.352 1.172-.352.687 0 1.22.226 1.601.679.381.452.572 1.1.572 1.943v.376h-3.58c.013.521.165.943.455 1.265.293.319.664.478 1.113.478.319 0 .589-.065.81-.195.222-.13.415-.303.581-.518l.552.43c-.443.68-1.107 1.021-1.992 1.021zm-.112-4.737c-.365 0-.671.134-.918.401-.248.263-.401.634-.459 1.113h2.646v-.068c-.026-.459-.15-.814-.371-1.065-.221-.254-.521-.381-.898-.381zm5.776.166c-.137-.022-.285-.034-.444-.034-.593 0-.995.252-1.206.757v3.75h-.904v-5.283h.879l.015.61c.296-.472.716-.708 1.26-.708.175 0 .309.023.4.069zm2.856 3.833c.323 0 .604-.097.845-.293.241-.195.375-.439.401-.732h.854c-.016.303-.12.591-.312.864-.192.274-.45.492-.772.655-.319.162-.657.244-1.016.244-.719 0-1.292-.24-1.718-.718-.423-.482-.635-1.139-.635-1.973v-.151c0-.514.094-.972.283-1.372.189-.401.459-.711.811-.933.355-.221.773-.332 1.255-.332.592 0 1.084.178 1.474.532.394.355.604.816.63 1.382h-.854c-.026-.342-.157-.622-.391-.84-.231-.221-.518-.332-.859-.332-.459 0-.816.166-1.07.498-.25.329-.376.806-.376 1.431v.171c0 .609.126 1.077.376 1.406.251.329.609.493 1.074.493zm4.019-4.004c.4-.491.921-.737 1.563-.737 1.116 0 1.679.63 1.689 1.89v3.491h-.903v-3.496c-.004-.381-.091-.663-.264-.845-.169-.182-.435-.273-.796-.273-.293 0-.55.078-.771.234-.222.156-.394.361-.518.615v3.765h-.903v-7.5h.903zm7.866 4.644c-.052-.104-.094-.29-.127-.557-.42.437-.921.655-1.504.655-.52 0-.948-.147-1.284-.44-.332-.296-.498-.67-.498-1.123 0-.55.209-.976.625-1.279.42-.306 1.009-.459 1.768-.459h.879v-.415c0-.316-.095-.567-.284-.752-.188-.189-.467-.283-.835-.283-.322 0-.592.081-.81.244s-.327.36-.327.591h-.908c0-.264.092-.518.278-.762.189-.247.443-.443.762-.586.322-.143.675-.215 1.059-.215.609 0 1.086.153 1.431.459.345.303.524.721.537 1.255v2.432c0 .485.062.87.186 1.157v.078zm-1.499-.688c.283 0 .552-.074.806-.22.254-.147.438-.337.552-.571v-1.084h-.708c-1.107 0-1.661.323-1.661.971 0 .283.095.505.284.664.188.16.431.24.727.24zm4.531-4.595.03.664c.403-.508.931-.762 1.582-.762 1.116 0 1.68.63 1.689 1.89v3.491h-.903v-3.496c-.003-.381-.091-.663-.264-.845-.169-.182-.434-.273-.796-.273-.293 0-.55.078-.771.234s-.394.361-.518.615v3.765h-.903v-5.283zm5.889-1.279v1.279h.986v.698h-.986v3.276c0 .212.044.371.132.479.088.104.238.156.449.156.104 0 .248-.019.43-.058v.732c-.238.065-.469.098-.693.098-.404 0-.708-.122-.914-.367-.205-.244-.307-.59-.307-1.04v-3.276h-.962v-.698h.962v-1.279z" fill="#000"/><g fill="#b1abf9"><circle cx="280" cy="209" r="2" transform="matrix(0 1 -1 0 489 -71)"/><path d="m278.816 208.7-1.449-.05-.035 1 1.45.05zm-4.349-.15-1.45-.05-.034 1 1.45.05z"/><path d="m211.024 208.701-2-.05-.048.998 2 .05zm-6-.15-2-.05-.048.998 2 .05z"/><path d="m140.024 208.701-2-.05-.048.998 2 .05zm-6-.15-2-.05-.048.998 2 .05z"/><path d="m70.0238 208.701-2-.05-.0476.998 2 .05zm-6.0001-.15-2-.05-.0475.998 2 .05z"/><circle cx="313" cy="229" r="2"/><path d="m313 260 2.887-5h-5.774zm-.5-30v25.5h1v-25.5z"/><circle cx="242" cy="229" r="2"/><path d="m242 260 2.887-5h-5.774zm-.5-30v25.5h1v-25.5z"/><circle cx="171" cy="229" r="2"/><path d="m171 260 2.887-5h-5.774zm-.5-30v25.5h1v-25.5z"/><circle cx="101" cy="229" r="2"/><path d="m101 260 2.887-5h-5.7738zm-.5-30v25.5h1v-25.5z"/><circle cx="31" cy="229" r="2"/><path d="m31 260 2.8868-5h-5.7736zm-.5-30v25.5h1v-25.5z"/><circle cx="313" cy="298" r="2"/><path d="m312.5 299v2.5h1v-2.5zm0 7.5v5h1v-5zm0 10v5h1v-5zm0 10v2.5h1v-2.5z"/><circle cx="242" cy="298" r="2"/><path d="m241.5 299v2.5h1v-2.5zm0 7.5v5h1v-5zm0 10v5h1v-5zm0 10v2.5h1v-2.5z"/><circle cx="171" cy="298" r="2"/><path d="m170.5 299v2.5h1v-2.5zm0 7.5v5h1v-5zm0 10v5h1v-5zm0 10v2.5h1v-2.5z"/></g><rect fill="#fcb0b0" height="28" rx="3.99968" width="77" x="130"/><path d="m155.976 14.2168v2.7832h-.938v-7.10938h2.622c.778 0 1.387.19858 1.826.59568.443.3972.664.9229.664 1.5772 0 .6901-.216 1.2223-.649 1.5967-.43.371-1.047.5566-1.851.5566zm0-.7666h1.684c.501 0 .886-.1172 1.152-.3516.267-.2376.401-.5794.401-1.0254 0-.4231-.134-.7617-.401-1.0156-.266-.2539-.633-.3857-1.098-.3955h-1.738zm7.783-.9229c-.137-.0227-.285-.0341-.445-.0341-.592 0-.994.2522-1.206.7568v3.75h-.903v-5.2832h.879l.015.6103c.296-.472.716-.708 1.259-.708.176 0 .31.0228.401.0684zm.498 1.7823c0-.5176.101-.9831.303-1.3965.205-.4134.488-.7324.849-.957.365-.2247.78-.337 1.245-.337.72 0 1.301.2491 1.743.7471.446.4981.669 1.1605.669 1.9873v.0635c0 .5143-.099.9766-.297 1.3867-.196.4069-.477.7243-.845.9522-.365.2278-.785.3418-1.26.3418-.716 0-1.297-.2491-1.743-.7471-.443-.4981-.664-1.1572-.664-1.9776zm.908.1074c0 .5859.135 1.0563.405 1.4111.274.3548.638.5323 1.094.5323.459 0 .824-.1791 1.094-.5372.27-.3613.405-.8658.405-1.5136 0-.5795-.138-1.0482-.415-1.4063-.273-.3613-.638-.542-1.094-.542-.446 0-.805.1774-1.079.5323-.273.3548-.41.8626-.41 1.5234zm5.337 2.583v-4.585h-.835v-.6982h.835v-.4492c0-.5892.168-1.0482.503-1.37698.338-.32877.815-.49316 1.431-.49316.364 0 .825.09928 1.381.29785l-.151.76169c-.407-.1627-.794-.2441-1.162-.2441-.387 0-.667.0879-.84.2637-.169.1725-.254.4329-.254.7812v.459h1.079v.6982h-1.079v4.585zm3.765 0h-.909v-5.2832h.909zm2.451 0h-.904v-7.5h.904zm3.642.0977c-.716 0-1.298-.2344-1.748-.7032-.449-.472-.674-1.1019-.674-1.8896v-.166c0-.5241.1-.9912.298-1.4014.202-.4134.482-.7357.84-.9668.362-.2344.752-.3516 1.172-.3516.687 0 1.221.2263 1.602.6788.38.4524.571 1.1002.571 1.9433v.376h-3.579c.013.5208.164.9424.454 1.2646.293.319.664.4786 1.113.4786.319 0 .589-.0652.811-.1954.221-.1302.415-.3027.581-.5175l.552.4296c-.443.6804-1.107 1.0206-1.993 1.0206zm-.112-4.7364c-.365 0-.671.1335-.918.4004-.247.2637-.4.6348-.459 1.1133h2.647v-.0684c-.026-.4589-.15-.8138-.372-1.0644-.221-.2539-.52-.3809-.898-.3809z" fill="#000"/><rect fill="#fff" height="27" rx="3.49968" stroke="#d1dcfa" stroke-dasharray="5 5" width="76.0979" x="130.675" y="61.5"/><path d="m145.457 78v-7.1094h2.324c.772 0 1.351.1595 1.739.4785.39.3191.586.7911.586 1.4161 0 .332-.095.6266-.284.8837-.188.254-.446.4509-.771.5909.384.1074.687.3125.908.6152.225.2995.337.6576.337 1.0742 0 .638-.207 1.1393-.62 1.5039-.414.3646-.998.5469-1.753.5469zm.938-3.3252v2.5586h1.547c.437 0 .78-.1123 1.031-.3369.254-.2279.381-.5404.381-.9375 0-.8561-.466-1.2842-1.397-1.2842zm0-.7519h1.416c.41 0 .737-.1026.981-.3077.247-.205.371-.4834.371-.8349 0-.3907-.114-.6739-.342-.8496-.227-.1791-.574-.2686-1.04-.2686h-1.386zm8.413 3.5546c-.352.4135-.868.6202-1.548.6202-.563 0-.993-.1628-1.289-.4883-.293-.3288-.441-.8138-.445-1.4551v-3.4375h.904v3.4131c0 .8008.325 1.2012.976 1.2012.69 0 1.149-.2572 1.377-.7715v-3.8428h.904v5.2832h-.86zm3.984-.8007 1.231-3.96h.966l-2.124 6.0986c-.328.8789-.851 1.3184-1.567 1.3184l-.171-.0147-.337-.0634v-.7325l.244.0196c.306 0 .544-.0619.713-.1856.173-.1237.314-.3499.425-.6787l.2-.5371-1.885-5.2246h.987zm10.859-.9327c-.087.752-.366 1.333-.834 1.7432-.466.4069-1.086.6104-1.861.6104-.84 0-1.514-.3012-2.021-.9034-.505-.6022-.757-1.4078-.757-2.417v-.6835c0-.6609.117-1.2419.351-1.7432.238-.5013.573-.8854 1.006-1.1524.433-.2701.934-.4052 1.504-.4052.755 0 1.361.2116 1.817.6347.455.42.721 1.0026.795 1.7481h-.942c-.081-.5664-.259-.9766-.532-1.2305-.27-.2539-.65-.3808-1.138-.3808-.599 0-1.069.2213-1.411.664-.339.4427-.508 1.0726-.508 1.8897v.6884c0 .7715.161 1.3851.484 1.8409.322.4557.773.6836 1.352.6836.521 0 .92-.1172 1.196-.3516.28-.2376.466-.6494.557-1.2354zm3.697-2.2168c-.137-.0227-.285-.0341-.445-.0341-.592 0-.994.2522-1.206.7568v3.75h-.903v-5.2832h.879l.015.6103c.296-.472.716-.708 1.259-.708.176 0 .31.0228.401.0684zm2.651 3.1495 1.231-3.96h.966l-2.124 6.0986c-.328.8789-.851 1.3184-1.567 1.3184l-.171-.0147-.337-.0634v-.7325l.244.0196c.306 0 .544-.0619.713-.1856.173-.1237.314-.3499.425-.6787l.2-.5371-1.885-5.2246h.987zm7.471-1.2598c0 .804-.184 1.4518-.552 1.9434-.368.4915-.866.7373-1.494.7373-.641 0-1.146-.2035-1.514-.6104v2.5439h-.903v-7.3144h.825l.044.5859c.368-.4557.879-.6836 1.533-.6836.635 0 1.136.2393 1.504.7178.371.4785.557 1.1442.557 1.9971zm-.903-.1025c0-.5957-.127-1.0661-.381-1.4112-.254-.345-.603-.5176-1.045-.5176-.547 0-.957.2426-1.231.7276v2.5244c.27.4818.684.7227 1.24.7227.433 0 .777-.1709 1.031-.5127.257-.3451.386-.8562.386-1.5332zm3.281-3.877v1.2793h.986v.6982h-.986v3.2764c0 .2116.044.3711.132.4785.087.1042.237.1563.449.1563.104 0 .247-.0196.429-.0586v.7324c-.237.0651-.468.0977-.693.0977-.404 0-.708-.1221-.913-.3663-.205-.2441-.308-.5908-.308-1.04v-3.2764h-.961v-.6982h.961v-1.2793zm1.709 3.8721c0-.5176.101-.9831.302-1.3965.206-.4134.489-.7324.85-.957.365-.2247.78-.337 1.245-.337.72 0 1.301.2491 1.743.7471.446.4981.669 1.1605.669 1.9873v.0635c0 .5143-.099.9766-.298 1.3867-.195.4069-.476.7243-.844.9522-.365.2278-.785.3418-1.26.3418-.716 0-1.297-.2491-1.743-.7471-.443-.4981-.664-1.1572-.664-1.9776zm.908.1074c0 .5859.135 1.0563.405 1.4111.274.3548.638.5323 1.094.5323.459 0 .824-.1791 1.094-.5372.27-.3613.405-.8658.405-1.5136 0-.5795-.138-1.0482-.415-1.4063-.273-.3613-.638-.542-1.094-.542-.446 0-.805.1774-1.079.5323-.273.3548-.41.8626-.41 1.5234z" fill="#000"/><circle cx="168" cy="90.9459" fill="#b1abf9" r="1.94595" transform="matrix(0 1 -1 0 258.9459 -77.0541)"/><path d="m192 121.433 2.887-5h-5.774zm-24.5-30.4865v11.2435h1v-11.2435zm4.5 15.7435h16v-1h-16zm19.5 3.499v6.744h1v-6.744zm-3.5-3.499c1.933 0 3.5 1.567 3.5 3.499h1c0-2.485-2.014-4.499-4.5-4.499zm-20.5-4.5c0 2.485 2.015 4.5 4.5 4.5v-1c-1.933 0-3.5-1.567-3.5-3.5z" fill="#b1abf9"/><path d="m144 121-2.887-5h5.774zm24.5-30v11h-1v-11zm-4.5 15.5h-16v-1h16zm-19.5 3.5v6.5h-1v-6.5zm3.5-3.5c-1.933 0-3.5 1.567-3.5 3.5h-1c0-2.485 2.015-4.5 4.5-4.5zm20.5-4.5c0 2.485-2.015 4.5-4.5 4.5v-1c1.933 0 3.5-1.567 3.5-3.5z" fill="#b1abf9"/><rect fill="#d1dcfa" height="28" rx="3.99968" width="77.0979" x="80" y="122"/><path d="m105.167 135.831c-.805-.231-1.39-.514-1.758-.85-.365-.338-.547-.755-.547-1.25 0-.559.223-1.022.669-1.386.449-.368 1.032-.552 1.748-.552.488 0 .923.094 1.304.283.384.189.68.449.888.781.212.332.318.695.318 1.089h-.943c0-.429-.137-.766-.41-1.01-.273-.248-.659-.372-1.157-.372-.462 0-.824.103-1.084.308-.257.202-.386.483-.386.845 0 .29.122.535.366.737.248.199.666.381 1.255.547.593.166 1.055.35 1.387.552.335.198.583.431.742.698.163.267.244.581.244.942 0 .577-.224 1.039-.674 1.387-.449.345-1.049.518-1.801.518-.489 0-.944-.093-1.368-.279-.423-.188-.75-.446-.981-.771-.228-.326-.342-.695-.342-1.109h.943c0 .43.157.77.473 1.021.319.247.744.371 1.275.371.494 0 .874-.101 1.137-.303.264-.202.396-.477.396-.825s-.122-.617-.366-.806c-.245-.192-.687-.38-1.328-.566zm4.682 3.169h-.903v-5.283h.903zm-.976-6.685c0-.146.044-.27.131-.371.092-.101.225-.151.401-.151s.309.05.4.151.137.225.137.371c0 .147-.046.269-.137.367-.091.097-.224.146-.4.146s-.309-.049-.401-.146c-.087-.098-.131-.22-.131-.367zm2.211 3.999c0-.823.191-1.477.572-1.962.381-.489.885-.733 1.513-.733.645 0 1.148.228 1.509.684l.044-.586h.825v5.156c0 .684-.203 1.222-.61 1.616-.404.394-.947.591-1.631.591-.381 0-.753-.081-1.118-.244s-.643-.386-.835-.669l.469-.542c.387.479.861.718 1.421.718.439 0 .781-.124 1.025-.371.247-.248.371-.596.371-1.045v-.454c-.361.416-.854.625-1.479.625-.619 0-1.12-.249-1.504-.747-.381-.498-.572-1.177-.572-2.037zm.909.103c0 .596.122 1.064.366 1.406.244.339.586.508 1.025.508.57 0 .988-.259 1.255-.776v-2.412c-.277-.505-.692-.757-1.245-.757-.439 0-.783.171-1.03.512-.248.342-.371.848-.371 1.519zm5.776-2.7.029.664c.404-.508.931-.762 1.582-.762 1.117 0 1.68.63 1.69 1.89v3.491h-.903v-3.496c-.004-.381-.092-.663-.264-.845-.169-.182-.435-.273-.796-.273-.293 0-.55.078-.772.234-.221.156-.393.361-.517.615v3.765h-.903v-5.283zm10.405 4.761c-.351.413-.867.62-1.548.62-.563 0-.992-.163-1.289-.489-.293-.328-.441-.813-.444-1.455v-3.437h.903v3.413c0 .801.326 1.201.977 1.201.69 0 1.149-.257 1.377-.771v-3.843h.903v5.283h-.859zm6.719-2.061c0 .804-.184 1.452-.552 1.943-.368.492-.866.738-1.494.738-.641 0-1.146-.204-1.514-.611v2.544h-.903v-7.314h.825l.044.586c.368-.456.879-.684 1.534-.684.634 0 1.136.239 1.503.718.372.478.557 1.144.557 1.997zm-.903-.103c0-.595-.127-1.066-.381-1.411s-.602-.517-1.045-.517c-.547 0-.957.242-1.231.727v2.525c.271.481.684.722 1.241.722.433 0 .776-.171 1.03-.512.257-.345.386-.856.386-1.534z" fill="#000"/><rect fill="#d1dcfa" height="28" rx="3.99968" width="77" x="178" y="122"/><path d="m205.943 138.233h3.369v.767h-4.311v-7.109h.942zm4.058-1.923c0-.518.101-.984.303-1.397.205-.413.488-.732.849-.957.365-.225.78-.337 1.245-.337.72 0 1.301.249 1.744.747.446.498.669 1.161.669 1.988v.063c0 .514-.1.977-.298 1.387-.196.407-.477.724-.845.952-.365.228-.785.342-1.26.342-.716 0-1.297-.249-1.743-.747-.443-.498-.664-1.158-.664-1.978zm.908.107c0 .586.135 1.056.405 1.411.274.355.638.532 1.094.532.459 0 .824-.179 1.094-.537.27-.361.405-.866.405-1.513 0-.58-.138-1.049-.415-1.407-.273-.361-.638-.542-1.094-.542-.446 0-.805.178-1.079.533-.273.354-.41.862-.41 1.523zm4.82-.103c0-.823.19-1.477.571-1.962.381-.489.885-.733 1.513-.733.645 0 1.148.228 1.509.684l.044-.586h.825v5.156c0 .684-.203 1.222-.61 1.616-.404.394-.947.591-1.631.591-.381 0-.753-.081-1.118-.244s-.643-.386-.835-.669l.469-.542c.387.479.861.718 1.421.718.439 0 .781-.124 1.025-.371.248-.248.371-.596.371-1.045v-.454c-.361.416-.854.625-1.479.625-.619 0-1.12-.249-1.504-.747-.381-.498-.571-1.177-.571-2.037zm.908.103c0 .596.122 1.064.366 1.406.244.339.586.508 1.025.508.57 0 .988-.259 1.255-.776v-2.412c-.276-.505-.692-.757-1.245-.757-.439 0-.783.171-1.03.512-.248.342-.371.848-.371 1.519zm5.903 2.583h-.903v-5.283h.903zm-.977-6.685c0-.146.044-.27.132-.371.091-.101.225-.151.401-.151.175 0 .309.05.4.151s.137.225.137.371c0 .147-.046.269-.137.367-.091.097-.225.146-.4.146-.176 0-.31-.049-.401-.146-.088-.098-.132-.22-.132-.367zm3.282 1.402.029.664c.404-.508.931-.762 1.582-.762 1.117 0 1.68.63 1.69 1.89v3.491h-.904v-3.496c-.003-.381-.091-.663-.263-.845-.17-.182-.435-.273-.796-.273-.293 0-.551.078-.772.234s-.394.361-.517.615v3.765h-.904v-5.283z" fill="#000"/><g fill="#b1abf9"><circle cx="168" cy="30" r="2" transform="matrix(0 1 -1 0 198 -138)"/><path d="m168 61 2.887-5h-5.774zm-.5-32v27.5h1v-27.5z"/><circle cx="115.945" cy="151.945" r="1.945" transform="matrix(0 1 -1 0 267.89 36)"/><path d="m115.5 152.433v15.061h1v-15.061zm4.5 19.56h156.483v-1h-156.483zm-4.5-4.499c0 2.485 2.015 4.499 4.5 4.499v-1c-1.933 0-3.5-1.567-3.5-3.499z"/><circle cx="213.945" cy="151.945" r="1.945" transform="matrix(0 1 -1 0 365.89 -62)"/><path d="m312.646 191.354c.196.195.512.195.708 0l3.182-3.182c.195-.196.195-.512 0-.708-.196-.195-.512-.195-.708 0l-2.828 2.829-2.828-2.829c-.196-.195-.512-.195-.708 0-.195.196-.195.512 0 .708zm-99.646-39.354v15.5h1v-15.5zm4.5 20h91.5v-1h-91.5zm95 3.5v15.5h1v-15.5zm-3.5-3.5c1.933 0 3.5 1.567 3.5 3.5h1c0-2.485-2.015-4.5-4.5-4.5zm-96-4.5c0 2.485 2.015 4.5 4.5 4.5v-1c-1.933 0-3.5-1.567-3.5-3.5z"/></g></svg>