<svg fill="none" height="340" viewBox="0 0 1232 340" width="1232" xmlns="http://www.w3.org/2000/svg"><rect height="43" rx="9.5" stroke="#d1dcfa" stroke-dasharray="4 4" width="206" x="788.5" y="74.5"/><path d="m847.749 97.8418c-.123 1.0527-.513 1.8662-1.169 2.4402-.652.57-1.52.855-2.604.855-1.176 0-2.12-.422-2.83-1.2649-.707-.8431-1.06-1.9711-1.06-3.3838v-.9571c0-.9251.164-1.7386.492-2.4404.333-.7018.802-1.2396 1.408-1.6133.606-.3782 1.308-.5673 2.106-.5673 1.057 0 1.905.2962 2.543.8886.638.5879 1.009 1.4037 1.114 2.4473h-1.319c-.114-.793-.363-1.3672-.745-1.7227-.379-.3554-.91-.5332-1.593-.5332-.839 0-1.497.3099-1.976.9297-.474.6198-.711 1.5016-.711 2.6455v.9639c0 1.0801.226 1.9391.677 2.5771.451.6381 1.082.9566 1.894.9566.729 0 1.287-.1636 1.674-.4917.392-.3327.652-.9092.78-1.7295zm5.175-3.1035c-.192-.0319-.399-.0479-.622-.0479-.83 0-1.392.3532-1.689 1.0596v5.25h-1.264v-7.3965h1.23l.021.8545c.414-.6608 1.002-.9912 1.763-.9912.246 0 .433.0319.561.0957zm4.101 6.3987c-1.002 0-1.818-.328-2.447-.985-.629-.6605-.943-1.5423-.943-2.6452v-.2324c0-.7337.139-1.3877.417-1.9619.282-.5788.674-1.0299 1.176-1.3535.505-.3281 1.052-.4922 1.64-.4922.962 0 1.709.3167 2.242.9502.534.6335.8 1.5404.8 2.7207v.5264h-5.011c.019.7291.231 1.3193.636 1.7705.41.4466.93.6694 1.559.6694.446 0 .825-.091 1.135-.2729.309-.1823.581-.4239.813-.7247l.772.6016c-.619.952-1.549 1.429-2.789 1.429zm-.157-6.6311c-.51 0-.939.1868-1.285.5605-.346.3691-.561.8887-.643 1.5586h3.706v-.0957c-.037-.6426-.21-1.1393-.52-1.4902-.31-.3555-.729-.5332-1.258-.5332zm9.078 6.4941c-.073-.146-.132-.406-.177-.779-.588.61-1.29.916-2.106.916-.729 0-1.328-.205-1.798-.616-.465-.414-.697-.9383-.697-1.5718 0-.7702.292-1.3672.875-1.791.588-.4284 1.413-.6426 2.475-.6426h1.23v-.581c0-.4421-.132-.793-.396-1.0528-.265-.2643-.654-.3964-1.169-.3964-.452 0-.83.1139-1.135.3417-.305.2279-.458.5036-.458.8272h-1.272c0-.3691.13-.7246.39-1.0664.264-.3464.62-.6198 1.066-.8203.452-.2005.946-.3008 1.484-.3008.852 0 1.52.2142 2.003.6426.483.4238.733 1.0094.752 1.7568v3.4043c0 .679.086 1.2195.259 1.6205v.109zm-2.098-.964c.396 0 .772-.1024 1.128-.3075.355-.2051.613-.4717.772-.7998v-1.5176h-.991c-1.55 0-2.324.4535-2.324 1.3604 0 .3965.132.7064.396.9297s.604.3348 1.019.3348zm6.863-8.2235v1.791h1.381v.9776h-1.381v4.5869c0 .2962.061.5195.185.6699.123.1458.332.2191.628.2191.146 0 .347-.028.602-.0824v1.0254c-.333.091-.656.137-.971.137-.565 0-.991-.171-1.278-.513s-.431-.8271-.431-1.456v-4.5869h-1.346v-.9776h1.346v-1.791zm5.934 9.3245c-1.003 0-1.819-.328-2.448-.985-.629-.6605-.943-1.5423-.943-2.6452v-.2324c0-.7337.139-1.3877.417-1.9619.282-.5788.674-1.0299 1.176-1.3535.506-.3281 1.052-.4922 1.64-.4922.962 0 1.709.3167 2.242.9502.534.6335.8 1.5404.8 2.7207v.5264h-5.01c.018.7291.23 1.3193.635 1.7705.41.4466.93.6694 1.559.6694.447 0 .825-.091 1.135-.2729.31-.1823.581-.4239.813-.7247l.773.6016c-.62.952-1.55 1.429-2.789 1.429zm-.158-6.6311c-.51 0-.938.1868-1.285.5605-.346.3691-.56.8887-.642 1.5586h3.705v-.0957c-.037-.6426-.21-1.1393-.52-1.4902-.31-.3555-.729-.5332-1.258-.5332zm9.878-3.459 3.254 8.1211 3.254-8.1211h1.702v9.9531h-1.312v-3.876l.123-4.1836-3.268 8.0596h-1.005l-3.26-8.0391.129 4.1631v3.876h-1.312v-9.9531zm13.399 10.0901c-1.003 0-1.819-.328-2.448-.985-.628-.6605-.943-1.5423-.943-2.6452v-.2324c0-.7337.139-1.3877.417-1.9619.283-.5788.675-1.0299 1.176-1.3535.506-.3281 1.053-.4922 1.64-.4922.962 0 1.709.3167 2.243.9502.533.6335.799 1.5404.799 2.7207v.5264h-5.01c.018.7291.23 1.3193.635 1.7705.411.4466.93.6694 1.559.6694.447 0 .825-.091 1.135-.2729.31-.1823.581-.4239.813-.7247l.773.6016c-.62.952-1.55 1.429-2.789 1.429zm-.158-6.6311c-.51 0-.938.1868-1.285.5605-.346.3691-.56.8887-.642 1.5586h3.705v-.0957c-.037-.6426-.21-1.1393-.52-1.4902-.31-.3555-.729-.5332-1.258-.5332zm8.087.2324c-.191-.0319-.398-.0479-.622-.0479-.829 0-1.392.3532-1.688 1.0596v5.25h-1.265v-7.3965h1.231l.02.8545c.415-.6608 1.003-.9912 1.764-.9912.246 0 .433.0319.56.0957zm3.999 5.3657c.452 0 .846-.1362 1.183-.4097.337-.2734.524-.6152.561-1.0254h1.196c-.023.4239-.169.8272-.438 1.21-.269.3831-.629.6881-1.08.9161-.446.228-.92.342-1.422.342-1.007 0-1.809-.335-2.406-1.005-.592-.6746-.889-1.5952-.889-2.7619v-.2119c0-.72.133-1.3603.397-1.9209.264-.5605.643-.9958 1.135-1.3057.496-.3099 1.082-.4648 1.757-.4648.829 0 1.517.2484 2.064.7451.551.4968.845 1.1416.882 1.9346h-1.196c-.037-.4785-.219-.8705-.547-1.1758-.324-.3099-.725-.4648-1.203-.4648-.643 0-1.142.2324-1.498.6972-.35.4603-.526 1.128-.526 2.003v.2392c0 .8522.176 1.5085.526 1.9688.351.4602.853.6899 1.504.6899zm5.626-5.605c.561-.6881 1.29-1.0322 2.188-1.0322 1.563 0 2.351.8818 2.365 2.6455v4.8877h-1.265v-4.8945c-.004-.5332-.127-.9274-.369-1.1826-.237-.2553-.608-.3829-1.114-.3829-.41 0-.77.1094-1.08.3282-.31.2187-.551.5058-.725.8613v5.2705h-1.264v-10.5h1.264zm11.013 6.501c-.073-.146-.132-.406-.178-.779-.588.61-1.289.916-2.105.916-.729 0-1.329-.205-1.798-.616-.465-.414-.697-.9383-.697-1.5718 0-.7702.291-1.3672.875-1.791.588-.4284 1.412-.6426 2.474-.6426h1.231v-.581c0-.4421-.132-.793-.397-1.0528-.264-.2643-.654-.3964-1.169-.3964-.451 0-.829.1139-1.134.3417-.306.2279-.458.5036-.458.8272h-1.272c0-.3691.13-.7246.39-1.0664.264-.3464.62-.6198 1.066-.8203.451-.2005.946-.3008 1.484-.3008.852 0 1.519.2142 2.003.6426.483.4238.733 1.0094.751 1.7568v3.4043c0 .679.087 1.2195.26 1.6205v.109zm-2.099-.964c.397 0 .773-.1024 1.128-.3075.356-.2051.613-.4717.773-.7998v-1.5176h-.991c-1.55 0-2.325.4535-2.325 1.3604 0 .3965.133.7064.397.9297s.604.3348 1.018.3348zm6.344-6.4325.041.9297c.565-.7109 1.304-1.0664 2.215-1.0664 1.563 0 2.352.8818 2.365 2.6455v4.8877h-1.264v-4.8945c-.005-.5332-.128-.9274-.37-1.1826-.237-.2553-.608-.3829-1.114-.3829-.41 0-.77.1094-1.08.3282-.31.2187-.551.5058-.724.8613v5.2705h-1.265v-7.3965zm8.244-1.791v1.791h1.381v.9776h-1.381v4.5869c0 .2962.062.5195.185.6699.123.1458.333.2191.629.2191.146 0 .346-.028.601-.0824v1.0254c-.332.091-.656.137-.97.137-.565 0-.992-.171-1.279-.513s-.43-.8271-.43-1.456v-4.5869h-1.347v-.9776h1.347v-1.791z" fill="#000"/><rect height="43" rx="9.5" stroke="#d1dcfa" stroke-dasharray="4 4" width="206" x="788.5" y="148.5"/><path d="m846.724 171.104v3.896h-1.313v-9.953h3.671c1.089 0 1.941.278 2.557.834.619.556.929 1.292.929 2.208 0 .966-.303 1.711-.909 2.235-.601.52-1.465.78-2.591.78zm0-1.074h2.358c.702 0 1.24-.164 1.613-.492.374-.333.561-.811.561-1.435 0-.593-.187-1.067-.561-1.422-.373-.356-.886-.54-1.538-.554h-2.433zm10.896-1.292c-.191-.032-.399-.048-.622-.048-.829 0-1.392.354-1.688 1.06v5.25h-1.265v-7.396h1.23l.021.854c.415-.661 1.003-.991 1.764-.991.246 0 .433.032.56.095zm.697 2.495c0-.724.142-1.376.424-1.955.287-.578.684-1.025 1.19-1.34.51-.314 1.091-.471 1.743-.471 1.007 0 1.82.348 2.44 1.046.625.697.937 1.624.937 2.782v.089c0 .72-.139 1.367-.417 1.941-.274.57-.668 1.014-1.183 1.333-.51.319-1.098.479-1.763.479-1.003 0-1.817-.349-2.441-1.046-.62-.697-.93-1.62-.93-2.769zm1.272.151c0 .82.189 1.479.567 1.975.383.497.893.745 1.532.745.642 0 1.152-.25 1.531-.751.378-.506.567-1.213.567-2.12 0-.811-.194-1.467-.581-1.968-.383-.506-.893-.759-1.531-.759-.625 0-1.128.248-1.511.745s-.574 1.208-.574 2.133zm7.472 3.616v-6.419h-1.169v-.977h1.169v-.629c0-.825.234-1.468.704-1.928.474-.46 1.141-.691 2.003-.691.51 0 1.155.139 1.934.417l-.212 1.067c-.569-.228-1.112-.342-1.627-.342-.542 0-.934.123-1.175.369-.237.242-.356.606-.356 1.094v.643h1.511v.977h-1.511v6.419zm5.27 0h-1.271v-7.396h1.271zm3.432 0h-1.265v-10.5h1.265zm5.099.137c-1.002 0-1.818-.328-2.447-.985-.629-.66-.943-1.542-.943-2.645v-.233c0-.733.139-1.387.417-1.962.282-.578.674-1.029 1.175-1.353.506-.328 1.053-.492 1.641-.492.962 0 1.709.317 2.242.95s.8 1.54.8 2.721v.526h-5.011c.019.729.23 1.319.636 1.771.41.446.93.669 1.559.669.446 0 .825-.091 1.134-.273.31-.182.581-.424.814-.725l.772.602c-.619.952-1.549 1.429-2.789 1.429zm-.157-6.631c-.51 0-.939.187-1.285.56-.346.37-.561.889-.643 1.559h3.705v-.096c-.036-.642-.209-1.139-.519-1.49-.31-.355-.729-.533-1.258-.533zm12.291 4.532c0-.342-.13-.606-.39-.793-.255-.191-.704-.355-1.346-.492-.638-.137-1.146-.301-1.525-.492-.373-.192-.651-.42-.834-.684-.177-.264-.266-.579-.266-.943 0-.606.255-1.119.765-1.538.515-.42 1.172-.629 1.969-.629.839 0 1.518.216 2.037.649.524.433.786.987.786 1.661h-1.271c0-.346-.148-.645-.444-.895-.292-.251-.661-.376-1.108-.376-.46 0-.82.1-1.08.301-.26.2-.39.462-.39.786 0 .305.121.535.363.69.241.155.676.303 1.305.445.634.141 1.147.309 1.538.505.392.196.682.433.869.711.191.274.287.609.287 1.005 0 .661-.265 1.192-.793 1.593-.529.396-1.215.595-2.058.595-.592 0-1.116-.105-1.572-.315-.456-.209-.814-.501-1.073-.875-.256-.378-.383-.786-.383-1.223h1.264c.023.423.192.761.506 1.011.319.246.739.369 1.258.369.479 0 .861-.095 1.149-.287.291-.196.437-.455.437-.779zm5.982 2.099c-1.003 0-1.819-.328-2.448-.985-.629-.66-.943-1.542-.943-2.645v-.233c0-.733.139-1.387.417-1.962.282-.578.674-1.029 1.176-1.353.506-.328 1.052-.492 1.64-.492.962 0 1.709.317 2.242.95.534.633.8 1.54.8 2.721v.526h-5.01c.018.729.23 1.319.635 1.771.41.446.93.669 1.559.669.447 0 .825-.091 1.135-.273s.581-.424.813-.725l.773.602c-.62.952-1.55 1.429-2.789 1.429zm-.158-6.631c-.51 0-.938.187-1.285.56-.346.37-.56.889-.642 1.559h3.705v-.096c-.037-.642-.21-1.139-.52-1.49-.31-.355-.729-.533-1.258-.533zm6.228-2.694v1.792h1.381v.977h-1.381v4.587c0 .296.061.52.184.67.123.146.333.219.629.219.146 0 .347-.028.602-.082v1.025c-.333.091-.656.137-.971.137-.565 0-.991-.171-1.278-.513s-.431-.827-.431-1.456v-4.587h-1.346v-.977h1.346v-1.792zm4.58 0v1.792h1.381v.977h-1.381v4.587c0 .296.061.52.184.67.124.146.333.219.629.219.146 0 .347-.028.602-.082v1.025c-.333.091-.656.137-.971.137-.565 0-.991-.171-1.278-.513s-.431-.827-.431-1.456v-4.587h-1.346v-.977h1.346v-1.792zm4.238 9.188h-1.264v-7.396h1.264zm-1.367-9.358c0-.205.062-.379.185-.52.127-.141.314-.212.56-.212s.433.071.561.212c.127.141.191.315.191.52s-.064.376-.191.512c-.128.137-.315.205-.561.205s-.433-.068-.56-.205c-.123-.136-.185-.307-.185-.512zm4.594 1.962.041.929c.565-.711 1.303-1.066 2.215-1.066 1.563 0 2.351.882 2.365 2.645v4.888h-1.265v-4.895c-.004-.533-.127-.927-.369-1.182-.237-.255-.608-.383-1.114-.383-.41 0-.77.109-1.08.328s-.552.506-.725.861v5.271h-1.265v-7.396zm6.227 3.636c0-1.153.267-2.069.8-2.748.533-.683 1.24-1.025 2.119-1.025.903 0 1.607.319 2.113.957l.061-.82h1.155v7.218c0 .957-.284 1.712-.854 2.263-.565.551-1.326.827-2.283.827-.534 0-1.055-.114-1.566-.342-.51-.228-.9-.54-1.169-.936l.657-.759c.542.67 1.205 1.005 1.989 1.005.615 0 1.094-.173 1.435-.52.347-.346.52-.834.52-1.463v-.635c-.506.583-1.196.875-2.071.875-.866 0-1.568-.349-2.106-1.046-.533-.697-.8-1.648-.8-2.851zm1.272.144c0 .834.171 1.49.512 1.969.342.473.821.71 1.436.71.798 0 1.383-.362 1.757-1.086v-3.377c-.387-.707-.969-1.06-1.743-1.06-.616 0-1.096.239-1.443.718-.346.478-.519 1.187-.519 2.126zm11.197 1.654c0-.342-.13-.606-.39-.793-.255-.191-.704-.355-1.346-.492-.638-.137-1.146-.301-1.525-.492-.373-.192-.651-.42-.834-.684-.177-.264-.266-.579-.266-.943 0-.606.255-1.119.765-1.538.515-.42 1.172-.629 1.969-.629.839 0 1.518.216 2.037.649.524.433.786.987.786 1.661h-1.271c0-.346-.148-.645-.444-.895-.292-.251-.661-.376-1.108-.376-.46 0-.82.1-1.08.301-.26.2-.39.462-.39.786 0 .305.121.535.363.69.241.155.676.303 1.305.445.634.141 1.147.309 1.538.505.392.196.682.433.869.711.191.274.287.609.287 1.005 0 .661-.265 1.192-.793 1.593-.529.396-1.215.595-2.058.595-.592 0-1.116-.105-1.572-.315-.456-.209-.814-.501-1.073-.875-.256-.378-.383-.786-.383-1.223h1.264c.023.423.192.761.506 1.011.319.246.739.369 1.258.369.479 0 .861-.095 1.149-.287.291-.196.437-.455.437-.779z" fill="#000"/><rect height="43" rx="9.5" stroke="#d1dcfa" stroke-dasharray="4 4" width="206" x="788.5" y="222.5"/><path d="m862.938 246.402h-4.169l-.937 2.598h-1.353l3.8-9.953h1.149l3.807 9.953h-1.346zm-3.773-1.08h3.384l-1.695-4.655zm8.586 3.678h-1.265v-10.5h1.265zm3.404 0h-1.264v-10.5h1.264zm9.81-1.962c0-.342-.13-.606-.39-.793-.255-.191-.704-.355-1.346-.492-.639-.137-1.147-.301-1.525-.492-.374-.192-.652-.42-.834-.684-.178-.264-.266-.579-.266-.943 0-.606.255-1.119.765-1.538.515-.42 1.171-.629 1.969-.629.838 0 1.517.216 2.037.649.524.433.786.987.786 1.661h-1.271c0-.346-.148-.645-.445-.895-.291-.251-.66-.376-1.107-.376-.46 0-.82.1-1.08.301-.26.2-.39.462-.39.786 0 .305.121.535.362.69.242.155.677.303 1.306.445.634.141 1.146.309 1.538.505s.682.433.868.711c.192.274.287.609.287 1.005 0 .661-.264 1.192-.792 1.593-.529.396-1.215.595-2.058.595-.593 0-1.117-.105-1.572-.315-.456-.209-.814-.501-1.074-.875-.255-.378-.382-.786-.382-1.223h1.264c.023.423.192.761.506 1.011.319.246.738.369 1.258.369.478 0 .861-.095 1.148-.287.292-.196.438-.455.438-.779zm5.981 2.099c-1.002 0-1.818-.328-2.447-.985-.629-.66-.943-1.542-.943-2.645v-.233c0-.733.139-1.387.417-1.962.282-.578.674-1.029 1.175-1.353.506-.328 1.053-.492 1.641-.492.962 0 1.709.317 2.242.95s.8 1.54.8 2.721v.526h-5.011c.019.729.23 1.319.636 1.771.41.446.93.669 1.559.669.446 0 .825-.091 1.134-.273.31-.182.581-.424.814-.725l.772.602c-.619.952-1.549 1.429-2.789 1.429zm-.157-6.631c-.51 0-.939.187-1.285.56-.346.37-.561.889-.643 1.559h3.705v-.096c-.036-.642-.209-1.139-.519-1.49-.31-.355-.729-.533-1.258-.533zm6.228-2.694v1.792h1.38v.977h-1.38v4.587c0 .296.061.52.184.67.123.146.333.219.629.219.146 0 .346-.028.602-.082v1.025c-.333.091-.657.137-.971.137-.565 0-.991-.171-1.278-.513s-.431-.827-.431-1.456v-4.587h-1.347v-.977h1.347v-1.792zm4.58 0v1.792h1.381v.977h-1.381v4.587c0 .296.061.52.184.67.123.146.333.219.629.219.146 0 .347-.028.602-.082v1.025c-.333.091-.657.137-.971.137-.565 0-.991-.171-1.278-.513s-.431-.827-.431-1.456v-4.587h-1.347v-.977h1.347v-1.792zm4.238 9.188h-1.265v-7.396h1.265zm-1.367-9.358c0-.205.061-.379.184-.52.128-.141.315-.212.561-.212s.433.071.56.212c.128.141.192.315.192.52s-.064.376-.192.512c-.127.137-.314.205-.56.205s-.433-.068-.561-.205c-.123-.136-.184-.307-.184-.512zm4.594 1.962.041.929c.565-.711 1.303-1.066 2.214-1.066 1.564 0 2.352.882 2.366 2.645v4.888h-1.265v-4.895c-.005-.533-.128-.927-.369-1.182-.237-.255-.609-.383-1.114-.383-.411 0-.771.109-1.081.328-.309.219-.551.506-.724.861v5.271h-1.265v-7.396zm6.227 3.636c0-1.153.267-2.069.8-2.748.533-.683 1.239-1.025 2.119-1.025.902 0 1.606.319 2.112.957l.062-.82h1.155v7.218c0 .957-.285 1.712-.854 2.263-.565.551-1.327.827-2.284.827-.533 0-1.055-.114-1.565-.342s-.9-.54-1.169-.936l.656-.759c.543.67 1.206 1.005 1.99 1.005.615 0 1.093-.173 1.435-.52.346-.346.52-.834.52-1.463v-.635c-.506.583-1.197.875-2.072.875-.866 0-1.567-.349-2.105-1.046-.533-.697-.8-1.648-.8-2.851zm1.272.144c0 .834.17 1.49.512 1.969.342.473.821.71 1.436.71.797 0 1.383-.362 1.757-1.086v-3.377c-.388-.707-.969-1.06-1.744-1.06-.615 0-1.096.239-1.442.718-.346.478-.519 1.187-.519 2.126zm11.197 1.654c0-.342-.13-.606-.39-.793-.255-.191-.704-.355-1.347-.492-.638-.137-1.146-.301-1.524-.492-.374-.192-.652-.42-.834-.684-.178-.264-.267-.579-.267-.943 0-.606.256-1.119.766-1.538.515-.42 1.171-.629 1.969-.629.838 0 1.517.216 2.037.649.524.433.786.987.786 1.661h-1.271c0-.346-.148-.645-.445-.895-.291-.251-.661-.376-1.107-.376-.46 0-.82.1-1.08.301-.26.2-.39.462-.39.786 0 .305.121.535.362.69.242.155.677.303 1.306.445.634.141 1.146.309 1.538.505s.682.433.868.711c.192.274.287.609.287 1.005 0 .661-.264 1.192-.793 1.593-.528.396-1.214.595-2.057.595-.593 0-1.117-.105-1.572-.315-.456-.209-.814-.501-1.074-.875-.255-.378-.382-.786-.382-1.223h1.264c.023.423.192.761.506 1.011.319.246.738.369 1.258.369.478 0 .861-.095 1.148-.287.292-.196.438-.455.438-.779z" fill="#000"/><rect height="43" rx="9.5" stroke="#d1dcfa" stroke-dasharray="4 4" width="206" x="788.5" y="296.5"/><path d="m857.225 318.563c-1.126-.323-1.946-.72-2.461-1.189-.511-.474-.766-1.057-.766-1.75 0-.784.312-1.431.937-1.941.628-.515 1.444-.773 2.447-.773.683 0 1.292.132 1.825.397.538.264.953.629 1.244 1.093.296.465.445.973.445 1.525h-1.32c0-.602-.191-1.073-.574-1.415-.383-.347-.923-.52-1.62-.52-.647 0-1.153.144-1.518.431-.36.282-.54.677-.54 1.183 0 .405.171.749.513 1.032.346.278.932.533 1.757.765.829.233 1.476.49 1.941.773.47.278.816.604 1.039.977.228.374.342.814.342 1.32 0 .806-.314 1.453-.943 1.941-.629.483-1.47.725-2.523.725-.683 0-1.321-.13-1.914-.39-.592-.264-1.05-.624-1.374-1.08-.319-.456-.478-.973-.478-1.552h1.319c0 .602.221 1.078.663 1.429.447.346 1.041.519 1.784.519.693 0 1.224-.141 1.593-.423.369-.283.554-.668.554-1.156 0-.487-.171-.863-.513-1.128-.342-.268-.962-.533-1.859-.793zm8.251 4.574c-1.003 0-1.819-.328-2.448-.985-.629-.66-.943-1.542-.943-2.645v-.233c0-.733.139-1.387.417-1.962.283-.578.674-1.029 1.176-1.353.506-.328 1.052-.492 1.64-.492.962 0 1.709.317 2.243.95.533.633.799 1.54.799 2.721v.526h-5.01c.018.729.23 1.319.635 1.771.411.446.93.669 1.559.669.447 0 .825-.091 1.135-.273s.581-.424.813-.725l.773.602c-.62.952-1.55 1.429-2.789 1.429zm-.158-6.631c-.51 0-.938.187-1.285.56-.346.37-.56.889-.642 1.559h3.705v-.096c-.037-.642-.21-1.139-.52-1.49-.31-.355-.729-.533-1.258-.533zm5.708-.902.041.929c.565-.711 1.304-1.066 2.215-1.066 1.563 0 2.352.882 2.365 2.645v4.888h-1.264v-4.895c-.005-.533-.128-.927-.369-1.182-.237-.255-.609-.383-1.115-.383-.41 0-.77.109-1.08.328s-.551.506-.724.861v5.271h-1.265v-7.396zm6.221 3.636c0-1.135.269-2.046.807-2.734.537-.693 1.242-1.039 2.112-1.039.866 0 1.552.296 2.058.888v-3.855h1.264v10.5h-1.162l-.061-.793c-.506.62-1.21.93-2.113.93-.856 0-1.556-.351-2.098-1.053-.538-.702-.807-1.618-.807-2.748zm1.265.144c0 .838.173 1.495.519 1.969.347.473.825.71 1.436.71.802 0 1.387-.36 1.757-1.08v-3.397c-.379-.697-.96-1.046-1.744-1.046-.619 0-1.102.239-1.449.718-.346.478-.519 1.187-.519 2.126zm12.311-6.337 3.254 8.121 3.254-8.121h1.702v9.953h-1.312v-3.876l.123-4.184-3.268 8.06h-1.005l-3.26-8.039.129 4.163v3.876h-1.312v-9.953zm9.994 6.186c0-.724.142-1.376.424-1.955.287-.578.684-1.025 1.19-1.34.51-.314 1.091-.471 1.743-.471 1.007 0 1.82.348 2.44 1.046.625.697.937 1.624.937 2.782v.089c0 .72-.139 1.367-.417 1.941-.274.57-.668 1.014-1.183 1.333-.51.319-1.098.479-1.763.479-1.003 0-1.817-.349-2.441-1.046-.62-.697-.93-1.62-.93-2.769zm1.272.151c0 .82.189 1.479.567 1.975.383.497.893.745 1.532.745.642 0 1.152-.25 1.531-.751.378-.506.567-1.213.567-2.12 0-.811-.194-1.467-.581-1.968-.383-.506-.893-.759-1.531-.759-.625 0-1.128.248-1.511.745s-.574 1.208-.574 2.133zm8.244-3.78.041.929c.565-.711 1.303-1.066 2.215-1.066 1.563 0 2.351.882 2.365 2.645v4.888h-1.265v-4.895c-.004-.533-.127-.927-.369-1.182-.237-.255-.608-.383-1.114-.383-.41 0-.77.109-1.08.328s-.551.506-.725.861v5.271h-1.264v-7.396zm9.598 7.533c-1.003 0-1.819-.328-2.448-.985-.629-.66-.943-1.542-.943-2.645v-.233c0-.733.139-1.387.417-1.962.283-.578.675-1.029 1.176-1.353.506-.328 1.053-.492 1.64-.492.962 0 1.709.317 2.243.95.533.633.799 1.54.799 2.721v.526h-5.01c.018.729.23 1.319.635 1.771.411.446.93.669 1.559.669.447 0 .825-.091 1.135-.273s.581-.424.813-.725l.773.602c-.62.952-1.55 1.429-2.789 1.429zm-.158-6.631c-.51 0-.938.187-1.285.56-.346.37-.56.889-.642 1.559h3.705v-.096c-.037-.642-.21-1.139-.52-1.49-.31-.355-.729-.533-1.258-.533zm6.836 4.641 1.723-5.543h1.354l-2.974 8.538c-.46 1.23-1.192 1.845-2.194 1.845l-.24-.02-.471-.089v-1.025l.341.027c.429 0 .762-.087.998-.26.242-.173.44-.49.595-.95l.28-.752-2.638-7.314h1.381z" fill="#000"/><rect height="43" rx="9.5" stroke="#d1dcfa" stroke-dasharray="4 4" width="206" x="1025.5" y="148.5"/><path d="m1106.56 170.563c-1.13-.323-1.95-.72-2.47-1.189-.51-.474-.76-1.057-.76-1.75 0-.784.31-1.431.94-1.941.62-.515 1.44-.773 2.44-.773.69 0 1.29.132 1.83.397.54.264.95.629 1.24 1.093.3.465.45.973.45 1.525h-1.32c0-.602-.19-1.073-.58-1.415-.38-.347-.92-.52-1.62-.52-.64 0-1.15.144-1.51.431-.36.282-.54.677-.54 1.183 0 .405.17.749.51 1.032.34.278.93.533 1.75.765.83.233 1.48.49 1.95.773.47.278.81.604 1.04.977.22.374.34.814.34 1.32 0 .806-.32 1.453-.95 1.941-.63.483-1.47.725-2.52.725-.68 0-1.32-.13-1.91-.39-.6-.264-1.05-.624-1.38-1.08-.32-.456-.48-.973-.48-1.552h1.32c0 .602.23 1.078.67 1.429.44.346 1.04.519 1.78.519.69 0 1.22-.141 1.59-.423.37-.283.56-.668.56-1.156 0-.487-.17-.863-.51-1.128-.35-.268-.97-.533-1.86-.793zm6.55 4.437h-1.26v-7.396h1.26zm-1.37-9.358c0-.205.07-.379.19-.52.13-.141.31-.212.56-.212s.43.071.56.212.19.315.19.52-.06.376-.19.512c-.13.137-.31.205-.56.205s-.43-.068-.56-.205c-.12-.136-.19-.307-.19-.512zm3.1 5.598c0-1.153.27-2.069.8-2.748.53-.683 1.24-1.025 2.12-1.025.9 0 1.61.319 2.11.957l.06-.82h1.16v7.218c0 .957-.29 1.712-.86 2.263-.56.551-1.32.827-2.28.827-.53 0-1.05-.114-1.56-.342s-.9-.54-1.17-.936l.65-.759c.55.67 1.21 1.005 1.99 1.005.62 0 1.1-.173 1.44-.52.34-.346.52-.834.52-1.463v-.635c-.51.583-1.2.875-2.07.875s-1.57-.349-2.11-1.046c-.53-.697-.8-1.648-.8-2.851zm1.27.144c0 .834.17 1.49.51 1.969.35.473.83.71 1.44.71.8 0 1.38-.362 1.76-1.086v-3.377c-.39-.707-.97-1.06-1.75-1.06-.61 0-1.09.239-1.44.718-.34.478-.52 1.187-.52 2.126zm8.09-3.78.04.929c.57-.711 1.3-1.066 2.22-1.066 1.56 0 2.35.882 2.36 2.645v4.888h-1.26v-4.895c-.01-.533-.13-.927-.37-1.182s-.61-.383-1.12-.383c-.41 0-.77.109-1.08.328s-.55.506-.72.861v5.271h-1.27v-7.396zm9.67 3.629c0-.724.14-1.376.42-1.955.29-.578.68-1.025 1.19-1.34.51-.314 1.09-.471 1.74-.471 1.01 0 1.82.348 2.44 1.046.63.697.94 1.624.94 2.782v.089c0 .72-.14 1.367-.42 1.941-.27.57-.67 1.014-1.18 1.333s-1.1.479-1.76.479c-1.01 0-1.82-.349-2.45-1.046-.61-.697-.92-1.62-.92-2.769zm1.27.151c0 .82.19 1.479.56 1.975.39.497.9.745 1.54.745s1.15-.25 1.53-.751c.37-.506.56-1.213.56-2.12 0-.811-.19-1.467-.58-1.968-.38-.506-.89-.759-1.53-.759-.62 0-1.13.248-1.51.745s-.57 1.208-.57 2.133zm11.61 2.885c-.49.578-1.21.868-2.17.868-.78 0-1.39-.228-1.8-.684-.41-.46-.62-1.139-.62-2.037v-4.812h1.26v4.778c0 1.121.46 1.681 1.37 1.681.97 0 1.61-.36 1.93-1.08v-5.379h1.26v7.396h-1.2zm4.87-8.457v1.792h1.39v.977h-1.39v4.587c0 .296.07.52.19.67.12.146.33.219.63.219.14 0 .34-.028.6-.082v1.025c-.33.091-.66.137-.97.137-.57 0-.99-.171-1.28-.513s-.43-.827-.43-1.456v-4.587h-1.35v-.977h1.35v-1.792z" fill="#000"/><rect height="43" rx="9.5" stroke="#d1dcfa" stroke-dasharray="4 4" width="206" x="1025.5" y="74.5"/><path d="m1070.12 96.3994h-4.31v3.5274h5.01v1.0732h-6.32v-9.9531h6.25v1.0801h-4.94v3.1992h4.31zm1.69.8408c0-1.1347.27-2.0462.81-2.7343.53-.6927 1.24-1.0391 2.11-1.0391.86 0 1.55.2962 2.06.8887v-3.8555h1.26v10.5h-1.16l-.06-.793c-.51.62-1.21.93-2.12.93-.85 0-1.55-.351-2.09-1.053-.54-.7018-.81-1.6179-.81-2.7481zm1.26.1436c0 .8385.18 1.4948.52 1.9687.35.474.83.7105 1.44.7105.8 0 1.39-.3595 1.76-1.0796v-3.3975c-.38-.6972-.96-1.0459-1.75-1.0459-.62 0-1.1.2393-1.45.7178-.34.4785-.52 1.1872-.52 2.126zm8.32 3.6162h-1.26v-7.3965h1.26zm-1.36-9.3584c0-.2051.06-.3783.18-.5195.13-.1413.32-.2119.56-.2119.25 0 .43.0706.56.2119.13.1412.19.3144.19.5195s-.06.376-.19.5127-.31.2051-.56.2051c-.24 0-.43-.0684-.56-.2051-.12-.1367-.18-.3076-.18-.5127zm5.11.1709v1.791h1.38v.9776h-1.38v4.5869c0 .2962.06.5195.18.6699.13.1458.34.2191.63.2191.15 0 .35-.028.6-.0824v1.0254c-.33.091-.65.137-.97.137-.56 0-.99-.171-1.27-.513-.29-.342-.43-.8271-.43-1.456v-4.5869h-1.35v-.9776h1.35v-1.791zm3.12 10.0415h-1.09l4.16-10.8071h1.08zm5.21-4.6138c0-1.1347.26-2.0462.8-2.7343.54-.6927 1.24-1.0391 2.11-1.0391s1.56.2962 2.06.8887v-3.8555h1.27v10.5h-1.17l-.06-.793c-.5.62-1.21.93-2.11.93-.86 0-1.56-.351-2.1-1.053-.54-.7018-.8-1.6179-.8-2.7481zm1.26.1436c0 .8385.17 1.4948.52 1.9687.35.474.82.7105 1.44.7105.8 0 1.38-.3595 1.75-1.0796v-3.3975c-.38-.6972-.96-1.0459-1.74-1.0459-.62 0-1.1.2393-1.45.7178s-.52 1.1872-.52 2.126zm10.02 3.7532c-1.01 0-1.82-.328-2.45-.985-.63-.6605-.95-1.5423-.95-2.6452v-.2324c0-.7337.14-1.3877.42-1.9619.28-.5788.68-1.0299 1.18-1.3535.5-.3281 1.05-.4922 1.64-.4922.96 0 1.71.3167 2.24.9502s.8 1.5404.8 2.7207v.5264h-5.01c.02.7291.23 1.3193.63 1.7705.42.4466.93.6694 1.56.6694.45 0 .83-.091 1.14-.2729.31-.1823.58-.4239.81-.7247l.77.6016c-.62.952-1.55 1.429-2.78 1.429zm-.16-6.6311c-.51 0-.94.1868-1.29.5605-.34.3691-.56.8887-.64 1.5586h3.71v-.0957c-.04-.6426-.21-1.1393-.52-1.4902-.31-.3555-.73-.5332-1.26-.5332zm5.88 6.4941h-1.26v-10.5h1.26zm5.1.137c-1 0-1.82-.328-2.44-.985-.63-.6605-.95-1.5423-.95-2.6452v-.2324c0-.7337.14-1.3877.42-1.9619.28-.5788.67-1.0299 1.18-1.3535.5-.3281 1.05-.4922 1.64-.4922.96 0 1.7.3167 2.24.9502.53.6335.8 1.5404.8 2.7207v.5264h-5.01c.02.7291.23 1.3193.63 1.7705.41.4466.93.6694 1.56.6694.45 0 .83-.091 1.14-.2729.31-.1823.58-.4239.81-.7247l.77.6016c-.62.952-1.55 1.429-2.79 1.429zm-.15-6.6311c-.51 0-.94.1868-1.29.5605-.35.3691-.56.8887-.64 1.5586h3.7v-.0957c-.03-.6426-.21-1.1393-.52-1.4902-.31-.3555-.73-.5332-1.25-.5332zm6.22-2.6934v1.791h1.38v.9776h-1.38v4.5869c0 .2962.07.5195.19.6699.12.1458.33.2191.63.2191.14 0 .34-.028.6-.0824v1.0254c-.33.091-.66.137-.97.137-.57 0-.99-.171-1.28-.513s-.43-.8271-.43-1.456v-4.5869h-1.35v-.9776h1.35v-1.791zm5.94 9.3245c-1.01 0-1.82-.328-2.45-.985-.63-.6605-.94-1.5423-.94-2.6452v-.2324c0-.7337.14-1.3877.41-1.9619.29-.5788.68-1.0299 1.18-1.3535.51-.3281 1.05-.4922 1.64-.4922.96 0 1.71.3167 2.24.9502.54.6335.8 1.5404.8 2.7207v.5264h-5.01c.02.7291.23 1.3193.64 1.7705.41.4466.93.6694 1.56.6694.44 0 .82-.091 1.13-.2729.31-.1823.58-.4239.81-.7247l.78.6016c-.62.952-1.55 1.429-2.79 1.429zm-.16-6.6311c-.51 0-.94.1868-1.29.5605-.34.3691-.56.8887-.64 1.5586h3.71v-.0957c-.04-.6426-.21-1.1393-.52-1.4902-.31-.3555-.73-.5332-1.26-.5332zm9.88-3.459 3.25 8.1211 3.26-8.1211h1.7v9.9531h-1.31v-3.876l.12-4.1836-3.27 8.0596h-1l-3.26-8.0391.13 4.1631v3.876h-1.32v-9.9531zm13.4 10.0901c-1.01 0-1.82-.328-2.45-.985-.63-.6605-.94-1.5423-.94-2.6452v-.2324c0-.7337.13-1.3877.41-1.9619.29-.5788.68-1.0299 1.18-1.3535.5-.3281 1.05-.4922 1.64-.4922.96 0 1.71.3167 2.24.9502s.8 1.5404.8 2.7207v.5264h-5.01c.02.7291.23 1.3193.64 1.7705.41.4466.93.6694 1.55.6694.45 0 .83-.091 1.14-.2729.31-.1823.58-.4239.81-.7247l.78.6016c-.62.952-1.55 1.429-2.79 1.429zm-.16-6.6311c-.51 0-.94.1868-1.29.5605-.34.3691-.56.8887-.64 1.5586h3.71v-.0957c-.04-.6426-.21-1.1393-.52-1.4902-.31-.3555-.73-.5332-1.26-.5332zm8.09.2324c-.2-.0319-.4-.0479-.63-.0479-.83 0-1.39.3532-1.68 1.0596v5.25h-1.27v-7.3965h1.23l.02.8545c.42-.6608 1-.9912 1.77-.9912.24 0 .43.0319.56.0957zm3.99 5.3657c.46 0 .85-.1362 1.19-.4097.33-.2734.52-.6152.56-1.0254h1.19c-.02.4239-.16.8272-.43 1.21-.27.3831-.63.6881-1.08.9161s-.92.342-1.43.342c-1 0-1.8-.335-2.4-1.005-.59-.6746-.89-1.5952-.89-2.7619v-.2119c0-.72.13-1.3603.4-1.9209.26-.5605.64-.9958 1.13-1.3057.5-.3099 1.08-.4648 1.76-.4648.83 0 1.52.2484 2.06.7451.55.4968.85 1.1416.88 1.9346h-1.19c-.04-.4785-.22-.8705-.55-1.1758-.32-.3099-.72-.4648-1.2-.4648-.64 0-1.14.2324-1.5.6972-.35.4603-.53 1.128-.53 2.003v.2392c0 .8522.18 1.5085.53 1.9688.35.4602.85.6899 1.5.6899zm5.63-5.605c.56-.6881 1.29-1.0322 2.19-1.0322 1.56 0 2.35.8818 2.36 2.6455v4.8877h-1.26v-4.8945c-.01-.5332-.13-.9274-.37-1.1826-.24-.2553-.61-.3829-1.11-.3829-.41 0-.77.1094-1.08.3282-.31.2187-.56.5058-.73.8613v5.2705h-1.26v-10.5h1.26zm11.01 6.501c-.07-.146-.13-.406-.17-.779-.59.61-1.29.916-2.11.916-.73 0-1.33-.205-1.8-.616-.46-.414-.69-.9383-.69-1.5718 0-.7702.29-1.3672.87-1.791.59-.4284 1.41-.6426 2.47-.6426h1.24v-.581c0-.4421-.14-.793-.4-1.0528-.27-.2643-.66-.3964-1.17-.3964-.45 0-.83.1139-1.13.3417-.31.2279-.46.5036-.46.8272h-1.27c0-.3691.13-.7246.39-1.0664.26-.3464.62-.6198 1.06-.8203.45-.2005.95-.3008 1.49-.3008.85 0 1.52.2142 2 .6426.48.4238.73 1.0094.75 1.7568v3.4043c0 .679.09 1.2195.26 1.6205v.109zm-2.09-.964c.39 0 .77-.1024 1.12-.3075.36-.2051.62-.4717.78-.7998v-1.5176h-1c-1.55 0-2.32.4535-2.32 1.3604 0 .3965.13.7064.4.9297.26.2233.6.3348 1.02.3348zm6.34-6.4325.04.9297c.56-.7109 1.3-1.0664 2.21-1.0664 1.57 0 2.36.8818 2.37 2.6455v4.8877h-1.26v-4.8945c-.01-.5332-.13-.9274-.37-1.1826-.24-.2553-.61-.3829-1.12-.3829-.41 0-.77.1094-1.08.3282-.31.2187-.55.5058-.72.8613v5.2705h-1.27v-7.3965zm8.24-1.791v1.791h1.38v.9776h-1.38v4.5869c0 .2962.06.5195.19.6699.12.1458.33.2191.63.2191.14 0 .34-.028.6-.0824v1.0254c-.33.091-.66.137-.97.137-.57 0-.99-.171-1.28-.513s-.43-.8271-.43-1.456v-4.5869h-1.35v-.9776h1.35v-1.791z" fill="#000"/><rect height="43" rx="9.5" stroke="#d1dcfa" stroke-dasharray="4 4" width="126" x="177.5" y="145.5"/><path d="m207.427 172v-9.953h3.254c1.08 0 1.891.223 2.433.67.547.446.821 1.107.821 1.982 0 .465-.133.877-.397 1.238-.264.355-.624.631-1.08.827.538.15.962.437 1.271.861.315.419.472.921.472 1.504 0 .893-.289 1.595-.868 2.105-.579.511-1.397.766-2.454.766zm1.312-4.655v3.582h2.167c.611 0 1.092-.157 1.443-.472.355-.319.533-.756.533-1.312 0-1.199-.652-1.798-1.955-1.798zm0-1.053h1.983c.574 0 1.032-.144 1.374-.431.346-.287.519-.676.519-1.169 0-.546-.159-.943-.478-1.189-.319-.251-.805-.376-1.456-.376h-1.942zm11.779 4.977c-.493.578-1.215.868-2.167.868-.789 0-1.39-.228-1.805-.684-.41-.46-.618-1.139-.622-2.037v-4.812h1.264v4.778c0 1.121.456 1.681 1.368 1.681.966 0 1.608-.36 1.927-1.08v-5.379h1.265v7.396h-1.203zm5.578-1.122 1.722-5.543h1.354l-2.974 8.538c-.46 1.23-1.191 1.845-2.194 1.845l-.239-.02-.472-.089v-1.025l.342.027c.428 0 .761-.087.998-.26.241-.173.44-.49.595-.95l.28-.752-2.639-7.314h1.381zm15.203-1.305c-.123 1.053-.513 1.866-1.169 2.44-.652.57-1.52.855-2.605.855-1.175 0-2.119-.422-2.83-1.265-.706-.843-1.059-1.971-1.059-3.384v-.957c0-.925.164-1.738.492-2.44.333-.702.802-1.24 1.408-1.613.606-.379 1.308-.568 2.106-.568 1.057 0 1.905.296 2.543.889.638.588 1.009 1.403 1.114 2.447h-1.32c-.113-.793-.362-1.367-.745-1.723-.378-.355-.909-.533-1.592-.533-.839 0-1.497.31-1.976.93-.474.62-.711 1.502-.711 2.645v.964c0 1.08.226 1.939.677 2.577s1.082.957 1.893.957c.73 0 1.288-.164 1.675-.492.392-.332.652-.909.779-1.729zm5.175-3.104c-.192-.032-.399-.048-.622-.048-.83 0-1.393.354-1.689 1.06v5.25h-1.265v-7.396h1.231l.02.854c.415-.661 1.003-.991 1.764-.991.246 0 .433.032.561.095zm3.712 4.409 1.722-5.543h1.354l-2.974 8.538c-.46 1.23-1.192 1.845-2.194 1.845l-.24-.02-.471-.089v-1.025l.342.027c.428 0 .761-.087.998-.26.241-.173.439-.49.594-.95l.281-.752-2.639-7.314h1.381zm10.459-1.763c0 1.125-.258 2.032-.773 2.72-.515.689-1.212 1.033-2.092 1.033-.898 0-1.604-.285-2.119-.855v3.562h-1.265v-10.24h1.156l.061.82c.515-.638 1.231-.957 2.147-.957.888 0 1.59.335 2.105 1.005.52.67.78 1.602.78 2.796zm-1.265-.144c0-.834-.178-1.492-.533-1.975-.356-.483-.843-.725-1.463-.725-.766 0-1.34.34-1.723 1.019v3.534c.378.674.957 1.011 1.736 1.011.607 0 1.087-.239 1.443-.717.36-.483.54-1.199.54-2.147zm4.594-5.428v1.792h1.38v.977h-1.38v4.587c0 .296.061.52.184.67.123.146.333.219.629.219.146 0 .346-.028.602-.082v1.025c-.333.091-.657.137-.971.137-.565 0-.991-.171-1.278-.513s-.431-.827-.431-1.456v-4.587h-1.347v-.977h1.347v-1.792zm2.392 5.421c0-.724.141-1.376.424-1.955.287-.578.684-1.025 1.189-1.34.511-.314 1.092-.471 1.744-.471 1.007 0 1.82.348 2.44 1.046.624.697.937 1.624.937 2.782v.089c0 .72-.139 1.367-.417 1.941-.274.57-.668 1.014-1.183 1.333-.51.319-1.098.479-1.764.479-1.002 0-1.816-.349-2.44-1.046-.62-.697-.93-1.62-.93-2.769zm1.272.151c0 .82.189 1.479.567 1.975.383.497.893.745 1.531.745.643 0 1.153-.25 1.532-.751.378-.506.567-1.213.567-2.12 0-.811-.194-1.467-.581-1.968-.383-.506-.893-.759-1.531-.759-.625 0-1.128.248-1.511.745s-.574 1.208-.574 2.133z" fill="#000"/><rect fill="#d1dcfa" height="44" rx="10" width="127" x="354" y="182"/><path d="m398.407 204.563c-1.125-.323-1.946-.72-2.461-1.189-.51-.474-.765-1.057-.765-1.75 0-.784.312-1.431.936-1.941.629-.515 1.445-.773 2.447-.773.684 0 1.292.132 1.826.397.537.264.952.629 1.244 1.093.296.465.444.973.444 1.525h-1.319c0-.602-.192-1.073-.574-1.415-.383-.347-.923-.52-1.621-.52-.647 0-1.153.144-1.517.431-.36.282-.54.677-.54 1.183 0 .405.171.749.513 1.032.346.278.931.533 1.756.765.83.233 1.477.49 1.942.773.469.278.816.604 1.039.977.228.374.342.814.342 1.32 0 .806-.315 1.453-.944 1.941-.629.483-1.469.725-2.522.725-.684 0-1.322-.13-1.914-.39-.593-.264-1.051-.624-1.374-1.08-.319-.456-.479-.973-.479-1.552h1.32c0 .602.221 1.078.663 1.429.446.346 1.041.519 1.784.519.693 0 1.223-.141 1.593-.423.369-.283.553-.668.553-1.156 0-.487-.171-.863-.512-1.128-.342-.268-.962-.533-1.86-.793zm6.556 4.437h-1.265v-7.396h1.265zm-1.367-9.358c0-.205.061-.379.184-.52.128-.141.315-.212.561-.212s.433.071.56.212c.128.141.192.315.192.52s-.064.376-.192.512c-.127.137-.314.205-.56.205s-.433-.068-.561-.205c-.123-.136-.184-.307-.184-.512zm3.096 5.598c0-1.153.267-2.069.8-2.748.533-.683 1.24-1.025 2.119-1.025.903 0 1.607.319 2.113.957l.061-.82h1.155v7.218c0 .957-.284 1.712-.854 2.263-.565.551-1.326.827-2.283.827-.533 0-1.055-.114-1.566-.342-.51-.228-.9-.54-1.169-.936l.657-.759c.542.67 1.205 1.005 1.989 1.005.615 0 1.094-.173 1.435-.52.347-.346.52-.834.52-1.463v-.635c-.506.583-1.196.875-2.071.875-.866 0-1.568-.349-2.106-1.046-.533-.697-.8-1.648-.8-2.851zm1.272.144c0 .834.171 1.49.513 1.969.341.473.82.71 1.435.71.798 0 1.383-.362 1.757-1.086v-3.377c-.387-.707-.968-1.06-1.743-1.06-.615 0-1.096.239-1.443.718-.346.478-.519 1.187-.519 2.126zm8.087-3.78.041.929c.565-.711 1.303-1.066 2.215-1.066 1.563 0 2.351.882 2.365 2.645v4.888h-1.265v-4.895c-.004-.533-.127-.927-.369-1.182-.237-.255-.608-.383-1.114-.383-.41 0-.77.109-1.08.328s-.552.506-.725.861v5.271h-1.265v-7.396zm14.567 6.665c-.492.578-1.214.868-2.167.868-.788 0-1.39-.228-1.805-.684-.41-.46-.617-1.139-.622-2.037v-4.812h1.265v4.778c0 1.121.456 1.681 1.367 1.681.966 0 1.609-.36 1.928-1.08v-5.379h1.265v7.396h-1.203zm9.406-2.885c0 1.125-.257 2.032-.772 2.72-.515.689-1.212 1.033-2.092 1.033-.898 0-1.604-.285-2.119-.855v3.562h-1.265v-10.24h1.156l.061.82c.515-.638 1.231-.957 2.147-.957.888 0 1.59.335 2.105 1.005.52.67.779 1.602.779 2.796zm-1.264-.144c0-.834-.178-1.492-.533-1.975-.356-.483-.844-.725-1.463-.725-.766 0-1.34.34-1.723 1.019v3.534c.378.674.957 1.011 1.736 1.011.606 0 1.087-.239 1.443-.717.36-.483.54-1.199.54-2.147z" fill="#000"/><rect fill="#d1dcfa" height="44" rx="10" width="207" x="531"/><path d="m623.972 27h-1.32v-4.6006h-5.017v4.6006h-1.313v-9.9531h1.313v4.2793h5.017v-4.2793h1.32zm1.798-3.7666c0-.7246.141-1.3763.423-1.9551.287-.5788.684-1.0254 1.19-1.3398.51-.3145 1.091-.4717 1.743-.4717 1.007 0 1.821.3486 2.44 1.0459.625.6973.937 1.6247.937 2.7822v.0889c0 .72-.139 1.3672-.417 1.9414-.274.5697-.668 1.014-1.183 1.333-.51.319-1.098.4785-1.763.4785-1.003 0-1.816-.3486-2.441-1.0459-.62-.6972-.929-1.6201-.929-2.7685zm1.271.1504c0 .8203.189 1.4788.567 1.9756.383.4967.894.7451 1.532.7451.642 0 1.153-.2507 1.531-.752.378-.5058.567-1.2122.567-2.1191 0-.8112-.193-1.4674-.581-1.9688-.383-.5058-.893-.7587-1.531-.7587-.624 0-1.128.2483-1.511.7451-.383.4967-.574 1.2077-.574 2.1328zm8.237-3.7803.034.8203c.543-.638 1.274-.957 2.195-.957 1.034 0 1.738.3965 2.112 1.1894.246-.3554.565-.6425.957-.8613.397-.2187.864-.3281 1.402-.3281 1.622 0 2.447.859 2.474 2.5771v4.9561h-1.264v-4.8809c0-.5286-.121-.9228-.363-1.1826-.241-.2643-.647-.3965-1.217-.3965-.469 0-.859.1413-1.169.4239-.309.278-.489.6539-.54 1.1279v4.9082h-1.271v-4.8467c0-1.0755-.526-1.6133-1.579-1.6133-.83 0-1.397.3532-1.702 1.0596v5.4004h-1.265v-7.3965zm14.158 7.5332c-1.003 0-1.819-.3281-2.448-.9844-.629-.6608-.943-1.5426-.943-2.6455v-.2324c0-.7337.139-1.3877.417-1.9619.282-.5788.674-1.0299 1.176-1.3535.506-.3281 1.052-.4922 1.64-.4922.962 0 1.709.3167 2.243.9502.533.6335.799 1.5404.799 2.7207v.5264h-5.01c.018.7291.23 1.3193.635 1.7705.41.4466.93.6699 1.559.6699.447 0 .825-.0912 1.135-.2734.31-.1823.581-.4239.813-.7247l.773.6016c-.62.9525-1.55 1.4287-2.789 1.4287zm-.158-6.6308c-.51 0-.938.1868-1.285.5605-.346.3691-.56.8887-.642 1.5586h3.705v-.0957c-.037-.6426-.21-1.1393-.52-1.4902-.31-.3555-.729-.5332-1.258-.5332z" fill="#000"/><rect fill="#d1dcfa" height="44" rx="10" width="127" x="354" y="108"/><path d="m402.721 133.927h4.717v1.073h-6.037v-9.953h1.32zm5.68-2.694c0-.724.142-1.376.424-1.955.287-.578.684-1.025 1.19-1.34.51-.314 1.091-.471 1.743-.471 1.007 0 1.82.348 2.44 1.046.625.697.937 1.624.937 2.782v.089c0 .72-.139 1.367-.417 1.941-.274.57-.668 1.014-1.183 1.333-.51.319-1.098.479-1.764.479-1.002 0-1.816-.349-2.44-1.046-.62-.697-.93-1.62-.93-2.769zm1.272.151c0 .82.189 1.479.567 1.975.383.497.893.745 1.531.745.643 0 1.153-.25 1.532-.751.378-.506.567-1.213.567-2.12 0-.811-.194-1.467-.581-1.968-.383-.506-.893-.759-1.531-.759-.625 0-1.128.248-1.511.745s-.574 1.208-.574 2.133zm6.747-.144c0-1.153.267-2.069.8-2.748.533-.683 1.239-1.025 2.119-1.025.902 0 1.606.319 2.112.957l.062-.82h1.155v7.218c0 .957-.285 1.712-.855 2.263-.565.551-1.326.827-2.283.827-.533 0-1.055-.114-1.565-.342-.511-.228-.9-.54-1.169-.936l.656-.759c.542.67 1.206 1.005 1.989 1.005.616 0 1.094-.173 1.436-.52.346-.346.519-.834.519-1.463v-.635c-.505.583-1.196.875-2.071.875-.866 0-1.568-.349-2.105-1.046-.533-.697-.8-1.648-.8-2.851zm1.271.144c0 .834.171 1.49.513 1.969.342.473.82.71 1.436.71.797 0 1.383-.362 1.756-1.086v-3.377c-.387-.707-.968-1.06-1.743-1.06-.615 0-1.096.239-1.442.718-.346.478-.52 1.187-.52 2.126zm8.265 3.616h-1.265v-7.396h1.265zm-1.367-9.358c0-.205.061-.379.184-.52.128-.141.315-.212.561-.212s.433.071.561.212c.127.141.191.315.191.52s-.064.376-.191.512c-.128.137-.315.205-.561.205s-.433-.068-.561-.205c-.123-.136-.184-.307-.184-.512zm4.594 1.962.041.929c.565-.711 1.303-1.066 2.214-1.066 1.564 0 2.352.882 2.366 2.645v4.888h-1.265v-4.895c-.004-.533-.128-.927-.369-1.182-.237-.255-.608-.383-1.114-.383-.41 0-.771.109-1.08.328-.31.219-.552.506-.725.861v5.271h-1.265v-7.396z" fill="#000"/><rect fill="#d1dcfa" height="44" rx="10" width="207" x="531" y="222"/><path d="m612.535 244.563c-1.125-.323-1.946-.72-2.461-1.189-.51-.474-.765-1.057-.765-1.75 0-.784.312-1.431.936-1.941.629-.515 1.445-.773 2.447-.773.684 0 1.292.132 1.826.397.537.264.952.629 1.244 1.093.296.465.444.973.444 1.525h-1.319c0-.602-.192-1.073-.575-1.415-.382-.347-.922-.52-1.62-.52-.647 0-1.153.144-1.517.431-.36.282-.54.677-.54 1.183 0 .405.171.749.512 1.032.347.278.932.533 1.757.765.83.233 1.477.49 1.942.773.469.278.815.604 1.039.977.228.374.342.814.342 1.32 0 .806-.315 1.453-.944 1.941-.629.483-1.47.725-2.522.725-.684 0-1.322-.13-1.914-.39-.593-.264-1.051-.624-1.374-1.08-.319-.456-.479-.973-.479-1.552h1.319c0 .602.222 1.078.664 1.429.446.346 1.041.519 1.784.519.692 0 1.223-.141 1.593-.423.369-.283.553-.668.553-1.156 0-.487-.171-.863-.512-1.128-.342-.268-.962-.533-1.86-.793zm8.251 4.574c-1.002 0-1.818-.328-2.447-.985-.629-.66-.943-1.542-.943-2.645v-.233c0-.733.139-1.387.416-1.962.283-.578.675-1.029 1.176-1.353.506-.328 1.053-.492 1.641-.492.961 0 1.709.317 2.242.95s.8 1.54.8 2.721v.526h-5.011c.018.729.23 1.319.636 1.771.41.446.93.669 1.558.669.447 0 .825-.091 1.135-.273s.581-.424.814-.725l.772.602c-.62.952-1.549 1.429-2.789 1.429zm-.157-6.631c-.511 0-.939.187-1.285.56-.347.37-.561.889-.643 1.559h3.705v-.096c-.036-.642-.209-1.139-.519-1.49-.31-.355-.729-.533-1.258-.533zm6.227-2.694v1.792h1.381v.977h-1.381v4.587c0 .296.062.52.185.67.123.146.333.219.629.219.146 0 .346-.028.601-.082v1.025c-.332.091-.656.137-.97.137-.565 0-.991-.171-1.279-.513-.287-.342-.43-.827-.43-1.456v-4.587h-1.347v-.977h1.347v-1.792zm4.581 0v1.792h1.38v.977h-1.38v4.587c0 .296.061.52.184.67.123.146.333.219.629.219.146 0 .346-.028.602-.082v1.025c-.333.091-.657.137-.971.137-.565 0-.991-.171-1.278-.513-.288-.342-.431-.827-.431-1.456v-4.587h-1.347v-.977h1.347v-1.792zm4.238 9.188h-1.265v-7.396h1.265zm-1.367-9.358c0-.205.061-.379.184-.52.128-.141.315-.212.561-.212s.433.071.56.212c.128.141.192.315.192.52s-.064.376-.192.512c-.127.137-.314.205-.56.205s-.433-.068-.561-.205c-.123-.136-.184-.307-.184-.512zm4.593 1.962.041.929c.565-.711 1.304-1.066 2.215-1.066 1.563 0 2.352.882 2.365 2.645v4.888h-1.264v-4.895c-.005-.533-.128-.927-.369-1.182-.237-.255-.609-.383-1.115-.383-.41 0-.77.109-1.08.328s-.551.506-.724.861v5.271h-1.265v-7.396zm6.228 3.636c0-1.153.267-2.069.8-2.748.533-.683 1.239-1.025 2.119-1.025.902 0 1.606.319 2.112.957l.062-.82h1.155v7.218c0 .957-.285 1.712-.855 2.263-.565.551-1.326.827-2.283.827-.533 0-1.055-.114-1.565-.342-.511-.228-.9-.54-1.169-.936l.656-.759c.542.67 1.206 1.005 1.989 1.005.616 0 1.094-.173 1.436-.52.346-.346.519-.834.519-1.463v-.635c-.505.583-1.196.875-2.071.875-.866 0-1.568-.349-2.105-1.046-.533-.697-.8-1.648-.8-2.851zm1.271.144c0 .834.171 1.49.513 1.969.342.473.82.71 1.436.71.797 0 1.383-.362 1.756-1.086v-3.377c-.387-.707-.968-1.06-1.743-1.06-.615 0-1.096.239-1.442.718-.346.478-.52 1.187-.52 2.126zm11.198 1.654c0-.342-.13-.606-.39-.793-.255-.191-.704-.355-1.347-.492-.638-.137-1.146-.301-1.524-.492-.374-.192-.652-.42-.834-.684-.178-.264-.267-.579-.267-.943 0-.606.256-1.119.766-1.538.515-.42 1.171-.629 1.969-.629.838 0 1.517.216 2.037.649.524.433.786.987.786 1.661h-1.272c0-.346-.148-.645-.444-.895-.292-.251-.661-.376-1.107-.376-.461 0-.821.1-1.08.301-.26.2-.39.462-.39.786 0 .305.121.535.362.69.242.155.677.303 1.306.445.633.141 1.146.309 1.538.505s.681.433.868.711c.192.274.287.609.287 1.005 0 .661-.264 1.192-.793 1.593-.528.396-1.214.595-2.057.595-.593 0-1.117-.105-1.573-.315-.455-.209-.813-.501-1.073-.875-.255-.378-.383-.786-.383-1.223h1.265c.023.423.191.761.506 1.011.319.246.738.369 1.258.369.478 0 .861-.095 1.148-.287.292-.196.438-.455.438-.779z" fill="#000"/><rect fill="#d1dcfa" height="44" rx="10" width="207" x="531" y="148"/><path d="m616.966 171.104v3.896h-1.313v-9.953h3.671c1.089 0 1.942.278 2.557.834.62.556.93 1.292.93 2.208 0 .966-.304 1.711-.91 2.235-.601.52-1.465.78-2.59.78zm0-1.074h2.358c.702 0 1.24-.164 1.614-.492.373-.333.56-.811.56-1.435 0-.593-.187-1.067-.56-1.422-.374-.356-.887-.54-1.539-.554h-2.433zm10.896-1.292c-.191-.032-.398-.048-.622-.048-.829 0-1.392.354-1.688 1.06v5.25h-1.265v-7.396h1.231l.02.854c.415-.661 1.003-.991 1.764-.991.246 0 .433.032.56.095zm.698 2.495c0-.724.141-1.376.423-1.955.288-.578.684-1.025 1.19-1.34.51-.314 1.091-.471 1.743-.471 1.007 0 1.821.348 2.44 1.046.625.697.937 1.624.937 2.782v.089c0 .72-.139 1.367-.417 1.941-.273.57-.668 1.014-1.183 1.333-.51.319-1.098.479-1.763.479-1.003 0-1.816-.349-2.441-1.046-.62-.697-.929-1.62-.929-2.769zm1.271.151c0 .82.189 1.479.567 1.975.383.497.894.745 1.532.745.642 0 1.153-.25 1.531-.751.378-.506.567-1.213.567-2.12 0-.811-.193-1.467-.581-1.968-.383-.506-.893-.759-1.531-.759-.624 0-1.128.248-1.511.745s-.574 1.208-.574 2.133zm7.472 3.616v-6.419h-1.169v-.977h1.169v-.629c0-.825.234-1.468.704-1.928.474-.46 1.141-.691 2.003-.691.51 0 1.155.139 1.934.417l-.212 1.067c-.569-.228-1.112-.342-1.627-.342-.542 0-.934.123-1.175.369-.237.242-.356.606-.356 1.094v.643h1.511v.977h-1.511v6.419zm5.27 0h-1.271v-7.396h1.271zm3.432 0h-1.265v-10.5h1.265zm5.099.137c-1.002 0-1.818-.328-2.447-.985-.629-.66-.943-1.542-.943-2.645v-.233c0-.733.139-1.387.417-1.962.282-.578.674-1.029 1.176-1.353.505-.328 1.052-.492 1.64-.492.962 0 1.709.317 2.242.95.534.633.8 1.54.8 2.721v.526h-5.01c.018.729.23 1.319.635 1.771.41.446.93.669 1.559.669.446 0 .825-.091 1.135-.273s.581-.424.813-.725l.773.602c-.62.952-1.55 1.429-2.79 1.429zm-.157-6.631c-.51 0-.939.187-1.285.56-.346.37-.56.889-.642 1.559h3.705v-.096c-.037-.642-.21-1.139-.52-1.49-.31-.355-.729-.533-1.258-.533z" fill="#000"/><rect fill="#d1dcfa" height="44" rx="10" width="207" x="531" y="74"/><path d="m604.135 91.0469 3.254 8.1211 3.254-8.1211h1.702v9.9531h-1.313v-3.876l.123-4.1836-3.267 8.0596h-1.005l-3.261-8.0391.13 4.1631v3.876h-1.313v-9.9531zm13.398 10.0901c-1.002 0-1.818-.328-2.447-.985-.629-.6605-.943-1.5423-.943-2.6452v-.2324c0-.7337.139-1.3877.417-1.9619.282-.5788.674-1.0299 1.175-1.3535.506-.3281 1.053-.4922 1.641-.4922.962 0 1.709.3167 2.242.9502s.8 1.5404.8 2.7207v.5264h-5.011c.018.7291.23 1.3193.636 1.7705.41.4466.93.6694 1.559.6694.446 0 .824-.091 1.134-.2729.31-.1823.581-.4239.814-.7247l.772.6016c-.62.952-1.549 1.429-2.789 1.429zm-.157-6.6311c-.51 0-.939.1868-1.285.5605-.347.3691-.561.8887-.643 1.5586h3.705v-.0957c-.036-.6426-.209-1.1393-.519-1.4902-.31-.3555-.729-.5332-1.258-.5332zm8.087.2324c-.192-.0319-.399-.0479-.622-.0479-.83 0-1.392.3532-1.689 1.0596v5.25h-1.264v-7.3965h1.23l.021.8545c.414-.6608 1.002-.9912 1.763-.9912.246 0 .433.0319.561.0957zm3.999 5.3657c.451 0 .845-.1362 1.183-.4097.337-.2734.524-.6152.56-1.0254h1.196c-.022.4239-.168.8272-.437 1.21-.269.3831-.629.6881-1.08.9161-.447.228-.921.342-1.422.342-1.007 0-1.809-.335-2.406-1.005-.593-.6746-.889-1.5952-.889-2.7619v-.2119c0-.72.132-1.3603.396-1.9209.265-.5605.643-.9958 1.135-1.3057.497-.3099 1.083-.4648 1.757-.4648.83 0 1.518.2484 2.065.7451.551.4968.845 1.1416.881 1.9346h-1.196c-.036-.4785-.219-.8705-.547-1.1758-.323-.3099-.724-.4648-1.203-.4648-.643 0-1.142.2324-1.497.6972-.351.4603-.526 1.128-.526 2.003v.2392c0 .8522.175 1.5085.526 1.9688.351.4602.852.6899 1.504.6899zm5.626-5.605c.56-.6881 1.29-1.0322 2.187-1.0322 1.564 0 2.352.8818 2.366 2.6455v4.8877h-1.265v-4.8945c-.005-.5332-.128-.9274-.369-1.1826-.237-.2553-.609-.3829-1.114-.3829-.411 0-.771.1094-1.081.3282-.309.2187-.551.5058-.724.8613v5.2705h-1.265v-10.5h1.265zm11.013 6.501c-.073-.146-.133-.406-.178-.779-.588.61-1.29.916-2.106.916-.729 0-1.328-.205-1.797-.616-.465-.414-.698-.9383-.698-1.5718 0-.7702.292-1.3672.875-1.791.588-.4284 1.413-.6426 2.475-.6426h1.23v-.581c0-.4421-.132-.793-.396-1.0528-.264-.2643-.654-.3964-1.169-.3964-.451 0-.83.1139-1.135.3417-.305.2279-.458.5036-.458.8272h-1.271c0-.3691.13-.7246.389-1.0664.265-.3464.62-.6198 1.067-.8203.451-.2005.945-.3008 1.483-.3008.852 0 1.52.2142 2.003.6426.483.4238.734 1.0094.752 1.7568v3.4043c0 .679.087 1.2195.26 1.6205v.109zm-2.099-.964c.396 0 .772-.1024 1.128-.3075.355-.2051.613-.4717.772-.7998v-1.5176h-.991c-1.549 0-2.324.4535-2.324 1.3604 0 .3965.132.7064.396.9297.265.2233.604.3348 1.019.3348zm6.344-6.4325.041.9297c.565-.7109 1.303-1.0664 2.215-1.0664 1.563 0 2.351.8818 2.365 2.6455v4.8877h-1.265v-4.8945c-.004-.5332-.127-.9274-.369-1.1826-.237-.2553-.608-.3829-1.114-.3829-.41 0-.77.1094-1.08.3282-.31.2187-.552.5058-.725.8613v5.2705h-1.265v-7.3965zm8.244-1.791v1.791h1.381v.9776h-1.381v4.5869c0 .2962.061.5195.184.6699.123.1458.333.2191.629.2191.146 0 .347-.028.602-.0824v1.0254c-.333.091-.656.137-.971.137-.565 0-.991-.171-1.278-.513s-.431-.8271-.431-1.456v-4.5869h-1.346v-.9776h1.346v-1.791zm7.171 7.2256c0-.3418-.13-.6061-.39-.793-.255-.1914-.704-.3555-1.347-.4922-.638-.1367-1.146-.3008-1.524-.4922-.374-.1914-.652-.4192-.834-.6836-.178-.2643-.267-.5787-.267-.9433 0-.6061.256-1.1188.766-1.5381.515-.4193 1.171-.6289 1.969-.6289.838 0 1.517.2165 2.037.6494.524.433.786.9867.786 1.6611h-1.271c0-.3463-.149-.6448-.445-.8955-.291-.2506-.661-.3759-1.107-.3759-.46 0-.821.1002-1.08.3007-.26.2006-.39.4626-.39.7862 0 .3053.121.5355.362.6904.242.155.677.3031 1.306.4443.633.1413 1.146.3099 1.538.5059s.681.4329.868.7109c.192.2735.287.6084.287 1.0049 0 .6608-.264 1.1918-.793 1.5928-.528.396-1.214.595-2.057.595-.593 0-1.117-.105-1.572-.315-.456-.209-.814-.501-1.074-.8747-.255-.3783-.383-.7862-.383-1.2237h1.265c.023.4239.192.7611.506 1.0118.319.246.738.3686 1.258.3686.478 0 .861-.095 1.148-.2866.292-.196.438-.4557.438-.7793z" fill="#000"/><rect fill="#d1dcfa" height="44" rx="10" width="207" x="531" y="296"/><path d="m602.473 319.862.191 1.313.28-1.183 1.969-6.945h1.108l1.92 6.945.274 1.203.212-1.34 1.545-6.808h1.319l-2.413 9.953h-1.196l-2.051-7.253-.157-.759-.158.759-2.126 7.253h-1.196l-2.406-9.953h1.312zm11.457 3.138h-1.265v-7.396h1.265zm-1.368-9.358c0-.205.062-.379.185-.52.128-.141.315-.212.561-.212s.433.071.56.212c.128.141.192.315.192.52s-.064.376-.192.512c-.127.137-.314.205-.56.205s-.433-.068-.561-.205c-.123-.136-.185-.307-.185-.512zm5.114.17v1.792h1.381v.977h-1.381v4.587c0 .296.061.52.184.67.123.146.333.219.629.219.146 0 .347-.028.602-.082v1.025c-.333.091-.656.137-.971.137-.565 0-.991-.171-1.278-.513s-.431-.827-.431-1.456v-4.587h-1.347v-.977h1.347v-1.792zm4.129 2.687c.56-.688 1.289-1.032 2.187-1.032 1.563 0 2.352.882 2.365 2.645v4.888h-1.264v-4.895c-.005-.533-.128-.927-.369-1.182-.237-.255-.609-.383-1.115-.383-.41 0-.77.109-1.08.328s-.551.506-.724.861v5.271h-1.265v-10.5h1.265zm6.138 2.741c0-1.135.269-2.046.807-2.734.538-.693 1.242-1.039 2.112-1.039.866 0 1.552.296 2.058.888v-3.855h1.265v10.5h-1.163l-.061-.793c-.506.62-1.21.93-2.112.93-.857 0-1.557-.351-2.099-1.053-.538-.702-.807-1.618-.807-2.748zm1.265.144c0 .838.173 1.495.52 1.969.346.473.824.71 1.435.71.802 0 1.388-.36 1.757-1.08v-3.397c-.378-.697-.959-1.046-1.743-1.046-.62 0-1.103.239-1.449.718-.347.478-.52 1.187-.52 2.126zm10.521-2.646c-.192-.032-.399-.048-.623-.048-.829 0-1.392.354-1.688 1.06v5.25h-1.265v-7.396h1.231l.02.854c.415-.661 1.003-.991 1.764-.991.246 0 .433.032.561.095zm5.461 6.262c-.072-.146-.132-.406-.177-.779-.588.61-1.29.916-2.106.916-.729 0-1.328-.205-1.798-.616-.464-.414-.697-.938-.697-1.572 0-.77.292-1.367.875-1.791.588-.428 1.413-.642 2.475-.642h1.23v-.581c0-.442-.132-.793-.396-1.053-.265-.264-.654-.397-1.169-.397-.451 0-.83.114-1.135.342s-.458.504-.458.827h-1.272c0-.369.13-.724.39-1.066.264-.346.62-.62 1.067-.82.451-.201.945-.301 1.483-.301.852 0 1.52.214 2.003.642.483.424.734 1.01.752 1.757v3.405c0 .679.086 1.219.26 1.62v.109zm-2.098-.964c.396 0 .772-.102 1.128-.307.355-.206.613-.472.772-.8v-1.518h-.991c-1.55 0-2.324.454-2.324 1.36 0 .397.132.707.396.93.265.223.604.335 1.019.335zm11.696-.779 1.422-5.653h1.265l-2.154 7.396h-1.025l-1.798-5.605-1.75 5.605h-1.025l-2.147-7.396h1.258l1.456 5.537 1.723-5.537h1.018zm8.545 1.743c-.073-.146-.132-.406-.178-.779-.588.61-1.289.916-2.105.916-.729 0-1.329-.205-1.798-.616-.465-.414-.697-.938-.697-1.572 0-.77.291-1.367.875-1.791.588-.428 1.412-.642 2.474-.642h1.231v-.581c0-.442-.132-.793-.397-1.053-.264-.264-.654-.397-1.169-.397-.451 0-.829.114-1.134.342-.306.228-.458.504-.458.827h-1.272c0-.369.13-.724.39-1.066.264-.346.62-.62 1.066-.82.451-.201.946-.301 1.484-.301.852 0 1.519.214 2.002.642.484.424.734 1.01.752 1.757v3.405c0 .679.087 1.219.26 1.62v.109zm-2.099-.964c.397 0 .773-.102 1.128-.307.356-.206.613-.472.773-.8v-1.518h-.991c-1.55 0-2.325.454-2.325 1.36 0 .397.132.707.397.93.264.223.604.335 1.018.335zm6.522.964h-1.265v-10.5h1.265z" fill="#000"/><rect fill="#f3f2f2" height="44" rx="10" width="207" x="788"/><path d="m871.381 23.8623.191 1.3125.281-1.1826 1.968-6.9453h1.108l1.921 6.9453.273 1.2031.212-1.3398 1.545-6.8086h1.319l-2.413 9.9531h-1.196l-2.051-7.2529-.157-.7588-.157.7588-2.126 7.2529h-1.197l-2.406-9.9531h1.313zm14.417 3.1377c-.073-.1458-.132-.4056-.178-.7793-.588.6107-1.29.916-2.105.916-.73 0-1.329-.2051-1.798-.6152-.465-.4147-.697-.9388-.697-1.5723 0-.7702.291-1.3672.875-1.791.587-.4284 1.412-.6426 2.474-.6426h1.231v-.581c0-.4421-.133-.793-.397-1.0528-.264-.2643-.654-.3964-1.169-.3964-.451 0-.829.1139-1.135.3417-.305.2279-.458.5036-.458.8272h-1.271c0-.3691.13-.7246.39-1.0664.264-.3464.619-.6198 1.066-.8203.451-.2005.946-.3008 1.483-.3008.853 0 1.52.2142 2.003.6426.483.4238.734 1.0094.752 1.7568v3.4043c0 .679.087 1.2191.26 1.6201v.1094zm-2.099-.9639c.397 0 .773-.1025 1.128-.3076.356-.2051.613-.4717.773-.7998v-1.5176h-.992c-1.549 0-2.324.4535-2.324 1.3604 0 .3965.132.7064.397.9297.264.2233.604.3349 1.018.3349zm6.522.9639h-1.265v-10.5h1.265zm3.404 0h-1.265v-10.5h1.265zm5.1.1367c-1.003 0-1.819-.3281-2.448-.9844-.629-.6608-.943-1.5426-.943-2.6455v-.2324c0-.7337.139-1.3877.417-1.9619.283-.5788.674-1.0299 1.176-1.3535.506-.3281 1.052-.4922 1.64-.4922.962 0 1.709.3167 2.243.9502.533.6335.799 1.5404.799 2.7207v.5264h-5.01c.018.7291.23 1.3193.635 1.7705.411.4466.93.6699 1.559.6699.447 0 .825-.0912 1.135-.2734.31-.1823.581-.4239.813-.7247l.773.6016c-.62.9525-1.55 1.4287-2.789 1.4287zm-.158-6.6308c-.51 0-.938.1868-1.285.5605-.346.3691-.56.8887-.642 1.5586h3.705v-.0957c-.037-.6426-.21-1.1393-.52-1.4902-.31-.3555-.729-.5332-1.258-.5332zm6.228-2.6934v1.791h1.381v.9776h-1.381v4.5869c0 .2962.061.5195.184.6699.124.1458.333.2187.629.2187.146 0 .347-.0273.602-.082v1.0254c-.333.0911-.656.1367-.971.1367-.565 0-.991-.1709-1.278-.5127s-.431-.8271-.431-1.456v-4.5869h-1.346v-.9776h1.346v-1.791zm7.171 7.2256c0-.3418-.13-.6061-.39-.793-.255-.1914-.704-.3555-1.347-.4922-.638-.1367-1.146-.3008-1.524-.4922-.374-.1914-.652-.4192-.834-.6836-.178-.2643-.267-.5787-.267-.9433 0-.6061.256-1.1188.766-1.5381.515-.4193 1.171-.6289 1.969-.6289.838 0 1.517.2165 2.037.6494.524.433.786.9867.786 1.6611h-1.271c0-.3463-.148-.6448-.445-.8955-.291-.2506-.661-.3759-1.107-.3759-.46 0-.82.1002-1.08.3007-.26.2006-.39.4626-.39.7862 0 .3053.121.5355.362.6904.242.155.677.3031 1.306.4443.634.1413 1.146.3099 1.538.5059s.682.4329.868.7109c.192.2735.287.6084.287 1.0049 0 .6608-.264 1.1918-.792 1.5928-.529.3965-1.215.5947-2.058.5947-.593 0-1.117-.1048-1.572-.3144-.456-.2097-.814-.5013-1.074-.875-.255-.3783-.382-.7862-.382-1.2237h1.264c.023.4239.192.7611.506 1.0118.319.246.738.3691 1.258.3691.478 0 .861-.0957 1.148-.2871.292-.196.438-.4557.438-.7793z" fill="#000"/><rect fill="#f3f2f2" height="44" rx="10" width="207" x="1025"/><path d="m1099.91 23.1035v3.8965h-1.31v-9.9531h3.67c1.09 0 1.94.278 2.56.834.62.5559.93 1.292.93 2.208 0 .9661-.31 1.7112-.91 2.2353-.6.5196-1.47.7793-2.59.7793zm0-1.0732h2.36c.7 0 1.24-.1641 1.61-.4922.38-.3327.56-.8112.56-1.4356 0-.5924-.18-1.0664-.56-1.4218-.37-.3555-.88-.5401-1.53-.5537h-2.44zm11.81 4.9697c-.08-.1458-.13-.4056-.18-.7793-.59.6107-1.29.916-2.11.916-.72 0-1.32-.2051-1.79-.6152-.47-.4147-.7-.9388-.7-1.5723 0-.7702.29-1.3672.87-1.791.59-.4284 1.42-.6426 2.48-.6426h1.23v-.581c0-.4421-.13-.793-.4-1.0528-.26-.2643-.65-.3964-1.17-.3964-.45 0-.83.1139-1.13.3417-.31.2279-.46.5036-.46.8272h-1.27c0-.3691.13-.7246.39-1.0664.26-.3464.62-.6198 1.07-.8203s.94-.3008 1.48-.3008c.85 0 1.52.2142 2 .6426.49.4238.74 1.0094.75 1.7568v3.4043c0 .679.09 1.2191.26 1.6201v.1094zm-2.1-.9639c.4 0 .77-.1025 1.13-.3076.35-.2051.61-.4717.77-.7998v-1.5176h-.99c-1.55 0-2.33.4535-2.33 1.3604 0 .3965.14.7064.4.9297s.6.3349 1.02.3349zm7.46-.8886 1.72-5.544h1.35l-2.97 8.5381c-.46 1.2305-1.19 1.8457-2.19 1.8457l-.24-.0205-.48-.0889v-1.0254l.35.0274c.42 0 .76-.0866.99-.2598.25-.1732.44-.4899.6-.9502l.28-.7519-2.64-7.3145h1.38zm5.4-5.544.03.8203c.54-.638 1.28-.957 2.2-.957 1.03 0 1.73.3965 2.11 1.1894.24-.3554.56-.6425.96-.8613.39-.2187.86-.3281 1.4-.3281 1.62 0 2.44.859 2.47 2.5771v4.9561h-1.26v-4.8809c0-.5286-.12-.9228-.37-1.1826-.24-.2643-.64-.3965-1.21-.3965-.47 0-.86.1413-1.17.4239-.31.278-.49.6539-.54 1.1279v4.9082h-1.27v-4.8467c0-1.0755-.53-1.6133-1.58-1.6133-.83 0-1.4.3532-1.7 1.0596v5.4004h-1.27v-7.3965zm14.15 7.5332c-1 0-1.81-.3281-2.44-.9844-.63-.6608-.95-1.5426-.95-2.6455v-.2324c0-.7337.14-1.3877.42-1.9619.28-.5788.68-1.0299 1.18-1.3535.5-.3281 1.05-.4922 1.64-.4922.96 0 1.71.3167 2.24.9502s.8 1.5404.8 2.7207v.5264h-5.01c.02.7291.23 1.3193.63 1.7705.41.4466.93.6699 1.56.6699.45 0 .83-.0912 1.14-.2734.31-.1823.58-.4239.81-.7247l.77.6016c-.62.9525-1.55 1.4287-2.79 1.4287zm-.15-6.6308c-.51 0-.94.1868-1.29.5605-.34.3691-.56.8887-.64 1.5586h3.7v-.0957c-.03-.6426-.2-1.1393-.51-1.4902-.31-.3555-.73-.5332-1.26-.5332zm5.71-.9024.04.9297c.56-.7109 1.3-1.0664 2.21-1.0664 1.56 0 2.35.8818 2.37 2.6455v4.8877h-1.27v-4.8945c0-.5332-.13-.9274-.37-1.1826-.23-.2553-.61-.3829-1.11-.3829-.41 0-.77.1094-1.08.3282-.31.2187-.55.5058-.73.8613v5.2705h-1.26v-7.3965zm8.24-1.791v1.791h1.38v.9776h-1.38v4.5869c0 .2962.06.5195.18.6699.13.1458.34.2187.63.2187.15 0 .35-.0273.6-.082v1.0254c-.33.0911-.65.1367-.97.1367-.56 0-.99-.1709-1.27-.5127-.29-.3418-.43-.8271-.43-1.456v-4.5869h-1.35v-.9776h1.35v-1.791zm7.17 7.2256c0-.3418-.13-.6061-.39-.793-.25-.1914-.7-.3555-1.35-.4922-.63-.1367-1.14-.3008-1.52-.4922-.37-.1914-.65-.4192-.83-.6836-.18-.2643-.27-.5787-.27-.9433 0-.6061.25-1.1188.76-1.5381.52-.4193 1.18-.6289 1.97-.6289.84 0 1.52.2165 2.04.6494.52.433.79.9867.79 1.6611h-1.27c0-.3463-.15-.6448-.45-.8955-.29-.2506-.66-.3759-1.11-.3759-.46 0-.82.1002-1.08.3007-.26.2006-.39.4626-.39.7862 0 .3053.12.5355.37.6904.24.155.67.3031 1.3.4443.64.1413 1.15.3099 1.54.5059s.68.4329.87.7109c.19.2735.29.6084.29 1.0049 0 .6608-.27 1.1918-.8 1.5928-.53.3965-1.21.5947-2.06.5947-.59 0-1.11-.1048-1.57-.3144-.45-.2097-.81-.5013-1.07-.875-.26-.3783-.38-.7862-.38-1.2237h1.26c.02.4239.19.7611.51 1.0118.32.246.74.3691 1.25.3691.48 0 .87-.0957 1.15-.2871.29-.196.44-.4557.44-.7793z" fill="#000"/><rect fill="#fcb0b0" height="44" rx="10" width="127" y="145"/><path d="m40.5918 170.927h4.7168v1.073h-6.0361v-9.953h1.3193zm10.582 1.073c-.0729-.146-.1321-.406-.1777-.779-.5879.61-1.2897.916-2.1055.916-.7291 0-1.3284-.205-1.7978-.616-.4649-.414-.6973-.938-.6973-1.572 0-.77.2917-1.367.875-1.791.5879-.428 1.4128-.642 2.4746-.642h1.2305v-.581c0-.442-.1322-.793-.3965-1.053-.2643-.264-.654-.397-1.1689-.397-.4512 0-.8295.114-1.1348.342s-.458.504-.458.827h-1.2715c0-.369.1299-.724.3896-1.066.2644-.346.6198-.62 1.0665-.82.4511-.201.9456-.301 1.4834-.301.8522 0 1.5198.214 2.0029.642.4831.424.7337 1.01.7519 1.757v3.405c0 .679.0866 1.219.2598 1.62v.109zm-2.0986-.964c.3965 0 .7725-.102 1.1279-.307.3555-.206.613-.472.7725-.8v-1.518h-.9912c-1.5495 0-2.3242.454-2.3242 1.36 0 .397.1321.707.3964.93.2644.223.6039.335 1.0186.335zm6.3437-6.432.0411.929c.5651-.711 1.3033-1.066 2.2148-1.066 1.5632 0 2.3516.882 2.3652 2.645v4.888h-1.2646v-4.895c-.0046-.533-.1276-.927-.3692-1.182-.2369-.255-.6083-.383-1.1142-.383-.4102 0-.7702.109-1.0801.328s-.5514.506-.7246.861v5.271h-1.2646v-7.396zm6.2207 3.636c0-1.135.2689-2.046.8067-2.734.5377-.693 1.2419-1.039 2.1123-1.039.8659 0 1.5518.296 2.0576.888v-3.855h1.2647v10.5h-1.1621l-.0616-.793c-.5058.62-1.2099.93-2.1123.93-.8567 0-1.5563-.351-2.0986-1.053-.5378-.702-.8067-1.618-.8067-2.748zm1.2647.144c0 .838.1732 1.495.5195 1.969.3464.473.8249.71 1.4356.71.8021 0 1.3877-.36 1.7568-1.08v-3.397c-.3782-.697-.9593-1.046-1.7432-1.046-.6197 0-1.1028.239-1.4492.718-.3463.478-.5195 1.187-.5195 2.126zm8.3193 3.616h-1.2646v-7.396h1.2646zm-1.3672-9.358c0-.205.0616-.379.1846-.52.1276-.141.3145-.212.5606-.212s.4329.071.5605.212.1914.315.1914.52-.0638.376-.1914.512c-.1276.137-.3144.205-.5605.205s-.433-.068-.5606-.205c-.123-.136-.1846-.307-.1846-.512zm4.5938 1.962.041.929c.5651-.711 1.3034-1.066 2.2149-1.066 1.5631 0 2.3515.882 2.3652 2.645v4.888h-1.2647v-4.895c-.0045-.533-.1276-.927-.3691-1.182-.237-.255-.6084-.383-1.1143-.383-.4101 0-.7701.109-1.08.328s-.5515.506-.7246.861v5.271h-1.2647v-7.396zm6.2275 3.636c0-1.153.2666-2.069.7998-2.748.5332-.683 1.2396-1.025 2.1192-1.025.9023 0 1.6064.319 2.1123.957l.0615-.82h1.1553v7.218c0 .957-.2848 1.712-.8545 2.263-.5651.551-1.3262.827-2.2832.827-.5332 0-1.055-.114-1.5654-.342-.5105-.228-.9001-.54-1.169-.936l.6563-.759c.5423.67 1.2054 1.005 1.9892 1.005.6153 0 1.0938-.173 1.4356-.52.3463-.346.5195-.834.5195-1.463v-.635c-.5059.583-1.1963.875-2.0713.875-.8659 0-1.5677-.349-2.1055-1.046-.5332-.697-.7998-1.648-.7998-2.851zm1.2715.144c0 .834.1709 1.49.5127 1.969.3418.473.8203.71 1.4356.71.7975 0 1.3831-.362 1.7568-1.086v-3.377c-.3874-.707-.9684-1.06-1.7432-1.06-.6152 0-1.096.239-1.4423.718-.3464.478-.5196 1.187-.5196 2.126z" fill="#000"/><g fill="#b1abf9"><circle cx="130" cy="167" r="3"/><path d="m176.354 167.354c.195-.196.195-.512 0-.708l-3.182-3.182c-.196-.195-.512-.195-.708 0-.195.196-.195.512 0 .708l2.829 2.828-2.829 2.828c-.195.196-.195.512 0 .708.196.195.512.195.708 0zm-46.354.146h46v-1h-46z"/><circle cx="741" cy="25" r="3"/><path d="m787.354 25.3536c.195-.1953.195-.5119 0-.7072l-3.182-3.1819c-.196-.1953-.512-.1953-.708 0-.195.1952-.195.5118 0 .7071l2.829 2.8284-2.829 2.8284c-.195.1953-.195.5119 0 .7071.196.1953.512.1953.708 0zm-46.354.1464h46v-1h-46z"/><circle cx="741" cy="96" r="3"/><path d="m787.354 96.3536c.195-.1953.195-.5119 0-.7072l-3.182-3.1819c-.196-.1953-.512-.1953-.708 0-.195.1952-.195.5118 0 .7071l2.829 2.8284-2.829 2.8284c-.195.1953-.195.5119 0 .7071.196.1953.512.1953.708 0zm-46.354.1464h46v-1h-46z"/><circle cx="741" cy="170" r="3"/><path d="m787.354 170.354c.195-.196.195-.512 0-.708l-3.182-3.182c-.196-.195-.512-.195-.708 0-.195.196-.195.512 0 .708l2.829 2.828-2.829 2.828c-.195.196-.195.512 0 .708.196.195.512.195.708 0zm-46.354.146h46v-1h-46z"/><circle cx="741" cy="244" r="3"/><path d="m787.354 244.354c.195-.196.195-.512 0-.708l-3.182-3.182c-.196-.195-.512-.195-.708 0-.195.196-.195.512 0 .708l2.829 2.828-2.829 2.828c-.195.196-.195.512 0 .708.196.195.512.195.708 0zm-46.354.146h46v-1h-46z"/><circle cx="741" cy="318" r="3"/><path d="m787.354 318.354c.195-.196.195-.512 0-.708l-3.182-3.182c-.196-.195-.512-.195-.708 0-.195.196-.195.512 0 .708l2.829 2.828-2.829 2.828c-.195.196-.195.512 0 .708.196.195.512.195.708 0zm-46.354.146h46v-1h-46z"/><circle cx="634" cy="47" r="3"/><path d="m633.5 47v2.4h1v-2.4zm0 7.2v4.8h1v-4.8zm0 9.6v4.8h1v-4.8z"/><circle cx="998" cy="24" r="3" transform="matrix(0 -1 1 0 974 1022)"/><path d="m998 24.5h2.4v-1h-2.4zm7.2 0h4.8v-1h-4.8zm9.6 0h4.8v-1h-4.8z"/><circle cx="998" cy="98" r="3" transform="matrix(0 -1 1 0 900 1096)"/><path d="m998 98.5h2.4v-1h-2.4zm7.2 0h4.8v-1h-4.8zm9.6 0h4.8v-1h-4.8z"/><circle cx="998" cy="170" r="3" transform="matrix(0 -1 1 0 828 1168)"/><path d="m998 170.5h2.4v-1h-2.4zm7.2 0h4.8v-1h-4.8zm9.6 0h4.8v-1h-4.8z"/><circle cx="634" cy="121" r="3"/><path d="m633.5 121v2.4h1v-2.4zm0 7.2v4.8h1v-4.8zm0 9.6v4.8h1v-4.8z"/><circle cx="634" cy="195" r="3"/><path d="m633.5 195v2.4h1v-2.4zm0 7.2v4.8h1v-4.8zm0 9.6v4.8h1v-4.8z"/><circle cx="634" cy="269" r="3"/><path d="m633.5 269v2.4h1v-2.4zm0 7.2v4.8h1v-4.8zm0 9.6v4.8h1v-4.8z"/><circle cx="307" cy="167" r="3"/><path d="m354.354 130.354c.195-.196.195-.512 0-.708l-3.182-3.182c-.196-.195-.512-.195-.708 0-.195.196-.195.512 0 .708l2.829 2.828-2.829 2.828c-.195.196-.195.512 0 .708.196.195.512.195.708 0zm-47.354 37.146h13.5v-1h-13.5zm24-10.5v-17h-1v17zm9.5-26.5h13.5v-1h-13.5zm-9.5 9.5c0-5.247 4.253-9.5 9.5-9.5v-1c-5.799 0-10.5 4.701-10.5 10.5zm-10.5 27.5c5.799 0 10.5-4.701 10.5-10.5h-1c0 5.247-4.253 9.5-9.5 9.5z"/><circle cx="484" cy="201" r="3"/><path d="m531.354 16.3536c.195-.1953.195-.5119 0-.7072l-3.182-3.1819c-.196-.1953-.512-.1953-.708 0-.195.1952-.195.5118 0 .7071l2.829 2.8284-2.829 2.8284c-.195.1953-.195.5119 0 .7071.196.1953.512.1953.708 0zm-47.354 185.1464h13.5v-1h-13.5zm24-10.5v-165h-1v165zm9.5-174.5h13.5v-1h-13.5zm-9.5 9.5c0-5.2467 4.253-9.5 9.5-9.5v-1c-5.799 0-10.5 4.701-10.5 10.5zm-10.5 175.5c5.799 0 10.5-4.701 10.5-10.5h-1c0 5.247-4.253 9.5-9.5 9.5z"/><circle cx="484" cy="127" r="3"/><path d="m531.354 16.3536c.195-.1953.195-.5119 0-.7072l-3.182-3.1819c-.196-.1953-.512-.1953-.708 0-.195.1952-.195.5118 0 .7071l2.829 2.8284-2.829 2.8284c-.195.1953-.195.5119 0 .7071.196.1953.512.1953.708 0zm-47.354 111.1464h13.5v-1h-13.5zm24-10.5v-91h-1v91zm9.5-100.5h13.5v-1h-13.5zm-9.5 9.5c0-5.2467 4.253-9.5 9.5-9.5v-1c-5.799 0-10.5 4.701-10.5 10.5zm-10.5 101.5c5.799 0 10.5-4.701 10.5-10.5h-1c0 5.247-4.253 9.5-9.5 9.5z"/><circle r="3" transform="matrix(1 0 0 -1 307 167)"/><path d="m354.354 203.646c.195.196.195.512 0 .708l-3.182 3.182c-.196.195-.512.195-.708 0-.195-.196-.195-.512 0-.708l2.829-2.828-2.829-2.828c-.195-.196-.195-.512 0-.708.196-.195.512-.195.708 0zm-47.354-37.146h13.5v1h-13.5zm24 10.5v17h-1v-17zm9.5 26.5h13.5v1h-13.5zm-9.5-9.5c0 5.247 4.253 9.5 9.5 9.5v1c-5.799 0-10.5-4.701-10.5-10.5zm-10.5-27.5c5.799 0 10.5 4.701 10.5 10.5h-1c0-5.247-4.253-9.5-9.5-9.5z"/></g></svg>