<svg fill="none" height="44" viewBox="0 0 583 44" width="583" xmlns="http://www.w3.org/2000/svg"><rect fill="#d1dcfa" height="44" rx="10" width="127" x="152"/><path d="m198.178 22.5635c-1.126-.3236-1.946-.7201-2.461-1.1895-.511-.4739-.766-1.0573-.766-1.75 0-.7838.312-1.431.937-1.9414.629-.515 1.444-.7724 2.447-.7724.684 0 1.292.1321 1.825.3964.538.2644.953.6289 1.244 1.0938.297.4648.445.973.445 1.5244h-1.32c0-.6016-.191-1.0732-.574-1.415-.383-.3464-.923-.5196-1.62-.5196-.647 0-1.153.1436-1.518.4307-.36.2826-.54.6768-.54 1.1826 0 .4056.171.7497.513 1.0322.346.278.932.5332 1.757.7657.829.2324 1.476.4899 1.941.7724.47.278.816.6039 1.039.9776.228.3737.342.8134.342 1.3193 0 .8066-.314 1.4538-.943 1.9414-.629.4831-1.47.7246-2.523.7246-.683 0-1.321-.1299-1.914-.3896-.592-.2644-1.05-.6244-1.374-1.0801-.319-.4557-.478-.973-.478-1.5518h1.319c0 .6016.221 1.0778.663 1.4287.447.3464 1.041.5196 1.784.5196.693 0 1.224-.1413 1.593-.4239.369-.2825.554-.6676.554-1.1552 0-.4877-.171-.8636-.513-1.128-.342-.2688-.961-.5332-1.859-.7929zm8.148 3.541c.451 0 .846-.1367 1.183-.4102.337-.2734.524-.6152.56-1.0254h1.197c-.023.4239-.169.8272-.438 1.21s-.629.6882-1.08.916c-.447.2279-.921.3418-1.422.3418-1.007 0-1.809-.3349-2.406-1.0049-.593-.6744-.889-1.595-.889-2.7617v-.2119c0-.72.132-1.3603.397-1.9209.264-.5605.642-.9958 1.134-1.3057.497-.3099 1.083-.4648 1.757-.4648.83 0 1.518.2484 2.065.7451.551.4968.845 1.1416.882 1.9346h-1.197c-.036-.4785-.218-.8705-.547-1.1758-.323-.3099-.724-.4648-1.203-.4648-.642 0-1.141.2324-1.497.6972-.351.4603-.526 1.128-.526 2.003v.2392c0 .8522.175 1.5085.526 1.9688.351.4602.852.6904 1.504.6904zm7.937-5.3662c-.192-.0319-.399-.0479-.622-.0479-.83 0-1.393.3532-1.689 1.0596v5.25h-1.264v-7.3965h1.23l.02.8545c.415-.6608 1.003-.9912 1.764-.9912.246 0 .433.0319.561.0957zm4.101 6.3984c-1.002 0-1.818-.3281-2.447-.9844-.629-.6608-.943-1.5426-.943-2.6455v-.2324c0-.7337.139-1.3877.417-1.9619.282-.5788.674-1.0299 1.175-1.3535.506-.3281 1.053-.4922 1.641-.4922.962 0 1.709.3167 2.242.9502s.8 1.5404.8 2.7207v.5264h-5.011c.019.7291.23 1.3193.636 1.7705.41.4466.93.6699 1.559.6699.446 0 .824-.0912 1.134-.2734.31-.1823.581-.4239.814-.7247l.772.6016c-.619.9525-1.549 1.4287-2.789 1.4287zm-.157-6.6308c-.51 0-.939.1868-1.285.5605-.346.3691-.561.8887-.643 1.5586h3.705v-.0957c-.036-.6426-.209-1.1393-.519-1.4902-.31-.3555-.729-.5332-1.258-.5332zm7.581 6.6308c-1.003 0-1.818-.3281-2.447-.9844-.629-.6608-.944-1.5426-.944-2.6455v-.2324c0-.7337.139-1.3877.417-1.9619.283-.5788.675-1.0299 1.176-1.3535.506-.3281 1.053-.4922 1.641-.4922.961 0 1.709.3167 2.242.9502s.8 1.5404.8 2.7207v.5264h-5.011c.018.7291.23 1.3193.636 1.7705.41.4466.93.6699 1.558.6699.447 0 .825-.0912 1.135-.2734.31-.1823.581-.4239.814-.7247l.772.6016c-.62.9525-1.549 1.4287-2.789 1.4287zm-.157-6.6308c-.511 0-.939.1868-1.285.5605-.347.3691-.561.8887-.643 1.5586h3.705v-.0957c-.036-.6426-.209-1.1393-.519-1.4902-.31-.3555-.729-.5332-1.258-.5332zm5.708-.9024.041.9297c.565-.7109 1.303-1.0664 2.215-1.0664 1.563 0 2.351.8818 2.365 2.6455v4.8877h-1.265v-4.8945c-.004-.5332-.127-.9274-.369-1.1826-.237-.2553-.608-.3829-1.114-.3829-.41 0-.77.1094-1.08.3282-.31.2187-.552.5058-.725.8613v5.2705h-1.264v-7.3965z" fill="#000"/><rect fill="#f3f2f2" height="44" rx="10" width="127" x="304"/><path d="m350.908 23.8418c-.123 1.0527-.512 1.8662-1.169 2.4404-.651.5697-1.52.8545-2.604.8545-1.176 0-2.119-.4215-2.83-1.2646-.707-.8431-1.06-1.9711-1.06-3.3838v-.9571c0-.9251.164-1.7386.492-2.4404.333-.7018.802-1.2396 1.409-1.6133.606-.3782 1.307-.5673 2.105-.5673 1.057 0 1.905.2962 2.543.8886.638.5879 1.009 1.4037 1.114 2.4473h-1.319c-.114-.793-.362-1.3672-.745-1.7227-.379-.3554-.909-.5332-1.593-.5332-.839 0-1.497.3099-1.976.9297-.474.6198-.711 1.5016-.711 2.6455v.9639c0 1.0801.226 1.9391.677 2.5771.451.6381 1.083.9571 1.894.9571.729 0 1.287-.1641 1.675-.4922.391-.3327.651-.9092.779-1.7295zm1.265-.6084c0-.7246.141-1.3763.424-1.9551.287-.5788.683-1.0254 1.189-1.3398.511-.3145 1.092-.4717 1.743-.4717 1.007 0 1.821.3486 2.441 1.0459.624.6973.936 1.6247.936 2.7822v.0889c0 .72-.139 1.3672-.417 1.9414-.273.5697-.667 1.014-1.182 1.333-.511.319-1.099.4785-1.764.4785-1.003 0-1.816-.3486-2.44-1.0459-.62-.6972-.93-1.6201-.93-2.7685zm1.271.1504c0 .8203.189 1.4788.568 1.9756.383.4967.893.7451 1.531.7451.643 0 1.153-.2507 1.531-.752.378-.5058.568-1.2122.568-2.1191 0-.8112-.194-1.4674-.581-1.9688-.383-.5058-.894-.7587-1.532-.7587-.624 0-1.128.2483-1.51.7451-.383.4967-.575 1.2077-.575 2.1328zm8.244-3.7803.041.9297c.566-.7109 1.304-1.0664 2.215-1.0664 1.563 0 2.352.8818 2.366 2.6455v4.8877h-1.265v-4.8945c-.005-.5332-.128-.9274-.369-1.1826-.237-.2553-.609-.3829-1.114-.3829-.411 0-.771.1094-1.081.3282-.309.2187-.551.5058-.724.8613v5.2705h-1.265v-7.3965zm8.245-1.791v1.791h1.38v.9776h-1.38v4.5869c0 .2962.061.5195.184.6699.123.1458.333.2187.629.2187.146 0 .346-.0273.602-.082v1.0254c-.333.0911-.657.1367-.971.1367-.565 0-.991-.1709-1.278-.5127s-.431-.8271-.431-1.456v-4.5869h-1.347v-.9776h1.347v-1.791zm5.933 9.3242c-1.002 0-1.818-.3281-2.447-.9844-.629-.6608-.943-1.5426-.943-2.6455v-.2324c0-.7337.139-1.3877.417-1.9619.282-.5788.674-1.0299 1.175-1.3535.506-.3281 1.053-.4922 1.641-.4922.962 0 1.709.3167 2.242.9502s.8 1.5404.8 2.7207v.5264h-5.011c.018.7291.23 1.3193.636 1.7705.41.4466.93.6699 1.559.6699.446 0 .824-.0912 1.134-.2734.31-.1823.581-.4239.814-.7247l.772.6016c-.62.9525-1.549 1.4287-2.789 1.4287zm-.157-6.6308c-.51 0-.939.1868-1.285.5605-.347.3691-.561.8887-.643 1.5586h3.705v-.0957c-.036-.6426-.209-1.1393-.519-1.4902-.31-.3555-.729-.5332-1.258-.5332zm5.708-.9024.041.9297c.565-.7109 1.303-1.0664 2.215-1.0664 1.563 0 2.351.8818 2.365 2.6455v4.8877h-1.265v-4.8945c-.004-.5332-.127-.9274-.369-1.1826-.237-.2553-.608-.3829-1.114-.3829-.41 0-.77.1094-1.08.3282-.31.2187-.551.5058-.725.8613v5.2705h-1.264v-7.3965zm8.244-1.791v1.791h1.381v.9776h-1.381v4.5869c0 .2962.062.5195.185.6699.123.1458.332.2187.629.2187.145 0 .346-.0273.601-.082v1.0254c-.333.0911-.656.1367-.971.1367-.565 0-.991-.1709-1.278-.5127s-.431-.8271-.431-1.456v-4.5869h-1.346v-.9776h1.346v-1.791z" fill="#000"/><rect fill="#fcb0b0" height="44" rx="10" width="127"/><path d="m36.8877 22.3994h-4.3135v3.5274h5.0108v1.0732h-6.3233v-9.9531h6.2549v1.0801h-4.9424v3.1992h4.3135zm3.3291-2.7959.041.9297c.5651-.7109 1.3034-1.0664 2.2149-1.0664 1.5631 0 2.3515.8818 2.3652 2.6455v4.8877h-1.2647v-4.8945c-.0045-.5332-.1276-.9274-.3691-1.1826-.237-.2553-.6084-.3829-1.1143-.3829-.4101 0-.7701.1094-1.08.3282-.3099.2187-.5515.5058-.7246.8613v5.2705h-1.2647v-7.3965zm8.2441-1.791v1.791h1.3809v.9776h-1.3809v4.5869c0 .2962.0616.5195.1846.6699.1231.1458.3327.2187.6289.2187.1458 0 .3464-.0273.6016-.082v1.0254c-.3327.0911-.6563.1367-.9707.1367-.5651 0-.9912-.1709-1.2783-.5127-.2872-.3418-.4307-.8271-.4307-1.456v-4.5869h-1.3467v-.9776h1.3467v-1.791zm6.4395 2.9258c-.1914-.0319-.3988-.0479-.6221-.0479-.8294 0-1.3922.3532-1.6885 1.0596v5.25h-1.2646v-7.3965h1.2305l.0205.8545c.4147-.6608 1.0026-.9912 1.7636-.9912.2461 0 .433.0319.5606.0957zm3.7119 4.4092 1.7227-5.544h1.3535l-2.9737 8.5381c-.4602 1.2305-1.1917 1.8457-2.1943 1.8457l-.2393-.0205-.4716-.0889v-1.0254l.3418.0274c.4284 0 .761-.0866.998-.2598.2416-.1732.4398-.4899.5947-.9502l.2803-.7519-2.6387-7.3145h1.3809zm13.9316-1.7637c0 1.1256-.2574 2.0325-.7724 2.7207-.515.6881-1.2123 1.0322-2.0918 1.0322-.8978 0-1.6042-.2848-2.1192-.8545v3.5616h-1.2646v-10.2403h1.1553l.0615.8203c.515-.638 1.2305-.957 2.1465-.957.8887 0 1.5905.335 2.1054 1.0049.5196.6699.7793 1.6019.7793 2.7959zm-1.2646-.1436c0-.834-.1777-1.4925-.5332-1.9756-.3555-.483-.8431-.7246-1.4629-.7246-.7656 0-1.3398.3396-1.7227 1.0186v3.5342c.3783.6745.9571 1.0117 1.7364 1.0117.6061 0 1.0869-.2393 1.4424-.7178.36-.4831.54-1.1985.54-2.1465zm2.543-.0068c0-.7246.1412-1.3763.4238-1.9551.2871-.5788.6836-1.0254 1.1894-1.3398.5105-.3145 1.0915-.4717 1.7432-.4717 1.0072 0 1.8206.3486 2.4404 1.0459.6244.6973.9366 1.6247.9366 2.7822v.0889c0 .72-.139 1.3672-.417 1.9414-.2735.5697-.6677 1.014-1.1826 1.333-.5105.319-1.0984.4785-1.7637.4785-1.0026 0-1.8161-.3486-2.4404-1.0459-.6198-.6972-.9297-1.6201-.9297-2.7685zm1.2715.1504c0 .8203.1891 1.4788.5673 1.9756.3828.4967.8933.7451 1.5313.7451.6426 0 1.153-.2507 1.5312-.752.3783-.5058.5674-1.2122.5674-2.1191 0-.8112-.1937-1.4674-.581-1.9688-.3829-.5058-.8933-.7587-1.5313-.7587-.6243 0-1.1279.2483-1.5107.7451-.3828.4967-.5742 1.2077-.5742 2.1328zm8.4218 3.6162h-1.2646v-7.3965h1.2646zm-1.3672-9.3584c0-.2051.0616-.3783.1846-.5195.1276-.1413.3145-.2119.5606-.2119.246 0 .4329.0706.5605.2119.1276.1412.1914.3144.1914.5195s-.0638.376-.1914.5127-.3145.2051-.5605.2051c-.2461 0-.433-.0684-.5606-.2051-.123-.1367-.1846-.3076-.1846-.5127zm4.5938 1.9619.041.9297c.5651-.7109 1.3034-1.0664 2.2148-1.0664 1.5632 0 2.3516.8818 2.3653 2.6455v4.8877h-1.2647v-4.8945c-.0045-.5332-.1276-.9274-.3691-1.1826-.237-.2553-.6084-.3829-1.1143-.3829-.4101 0-.7701.1094-1.08.3282-.3099.2187-.5515.5058-.7247.8613v5.2705h-1.2646v-7.3965zm8.2441-1.791v1.791h1.3809v.9776h-1.3809v4.5869c0 .2962.0616.5195.1846.6699.123.1458.3327.2187.6289.2187.1458 0 .3464-.0273.6016-.082v1.0254c-.3327.0911-.6563.1367-.9707.1367-.5651 0-.9912-.1709-1.2784-.5127-.2871-.3418-.4306-.8271-.4306-1.456v-4.5869h-1.3467v-.9776h1.3467v-1.791z" fill="#000"/><rect height="43" rx="9.5" stroke="#d1dcfa" stroke-dasharray="4 4" width="126" x="456.5" y=".5"/><path d="m506.074 24.4023h-4.17l-.936 2.5977h-1.354l3.801-9.9531h1.148l3.808 9.9531h-1.347zm-3.773-1.08h3.384l-1.696-4.6553zm10.178 2.7822c.452 0 .846-.1367 1.183-.4102.337-.2734.524-.6152.561-1.0254h1.196c-.023.4239-.169.8272-.438 1.21-.268.3828-.628.6882-1.08.916-.446.2279-.92.3418-1.422.3418-1.007 0-1.809-.3349-2.406-1.0049-.592-.6744-.888-1.595-.888-2.7617v-.2119c0-.72.132-1.3603.396-1.9209.264-.5605.643-.9958 1.135-1.3057.497-.3099 1.082-.4648 1.757-.4648.829 0 1.517.2484 2.064.7451.552.4968.845 1.1416.882 1.9346h-1.196c-.037-.4785-.219-.8705-.547-1.1758-.324-.3099-.725-.4648-1.203-.4648-.643 0-1.142.2324-1.497.6972-.351.4603-.527 1.128-.527 2.003v.2392c0 .8522.176 1.5085.527 1.9688.35.4602.852.6904 1.503.6904zm6.078-8.292v1.791h1.381v.9776h-1.381v4.5869c0 .2962.061.5195.184.6699.123.1458.333.2187.629.2187.146 0 .346-.0273.602-.082v1.0254c-.333.0911-.657.1367-.971.1367-.565 0-.991-.1709-1.278-.5127s-.431-.8271-.431-1.456v-4.5869h-1.347v-.9776h1.347v-1.791zm4.238 9.1875h-1.265v-7.3965h1.265zm-1.367-9.3584c0-.2051.061-.3783.184-.5195.128-.1413.315-.2119.561-.2119s.433.0706.56.2119c.128.1412.192.3144.192.5195s-.064.376-.192.5127c-.127.1367-.314.2051-.56.2051s-.433-.0684-.561-.2051c-.123-.1367-.184-.3076-.184-.5127zm3.062 5.5918c0-.7246.142-1.3763.424-1.9551.287-.5788.684-1.0254 1.19-1.3398.51-.3145 1.091-.4717 1.743-.4717 1.007 0 1.82.3486 2.44 1.0459.624.6973.937 1.6247.937 2.7822v.0889c0 .72-.139 1.3672-.417 1.9414-.274.5697-.668 1.014-1.183 1.333-.51.319-1.098.4785-1.764.4785-1.002 0-1.816-.3486-2.44-1.0459-.62-.6972-.93-1.6201-.93-2.7685zm1.272.1504c0 .8203.189 1.4788.567 1.9756.383.4967.893.7451 1.531.7451.643 0 1.153-.2507 1.532-.752.378-.5058.567-1.2122.567-2.1191 0-.8112-.194-1.4674-.581-1.9688-.383-.5058-.893-.7587-1.531-.7587-.625 0-1.128.2483-1.511.7451-.383.4967-.574 1.2077-.574 2.1328zm8.244-3.7803.041.9297c.565-.7109 1.303-1.0664 2.215-1.0664 1.563 0 2.351.8818 2.365 2.6455v4.8877h-1.265v-4.8945c-.004-.5332-.127-.9274-.369-1.1826-.237-.2553-.608-.3829-1.114-.3829-.41 0-.77.1094-1.08.3282-.31.2187-.552.5058-.725.8613v5.2705h-1.264v-7.3965z" fill="#000"/></svg>