<svg fill="none" height="136" viewBox="0 0 595 136" width="595" xmlns="http://www.w3.org/2000/svg"><rect fill="#f6f3fa" height="136" rx="12" width="561" x="33.1824"/><path d="m328.681 134.829 9.441-15.067c.396-.631 1.109-.99 1.851-.932l1.972.154c.838.065 1.627-.399 1.976-1.163l3.75-8.213c.806-1.764 3.399-1.464 3.78.438l2.811 14.03c.413 2.061 3.32 2.171 3.887.146l4.001-14.293c.331-1.183 1.642-1.791 2.759-1.279l2.959 1.356c1.188.545 2.571-.178 2.802-1.464l3.951-22.0125c.397-2.211 3.576-2.1889 3.942.0275l5.086 30.795c.165.994 1.044 1.711 2.052 1.672l6.736-.263c.422-.017.827-.166 1.159-.427l7.589-5.976c.887-.698 2.176-.525 2.847.384l3.032 4.108c.813 1.102 2.467 1.079 3.25-.043l2.556-3.666c.735-1.054 2.259-1.151 3.122-.199l4.888 5.392c.432.477 1.066.716 1.705.645l6.689-.751c.602-.068 1.141-.404 1.466-.916l2.807-4.422c.621-.978 1.941-1.226 2.874-.539l9.052 6.657c.077.057.15.119.218.186l6.709 6.602c.841.827 2.211.751 2.955-.164l5.062-6.226c.168-.207.293-.445.367-.7l2.957-10.096c.463-1.579 2.527-1.955 3.517-.641l4.586 6.086 4.995 8.725c.203.354.509.638.878.813l3.9 1.852c.824.391 1.807.176 2.392-.524l4.726-5.652c.097-.117.208-.222.329-.314l9.626-7.266c.507-.382 1.164-.501 1.772-.321l8.293 2.451c.509.151.938.498 1.191.965l3.706 6.833c.516.951 1.694 1.319 2.659.832l6.125-3.093c.34-.172.624-.437.819-.765l2.824-4.765c.752-1.27 2.573-1.315 3.388-.085l1.526 2.304c.749 1.13 2.49.796 2.768-.531.299-1.431 2.245-1.664 2.874-.344l.939 1.972c.291.611.87 1.033 1.54 1.123l5.677.76c.335.044.653.173.925.374l5.969 4.417c.818.606 1.962.5 2.655-.246l8.653-9.317c.123-.132.227-.279.31-.439l6.386-12.298c.708-1.363 2.624-1.453 3.456-.162l7.597 11.784c.368.571 1.001.917 1.681.917h10.758" stroke="#5962fa" stroke-linecap="round" stroke-linejoin="round" stroke-width="2"/><path d="m338.643 120.606-9.462 15.394h253c6.628 0 12-5.373 12-12v-9.219h-10.769c-.686 0-1.324-.351-1.69-.931l-7.608-12.03c-.829-1.311-2.769-1.221-3.472.161l-6.399 12.56c-.081.16-.183.307-.303.44l-8.665 9.51c-.696.764-1.859.872-2.683.25l-5.964-4.499c-.273-.206-.595-.339-.934-.385l-5.678-.775c-.674-.092-1.254-.519-1.542-1.135l-.94-2.013c-.624-1.336-2.589-1.104-2.886.34-.275 1.34-2.036 1.673-2.782.526l-1.513-2.328c-.812-1.25-2.657-1.205-3.406.084l-2.829 4.866c-.192.33-.474.598-.813.773l-6.121 3.151c-.973.501-2.168.127-2.681-.839l-3.72-6.99c-.25-.471-.678-.822-1.188-.976l-8.294-2.5c-.617-.186-1.286-.063-1.797.33l-9.638 7.417c-.121.093-.231.199-.327.317l-4.732 5.77c-.586.715-1.586.935-2.418.532l-3.893-1.884c-.368-.179-.672-.465-.872-.821l-5.01-8.921-4.585-6.204c-.986-1.333-3.073-.957-3.531.637l-2.967 10.331c-.073.252-.195.489-.359.694l-5.07 6.358c-.745.934-2.137 1.011-2.98.165l-6.711-6.732c-.068-.068-.14-.131-.217-.189l-9.053-6.788c-.939-.703-2.278-.452-2.898.543l-2.814 4.519c-.323.518-.864.86-1.47.93l-6.684.765c-.647.074-1.289-.172-1.722-.659l-4.885-5.494c-.864-.971-2.411-.873-3.145.2l-2.548 3.725c-.781 1.143-2.459 1.165-3.271.044l-3.025-4.179c-.671-.926-1.98-1.102-2.872-.386l-7.586 6.089c-.333.268-.744.422-1.172.439l-6.737.268c-1.011.04-1.892-.68-2.054-1.678l-5.103-31.4997c-.361-2.2247-3.554-2.2465-3.944-.027l-3.966 22.5227c-.228 1.296-1.624 2.022-2.816 1.465l-2.936-1.371c-1.123-.525-2.447.087-2.776 1.282l-4.013 14.62c-.56 2.037-3.484 1.929-3.891-.144l-2.821-14.35c-.376-1.915-2.99-2.213-3.787-.432l-3.761 8.394c-.346.773-1.14 1.244-1.984 1.177l-1.954-.156c-.75-.06-1.469.306-1.863.946z" fill="#5962fa" fill-opacity=".3"/><path d="m101.882 51.7671c-.823 0-1.539-.152-2.1466-.456-.608-.3167-1.1083-.7664-1.501-1.349-.3927-.5827-.684-1.2984-.874-2.147-.19-.8487-.285-1.8177-.285-2.907 0-1.0767.095-2.0394.285-2.888.19-.8614.4813-1.5834.874-2.166.3927-.5827.893-1.026 1.501-1.33.6076-.3167 1.3236-.475 2.1466-.475 1.647 0 2.857.6016 3.629 1.805.786 1.2033 1.178 2.888 1.178 5.054s-.392 3.8506-1.178 5.054c-.772 1.2033-1.982 1.805-3.629 1.805zm0-1.824c.456 0 .843-.0887 1.159-.266.33-.19.596-.456.798-.798.203-.342.349-.7474.437-1.216.089-.4814.133-1.0134.133-1.596v-2.318c0-.5827-.044-1.1084-.133-1.577-.088-.4814-.234-.893-.437-1.235-.202-.342-.468-.6017-.798-.779-.316-.19-.703-.285-1.159-.285s-.848.095-1.178.285c-.316.1773-.576.437-.7786.779-.2027.342-.3483.7536-.437 1.235-.0887.4686-.133.9943-.133 1.577v2.318c0 .5826.0443 1.1146.133 1.596.0887.4686.2343.874.437 1.216.2026.342.4626.608.7786.798.33.1773.722.266 1.178.266zm8.448 1.824c-.469 0-.817-.1204-1.045-.361-.228-.2534-.342-.5637-.342-.931v-.285c0-.3674.114-.6714.342-.912.228-.2534.576-.38 1.045-.38s.817.1266 1.045.38c.228.2406.342.5446.342.912v.285c0 .3673-.114.6776-.342.931-.228.2406-.576.361-1.045.361zm13.092-8.55c0 .9626-.146 1.8683-.437 2.717-.292.8486-.665 1.6276-1.121 2.337-.456.7093-.969 1.3426-1.539 1.9-.558.5573-1.109 1.0133-1.653 1.368h-2.85c.747-.5447 1.418-1.0704 2.014-1.577.595-.5067 1.114-1.026 1.558-1.558.443-.532.81-1.0957 1.102-1.691.304-.5954.538-1.2477.703-1.957l-.133-.038c-.14.266-.304.5193-.494.76-.178.228-.393.4306-.646.608-.241.1773-.52.3166-.836.418-.317.1013-.684.152-1.102.152-.558 0-1.077-.095-1.558-.285-.469-.19-.881-.4624-1.235-.817-.342-.3674-.615-.798-.817-1.292-.19-.5067-.285-1.0767-.285-1.71 0-.6587.107-1.2667.323-1.824.228-.5574.544-1.0324.95-1.425.405-.3927.893-.6967 1.463-.912.57-.228 1.209-.342 1.919-.342.734 0 1.387.1203 1.957.361.582.2406 1.07.589 1.463 1.045.405.4433.715.9816.931 1.615.215.6333.323 1.349.323 2.147zm-4.674 1.71c.772 0 1.374-.2027 1.805-.608.43-.418.646-1.026.646-1.824v-.266c0-.798-.216-1.3997-.646-1.805-.431-.418-1.033-.627-1.805-.627-.773 0-1.375.209-1.805.627-.431.4053-.646 1.007-.646 1.805v.266c0 .798.215 1.406.646 1.824.43.4053 1.032.608 1.805.608zm16.066-1.71c0 .9626-.145 1.8683-.437 2.717-.291.8486-.665 1.6276-1.121 2.337-.456.7093-.969 1.3426-1.539 1.9-.557.5573-1.108 1.0133-1.653 1.368h-2.85c.748-.5447 1.419-1.0704 2.014-1.577.596-.5067 1.115-1.026 1.558-1.558.444-.532.811-1.0957 1.102-1.691.304-.5954.539-1.2477.703-1.957l-.133-.038c-.139.266-.304.5193-.494.76-.177.228-.392.4306-.646.608-.24.1773-.519.3166-.836.418-.316.1013-.684.152-1.102.152-.557 0-1.076-.095-1.558-.285-.468-.19-.88-.4624-1.235-.817-.342-.3674-.614-.798-.817-1.292-.19-.5067-.285-1.0767-.285-1.71 0-.6587.108-1.2667.323-1.824.228-.5574.545-1.0324.95-1.425.406-.3927.893-.6967 1.463-.912.57-.228 1.21-.342 1.919-.342.735 0 1.387.1203 1.957.361.583.2406 1.071.589 1.463 1.045.406.4433.716.9816.931 1.615.216.6333.323 1.349.323 2.147zm-4.674 1.71c.773 0 1.375-.2027 1.805-.608.431-.418.646-1.026.646-1.824v-.266c0-.798-.215-1.3997-.646-1.805-.43-.418-1.032-.627-1.805-.627-.772 0-1.374.209-1.805.627-.43.4053-.646 1.007-.646 1.805v.266c0 .798.216 1.406.646 1.824.431.4053 1.033.608 1.805.608zm16.067-1.71c0 .9626-.146 1.8683-.437 2.717-.291.8486-.665 1.6276-1.121 2.337-.456.7093-.969 1.3426-1.539 1.9-.557.5573-1.108 1.0133-1.653 1.368h-2.85c.747-.5447 1.419-1.0704 2.014-1.577.595-.5067 1.115-1.026 1.558-1.558s.811-1.0957 1.102-1.691c.304-.5954.538-1.2477.703-1.957l-.133-.038c-.139.266-.304.5193-.494.76-.177.228-.393.4306-.646.608-.241.1773-.519.3166-.836.418-.317.1013-.684.152-1.102.152-.557 0-1.077-.095-1.558-.285-.469-.19-.88-.4624-1.235-.817-.342-.3674-.614-.798-.817-1.292-.19-.5067-.285-1.0767-.285-1.71 0-.6587.108-1.2667.323-1.824.228-.5574.545-1.0324.95-1.425.405-.3927.893-.6967 1.463-.912.57-.228 1.21-.342 1.919-.342.735 0 1.387.1203 1.957.361.583.2406 1.07.589 1.463 1.045.405.4433.716.9816.931 1.615.215.6333.323 1.349.323 2.147zm-4.674 1.71c.773 0 1.374-.2027 1.805-.608.431-.418.646-1.026.646-1.824v-.266c0-.798-.215-1.3997-.646-1.805-.431-.418-1.032-.627-1.805-.627s-1.374.209-1.805.627c-.431.4053-.646 1.007-.646 1.805v.266c0 .798.215 1.406.646 1.824.431.4053 1.032.608 1.805.608zm16.066-1.71c0 .9626-.145 1.8683-.437 2.717-.291.8486-.665 1.6276-1.121 2.337-.456.7093-.969 1.3426-1.539 1.9-.557.5573-1.108 1.0133-1.653 1.368h-2.85c.748-.5447 1.419-1.0704 2.014-1.577.596-.5067 1.115-1.026 1.558-1.558.444-.532.811-1.0957 1.102-1.691.304-.5954.539-1.2477.703-1.957l-.133-.038c-.139.266-.304.5193-.494.76-.177.228-.392.4306-.646.608-.24.1773-.519.3166-.836.418-.316.1013-.684.152-1.102.152-.557 0-1.076-.095-1.558-.285-.468-.19-.88-.4624-1.235-.817-.342-.3674-.614-.798-.817-1.292-.19-.5067-.285-1.0767-.285-1.71 0-.6587.108-1.2667.323-1.824.228-.5574.545-1.0324.95-1.425.406-.3927.893-.6967 1.463-.912.57-.228 1.21-.342 1.919-.342.735 0 1.387.1203 1.957.361.583.2406 1.071.589 1.463 1.045.406.4433.716.9816.931 1.615.216.6333.323 1.349.323 2.147zm-4.674 1.71c.773 0 1.375-.2027 1.805-.608.431-.418.646-1.026.646-1.824v-.266c0-.798-.215-1.3997-.646-1.805-.43-.418-1.032-.627-1.805-.627-.772 0-1.374.209-1.805.627-.43.4053-.646 1.007-.646 1.805v.266c0 .798.216 1.406.646 1.824.431.4053 1.033.608 1.805.608zm16.01 6.612h-9.006v-2.052l4.237-3.781c.671-.608 1.184-1.1844 1.539-1.729.367-.5574.551-1.14.551-1.748v-.247c0-.646-.196-1.1527-.589-1.52-.38-.3674-.899-.551-1.558-.551-.367 0-.69.057-.969.171-.266.1013-.5.247-.703.437s-.374.4116-.513.665c-.127.2533-.228.5256-.304.817l-1.881-.722c.139-.418.329-.817.57-1.197.241-.3927.545-.741.912-1.045s.798-.5447 1.292-.722c.507-.1774 1.096-.266 1.767-.266s1.273.1013 1.805.304c.532.19.975.4623 1.33.817.367.342.646.7536.836 1.235.19.4813.285 1.007.285 1.577 0 .532-.082 1.026-.247 1.482s-.393.8866-.684 1.292c-.291.4053-.633.7916-1.026 1.159-.38.3673-.785.741-1.216 1.121l-3.116 2.679h6.688zm7.935 0v-2.584h-6.156v-1.843l5.377-8.835h2.812v8.987h1.805v1.691h-1.805v2.584zm-4.332-4.275h4.332v-7.03h-.133zm13.881-3.534c.824 0 1.432-.171 1.824-.513.393-.3547.589-.8044.589-1.349v-.133c0-.608-.19-1.0704-.57-1.387-.38-.3294-.893-.494-1.539-.494-.633 0-1.171.1456-1.615.437-.443.2786-.817.6713-1.121 1.178l-1.425-1.235c.203-.2914.431-.57.684-.836.254-.266.551-.494.893-.684.342-.2027.729-.361 1.159-.475.431-.1267.925-.19 1.482-.19.621 0 1.197.076 1.729.228s.988.38 1.368.684c.38.2913.678.6523.893 1.083.216.418.323.893.323 1.425 0 .418-.069.798-.209 1.14-.126.342-.31.646-.551.912-.228.2533-.5.4623-.817.627-.304.1646-.627.285-.969.361v.095c.38.076.735.2026 1.064.38.342.1646.64.3863.893.665.254.266.45.589.589.969.152.3673.228.7916.228 1.273 0 .5826-.114 1.1146-.342 1.596-.228.4686-.551.874-.969 1.216-.405.342-.899.608-1.482.798-.582.1773-1.228.266-1.938.266-.62 0-1.165-.0697-1.634-.209-.468-.1267-.886-.2977-1.254-.513-.354-.228-.671-.4814-.95-.76-.266-.2914-.5-.589-.703-.893l1.577-1.235c.165.266.336.513.513.741.19.2153.399.4053.627.57.241.152.507.2723.798.361.304.0886.646.133 1.026.133.811 0 1.432-.19 1.862-.57.431-.3927.646-.931.646-1.615v-.133c0-.684-.228-1.2034-.684-1.558-.456-.3547-1.102-.532-1.938-.532h-1.406v-1.824zm8.087 7.809v-1.786h3.724v-9.918h-.152l-3.078 3.287-1.311-1.178 3.382-3.667h3.268v11.476h3.23v1.786zm15.845 0v-13.262h8.493v1.9h-6.346v3.686h5.757v1.9h-5.757v3.876h6.346v1.9zm16.183-11.362v11.362h-2.147v-11.362h-3.952v-1.9h10.051v1.9zm14.196 5.586h-6.004v5.776h-2.147v-13.262h2.147v5.586h6.004v-5.586h2.147v13.262h-2.147z" fill="#5962fa"/><path d="m97.9779 78.7791v-2.472h11.1841v2.472zm0 5.352v-2.496h11.1841v2.496zm24.5981 5.376v-2.136c-1.216-.096-2.24-.376-3.072-.84-.832-.48-1.552-1.072-2.16-1.776l1.944-1.776c.464.544.984.992 1.56 1.344.576.336 1.224.552 1.944.648v-4.872c-1.76-.368-3.032-.928-3.816-1.68-.768-.768-1.152-1.744-1.152-2.928 0-1.28.416-2.304 1.248-3.072.832-.784 2-1.264 3.504-1.44v-2.16h2.376v2.16c1.008.112 1.872.36 2.592.744.736.384 1.376.912 1.92 1.584l-1.968 1.704c-.32-.384-.704-.72-1.152-1.008-.432-.288-.968-.496-1.608-.624v4.464c1.712.4 2.968.96 3.768 1.68.8.704 1.2 1.68 1.2 2.928 0 1.232-.4 2.296-1.2 3.192-.8.88-1.984 1.432-3.552 1.656v2.208zm-1.848-14.136c0 .56.16.992.48 1.296.336.304.864.552 1.584.744v-4.056c-1.376.24-2.064.912-2.064 2.016zm6.096 7.296c0-.48-.152-.896-.456-1.248-.288-.368-.832-.664-1.632-.888v4.416c.672-.144 1.184-.416 1.536-.816.368-.416.552-.904.552-1.464zm11.855 4.872v-2.568h4.608v-11.904h-.216l-3.648 4.32-1.968-1.656 4.152-4.944h4.776v14.184h3.84v2.568zm15.831-3.696c.656 0 1.136.168 1.44.504.32.336.48.76.48 1.272v.432c0 .432-.064.88-.192 1.344-.112.464-.28.912-.504 1.344-.208.432-.464.84-.768 1.224-.288.384-.616.72-.984 1.008h-2.184c.544-.528 1-1.048 1.368-1.56.368-.496.648-1.048.84-1.656-.496-.08-.856-.272-1.08-.576-.224-.32-.336-.696-.336-1.128v-.432c0-.512.152-.936.456-1.272s.792-.504 1.464-.504zm5.731 3.696v-2.568h4.608v-11.904h-.216l-3.648 4.32-1.968-1.656 4.152-4.944h4.776v14.184h3.84v2.568zm19.407.288c-1.072 0-2-.192-2.784-.576-.784-.4-1.432-.968-1.944-1.704s-.896-1.64-1.152-2.712c-.24-1.072-.36-2.296-.36-3.672 0-1.36.12-2.576.36-3.648.256-1.088.64-2 1.152-2.736s1.16-1.296 1.944-1.68c.784-.4 1.712-.6 2.784-.6 2.128 0 3.696.76 4.704 2.28 1.024 1.52 1.536 3.648 1.536 6.384s-.512 4.864-1.536 6.384c-1.008 1.52-2.576 2.28-4.704 2.28zm0-2.664c1.072 0 1.816-.4 2.232-1.2.432-.816.648-1.912.648-3.288v-3.024c0-1.376-.216-2.464-.648-3.264-.416-.816-1.16-1.224-2.232-1.224s-1.824.408-2.256 1.224c-.416.8-.624 1.888-.624 3.264v3.024c0 1.376.208 2.472.624 3.288.432.8 1.184 1.2 2.256 1.2zm9.375 2.376v-2.568h4.608v-11.904h-.216l-3.648 4.32-1.968-1.656 4.152-4.944h4.776v14.184h3.84v2.568zm15.782.264c-.656 0-1.144-.16-1.464-.48-.304-.336-.456-.76-.456-1.272v-.432c0-.512.152-.936.456-1.272.32-.336.808-.504 1.464-.504.672 0 1.16.168 1.464.504s.456.76.456 1.272v.432c0 .512-.152.936-.456 1.272-.304.32-.792.48-1.464.48zm7.652-.264 5.832-14.184h-5.784v3.072h-2.688v-5.64h11.616v2.712l-5.664 14.04zm22.695-14.016h-7.536l-.384 5.616h.168c.176-.352.368-.68.576-.984s.448-.56.72-.768.584-.368.936-.48c.368-.128.808-.192 1.32-.192.72 0 1.392.12 2.016.36s1.16.592 1.608 1.056c.464.448.824 1 1.08 1.656.272.656.408 1.4.408 2.232 0 .848-.136 1.624-.408 2.328s-.672 1.32-1.2 1.848c-.528.512-1.176.912-1.944 1.2s-1.648.432-2.64.432c-.768 0-1.456-.088-2.064-.264-.608-.16-1.144-.384-1.608-.672s-.864-.616-1.2-.984c-.336-.384-.632-.784-.888-1.2l2.304-1.776c.192.32.392.624.6.912.208.272.448.512.72.72.288.208.6.376.936.504.352.112.76.168 1.224.168.944 0 1.656-.264 2.136-.792.496-.528.744-1.248.744-2.16v-.192c0-.864-.248-1.544-.744-2.04s-1.184-.744-2.064-.744c-.688 0-1.248.136-1.68.408-.432.256-.776.536-1.032.84l-2.592-.36.624-9.408h9.864z" fill="#25253f"/><path d="m336.414 74.6309v-1.036h2.73v-7.868h-.098l-2.464 2.296-.686-.742 2.59-2.422h1.834v8.736h2.52v1.036zm9.067.168c-.299 0-.518-.0747-.658-.224-.131-.1494-.196-.3454-.196-.588v-.182c0-.2427.065-.4387.196-.588.14-.1494.359-.224.658-.224s.513.0746.644.224c.14.1493.21.3453.21.588v.182c0 .2426-.07.4386-.21.588-.131.1493-.345.224-.644.224zm9.372-6.356c0 .728-.107 1.414-.322 2.058-.214.6346-.494 1.218-.84 1.75-.336.5226-.709.9893-1.12 1.4-.41.4013-.812.728-1.204.98h-1.512c.523-.3827.99-.756 1.4-1.12.411-.364.77-.742 1.078-1.134.308-.4014.57-.826.784-1.274.215-.4574.388-.9707.518-1.54l-.07-.028c-.233.4013-.536.7373-.91 1.008-.364.2613-.844.392-1.442.392-.42 0-.807-.07-1.162-.21-.354-.14-.658-.3407-.91-.602-.252-.2614-.452-.574-.602-.938-.14-.3734-.21-.7934-.21-1.26 0-.476.075-.91.224-1.302.159-.4014.378-.742.658-1.022.29-.2894.63-.5134 1.022-.672.402-.1587.85-.238 1.344-.238.504 0 .957.0886 1.358.266.411.168.756.4153 1.036.742.29.3173.509.7093.658 1.176.15.4666.224.9893.224 1.568zm-3.262 1.498c.644 0 1.144-.1774 1.498-.532.364-.3547.546-.8634.546-1.526v-.112c0-.6627-.182-1.1714-.546-1.526-.354-.3547-.854-.532-1.498-.532s-1.148.1773-1.512.532c-.354.3546-.532.8633-.532 1.526v.112c0 .6626.178 1.1713.532 1.526.364.3546.868.532 1.512.532zm11.657 4.69h-6.412v-1.204l3.192-2.94c.457-.42.84-.8634 1.148-1.33.308-.476.462-.952.462-1.428v-.168c0-.5414-.149-.98-.448-1.316s-.751-.504-1.358-.504c-.299 0-.56.042-.784.126s-.42.2006-.588.35c-.159.1493-.294.3266-.406.532-.103.196-.187.4106-.252.644l-1.05-.406c.093-.2894.219-.5694.378-.84.168-.28.373-.5274.616-.742.252-.2147.551-.3874.896-.518.355-.1307.77-.196 1.246-.196s.901.07 1.274.21.686.336.938.588.443.5506.574.896c.14.3453.21.728.21 1.148 0 .3826-.056.7373-.168 1.064-.103.3266-.247.6393-.434.938-.187.2893-.415.574-.686.854-.261.28-.546.56-.854.84l-2.632 2.366h5.138zm3.494 0 6.776-9.772h1.078l-6.776 9.772zm.56-4.396c-.709 0-1.255-.2334-1.638-.7-.382-.476-.574-1.1667-.574-2.072 0-.9054.192-1.5914.574-2.058.383-.476.929-.714 1.638-.714.71 0 1.256.238 1.638.714.383.4666.574 1.1526.574 2.058 0 .9053-.191 1.596-.574 2.072-.382.4666-.928.7-1.638.7zm0-.728c.803 0 1.204-.5414 1.204-1.624v-.84c0-1.0827-.401-1.624-1.204-1.624-.802 0-1.204.5413-1.204 1.624v.84c0 1.0826.402 1.624 1.204 1.624zm6.734 5.292c-.709 0-1.255-.2334-1.638-.7-.382-.476-.574-1.1667-.574-2.072 0-.9054.192-1.5914.574-2.058.383-.476.929-.714 1.638-.714.71 0 1.256.238 1.638.714.383.4666.574 1.1526.574 2.058 0 .9053-.191 1.596-.574 2.072-.382.4666-.928.7-1.638.7zm0-.728c.803 0 1.204-.5414 1.204-1.624v-.84c0-1.0827-.401-1.624-1.204-1.624-.802 0-1.204.5413-1.204 1.624v.84c0 1.0826.402 1.624 1.204 1.624zm13.89.56h-6.412v-1.204l3.192-2.94c.457-.42.84-.8634 1.148-1.33.308-.476.462-.952.462-1.428v-.168c0-.5414-.15-.98-.448-1.316-.299-.336-.752-.504-1.358-.504-.299 0-.56.042-.784.126s-.42.2006-.588.35c-.159.1493-.294.3266-.406.532-.103.196-.187.4106-.252.644l-1.05-.406c.093-.2894.219-.5694.378-.84.168-.28.373-.5274.616-.742.252-.2147.55-.3874.896-.518.354-.1307.77-.196 1.246-.196s.9.07 1.274.21c.373.14.686.336.938.588s.443.5506.574.896c.14.3453.21.728.21 1.148 0 .3826-.056.7373-.168 1.064-.103.3266-.248.6393-.434.938-.187.2893-.416.574-.686.854-.262.28-.546.56-.854.84l-2.632 2.366h5.138zm6.182 0v-1.918h-4.718v-1.036l4.088-6.818h1.75v6.874h1.414v.98h-1.414v1.918zm-3.612-2.898h3.612v-5.964h-.07zm11.255-7.462h1.12v4.312h.056c.178-.4107.425-.7374.742-.98.327-.2427.761-.364 1.302-.364.747 0 1.335.2426 1.764.728.439.476.658 1.1526.658 2.03v4.634h-1.12v-4.438c0-1.2974-.546-1.946-1.638-1.946-.224 0-.443.028-.658.084-.205.056-.392.14-.56.252s-.303.2566-.406.434c-.093.168-.14.3686-.14.602v5.012h-1.12zm10.687 10.528c-.485 0-.928-.0887-1.33-.266-.401-.1774-.746-.4294-1.036-.756-.28-.336-.499-.7327-.658-1.19-.158-.4667-.238-.9894-.238-1.568 0-.5694.08-1.0874.238-1.554.159-.4667.378-.8634.658-1.19.29-.336.635-.5927 1.036-.77.402-.1774.845-.266 1.33-.266.486 0 .924.0886 1.316.266.402.1773.747.434 1.036.77.29.3266.514.7233.672 1.19.159.4666.238.9846.238 1.554 0 .5786-.079 1.1013-.238 1.568-.158.4573-.382.854-.672 1.19-.289.3266-.634.5786-1.036.756-.392.1773-.83.266-1.316.266zm0-.994c.607 0 1.102-.1867 1.484-.56.383-.3734.574-.9427.574-1.708v-1.036c0-.7654-.191-1.3347-.574-1.708-.382-.3734-.877-.56-1.484-.56-.606 0-1.101.1866-1.484.56-.382.3733-.574.9426-.574 1.708v1.036c0 .7653.192 1.3346.574 1.708.383.3733.878.56 1.484.56zm9.556-.35h-.056c-.074.168-.168.336-.28.504-.102.1586-.233.3033-.392.434-.158.1213-.35.2193-.574.294-.224.0746-.485.112-.784.112-.746 0-1.339-.238-1.778-.714-.438-.4854-.658-1.1667-.658-2.044v-4.634h1.12v4.438c0 1.2973.551 1.946 1.652 1.946.224 0 .439-.028.644-.084.215-.056.402-.14.56-.252.168-.112.299-.252.392-.42.103-.1774.154-.3874.154-.63v-4.998h1.12v7.224h-1.12zm3.505 1.176v-7.224h1.12v1.33h.07c.131-.3454.364-.6534.7-.924.336-.2707.798-.406 1.386-.406h.434v1.12h-.658c-.606 0-1.082.1166-1.428.35-.336.224-.504.5086-.504.854v4.9zm7.311.168c-.672 0-1.237-.126-1.694-.378-.448-.2614-.835-.6067-1.162-1.036l.798-.644c.28.3546.593.63.938.826.345.1866.747.28 1.204.28.476 0 .845-.1027 1.106-.308.271-.2054.406-.4947.406-.868 0-.28-.093-.518-.28-.714-.177-.2054-.504-.3454-.98-.42l-.574-.084c-.336-.0467-.644-.1167-.924-.21-.28-.1027-.527-.2334-.742-.392-.205-.168-.369-.3734-.49-.616-.112-.2427-.168-.532-.168-.868 0-.3547.065-.6627.196-.924.131-.2707.308-.4947.532-.672.233-.1774.509-.308.826-.392.317-.0934.658-.14 1.022-.14.588 0 1.078.1026 1.47.308.401.2053.751.49 1.05.854l-.742.672c-.159-.224-.392-.4247-.7-.602-.308-.1867-.695-.28-1.162-.28s-.821.1026-1.064.308c-.233.196-.35.4666-.35.812 0 .3546.117.6113.35.77.243.1586.588.2753 1.036.35l.56.084c.803.1213 1.372.3546 1.708.7.336.336.504.7793.504 1.33 0 .7-.238 1.2506-.714 1.652-.476.4013-1.129.602-1.96.602z" fill="#6c63ff"/><path d="m335.638 49.5391v-1.712h3.072v-7.936h-.144l-2.432 2.88-1.312-1.104 2.768-3.296h3.184v9.456h2.56v1.712zm10.522.176c-.437 0-.763-.1067-.976-.32-.203-.224-.304-.5067-.304-.848v-.288c0-.3414.101-.624.304-.848.213-.224.539-.336.976-.336.448 0 .773.112.976.336s.304.5066.304.848v.288c0 .3413-.101.624-.304.848-.203.2133-.528.32-.976.32zm7.197.016c-.714 0-1.333-.128-1.856-.384-.522-.2667-.954-.6454-1.296-1.136-.341-.4907-.597-1.0934-.768-1.808-.16-.7147-.24-1.5307-.24-2.448 0-.9067.08-1.7174.24-2.432.171-.7254.427-1.3334.768-1.824.342-.4907.774-.864 1.296-1.12.523-.2667 1.142-.4 1.856-.4 1.419 0 2.464.5066 3.136 1.52.683 1.0133 1.024 2.432 1.024 4.256s-.341 3.2426-1.024 4.256c-.672 1.0133-1.717 1.52-3.136 1.52zm0-1.776c.715 0 1.211-.2667 1.488-.8.288-.544.432-1.2747.432-2.192v-2.016c0-.9174-.144-1.6427-.432-2.176-.277-.544-.773-.816-1.488-.816-.714 0-1.216.272-1.504.816-.277.5333-.416 1.2586-.416 2.176v2.016c0 .9173.139 1.648.416 2.192.288.5333.79.8 1.504.8zm9.594 1.776c-.715 0-1.333-.128-1.856-.384-.523-.2667-.955-.6454-1.296-1.136-.341-.4907-.597-1.0934-.768-1.808-.16-.7147-.24-1.5307-.24-2.448 0-.9067.08-1.7174.24-2.432.171-.7254.427-1.3334.768-1.824.341-.4907.773-.864 1.296-1.12.523-.2667 1.141-.4 1.856-.4 1.419 0 2.464.5066 3.136 1.52.683 1.0133 1.024 2.432 1.024 4.256s-.341 3.2426-1.024 4.256c-.672 1.0133-1.717 1.52-3.136 1.52zm0-1.776c.715 0 1.211-.2667 1.488-.8.288-.544.432-1.2747.432-2.192v-2.016c0-.9174-.144-1.6427-.432-2.176-.277-.544-.773-.816-1.488-.816s-1.216.272-1.504.816c-.277.5333-.416 1.2586-.416 2.176v2.016c0 .9173.139 1.648.416 2.192.288.5333.789.8 1.504.8zm9.887 1.584v-11.168h7.36v1.872h-5.248v2.704h4.64v1.872h-4.64v2.848h5.248v1.872zm13.978-9.296v9.296h-2.112v-9.296h-3.168v-1.872h8.448v1.872zm11.665 4.576h-4.656v4.72h-2.112v-11.168h2.112v4.576h4.656v-4.576h2.112v11.168h-2.112z" fill="#5962fa"/><path d="m406.754 43.6991v-1.648h7.456v1.648zm0 3.568v-1.664h7.456v1.664zm16.399 3.584v-1.424c-.81-.064-1.493-.2507-2.048-.56-.554-.32-1.034-.7147-1.44-1.184l1.296-1.184c.31.3626.656.6613 1.04.896.384.224.816.368 1.296.432v-3.248c-1.173-.2454-2.021-.6187-2.544-1.12-.512-.512-.768-1.1627-.768-1.952 0-.8534.278-1.536.832-2.048.555-.5227 1.334-.8427 2.336-.96v-1.44h1.584v1.44c.672.0746 1.248.24 1.728.496.491.256.918.608 1.28 1.056l-1.312 1.136c-.213-.256-.469-.48-.768-.672-.288-.192-.645-.3307-1.072-.416v2.976c1.142.2666 1.979.64 2.512 1.12.534.4693.8 1.12.8 1.952 0 .8213-.266 1.5306-.8 2.128-.533.5866-1.322.9546-2.368 1.104v1.472zm-1.232-9.424c0 .3733.107.6613.32.864.224.2026.576.368 1.056.496v-2.704c-.917.16-1.376.608-1.376 1.344zm4.064 4.864c0-.32-.101-.5974-.304-.832-.192-.2454-.554-.4427-1.088-.592v2.944c.448-.096.79-.2774 1.024-.544.246-.2774.368-.6027.368-.976zm7.903 3.248v-1.712h3.072v-7.936h-.144l-2.432 2.88-1.312-1.104 2.768-3.296h3.184v9.456h2.56v1.712zm10.554-2.464c.437 0 .757.112.96.336.213.224.32.5066.32.848v.288c0 .288-.043.5866-.128.896-.075.3093-.187.608-.336.896-.139.288-.309.56-.512.816-.192.256-.411.48-.656.672h-1.456c.363-.352.667-.6987.912-1.04.245-.3307.432-.6987.56-1.104-.331-.0534-.571-.1814-.72-.384-.149-.2134-.224-.464-.224-.752v-.288c0-.3414.101-.624.304-.848s.528-.336.976-.336zm3.821 2.464v-1.712h3.072v-7.936h-.144l-2.432 2.88-1.312-1.104 2.768-3.296h3.184v9.456h2.56v1.712zm10.842 0 3.888-9.456h-3.856v2.048h-1.792v-3.76h7.744v1.808l-3.776 9.36zm8.346 0v-1.712h3.072v-7.936h-.144l-2.432 2.88-1.312-1.104 2.768-3.296h3.184v9.456h2.56v1.712zm10.522.176c-.438 0-.763-.1067-.976-.32-.203-.224-.304-.5067-.304-.848v-.288c0-.3414.101-.624.304-.848.213-.224.538-.336.976-.336.448 0 .773.112.976.336.202.224.304.5066.304.848v.288c0 .3413-.102.624-.304.848-.203.2133-.528.32-.976.32zm5.101-.176 3.888-9.456h-3.856v2.048h-1.792v-3.76h7.744v1.808l-3.776 9.36zm15.13-9.344h-5.024l-.256 3.744h.112c.117-.2347.245-.4534.384-.656.138-.2027.298-.3734.48-.512.181-.1387.389-.2454.624-.32.245-.0854.538-.128.88-.128.48 0 .928.08 1.344.24s.773.3946 1.072.704c.309.2986.549.6666.72 1.104.181.4373.272.9333.272 1.488 0 .5653-.091 1.0826-.272 1.552-.182.4693-.448.88-.8 1.232-.352.3413-.784.608-1.296.8s-1.099.288-1.76.288c-.512 0-.971-.0587-1.376-.176-.406-.1067-.763-.256-1.072-.448-.31-.192-.576-.4107-.8-.656-.224-.256-.422-.5227-.592-.8l1.536-1.184c.128.2133.261.416.4.608.138.1813.298.3413.48.48.192.1386.4.2506.624.336.234.0746.506.112.816.112.629 0 1.104-.176 1.424-.528.33-.352.496-.832.496-1.44v-.128c0-.576-.166-1.0294-.496-1.36-.331-.3307-.79-.496-1.376-.496-.459 0-.832.0906-1.12.272-.288.1706-.518.3573-.688.56l-1.728-.24.416-6.272h6.576z" fill="#32324a"/><circle cx="34.1379" cy="51.812" fill="#5962fa" r="29.4721"/><g fill="#fff"><path d="m36.4693 32.4926-.2998.8856-2.5756 25.8524.185.267 10.3681-6.849z"/><path d="m34.2881 32.4897-11.6018 19.6657 8.9204 7.3376 1.2459-12.5472z"/><path d="m34.5883 61.6902-.1463.1773-.9742 9.2228.0816.4351 12.1322-16.6928z"/><path d="m32.0452 71.5192 1.0375-9.8348-9.5721-7.3426z"/></g></svg>