<svg fill="none" height="137" viewBox="0 0 609 137" width="609" xmlns="http://www.w3.org/2000/svg" xmlns:xlink="http://www.w3.org/1999/xlink"><clipPath id="a"><path d="m0 0h25.1364v31.8395h-25.1364z" transform="matrix(.99997007 -.0077363 .0077363 .99997007 37.807 40.624)"/></clipPath><rect fill="#faf7f3" height="136" rx="12" width="561" x="47.8129"/><path d="m98.1692 79.24v-2.472h11.1838v2.472zm0 5.352v-2.496h11.1838v2.496zm24.5988 5.376v-2.136c-1.216-.096-2.24-.376-3.072-.84-.832-.48-1.552-1.072-2.16-1.776l1.944-1.776c.464.544.984.992 1.56 1.344.576.336 1.224.552 1.944.648v-4.872c-1.76-.368-3.032-.928-3.816-1.68-.768-.768-1.152-1.744-1.152-2.928 0-1.28.416-2.304 1.248-3.072.832-.784 2-1.264 3.504-1.44v-2.16h2.376v2.16c1.008.112 1.872.36 2.592.744.736.384 1.376.912 1.92 1.584l-1.968 1.704c-.32-.384-.704-.72-1.152-1.008-.432-.288-.968-.496-1.608-.624v4.464c1.712.4 2.968.96 3.768 1.68.8.704 1.2 1.68 1.2 2.928 0 1.232-.4 2.296-1.2 3.192-.8.88-1.984 1.432-3.552 1.656v2.208zm-1.848-14.136c0 .56.16.992.48 1.296.336.304.864.552 1.584.744v-4.056c-1.376.24-2.064.912-2.064 2.016zm6.096 7.296c0-.48-.152-.896-.456-1.248-.288-.368-.832-.664-1.632-.888v4.416c.672-.144 1.184-.416 1.536-.816.368-.416.552-.904.552-1.464zm16.942 5.16c-.96 0-1.816-.152-2.568-.456-.752-.32-1.392-.76-1.92-1.32-.528-.576-.928-1.264-1.2-2.064-.272-.816-.408-1.728-.408-2.736 0-1.2.176-2.328.528-3.384.368-1.072.84-2.048 1.416-2.928.576-.896 1.216-1.688 1.92-2.376.72-.704 1.432-1.296 2.136-1.776h4.272c-.992.704-1.88 1.384-2.664 2.04-.768.656-1.448 1.32-2.04 1.992-.576.672-1.056 1.376-1.44 2.112-.368.72-.648 1.504-.84 2.352l.192.048c.16-.32.344-.624.552-.912.224-.304.488-.568.792-.792.304-.24.656-.424 1.056-.552.4-.144.864-.216 1.392-.216.688 0 1.328.12 1.92.36.608.24 1.128.592 1.56 1.056.448.448.792.992 1.032 1.632.256.64.384 1.352.384 2.136 0 .848-.144 1.624-.432 2.328s-.696 1.312-1.224 1.824-1.168.912-1.92 1.2c-.736.288-1.568.432-2.496.432zm0-2.496c.88 0 1.568-.24 2.064-.72.512-.496.768-1.2.768-2.112v-.36c0-.912-.256-1.608-.768-2.088-.496-.496-1.184-.744-2.064-.744-.896 0-1.592.248-2.088.744-.496.48-.744 1.176-.744 2.088v.36c0 .912.248 1.616.744 2.112.496.48 1.192.72 2.088.72zm20.223 2.208h-11.616v-2.928l5.256-4.608c.896-.784 1.552-1.488 1.968-2.112.416-.64.624-1.328.624-2.064v-.312c0-.736-.24-1.296-.72-1.68-.48-.4-1.064-.6-1.752-.6-.864 0-1.52.248-1.968.744-.448.48-.768 1.064-.96 1.752l-2.736-1.056c.176-.56.424-1.088.744-1.584.32-.512.72-.96 1.2-1.344.496-.384 1.072-.688 1.728-.912s1.408-.336 2.256-.336c.88 0 1.664.128 2.352.384.688.24 1.264.584 1.728 1.032.48.448.84.976 1.08 1.584.256.608.384 1.272.384 1.992 0 .704-.112 1.344-.336 1.92s-.528 1.128-.912 1.656c-.384.512-.832 1.008-1.344 1.488-.512.464-1.056.936-1.632 1.416l-3.528 2.904h8.184zm4.91-3.696c.656 0 1.136.168 1.44.504.32.336.48.76.48 1.272v.432c0 .432-.064.88-.192 1.344-.112.464-.28.912-.504 1.344-.208.432-.464.84-.768 1.224-.288.384-.616.72-.984 1.008h-2.184c.544-.528 1-1.048 1.368-1.56.368-.496.648-1.048.84-1.656-.496-.08-.856-.272-1.08-.576-.224-.32-.336-.696-.336-1.128v-.432c0-.512.152-.936.456-1.272s.792-.504 1.464-.504zm15.908-10.32h-7.536l-.384 5.616h.168c.176-.352.368-.68.576-.984s.448-.56.72-.768.584-.368.936-.48c.368-.128.808-.192 1.32-.192.72 0 1.392.12 2.016.36s1.16.592 1.608 1.056c.464.448.824 1 1.08 1.656.272.656.408 1.4.408 2.232 0 .848-.136 1.624-.408 2.328s-.672 1.32-1.2 1.848c-.528.512-1.176.912-1.944 1.2s-1.648.432-2.64.432c-.768 0-1.456-.088-2.064-.264-.608-.16-1.144-.384-1.608-.672s-.864-.616-1.2-.984c-.336-.384-.632-.784-.888-1.2l2.304-1.776c.192.32.392.624.6.912.208.272.448.512.72.72.288.208.6.376.936.504.352.112.76.168 1.224.168.944 0 1.656-.264 2.136-.792.496-.528.744-1.248.744-2.16v-.192c0-.864-.248-1.544-.744-2.04s-1.184-.744-2.064-.744c-.688 0-1.248.136-1.68.408-.432.256-.776.536-1.032.84l-2.592-.36.624-9.408h9.864zm15.255 3.552c0 1.2-.184 2.336-.552 3.408-.352 1.056-.816 2.032-1.392 2.928-.576.88-1.224 1.672-1.944 2.376-.704.688-1.408 1.272-2.112 1.752h-4.272c.976-.704 1.856-1.384 2.64-2.04s1.464-1.32 2.04-1.992c.592-.672 1.072-1.368 1.44-2.088.384-.736.672-1.528.864-2.376l-.192-.048c-.16.32-.352.632-.576.936-.208.304-.464.568-.768.792s-.656.408-1.056.552c-.4.128-.864.192-1.392.192-.704 0-1.352-.12-1.944-.36s-1.112-.584-1.56-1.032c-.432-.464-.776-1.008-1.032-1.632-.24-.64-.36-1.36-.36-2.16 0-.848.144-1.624.432-2.328s.696-1.312 1.224-1.824 1.16-.912 1.896-1.2c.752-.288 1.592-.432 2.52-.432.96 0 1.816.16 2.568.48.752.304 1.392.744 1.92 1.32.528.56.928 1.248 1.2 2.064.272.8.408 1.704.408 2.712zm-6.096 1.944c.896 0 1.592-.24 2.088-.72.496-.496.744-1.2.744-2.112v-.36c0-.912-.248-1.608-.744-2.088-.496-.496-1.192-.744-2.088-.744-.88 0-1.576.248-2.088.744-.496.48-.744 1.176-.744 2.088v.36c0 .912.248 1.616.744 2.112.512.48 1.208.72 2.088.72zm14.463 8.808c-1.072 0-2-.192-2.784-.576-.784-.4-1.432-.968-1.944-1.704s-.896-1.64-1.152-2.712c-.24-1.072-.36-2.296-.36-3.672 0-1.36.12-2.576.36-3.648.256-1.088.64-2 1.152-2.736s1.16-1.296 1.944-1.68c.784-.4 1.712-.6 2.784-.6 2.128 0 3.696.76 4.704 2.28 1.024 1.52 1.536 3.648 1.536 6.384s-.512 4.864-1.536 6.384c-1.008 1.52-2.576 2.28-4.704 2.28zm0-2.664c1.072 0 1.816-.4 2.232-1.2.432-.816.648-1.912.648-3.288v-3.024c0-1.376-.216-2.464-.648-3.264-.416-.816-1.16-1.224-2.232-1.224s-1.824.408-2.256 1.224c-.416.8-.624 1.888-.624 3.264v3.024c0 1.376.208 2.472.624 3.288.432.8 1.184 1.2 2.256 1.2zm10.766 2.64c-.656 0-1.144-.16-1.464-.48-.304-.336-.456-.76-.456-1.272v-.432c0-.512.152-.936.456-1.272.32-.336.808-.504 1.464-.504.672 0 1.16.168 1.464.504s.456.76.456 1.272v.432c0 .512-.152.936-.456 1.272-.304.32-.792.48-1.464.48zm16.7-.264h-11.616v-2.928l5.256-4.608c.896-.784 1.552-1.488 1.968-2.112.416-.64.624-1.328.624-2.064v-.312c0-.736-.24-1.296-.72-1.68-.48-.4-1.064-.6-1.752-.6-.864 0-1.52.248-1.968.744-.448.48-.768 1.064-.96 1.752l-2.736-1.056c.176-.56.424-1.088.744-1.584.32-.512.72-.96 1.2-1.344.496-.384 1.072-.688 1.728-.912s1.408-.336 2.256-.336c.88 0 1.664.128 2.352.384.688.24 1.264.584 1.728 1.032.48.448.84.976 1.08 1.584.256.608.384 1.272.384 1.992 0 .704-.112 1.344-.336 1.92s-.528 1.128-.912 1.656c-.384.512-.832 1.008-1.344 1.488-.512.464-1.056.936-1.632 1.416l-3.528 2.904h8.184zm5.343 0 5.832-14.184h-5.784v3.072h-2.688v-5.64h11.616v2.712l-5.664 14.04z" fill="#25253f"/><path d="m105.666 48.4609h-9.509v-2.1666l4.474-3.9921c.708-.6419 1.25-1.2505 1.625-1.8255.387-.5885.581-1.2037.581-1.8457v-.2607c0-.6821-.207-1.2171-.622-1.6049-.401-.3879-.949-.5818-1.645-.5818-.387 0-.7285.0602-1.0227.1806-.2809.1069-.5283.2607-.7423.4614-.214.2006-.3945.4346-.5416.7021-.1338.2675-.2408.555-.321.8626l-1.986-.7623c.1471-.4413.3477-.8626.6018-1.2638.2541-.4146.5751-.7824.9629-1.1034.3879-.321.8426-.5751 1.3642-.7623.5349-.1873 1.1567-.2809 1.8657-.2809s1.344.107 1.906.321c.561.2006 1.03.4882 1.404.8626.388.3611.682.7958.883 1.304.2.5082.301 1.0632.301 1.6651 0 .5617-.087 1.0832-.261 1.5647s-.415.9362-.722 1.3642c-.308.4279-.669.8358-1.084 1.2237-.401.3878-.829.7824-1.284 1.1836l-3.2896 2.8286h7.0616zm4.084.2408c-.494 0-.862-.1271-1.103-.3812-.241-.2675-.361-.5951-.361-.983v-.3009c0-.3878.12-.7088.361-.9629.241-.2675.609-.4012 1.103-.4012.495 0 .863.1337 1.104.4012.241.2541.361.5751.361.9629v.3009c0 .3879-.12.7155-.361.983-.241.2541-.609.3812-1.104.3812zm8.928 0c-.869 0-1.625-.1605-2.266-.4815-.642-.3343-1.171-.8091-1.585-1.4243-.415-.6152-.722-1.3709-.923-2.2669-.201-.8961-.301-1.9192-.301-3.0694 0-1.1367.1-2.1532.301-3.0492.201-.9095.508-1.6718.923-2.287.414-.6152.943-1.0833 1.585-1.4043.641-.3343 1.397-.5015 2.266-.5015 1.739 0 3.016.6353 3.832 1.9058.829 1.2706 1.244 3.0493 1.244 5.3362 0 2.287-.415 4.0657-1.244 5.3363-.816 1.2705-2.093 1.9058-3.832 1.9058zm0-1.9259c.482 0 .89-.0936 1.224-.2808.348-.2007.629-.4815.843-.8426s.367-.7891.461-1.2839c.094-.5082.141-1.0699.141-1.6851v-2.4475c0-.6152-.047-1.1702-.141-1.665-.094-.5082-.247-.9429-.461-1.304s-.495-.6353-.843-.8225c-.334-.2006-.742-.3009-1.224-.3009-.481 0-.896.1003-1.243.3009-.335.1872-.609.4614-.823.8225s-.368.7958-.461 1.304c-.094.4948-.141 1.0498-.141 1.665v2.4475c0 .6152.047 1.1769.141 1.6851.093.4948.247.9228.461 1.2839s.488.6419.823.8426c.347.1872.762.2808 1.243.2808zm12.029 1.9259c-.869 0-1.625-.1605-2.267-.4815-.642-.3343-1.17-.8091-1.585-1.4243-.414-.6152-.722-1.3709-.922-2.2669-.201-.8961-.301-1.9192-.301-3.0694 0-1.1367.1-2.1532.301-3.0492.2-.9095.508-1.6718.922-2.287.415-.6152.943-1.0833 1.585-1.4043.642-.3343 1.398-.5015 2.267-.5015 1.739 0 3.016.6353 3.832 1.9058.829 1.2706 1.244 3.0493 1.244 5.3362 0 2.287-.415 4.0657-1.244 5.3363-.816 1.2705-2.093 1.9058-3.832 1.9058zm0-1.9259c.482 0 .89-.0936 1.224-.2808.348-.2007.628-.4815.842-.8426s.368-.7891.462-1.2839c.093-.5082.14-1.0699.14-1.6851v-2.4475c0-.6152-.047-1.1702-.14-1.665-.094-.5082-.248-.9429-.462-1.304s-.494-.6353-.842-.8225c-.334-.2006-.742-.3009-1.224-.3009-.481 0-.896.1003-1.244.3009-.334.1872-.608.4614-.822.8225s-.368.7958-.461 1.304c-.094.4948-.141 1.0498-.141 1.665v2.4475c0 .6152.047 1.1769.141 1.6851.093.4948.247.9228.461 1.2839s.488.6419.822.8426c.348.1872.763.2808 1.244.2808zm12.029 1.9259c-.869 0-1.625-.1605-2.267-.4815-.642-.3343-1.17-.8091-1.585-1.4243-.414-.6152-.722-1.3709-.923-2.2669-.2-.8961-.3-1.9192-.3-3.0694 0-1.1367.1-2.1532.3-3.0492.201-.9095.509-1.6718.923-2.287.415-.6152.943-1.0833 1.585-1.4043.642-.3343 1.398-.5015 2.267-.5015 1.739 0 3.016.6353 3.832 1.9058.829 1.2706 1.243 3.0493 1.243 5.3362 0 2.287-.414 4.0657-1.243 5.3363-.816 1.2705-2.093 1.9058-3.832 1.9058zm0-1.9259c.481 0 .889-.0936 1.224-.2808.347-.2007.628-.4815.842-.8426s.368-.7891.462-1.2839c.093-.5082.14-1.0699.14-1.6851v-2.4475c0-.6152-.047-1.1702-.14-1.665-.094-.5082-.248-.9429-.462-1.304s-.495-.6353-.842-.8225c-.335-.2006-.743-.3009-1.224-.3009-.482 0-.896.1003-1.244.3009-.334.1872-.608.4614-.822.8225s-.368.7958-.462 1.304c-.093.4948-.14 1.0498-.14 1.665v2.4475c0 .6152.047 1.1769.14 1.6851.094.4948.248.9228.462 1.2839s.488.6419.822.8426c.348.1872.762.2808 1.244.2808zm12.029 1.9259c-.87 0-1.625-.1605-2.267-.4815-.642-.3343-1.17-.8091-1.585-1.4243s-.722-1.3709-.923-2.2669c-.2-.8961-.301-1.9192-.301-3.0694 0-1.1367.101-2.1532.301-3.0492.201-.9095.508-1.6718.923-2.287s.943-1.0833 1.585-1.4043c.642-.3343 1.397-.5015 2.267-.5015 1.738 0 3.016.6353 3.831 1.9058.83 1.2706 1.244 3.0493 1.244 5.3362 0 2.287-.414 4.0657-1.244 5.3363-.815 1.2705-2.093 1.9058-3.831 1.9058zm0-1.9259c.481 0 .889-.0936 1.223-.2808.348-.2007.629-.4815.843-.8426s.368-.7891.461-1.2839c.094-.5082.141-1.0699.141-1.6851v-2.4475c0-.6152-.047-1.1702-.141-1.665-.093-.5082-.247-.9429-.461-1.304s-.495-.6353-.843-.8225c-.334-.2006-.742-.3009-1.223-.3009-.482 0-.896.1003-1.244.3009-.334.1872-.609.4614-.823.8225s-.367.7958-.461 1.304c-.094.4948-.14 1.0498-.14 1.665v2.4475c0 .6152.046 1.1769.14 1.6851.094.4948.247.9228.461 1.2839s.489.6419.823.8426c.348.1872.762.2808 1.244.2808zm12.028 1.9259c-.869 0-1.624-.1605-2.266-.4815-.642-.3343-1.171-.8091-1.585-1.4243-.415-.6152-.722-1.3709-.923-2.2669-.201-.8961-.301-1.9192-.301-3.0694 0-1.1367.1-2.1532.301-3.0492.201-.9095.508-1.6718.923-2.287.414-.6152.943-1.0833 1.585-1.4043.642-.3343 1.397-.5015 2.266-.5015 1.739 0 3.016.6353 3.832 1.9058.829 1.2706 1.244 3.0493 1.244 5.3362 0 2.287-.415 4.0657-1.244 5.3363-.816 1.2705-2.093 1.9058-3.832 1.9058zm0-1.9259c.482 0 .89-.0936 1.224-.2808.348-.2007.629-.4815.843-.8426s.368-.7891.461-1.2839c.094-.5082.141-1.0699.141-1.6851v-2.4475c0-.6152-.047-1.1702-.141-1.665-.093-.5082-.247-.9429-.461-1.304s-.495-.6353-.843-.8225c-.334-.2006-.742-.3009-1.224-.3009-.481 0-.896.1003-1.243.3009-.335.1872-.609.4614-.823.8225s-.368.7958-.461 1.304c-.094.4948-.141 1.0498-.141 1.665v2.4475c0 .6152.047 1.1769.141 1.6851.093.4948.247.9228.461 1.2839s.488.6419.823.8426c.347.1872.762.2808 1.243.2808zm12.029 1.9259c-.869 0-1.625-.1605-2.267-.4815-.642-.3343-1.17-.8091-1.584-1.4243-.415-.6152-.723-1.3709-.923-2.2669-.201-.8961-.301-1.9192-.301-3.0694 0-1.1367.1-2.1532.301-3.0492.2-.9095.508-1.6718.923-2.287.414-.6152.942-1.0833 1.584-1.4043.642-.3343 1.398-.5015 2.267-.5015 1.739 0 3.016.6353 3.832 1.9058.829 1.2706 1.244 3.0493 1.244 5.3362 0 2.287-.415 4.0657-1.244 5.3363-.816 1.2705-2.093 1.9058-3.832 1.9058zm0-1.9259c.482 0 .89-.0936 1.224-.2808.348-.2007.629-.4815.843-.8426s.367-.7891.461-1.2839c.094-.5082.14-1.0699.14-1.6851v-2.4475c0-.6152-.046-1.1702-.14-1.665-.094-.5082-.247-.9429-.461-1.304s-.495-.6353-.843-.8225c-.334-.2006-.742-.3009-1.224-.3009-.481 0-.896.1003-1.244.3009-.334.1872-.608.4614-.822.8225s-.368.7958-.461 1.304c-.094.4948-.141 1.0498-.141 1.665v2.4475c0 .6152.047 1.1769.141 1.6851.093.4948.247.9228.461 1.2839s.488.6419.822.8426c.348.1872.763.2808 1.244.2808zm12.029 1.9259c-.869 0-1.625-.1605-2.267-.4815-.642-.3343-1.17-.8091-1.585-1.4243-.414-.6152-.722-1.3709-.922-2.2669-.201-.8961-.301-1.9192-.301-3.0694 0-1.1367.1-2.1532.301-3.0492.2-.9095.508-1.6718.922-2.287.415-.6152.943-1.0833 1.585-1.4043.642-.3343 1.398-.5015 2.267-.5015 1.739 0 3.016.6353 3.832 1.9058.829 1.2706 1.243 3.0493 1.243 5.3362 0 2.287-.414 4.0657-1.243 5.3363-.816 1.2705-2.093 1.9058-3.832 1.9058zm0-1.9259c.481 0 .889-.0936 1.224-.2808.347-.2007.628-.4815.842-.8426s.368-.7891.462-1.2839c.093-.5082.14-1.0699.14-1.6851v-2.4475c0-.6152-.047-1.1702-.14-1.665-.094-.5082-.248-.9429-.462-1.304s-.495-.6353-.842-.8225c-.335-.2006-.743-.3009-1.224-.3009s-.896.1003-1.244.3009c-.334.1872-.608.4614-.822.8225s-.368.7958-.462 1.304c-.093.4948-.14 1.0498-.14 1.665v2.4475c0 .6152.047 1.1769.14 1.6851.094.4948.248.9228.462 1.2839s.488.6419.822.8426c.348.1872.763.2808 1.244.2808zm7.776 1.6851v-1.8857h3.932v-10.4718h-.161l-3.25 3.4705-1.384-1.2438 3.571-3.8717h3.451v12.1168h3.41v1.8857zm16.729-14.0025h6.199c1.164 0 2.073.3276 2.729.9829.668.6554 1.003 1.5314 1.003 2.628 0 .5216-.074.9697-.221 1.3441-.147.3611-.334.662-.562.9028-.227.2273-.488.4012-.782.5216-.294.1069-.582.1738-.863.2006v.1203c.281.0134.589.0803.923.2006.348.1204.669.3143.963.5818.294.2541.542.5885.742 1.0031.201.4012.301.896.301 1.4845 0 .5617-.093 1.09-.281 1.5848-.174.4948-.421.9228-.742 1.2839s-.702.6486-1.143.8626c-.442.2006-.923.3009-1.445.3009h-6.821zm2.267 12.0566h3.892c.589 0 1.05-.1538 1.384-.4614.335-.3076.502-.7489.502-1.324v-.6821c0-.5751-.167-1.0164-.502-1.324-.334-.3076-.795-.4614-1.384-.4614h-3.892zm0-6.1386h3.511c.562 0 .996-.1405 1.304-.4213.308-.2943.461-.7089.461-1.2438v-.642c0-.5349-.153-.9428-.461-1.2237-.308-.2942-.742-.4413-1.304-.4413h-3.511zm15.644-3.9119v11.9964h-2.267v-11.9964h-4.173v-2.0061h10.612v2.0061zm11.187 12.2372c-1.832 0-3.269-.6152-4.313-1.8456-1.043-1.2438-1.564-3.0426-1.564-5.3965 0-1.1769.133-2.2133.401-3.1094.267-.8961.655-1.6517 1.163-2.2669.509-.6152 1.124-1.0766 1.846-1.3842.736-.321 1.558-.4815 2.467-.4815 1.218 0 2.234.2675 3.05.8025.829.5349 1.478 1.324 1.946 2.3672l-1.906 1.0431c-.241-.6687-.615-1.1969-1.124-1.5848-.494-.4012-1.15-.6018-1.966-.6018-1.083 0-1.932.3678-2.547 1.1033-.615.7356-.923 1.752-.923 3.0493v2.1265c0 1.2973.308 2.3137.923 3.0493.615.7355 1.464 1.1033 2.547 1.1033.843 0 1.525-.214 2.047-.6419.535-.4414.929-1.0031 1.183-1.6852l1.826 1.1034c-.468 1.0164-1.124 1.8122-1.966 2.3872-.843.5751-1.872.8627-3.09.8627z" fill="#ff8400"/><rect fill="#fbf7f3" height="135" rx="8" width="561" x="47.8129" y="1.46094"/><path d="m346.313 135.461 10.388-19.751c.894-1.7 3.375-1.55 4.059.244l.399 1.047c.756 1.985 3.596 1.889 4.217-.142l2.083-6.815c.688-2.251 3.941-2.04 4.332.281l2.062 12.237c.408 2.418 3.85 2.504 4.378.11l2.986-13.548c.443-2.008 3.136-2.398 4.13-.599l2.199 3.975c.899 1.627 3.276 1.504 4.004-.206l1.678-3.946c.78-1.834 3.39-1.802 4.126.05l3.671 9.248c.756 1.904 3.462 1.868 4.167-.055l5.221-14.247c.663-1.81 3.156-1.983 4.062-.281l7.039 13.212c.082.152.18.294.294.424l3.889 4.421c.905 1.028 2.515 1.006 3.39-.048l2.293-2.759c.817-.983 2.292-1.079 3.231-.211l3.057 2.83c1.131 1.047 2.957.659 3.565-.756l4.907-11.429c.809-1.885 3.519-1.77 4.166.176l2.265 6.812c.165.497.499.92.945 1.194l8.171 5.042c1.006.621 2.323.349 3-.621l4.95-7.091c.942-1.35 2.973-1.248 3.776.19l2.401 4.299c.937 1.679 3.419 1.463 4.053-.353l1.219-3.493c.559-1.602 2.632-2.018 3.765-.756l4.308 4.798 3.18 4.66c.929 1.361 2.962 1.28 3.78-.151l2.412-4.226c.761-1.332 2.609-1.516 3.618-.36l1.334 1.529c1.082 1.24 3.089.921 3.733-.594l7.069-16.628c.749-1.762 3.224-1.823 4.06-.1l5.965 12.304c.759 1.565 2.936 1.698 3.88.238l.964-1.49c.86-1.331 2.795-1.365 3.702-.066l4.478 6.414c.884 1.267 2.758 1.272 3.65.01l1.089-1.542c.86-1.217 2.649-1.265 3.572-.095l.526.665c1.148 1.454 3.466.955 3.914-.843l.453-1.815c.058-.232.153-.453.281-.655l1.156-1.822c.887-1.398 2.934-1.376 3.791.041l2.892 4.78c.959 1.584 3.319 1.378 3.988-.348l4.407-11.364c.663-1.708 2.988-1.933 3.966-.384l4.935 7.822c1.008 1.598 3.422 1.297 4.007-.5l4.556-13.999c.644-1.9792 3.409-2.0751 4.189-.145l5.263 13.027c.778 1.926 3.534 1.836 4.186-.135l9.658-29.2111" stroke="#ff8400" stroke-linecap="round" stroke-linejoin="round" stroke-width="2.23039"/><path d="m356.702 115.716-10.889 20.745h251c6.627 0 12-5.373 12-12v-40.0001l-10.578 29.0271c-.7 1.92-3.398 1.966-4.164.072l-5.365-13.28c-.78-1.9301-3.545-1.8342-4.189.145l-4.556 13.999c-.585 1.797-2.999 2.098-4.007.5l-4.935-7.822c-.978-1.549-3.303-1.324-3.966.384l-4.407 11.364c-.669 1.726-3.029 1.932-3.988.348l-2.892-4.78c-.857-1.417-2.904-1.439-3.791-.041l-1.156 1.822c-.128.202-.223.423-.281.655l-.453 1.815c-.448 1.798-2.766 2.297-3.914.843l-.526-.665c-.923-1.17-2.712-1.122-3.572.095l-1.089 1.542c-.892 1.262-2.766 1.257-3.65-.01l-4.478-6.414c-.907-1.299-2.842-1.265-3.702.066l-.964 1.49c-.944 1.46-3.121 1.327-3.88-.238l-5.965-12.304c-.836-1.723-3.311-1.662-4.06.1l-7.069 16.628c-.644 1.515-2.651 1.834-3.733.594l-1.334-1.529c-1.009-1.156-2.857-.972-3.618.36l-2.413 4.226c-.817 1.431-2.85 1.512-3.779.151l-3.18-4.66-4.308-4.798c-1.133-1.262-3.206-.846-3.765.756l-1.219 3.493c-.634 1.816-3.116 2.032-4.053.353l-2.401-4.299c-.803-1.438-2.834-1.54-3.776-.19l-4.95 7.091c-.677.97-1.994 1.242-3 .621l-8.171-5.042c-.446-.274-.78-.697-.945-1.194l-2.265-6.812c-.647-1.946-3.357-2.061-4.166-.176l-4.907 11.429c-.608 1.415-2.434 1.803-3.565.756l-3.057-2.83c-.939-.868-2.414-.772-3.231.211l-2.293 2.759c-.875 1.054-2.485 1.076-3.39.048l-3.889-4.421c-.114-.13-.212-.272-.294-.424l-7.039-13.212c-.906-1.702-3.399-1.529-4.062.281l-5.221 14.247c-.705 1.923-3.411 1.959-4.167.055l-3.671-9.248c-.736-1.852-3.346-1.884-4.126-.05l-1.678 3.946c-.728 1.71-3.105 1.833-4.004.206l-2.199-3.975c-.994-1.799-3.687-1.409-4.13.599l-2.986 13.548c-.528 2.394-3.97 2.308-4.378-.11l-2.062-12.237c-.391-2.321-3.644-2.532-4.332-.281l-2.083 6.815c-.621 2.031-3.461 2.127-4.217.142l-.398-1.042c-.684-1.795-3.166-1.943-4.059-.243z" fill="#ff8400" fill-opacity=".3"/><path d="m363.437 48.4609v-1.9092h3.425v-8.8502h-.16l-2.712 3.2118-1.463-1.2312 3.086-3.6757h3.551v10.5453h2.855v1.9092zm11.733.1963c-.487 0-.85-.1189-1.088-.3569-.226-.2498-.339-.565-.339-.9456v-.3212c0-.3807.113-.6959.339-.9457.238-.2498.601-.3747 1.088-.3747.5 0 .863.1249 1.089.3747s.339.565.339.9457v.3212c0 .3806-.113.6958-.339.9456-.226.238-.589.3569-1.089.3569zm8.027.0179c-.797 0-1.487-.1428-2.07-.4283-.583-.2974-1.065-.7197-1.445-1.2668-.381-.5472-.667-1.2193-.857-2.0163-.178-.797-.267-1.707-.267-2.73 0-1.0111.089-1.9152.267-2.7122.19-.8088.476-1.4869.857-2.0341.38-.5472.862-.9635 1.445-1.249.583-.2974 1.273-.4461 2.07-.4461 1.582 0 2.748.5651 3.497 1.6951.761 1.1301 1.142 2.7122 1.142 4.7463s-.381 3.6162-1.142 4.7463c-.749 1.13-1.915 1.6951-3.497 1.6951zm0-1.9806c.797 0 1.35-.2974 1.659-.8922.321-.6067.482-1.4215.482-2.4445v-2.2482c0-1.023-.161-1.8319-.482-2.4267-.309-.6067-.862-.91-1.659-.91s-1.356.3033-1.678.91c-.309.5948-.463 1.4037-.463 2.4267v2.2482c0 1.023.154 1.8378.463 2.4445.322.5948.881.8922 1.678.8922zm10.699 1.9806c-.797 0-1.487-.1428-2.07-.4283-.583-.2974-1.065-.7197-1.445-1.2668-.381-.5472-.667-1.2193-.857-2.0163-.178-.797-.268-1.707-.268-2.73 0-1.0111.09-1.9152.268-2.7122.19-.8088.476-1.4869.857-2.0341.38-.5472.862-.9635 1.445-1.249.583-.2974 1.273-.4461 2.07-.4461 1.582 0 2.747.5651 3.497 1.6951.761 1.1301 1.142 2.7122 1.142 4.7463s-.381 3.6162-1.142 4.7463c-.75 1.13-1.915 1.6951-3.497 1.6951zm0-1.9806c.797 0 1.35-.2974 1.659-.8922.321-.6067.482-1.4215.482-2.4445v-2.2482c0-1.023-.161-1.8319-.482-2.4267-.309-.6067-.862-.91-1.659-.91s-1.356.3033-1.678.91c-.309.5948-.464 1.4037-.464 2.4267v2.2482c0 1.023.155 1.8378.464 2.4445.322.5948.881.8922 1.678.8922zm11.026-10.6881h5.763c.511 0 .969.0774 1.374.232.416.1546.767.3688 1.053.6424.285.2736.499.6126.642 1.017.155.3926.232.8267.232 1.3026 0 .4758-.066.8802-.196 1.2133-.119.3212-.286.5888-.5.8029-.202.2142-.44.3747-.714.4818-.261.1071-.535.1665-.821.1784v.1071c.274 0 .565.0535.875.1606.321.107.612.2795.874.5174.274.226.5.5234.678.8922.179.3568.268.8029.268 1.3382 0 .4996-.084.9695-.25 1.4096-.155.4283-.375.803-.66 1.1241-.286.3212-.625.577-1.017.7673-.393.1784-.821.2676-1.285.2676h-6.316zm2.355 10.4561h3.283c.452 0 .803-.113 1.053-.339.25-.2379.374-.5769.374-1.0171v-.6066c0-.4402-.124-.7792-.374-1.0171s-.601-.3569-1.053-.3569h-3.283zm0-5.2637h2.908c.428 0 .762-.113.999-.339.238-.2379.357-.5651.357-.9814v-.5531c0-.4164-.119-.7376-.357-.9636-.237-.2379-.571-.3568-.999-.3568h-2.908zm13.895-3.1047v10.3668h-2.356v-10.3668h-3.533v-2.0877h9.422v2.0877zm9.861 10.581c-.821 0-1.564-.1309-2.231-.3926-.654-.2736-1.219-.678-1.695-1.2133-.464-.5353-.82-1.1955-1.07-1.9806-.25-.797-.375-1.7189-.375-2.7657s.125-1.9746.375-2.7835c.25-.8208.606-1.5048 1.07-2.052.476-.5591 1.041-.9813 1.695-1.2668.667-.2855 1.41-.4283 2.231-.4283 1.118 0 2.046.2379 2.783.7138.738.4758 1.327 1.1954 1.767 2.159l-2.016 1.0706c-.179-.5591-.47-1.0052-.875-1.3383-.404-.3449-.957-.5174-1.659-.5174-.88 0-1.582.2974-2.106.8921-.511.5948-.767 1.4275-.767 2.4981v1.9627c0 1.0825.256 1.9152.767 2.498.524.571 1.226.8565 2.106.8565.702 0 1.273-.1903 1.713-.571.452-.3806.779-.8505.981-1.4096l1.909 1.1241c-.452.9279-1.052 1.6535-1.802 2.1769-.749.5115-1.683.7673-2.801.7673z" fill="#ff8400"/><path d="m441.595 41.9482v-1.8378h8.315v1.8378zm0 3.979v-1.8557h8.315v1.8557zm18.288 3.9969v-1.5881c-.904-.0713-1.666-.2795-2.284-.6245-.619-.3568-1.154-.797-1.606-1.3204l1.445-1.3204c.345.4045.732.7376 1.16.9993.428.2498.91.4104 1.445.4817v-3.6221c-1.308-.2736-2.254-.69-2.837-1.249-.571-.571-.856-1.2966-.856-2.1769 0-.9516.309-1.7129.928-2.2839.618-.5829 1.487-.9398 2.605-1.0706v-1.6059h1.766v1.6059c.75.0833 1.392.2676 1.927.5531.547.2855 1.023.6781 1.428 1.1777l-1.463 1.2668c-.238-.2855-.524-.5353-.857-.7494-.321-.2141-.72-.3687-1.195-.4639v3.3188c1.272.2974 2.206.7137 2.801 1.249.595.5234.892 1.2491.892 2.1769 0 .9159-.297 1.707-.892 2.3731-.595.6543-1.475 1.0647-2.641 1.2312v1.6416zm-1.374-10.5096c0 .4163.119.7375.357.9635.25.226.642.4104 1.177.5531v-3.0154c-1.023.1784-1.534.678-1.534 1.4988zm4.532 5.4243c0-.3569-.113-.6662-.339-.9279-.214-.2736-.619-.4936-1.213-.6602v3.2832c.499-.1071.88-.3093 1.142-.6067.273-.3093.41-.6721.41-1.0884zm11.865-3.8006c.713 0 1.237-.1427 1.57-.4282.345-.2974.517-.6721.517-1.1241v-.1249c0-.5116-.166-.91-.499-1.1955-.322-.2974-.768-.4461-1.339-.4461-.547 0-1.035.1308-1.463.3925-.416.2617-.779.6305-1.088 1.1063l-1.499-1.3561c.214-.2855.446-.5531.696-.8029.262-.2617.559-.4818.892-.6602.333-.1903.708-.339 1.124-.4461.416-.107.886-.1606 1.41-.1606.63 0 1.201.0773 1.713.232.523.1427.969.3569 1.338.6423.381.2855.672.6305.874 1.0349.202.3926.304.8387.304 1.3383 0 .4044-.066.7672-.197 1.0884-.119.3212-.291.6007-.517.8386-.214.2379-.47.4342-.767.5889-.286.1427-.589.2498-.91.3211v.1071c.356.0714.695.1844 1.017.339.321.1546.594.3628.82.6245.238.2498.423.5472.554.8922.142.3449.214.7375.214 1.1776 0 .5472-.113 1.0468-.339 1.4988-.214.4521-.524.8387-.928 1.1598-.405.3212-.886.571-1.445.7495-.56.1665-1.184.2498-1.874.2498-.607 0-1.142-.0655-1.606-.1963-.464-.119-.874-.2855-1.231-.4996-.345-.2141-.648-.458-.91-.7316-.262-.2855-.488-.5829-.678-.8921l1.731-1.3204c.142.2498.297.4817.464.6958.166.2023.356.3807.571.5353.214.1547.458.2736.731.3569.274.0833.583.1249.928.1249.69 0 1.219-.1665 1.588-.4996s.553-.7911.553-1.3739v-.1249c0-.571-.202-1.0052-.606-1.3026-.393-.2974-.964-.4461-1.713-.4461h-1.232v-1.9627zm15.213-2.9976h-5.603l-.285 4.1752h.124c.131-.2616.274-.5055.429-.7315.154-.226.333-.4164.535-.571s.434-.2736.696-.3569c.273-.0951.601-.1427.981-.1427.536 0 1.035.0892 1.499.2676.464.1785.862.4402 1.196.7851.344.3331.612.7435.802 1.2312.203.4877.304 1.0409.304 1.6594 0 .6305-.101 1.2074-.304 1.7308-.202.5234-.499.9814-.892 1.3739-.392.3807-.874.6781-1.445.8922s-1.225.3212-1.963.3212c-.571 0-1.082-.0655-1.534-.1963-.452-.119-.851-.2855-1.196-.4996s-.642-.458-.892-.7316c-.25-.2855-.47-.5829-.66-.8921l1.713-1.3204c.143.2379.291.4639.446.678.155.2022.333.3807.535.5353.214.1546.446.2795.696.3747.262.0833.565.1249.91.1249.702 0 1.231-.1963 1.588-.5888.369-.3926.553-.9279.553-1.6059v-.1427c0-.6424-.184-1.148-.553-1.5167-.369-.3688-.88-.5531-1.534-.5531-.512 0-.928.1011-1.249.3033-.322.1903-.577.3985-.768.6245l-1.927-.2677.464-6.9945h7.334zm4.204 7.6725c.487 0 .844.1249 1.07.3747.238.2498.357.565.357.9457v.3212c0 .3211-.047.6542-.143.9992-.083.3449-.208.678-.374.9992-.155.3212-.345.6245-.571.91-.214.2855-.458.5353-.732.7494h-1.624c.405-.3925.744-.7791 1.018-1.1598.273-.3688.481-.7791.624-1.2312-.369-.0595-.636-.2022-.803-.4282-.166-.2379-.25-.5175-.25-.8386v-.3212c0-.3807.113-.6959.339-.9457s.589-.3747 1.089-.3747zm4.261 2.7478v-1.9092h3.426v-8.8502h-.161l-2.712 3.2118-1.463-1.2312 3.087-3.6757h3.551v10.5453h2.855v1.9092zm13.75-7.4227c.714 0 1.237-.1427 1.57-.4282.345-.2974.518-.6721.518-1.1241v-.1249c0-.5116-.167-.91-.5-1.1955-.321-.2974-.767-.4461-1.338-.4461-.547 0-1.035.1308-1.463.3925-.416.2617-.779.6305-1.088 1.1063l-1.499-1.3561c.214-.2855.446-.5531.696-.8029.261-.2617.559-.4818.892-.6602.333-.1903.708-.339 1.124-.4461.416-.107.886-.1606 1.409-.1606.631 0 1.202.0773 1.713.232.524.1427.97.3569 1.339.6423.38.2855.672.6305.874 1.0349.202.3926.303.8387.303 1.3383 0 .4044-.065.7672-.196 1.0884-.119.3212-.291.6007-.517.8386-.215.2379-.47.4342-.768.5889-.285.1427-.589.2498-.91.3211v.1071c.357.0714.696.1844 1.017.339.322.1546.595.3628.821.6245.238.2498.422.5472.553.8922.143.3449.214.7375.214 1.1776 0 .5472-.113 1.0468-.339 1.4988-.214.4521-.523.8387-.927 1.1598-.405.3212-.887.571-1.446.7495-.559.1665-1.183.2498-1.873.2498-.607 0-1.142-.0655-1.606-.1963-.464-.119-.874-.2855-1.231-.4996-.345-.2141-.649-.458-.91-.7316-.262-.2855-.488-.5829-.678-.8921l1.73-1.3204c.143.2498.298.4817.464.6958.167.2023.357.3807.571.5353.214.1547.458.2736.732.3569.273.0833.583.1249.928.1249.69 0 1.219-.1665 1.588-.4996.368-.3331.553-.7911.553-1.3739v-.1249c0-.571-.202-1.0052-.607-1.3026-.392-.2974-.963-.4461-1.713-.4461h-1.231v-1.9627zm12.234 7.4227v-2.4088h-5.639v-1.9984l4.961-8.0473h2.908v8.2257h1.624v1.82h-1.624v2.4088zm-3.712-4.2288h3.712v-5.9417h-.143zm10.86 4.4251c-.488 0-.851-.1189-1.089-.3569-.226-.2498-.339-.565-.339-.9456v-.3212c0-.3807.113-.6959.339-.9457.238-.2498.601-.3747 1.089-.3747.499 0 .862.1249 1.088.3747s.339.565.339.9457v.3212c0 .3806-.113.6958-.339.9456-.226.238-.589.3569-1.088.3569zm11.862-10.6166h-5.602l-.286 4.1752h.125c.131-.2616.274-.5055.428-.7315.155-.226.333-.4164.536-.571.202-.1546.434-.2736.695-.3569.274-.0951.601-.1427.982-.1427.535 0 1.035.0892 1.499.2676.464.1785.862.4402 1.195.7851.345.3331.613.7435.803 1.2312.202.4877.303 1.0409.303 1.6594 0 .6305-.101 1.2074-.303 1.7308s-.5.9814-.892 1.3739c-.393.3807-.874.6781-1.445.8922s-1.226.3212-1.963.3212c-.571 0-1.083-.0655-1.535-.1963-.452-.119-.85-.2855-1.195-.4996s-.642-.458-.892-.7316c-.25-.2855-.47-.5829-.66-.8921l1.713-1.3204c.142.2379.291.4639.446.678.154.2022.333.3807.535.5353.214.1546.446.2795.696.3747.261.0833.565.1249.91.1249.702 0 1.231-.1963 1.588-.5888.369-.3926.553-.9279.553-1.6059v-.1427c0-.6424-.184-1.148-.553-1.5167-.369-.3688-.88-.5531-1.535-.5531-.511 0-.928.1011-1.249.3033-.321.1903-.577.3985-.767.6245l-1.927-.2677.464-6.9945h7.333zm6.863 10.6345c-.797 0-1.487-.1428-2.07-.4283-.583-.2974-1.064-.7197-1.445-1.2668-.381-.5472-.666-1.2193-.857-2.0163-.178-.797-.267-1.707-.267-2.73 0-1.0111.089-1.9152.267-2.7122.191-.8088.476-1.4869.857-2.0341s.862-.9635 1.445-1.249c.583-.2974 1.273-.4461 2.07-.4461 1.582 0 2.748.5651 3.497 1.6951.762 1.1301 1.142 2.7122 1.142 4.7463s-.38 3.6162-1.142 4.7463c-.749 1.13-1.915 1.6951-3.497 1.6951zm0-1.9806c.797 0 1.35-.2974 1.659-.8922.322-.6067.482-1.4215.482-2.4445v-2.2482c0-1.023-.16-1.8319-.482-2.4267-.309-.6067-.862-.91-1.659-.91s-1.356.3033-1.677.91c-.31.5948-.464 1.4037-.464 2.4267v2.2482c0 1.023.154 1.8378.464 2.4445.321.5948.88.8922 1.677.8922z" fill="#25253f"/><path d="m370.134 76.8389h-7.15v-1.3427l3.56-3.2787c.51-.4684.936-.9628 1.28-1.4832.343-.5308.515-1.0617.515-1.5925v-.1874c0-.6036-.167-1.0928-.5-1.4676-.333-.3747-.838-.562-1.514-.562-.333 0-.625.0468-.874.1405-.25.0937-.469.2238-.656.3903-.177.1666-.328.3643-.453.5933-.114.2186-.208.458-.281.7182l-1.171-.4528c.104-.3226.245-.6349.422-.9367.187-.3123.416-.5881.687-.8275.281-.2394.614-.432.999-.5777.395-.1457.859-.2186 1.389-.2186.531 0 1.005.0781 1.421.2342.416.1562.765.3747 1.046.6558.281.281.495.6141.64.9992.156.3851.235.8118.235 1.2802 0 .4268-.063.8223-.188 1.1866-.114.3643-.276.713-.484 1.046-.208.3227-.463.6402-.765.9524-.291.3123-.609.6245-.952.9368l-2.935 2.6385h5.729zm3.164.1873c-.333 0-.578-.0832-.734-.2498-.146-.1665-.219-.3851-.219-.6557v-.203c0-.2706.073-.4892.219-.6557.156-.1666.401-.2498.734-.2498s.572.0832.718.2498c.156.1665.234.3851.234.6557v.203c0 .2706-.078.4892-.234.6557-.146.1666-.385.2498-.718.2498zm10.452-.1873h-7.151v-1.3427l3.56-3.2787c.51-.4684.937-.9628 1.28-1.4832.344-.5308.515-1.0617.515-1.5925v-.1874c0-.6036-.166-1.0928-.499-1.4676-.333-.3747-.838-.562-1.515-.562-.333 0-.624.0468-.874.1405s-.468.2238-.656.3903c-.177.1666-.328.3643-.452.5933-.115.2186-.209.458-.282.7182l-1.17-.4528c.104-.3226.244-.6349.421-.9367.187-.3123.416-.5881.687-.8275.281-.2394.614-.432.999-.5777.396-.1457.859-.2186 1.39-.2186s1.004.0781 1.421.2342c.416.1562.765.3747 1.046.6558.281.281.494.6141.64.9992.156.3851.234.8118.234 1.2802 0 .4268-.063.8223-.187 1.1866-.115.3643-.276.713-.484 1.046-.209.3227-.464.6402-.765.9524-.292.3123-.609.6245-.953.9368l-2.935 2.6385h5.73zm9.361 0h-7.15v-1.3427l3.559-3.2787c.51-.4684.937-.9628 1.281-1.4832.343-.5308.515-1.0617.515-1.5925v-.1874c0-.6036-.167-1.0928-.5-1.4676-.333-.3747-.838-.562-1.514-.562-.333 0-.625.0468-.874.1405-.25.0937-.469.2238-.656.3903-.177.1666-.328.3643-.453.5933-.114.2186-.208.458-.281.7182l-1.171-.4528c.104-.3226.245-.6349.422-.9367.187-.3123.416-.5881.687-.8275.281-.2394.614-.432.999-.5777.395-.1457.858-.2186 1.389-.2186s1.005.0781 1.421.2342c.416.1562.765.3747 1.046.6558.281.281.495.6141.64.9992.156.3851.234.8118.234 1.2802 0 .4268-.062.8223-.187 1.1866-.114.3643-.276.713-.484 1.046-.208.3227-.463.6402-.765.9524-.291.3123-.609.6245-.952.9368l-2.935 2.6385h5.729zm3.897 0 7.557-10.8977h1.202l-7.556 10.8977zm.625-4.9024c-.791 0-1.4-.2602-1.827-.7807-.426-.5308-.64-1.301-.64-2.3106 0-1.0097.214-1.7747.64-2.2951.427-.5308 1.036-.7963 1.827-.7963s1.4.2655 1.827.7963c.426.5204.64 1.2854.64 2.2951 0 1.0096-.214 1.7798-.64 2.3106-.427.5205-1.036.7807-1.827.7807zm0-.8119c.895 0 1.343-.6037 1.343-1.8111v-.9367c0-1.2074-.448-1.8111-1.343-1.8111s-1.343.6037-1.343 1.8111v.9367c0 1.2074.448 1.8111 1.343 1.8111zm7.51 5.9016c-.791 0-1.4-.2602-1.827-.7806-.427-.5308-.64-1.3011-.64-2.3107s.213-1.7746.64-2.2951c.427-.5308 1.036-.7962 1.827-.7962s1.4.2654 1.826.7962c.427.5205.64 1.2855.64 2.2951s-.213 1.7799-.64 2.3107c-.426.5204-1.035.7806-1.826.7806zm0-.8118c.895 0 1.342-.6037 1.342-1.8111v-.9368c0-1.2074-.447-1.8111-1.342-1.8111s-1.343.6037-1.343 1.8111v.9368c0 1.2074.448 1.8111 1.343 1.8111zm15.489.6245h-7.151v-1.3427l3.56-3.2787c.51-.4684.937-.9628 1.28-1.4832.344-.5308.515-1.0617.515-1.5925v-.1874c0-.6036-.166-1.0928-.499-1.4676-.333-.3747-.838-.562-1.515-.562-.333 0-.624.0468-.874.1405s-.468.2238-.656.3903c-.177.1666-.328.3643-.452.5933-.115.2186-.209.458-.282.7182l-1.17-.4528c.104-.3226.244-.6349.421-.9367.187-.3123.416-.5881.687-.8275.281-.2394.614-.432.999-.5777.396-.1457.859-.2186 1.39-.2186s1.004.0781 1.421.2342c.416.1562.765.3747 1.046.6558.281.281.494.6141.64.9992.156.3851.234.8118.234 1.2802 0 .4268-.063.8223-.187 1.1866-.115.3643-.276.713-.484 1.046-.209.3227-.464.6402-.765.9524-.292.3123-.609.6245-.953.9368l-2.935 2.6385h5.73zm6.895 0v-2.139h-5.262v-1.1553l4.559-7.6034h1.952v7.6658h1.576v1.0929h-1.576v2.139zm-4.029-3.2319h4.029v-6.651h-.079zm12.552-8.3215h1.249v4.8087h.063c.197-.458.473-.8223.827-1.0929.364-.2706.848-.4059 1.452-.4059.833 0 1.488.2706 1.967.8118.489.5308.734 1.2855.734 2.2639v5.1678h-1.249v-4.9493c0-1.4467-.609-2.1701-1.827-2.1701-.249 0-.494.0312-.733.0936-.229.0625-.438.1562-.625.2811s-.338.2862-.453.484c-.104.1873-.156.4111-.156.6713v5.5894h-1.249zm11.918 11.7407c-.541 0-1.035-.0989-1.483-.2966-.448-.1978-.833-.4788-1.155-.8431-.313-.3747-.557-.8171-.734-1.3271-.177-.5204-.266-1.1033-.266-1.7486 0-.6349.089-1.2126.266-1.733.177-.5205.421-.9628.734-1.3271.322-.3747.707-.6609 1.155-.8587s.942-.2966 1.483-.2966 1.031.0988 1.468.2966c.447.1978.833.484 1.155.8587.323.3643.573.8066.75 1.3271.177.5204.265 1.0981.265 1.733 0 .6453-.088 1.2282-.265 1.7486-.177.51-.427.9524-.75 1.3271-.322.3643-.708.6453-1.155.8431-.437.1977-.927.2966-1.468.2966zm0-1.1085c.677 0 1.228-.2082 1.655-.6245s.64-1.0512.64-1.9047v-1.1554c0-.8535-.213-1.4884-.64-1.9047-.427-.4164-.978-.6245-1.655-.6245-.676 0-1.228.2081-1.655.6245-.426.4163-.64 1.0512-.64 1.9047v1.1554c0 .8535.214 1.4884.64 1.9047.427.4163.979.6245 1.655.6245zm10.657-.3903h-.062c-.084.1874-.188.3747-.313.5621-.114.1769-.26.3382-.437.484-.177.1353-.39.2446-.64.3278-.25.0833-.541.1249-.874.1249-.833 0-1.494-.2654-1.983-.7962-.489-.5413-.734-1.3011-.734-2.2795v-5.1678h1.249v4.9492c0 1.4468.614 2.1702 1.842 2.1702.25 0 .49-.0312.719-.0937.239-.0624.447-.1561.624-.281.187-.1249.333-.281.437-.4684.115-.1977.172-.4319.172-.7026v-5.5737h1.249v8.0562h-1.249zm3.909 1.3115v-8.0562h1.249v1.4832h.078c.146-.3851.406-.7286.781-1.0304.374-.3019.889-.4528 1.545-.4528h.484v1.249h-.734c-.676 0-1.207.1301-1.592.3903-.375.2498-.562.5673-.562.9524v5.4645zm8.153.1873c-.75 0-1.38-.1405-1.89-.4215-.499-.2915-.931-.6766-1.295-1.1554l.89-.7182c.312.3956.66.7026 1.046.9212.385.2082.832.3123 1.342.3123.531 0 .942-.1145 1.234-.3435.302-.229.452-.5517.452-.968 0-.3123-.104-.5777-.312-.7963-.198-.2289-.562-.3851-1.093-.4683l-.64-.0937c-.375-.0521-.718-.1301-1.03-.2342-.313-.1145-.588-.2602-.828-.4372-.229-.1873-.411-.4163-.546-.6869-.125-.2706-.188-.5933-.188-.968 0-.3955.073-.739.219-1.0305.146-.3018.344-.5516.593-.7494.261-.1977.568-.3434.921-.4371.354-.1041.734-.1561 1.14-.1561.656 0 1.202.1144 1.64.3434.447.229.837.5465 1.17.9524l-.827.7494c-.177-.2498-.437-.4736-.781-.6713-.343-.2082-.775-.3123-1.295-.3123-.521 0-.916.1145-1.187.3435-.26.2186-.39.5204-.39.9055 0 .3956.13.6818.39.8587.271.177.656.3071 1.155.3904l.625.0936c.895.1353 1.53.3955 1.905.7807.374.3747.562.8691.562 1.4832 0 .7806-.266 1.3947-.797 1.8423-.53.4475-1.259.6713-2.185.6713z" fill="#ff8400"/><circle cx="49.6664" cy="57.2898" fill="#ff8400" r="25.1364" transform="matrix(.99997007 -.0077363 .0077363 .99997007 -.441725 .385949)"/><g clip-path="url(#a)"><path d="m0 0h25.1364v31.8395h-25.1364z" fill="#ff8400" transform="matrix(.99997007 -.0077363 .0077363 .99997007 37.807 40.624)"/><path d="m57.859 55.2432c1.7051-.8519 2.7647-2.3372 2.4955-4.796-.363-3.3601-3.3904-4.4644-7.2037-4.756l-.0368-4.6645-2.9526.0229.0343 4.5418c-.7769.006-1.5687.0268-2.3569.0481l-.036-4.571-2.95.0225.0356 4.6633c-.6393.0175-1.267.0343-1.8801.039l-.0001-.0138-4.0726.03.024 3.0319s2.1802-.0563 2.1445-.0178c1.1956-.0084 1.5911.6563 1.7078 1.2318l.042 5.3137.0578 7.4641c-.0499.3622-.2669.9418-1.1028.9494.0383.0318-2.1478.0162-2.1478.0162l-.5595 3.3949 3.8417-.0297c.7159-.0048 1.4193.0005 2.1094.0005l.0391 4.7172 2.9492-.022-.0369-4.6678c.8115.0096 1.5947.0105 2.3597.0036l.0351 4.6459 2.9526-.0228-.0348-4.7094c4.9609-.3126 8.4261-1.542 8.8234-6.0282.3203-3.6118-1.4583-5.2092-4.2811-5.8378zm-9.9238-6.2666c1.6652-.0129 6.8984-.5634 6.925 2.7823.0241 3.2077-5.2143 2.8735-6.8812 2.8864zm.113 14.7807-.047-6.2503c2.0007-.016 8.2718-.6177 8.3011 3.0597.0281 3.5266-6.252 3.1737-8.2541 3.1906z" fill="#fff"/></g><path d="m110.092 49.4609h-9.006v-2.052l4.237-3.781c.671-.608 1.184-1.1843 1.539-1.729.367-.5573.551-1.14.551-1.748v-.247c0-.646-.196-1.1526-.589-1.52-.38-.3673-.899-.551-1.558-.551-.367 0-.69.057-.969.171-.266.1014-.5.247-.703.437s-.374.4117-.513.665c-.127.2534-.228.5257-.304.817l-1.881-.722c.139-.418.329-.817.57-1.197.241-.3926.545-.741.912-1.045s.798-.5446 1.292-.722c.507-.1773 1.096-.266 1.767-.266s1.273.1014 1.805.304c.532.19.975.4624 1.33.817.367.342.646.7537.836 1.235.19.4814.285 1.007.285 1.577 0 .532-.082 1.026-.247 1.482s-.393.8867-.684 1.292c-.291.4054-.633.7917-1.026 1.159-.38.3674-.785.741-1.216 1.121l-3.116 2.679h6.688zm3.868.228c-.468 0-.817-.1203-1.045-.361-.228-.2533-.342-.5636-.342-.931v-.285c0-.3673.114-.6713.342-.912.228-.2533.577-.38 1.045-.38.469 0 .817.1267 1.045.38.228.2407.342.5447.342.912v.285c0 .3674-.114.6777-.342.931-.228.2407-.576.361-1.045.361zm8.456 0c-.823 0-1.539-.152-2.147-.456-.608-.3166-1.108-.7663-1.501-1.349-.392-.5826-.684-1.2983-.874-2.147-.19-.8486-.285-1.8176-.285-2.907 0-1.0766.095-2.0393.285-2.888.19-.8613.482-1.5833.874-2.166.393-.5826.893-1.026 1.501-1.33.608-.3166 1.324-.475 2.147-.475 1.647 0 2.857.6017 3.629 1.805.786 1.2034 1.178 2.888 1.178 5.054s-.392 3.8507-1.178 5.054c-.772 1.2034-1.982 1.805-3.629 1.805zm0-1.824c.456 0 .843-.0886 1.159-.266.33-.19.596-.456.798-.798.203-.342.349-.7473.437-1.216.089-.4813.133-1.0133.133-1.596v-2.318c0-.5826-.044-1.1083-.133-1.577-.088-.4813-.234-.893-.437-1.235-.202-.342-.468-.6016-.798-.779-.316-.19-.703-.285-1.159-.285s-.848.095-1.178.285c-.316.1774-.576.437-.779.779-.202.342-.348.7537-.437 1.235-.088.4687-.133.9944-.133 1.577v2.318c0 .5827.045 1.1147.133 1.596.089.4687.235.874.437 1.216.203.342.463.608.779.798.33.1774.722.266 1.178.266zm11.393 1.824c-.824 0-1.539-.152-2.147-.456-.608-.3166-1.109-.7663-1.501-1.349-.393-.5826-.684-1.2983-.874-2.147-.19-.8486-.285-1.8176-.285-2.907 0-1.0766.095-2.0393.285-2.888.19-.8613.481-1.5833.874-2.166.392-.5826.893-1.026 1.501-1.33.608-.3166 1.323-.475 2.147-.475 1.646 0 2.856.6017 3.629 1.805.785 1.2034 1.178 2.888 1.178 5.054s-.393 3.8507-1.178 5.054c-.773 1.2034-1.983 1.805-3.629 1.805zm0-1.824c.456 0 .842-.0886 1.159-.266.329-.19.595-.456.798-.798.202-.342.348-.7473.437-1.216.088-.4813.133-1.0133.133-1.596v-2.318c0-.5826-.045-1.1083-.133-1.577-.089-.4813-.235-.893-.437-1.235-.203-.342-.469-.6016-.798-.779-.317-.19-.703-.285-1.159-.285s-.849.095-1.178.285c-.317.1774-.577.437-.779.779-.203.342-.349.7537-.437 1.235-.089.4687-.133.9944-.133 1.577v2.318c0 .5827.044 1.1147.133 1.596.088.4687.234.874.437 1.216.202.342.462.608.779.798.329.1774.722.266 1.178.266zm11.392 1.824c-.823 0-1.539-.152-2.147-.456-.608-.3166-1.108-.7663-1.501-1.349-.392-.5826-.684-1.2983-.874-2.147-.19-.8486-.285-1.8176-.285-2.907 0-1.0766.095-2.0393.285-2.888.19-.8613.482-1.5833.874-2.166.393-.5826.893-1.026 1.501-1.33.608-.3166 1.324-.475 2.147-.475 1.647 0 2.857.6017 3.629 1.805.786 1.2034 1.178 2.888 1.178 5.054s-.392 3.8507-1.178 5.054c-.772 1.2034-1.982 1.805-3.629 1.805zm0-1.824c.456 0 .843-.0886 1.159-.266.33-.19.596-.456.798-.798.203-.342.349-.7473.437-1.216.089-.4813.133-1.0133.133-1.596v-2.318c0-.5826-.044-1.1083-.133-1.577-.088-.4813-.234-.893-.437-1.235-.202-.342-.468-.6016-.798-.779-.316-.19-.703-.285-1.159-.285s-.848.095-1.178.285c-.316.1774-.576.437-.779.779-.202.342-.348.7537-.437 1.235-.088.4687-.133.9944-.133 1.577v2.318c0 .5827.045 1.1147.133 1.596.089.4687.235.874.437 1.216.203.342.463.608.779.798.33.1774.722.266 1.178.266zm11.393 1.824c-.823 0-1.539-.152-2.147-.456-.608-.3166-1.108-.7663-1.501-1.349-.393-.5826-.684-1.2983-.874-2.147-.19-.8486-.285-1.8176-.285-2.907 0-1.0766.095-2.0393.285-2.888.19-.8613.481-1.5833.874-2.166.393-.5826.893-1.026 1.501-1.33.608-.3166 1.324-.475 2.147-.475 1.647 0 2.856.6017 3.629 1.805.785 1.2034 1.178 2.888 1.178 5.054s-.393 3.8507-1.178 5.054c-.773 1.2034-1.982 1.805-3.629 1.805zm0-1.824c.456 0 .842-.0886 1.159-.266.329-.19.595-.456.798-.798s.348-.7473.437-1.216c.089-.4813.133-1.0133.133-1.596v-2.318c0-.5826-.044-1.1083-.133-1.577-.089-.4813-.234-.893-.437-1.235s-.469-.6016-.798-.779c-.317-.19-.703-.285-1.159-.285s-.849.095-1.178.285c-.317.1774-.576.437-.779.779s-.348.7537-.437 1.235c-.089.4687-.133.9944-.133 1.577v2.318c0 .5827.044 1.1147.133 1.596.089.4687.234.874.437 1.216s.462.608.779.798c.329.1774.722.266 1.178.266zm11.393 1.824c-.824 0-1.539-.152-2.147-.456-.608-.3166-1.109-.7663-1.501-1.349-.393-.5826-.684-1.2983-.874-2.147-.19-.8486-.285-1.8176-.285-2.907 0-1.0766.095-2.0393.285-2.888.19-.8613.481-1.5833.874-2.166.392-.5826.893-1.026 1.501-1.33.608-.3166 1.323-.475 2.147-.475 1.646 0 2.856.6017 3.629 1.805.785 1.2034 1.178 2.888 1.178 5.054s-.393 3.8507-1.178 5.054c-.773 1.2034-1.983 1.805-3.629 1.805zm0-1.824c.456 0 .842-.0886 1.159-.266.329-.19.595-.456.798-.798.202-.342.348-.7473.437-1.216.088-.4813.133-1.0133.133-1.596v-2.318c0-.5826-.045-1.1083-.133-1.577-.089-.4813-.235-.893-.437-1.235-.203-.342-.469-.6016-.798-.779-.317-.19-.703-.285-1.159-.285s-.849.095-1.178.285c-.317.1774-.577.437-.779.779-.203.342-.349.7537-.437 1.235-.089.4687-.133.9944-.133 1.577v2.318c0 .5827.044 1.1147.133 1.596.088.4687.234.874.437 1.216.202.342.462.608.779.798.329.1774.722.266 1.178.266zm11.392 1.824c-.823 0-1.539-.152-2.147-.456-.608-.3166-1.108-.7663-1.501-1.349-.393-.5826-.684-1.2983-.874-2.147-.19-.8486-.285-1.8176-.285-2.907 0-1.0766.095-2.0393.285-2.888.19-.8613.481-1.5833.874-2.166.393-.5826.893-1.026 1.501-1.33.608-.3166 1.324-.475 2.147-.475 1.647 0 2.856.6017 3.629 1.805.785 1.2034 1.178 2.888 1.178 5.054s-.393 3.8507-1.178 5.054c-.773 1.2034-1.982 1.805-3.629 1.805zm0-1.824c.456 0 .842-.0886 1.159-.266.329-.19.595-.456.798-.798s.348-.7473.437-1.216c.089-.4813.133-1.0133.133-1.596v-2.318c0-.5826-.044-1.1083-.133-1.577-.089-.4813-.234-.893-.437-1.235s-.469-.6016-.798-.779c-.317-.19-.703-.285-1.159-.285s-.849.095-1.178.285c-.317.1774-.576.437-.779.779s-.348.7537-.437 1.235c-.089.4687-.133.9944-.133 1.577v2.318c0 .5827.044 1.1147.133 1.596.089.4687.234.874.437 1.216s.462.608.779.798c.329.1774.722.266 1.178.266zm11.393 1.824c-.824 0-1.539-.152-2.147-.456-.608-.3166-1.109-.7663-1.501-1.349-.393-.5826-.684-1.2983-.874-2.147-.19-.8486-.285-1.8176-.285-2.907 0-1.0766.095-2.0393.285-2.888.19-.8613.481-1.5833.874-2.166.392-.5826.893-1.026 1.501-1.33.608-.3166 1.323-.475 2.147-.475 1.646 0 2.856.6017 3.629 1.805.785 1.2034 1.178 2.888 1.178 5.054s-.393 3.8507-1.178 5.054c-.773 1.2034-1.983 1.805-3.629 1.805zm0-1.824c.456 0 .842-.0886 1.159-.266.329-.19.595-.456.798-.798.202-.342.348-.7473.437-1.216.088-.4813.133-1.0133.133-1.596v-2.318c0-.5826-.045-1.1083-.133-1.577-.089-.4813-.235-.893-.437-1.235-.203-.342-.469-.6016-.798-.779-.317-.19-.703-.285-1.159-.285s-.849.095-1.178.285c-.317.1774-.577.437-.779.779-.203.342-.349.7537-.437 1.235-.089.4687-.133.9944-.133 1.577v2.318c0 .5827.044 1.1147.133 1.596.088.4687.234.874.437 1.216.202.342.462.608.779.798.329.1774.722.266 1.178.266zm7.364 1.596v-1.786h3.724v-9.918h-.152l-3.078 3.287-1.311-1.178 3.382-3.667h3.268v11.476h3.23v1.786zm15.845-13.262h5.871c1.102 0 1.963.3104 2.584.931.633.6207.95 1.4504.95 2.489 0 .494-.07.9184-.209 1.273-.139.342-.317.627-.532.855-.215.2154-.462.38-.741.494-.279.1014-.551.1647-.817.19v.114c.266.0127.557.076.874.19.329.114.633.2977.912.551.279.2407.513.5574.703.95.19.38.285.8487.285 1.406 0 .532-.089 1.0324-.266 1.501-.165.4687-.399.874-.703 1.216s-.665.6144-1.083.817c-.418.19-.874.285-1.368.285h-6.46zm2.147 11.419h3.686c.557 0 .994-.1456 1.311-.437.317-.2913.475-.7093.475-1.254v-.646c0-.5446-.158-.9626-.475-1.254-.317-.2913-.754-.437-1.311-.437h-3.686zm0-5.814h3.325c.532 0 .944-.133 1.235-.399.291-.2786.437-.6713.437-1.178v-.608c0-.5066-.146-.893-.437-1.159-.291-.2786-.703-.418-1.235-.418h-3.325zm14.816-3.705v11.362h-2.147v-11.362h-3.952v-1.9h10.051v1.9zm10.596 11.59c-1.735 0-3.097-.5826-4.085-1.748-.988-1.178-1.482-2.8816-1.482-5.111 0-1.1146.127-2.0963.38-2.945.253-.8486.621-1.5643 1.102-2.147.481-.5826 1.064-1.0196 1.748-1.311.697-.304 1.476-.456 2.337-.456 1.153 0 2.115.2534 2.888.76.785.5067 1.4 1.254 1.843 2.242l-1.805.988c-.228-.6333-.583-1.1336-1.064-1.501-.469-.38-1.089-.57-1.862-.57-1.026 0-1.83.3484-2.413 1.045-.583.6967-.874 1.6594-.874 2.888v2.014c0 1.2287.291 2.1914.874 2.888.583.6967 1.387 1.045 2.413 1.045.798 0 1.444-.2026 1.938-.608.507-.418.88-.95 1.121-1.596l1.729 1.045c-.443.9627-1.064 1.7164-1.862 2.261-.798.5447-1.773.817-2.926.817z" fill="#ff8400"/><path d="m101.421 81.7009v-2.472h11.184v2.472zm0 5.352v-2.496h11.184v2.496zm24.598 5.376v-2.136c-1.216-.096-2.24-.376-3.072-.84-.832-.48-1.552-1.072-2.16-1.776l1.944-1.776c.464.544.984.992 1.56 1.344.576.336 1.224.552 1.944.648v-4.872c-1.76-.368-3.032-.928-3.816-1.68-.768-.768-1.152-1.744-1.152-2.928 0-1.28.416-2.304 1.248-3.072.832-.784 2-1.264 3.504-1.44v-2.16h2.376v2.16c1.008.112 1.872.36 2.592.744.736.384 1.376.912 1.92 1.584l-1.968 1.704c-.32-.384-.704-.72-1.152-1.008-.432-.288-.968-.496-1.608-.624v4.464c1.712.4 2.968.96 3.768 1.68.8.704 1.2 1.68 1.2 2.928 0 1.232-.4 2.296-1.2 3.192-.8.88-1.984 1.432-3.552 1.656v2.208zm-1.848-14.136c0 .56.16.992.48 1.296.336.304.864.552 1.584.744v-4.056c-1.376.24-2.064.912-2.064 2.016zm6.096 7.296c0-.48-.152-.896-.456-1.248-.288-.368-.832-.664-1.632-.888v4.416c.672-.144 1.184-.416 1.536-.816.368-.416.552-.904.552-1.464zm16.943 5.16c-.96 0-1.816-.152-2.568-.456-.752-.32-1.392-.76-1.92-1.32-.528-.576-.928-1.264-1.2-2.064-.272-.816-.408-1.728-.408-2.736 0-1.2.176-2.328.528-3.384.368-1.072.84-2.048 1.416-2.928.576-.896 1.216-1.688 1.92-2.376.72-.704 1.432-1.296 2.136-1.776h4.272c-.992.704-1.88 1.384-2.664 2.04-.768.656-1.448 1.32-2.04 1.992-.576.672-1.056 1.376-1.44 2.112-.368.72-.648 1.504-.84 2.352l.192.048c.16-.32.344-.624.552-.912.224-.304.488-.568.792-.792.304-.24.656-.424 1.056-.552.4-.144.864-.216 1.392-.216.688 0 1.328.12 1.92.36.608.24 1.128.592 1.56 1.056.448.448.792.992 1.032 1.632.256.64.384 1.352.384 2.136 0 .848-.144 1.624-.432 2.328s-.696 1.312-1.224 1.824-1.168.912-1.92 1.2c-.736.288-1.568.432-2.496.432zm0-2.496c.88 0 1.568-.24 2.064-.72.512-.496.768-1.2.768-2.112v-.36c0-.912-.256-1.608-.768-2.088-.496-.496-1.184-.744-2.064-.744-.896 0-1.592.248-2.088.744-.496.48-.744 1.176-.744 2.088v.36c0 .912.248 1.616.744 2.112.496.48 1.192.72 2.088.72zm20.223 2.208h-11.616v-2.928l5.256-4.608c.896-.784 1.552-1.488 1.968-2.112.416-.64.624-1.328.624-2.064v-.312c0-.736-.24-1.296-.72-1.68-.48-.4-1.064-.6-1.752-.6-.864 0-1.52.248-1.968.744-.448.48-.768 1.064-.96 1.752l-2.736-1.056c.176-.56.424-1.088.744-1.584.32-.512.72-.96 1.2-1.344.496-.384 1.072-.688 1.728-.912s1.408-.336 2.256-.336c.88 0 1.664.128 2.352.384.688.24 1.264.584 1.728 1.032.48.448.84.976 1.08 1.584.256.608.384 1.272.384 1.992 0 .704-.112 1.344-.336 1.92s-.528 1.128-.912 1.656c-.384.512-.832 1.008-1.344 1.488-.512.464-1.056.936-1.632 1.416l-3.528 2.904h8.184zm4.91-3.696c.656 0 1.136.168 1.44.504.32.336.48.76.48 1.272v.432c0 .432-.064.88-.192 1.344-.112.464-.28.912-.504 1.344-.208.432-.464.84-.768 1.224-.288.384-.616.72-.984 1.008h-2.184c.544-.528 1-1.048 1.368-1.56.368-.496.648-1.048.84-1.656-.496-.08-.856-.272-1.08-.576-.224-.32-.336-.696-.336-1.128v-.432c0-.512.152-.936.456-1.272s.792-.504 1.464-.504zm15.908-10.32h-7.536l-.384 5.616h.168c.176-.352.368-.68.576-.984s.448-.56.72-.768.584-.368.936-.48c.368-.128.808-.192 1.32-.192.72 0 1.392.12 2.016.36s1.16.592 1.608 1.056c.464.448.824 1 1.08 1.656.272.656.408 1.4.408 2.232 0 .848-.136 1.624-.408 2.328s-.672 1.32-1.2 1.848c-.528.512-1.176.912-1.944 1.2s-1.648.432-2.64.432c-.768 0-1.456-.088-2.064-.264-.608-.16-1.144-.384-1.608-.672s-.864-.616-1.2-.984c-.336-.384-.632-.784-.888-1.2l2.304-1.776c.192.32.392.624.6.912.208.272.448.512.72.72.288.208.6.376.936.504.352.112.76.168 1.224.168.944 0 1.656-.264 2.136-.792.496-.528.744-1.248.744-2.16v-.192c0-.864-.248-1.544-.744-2.04s-1.184-.744-2.064-.744c-.688 0-1.248.136-1.68.408-.432.256-.776.536-1.032.84l-2.592-.36.624-9.408h9.864zm15.255 3.552c0 1.2-.184 2.336-.552 3.408-.352 1.056-.816 2.032-1.392 2.928-.576.88-1.224 1.672-1.944 2.376-.704.688-1.408 1.272-2.112 1.752h-4.272c.976-.704 1.856-1.384 2.64-2.04s1.464-1.32 2.04-1.992c.592-.672 1.072-1.368 1.44-2.088.384-.736.672-1.528.864-2.376l-.192-.048c-.16.32-.352.632-.576.936-.208.304-.464.568-.768.792s-.656.408-1.056.552c-.4.128-.864.192-1.392.192-.704 0-1.352-.12-1.944-.36s-1.112-.584-1.56-1.032c-.432-.464-.776-1.008-1.032-1.632-.24-.64-.36-1.36-.36-2.16 0-.848.144-1.624.432-2.328s.696-1.312 1.224-1.824 1.16-.912 1.896-1.2c.752-.288 1.592-.432 2.52-.432.96 0 1.816.16 2.568.48.752.304 1.392.744 1.92 1.32.528.56.928 1.248 1.2 2.064.272.8.408 1.704.408 2.712zm-6.096 1.944c.896 0 1.592-.24 2.088-.72.496-.496.744-1.2.744-2.112v-.36c0-.912-.248-1.608-.744-2.088-.496-.496-1.192-.744-2.088-.744-.88 0-1.576.248-2.088.744-.496.48-.744 1.176-.744 2.088v.36c0 .912.248 1.616.744 2.112.512.48 1.208.72 2.088.72zm14.462 8.808c-1.072 0-2-.192-2.784-.576-.784-.4-1.432-.968-1.944-1.704s-.896-1.64-1.152-2.712c-.24-1.072-.36-2.296-.36-3.672 0-1.36.12-2.576.36-3.648.256-1.088.64-2 1.152-2.736s1.16-1.296 1.944-1.68c.784-.4 1.712-.6 2.784-.6 2.128 0 3.696.76 4.704 2.28 1.024 1.52 1.536 3.648 1.536 6.384s-.512 4.864-1.536 6.384c-1.008 1.52-2.576 2.28-4.704 2.28zm0-2.664c1.072 0 1.816-.4 2.232-1.2.432-.816.648-1.912.648-3.288v-3.024c0-1.376-.216-2.464-.648-3.264-.416-.816-1.16-1.224-2.232-1.224s-1.824.408-2.256 1.224c-.416.8-.624 1.888-.624 3.264v3.024c0 1.376.208 2.472.624 3.288.432.8 1.184 1.2 2.256 1.2zm10.767 2.64c-.656 0-1.144-.16-1.464-.48-.304-.336-.456-.76-.456-1.272v-.432c0-.512.152-.936.456-1.272.32-.336.808-.504 1.464-.504.672 0 1.16.168 1.464.504s.456.76.456 1.272v.432c0 .512-.152.936-.456 1.272-.304.32-.792.48-1.464.48zm16.7-.264h-11.616v-2.928l5.256-4.608c.896-.784 1.552-1.488 1.968-2.112.416-.64.624-1.328.624-2.064v-.312c0-.736-.24-1.296-.72-1.68-.48-.4-1.064-.6-1.752-.6-.864 0-1.52.248-1.968.744-.448.48-.768 1.064-.96 1.752l-2.736-1.056c.176-.56.424-1.088.744-1.584.32-.512.72-.96 1.2-1.344.496-.384 1.072-.688 1.728-.912s1.408-.336 2.256-.336c.88 0 1.664.128 2.352.384.688.24 1.264.584 1.728 1.032.48.448.84.976 1.08 1.584.256.608.384 1.272.384 1.992 0 .704-.112 1.344-.336 1.92s-.528 1.128-.912 1.656c-.384.512-.832 1.008-1.344 1.488-.512.464-1.056.936-1.632 1.416l-3.528 2.904h8.184zm5.342 0 5.832-14.184h-5.784v3.072h-2.688v-5.64h11.616v2.712l-5.664 14.04z" fill="#25253f"/></svg>