<svg fill="none" height="137" viewBox="0 0 584 137" width="584" xmlns="http://www.w3.org/2000/svg"><rect fill="#f4fbfa" height="136" rx="12" width="561" x="22.5103"/><path d="m83.1823 49v-1.786h3.724v-9.918h-.152l-3.078 3.287-1.311-1.178 3.382-3.667h3.268v11.476h3.23v1.786zm12.4755.228c-.4686 0-.817-.1203-1.045-.361-.228-.2533-.342-.5637-.342-.931v-.285c0-.3673.114-.6713.342-.912.228-.2533.5764-.38 1.045-.38.4687 0 .817.1267 1.045.38.228.2407.342.5447.342.912v.285c0 .3673-.114.6777-.342.931-.228.2407-.5763.361-1.045.361zm13.0352-.228h-9.0064v-2.052l4.2374-3.781c.671-.608 1.184-1.1843 1.539-1.729.367-.5573.551-1.14.551-1.748v-.247c0-.646-.197-1.1527-.589-1.52-.38-.3673-.9-.551-1.558-.551-.368 0-.691.057-.969.171-.266.1013-.501.247-.703.437-.203.19-.374.4117-.513.665-.127.2533-.228.5257-.304.817l-1.8814-.722c.1393-.418.3293-.817.5704-1.197.24-.3927.544-.741.912-1.045.367-.304.798-.5447 1.292-.722.506-.1773 1.095-.266 1.767-.266.671 0 1.273.1013 1.805.304.532.19.975.4623 1.33.817.367.342.646.7537.836 1.235s.285 1.007.285 1.577c0 .532-.083 1.026-.247 1.482-.165.456-.393.8867-.684 1.292-.292.4053-.634.7917-1.026 1.159-.38.3673-.786.741-1.216 1.121l-3.116 2.679h6.688zm6.091-7.809c.824 0 1.432-.171 1.824-.513.393-.3547.589-.8043.589-1.349v-.133c0-.608-.19-1.0703-.57-1.387-.38-.3293-.893-.494-1.539-.494-.633 0-1.171.1457-1.615.437-.443.2787-.817.6713-1.121 1.178l-1.425-1.235c.203-.2913.431-.57.684-.836.254-.266.551-.494.893-.684.342-.2027.729-.361 1.159-.475.431-.1267.925-.19 1.482-.19.621 0 1.197.076 1.729.228s.988.38 1.368.684c.38.2913.678.6523.893 1.083.216.418.323.893.323 1.425 0 .418-.069.798-.209 1.14-.126.342-.31.646-.551.912-.228.2533-.5.4623-.817.627-.304.1647-.627.285-.969.361v.095c.38.076.735.2027 1.064.38.342.1647.64.3863.893.665.254.266.45.589.589.969.152.3673.228.7917.228 1.273 0 .5827-.114 1.1147-.342 1.596-.228.4687-.551.874-.969 1.216-.405.342-.899.608-1.482.798-.582.1773-1.228.266-1.938.266-.62 0-1.165-.0697-1.634-.209-.468-.1267-.886-.2977-1.254-.513-.354-.228-.671-.4813-.95-.76-.266-.2913-.5-.589-.703-.893l1.577-1.235c.165.266.336.513.513.741.19.2153.399.4053.627.57.241.152.507.2723.798.361.304.0887.646.133 1.026.133.811 0 1.432-.19 1.862-.57.431-.3927.646-.931.646-1.615v-.133c0-.684-.228-1.2033-.684-1.558s-1.102-.532-1.938-.532h-1.406v-1.824zm13.236 7.809v-2.584h-6.156v-1.843l5.377-8.835h2.812v8.987h1.805v1.691h-1.805v2.584zm-4.332-4.275h4.332v-7.03h-.133zm19.182 4.275h-9.006v-2.052l4.237-3.781c.672-.608 1.185-1.1843 1.539-1.729.368-.5573.551-1.14.551-1.748v-.247c0-.646-.196-1.1527-.589-1.52-.38-.3673-.899-.551-1.558-.551-.367 0-.69.057-.969.171-.266.1013-.5.247-.703.437-.202.19-.373.4117-.513.665-.126.2533-.228.5257-.304.817l-1.881-.722c.14-.418.33-.817.57-1.197.241-.3927.545-.741.912-1.045.368-.304.798-.5447 1.292-.722.507-.1773 1.096-.266 1.767-.266.672 0 1.273.1013 1.805.304.532.19.976.4623 1.33.817.368.342.646.7537.836 1.235s.285 1.007.285 1.577c0 .532-.082 1.026-.247 1.482-.164.456-.392.8867-.684 1.292-.291.4053-.633.7917-1.026 1.159-.38.3673-.785.741-1.216 1.121l-3.116 2.679h6.688zm6.092-7.809c.823 0 1.431-.171 1.824-.513.393-.3547.589-.8043.589-1.349v-.133c0-.608-.19-1.0703-.57-1.387-.38-.3293-.893-.494-1.539-.494-.633 0-1.172.1457-1.615.437-.443.2787-.817.6713-1.121 1.178l-1.425-1.235c.203-.2913.431-.57.684-.836s.551-.494.893-.684c.342-.2027.728-.361 1.159-.475.431-.1267.925-.19 1.482-.19.621 0 1.197.076 1.729.228s.988.38 1.368.684c.38.2913.678.6523.893 1.083.215.418.323.893.323 1.425 0 .418-.07.798-.209 1.14-.127.342-.31.646-.551.912-.228.2533-.5.4623-.817.627-.304.1647-.627.285-.969.361v.095c.38.076.735.2027 1.064.38.342.1647.64.3863.893.665.253.266.45.589.589.969.152.3673.228.7917.228 1.273 0 .5827-.114 1.1147-.342 1.596-.228.4687-.551.874-.969 1.216-.405.342-.899.608-1.482.798-.583.1773-1.229.266-1.938.266-.621 0-1.165-.0697-1.634-.209-.469-.1267-.887-.2977-1.254-.513-.355-.228-.671-.4813-.95-.76-.266-.2913-.5-.589-.703-.893l1.577-1.235c.165.266.336.513.513.741.19.2153.399.4053.627.57.241.152.507.2723.798.361.304.0887.646.133 1.026.133.811 0 1.431-.19 1.862-.57.431-.3927.646-.931.646-1.615v-.133c0-.684-.228-1.2033-.684-1.558s-1.102-.532-1.938-.532h-1.406v-1.824zm16.066-3.591h-5.89l-.342 4.693h.133c.152-.266.311-.5003.475-.703.165-.2153.355-.399.57-.551.216-.152.463-.266.741-.342.279-.0887.608-.133.988-.133.57 0 1.096.095 1.577.285.494.19.919.4623 1.273.817.368.3547.653.7917.855 1.311.203.5067.304 1.083.304 1.729 0 .6587-.107 1.2667-.323 1.824-.202.5573-.506 1.0387-.912 1.444-.405.3927-.905.703-1.501.931-.582.2153-1.247.323-1.995.323-.595 0-1.121-.0697-1.577-.209-.456-.1267-.861-.2977-1.216-.513-.342-.228-.646-.4813-.912-.76-.253-.2913-.481-.589-.684-.893l1.558-1.235c.165.266.336.5067.513.722.178.2153.38.4053.608.57s.482.2913.76.38c.292.0887.621.133.988.133.786 0 1.387-.2153 1.805-.646.431-.4307.646-1.026.646-1.786v-.228c0-.76-.215-1.3553-.646-1.786-.418-.4307-1.019-.646-1.805-.646-.57 0-1.026.1077-1.368.323s-.633.456-.874.722l-1.767-.247.494-7.391h7.524zm4.99 11.4 4.807-11.495h-5.016v2.451h-1.843v-4.218h8.987v1.862l-4.674 11.4zm9.816 0v-1.786h3.724v-9.918h-.152l-3.078 3.287-1.311-1.178 3.382-3.667h3.268v11.476h3.23v1.786zm17.877-13.262v8.17c0 1.1273.216 1.976.646 2.546.431.57 1.166.855 2.204.855 1.039 0 1.774-.285 2.204-.855.431-.57.646-1.4187.646-2.546v-8.17h2.109v7.828c0 .9753-.088 1.8177-.266 2.527-.177.7093-.462 1.2983-.855 1.767-.392.456-.905.798-1.539 1.026-.62.228-1.387.342-2.299.342s-1.684-.114-2.318-.342c-.62-.228-1.127-.57-1.52-1.026-.392-.4687-.677-1.0577-.855-1.767-.177-.7093-.266-1.5517-.266-2.527v-7.828zm14.964 13.49c-1.115 0-2.065-.2027-2.85-.608-.773-.4053-1.438-.95-1.995-1.634l1.482-1.387c.469.57.982 1.0007 1.539 1.292.57.2913 1.216.437 1.938.437.849 0 1.488-.19 1.919-.57s.646-.893.646-1.539c0-.5193-.152-.931-.456-1.235s-.842-.532-1.615-.684l-1.178-.209c-1.292-.2407-2.261-.665-2.907-1.273s-.969-1.444-.969-2.508c0-.5827.108-1.1083.323-1.577.228-.4813.538-.8803.931-1.197.405-.3293.893-.5827 1.463-.76s1.21-.266 1.919-.266c1.001 0 1.868.1773 2.603.532.735.342 1.362.8423 1.881 1.501l-1.501 1.33c-.342-.4433-.76-.798-1.254-1.064s-1.108-.399-1.843-.399c-.76 0-1.349.152-1.767.456s-.627.7473-.627 1.33c0 .5573.171.9753.513 1.254.342.266.874.4687 1.596.608l1.178.247c1.33.2533 2.299.684 2.907 1.292.621.608.931 1.444.931 2.508 0 .6207-.108 1.1843-.323 1.691s-.532.9437-.95 1.311c-.405.3547-.906.6333-1.501.836-.595.19-1.273.285-2.033.285zm7.384-13.49h4.693c.849 0 1.615.1393 2.299.418.697.2787 1.286.6967 1.767 1.254.494.5447.874 1.235 1.14 2.071.266.8233.399 1.786.399 2.888s-.133 2.071-.399 2.907c-.266.8233-.646 1.5137-1.14 2.071-.481.5447-1.07.9563-1.767 1.235-.684.2787-1.45.418-2.299.418h-4.693zm4.693 11.362c.988 0 1.786-.3103 2.394-.931s.912-1.5327.912-2.736v-2.128c0-1.2033-.304-2.1153-.912-2.736s-1.406-.931-2.394-.931h-2.546v9.462zm12.697-9.462v11.362h-2.147v-11.362h-3.952v-1.9h10.051v1.9z" fill="#4bd1b3"/><path d="m84.0245 81.24v-2.472h11.184v2.472zm0 5.352v-2.496h11.184v2.496zm24.5985 5.376v-2.136c-1.216-.096-2.24-.376-3.072-.84-.832-.48-1.552-1.072-2.16-1.776l1.944-1.776c.464.544.984.992 1.56 1.344.576.336 1.224.552 1.944.648v-4.872c-1.76-.368-3.032-.928-3.816-1.68-.768-.768-1.152-1.744-1.152-2.928 0-1.28.416-2.304 1.248-3.072.832-.784 2-1.264 3.504-1.44v-2.16h2.376v2.16c1.008.112 1.872.36 2.592.744.736.384 1.376.912 1.92 1.584l-1.968 1.704c-.32-.384-.704-.72-1.152-1.008-.432-.288-.968-.496-1.608-.624v4.464c1.712.4 2.968.96 3.768 1.68.8.704 1.2 1.68 1.2 2.928 0 1.232-.4 2.296-1.2 3.192-.8.88-1.984 1.432-3.552 1.656v2.208zm-1.848-14.136c0 .56.16.992.48 1.296.336.304.864.552 1.584.744v-4.056c-1.376.24-2.064.912-2.064 2.016zm6.096 7.296c0-.48-.152-.896-.456-1.248-.288-.368-.832-.664-1.632-.888v4.416c.672-.144 1.184-.416 1.536-.816.368-.416.552-.904.552-1.464zm15.959-5.112c.96 0 1.664-.192 2.112-.576.464-.4.696-.904.696-1.512v-.168c0-.688-.224-1.224-.672-1.608-.432-.4-1.032-.6-1.8-.6-.736 0-1.392.176-1.968.528-.56.352-1.048.848-1.464 1.488l-2.016-1.824c.288-.384.6-.744.936-1.08.352-.352.752-.648 1.2-.888.448-.256.952-.456 1.512-.6s1.192-.216 1.896-.216c.848 0 1.616.104 2.304.312.704.192 1.304.48 1.8.864.512.384.904.848 1.176 1.392.272.528.408 1.128.408 1.8 0 .544-.088 1.032-.264 1.464-.16.432-.392.808-.696 1.128-.288.32-.632.584-1.032.792-.384.192-.792.336-1.224.432v.144c.48.096.936.248 1.368.456s.8.488 1.104.84c.32.336.568.736.744 1.2.192.464.288.992.288 1.584 0 .736-.152 1.408-.456 2.016-.288.608-.704 1.128-1.248 1.56s-1.192.768-1.944 1.008c-.752.224-1.592.336-2.52.336-.816 0-1.536-.088-2.16-.264-.624-.16-1.176-.384-1.656-.672-.464-.288-.872-.616-1.224-.984-.352-.384-.656-.784-.912-1.2l2.328-1.776c.192.336.4.648.624.936.224.272.48.512.768.72s.616.368.984.48.784.168 1.248.168c.928 0 1.64-.224 2.136-.672s.744-1.064.744-1.848v-.168c0-.768-.272-1.352-.816-1.752-.528-.4-1.296-.6-2.304-.6h-1.656v-2.64zm16.454 9.984v-3.24h-7.584v-2.688l6.672-10.824h3.912v11.064h2.184v2.448h-2.184v3.24zm-4.992-5.688h4.992v-7.992h-.192zm23.391-8.328h-7.536l-.384 5.616h.168c.176-.352.368-.68.576-.984s.448-.56.72-.768.584-.368.936-.48c.368-.128.808-.192 1.32-.192.72 0 1.392.12 2.016.36s1.16.592 1.608 1.056c.464.448.824 1 1.08 1.656.272.656.408 1.4.408 2.232 0 .848-.136 1.624-.408 2.328s-.672 1.32-1.2 1.848c-.528.512-1.176.912-1.944 1.2s-1.648.432-2.64.432c-.768 0-1.456-.088-2.064-.264-.608-.16-1.144-.384-1.608-.672s-.864-.616-1.2-.984c-.336-.384-.632-.784-.888-1.2l2.304-1.776c.192.32.392.624.6.912.208.272.448.512.72.72.288.208.6.376.936.504.352.112.76.168 1.224.168.944 0 1.656-.264 2.136-.792.496-.528.744-1.248.744-2.16v-.192c0-.864-.248-1.544-.744-2.04s-1.184-.744-2.064-.744c-.688 0-1.248.136-1.68.408-.432.256-.776.536-1.032.84l-2.592-.36.624-9.408h9.864zm11.758 14.016 5.832-14.184h-5.784v3.072h-2.688v-5.64h11.616v2.712l-5.664 14.04zm17.535.288c-.976 0-1.848-.12-2.616-.36-.752-.256-1.392-.6-1.92-1.032-.512-.432-.904-.944-1.176-1.536s-.408-1.24-.408-1.944c0-1.088.296-1.968.888-2.64.608-.688 1.416-1.168 2.424-1.44v-.192c-.832-.304-1.512-.776-2.04-1.416-.512-.64-.768-1.448-.768-2.424 0-.64.12-1.224.36-1.752.256-.528.624-.984 1.104-1.368s1.064-.68 1.752-.888c.704-.224 1.504-.336 2.4-.336s1.688.112 2.376.336c.704.208 1.296.504 1.776.888s.84.84 1.08 1.368c.256.528.384 1.112.384 1.752 0 .976-.264 1.784-.792 2.424-.512.64-1.184 1.112-2.016 1.416v.192c1.008.272 1.808.752 2.4 1.44.608.672.912 1.552.912 2.64 0 .704-.136 1.352-.408 1.944s-.672 1.104-1.2 1.536c-.512.432-1.152.776-1.92 1.032-.752.24-1.616.36-2.592.36zm0-2.472c.912 0 1.608-.208 2.088-.624.496-.416.744-1 .744-1.752v-.504c0-.752-.248-1.336-.744-1.752-.48-.416-1.176-.624-2.088-.624s-1.616.208-2.112.624c-.48.416-.72 1-.72 1.752v.504c0 .752.24 1.336.72 1.752.496.416 1.2.624 2.112.624zm0-7.608c.848 0 1.496-.192 1.944-.576s.672-.928.672-1.632v-.384c0-.688-.224-1.224-.672-1.608s-1.096-.576-1.944-.576-1.496.192-1.944.576-.672.92-.672 1.608v.384c0 .704.224 1.248.672 1.632s1.096.576 1.944.576zm14.463 10.08c-.96 0-1.816-.152-2.568-.456-.752-.32-1.392-.76-1.92-1.32-.528-.576-.928-1.264-1.2-2.064-.272-.816-.408-1.728-.408-2.736 0-1.2.176-2.328.528-3.384.368-1.072.84-2.048 1.416-2.928.576-.896 1.216-1.688 1.92-2.376.72-.704 1.432-1.296 2.136-1.776h4.272c-.992.704-1.88 1.384-2.664 2.04-.768.656-1.448 1.32-2.04 1.992-.576.672-1.056 1.376-1.44 2.112-.368.72-.648 1.504-.84 2.352l.192.048c.16-.32.344-.624.552-.912.224-.304.488-.568.792-.792.304-.24.656-.424 1.056-.552.4-.144.864-.216 1.392-.216.688 0 1.328.12 1.92.36.608.24 1.128.592 1.56 1.056.448.448.792.992 1.032 1.632.256.64.384 1.352.384 2.136 0 .848-.144 1.624-.432 2.328s-.696 1.312-1.224 1.824-1.168.912-1.92 1.2c-.736.288-1.568.432-2.496.432zm0-2.496c.88 0 1.568-.24 2.064-.72.512-.496.768-1.2.768-2.112v-.36c0-.912-.256-1.608-.768-2.088-.496-.496-1.184-.744-2.064-.744-.896 0-1.592.248-2.088.744-.496.48-.744 1.176-.744 2.088v.36c0 .912.248 1.616.744 2.112.496.48 1.192.72 2.088.72zm10.694 2.472c-.656 0-1.144-.16-1.464-.48-.304-.336-.456-.76-.456-1.272v-.432c0-.512.152-.936.456-1.272.32-.336.808-.504 1.464-.504.672 0 1.16.168 1.464.504s.456.76.456 1.272v.432c0 .512-.152.936-.456 1.272-.304.32-.792.48-1.464.48zm11.948-.264v-3.24h-7.584v-2.688l6.672-10.824h3.912v11.064h2.184v2.448h-2.184v3.24zm-4.992-5.688h4.992v-7.992h-.192zm23.391-8.328h-7.536l-.384 5.616h.168c.176-.352.368-.68.576-.984s.448-.56.72-.768.584-.368.936-.48c.368-.128.808-.192 1.32-.192.72 0 1.392.12 2.016.36s1.16.592 1.608 1.056c.464.448.824 1 1.08 1.656.272.656.408 1.4.408 2.232 0 .848-.136 1.624-.408 2.328s-.672 1.32-1.2 1.848c-.528.512-1.176.912-1.944 1.2s-1.648.432-2.64.432c-.768 0-1.456-.088-2.064-.264-.608-.16-1.144-.384-1.608-.672s-.864-.616-1.2-.984c-.336-.384-.632-.784-.888-1.2l2.304-1.776c.192.32.392.624.6.912.208.272.448.512.72.72.288.208.6.376.936.504.352.112.76.168 1.224.168.944 0 1.656-.264 2.136-.792.496-.528.744-1.248.744-2.16v-.192c0-.864-.248-1.544-.744-2.04s-1.184-.744-2.064-.744c-.688 0-1.248.136-1.68.408-.432.256-.776.536-1.032.84l-2.592-.36.624-9.408h9.864z" fill="#25253f"/><path d="m268.01 135.134 9.942-26.159c.694-1.827 3.279-1.827 3.973 0l2.286 6.021c.547 1.439 2.396 1.837 3.487.751l4.555-4.537c.18-.179.326-.389.432-.62l6.313-13.7717c.839-1.831 3.518-1.5757 3.996.3808l3.879 15.8669c.34 1.388 1.924 2.052 3.152 1.321l5.586-3.327c.96-.572 2.199-.302 2.835.617l6.105 8.823c.599.866 1.741 1.162 2.685.699l5.511-2.707c.558-.274 1.209-.29 1.78-.044l8.882 3.837c.848.367 1.836.143 2.443-.553l8.604-9.858c.846-.968 2.351-.97 3.199-.003l5.427 6.189 5.412 4.719c.724.632 1.782.699 2.58.163l6.363-4.268c.574-.385 1.3-.467 1.945-.22l7.378 2.829c1.056.405 2.244-.088 2.703-1.122l3.503-7.89c.523-1.177 1.965-1.622 3.061-.944l8.634 5.345c1.152.713 2.669.18 3.121-1.097l6.851-19.3441c.692-1.9525 3.483-1.8628 4.048.1301l4.31 15.215c.567 1.998 3.369 2.081 4.052.119l1.58-4.542c.532-1.529 2.51-1.926 3.59-.719l5.894 6.585 3.782 5.56c1.009 1.483 3.288 1.127 3.796-.594l3.861-13.101c.582-1.971 3.344-2.051 4.039-.117l4.518 12.583c.165.459.482.847.899 1.1l10.502 6.355c.856.519 1.959.369 2.646-.36l10.639-11.284c.089-.095.17-.197.24-.307l4.151-6.441c.819-1.271 2.667-1.304 3.531-.062l6.413 9.217c.842 1.211 2.632 1.216 3.482.009l2.253-3.199c.819-1.164 2.527-1.209 3.407-.091l1.858 2.361c1.093 1.389 3.306.913 3.732-.802l.848-3.412c.064-.257.175-.501.329-.717l6.119-8.624c1.106-1.5594 3.548-.979 3.834.912l1.863 12.31c.248 1.64 2.197 2.376 3.467 1.309l5.583-4.687c.511-.429 1.194-.593 1.845-.443l8.83 2.042c1.15.266 2.297-.457 2.553-1.609l7.818-35.1394c.439-1.9744 3.128-2.2765 3.994-.4488l7.631 16.0935c.72 1.5202 2.838 1.6397 3.725.2102l12.215-19.6811" stroke="#5dd9bd" stroke-linecap="round" stroke-linejoin="round" stroke-width="2.125"/><path d="m277.971 109.06-9.961 26.901h303.5c6.628 0 12-5.372 12-12v-51.4996l-13.184 19.4196c-.923 1.3597-2.974 1.2018-3.678-.2832l-7.709-16.259c-.866-1.8277-3.555-1.5256-3.994.4488l-7.818 35.1394c-.256 1.152-1.403 1.875-2.553 1.609l-8.83-2.042c-.651-.15-1.334.014-1.845.443l-5.583 4.687c-1.27 1.067-3.219.331-3.467-1.309l-1.863-12.31c-.286-1.891-2.728-2.4714-3.834-.912l-6.119 8.624c-.154.216-.265.46-.329.717l-.848 3.412c-.426 1.715-2.639 2.191-3.732.802l-1.858-2.361c-.88-1.118-2.588-1.073-3.407.091l-2.253 3.199c-.85 1.207-2.64 1.202-3.482-.009l-6.413-9.217c-.864-1.242-2.712-1.209-3.531.062l-4.151 6.441c-.07.11-.151.212-.24.307l-10.639 11.284c-.687.729-1.79.879-2.646.36l-10.502-6.355c-.417-.253-.734-.641-.899-1.1l-4.518-12.583c-.695-1.934-3.457-1.854-4.039.117l-3.861 13.101c-.508 1.721-2.787 2.077-3.796.594l-3.782-5.56-5.894-6.585c-1.08-1.207-3.058-.81-3.59.719l-1.58 4.542c-.683 1.962-3.485 1.879-4.052-.119l-4.31-15.215c-.565-1.9929-3.356-2.0826-4.048-.1301l-6.851 19.3441c-.452 1.277-1.969 1.81-3.121 1.097l-8.634-5.345c-1.096-.678-2.538-.233-3.061.944l-3.503 7.89c-.459 1.034-1.647 1.527-2.703 1.122l-7.378-2.829c-.645-.247-1.371-.165-1.945.22l-6.363 4.268c-.798.536-1.856.469-2.58-.163l-5.412-4.719-5.427-6.189c-.848-.967-2.353-.965-3.199.003l-8.604 9.858c-.607.696-1.595.92-2.443.553l-8.882-3.837c-.571-.246-1.222-.23-1.78.044l-5.511 2.707c-.944.463-2.086.167-2.685-.699l-6.105-8.823c-.636-.919-1.875-1.189-2.835-.617l-5.586 3.327c-1.228.731-2.812.067-3.152-1.321l-3.879-15.8669c-.478-1.9565-3.157-2.2118-3.996-.3808l-6.313 13.7717c-.106.231-.252.441-.432.62l-4.555 4.537c-1.091 1.086-2.94.688-3.487-.751l-2.261-5.953c-.697-1.835-3.297-1.824-3.979.017z" fill="#5dd9bd" fill-opacity=".3"/><ellipse fill="#5dd9bd" rx="27.0804" ry="27.6406" transform="matrix(.999996 .00230152 -.0222674 .999744 28.696 52.187)"/><path d="m32.1093 47.3534.0873-3.9218 9.1074.021.1331-5.9755-24.7996-.0571-.1331 5.9755 9.1085.021-.0873 3.9186c-7.41.3178-13.0081 1.7486-13.0466 3.478-.0385 1.7295 5.4979 3.1859 12.8903 3.5399l-.2798 12.562 6.5859.0152.2798-12.5631c7.3966-.3189 12.9834-1.7487 13.0219-3.4765.0385-1.7279-5.4841-3.1833-12.8657-3.5361zm-.1304 5.9497.0001-.0032c-.1861.0112-1.142.0654-3.2677.0605-1.6995-.0039-2.8941-.0541-3.315-.0767l-.0001.0053c-6.5336-.3003-11.3902-1.4331-11.3603-2.775.0299-1.3418 4.937-2.4505 11.4827-2.7212l-.0975 4.3789c.4277.03 1.6512.104 3.3421.1079 2.0309.0046 3.0539-.0763 3.2417-.0928l.0975-4.3789c6.5207.3013 11.366 1.4351 11.3363 2.7722-.0298 1.3372-4.9284 2.4485-11.4597 2.7198" fill="#fff"/><path d="m316.057 47.4414v-1.819h3.264v-8.432h-.153l-2.584 3.06-1.394-1.173 2.941-3.502h3.383v10.047h2.72v1.819zm11.18.187c-.465 0-.811-.1133-1.037-.34-.216-.238-.323-.5383-.323-.901v-.306c0-.3627.107-.663.323-.901.226-.238.572-.357 1.037-.357.476 0 .821.119 1.037.357.215.238.323.5383.323.901v.306c0 .3627-.108.663-.323.901-.216.2267-.561.34-1.037.34zm7.647.017c-.76 0-1.417-.136-1.972-.408-.556-.2833-1.015-.6857-1.377-1.207-.363-.5213-.635-1.1617-.816-1.921-.17-.7593-.255-1.6263-.255-2.601 0-.9633.085-1.8247.255-2.584.181-.7707.453-1.4167.816-1.938.362-.5213.821-.918 1.377-1.19.555-.2833 1.212-.425 1.972-.425 1.507 0 2.618.5383 3.332 1.615.725 1.0767 1.088 2.584 1.088 4.522s-.363 3.4453-1.088 4.522c-.714 1.0767-1.825 1.615-3.332 1.615zm0-1.887c.759 0 1.286-.2833 1.581-.85.306-.578.459-1.3543.459-2.329v-2.142c0-.9747-.153-1.7453-.459-2.312-.295-.578-.822-.867-1.581-.867-.76 0-1.292.289-1.598.867-.295.5667-.442 1.3373-.442 2.312v2.142c0 .9747.147 1.751.442 2.329.306.5667.838.85 1.598.85zm10.193 1.887c-.759 0-1.417-.136-1.972-.408-.555-.2833-1.014-.6857-1.377-1.207s-.635-1.1617-.816-1.921c-.17-.7593-.255-1.6263-.255-2.601 0-.9633.085-1.8247.255-2.584.181-.7707.453-1.4167.816-1.938s.822-.918 1.377-1.19c.555-.2833 1.213-.425 1.972-.425 1.507 0 2.618.5383 3.332 1.615.725 1.0767 1.088 2.584 1.088 4.522s-.363 3.4453-1.088 4.522c-.714 1.0767-1.825 1.615-3.332 1.615zm0-1.887c.759 0 1.286-.2833 1.581-.85.306-.578.459-1.3543.459-2.329v-2.142c0-.9747-.153-1.7453-.459-2.312-.295-.578-.822-.867-1.581-.867s-1.292.289-1.598.867c-.295.5667-.442 1.3373-.442 2.312v2.142c0 .9747.147 1.751.442 2.329.306.5667.839.85 1.598.85zm12.63-10.183v7.293c0 .9293.176 1.6263.527 2.091.363.4647.969.697 1.819.697s1.451-.2323 1.802-.697c.363-.4647.544-1.1617.544-2.091v-7.293h2.21v7.004c0 .8727-.085 1.6263-.255 2.261-.159.6347-.419 1.1617-.782 1.581s-.839.731-1.428.935c-.578.1927-1.281.289-2.108.289-.839 0-1.547-.0963-2.125-.289-.567-.204-1.031-.5157-1.394-.935s-.623-.9463-.782-1.581-.238-1.3883-.238-2.261v-7.004zm13.301 12.07c-1.02 0-1.887-.1813-2.601-.544-.702-.3627-1.309-.8387-1.819-1.428l1.513-1.462c.408.476.862.8387 1.36 1.088.51.2493 1.071.374 1.683.374.692 0 1.213-.1473 1.564-.442.352-.306.527-.714.527-1.224 0-.3967-.113-.7197-.34-.969-.226-.2493-.651-.4307-1.275-.544l-1.122-.17c-2.368-.374-3.553-1.5243-3.553-3.451 0-.5327.097-1.0143.289-1.445.204-.4307.493-.799.867-1.105s.822-.5383 1.343-.697c.533-.17 1.134-.255 1.802-.255.896 0 1.678.1473 2.346.442.669.2947 1.241.731 1.717 1.309l-1.53 1.445c-.294-.3627-.651-.6573-1.071-.884-.419-.2267-.946-.34-1.581-.34-.646 0-1.133.1247-1.462.374-.317.238-.476.578-.476 1.02 0 .4533.131.7877.391 1.003.261.2153.68.374 1.258.476l1.105.204c1.202.2153 2.086.6007 2.652 1.156.578.544.867 1.309.867 2.295 0 .5667-.102 1.0823-.306 1.547-.192.4533-.481.85-.867 1.19-.374.3287-.838.5837-1.394.765-.544.1813-1.173.272-1.887.272zm6.704-12.07h4.318c.771 0 1.468.1247 2.091.374.635.2493 1.173.6233 1.615 1.122.453.4873.799 1.105 1.037 1.853.249.7367.374 1.598.374 2.584s-.125 1.853-.374 2.601c-.238.7367-.584 1.3543-1.037 1.853-.442.4873-.98.8557-1.615 1.105-.623.2493-1.32.374-2.091.374h-4.318zm4.318 9.877c.839 0 1.502-.2437 1.989-.731.499-.4987.748-1.258.748-2.278v-1.87c0-1.02-.249-1.7737-.748-2.261-.487-.4987-1.15-.748-1.989-.748h-2.074v7.888zm11.612-7.888v9.877h-2.244v-9.877h-3.366v-1.989h8.976v1.989z" fill="#5dd9bd"/><path d="m402.608 41.2364v-1.751h7.922v1.751zm0 3.791v-1.768h7.922v1.768zm17.424 3.808v-1.513c-.861-.068-1.586-.2663-2.176-.595-.589-.34-1.099-.7593-1.53-1.258l1.377-1.258c.329.3853.697.7027 1.105.952.408.238.867.391 1.377.459v-3.451c-1.246-.2607-2.147-.6573-2.703-1.19-.544-.544-.816-1.2353-.816-2.074 0-.9067.295-1.632.884-2.176.59-.5553 1.417-.8953 2.482-1.02v-1.53h1.683v1.53c.714.0793 1.326.255 1.836.527.522.272.975.646 1.36 1.122l-1.394 1.207c-.226-.272-.498-.51-.816-.714-.306-.204-.685-.3513-1.139-.442v3.162c1.213.2833 2.103.68 2.669 1.19.567.4987.85 1.19.85 2.074 0 .8727-.283 1.6263-.85 2.261-.566.6233-1.405 1.0143-2.516 1.173v1.564zm-1.309-10.013c0 .3967.114.7027.34.918.238.2153.612.391 1.122.527v-2.873c-.974.17-1.462.646-1.462 1.428zm4.318 5.168c0-.34-.107-.6347-.323-.884-.204-.2607-.589-.4703-1.156-.629v3.128c.476-.102.839-.2947 1.088-.578.261-.2947.391-.6403.391-1.037zm11.95 3.655c-.759 0-1.417-.136-1.972-.408-.555-.2833-1.014-.6857-1.377-1.207s-.635-1.1617-.816-1.921c-.17-.7593-.255-1.6263-.255-2.601 0-.9633.085-1.8247.255-2.584.181-.7707.453-1.4167.816-1.938s.822-.918 1.377-1.19c.555-.2833 1.213-.425 1.972-.425 1.507 0 2.618.5383 3.332 1.615.725 1.0767 1.088 2.584 1.088 4.522s-.363 3.4453-1.088 4.522c-.714 1.0767-1.825 1.615-3.332 1.615zm0-1.887c.759 0 1.286-.2833 1.581-.85.306-.578.459-1.3543.459-2.329v-2.142c0-.9747-.153-1.7453-.459-2.312-.295-.578-.822-.867-1.581-.867s-1.292.289-1.598.867c-.295.5667-.442 1.3373-.442 2.312v2.142c0 .9747.147 1.751.442 2.329.306.5667.839.85 1.598.85zm7.627 1.87c-.465 0-.811-.1133-1.037-.34-.216-.238-.323-.5383-.323-.901v-.306c0-.3627.107-.663.323-.901.226-.238.572-.357 1.037-.357.476 0 .821.119 1.037.357.215.238.323.5383.323.901v.306c0 .3627-.108.663-.323.901-.216.2267-.561.34-1.037.34zm11.914-7.599c0 .85-.131 1.6547-.391 2.414-.25.748-.578 1.4393-.986 2.074-.408.6233-.867 1.1843-1.377 1.683-.499.4873-.998.901-1.496 1.241h-3.026c.691-.4987 1.314-.9803 1.87-1.445.555-.4647 1.037-.935 1.445-1.411.419-.476.759-.969 1.02-1.479.272-.5213.476-1.0823.612-1.683l-.136-.034c-.114.2267-.25.4477-.408.663-.148.2153-.329.4023-.544.561-.216.1587-.465.289-.748.391-.284.0907-.612.136-.986.136-.499 0-.958-.085-1.377-.255-.42-.17-.788-.4137-1.105-.731-.306-.3287-.55-.714-.731-1.156-.17-.4533-.255-.9633-.255-1.53 0-.6007.102-1.1503.306-1.649s.493-.9293.867-1.292.821-.646 1.343-.85c.532-.204 1.127-.306 1.785-.306.68 0 1.286.1133 1.819.34.532.2153.986.527 1.36.935.374.3967.657.884.85 1.462.192.5667.289 1.207.289 1.921zm-4.318 1.377c.634 0 1.127-.17 1.479-.51.351-.3513.527-.85.527-1.496v-.255c0-.646-.176-1.139-.527-1.479-.352-.3513-.845-.527-1.479-.527-.624 0-1.117.1757-1.479.527-.352.34-.527.833-.527 1.479v.255c0 .646.175 1.1447.527 1.496.362.34.855.51 1.479.51zm14.511-1.377c0 .85-.13 1.6547-.391 2.414-.249.748-.578 1.4393-.986 2.074-.408.6233-.867 1.1843-1.377 1.683-.499.4873-.997.901-1.496 1.241h-3.026c.691-.4987 1.315-.9803 1.87-1.445s1.037-.935 1.445-1.411c.419-.476.759-.969 1.02-1.479.272-.5213.476-1.0823.612-1.683l-.136-.034c-.113.2267-.249.4477-.408.663-.147.2153-.329.4023-.544.561s-.465.289-.748.391c-.283.0907-.612.136-.986.136-.499 0-.958-.085-1.377-.255s-.788-.4137-1.105-.731c-.306-.3287-.55-.714-.731-1.156-.17-.4533-.255-.9633-.255-1.53 0-.6007.102-1.1503.306-1.649s.493-.9293.867-1.292.822-.646 1.343-.85c.533-.204 1.128-.306 1.785-.306.68 0 1.286.1133 1.819.34.533.2153.986.527 1.36.935.374.3967.657.884.85 1.462.193.5667.289 1.207.289 1.921zm-4.318 1.377c.635 0 1.128-.17 1.479-.51.351-.3513.527-.85.527-1.496v-.255c0-.646-.176-1.139-.527-1.479-.351-.3513-.844-.527-1.479-.527-.623 0-1.116.1757-1.479.527-.351.34-.527.833-.527 1.479v.255c0 .646.176 1.1447.527 1.496.363.34.856.51 1.479.51z" fill="#25253f"/><path d="m318.973 72.9715c-1.24 0-2.147-.4711-2.722-1.4132-.566-.942-.848-2.261-.848-3.9567 0-1.6958.282-3.0147.848-3.9568.575-.942 1.482-1.4131 2.722-1.4131 1.239 0 2.142.4711 2.707 1.4131.575.9421.863 2.261.863 3.9568 0 1.6957-.288 3.0147-.863 3.9567-.565.9421-1.468 1.4132-2.707 1.4132zm0-1.0859c.406 0 .753-.0843 1.041-.2529s.521-.4066.699-.714c.179-.3074.308-.6694.387-1.0859.089-.4165.134-.8776.134-1.3833v-1.6958c0-.5057-.045-.9669-.134-1.3834-.079-.4165-.208-.7784-.387-1.0858-.178-.3074-.411-.5454-.699-.714s-.635-.2529-1.041-.2529c-.407 0-.754.0843-1.041.2529-.288.1686-.521.4066-.7.714-.178.3074-.312.6693-.401 1.0858-.08.4165-.119.8777-.119 1.3834v1.6958c0 .5057.039.9668.119 1.3833.089.4165.223.7785.401 1.0859.179.3074.412.5454.7.714.287.1686.634.2529 1.041.2529zm6.48 1.0859c-.318 0-.551-.0794-.7-.238-.138-.1587-.208-.3669-.208-.6248v-.1934c0-.2578.07-.466.208-.6247.149-.1587.382-.238.7-.238.317 0 .545.0793.684.238.149.1587.223.3669.223.6247v.1934c0 .2579-.074.4661-.223.6248-.139.1586-.367.238-.684.238zm9.958-.1785h-6.813v-1.2793l3.391-3.1237c.486-.4463.893-.9173 1.22-1.4132.327-.5057.491-1.0115.491-1.5172v-.1785c0-.5752-.159-1.0413-.476-1.3983s-.798-.5355-1.443-.5355c-.317 0-.595.0447-.833.1339-.238.0893-.446.2132-.625.3719-.168.1587-.312.3471-.431.5652-.109.2083-.198.4364-.268.6843l-1.115-.4314c.099-.3074.233-.6049.401-.8925.179-.2975.397-.5603.655-.7884.268-.228.585-.4115.952-.5503.377-.1389.818-.2083 1.324-.2083.505 0 .957.0744 1.353.2231.397.1488.729.357.997.6248.268.2677.471.5851.61.952.149.3669.223.7735.223 1.2197 0 .4066-.06.7835-.179 1.1305-.109.3471-.262.6793-.461.9967-.198.3074-.441.6098-.729.9073-.277.2975-.58.595-.907.8925l-2.796 2.5139h5.459zm8.919 0h-6.813v-1.2793l3.392-3.1237c.486-.4463.892-.9173 1.219-1.4132.328-.5057.491-1.0115.491-1.5172v-.1785c0-.5752-.158-1.0413-.476-1.3983-.317-.357-.798-.5355-1.443-.5355-.317 0-.595.0447-.833.1339-.238.0893-.446.2132-.624.3719-.169.1587-.313.3471-.432.5652-.109.2083-.198.4364-.267.6843l-1.116-.4314c.099-.3074.233-.6049.402-.8925.178-.2975.396-.5603.654-.7884.268-.228.585-.4115.952-.5503.377-.1389.818-.2083 1.324-.2083s.957.0744 1.354.2231c.396.1488.728.357.996.6248.268.2677.471.5851.61.952.149.3669.223.7735.223 1.2197 0 .4066-.059.7835-.178 1.1305-.109.3471-.263.6793-.461.9967-.199.3074-.442.6098-.729.9073-.278.2975-.58.595-.908.8925l-2.796 2.5139h5.459zm3.713 0 7.199-10.3828h1.146l-7.2 10.3828zm.595-4.6708c-.754 0-1.334-.2479-1.741-.7437-.406-.5058-.609-1.2396-.609-2.2015s.203-1.6908.609-2.1867c.407-.5057.987-.7586 1.741-.7586s1.334.2529 1.74.7586c.407.4959.61 1.2248.61 2.1867s-.203 1.6957-.61 2.2015c-.406.4958-.986.7437-1.74.7437zm0-.7735c.853 0 1.279-.5751 1.279-1.7255v-.8925c0-1.1503-.426-1.7255-1.279-1.7255s-1.279.5752-1.279 1.7255v.8925c0 1.1504.426 1.7255 1.279 1.7255zm7.155 5.6228c-.754 0-1.334-.2479-1.741-.7438-.406-.5057-.61-1.2396-.61-2.2015s.204-1.6908.61-2.1866c.407-.5058.987-.7586 1.741-.7586.753 0 1.334.2528 1.74.7586.407.4958.61 1.2247.61 2.1866s-.203 1.6958-.61 2.2015c-.406.4959-.987.7438-1.74.7438zm0-.7735c.853 0 1.279-.5752 1.279-1.7255v-.8925c0-1.1504-.426-1.7255-1.279-1.7255s-1.28.5751-1.28 1.7255v.8925c0 1.1503.427 1.7255 1.28 1.7255zm14.757.595h-6.813v-1.2793l3.392-3.1237c.486-.4463.892-.9173 1.22-1.4132.327-.5057.49-1.0115.49-1.5172v-.1785c0-.5752-.158-1.0413-.476-1.3983-.317-.357-.798-.5355-1.442-.5355-.318 0-.595.0447-.833.1339-.238.0893-.447.2132-.625.3719-.169.1587-.313.3471-.432.5652-.109.2083-.198.4364-.267.6843l-1.116-.4314c.099-.3074.233-.6049.402-.8925.178-.2975.396-.5603.654-.7884.268-.228.585-.4115.952-.5503.377-.1389.818-.2083 1.324-.2083s.957.0744 1.354.2231c.396.1488.729.357.996.6248.268.2677.471.5851.61.952.149.3669.223.7735.223 1.2197 0 .4066-.059.7835-.178 1.1305-.109.3471-.263.6793-.461.9967-.199.3074-.442.6098-.729.9073-.278.2975-.58.595-.908.8925l-2.796 2.5139h5.459zm6.569 0v-2.0379h-5.013v-1.1008l4.344-7.2441h1.859v7.3036h1.502v1.0413h-1.502v2.0379zm-3.838-3.0792h3.838v-6.3367h-.074zm11.959-7.9283h1.19v4.5815h.059c.189-.4364.451-.7834.789-1.0413.347-.2578.808-.3867 1.383-.3867.793 0 1.418.2578 1.874.7735.466.5057.699 1.2247.699 2.1568v4.9237h-1.19v-4.7154c0-1.3784-.58-2.0676-1.74-2.0676-.238 0-.471.0297-.699.0892-.218.0595-.417.1488-.595.2678-.179.119-.322.2727-.431.4611-.1.1785-.149.3917-.149.6396v5.3253h-1.19zm11.355 11.186c-.516 0-.987-.0942-1.413-.2827-.427-.1884-.794-.4561-1.101-.8032-.298-.357-.531-.7785-.699-1.2644-.169-.4958-.253-1.0511-.253-1.666 0-.6049.084-1.1553.253-1.6511.168-.4958.401-.9173.699-1.2644.307-.357.674-.6297 1.101-.8181.426-.1884.897-.2826 1.413-.2826.515 0 .981.0942 1.398.2826.426.1884.793.4611 1.101.8181.307.3471.545.7686.714 1.2644.168.4958.253 1.0462.253 1.6511 0 .6149-.085 1.1702-.253 1.666-.169.4859-.407.9074-.714 1.2644-.308.3471-.675.6148-1.101.8032-.417.1885-.883.2827-1.398.2827zm0-1.0562c.644 0 1.17-.1983 1.576-.595.407-.3966.61-1.0015.61-1.8147v-1.1008c0-.8131-.203-1.418-.61-1.8147-.406-.3967-.932-.595-1.576-.595-.645 0-1.17.1983-1.577.595s-.61 1.0016-.61 1.8147v1.1008c0 .8132.203 1.4181.61 1.8147.407.3967.932.595 1.577.595zm10.153-.3718h-.06c-.079.1785-.178.357-.297.5355-.109.1686-.248.3223-.417.4611-.168.1289-.371.233-.609.3124-.238.0793-.516.119-.833.119-.794 0-1.423-.2529-1.89-.7587-.466-.5156-.699-1.2395-.699-2.1717v-4.9236h1.19v4.7153c0 1.3785.585 2.0677 1.756 2.0677.238 0 .466-.0298.684-.0893.228-.0595.426-.1487.595-.2677.178-.119.317-.2678.416-.4463.109-.1884.164-.4115.164-.6694v-5.3103h1.19v7.6755h-1.19zm3.724 1.2495v-7.6755h1.19v1.4131h.074c.139-.3669.387-.6942.744-.9818.357-.2875.848-.4313 1.473-.4313h.461v1.19h-.699c-.645 0-1.151.1239-1.517.3718-.357.238-.536.5405-.536.9074v5.2063zm7.768.1785c-.714 0-1.314-.1339-1.8-.4017-.476-.2776-.888-.6445-1.235-1.1007l.848-.6843c.297.3769.63.6694.997.8777.367.1983.793.2975 1.279.2975.506 0 .897-.1091 1.175-.3273.288-.2181.431-.5256.431-.9222 0-.2975-.099-.5504-.297-.7587-.189-.2181-.536-.3669-1.041-.4462l-.61-.0893c-.357-.0495-.685-.1239-.982-.2231-.298-.1091-.56-.2479-.788-.4165-.219-.1785-.392-.3966-.521-.6545-.119-.2578-.179-.5652-.179-.9222 0-.3769.07-.7041.209-.9818.139-.2876.327-.5256.565-.714.248-.1884.54-.3272.878-.4165.337-.0991.699-.1487 1.085-.1487.625 0 1.146.1091 1.562.3272.427.2182.799.5206 1.116.9074l-.788.714c-.169-.238-.417-.4512-.744-.6396-.327-.1984-.739-.2975-1.235-.2975s-.872.1091-1.13.3272c-.248.2083-.372.4959-.372.8628 0 .3768.124.6495.372.8181.258.1686.624.2925 1.1.3719l.595.0892c.853.1289 1.458.3769 1.815.7438.357.357.536.828.536 1.4131 0 .7437-.253 1.3288-.759 1.7552-.506.4265-1.2.6397-2.082.6397z" fill="#5dd9bd"/></svg>