<svg width="478" height="377" viewBox="0 0 478 377" fill="none" xmlns="http://www.w3.org/2000/svg">
<ellipse cx="5" cy="4.5" rx="5" ry="4.5" fill="#E5F3EE"/>
<ellipse cx="31" cy="4.5" rx="5" ry="4.5" fill="#E5F3EE"/>
<ellipse cx="57" cy="4.5" rx="5" ry="4.5" fill="#E5F3EE"/>
<ellipse cx="83" cy="4.5" rx="5" ry="4.5" fill="#E5F3EE"/>
<ellipse cx="109" cy="4.5" rx="5" ry="4.5" fill="#E5F3EE"/>
<ellipse cx="135" cy="4.5" rx="5" ry="4.5" fill="#E5F3EE"/>
<path d="M166 4.5C166 6.98528 163.761 9 161 9C158.239 9 156 6.98528 156 4.5C156 2.01472 158.239 0 161 0C163.761 0 166 2.01472 166 4.5Z" fill="#E5F3EE"/>
<ellipse cx="187" cy="4.5" rx="5" ry="4.5" fill="#E5F3EE"/>
<ellipse cx="213" cy="4.5" rx="5" ry="4.5" fill="#E5F3EE"/>
<ellipse cx="239" cy="4.5" rx="5" ry="4.5" fill="#E5F3EE"/>
<ellipse cx="265" cy="4.5" rx="5" ry="4.5" fill="#E5F3EE"/>
<ellipse cx="291" cy="4.5" rx="5" ry="4.5" fill="#E5F3EE"/>
<ellipse cx="317" cy="4.5" rx="5" ry="4.5" fill="#E5F3EE"/>
<ellipse cx="343" cy="4.5" rx="5" ry="4.5" fill="#E5F3EE"/>
<ellipse cx="369" cy="4.5" rx="5" ry="4.5" fill="#E5F3EE"/>
<ellipse cx="395" cy="4.5" rx="5" ry="4.5" fill="#E5F3EE"/>
<ellipse cx="421" cy="4.5" rx="5" ry="4.5" fill="#E5F3EE"/>
<ellipse cx="447" cy="4.5" rx="5" ry="4.5" fill="#E5F3EE"/>
<ellipse cx="473" cy="4.5" rx="5" ry="4.5" fill="#E5F3EE"/>
<ellipse cx="5" cy="27.5" rx="5" ry="4.5" fill="#E5F3EE"/>
<ellipse cx="31" cy="27.5" rx="5" ry="4.5" fill="#E5F3EE"/>
<ellipse cx="57" cy="27.5" rx="5" ry="4.5" fill="#E5F3EE"/>
<ellipse cx="83" cy="27.5" rx="5" ry="4.5" fill="#E5F3EE"/>
<ellipse cx="109" cy="27.5" rx="5" ry="4.5" fill="#E5F3EE"/>
<ellipse cx="135" cy="27.5" rx="5" ry="4.5" fill="#E5F3EE"/>
<path d="M166 27.5C166 29.9853 163.761 32 161 32C158.239 32 156 29.9853 156 27.5C156 25.0147 158.239 23 161 23C163.761 23 166 25.0147 166 27.5Z" fill="#E5F3EE"/>
<ellipse cx="187" cy="27.5" rx="5" ry="4.5" fill="#E5F3EE"/>
<ellipse cx="213" cy="27.5" rx="5" ry="4.5" fill="#E5F3EE"/>
<ellipse cx="239" cy="27.5" rx="5" ry="4.5" fill="#E5F3EE"/>
<ellipse cx="265" cy="27.5" rx="5" ry="4.5" fill="#E5F3EE"/>
<ellipse cx="291" cy="27.5" rx="5" ry="4.5" fill="#E5F3EE"/>
<ellipse cx="317" cy="27.5" rx="5" ry="4.5" fill="#E5F3EE"/>
<ellipse cx="343" cy="27.5" rx="5" ry="4.5" fill="#E5F3EE"/>
<ellipse cx="369" cy="27.5" rx="5" ry="4.5" fill="#E5F3EE"/>
<ellipse cx="395" cy="27.5" rx="5" ry="4.5" fill="#E5F3EE"/>
<ellipse cx="421" cy="27.5" rx="5" ry="4.5" fill="#E5F3EE"/>
<ellipse cx="447" cy="27.5" rx="5" ry="4.5" fill="#E5F3EE"/>
<ellipse cx="473" cy="27.5" rx="5" ry="4.5" fill="#E5F3EE"/>
<ellipse cx="5" cy="50.5" rx="5" ry="4.5" fill="#E5F3EE"/>
<ellipse cx="31" cy="50.5" rx="5" ry="4.5" fill="#E5F3EE"/>
<ellipse cx="57" cy="50.5" rx="5" ry="4.5" fill="#E5F3EE"/>
<ellipse cx="83" cy="50.5" rx="5" ry="4.5" fill="#E5F3EE"/>
<ellipse cx="109" cy="50.5" rx="5" ry="4.5" fill="#E5F3EE"/>
<ellipse cx="135" cy="50.5" rx="5" ry="4.5" fill="#E5F3EE"/>
<path d="M166 50.5C166 52.9853 163.761 55 161 55C158.239 55 156 52.9853 156 50.5C156 48.0147 158.239 46 161 46C163.761 46 166 48.0147 166 50.5Z" fill="#E5F3EE"/>
<ellipse cx="187" cy="50.5" rx="5" ry="4.5" fill="#E5F3EE"/>
<ellipse cx="213" cy="50.5" rx="5" ry="4.5" fill="#E5F3EE"/>
<ellipse cx="239" cy="50.5" rx="5" ry="4.5" fill="#E5F3EE"/>
<ellipse cx="265" cy="50.5" rx="5" ry="4.5" fill="#E5F3EE"/>
<ellipse cx="291" cy="50.5" rx="5" ry="4.5" fill="#E5F3EE"/>
<ellipse cx="317" cy="50.5" rx="5" ry="4.5" fill="#E5F3EE"/>
<ellipse cx="343" cy="50.5" rx="5" ry="4.5" fill="#E5F3EE"/>
<ellipse cx="369" cy="50.5" rx="5" ry="4.5" fill="#E5F3EE"/>
<ellipse cx="395" cy="50.5" rx="5" ry="4.5" fill="#E5F3EE"/>
<ellipse cx="421" cy="50.5" rx="5" ry="4.5" fill="#E5F3EE"/>
<ellipse cx="447" cy="50.5" rx="5" ry="4.5" fill="#E5F3EE"/>
<ellipse cx="473" cy="50.5" rx="5" ry="4.5" fill="#E5F3EE"/>
<ellipse cx="5" cy="73.5" rx="5" ry="4.5" fill="#E5F3EE"/>
<ellipse cx="31" cy="73.5" rx="5" ry="4.5" fill="#E5F3EE"/>
<ellipse cx="57" cy="73.5" rx="5" ry="4.5" fill="#E5F3EE"/>
<ellipse cx="83" cy="73.5" rx="5" ry="4.5" fill="#E5F3EE"/>
<ellipse cx="109" cy="73.5" rx="5" ry="4.5" fill="#E5F3EE"/>
<ellipse cx="135" cy="73.5" rx="5" ry="4.5" fill="#E5F3EE"/>
<path d="M166 73.5C166 75.9853 163.761 78 161 78C158.239 78 156 75.9853 156 73.5C156 71.0147 158.239 69 161 69C163.761 69 166 71.0147 166 73.5Z" fill="#E5F3EE"/>
<ellipse cx="187" cy="73.5" rx="5" ry="4.5" fill="#E5F3EE"/>
<ellipse cx="213" cy="73.5" rx="5" ry="4.5" fill="#E5F3EE"/>
<ellipse cx="239" cy="73.5" rx="5" ry="4.5" fill="#E5F3EE"/>
<ellipse cx="265" cy="73.5" rx="5" ry="4.5" fill="#E5F3EE"/>
<ellipse cx="291" cy="73.5" rx="5" ry="4.5" fill="#E5F3EE"/>
<ellipse cx="317" cy="73.5" rx="5" ry="4.5" fill="#E5F3EE"/>
<ellipse cx="343" cy="73.5" rx="5" ry="4.5" fill="#E5F3EE"/>
<ellipse cx="369" cy="73.5" rx="5" ry="4.5" fill="#E5F3EE"/>
<ellipse cx="395" cy="73.5" rx="5" ry="4.5" fill="#E5F3EE"/>
<ellipse cx="421" cy="73.5" rx="5" ry="4.5" fill="#E5F3EE"/>
<ellipse cx="447" cy="73.5" rx="5" ry="4.5" fill="#E5F3EE"/>
<ellipse cx="473" cy="73.5" rx="5" ry="4.5" fill="#E5F3EE"/>
<ellipse cx="5" cy="96.5" rx="5" ry="4.5" fill="#E5F3EE"/>
<ellipse cx="31" cy="96.5" rx="5" ry="4.5" fill="#E5F3EE"/>
<ellipse cx="57" cy="96.5" rx="5" ry="4.5" fill="#E5F3EE"/>
<ellipse cx="83" cy="96.5" rx="5" ry="4.5" fill="#E5F3EE"/>
<ellipse cx="109" cy="96.5" rx="5" ry="4.5" fill="#E5F3EE"/>
<ellipse cx="135" cy="96.5" rx="5" ry="4.5" fill="#E5F3EE"/>
<path d="M166 96.5C166 98.9853 163.761 101 161 101C158.239 101 156 98.9853 156 96.5C156 94.0147 158.239 92 161 92C163.761 92 166 94.0147 166 96.5Z" fill="#E5F3EE"/>
<ellipse cx="187" cy="96.5" rx="5" ry="4.5" fill="#E5F3EE"/>
<ellipse cx="213" cy="96.5" rx="5" ry="4.5" fill="#E5F3EE"/>
<ellipse cx="239" cy="96.5" rx="5" ry="4.5" fill="#E5F3EE"/>
<ellipse cx="265" cy="96.5" rx="5" ry="4.5" fill="#E5F3EE"/>
<ellipse cx="291" cy="96.5" rx="5" ry="4.5" fill="#E5F3EE"/>
<ellipse cx="317" cy="96.5" rx="5" ry="4.5" fill="#E5F3EE"/>
<ellipse cx="343" cy="96.5" rx="5" ry="4.5" fill="#E5F3EE"/>
<ellipse cx="369" cy="96.5" rx="5" ry="4.5" fill="#E5F3EE"/>
<ellipse cx="395" cy="96.5" rx="5" ry="4.5" fill="#E5F3EE"/>
<ellipse cx="421" cy="96.5" rx="5" ry="4.5" fill="#E5F3EE"/>
<ellipse cx="447" cy="96.5" rx="5" ry="4.5" fill="#E5F3EE"/>
<ellipse cx="473" cy="96.5" rx="5" ry="4.5" fill="#E5F3EE"/>
<ellipse cx="5" cy="119.5" rx="5" ry="4.5" fill="#E5F3EE"/>
<ellipse cx="31" cy="119.5" rx="5" ry="4.5" fill="#E5F3EE"/>
<ellipse cx="57" cy="119.5" rx="5" ry="4.5" fill="#E5F3EE"/>
<ellipse cx="83" cy="119.5" rx="5" ry="4.5" fill="#E5F3EE"/>
<ellipse cx="109" cy="119.5" rx="5" ry="4.5" fill="#E5F3EE"/>
<ellipse cx="135" cy="119.5" rx="5" ry="4.5" fill="#E5F3EE"/>
<path d="M166 119.5C166 121.985 163.761 124 161 124C158.239 124 156 121.985 156 119.5C156 117.015 158.239 115 161 115C163.761 115 166 117.015 166 119.5Z" fill="#E5F3EE"/>
<ellipse cx="187" cy="119.5" rx="5" ry="4.5" fill="#E5F3EE"/>
<ellipse cx="213" cy="119.5" rx="5" ry="4.5" fill="#E5F3EE"/>
<ellipse cx="239" cy="119.5" rx="5" ry="4.5" fill="#E5F3EE"/>
<ellipse cx="265" cy="119.5" rx="5" ry="4.5" fill="#E5F3EE"/>
<ellipse cx="291" cy="119.5" rx="5" ry="4.5" fill="#E5F3EE"/>
<ellipse cx="317" cy="119.5" rx="5" ry="4.5" fill="#E5F3EE"/>
<ellipse cx="343" cy="119.5" rx="5" ry="4.5" fill="#E5F3EE"/>
<ellipse cx="369" cy="119.5" rx="5" ry="4.5" fill="#E5F3EE"/>
<ellipse cx="395" cy="119.5" rx="5" ry="4.5" fill="#E5F3EE"/>
<ellipse cx="421" cy="119.5" rx="5" ry="4.5" fill="#E5F3EE"/>
<ellipse cx="447" cy="119.5" rx="5" ry="4.5" fill="#E5F3EE"/>
<ellipse cx="473" cy="119.5" rx="5" ry="4.5" fill="#E5F3EE"/>
<ellipse cx="5" cy="142.5" rx="5" ry="4.5" fill="#E5F3EE"/>
<ellipse cx="31" cy="142.5" rx="5" ry="4.5" fill="#E5F3EE"/>
<ellipse cx="57" cy="142.5" rx="5" ry="4.5" fill="#E5F3EE"/>
<ellipse cx="83" cy="142.5" rx="5" ry="4.5" fill="#E5F3EE"/>
<ellipse cx="109" cy="142.5" rx="5" ry="4.5" fill="#E5F3EE"/>
<ellipse cx="135" cy="142.5" rx="5" ry="4.5" fill="#E5F3EE"/>
<path d="M166 142.5C166 144.985 163.761 147 161 147C158.239 147 156 144.985 156 142.5C156 140.015 158.239 138 161 138C163.761 138 166 140.015 166 142.5Z" fill="#E5F3EE"/>
<ellipse cx="187" cy="142.5" rx="5" ry="4.5" fill="#E5F3EE"/>
<ellipse cx="213" cy="142.5" rx="5" ry="4.5" fill="#E5F3EE"/>
<ellipse cx="239" cy="142.5" rx="5" ry="4.5" fill="#E5F3EE"/>
<ellipse cx="265" cy="142.5" rx="5" ry="4.5" fill="#E5F3EE"/>
<ellipse cx="291" cy="142.5" rx="5" ry="4.5" fill="#E5F3EE"/>
<ellipse cx="317" cy="142.5" rx="5" ry="4.5" fill="#E5F3EE"/>
<ellipse cx="343" cy="142.5" rx="5" ry="4.5" fill="#E5F3EE"/>
<ellipse cx="369" cy="142.5" rx="5" ry="4.5" fill="#E5F3EE"/>
<ellipse cx="395" cy="142.5" rx="5" ry="4.5" fill="#E5F3EE"/>
<ellipse cx="421" cy="142.5" rx="5" ry="4.5" fill="#E5F3EE"/>
<ellipse cx="447" cy="142.5" rx="5" ry="4.5" fill="#E5F3EE"/>
<ellipse cx="473" cy="142.5" rx="5" ry="4.5" fill="#E5F3EE"/>
<ellipse cx="5" cy="165.5" rx="5" ry="4.5" fill="#E5F3EE"/>
<ellipse cx="31" cy="165.5" rx="5" ry="4.5" fill="#E5F3EE"/>
<ellipse cx="57" cy="165.5" rx="5" ry="4.5" fill="#E5F3EE"/>
<ellipse cx="83" cy="165.5" rx="5" ry="4.5" fill="#E5F3EE"/>
<ellipse cx="109" cy="165.5" rx="5" ry="4.5" fill="#E5F3EE"/>
<ellipse cx="135" cy="165.5" rx="5" ry="4.5" fill="#E5F3EE"/>
<path d="M166 165.5C166 167.985 163.761 170 161 170C158.239 170 156 167.985 156 165.5C156 163.015 158.239 161 161 161C163.761 161 166 163.015 166 165.5Z" fill="#E5F3EE"/>
<ellipse cx="187" cy="165.5" rx="5" ry="4.5" fill="#E5F3EE"/>
<ellipse cx="213" cy="165.5" rx="5" ry="4.5" fill="#E5F3EE"/>
<ellipse cx="239" cy="165.5" rx="5" ry="4.5" fill="#E5F3EE"/>
<ellipse cx="265" cy="165.5" rx="5" ry="4.5" fill="#E5F3EE"/>
<ellipse cx="291" cy="165.5" rx="5" ry="4.5" fill="#E5F3EE"/>
<ellipse cx="317" cy="165.5" rx="5" ry="4.5" fill="#E5F3EE"/>
<ellipse cx="343" cy="165.5" rx="5" ry="4.5" fill="#E5F3EE"/>
<ellipse cx="369" cy="165.5" rx="5" ry="4.5" fill="#E5F3EE"/>
<ellipse cx="395" cy="165.5" rx="5" ry="4.5" fill="#E5F3EE"/>
<ellipse cx="421" cy="165.5" rx="5" ry="4.5" fill="#E5F3EE"/>
<ellipse cx="447" cy="165.5" rx="5" ry="4.5" fill="#E5F3EE"/>
<ellipse cx="473" cy="165.5" rx="5" ry="4.5" fill="#E5F3EE"/>
<ellipse cx="5" cy="188.5" rx="5" ry="4.5" fill="#E5F3EE"/>
<ellipse cx="31" cy="188.5" rx="5" ry="4.5" fill="#E5F3EE"/>
<ellipse cx="57" cy="188.5" rx="5" ry="4.5" fill="#E5F3EE"/>
<ellipse cx="83" cy="188.5" rx="5" ry="4.5" fill="#E5F3EE"/>
<ellipse cx="109" cy="188.5" rx="5" ry="4.5" fill="#E5F3EE"/>
<ellipse cx="135" cy="188.5" rx="5" ry="4.5" fill="#E5F3EE"/>
<path d="M166 188.5C166 190.985 163.761 193 161 193C158.239 193 156 190.985 156 188.5C156 186.015 158.239 184 161 184C163.761 184 166 186.015 166 188.5Z" fill="#E5F3EE"/>
<ellipse cx="187" cy="188.5" rx="5" ry="4.5" fill="#E5F3EE"/>
<ellipse cx="213" cy="188.5" rx="5" ry="4.5" fill="#E5F3EE"/>
<ellipse cx="239" cy="188.5" rx="5" ry="4.5" fill="#E5F3EE"/>
<ellipse cx="265" cy="188.5" rx="5" ry="4.5" fill="#E5F3EE"/>
<ellipse cx="291" cy="188.5" rx="5" ry="4.5" fill="#E5F3EE"/>
<ellipse cx="317" cy="188.5" rx="5" ry="4.5" fill="#E5F3EE"/>
<ellipse cx="343" cy="188.5" rx="5" ry="4.5" fill="#E5F3EE"/>
<ellipse cx="369" cy="188.5" rx="5" ry="4.5" fill="#E5F3EE"/>
<ellipse cx="395" cy="188.5" rx="5" ry="4.5" fill="#E5F3EE"/>
<ellipse cx="421" cy="188.5" rx="5" ry="4.5" fill="#E5F3EE"/>
<ellipse cx="447" cy="188.5" rx="5" ry="4.5" fill="#E5F3EE"/>
<ellipse cx="473" cy="188.5" rx="5" ry="4.5" fill="#E5F3EE"/>
<ellipse cx="5" cy="211.5" rx="5" ry="4.5" fill="#E5F3EE"/>
<ellipse cx="31" cy="211.5" rx="5" ry="4.5" fill="#E5F3EE"/>
<ellipse cx="57" cy="211.5" rx="5" ry="4.5" fill="#E5F3EE"/>
<ellipse cx="83" cy="211.5" rx="5" ry="4.5" fill="#E5F3EE"/>
<ellipse cx="109" cy="211.5" rx="5" ry="4.5" fill="#E5F3EE"/>
<ellipse cx="135" cy="211.5" rx="5" ry="4.5" fill="#E5F3EE"/>
<path d="M166 211.5C166 213.985 163.761 216 161 216C158.239 216 156 213.985 156 211.5C156 209.015 158.239 207 161 207C163.761 207 166 209.015 166 211.5Z" fill="#E5F3EE"/>
<ellipse cx="187" cy="211.5" rx="5" ry="4.5" fill="#E5F3EE"/>
<ellipse cx="213" cy="211.5" rx="5" ry="4.5" fill="#E5F3EE"/>
<ellipse cx="239" cy="211.5" rx="5" ry="4.5" fill="#E5F3EE"/>
<ellipse cx="265" cy="211.5" rx="5" ry="4.5" fill="#E5F3EE"/>
<ellipse cx="291" cy="211.5" rx="5" ry="4.5" fill="#E5F3EE"/>
<ellipse cx="317" cy="211.5" rx="5" ry="4.5" fill="#E5F3EE"/>
<ellipse cx="343" cy="211.5" rx="5" ry="4.5" fill="#E5F3EE"/>
<ellipse cx="369" cy="211.5" rx="5" ry="4.5" fill="#E5F3EE"/>
<ellipse cx="395" cy="211.5" rx="5" ry="4.5" fill="#E5F3EE"/>
<ellipse cx="421" cy="211.5" rx="5" ry="4.5" fill="#E5F3EE"/>
<ellipse cx="447" cy="211.5" rx="5" ry="4.5" fill="#E5F3EE"/>
<ellipse cx="473" cy="211.5" rx="5" ry="4.5" fill="#E5F3EE"/>
<ellipse cx="5" cy="234.5" rx="5" ry="4.5" fill="#E5F3EE"/>
<ellipse cx="31" cy="234.5" rx="5" ry="4.5" fill="#E5F3EE"/>
<ellipse cx="57" cy="234.5" rx="5" ry="4.5" fill="#E5F3EE"/>
<ellipse cx="83" cy="234.5" rx="5" ry="4.5" fill="#E5F3EE"/>
<ellipse cx="109" cy="234.5" rx="5" ry="4.5" fill="#E5F3EE"/>
<ellipse cx="135" cy="234.5" rx="5" ry="4.5" fill="#E5F3EE"/>
<path d="M166 234.5C166 236.985 163.761 239 161 239C158.239 239 156 236.985 156 234.5C156 232.015 158.239 230 161 230C163.761 230 166 232.015 166 234.5Z" fill="#E5F3EE"/>
<ellipse cx="187" cy="234.5" rx="5" ry="4.5" fill="#E5F3EE"/>
<ellipse cx="213" cy="234.5" rx="5" ry="4.5" fill="#E5F3EE"/>
<ellipse cx="239" cy="234.5" rx="5" ry="4.5" fill="#E5F3EE"/>
<ellipse cx="265" cy="234.5" rx="5" ry="4.5" fill="#E5F3EE"/>
<ellipse cx="291" cy="234.5" rx="5" ry="4.5" fill="#E5F3EE"/>
<ellipse cx="317" cy="234.5" rx="5" ry="4.5" fill="#E5F3EE"/>
<ellipse cx="343" cy="234.5" rx="5" ry="4.5" fill="#E5F3EE"/>
<ellipse cx="369" cy="234.5" rx="5" ry="4.5" fill="#E5F3EE"/>
<ellipse cx="395" cy="234.5" rx="5" ry="4.5" fill="#E5F3EE"/>
<ellipse cx="421" cy="234.5" rx="5" ry="4.5" fill="#E5F3EE"/>
<ellipse cx="447" cy="234.5" rx="5" ry="4.5" fill="#E5F3EE"/>
<ellipse cx="473" cy="234.5" rx="5" ry="4.5" fill="#E5F3EE"/>
<ellipse cx="5" cy="257.5" rx="5" ry="4.5" fill="#E5F3EE"/>
<ellipse cx="31" cy="257.5" rx="5" ry="4.5" fill="#E5F3EE"/>
<ellipse cx="57" cy="257.5" rx="5" ry="4.5" fill="#E5F3EE"/>
<ellipse cx="83" cy="257.5" rx="5" ry="4.5" fill="#E5F3EE"/>
<ellipse cx="109" cy="257.5" rx="5" ry="4.5" fill="#E5F3EE"/>
<ellipse cx="135" cy="257.5" rx="5" ry="4.5" fill="#E5F3EE"/>
<path d="M166 257.5C166 259.985 163.761 262 161 262C158.239 262 156 259.985 156 257.5C156 255.015 158.239 253 161 253C163.761 253 166 255.015 166 257.5Z" fill="#E5F3EE"/>
<ellipse cx="187" cy="257.5" rx="5" ry="4.5" fill="#E5F3EE"/>
<ellipse cx="213" cy="257.5" rx="5" ry="4.5" fill="#E5F3EE"/>
<ellipse cx="239" cy="257.5" rx="5" ry="4.5" fill="#E5F3EE"/>
<ellipse cx="265" cy="257.5" rx="5" ry="4.5" fill="#E5F3EE"/>
<ellipse cx="291" cy="257.5" rx="5" ry="4.5" fill="#E5F3EE"/>
<ellipse cx="317" cy="257.5" rx="5" ry="4.5" fill="#E5F3EE"/>
<ellipse cx="343" cy="257.5" rx="5" ry="4.5" fill="#E5F3EE"/>
<ellipse cx="369" cy="257.5" rx="5" ry="4.5" fill="#E5F3EE"/>
<ellipse cx="395" cy="257.5" rx="5" ry="4.5" fill="#E5F3EE"/>
<ellipse cx="421" cy="257.5" rx="5" ry="4.5" fill="#E5F3EE"/>
<ellipse cx="447" cy="257.5" rx="5" ry="4.5" fill="#E5F3EE"/>
<ellipse cx="473" cy="257.5" rx="5" ry="4.5" fill="#E5F3EE"/>
<ellipse cx="5" cy="280.5" rx="5" ry="4.5" fill="#E5F3EE"/>
<ellipse cx="31" cy="280.5" rx="5" ry="4.5" fill="#E5F3EE"/>
<ellipse cx="57" cy="280.5" rx="5" ry="4.5" fill="#E5F3EE"/>
<ellipse cx="83" cy="280.5" rx="5" ry="4.5" fill="#E5F3EE"/>
<ellipse cx="109" cy="280.5" rx="5" ry="4.5" fill="#E5F3EE"/>
<ellipse cx="135" cy="280.5" rx="5" ry="4.5" fill="#E5F3EE"/>
<path d="M166 280.5C166 282.985 163.761 285 161 285C158.239 285 156 282.985 156 280.5C156 278.015 158.239 276 161 276C163.761 276 166 278.015 166 280.5Z" fill="#E5F3EE"/>
<ellipse cx="187" cy="280.5" rx="5" ry="4.5" fill="#E5F3EE"/>
<ellipse cx="213" cy="280.5" rx="5" ry="4.5" fill="#E5F3EE"/>
<ellipse cx="239" cy="280.5" rx="5" ry="4.5" fill="#E5F3EE"/>
<ellipse cx="265" cy="280.5" rx="5" ry="4.5" fill="#E5F3EE"/>
<ellipse cx="291" cy="280.5" rx="5" ry="4.5" fill="#E5F3EE"/>
<ellipse cx="317" cy="280.5" rx="5" ry="4.5" fill="#E5F3EE"/>
<ellipse cx="343" cy="280.5" rx="5" ry="4.5" fill="#E5F3EE"/>
<ellipse cx="369" cy="280.5" rx="5" ry="4.5" fill="#E5F3EE"/>
<ellipse cx="395" cy="280.5" rx="5" ry="4.5" fill="#E5F3EE"/>
<ellipse cx="421" cy="280.5" rx="5" ry="4.5" fill="#E5F3EE"/>
<ellipse cx="447" cy="280.5" rx="5" ry="4.5" fill="#E5F3EE"/>
<ellipse cx="473" cy="280.5" rx="5" ry="4.5" fill="#E5F3EE"/>
<ellipse cx="5" cy="303.5" rx="5" ry="4.5" fill="#E5F3EE"/>
<ellipse cx="31" cy="303.5" rx="5" ry="4.5" fill="#E5F3EE"/>
<ellipse cx="57" cy="303.5" rx="5" ry="4.5" fill="#E5F3EE"/>
<ellipse cx="83" cy="303.5" rx="5" ry="4.5" fill="#E5F3EE"/>
<ellipse cx="109" cy="303.5" rx="5" ry="4.5" fill="#E5F3EE"/>
<ellipse cx="135" cy="303.5" rx="5" ry="4.5" fill="#E5F3EE"/>
<path d="M166 303.5C166 305.985 163.761 308 161 308C158.239 308 156 305.985 156 303.5C156 301.015 158.239 299 161 299C163.761 299 166 301.015 166 303.5Z" fill="#E5F3EE"/>
<ellipse cx="187" cy="303.5" rx="5" ry="4.5" fill="#E5F3EE"/>
<ellipse cx="213" cy="303.5" rx="5" ry="4.5" fill="#E5F3EE"/>
<ellipse cx="239" cy="303.5" rx="5" ry="4.5" fill="#E5F3EE"/>
<ellipse cx="265" cy="303.5" rx="5" ry="4.5" fill="#E5F3EE"/>
<ellipse cx="291" cy="303.5" rx="5" ry="4.5" fill="#E5F3EE"/>
<ellipse cx="317" cy="303.5" rx="5" ry="4.5" fill="#E5F3EE"/>
<ellipse cx="343" cy="303.5" rx="5" ry="4.5" fill="#E5F3EE"/>
<ellipse cx="369" cy="303.5" rx="5" ry="4.5" fill="#E5F3EE"/>
<ellipse cx="395" cy="303.5" rx="5" ry="4.5" fill="#E5F3EE"/>
<ellipse cx="421" cy="303.5" rx="5" ry="4.5" fill="#E5F3EE"/>
<ellipse cx="447" cy="303.5" rx="5" ry="4.5" fill="#E5F3EE"/>
<ellipse cx="473" cy="303.5" rx="5" ry="4.5" fill="#E5F3EE"/>
<ellipse cx="5" cy="326.5" rx="5" ry="4.5" fill="#E5F3EE"/>
<ellipse cx="31" cy="326.5" rx="5" ry="4.5" fill="#E5F3EE"/>
<ellipse cx="57" cy="326.5" rx="5" ry="4.5" fill="#E5F3EE"/>
<ellipse cx="83" cy="326.5" rx="5" ry="4.5" fill="#E5F3EE"/>
<ellipse cx="109" cy="326.5" rx="5" ry="4.5" fill="#E5F3EE"/>
<ellipse cx="135" cy="326.5" rx="5" ry="4.5" fill="#E5F3EE"/>
<path d="M166 326.5C166 328.985 163.761 331 161 331C158.239 331 156 328.985 156 326.5C156 324.015 158.239 322 161 322C163.761 322 166 324.015 166 326.5Z" fill="#E5F3EE"/>
<ellipse cx="187" cy="326.5" rx="5" ry="4.5" fill="#E5F3EE"/>
<ellipse cx="213" cy="326.5" rx="5" ry="4.5" fill="#E5F3EE"/>
<ellipse cx="239" cy="326.5" rx="5" ry="4.5" fill="#E5F3EE"/>
<ellipse cx="265" cy="326.5" rx="5" ry="4.5" fill="#E5F3EE"/>
<ellipse cx="291" cy="326.5" rx="5" ry="4.5" fill="#E5F3EE"/>
<ellipse cx="317" cy="326.5" rx="5" ry="4.5" fill="#E5F3EE"/>
<ellipse cx="343" cy="326.5" rx="5" ry="4.5" fill="#E5F3EE"/>
<ellipse cx="369" cy="326.5" rx="5" ry="4.5" fill="#E5F3EE"/>
<ellipse cx="395" cy="326.5" rx="5" ry="4.5" fill="#E5F3EE"/>
<ellipse cx="421" cy="326.5" rx="5" ry="4.5" fill="#E5F3EE"/>
<ellipse cx="447" cy="326.5" rx="5" ry="4.5" fill="#E5F3EE"/>
<ellipse cx="473" cy="326.5" rx="5" ry="4.5" fill="#E5F3EE"/>
<ellipse cx="5" cy="349.5" rx="5" ry="4.5" fill="#E5F3EE"/>
<ellipse cx="31" cy="349.5" rx="5" ry="4.5" fill="#E5F3EE"/>
<ellipse cx="57" cy="349.5" rx="5" ry="4.5" fill="#E5F3EE"/>
<ellipse cx="83" cy="349.5" rx="5" ry="4.5" fill="#E5F3EE"/>
<ellipse cx="109" cy="349.5" rx="5" ry="4.5" fill="#E5F3EE"/>
<ellipse cx="135" cy="349.5" rx="5" ry="4.5" fill="#E5F3EE"/>
<path d="M166 349.5C166 351.985 163.761 354 161 354C158.239 354 156 351.985 156 349.5C156 347.015 158.239 345 161 345C163.761 345 166 347.015 166 349.5Z" fill="#E5F3EE"/>
<ellipse cx="187" cy="349.5" rx="5" ry="4.5" fill="#E5F3EE"/>
<ellipse cx="213" cy="349.5" rx="5" ry="4.5" fill="#E5F3EE"/>
<ellipse cx="239" cy="349.5" rx="5" ry="4.5" fill="#E5F3EE"/>
<ellipse cx="265" cy="349.5" rx="5" ry="4.5" fill="#E5F3EE"/>
<ellipse cx="291" cy="349.5" rx="5" ry="4.5" fill="#E5F3EE"/>
<ellipse cx="317" cy="349.5" rx="5" ry="4.5" fill="#E5F3EE"/>
<ellipse cx="343" cy="349.5" rx="5" ry="4.5" fill="#E5F3EE"/>
<ellipse cx="369" cy="349.5" rx="5" ry="4.5" fill="#E5F3EE"/>
<ellipse cx="395" cy="349.5" rx="5" ry="4.5" fill="#E5F3EE"/>
<ellipse cx="421" cy="349.5" rx="5" ry="4.5" fill="#E5F3EE"/>
<ellipse cx="447" cy="349.5" rx="5" ry="4.5" fill="#E5F3EE"/>
<ellipse cx="473" cy="349.5" rx="5" ry="4.5" fill="#E5F3EE"/>
<ellipse cx="5" cy="372.5" rx="5" ry="4.5" fill="#E5F3EE"/>
<ellipse cx="31" cy="372.5" rx="5" ry="4.5" fill="#E5F3EE"/>
<ellipse cx="57" cy="372.5" rx="5" ry="4.5" fill="#E5F3EE"/>
<ellipse cx="83" cy="372.5" rx="5" ry="4.5" fill="#E5F3EE"/>
<ellipse cx="109" cy="372.5" rx="5" ry="4.5" fill="#E5F3EE"/>
<ellipse cx="135" cy="372.5" rx="5" ry="4.5" fill="#E5F3EE"/>
<path d="M166 372.5C166 374.985 163.761 377 161 377C158.239 377 156 374.985 156 372.5C156 370.015 158.239 368 161 368C163.761 368 166 370.015 166 372.5Z" fill="#E5F3EE"/>
<ellipse cx="187" cy="372.5" rx="5" ry="4.5" fill="#E5F3EE"/>
<ellipse cx="213" cy="372.5" rx="5" ry="4.5" fill="#E5F3EE"/>
<ellipse cx="239" cy="372.5" rx="5" ry="4.5" fill="#E5F3EE"/>
<ellipse cx="265" cy="372.5" rx="5" ry="4.5" fill="#E5F3EE"/>
<ellipse cx="291" cy="372.5" rx="5" ry="4.5" fill="#E5F3EE"/>
<ellipse cx="317" cy="372.5" rx="5" ry="4.5" fill="#E5F3EE"/>
<ellipse cx="343" cy="372.5" rx="5" ry="4.5" fill="#E5F3EE"/>
<ellipse cx="369" cy="372.5" rx="5" ry="4.5" fill="#E5F3EE"/>
<ellipse cx="395" cy="372.5" rx="5" ry="4.5" fill="#E5F3EE"/>
<ellipse cx="421" cy="372.5" rx="5" ry="4.5" fill="#E5F3EE"/>
<ellipse cx="447" cy="372.5" rx="5" ry="4.5" fill="#E5F3EE"/>
<ellipse cx="473" cy="372.5" rx="5" ry="4.5" fill="#E5F3EE"/>
</svg>
