<svg fill="none" height="123" viewBox="0 0 116 123" width="116" xmlns="http://www.w3.org/2000/svg"><g clip-rule="evenodd" fill-rule="evenodd"><path d="m13 87.498 98.037-15.255 2.174 13.723c1.298 8.198-4.308 15.891-12.509 17.168l-68.394 10.642c-8.17 1.271-15.828-4.309-17.122-12.475z" fill="#f6eadb"/><path d="m4.347 30.312c-1.297-8.182 4.286-15.866 12.468-17.162l68.21-10.803c8.182-1.296 15.866 4.286 17.162 12.468l9.386 59.262-97.84 15.496-9.386-59.261z" fill="#e7f1f7"/><path d="m22.287 85.054 1.458.017-3.5 5.329a.77.77 0 0 0 1.278.86l3.977-5.76.875-.315h6.032l-9.765 15.683a.766.766 0 0 0 1.287.83l9.776-14.631 1.18-1.847 7.302.094-16.296 26.932a.75.75 0 0 0 1.278.79l16.39-25.97 1.099-1.718 8.147.108-21.5 35.629a.749.749 0 0 0 1.276.782l21.68-34.8 1.008-1.58 10.226.135-16.112 26.624a.75.75 0 0 0 1.278.79l16.39-25.97.904-1.413 10.045-.197-7.03 10.437a1 1 0 0 0 -.171.559v.11c0 .99 1.283 1.378 1.832.555l7.869-11.803h5.5l-2.127 3.095a1 1 0 0 0 .09 1.246l.128.137a1 1 0 0 0 1.592-.167l3.359-5.624z" fill="#1a1919"/><path d="m8 86.306 102.062-.305z" fill="#272626"/></g><path d="m42.601 83a4141.3 4141.3 0 0 0 -.105-23.872c-.052-7.509 6.014-13.628 13.521-13.628h4.504c7.525 0 13.597 6.152 13.499 13.676l-.312 23.824z" fill="#fff" stroke="#1a1919" stroke-linecap="round" stroke-linejoin="round" stroke-width="3"/><path clip-rule="evenodd" d="m43.616 60.02a13.07 13.07 0 0 1 4.384-10.02s5.514 25.952 6.506 30h-10.506z" fill="#f1ede9" fill-rule="evenodd"/><path clip-rule="evenodd" d="m93.684 37.787-.48-3.035c-.112-.705.545-1.4 1.278-1.517.733-.116 1.574.343 1.685 1.048l.481 3.035c.112.707-.546 1.403-1.279 1.519s-1.573-.343-1.685-1.05zm.582 3.68c-.112-.707.532-1.401 1.265-1.517s1.56.345 1.671 1.052l1.581 9.981c.112.705-.532 1.4-1.265 1.515-.733.117-1.559-.345-1.67-1.05l-1.582-9.98z" fill="#fffffe" fill-rule="evenodd"/><path d="m6 84h100.561l-17.525 19.5" stroke="#1a1919" stroke-linecap="round" stroke-linejoin="round" stroke-width="3"/><path d="m6 81h100.561l-17.525 19.5" stroke="#008752" stroke-linecap="round" stroke-linejoin="round" stroke-width="3"/><path clip-rule="evenodd" d="m1.523 18h10.655c.649 0 1.522.802 1.522 1.539s-.62 1.538-1.522 1.538h-10.655c-.651 0-1.548-.429-1.522-1.538.027-1.184 1.522-1.539 1.522-1.539zm.002 6.155h19.738c.657 0 1.529.819 1.529 1.57 0 .753-.62 1.571-1.277 1.571h-19.99c-.654 0-1.55-.438-1.524-1.609.027-1.17 1.524-1.532 1.524-1.532zm-.025 6.345a1.5 1.5 0 0 0 0 3h23.549l-4.177 4.477a1.5 1.5 0 0 0 2.194 2.047l6.53-7a1.5 1.5 0 0 0 -1.096-2.524z" fill="#1a1919" fill-rule="evenodd"/></svg>