<svg fill="none" height="110" viewBox="0 0 137 110" width="137" xmlns="http://www.w3.org/2000/svg"><g clip-rule="evenodd" fill-rule="evenodd"><path d="m0 15c0-8.284 6.716-15 15-15h87.071c8.284 0 15 6.716 15 15v79.5c0 8.284-6.716 15-15 15h-87.071c-8.284 0-15-6.716-15-15z" fill="#f6eadb"/><path d="m0 15c0-8.284 6.716-15 15-15h2.598s-9.032 8.805-8.74 35.471c.16 14.636 4.894 23.036 8.74 47.025.826 5.148 0 27.004 0 27.004h-2.598c-8.284 0-15-6.716-15-15z" fill="#e4d4bf"/><path d="m117.071 74.446v-59.446c0-8.284-6.715-15-15-15h-87.07c-8.286 0-15.001 6.716-15.001 15v79.5c0 8.284 6.715 15 15 15h68.29c1.209 0 1.209-3 0-3h-68.29c-6.628 0-12-5.373-12-12v-79.5c0-6.627 5.372-12 12-12h87.07c6.628 0 12 5.373 12 12v59.446c0 .849 2.929 1.054 3 0z" fill="#000"/><path d="m45 40.278 14.345-6.982 14.172 7.704v-39h-28.517z" fill="#008752" stroke="#000" stroke-width="3"/><path d="m46.494 4.5v33.5l11.507-5.5c-3.993-4.009-7.123-28.347-2.098-28.959h-9.409" fill="#076842"/><path d="m17.09 72.116 21.4-3.08c1.963-.28 3.799 1.088 4.084 3.044l2.023 13.966c.284 1.956-1.09 3.786-3.054 4.07l-21.4 3.08c-1.963.281-3.799-1.087-4.084-3.043l-2.022-13.966a3.606 3.606 0 0 1 3.053-4.07" fill="#fffffe"/><path d="m34.789 74.977 3.123-.452a1.34 1.34 0 0 1 1.512 1.128 1.336 1.336 0 0 1 -1.131 1.508l-3.124.449a1.336 1.336 0 0 1 -1.512-1.126 1.334 1.334 0 0 1 1.132-1.507zm1.134 7.844 3.123-.449a1.337 1.337 0 0 1 1.513 1.126 1.334 1.334 0 0 1 -1.13 1.507l-3.123.45a1.336 1.336 0 0 1 -1.512-1.126 1.334 1.334 0 0 1 1.129-1.507zm-14.057 2.021 10.273-1.476c.728-.106 1.407.4 1.513 1.125a1.334 1.334 0 0 1 -1.132 1.508l-10.27 1.479a1.336 1.336 0 0 1 -1.512-1.126 1.336 1.336 0 0 1 1.129-1.51zm6.415-4.835 10.27-1.476c.728-.106 1.41.4 1.516 1.125a1.335 1.335 0 0 1 -1.132 1.508l-10.274 1.479a1.338 1.338 0 0 1 -1.512-1.128 1.335 1.335 0 0 1 1.131-1.508zm-6.946 1 2.885-.413c.725-.106 1.406.4 1.512 1.126a1.337 1.337 0 0 1 -1.132 1.507l-2.885.416a1.341 1.341 0 0 1 -1.512-1.128 1.337 1.337 0 0 1 1.132-1.508zm-.606-4.01 10.273-1.476a1.337 1.337 0 0 1 1.513 1.125 1.332 1.332 0 0 1 -1.13 1.508l-10.273 1.479a1.336 1.336 0 0 1 -1.512-1.126 1.336 1.336 0 0 1 1.129-1.51zm-4.323-4.45 24.448-3.518c1.528-.22 2.96.849 3.18 2.37l2.336 16.123a2.812 2.812 0 0 1 -2.377 3.17l-24.45 3.518a2.814 2.814 0 0 1 -3.178-2.37l-2.336-16.123a2.807 2.807 0 0 1 2.377-3.17zm1.992 1.488 20.926-3.013a2.587 2.587 0 0 1 2.92 2.179l1.917 13.225a2.584 2.584 0 0 1 -2.186 2.914l-20.923 3.01a2.59 2.59 0 0 1 -2.924-2.179l-1.913-13.224c-.205-1.4.78-2.71 2.183-2.912z" fill="#1a1919"/><path d="m126.364 104.846c7.523.34 10.226-13.617.449-14.204a1.3 1.3 0 0 1 -.47.087h-46.538l8.519 7.715a1.326 1.326 0 1 1 -1.144 2.393l-12.05-10.128a1.335 1.335 0 0 1 -.918-.662 1.327 1.327 0 0 1 1.55-1.971h50.58c.283 0 .544.09.76.24 11.642.578 10.872 18.373-.09 18.999a1.321 1.321 0 0 1 -.67.185h-35.345a1.329 1.329 0 0 1 0-2.656z" fill="#1a1919" stroke="#000" stroke-width="1.5"/><path d="m124.366 100.846c7.52.34 10.223-13.618.446-14.205a1.298 1.298 0 0 1 -.469.087h-48.025l8.18 8.968a1.326 1.326 0 1 1 -1.147 2.394l-10.22-11.382a1.34 1.34 0 0 1 -.919-.662 1.323 1.323 0 0 1 1.55-1.972h50.581c.282 0 .546.09.759.24 11.642.58 10.875 18.375-.09 19.001a1.32 1.32 0 0 1 -.669.185h-35.347a1.332 1.332 0 0 1 -1.323-1.328c0-.731.595-1.328 1.323-1.328z" fill="#008752" stroke="#008752" stroke-width="1.5"/><path d="m73.506 76h19.497c.649 0 1.51.782 1.51 1.5s-.612 1.5-1.26 1.5h-19.748c-.646 0-1.532-.419-1.505-1.537.026-1.117 1.505-1.463 1.505-1.463zm-.005-6h10.506c.64 0 1.501.782 1.501 1.5s-.612 1.5-1.5 1.5h-10.508c-.642 0-1.526-.419-1.5-1.5.026-1.154 1.5-1.5 1.5-1.5z" fill="#1a1919"/><path d="m66 14.373v-3.074c0-.714.673-1.298 1.5-1.298.826 0 1.502.584 1.502 1.298v3.074c0 .716-.676 1.3-1.502 1.3-.827 0-1.5-.585-1.5-1.3zm0 13.829v-10.106c0-.716.673-1.3 1.5-1.3.826 0 1.502.584 1.502 1.3v10.106c0 .713-.676 1.298-1.502 1.298-.827 0-1.5-.584-1.5-1.298z" fill="#fffffe"/></g></svg>