<svg fill="none" height="114" viewBox="0 0 119 114" width="119" xmlns="http://www.w3.org/2000/svg"><rect fill="#f6eadb" height="99" rx="15" transform="matrix(.98768834 -.15643447 .15643447 .98768834 1.505607 15.496554)" width="99.06"/><g clip-rule="evenodd" fill-rule="evenodd"><path d="m25.875 25.504h62.516c3.502 0 6.364 2.856 6.364 6.34v30.293c0 3.488-2.862 6.338-6.364 6.338h-62.516c-3.499 0-6.363-2.85-6.363-6.338v-30.293c0-3.484 2.864-6.34 6.363-6.34" fill="#fffffe"/><path d="m84.072 19.005c9.428 0 17.071 7.612 17.071 17.001 0 9.39-7.643 17.002-17.071 17.002-9.429 0-17.072-7.612-17.072-17.002 0-9.389 7.643-17.001 17.072-17.001" fill="#008752"/><path d="m83.992 24.787c-3.511-.158-10.689 2.584-10.983 10.942-.175 4.98 3.9 10.818 10.966 10.925 6.492.095 10.963-5.071 11.025-10.918-.016-.109-.013-.333-.585-.348-.508-.016-.666.166-.652.354-.45 7.312-6.12 9.617-9.788 9.68-3.668.062-9.737-2.857-9.68-9.72.045-5.432 4.316-9.639 9.715-9.65.254-.049.501-.359.503-.676.002-.275-.184-.567-.52-.59zm8.611 1.108c.485.277.652.9.374 1.383l-7.565 13.046c-.26.45-.82.625-1.288.421a1.007 1.007 0 0 1 -.32-.16l-6.584-4.84a1.01 1.01 0 0 1 -.194-1.42 1.03 1.03 0 0 1 1.427-.191l5.749 4.227 7.012-12.095a1.02 1.02 0 0 1 1.39-.37z" fill="#fffffe"/></g><path d="m83.992 24.787.033-.5h-.01zm-10.982 10.942.5.018zm10.966 10.925-.008.5zm11.024-10.918.5.005v-.038l-.005-.038-.495.07zm-.585-.348-.016.5h.002zm-.652.354.499.031.002-.033-.003-.033zm-19.467-.04.5.005zm9.714-9.65.001.5h.047l.047-.009-.095-.49zm.503-.676-.5-.004zm8.464 1.902.432.251.001-.001zm-7.565 13.046-.432-.25zm-1.288.421.2-.458-.03-.013-.03-.008-.14.48zm-.32-.16.299-.4-.003-.002-.297.403zm-6.584-4.84-.297.402zm1.233-1.611.296-.403zm5.749 4.227-.296.402.449.33.28-.482zm7.012-12.095-.432-.251.432.25zm-7.2-1.979c-1.873-.084-4.659.599-7.02 2.378-2.383 1.796-4.332 4.707-4.484 9.047l1 .035c.14-4.019 1.927-6.657 4.085-8.283 2.178-1.641 4.737-2.251 6.375-2.178l.045-.999zm-11.504 11.424c-.185 5.233 4.084 11.332 11.457 11.443l.015-1c-6.759-.102-10.64-5.679-10.473-10.407l-1-.036zm11.457 11.443c6.798.1 11.468-5.32 11.533-11.413l-1-.01c-.06 5.6-4.332 10.514-10.518 10.423zm11.528-11.49c-.001-.006-.012-.282-.229-.494-.208-.204-.508-.273-.838-.282l-.027 1a.776.776 0 0 1 .197.023c.022.007 0 .005-.032-.027a.247.247 0 0 1 -.063-.103l-.003-.015.001.012.004.029.99-.142zm-1.065-.776c-.3-.01-.588.035-.813.184a.77.77 0 0 0 -.353.706l.997-.071a.232.232 0 0 1 -.092.199c-.014.009-.01.002.03-.006a.892.892 0 0 1 .2-.012zm-1.167.824c-.216 3.515-1.678 5.785-3.494 7.194-1.833 1.42-4.057 1.986-5.803 2.016l.017 1c1.922-.033 4.367-.65 6.399-2.226 2.048-1.588 3.646-4.126 3.88-7.923zm-9.297 9.21c-1.716.029-4.037-.646-5.915-2.153-1.86-1.494-3.283-3.799-3.255-7.062l-1-.009c-.03 3.599 1.553 6.184 3.63 7.85 2.058 1.653 4.606 2.406 6.557 2.373l-.017-1zm-9.17-9.215c.042-5.157 4.089-9.144 9.215-9.155l-.002-1c-5.672.012-10.166 4.438-10.213 10.146zm9.309-9.164c.281-.054.505-.236.649-.426.148-.195.257-.454.26-.737l-1-.007a.252.252 0 0 1 -.056.14.224.224 0 0 1 -.048.047c-.012.009-.011.005.006.001zm.908-1.163c.004-.47-.324-1.049-.988-1.092l-.066.997c.014.001.019.004.02.005.002 0 .005.003.01.01a.126.126 0 0 1 .023.073zm7.342.95c.244.139.33.455.189.699l.866.499a1.514 1.514 0 0 0 -.559-2.067zm.19.698-7.565 13.045.865.502 7.564-13.046-.865-.501zm-7.565 13.046a.522.522 0 0 1 -.656.213l-.4.917a1.522 1.522 0 0 0 1.921-.63zm-.716.192a.51.51 0 0 1 -.161-.08l-.599.8c.147.11.31.19.48.24zm-.164-.083-6.584-4.84-.592.805 6.583 4.84zm-6.583-4.84a.51.51 0 0 1 -.093-.715l-.795-.607a1.51 1.51 0 0 0 .294 2.126zm-.093-.715a.53.53 0 0 1 .734-.09l.59-.808c-.66-.483-1.607-.38-2.119.291zm.733-.091 5.749 4.226.592-.805-5.749-4.227zm6.477 4.074 7.013-12.095-.865-.501-7.013 12.095zm7.013-12.095a.52.52 0 0 1 .706-.188l.5-.866a1.52 1.52 0 0 0 -2.071.553z" fill="#fff"/><g clip-rule="evenodd" fill-rule="evenodd"><path d="m25.516 64.055h8.902v-32.55h-8.902zm10.976 0h2.318v-32.55h-2.318zm4.636 0h2.318v-32.55h-2.318zm4.389 0h4.755v-32.55h-4.755zm5.73 0h3.294v-32.55h-3.293v32.55zm4.637 0h6.342v-32.55h-6.342zm7.802 0h2.318v-32.55h-2.318zm9.27-15.292v15.289h-4.27v-21.336a16.585 16.585 0 0 0 4.27 6.047zm5.733 3.36v11.929h-4.269v-14.118a16.652 16.652 0 0 0 4.27 2.189zm8.78.53v11.398h-6.95v-11.423a16.885 16.885 0 0 0 6.951.026zm-18.837 40.565 14.714-14.972h-58.47a2.362 2.362 0 0 1 -2.362-2.35 2.364 2.364 0 0 1 2.362-2.353h63.681a2.406 2.406 0 0 1 1.405.166 2.359 2.359 0 0 1 1.493 2.187c0 .873-.483 1.64-1.199 2.044l-18.284 18.605c-.905.92-2.42.915-3.34 0-.919-.917-.908-2.402 0-3.327" fill="#1a1919"/><path d="m68.632 90.218 14.714-14.97h-58.47a2.362 2.362 0 0 1 -2.362-2.353 2.362 2.362 0 0 1 2.362-2.35h63.681a2.386 2.386 0 0 1 1.405.166 2.355 2.355 0 0 1 1.493 2.184c0 .876-.483 1.643-1.199 2.047l-18.284 18.603c-.905.922-2.42.914-3.34 0-.919-.915-.908-2.402 0-3.327" fill="#008752"/><path d="m30.723 3.004a1 1 0 0 0 .659-.248l1.14-1c.695-.609.264-1.752-.659-1.752h-16.863c-8.284 0-15 6.716-15 15v13.056c0 .86 1.013 1.319 1.66.752l1-.877a1 1 0 0 0 .34-.752v-12.18c0-6.628 5.373-12 12-12h15.723zm57.127 0a1 1 0 0 1 -.66-.248l-1.14-1c-.694-.609-.264-1.752.659-1.752h16.863c8.284 0 15 6.716 15 15v13.056c0 .86-1.013 1.319-1.659.752l-1-.877a.999.999 0 0 1 -.341-.752v-12.18c0-6.628-5.373-12-12-12h-15.723zm-57.127 105.264a1 1 0 0 1 .659.248l1.14 1c.695.609.264 1.752-.659 1.752h-16.863c-8.284 0-15-6.716-15-15v-13.057c0-.86 1.013-1.319 1.66-.752l1 .877a1 1 0 0 1 .34.752v12.18c0 6.627 5.373 12 12 12zm57.127 0a1 1 0 0 0 -.66.248l-1.14 1c-.694.609-.264 1.752.659 1.752h16.863c8.284 0 15-6.716 15-15v-13.057c0-.86-1.013-1.319-1.659-.752l-1 .877a.999.999 0 0 0 -.341.752v12.18c0 6.627-5.373 12-12 12h-15.723z" fill="#1a1919"/><path d="m9.006 20.981v-3.147c0-.73.75-1.33 1.483-1.33.734 0 1.483.6 1.483 1.33v3.147c0 .733-.75 1.332-1.483 1.332-.734 0-1.483-.599-1.483-1.332zm0 3.813c0-.733.735-1.332 1.469-1.332.733 0 1.468.599 1.468 1.332v10.346c0 .73-.735 1.33-1.468 1.33-.734 0-1.47-.6-1.47-1.33v-10.346z" fill="#fffffe"/></g></svg>