<svg fill="none" height="104" viewBox="0 0 110 104" width="110" xmlns="http://www.w3.org/2000/svg"><path clip-rule="evenodd" d="m0 66.967c0-8.284 6.716-15 15-15h25c8.284 0 15 6.716 15 15v20c0 8.285-6.716 15-15 15h-25c-8.284 0-15-6.715-15-15z" fill="#f6eadb" fill-rule="evenodd"/><path clip-rule="evenodd" d="m1 66.19c0-7.855 6.367-14.223 14.222-14.223 0 0-6.34 4.02-6.192 16.197.08 6.683 4.25 10.519 6.192 21.472.27 1.519 1.778 12.331 1.778 12.331h-1c-8.284 0-15-6.715-15-15z" fill="#e4d4bf" fill-rule="evenodd"/><path clip-rule="evenodd" d="m9.513 82.511 10.478-1.525c.962-.139 1.86.539 2 1.508l.99 6.915a1.783 1.783 0 0 1 -1.494 2.016l-10.479 1.525a1.774 1.774 0 0 1 -2-1.507l-.99-6.916a1.783 1.783 0 0 1 1.495-2.016" fill="#fffffe" fill-rule="evenodd"/><path clip-rule="evenodd" d="m17.888 83.664 1.56-.239c.364-.054.703.213.756.597.052.384-.201.744-.565.799l-1.56.237c-.363.056-.705-.212-.756-.596-.054-.383.201-.743.565-.798zm.567 4.154 1.56-.238c.364-.056.705.213.756.596.053.384-.201.743-.564.798l-1.56.238c-.364.056-.704-.213-.756-.596-.053-.384.202-.743.564-.798zm-7.025 1.07 5.134-.782c.364-.056.703.212.756.596s-.202.743-.566.798l-5.132.783c-.364.056-.704-.213-.756-.596-.053-.384.2-.743.564-.8zm3.206-2.56 5.133-.782c.363-.056.704.212.757.596.051.384-.202.743-.566.798l-5.134.783c-.363.056-.703-.213-.756-.597s.202-.742.566-.798zm-3.471.528 1.442-.218c.362-.056.702.212.755.596.052.384-.203.743-.565.798l-1.442.22c-.362.054-.703-.213-.755-.597-.052-.385.201-.743.565-.799zm-.303-2.121 5.134-.782c.364-.056.704.213.756.596.053.384-.2.743-.564.798l-5.134.783c-.364.056-.704-.213-.756-.596-.053-.384.2-.743.564-.8zm-2.16-2.357 12.217-1.862c.763-.117 1.479.45 1.589 1.254l1.167 8.536c.11.805-.425 1.562-1.188 1.678l-12.217 1.863c-.763.116-1.478-.448-1.588-1.255l-1.168-8.535c-.11-.807.424-1.563 1.188-1.679zm.996.788 10.456-1.595c.701-.107 1.359.413 1.46 1.153l.957 7.002c.101.742-.39 1.435-1.092 1.543l-10.455 1.593c-.701.107-1.359-.411-1.46-1.153l-.957-7.002c-.103-.74.39-1.435 1.09-1.541z" fill="#1a1919" fill-rule="evenodd"/><path d="m1 88v-23.832c0-6.996 5.673-12.668 12.67-12.668h26.83c7.732 0 14 6.268 14 14v22.5c0 7.733-6.268 14.001-14 14.001h-25.5c-7.732 0-14-6.269-14-14z" stroke="#1a1919" stroke-linecap="round" stroke-linejoin="round" stroke-width="2"/><g clip-rule="evenodd" fill-rule="evenodd"><path d="m21 69.666 6.791-3.222 6.709 3.555v-17.999h-13.5v17.667z" fill="#008752" stroke="#1a1919" stroke-linejoin="round" stroke-width="2"/><path d="m39.826 82a.75.75 0 1 0 0 1.502h5.838a.75.75 0 0 0 0-1.501h-5.838zm-4.538 3.003a.75.75 0 1 0 0 1.5h10.376a.75.75 0 1 0 0-1.5zm-5.288 3.752a.75.75 0 0 1 .75-.75h14.914a.75.75 0 0 1 .748.69.75.75 0 0 1 -.132.882l-4.208 4.207a.75.75 0 1 1 -1.06-1.061l3.216-3.217h-13.478a.75.75 0 0 1 -.75-.75z" fill="#1a1919"/><path d="m26 16.967c0-8.284 6.716-15 15-15h25c8.284 0 15 6.716 15 15v20c0 8.284-6.716 15-15 15h-25c-8.284 0-15-6.716-15-15z" fill="#f6eadb"/><path d="m27 14.411c0-6.873 5.572-12.444 12.444-12.444 0 0-5.547 3.94-5.418 15.873.07 6.55 3.719 10.308 5.418 21.043.236 1.487 1.556 12.084 1.556 12.084-7.732 0-14-6.268-14-14v-22.557z" fill="#e4d4bf"/><path d="m36.513 32.511 10.479-1.525c.96-.139 1.86.539 2 1.508l.99 6.915a1.783 1.783 0 0 1 -1.495 2.016l-10.479 1.525a1.774 1.774 0 0 1 -2-1.507l-.99-6.916a1.783 1.783 0 0 1 1.495-2.016" fill="#fffffe"/><path d="m44.888 33.164 1.56-.239c.364-.054.703.213.757.597.051.384-.202.744-.566.799l-1.56.237c-.363.056-.705-.212-.757-.596-.053-.384.202-.743.566-.798zm.567 4.154 1.56-.238c.364-.056.705.213.757.596.053.384-.202.743-.565.798l-1.56.238c-.364.056-.704-.213-.756-.596-.053-.384.202-.743.564-.798zm-7.024 1.07 5.133-.782c.364-.056.703.211.756.595s-.202.744-.565.798l-5.133.784c-.364.056-.704-.214-.756-.596-.053-.384.201-.744.565-.8zm3.205-2.56 5.133-.782c.363-.056.703.212.757.596.051.384-.202.743-.566.798l-5.134.783c-.363.056-.703-.213-.755-.597-.054-.384.201-.742.565-.798zm-3.471.528 1.442-.218c.362-.056.702.212.755.596.052.384-.203.743-.565.798l-1.442.22c-.362.054-.702-.213-.755-.598-.052-.384.201-.742.565-.798zm-.303-2.122 5.134-.781c.364-.056.704.213.756.596.053.384-.2.743-.564.798l-5.134.783c-.364.056-.704-.213-.756-.596-.053-.384.2-.743.564-.8zm-2.16-2.356 12.217-1.862c.763-.116 1.479.45 1.589 1.254l1.167 8.536c.11.805-.425 1.562-1.188 1.678l-12.217 1.863c-.763.116-1.478-.448-1.588-1.255l-1.168-8.535c-.11-.807.424-1.563 1.188-1.679zm.996.788 10.456-1.595c.701-.107 1.359.413 1.46 1.153l.958 7.002c.1.742-.391 1.435-1.093 1.543l-10.455 1.593c-.701.107-1.359-.411-1.46-1.153l-.957-7.002c-.102-.74.39-1.435 1.09-1.541z" fill="#1a1919"/></g><path d="m26.5 37.5v-22.5c0-7.732 6.268-14 14-14h25.5c7.732 0 14 6.268 14 14v22.5c0 7.731-6.268 14-14 14h-25.5c-7.732 0-14-6.269-14-14z" stroke="#1a1919" stroke-linecap="round" stroke-linejoin="round" stroke-width="2"/><g clip-rule="evenodd" fill-rule="evenodd"><path d="m46.5 19.166 6.791-3.222 6.709 3.556v-18h-13.5z" fill="#008752" stroke="#1a1919" stroke-linejoin="round" stroke-width="2"/><path d="m66.826 31.5a.75.75 0 1 0 0 1.502h5.838a.75.75 0 0 0 0-1.502zm-4.538 3.003a.75.75 0 1 0 0 1.5h10.376a.75.75 0 1 0 0-1.5zm-5.288 3.752a.75.75 0 0 1 .75-.75h14.914a.75.75 0 0 1 .748.69.75.75 0 0 1 -.132.882l-4.207 4.207a.75.75 0 1 1 -1.062-1.061l3.217-3.217h-13.477a.75.75 0 0 1 -.751-.75z" fill="#1a1919"/><path d="m57 5.25a.75.75 0 0 0 -1.5 0 .75.75 0 0 0 1.5 0zm0 3a.75.75 0 0 0 -1.5 0v4.5a.75.75 0 0 0 1.5 0z" fill="#fff"/><path d="m55.5 67.435c0-8.285 6.716-15 15-15h24c8.284 0 15 6.715 15 15v21c0 8.284-6.716 15-15 15h-24c-8.284 0-15-6.716-15-15z" fill="#f6eadb"/><path d="m56 63.99c0-6.382 5.174-11.555 11.556-11.555 0 0-5.152 4.02-5.032 16.197.066 6.683 3.453 10.518 5.032 21.472.218 1.518 1.444 12.331 1.444 12.331-7.18 0-13-5.82-13-13z" fill="#e4d4bf"/><path d="m64.013 76.978 9.987-1.507c.962-.14 1.86.538 2 1.507l1 6.957a1.783 1.783 0 0 1 -1.495 2.016l-10.505 1.984a1.774 1.774 0 0 1 -2-1.507l-1-7.493c-.138-.969 1.052-1.818 2.013-1.957z" fill="#fffffe"/><path d="m71.888 78.132 1.56-.24c.364-.054.703.214.756.598.052.384-.201.743-.565.798l-1.56.237c-.363.056-.705-.211-.757-.595-.053-.384.202-.744.566-.799zm.567 4.153 1.56-.238c.364-.056.705.213.757.596.052.384-.202.743-.565.798l-1.56.238c-.364.056-.705-.213-.756-.596-.053-.384.202-.744.564-.798zm-7.024 1.07 5.133-.783c.364-.056.703.212.756.596s-.202.744-.565.798l-5.133.783c-.364.056-.704-.213-.756-.596-.053-.384.201-.743.565-.799zm3.205-2.56 5.133-.782c.363-.056.703.212.756.596.052.384-.201.743-.565.798l-5.134.783c-.363.056-.702-.213-.755-.597-.054-.384.201-.743.565-.799zm-3.471.528 1.442-.218c.362-.056.702.211.755.595.052.384-.203.744-.565.799l-1.442.22c-.362.054-.703-.214-.755-.598s.201-.742.565-.798zm-.303-2.121 5.134-.782c.364-.056.704.213.756.596.053.384-.2.743-.564.798l-5.134.783c-.364.056-.704-.213-.756-.596-.053-.384.2-.743.564-.8zm-2.16-2.357 12.217-1.863c.763-.116 1.479.45 1.589 1.255l1.167 8.536c.11.805-.425 1.562-1.188 1.678l-12.217 1.863c-.763.116-1.478-.448-1.588-1.255l-1.168-8.536c-.11-.806.424-1.562 1.188-1.678zm.996.788 10.456-1.595c.702-.107 1.359.413 1.46 1.153l.957 7.001c.102.743-.39 1.435-1.092 1.543l-10.455 1.595c-.701.106-1.359-.411-1.46-1.154l-.957-7c-.102-.742.39-1.436 1.09-1.542z" fill="#1a1919"/></g><path d="m55 88.467v-22.5c0-7.732 6.268-14 14-14h25.5c7.732 0 14 6.268 14 14v22.363c0 7.703-6.222 13.959-13.924 14l-25.5.138c-7.762.042-14.076-6.238-14.076-14z" stroke="#1a1919" stroke-linecap="round" stroke-linejoin="round" stroke-width="2"/><path d="m75 70.134 6.791-3.222 6.709 3.555v-18h-13.5z" style="fill:#008752;fill-rule:evenodd;stroke:#1a1919;stroke-linejoin:round;stroke-width:2;clip-rule:evenodd"/><path clip-rule="evenodd" d="m95.326 82.468a.75.75 0 1 0 0 1.5h5.838a.75.75 0 1 0 0-1.5zm-4.538 3.002a.75.75 0 1 0 0 1.5h10.376a.75.75 0 1 0 0-1.5zm-5.288 3.752a.75.75 0 0 1 .75-.75h14.914a.75.75 0 0 1 .748.69.75.75 0 0 1 -.132.882l-4.207 4.207a.75.75 0 1 1 -1.062-1.061l3.217-3.217h-13.477a.75.75 0 0 1 -.751-.75z" fill="#1a1919" fill-rule="evenodd"/><path clip-rule="evenodd" d="m85.5 56.218a.75.75 0 0 0 -1.5 0 .75.75 0 0 0 1.5 0zm0 3a.75.75 0 0 0 -1.5 0v4.5a.75.75 0 0 0 1.5 0zm-54-3.468a.75.75 0 0 0 -1.5 0 .75.75 0 0 0 1.5 0zm0 3a.75.75 0 0 0 -1.5 0v4.5a.75.75 0 0 0 1.5 0z" fill="#fff" fill-rule="evenodd"/></svg>