<svg fill="none" height="114" viewBox="0 0 119 114" width="119" xmlns="http://www.w3.org/2000/svg"><rect fill="#f6eadb" height="99" rx="15" transform="matrix(.98768834 -.15643447 .15643447 .98768834 -2.414065 .432392)" width="99.418" x="1.539" y="15.553"/><path clip-rule="evenodd" d="m25.969 25.533h62.741c3.515 0 6.387 2.855 6.387 6.34v30.293c0 3.487-2.872 6.337-6.387 6.337h-62.74c-3.512 0-6.387-2.85-6.387-6.337v-30.293c0-3.485 2.875-6.34 6.387-6.34" fill="#fffffe" fill-rule="evenodd"/><g fill="#1a1919"><path clip-rule="evenodd" d="m25.608 64.082h8.934v-32.55h-8.934zm11.015 0h2.327v-32.55h-2.327zm4.653 0h2.326v-32.55h-2.326zm4.405 0h4.773v-32.55h-4.774v32.55zm5.752 0h3.305v-32.55h-3.305zm4.652 0h6.366v-32.55h-6.366zm7.83 0h2.327v-32.55h-2.326v32.55zm9.304-32.425v32.423h-4.285v-32.547c.782 0 2.724 0 4.285.124zm5.754-.124c-.097 1.77 0 32.547 0 32.547h-4.283v-32.547h4.284zm8.812 12.149v20.397h-6.975v-32.423c1.173 0 5.874 0 6.976.026v12z" fill-rule="evenodd"/><path d="m21.082 46.533h72.317v6h-72.317z" stroke="#fff" stroke-width="3"/><path clip-rule="evenodd" d="m68.88 93.248 14.767-14.973h-58.681c-1.306 0-2.371-1.057-2.371-2.35s1.065-2.353 2.37-2.353h63.912c.47-.085.966-.03 1.41.166a2.359 2.359 0 0 1 1.499 2.187 2.35 2.35 0 0 1 -1.204 2.044l-18.35 18.605c-.909.92-2.428.915-3.352 0-.922-.917-.912-2.401 0-3.326m-38.157-90.248a1 1 0 0 0 .659-.249l1.14-1c.695-.608.264-1.751-.659-1.751h-16.863c-8.284 0-15 6.715-15 15v13.057c0 .86 1.013 1.318 1.66.752l1-.877a1 1 0 0 0 .34-.752v-12.18c0-6.629 5.373-12 12-12zm57.127 0a1 1 0 0 1 -.66-.249l-1.14-1c-.695-.608-.265-1.751.658-1.751h16.863c8.284 0 15 6.715 15 15v13.057c0 .86-1.013 1.318-1.659.752l-1-.877a.999.999 0 0 1 -.341-.752v-12.18c0-6.628-5.373-12-12-12h-15.722zm-57.127 105.264a1 1 0 0 1 .659.248l1.14 1c.695.608.264 1.752-.659 1.752h-16.863c-8.284 0-15-6.716-15-15v-13.057c0-.86 1.013-1.32 1.66-.752l1 .876a1 1 0 0 1 .34.752v12.18c0 6.628 5.373 12.001 12 12.001zm57.127 0a1 1 0 0 0 -.66.248l-1.14 1c-.694.608-.264 1.752.659 1.752h16.863c8.284 0 15-6.716 15-15v-13.057c0-.86-1.013-1.32-1.659-.752l-1 .876a.999.999 0 0 0 -.341.752v12.18c0 6.628-5.373 12.001-12 12.001h-15.723z" fill-rule="evenodd"/></g><path clip-rule="evenodd" d="m9.038 21.01v-3.147c0-.73.753-1.33 1.489-1.33s1.489.6 1.489 1.33v3.147c0 .733-.753 1.332-1.49 1.332-.735 0-1.488-.6-1.488-1.332zm0 3.813c0-.733.738-1.332 1.474-1.332s1.474.599 1.474 1.332v10.346c0 .73-.738 1.33-1.474 1.33s-1.474-.6-1.474-1.33z" fill="#fffffe" fill-rule="evenodd"/></svg>