<svg fill="none" height="109" viewBox="0 0 119 109" width="119" xmlns="http://www.w3.org/2000/svg"><g clip-rule="evenodd" fill-rule="evenodd"><path d="m0 15.001c0-8.284 6.716-15 15-15h87c8.284 0 15 6.716 15 15v78.404c0 8.285-6.716 15-15 15h-87c-8.284 0-15-6.715-15-15v-78.403z" fill="#f6eadb"/><path d="m0 15.001c0-8.284 6.716-15 15-15h2.587s-9.027 8.838-8.735 35.604c.16 14.691 4.892 23.122 8.735 47.2.826 5.168 0 22.589 0 22.589h-2.587c-8.284 0-15-6.716-15-15z" fill="#e4d4bf"/><path d="m117 65.204v-50.204c0-8.284-6.716-15-15-15h-87c-8.284 0-15 6.716-15 15v78.265c0 8.285 6.716 15 15 15h57.993c1.507.108 1.507-3 0-3h-57.993c-6.627 0-12-5.372-12-12v-78.265c0-6.628 5.373-12 12-12h87c6.627 0 12 5.372 12 12v50.204c0 1.169 3 1.169 3 0z" fill="#000"/><path d="m45 27.884 14.337-6.992 14.163 7.715v-27.101h-28.5z" fill="#008752" stroke="#000" stroke-width="3"/><path d="m47 25.597 7-3.786c-4.045-4.057-3.105-15.845-1.217-18.798h-6.283z" fill="#076842"/><path d="m16.182 71.705 22.035-3.26c2.02-.298 3.912 1.15 4.205 3.222l2.083 14.787c.293 2.072-1.123 4.01-3.144 4.31l-22.035 3.261c-2.021.298-3.912-1.15-4.205-3.223l-2.083-14.786c-.29-2.072 1.123-4.013 3.144-4.31" fill="#fffffe"/><path d="m34.406 74.733 3.216-.478c.749-.11 1.448.426 1.557 1.194.107.768-.416 1.487-1.165 1.597l-3.216.475c-.747.112-1.451-.424-1.558-1.192-.109-.768.416-1.486 1.166-1.596zm1.168 8.305 3.216-.475c.749-.112 1.45.426 1.557 1.191.11.768-.416 1.487-1.163 1.596l-3.216.476c-.75.112-1.45-.426-1.557-1.192-.11-.768.416-1.487 1.163-1.596zm-14.475 2.142 10.579-1.564c.749-.112 1.448.424 1.557 1.192.11.768-.416 1.487-1.165 1.596l-10.576 1.566c-.75.112-1.451-.426-1.558-1.192-.109-.768.414-1.486 1.163-1.598zm6.605-5.12 10.576-1.563c.75-.112 1.45.424 1.56 1.192.107.768-.416 1.487-1.165 1.596l-10.579 1.565c-.75.112-1.448-.426-1.557-1.194-.11-.768.416-1.484 1.165-1.597zm-7.152 1.058 2.97-.437c.748-.112 1.449.423 1.558 1.191.107.768-.418 1.487-1.165 1.597l-2.97.44c-.747.109-1.449-.427-1.558-1.195-.107-.768.416-1.484 1.165-1.596zm-.624-4.244 10.579-1.564c.75-.112 1.45.427 1.557 1.192.11.768-.413 1.487-1.162 1.596l-10.579 1.566c-.75.112-1.45-.426-1.557-1.192-.11-.767.413-1.486 1.162-1.598zm-4.45-4.713 25.173-3.725c1.573-.232 3.048.9 3.275 2.51l2.405 17.071c.227 1.61-.877 3.124-2.448 3.356l-25.176 3.727c-1.57.232-3.045-.897-3.272-2.51l-2.405-17.071c-.227-1.613.872-3.124 2.448-3.357zm2.05 1.574 21.547-3.19c1.445-.213 2.8.826 3.008 2.307l1.973 14.002c.208 1.484-.805 2.87-2.25 3.086l-21.544 3.187c-1.446.213-2.8-.823-3.011-2.307l-1.97-14.002c-.212-1.481.802-2.87 2.247-3.083zm-1.023-32.331h19.485c.649 0 1.51.785 1.51 1.506 0 .72-.612 1.506-1.26 1.506h-19.736c-.646 0-1.53-.42-1.504-1.543.026-1.122 1.504-1.469 1.504-1.469zm.502 6h25.98c.865 0 2.013.785 2.013 1.506 0 .72-.816 1.506-1.68 1.506h-26.314c-.862 0-2.041-.42-2.006-1.543.035-1.122 2.006-1.469 2.006-1.469zm-.507-12h10.5c.64 0 1.5.785 1.5 1.506 0 .72-.612 1.506-1.5 1.506h-10.5c-.641 0-1.525-.42-1.5-1.506.027-1.159 1.5-1.506 1.5-1.506z" fill="#1a1919"/><path d="m66 8.793v-2.085c0-.717.672-1.304 1.499-1.304.826 0 1.501.587 1.501 1.304v2.085c0 .718-.675 1.306-1.501 1.306-.827 0-1.499-.588-1.499-1.306zm0 3.739c0-.719.672-1.306 1.499-1.306.826 0 1.501.587 1.501 1.306v5.143c0 .716-.675 1.303-1.501 1.303-.827 0-1.499-.587-1.499-1.303z" fill="#fffffe"/><path d="m101.762 70.771c9.159-.04 16.598 7.39 16.571 16.549l-.014 4.804c-.027 9.138-7.476 16.514-16.613 16.451l-16.171-.111a1.5 1.5 0 0 1 .02-3l16.171.111c7.476.052 13.571-5.983 13.593-13.46l.014-4.804c.022-7.494-6.064-13.572-13.558-13.54l-2.76.012c-7.116.03-12.986 5.58-13.417 12.682l-.205 3.366-.377 2.54 7.936-5.883a1.5 1.5 0 1 1 1.787 2.41l-10.846 8.04a1.5 1.5 0 0 1 -2.098-.313l-8.04-10.845a1.5 1.5 0 1 1 2.41-1.787l5.883 7.937.359-2.411.196-3.236c.527-8.681 7.702-15.462 16.399-15.5z" fill="#000"/></g></svg>