<svg width="160" height="20" viewBox="0 0 160 20" fill="none" xmlns="http://www.w3.org/2000/svg">
<path d="M38.8143 7.28151C38.8143 7.99046 38.6434 8.65511 38.3016 9.27544C37.9724 9.89578 37.447 10.3958 36.7254 10.7756C36.0165 11.1554 35.1176 11.3453 34.0288 11.3453H31.807V16.4346H29.1484V3.17969H34.0288C35.0543 3.17969 35.9278 3.35693 36.6494 3.7114C37.3711 4.06588 37.9091 4.55329 38.2636 5.17363C38.6307 5.79396 38.8143 6.49659 38.8143 7.28151ZM33.9149 9.19949C34.6492 9.19949 35.1936 9.03491 35.548 8.70575C35.9025 8.36393 36.0798 7.88918 36.0798 7.28151C36.0798 5.99019 35.3581 5.34454 33.9149 5.34454H31.807V9.19949H33.9149Z" fill="#201D22"/>
<path d="M45.3734 16.6055C44.3606 16.6055 43.4491 16.384 42.6388 15.9409C41.8286 15.4851 41.1893 14.8458 40.7209 14.0229C40.2651 13.2 40.0372 12.2505 40.0372 11.1744C40.0372 10.0983 40.2714 9.14885 40.7398 8.32595C41.2209 7.50305 41.8729 6.87006 42.6958 6.42696C43.5187 5.9712 44.4365 5.74332 45.4493 5.74332C46.4621 5.74332 47.38 5.9712 48.2029 6.42696C49.0258 6.87006 49.6714 7.50305 50.1398 8.32595C50.6209 9.14885 50.8615 10.0983 50.8615 11.1744C50.8615 12.2505 50.6146 13.2 50.1209 14.0229C49.6398 14.8458 48.9815 15.4851 48.1459 15.9409C47.323 16.384 46.3988 16.6055 45.3734 16.6055ZM45.3734 14.2888C45.8545 14.2888 46.3039 14.1748 46.7217 13.947C47.1521 13.7064 47.4939 13.3519 47.7471 12.8835C48.0003 12.4151 48.1269 11.8454 48.1269 11.1744C48.1269 10.1743 47.8611 9.40837 47.3293 8.87666C46.8103 8.33228 46.171 8.06009 45.4114 8.06009C44.6518 8.06009 44.0124 8.33228 43.4934 8.87666C42.987 9.40837 42.7338 10.1743 42.7338 11.1744C42.7338 12.1746 42.9806 12.9468 43.4744 13.4912C43.9808 14.0229 44.6138 14.2888 45.3734 14.2888Z" fill="#201D22"/>
<path d="M56.8375 16.6055C55.9766 16.6055 55.2044 16.4536 54.5207 16.1498C53.8371 15.8333 53.2927 15.4092 52.8876 14.8775C52.4951 14.3457 52.2799 13.7571 52.2419 13.1114H54.9195C54.9701 13.5165 55.1664 13.852 55.5082 14.1179C55.8627 14.3837 56.2994 14.5167 56.8185 14.5167C57.3249 14.5167 57.7174 14.4154 57.9959 14.2128C58.2871 14.0103 58.4326 13.7507 58.4326 13.4342C58.4326 13.0924 58.2554 12.8392 57.9009 12.6746C57.5591 12.4974 57.0084 12.3075 56.2488 12.1049C55.4639 11.915 54.8182 11.7188 54.3118 11.5163C53.8181 11.3137 53.3877 11.0035 53.0205 10.5857C52.666 10.168 52.4888 9.6046 52.4888 8.89565C52.4888 8.31329 52.6534 7.78157 52.9825 7.3005C53.3244 6.81942 53.8054 6.43962 54.4258 6.1611C55.0588 5.88258 55.7994 5.74332 56.6476 5.74332C57.9009 5.74332 58.9011 6.05982 59.648 6.69282C60.3949 7.31316 60.8064 8.15504 60.8823 9.21847H58.3377C58.2997 8.8007 58.1225 8.47154 57.806 8.231C57.5021 7.9778 57.0907 7.8512 56.5716 7.8512C56.0906 7.8512 55.7171 7.93982 55.4512 8.11706C55.198 8.2943 55.0714 8.54117 55.0714 8.85767C55.0714 9.21215 55.2487 9.48433 55.6031 9.67423C55.9576 9.85147 56.5083 10.035 57.2553 10.2249C58.0149 10.4148 58.6415 10.6111 59.1353 10.8136C59.629 11.0162 60.0531 11.3327 60.4076 11.7631C60.7747 12.1809 60.9646 12.7379 60.9773 13.4342C60.9773 14.0419 60.8064 14.5863 60.4646 15.0674C60.1354 15.5484 59.6543 15.9282 59.0213 16.2068C58.401 16.4726 57.673 16.6055 56.8375 16.6055Z" fill="#201D22"/>
<path d="M66.255 8.09807V13.1874C66.255 13.5418 66.3373 13.8014 66.5019 13.966C66.6791 14.1179 66.9703 14.1938 67.3754 14.1938H68.6097V16.4346H66.9386C64.6978 16.4346 63.5774 15.3459 63.5774 13.1684V8.09807H62.3241V5.91423H63.5774V3.31262H66.255V5.91423H68.6097V8.09807H66.255Z" fill="#201D22"/>
<path d="M78.6116 8.53484V10.7756H70.5599V8.53484H78.6116Z" fill="#201D22"/>
<path d="M80.9096 11.1365C80.9096 10.073 81.1185 9.12986 81.5362 8.30696C81.9667 7.48406 82.5427 6.85107 83.2643 6.40797C83.9986 5.96487 84.8151 5.74332 85.714 5.74332C86.4989 5.74332 87.1826 5.90157 87.7649 6.21807C88.3599 6.53457 88.8347 6.93336 89.1892 7.41443V5.91423H91.8667V16.4346H89.1892V14.8965C88.8473 15.3902 88.3726 15.8016 87.7649 16.1308C87.1699 16.4473 86.4799 16.6055 85.695 16.6055C84.8088 16.6055 83.9986 16.3777 83.2643 15.9219C82.5427 15.4662 81.9667 14.8268 81.5362 14.0039C81.1185 13.1684 80.9096 12.2125 80.9096 11.1365ZM89.1892 11.1744C89.1892 10.5288 89.0626 9.97807 88.8094 9.52231C88.5562 9.0539 88.2143 8.69942 87.7839 8.45888C87.3535 8.20568 86.8914 8.07908 86.3976 8.07908C85.9039 8.07908 85.4481 8.19935 85.0304 8.43989C84.6126 8.68043 84.2708 9.03491 84.0049 9.50332C83.7517 9.95908 83.6251 10.5035 83.6251 11.1365C83.6251 11.7695 83.7517 12.3265 84.0049 12.8076C84.2708 13.276 84.6126 13.6368 85.0304 13.89C85.4608 14.1432 85.9166 14.2698 86.3976 14.2698C86.8914 14.2698 87.3535 14.1495 87.7839 13.909C88.2143 13.6558 88.5562 13.3013 88.8094 12.8455C89.0626 12.3771 89.1892 11.8201 89.1892 11.1744Z" fill="#201D22"/>
<path d="M102.553 8.53484V10.7756H94.5013V8.53484H102.553Z" fill="#201D22"/>
<path d="M112.371 16.4346L109.446 11.2694H108.193V16.4346H105.535V3.17969H110.51C111.535 3.17969 112.409 3.36326 113.131 3.73039C113.852 4.08487 114.39 4.57228 114.745 5.19262C115.112 5.80029 115.295 6.48393 115.295 7.24353C115.295 8.11706 115.042 8.90831 114.536 9.61726C114.029 10.3136 113.276 10.7946 112.276 11.0605L115.447 16.4346H112.371ZM108.193 9.27544H110.415C111.137 9.27544 111.675 9.10454 112.029 8.76272C112.384 8.40824 112.561 7.92083 112.561 7.3005C112.561 6.69282 112.384 6.2244 112.029 5.89524C111.675 5.55343 111.137 5.38252 110.415 5.38252H108.193V9.27544Z" fill="#201D22"/>
<path d="M122.371 16.6055C121.359 16.6055 120.447 16.384 119.637 15.9409C118.827 15.4851 118.187 14.8458 117.719 14.0229C117.263 13.2 117.035 12.2505 117.035 11.1744C117.035 10.0983 117.27 9.14885 117.738 8.32595C118.219 7.50305 118.871 6.87006 119.694 6.42696C120.517 5.9712 121.435 5.74332 122.447 5.74332C123.46 5.74332 124.378 5.9712 125.201 6.42696C126.024 6.87006 126.67 7.50305 127.138 8.32595C127.619 9.14885 127.86 10.0983 127.86 11.1744C127.86 12.2505 127.613 13.2 127.119 14.0229C126.638 14.8458 125.98 15.4851 125.144 15.9409C124.321 16.384 123.397 16.6055 122.371 16.6055ZM122.371 14.2888C122.853 14.2888 123.302 14.1748 123.72 13.947C124.15 13.7064 124.492 13.3519 124.745 12.8835C124.998 12.4151 125.125 11.8454 125.125 11.1744C125.125 10.1743 124.859 9.40837 124.327 8.87666C123.808 8.33228 123.169 8.06009 122.409 8.06009C121.65 8.06009 121.011 8.33228 120.491 8.87666C119.985 9.40837 119.732 10.1743 119.732 11.1744C119.732 12.1746 119.979 12.9468 120.472 13.4912C120.979 14.0229 121.612 14.2888 122.371 14.2888Z" fill="#201D22"/>
<path d="M134.481 16.6055C133.468 16.6055 132.557 16.384 131.747 15.9409C130.936 15.4851 130.297 14.8458 129.829 14.0229C129.373 13.2 129.145 12.2505 129.145 11.1744C129.145 10.0983 129.379 9.14885 129.848 8.32595C130.329 7.50305 130.981 6.87006 131.804 6.42696C132.627 5.9712 133.544 5.74332 134.557 5.74332C135.57 5.74332 136.488 5.9712 137.311 6.42696C138.134 6.87006 138.779 7.50305 139.248 8.32595C139.729 9.14885 139.969 10.0983 139.969 11.1744C139.969 12.2505 139.722 13.2 139.229 14.0229C138.748 14.8458 138.089 15.4851 137.254 15.9409C136.431 16.384 135.507 16.6055 134.481 16.6055ZM134.481 14.2888C134.962 14.2888 135.412 14.1748 135.83 13.947C136.26 13.7064 136.602 13.3519 136.855 12.8835C137.108 12.4151 137.235 11.8454 137.235 11.1744C137.235 10.1743 136.969 9.40837 136.437 8.87666C135.918 8.33228 135.279 8.06009 134.519 8.06009C133.76 8.06009 133.12 8.33228 132.601 8.87666C132.095 9.40837 131.842 10.1743 131.842 11.1744C131.842 12.1746 132.089 12.9468 132.582 13.4912C133.089 14.0229 133.722 14.2888 134.481 14.2888Z" fill="#201D22"/>
<path d="M154.985 5.76231C156.276 5.76231 157.314 6.1611 158.099 6.95868C158.896 7.74359 159.295 8.84501 159.295 10.2629V16.4346H156.637V10.6237C156.637 9.80083 156.428 9.17416 156.01 8.74373C155.592 8.30063 155.023 8.07908 154.301 8.07908C153.579 8.07908 153.003 8.30063 152.573 8.74373C152.155 9.17416 151.946 9.80083 151.946 10.6237V16.4346H149.288V10.6237C149.288 9.80083 149.079 9.17416 148.661 8.74373C148.243 8.30063 147.673 8.07908 146.952 8.07908C146.218 8.07908 145.635 8.30063 145.205 8.74373C144.787 9.17416 144.578 9.80083 144.578 10.6237V16.4346H141.92V5.91423H144.578V7.18656C144.92 6.74346 145.357 6.39531 145.888 6.14211C146.433 5.88891 147.028 5.76231 147.673 5.76231C148.496 5.76231 149.231 5.93955 149.876 6.29403C150.522 6.63585 151.022 7.12959 151.376 7.77524C151.718 7.16757 152.212 6.68016 152.858 6.31302C153.516 5.94588 154.225 5.76231 154.985 5.76231Z" fill="#201D22"/>
<path d="M0.935547 6.93934C0.935547 3.4434 3.76957 0.609375 7.26551 0.609375H13.5955C17.0914 0.609375 19.9254 3.4434 19.9254 6.93934V13.2693C19.9254 16.7653 17.0914 19.5993 13.5955 19.5993H7.26551C3.76957 19.5993 0.935547 16.7653 0.935547 13.2693V6.93934Z" fill="#69238C"/>
</svg>
