<svg width="96" height="96" viewBox="0 0 96 96" fill="none" xmlns="http://www.w3.org/2000/svg">
<path d="M46.3369 11.0938L50.1805 84.4333" stroke="#69238C" stroke-width="4" stroke-linecap="round" stroke-linejoin="round"/>
<path d="M67.2648 32.6251C67.1677 30.773 66.7068 28.9581 65.9083 27.2841C65.1099 25.6101 63.9895 24.1097 62.6112 22.8687C61.2329 21.6277 59.6237 20.6703 57.8754 20.0512C56.1271 19.4321 54.274 19.1634 52.4219 19.2605L39.7285 19.9257C35.9879 20.1217 32.4785 21.7957 29.9721 24.5793C27.4658 27.3628 26.1678 31.0281 26.3639 34.7686C26.5599 38.5092 28.2338 42.0186 31.0174 44.525C33.801 47.0313 37.4662 48.3293 41.2068 48.1332L56.7209 47.3202C60.4615 47.1241 64.1267 48.4221 66.9103 50.9284C69.6939 53.4348 71.3678 56.9442 71.5638 60.6848C71.7599 64.4253 70.4619 68.0906 67.9556 70.8741C65.4492 73.6577 61.9398 75.3317 58.1992 75.5277L41.2747 76.4147C37.5342 76.6107 33.8689 75.3128 31.0853 72.8064C28.3018 70.3001 26.6278 66.7906 26.4318 63.05" stroke="#69238C" stroke-width="4" stroke-linecap="round" stroke-linejoin="round"/>
</svg>
