<svg width="246" height="526" viewBox="0 0 246 526" fill="none" xmlns="http://www.w3.org/2000/svg">
<g clip-path="url(#clip0_905_5783)">
<rect x="3" y="3.20557" width="240" height="520" rx="30" fill="#F8F7F6"/>
<path d="M47.326 266.065L11.4937 214.661L-1.60059 216.873V279.779L2.64621 301.632L47.326 266.065Z" fill="#D1EDC2"/>
<path d="M220.607 237.641L161.249 129.569L213.511 104.445L264.43 203.503L271.43 206.955L241.895 233.326L220.607 237.641Z" fill="#D1EDC2"/>
<path d="M123.754 515.539L139.768 505.566L-12.7021 497.319V560.609L9.83274 584.39L37.5459 631.666H110.329L123.754 599.158L134.59 590.911L121.165 576.143L126.822 570.102L107.356 540.663L131.617 526.375L123.754 515.539Z" fill="#D1EDC2"/>
<path d="M160.385 411.303L127.015 357.315L-8.96191 469.894V497.319L123.754 504.703L170.934 507.005L186.948 511.128L214.853 493.196L186.948 453.4L160.385 411.303Z" fill="#D1EDC2"/>
<path d="M123.659 247.518L166.14 321.931" stroke="white" stroke-width="3.53899"/>
<path d="M134.878 239.942L178.797 314.355" stroke="white" stroke-width="3.53899"/>
<path d="M114.932 -36.0386L139.96 55.3476L150.516 108.312C150.828 109.88 151.38 111.39 152.153 112.79L215.524 227.668L223.609 240.604C225.216 243.175 227.539 245.221 230.292 246.491L242.722 252.223C244.767 253.166 246.992 253.655 249.243 253.655H271.333L306.91 249.339" stroke="white" stroke-width="7.25494"/>
<path d="M294.732 251.258L167.198 323.239C166.366 323.708 165.579 324.254 164.847 324.868L58.4514 414.084L-19.0303 479.483" stroke="white" stroke-width="7.25494"/>
<path d="M173.235 321.355L301.444 514.867" stroke="white" stroke-width="7.25494"/>
<path d="M231.251 408.235L307.87 360.768" stroke="white" stroke-width="7.25494"/>
<path d="M-12.8926 497.416L171.481 506.065C173.894 506.179 176.245 506.87 178.335 508.082V508.082C183.363 510.998 189.619 510.762 194.414 507.477L308.062 429.619" stroke="white" stroke-width="7.25494"/>
<path d="M186.182 511.128L177.551 537.69L169.572 564.649C167.933 570.186 169.492 576.175 173.623 580.209L181.775 588.17C182.79 589.162 183.936 590.01 185.181 590.691L255.704 629.268" stroke="white" stroke-width="7.25494"/>
<path d="M143.413 345.137L30.3555 197.749" stroke="white" stroke-width="7.25494"/>
<path d="M-12.4131 210.024L128.039 163.175C130.574 162.329 132.849 160.846 134.645 158.866L160.962 129.857" stroke="white" stroke-width="7.25494"/>
<path d="M-11.7422 106.938L303.938 50.3613" stroke="white" stroke-width="7.25494"/>
<path d="M46.1768 -37.5723L81.5613 88.6231" stroke="white" stroke-width="7.25494"/>
<path d="M9.64258 -34.791L43.9723 95.8154" stroke="white" stroke-width="7.25494"/>
<path d="M-12.2227 46.0469L200.315 -12.9016C201.752 -13.3003 203.125 -13.9035 204.391 -14.6926L240.168 -36.9966" stroke="white" stroke-width="7.25494"/>
<path d="M71.1094 248.573L120.021 211.982C121.162 211.128 122.181 210.122 123.048 208.991L170.071 147.693" stroke="white" stroke-width="7.25494"/>
<path d="M44.2598 97.7324L119.152 213.092" stroke="white" stroke-width="7.25494"/>
<path d="M161.344 128.227L304.225 64.7456" stroke="white" stroke-width="7.25494"/>
<path d="M173.619 -36.7095L199.702 67.814L213.607 104.637L264.466 201.499C267.156 206.623 272.466 209.832 278.252 209.832H301.157" stroke="white" stroke-width="7.25494"/>
<path d="M3.60042 205.612L75.9129 303.487C80.7301 310.007 79.7391 319.132 73.6346 324.466L40.7631 353.188C37.6027 355.95 33.4614 357.319 29.2778 356.985L-17.0166 353.288" stroke="white" stroke-width="7.25494"/>
<path d="M35.1494 356.836L50.1087 417.824" stroke="white" stroke-width="7.25494"/>
<path d="M76.4795 323.753L112.919 368.535" stroke="white" stroke-width="7.25494"/>
<path d="M185.606 342.26L301.349 283.094" stroke="white" stroke-width="7.25494"/>
<path d="M142.262 -35.7505L171.701 71.9375" stroke="white" stroke-width="7.25494"/>
<path d="M157.318 330.657L96.042 230.737" stroke="white" stroke-width="3.53899"/>
<path d="M110.714 254.327L174.195 216.161L214.95 294.698" stroke="white" stroke-width="3.53899"/>
<path d="M150.222 231.696L194.428 304.67" stroke="white" stroke-width="3.53899"/>
<path d="M174.098 215.969L150.029 176.077" stroke="white" stroke-width="3.53899"/>
<path d="M151.469 268.23L191.264 245.983L240.458 233.421L297.802 183.94" stroke="white" stroke-width="3.53899"/>
<path d="M118.864 212.133L135.646 240.997" stroke="white" stroke-width="3.53899"/>
<path d="M47.3277 265.93L-12.6055 314.931" stroke="white" stroke-width="3.53899"/>
<path d="M61.1371 280.792L-9.05664 336.89" stroke="white" stroke-width="3.53899"/>
<path d="M-12.4131 281.368L45.1228 349.644" stroke="white" stroke-width="3.53899"/>
<path d="M51.0674 344.082L91.9179 386.275" stroke="white" stroke-width="3.53899"/>
<path d="M37.1631 66.9507L188.387 24.5659" stroke="white" stroke-width="3.53899"/>
<path d="M-7.23535 -8.4209L21.2449 100.897" stroke="white" stroke-width="3.53899"/>
<path d="M-11.5498 171.283L155.784 119.213" stroke="white" stroke-width="3.53899"/>
<path d="M196.537 -30.7642L204.304 -14.75L231.634 13.5385L250.717 58.8959L285.718 125.35L237.292 150.09" stroke="white" stroke-width="3.53899"/>
<path d="M89.6162 52.7588L104.671 107.13H117.233L120.686 122.185L117.233 131.679" stroke="white" stroke-width="3.53899"/>
<g filter="url(#filter0_d_905_5783)">
<ellipse cx="187.028" cy="321.45" rx="5.83934" ry="5.75086" fill="#F56700"/>
<path d="M192.248 321.45C192.248 324.275 189.92 326.581 187.028 326.581C184.136 326.581 181.808 324.275 181.808 321.45C181.808 318.624 184.136 316.318 187.028 316.318C189.92 316.318 192.248 318.624 192.248 321.45Z" stroke="white" stroke-width="1.23865"/>
</g>
<g filter="url(#filter1_d_905_5783)">
<ellipse cx="127.927" cy="267.48" rx="5.83934" ry="5.75086" fill="#F56700"/>
<path d="M133.147 267.48C133.147 270.306 130.819 272.612 127.927 272.612C125.035 272.612 122.707 270.306 122.707 267.48C122.707 264.655 125.035 262.349 127.927 262.349C130.819 262.349 133.147 264.655 133.147 267.48Z" stroke="white" stroke-width="1.23865"/>
</g>
<g filter="url(#filter2_d_905_5783)">
<ellipse cx="57.3247" cy="211.741" rx="5.83934" ry="5.75086" fill="#F56700"/>
<path d="M62.5447 211.741C62.5447 214.566 60.2166 216.873 57.3247 216.873C54.4328 216.873 52.1047 214.566 52.1047 211.741C52.1047 208.916 54.4328 206.61 57.3247 206.61C60.2166 206.61 62.5447 208.916 62.5447 211.741Z" stroke="white" stroke-width="1.23865"/>
</g>
<g filter="url(#filter3_d_905_5783)">
<ellipse cx="123.68" cy="149.631" rx="5.83934" ry="5.75086" fill="#F56700"/>
<path d="M128.9 149.631C128.9 152.456 126.572 154.763 123.68 154.763C120.788 154.763 118.46 152.456 118.46 149.631C118.46 146.806 120.788 144.5 123.68 144.5C126.572 144.5 128.9 146.806 128.9 149.631Z" stroke="white" stroke-width="1.23865"/>
</g>
<g filter="url(#filter4_d_905_5783)">
<ellipse cx="208.617" cy="44.5238" rx="5.83934" ry="5.75086" fill="#F56700"/>
<path d="M213.837 44.5238C213.837 47.349 211.509 49.6554 208.617 49.6554C205.725 49.6554 203.397 47.349 203.397 44.5238C203.397 41.6986 205.725 39.3923 208.617 39.3923C211.509 39.3923 213.837 41.6986 213.837 44.5238Z" stroke="white" stroke-width="1.23865"/>
</g>
<g filter="url(#filter5_d_905_5783)">
<ellipse cx="134.828" cy="218.819" rx="5.83934" ry="5.75086" fill="#F56700"/>
<path d="M140.048 218.819C140.048 221.644 137.72 223.951 134.828 223.951C131.936 223.951 129.608 221.644 129.608 218.819C129.608 215.994 131.936 213.688 134.828 213.688C137.72 213.688 140.048 215.994 140.048 218.819Z" stroke="white" stroke-width="1.23865"/>
</g>
<g filter="url(#filter6_d_905_5783)">
<ellipse cx="92.7124" cy="366.572" rx="5.83934" ry="5.75086" fill="#F56700"/>
<path d="M97.9324 366.572C97.9324 369.397 95.6043 371.704 92.7124 371.704C89.8205 371.704 87.4924 369.397 87.4924 366.572C87.4924 363.747 89.8205 361.441 92.7124 361.441C95.6043 361.441 97.9324 363.747 97.9324 366.572Z" stroke="white" stroke-width="1.23865"/>
</g>
<g filter="url(#filter7_d_905_5783)">
<ellipse cx="167.209" cy="110.172" rx="5.83934" ry="5.75086" fill="#F56700"/>
<path d="M172.429 110.172C172.429 112.997 170.101 115.303 167.209 115.303C164.318 115.303 161.989 112.997 161.989 110.172C161.989 107.347 164.318 105.04 167.209 105.04C170.101 105.04 172.429 107.347 172.429 110.172Z" stroke="white" stroke-width="1.23865"/>
</g>
<g filter="url(#filter8_d_905_5783)">
<ellipse cx="194.46" cy="440.006" rx="5.83934" ry="5.75086" fill="#F56700"/>
<path d="M199.68 440.006C199.68 442.831 197.352 445.138 194.46 445.138C191.569 445.138 189.24 442.831 189.24 440.006C189.24 437.181 191.569 434.875 194.46 434.875C197.352 434.875 199.68 437.181 199.68 440.006Z" stroke="white" stroke-width="1.23865"/>
</g>
<g filter="url(#filter9_d_905_5783)">
<ellipse cx="20.6948" cy="47.7089" rx="5.83934" ry="5.75086" fill="#F56700"/>
<path d="M25.9148 47.7089C25.9148 50.5341 23.5867 52.8404 20.6948 52.8404C17.8029 52.8404 15.4748 50.5341 15.4748 47.7089C15.4748 44.8837 17.8029 42.5773 20.6948 42.5773C23.5867 42.5773 25.9148 44.8837 25.9148 47.7089Z" stroke="white" stroke-width="1.23865"/>
</g>
<g filter="url(#filter10_d_905_5783)">
<ellipse cx="220.294" cy="88.2304" rx="5.83934" ry="5.75086" fill="#F56700"/>
<path d="M225.514 88.2304C225.514 91.0555 223.186 93.3619 220.294 93.3619C217.403 93.3619 215.074 91.0555 215.074 88.2304C215.074 85.4052 217.403 83.0988 220.294 83.0988C223.186 83.0988 225.514 85.4052 225.514 88.2304Z" stroke="white" stroke-width="1.23865"/>
</g>
<g filter="url(#filter11_d_905_5783)">
<ellipse cx="33.7895" cy="135.121" rx="5.83934" ry="5.75086" fill="#F56700"/>
<path d="M39.0096 135.121C39.0096 137.947 36.6814 140.253 33.7895 140.253C30.8977 140.253 28.5695 137.947 28.5695 135.121C28.5695 132.296 30.8977 129.99 33.7895 129.99C36.6814 129.99 39.0096 132.296 39.0096 135.121Z" stroke="white" stroke-width="1.23865"/>
</g>
<g filter="url(#filter12_d_905_5783)">
<ellipse cx="102.092" cy="64.1649" rx="5.83934" ry="5.75086" fill="#F56700"/>
<path d="M107.312 64.1649C107.312 66.9901 104.984 69.2965 102.092 69.2965C99.2004 69.2965 96.8723 66.9901 96.8723 64.1649C96.8723 61.3397 99.2004 59.0334 102.092 59.0334C104.984 59.0334 107.312 61.3397 107.312 64.1649Z" stroke="white" stroke-width="1.23865"/>
</g>
<g filter="url(#filter13_d_905_5783)">
<ellipse cx="149.867" cy="382.144" rx="5.83934" ry="5.75086" fill="#F56700"/>
<path d="M155.087 382.144C155.087 384.969 152.759 387.275 149.867 387.275C146.975 387.275 144.647 384.969 144.647 382.144C144.647 379.319 146.975 377.012 149.867 377.012C152.759 377.012 155.087 379.319 155.087 382.144Z" stroke="white" stroke-width="1.23865"/>
</g>
<g filter="url(#filter14_d_905_5783)">
<ellipse cx="39.0972" cy="415.941" rx="5.83934" ry="5.75086" fill="#F56700"/>
<path d="M44.3172 415.941C44.3172 418.766 41.989 421.072 39.0972 421.072C36.2053 421.072 33.8771 418.766 33.8771 415.941C33.8771 413.116 36.2053 410.809 39.0972 410.809C41.989 410.809 44.3172 413.116 44.3172 415.941Z" stroke="white" stroke-width="1.23865"/>
</g>
<g filter="url(#filter15_d_905_5783)">
<ellipse cx="209.854" cy="253.324" rx="5.83934" ry="5.75086" fill="#F56700"/>
<path d="M215.074 253.324C215.074 256.149 212.746 258.456 209.854 258.456C206.962 258.456 204.634 256.149 204.634 253.324C204.634 250.499 206.962 248.193 209.854 248.193C212.746 248.193 215.074 250.499 215.074 253.324Z" stroke="white" stroke-width="1.23865"/>
</g>
<g filter="url(#filter16_d_905_5783)">
<ellipse cx="164.201" cy="234.214" rx="5.83934" ry="5.75086" fill="#F56700"/>
<path d="M169.421 234.214C169.421 237.039 167.093 239.345 164.201 239.345C161.309 239.345 158.981 237.039 158.981 234.214C158.981 231.389 161.309 229.082 164.201 229.082C167.093 229.082 169.421 231.389 169.421 234.214Z" stroke="white" stroke-width="1.23865"/>
</g>
<g filter="url(#filter17_d_905_5783)">
<ellipse cx="107.046" cy="323.396" rx="5.83934" ry="5.75086" fill="#F56700"/>
<path d="M112.266 323.396C112.266 326.222 109.938 328.528 107.046 328.528C104.154 328.528 101.826 326.222 101.826 323.396C101.826 320.571 104.154 318.265 107.046 318.265C109.938 318.265 112.266 320.571 112.266 323.396Z" stroke="white" stroke-width="1.23865"/>
</g>
<g filter="url(#filter18_d_905_5783)">
<ellipse cx="63.8706" cy="265.887" rx="5.83934" ry="5.75086" fill="#F56700"/>
<path d="M69.0906 265.887C69.0906 268.712 66.7625 271.019 63.8706 271.019C60.9787 271.019 58.6506 268.712 58.6506 265.887C58.6506 263.062 60.9787 260.756 63.8706 260.756C66.7625 260.756 69.0906 263.062 69.0906 265.887Z" stroke="white" stroke-width="1.23865"/>
</g>
<g filter="url(#filter19_d_905_5783)">
<ellipse cx="221.875" cy="360.307" rx="5.83934" ry="5.75086" fill="#F56700"/>
<path d="M227.095 360.307C227.095 363.132 224.767 365.438 221.875 365.438C218.984 365.438 216.655 363.132 216.655 360.307C216.655 357.481 218.984 355.175 221.875 355.175C224.767 355.175 227.095 357.481 227.095 360.307Z" stroke="white" stroke-width="1.23865"/>
</g>
<g filter="url(#filter20_d_905_5783)">
<ellipse cx="53.2534" cy="329.236" rx="5.83934" ry="5.75086" fill="#F56700"/>
<path d="M58.4734 329.236C58.4734 332.061 56.1453 334.368 53.2534 334.368C50.3615 334.368 48.0334 332.061 48.0334 329.236C48.0334 326.411 50.3615 324.105 53.2534 324.105C56.1453 324.105 58.4734 326.411 58.4734 329.236Z" stroke="white" stroke-width="1.23865"/>
</g>
</g>
<rect x="3" y="3.20557" width="240" height="520" rx="30" stroke="#1C1C1C" stroke-width="5.56436"/>
<defs>
<filter id="filter0_d_905_5783" x="179.95" y="315.168" width="14.156" height="13.9792" filterUnits="userSpaceOnUse" color-interpolation-filters="sRGB">
<feFlood flood-opacity="0" result="BackgroundImageFix"/>
<feColorMatrix in="SourceAlpha" type="matrix" values="0 0 0 0 0 0 0 0 0 0 0 0 0 0 0 0 0 0 127 0" result="hardAlpha"/>
<feOffset dy="0.707799"/>
<feGaussianBlur stdDeviation="0.619324"/>
<feComposite in2="hardAlpha" operator="out"/>
<feColorMatrix type="matrix" values="0 0 0 0 0 0 0 0 0 0 0 0 0 0 0 0 0 0 0.25 0"/>
<feBlend mode="normal" in2="BackgroundImageFix" result="effect1_dropShadow_905_5783"/>
<feBlend mode="normal" in="SourceGraphic" in2="effect1_dropShadow_905_5783" result="shape"/>
</filter>
<filter id="filter1_d_905_5783" x="120.849" y="261.199" width="14.156" height="13.9792" filterUnits="userSpaceOnUse" color-interpolation-filters="sRGB">
<feFlood flood-opacity="0" result="BackgroundImageFix"/>
<feColorMatrix in="SourceAlpha" type="matrix" values="0 0 0 0 0 0 0 0 0 0 0 0 0 0 0 0 0 0 127 0" result="hardAlpha"/>
<feOffset dy="0.707799"/>
<feGaussianBlur stdDeviation="0.619324"/>
<feComposite in2="hardAlpha" operator="out"/>
<feColorMatrix type="matrix" values="0 0 0 0 0 0 0 0 0 0 0 0 0 0 0 0 0 0 0.25 0"/>
<feBlend mode="normal" in2="BackgroundImageFix" result="effect1_dropShadow_905_5783"/>
<feBlend mode="normal" in="SourceGraphic" in2="effect1_dropShadow_905_5783" result="shape"/>
</filter>
<filter id="filter2_d_905_5783" x="50.2467" y="205.459" width="14.156" height="13.9792" filterUnits="userSpaceOnUse" color-interpolation-filters="sRGB">
<feFlood flood-opacity="0" result="BackgroundImageFix"/>
<feColorMatrix in="SourceAlpha" type="matrix" values="0 0 0 0 0 0 0 0 0 0 0 0 0 0 0 0 0 0 127 0" result="hardAlpha"/>
<feOffset dy="0.707799"/>
<feGaussianBlur stdDeviation="0.619324"/>
<feComposite in2="hardAlpha" operator="out"/>
<feColorMatrix type="matrix" values="0 0 0 0 0 0 0 0 0 0 0 0 0 0 0 0 0 0 0.25 0"/>
<feBlend mode="normal" in2="BackgroundImageFix" result="effect1_dropShadow_905_5783"/>
<feBlend mode="normal" in="SourceGraphic" in2="effect1_dropShadow_905_5783" result="shape"/>
</filter>
<filter id="filter3_d_905_5783" x="116.602" y="143.35" width="14.156" height="13.9792" filterUnits="userSpaceOnUse" color-interpolation-filters="sRGB">
<feFlood flood-opacity="0" result="BackgroundImageFix"/>
<feColorMatrix in="SourceAlpha" type="matrix" values="0 0 0 0 0 0 0 0 0 0 0 0 0 0 0 0 0 0 127 0" result="hardAlpha"/>
<feOffset dy="0.707799"/>
<feGaussianBlur stdDeviation="0.619324"/>
<feComposite in2="hardAlpha" operator="out"/>
<feColorMatrix type="matrix" values="0 0 0 0 0 0 0 0 0 0 0 0 0 0 0 0 0 0 0.25 0"/>
<feBlend mode="normal" in2="BackgroundImageFix" result="effect1_dropShadow_905_5783"/>
<feBlend mode="normal" in="SourceGraphic" in2="effect1_dropShadow_905_5783" result="shape"/>
</filter>
<filter id="filter4_d_905_5783" x="201.539" y="38.2421" width="14.156" height="13.9792" filterUnits="userSpaceOnUse" color-interpolation-filters="sRGB">
<feFlood flood-opacity="0" result="BackgroundImageFix"/>
<feColorMatrix in="SourceAlpha" type="matrix" values="0 0 0 0 0 0 0 0 0 0 0 0 0 0 0 0 0 0 127 0" result="hardAlpha"/>
<feOffset dy="0.707799"/>
<feGaussianBlur stdDeviation="0.619324"/>
<feComposite in2="hardAlpha" operator="out"/>
<feColorMatrix type="matrix" values="0 0 0 0 0 0 0 0 0 0 0 0 0 0 0 0 0 0 0.25 0"/>
<feBlend mode="normal" in2="BackgroundImageFix" result="effect1_dropShadow_905_5783"/>
<feBlend mode="normal" in="SourceGraphic" in2="effect1_dropShadow_905_5783" result="shape"/>
</filter>
<filter id="filter5_d_905_5783" x="127.75" y="212.538" width="14.156" height="13.9792" filterUnits="userSpaceOnUse" color-interpolation-filters="sRGB">
<feFlood flood-opacity="0" result="BackgroundImageFix"/>
<feColorMatrix in="SourceAlpha" type="matrix" values="0 0 0 0 0 0 0 0 0 0 0 0 0 0 0 0 0 0 127 0" result="hardAlpha"/>
<feOffset dy="0.707799"/>
<feGaussianBlur stdDeviation="0.619324"/>
<feComposite in2="hardAlpha" operator="out"/>
<feColorMatrix type="matrix" values="0 0 0 0 0 0 0 0 0 0 0 0 0 0 0 0 0 0 0.25 0"/>
<feBlend mode="normal" in2="BackgroundImageFix" result="effect1_dropShadow_905_5783"/>
<feBlend mode="normal" in="SourceGraphic" in2="effect1_dropShadow_905_5783" result="shape"/>
</filter>
<filter id="filter6_d_905_5783" x="85.6344" y="360.29" width="14.156" height="13.9792" filterUnits="userSpaceOnUse" color-interpolation-filters="sRGB">
<feFlood flood-opacity="0" result="BackgroundImageFix"/>
<feColorMatrix in="SourceAlpha" type="matrix" values="0 0 0 0 0 0 0 0 0 0 0 0 0 0 0 0 0 0 127 0" result="hardAlpha"/>
<feOffset dy="0.707799"/>
<feGaussianBlur stdDeviation="0.619324"/>
<feComposite in2="hardAlpha" operator="out"/>
<feColorMatrix type="matrix" values="0 0 0 0 0 0 0 0 0 0 0 0 0 0 0 0 0 0 0.25 0"/>
<feBlend mode="normal" in2="BackgroundImageFix" result="effect1_dropShadow_905_5783"/>
<feBlend mode="normal" in="SourceGraphic" in2="effect1_dropShadow_905_5783" result="shape"/>
</filter>
<filter id="filter7_d_905_5783" x="160.131" y="103.89" width="14.156" height="13.9792" filterUnits="userSpaceOnUse" color-interpolation-filters="sRGB">
<feFlood flood-opacity="0" result="BackgroundImageFix"/>
<feColorMatrix in="SourceAlpha" type="matrix" values="0 0 0 0 0 0 0 0 0 0 0 0 0 0 0 0 0 0 127 0" result="hardAlpha"/>
<feOffset dy="0.707799"/>
<feGaussianBlur stdDeviation="0.619324"/>
<feComposite in2="hardAlpha" operator="out"/>
<feColorMatrix type="matrix" values="0 0 0 0 0 0 0 0 0 0 0 0 0 0 0 0 0 0 0.25 0"/>
<feBlend mode="normal" in2="BackgroundImageFix" result="effect1_dropShadow_905_5783"/>
<feBlend mode="normal" in="SourceGraphic" in2="effect1_dropShadow_905_5783" result="shape"/>
</filter>
<filter id="filter8_d_905_5783" x="187.382" y="433.725" width="14.156" height="13.9792" filterUnits="userSpaceOnUse" color-interpolation-filters="sRGB">
<feFlood flood-opacity="0" result="BackgroundImageFix"/>
<feColorMatrix in="SourceAlpha" type="matrix" values="0 0 0 0 0 0 0 0 0 0 0 0 0 0 0 0 0 0 127 0" result="hardAlpha"/>
<feOffset dy="0.707799"/>
<feGaussianBlur stdDeviation="0.619324"/>
<feComposite in2="hardAlpha" operator="out"/>
<feColorMatrix type="matrix" values="0 0 0 0 0 0 0 0 0 0 0 0 0 0 0 0 0 0 0.25 0"/>
<feBlend mode="normal" in2="BackgroundImageFix" result="effect1_dropShadow_905_5783"/>
<feBlend mode="normal" in="SourceGraphic" in2="effect1_dropShadow_905_5783" result="shape"/>
</filter>
<filter id="filter9_d_905_5783" x="13.6168" y="41.4272" width="14.156" height="13.9792" filterUnits="userSpaceOnUse" color-interpolation-filters="sRGB">
<feFlood flood-opacity="0" result="BackgroundImageFix"/>
<feColorMatrix in="SourceAlpha" type="matrix" values="0 0 0 0 0 0 0 0 0 0 0 0 0 0 0 0 0 0 127 0" result="hardAlpha"/>
<feOffset dy="0.707799"/>
<feGaussianBlur stdDeviation="0.619324"/>
<feComposite in2="hardAlpha" operator="out"/>
<feColorMatrix type="matrix" values="0 0 0 0 0 0 0 0 0 0 0 0 0 0 0 0 0 0 0.25 0"/>
<feBlend mode="normal" in2="BackgroundImageFix" result="effect1_dropShadow_905_5783"/>
<feBlend mode="normal" in="SourceGraphic" in2="effect1_dropShadow_905_5783" result="shape"/>
</filter>
<filter id="filter10_d_905_5783" x="213.216" y="81.9486" width="14.156" height="13.9792" filterUnits="userSpaceOnUse" color-interpolation-filters="sRGB">
<feFlood flood-opacity="0" result="BackgroundImageFix"/>
<feColorMatrix in="SourceAlpha" type="matrix" values="0 0 0 0 0 0 0 0 0 0 0 0 0 0 0 0 0 0 127 0" result="hardAlpha"/>
<feOffset dy="0.707799"/>
<feGaussianBlur stdDeviation="0.619324"/>
<feComposite in2="hardAlpha" operator="out"/>
<feColorMatrix type="matrix" values="0 0 0 0 0 0 0 0 0 0 0 0 0 0 0 0 0 0 0.25 0"/>
<feBlend mode="normal" in2="BackgroundImageFix" result="effect1_dropShadow_905_5783"/>
<feBlend mode="normal" in="SourceGraphic" in2="effect1_dropShadow_905_5783" result="shape"/>
</filter>
<filter id="filter11_d_905_5783" x="26.7115" y="128.84" width="14.156" height="13.9792" filterUnits="userSpaceOnUse" color-interpolation-filters="sRGB">
<feFlood flood-opacity="0" result="BackgroundImageFix"/>
<feColorMatrix in="SourceAlpha" type="matrix" values="0 0 0 0 0 0 0 0 0 0 0 0 0 0 0 0 0 0 127 0" result="hardAlpha"/>
<feOffset dy="0.707799"/>
<feGaussianBlur stdDeviation="0.619324"/>
<feComposite in2="hardAlpha" operator="out"/>
<feColorMatrix type="matrix" values="0 0 0 0 0 0 0 0 0 0 0 0 0 0 0 0 0 0 0.25 0"/>
<feBlend mode="normal" in2="BackgroundImageFix" result="effect1_dropShadow_905_5783"/>
<feBlend mode="normal" in="SourceGraphic" in2="effect1_dropShadow_905_5783" result="shape"/>
</filter>
<filter id="filter12_d_905_5783" x="95.0143" y="57.8832" width="14.156" height="13.9792" filterUnits="userSpaceOnUse" color-interpolation-filters="sRGB">
<feFlood flood-opacity="0" result="BackgroundImageFix"/>
<feColorMatrix in="SourceAlpha" type="matrix" values="0 0 0 0 0 0 0 0 0 0 0 0 0 0 0 0 0 0 127 0" result="hardAlpha"/>
<feOffset dy="0.707799"/>
<feGaussianBlur stdDeviation="0.619324"/>
<feComposite in2="hardAlpha" operator="out"/>
<feColorMatrix type="matrix" values="0 0 0 0 0 0 0 0 0 0 0 0 0 0 0 0 0 0 0.25 0"/>
<feBlend mode="normal" in2="BackgroundImageFix" result="effect1_dropShadow_905_5783"/>
<feBlend mode="normal" in="SourceGraphic" in2="effect1_dropShadow_905_5783" result="shape"/>
</filter>
<filter id="filter13_d_905_5783" x="142.789" y="375.862" width="14.156" height="13.9792" filterUnits="userSpaceOnUse" color-interpolation-filters="sRGB">
<feFlood flood-opacity="0" result="BackgroundImageFix"/>
<feColorMatrix in="SourceAlpha" type="matrix" values="0 0 0 0 0 0 0 0 0 0 0 0 0 0 0 0 0 0 127 0" result="hardAlpha"/>
<feOffset dy="0.707799"/>
<feGaussianBlur stdDeviation="0.619324"/>
<feComposite in2="hardAlpha" operator="out"/>
<feColorMatrix type="matrix" values="0 0 0 0 0 0 0 0 0 0 0 0 0 0 0 0 0 0 0.25 0"/>
<feBlend mode="normal" in2="BackgroundImageFix" result="effect1_dropShadow_905_5783"/>
<feBlend mode="normal" in="SourceGraphic" in2="effect1_dropShadow_905_5783" result="shape"/>
</filter>
<filter id="filter14_d_905_5783" x="32.0192" y="409.659" width="14.156" height="13.9792" filterUnits="userSpaceOnUse" color-interpolation-filters="sRGB">
<feFlood flood-opacity="0" result="BackgroundImageFix"/>
<feColorMatrix in="SourceAlpha" type="matrix" values="0 0 0 0 0 0 0 0 0 0 0 0 0 0 0 0 0 0 127 0" result="hardAlpha"/>
<feOffset dy="0.707799"/>
<feGaussianBlur stdDeviation="0.619324"/>
<feComposite in2="hardAlpha" operator="out"/>
<feColorMatrix type="matrix" values="0 0 0 0 0 0 0 0 0 0 0 0 0 0 0 0 0 0 0.25 0"/>
<feBlend mode="normal" in2="BackgroundImageFix" result="effect1_dropShadow_905_5783"/>
<feBlend mode="normal" in="SourceGraphic" in2="effect1_dropShadow_905_5783" result="shape"/>
</filter>
<filter id="filter15_d_905_5783" x="202.776" y="247.042" width="14.156" height="13.9792" filterUnits="userSpaceOnUse" color-interpolation-filters="sRGB">
<feFlood flood-opacity="0" result="BackgroundImageFix"/>
<feColorMatrix in="SourceAlpha" type="matrix" values="0 0 0 0 0 0 0 0 0 0 0 0 0 0 0 0 0 0 127 0" result="hardAlpha"/>
<feOffset dy="0.707799"/>
<feGaussianBlur stdDeviation="0.619324"/>
<feComposite in2="hardAlpha" operator="out"/>
<feColorMatrix type="matrix" values="0 0 0 0 0 0 0 0 0 0 0 0 0 0 0 0 0 0 0.25 0"/>
<feBlend mode="normal" in2="BackgroundImageFix" result="effect1_dropShadow_905_5783"/>
<feBlend mode="normal" in="SourceGraphic" in2="effect1_dropShadow_905_5783" result="shape"/>
</filter>
<filter id="filter16_d_905_5783" x="157.123" y="227.932" width="14.156" height="13.9792" filterUnits="userSpaceOnUse" color-interpolation-filters="sRGB">
<feFlood flood-opacity="0" result="BackgroundImageFix"/>
<feColorMatrix in="SourceAlpha" type="matrix" values="0 0 0 0 0 0 0 0 0 0 0 0 0 0 0 0 0 0 127 0" result="hardAlpha"/>
<feOffset dy="0.707799"/>
<feGaussianBlur stdDeviation="0.619324"/>
<feComposite in2="hardAlpha" operator="out"/>
<feColorMatrix type="matrix" values="0 0 0 0 0 0 0 0 0 0 0 0 0 0 0 0 0 0 0.25 0"/>
<feBlend mode="normal" in2="BackgroundImageFix" result="effect1_dropShadow_905_5783"/>
<feBlend mode="normal" in="SourceGraphic" in2="effect1_dropShadow_905_5783" result="shape"/>
</filter>
<filter id="filter17_d_905_5783" x="99.9684" y="317.115" width="14.156" height="13.9792" filterUnits="userSpaceOnUse" color-interpolation-filters="sRGB">
<feFlood flood-opacity="0" result="BackgroundImageFix"/>
<feColorMatrix in="SourceAlpha" type="matrix" values="0 0 0 0 0 0 0 0 0 0 0 0 0 0 0 0 0 0 127 0" result="hardAlpha"/>
<feOffset dy="0.707799"/>
<feGaussianBlur stdDeviation="0.619324"/>
<feComposite in2="hardAlpha" operator="out"/>
<feColorMatrix type="matrix" values="0 0 0 0 0 0 0 0 0 0 0 0 0 0 0 0 0 0 0.25 0"/>
<feBlend mode="normal" in2="BackgroundImageFix" result="effect1_dropShadow_905_5783"/>
<feBlend mode="normal" in="SourceGraphic" in2="effect1_dropShadow_905_5783" result="shape"/>
</filter>
<filter id="filter18_d_905_5783" x="56.7926" y="259.605" width="14.156" height="13.9792" filterUnits="userSpaceOnUse" color-interpolation-filters="sRGB">
<feFlood flood-opacity="0" result="BackgroundImageFix"/>
<feColorMatrix in="SourceAlpha" type="matrix" values="0 0 0 0 0 0 0 0 0 0 0 0 0 0 0 0 0 0 127 0" result="hardAlpha"/>
<feOffset dy="0.707799"/>
<feGaussianBlur stdDeviation="0.619324"/>
<feComposite in2="hardAlpha" operator="out"/>
<feColorMatrix type="matrix" values="0 0 0 0 0 0 0 0 0 0 0 0 0 0 0 0 0 0 0.25 0"/>
<feBlend mode="normal" in2="BackgroundImageFix" result="effect1_dropShadow_905_5783"/>
<feBlend mode="normal" in="SourceGraphic" in2="effect1_dropShadow_905_5783" result="shape"/>
</filter>
<filter id="filter19_d_905_5783" x="214.797" y="354.025" width="14.156" height="13.9792" filterUnits="userSpaceOnUse" color-interpolation-filters="sRGB">
<feFlood flood-opacity="0" result="BackgroundImageFix"/>
<feColorMatrix in="SourceAlpha" type="matrix" values="0 0 0 0 0 0 0 0 0 0 0 0 0 0 0 0 0 0 127 0" result="hardAlpha"/>
<feOffset dy="0.707799"/>
<feGaussianBlur stdDeviation="0.619324"/>
<feComposite in2="hardAlpha" operator="out"/>
<feColorMatrix type="matrix" values="0 0 0 0 0 0 0 0 0 0 0 0 0 0 0 0 0 0 0.25 0"/>
<feBlend mode="normal" in2="BackgroundImageFix" result="effect1_dropShadow_905_5783"/>
<feBlend mode="normal" in="SourceGraphic" in2="effect1_dropShadow_905_5783" result="shape"/>
</filter>
<filter id="filter20_d_905_5783" x="46.1754" y="322.955" width="14.156" height="13.9792" filterUnits="userSpaceOnUse" color-interpolation-filters="sRGB">
<feFlood flood-opacity="0" result="BackgroundImageFix"/>
<feColorMatrix in="SourceAlpha" type="matrix" values="0 0 0 0 0 0 0 0 0 0 0 0 0 0 0 0 0 0 127 0" result="hardAlpha"/>
<feOffset dy="0.707799"/>
<feGaussianBlur stdDeviation="0.619324"/>
<feComposite in2="hardAlpha" operator="out"/>
<feColorMatrix type="matrix" values="0 0 0 0 0 0 0 0 0 0 0 0 0 0 0 0 0 0 0.25 0"/>
<feBlend mode="normal" in2="BackgroundImageFix" result="effect1_dropShadow_905_5783"/>
<feBlend mode="normal" in="SourceGraphic" in2="effect1_dropShadow_905_5783" result="shape"/>
</filter>
<clipPath id="clip0_905_5783">
<rect x="3" y="3.20557" width="240" height="520" rx="30" fill="white"/>
</clipPath>
</defs>
</svg>
