<svg width="81" height="81" viewBox="0 0 81 81" fill="none" xmlns="http://www.w3.org/2000/svg">
<path d="M25.1025 42.8369H55.1025" stroke="#69238C" stroke-width="4" stroke-linecap="round" stroke-linejoin="round"/>
<path d="M15.1021 30.3369L15.1021 22.8369C15.1021 20.1847 16.1556 17.6412 18.031 15.7658C19.9063 13.8905 22.4499 12.8369 25.1021 12.8369L55.1021 12.8369C57.7542 12.8369 60.2978 13.8905 62.1731 15.7658C64.0485 17.6412 65.1021 20.1847 65.1021 22.8369V30.3369" stroke="#69238C" stroke-width="4" stroke-linecap="round" stroke-linejoin="round"/>
<path d="M25.1021 52.8369V40.3369C25.1021 38.3591 24.5156 36.4257 23.4168 34.7812C22.3179 33.1367 20.7562 31.855 18.9289 31.0981C17.1016 30.3412 15.091 30.1432 13.1512 30.5291C11.2113 30.9149 9.42951 31.8673 8.03099 33.2659C6.63246 34.6644 5.68005 36.4462 5.2942 38.386C4.90835 40.3258 5.10638 42.3365 5.86326 44.1638C6.62014 45.991 7.90186 47.5528 9.54635 48.6516C11.1908 49.7504 13.1242 50.3369 15.1021 50.3369V62.8369C15.1021 63.5 15.3654 64.1358 15.8343 64.6047C16.3031 65.0735 16.939 65.3369 17.6021 65.3369H62.6021C63.2651 65.3369 63.901 65.0735 64.3698 64.6047C64.8387 64.1358 65.1021 63.5 65.1021 62.8369V50.3369C67.0799 50.3369 69.0133 49.7504 70.6578 48.6516C72.3023 47.5528 73.584 45.991 74.3409 44.1638C75.0977 42.3365 75.2958 40.3258 74.9099 38.386C74.5241 36.4462 73.5717 34.6644 72.1731 33.2659C70.7746 31.8673 68.9928 30.9149 67.053 30.5291C65.1132 30.1432 63.1025 30.3412 61.2752 31.0981C59.448 31.855 57.8862 33.1367 56.7874 34.7812C55.6886 36.4257 55.1021 38.3591 55.1021 40.3369V52.8369" stroke="#69238C" stroke-width="4" stroke-linecap="round" stroke-linejoin="round"/>
</svg>
