<svg width="1440" height="1000" viewBox="0 0 1440 1000" fill="none" xmlns="http://www.w3.org/2000/svg">
<path d="M494.041 606.9V630.507" stroke="#F0E9F4" stroke-width="4" stroke-linejoin="round"/>
<path d="M657.232 612.545L681.767 725.406C682.378 728.213 685.223 729.93 687.991 729.161L692.129 728.012" stroke="#F0E9F4" stroke-width="4" stroke-linejoin="round"/>
<path d="M531.502 612.545L527.91 626.915M499.685 728.525L500.662 728.851C503.447 729.779 506.428 728.121 507.108 725.266L508.409 719.801" stroke="#F0E9F4" stroke-width="4" stroke-linejoin="round"/>
<path d="M413.983 688.497L412.698 704.77C412.561 706.51 413.936 707.998 415.681 707.998V707.998C417.087 707.998 418.303 707.02 418.604 705.647L422.707 686.958" stroke="#F0E9F4" stroke-width="4" stroke-linejoin="round"/>
<path d="M441.182 682.339V735.637C441.182 737.094 440 738.276 438.542 738.276V738.276C437.143 738.276 435.987 737.184 435.908 735.787L432.971 684.392" stroke="#F0E9F4" stroke-width="4" stroke-linejoin="round"/>
<path d="M494.041 642.311L478.64 646.057C476.508 646.575 474.963 648.424 474.831 650.615L471.145 711.891C471.034 713.74 469.502 715.183 467.649 715.183V715.183C465.766 715.183 464.22 713.694 464.149 711.812L461.867 651.11C461.776 648.69 459.965 646.684 457.567 646.347L433.931 643.023C431.152 642.632 428.596 644.603 428.269 647.39L427.84 651.035" stroke="#F0E9F4" stroke-width="4" stroke-linejoin="round"/>
<path d="M424.76 635.126L473.496 625.077C474.184 624.935 474.893 624.94 475.578 625.09L495.579 629.48" stroke="#F0E9F4" stroke-width="4" stroke-linejoin="round"/>
<path d="M417.577 653.087L418.575 640.111C418.594 639.867 418.594 639.622 418.577 639.377L414.319 578.81C414.131 576.149 416.067 573.809 418.716 573.494L461.112 568.457C463.75 568.144 466.173 569.948 466.628 572.566L467.869 579.702" stroke="#F0E9F4" stroke-width="4" stroke-linejoin="round"/>
<path d="M772.186 615.625L784.502 622.81" stroke="#F0E9F4" stroke-width="4" stroke-linejoin="round"/>
<path d="M717.789 621.27L743.841 631.325C745.769 632.069 747.04 633.923 747.04 635.989V643.336" stroke="#F0E9F4" stroke-width="4" stroke-linejoin="round"/>
<path d="M695.723 659.246L740.608 643.286C741.46 642.984 742.377 642.917 743.264 643.095L775.266 649.495" stroke="#F0E9F4" stroke-width="4" stroke-linejoin="round"/>
<path d="M522.778 719.801V767.527C522.778 769.511 521.17 771.12 519.186 771.12V771.12C517.202 771.12 515.594 769.511 515.594 767.527V721.356" stroke="#F0E9F4" stroke-width="4" stroke-linejoin="round"/>
<path d="M610.02 685.931L587.953 684.905" stroke="#F0E9F4" stroke-width="4" stroke-linejoin="round"/>
<path d="M353.941 667.457L430.272 651.1C431.952 650.74 433.7 651.268 434.899 652.499L452.986 671.049" stroke="#F0E9F4" stroke-width="4" stroke-linejoin="round"/>
<path d="M342.652 670.536L326.015 757.247C325.835 758.185 326.251 759.137 327.061 759.644V759.644C328.411 760.487 330.19 759.746 330.542 758.194L347.271 684.392" stroke="#F0E9F4" stroke-width="4" stroke-linejoin="round"/>
<path d="M975.407 579.188L961.551 640.771" stroke="#F0E9F4" stroke-width="4" stroke-linejoin="round"/>
<path d="M975.407 579.188L988.75 635.639" stroke="#F0E9F4" stroke-width="4" stroke-linejoin="round"/>
<path d="M975.408 502.211V580.728" stroke="#F0E9F4" stroke-width="4" stroke-linejoin="round"/>
<path d="M1171.96 526.844L1219.68 521.712L1456.26 526.844" stroke="#F0E9F4" stroke-width="4" stroke-linejoin="round"/>
<path d="M1207.37 399.061V458.077" stroke="#F0E9F4" stroke-width="4" stroke-linejoin="round"/>
<path d="M1198.13 399.061V458.077" stroke="#F0E9F4" stroke-width="4" stroke-linejoin="round"/>
<path d="M1186.84 400.087V458.077" stroke="#F0E9F4" stroke-width="4" stroke-linejoin="round"/>
<path d="M1219.17 399.574V457.051" stroke="#F0E9F4" stroke-width="4" stroke-linejoin="round"/>
<path d="M1236.62 402.14V457.564" stroke="#F0E9F4" stroke-width="4" stroke-linejoin="round"/>
<path d="M1257.15 413.43V402.14H1229.95V457.051" stroke="#F0E9F4" stroke-width="4" stroke-linejoin="round"/>
<path d="M1455.75 73.7021L712.656 311.82V576.623" stroke="#F0E9F4" stroke-width="4"/>
<path d="M713.17 312.333L168.168 250.751L81.4395 -12" stroke="#F0E9F4" stroke-width="4"/>
<path d="M168.681 250.75V661.298L36.793 1000" stroke="#F0E9F4" stroke-width="4"/>
<path d="M82.9786 880.941V222.012L39.8711 151.706V992.302" stroke="#F0E9F4" stroke-width="4" stroke-linejoin="round"/>
<path d="M169.707 661.812L419.115 639.745" stroke="#F0E9F4" stroke-width="4"/>
<path d="M169.707 352.361L486.342 371.349V450.379L169.707 443.708" stroke="#F0E9F4" stroke-width="4"/>
<path d="M167.654 558.661L486.342 545.318V581.754" stroke="#F0E9F4" stroke-width="4"/>
<path d="M486.855 605.874V626.401" stroke="#F0E9F4" stroke-width="4" stroke-linejoin="round"/>
<path d="M168.682 292.318L493.527 322.596V579.702" stroke="#F0E9F4" stroke-width="4"/>
<path d="M493.013 323.623L476.078 332.86L177.918 306.688L169.707 292.832" stroke="#F0E9F4" stroke-width="4"/>
<path d="M476.078 332.86L475.984 370.604M475.785 450.745L475.565 539.159" stroke="#F0E9F4" stroke-width="4"/>
<path d="M168.682 549.424L476.079 539.673L487.369 545.318" stroke="#F0E9F4" stroke-width="4"/>
<path d="M177.918 305.148L177.721 352.124M177.335 443.988L177.335 548.911" stroke="#F0E9F4" stroke-width="4"/>
<path d="M159.444 375.868L115.311 332.86V576.109L159.444 540.501V375.868Z" fill="#F8F8F8" stroke="#F0E9F4" stroke-width="4" stroke-linejoin="round"/>
<path d="M115.311 332.86H107.1V576.109H115.311" stroke="#F0E9F4" stroke-width="4" stroke-linejoin="round"/>
<path d="M536.635 574.057V372.375L613.099 377.507V569.438" stroke="#F0E9F4" stroke-width="4" stroke-linejoin="round"/>
<path d="M1441.89 371.349L1140.14 393.929V402.653L1441.89 386.231" stroke="#F0E9F4" stroke-width="4" stroke-linejoin="round"/>
<path d="M1441.89 454.485L1140.14 460.13V468.854L1441.89 469.367" stroke="#F0E9F4" stroke-width="4" stroke-linejoin="round"/>
<path d="M1441.89 539.16L1140.14 526.331V535.055L1441.89 554.043" stroke="#F0E9F4" stroke-width="4" stroke-linejoin="round"/>
<path d="M1163.75 401.627V459.104M1163.75 469.88V526.331" stroke="#F0E9F4" stroke-width="4" stroke-linejoin="round"/>
<path d="M1171.44 401.627V459.104M1171.44 469.88V526.331" stroke="#F0E9F4" stroke-width="4" stroke-linejoin="round"/>
<path d="M1272.03 457.051L1266.38 413.43H1244.32L1248.42 457.051" stroke="#F0E9F4" stroke-width="4" stroke-linejoin="round"/>
<path d="M1219.68 521.199V470.394" stroke="#F0E9F4" stroke-width="4" stroke-linejoin="round"/>
<path d="M1343.36 529.923V476.039H1352.09V529.923H1343.36Z" fill="#F8F8F8" stroke="#F0E9F4" stroke-width="4" stroke-linejoin="round"/>
<path d="M1352.09 529.923V469.367H1361.32V529.923H1352.09Z" fill="#F8F8F8" stroke="#F0E9F4" stroke-width="4" stroke-linejoin="round"/>
<path d="M1360.3 530.436V485.276H1369.53V530.436H1360.3Z" fill="#F8F8F8" stroke="#F0E9F4" stroke-width="4" stroke-linejoin="round"/>
<path d="M1382.88 484.763L1369.02 485.276V530.436L1383.39 524.791L1382.88 484.763Z" fill="#F8F8F8" stroke="#F0E9F4" stroke-width="4" stroke-linejoin="round"/>
<path d="M1379.8 530.949V478.604H1389.03V530.949H1379.8Z" fill="#F8F8F8" stroke="#F0E9F4" stroke-width="4" stroke-linejoin="round"/>
<path d="M1399.3 478.604H1389.04V530.949L1399.3 524.115V478.604Z" fill="#F8F8F8" stroke="#F0E9F4" stroke-width="4" stroke-linejoin="round"/>
<path d="M1453.18 677.207L1317.19 653.087L1106.71 611.864C1099.51 610.455 1092.27 614.119 1089.97 621.081C1084.7 637.024 1078.84 663.323 1080.1 693.116" stroke="#F0E9F4" stroke-width="4" stroke-linejoin="round"/>
<path d="M1447.02 797.292C1418.29 789.081 1348.6 769.478 1299.74 756.751L1083 694.464C1081.08 693.912 1079.08 693.72 1077.09 693.924C1045.75 697.129 1013.98 704.561 983.129 717.108C982.09 717.531 981.096 718.059 980.296 718.846C977.385 721.712 970.894 730.378 976.435 747" stroke="#F0E9F4" stroke-width="4" stroke-linejoin="round"/>
<path d="M1087.8 628.968L965.446 649.195C962.726 649.645 960.884 652.21 961.326 654.931L974.381 735.197" stroke="#F0E9F4" stroke-width="4" stroke-linejoin="round"/>
<path d="M1089.33 622.81L1083.23 621.065C1082.52 620.862 1081.77 620.819 1081.04 620.939L946.237 643.16C943.822 643.558 942.051 645.646 942.051 648.093V749.053" stroke="#F0E9F4" stroke-width="4" stroke-linejoin="round"/>
<path d="M1299.23 756.237C1277.5 760.856 1219.48 782.512 1198.13 801.398C1195.39 804.135 1188.89 816.28 1192.48 832.702" stroke="#F0E9F4" stroke-width="4" stroke-linejoin="round"/>
<path d="M1296.66 756.237C1294.1 733.315 1293.58 680.491 1312.06 652.574" stroke="#F0E9F4" stroke-width="4" stroke-linejoin="round"/>
<path d="M1116.02 804.99L1456.77 932.773" stroke="#F0E9F4" stroke-width="4" stroke-linejoin="round"/>
<path d="M1102.16 828.083L1440.35 971.775" stroke="#F0E9F4" stroke-width="4" stroke-linejoin="round"/>
<path d="M1116.07 803.45C1116.07 810.772 1112.58 817.92 1105.89 824.609C1099.2 831.306 1089.41 837.428 1077.16 842.613C1052.67 852.98 1018.69 859.44 981.053 859.44C943.418 859.44 909.44 852.98 884.945 842.613C872.694 837.428 862.908 831.306 856.216 824.609C849.531 817.92 846.033 810.772 846.033 803.45C846.033 796.129 849.531 788.981 856.216 782.292C862.908 775.595 872.694 769.472 884.945 764.287C909.44 753.92 943.418 747.46 981.053 747.46C1018.69 747.46 1052.67 753.92 1077.16 764.287C1089.41 769.472 1099.2 775.595 1105.89 782.292C1112.58 788.981 1116.07 796.129 1116.07 803.45Z" stroke="#F0E9F4" stroke-width="4"/>
<path d="M889.193 843.992L862.166 925.997C860.251 931.805 868.443 935.312 871.325 929.918L912.287 853.229" stroke="#F0E9F4" stroke-width="4" stroke-linejoin="round"/>
<path d="M1060.15 847.447L1082.15 930.943C1083.71 936.857 1075.32 939.86 1072.77 934.3L1036.54 855.265" stroke="#F0E9F4" stroke-width="4" stroke-linejoin="round"/>
<path d="M846.599 801.397L568.479 882.077C565.192 883.031 563.813 886.932 565.772 889.74L607.968 950.221" stroke="#F0E9F4" stroke-width="4" stroke-linejoin="round"/>
<path d="M99.9141 837.834L294.585 799.3C297.314 798.759 299.96 800.552 300.471 803.287L329.821 960.485" stroke="#F0E9F4" stroke-width="4" stroke-linejoin="round"/>
<rect x="929.221" y="435.497" width="91.3469" height="66.714" stroke="#F0E9F4" stroke-width="4" stroke-linejoin="round"/>
<path d="M734.264 590.479C734.264 591.548 733.697 592.852 732.032 594.385C730.37 595.915 727.806 597.486 724.32 599.039C717.36 602.139 707.163 604.98 694.409 607.383C668.932 612.183 633.653 615.164 594.625 615.164C555.598 615.164 520.318 612.183 494.842 607.383C482.087 604.98 471.891 602.139 464.931 599.039C461.444 597.486 458.88 595.915 457.219 594.385C455.554 592.852 454.986 591.548 454.986 590.479C454.986 589.409 455.554 588.105 457.219 586.572C458.88 585.042 461.444 583.471 464.931 581.918C471.891 578.818 482.087 575.977 494.842 573.574C520.318 568.775 555.598 565.793 594.625 565.793C633.653 565.793 668.932 568.775 694.409 573.574C707.163 575.977 717.36 578.818 724.32 581.918C727.806 583.471 730.37 585.042 732.032 586.572C733.697 588.105 734.264 589.409 734.264 590.479Z" fill="#F8F8F8" stroke="#F0E9F4" stroke-width="4"/>
<path d="M491.987 716.722L493.929 631.288C493.99 628.572 496.21 626.402 498.927 626.402H578.247C580.836 626.402 582.997 628.379 583.227 630.958L590.005 706.972L607.623 687.281C610.623 683.928 616.178 686.051 616.178 690.55V767.528C616.178 769.512 614.569 771.12 612.585 771.12C610.601 771.12 608.993 769.512 608.993 767.528V699.288L598.328 712.259C597.592 713.154 597.19 714.276 597.19 715.435V816.225C597.19 818.239 595.557 819.872 593.542 819.872C591.571 819.872 589.957 818.307 589.896 816.337L587.075 724.648C586.992 721.947 584.779 719.801 582.077 719.801H505.657C503.128 719.801 500.996 721.691 500.693 724.203L489.265 818.965C489.061 820.654 487.627 821.925 485.926 821.925C483.946 821.925 482.394 820.223 482.577 818.252L491.987 716.722Z" fill="#F8F8F8"/>
<path d="M616.178 690.55V767.528C616.178 769.512 614.569 771.12 612.585 771.12V771.12C610.601 771.12 608.993 769.512 608.993 767.528V699.288M616.178 690.55V690.55C616.178 686.051 610.623 683.928 607.623 687.281L590.005 706.972L583.227 630.958C582.997 628.379 580.836 626.402 578.247 626.402H498.927C496.21 626.402 493.99 628.572 493.929 631.288L491.987 716.722L482.577 818.252C482.394 820.223 483.946 821.925 485.926 821.925V821.925C487.627 821.925 489.061 820.654 489.265 818.965L500.693 724.203C500.996 721.691 503.128 719.801 505.657 719.801H582.077C584.779 719.801 586.992 721.947 587.075 724.648L589.896 816.337C589.957 818.307 591.571 819.872 593.542 819.872V819.872C595.557 819.872 597.19 818.239 597.19 816.225V715.435C597.19 714.276 597.592 713.154 598.328 712.259L608.993 699.288M616.178 690.55L608.993 699.288" stroke="#F0E9F4" stroke-width="4" stroke-linejoin="round"/>
<path d="M761.651 673.615L700.903 659.377C700.529 659.29 700.146 659.245 699.762 659.245H697.643C694.881 659.245 692.643 661.484 692.643 664.245V748.244C692.643 749.953 693.736 751.47 695.357 752.01C697.857 752.843 700.459 751.056 700.579 748.424L703.666 680.496C703.806 677.424 706.661 675.204 709.673 675.827L762.703 686.783C764.71 687.198 766.261 688.796 766.616 690.815L778.912 760.809C779.177 762.32 780.49 763.422 782.024 763.422C783.898 763.422 785.36 761.799 785.166 759.935L776.695 678.517C776.458 676.238 777.8 674.09 779.952 673.303L797.7 666.818C800.51 665.792 803.586 667.445 804.28 670.355L820.745 739.416C821.112 740.957 822.79 741.787 824.238 741.143C825.312 740.666 825.916 739.512 825.698 738.358L810.39 657.372C810.24 656.58 810.284 655.763 810.518 654.992L829.15 593.558L794.465 600.685C792.742 601.039 791.332 602.272 790.751 603.932L767.512 670.397C766.668 672.81 764.14 674.198 761.651 673.615Z" fill="#F8F8F8" stroke="#F0E9F4" stroke-width="4" stroke-linejoin="round"/>
<path d="M749.092 684.905V724.612C749.092 726.206 747.8 727.499 746.205 727.499V727.499C744.662 727.499 743.391 726.286 743.321 724.744L741.395 682.852" stroke="#F0E9F4" stroke-width="4" stroke-linejoin="round"/>
<path d="M812.214 597.663L818.539 573.629C819.28 570.814 817.468 567.964 814.605 567.439L793.533 563.575C791.022 563.115 788.568 564.619 787.839 567.065L774.237 612.7C773.624 614.755 771.77 616.19 769.627 616.268L721.58 618.015C718.891 618.113 716.762 620.321 716.762 623.012V650.521" stroke="#F0E9F4" stroke-width="4" stroke-linejoin="round"/>
<path d="M674.682 609.979L692.643 697.221" stroke="#F0E9F4" stroke-width="4" stroke-linejoin="round"/>
<path d="M322.241 604.792L346.922 683.092C349.841 692.352 350.302 702.212 348.26 711.704L333.152 781.936C332.722 783.935 333.916 785.925 335.882 786.487C337.927 787.071 340.062 785.901 340.67 783.863L364.92 702.555C365.43 700.842 366.817 699.532 368.556 699.119L442.031 681.669C445.064 680.949 448.01 683.15 448.179 686.263L452.314 762.541C452.404 764.186 453.764 765.474 455.412 765.474C457.17 765.474 458.577 764.014 458.511 762.257L455.265 675.529C455.148 672.401 452.217 670.148 449.164 670.84L366.492 689.567C364.018 690.127 361.516 688.746 360.672 686.354L334.673 612.689C334.519 612.253 334.305 611.841 334.038 611.464L327.473 602.195C326.511 600.837 324.618 600.54 323.287 601.538C322.283 602.291 321.864 603.596 322.241 604.792Z" fill="#F8F8F8" stroke="#F0E9F4" stroke-width="4" stroke-linejoin="round"/>
<path d="M514.055 609.979L510.462 625.888" stroke="#F0E9F4" stroke-width="4" stroke-linejoin="round"/>
<path d="M627.982 503.751V395.469H702.907V503.751H627.982Z" fill="#F8F8F8" stroke="#F0E9F4" stroke-width="4" stroke-linejoin="round"/>
<path d="M1070.35 845.531L1381.85 985.117" stroke="#F0E9F4" stroke-width="4" stroke-linejoin="round"/>
<path d="M169.195 399.061L485.317 409.838" stroke="#F0E9F4" stroke-width="4" stroke-linejoin="round"/>
<path d="M381.652 366.217V446.787" stroke="#F0E9F4" stroke-width="4" stroke-linejoin="round"/>
<path d="M280.557 360.572L280.557 446.787" stroke="#F0E9F4" stroke-width="4" stroke-linejoin="round"/>
<path d="M382.166 549.424V641.797" stroke="#F0E9F4" stroke-width="4" stroke-linejoin="round"/>
<path d="M280.557 553.529L280.557 650.008" stroke="#F0E9F4" stroke-width="4" stroke-linejoin="round"/>
<path d="M763.975 616.138L765.514 373.401L839.926 364.164V642.823" stroke="#F0E9F4" stroke-width="4" stroke-linejoin="round"/>
<path d="M711.631 606.387L752.685 617.164M941.537 673.101L816.32 636.665" stroke="#F0E9F4" stroke-width="4" stroke-linejoin="round"/>
<path d="M471.973 601.769L476.078 624.349" stroke="#F0E9F4" stroke-width="4" stroke-linejoin="round"/>
<path d="M1099.65 201.485C1099.65 206.42 1096.65 211.439 1090.49 216.294C1084.35 221.131 1075.35 225.575 1064.04 229.343C1041.45 236.874 1010.11 241.566 975.408 241.566C940.702 241.566 909.364 236.874 886.772 229.343C875.466 225.575 866.461 221.131 860.323 216.294C854.163 211.439 851.164 206.42 851.164 201.485C851.164 196.55 854.163 191.531 860.323 186.676C866.461 181.839 875.466 177.395 886.772 173.626C909.364 166.096 940.702 161.404 975.408 161.404C1010.11 161.404 1041.45 166.096 1064.04 173.626C1075.35 177.395 1084.35 181.839 1090.49 186.676C1096.65 191.531 1099.65 196.55 1099.65 201.485Z" fill="#F8F8F8" stroke="#F0E9F4" stroke-width="4"/>
<path d="M880.982 176.339V-8.9209" stroke="#F0E9F4" stroke-width="4" stroke-linejoin="round"/>
<path d="M1038.02 166.075V-8.9209" stroke="#F0E9F4" stroke-width="4" stroke-linejoin="round"/>
<path d="M968.735 -11.4863C966.683 8.01469 964.527 52.5591 972.328 74.7287C980.128 96.8983 977.288 142.127 974.894 161.97" stroke="#F0E9F4" stroke-width="4" stroke-linejoin="round"/>
<path d="M921.011 -9.43359C925.116 2.54071 930.864 31.3133 921.011 50.609C908.694 74.7287 941.025 90.6374 936.919 120.402C932.814 150.167 917.932 150.167 921.011 166.076" stroke="#F0E9F4" stroke-width="4" stroke-linejoin="round"/>
<path d="M1011.84 -8.4082C1008.08 15.7115 1001.27 65.9009 1004.15 73.7013C1007.74 83.4518 1020.05 98.8474 1019.54 117.322C1019.03 135.797 1009.28 153.758 1019.54 164.535" stroke="#F0E9F4" stroke-width="4" stroke-linejoin="round"/>
<rect x="1453" y="1000" width="1463" height="379" transform="rotate(-180 1453 1000)" fill="url(#paint0_linear_1497_4802)"/>
<defs>
<linearGradient id="paint0_linear_1497_4802" x1="2184.5" y1="1000" x2="2184.5" y2="1379" gradientUnits="userSpaceOnUse">
<stop stop-color="#F8F8F8"/>
<stop offset="1" stop-color="#F8F8F8" stop-opacity="0"/>
</linearGradient>
</defs>
</svg>
