<svg width="59" height="58" viewBox="0 0 59 58" fill="none" xmlns="http://www.w3.org/2000/svg">
<path d="M57.724 52.9967L46.9404 42.3495C51.1262 37.1544 53.1533 30.5604 52.6048 23.9232C52.0564 17.2861 48.974 11.1104 43.9917 6.66595C39.0093 2.2215 32.5055 -0.153853 25.8177 0.0283078C19.1299 0.210468 12.7664 2.9363 8.03559 7.64531C3.30482 12.3543 0.566397 18.6886 0.383394 25.3456C0.200392 32.0027 2.58672 38.4765 7.0517 43.436C11.5167 48.3955 17.7209 51.4636 24.3887 52.0096C31.0565 52.5555 37.681 50.5377 42.9002 46.3712L53.5965 57.0184C53.8668 57.2895 54.1882 57.5048 54.5424 57.6517C54.8966 57.7986 55.2765 57.8742 55.6602 57.8742C56.044 57.8742 56.4239 57.7986 56.7781 57.6517C57.1323 57.5048 57.4537 57.2895 57.724 57.0184C58.2478 56.4789 58.5407 55.7579 58.5407 55.0075C58.5407 54.2572 58.2478 53.5362 57.724 52.9967V52.9967ZM26.594 46.3712C22.5698 46.3712 18.6361 45.1834 15.2901 42.958C11.9442 40.7325 9.33634 37.5695 7.79637 33.8688C6.25641 30.1681 5.85348 26.0959 6.63855 22.1672C7.42362 18.2386 9.36142 14.6299 12.2069 11.7975C15.0524 8.96505 18.6778 7.03615 22.6246 6.25469C26.5714 5.47323 30.6624 5.87431 34.3802 7.4072C38.098 8.94008 41.2757 11.5359 43.5114 14.8665C45.7471 18.1971 46.9404 22.1127 46.9404 26.1184C46.9404 31.4897 44.7967 36.6411 40.9811 40.4393C37.1654 44.2374 31.9902 46.3712 26.594 46.3712V46.3712Z" fill="#69238C"/>
</svg>
