<svg width="59" height="58" viewBox="0 0 59 58" fill="none" xmlns="http://www.w3.org/2000/svg">
<path d="M29.5006 0.0789795C23.7518 0.0789795 18.1322 1.77585 13.3523 4.955C8.57234 8.13415 4.84684 12.6528 2.64688 17.9395C0.446928 23.2263 -0.128681 29.0437 0.992847 34.656C2.11438 40.2684 4.88267 45.4237 8.94766 49.47C13.0126 53.5163 18.1918 56.2718 23.8301 57.3882C29.4684 58.5046 35.3126 57.9316 40.6238 55.7418C45.935 53.5519 50.4745 49.8436 53.6683 45.0856C56.8622 40.3277 58.5669 34.7339 58.5669 29.0116C58.5669 25.2121 57.8151 21.4498 56.3543 17.9395C54.8936 14.4293 52.7526 11.2398 50.0536 8.55314C47.3545 5.8665 44.1503 3.73534 40.6238 2.28134C37.0973 0.827343 33.3176 0.0789795 29.5006 0.0789795V0.0789795ZM29.5006 52.1576C24.9016 52.1576 20.4059 50.8001 16.5819 48.2568C12.758 45.7135 9.7776 42.0986 8.01763 37.8692C6.25766 33.6398 5.79718 28.9859 6.6944 24.496C7.59162 20.0061 9.80626 15.8819 13.0582 12.6448C16.3102 9.40779 20.4535 7.20334 24.9642 6.31024C29.4748 5.41715 34.1502 5.87552 38.3992 7.62739C42.6481 9.37926 46.2797 12.3459 48.8348 16.1523C51.3898 19.9586 52.7536 24.4337 52.7536 29.0116C52.7536 35.1503 50.3038 41.0376 45.943 45.3783C41.5822 49.719 35.6677 52.1576 29.5006 52.1576V52.1576ZM41.1271 26.1183H32.4072V17.4385C32.4072 16.6712 32.101 15.9353 31.5559 15.3927C31.0108 14.8501 30.2715 14.5453 29.5006 14.5453C28.7297 14.5453 27.9904 14.8501 27.4453 15.3927C26.9002 15.9353 26.594 16.6712 26.594 17.4385V26.1183H17.8741C17.1032 26.1183 16.3639 26.4231 15.8188 26.9657C15.2737 27.5083 14.9675 28.2442 14.9675 29.0116C14.9675 29.7789 15.2737 30.5148 15.8188 31.0574C16.3639 31.6 17.1032 31.9048 17.8741 31.9048H26.594V40.5846C26.594 41.3519 26.9002 42.0878 27.4453 42.6304C27.9904 43.173 28.7297 43.4779 29.5006 43.4779C30.2715 43.4779 31.0108 43.173 31.5559 42.6304C32.101 42.0878 32.4072 41.3519 32.4072 40.5846V31.9048H41.1271C41.898 31.9048 42.6373 31.6 43.1824 31.0574C43.7275 30.5148 44.0337 29.7789 44.0337 29.0116C44.0337 28.2442 43.7275 27.5083 43.1824 26.9657C42.6373 26.4231 41.898 26.1183 41.1271 26.1183Z" fill="#69238C"/>
</svg>
