<svg width="76" height="76" viewBox="0 0 76 76" fill="none" xmlns="http://www.w3.org/2000/svg">
<path d="M44.7898 61.2462V47.1835C44.7898 46.5619 44.5429 45.9657 44.1033 45.5262C43.6638 45.0866 43.0676 44.8397 42.446 44.8397H33.071C32.4494 44.8397 31.8533 45.0866 31.4138 45.5262C30.9742 45.9657 30.7273 46.5619 30.7273 47.1835V61.2462C30.7273 61.8678 30.4804 62.4639 30.0409 62.9034C29.6014 63.343 29.0054 63.5899 28.3838 63.59L14.323 63.5918C14.0152 63.5919 13.7104 63.5313 13.426 63.4135C13.1417 63.2958 12.8832 63.1231 12.6656 62.9055C12.4479 62.6878 12.2752 62.4295 12.1574 62.1451C12.0396 61.8607 11.979 61.5559 11.979 61.2481L11.979 34.1601C11.979 33.8336 12.0472 33.5106 12.1793 33.212C12.3114 32.9134 12.5044 32.6457 12.746 32.426L36.1819 11.117C36.6133 10.7247 37.1755 10.5073 37.7586 10.5073C38.3417 10.5073 38.9038 10.7246 39.3353 11.1169L62.7744 32.426C63.016 32.6457 63.209 32.9134 63.3412 33.212C63.4733 33.5107 63.5415 33.8336 63.5415 34.1602V61.2481C63.5415 61.5559 63.4809 61.8607 63.3631 62.1451C63.2453 62.4295 63.0726 62.6879 62.8549 62.9055C62.6373 63.1231 62.3789 63.2958 62.0945 63.4135C61.8101 63.5313 61.5053 63.5919 61.1975 63.5919L47.1332 63.59C46.5117 63.5899 45.9156 63.343 45.4761 62.9034C45.0367 62.4639 44.7898 61.8678 44.7898 61.2462V61.2462Z" stroke="#69238C" stroke-width="4" stroke-linecap="round" stroke-linejoin="round"/>
</svg>
