<svg width="391" height="226" viewBox="0 0 391 226" fill="none" xmlns="http://www.w3.org/2000/svg">
<path d="M368.073 163.669H335.813C334.669 163.669 333.689 162.366 333.689 160.737V80.8498C333.689 79.2211 334.588 77.9182 335.813 77.9182H368.073C369.217 77.9182 370.197 79.2211 370.197 80.8498V160.737C370.115 162.366 369.217 163.669 368.073 163.669Z" fill="#5C3BFE"/>
<path d="M369.435 171.381C369.435 170.681 368.868 170.113 368.167 170.113H318.281C317.58 170.113 317.012 170.681 317.012 171.381V174.67C317.012 175.37 317.58 175.938 318.281 175.938H368.167C368.868 175.938 369.435 175.37 369.435 174.67V171.381Z" fill="#5C3BFE"/>
<path d="M369.436 181.575C369.436 180.875 368.868 180.307 368.168 180.307H334.299C333.599 180.307 333.031 180.875 333.031 181.575V186.32C333.031 187.02 333.599 187.588 334.299 187.588H368.168C368.868 187.588 369.436 187.02 369.436 186.32V181.575Z" fill="#5C3BFE"/>
<rect x="-0.634094" y="0.634094" width="11.4616" height="2.72438" rx="1.36219" transform="matrix(1 0 0 -1 335.942 69.4478)" stroke="#5C3BFE" stroke-width="1.26819"/>
<rect x="307.904" y="57.6855" width="70.0257" height="138.866" rx="4.57275" stroke="#5C3BFE"/>
<rect x="305.719" y="55.4999" width="74.3966" height="143.237" rx="7.10912" stroke="#5C3BFE"/>
<path d="M18.1561 81.5652L45.46 92.2836L35.0012 97.2566L30.3497 108.505L18.1561 81.5652Z" fill="#5C3BFE" stroke="white" stroke-width="1.26819"/>
<path d="M188.385 105.682C188.385 105.682 199.495 118.364 213.2 118.364C226.905 118.364 238.015 105.682 238.015 105.682C238.015 105.682 226.905 92.9999 213.2 92.9999C199.495 92.9999 188.385 105.682 188.385 105.682Z" fill="#DED8FF"/>
<path d="M237.235 105.964C237.34 105.854 237.428 105.759 237.5 105.682C237.428 105.604 237.34 105.51 237.235 105.4C236.909 105.057 236.426 104.567 235.803 103.977C234.557 102.798 232.754 101.225 230.527 99.6524C226.065 96.5021 219.939 93.3813 213.2 93.3813C206.461 93.3813 200.335 96.5021 195.873 99.6524C193.646 101.225 191.843 102.798 190.598 103.977C189.975 104.567 189.492 105.057 189.165 105.4C189.061 105.51 188.972 105.604 188.9 105.682C188.972 105.759 189.061 105.854 189.165 105.964C189.492 106.306 189.975 106.797 190.598 107.386C191.843 108.566 193.646 110.139 195.873 111.711C200.335 114.861 206.461 117.982 213.2 117.982C219.939 117.982 226.065 114.861 230.527 111.711C232.754 110.139 234.557 108.566 235.803 107.386C236.426 106.797 236.909 106.306 237.235 105.964Z" stroke="#5C3BFE" stroke-width="0.76267"/>
<path d="M204.608 106.286C204.608 110.955 208.454 114.74 213.198 114.74C217.942 114.74 221.788 110.955 221.788 106.286C221.788 101.616 217.942 97.8311 213.198 97.8311C208.454 97.8311 204.608 101.616 204.608 106.286Z" fill="white"/>
<path d="M204.99 106.286C204.99 110.739 208.659 114.359 213.198 114.359C217.737 114.359 221.407 110.739 221.407 106.286C221.407 101.833 217.737 98.2125 213.198 98.2125C208.659 98.2125 204.99 101.833 204.99 106.286Z" stroke="#5C3BFE" stroke-width="0.76267"/>
<path d="M210.337 106.051C210.337 107.718 211.619 109.07 213.2 109.07C214.781 109.07 216.063 107.718 216.063 106.051C216.063 104.383 214.781 103.031 213.2 103.031C211.619 103.031 210.337 104.383 210.337 106.051Z" fill="#5C3BFE"/>
<path d="M284.174 139.694C284.151 139.969 283.909 140.173 283.634 140.15C283.359 140.127 283.155 139.885 283.178 139.61L284.174 139.694ZM212.395 53.8666L212.44 53.3687L212.395 53.8666ZM149.207 77.774L148.844 77.4299L149.207 77.774ZM142.738 85.5363L142.334 85.2416L142.738 85.5363ZM137.393 94.9776C137.263 95.221 136.96 95.3127 136.717 95.1823C136.473 95.0519 136.382 94.7489 136.512 94.5055L137.393 94.9776ZM294.107 130.208C294.314 130.025 294.63 130.045 294.813 130.252C294.996 130.459 294.976 130.775 294.769 130.958L294.107 130.208ZM283.096 140.603L283.427 140.978C283.325 141.069 283.189 141.113 283.053 141.101C282.916 141.09 282.791 141.022 282.705 140.915L283.096 140.603ZM273.207 129.009C273.035 128.793 273.071 128.479 273.286 128.306C273.502 128.134 273.817 128.169 273.989 128.385L273.207 129.009ZM210.056 66.7104L210.102 66.2125L210.056 66.7104ZM156.325 86.9735L155.963 86.6289L156.325 86.9735ZM150.825 93.5555L150.421 93.2603L150.825 93.5555ZM146.347 101.598C146.217 101.841 145.914 101.933 145.67 101.802C145.427 101.671 145.336 101.368 145.466 101.125L146.347 101.598ZM262.328 99.772C262.466 100.011 262.384 100.317 262.145 100.455C261.906 100.593 261.6 100.511 261.462 100.272L262.328 99.772ZM283.178 139.61C286.811 96.3943 255.095 58.2325 212.35 54.3646L212.44 53.3687C255.742 57.2869 287.853 95.9396 284.174 139.694L283.178 139.61ZM212.35 54.3646C187.965 52.1581 165.256 61.5871 149.57 78.1182L148.844 77.4299C164.731 60.6873 187.737 51.1333 212.44 53.3687L212.35 54.3646ZM149.57 78.1182C147.27 80.5414 145.122 83.1171 143.142 85.831L142.334 85.2416C144.34 82.4928 146.516 79.8841 148.844 77.4299L149.57 78.1182ZM143.142 85.831C141.028 88.7282 139.105 91.7828 137.393 94.9776L136.512 94.5055C138.245 91.2697 140.193 88.1758 142.334 85.2416L143.142 85.831ZM294.769 130.958L283.427 140.978L282.765 140.229L294.107 130.208L294.769 130.958ZM282.705 140.915L273.207 129.009L273.989 128.385L283.487 140.291L282.705 140.915ZM210.011 67.2084C189.297 65.334 170.008 73.3172 156.687 87.3182L155.963 86.6289C169.485 72.4165 189.07 64.3094 210.102 66.2125L210.011 67.2084ZM156.687 87.3182C154.734 89.3705 152.91 91.552 151.228 93.8507L150.421 93.2603C152.129 90.9268 153.98 88.7122 155.963 86.6289L156.687 87.3182ZM151.228 93.8507C149.433 96.3046 147.8 98.8919 146.347 101.598L145.466 101.125C146.941 98.3778 148.599 95.7512 150.421 93.2603L151.228 93.8507ZM261.462 100.272C250.996 82.1415 232.261 69.2217 210.011 67.2084L210.102 66.2125C232.692 68.2566 251.708 81.3747 262.328 99.772L261.462 100.272Z" fill="#8870FC"/>
<path d="M69.7176 179.085C52.8694 179.085 39.2113 165.427 39.2113 148.579C39.2113 131.731 52.8694 118.073 69.7176 118.073C86.5657 118.073 100.224 131.731 100.224 148.579C100.224 165.427 86.5657 179.085 69.7176 179.085Z" fill="#5C3BFE"/>
<path d="M69.7173 172.874C56.3497 172.874 45.5132 162.038 45.5132 148.67C45.5132 135.303 56.3497 124.466 69.7173 124.466C83.0848 124.466 93.9214 135.303 93.9214 148.67C93.9214 162.038 83.0848 172.874 69.7173 172.874Z" fill="white" stroke="#5C3BFE" stroke-width="1.26819" stroke-miterlimit="10"/>
<path d="M68.2568 131.773C61.1326 131.773 55.1044 136.431 53.1864 142.916" stroke="#5C3BFE" stroke-miterlimit="10"/>
<path d="M52.1819 173.605L46.245 179.542L29.8958 195.891C29.0738 196.713 28.0691 197.079 27.0644 197.079C26.0597 197.079 24.9637 196.713 24.233 195.891C22.6803 194.339 22.6803 191.781 24.233 190.228L40.5822 173.879L46.245 168.216" fill="#5C3BFE"/>
<path d="M46.2456 179.542L40.5828 173.788" stroke="white" stroke-width="1.26819" stroke-miterlimit="10"/>
<rect x="133.885" y="140.571" width="67.3855" height="6.88508" stroke="#8870FC"/>
<rect x="143.556" y="135" width="30.0698" height="16.9743" fill="#5C3BFE"/>
<rect x="150.978" y="137.444" width="3.14544" height="12.0877" fill="#DED8FF"/>
<rect x="157.015" y="137.444" width="3.14544" height="12.0877" fill="#DED8FF"/>
<rect x="163.048" y="137.444" width="3.14544" height="12.0877" fill="#DED8FF"/>
<path d="M153.5 196.699C153.5 191.062 148.931 186.492 143.295 186.492C137.659 186.492 133.09 191.062 133.09 196.699" stroke="#8870FC"/>
<path d="M174.624 196.7C174.624 191.063 170.056 186.493 164.42 186.493C158.783 186.493 154.215 191.063 154.215 196.7" stroke="#8870FC"/>
<path d="M195.036 196.7C195.036 191.063 190.467 186.493 184.831 186.493C179.195 186.493 174.626 191.063 174.626 196.7" stroke="#8870FC"/>
<path d="M215.446 196.7C215.446 191.063 210.877 186.493 205.241 186.493C199.605 186.493 195.036 191.063 195.036 196.7" stroke="#8870FC"/>
<path d="M236.562 196.7C236.562 191.062 231.993 186.492 226.357 186.492C220.721 186.492 216.152 191.062 216.152 196.7" stroke="#8870FC"/>
<path d="M256.97 196.7C256.97 191.062 252.401 186.492 246.765 186.492C241.129 186.492 236.561 191.062 236.561 196.7" stroke="#8870FC"/>
<path d="M256.973 196.7C256.973 191.062 261.542 186.491 267.178 186.491C272.814 186.491 277.383 191.062 277.383 196.7C277.383 187.155 283.343 170.068 305.197 170.068" stroke="#8870FC"/>
<path d="M94.5085 60V71.1027" stroke="#5C3BFE" stroke-width="2.53637"/>
<path d="M108.897 65.551L101.071 73.4018" stroke="#DED8FF" stroke-width="2.53637"/>
<path d="M113.948 79.5495L102.881 79.5495" stroke="#CEC4FF" stroke-width="2.53637"/>
<path d="M80.1213 65.551L87.9466 73.4018" stroke="#5C3BFE" stroke-width="2.53637"/>
<path d="M75.0618 79.5495L86.1283 79.5495" stroke="#8D76FE" stroke-width="2.53637"/>
<path d="M94.5085 99.0997V87.997" stroke="#AD9DFE" stroke-width="2.53637"/>
<path d="M108.897 93.5488L101.071 85.698" stroke="#BEB1FF" stroke-width="2.53637"/>
<path d="M80.1213 93.5488L87.9466 85.698" stroke="#9D89FE" stroke-width="2.53637"/>
<path d="M257.284 153.016V139H229.385V153.016" stroke="#5C3BFE" stroke-width="2"/>
<path d="M257.285 153.016V167.032H229.387V153.016" stroke="#DED8FF" stroke-width="2"/>
<path d="M251.747 153.015V161.464H234.927V153.015" stroke="#3922A9" stroke-width="2"/>
<path d="M251.747 153.012V144.562H234.927V153.012" stroke="#8870FC" stroke-width="2"/>
<path d="M246.352 153.016V156.049H240.314V153.016" stroke="#8870FC" stroke-width="2"/>
<path d="M246.352 153.014V149.981H240.314V153.014" stroke="#5C3BFE" stroke-width="2"/>
</svg>
