<svg width="401" height="232" viewBox="0 0 401 232" fill="none" xmlns="http://www.w3.org/2000/svg">
<path d="M338 96.5063H334C330.686 96.5063 328 99.1926 328 102.506V110.506C328 113.82 330.686 116.506 334 116.506H338V96.5063Z" fill="#E7E2FF"/>
<path d="M315 96.5063H307C303.686 96.5063 301 99.1926 301 102.506V110.506C301 113.82 303.686 116.506 307 116.506H315C318.314 116.506 321 113.82 321 110.506V102.506C321 99.1926 318.314 96.5063 315 96.5063Z" fill="#A18EFF"/>
<path d="M338 126.506H280C276.686 126.506 274 129.193 274 132.506V133.506C274 136.82 276.686 139.506 280 139.506H338V126.506Z" stroke="#5C3BFE" stroke-miterlimit="10"/>
<path d="M288 96.5063H280C276.686 96.5063 274 99.1926 274 102.506V110.506C274 113.82 276.686 116.506 280 116.506H288C291.314 116.506 294 113.82 294 110.506V102.506C294 99.1926 291.314 96.5063 288 96.5063Z" fill="#5C3BFE"/>
<path d="M270.478 3.5L274.42 10.7311L281.627 14.6858L274.42 18.6406L270.478 25.8717L266.536 18.6406L259.328 14.6858L266.536 10.7311L270.478 3.5Z" fill="#8870FC"/>
<path d="M274.422 10.7311L270.48 3.5V25.8717L274.422 18.6406L281.63 14.6858L274.422 10.7311Z" fill="#4126C0"/>
<path d="M36.2324 23.4688V28.7462" stroke="#5C3BFE"/>
<path d="M43.0723 26.1075L39.3527 29.8392" stroke="#DED8FF"/>
<path d="M45.4746 32.7611L40.2144 32.7611" stroke="#CEC4FF"/>
<path d="M29.3945 26.1075L33.1141 29.8392" stroke="#7D62FE"/>
<path d="M26.9902 32.7611L32.2505 32.7611" stroke="#8D76FE"/>
<path d="M36.2324 42.0537V36.7763" stroke="#AD9DFE"/>
<path d="M43.0723 39.4148L39.3527 35.6831" stroke="#BEB1FF"/>
<path d="M29.3945 39.4148L33.1141 35.6831" stroke="#9D89FE"/>
<path d="M369.512 43.469C369.512 52.0345 362.592 58.9755 354.058 58.9755C345.524 58.9755 338.604 52.0345 338.604 43.469C338.604 34.9034 345.524 27.9624 354.058 27.9624C362.592 27.9624 369.512 34.9034 369.512 43.469Z" stroke="#8870FC"/>
<path d="M364.62 43.4701C364.62 49.3247 359.889 54.0679 354.058 54.0679C348.226 54.0679 343.496 49.3247 343.496 43.4701C343.496 37.6155 348.226 32.8722 354.058 32.8722C359.889 32.8722 364.62 37.6155 364.62 43.4701Z" stroke="#8870FC"/>
<path d="M359.303 43.4702C359.303 46.378 356.954 48.7324 354.06 48.7324C351.166 48.7324 348.816 46.378 348.816 43.4702C348.816 40.5623 351.166 38.2079 354.06 38.2079C356.954 38.2079 359.303 40.5623 359.303 43.4702Z" stroke="#DED8FF"/>
<path d="M35.5979 82.1494H29.7461V220.741H107.724V214.846" stroke="#DED8FF" stroke-width="0.5"/>
<path d="M29.8485 87.9146H24V226.506H101.978V220.631" stroke="#DED8FF" stroke-width="0.5"/>
<rect x="41.3418" y="88.1646" width="66.2791" height="22.8513" stroke="#DED8FF" stroke-width="0.5"/>
<rect x="41.3418" y="122.581" width="66.2791" height="22.8513" stroke="#DED8FF" stroke-width="0.5"/>
<rect x="41.3418" y="156.996" width="14.2105" height="22.8513" stroke="#DED8FF" stroke-width="0.5"/>
<rect x="39.959" y="190.265" width="28.248" height="9.30034" stroke="#947EFF" stroke-width="0.5"/>
<rect x="79.9902" y="190.015" width="28.748" height="9.80034" fill="#947EFF"/>
<rect x="76.8359" y="187.483" width="35.05" height="14.8642" stroke="#5C3BFE" stroke-width="0.5"/>
<rect x="58.7695" y="159.151" width="44.0971" height="2.80142" fill="#4126C0"/>
<rect x="58.7695" y="163.434" width="25.7926" height="2.80142" fill="#947EFF"/>
<rect x="35.7422" y="76.6365" width="77.478" height="138.092" stroke="#8870FC" stroke-width="0.5"/>
<path d="M111.9 194.577C126.209 192.206 134.145 170.74 136.369 145.778C138.994 116.324 146.651 100.391 160.611 96.8545M160.611 96.8545L156.895 95.2697M160.611 96.8545L157.973 100.391" stroke="#5C3BFE"/>
<ellipse cx="111.869" cy="194.915" rx="2.20641" ry="2.21361" fill="#5C3BFE"/>
<rect x="165.596" y="36.4487" width="77.978" height="138.592" fill="#5C3BFE"/>
<rect x="174.5" y="43.707" width="28.7287" height="6.74285" fill="white"/>
<rect x="174.5" y="91.356" width="42.3082" height="8.65143" fill="white"/>
<rect x="174.5" y="102.809" width="30.4857" height="4.35689" fill="#DED8FF"/>
<rect x="174.752" y="113.771" width="6.61834" height="10.1943" stroke="#DED8FF" stroke-width="0.5"/>
<rect x="184.623" y="115.584" width="50.6535" height="2.86693" fill="#4126C0"/>
<rect x="184.623" y="120.004" width="29.3385" height="2.86693" fill="#8870FC"/>
<rect x="174.752" y="129.101" width="6.61834" height="10.1943" stroke="#DED8FF" stroke-width="0.5"/>
<rect x="184.623" y="130.915" width="50.6535" height="2.86693" fill="#4126C0"/>
<rect x="184.623" y="135.335" width="29.3385" height="2.86693" fill="#8870FC"/>
<rect x="174.752" y="144.43" width="6.61834" height="10.1943" stroke="#DED8FF" stroke-width="0.5"/>
<rect x="184.623" y="146.243" width="50.6535" height="2.86693" fill="#4126C0"/>
<rect x="184.623" y="150.664" width="29.3385" height="2.86693" fill="#8870FC"/>
<rect x="174.75" y="159.759" width="6.61834" height="10.1943" stroke="#DED8FF" stroke-width="0.5"/>
<rect x="184.623" y="161.572" width="50.6535" height="2.86693" fill="#4126C0"/>
<rect x="184.623" y="165.992" width="29.3385" height="2.86693" fill="#8870FC"/>
<path d="M174.75 58.4199H235.025V85.7322H174.75V58.4199Z" stroke="#DED8FF" stroke-width="0.5"/>
<path d="M227.609 43.3551H235.159" stroke="white" stroke-width="0.5"/>
<path d="M227.609 46.5948H235.159" stroke="white" stroke-width="0.5"/>
<path d="M227.609 49.8346H235.159" stroke="white" stroke-width="0.5"/>
<ellipse cx="231.553" cy="95.6827" rx="3.7173" ry="3.72943" fill="#4126C0"/>
<path d="M365.239 118.321L363.049 122.339L359.045 124.536L363.049 126.733L365.239 130.75L367.429 126.733L371.433 124.536L367.429 122.339L365.239 118.321Z" fill="#8870FC"/>
<path d="M363.046 122.339L365.236 118.321V130.75L363.046 126.733L359.042 124.536L363.046 122.339Z" fill="#4126C0"/>
<path d="M131.906 50.4272L129.716 54.4445L125.712 56.6416L129.716 58.8387L131.906 62.856L134.096 58.8387L138.1 56.6416L134.096 54.4445L131.906 50.4272Z" fill="#8870FC"/>
<path d="M129.713 54.4445L131.903 50.4272V62.856L129.713 58.8387L125.709 56.6416L129.713 54.4445Z" fill="#4126C0"/>
<path d="M338 72.5L338 209.5" stroke="#5C3BFE"/>
<path d="M296 85.5063L326 85.5064" stroke="#DED8FF" stroke-width="4" stroke-linecap="round"/>
<path d="M235.584 210.662C238.12 219.831 256.302 225.31 285.9 226.5C304.659 226.5 345.762 223.854 348.869 192.322C352.812 152.31 266.307 136.737 232.123 158.081C208.361 172.918 250.236 182.319 262.386 184.82C270.015 186.39 274.521 197.324 257.383 197.324C244.043 197.324 233.499 203.126 235.584 210.662Z" fill="white" stroke="#E7E2FF" stroke-width="0.897721"/>
<ellipse cx="249.854" cy="167.295" rx="8.92771" ry="5.63855" fill="#5C3BFE"/>
<ellipse cx="276.638" cy="164.006" rx="8.45783" ry="6.10843" fill="#836AFF"/>
<ellipse cx="304.361" cy="167.295" rx="8.92771" ry="5.63855" fill="#947DFF"/>
<ellipse cx="327.854" cy="182.331" rx="8.92771" ry="5.63855" fill="#AC9CFF"/>
<ellipse cx="317.987" cy="203.946" rx="8.45783" ry="5.63855" fill="#C7BBFF"/>
<ellipse cx="292.614" cy="210.054" rx="8.45783" ry="6.10843" fill="#E2DCFF"/>
<ellipse cx="268.65" cy="208.175" rx="8.92771" ry="5.16867" fill="#F4F1FF"/>
</svg>
