<svg width="391" height="226" viewBox="0 0 391 226" fill="none" xmlns="http://www.w3.org/2000/svg">
<path d="M144.434 78.2677H99.2929L76.7429 117.018L99.2929 155.768H144.434L166.983 117.018L144.434 78.2677Z" fill="#5C3BFE"/>
<path d="M249.308 178.594L260.958 158.392H284.279L295.928 178.594L284.279 198.796H260.958L249.308 178.594Z" stroke="#ECE9FF"/>
<path d="M138.857 89.9458H105.931L89.4832 117.018L105.931 144.09H138.857L155.306 117.018L138.857 89.9458Z" fill="white"/>
<path d="M225.952 178.594L237.602 158.392H260.922L272.572 178.594L260.922 198.796H237.602L225.952 178.594Z" stroke="#CABFFF"/>
<path d="M202.595 178.594L214.245 158.392H237.565L249.215 178.594L237.565 198.796H214.245L202.595 178.594Z" stroke="#8870FC"/>
<path d="M243.999 71.8977L272.364 22.5H329.14L357.505 71.8977L329.14 121.295H272.364L243.999 71.8977Z" stroke="#8870FC"/>
<path d="M268.729 75.0037C268.546 73.9405 269.579 73.0891 270.539 73.5804L285.974 79.9656C288.156 80.8023 290.526 79.889 291.496 77.7009L297.877 62.1354C298.714 59.9535 297.801 57.5847 295.612 56.6144L280.451 50.3505C279.497 49.9928 279.295 48.5287 280.206 47.9507C287.355 43.1996 296.683 42.0983 305.297 45.8522C318.695 51.6618 324.937 67.8488 318.986 81.1172C318.258 82.7583 317.384 84.1382 316.376 85.5243L370.061 180.288C370.201 180.415 370.347 180.676 370.36 180.943C373.737 187.351 371.422 195.227 365.02 198.738C358.611 202.115 350.733 199.801 347.222 193.4C347.076 193.139 347.069 193.005 346.923 192.744L298.262 96.5425C293.735 97.1538 289.153 96.5622 284.648 94.7613C276.04 91.1411 270.328 83.5024 268.729 75.0037ZM361.058 191.286C363.415 190.105 364.221 187.255 363.04 184.899C361.859 182.542 359.008 181.737 356.651 182.917C354.294 184.098 353.488 186.948 354.669 189.305C355.85 191.661 358.701 192.467 361.058 191.286Z" fill="#DED8FF"/>
<path d="M312.954 89.8318L353.276 164.99" stroke="white" stroke-miterlimit="10" stroke-linecap="round" stroke-linejoin="round"/>
<path d="M304.077 94.8006L329.305 141.991" stroke="white" stroke-miterlimit="10" stroke-linecap="round" stroke-linejoin="round"/>
<path d="M332.239 147.475L336.347 155.188" stroke="white" stroke-miterlimit="10" stroke-linecap="round" stroke-linejoin="round"/>
<rect x="123.456" y="66.5895" width="69.0075" height="132.707" rx="6" fill="white"/>
<rect x="127.953" y="146.464" width="60.0142" height="12.2398" rx="3.75" stroke="#5C3BFE" stroke-width="0.5"/>
<rect x="135.135" y="149.398" width="45.6511" height="2.12331" rx="1.06165" fill="#947EFF"/>
<rect x="127.953" y="162.388" width="60.0142" height="12.2398" rx="3.75" stroke="#5C3BFE" stroke-width="0.5"/>
<rect x="135.135" y="165.323" width="45.6511" height="2.12331" rx="1.06165" fill="#947EFF"/>
<rect x="127.953" y="177.251" width="60.0142" height="12.2398" rx="3.75" stroke="#5C3BFE" stroke-width="0.5"/>
<rect x="135.135" y="180.186" width="45.6511" height="2.12331" rx="1.06165" fill="#947EFF"/>
<rect x="123.706" y="66.8395" width="68.5075" height="132.207" rx="5.75" stroke="#5C3BFE" stroke-width="0.5"/>
<path d="M136.778 66.9291V67.0687C136.778 70.3824 139.464 73.0687 142.778 73.0687H172.828C176.142 73.0687 178.828 70.3824 178.828 67.0687V66.9291" stroke="#5C3BFE" stroke-width="0.5"/>
<path d="M157.621 98.4391L161.818 106.128L169.492 110.333L161.818 114.538L157.621 122.227L153.424 114.538L145.75 110.333L153.424 106.128L157.621 98.4391Z" fill="#947EFF"/>
<path d="M161.821 106.128L157.624 98.4391V122.227L161.821 114.538L169.494 110.333L161.821 106.128Z" fill="#5C3BFE"/>
<rect x="18.7126" y="187.14" width="71.7114" height="7.38387" stroke="#8870FC"/>
<rect x="29.0264" y="181.248" width="31.9719" height="18.0481" fill="#5C3BFE"/>
<rect x="36.9177" y="183.847" width="3.34442" height="12.8524" fill="#DED8FF"/>
<rect x="43.3369" y="183.847" width="3.34442" height="12.8524" fill="#DED8FF"/>
<rect x="49.7517" y="183.847" width="3.34442" height="12.8524" fill="#DED8FF"/>
<path d="M43.0332 49.603L45.3784 53.891L49.6663 56.2361L45.3784 58.5813L43.0332 62.8692L40.6881 58.5813L36.4001 56.2361L40.6881 53.891L43.0332 49.603Z" fill="#8870FC"/>
<path d="M45.3771 53.891L43.032 49.603V62.8692L45.3771 58.5813L49.6651 56.2361L45.3771 53.891Z" fill="#5C3BFE"/>
<path d="M301.015 154.707L303.36 158.995L307.648 161.34L303.36 163.685L301.015 167.973L298.67 163.685L294.382 161.34L298.67 158.995L301.015 154.707Z" fill="#8870FC"/>
<path d="M303.359 158.995L301.013 154.707V167.973L303.359 163.685L307.647 161.34L303.359 158.995Z" fill="#5C3BFE"/>
<path fill-rule="evenodd" clip-rule="evenodd" d="M42.3067 139.932C55.0277 139.932 65.3401 129.894 65.3401 117.511C65.3401 105.128 55.0277 95.0893 42.3067 95.0893C29.5858 95.0893 19.2734 105.128 19.2734 117.511C19.2734 129.894 29.5858 139.932 42.3067 139.932ZM42.3067 140.829C55.5365 140.829 66.2614 130.389 66.2614 117.511C66.2614 104.632 55.5365 94.1925 42.3067 94.1925C29.0769 94.1925 18.3521 104.632 18.3521 117.511C18.3521 130.389 29.0769 140.829 42.3067 140.829Z" fill="#4126C0"/>
<path fill-rule="evenodd" clip-rule="evenodd" d="M42.3052 132.93C50.9562 132.93 57.9692 126.027 57.9692 117.513C57.9692 108.998 50.9562 102.095 42.3052 102.095C33.6542 102.095 26.6411 108.998 26.6411 117.513C26.6411 126.027 33.6542 132.93 42.3052 132.93ZM42.3052 133.835C51.4643 133.835 58.8892 126.527 58.8892 117.513C58.8892 108.498 51.4643 101.19 42.3052 101.19C33.1461 101.19 25.7212 108.498 25.7212 117.513C25.7212 126.527 33.1461 133.835 42.3052 133.835Z" fill="#8870FC"/>
<path fill-rule="evenodd" clip-rule="evenodd" d="M42.7678 124.802C47.0853 124.802 50.5854 121.538 50.5854 117.512C50.5854 113.486 47.0853 110.223 42.7678 110.223C38.4503 110.223 34.9503 113.486 34.9503 117.512C34.9503 121.538 38.4503 124.802 42.7678 124.802ZM42.7678 125.674C47.6018 125.674 51.5205 122.02 51.5205 117.512C51.5205 113.005 47.6018 109.351 42.7678 109.351C37.9338 109.351 34.0151 113.005 34.0151 117.512C34.0151 122.02 37.9338 125.674 42.7678 125.674Z" fill="#DED8FF"/>
<path d="M225.841 178.063L192.464 133.461L252.978 87.8225" stroke="#DDD6FE"/>
<circle cx="225.905" cy="178.594" r="2.65413" fill="#5C3BFE"/>
<circle cx="192.463" cy="133.474" r="3.18496" fill="#5C3BFE"/>
<circle cx="252.977" cy="87.8225" r="3.18496" fill="#5C3BFE"/>
</svg>
