<svg fill="none" height="25" viewBox="0 0 95 25" width="95" xmlns="http://www.w3.org/2000/svg"><g fill="#fff"><path d="m24.1613 5.33488c1.3463 0 2.4834.45746 3.4114 1.37237.9279.91492 1.3919 2.02588 1.3919 3.33295 0 1.307-.464 2.4179-1.3919 3.3329-.928.9149-2.0651 1.3723-3.4114 1.3723h-2.0585v4.3132h-3.1369v-13.72372zm0 6.46972c.4836 0 .8823-.1699 1.196-.5097.3136-.3398.4705-.7581.4705-1.2547 0-.49671-.1569-.91496-.4705-1.25479-.3137-.33982-.7124-.50973-1.196-.50973h-2.0585v3.52892zm12.7992-2.54866h2.9408v9.80266h-2.9408v-.9215c-.5881.7973-1.5226 1.196-2.8035 1.196-1.0456 0-1.9213-.3595-2.6271-1.0783-.6928-.7189-1.0391-1.7122-1.0391-2.98v-6.01886h2.9408v5.58756c0 .575.1568 1.0194.4705 1.3331.3268.3006.7385.4509 1.2351.4509.5621 0 1.0064-.1699 1.3332-.5097s.4901-.843.4901-1.5096zm8.2344 1.74486c.183-.6274.549-1.10442 1.0979-1.43117.562-.33983 1.1763-.50974 1.8429-.50974v3.33291c-.7188-.1176-1.392.0065-2.0193.3725-.6143.3529-.9215.9737-.9215 1.8625v4.4308h-2.9408v-9.80266h2.9408zm7.4523 0c.183-.6274.549-1.10442 1.0979-1.43117.562-.33983 1.1763-.50974 1.8429-.50974v3.33291c-.7188-.1176-1.3919.0065-2.0193.3725-.6143.3529-.9215.9737-.9215 1.8625v4.4308h-2.9408v-9.80266h2.9408zm15.2945-1.74486h3.1368l-3.1368 9.80266h-2.7448l-1.5684-5.2346-1.5684 5.2346h-2.7448l-3.1368-9.80266h3.1368l1.4116 5.25426 1.5292-5.25426h2.7448l1.5292 5.25426zm6.7442 6.07766c.3398.9149 1.124 1.3724 2.3526 1.3724.7973 0 1.4247-.2484 1.8821-.745l2.3527 1.3527c-.9672 1.3463-2.3919 2.0194-4.274 2.0194-1.6468 0-2.9669-.4902-3.9603-1.4704-.9802-.9803-1.4704-2.2154-1.4704-3.7054 0-1.477.4836-2.7056 1.4508-3.6858.9803-.99337 2.235-1.49003 3.7643-1.49003 1.4246 0 2.6075.49666 3.5485 1.49003.9541.9802 1.4312 2.2088 1.4312 3.6858 0 .4182-.0392.8103-.1176 1.1763zm-.0588-2.1958h4.2151c-.2875-1.0326-.9803-1.5488-2.0781-1.5488-1.1372 0-1.8495.5162-2.137 1.5488zm14.8623-4.15633c1.294 0 2.3984.5032 3.3133 1.50963.9149.9933 1.3724 2.2154 1.3724 3.6662s-.4575 2.6794-1.3724 3.6858c-.9149.9933-2.0193 1.49-3.3133 1.49-1.2547 0-2.2284-.3987-2.9212-1.196v.9215h-2.9408v-13.72372h2.9408v4.84252c.6928-.79729 1.6665-1.19593 2.9212-1.19593zm-2.2742 6.92063c.4444.4314 1.0064.647 1.6861.647.6796 0 1.2351-.2156 1.6664-.647.4444-.4313.6666-1.0129.6666-1.7448 0-.732-.2222-1.3136-.6666-1.7449-.4313-.4313-.9868-.647-1.6664-.647-.6797 0-1.2417.2157-1.6861.647-.4313.4313-.647 1.0129-.647 1.7449 0 .7319.2157 1.3135.647 1.7448z"/><path d="m9.39433 20.8137 7.76047-17.59007h-2.8591l-7.76048 17.59007z"/><path d="m2.85911 20.8137 7.76039-17.59007h-2.85906l-7.76044 17.59007z"/></g></svg>