<svg fill="none" height="431" viewBox="0 0 437 431" width="437" xmlns="http://www.w3.org/2000/svg" xmlns:xlink="http://www.w3.org/1999/xlink"><clipPath id="a"><path d="m0 0h55.492v55.492h-55.492z" transform="translate(322.548 303.362)"/></clipPath><clipPath id="b"><path d="m0 0h57.804v57.804h-57.804z" transform="translate(322.548 28.902)"/></clipPath><path d="m261.275 334.108h-45.658c-8.836 0-16-7.163-16-16v-96.325c0-8.837-7.163-16-16-16h-63.384m142.198-150.291h-47.006c-8.837 0-16 7.164-16 16v96.326c0 8.836-7.164 16-16 16h-63.77" stroke="#000"/><rect height="174.725" rx="9.5" stroke="#000" transform="matrix(0 -1 1 0 -129.638 653.188)" width="114.608" x="261.775" y="391.413"/><circle cx="80.926" cy="195.378" fill="#5c3bfe" r="80.926" transform="matrix(0 -1 1 0 -114.452 276.304)"/><path d="m68.54 174.4h1.566v12.6h-1.26v-10.692l-4.41 7.38h-.18l-4.41-7.38v10.692h-1.26v-12.6h1.567l4.194 7.02 4.194-7.02zm4.263 8.316v-8.316h1.26v8.316c0 1.02.3 1.824.9 2.412.612.576 1.452.864 2.52.864s1.902-.288 2.502-.864c.612-.588.918-1.392.918-2.412v-8.316h1.26v8.316c0 1.368-.432 2.46-1.296 3.276-.876.816-2.004 1.224-3.384 1.224s-2.508-.408-3.384-1.224c-.864-.816-1.296-1.908-1.296-3.276zm13.323-8.316v11.412h5.76v1.188h-7.02v-12.6zm5.218 0h9v1.188h-3.87v11.412h-1.26v-11.412h-3.87zm10.801 12.6v-12.6h1.26v12.6zm-64.24 13.4h4.5c1.129 0 2.07.378 2.827 1.134.756.756 1.134 1.698 1.134 2.826s-.378 2.07-1.134 2.826-1.698 1.134-2.826 1.134h-3.24v4.68h-1.26v-12.6zm1.26 6.732h3.24c.78 0 1.423-.258 1.927-.774.516-.516.774-1.182.774-1.998 0-.804-.258-1.464-.774-1.98-.504-.528-1.146-.792-1.926-.792h-3.24v5.544zm10.618-6.732v11.412h5.76v1.188h-7.02v-12.6zm17.636 12.6h-1.332l-1.17-3.096h-5.977l-1.17 3.096h-1.332l4.842-12.6h1.296l4.842 12.6zm-5.49-11.034-2.538 6.75h5.076zm5.131-1.566h9v1.188h-3.87v11.412h-1.26v-11.412h-3.87zm17.91 0v1.188h-5.85v4.644h5.58v1.188h-5.58v5.58h-1.26v-12.6zm12.577 10.926c-1.26 1.26-2.802 1.89-4.626 1.89s-3.366-.63-4.626-1.89c-1.26-1.284-1.89-2.826-1.89-4.626 0-1.812.63-3.348 1.89-4.608 1.26-1.272 2.802-1.908 4.626-1.908s3.366.636 4.626 1.908c1.26 1.26 1.89 2.796 1.89 4.608 0 1.8-.63 3.342-1.89 4.626zm-9.882-4.626c0 1.488.504 2.742 1.512 3.762s2.256 1.53 3.744 1.53 2.736-.51 3.744-1.53 1.512-2.274 1.512-3.762c0-1.476-.504-2.724-1.512-3.744-1.008-1.032-2.256-1.548-3.744-1.548s-2.736.516-3.744 1.548c-1.008 1.02-1.512 2.268-1.512 3.744zm23.106 6.3h-1.44l-2.952-5.04h-3.528v5.04h-1.26v-12.6h5.04c1.032 0 1.92.372 2.664 1.116s1.116 1.632 1.116 2.664c0 .864-.258 1.626-.774 2.286a3.705 3.705 0 0 1 -1.944 1.332zm-4.14-11.412h-3.78v5.184h3.78a2.4 2.4 0 0 0 1.782-.756c.492-.528.738-1.14.738-1.836a2.57 2.57 0 0 0 -.738-1.836 2.4 2.4 0 0 0 -1.782-.756zm15.901-1.188h1.566v12.6h-1.26v-10.692l-4.41 7.38h-.18l-4.41-7.38v10.692h-1.26v-12.6h1.566l4.194 7.02z" fill="#fff"/><rect height="174.725" rx="9.5" stroke="#000" transform="matrix(0 -1 1 0 146.667 376.883)" width="114.608" x="261.775" y="115.108"/><path d="m337.181 430.063v-12.948h.98v12.948zm14.863-1.738c-1.294 1.295-2.873 1.942-4.735 1.942s-3.44-.647-4.735-1.942c-1.295-1.307-1.942-2.886-1.942-4.736 0-1.849.647-3.422 1.942-4.716 1.295-1.308 2.873-1.961 4.735-1.961s3.441.653 4.735 1.961c1.295 1.294 1.943 2.867 1.943 4.716 0 1.85-.648 3.429-1.943 4.736zm-8.786-.666c1.11 1.11 2.46 1.665 4.051 1.665 1.603 0 2.947-.555 4.033-1.665 1.109-1.135 1.664-2.491 1.664-4.07 0-1.59-.555-2.941-1.664-4.051-1.086-1.122-2.43-1.683-4.033-1.683-1.591 0-2.941.561-4.051 1.683-1.097 1.123-1.646 2.473-1.646 4.051 0 1.579.549 2.935 1.646 4.07zm16.704 2.608c-1.184 0-2.195-.271-3.034-.814-.839-.555-1.406-1.301-1.702-2.238l.851-.5c.234.814.685 1.456 1.35 1.924.666.456 1.511.685 2.535.685 1.023 0 1.819-.235 2.386-.703.579-.469.869-1.098.869-1.887 0-.703-.271-1.252-.814-1.646-.518-.37-1.362-.746-2.534-1.129l-.925-.296-.814-.314c-.382-.16-.647-.29-.795-.388-.592-.37-.974-.703-1.147-.999a3.115 3.115 0 0 1 -.425-1.573c0-1.048.37-1.886 1.11-2.515.752-.642 1.689-.962 2.811-.962.987 0 1.838.246 2.553.74a4.376 4.376 0 0 1 1.609 1.979l-.832.462c-.605-1.492-1.714-2.238-3.33-2.238-.875 0-1.584.235-2.127.703-.53.456-.795 1.054-.795 1.794 0 .703.246 1.227.739 1.573.494.345 1.301.703 2.424 1.072.727.247 1.282.451 1.664.611.42.173.851.401 1.295.684.888.543 1.332 1.351 1.332 2.423 0 1.073-.388 1.937-1.165 2.59-.765.641-1.795.962-3.089.962zm-34.149-275.352h-1.036l-1.258-3.292h-6.492l-1.258 3.292h-1.036l5.031-12.948h1.036zm-5.531-11.746-2.885 7.529h5.771zm11.467 2.294c1.097 0 1.967.339 2.608 1.017.653.666.98 1.56.98 2.683v5.752h-.943v-5.752c0-.864-.241-1.548-.722-2.054-.48-.505-1.146-.758-1.997-.758-.974 0-1.757.321-2.349.962s-.888 1.547-.888 2.719v4.883h-.925v-9.248h.925v1.757c.666-1.307 1.769-1.961 3.311-1.961zm14.362 2.349v-5.845h.925v12.948h-.925v-2.146a4.254 4.254 0 0 1 -1.628 1.739c-.69.407-1.473.611-2.349.611-1.319 0-2.454-.463-3.403-1.388-.925-.937-1.388-2.084-1.388-3.44 0-1.357.463-2.497 1.388-3.422.937-.937 2.071-1.406 3.403-1.406.876 0 1.659.21 2.349.629.703.407 1.246.98 1.628 1.72zm-6.714 5.272c.764.765 1.695 1.147 2.793 1.147 1.085 0 2.01-.382 2.774-1.147.765-.765 1.147-1.696 1.147-2.793 0-1.098-.382-2.029-1.147-2.793-.764-.765-1.689-1.147-2.774-1.147-1.098 0-2.029.382-2.793 1.147-.753.752-1.129 1.683-1.129 2.793s.376 2.041 1.129 2.793zm11.404-7.417v1.812c.555-1.295 1.584-1.942 3.089-1.942v.888c-.913 0-1.659.29-2.238.869-.568.58-.851 1.406-.851 2.479v5.142h-.925v-9.248zm8.64 9.452c-1.357 0-2.51-.463-3.459-1.388-.938-.937-1.406-2.084-1.406-3.44 0-1.357.468-2.497 1.406-3.422.937-.937 2.09-1.406 3.459-1.406 1.344 0 2.484.469 3.422 1.406.949.925 1.424 2.065 1.424 3.422 0 1.344-.475 2.491-1.424 3.44-.95.925-2.091 1.388-3.422 1.388zm-2.794-2.035c.765.765 1.696 1.147 2.794 1.147 1.085 0 2.01-.382 2.774-1.147.752-.752 1.129-1.683 1.129-2.793s-.377-2.041-1.129-2.793c-.764-.765-1.689-1.147-2.774-1.147-1.098 0-2.029.382-2.794 1.147-.752.752-1.128 1.683-1.128 2.793s.376 2.041 1.128 2.793zm9.588-10.396c-.012-.296.105-.499.352-.61a.825.825 0 0 1 .758 0c.259.111.382.314.37.61.012.309-.111.525-.37.648a.825.825 0 0 1 -.758 0c-.247-.123-.364-.339-.352-.648zm1.203 12.227h-.925v-9.248h.925zm11.007-7.103v-5.845h.925v12.948h-.925v-2.146a4.258 4.258 0 0 1 -1.627 1.739c-.691.407-1.474.611-2.35.611-1.319 0-2.454-.463-3.403-1.388-.925-.937-1.387-2.084-1.387-3.44 0-1.357.462-2.497 1.387-3.422.937-.937 2.072-1.406 3.403-1.406.876 0 1.659.21 2.35.629.702.407 1.245.98 1.627 1.72zm-6.714 5.272c.764.765 1.695 1.147 2.793 1.147 1.085 0 2.01-.382 2.774-1.147.765-.765 1.147-1.696 1.147-2.793 0-1.098-.382-2.029-1.147-2.793-.764-.765-1.689-1.147-2.774-1.147-1.098 0-2.029.382-2.793 1.147-.752.752-1.129 1.683-1.129 2.793s.377 2.041 1.129 2.793z" fill="#808080"/><g clip-path="url(#a)" opacity=".5"><path d="m365.399 332.845c0-4.706 2.514-8.729 6.082-10.421-.993-1.299-2.325-2.52-4.118-3.796-2.319-1.654-7.458-1.842-10.826-.982-2.558.649-4.739 1.903-5.905 1.959-1.054.055-3.318-1.354-5.904-1.959-3.119-.733-6.52-.322-8.856.982-6.793 3.796-7.88 7.675-7.88 15.688 0 9.233 3.346 17.063 10.826 22.557 1.643 1.204 4.595 1.915 6.892.982 1.976-.804 3.03-1.787 4.922-1.959 2.764-.249 4.051.677 5.383 1.504 1.21.749 4.001 1.354 5.444.461 5.055-3.13 9.034-8.246 11.137-14.151-4.151-1.331-7.197-5.688-7.197-10.865zm-5.91-21.081c2.009-3.152 2.014-7.864 1.97-7.847-.832.277-3.64-.377-7.874 2.941-1.476 1.16-3.291 4.012-3.94 5.882-.494 1.421-.977 4.9-.988 4.906-.05.005 3.246-.178 4.922-.982 1.72-.822 4.611-2.858 5.91-4.9z" fill="#5c3bfe"/></g><circle cx="261.275" cy="334.109" fill="#5c3bfe" r="19.653" transform="matrix(0 -1 1 0 -72.834 595.384)"/><path clip-rule="evenodd" d="m271.157 328.512-11.969 11.97-7.795-7.795.818-.817 6.977 6.977 11.152-11.152z" fill="#fff" fill-rule="evenodd"/><circle cx="261.275" cy="55.492" fill="#5c3bfe" r="19.653" transform="matrix(0 -1 1 0 205.783 316.767)"/><g clip-path="url(#b)" fill="#5c3bfe" opacity=".5"><path d="m330.572 47.626c-.996 0-1.841.347-2.535 1.042-.695.694-1.042 1.528-1.042 2.5v14.938c0 .997.347 1.842 1.042 2.536.694.695 1.539 1.042 2.535 1.042s1.835-.347 2.519-1.042c.683-.694 1.025-1.539 1.025-2.536v-14.937c0-.973-.347-1.807-1.042-2.501-.695-.695-1.529-1.042-2.502-1.042zm28.764-13.409 2.466-4.55c.162-.302.104-.533-.173-.695-.301-.14-.533-.07-.695.208l-2.501 4.586a17.074 17.074 0 0 0 -6.982-1.46c-2.455 0-4.783.487-6.983 1.46l-2.501-4.586c-.162-.277-.394-.347-.695-.208-.278.163-.335.393-.173.695l2.467 4.55c-2.501 1.275-4.493 3.051-5.975 5.332-1.482 2.283-2.224 4.777-2.224 7.487h32.132c0-2.71-.741-5.204-2.223-7.487-1.482-2.28-3.463-4.057-5.94-5.332zm-14.26 6.617c-.267.268-.586.4-.956.4-.371 0-.683-.132-.938-.4a1.333 1.333 0 0 1 -.381-.955c0-.37.127-.688.381-.954.255-.267.568-.4.938-.4s.689.133.956.4c.266.267.4.584.4.955a1.311 1.311 0 0 1 -.4.954zm14.641 0c-.255.268-.567.4-.937.4a1.3 1.3 0 0 1 -.956-.4 1.299 1.299 0 0 1 -.4-.955c0-.37.133-.688.4-.954.266-.267.585-.4.956-.4.37 0 .682.133.937.4s.382.584.382.955c0 .37-.127.688-.382.954zm-24.211 30.586c0 1.067.37 1.97 1.111 2.71.741.741 1.644 1.112 2.709 1.112h2.571l.035 7.886c0 .996.348 1.842 1.042 2.536.695.695 1.529 1.042 2.501 1.042.996 0 1.841-.347 2.536-1.042.695-.694 1.042-1.54 1.042-2.536v-7.886h4.794v7.886c0 .996.347 1.842 1.042 2.536.695.695 1.539 1.042 2.535 1.042s1.841-.347 2.536-1.042c.695-.694 1.042-1.54 1.042-2.536v-7.886h2.605c1.042 0 1.933-.37 2.676-1.11.74-.742 1.111-1.644 1.111-2.71v-23.137h-31.888v23.136zm36.822-23.794a3.44 3.44 0 0 0 -2.501 1.024c-.695.684-1.042 1.524-1.042 2.519v14.937c0 .997.347 1.842 1.042 2.536.694.695 1.528 1.042 2.501 1.042.995 0 1.841-.347 2.535-1.042.695-.694 1.042-1.539 1.042-2.536v-14.937c0-.995-.347-1.835-1.042-2.519-.694-.682-1.54-1.024-2.535-1.024z"/></g><path clip-rule="evenodd" d="m271.157 49.896-11.969 11.97-7.795-7.795.818-.818 6.977 6.977 11.152-11.152z" fill="#fff" fill-rule="evenodd"/></svg>