<svg width="357" height="173" viewBox="0 0 357 173" fill="none" xmlns="http://www.w3.org/2000/svg">
<path d="M180.535 117.96C180.535 85.7317 206.662 59.6052 238.89 59.6052C271.119 59.6052 297.245 85.7317 297.245 117.96V134.706H180.535V117.96Z" fill="#DED8FF"/>
<path d="M132.836 79.9023L132.836 171.241" stroke="#5C3BFE"/>
<path d="M124.717 79.9023L124.717 171.241" stroke="#7C60FE"/>
<path d="M116.598 79.9023L116.598 171.241" stroke="#A795FF"/>
<path d="M108.479 79.9023L108.479 171.241" stroke="#D3CAFF"/>
<path d="M100.359 79.9023L100.359 171.241" stroke="#ECE8FF"/>
<path d="M227.64 15.0136C227.4 15.1505 227.317 15.4559 227.453 15.6957C227.59 15.9356 227.896 16.019 228.136 15.8822L227.64 15.0136ZM343.791 46.7299L343.356 46.9778L343.791 46.7299ZM348.863 119.772L348.398 119.587L348.863 119.772ZM344.189 129.659L344.626 129.901L344.189 129.659ZM337.397 139.227C337.231 139.447 337.276 139.761 337.497 139.927C337.718 140.092 338.031 140.048 338.197 139.827L337.397 139.227ZM232.386 0.885673C232.465 0.621065 232.314 0.342535 232.05 0.26356C231.785 0.184585 231.507 0.33507 231.428 0.599679L232.386 0.885673ZM227.219 16.4501L226.74 16.3071C226.701 16.4381 226.717 16.5793 226.784 16.698C226.852 16.8167 226.966 16.9024 227.098 16.9354L227.219 16.4501ZM243.007 20.8882C243.275 20.9548 243.546 20.7915 243.612 20.5235C243.679 20.2555 243.516 19.9843 243.248 19.9177L243.007 20.8882ZM332.292 54.8547L331.858 55.1025L332.292 54.8547ZM336.67 116.935L337.135 117.119L336.67 116.935ZM332.714 125.333L333.151 125.575L332.714 125.333ZM326.899 133.413C326.733 133.634 326.778 133.948 326.999 134.113C327.22 134.279 327.533 134.234 327.699 134.013L326.899 133.413ZM276.461 18.427C276.186 18.4014 275.942 18.6036 275.916 18.8786C275.891 19.1535 276.093 19.3972 276.368 19.4227L276.461 18.427ZM228.136 15.8822C268.745 -7.29435 320.33 6.63171 343.356 46.9778L344.225 46.4821C320.922 5.65119 268.724 -8.43364 227.64 15.0136L228.136 15.8822ZM343.356 46.9778C356.492 69.9947 357.498 96.6395 348.398 119.587L349.328 119.956C358.534 96.7391 357.519 69.7752 344.225 46.4821L343.356 46.9778ZM348.398 119.587C347.064 122.951 345.513 126.235 343.751 129.417L344.626 129.901C346.409 126.682 347.978 123.359 349.328 119.956L348.398 119.587ZM343.751 129.417C341.871 132.813 339.75 136.092 337.397 139.227L338.197 139.827C340.578 136.655 342.723 133.337 344.626 129.901L343.751 129.417ZM231.428 0.599679L226.74 16.3071L227.698 16.5931L232.386 0.885673L231.428 0.599679ZM227.098 16.9354L243.007 20.8882L243.248 19.9177L227.339 15.9649L227.098 16.9354ZM331.858 55.1025C343.018 74.6567 343.897 97.2784 336.205 116.751L337.135 117.119C344.934 97.3765 344.043 74.4363 332.727 54.6068L331.858 55.1025ZM336.205 116.751C335.078 119.606 333.766 122.392 332.276 125.091L333.151 125.575C334.662 122.838 335.992 120.013 337.135 117.119L336.205 116.751ZM332.276 125.091C330.685 127.973 328.89 130.755 326.899 133.413L327.699 134.013C329.719 131.317 331.538 128.496 333.151 125.575L332.276 125.091ZM276.368 19.4227C298.804 21.5075 319.871 34.0992 331.858 55.1025L332.727 54.6068C320.571 33.3075 299.207 20.5406 276.461 18.427L276.368 19.4227Z" fill="#8870FC"/>
<path d="M233.307 52.501L254.619 73.8132" stroke="#B6A7FF"/>
<path d="M254.619 52.501L233.307 73.8132" stroke="#B6A7FF"/>
<path d="M228.232 98.6777L236.351 106.797" stroke="#B6A7FF"/>
<path d="M236.352 98.6777L228.233 106.797" stroke="#B6A7FF"/>
<path d="M182.564 85.9917L201.847 105.274" stroke="#B6A7FF"/>
<path d="M201.848 85.9917L182.565 105.274" stroke="#B6A7FF"/>
<path d="M266.911 57.4983C266.911 55.2915 267.4 53.197 268.274 51.317C268.728 50.3391 268.793 49.1908 268.217 48.2791C267.175 46.6314 265.964 45.1006 264.61 43.711C263.802 42.8815 262.568 42.7098 261.451 43.0134C260.226 43.3462 258.937 43.5235 257.605 43.5235C252.484 43.5235 247.976 40.8894 245.362 36.8969C244.728 35.9282 243.69 35.2387 242.535 35.3232C241.048 35.432 239.593 35.6568 238.18 35.9893C236.995 36.268 236.2 37.3205 235.931 38.5075C234.453 45.0413 228.625 49.9176 221.665 49.9176C220.686 49.9176 219.736 50.3859 219.316 51.2703C218.552 52.8777 217.937 54.5694 217.488 56.3293C217.194 57.4823 217.727 58.652 218.615 59.4436C221.628 62.1273 223.524 66.042 223.524 70.4033C223.524 72.6931 223 74.857 222.065 76.785C221.543 77.8611 221.498 79.1526 222.217 80.1088C223.189 81.4027 224.268 82.6114 225.444 83.7197C226.265 84.4944 227.469 84.6275 228.554 84.3125C229.844 83.9379 231.206 83.7387 232.614 83.7387C237.471 83.7387 241.774 86.1087 244.435 89.7619C245.096 90.6685 246.122 91.2948 247.239 91.1901C249.277 90.9993 251.251 90.5879 253.138 89.9796C254.126 89.6612 254.803 88.791 255.107 87.7986C256.751 82.428 261.386 78.3737 267.059 77.5845C268.086 77.4416 269.051 76.9111 269.522 75.9875C270.429 74.2101 271.151 72.3237 271.662 70.3525C271.932 69.3086 271.521 68.2343 270.79 67.4414C268.383 64.8302 266.911 61.339 266.911 57.4983ZM244.558 75.8875C237.608 75.8875 231.976 70.2435 231.976 63.2776C231.976 56.3117 237.608 50.6615 244.558 50.6615C251.508 50.6615 257.145 56.3117 257.145 63.2776C257.145 70.2435 251.508 75.8875 244.558 75.8875Z" fill="#5C3BFE"/>
<path d="M240.546 100.541C240.546 100.054 240.607 99.5812 240.721 99.1305C240.974 98.1345 241.081 97.0262 240.463 96.2054C239.766 95.2799 238.502 95.1716 237.345 95.2224C237.267 95.2258 237.189 95.2275 237.111 95.2275C235.498 95.2275 234.05 94.499 233.06 93.3429C232.463 92.6454 231.635 92.0615 230.728 92.2051C229.79 92.3536 229.214 93.201 228.881 94.0902C228.1 96.1781 226.137 97.6587 223.841 97.6587C223.48 97.6587 223.131 97.833 222.979 98.1602C222.819 98.5056 222.677 98.8612 222.554 99.226C222.23 100.179 222.719 101.162 223.338 101.956C224.082 102.911 224.527 104.125 224.527 105.448C224.527 106.002 224.449 106.538 224.302 107.042C224.025 108 223.95 109.086 224.602 109.839C225.249 110.586 226.318 110.659 227.299 110.55C227.491 110.529 227.686 110.518 227.884 110.518C229.265 110.518 230.526 111.053 231.481 111.934C232.316 112.704 233.363 113.408 234.472 113.163C235.481 112.941 236.099 112.031 236.568 111.11C237.198 109.871 238.266 108.908 239.56 108.439C240.546 108.081 241.563 107.58 241.934 106.598C241.955 106.541 241.977 106.483 241.997 106.425C242.353 105.43 241.9 104.383 241.355 103.477C240.842 102.625 240.546 101.619 240.546 100.541ZM232.293 107.533C229.727 107.533 227.648 105.387 227.648 102.738C227.648 100.09 229.727 97.9415 232.293 97.9415C234.859 97.9415 236.941 100.09 236.941 102.738C236.941 105.387 234.859 107.533 232.293 107.533Z" fill="#5C3BFE"/>
<path d="M205.323 82.9559C204.517 81.5604 204.037 80.0647 203.856 78.5568C203.728 77.4816 203.215 76.445 202.247 75.96C201.095 75.3831 199.896 74.9097 198.665 74.5428C197.56 74.2132 196.413 74.6894 195.572 75.4795C194.928 76.0849 194.205 76.6262 193.405 77.088C190.006 79.0503 186.03 79.1063 182.723 77.5839C181.673 77.1005 180.431 77.0137 179.486 77.6792C178.743 78.2024 178.041 78.7645 177.38 79.3612C176.476 80.1777 176.324 81.4907 176.64 82.6669C177.973 87.6173 175.878 93.0402 171.221 95.7289C170.548 96.1177 170.08 96.8164 170.141 97.5917C170.24 98.857 170.45 100.121 170.774 101.371C171.073 102.526 172.131 103.267 173.291 103.547C176.262 104.265 178.943 106.152 180.591 109.007C181.421 110.444 181.906 111.984 182.072 113.533C182.2 114.727 182.801 115.88 183.916 116.327C184.858 116.706 185.824 117.02 186.808 117.268C187.899 117.543 189.001 117.049 189.807 116.264C190.484 115.603 191.254 115.017 192.109 114.523C195.331 112.663 199.07 112.517 202.268 113.806C203.307 114.224 204.507 114.261 205.409 113.599C206.519 112.784 207.534 111.879 208.45 110.901C209.16 110.143 209.304 109.048 209.103 108.029C208.292 103.911 209.785 99.5862 213.094 96.8527C213.892 96.1937 214.47 95.2582 214.402 94.2256C214.314 92.886 214.103 91.547 213.763 90.2251C213.493 89.1773 212.589 88.4569 211.566 88.1046C209.023 87.2286 206.774 85.4687 205.323 82.9559ZM197.219 104.411C192.441 107.169 186.34 105.543 183.588 100.777C180.836 96.0107 182.476 89.9096 187.254 87.1509C192.032 84.3922 198.14 86.0204 200.892 90.7865C203.644 95.5525 201.997 101.652 197.219 104.411Z" fill="#5C3BFE"/>
<rect x="1.40234" y="155.866" width="14.2522" height="14.257" fill="white" stroke="#3922A9"/>
<rect x="71.2168" y="155.866" width="14.2522" height="14.257" fill="white" stroke="#3922A9"/>
<path d="M78.7919 155.365C78.7919 135.837 62.9652 120.006 43.4419 120.006C23.9186 120.006 8.0918 135.837 8.0918 155.365" stroke="#5C3BFE" stroke-dasharray="4 4"/>
<rect x="36.3125" y="112.878" width="14.2522" height="14.257" fill="white" stroke="#3922A9"/>
<path d="M58.1903 156.983C58.1903 165.134 51.5844 171.741 43.436 171.741C35.2875 171.741 28.6816 165.134 28.6816 156.983C28.6816 148.832 35.2875 142.225 43.436 142.225C51.5844 142.225 58.1903 148.832 58.1903 156.983Z" stroke="#3922A9"/>
<path d="M53.5101 156.983C53.5101 162.55 48.9986 167.062 43.4338 167.062C37.8689 167.062 33.3574 162.55 33.3574 156.983C33.3574 151.417 37.8689 146.904 43.4338 146.904C48.9986 146.904 53.5101 151.417 53.5101 156.983Z" stroke="#8870FC"/>
<path d="M48.4237 156.985C48.4237 159.742 46.189 161.977 43.4325 161.977C40.6761 161.977 38.4414 159.742 38.4414 156.985C38.4414 154.227 40.6761 151.992 43.4325 151.992C46.189 151.992 48.4237 154.227 48.4237 156.985Z" stroke="#DED8FF"/>
<path d="M102.463 58.0257C89.5301 58.0257 79.0463 47.5419 79.0463 34.6094C79.0463 21.677 89.5301 11.1931 102.463 11.1931V34.6094H125.879C125.879 47.5419 115.395 58.0257 102.463 58.0257Z" fill="#DED8FF"/>
<path opacity="0.1" d="M107.369 29.2332L130.785 29.2332C130.785 9.94974 115.198 5.59333 107.369 5.82555V29.2332Z" fill="#8870FC"/>
<rect x="140.455" y="132.176" width="156.275" height="38.5464" fill="white" stroke="#DED8FF"/>
<path d="M140.956 144.33C143.48 143.93 149.405 145.049 152.913 152.718C155.358 158.064 159.437 159.313 162.969 158.331C168.561 156.776 169.247 148.802 174.251 145.862C175.818 144.942 177.804 144.33 180.283 144.33" stroke="#8870FC"/>
<path d="M219.611 144.33C217.087 143.93 211.161 145.049 207.653 152.718C205.208 158.064 201.129 159.313 197.597 158.331C192.006 156.776 191.32 148.802 186.315 145.862C184.748 144.942 182.763 144.33 180.283 144.33" stroke="#8870FC"/>
<path d="M217.575 144.33C220.099 143.93 226.025 145.049 229.532 152.718C231.977 158.064 236.056 159.313 239.588 158.331C245.18 156.776 245.866 148.802 250.87 145.862C252.437 144.942 254.423 144.33 256.902 144.33" stroke="#8870FC"/>
<path d="M296.23 144.33C293.706 143.93 287.78 145.049 284.273 152.718C281.827 158.064 277.749 159.313 274.216 158.331C268.625 156.776 267.939 148.802 262.934 145.862C261.367 144.942 259.382 144.33 256.902 144.33" stroke="#8870FC"/>
<rect x="296.744" y="132.176" width="59.2558" height="38.5464" fill="white" stroke="#DED8FF"/>
<path d="M315.137 146.886C315.137 148.172 314.093 149.215 312.804 149.215C311.515 149.215 310.471 148.172 310.471 146.886C310.471 145.601 311.515 144.558 312.804 144.558C314.093 144.558 315.137 145.601 315.137 146.886Z" stroke="#8870FC"/>
<path d="M324.184 146.886C324.184 148.172 323.14 149.215 321.851 149.215C320.561 149.215 319.518 148.172 319.518 146.886C319.518 145.601 320.561 144.558 321.851 144.558C323.14 144.558 324.184 145.601 324.184 146.886Z" stroke="#8870FC"/>
<path d="M333.23 146.886C333.23 148.172 332.187 149.215 330.897 149.215C329.608 149.215 328.564 148.172 328.564 146.886C328.564 145.601 329.608 144.558 330.897 144.558C332.187 144.558 333.23 145.601 333.23 146.886Z" stroke="#8870FC"/>
<path d="M342.277 146.886C342.277 148.172 341.234 149.215 339.944 149.215C338.655 149.215 337.611 148.172 337.611 146.886C337.611 145.601 338.655 144.558 339.944 144.558C341.234 144.558 342.277 145.601 342.277 146.886Z" stroke="#8870FC"/>
<path d="M315.137 156.011C315.137 157.297 314.093 158.34 312.804 158.34C311.515 158.34 310.471 157.297 310.471 156.011C310.471 154.726 311.515 153.683 312.804 153.683C314.093 153.683 315.137 154.726 315.137 156.011Z" stroke="#8870FC"/>
<path d="M324.184 156.011C324.184 157.297 323.14 158.34 321.851 158.34C320.561 158.34 319.518 157.297 319.518 156.011C319.518 154.726 320.561 153.683 321.851 153.683C323.14 153.683 324.184 154.726 324.184 156.011Z" stroke="#8870FC"/>
<path d="M333.23 156.011C333.23 157.297 332.187 158.34 330.897 158.34C329.608 158.34 328.564 157.297 328.564 156.011C328.564 154.726 329.608 153.683 330.897 153.683C332.187 153.683 333.23 154.726 333.23 156.011Z" stroke="#8870FC"/>
<path d="M342.277 156.011C342.277 157.297 341.234 158.34 339.944 158.34C338.655 158.34 337.611 157.297 337.611 156.011C337.611 154.726 338.655 153.683 339.944 153.683C341.234 153.683 342.277 154.726 342.277 156.011Z" stroke="#8870FC"/>
<path d="M190.463 41.3374V48.1656" stroke="#5C3BFE"/>
<path d="M199.312 44.7515L194.5 49.5797" stroke="#DED8FF"/>
<path d="M202.42 53.3604L195.614 53.3604" stroke="#CEC4FF"/>
<path d="M181.615 44.7515L186.428 49.5797" stroke="#7D62FE"/>
<path d="M178.504 53.3604L185.31 53.3604" stroke="#8D76FE"/>
<path d="M190.463 65.3835V58.5553" stroke="#AD9DFE"/>
<path d="M199.312 61.9695L194.5 57.1412" stroke="#BEB1FF"/>
<path d="M181.615 61.9695L186.428 57.1412" stroke="#9D89FE"/>
<path d="M16.327 65.6943L14.1045 69.7713L10.0408 72.0011L14.1045 74.2309L16.327 78.3079L18.5496 74.2309L22.6133 72.0011L18.5496 69.7713L16.327 65.6943Z" fill="#8870FC"/>
<path d="M14.0997 69.7713L16.3223 65.6943V78.3079L14.0997 74.2309L10.036 72.0011L14.0997 69.7713Z" fill="#4126C0"/>
</svg>
