<svg width="401" height="232" viewBox="0 0 401 232" fill="none" xmlns="http://www.w3.org/2000/svg">
<path d="M298.316 43.1807H299.981" stroke="#8870FC" stroke-width="0.5" stroke-miterlimit="10"/>
<path d="M303.309 43.1807H327.94C334.153 43.1807 339.257 48.2887 339.257 54.5072L339.035 155.003" stroke="#8870FC" stroke-width="0.5" stroke-miterlimit="10" stroke-dasharray="2.96 2.96"/>
<path d="M339.035 156.779V158.445" stroke="#8870FC" stroke-width="0.5" stroke-miterlimit="10"/>
<path d="M67.3125 109.363V107.697" stroke="#8870FC" stroke-width="0.5" stroke-miterlimit="10"/>
<path d="M67.3125 104.255V94.7051C67.3125 89.9302 71.1959 85.9326 76.0778 85.9326L152.746 86.1547" stroke="#8870FC" stroke-width="0.5" stroke-miterlimit="10" stroke-dasharray="3.05 3.05"/>
<path d="M154.41 86.1548H156.074" stroke="#8870FC" stroke-width="0.5" stroke-miterlimit="10"/>
<path d="M108.256 156.224H40.6856C39.1322 156.224 37.8008 155.002 37.8008 153.337V112.25C37.8008 110.696 39.0213 109.363 40.6856 109.363H108.256C109.809 109.363 111.141 110.585 111.141 112.25V153.337C111.03 154.891 109.809 156.224 108.256 156.224ZM40.6856 109.807C39.3541 109.807 38.2446 110.918 38.2446 112.25V153.337C38.2446 154.669 39.3541 155.78 40.6856 155.78H108.256C109.587 155.78 110.697 154.669 110.697 153.337V112.25C110.697 110.918 109.587 109.807 108.256 109.807H40.6856Z" fill="#2D16D6"/>
<path d="M110.807 114.582H38.1328V114.915H110.807V114.582Z" fill="#2D16D6"/>
<path d="M106.589 113.361C107.033 113.361 107.366 113.028 107.366 112.583C107.366 112.139 107.033 111.806 106.589 111.806C106.145 111.806 105.812 112.139 105.812 112.583C105.812 113.028 106.256 113.361 106.589 113.361Z" fill="#2D16D6"/>
<path d="M103.593 113.361C104.037 113.361 104.37 113.028 104.37 112.583C104.37 112.139 104.037 111.806 103.593 111.806C103.149 111.806 102.816 112.139 102.816 112.583C102.816 113.028 103.149 113.361 103.593 113.361Z" fill="#2D16D6"/>
<path d="M100.488 113.361C100.931 113.361 101.264 113.028 101.264 112.583C101.264 112.139 100.931 111.806 100.488 111.806C100.044 111.806 99.7109 112.139 99.7109 112.583C99.7109 113.028 100.155 113.361 100.488 113.361Z" fill="#2D16D6"/>
<path d="M72.0839 57.5052C74.6358 57.5052 76.7439 55.3954 76.7439 52.8414C76.7439 50.2873 74.6358 48.1775 72.0839 48.1775C69.532 48.1775 67.4239 50.2873 67.4239 52.8414C67.313 55.5064 69.532 57.5052 72.0839 57.5052Z" fill="#DED8FF"/>
<path d="M93.0546 46.068C95.6065 46.068 97.7146 43.9581 97.7146 41.4041C97.7146 38.8501 95.6065 36.7402 93.0546 36.7402C90.5026 36.7402 88.3945 38.8501 88.3945 41.4041C88.3945 43.9581 90.5026 46.068 93.0546 46.068Z" fill="#8870FC"/>
<path d="M105.48 61.725C108.032 61.725 110.14 59.6151 110.14 57.0611C110.14 54.5071 108.032 52.3972 105.48 52.3972C102.928 52.3972 100.82 54.5071 100.82 57.0611C100.82 59.8372 102.928 61.725 105.48 61.725Z" fill="#1F00FF"/>
<path d="M369.991 148.007V184.984H369.547L338.48 166.107L369.991 148.007Z" fill="#8870FC"/>
<path d="M338.593 166.107L307.637 184.984V148.117L338.593 166.107Z" fill="#8870FC"/>
<path d="M369.659 184.984H307.637L338.593 166.107L369.659 184.984Z" fill="#1F00FF"/>
<path d="M369.992 148.007L338.481 166.107L307.525 148.118V148.007H369.992Z" fill="#DED8FF"/>
<path d="M305.418 10.4224L308.302 15.7525L313.628 18.7507L308.302 21.7489L305.418 27.0791L302.533 21.7489L297.207 18.7507L302.533 15.7525L305.418 10.4224Z" fill="#8870FC"/>
<path d="M293.101 199.753H208.111C205.892 199.753 204.117 197.977 204.117 195.756V34.1858C204.117 31.9649 205.892 30.1882 208.111 30.1882H293.101C295.32 30.1882 297.096 31.9649 297.096 34.1858V195.756C297.096 197.977 295.209 199.753 293.101 199.753Z" fill="white"/>
<path d="M293.101 199.976H208.111C205.781 199.976 203.895 198.088 203.895 195.756V34.186C203.895 31.8541 205.781 29.9663 208.111 29.9663H293.101C295.431 29.9663 297.317 31.8541 297.317 34.186V195.756C297.317 197.977 295.32 199.976 293.101 199.976ZM208.111 30.4105C206.003 30.4105 204.338 31.9651 204.338 34.186V195.756C204.338 197.866 206.114 199.531 208.111 199.531H293.101C295.209 199.531 296.873 197.977 296.873 195.756V34.186C296.873 32.0762 295.098 30.4105 293.101 30.4105H208.111Z" fill="#8870FC"/>
<path d="M287.332 170.326H243.506C241.953 170.326 240.621 168.55 240.621 166.329V57.3941C240.621 55.1732 241.842 53.3965 243.506 53.3965H287.332C288.886 53.3965 290.217 55.1732 290.217 57.3941V166.329C290.106 168.55 288.886 170.326 287.332 170.326Z" fill="#5C3BFE"/>
<path d="M215.879 139.012H229.304V148.673L236.96 139.012H258.152C259.151 139.012 260.038 138.235 260.038 137.124V119.69C260.038 118.691 259.262 117.803 258.152 117.803H194.687C193.688 117.803 192.801 118.58 192.801 119.69V137.124C192.801 138.124 193.577 139.012 194.687 139.012H215.879Z" fill="white"/>
<path d="M229.304 148.784C229.304 148.784 229.193 148.784 229.304 148.784C229.193 148.784 229.082 148.673 229.082 148.562V139.123H194.687C193.577 139.123 192.689 138.235 192.689 137.124V119.69C192.689 118.58 193.577 117.691 194.687 117.691H258.152C259.261 117.691 260.149 118.58 260.149 119.69V137.124C260.149 138.235 259.261 139.123 258.152 139.123H237.071L229.304 148.784C229.415 148.784 229.415 148.784 229.304 148.784ZM194.687 118.136C193.799 118.136 193.133 118.913 193.133 119.69V137.124C193.133 138.013 193.91 138.679 194.687 138.679H229.304C229.415 138.679 229.526 138.79 229.526 138.901V147.896L236.849 138.79C236.849 138.679 236.96 138.679 236.96 138.679H258.152C259.039 138.679 259.705 137.902 259.705 137.124V119.69C259.705 118.802 258.928 118.136 258.152 118.136H194.687Z" fill="#1F00FF"/>
<path d="M236.96 95.0386H223.535V104.699L215.879 95.0386H194.687C193.688 95.0386 192.801 94.2613 192.801 93.1509V75.7169C192.801 74.7175 193.577 73.8291 194.687 73.8291H258.152C259.151 73.8291 260.038 74.6064 260.038 75.7169V93.1509C260.038 94.1503 259.262 95.0386 258.152 95.0386H236.96Z" fill="white"/>
<path d="M223.423 104.699C223.312 104.699 223.312 104.699 223.312 104.588L215.656 95.0383H194.575C193.466 95.0383 192.578 94.15 192.578 93.0395V75.7166C192.578 74.6061 193.466 73.7178 194.575 73.7178H258.04C259.15 73.7178 260.037 74.6061 260.037 75.7166V93.1506C260.037 94.261 259.15 95.1494 258.04 95.1494H223.645V104.588C223.756 104.588 223.645 104.699 223.423 104.699ZM194.686 74.162C193.799 74.162 193.133 74.9393 193.133 75.7166V93.1506C193.133 94.0389 193.91 94.7052 194.686 94.7052H215.878C215.989 94.7052 215.989 94.7052 215.989 94.8163L223.312 103.922V94.9273C223.312 94.8163 223.423 94.7052 223.534 94.7052H258.151C259.039 94.7052 259.705 93.9279 259.705 93.1506V75.7166C259.705 74.8282 258.928 74.162 258.151 74.162H194.686Z" fill="#1F00FF"/>
<path d="M204.228 91.0406C205.337 91.0406 206.114 90.1523 206.114 89.1529C206.114 88.0424 205.226 87.2651 204.228 87.2651C203.229 87.2651 202.341 88.1535 202.341 89.1529C202.23 90.1523 203.118 91.0406 204.228 91.0406Z" fill="#3922A9"/>
<path d="M210.664 91.0406C211.773 91.0406 212.55 90.1523 212.55 89.1529C212.55 88.0424 211.662 87.2651 210.664 87.2651C209.665 87.2651 208.777 88.1535 208.777 89.1529C208.777 90.1523 209.665 91.0406 210.664 91.0406Z" fill="#3922A9"/>
<path d="M217.099 91.0406C218.209 91.0406 218.985 90.1523 218.985 89.1529C218.985 88.0424 218.098 87.2651 217.099 87.2651C215.99 87.2651 215.213 88.1535 215.213 89.1529C215.213 90.1523 216.101 91.0406 217.099 91.0406Z" fill="#3922A9"/>
<path d="M233.853 134.792C234.962 134.792 235.739 133.904 235.739 132.904C235.739 131.905 234.851 131.017 233.853 131.017C232.854 131.017 231.966 131.905 231.966 132.904C231.855 133.904 232.743 134.792 233.853 134.792Z" fill="#3922A9"/>
<path d="M240.288 134.792C241.398 134.792 242.174 133.904 242.174 132.904C242.174 131.905 241.287 131.017 240.288 131.017C239.179 131.017 238.402 131.905 238.402 132.904C238.291 133.904 239.179 134.792 240.288 134.792Z" fill="#3922A9"/>
<path d="M246.613 134.792C247.722 134.792 248.499 133.904 248.499 132.904C248.499 131.905 247.611 131.017 246.613 131.017C245.614 131.017 244.727 131.905 244.727 132.904C244.727 133.904 245.503 134.792 246.613 134.792Z" fill="#3922A9"/>
<path d="M211.551 40.9599C213.326 40.9599 214.547 39.7384 214.547 38.0727C214.547 36.5181 213.215 35.1855 211.551 35.1855C209.776 35.1855 208.555 36.407 208.555 38.0727C208.444 39.7384 209.776 40.9599 211.551 40.9599Z" fill="#3922A9"/>
<path d="M222.312 40.9599C224.087 40.9599 225.308 39.7384 225.308 38.0727C225.308 36.5181 223.976 35.1855 222.312 35.1855C220.537 35.1855 219.316 36.407 219.316 38.0727C219.427 39.7384 220.759 40.9599 222.312 40.9599Z" fill="#8870FC"/>
<path d="M233.297 40.9599C235.072 40.9599 236.292 39.7384 236.292 38.0727C236.292 36.5181 234.961 35.1855 233.297 35.1855C231.521 35.1855 230.301 36.407 230.301 38.0727C230.301 39.7384 231.632 40.9599 233.297 40.9599Z" fill="#DED8FF"/>
<path d="M182.148 27.8564L181.926 27.7454L181.039 25.6355L181.15 25.4134C184.034 19.0839 183.701 18.9728 183.258 18.5287L179.596 14.9752C179.485 14.8642 179.263 14.7532 178.93 14.7532C178.598 14.7532 178.043 14.7532 172.606 17.1961L172.384 17.3072L170.165 16.4188L170.054 16.1967C167.502 9.86719 167.169 9.86719 166.615 9.86719H161.4C160.734 9.86719 160.401 9.86719 158.071 16.1967L157.96 16.4188L155.741 17.3072L155.519 17.1961C151.858 15.6415 149.639 14.8642 149.084 14.8642C148.862 14.8642 148.64 14.9752 148.418 15.0863L144.757 18.6397C144.313 19.0839 144.091 19.306 146.976 25.4134L147.087 25.6355L146.088 27.7454L145.867 27.8564C139.32 30.4104 139.32 30.5215 139.32 31.2988V36.4068C139.32 37.0731 139.32 37.4063 145.867 39.6271L146.088 39.7382L147.087 41.848L146.976 42.0701C144.091 48.3997 144.424 48.5107 144.868 48.9549L148.529 52.5083C148.64 52.6194 148.862 52.7304 149.195 52.7304C149.528 52.7304 149.972 52.7304 155.519 50.2874L155.741 50.1764L157.96 51.0647L158.071 51.3979C160.623 57.7274 160.956 57.7274 161.511 57.7274H166.837C167.502 57.7274 167.835 57.7274 170.165 51.3979L170.276 51.1758L172.495 50.2874L172.717 50.3985C176.379 51.9531 178.487 52.7304 179.152 52.7304C179.374 52.7304 179.596 52.6194 179.818 52.5083L183.48 48.8438C183.923 48.3997 184.145 48.1776 181.26 42.0701L181.15 41.848L182.037 39.7382L182.259 39.6271C188.805 37.0731 188.805 36.9621 188.805 36.1848V31.0767C188.694 30.6325 188.694 30.4104 182.148 27.8564ZM164.063 42.0701C159.403 42.0701 155.63 38.4056 155.63 33.7418C155.63 29.1889 159.403 25.4134 164.063 25.4134C168.723 25.4134 172.495 29.0779 172.495 33.7418C172.606 38.4056 168.723 42.0701 164.063 42.0701Z" fill="#5C3BFE"/>
<path d="M141.317 197.977H124.785V214.411H141.317V197.977Z" fill="#3922A9"/>
<path d="M119.794 182.875H103.262V199.309H119.794V182.875Z" fill="#8870FC"/>
<path d="M174.382 148.118H157.85V164.552H174.382V148.118Z" fill="#3922A9"/>
<path d="M174.382 188.094H157.85V204.528H174.382V188.094Z" fill="#1F00FF"/>
<path d="M174.382 164.108H157.85V180.654H174.382V164.108Z" fill="#3922A9"/>
<path d="M172.498 168.772H155.633V151.893H172.498V168.772ZM155.966 168.328H172.165V152.226H155.966V168.328Z" fill="#DED8FF"/>
<path d="M172.498 218.52H155.633V201.641H172.498V218.52ZM155.966 218.187H172.165V202.085H155.966V218.187Z" fill="#DED8FF"/>
<path d="M172.498 202.196H155.633V185.317H172.498V202.196ZM155.966 201.863H172.165V185.762H155.966V201.863Z" fill="#DED8FF"/>
<path d="M188.806 218.52H171.941V201.641H188.806V218.52ZM172.274 218.187H188.473V202.085H172.274V218.187Z" fill="#DED8FF"/>
<path d="M122.791 218.52H105.926V201.641H122.791V218.52ZM106.259 218.187H122.458V202.085H106.259V218.187Z" fill="#DED8FF"/>
<path d="M139.322 218.52H122.457V201.641H139.322V218.52ZM122.79 218.187H138.989V202.085H122.79V218.187Z" fill="#DED8FF"/>
<path d="M155.853 218.52H138.988V201.641H155.853V218.52ZM139.432 218.187H155.631V202.085H139.432V218.187Z" fill="#DED8FF"/>
<path d="M139.322 202.196H122.457V185.317H139.322V202.196ZM122.79 201.863H138.989V185.762H122.79V201.863Z" fill="#DED8FF"/>
<path d="M122.791 202.196H105.926V185.317H122.791V202.196ZM106.259 201.863H122.458V185.762H106.259V201.863Z" fill="#DED8FF"/>
<path d="M289.663 183.652H217.211V188.427H289.663V183.652Z" fill="#8870FC"/>
<path d="M289.552 196.866H239.623V201.641H289.552V196.866Z" fill="#3922A9"/>
<path d="M289.552 210.081H223.979V214.855H289.552V210.081Z" fill="#1F00FF"/>
<path d="M74.302 71.4967C74.191 71.4967 74.0801 71.3856 74.0801 71.2746V62.391C74.0801 62.28 74.191 62.1689 74.302 62.1689C74.4129 62.1689 74.5239 62.28 74.5239 62.391V71.2746C74.6348 71.3856 74.4129 71.4967 74.302 71.4967Z" fill="#3922A9"/>
<path d="M74.302 52.1751C74.191 52.1751 74.0801 52.0641 74.0801 51.9531V23.0815C74.0801 22.9704 74.191 22.8594 74.302 22.8594C74.4129 22.8594 74.5239 22.9704 74.5239 23.0815V51.842C74.6348 51.9531 74.4129 52.1751 74.302 52.1751Z" fill="#3922A9"/>
<path d="M74.3039 62.6133C71.3082 62.6133 68.8672 60.1703 68.8672 57.1721C68.8672 54.1739 71.3082 51.731 74.3039 51.731C77.2996 51.731 79.7406 54.1739 79.7406 57.1721C79.8515 60.1703 77.4106 62.6133 74.3039 62.6133ZM74.3039 52.1751C71.4191 52.1751 69.2 54.5071 69.2 57.2832C69.2 59.9483 71.5301 62.3912 74.3039 62.3912C76.9667 62.3912 79.4077 60.0593 79.4077 57.2832C79.4077 54.396 77.1886 52.1751 74.3039 52.1751Z" fill="#3922A9"/>
<path d="M91.2786 71.4968C91.1676 71.4968 91.0566 71.3858 91.0566 71.2747V43.5136C91.0566 43.4026 91.1676 43.2915 91.2786 43.2915C91.3895 43.2915 91.5005 43.4026 91.5005 43.5136V71.2747C91.3895 71.3858 91.2786 71.4968 91.2786 71.4968Z" fill="#3922A9"/>
<path d="M91.2786 33.1865C91.1676 33.1865 91.0566 33.0755 91.0566 32.9644V23.0815C91.0566 22.9704 91.1676 22.8594 91.2786 22.8594C91.3895 22.8594 91.5005 22.9704 91.5005 23.0815V33.0755C91.3895 33.1865 91.2786 33.1865 91.2786 33.1865Z" fill="#3922A9"/>
<path d="M91.2804 43.7359C88.2847 43.7359 85.8438 41.2929 85.8438 38.2947C85.8438 35.2965 88.2847 32.8535 91.2804 32.8535C94.2762 32.8535 96.7171 35.2965 96.7171 38.2947C96.6062 41.2929 94.1652 43.7359 91.2804 43.7359ZM91.2804 33.1866C88.3957 33.1866 86.1766 35.5186 86.1766 38.2947C86.1766 41.0708 88.5066 43.4028 91.2804 43.4028C94.1652 43.4028 96.3843 41.0708 96.3843 38.2947C96.3843 35.5186 93.9433 33.1866 91.2804 33.1866Z" fill="#3922A9"/>
<path d="M108.032 71.4969C107.922 71.4969 107.811 71.3858 107.811 71.2748V56.0617C107.811 55.9506 107.922 55.8396 108.032 55.8396C108.143 55.8396 108.254 55.9506 108.254 56.0617V71.2748C108.254 71.3858 108.143 71.4969 108.032 71.4969Z" fill="#3922A9"/>
<path d="M108.032 45.8456C107.922 45.8456 107.811 45.7346 107.811 45.6235V23.0815C107.811 22.9704 107.922 22.8594 108.032 22.8594C108.143 22.8594 108.254 22.9704 108.254 23.0815V45.5125C108.254 45.7346 108.143 45.8456 108.032 45.8456Z" fill="#3922A9"/>
<path d="M108.032 56.2837C105.037 56.2837 102.596 53.8408 102.596 50.8426C102.596 47.8443 105.037 45.4014 108.032 45.4014C111.028 45.4014 113.469 47.8443 113.469 50.8426C113.469 53.8408 110.917 56.2837 108.032 56.2837ZM108.032 45.8455C105.148 45.8455 102.929 48.1775 102.929 50.9536C102.929 53.7297 105.259 56.0616 108.032 56.0616C110.917 56.0616 113.136 53.7297 113.136 50.9536C113.025 48.0664 110.695 45.8455 108.032 45.8455Z" fill="#3922A9"/>
<path d="M15.3867 180.099C15.3867 180.099 23.3753 156.89 28.812 153.337C34.2487 149.783 45.0111 139.012 57.4378 139.012C57.4378 139.012 68.9769 141.677 73.6369 139.9C78.0751 138.013 85.176 135.459 85.176 135.459C85.176 135.459 89.6141 133.571 92.277 135.459C94.9399 137.346 90.3908 142.677 90.3908 142.677L67.0907 154.336C67.0907 154.336 89.3922 154.336 101.153 149.894C112.692 145.453 125.341 140.011 130.556 140.011C135.992 140.011 135.992 140.9 138.544 143.565L127.005 149.006C127.005 149.006 97.6028 168.661 91.2784 169.549C84.9541 170.438 50.1149 172.214 49.2273 176.767V180.321H15.3867V180.099Z" fill="#8870FC"/>
<path d="M81.6262 120.356H33.4727V125.798H81.7371V120.356H81.6262Z" fill="#DED8FF"/>
<path d="M107.59 120.356H86.1758V125.798H107.59V120.356Z" fill="#8870FC"/>
<path d="M209.999 143.343C213.661 143.343 216.546 140.455 216.546 136.791C216.546 133.126 213.661 130.239 209.999 130.239C206.338 130.239 203.453 133.126 203.453 136.791C203.453 140.344 206.449 143.343 209.999 143.343Z" fill="#8870FC"/>
<path d="M220.982 153.448C220.871 147.562 216.1 142.565 209.998 142.565C204.007 142.565 199.125 147.34 199.014 153.448H220.982Z" fill="#8870FC"/>
<path d="M240.732 98.8139C244.393 98.8139 247.278 95.9268 247.278 92.2623C247.278 88.5979 244.393 85.7107 240.732 85.7107C237.07 85.7107 234.186 88.5979 234.186 92.2623C234.186 95.9268 237.07 98.8139 240.732 98.8139Z" fill="#8870FC"/>
<path d="M251.717 108.919C251.606 103.034 246.835 98.0366 240.732 98.0366C234.741 98.0366 229.859 102.812 229.748 108.919H251.717Z" fill="#8870FC"/>
<path d="M308.303 21.5268L313.518 18.6397L308.303 15.6415L305.418 10.4224V26.857L308.303 21.5268Z" fill="#5C3BFE"/>
<path d="M338.813 62.9464C348.372 62.9464 356.121 55.1907 356.121 45.6235C356.121 36.0563 348.372 28.3005 338.813 28.3005C329.253 28.3005 321.504 36.0563 321.504 45.6235C321.504 55.1907 329.253 62.9464 338.813 62.9464Z" fill="white" stroke="#8870FC" stroke-width="0.5" stroke-miterlimit="10"/>
<path d="M338.812 57.8383C345.553 57.8383 351.017 52.3695 351.017 45.6234C351.017 38.8773 345.553 33.4084 338.812 33.4084C332.072 33.4084 326.607 38.8773 326.607 45.6234C326.607 52.3695 332.072 57.8383 338.812 57.8383Z" fill="white" stroke="#1F00FF" stroke-width="0.5" stroke-miterlimit="10"/>
<path d="M338.812 52.7305C342.734 52.7305 345.913 49.5487 345.913 45.6237C345.913 41.6987 342.734 38.5168 338.812 38.5168C334.89 38.5168 331.711 41.6987 331.711 45.6237C331.711 49.5487 334.89 52.7305 338.812 52.7305Z" stroke="#3922A9" stroke-width="0.5" stroke-miterlimit="10"/>
<path d="M16.9414 177.434C16.9414 177.434 24.93 154.225 30.3667 150.672C35.8034 147.118 46.5658 136.347 58.9925 136.347C58.9925 136.347 70.5316 139.012 75.1916 137.235C79.6297 135.348 86.7307 132.794 86.7307 132.794C86.7307 132.794 91.1688 130.906 93.8317 132.794C96.4946 134.681 91.9455 140.011 91.9455 140.011L68.6454 151.671C68.6454 151.671 90.9469 151.671 102.708 147.229C114.247 142.788 126.896 137.346 132.11 137.346C137.547 137.346 137.547 138.235 140.099 140.9L128.56 146.341C128.56 146.341 99.1574 165.996 92.8331 166.884C86.5088 167.773 51.6696 169.549 50.782 174.102V177.656H16.9414V177.434Z" stroke="#3922A9" stroke-width="0.5" stroke-miterlimit="10"/>
<path d="M164.063 57.8384V79.4921C164.063 83.1565 161.068 86.1547 157.406 86.1547" stroke="#8870FC" stroke-width="0.5" stroke-miterlimit="10" stroke-dasharray="3 3"/>
</svg>
