<svg width="391" height="162" viewBox="0 0 391 162" fill="none" xmlns="http://www.w3.org/2000/svg">
<path d="M370.979 0.102539L375.421 8.23973L383.542 12.6901L375.421 17.1405L370.979 25.2777L366.537 17.1405L358.416 12.6901L366.537 8.23973L370.979 0.102539Z" fill="#8870FC"/>
<path d="M375.424 8.23973L370.982 0.102539V25.2777L375.424 17.1405L383.545 12.6901L375.424 8.23973Z" fill="#4126C0"/>
<path d="M30.5863 40.9716L77.8375 40.9716C80.2562 51.4333 72.9201 57.6331 68.9497 59.4253L83.8552 93.345H74.8141V111.738C72.3954 120.911 62.5661 121.611 57.9538 120.815V132.281H12.2599C17.147 121.771 15.9252 110.862 14.7034 106.722C1.99709 91.6251 -0.364974 81.1626 0.0422879 77.8184C0.0422879 49.9183 20.405 41.6288 30.5863 40.9716Z" fill="#E5E0FF"/>
<path d="M322.462 51.4222L316.844 43.9215L311.227 51.4222H314.605V61.8985H319.083V51.4222H322.462Z" fill="white"/>
<path d="M66.291 73.4523L186.923 131.86L323.915 131.86C349.649 131.86 370.51 111.42 370.51 86.2055C370.51 60.9911 349.649 40.5508 323.915 40.5508L149.416 40.5508L66.291 73.4523Z" fill="#5C3BFE"/>
<path fill-rule="evenodd" clip-rule="evenodd" d="M235.963 161.896L235.963 132.282L236.938 132.282L236.938 161.896L235.963 161.896Z" fill="#DED8FF"/>
<path opacity="0.5" fill-rule="evenodd" clip-rule="evenodd" d="M235.963 132.281L235.963 68.1176L236.938 68.1176L236.938 132.281L235.963 132.281Z" fill="white"/>
<path fill-rule="evenodd" clip-rule="evenodd" d="M230.113 154.492L336.395 154.492V155.726L230.113 155.726V154.492Z" fill="#DED8FF"/>
<path d="M242.689 88.8638H261.79V149.536H242.689V88.8638Z" fill="#DED8FF"/>
<path d="M274.148 104.594H292.125V149.536H274.148V104.594Z" fill="#8870FC"/>
<path d="M304.486 73.1338H322.463V149.536H304.486V73.1338Z" fill="#4126C0"/>
<path fill-rule="evenodd" clip-rule="evenodd" d="M313.968 79.852L283.184 113.774L251.564 94.991L252.064 94.1832L282.997 112.558L313.248 79.2242L313.968 79.852Z" fill="white"/>
<path d="M253.925 95.0435C253.925 95.9743 253.171 96.7288 252.24 96.7288C251.309 96.7288 250.555 95.9743 250.555 95.0435C250.555 94.1127 251.309 93.3582 252.24 93.3582C253.171 93.3582 253.925 94.1127 253.925 95.0435Z" fill="#5C3BFE"/>
<path d="M285.158 112.989C285.158 113.919 284.403 114.674 283.472 114.674C282.542 114.674 281.787 113.919 281.787 112.989C281.787 112.058 282.542 111.303 283.472 111.303C284.403 111.303 285.158 112.058 285.158 112.989Z" fill="#5C3BFE"/>
<path d="M315.386 79.6747C315.386 80.6055 314.632 81.3601 313.701 81.3601C312.77 81.3601 312.016 80.6055 312.016 79.6747C312.016 78.7439 312.77 77.9894 313.701 77.9894C314.632 77.9894 315.386 78.7439 315.386 79.6747Z" fill="#5C3BFE"/>
<path d="M155.037 76.1377C155.037 76.1377 143.687 89.0938 129.686 89.0938C115.684 89.0938 104.334 76.1377 104.334 76.1377C104.334 76.1377 115.684 63.1816 129.686 63.1816C143.687 63.1816 155.037 76.1377 155.037 76.1377Z" fill="#DED8FF"/>
<path d="M138.461 76.7549C138.461 81.5252 134.532 85.3923 129.686 85.3923C124.839 85.3923 120.91 81.5252 120.91 76.7549C120.91 71.9846 124.839 68.1176 129.686 68.1176C134.532 68.1176 138.461 71.9846 138.461 76.7549Z" fill="white"/>
<path d="M132.612 76.1382C132.612 77.8419 131.302 79.223 129.687 79.223C128.071 79.223 126.762 77.8419 126.762 76.1382C126.762 74.4346 128.071 73.0535 129.687 73.0535C131.302 73.0535 132.612 74.4346 132.612 76.1382Z" fill="#5C3BFE"/>
<path d="M249.27 51.1615C239.962 51.1615 232.416 43.6159 232.416 34.308C232.416 25.0001 239.962 17.4546 249.27 17.4546V34.308H266.123C266.123 43.6159 258.578 51.1615 249.27 51.1615Z" fill="#DED8FF"/>
<path opacity="0.1" d="M252.801 30.4388L269.654 30.4388C269.654 16.5599 258.435 13.4244 252.801 13.5916V30.4388Z" fill="#8870FC"/>
<path fill-rule="evenodd" clip-rule="evenodd" d="M365.648 123.928C379.111 123.928 390.025 113.304 390.025 100.199C390.025 87.0935 379.111 76.4697 365.648 76.4697C352.186 76.4697 341.272 87.0935 341.272 100.199C341.272 113.304 352.186 123.928 365.648 123.928ZM365.648 124.877C379.65 124.877 391 113.828 391 100.199C391 86.5693 379.65 75.5205 365.648 75.5205C351.647 75.5205 340.297 86.5693 340.297 100.199C340.297 113.828 351.647 124.877 365.648 124.877Z" fill="#4126C0"/>
<path fill-rule="evenodd" clip-rule="evenodd" d="M365.647 116.517C374.802 116.517 382.224 109.212 382.224 100.201C382.224 91.1892 374.802 83.8841 365.647 83.8841C356.491 83.8841 349.069 91.1892 349.069 100.201C349.069 109.212 356.491 116.517 365.647 116.517ZM365.647 117.475C375.34 117.475 383.198 109.741 383.198 100.201C383.198 90.6599 375.34 82.9258 365.647 82.9258C355.954 82.9258 348.096 90.6599 348.096 100.201C348.096 109.741 355.954 117.475 365.647 117.475Z" fill="#8870FC"/>
<path fill-rule="evenodd" clip-rule="evenodd" d="M366.136 107.915C370.705 107.915 374.41 104.461 374.41 100.2C374.41 95.9398 370.705 92.4859 366.136 92.4859C361.567 92.4859 357.863 95.9398 357.863 100.2C357.863 104.461 361.567 107.915 366.136 107.915ZM366.136 108.838C371.252 108.838 375.399 104.971 375.399 100.2C375.399 95.4302 371.252 91.5631 366.136 91.5631C361.02 91.5631 356.873 95.4302 356.873 100.2C356.873 104.971 361.02 108.838 366.136 108.838Z" fill="#DED8FF"/>
<path d="M205.611 131.559H223.588V149.536M205.611 131.559V149.536H223.588M205.611 131.559L223.588 149.536" stroke="#AE9DFF"/>
<path d="M205.611 113.582H223.588V131.559M205.611 113.582V131.559H223.588M205.611 113.582L223.588 131.559" stroke="#AE9DFF"/>
<path d="M187.635 131.559H205.612V149.536M187.635 131.559V149.536H205.612M187.635 131.559L205.612 149.536" stroke="#AE9DFF"/>
<path d="M187.635 113.582H205.612V131.559M187.635 113.582V131.559H205.612M187.635 113.582L205.612 131.559" stroke="#AE9DFF"/>
<path d="M187.635 95.6053H205.612V113.582M187.635 95.6053V113.582H205.612M187.635 95.6053L205.612 113.582" stroke="#AE9DFF"/>
<path d="M169.658 131.559H187.635V149.536M169.658 131.559V149.536H187.635M169.658 131.559L187.635 149.536" stroke="#AE9DFF"/>
</svg>
