<svg width="391" height="178" viewBox="0 0 391 178" fill="none" xmlns="http://www.w3.org/2000/svg">
<path d="M45.7938 113.002L50.8177 122.188L60.0035 127.212L50.8177 132.236L45.7938 141.422L40.7698 132.236L31.584 127.212L40.7698 122.188L45.7938 113.002Z" fill="#8870FC"/>
<path d="M50.8149 122.188L45.791 113.002V141.421L50.8149 132.236L60.0008 127.212L50.8149 122.188Z" fill="#5C3BFE"/>
<rect x="99.5391" y="36.2004" width="190.421" height="126.253" stroke="#8870FC"/>
<path d="M165.713 162.272L120.239 177.432M120.239 177.432H238.176M120.239 177.432H45.4805M238.176 177.432V162.272M238.176 177.432H391.001" stroke="#8870FC"/>
<rect x="108.664" y="45.4814" width="47.3982" height="102.641" stroke="#8870FC"/>
<rect x="113.172" y="58.5083" width="38.3956" height="8.45684" stroke="#DED8FF"/>
<rect x="108.664" y="139.664" width="47.3979" height="8.45684" stroke="#8870FC"/>
<circle cx="114.206" cy="50.9177" r="1.57886" fill="#DED8FF"/>
<rect x="125.697" y="75.3357" width="26.3654" height="3.32662" fill="#5C3BFE"/>
<circle cx="117.645" cy="78.6604" r="5.01634" fill="#5C3BFE"/>
<circle cx="117.633" cy="77.8265" r="1.18999" fill="white"/>
<path d="M117.635 79.0181C116.711 79.0181 115.963 79.7666 115.963 80.69H119.307C119.307 79.7666 118.558 79.0181 117.635 79.0181Z" fill="white"/>
<circle cx="117.645" cy="95.0908" r="5.01634" fill="#5C3BFE"/>
<circle cx="117.633" cy="94.2566" r="1.18999" fill="white"/>
<path d="M117.635 95.4485C116.711 95.4485 115.963 96.1971 115.963 97.1205H119.307C119.307 96.1971 118.558 95.4485 117.635 95.4485Z" fill="white"/>
<circle cx="117.645" cy="111.522" r="5.01634" fill="#5C3BFE"/>
<circle cx="117.633" cy="110.687" r="1.18999" fill="white"/>
<path d="M117.635 111.878C116.711 111.878 115.963 112.627 115.963 113.55H119.307C119.307 112.627 118.558 111.878 117.635 111.878Z" fill="white"/>
<circle cx="117.645" cy="127.952" r="5.01634" fill="#5C3BFE"/>
<circle cx="117.633" cy="127.114" r="1.18999" fill="white"/>
<path d="M117.635 128.305C116.711 128.305 115.963 129.054 115.963 129.977H119.307C119.307 129.054 118.558 128.305 117.635 128.305Z" fill="white"/>
<rect x="125.701" y="91.7661" width="26.3654" height="3.32662" fill="#5C3BFE"/>
<rect x="125.701" y="108.194" width="26.3654" height="3.32662" fill="#5C3BFE"/>
<rect x="125.701" y="124.622" width="26.3654" height="3.32662" fill="#5C3BFE"/>
<circle cx="119.954" cy="50.9177" r="1.57886" fill="#8870FC"/>
<circle cx="125.702" cy="50.9177" r="1.57886" fill="#DED8FF"/>
<rect x="163.752" y="44.7688" width="117.628" height="90.6154" fill="#5C3BFE"/>
<rect x="164.252" y="45.2688" width="116.628" height="10.9468" fill="#8870FC" stroke="#8870FC"/>
<circle cx="170.397" cy="50.918" r="1.57886" fill="#DED8FF"/>
<circle cx="176.145" cy="50.918" r="1.57886" fill="#DED8FF"/>
<rect x="257.561" y="49.573" width="17.7674" height="2.50225" fill="#DED8FF"/>
<rect x="170.34" y="62.3811" width="104.458" height="31.946" stroke="#DED8FF"/>
<rect x="170.34" y="100.328" width="27.4195" height="29.4485" stroke="#DED8FF"/>
<rect x="173.141" y="103.703" width="21.8232" height="17.4586" fill="#DED8FF"/>
<path d="M178.658 107.785L175.542 105.986L175.542 109.584L178.658 107.785Z" fill="#8870FC"/>
<rect x="175.166" y="123.787" width="17.7674" height="2.50225" fill="#DED8FF"/>
<rect x="183.359" y="118.342" width="10.4156" height="1.63085" fill="#8870FC"/>
<rect x="208.875" y="100.325" width="27.4195" height="29.4485" stroke="#DED8FF"/>
<rect x="211.676" y="103.703" width="21.8232" height="17.4586" fill="#DED8FF"/>
<path d="M217.193 107.782L214.077 105.983L214.077 109.582L217.193 107.782Z" fill="#8870FC"/>
<rect x="213.703" y="123.787" width="17.7674" height="2.50225" fill="#DED8FF"/>
<rect x="221.895" y="118.342" width="10.4156" height="1.63085" fill="#8870FC"/>
<rect x="247.412" y="100.325" width="27.4195" height="29.4485" stroke="#DED8FF"/>
<rect x="250.211" y="103.703" width="21.8232" height="17.4586" fill="#DED8FF"/>
<path d="M255.729 107.783L252.612 105.983L252.612 109.582L255.729 107.783Z" fill="#8870FC"/>
<rect x="252.24" y="123.787" width="17.7674" height="2.50225" fill="#DED8FF"/>
<rect x="260.43" y="118.342" width="10.4156" height="1.63085" fill="#8870FC"/>
<path d="M202.978 77.2319L188.885 94.2107H259.073L236.747 67.3137L215.746 92.6138L202.978 77.2319Z" fill="#DED8FF"/>
<rect x="0.5" y="36.2764" width="8.76408" height="8.76408" fill="#DED8FF" stroke="#3922A9"/>
<path d="M4.67578 45.405V57.5175M17.1902 74.5596H4.67578V57.5175M4.67578 57.5175H17.1902" stroke="#5C3BFE"/>
<circle cx="21.9218" cy="57.5768" r="4.23425" fill="#DED8FF" stroke="#3922A9"/>
<circle cx="21.9218" cy="74.5582" r="4.23425" fill="#DED8FF" stroke="#3922A9"/>
<path d="M17.707 40.5317H51.0261" stroke="#8870FC"/>
<path d="M34.3633 57.575L51.0228 57.575" stroke="#8870FC"/>
<path d="M34.3633 74.5583L51.0228 74.5584" stroke="#8870FC"/>
<rect y="0.565918" width="9.76408" height="9.76408" fill="#5C3BFE"/>
<path d="M4.67578 10.1953V22.3078H17.1902" stroke="#5C3BFE"/>
<circle cx="21.9218" cy="22.3663" r="4.73425" fill="#5C3BFE"/>
<path d="M17.707 5.32153H51.0261" stroke="#5C3BFE"/>
<path d="M34.3633 22.3672L51.0228 22.3672" stroke="#5C3BFE"/>
<path d="M330.291 104.734L330.291 123.449L349.006 123.449L349.006 104.734L330.291 104.734Z" stroke="#DED8FF"/>
<path d="M330.291 85.709L330.291 104.424L349.006 104.424L349.006 85.709L330.291 85.709Z" stroke="#DED8FF"/>
<path d="M330.291 123.745L330.291 142.46L349.006 142.46L349.006 123.745L330.291 123.745Z" stroke="#DED8FF"/>
<circle r="5.74302" transform="matrix(4.37114e-08 1 1 -4.37114e-08 320.634 133.139)" fill="#5C3BFE"/>
<circle r="5.74302" transform="matrix(-0.707107 0.707107 0.707107 0.707107 339.43 114.256)" fill="#8870FC"/>
<path d="M343.49 118.318C341.247 120.561 337.611 120.561 335.368 118.318L343.49 110.197C345.733 112.439 345.733 116.076 343.49 118.318Z" fill="#DED8FF"/>
<path d="M311.279 123.759L311.279 142.474L329.994 142.474L329.994 123.759L311.279 123.759Z" stroke="#DED8FF"/>
<path d="M311.279 104.73L311.279 123.445L329.994 123.445L329.994 104.73L311.279 104.73Z" stroke="#DED8FF"/>
<path d="M311.279 161.549L311.279 142.834L329.994 142.834L329.994 161.549L311.279 161.549Z" stroke="#DED8FF"/>
<path d="M76.1154 66.259L73.3244 71.3623L68.2211 74.1534L73.3244 76.9444L76.1154 82.0477L78.9065 76.9444L84.0098 74.1534L78.9065 71.3623L76.1154 66.259Z" fill="#8870FC"/>
<path d="M73.3242 71.3623L76.1152 66.259V82.0477L73.3242 76.9444L68.2209 74.1534L73.3242 71.3623Z" fill="#5C3BFE"/>
<path d="M349.459 37.2026V18.2527H311.559V37.2026" stroke="#5C3BFE"/>
<path d="M349.459 37.2029V56.1528H311.559V37.2029" stroke="#DED8FF"/>
<path d="M341.938 37.2009V48.6252H319.09V37.2009" stroke="#5C3BFE"/>
<path d="M341.938 37.1968V25.7725H319.09V37.1968" stroke="#8870FC"/>
<path d="M334.611 37.2029V41.3042H326.408V37.2029" stroke="#8870FC"/>
<path d="M334.611 37.2007V33.0994H326.408V37.2007" stroke="#5C3BFE"/>
</svg>
