<svg width="587" height="397" viewBox="0 0 587 397" fill="none" xmlns="http://www.w3.org/2000/svg">
<path d="M411.751 293.108H336.093C327.257 293.108 320.093 285.945 320.093 277.108V221.783C320.093 212.946 312.93 205.783 304.093 205.783H250.709" stroke="black"/>
<path d="M412.907 59.4922H335.901C327.064 59.4922 319.901 66.6556 319.901 75.4922V167.818C319.901 176.654 312.737 183.818 303.901 183.818H250.131" stroke="black"/>
<path fill-rule="evenodd" clip-rule="evenodd" d="M239.977 244.703L272.836 178.648C262.74 135.938 224.368 104.156 178.573 104.156C125.08 104.156 81.7148 147.521 81.7148 201.014C81.7148 221.08 87.8164 239.72 98.2653 255.181H232.281L234.117 253.804L239.977 244.703Z" fill="#5C3BFE"/>
<path d="M0.288252 168.917C-2.49611 178.481 15.6296 179.924 22.9282 175.819L95.4219 191.036C86.9182 175.688 83.8036 168.965 71.2039 156.887C61.6022 147.682 44.536 138.811 20.3593 140.179C-3.81742 141.548 3.79092 156.887 0.288252 168.917Z" fill="#947EFF"/>
<path d="M141.724 192.52H140.186L136.468 179.698H137.823L140.992 190.779L144.325 179.698H145.827L149.161 190.779L152.33 179.698H153.685L149.967 192.52H148.428L145.076 181.383L141.724 192.52ZM156.982 186.658V191.311H163.21V192.52H155.7V179.698H163.119V180.907H156.982V185.449H162.661V186.658H156.982ZM172.52 185.871C173.155 186.139 173.656 186.548 174.022 187.098C174.388 187.647 174.572 188.264 174.572 188.948C174.572 189.937 174.224 190.779 173.527 191.475C172.831 192.172 171.989 192.52 171 192.52H165.413V179.698H170.578C171.519 179.698 172.331 180.04 173.015 180.723C173.686 181.395 174.022 182.201 174.022 183.141C174.022 184.338 173.521 185.248 172.52 185.871ZM170.578 180.907H166.695V185.376H170.578C171.165 185.376 171.671 185.162 172.099 184.735C172.526 184.283 172.74 183.752 172.74 183.141C172.74 182.543 172.526 182.018 172.099 181.566C171.671 181.126 171.165 180.907 170.578 180.907ZM166.695 191.311H171C171.635 191.311 172.172 191.085 172.612 190.633C173.063 190.181 173.289 189.619 173.289 188.948C173.289 188.288 173.063 187.733 172.612 187.281C172.172 186.817 171.635 186.585 171 186.585H166.695V191.311ZM191.242 192.52H189.887L188.696 189.369H182.615L181.424 192.52H180.069L184.996 179.698H186.315L191.242 192.52ZM185.655 181.291L183.073 188.16H188.238L185.655 181.291ZM192.888 179.698H197.468C198.615 179.698 199.574 180.082 200.343 180.852C201.113 181.621 201.497 182.58 201.497 183.727C201.497 184.875 201.113 185.834 200.343 186.603C199.574 187.372 198.615 187.757 197.468 187.757H194.171V192.52H192.888V179.698ZM194.171 186.548H197.468C198.261 186.548 198.915 186.286 199.428 185.761C199.953 185.236 200.215 184.558 200.215 183.727C200.215 182.909 199.953 182.238 199.428 181.713C198.915 181.175 198.261 180.907 197.468 180.907H194.171V186.548ZM203.692 179.698H208.272C209.42 179.698 210.378 180.082 211.147 180.852C211.917 181.621 212.301 182.58 212.301 183.727C212.301 184.875 211.917 185.834 211.147 186.603C210.378 187.372 209.42 187.757 208.272 187.757H204.975V192.52H203.692V179.698ZM204.975 186.548H208.272C209.065 186.548 209.719 186.286 210.232 185.761C210.757 185.236 211.019 184.558 211.019 183.727C211.019 182.909 210.757 182.238 210.232 181.713C209.719 181.175 209.065 180.907 208.272 180.907H204.975V186.548Z" fill="white"/>
<rect x="123.947" y="253.805" width="110.17" height="11.017" fill="#DED8FF"/>
<rect x="123.947" y="250.133" width="105.58" height="3.67234" fill="#CDC4FF"/>
<rect x="233.713" y="254.218" width="123.353" height="6.8268" transform="rotate(-63.959 233.713 254.218)" fill="#DED8FF"/>
<path d="M19.7865 163.292C27.092 156.285 31.1925 154.562 31.1925 154.562H65.4949C65.4949 154.562 91.2432 174.75 97.3219 192.927C105.876 218.506 92.7247 264.822 92.7247 264.822H24.8288C24.8288 264.822 4.30216 225.187 6.14431 197.459C6.75816 188.219 8.32373 174.287 19.7865 163.292Z" fill="#947EFF"/>
<path d="M83.0974 99.1014L56.1195 95.1444C50.2499 94.6776 37.9102 97.8378 35.5082 114.214C34.9878 116.142 35.4357 122.481 41.3907 132.406C41.7318 134.939 41.4902 141.444 37.7951 147.203L52.5368 151.952L64.0723 158.57L64.8711 144.3C67.4359 145.154 73.1083 145.566 75.2789 140.384L76.8624 129.589L82.0243 130.346L76.4342 109.189C78.8554 108.469 83.5777 105.444 83.0974 99.1014Z" fill="#DED8FF"/>
<path d="M74.6436 242.341L96.8819 233.804C96.8819 233.804 88.6611 232.857 81.5646 224.212C68.8202 208.687 60.1699 191.192 60.1699 191.192L74.6436 242.341Z" fill="#5C3BFE"/>
<path d="M39.5657 264.822C39.5657 264.822 26.3907 245.213 21.2801 233.691C14.491 218.384 11.0703 198.495 11.0703 198.495L61.1398 264.822H39.5657Z" fill="#5C3BFE"/>
<path d="M177.141 249.997C179.042 247.865 179.853 244.353 175.699 241.241C171.685 238.235 168.642 237.693 163.75 236.587C156.976 235.055 145.335 236.587 145.335 236.587L147.064 255.765C147.064 255.765 161.084 252.315 166.842 252.315C172.918 252.315 173.742 253.808 177.141 249.997Z" fill="#DED8FF"/>
<path d="M162 239.903C166.017 238.976 175.576 242.107 178.377 245.568" stroke="#5C3BFE"/>
<path d="M160.818 244.492C164.835 243.565 174.394 246.696 177.196 250.157" stroke="#5C3BFE"/>
<path d="M75.8172 269.601C66.1639 271.239 56.208 268.906 48.9433 262.342C39.3659 253.687 24.7746 239.347 19.0323 226.119C12.0695 210.079 8.89773 194.419 11.2076 183.686C12.3954 178.167 16.5706 165.297 25.8806 161.676C33.7043 158.634 42.3825 159.687 48.7053 165.209C57.5047 172.893 57.1966 179.569 60.2934 190.802C63.1819 201.28 67.4514 211.377 71.2373 219.255C75.9713 229.105 86.3107 234.606 97.2323 234.213L144.933 232.499C145.815 232.467 146.683 232.722 147.324 233.327C148.789 234.709 151.546 237.82 153.828 243.327C155.036 246.242 155.578 249.904 155.82 252.539C156.004 254.526 154.572 256.239 152.605 256.572L75.8172 269.601Z" fill="#947EFF" stroke="#5C3BFE"/>
<path d="M239.846 257.212L234.115 260.622V254.264L239.846 257.212Z" fill="#B1A1FF"/>
<path d="M27.3574 145.706C42.1556 146.209 74.9012 158.338 81.9037 179.669" stroke="#5C3BFE"/>
<path d="M56.5508 105.008C59.3389 106.495 70.9621 110.574 80.1457 105.008" stroke="#5C3BFE"/>
<path d="M51.2708 120.497C49.31 119.017 45.4107 117.279 45.4995 122.162C45.5884 127.046 50.124 130.634 52.3807 131.818C52.3807 134.26 54.1725 142.928 67.6043 144.949" stroke="#5C3BFE"/>
<path d="M57.502 169.879C59.4786 169.879 71.3223 171.529 76.0669 179.161" stroke="#5C3BFE"/>
<g clip-path="url(#clip0_6819_25131)">
<path d="M526.218 42.7451C525.392 42.4697 524.428 42.1943 523.602 41.919C523.74 41.3682 523.877 40.6798 524.015 40.1291C526.08 30.3534 524.703 22.5053 520.297 20.0269C516.029 17.5486 509.007 20.1646 501.848 26.3605C501.159 26.9112 500.471 27.5997 499.782 28.2881C499.369 27.875 498.818 27.462 498.405 27.0489C490.97 20.44 483.535 17.6863 478.992 20.3023C474.723 22.7807 473.484 30.2157 475.274 39.4406C475.412 40.2667 475.687 41.2305 475.825 42.1943C474.723 42.4697 473.76 42.7451 472.796 43.1581C464.122 46.1872 458.477 51.0062 458.477 55.9629C458.477 61.0573 464.397 66.1517 473.484 69.3184C474.173 69.5938 474.999 69.7315 475.687 70.0069C475.412 70.9707 475.274 71.9345 474.999 72.8983C473.347 81.9855 474.586 89.1452 478.854 91.6235C483.26 94.1019 490.695 91.4858 497.855 85.29C498.405 84.7392 498.956 84.3262 499.507 83.7754C500.195 84.4639 501.021 85.1523 501.71 85.8407C508.732 91.8989 515.616 94.2395 519.884 91.7612C524.29 89.1452 525.667 81.4348 523.877 72.0721C523.74 71.3837 523.602 70.5576 523.327 69.8692C523.877 69.7315 524.29 69.5938 524.841 69.4561C534.341 66.2893 540.4 61.3327 540.4 56.1006C540.813 50.5932 535.03 45.7742 526.218 42.7451ZM504.051 28.8388C510.109 23.6068 515.754 21.4038 518.37 22.9183C521.124 24.5706 522.225 30.9041 520.435 39.3029C520.297 39.8537 520.16 40.4044 520.022 40.9552C516.58 40.1291 512.862 39.5783 509.007 39.1653C506.804 35.9985 504.464 32.9694 501.985 30.4911C502.811 29.9403 503.5 29.3896 504.051 28.8388ZM482.847 59.8181C483.535 61.195 484.361 62.7095 485.188 64.0864C486.014 65.4632 486.84 66.9778 487.804 68.3546C485.05 68.0793 482.572 67.6662 480.231 67.1155C480.919 64.6371 481.745 62.2965 482.847 59.8181ZM482.847 51.4193C481.883 48.9409 480.919 46.6003 480.231 44.2596C482.572 43.7089 485.05 43.2958 487.666 43.0205C486.84 44.3973 486.014 45.7742 485.188 47.151C484.361 48.6656 483.535 50.0424 482.847 51.4193ZM484.637 55.6875C485.738 53.4846 486.84 51.2816 488.079 49.0786C489.318 46.8757 490.695 44.8104 492.072 42.7451C494.55 42.6074 497.029 42.4697 499.507 42.4697C502.123 42.4697 504.601 42.6074 507.08 42.7451C508.456 44.8104 509.833 46.8757 511.072 49.0786C512.312 51.2816 513.551 53.4846 514.652 55.6875C513.551 57.8905 512.449 60.0935 511.072 62.2965C509.833 64.4994 508.456 66.7024 507.08 68.63C504.601 68.7677 502.123 68.9054 499.507 68.9054C496.891 68.9054 494.413 68.7677 492.072 68.63C490.695 66.5647 489.318 64.4994 488.079 62.2965C486.978 60.0935 485.738 57.8905 484.637 55.6875ZM514.239 63.9487C515.065 62.4341 515.891 61.0573 516.58 59.5427C517.681 62.0211 518.645 64.4994 519.334 66.8401C516.993 67.3908 514.377 67.8039 511.623 68.0793C512.587 66.8401 513.413 65.4632 514.239 63.9487ZM516.58 51.557C515.891 50.1801 515.065 48.6656 514.239 47.2887C513.413 45.9119 512.587 44.535 511.761 43.1581C514.377 43.4335 516.855 43.9843 519.334 44.535C518.508 46.738 517.544 49.0786 516.58 51.557ZM499.645 33.1071C501.297 34.897 502.949 36.8246 504.464 38.8899C502.811 38.7522 501.159 38.7522 499.645 38.7522C497.992 38.7522 496.34 38.7522 494.826 38.8899C496.478 36.8246 498.13 34.897 499.645 33.1071ZM480.782 23.056C483.535 21.4038 489.594 23.7445 496.065 29.3896C496.478 29.8026 496.891 30.078 497.304 30.4911C494.963 33.1071 492.485 35.9985 490.282 39.1653C486.427 39.5783 482.709 40.1291 479.267 40.8175C478.992 39.9914 478.854 39.1653 478.716 38.3391C477.202 30.4911 478.166 24.5706 480.782 23.056ZM476.789 66.1517C476.1 66.014 475.412 65.7386 474.723 65.4632C470.731 64.0864 467.426 62.2965 465.085 60.3689C463.02 58.5789 462.056 56.9267 462.056 55.4122C462.056 52.3831 466.462 48.5279 474.035 46.0495C474.999 45.7742 475.825 45.4988 476.926 45.2234C477.89 48.5279 479.267 52.1077 480.919 55.6875C479.129 59.2674 477.753 62.8472 476.789 66.1517ZM495.789 82.2609C492.623 85.0146 489.456 87.0799 486.564 88.0437C484.086 88.8698 482.021 89.0075 480.782 88.3191C478.166 86.8045 477.064 81.0217 478.579 73.3113C478.716 72.4852 478.992 71.5214 479.129 70.5576C482.434 71.246 486.289 71.7968 490.282 72.2098C492.623 75.3766 494.963 78.4057 497.304 80.884C496.891 81.2971 496.34 81.7101 495.789 82.2609ZM499.782 78.268C498.13 76.4781 496.478 74.5505 494.826 72.3475C496.34 72.3475 497.992 72.4852 499.645 72.4852C501.297 72.4852 502.949 72.4852 504.601 72.3475C503.087 74.4128 501.435 76.4781 499.782 78.268ZM521.124 83.087C520.573 85.703 519.609 87.4929 518.37 88.1814C515.754 89.6959 510.246 87.7683 504.188 82.5363C503.5 81.9855 502.811 81.2971 502.123 80.6087C504.464 78.1303 506.804 75.1012 509.007 71.7968C513 71.3837 516.718 70.833 520.16 70.1445C520.297 70.833 520.435 71.5214 520.573 72.0721C521.537 76.3404 521.674 80.1956 521.124 83.087ZM524.153 65.6009C523.74 65.7386 523.189 65.8763 522.776 66.014C521.674 62.7095 520.297 59.2674 518.645 55.5499C520.297 51.97 521.674 48.5279 522.638 45.2234C523.464 45.4988 524.29 45.7742 525.116 46.0495C532.689 48.6656 537.37 52.5208 537.37 55.5499C537.37 58.7166 532.276 62.8472 524.153 65.6009Z" fill="#947EFF"/>
<path d="M507.081 55.5493C507.081 59.5422 503.777 62.8466 499.784 62.8466C495.791 62.8466 492.486 59.5422 492.486 55.5493C492.486 51.5564 495.791 48.252 499.784 48.252C503.777 48.252 507.081 51.4187 507.081 55.5493Z" fill="#947EFF"/>
</g>
<path d="M470.402 142.4V143.3H464.372V148.34H470.186V149.24H464.372V155H463.418V142.4H470.402ZM473.454 146V147.764C473.994 146.504 474.996 145.874 476.46 145.874V146.738C475.572 146.738 474.846 147.02 474.282 147.584C473.73 148.148 473.454 148.952 473.454 149.996V155H472.554V146H473.454ZM481.862 155.198C480.542 155.198 479.42 154.748 478.496 153.848C477.584 152.936 477.128 151.82 477.128 150.5C477.128 149.18 477.584 148.07 478.496 147.17C479.408 146.258 480.53 145.802 481.862 145.802C483.17 145.802 484.28 146.258 485.192 147.17C486.116 148.07 486.578 149.18 486.578 150.5C486.578 151.808 486.116 152.924 485.192 153.848C484.268 154.748 483.158 155.198 481.862 155.198ZM479.144 153.218C479.888 153.962 480.794 154.334 481.862 154.334C482.918 154.334 483.818 153.962 484.562 153.218C485.294 152.486 485.66 151.58 485.66 150.5C485.66 149.42 485.294 148.514 484.562 147.782C483.818 147.038 482.918 146.666 481.862 146.666C480.794 146.666 479.888 147.038 479.144 147.782C478.412 148.514 478.046 149.42 478.046 150.5C478.046 151.58 478.412 152.486 479.144 153.218ZM492.865 145.802C493.933 145.802 494.779 146.132 495.403 146.792C496.039 147.44 496.357 148.31 496.357 149.402V155H495.439V149.402C495.439 148.562 495.205 147.896 494.737 147.404C494.269 146.912 493.621 146.666 492.793 146.666C491.845 146.666 491.083 146.978 490.507 147.602C489.931 148.226 489.643 149.108 489.643 150.248V155H488.743V146H489.643V147.71C490.291 146.438 491.365 145.802 492.865 145.802ZM503.512 146V146.882H500.83V152.732C500.83 153.464 501.022 153.914 501.406 154.082C501.802 154.25 502.504 154.286 503.512 154.19V155C502.276 155.18 501.364 155.096 500.776 154.748C500.2 154.388 499.912 153.716 499.912 152.732V146.882H497.932V146H499.912V143.75L500.83 143.48V146H503.512ZM509.176 145.802C510.496 145.802 511.564 146.27 512.38 147.206C513.208 148.142 513.622 149.252 513.622 150.536C513.622 150.56 513.616 150.632 513.604 150.752C513.604 150.872 513.604 150.944 513.604 150.968H505.45C505.558 151.976 505.96 152.792 506.656 153.416C507.352 154.028 508.222 154.334 509.266 154.334C509.974 154.334 510.598 154.19 511.138 153.902C511.678 153.602 512.092 153.2 512.38 152.696L513.172 153.164C512.8 153.788 512.266 154.286 511.57 154.658C510.886 155.018 510.112 155.198 509.248 155.198C507.856 155.198 506.722 154.76 505.846 153.884C504.958 152.996 504.514 151.868 504.514 150.5C504.514 149.156 504.946 148.04 505.81 147.152C506.698 146.252 507.82 145.802 509.176 145.802ZM509.176 146.666C508.168 146.666 507.316 146.984 506.62 147.62C505.936 148.256 505.546 149.078 505.45 150.086H512.686C512.59 149.018 512.206 148.184 511.534 147.584C510.862 146.972 510.076 146.666 509.176 146.666ZM519.848 145.802C520.916 145.802 521.762 146.132 522.386 146.792C523.022 147.44 523.34 148.31 523.34 149.402V155H522.422V149.402C522.422 148.562 522.188 147.896 521.72 147.404C521.252 146.912 520.604 146.666 519.776 146.666C518.828 146.666 518.066 146.978 517.49 147.602C516.914 148.226 516.626 149.108 516.626 150.248V155H515.726V146H516.626V147.71C517.274 146.438 518.348 145.802 519.848 145.802ZM533.824 148.088V142.4H534.724V155H533.824V152.912C533.452 153.632 532.924 154.196 532.24 154.604C531.568 155 530.806 155.198 529.954 155.198C528.67 155.198 527.566 154.748 526.642 153.848C525.742 152.936 525.292 151.82 525.292 150.5C525.292 149.18 525.742 148.07 526.642 147.17C527.554 146.258 528.658 145.802 529.954 145.802C530.806 145.802 531.568 146.006 532.24 146.414C532.924 146.81 533.452 147.368 533.824 148.088ZM527.29 153.218C528.034 153.962 528.94 154.334 530.008 154.334C531.064 154.334 531.964 153.962 532.708 153.218C533.452 152.474 533.824 151.568 533.824 150.5C533.824 149.432 533.452 148.526 532.708 147.782C531.964 147.038 531.064 146.666 530.008 146.666C528.94 146.666 528.034 147.038 527.29 147.782C526.558 148.514 526.192 149.42 526.192 150.5C526.192 151.58 526.558 152.486 527.29 153.218Z" fill="#808080"/>
<rect x="412.5" y="129.5" width="129" height="174" rx="9.5" transform="rotate(-90 412.5 129.5)" stroke="black"/>
<circle cx="411.751" cy="59.4921" r="19.6534" transform="rotate(-90 411.751 59.4921)" fill="#5C3BFE"/>
<path fill-rule="evenodd" clip-rule="evenodd" d="M421.634 53.8956L409.664 65.8652L401.869 58.0704L402.687 57.2529L409.664 64.2302L420.816 53.0781L421.634 53.8956Z" fill="white"/>
<path d="M477.067 117H475.522L473.167 112.98H470.692V117H469.297V106.5H473.497C474.397 106.5 475.167 106.82 475.807 107.46C476.447 108.09 476.767 108.855 476.767 109.755C476.767 110.435 476.562 111.055 476.152 111.615C475.732 112.185 475.212 112.58 474.592 112.8L477.067 117ZM473.497 107.805H470.692V111.72H473.497C474.017 111.72 474.457 111.53 474.817 111.15C475.187 110.77 475.372 110.305 475.372 109.755C475.372 109.205 475.187 108.745 474.817 108.375C474.457 107.995 474.017 107.805 473.497 107.805ZM485.151 113.85H478.866C478.996 114.51 479.301 115.03 479.781 115.41C480.261 115.78 480.861 115.965 481.581 115.965C482.571 115.965 483.291 115.6 483.741 114.87L484.851 115.5C484.111 116.63 483.011 117.195 481.551 117.195C480.371 117.195 479.401 116.825 478.641 116.085C477.901 115.325 477.531 114.38 477.531 113.25C477.531 112.11 477.896 111.17 478.626 110.43C479.356 109.68 480.301 109.305 481.461 109.305C482.561 109.305 483.456 109.695 484.146 110.475C484.846 111.235 485.196 112.165 485.196 113.265C485.196 113.455 485.181 113.65 485.151 113.85ZM481.461 110.535C480.771 110.535 480.191 110.73 479.721 111.12C479.261 111.51 478.976 112.04 478.866 112.71H483.876C483.766 112.02 483.491 111.485 483.051 111.105C482.611 110.725 482.081 110.535 481.461 110.535ZM492.892 110.79V109.5H494.197V117H492.892V115.71C492.252 116.7 491.307 117.195 490.057 117.195C488.997 117.195 488.102 116.815 487.372 116.055C486.632 115.285 486.262 114.35 486.262 113.25C486.262 112.16 486.632 111.23 487.372 110.46C488.112 109.69 489.007 109.305 490.057 109.305C491.307 109.305 492.252 109.8 492.892 110.79ZM490.222 115.935C490.982 115.935 491.617 115.68 492.127 115.17C492.637 114.64 492.892 114 492.892 113.25C492.892 112.49 492.637 111.855 492.127 111.345C491.617 110.825 490.982 110.565 490.222 110.565C489.472 110.565 488.842 110.825 488.332 111.345C487.822 111.855 487.567 112.49 487.567 113.25C487.567 114 487.822 114.64 488.332 115.17C488.842 115.68 489.472 115.935 490.222 115.935ZM499.699 117.195C498.569 117.195 497.629 116.82 496.879 116.07C496.129 115.31 495.754 114.37 495.754 113.25C495.754 112.13 496.129 111.195 496.879 110.445C497.629 109.685 498.569 109.305 499.699 109.305C500.439 109.305 501.104 109.485 501.694 109.845C502.284 110.195 502.724 110.67 503.014 111.27L501.919 111.9C501.729 111.5 501.434 111.18 501.034 110.94C500.644 110.7 500.199 110.58 499.699 110.58C498.949 110.58 498.319 110.835 497.809 111.345C497.309 111.865 497.059 112.5 497.059 113.25C497.059 113.99 497.309 114.62 497.809 115.14C498.319 115.65 498.949 115.905 499.699 115.905C500.199 115.905 500.649 115.79 501.049 115.56C501.449 115.32 501.754 115 501.964 114.6L503.074 115.245C502.744 115.845 502.279 116.32 501.679 116.67C501.079 117.02 500.419 117.195 499.699 117.195ZM508.443 109.5V110.76H506.448V114.825C506.448 115.195 506.518 115.46 506.658 115.62C506.808 115.77 507.033 115.85 507.333 115.86C507.633 115.86 508.003 115.85 508.443 115.83V117C507.293 117.15 506.453 117.055 505.923 116.715C505.403 116.375 505.143 115.745 505.143 114.825V110.76H503.658V109.5H505.143V107.79L506.448 107.4V109.5H508.443ZM516.647 117.195C515.877 117.195 515.202 117.035 514.622 116.715C514.052 116.385 513.632 115.92 513.362 115.32L514.547 114.63C514.867 115.43 515.567 115.83 516.647 115.83C517.327 115.83 517.852 115.67 518.222 115.35C518.602 115.02 518.792 114.545 518.792 113.925V106.5H520.172V113.925C520.172 114.975 519.837 115.785 519.167 116.355C518.497 116.915 517.657 117.195 516.647 117.195ZM525.671 117.195C524.691 117.195 523.851 116.97 523.151 116.52C522.461 116.06 521.976 115.425 521.696 114.615L522.896 113.925C523.296 115.195 524.231 115.83 525.701 115.83C526.411 115.83 526.956 115.685 527.336 115.395C527.726 115.105 527.921 114.71 527.921 114.21C527.921 113.72 527.731 113.345 527.351 113.085C527.011 112.855 526.376 112.59 525.446 112.29L524.441 111.96C524.221 111.87 523.931 111.74 523.571 111.57C523.221 111.39 522.966 111.21 522.806 111.03C522.366 110.55 522.146 109.965 522.146 109.275C522.146 108.355 522.466 107.635 523.106 107.115C523.746 106.575 524.526 106.305 525.446 106.305C526.266 106.305 526.986 106.51 527.606 106.92C528.226 107.33 528.691 107.89 529.001 108.6L527.831 109.275C527.381 108.195 526.586 107.655 525.446 107.655C524.876 107.655 524.416 107.795 524.066 108.075C523.716 108.355 523.541 108.735 523.541 109.215C523.541 109.675 523.706 110.025 524.036 110.265C524.376 110.515 524.946 110.765 525.746 111.015L526.361 111.21C526.701 111.34 526.886 111.41 526.916 111.42C527.236 111.54 527.586 111.705 527.966 111.915C528.236 112.065 528.506 112.295 528.776 112.605C529.126 112.955 529.301 113.48 529.301 114.18C529.301 115.1 528.966 115.835 528.296 116.385C527.616 116.925 526.741 117.195 525.671 117.195Z" fill="#947EFF"/>
<rect x="412.5" y="364.5" width="129" height="174" rx="9.5" transform="rotate(-90 412.5 364.5)" stroke="black"/>
<path d="M471.22 382.466C471.88 382.718 472.402 383.12 472.786 383.672C473.182 384.224 473.38 384.854 473.38 385.562C473.38 386.51 473.044 387.32 472.372 387.992C471.7 388.664 470.89 389 469.942 389H464.506V376.4H469.528C470.44 376.4 471.22 376.724 471.868 377.372C472.516 378.02 472.84 378.8 472.84 379.712C472.84 380.312 472.696 380.858 472.408 381.35C472.12 381.83 471.724 382.202 471.22 382.466ZM469.528 377.3H465.46V382.124H469.528C470.176 382.124 470.728 381.89 471.184 381.422C471.652 380.93 471.886 380.36 471.886 379.712C471.886 379.052 471.652 378.488 471.184 378.02C470.74 377.54 470.188 377.3 469.528 377.3ZM465.46 388.1H469.942C470.614 388.1 471.196 387.854 471.688 387.362C472.18 386.846 472.426 386.246 472.426 385.562C472.426 384.866 472.18 384.272 471.688 383.78C471.208 383.276 470.626 383.024 469.942 383.024H465.46V388.1ZM483.461 382.034V380H484.379V389H483.461V386.966C483.065 387.662 482.531 388.208 481.859 388.604C481.187 389 480.431 389.198 479.591 389.198C478.319 389.198 477.221 388.748 476.297 387.848C475.385 386.936 474.929 385.82 474.929 384.5C474.929 383.18 475.385 382.07 476.297 381.17C477.209 380.258 478.307 379.802 479.591 379.802C480.431 379.802 481.187 380 481.859 380.396C482.531 380.792 483.065 381.338 483.461 382.034ZM476.945 387.218C477.689 387.962 478.595 388.334 479.663 388.334C480.719 388.334 481.619 387.962 482.363 387.218C483.095 386.486 483.461 385.58 483.461 384.5C483.461 383.42 483.095 382.514 482.363 381.782C481.619 381.038 480.719 380.666 479.663 380.666C478.595 380.666 477.689 381.038 476.945 381.782C476.213 382.514 475.847 383.42 475.847 384.5C475.847 385.58 476.213 386.486 476.945 387.218ZM491.265 389.198C489.909 389.198 488.781 388.748 487.881 387.848C486.981 386.948 486.531 385.832 486.531 384.5C486.531 383.168 486.981 382.052 487.881 381.152C488.781 380.252 489.909 379.802 491.265 379.802C492.141 379.802 492.933 380.012 493.641 380.432C494.349 380.84 494.865 381.398 495.189 382.106L494.451 382.538C494.187 381.962 493.767 381.506 493.191 381.17C492.627 380.834 491.985 380.666 491.265 380.666C490.197 380.666 489.291 381.038 488.547 381.782C487.815 382.514 487.449 383.42 487.449 384.5C487.449 385.592 487.815 386.504 488.547 387.236C489.279 387.968 490.185 388.334 491.265 388.334C491.985 388.334 492.627 388.166 493.191 387.83C493.767 387.494 494.205 387.038 494.505 386.462L495.261 386.912C494.901 387.608 494.361 388.166 493.641 388.586C492.921 388.994 492.129 389.198 491.265 389.198ZM499.105 384.32L504.127 389H502.903L498.133 384.572V389H497.233V376.4H498.133V384.086L502.687 380H503.947L499.105 384.32ZM509.087 379.802C510.407 379.802 511.475 380.27 512.291 381.206C513.119 382.142 513.533 383.252 513.533 384.536C513.533 384.56 513.527 384.632 513.515 384.752C513.515 384.872 513.515 384.944 513.515 384.968H505.361C505.469 385.976 505.871 386.792 506.567 387.416C507.263 388.028 508.133 388.334 509.177 388.334C509.885 388.334 510.509 388.19 511.049 387.902C511.589 387.602 512.003 387.2 512.291 386.696L513.083 387.164C512.711 387.788 512.177 388.286 511.481 388.658C510.797 389.018 510.023 389.198 509.159 389.198C507.767 389.198 506.633 388.76 505.757 387.884C504.869 386.996 504.425 385.868 504.425 384.5C504.425 383.156 504.857 382.04 505.721 381.152C506.609 380.252 507.731 379.802 509.087 379.802ZM509.087 380.666C508.079 380.666 507.227 380.984 506.531 381.62C505.847 382.256 505.457 383.078 505.361 384.086H512.597C512.501 383.018 512.117 382.184 511.445 381.584C510.773 380.972 509.987 380.666 509.087 380.666ZM519.759 379.802C520.827 379.802 521.673 380.132 522.297 380.792C522.933 381.44 523.251 382.31 523.251 383.402V389H522.333V383.402C522.333 382.562 522.099 381.896 521.631 381.404C521.163 380.912 520.515 380.666 519.687 380.666C518.739 380.666 517.977 380.978 517.401 381.602C516.825 382.226 516.537 383.108 516.537 384.248V389H515.637V380H516.537V381.71C517.185 380.438 518.259 379.802 519.759 379.802ZM533.735 382.088V376.4H534.635V389H533.735V386.912C533.363 387.632 532.835 388.196 532.151 388.604C531.479 389 530.717 389.198 529.865 389.198C528.581 389.198 527.477 388.748 526.553 387.848C525.653 386.936 525.203 385.82 525.203 384.5C525.203 383.18 525.653 382.07 526.553 381.17C527.465 380.258 528.569 379.802 529.865 379.802C530.717 379.802 531.479 380.006 532.151 380.414C532.835 380.81 533.363 381.368 533.735 382.088ZM527.201 387.218C527.945 387.962 528.851 388.334 529.919 388.334C530.975 388.334 531.875 387.962 532.619 387.218C533.363 386.474 533.735 385.568 533.735 384.5C533.735 383.432 533.363 382.526 532.619 381.782C531.875 381.038 530.975 380.666 529.919 380.666C528.851 380.666 527.945 381.038 527.201 381.782C526.469 382.514 526.103 383.42 526.103 384.5C526.103 385.58 526.469 386.486 527.201 387.218Z" fill="#808080"/>
<circle cx="411.751" cy="293.108" r="19.6534" transform="rotate(-90 411.751 293.108)" fill="#5C3BFE"/>
<path fill-rule="evenodd" clip-rule="evenodd" d="M421.634 287.513L409.664 299.482L401.869 291.688L402.687 290.87L409.664 297.847L420.816 286.695L421.634 287.513Z" fill="white"/>
<path d="M499.101 327.384L486.947 320.703C488.928 319.781 490.384 319.056 491.862 318.43C492.393 318.206 492.832 318.531 493.235 318.762C495.053 319.803 496.856 320.878 498.628 321.996C499.452 322.515 500.143 322.57 501.024 322.054C509.42 317.14 517.825 312.263 526.239 307.424C527.12 306.918 527.391 306.316 527.388 305.333C527.353 295.606 527.353 285.879 527.388 276.153C527.388 275.139 527.028 274.617 526.159 274.11C517.782 269.304 509.421 264.468 501.076 259.6C500.226 259.106 499.559 259.078 498.687 259.6C490.381 264.441 482.056 269.253 473.712 274.036C472.769 274.577 472.345 275.167 472.351 276.309C472.396 285.985 472.396 295.66 472.351 305.336C472.351 306.399 472.68 307.01 473.617 307.514C475.871 308.724 478.024 310.115 480.288 311.304C483.052 312.76 485.771 311.801 486.376 309.24C486.475 308.687 486.511 308.124 486.483 307.563C486.483 298.143 486.483 288.724 486.483 279.304C486.483 277.228 486.483 277.219 488.489 277.219C491.899 277.219 491.484 277.04 491.487 280.161C491.487 289.325 491.487 298.488 491.487 307.652C491.52 308.678 491.465 309.706 491.324 310.723C490.455 315.693 485.639 318.467 480.491 316.455C476.719 314.984 473.162 312.846 469.74 310.656C468.625 309.946 467.477 308.131 467.477 306.832V274.887C467.477 273.189 468.687 271.484 470.447 270.477C479.813 265.109 489.164 259.72 498.499 254.308C498.929 254.096 499.403 253.991 499.882 254.001C500.359 254.001 500.831 254.106 501.264 254.308C502.075 254.716 502.907 255.091 503.693 255.536C511.873 260.27 520.028 265.04 528.232 269.73C530.13 270.817 532.287 272.068 532.287 274.267V307.44C532.019 309.611 530.263 310.862 528.386 311.912C523.576 314.615 518.864 317.472 514.054 320.205C509.717 322.663 505.324 325.018 500.957 327.42C500.669 327.564 500.356 327.652 500.035 327.678C499.704 327.658 499.384 327.557 499.101 327.384Z" fill="#947EFF"/>
<path d="M507.966 306.067C504.756 305.941 501.54 305.739 498.61 304.144C495.68 302.55 494.19 300.019 494.061 296.671C494.024 295.682 494.411 295.265 495.391 295.277C495.935 295.277 496.312 295.277 496.77 295.277C498.693 295.228 499.172 295.406 499.381 297.16C499.611 299.092 501 300.204 502.809 300.671C506.148 301.51 509.639 301.545 512.994 300.772C513.589 300.62 514.155 300.373 514.671 300.041C515.881 299.301 516.327 298.14 516.265 296.77C516.204 295.4 515.27 294.715 514.115 294.475C511.372 293.904 508.586 293.514 505.822 292.985C503.721 292.58 501.589 292.239 499.562 291.582C497.062 290.771 495.385 289.038 495.062 286.289C494.703 283.242 495.33 280.453 498.036 278.73C499.621 277.716 501.383 277.01 503.23 276.648C507.088 275.926 510.979 276.033 514.727 277.431C518.342 278.779 520.016 281.59 520.437 285.279C520.47 285.561 520.513 286.342 519.997 286.403C518.808 286.506 517.614 286.534 516.422 286.486C515.841 286.486 515.528 285.948 515.436 285.565C514.751 282.772 512.884 281.409 510.159 281.264C508.084 281.131 506.001 281.162 503.93 281.357C503.134 281.415 502.357 281.623 501.639 281.971C501.092 282.283 500.669 282.772 500.438 283.357C500.208 283.943 500.184 284.589 500.37 285.19C500.511 285.629 500.758 286.027 501.089 286.348C501.42 286.67 501.825 286.905 502.268 287.033C502.762 287.168 503.263 287.271 503.77 287.34C506.267 287.844 508.798 288.203 511.311 288.658C512.767 288.919 514.232 289.183 515.654 289.579C518.707 290.427 521.088 292.009 521.49 295.495C521.917 299.307 520.403 302.335 517.19 304.126C514.333 305.739 511.179 305.987 507.966 306.067Z" fill="#947EFF"/>
<path d="M478.044 349.33V341.5H479.439V352H478.314L472.914 344.155V352H471.519V341.5H472.644L478.044 349.33ZM487.88 351.055C487.12 351.815 486.185 352.195 485.075 352.195C483.965 352.195 483.03 351.815 482.27 351.055C481.51 350.295 481.13 349.36 481.13 348.25C481.13 347.14 481.51 346.205 482.27 345.445C483.03 344.685 483.965 344.305 485.075 344.305C486.185 344.305 487.12 344.685 487.88 345.445C488.65 346.215 489.035 347.15 489.035 348.25C489.035 349.35 488.65 350.285 487.88 351.055ZM485.075 350.92C485.825 350.92 486.455 350.665 486.965 350.155C487.475 349.645 487.73 349.01 487.73 348.25C487.73 347.49 487.475 346.855 486.965 346.345C486.455 345.835 485.825 345.58 485.075 345.58C484.335 345.58 483.71 345.835 483.2 346.345C482.69 346.855 482.435 347.49 482.435 348.25C482.435 349.01 482.69 349.645 483.2 350.155C483.71 350.665 484.335 350.92 485.075 350.92ZM496.783 345.79V341.5H498.088V352H496.783V350.71C496.143 351.7 495.198 352.195 493.948 352.195C492.888 352.195 491.993 351.815 491.263 351.055C490.523 350.285 490.153 349.35 490.153 348.25C490.153 347.16 490.523 346.23 491.263 345.46C492.003 344.69 492.898 344.305 493.948 344.305C495.198 344.305 496.143 344.8 496.783 345.79ZM494.113 350.935C494.873 350.935 495.508 350.68 496.018 350.17C496.528 349.64 496.783 349 496.783 348.25C496.783 347.49 496.528 346.855 496.018 346.345C495.508 345.825 494.873 345.565 494.113 345.565C493.363 345.565 492.733 345.825 492.223 346.345C491.713 346.855 491.458 347.49 491.458 348.25C491.458 349 491.713 349.64 492.223 350.17C492.733 350.68 493.363 350.935 494.113 350.935ZM507.265 348.85H500.98C501.11 349.51 501.415 350.03 501.895 350.41C502.375 350.78 502.975 350.965 503.695 350.965C504.685 350.965 505.405 350.6 505.855 349.87L506.965 350.5C506.225 351.63 505.125 352.195 503.665 352.195C502.485 352.195 501.515 351.825 500.755 351.085C500.015 350.325 499.645 349.38 499.645 348.25C499.645 347.11 500.01 346.17 500.74 345.43C501.47 344.68 502.415 344.305 503.575 344.305C504.675 344.305 505.57 344.695 506.26 345.475C506.96 346.235 507.31 347.165 507.31 348.265C507.31 348.455 507.295 348.65 507.265 348.85ZM503.575 345.535C502.885 345.535 502.305 345.73 501.835 346.12C501.375 346.51 501.09 347.04 500.98 347.71H505.99C505.88 347.02 505.605 346.485 505.165 346.105C504.725 345.725 504.195 345.535 503.575 345.535ZM515.425 352.195C514.655 352.195 513.98 352.035 513.4 351.715C512.83 351.385 512.41 350.92 512.14 350.32L513.325 349.63C513.645 350.43 514.345 350.83 515.425 350.83C516.105 350.83 516.63 350.67 517 350.35C517.38 350.02 517.57 349.545 517.57 348.925V341.5H518.95V348.925C518.95 349.975 518.615 350.785 517.945 351.355C517.275 351.915 516.435 352.195 515.425 352.195ZM524.45 352.195C523.47 352.195 522.63 351.97 521.93 351.52C521.24 351.06 520.755 350.425 520.475 349.615L521.675 348.925C522.075 350.195 523.01 350.83 524.48 350.83C525.19 350.83 525.735 350.685 526.115 350.395C526.505 350.105 526.7 349.71 526.7 349.21C526.7 348.72 526.51 348.345 526.13 348.085C525.79 347.855 525.155 347.59 524.225 347.29L523.22 346.96C523 346.87 522.71 346.74 522.35 346.57C522 346.39 521.745 346.21 521.585 346.03C521.145 345.55 520.925 344.965 520.925 344.275C520.925 343.355 521.245 342.635 521.885 342.115C522.525 341.575 523.305 341.305 524.225 341.305C525.045 341.305 525.765 341.51 526.385 341.92C527.005 342.33 527.47 342.89 527.78 343.6L526.61 344.275C526.16 343.195 525.365 342.655 524.225 342.655C523.655 342.655 523.195 342.795 522.845 343.075C522.495 343.355 522.32 343.735 522.32 344.215C522.32 344.675 522.485 345.025 522.815 345.265C523.155 345.515 523.725 345.765 524.525 346.015L525.14 346.21C525.48 346.34 525.665 346.41 525.695 346.42C526.015 346.54 526.365 346.705 526.745 346.915C527.015 347.065 527.285 347.295 527.555 347.605C527.905 347.955 528.08 348.48 528.08 349.18C528.08 350.1 527.745 350.835 527.075 351.385C526.395 351.925 525.52 352.195 524.45 352.195Z" fill="#947EFF"/>
<defs>
<clipPath id="clip0_6819_25131">
<rect width="82" height="82" fill="white" transform="translate(458.477 15)"/>
</clipPath>
</defs>
</svg>
