<svg width="388" height="227" viewBox="0 0 388 227" fill="none" xmlns="http://www.w3.org/2000/svg">
<path d="M370.135 32.6508L374.082 39.8667L381.298 43.8133L374.082 47.7598L370.135 54.9758L366.189 47.7598L358.973 43.8133L366.189 39.8667L370.135 32.6508Z" fill="#8870FC"/>
<path d="M374.081 39.8666L370.135 32.6506V54.9756L374.081 47.7597L381.297 43.8131L374.081 39.8666Z" fill="#3922A9"/>
<path d="M235.128 107.729C231.385 107.979 228.193 109.26 226.199 110.525C226.111 110.582 226.078 110.691 226.117 110.789L235.089 133.545C235.168 133.744 235.464 133.717 235.531 133.515C238.754 123.785 250.636 134.99 257.808 129.999C265.368 124.738 269.901 115.17 269.672 109.382C269.667 109.244 269.358 109.35 269.266 109.454C260.857 119.037 247.849 106.879 235.128 107.729Z" fill="#8870FC"/>
<path d="M236.545 150.721L227.26 127.172M227.26 127.172L217.975 103.623C219.891 102.371 223.002 101.075 226.675 100.76C239.625 99.6466 253.226 111.972 261.574 102.009V102.009C263.354 99.8839 257.458 117.624 249.732 123.001C242.406 128.099 230.166 116.299 227.26 127.172Z" stroke="#3922A9" stroke-width="0.553824" stroke-linecap="round" stroke-linejoin="round"/>
<rect x="120.32" y="9.29163" width="78.0693" height="138.303" fill="#5C3BFE"/>
<path d="M12.6087 45.1656H6.75V183.468H84.8193V177.585" stroke="#DED8FF" stroke-width="0.553824"/>
<path d="M6.85531 50.9185H1V189.221H79.0693V183.358" stroke="#DED8FF" stroke-width="0.553824"/>
<rect x="18.3902" y="51.1954" width="66.3035" height="22.7487" stroke="#DED8FF" stroke-width="0.553824"/>
<rect x="18.3902" y="85.5406" width="66.3035" height="22.7487" stroke="#DED8FF" stroke-width="0.553824"/>
<rect x="18.3902" y="119.883" width="14.1739" height="22.7487" stroke="#DED8FF" stroke-width="0.553824"/>
<rect x="17.0035" y="153.082" width="28.2278" height="9.22654" stroke="#8870FC" stroke-width="0.553824"/>
<rect x="57.0547" y="152.805" width="28.7817" height="9.78037" fill="#8870FC"/>
<rect x="53.9253" y="150.306" width="35.0379" height="14.7784" stroke="#5C3BFE" stroke-width="0.553824"/>
<rect x="35.8086" y="122.007" width="44.1488" height="2.79544" fill="#3922A9"/>
<rect x="35.8086" y="126.28" width="25.8229" height="2.79544" fill="#8870FC"/>
<rect x="129.234" y="16.5348" width="28.7623" height="6.72878" fill="white"/>
<rect x="129.234" y="64.084" width="42.3578" height="8.63361" fill="white"/>
<rect x="129.234" y="75.5132" width="30.5215" height="4.34765" fill="#DED8FF"/>
<rect x="129.509" y="86.4805" width="6.57285" height="10.1181" stroke="#DED8FF" stroke-width="0.553824"/>
<rect x="139.367" y="88.2617" width="50.7128" height="2.86135" fill="#3922A9"/>
<rect x="139.367" y="92.6733" width="29.3729" height="2.86082" fill="#8870FC"/>
<rect x="129.509" y="101.778" width="6.57285" height="10.1181" stroke="#DED8FF" stroke-width="0.553824"/>
<rect x="139.367" y="103.561" width="50.7128" height="2.86082" fill="#3922A9"/>
<rect x="139.367" y="107.972" width="29.3729" height="2.86135" fill="#8870FC"/>
<rect x="129.509" y="117.076" width="6.57285" height="10.1181" stroke="#DED8FF" stroke-width="0.553824"/>
<rect x="139.367" y="118.857" width="50.7128" height="2.86135" fill="#3922A9"/>
<rect x="139.367" y="123.269" width="29.3729" height="2.86082" fill="#8870FC"/>
<rect x="129.509" y="132.372" width="6.57286" height="10.1186" stroke="#DED8FF" stroke-width="0.553824"/>
<rect x="139.367" y="134.154" width="50.7128" height="2.86082" fill="#3922A9"/>
<rect x="139.367" y="138.565" width="29.3729" height="2.86135" fill="#8870FC"/>
<path d="M129.511 31.2448H189.803V58.4451H129.511V31.2448Z" stroke="#DED8FF" stroke-width="0.553824"/>
<rect x="182.279" y="16.2247" width="7.79576" height="0.622147" fill="white"/>
<rect x="182.279" y="19.5895" width="7.79576" height="0.622675" fill="white"/>
<rect x="182.279" y="22.9542" width="7.79576" height="0.622147" fill="white"/>
<ellipse cx="186.354" cy="68.402" rx="3.72165" ry="3.72181" fill="#3922A9"/>
<rect x="12.7828" y="39.6916" width="77.5154" height="137.748" stroke="#8870FC" stroke-width="0.553824"/>
<path d="M89.1953 157.925C94.7786 158.604 106.024 154.337 106.338 131.831C106.73 103.698 110.918 94.1848 119.162 92.9617M119.162 92.9617L115.441 91.3801M119.162 92.9617L116.521 96.4905" stroke="#5C3BFE" stroke-width="0.553824"/>
<ellipse cx="88.9727" cy="157.696" rx="2.20902" ry="2.20889" fill="#5C3BFE"/>
<rect x="178.888" y="163.922" width="152.451" height="36.3653" stroke="#DED8FF" stroke-width="0.553824"/>
<path d="M179.866 175.105C182.312 174.712 188.056 175.811 191.456 183.353C193.595 188.099 197.026 189.561 200.192 189.09C206.473 188.154 207.277 178.826 213.031 176.138C214.392 175.503 216.03 175.105 217.984 175.105" stroke="#8870FC" stroke-width="0.553824"/>
<path d="M256.103 175.105C253.656 174.712 247.913 175.811 244.513 183.353C242.373 188.099 238.943 189.561 235.777 189.09C229.495 188.154 228.691 178.826 222.937 176.138C221.577 175.503 219.939 175.105 217.984 175.105" stroke="#8870FC" stroke-width="0.553824"/>
<path d="M254.127 175.105C256.574 174.712 262.318 175.811 265.717 183.353C267.857 188.099 271.288 189.561 274.454 189.09C280.735 188.154 281.539 178.826 287.293 176.138C288.654 175.503 290.291 175.105 292.246 175.105" stroke="#8870FC" stroke-width="0.553824"/>
<path d="M330.365 175.105C327.918 174.712 322.175 175.811 318.775 183.353C316.635 188.099 313.205 189.561 310.039 189.09C303.757 188.154 302.953 178.826 297.199 176.138C295.839 175.503 294.201 175.105 292.246 175.105" stroke="#8870FC" stroke-width="0.553824"/>
<rect x="331.357" y="163.923" width="55.9366" height="36.3652" stroke="#DED8FF" stroke-width="0.553824"/>
<path d="M348.641 177.618C348.641 179.005 347.532 180.123 346.171 180.123C344.81 180.123 343.701 179.005 343.701 177.618C343.701 176.232 344.81 175.114 346.171 175.114C347.532 175.114 348.641 176.232 348.641 177.618Z" stroke="#8870FC" stroke-width="0.553824"/>
<path d="M357.409 177.618C357.409 179.005 356.3 180.123 354.939 180.123C353.578 180.123 352.468 179.005 352.468 177.618C352.468 176.232 353.578 175.114 354.939 175.114C356.3 175.114 357.409 176.232 357.409 177.618Z" stroke="#8870FC" stroke-width="0.553824"/>
<path d="M366.186 177.618C366.186 179.005 365.077 180.123 363.716 180.123C362.355 180.123 361.246 179.005 361.246 177.618C361.246 176.232 362.355 175.114 363.716 175.114C365.077 175.114 366.186 176.232 366.186 177.618Z" stroke="#8870FC" stroke-width="0.553824"/>
<path d="M374.958 177.618C374.958 179.005 373.848 180.123 372.487 180.123C371.126 180.123 370.017 179.005 370.017 177.618C370.017 176.232 371.126 175.114 372.487 175.114C373.848 175.114 374.958 176.232 374.958 177.618Z" stroke="#8870FC" stroke-width="0.553824"/>
<path d="M348.639 186.591C348.639 187.977 347.53 189.096 346.169 189.096C344.808 189.096 343.699 187.977 343.699 186.591C343.699 185.205 344.808 184.086 346.169 184.086C347.53 184.086 348.639 185.205 348.639 186.591Z" stroke="#8870FC" stroke-width="0.553824"/>
<path d="M357.409 186.591C357.409 187.977 356.3 189.096 354.939 189.096C353.578 189.096 352.468 187.977 352.468 186.591C352.468 185.205 353.578 184.086 354.939 184.086C356.3 184.086 357.409 185.205 357.409 186.591Z" stroke="#8870FC" stroke-width="0.553824"/>
<path d="M366.186 186.591C366.186 187.977 365.077 189.096 363.716 189.096C362.355 189.096 361.246 187.977 361.246 186.591C361.246 185.205 362.355 184.086 363.716 184.086C365.077 184.086 366.186 185.205 366.186 186.591Z" stroke="#8870FC" stroke-width="0.553824"/>
<path d="M374.958 186.591C374.958 187.977 373.848 189.096 372.487 189.096C371.126 189.096 370.017 187.977 370.017 186.591C370.017 185.205 371.126 184.086 372.487 184.086C373.848 184.086 374.958 185.205 374.958 186.591Z" stroke="#8870FC" stroke-width="0.553824"/>
<rect x="325.82" y="127.955" width="34.8794" height="35.7179" stroke="#DED8FF" stroke-width="0.553824"/>
<ellipse cx="343.263" cy="145.814" rx="12.2977" ry="12.5888" fill="#5C3BFE"/>
<circle r="6.8486" transform="matrix(0.698795 0.715322 -0.698795 0.715322 343.26 145.816)" fill="white"/>
<path d="M338.474 150.715C341.117 153.421 345.402 153.421 348.045 150.715C350.688 148.01 350.688 143.623 348.045 140.917L338.474 150.715Z" fill="#DED8FF"/>
<rect x="-0.276912" y="0.276912" width="37.1906" height="35.7183" transform="matrix(-1 0 0 1 324.987 127.678)" stroke="#DED8FF" stroke-width="0.553824"/>
<path d="M314.279 141.789L306.666 153.894L299.054 141.789L314.279 141.789Z" stroke="#5C3BFE" stroke-width="0.553824"/>
<path d="M70.7051 0.0180664V5.2847" stroke="#5C3BFE" stroke-width="0.553824"/>
<path d="M77.5508 2.65161L73.8269 6.37553" stroke="#DED8FF" stroke-width="0.553824"/>
<path d="M79.957 9.29089L74.6906 9.29089" stroke="#CEC4FF" stroke-width="0.553824"/>
<path d="M63.8594 2.65161L67.5833 6.37553" stroke="#7D62FE" stroke-width="0.553824"/>
<path d="M61.4512 9.29089L66.7176 9.29089" stroke="#8D76FE" stroke-width="0.553824"/>
<path d="M70.7051 18.5642V13.2981" stroke="#AD9DFE" stroke-width="0.553824"/>
<path d="M77.5508 15.9309L73.8269 12.207" stroke="#BEB1FF" stroke-width="0.553824"/>
<path d="M63.8594 15.9309L67.5833 12.207" stroke="#9D89FE" stroke-width="0.553824"/>
<path d="M153.773 198.52C153.773 213.726 141.446 226.053 126.24 226.053C111.034 226.053 98.7066 213.726 98.7066 198.52C98.7066 183.313 111.034 170.986 126.24 170.986C141.446 170.986 153.773 183.313 153.773 198.52Z" stroke="#3922A9" stroke-width="0.553824"/>
<circle cx="126.239" cy="198.521" r="19.0049" stroke="#8870FC" stroke-width="0.553824"/>
<circle cx="126.242" cy="198.522" r="9.73464" stroke="#DED8FF" stroke-width="0.553824"/>
<rect x="311.676" y="53.4702" width="13.3348" height="74.5532" fill="#8870FC"/>
<path d="M318.344 53.4702V128.023" stroke="#3922A9" stroke-width="0.553824"/>
<rect x="325.008" y="53.4702" width="13.3348" height="74.5532" fill="#3922A9"/>
<path d="M325.008 53.4703H338.34L325.008 28.8606L325.008 53.4703Z" fill="#DED8FF"/>
<path d="M325.008 53.4703H311.675L325.008 28.8606L325.008 53.4703Z" fill="white"/>
<path d="M325.008 28.8606L325.008 41.1654H318.341L325.008 28.8606Z" fill="#3922A9"/>
<path d="M325.008 28.8606L325.008 41.1654H331.674L325.008 28.8606Z" fill="#04020E"/>
<path d="M331.678 53.4707V128.024" stroke="#8870FC" stroke-width="0.553824"/>
<rect x="246.199" y="29.1378" width="41.3167" height="52.0392" stroke="#5C3BFE" stroke-width="0.553824"/>
<path d="M249.201 29.314V80.8815" stroke="#5C3BFE" stroke-width="0.553824"/>
<path d="M280.32 29.314V80.8815" stroke="#5C3BFE" stroke-width="0.553824"/>
<path d="M282.074 29.3141V80.8817" stroke="#5C3BFE" stroke-width="0.553824"/>
<path d="M283.828 29.314V80.8815" stroke="#5C3BFE" stroke-width="0.553824"/>
<path d="M285.582 29.3141V80.8817" stroke="#5C3BFE" stroke-width="0.553824"/>
<rect x="253.449" y="35.8159" width="15.9753" height="7.99776" fill="#8870FC"/>
<rect x="253.449" y="47.6255" width="22.814" height="2.09316" fill="#DED8FF"/>
<rect x="253.449" y="53.5312" width="22.814" height="2.09263" fill="#DED8FF"/>
<rect x="253.449" y="59.4375" width="22.814" height="2.09263" fill="#DED8FF"/>
<rect x="253.449" y="65.3408" width="22.814" height="2.09263" fill="#DED8FF"/>
<rect x="253.449" y="71.2466" width="22.814" height="2.09316" fill="#DED8FF"/>
<path d="M219.851 37.3174L217.659 41.3263L213.65 43.5188L217.659 45.7113L219.851 49.7202L222.044 45.7113L226.053 43.5188L222.044 41.3263L219.851 37.3174Z" fill="#8870FC"/>
<path d="M217.659 41.3263L219.852 37.3174V49.7202L217.659 45.7113L213.65 43.5188L217.659 41.3263Z" fill="#3922A9"/>
</svg>
