<svg width="401" height="215" viewBox="0 0 401 215" fill="none" xmlns="http://www.w3.org/2000/svg">
<path d="M39.8825 105.652C39.8825 116.357 31.2328 125.032 20.5662 125.032C9.89971 125.032 1.25 116.357 1.25 105.652C1.25 94.9462 9.89971 86.2706 20.5662 86.2706C31.2328 86.2706 39.8825 94.9462 39.8825 105.652Z" stroke="#8870FC"/>
<path d="M33.8047 105.653C33.8047 112.991 27.8757 118.937 20.5654 118.937C13.2551 118.937 7.32617 112.991 7.32617 105.653C7.32617 98.315 13.2551 92.369 20.5654 92.369C27.8757 92.369 33.8047 98.315 33.8047 105.653Z" stroke="#8870FC"/>
<path d="M27.2011 105.653C27.2011 109.331 24.2295 112.31 20.5673 112.31C16.9052 112.31 13.9336 109.331 13.9336 105.653C13.9336 101.975 16.9052 98.996 20.5673 98.996C24.2295 98.996 27.2011 101.975 27.2011 105.653Z" stroke="#DED8FF"/>
<path d="M34.455 198.622L31.735 203.611L26.7616 206.34L31.735 209.069L34.455 214.059L37.175 209.069L42.1484 206.34L37.175 203.611L34.455 198.622Z" fill="#8870FC"/>
<path d="M31.7292 203.611L34.4492 198.622V214.059L31.7292 209.069L26.7558 206.34L31.7292 203.611Z" fill="#4126C0"/>
<rect x="234.756" y="24.1682" width="141.836" height="189.034" stroke="#947EFF"/>
<path d="M353.493 48.5092H257.855V68.3819H353.493V48.5092Z" stroke="#5C3BFE" stroke-miterlimit="10"/>
<path d="M351.01 93.2229H305.054C303.682 93.2229 302.57 94.3351 302.57 95.707C302.57 97.0789 303.682 98.1911 305.054 98.1911H351.01C352.382 98.1911 353.494 97.0789 353.494 95.707C353.494 94.3351 352.382 93.2229 351.01 93.2229Z" fill="#5C3BFE"/>
<path d="M351.01 131.726H305.054C303.682 131.726 302.57 132.839 302.57 134.211C302.57 135.582 303.682 136.695 305.054 136.695H351.01C352.382 136.695 353.494 135.582 353.494 134.211C353.494 132.839 352.382 131.726 351.01 131.726Z" fill="#5C3BFE"/>
<path d="M351.01 170.23H305.054C303.682 170.23 302.57 171.342 302.57 172.714C302.57 174.086 303.682 175.198 305.054 175.198H351.01C352.382 175.198 353.494 174.086 353.494 172.714C353.494 171.342 352.382 170.23 351.01 170.23Z" fill="#5C3BFE"/>
<path d="M290.149 156.567H257.855V188.861H290.149V156.567Z" stroke="#5C3BFE" stroke-miterlimit="10"/>
<path d="M290.149 79.5605H257.855V111.854H290.149V79.5605Z" stroke="#5C3BFE" stroke-miterlimit="10"/>
<path d="M290.149 118.064H257.855V150.357H290.149V118.064Z" stroke="#5C3BFE" stroke-miterlimit="10"/>
<path d="M189.543 193.829H209.416V213.702M189.543 193.829V213.702H209.416M189.543 193.829L209.416 213.702" stroke="#AE9DFF"/>
<path d="M189.543 173.956H209.416V193.829M189.543 173.956V193.829H209.416M189.543 173.956L209.416 193.829" stroke="#AE9DFF"/>
<path d="M169.67 193.829H189.543V213.702M169.67 193.829V213.702H189.543M169.67 193.829L189.543 213.702" stroke="#AE9DFF"/>
<path d="M169.67 173.956H189.543V193.829M169.67 173.956V193.829H189.543M169.67 173.956L189.543 193.829" stroke="#AE9DFF"/>
<path d="M169.67 154.083H189.543V173.956M169.67 154.083V173.956H189.543M169.67 154.083L189.543 173.956" stroke="#AE9DFF"/>
<path d="M149.797 193.829H169.67V213.702M149.797 193.829V213.702H169.67M149.797 193.829L169.67 213.702" stroke="#AE9DFF"/>
<path d="M209.414 42.299V23.6682H172.152V42.299" stroke="#5C3BFE"/>
<path d="M209.414 42.2988V60.9296H172.152V42.2988" stroke="#DED8FF"/>
<path d="M202.018 42.2972V53.5291H179.555V42.2972" stroke="#5C3BFE"/>
<path d="M202.018 42.2929V31.061H179.555V42.2929" stroke="#8870FC"/>
<path d="M194.814 42.2988V46.3311H186.75V42.2988" stroke="#8870FC"/>
<path d="M194.814 42.297V38.2648H186.75V42.297" stroke="#5C3BFE"/>
<path d="M170.604 134.951L170.604 119.057L76.5262 119.057L76.5262 134.951L170.604 134.951Z" fill="#8870FC"/>
<path fill-rule="evenodd" clip-rule="evenodd" d="M76.5262 127.005L170.604 127.005L170.604 126.411L76.5262 126.411L76.5262 127.005Z" fill="#4126C0"/>
<path d="M170.604 119.053L170.604 103.159L76.5262 103.159L76.5262 119.053L170.604 119.053Z" fill="#4126C0"/>
<path d="M170.604 119.053L170.604 103.159L201.963 119.053L170.604 119.053Z" fill="#DED8FF"/>
<path d="M170.604 119.053L170.604 134.948L201.963 119.053L170.604 119.053Z" fill="white"/>
<path d="M201.963 119.053L187.329 119.053L187.329 127L201.963 119.053Z" fill="#4126C0"/>
<path d="M201.963 119.053L187.329 119.053L187.329 111.106L201.963 119.053Z" fill="black"/>
<path fill-rule="evenodd" clip-rule="evenodd" d="M76.5164 111.108L170.594 111.108L170.594 110.513L76.5164 110.513L76.5164 111.108Z" fill="#8870FC"/>
<path d="M376.621 0.0692139L385.238 15.8753L400.992 24.52L385.238 33.1647L376.621 48.9708L368.005 33.1647L352.25 24.52L368.005 15.8753L376.621 0.0692139Z" fill="#8870FC"/>
<path d="M385.243 15.8753L376.627 0.0692139V48.9708L385.243 33.1647L400.998 24.52L385.243 15.8753Z" fill="#4126C0"/>
</svg>
