<svg fill="none" height="100" viewBox="0 0 119 100" width="119" xmlns="http://www.w3.org/2000/svg"><path d="m24.2574 36.9499c-.0615-1.1471-.0298-2.3562.0948-3.6079m70.8644 3.6079c-.5552-3.8821-1.6065-8.6417-3.551-13.3841m-67.3134 9.7762c1.2912-12.9716 12.5599-30.52763 33.4623-31.30732 19.7176-.73549 29.2667 10.34992 33.8511 21.53112m-67.3134 9.7762c-8.5762.8147-22.57128 4.1704-22.3496 21.9966.23302 18.7379 21.2815 19.4999 30.3699 18.5688m59.2931-50.3416c4.9492-.6984 27.0874 1.9785 25.2234 28.6305-1.032 14.7462-19.1023 23.9224-30.5211 21.7111" stroke="#000" stroke-linecap="round" stroke-width="3"/><g stroke="#5c3bfe"><path d="m57.1577 43.4839v14.3972l-3.1891 2.567v15.7961" stroke-width="2"/><path d="m53.9686 76.2446v21.0146h-20.4389" stroke-dasharray="2 2" stroke-width="2"/><circle cx="31.9352" cy="97.259" r="2.23949"/></g><circle cx="56.9847" cy="43.1052" fill="#5c3bfe" r="2.66916"/><g stroke="#000"><path d="m73.9727 52.4717v5.5083l4.9285 4.0166v20.0783" stroke-width="2"/><path d="m78.872 81.0073h19.7518" stroke-dasharray="2 2" stroke-width="2"/><circle r="2.23949" transform="matrix(-1 0 0 1 100.897 80.6111)"/></g><circle fill="#000" r="2.66916" transform="matrix(-1 0 0 1 74.0674 50.5788)"/><path d="m65.2751 64.5684v9.2118" stroke="#5c3bfe" stroke-width="2"/><path d="m85.8593 90.3048h-20.584v-16.67" stroke="#5c3bfe" stroke-dasharray="2 2" stroke-width="2"/><circle fill="#5c3bfe" r="2.66916" transform="matrix(-1 0 0 1 86.8793 90.0827)"/><circle r="2.23949" stroke="#5c3bfe" transform="matrix(-1 0 0 1 65.2753 62.6184)"/><path d="m44.7065 52.1802v6.6184l-3.203 2.6045v19.604" stroke="#000" stroke-width="2"/><path d="m41.5025 77.1143v10.7268h-21.8859" stroke="#000" stroke-dasharray="2 2" stroke-width="2"/><circle cx="18.5489" cy="87.947" fill="#000" r="2.66916"/><circle cx="44.6915" cy="49.862" r="2.23949" stroke="#000"/></svg>