<svg width="116" height="119" viewBox="0 0 116 119" fill="none" xmlns="http://www.w3.org/2000/svg">
<path d="M36.104 86.2659C36.104 86.2659 32.6097 81.0807 34.6249 77.0581C36.6811 72.9497 39.8613 74.4013 39.8613 74.4013C39.8613 74.4013 36.7644 70.6492 39.3537 65.8388C41.7931 61.3036 45.9293 63.1118 45.9293 63.1118C45.9293 63.1118 43.5756 58.8266 46.3901 54.3677C48.7588 50.6133 53.597 51.7782 53.597 51.7782L34.5394 27.2093C33.0423 25.2793 31.5208 21.1096 35.2157 17.7203C38.9071 14.3308 42.3443 16.9 43.7758 18.7455L75.7779 60.0024C77.339 62.0149 79.1863 60.3221 77.6252 58.3096L73.4633 52.9442C67.5437 45.3127 67.6384 37.1314 67.9424 34.6183C68.2448 32.1033 69.4919 29.8243 72.0059 28.3676C76.267 25.8918 77.8277 29.6434 78.7978 33.1512C81.1329 41.609 86.2859 51.9882 89.0082 56.6344C96.6917 69.7628 94.4735 87.3476 83.2606 97.6432C71.0267 108.867 52.5935 107.504 42.2406 94.1772L36.104 86.2659Z" fill="#FFDC5D"/>
</svg>
