<svg width="13" height="14" viewBox="0 0 13 14" fill="none" xmlns="http://www.w3.org/2000/svg">
<path d="M0.0113 12.1017V1.62169C-0.0143634 1.41805 0.00380555 1.21127 0.0645889 1.01522C0.125372 0.819165 0.227366 0.638374 0.363731 0.484964C0.500096 0.331553 0.667682 0.209067 0.855254 0.125717C1.04283 0.0423679 1.24605 8.12639e-05 1.4513 0.00169194C1.84479 -0.0150997 2.23345 0.0934457 2.5613 0.311692L11.0913 5.31169C11.8513 5.75169 12.2613 6.11169 12.2613 6.82169C12.2613 7.53169 11.8513 7.89169 11.0913 8.33169L2.5613 13.3317C2.23345 13.5499 1.84479 13.6585 1.4513 13.6417C1.25261 13.6452 1.05539 13.607 0.872399 13.5295C0.689411 13.452 0.524727 13.3369 0.388999 13.1918C0.253272 13.0466 0.149522 12.8746 0.0844611 12.6868C0.0193998 12.499 -0.00552467 12.2997 0.0113 12.1017V12.1017Z" fill="#7B7B7B"/>
</svg>
