<svg width="840" height="220" viewBox="0 0 840 220" fill="none" xmlns="http://www.w3.org/2000/svg">
<path fill-rule="evenodd" clip-rule="evenodd" d="M64.7873 -175.075V-203H65.9043V-175.075L129.574 -175.075V-203H130.692V-175.075L194.362 -175.075V-203H195.479V-175.075L259.149 -175.075V-203H260.266V-175.075L323.936 -175.075V-203H325.053V-175.075L387.605 -175.075L388.723 -175.075V-203H389.84V-175.075L452.393 -175.075V-203H453.51V-175.075L517.18 -175.075V-203H518.297V-175.075L581.967 -175.075V-203H583.084V-175.075L646.754 -175.075V-203H647.871V-175.075L711.542 -175.075V-203H712.659V-175.075L776.329 -175.075V-203H777.446V-175.075L839.999 -175.075V-173.958L777.446 -173.958V-141.564L839.999 -141.564V-140.447L777.446 -140.447V-108.054L839.999 -108.054V-106.937L777.446 -106.937V-74.5429L839.999 -74.5429V-73.4259L777.446 -73.4259V-41.0322H839.999V-39.9152H777.446V-7.52161H839.999V-6.40459H777.446V25.989H839.999V27.1061H777.446V59.4997H839.999V60.6167H777.446V93.0103H839.999V94.1273H777.446V126.521H839.999V127.638H777.446V160.032H839.999V161.149H777.446V193.542H839.999V194.659H777.446V227.053H839.999V228.17H777.446V260.564H839.999V261.681H777.446V294.074H839.999V295.191H777.446V327.585H839.999V328.702H777.446V361.095H839.999V362.212H777.446V394.606H839.999V395.723H777.446V422.532H776.329V395.723H712.659V422.532H711.542V395.723H647.871V422.532H646.754V395.723L583.084 395.723V422.532H581.967V395.723H518.297V422.532H517.18V395.723H453.51V422.532H452.393V395.723L389.84 395.723V422.532H388.723V395.723L387.605 395.723L325.053 395.723V422.532H323.936V395.723H260.266V422.532H259.149V395.723L195.479 395.723V422.532H194.362V395.723H130.691V422.532H129.574V395.723H65.9043V422.532H64.7872V395.723H0V394.606H64.7872V362.212H0V361.095H64.7872V328.702H0V327.585H64.7872L64.7872 295.191H0V294.074H64.7872V261.681H0V260.563H64.7872V228.17H0V227.053H64.7872V194.659H0V193.542H64.7873V161.149H0V160.032H64.7873V127.638H0V126.521H64.7873V94.1273H0V93.0103H64.7873V60.6166H0V59.4996H64.7873V27.106H0V25.989H64.7873V-6.40463H0V-7.52165H64.7873V-39.9153H0V-41.0323H64.7873V-73.4259H0V-74.5429H64.7873V-106.937L0 -106.937V-108.054L64.7873 -108.054V-140.447L0 -140.447V-141.564L64.7873 -141.564V-173.958L0 -173.958V-175.075L64.7873 -175.075ZM387.605 394.606L388.723 394.606L388.723 362.212H387.605H325.053L325.053 394.606L387.605 394.606ZM387.605 361.095H388.723V328.702L387.605 328.702L325.053 328.702V361.095H387.605ZM387.605 327.585L388.723 327.585V295.191L387.605 295.191L325.053 295.191V327.585L387.605 327.585ZM387.605 294.074L388.723 294.074V261.681L387.605 261.681L325.053 261.681V294.074L387.605 294.074ZM387.605 260.563L388.723 260.564V228.17L387.605 228.17L325.053 228.17V260.564L387.605 260.563ZM387.605 227.053L388.723 227.053V194.659L387.605 194.659L325.053 194.659V227.053L387.605 227.053ZM387.605 193.542L388.723 193.542V161.149L387.605 161.149L325.053 161.149V193.542L387.605 193.542ZM387.605 160.032L388.723 160.032V127.638L387.605 127.638L325.053 127.638V160.032L387.605 160.032ZM387.605 126.521L388.723 126.521V94.1273H325.053V126.521L387.605 126.521ZM389.84 126.521L452.393 126.521V94.1273L389.84 94.1273V126.521ZM387.605 93.0103L388.723 93.0103V60.6167L387.605 60.6166L325.053 60.6167V93.0103L387.605 93.0103ZM387.605 59.4996L388.723 59.4997V27.1061L325.053 27.106V59.4997L387.605 59.4996ZM389.84 59.4997L452.393 59.4996V27.106L389.84 27.1061V59.4997ZM387.605 25.989L388.723 25.989V-6.40459L325.053 -6.4046V25.989L387.605 25.989ZM389.84 25.989L452.393 25.989V-6.40463L389.84 -6.40459V25.989ZM387.605 -7.52165L388.723 -7.52161V-39.9152L325.053 -39.9152V-7.52162L387.605 -7.52165ZM389.84 -7.52161L452.393 -7.52165V-39.9153L389.84 -39.9152V-7.52161ZM387.605 -41.0323L388.723 -41.0322V-73.4259H325.053V-41.0323L387.605 -41.0323ZM389.84 -41.0322L452.393 -41.0323V-73.4259L389.84 -73.4259V-41.0322ZM387.605 -74.5429L388.723 -74.5429V-106.937H325.053V-74.5429L387.605 -74.5429ZM389.84 -74.5429L452.393 -74.5429V-106.937L389.84 -106.937V-74.5429ZM387.605 -108.054L388.723 -108.054V-140.447L325.053 -140.447V-108.054L387.605 -108.054ZM389.84 -108.054L452.393 -108.054V-140.447L389.84 -140.447V-108.054ZM387.605 -141.564L388.723 -141.564V-173.958L325.053 -173.958V-141.564L387.605 -141.564ZM389.84 -141.564L452.393 -141.564V-173.958L389.84 -173.958V-141.564ZM452.393 60.6166L389.84 60.6167V93.0103L452.393 93.0103V60.6166ZM452.393 127.638L389.84 127.638V160.032L452.393 160.032V127.638ZM452.393 161.149L389.84 161.149V193.542L452.393 193.542V161.149ZM452.393 194.659L389.84 194.659V227.053L452.393 227.053V194.659ZM452.393 228.17L389.84 228.17V260.564L452.393 260.563V228.17ZM452.393 261.681L389.84 261.681V294.074L452.393 294.074V261.681ZM452.393 295.191L389.84 295.191V327.585L452.393 327.585V295.191ZM452.393 328.702L389.84 328.702V361.095H452.393V328.702ZM452.393 362.212H389.84L389.84 394.606L452.393 394.606V362.212ZM323.936 362.212L323.936 394.606H260.266L260.266 362.212H323.936ZM259.149 362.212V394.606L195.479 394.606L195.479 362.212H259.149ZM194.362 362.212L194.362 394.606H130.691V362.212H194.362ZM129.574 362.212V394.606H65.9043V362.212H129.574ZM65.9043 361.095H129.574V328.702H65.9043V361.095ZM130.691 361.095H194.362V328.702H130.691V361.095ZM195.479 361.095H259.149V328.702L195.479 328.702V361.095ZM260.266 361.095H323.936V328.702H260.266V361.095ZM323.936 295.191V327.585H260.266V295.191H323.936ZM259.149 295.191L259.149 327.585L195.479 327.585L195.479 295.191L259.149 295.191ZM194.362 295.191L194.362 327.585H130.691L130.692 295.191H194.362ZM129.574 295.191L129.574 327.585H65.9043L65.9043 295.191H129.574ZM65.9043 294.074H129.574V261.681H65.9043V294.074ZM130.692 294.074H194.362V261.681H130.692V294.074ZM195.479 294.074L259.149 294.074V261.681L195.479 261.681V294.074ZM260.266 294.074H323.936V261.681H260.266V294.074ZM323.936 228.17V260.564H260.266V228.17H323.936ZM259.149 228.17V260.564L195.479 260.563V228.17L259.149 228.17ZM194.362 228.17V260.563H130.692V228.17H194.362ZM129.574 228.17V260.563H65.9043V228.17H129.574ZM65.9043 227.053H129.574V194.659H65.9043V227.053ZM130.692 227.053H194.362V194.659H130.692V227.053ZM195.479 227.053L259.149 227.053V194.659L195.479 194.659V227.053ZM260.266 227.053H323.936V194.659H260.266V227.053ZM323.936 161.149V193.542H260.266V161.149H323.936ZM259.149 161.149V193.542L195.479 193.542V161.149L259.149 161.149ZM194.362 161.149V193.542H130.692V161.149H194.362ZM129.574 161.149V193.542H65.9043V161.149H129.574ZM65.9043 160.032H129.574V127.638H65.9043V160.032ZM130.692 160.032H194.362V127.638H130.692V160.032ZM195.479 160.032L259.149 160.032V127.638L195.479 127.638V160.032ZM260.266 160.032H323.936V127.638H260.266V160.032ZM323.936 94.1273V126.521H260.266V94.1273H323.936ZM259.149 94.1273V126.521L195.479 126.521V94.1273L259.149 94.1273ZM194.362 94.1273V126.521H130.692V94.1273H194.362ZM129.574 94.1273V126.521H65.9043V94.1273H129.574ZM65.9043 93.0103H129.574V60.6167L65.9043 60.6166V93.0103ZM130.692 93.0103H194.362V60.6167H130.692V93.0103ZM195.479 93.0103L259.149 93.0103V60.6167H195.479V93.0103ZM260.266 93.0103H323.936V60.6167H260.266V93.0103ZM323.936 27.106V59.4997H260.266V27.106H323.936ZM259.149 27.106V59.4997L195.479 59.4996V27.106L259.149 27.106ZM194.362 27.106V59.4996H130.692V27.106H194.362ZM129.574 27.106V59.4996H65.9043V27.106L129.574 27.106ZM65.9043 25.989L129.574 25.989V-6.40462L65.9043 -6.40463V25.989ZM130.692 25.989H194.362V-6.40462H130.692V25.989ZM195.479 25.989L259.149 25.989V-6.4046L195.479 -6.40462V25.989ZM260.266 25.989H323.936V-6.4046H260.266V25.989ZM323.936 -39.9152V-7.52162H260.266V-39.9152H323.936ZM259.149 -39.9152V-7.52162L195.479 -7.52164V-39.9153L259.149 -39.9152ZM194.362 -39.9153V-7.52164H130.692V-39.9153H194.362ZM129.574 -39.9153V-7.52164L65.9043 -7.52165V-39.9153L129.574 -39.9153ZM65.9043 -41.0323L129.574 -41.0323V-73.4259H65.9043V-41.0323ZM130.692 -41.0323H194.362V-73.4259L130.692 -73.4259V-41.0323ZM195.479 -41.0323L259.149 -41.0323V-73.4259L195.479 -73.4259V-41.0323ZM260.266 -41.0323H323.936V-73.4259H260.266V-41.0323ZM323.936 -106.937V-74.5429L260.266 -74.5429V-106.937L323.936 -106.937ZM259.149 -106.937V-74.5429H195.479V-106.937L259.149 -106.937ZM194.362 -106.937V-74.5429L130.692 -74.5429V-106.937L194.362 -106.937ZM129.574 -106.937V-74.5429H65.9043V-106.937H129.574ZM65.9043 -108.054H129.574V-140.447L65.9043 -140.447V-108.054ZM130.692 -108.054L194.362 -108.054V-140.447L130.692 -140.447V-108.054ZM195.479 -108.054L259.149 -108.054V-140.447L195.479 -140.447V-108.054ZM260.266 -108.054L323.936 -108.054V-140.447L260.266 -140.447V-108.054ZM323.936 -173.958V-141.564L260.266 -141.564V-173.958L323.936 -173.958ZM259.149 -173.958V-141.564L195.479 -141.564V-173.958L259.149 -173.958ZM194.362 -173.958V-141.564L130.692 -141.564V-173.958L194.362 -173.958ZM129.574 -173.958V-141.564L65.9043 -141.564V-173.958L129.574 -173.958ZM776.329 362.212L776.329 394.606H712.659V362.212H776.329ZM711.542 362.212L711.542 394.606H647.871V362.212H711.542ZM646.754 362.212V394.606L583.084 394.606V362.212H646.754ZM581.967 362.212V394.606H518.297V362.212H581.967ZM517.18 362.212V394.606H453.51V362.212H517.18ZM453.51 361.095H517.18V328.702H453.51V361.095ZM518.297 361.095H581.967V328.702H518.297V361.095ZM583.084 361.095H646.754V328.702L583.084 328.702V361.095ZM647.871 361.095H711.542V328.702H647.871V361.095ZM712.659 361.095H776.329V328.702H712.659V361.095ZM776.329 295.191V327.585H712.659V295.191H776.329ZM711.542 295.191V327.585H647.871V295.191H711.542ZM646.754 295.191L646.754 327.585L583.084 327.585V295.191L646.754 295.191ZM581.967 295.191L581.967 327.585H518.297V295.191H581.967ZM517.18 295.191V327.585H453.51V295.191H517.18ZM453.51 294.074H517.18V261.681H453.51V294.074ZM518.297 294.074H581.967V261.681H518.297V294.074ZM583.084 294.074L646.754 294.074V261.681L583.084 261.681V294.074ZM647.871 294.074H711.542V261.681H647.871V294.074ZM712.659 294.074H776.329V261.681H712.659V294.074ZM776.329 228.17V260.564H712.659V228.17H776.329ZM711.542 228.17V260.564H647.871V228.17H711.542ZM646.754 228.17V260.564L583.084 260.563V228.17L646.754 228.17ZM581.967 228.17V260.563H518.297V228.17H581.967ZM517.18 228.17V260.563H453.51V228.17H517.18ZM453.51 227.053H517.18V194.659H453.51V227.053ZM518.297 227.053H581.967V194.659H518.297V227.053ZM583.084 227.053L646.754 227.053V194.659L583.084 194.659V227.053ZM647.871 227.053H711.542V194.659H647.871V227.053ZM712.659 227.053H776.329V194.659H712.659V227.053ZM776.329 161.149V193.542H712.659V161.149H776.329ZM711.542 161.149V193.542H647.871V161.149H711.542ZM646.754 161.149V193.542L583.084 193.542V161.149L646.754 161.149ZM581.967 161.149V193.542H518.297V161.149H581.967ZM517.18 161.149V193.542H453.51V161.149H517.18ZM453.51 160.032H517.18V127.638H453.51V160.032ZM518.297 160.032H581.967V127.638H518.297V160.032ZM583.084 160.032L646.754 160.032V127.638L583.084 127.638V160.032ZM647.871 160.032H711.542V127.638H647.871V160.032ZM712.659 160.032H776.329V127.638H712.659V160.032ZM776.329 94.1273V126.521H712.659V94.1273H776.329ZM711.542 94.1273V126.521H647.871V94.1273H711.542ZM646.754 94.1273V126.521L583.084 126.521V94.1273L646.754 94.1273ZM581.967 94.1273V126.521H518.297V94.1273H581.967ZM517.18 94.1273V126.521H453.51V94.1273H517.18ZM453.51 93.0103H517.18V60.6167L453.51 60.6166V93.0103ZM518.297 93.0103H581.967V60.6167H518.297V93.0103ZM583.084 93.0103L646.754 93.0103V60.6167H583.084V93.0103ZM647.871 93.0103H711.542V60.6167H647.871V93.0103ZM712.659 93.0103H776.329V60.6167L712.659 60.6167V93.0103ZM776.329 27.1061V59.4997H712.659V27.106L776.329 27.1061ZM711.542 27.106V59.4997H647.871V27.106H711.542ZM646.754 27.106V59.4997L583.084 59.4996V27.106L646.754 27.106ZM581.967 27.106V59.4996H518.297V27.106H581.967ZM517.18 27.106V59.4996H453.51V27.106L517.18 27.106ZM453.51 25.989L517.18 25.989V-6.40462L453.51 -6.40463V25.989ZM518.297 25.989H581.967V-6.40462H518.297V25.989ZM583.084 25.989L646.754 25.989V-6.4046L583.084 -6.40462V25.989ZM647.871 25.989H711.542V-6.4046H647.871V25.989ZM712.659 25.989L776.329 25.989V-6.40459L712.659 -6.4046V25.989ZM776.329 -39.9152V-7.52161L712.659 -7.52162V-39.9152L776.329 -39.9152ZM711.542 -39.9152V-7.52162H647.871V-39.9152H711.542ZM646.754 -39.9152V-7.52162L583.084 -7.52164V-39.9153L646.754 -39.9152ZM581.967 -39.9153V-7.52164H518.297V-39.9153H581.967ZM517.18 -39.9153V-7.52164L453.51 -7.52165V-39.9153L517.18 -39.9153ZM453.51 -41.0323L517.18 -41.0323V-73.4259H453.51V-41.0323ZM518.297 -41.0323H581.967V-73.4259L518.297 -73.4259V-41.0323ZM583.084 -41.0323L646.754 -41.0323V-73.4259L583.084 -73.4259V-41.0323ZM647.871 -41.0323H711.542V-73.4259H647.871V-41.0323ZM712.659 -41.0323L776.329 -41.0322V-73.4259H712.659V-41.0323ZM776.329 -106.937V-74.5429H712.659V-106.937H776.329ZM711.542 -106.937V-74.5429L647.871 -74.5429V-106.937L711.542 -106.937ZM646.754 -106.937V-74.5429H583.084V-106.937L646.754 -106.937ZM581.967 -106.937V-74.5429L518.297 -74.5429V-106.937L581.967 -106.937ZM517.18 -106.937V-74.5429H453.51V-106.937H517.18ZM453.51 -108.054H517.18V-140.447L453.51 -140.447V-108.054ZM518.297 -108.054L581.967 -108.054V-140.447L518.297 -140.447V-108.054ZM583.084 -108.054L646.754 -108.054V-140.447L583.084 -140.447V-108.054ZM647.871 -108.054L711.542 -108.054V-140.447L647.871 -140.447V-108.054ZM712.659 -108.054H776.329V-140.447L712.659 -140.447V-108.054ZM776.329 -173.958V-141.564L712.659 -141.564V-173.958L776.329 -173.958ZM711.542 -173.958V-141.564L647.871 -141.564V-173.958L711.542 -173.958ZM646.754 -173.958V-141.564L583.084 -141.564V-173.958L646.754 -173.958ZM581.967 -173.958V-141.564L518.297 -141.564V-173.958L581.967 -173.958ZM517.18 -173.958V-141.564L453.51 -141.564V-173.958L517.18 -173.958Z" fill="url(#paint0_radial_180_8825)"/>
<defs>
<radialGradient id="paint0_radial_180_8825" cx="0" cy="0" r="1" gradientUnits="userSpaceOnUse" gradientTransform="translate(54.5 -45.0003) rotate(17.2808) scale(910.604 1222.81)">
<stop stop-color="white" stop-opacity="0"/>
<stop offset="1" stop-color="white" stop-opacity="0.42"/>
</radialGradient>
</defs>
</svg>
