<svg width="345" height="280" viewBox="0 0 345 280" fill="none" xmlns="http://www.w3.org/2000/svg">
<g clip-path="url(#clip0_218_9611)">
<path fill-rule="evenodd" clip-rule="evenodd" d="M-430.213 -175.075V-203H-429.096V-175.075L-365.426 -175.075V-203H-364.308V-175.075L-300.638 -175.075V-203H-299.521V-175.075L-235.851 -175.075V-203H-234.734V-175.075L-171.064 -175.075V-203H-169.947V-175.075L-107.395 -175.075L-106.277 -175.075V-203H-105.16V-175.075L-42.6073 -175.075V-203H-41.4902V-175.075L22.18 -175.075V-203H23.297V-175.075L86.9672 -175.075V-203H88.0842V-175.075L151.754 -175.075V-203H152.871V-175.075L216.542 -175.075V-203H217.659V-175.075L281.329 -175.075V-203H282.446V-175.075L344.999 -175.075V-173.958L282.446 -173.958V-141.564L344.999 -141.564V-140.447L282.446 -140.447V-108.054L344.999 -108.054V-106.937L282.446 -106.937V-74.5429L344.999 -74.5429V-73.4259L282.446 -73.4259V-41.0323H344.999V-39.9153H282.446V-7.52164H344.999V-6.40462H282.446V25.989H344.999V27.106H282.446V59.4996H344.999V60.6167H282.446V93.0103H344.999V94.1273H282.446V126.521H344.999V127.638H282.446V160.032H344.999V161.149H282.446V193.542H344.999V194.659H282.446V227.053H344.999V228.17H282.446V260.563H344.999V261.681H282.446V294.074H344.999V295.191H282.446V327.585H344.999V328.702H282.446V361.095H344.999V362.212H282.446V394.606H344.999V395.723H282.446V422.532H281.329V395.723H217.659V422.532H216.542V395.723H152.871V422.532H151.754V395.723L88.0842 395.723V422.532H86.9672V395.723H23.2969V422.532H22.1799V395.723H-41.4903V422.532H-42.6073V395.723L-105.16 395.723V422.532H-106.277V395.723L-107.395 395.723L-169.947 395.723V422.532H-171.064V395.723H-234.734V422.532H-235.851V395.723L-299.521 395.723V422.532H-300.638V395.723H-364.309V422.532H-365.426V395.723H-429.096V422.532H-430.213V395.723H-495V394.606H-430.213V362.212H-495V361.095H-430.213V328.702H-495V327.585H-430.213L-430.213 295.191H-495V294.074H-430.213V261.68H-495V260.563H-430.213V228.17H-495V227.053H-430.213V194.659H-495V193.542H-430.213V161.149H-495V160.032H-430.213V127.638H-495V126.521H-430.213V94.1273H-495V93.0103H-430.213V60.6166H-495V59.4996H-430.213V27.106H-495V25.989H-430.213V-6.40466H-495V-7.52168H-430.213V-39.9153H-495V-41.0323H-430.213V-73.4259H-495V-74.543H-430.213V-106.937L-495 -106.937V-108.054L-430.213 -108.054V-140.447L-495 -140.447V-141.564L-430.213 -141.564V-173.958L-495 -173.958V-175.075L-430.213 -175.075ZM-107.395 394.606L-106.277 394.606L-106.277 362.212H-107.395H-169.947L-169.947 394.606L-107.395 394.606ZM-107.395 361.095H-106.277V328.702L-107.395 328.702L-169.947 328.702V361.095H-107.395ZM-107.395 327.585L-106.277 327.585V295.191L-107.395 295.191L-169.947 295.191V327.585L-107.395 327.585ZM-107.395 294.074L-106.277 294.074V261.681L-107.395 261.68L-169.947 261.681V294.074L-107.395 294.074ZM-107.395 260.563L-106.277 260.563V228.17L-107.395 228.17L-169.947 228.17V260.563L-107.395 260.563ZM-107.395 227.053L-106.277 227.053V194.659L-107.395 194.659L-169.947 194.659V227.053L-107.395 227.053ZM-107.395 193.542L-106.277 193.542V161.149L-107.395 161.149L-169.947 161.149V193.542L-107.395 193.542ZM-107.395 160.032L-106.277 160.032V127.638L-107.395 127.638L-169.947 127.638V160.032L-107.395 160.032ZM-107.395 126.521L-106.277 126.521V94.1273H-169.947V126.521L-107.395 126.521ZM-105.16 126.521L-42.6073 126.521V94.1273L-105.16 94.1273V126.521ZM-107.395 93.0103L-106.277 93.0103V60.6167L-107.395 60.6166L-169.947 60.6166V93.0103L-107.395 93.0103ZM-107.395 59.4996L-106.277 59.4996V27.106L-169.947 27.106V59.4996L-107.395 59.4996ZM-105.16 59.4996L-42.6073 59.4996V27.106L-105.16 27.106V59.4996ZM-107.395 25.989L-106.277 25.989V-6.40462L-169.947 -6.40463V25.989L-107.395 25.989ZM-105.16 25.989L-42.6073 25.989V-6.40466L-105.16 -6.40462V25.989ZM-107.395 -7.52168L-106.277 -7.52164V-39.9153L-169.947 -39.9153V-7.52165L-107.395 -7.52168ZM-105.16 -7.52164L-42.6073 -7.52168V-39.9153L-105.16 -39.9153V-7.52164ZM-107.395 -41.0323L-106.277 -41.0323V-73.4259H-169.947V-41.0323L-107.395 -41.0323ZM-105.16 -41.0323L-42.6073 -41.0323V-73.4259L-105.16 -73.4259V-41.0323ZM-107.395 -74.543L-106.277 -74.5429V-106.937H-169.947V-74.5429L-107.395 -74.543ZM-105.16 -74.5429L-42.6073 -74.543V-106.937L-105.16 -106.937V-74.5429ZM-107.395 -108.054L-106.277 -108.054V-140.447L-169.947 -140.447V-108.054L-107.395 -108.054ZM-105.16 -108.054L-42.6073 -108.054V-140.447L-105.16 -140.447V-108.054ZM-107.395 -141.564L-106.277 -141.564V-173.958L-169.947 -173.958V-141.564L-107.395 -141.564ZM-105.16 -141.564L-42.6073 -141.564V-173.958L-105.16 -173.958V-141.564ZM-42.6073 60.6166L-105.16 60.6167V93.0103L-42.6073 93.0103V60.6166ZM-42.6073 127.638L-105.16 127.638V160.032L-42.6073 160.032V127.638ZM-42.6073 161.149L-105.16 161.149V193.542L-42.6073 193.542V161.149ZM-42.6073 194.659L-105.16 194.659V227.053L-42.6073 227.053V194.659ZM-42.6073 228.17L-105.16 228.17V260.563L-42.6073 260.563V228.17ZM-42.6073 261.68L-105.16 261.681V294.074L-42.6073 294.074V261.68ZM-42.6073 295.191L-105.16 295.191V327.585L-42.6073 327.585V295.191ZM-42.6073 328.702L-105.16 328.702V361.095H-42.6073V328.702ZM-42.6073 362.212H-105.16L-105.16 394.606L-42.6073 394.606V362.212ZM-171.064 362.212L-171.064 394.606H-234.734L-234.734 362.212H-171.064ZM-235.851 362.212V394.606L-299.521 394.606L-299.521 362.212H-235.851ZM-300.638 362.212L-300.638 394.606H-364.309V362.212H-300.638ZM-365.426 362.212V394.606H-429.096V362.212H-365.426ZM-429.096 361.095H-365.426V328.702H-429.096V361.095ZM-364.309 361.095H-300.638V328.702H-364.309V361.095ZM-299.521 361.095H-235.851V328.702L-299.521 328.702V361.095ZM-234.734 361.095H-171.064V328.702H-234.734V361.095ZM-171.064 295.191V327.585H-234.734V295.191H-171.064ZM-235.851 295.191L-235.851 327.585L-299.521 327.585L-299.521 295.191L-235.851 295.191ZM-300.638 295.191L-300.638 327.585H-364.309L-364.308 295.191H-300.638ZM-365.426 295.191L-365.426 327.585H-429.096L-429.096 295.191H-365.426ZM-429.096 294.074H-365.426V261.68H-429.096V294.074ZM-364.308 294.074H-300.638V261.68H-364.308V294.074ZM-299.521 294.074L-235.851 294.074V261.681L-299.521 261.68V294.074ZM-234.734 294.074H-171.064V261.681H-234.734V294.074ZM-171.064 228.17V260.563H-234.734V228.17H-171.064ZM-235.851 228.17V260.563L-299.521 260.563V228.17L-235.851 228.17ZM-300.638 228.17V260.563H-364.308V228.17H-300.638ZM-365.426 228.17V260.563H-429.096V228.17H-365.426ZM-429.096 227.053H-365.426V194.659H-429.096V227.053ZM-364.308 227.053H-300.638V194.659H-364.308V227.053ZM-299.521 227.053L-235.851 227.053V194.659L-299.521 194.659V227.053ZM-234.734 227.053H-171.064V194.659H-234.734V227.053ZM-171.064 161.149V193.542H-234.734V161.149H-171.064ZM-235.851 161.149V193.542L-299.521 193.542V161.149L-235.851 161.149ZM-300.638 161.149V193.542H-364.308V161.149H-300.638ZM-365.426 161.149V193.542H-429.096V161.149H-365.426ZM-429.096 160.032H-365.426V127.638H-429.096V160.032ZM-364.308 160.032H-300.638V127.638H-364.308V160.032ZM-299.521 160.032L-235.851 160.032V127.638L-299.521 127.638V160.032ZM-234.734 160.032H-171.064V127.638H-234.734V160.032ZM-171.064 94.1273V126.521H-234.734V94.1273H-171.064ZM-235.851 94.1273V126.521L-299.521 126.521V94.1273L-235.851 94.1273ZM-300.638 94.1273V126.521H-364.308V94.1273H-300.638ZM-365.426 94.1273V126.521H-429.096V94.1273H-365.426ZM-429.096 93.0103H-365.426V60.6166L-429.096 60.6166V93.0103ZM-364.308 93.0103H-300.638V60.6166H-364.308V93.0103ZM-299.521 93.0103L-235.851 93.0103V60.6166H-299.521V93.0103ZM-234.734 93.0103H-171.064V60.6166H-234.734V93.0103ZM-171.064 27.106V59.4996H-234.734V27.106H-171.064ZM-235.851 27.106V59.4996L-299.521 59.4996V27.106L-235.851 27.106ZM-300.638 27.106V59.4996H-364.308V27.106H-300.638ZM-365.426 27.106V59.4996H-429.096V27.106L-365.426 27.106ZM-429.096 25.989L-365.426 25.989V-6.40465L-429.096 -6.40466V25.989ZM-364.308 25.989H-300.638V-6.40465H-364.308V25.989ZM-299.521 25.989L-235.851 25.989V-6.40463L-299.521 -6.40465V25.989ZM-234.734 25.989H-171.064V-6.40463H-234.734V25.989ZM-171.064 -39.9153V-7.52165H-234.734V-39.9153H-171.064ZM-235.851 -39.9153V-7.52165L-299.521 -7.52167V-39.9153L-235.851 -39.9153ZM-300.638 -39.9153V-7.52167H-364.308V-39.9153H-300.638ZM-365.426 -39.9153V-7.52167L-429.096 -7.52168V-39.9153L-365.426 -39.9153ZM-429.096 -41.0323L-365.426 -41.0323V-73.4259H-429.096V-41.0323ZM-364.308 -41.0323H-300.638V-73.4259L-364.308 -73.4259V-41.0323ZM-299.521 -41.0323L-235.851 -41.0323V-73.4259L-299.521 -73.4259V-41.0323ZM-234.734 -41.0323H-171.064V-73.4259H-234.734V-41.0323ZM-171.064 -106.937V-74.5429L-234.734 -74.5429V-106.937L-171.064 -106.937ZM-235.851 -106.937V-74.5429H-299.521V-106.937L-235.851 -106.937ZM-300.638 -106.937V-74.5429L-364.308 -74.543V-106.937L-300.638 -106.937ZM-365.426 -106.937V-74.543H-429.096V-106.937H-365.426ZM-429.096 -108.054H-365.426V-140.447L-429.096 -140.447V-108.054ZM-364.308 -108.054L-300.638 -108.054V-140.447L-364.308 -140.447V-108.054ZM-299.521 -108.054L-235.851 -108.054V-140.447L-299.521 -140.447V-108.054ZM-234.734 -108.054L-171.064 -108.054V-140.447L-234.734 -140.447V-108.054ZM-171.064 -173.958V-141.564L-234.734 -141.564V-173.958L-171.064 -173.958ZM-235.851 -173.958V-141.564L-299.521 -141.564V-173.958L-235.851 -173.958ZM-300.638 -173.958V-141.564L-364.308 -141.564V-173.958L-300.638 -173.958ZM-365.426 -173.958V-141.564L-429.096 -141.564V-173.958L-365.426 -173.958ZM281.329 362.212V394.606H217.659V362.212H281.329ZM216.542 362.212L216.542 394.606H152.871V362.212H216.542ZM151.754 362.212L151.754 394.606L88.0842 394.606V362.212H151.754ZM86.9672 362.212L86.9672 394.606H23.2969L23.297 362.212H86.9672ZM22.1799 362.212V394.606H-41.4903V362.212H22.1799ZM-41.4903 361.095H22.1799V328.702H-41.4903V361.095ZM23.297 361.095H86.9672V328.702H23.297V361.095ZM88.0842 361.095H151.754V328.702L88.0842 328.702V361.095ZM152.871 361.095H216.542V328.702H152.871V361.095ZM217.659 361.095H281.329V328.702H217.659V361.095ZM281.329 295.191V327.585H217.659V295.191H281.329ZM216.542 295.191V327.585H152.871V295.191H216.542ZM151.754 295.191V327.585L88.0842 327.585V295.191L151.754 295.191ZM86.9672 295.191V327.585H23.297V295.191H86.9672ZM22.1799 295.191V327.585H-41.4903V295.191H22.1799ZM-41.4903 294.074H22.1799V261.68H-41.4903V294.074ZM23.297 294.074H86.9672V261.68H23.297V294.074ZM88.0842 294.074L151.754 294.074V261.681L88.0842 261.68V294.074ZM152.871 294.074H216.542V261.681H152.871V294.074ZM217.659 294.074H281.329V261.681H217.659V294.074ZM281.329 228.17V260.563H217.659V228.17H281.329ZM216.542 228.17V260.563H152.871V228.17H216.542ZM151.754 228.17V260.563L88.0842 260.563V228.17L151.754 228.17ZM86.9672 228.17V260.563H23.297V228.17H86.9672ZM22.18 228.17L22.1799 260.563H-41.4903V228.17H22.18ZM-41.4903 227.053H22.18V194.659H-41.4903V227.053ZM23.297 227.053H86.9672V194.659H23.297V227.053ZM88.0842 227.053L151.754 227.053V194.659L88.0842 194.659V227.053ZM152.871 227.053H216.542V194.659H152.871V227.053ZM217.659 227.053H281.329V194.659H217.659V227.053ZM281.329 161.149V193.542H217.659V161.149H281.329ZM216.542 161.149V193.542H152.871V161.149H216.542ZM151.754 161.149V193.542L88.0842 193.542V161.149L151.754 161.149ZM86.9672 161.149V193.542H23.297V161.149H86.9672ZM22.18 161.149V193.542H-41.4903V161.149H22.18ZM-41.4903 160.032H22.18V127.638H-41.4903V160.032ZM23.297 160.032H86.9672V127.638H23.297V160.032ZM88.0842 160.032L151.754 160.032V127.638L88.0842 127.638V160.032ZM152.871 160.032H216.542V127.638H152.871V160.032ZM217.659 160.032H281.329V127.638H217.659V160.032ZM281.329 94.1273V126.521H217.659V94.1273H281.329ZM216.542 94.1273V126.521H152.871V94.1273H216.542ZM151.754 94.1273V126.521L88.0842 126.521V94.1273L151.754 94.1273ZM86.9672 94.1273V126.521H23.297V94.1273H86.9672ZM22.18 94.1273V126.521H-41.4903V94.1273H22.18ZM-41.4903 93.0103H22.18V60.6166L-41.4903 60.6166V93.0103ZM23.297 93.0103H86.9672V60.6166H23.297V93.0103ZM88.0842 93.0103L151.754 93.0103V60.6166H88.0842V93.0103ZM152.871 93.0103H216.542V60.6166H152.871V93.0103ZM217.659 93.0103H281.329V60.6167L217.659 60.6166V93.0103ZM281.329 27.106V59.4996H217.659V27.106L281.329 27.106ZM216.542 27.106V59.4996H152.871V27.106H216.542ZM151.754 27.106V59.4996L88.0842 59.4996V27.106L151.754 27.106ZM86.9672 27.106V59.4996H23.297V27.106H86.9672ZM22.18 27.106V59.4996H-41.4902V27.106L22.18 27.106ZM-41.4902 25.989L22.18 25.989V-6.40465L-41.4902 -6.40466V25.989ZM23.297 25.989H86.9672V-6.40465H23.297V25.989ZM88.0842 25.989L151.754 25.989V-6.40463L88.0842 -6.40465V25.989ZM152.871 25.989H216.542V-6.40463H152.871V25.989ZM217.659 25.989L281.329 25.989V-6.40462L217.659 -6.40463V25.989ZM281.329 -39.9153V-7.52164L217.659 -7.52165V-39.9153L281.329 -39.9153ZM216.542 -39.9153V-7.52165H152.871V-39.9153H216.542ZM151.754 -39.9153V-7.52165L88.0842 -7.52167V-39.9153L151.754 -39.9153ZM86.9672 -39.9153V-7.52167H23.297V-39.9153H86.9672ZM22.18 -39.9153V-7.52167L-41.4902 -7.52168V-39.9153L22.18 -39.9153ZM-41.4902 -41.0323L22.18 -41.0323V-73.4259H-41.4902V-41.0323ZM23.297 -41.0323H86.9672V-73.4259L23.297 -73.4259V-41.0323ZM88.0842 -41.0323L151.754 -41.0323V-73.4259L88.0842 -73.4259V-41.0323ZM152.871 -41.0323H216.542V-73.4259H152.871V-41.0323ZM217.659 -41.0323L281.329 -41.0323V-73.4259H217.659V-41.0323ZM281.329 -106.937V-74.5429H217.659V-106.937H281.329ZM216.542 -106.937V-74.5429L152.871 -74.5429V-106.937L216.542 -106.937ZM151.754 -106.937V-74.5429H88.0842V-106.937L151.754 -106.937ZM86.9672 -106.937V-74.5429L23.297 -74.543V-106.937L86.9672 -106.937ZM22.18 -106.937V-74.543H-41.4902V-106.937H22.18ZM-41.4902 -108.054H22.18V-140.447L-41.4902 -140.447V-108.054ZM23.297 -108.054L86.9672 -108.054V-140.447L23.297 -140.447V-108.054ZM88.0842 -108.054L151.754 -108.054V-140.447L88.0842 -140.447V-108.054ZM152.871 -108.054L216.542 -108.054V-140.447L152.871 -140.447V-108.054ZM217.659 -108.054H281.329V-140.447L217.659 -140.447V-108.054ZM281.329 -173.958V-141.564L217.659 -141.564V-173.958L281.329 -173.958ZM216.542 -173.958V-141.564L152.871 -141.564V-173.958L216.542 -173.958ZM151.754 -173.958V-141.564L88.0842 -141.564V-173.958L151.754 -173.958ZM86.9672 -173.958V-141.564L23.297 -141.564V-173.958L86.9672 -173.958ZM22.18 -173.958V-141.564L-41.4902 -141.564V-173.958L22.18 -173.958Z" fill="url(#paint0_radial_218_9611)"/>
</g>
<defs>
<radialGradient id="paint0_radial_218_9611" cx="0" cy="0" r="1" gradientUnits="userSpaceOnUse" gradientTransform="translate(-440.5 -45.0004) rotate(17.2808) scale(910.604 1222.81)">
<stop stop-color="white" stop-opacity="0"/>
<stop offset="1" stop-color="white" stop-opacity="0.42"/>
</radialGradient>
<clipPath id="clip0_218_9611">
<rect width="345" height="280" rx="20" fill="white"/>
</clipPath>
</defs>
</svg>
