<svg width="95" height="95" fill="none" xmlns="http://www.w3.org/2000/svg"><g clip-path="url(#a)"><rect width="95" height="95" rx="10" fill="#002B82"/><path fill-rule="evenodd" clip-rule="evenodd" d="M13.605-38v7.59H0v.303h13.605v8.803H0V-21h13.605v8.804H0v.303h13.605v8.804H0v.303h13.605v8.804H0v.303h13.605v8.804H0v.304h13.605v8.803H0v.304h13.605v8.803H0v.304h13.605v8.803H0v.304h13.605v8.804H0v.303h13.605v8.804H0v.303h13.605v8.804H0v.303h13.605v8.804H0v.304h13.605v8.803H0v.304h13.605v8.803H0v.304h13.605v8.803H0v.304h13.605v8.804H0v.303h13.605v8.804H0v.303h13.605V132h.234v-7.286h13.37V132h.235v-7.286h13.37V132h.235v-7.286h13.37V132h.235v-7.286h13.37V132h.235v-7.286h13.37V132h.235v-7.286H95v-.303H81.864v-8.804H95v-.303H81.864V106.5H95v-.304H81.864v-8.803H95v-.304H81.864v-8.803H95v-.304H81.864V79.18H95v-.304H81.864v-8.804H95v-.303H81.864v-8.804H95v-.303H81.864v-8.804H95v-.303H81.864V42.75H95v-.304H81.864v-8.803H95v-.304H81.864v-8.803H95v-.304H81.864V15.43H95v-.304H81.864V6.321H95v-.303H81.864v-8.804H95v-.303H81.864v-8.804H95v-.303H81.864V-21H95v-.304H81.864v-8.803H95v-.304H81.864V-38h-.234v7.59H68.26V-38h-.235v7.59h-13.37V-38h-.235v7.59H41.05V-38h-.235v7.59h-13.37V-38h-.235v7.59H13.84V-38h-.235ZM81.63 124.411v-8.804H68.26v8.804h13.37Zm-13.605 0v-8.804h-13.37v8.804h13.37Zm-13.605 0v-8.804H41.05v8.804h13.37Zm-13.605 0v-8.804h-13.37v8.804h13.37Zm-13.605 0v-8.804H13.84v8.804h13.37Zm0-9.107H13.84V106.5h13.37v8.804Zm13.605 0h-13.37V106.5h13.37v8.804Zm13.605 0H41.05V106.5h13.37v8.804Zm13.605 0h-13.37V106.5h13.37v8.804Zm13.605 0H68.26V106.5h13.37v8.804Zm0-9.108v-8.803H68.26v8.803h13.37Zm-13.605 0v-8.803h-13.37v8.803h13.37Zm-13.605 0v-8.803H41.05v8.803h13.37Zm-13.605 0v-8.803h-13.37v8.803h13.37Zm-13.605 0v-8.803H13.84v8.803h13.37Zm0-9.107H13.84v-8.803h13.37v8.803Zm13.605 0h-13.37v-8.803h13.37v8.803Zm13.605 0H41.05v-8.803h13.37v8.803Zm13.605 0h-13.37v-8.803h13.37v8.803Zm13.605 0H68.26v-8.803h13.37v8.803Zm0-9.107V79.18H68.26v8.803h13.37Zm-13.605 0V79.18h-13.37v8.803h13.37Zm-13.605 0V79.18H41.05v8.803h13.37Zm-13.605 0V79.18h-13.37v8.803h13.37Zm-13.605 0V79.18H13.84v8.803h13.37Zm0-9.107H13.84v-8.804h13.37v8.804Zm13.605 0h-13.37v-8.804h13.37v8.804Zm13.605 0H41.05v-8.804h13.37v8.804Zm13.605 0h-13.37v-8.804h13.37v8.804Zm13.605 0H68.26v-8.804h13.37v8.804Zm0-9.107v-8.804H68.26v8.804h13.37Zm-13.605 0v-8.804h-13.37v8.804h13.37Zm-13.605 0v-8.804H41.05v8.804h13.37Zm-13.605 0v-8.804h-13.37v8.804h13.37Zm-13.605 0v-8.804H13.84v8.804h13.37Zm0-9.107H13.84v-8.804h13.37v8.804Zm13.605 0h-13.37v-8.804h13.37v8.804Zm13.605 0H41.05v-8.804h13.37v8.804Zm13.605 0h-13.37v-8.804h13.37v8.804Zm13.605 0H68.26v-8.804h13.37v8.804Zm0-9.107V42.75H68.26v8.804h13.37Zm-13.605 0V42.75h-13.37v8.804h13.37Zm-13.605 0V42.75H41.05v8.804h13.37Zm-13.605 0V42.75h-13.37v8.804h13.37Zm-13.605 0V42.75H13.84v8.804h13.37Zm0-9.108H13.84v-8.803h13.37v8.803Zm13.605 0h-13.37v-8.803h13.37v8.803Zm13.605 0H41.05v-8.803h13.37v8.803Zm13.605 0h-13.37v-8.803h13.37v8.803Zm13.605 0H68.26v-8.803h13.37v8.803Zm0-9.107v-8.803H68.26v8.803h13.37Zm-13.605 0v-8.803h-13.37v8.803h13.37Zm-13.605 0v-8.803H41.05v8.803h13.37Zm-13.605 0v-8.803h-13.37v8.803h13.37Zm-13.605 0v-8.803H13.84v8.803h13.37Zm0-9.107H13.84V15.43h13.37v8.803Zm13.605 0h-13.37V15.43h13.37v8.803Zm13.605 0H41.05V15.43h13.37v8.803Zm13.605 0h-13.37V15.43h13.37v8.803Zm13.605 0H68.26V15.43h13.37v8.803Zm0-9.107V6.321H68.26v8.804h13.37Zm-13.605 0V6.321h-13.37v8.804h13.37Zm-13.605 0V6.321H41.05v8.804h13.37Zm-13.605 0V6.321h-13.37v8.804h13.37Zm-13.605 0V6.321H13.84v8.804h13.37Zm0-9.107H13.84v-8.804h13.37v8.804Zm13.605 0h-13.37v-8.804h13.37v8.804Zm13.605 0H41.05v-8.804h13.37v8.804Zm13.605 0h-13.37v-8.804h13.37v8.804Zm13.605 0H68.26v-8.804h13.37v8.804Zm0-9.107v-8.804H68.26v8.804h13.37Zm-13.605 0v-8.804h-13.37v8.804h13.37Zm-13.605 0v-8.804H41.05v8.804h13.37Zm-13.605 0v-8.804h-13.37v8.804h13.37Zm-13.605 0v-8.804H13.84v8.804h13.37Zm0-9.107H13.84V-21h13.37v8.804Zm13.605 0h-13.37V-21h13.37v8.804Zm13.605 0H41.05V-21h13.37v8.804Zm13.605 0h-13.37V-21h13.37v8.804Zm13.605 0H68.26V-21h13.37v8.804Zm0-9.108v-8.803H68.26v8.803h13.37Zm-13.605 0v-8.803h-13.37v8.803h13.37Zm-13.605 0v-8.803H41.05v8.803h13.37Zm-13.605 0v-8.803h-13.37v8.803h13.37Zm-13.605 0v-8.803H13.84v8.803h13.37Z" fill="url(#b)"/><path d="M0 15h27.875v64h26.237V15h28.01v64H95" stroke="#fff" stroke-width="2"/></g><defs><radialGradient id="b" cx="0" cy="0" r="1" gradientUnits="userSpaceOnUse" gradientTransform="rotate(-74.201 141.67 116.288) scale(344.199 201.968)"><stop stop-color="#23E272"/><stop offset="1" stop-color="#D0E5FF" stop-opacity="0"/></radialGradient><clipPath id="a"><rect width="95" height="95" rx="10" fill="#fff"/></clipPath></defs></svg>