<svg xmlns="http://www.w3.org/2000/svg" width="548" height="548" fill="none"><path stroke="url(#a)" d="m285.688 2.768.115.486-.115-.486c-3.557.84-9.186 2.5-14.172 5.357-4.974 2.85-9.408 6.95-10.389 12.713l-.002.007-29.088 147.567c-1.618 8.21 3.574 16.261 11.818 17.829l1.036.196c7.576 1.422 14.927-3.156 17.232-10.494l49.42-157.297c1.566-4.986.507-9.766-2.27-13.114-2.778-3.35-7.25-5.232-12.429-4.476-4.697.685-8.712 1.295-10.091 1.506-.363.056-.705.12-1.065.206ZM20.718 286.475l146.533 29.416c8.249 1.656 16.349-3.571 17.9-11.864l.253-1.367c1.385-7.534-3.15-14.836-10.431-17.166l-156.25-49.993c-4.994-1.598-9.796-.553-13.167 2.222-3.372 2.776-5.279 7.258-4.535 12.456.692 4.832 1.31 8.974 1.52 10.369.054.357.116.692.198 1.046.834 3.597 2.482 9.298 5.323 14.351 2.832 5.037 6.91 9.535 12.648 10.529l.007.001Zm506.438-24.951-147.501-29.438c-8.236-1.644-16.321 3.572-17.878 11.849l-.256 1.373c-1.396 7.548 3.153 14.866 10.451 17.187l157.329 50.048c4.992 1.588 9.788.538 13.151-2.237 3.366-2.777 5.265-7.256 4.517-12.448-.697-4.844-1.322-9.002-1.533-10.404a13.224 13.224 0 0 0-.2-1.051c-.84-3.599-2.498-9.299-5.355-14.351-2.849-5.037-6.951-9.532-12.718-10.526l-.007-.002ZM285.781 527.155l29.088-147.567c1.619-8.21-3.573-16.261-11.817-17.829l-1.036-.196c-7.576-1.422-14.927 3.156-17.233 10.494l-49.419 157.297c-1.567 4.986-.508 9.766 2.269 13.114 2.779 3.35 7.25 5.232 12.429 4.476 4.697-.685 8.712-1.295 10.092-1.506.363-.056.705-.12 1.065-.206 3.557-.841 9.185-2.5 14.172-5.357 4.974-2.85 9.408-6.951 10.389-12.714l.001-.006ZM60.369 411.219l141.904-48.55c7.91-2.706 12.281-11.217 9.524-19.134l-.291-.834c-2.553-7.283-10.206-11.364-17.721-9.682L33.448 368.907c-5.097 1.141-8.702 4.449-10.208 8.525-1.507 4.079-.898 8.888 2.346 12.991 2.895 3.662 5.385 6.772 6.25 7.851.23.287.458.552.713.822 2.495 2.643 6.725 6.659 11.671 9.526 4.933 2.858 10.678 4.629 16.142 2.6l.007-.003Zm426.319-274.438-141.904 48.55c-7.91 2.706-12.281 11.217-9.524 19.134l.291.834c2.553 7.283 10.206 11.364 17.721 9.682l160.337-35.888c5.097-1.141 8.702-4.449 10.208-8.525 1.507-4.079.898-8.888-2.346-12.991a1616.398 1616.398 0 0 0-6.249-7.851 13.507 13.507 0 0 0-.714-.822c-2.495-2.643-6.725-6.659-11.671-9.526-4.933-2.858-10.678-4.629-16.142-2.6l-.007.003Zm-75.941 350.378-48.55-141.904c-2.706-7.91-11.217-12.281-19.134-9.524l-.834.291c-7.283 2.553-11.364 10.206-9.682 17.721l35.888 160.337c1.141 5.097 4.449 8.702 8.525 10.208 4.079 1.507 8.888.898 12.991-2.346 3.662-2.895 6.772-5.385 7.851-6.249.287-.231.552-.459.822-.714 2.643-2.495 6.659-6.725 9.526-11.671 2.858-4.933 4.629-10.678 2.6-16.142l-.003-.007ZM136.309 60.841l48.55 141.904c2.706 7.91 11.217 12.281 19.134 9.524l.834-.291c7.283-2.553 11.364-10.206 9.682-17.721L178.621 33.92c-1.141-5.097-4.449-8.702-8.525-10.208-4.079-1.507-8.888-.898-12.991 2.346a1591.237 1591.237 0 0 0-7.851 6.25c-.287.23-.552.458-.822.713-2.643 2.495-6.659 6.725-9.525 11.671-2.859 4.933-4.63 10.678-2.601 16.142a.44.44 0 0 0 .003.007Zm21.227 438.574 98.618-112.998c5.497-6.299 5.027-15.855-1.319-21.333l-.669-.576c-5.853-5.031-14.521-4.739-20.188.475L113.066 476.232c-3.843 3.537-5.312 8.203-4.578 12.487.734 4.286 3.666 8.146 8.527 10.077 4.339 1.724 8.05 3.173 9.338 3.674.343.134.673.249 1.029.356 3.482 1.041 9.154 2.404 14.87 2.413 5.702.01 11.563-1.33 15.28-5.819a.022.022 0 0 1 .004-.005ZM389.52 48.585l-98.618 112.998c-5.497 6.299-5.027 15.855 1.319 21.333l.372.32.297.256c5.853 5.031 14.521 4.739 20.188-.475L433.99 71.768c3.844-3.537 5.312-8.203 4.578-12.487-.734-4.286-3.666-8.146-8.527-10.077-4.338-1.724-8.05-3.173-9.338-3.674a13.153 13.153 0 0 0-1.029-.356c-3.482-1.04-9.154-2.404-14.87-2.413-5.702-.01-11.562 1.33-15.28 5.819l-.004.005Zm109.423 341.407-112.998-98.618c-6.298-5.497-15.855-5.027-21.333 1.319l-.576.669c-5.031 5.853-4.739 14.521.475 20.188L475.76 434.462c3.537 3.844 8.203 5.312 12.487 4.578 4.286-.734 8.146-3.666 10.077-8.527 1.724-4.339 3.173-8.05 3.674-9.338.134-.343.249-.673.356-1.029 1.041-3.482 2.404-9.154 2.413-14.87.01-5.702-1.33-11.562-5.819-15.28l-.005-.004ZM48.113 158.008l112.998 98.618c6.299 5.497 15.855 5.027 21.333-1.319l.576-.669c5.031-5.853 4.739-14.521-.475-20.188L71.296 113.538c-3.537-3.843-8.203-5.312-12.487-4.578-4.286.734-8.146 3.666-10.077 8.527-1.724 4.339-3.173 8.05-3.674 9.338-.134.343-.25.673-.356 1.029-1.04 3.482-2.404 9.154-2.413 14.87-.01 5.702 1.33 11.563 5.82 15.28l.004.004Z"/><defs><radialGradient id="a" cx="0" cy="0" r="1" gradientTransform="rotate(90 0 274) scale(275)" gradientUnits="userSpaceOnUse"><stop offset=".251" stop-color="#fff" stop-opacity="0"/><stop offset="1" stop-color="#BD00FF"/></radialGradient></defs></svg>