<svg width="14" height="17" fill="none" xmlns="http://www.w3.org/2000/svg"><path fill-rule="evenodd" clip-rule="evenodd" d="M10.27.007A3.942 3.942 0 0 0 8.055 1.14a3.38 3.38 0 0 0-.696.972c-.266.522-.38.972-.38 1.501v.306h.18c.421 0 .835-.11 1.287-.339 1.01-.512 1.751-1.543 1.963-2.727.056-.312.057-.843.002-.852a.895.895 0 0 0-.141.006Zm-.69 4.144a9.17 9.17 0 0 0-1.36.417c-1.046.402-1.16.405-2.072.054-.923-.355-1.331-.455-1.865-.455-.915 0-1.761.306-2.529.913C1.147 5.561.68 6.23.334 7.107c-.268.682-.4 1.928-.301 2.843.105.973.233 1.549.548 2.457a10.25 10.25 0 0 0 1.41 2.707c.69.951 1.162 1.425 1.678 1.682.335.167.498.206.836.204.37-.003.58-.057 1.332-.344.737-.282.948-.328 1.502-.328.53 0 .764.047 1.325.265.842.329 1.11.4 1.507.397a2.204 2.204 0 0 0 1.027-.294c.811-.47 2.11-2.292 2.642-3.709.088-.234.16-.445.16-.468 0-.023-.13-.114-.29-.204-1.127-.63-1.783-1.568-1.952-2.789a3.57 3.57 0 0 1 .308-2.075c.22-.48.784-1.144 1.276-1.5.112-.081.208-.152.213-.157.024-.023-.29-.391-.516-.607-.578-.552-1.33-.898-2.252-1.038-.348-.053-.934-.051-1.208.002Z" fill="#7B7B7B"/></svg>