<svg width="17" height="19" fill="none" xmlns="http://www.w3.org/2000/svg"><path fill-rule="evenodd" clip-rule="evenodd" d="M8.137.002a6.76 6.76 0 0 0-.616.069c-.024.002-.044.008-.044.012 0 .005-.02.008-.045.008-.026 0-.046.004-.046.009 0 .005-.014.009-.032.009-.017 0-.034.004-.037.008-.003.005-.018.009-.032.009a.166.166 0 0 0-.048.008 1.337 1.337 0 0 1-.076.023.669.669 0 0 0-.07.022.084.084 0 0 1-.03.008.093.093 0 0 0-.033.008l-.036.018A.093.093 0 0 1 6.96.22c-.008 0-.014.004-.014.01 0 .004-.008.008-.019.008-.01 0-.018.004-.018.008 0 .005-.006.01-.013.01a.138.138 0 0 0-.044.015 6.073 6.073 0 0 1-.08.04.384.384 0 0 0-.065.04.186.186 0 0 1-.038.025c-.014.007-.026.015-.026.02 0 .003-.004.006-.01.006-.005 0-.019.01-.03.02a2.34 2.34 0 0 0-.41.41.838.838 0 0 1-.047.057c-.047.053-.053.06-.053.07 0 .005-.007.016-.016.023a.596.596 0 0 0-.084.132c0 .005-.005.008-.01.008s-.009.008-.009.017c0 .01-.003.018-.007.018s-.013.013-.02.03c-.007.017-.016.03-.02.03s-.008.008-.008.018c0 .01-.003.017-.007.017-.003 0-.011.013-.017.028a.966.966 0 0 1-.05.12.245.245 0 0 0-.027.08c0 .008-.004.015-.009.015-.005 0-.009.01-.009.021 0 .012-.004.024-.009.027-.005.003-.01.016-.01.03 0 .015-.003.026-.008.026s-.01.011-.01.026c0 .014-.003.027-.008.03-.004.002-.01.017-.013.033a3.978 3.978 0 0 1-.029.132 2.466 2.466 0 0 0-.065.399.35.35 0 0 1-.013.087c-.012.022-.005 1.13.008 1.352.021.355.05.698.08.971l.041.382c.022.21.028.274.032.36.003.05.01.094.014.099.012.011.011.464 0 .464-.006 0-.01.023-.01.052 0 .028-.004.054-.009.057-.005.003-.01.024-.01.048 0 .023-.003.043-.008.043s-.01.01-.01.023c0 .025 0 .027-.05.18a.923.923 0 0 1-.043.113.041.041 0 0 0-.007.024c0 .008-.004.015-.01.015-.005 0-.009.008-.009.018 0 .01-.004.017-.009.017-.005 0-.009.008-.009.017 0 .01-.004.018-.01.018-.004 0-.008.005-.008.012 0 .006-.017.04-.038.076a.848.848 0 0 0-.042.079c-.003.008-.009.015-.013.015s-.008.006-.008.013c0 .007-.004.013-.01.013-.004 0-.008.006-.008.013 0 .007-.005.013-.01.013s-.009.006-.009.013c0 .007-.004.013-.009.013-.005 0-.01.008-.01.017 0 .01-.002.017-.006.017a.24.24 0 0 0-.043.055.778.778 0 0 1-.053.07c-.009.01-.016.022-.016.027 0 .005-.009.015-.019.022-.01.007-.018.017-.018.023 0 .007-.003.012-.007.012a.232.232 0 0 0-.043.052.232.232 0 0 1-.044.052c-.004 0-.007.004-.007.01 0 .005-.007.016-.016.023a.323.323 0 0 0-.039.045.47.47 0 0 1-.032.04.877.877 0 0 0-.036.042.938.938 0 0 1-.055.06.793.793 0 0 0-.052.057 1.248 1.248 0 0 1-.062.069.2.2 0 0 0-.038.046c0 .005-.011.018-.025.031a.64.64 0 0 0-.05.053 4.188 4.188 0 0 1-.124.14c-.02.02-.05.056-.067.077a.999.999 0 0 1-.05.058l-.046.05a1.169 1.169 0 0 1-.048.053.094.094 0 0 0-.02.026c0 .002-.01.014-.023.026a.624.624 0 0 0-.048.053 1.059 1.059 0 0 1-.074.086c-.006.006-.011.014-.011.019 0 .004-.009.013-.019.02-.01.006-.018.016-.018.021 0 .006-.007.017-.016.027-.01.009-.037.044-.062.077a.503.503 0 0 1-.052.064c-.004.001-.007.008-.007.015 0 .007-.008.02-.017.03a.22.22 0 0 0-.03.04.281.281 0 0 1-.02.033.85.85 0 0 0-.07.118c0 .004-.005.008-.01.008s-.01.008-.01.017c0 .01-.003.018-.008.018s-.01.007-.01.016c0 .01-.003.018-.007.02-.01.004-.09.164-.105.207-.006.019-.014.034-.018.034-.004 0-.007.008-.007.017 0 .01-.004.018-.01.018-.004 0-.008.011-.008.026 0 .014-.004.026-.01.026-.005 0-.009.008-.009.017a.08.08 0 0 1-.008.033 1.25 1.25 0 0 0-.055.175 1.2 1.2 0 0 1-.02.074.613.613 0 0 0-.015.063c-.002.015-.008.03-.013.033-.004.002-.008.018-.008.034 0 .017-.004.03-.009.03-.005 0-.01.014-.01.03 0 .017-.003.032-.008.035-.005.003-.01.019-.01.035 0 .016-.003.031-.008.034-.004.003-.01.018-.012.033a1.13 1.13 0 0 1-.03.106c-.04.13-.043.138-.048.167-.002.016-.008.03-.012.033-.005.003-.009.014-.009.026 0 .011-.004.023-.009.026-.005.003-.009.017-.009.03 0 .015-.004.026-.01.026-.004 0-.008.012-.008.026 0 .015-.004.026-.01.026-.005 0-.009.011-.009.024 0 .014-.003.028-.007.033a.309.309 0 0 0-.025.063.21.21 0 0 1-.024.059c-.004.002-.008.012-.008.021 0 .01-.004.025-.009.034l-.018.035a.08.08 0 0 0-.01.03c0 .008-.004.013-.009.013-.005 0-.009.006-.009.014 0 .007-.004.02-.008.028a1.535 1.535 0 0 0-.065.139 7.866 7.866 0 0 1-.212.398c-.007.016-.016.028-.02.028-.003 0-.006.008-.006.017 0 .01-.003.018-.007.02a.351.351 0 0 0-.04.063.734.734 0 0 1-.084.142c-.004.001-.007.01-.007.02 0 .008-.004.016-.009.016-.005 0-.01.008-.01.017 0 .01-.003.018-.008.018s-.01.005-.01.012c0 .006-.003.013-.007.015a1.193 1.193 0 0 0-.088.152c-.006.011-.013.02-.017.02-.004 0-.007.006-.007.013 0 .007-.004.013-.009.013-.005 0-.009.008-.009.017 0 .01-.004.018-.01.018-.004 0-.008.007-.008.017 0 .01-.003.017-.007.017a.191.191 0 0 0-.035.055.27.27 0 0 1-.034.057c-.004.001-.007.01-.007.02 0 .008-.004.016-.009.016-.005 0-.01.008-.01.017 0 .01-.003.017-.008.017s-.01.006-.01.013c0 .007-.004.013-.009.013-.005 0-.009.006-.009.013 0 .008-.004.02-.009.029a1.125 1.125 0 0 0-.073.163c0 .007-.004.012-.01.012-.005 0-.009.008-.009.017 0 .01-.004.02-.009.022-.005.003-.009.015-.009.026s-.004.023-.01.026c-.004.003-.008.013-.008.022 0 .01-.004.017-.01.017-.005 0-.009.012-.009.026 0 .014-.004.026-.009.026-.005 0-.009.006-.009.014a1.756 1.756 0 0 0-.082.532c0 .111.013.178.046.23.024.036.023.041-.014.091a.224.224 0 0 0-.032.052.009.009 0 0 1-.01.009c-.005 0-.009.008-.009.017 0 .01-.004.018-.009.018-.005 0-.01.007-.01.017 0 .01-.003.017-.008.017s-.01.012-.01.026c0 .015-.004.026-.009.026-.005 0-.009.01-.009.022 0 .012-.004.022-.009.022-.005 0-.01.007-.01.015a.283.283 0 0 1-.018.063 2.81 2.81 0 0 0-.034.09.138.138 0 0 1-.022.047c-.004.002-.008.012-.008.024 0 .011-.004.02-.009.02-.005 0-.009.009-.009.018 0 .01-.004.017-.01.017-.004 0-.008.008-.008.017 0 .01-.004.02-.01.023-.004.003-.009.012-.009.02 0 .02-.031.047-.07.063-.017.006-.03.015-.03.018 0 .004-.009.007-.019.007s-.018.004-.018.009c0 .004-.008.008-.018.008-.01 0-.02.004-.023.009-.003.005-.016.009-.028.009s-.024.004-.027.008a4.436 4.436 0 0 1-.434.01c-.435 0-.463.001-.56.034a.293.293 0 0 0-.057.027.115.115 0 0 1-.03.016.108.108 0 0 0-.031.025.154.154 0 0 1-.035.028.634.634 0 0 0-.123.113.372.372 0 0 1-.036.042.453.453 0 0 0-.075.122 3.022 3.022 0 0 1-.036.07.079.079 0 0 0-.008.033c0 .01-.005.02-.01.022-.005.003-.009.019-.009.035 0 .016-.003.031-.008.034-.03.017-.03.569 0 .598a.177.177 0 0 1 .008.068c0 .032.004.059.009.059.004 0 .01.026.013.058.002.032.009.085.014.117l.018.113a33.553 33.553 0 0 0 .057.383.859.859 0 0 1-.04.373.228.228 0 0 1-.027.064c-.004.002-.007.01-.007.02 0 .009-.004.016-.01.016-.004 0-.008.01-.008.022 0 .012-.005.021-.01.021s-.009.006-.009.012c0 .016-.021.058-.03.058-.003 0-.006.007-.006.016 0 .01-.004.018-.008.02a.407.407 0 0 0-.043.074.353.353 0 0 1-.041.072c-.003 0-.012.013-.018.03-.007.017-.016.03-.02.03-.005 0-.008.006-.008.014 0 .007-.004.013-.01.013-.004 0-.008.005-.008.012s-.003.013-.007.015a.372.372 0 0 0-.057.081.084.084 0 0 1-.019.024c-.01.01-.018.023-.018.03 0 .006-.004.011-.01.011-.004 0-.008.008-.008.017 0 .01-.005.018-.01.018s-.009.011-.009.025c0 .014-.003.028-.008.03-.014.009-.021.067-.025.215-.004.135-.003.147.016.186a.61.61 0 0 0 .172.172c.01.003.02.009.02.012 0 .003.022.015.05.027.027.012.05.025.05.028 0 .004.008.007.019.007.01 0 .018.004.018.009 0 .005.008.008.018.008.01 0 .019.004.019.009 0 .005.008.009.018.009.01 0 .026.003.034.007.019.009.06.023.126.042l.064.02c.01.004.037.011.06.017a.4.4 0 0 1 .057.019.121.121 0 0 0 .044.007c.015 0 .027.004.027.01 0 .004.013.008.028.008.015 0 .027.004.027.008 0 .005.016.01.035.01.02 0 .039.003.044.007.004.004.025.01.045.012.02.002.074.01.12.019.145.026.181.032.233.036a.173.173 0 0 1 .059.013c.005.004.028.008.052.008.024 0 .046.003.05.008.002.005.027.009.054.009s.052.004.055.009c.003.004.026.008.05.008.025 0 .048.004.051.009.003.005.022.009.041.009.02 0 .046.003.057.007.012.005.07.018.131.03.06.013.123.027.138.032a.21.21 0 0 0 .048.009c.01 0 .022.003.025.008.003.005.022.009.042.009.02 0 .036.004.036.009 0 .004.014.008.031.008.018 0 .035.004.038.009.003.005.02.009.037.009.017 0 .031.004.031.008 0 .005.012.009.027.009s.03.003.032.008c.003.004.019.01.035.012.026.004.068.014.236.06l.058.013c.014.002.027.008.03.012.003.004.017.008.031.008.015 0 .03.003.033.008.003.005.013.009.023.009s.025.003.034.008c.015.007.058.02.227.066.045.013.09.026.098.03a.093.093 0 0 0 .034.009c.01 0 .019.004.019.008 0 .005.012.009.027.009s.03.004.032.009c.004.005.015.008.027.008.011 0 .024.004.029.007.005.004.07.026.146.049.076.023.145.045.153.05a.09.09 0 0 0 .035.007c.01 0 .018.004.018.009 0 .005.013.008.028.008.015 0 .027.004.027.01 0 .004.009.008.019.008s.025.003.034.007c.034.017.066.028.167.058.058.018.113.035.122.04a.091.091 0 0 0 .033.008c.01 0 .02.003.024.008.003.005.016.009.028.009.013 0 .03.003.039.008a.414.414 0 0 0 .057.018l.06.017a2.855 2.855 0 0 0 .364.084c.019.003.036.008.04.013.002.004.024.007.048.007s.047.004.052.008c.01.009.043.013.234.027.092.008.16.008.252 0 .179-.012.224-.018.224-.027 0-.004.016-.008.036-.008.02 0 .037-.004.037-.008 0-.005.012-.01.026-.01.014 0 .03-.002.034-.006a.228.228 0 0 1 .05-.02.589.589 0 0 0 .145-.062c.002-.003.011-.007.02-.007.01 0 .018-.003.018-.008s.009-.009.019-.009.018-.004.018-.009c0-.004.006-.008.014-.008.007 0 .013-.003.013-.007s.012-.013.026-.02c.03-.015.03-.014.096-.064a.395.395 0 0 1 .058-.04c.01 0 .242-.226.242-.235 0-.005.006-.007.013-.004.007.002.024-.001.037-.008a.12.12 0 0 1 .038-.012c.007 0 .013-.004.013-.009 0-.005.008-.009.018-.009.01 0 .019-.004.019-.008 0-.005.01-.009.022-.009.013 0 .023-.004.023-.009 0-.005.009-.008.019-.008s.026-.004.036-.01l.037-.016a.092.092 0 0 1 .032-.01.08.08 0 0 0 .03-.007 1.24 1.24 0 0 1 .153-.045l.065-.017a.213.213 0 0 1 .048-.008c.01 0 .022-.004.025-.009.003-.005.022-.008.042-.008.02 0 .036-.004.036-.01 0-.004.02-.008.045-.008.025 0 .048-.004.051-.009.003-.004.026-.008.05-.008.025 0 .048-.004.05-.009.004-.005.023-.009.043-.009.02 0 .054-.003.075-.008.021-.004.107-.014.19-.02l.256-.023c.137-.012.947-.013 1.114 0l.403.027c.288.02.38.026.555.042l.188.014a.335.335 0 0 1 .09.012.265.265 0 0 0 .084.009c.04 0 .078.003.083.008.005.004.042.01.082.012.114.007.377.036.399.044.007.003.02.02.03.038a.637.637 0 0 0 .063.103c.014.02.026.039.026.042 0 .004.007.013.016.02a2 2 0 0 0 .327.307c.01.008.023.015.03.015.006 0 .012.004.012.009 0 .005.005.008.013.008a1.368 1.368 0 0 0 .231.113c.006 0 .012.004.012.009 0 .005.008.009.018.009.01 0 .02.003.022.006a.166.166 0 0 0 .051.02c.026.006.047.015.047.018 0 .004.007.008.016.008a.46.46 0 0 1 .075.018c.061.02.142.031.27.039.041.003.078.008.083.013a.267.267 0 0 0 .083.008.24.24 0 0 1 .084.009c.006.006.034.008.077.004l.141-.01a.288.288 0 0 0 .082-.013c.005-.004.026-.008.048-.008.021 0 .041-.004.044-.008.003-.005.016-.01.029-.01.048 0 .286-.084.295-.105.002-.004.011-.007.02-.007.01 0 .018-.004.018-.008 0-.005.008-.01.019-.01.01 0 .018-.002.018-.006 0-.003.023-.018.05-.032a.191.191 0 0 0 .05-.031c0-.003.013-.01.028-.017.015-.006.028-.014.028-.018 0-.004.006-.008.013-.008.008 0 .014-.004.014-.009 0-.004.006-.008.013-.008.007 0 .015-.003.016-.007a.44.44 0 0 1 .065-.048.963.963 0 0 0 .128-.095.119.119 0 0 1 .035-.024.268.268 0 0 0 .052-.04c.024-.02.058-.05.076-.062.017-.013.066-.056.108-.095a.599.599 0 0 1 .085-.071.192.192 0 0 0 .048-.036.874.874 0 0 1 .07-.059.774.774 0 0 0 .061-.048.825.825 0 0 1 .055-.046c.015-.01.048-.037.073-.058.065-.054.135-.11.17-.135a.722.722 0 0 0 .06-.05.168.168 0 0 1 .035-.028c.003 0 .02-.013.037-.028a.415.415 0 0 1 .083-.067c.003 0 .02-.014.037-.03a.164.164 0 0 1 .038-.031c.004 0 .02-.01.036-.024a.97.97 0 0 1 .054-.041.468.468 0 0 0 .047-.037c.011-.01.024-.02.028-.02.005 0 .016-.006.026-.015a.984.984 0 0 1 .054-.04.732.732 0 0 0 .049-.037.09.09 0 0 1 .03-.016c.01-.003.018-.008.018-.011 0-.004.016-.016.036-.028.02-.012.037-.024.037-.028s.006-.007.013-.007c.007 0 .014-.002.016-.006.003-.007.133-.089.14-.089a.086.086 0 0 0 .025-.017c.011-.01.026-.018.032-.018.007 0 .012-.003.012-.007s.022-.018.048-.032a.477.477 0 0 0 .053-.03.336.336 0 0 1 .076-.04c.008-.003.016-.009.016-.013s.008-.008.018-.008c.01 0 .02-.004.023-.008.003-.005.013-.009.023-.009.009 0 .018-.003.02-.007a.738.738 0 0 1 .16-.071c.007 0 .012-.004.012-.009 0-.004.009-.008.019-.008s.018-.004.018-.009c0-.005.008-.009.018-.009.01 0 .019-.003.019-.006 0-.004.013-.012.03-.019.078-.032.24-.11.243-.115.002-.004.013-.007.025-.007.012 0 .023-.003.023-.006 0-.008.044-.029.06-.029.006 0 .013-.003.014-.007a.334.334 0 0 1 .1-.045.54.54 0 0 0 .113-.044.18.18 0 0 1 .048-.016c.007 0 .013-.004.013-.008 0-.005.008-.011.017-.014a.125.125 0 0 0 .035-.02l.071-.05a1.01 1.01 0 0 0 .225-.214c.01-.01.018-.024.018-.03 0-.006.005-.011.01-.011s.009-.008.009-.017c0-.01.004-.02.009-.022.006-.004.009-.097.009-.251 0-.237 0-.248-.02-.282-.011-.02-.023-.035-.027-.035-.005 0-.008-.005-.008-.01s-.007-.016-.016-.024a.16.16 0 0 1-.028-.036.314.314 0 0 0-.063-.06 1.808 1.808 0 0 1-.063-.05c-.007-.006-.016-.011-.022-.011-.005 0-.01-.004-.01-.009 0-.004-.006-.008-.013-.008-.008 0-.014-.004-.014-.009 0-.005-.006-.009-.014-.009-.007 0-.014-.004-.014-.008a.009.009 0 0 0-.008-.009.476.476 0 0 1-.071-.033 1.23 1.23 0 0 0-.201-.097c-.007 0-.013-.004-.013-.009 0-.005-.008-.008-.018-.008-.01 0-.019-.004-.019-.01 0-.004-.006-.008-.014-.008a.778.778 0 0 1-.192-.095.061.061 0 0 1-.03-.012 4.514 4.514 0 0 0-.08-.059.968.968 0 0 1-.088-.07c-.014-.013-.029-.024-.035-.024-.005 0-.01-.003-.01-.007s-.01-.013-.025-.02a.686.686 0 0 1-.232-.233.495.495 0 0 1-.075-.178 16.823 16.823 0 0 0-.016-.117 3.927 3.927 0 0 1-.033-.253c-.003-.033-.009-.059-.014-.059-.004 0-.008-.01-.008-.02 0-.04-.071-.298-.092-.338a.08.08 0 0 1-.009-.032c0-.01-.004-.017-.009-.017-.005 0-.01-.008-.01-.017a.495.495 0 0 0-.068-.135.309.309 0 0 0-.176-.126 8.653 8.653 0 0 1-.064-.013c-.02-.005-.031-.039-.012-.039.005 0 .01-.013.01-.03 0-.016.003-.032.008-.035.005-.003.01-.017.01-.03 0-.014.003-.027.008-.03.004-.003.01-.018.013-.033l.014-.067c.056-.24.08-.383.103-.599a7.8 7.8 0 0 0 .009-.757.386.386 0 0 1-.01-.114.438.438 0 0 0-.008-.113.241.241 0 0 1-.014-.078 4.413 4.413 0 0 0-.08-.511 1.739 1.739 0 0 1-.014-.076c-.003-.018-.009-.035-.013-.038-.005-.002-.008-.02-.008-.039 0-.018-.005-.034-.01-.034s-.009-.015-.009-.034c0-.02-.004-.035-.009-.035-.005 0-.009-.014-.009-.03s-.004-.032-.01-.035c-.004-.003-.008-.016-.008-.03 0-.012-.004-.027-.008-.031a.364.364 0 0 1-.024-.074.342.342 0 0 0-.025-.073c-.004-.004-.007-.017-.007-.028 0-.01-.005-.021-.01-.024-.005-.003-.009-.015-.009-.026 0-.012-.004-.023-.009-.026-.005-.003-.01-.015-.01-.027 0-.011-.003-.021-.008-.021s-.01-.012-.01-.026c0-.014-.004-.026-.009-.026-.005 0-.009-.01-.009-.022 0-.012-.004-.021-.009-.021-.005 0-.01-.005-.01-.011 0-.015-.063-.174-.074-.184a.04.04 0 0 1-.008-.024c0-.008-.004-.015-.009-.015-.005 0-.009-.008-.009-.018 0-.01-.004-.017-.01-.017-.004 0-.008-.006-.008-.012a.239.239 0 0 0-.026-.059.733.733 0 0 1-.043-.1c-.01-.03-.021-.055-.025-.055s-.007-.005-.007-.013c0-.012-.004-.022-.026-.062a.094.094 0 0 1-.01-.037c0-.01-.005-.018-.01-.018s-.01-.007-.01-.017c0-.01-.003-.017-.008-.017s-.01-.006-.01-.013c0-.011-.006-.025-.058-.126a.274.274 0 0 1-.024-.059c0-.006-.004-.01-.01-.01-.004 0-.008-.008-.008-.018 0-.01-.004-.017-.01-.017-.004 0-.009-.008-.009-.017 0-.01-.004-.018-.009-.018-.005 0-.009-.008-.009-.017 0-.01-.003-.017-.007-.017-.005 0-.014-.014-.02-.03-.007-.018-.016-.031-.02-.031-.005 0-.008-.008-.008-.018 0-.01-.003-.017-.008-.017-.004 0-.015-.017-.024-.039-.01-.021-.02-.039-.025-.039-.004 0-.007-.008-.007-.017 0-.01-.004-.018-.01-.018-.004 0-.008-.005-.008-.013 0-.007-.005-.013-.01-.013s-.009-.005-.009-.013c0-.007-.004-.013-.009-.013-.005 0-.01-.007-.01-.017 0-.01-.003-.017-.008-.017s-.01-.004-.01-.009a.267.267 0 0 0-.032-.056.26.26 0 0 1-.032-.056.01.01 0 0 0-.009-.01c-.005 0-.009-.005-.009-.012 0-.008-.004-.013-.009-.013-.005 0-.01-.006-.01-.013 0-.008-.003-.013-.008-.013s-.01-.006-.01-.013c0-.008-.003-.013-.007-.013s-.013-.01-.018-.022a.172.172 0 0 0-.02-.033.451.451 0 0 1-.055-.083c0-.003-.009-.012-.019-.018-.01-.007-.018-.019-.018-.026 0-.008-.008-.02-.018-.026-.01-.007-.019-.017-.019-.022a.127.127 0 0 0-.027-.04.153.153 0 0 1-.028-.036.085.085 0 0 0-.02-.026.219.219 0 0 1-.034-.043c-.007-.014-.016-.024-.02-.024-.005 0-.008-.004-.008-.01 0-.004-.01-.018-.02-.03a.391.391 0 0 1-.055-.064.889.889 0 0 0-.086-.1 2.928 2.928 0 0 1-.075-.087.46.46 0 0 0-.05-.055.013.013 0 0 1-.007-.01.26.26 0 0 0-.047-.054.97.97 0 0 1-.071-.076.42.42 0 0 0-.04-.044c-.01-.008-.017-.017-.017-.02 0-.01-.102-.148-.11-.151-.005-.002-.009-.009-.009-.015 0-.007-.004-.013-.009-.013-.005 0-.01-.005-.01-.013 0-.007-.003-.013-.008-.013a.01.01 0 0 1-.01-.009.036.036 0 0 0-.009-.02 2.08 2.08 0 0 1-.053-.066.476.476 0 0 0-.05-.06c-.003 0-.007-.007-.007-.013 0-.006-.007-.018-.016-.027a1.807 1.807 0 0 1-.08-.104.855.855 0 0 0-.07-.09c-.004 0-.008-.008-.008-.014 0-.007-.003-.013-.007-.013-.005 0-.014-.01-.02-.024a.211.211 0 0 0-.023-.033 1.006 1.006 0 0 0-.053-.068c-.009-.012-.016-.025-.016-.03a.01.01 0 0 0-.009-.01c-.005 0-.01-.005-.01-.013 0-.007-.003-.013-.008-.013a.01.01 0 0 1-.01-.009.036.036 0 0 0-.009-.02 1.3 1.3 0 0 1-.052-.075.86.86 0 0 0-.055-.076c-.007-.006-.012-.015-.012-.018 0-.004-.008-.016-.018-.027a.7.7 0 0 1-.048-.064.264.264 0 0 0-.037-.047c-.004-.002-.007-.007-.007-.012a.182.182 0 0 0-.027-.046.178.178 0 0 1-.028-.047.01.01 0 0 0-.009-.01c-.005 0-.01-.007-.01-.017 0-.01-.003-.017-.007-.017-.007 0-.015-.013-.08-.13a1.976 1.976 0 0 1-.151-.284c0-.006-.003-.01-.009-.01-.005 0-.009-.006-.009-.012 0-.007-.008-.02-.018-.03-.01-.01-.018-.025-.018-.032 0-.008-.003-.014-.007-.014s-.013-.012-.02-.028a7.13 7.13 0 0 0-.034-.072.634.634 0 0 1-.033-.085c-.006-.022-.014-.04-.018-.04-.004 0-.007-.012-.007-.026 0-.014-.005-.027-.01-.03-.005-.003-.009-.015-.009-.026 0-.012-.004-.024-.009-.026-.005-.003-.01-.017-.01-.031 0-.014-.003-.026-.008-.026s-.01-.015-.01-.035c0-.019-.004-.034-.009-.034-.005 0-.009-.014-.009-.03s-.003-.032-.008-.035c-.005-.002-.01-.017-.013-.033a3.761 3.761 0 0 0-.019-.103 3.81 3.81 0 0 1-.057-.393.21.21 0 0 0-.014-.069c-.004-.005-.008-.029-.008-.054 0-.026-.004-.046-.01-.046-.004 0-.008-.018-.008-.039 0-.02-.004-.04-.008-.043a.834.834 0 0 1-.032-.209 5.191 5.191 0 0 0-.023-.225 7.301 7.301 0 0 1-.029-.36 1.678 1.678 0 0 0-.019-.21.262.262 0 0 1-.008-.078.195.195 0 0 0-.009-.072c-.008-.008-.01-.038-.024-.251a.444.444 0 0 0-.013-.096.454.454 0 0 1-.014-.095 6.418 6.418 0 0 0-.097-.646 1.92 1.92 0 0 1-.014-.084c-.003-.02-.01-.037-.014-.037s-.008-.018-.008-.04c0-.02-.004-.038-.01-.038-.004 0-.008-.016-.008-.035 0-.018-.004-.036-.008-.038-.005-.003-.01-.018-.013-.033a1.606 1.606 0 0 0-.072-.252.092.092 0 0 1-.008-.036c0-.012-.004-.024-.01-.027-.004-.003-.008-.017-.008-.03 0-.015-.005-.026-.01-.026s-.009-.01-.009-.022c0-.012-.004-.022-.009-.022-.005 0-.01-.007-.01-.017a1.266 1.266 0 0 0-.118-.303.01.01 0 0 0-.01-.01.01.01 0 0 1-.009-.008.175.175 0 0 0-.027-.047.276.276 0 0 1-.028-.043.626.626 0 0 0-.052-.079.305.305 0 0 1-.02-.032.223.223 0 0 0-.03-.041c-.01-.01-.017-.02-.017-.025 0-.004-.007-.014-.016-.024a.545.545 0 0 1-.043-.058.148.148 0 0 0-.035-.04c-.003 0-.006-.005-.006-.01 0-.006-.013-.02-.028-.034a2.483 2.483 0 0 0-.28-.277.43.43 0 0 1-.078-.061.583.583 0 0 0-.104-.083c-.013-.012-.027-.021-.032-.021-.006 0-.01-.004-.01-.01 0-.004-.006-.008-.014-.008-.007 0-.014-.004-.014-.008 0-.005-.006-.01-.013-.01-.008 0-.014-.003-.014-.007 0-.005-.008-.01-.018-.014a1.48 1.48 0 0 0-.19-.103c-.012-.005-.021-.012-.021-.016S10.1.35 10.089.35c-.01 0-.018-.003-.018-.008s-.005-.009-.01-.009a.79.79 0 0 1-.153-.071c-.002-.004-.011-.007-.02-.007-.01 0-.019-.004-.019-.009 0-.004-.01-.008-.022-.008-.012 0-.025-.004-.028-.009-.003-.005-.014-.009-.023-.009-.01 0-.018-.004-.018-.008 0-.005-.01-.009-.023-.009-.012 0-.024-.004-.028-.009C9.724.191 9.712.187 9.7.187c-.012 0-.022-.003-.022-.007S9.649.166 9.615.157a2.525 2.525 0 0 1-.113-.032.34.34 0 0 0-.075-.016c-.013 0-.026-.004-.03-.009-.003-.005-.02-.009-.04-.009-.018 0-.038-.003-.042-.008A.692.692 0 0 0 9.127.06a.433.433 0 0 1-.133-.025c-.158-.03-.17-.032-.486-.034a11.78 11.78 0 0 0-.37 0Zm1.228 2.822.104.013c.018.003.034.008.034.012 0 .005.012.008.027.008.016 0 .028.004.028.009 0 .005.01.009.023.009.012 0 .023.003.023.008s.008.009.018.009c.01 0 .018.004.018.009 0 .004.008.008.018.008.01 0 .019.003.02.007a.374.374 0 0 0 .058.04c.094.058.198.173.198.219 0 .006.004.012.009.012.005 0 .009.008.009.017 0 .01.004.017.01.017.004 0 .008.01.008.022 0 .012.004.022.01.022.005 0 .009.011.009.026 0 .014.003.026.008.026.004 0 .01.012.013.028l.014.067c.039.178.042.211.042.46 0 .254-.005.3-.06.598a1.471 1.471 0 0 0-.014.093c-.003.025-.009.046-.013.046-.005 0-.009.021-.009.047s-.004.05-.009.052c-.005.003-.009.025-.009.048s-.005.045-.012.05c-.013.011-.052.005-.052-.008 0-.004-.008-.007-.019-.007-.01 0-.018-.004-.018-.009 0-.005-.008-.009-.018-.009-.01 0-.018-.003-.018-.007a.288.288 0 0 0-.096-.048.837.837 0 0 0-.082-.014c-.069-.01-.116-.023-.116-.035 0-.004-.008-.01-.018-.013-.03-.008-.023-.03.009-.03.015 0 .028-.004.028-.009 0-.004.005-.008.011-.008.041 0 .218-.125.218-.155 0-.005.005-.014.011-.02a.419.419 0 0 0 .06-.129.625.625 0 0 0 .026-.247c-.005-.14-.013-.204-.025-.204-.004 0-.008-.013-.008-.03s-.004-.03-.01-.03c-.004 0-.008-.012-.008-.026 0-.015-.005-.026-.01-.026s-.009-.01-.009-.022c0-.011-.004-.023-.009-.026-.005-.003-.01-.013-.01-.021a.11.11 0 0 0-.013-.04.11.11 0 0 1-.014-.04.587.587 0 0 0-.15-.15.365.365 0 0 0-.057-.04.375.375 0 0 1-.04-.025.171.171 0 0 0-.032-.017 1.496 1.496 0 0 1-.044-.02.108.108 0 0 0-.039-.007c-.012 0-.023-.004-.023-.009 0-.005-.035-.008-.087-.008-.052 0-.087.003-.087.008s-.014.01-.032.01c-.017 0-.032.003-.032.008s-.006.008-.014.008a.379.379 0 0 0-.123.06.62.62 0 0 0-.136.131c-.004 0-.02.025-.033.054l-.034.07a.093.093 0 0 0-.008.037c0 .012-.004.021-.01.021-.004 0-.008.022-.008.047 0 .026-.005.05-.01.053-.005.003-.009.084-.009.212 0 .13.004.21.01.213.004.003.008.017.008.031 0 .014.009.041.019.06.01.019.018.036.018.039 0 .002-.008.004-.018.004-.01 0-.018-.004-.018-.008 0-.005-.008-.01-.018-.01-.01 0-.02-.003-.024-.008-.003-.005-.013-.008-.023-.008s-.018-.004-.018-.01c0-.004-.01-.008-.023-.008-.028 0-.069-.035-.069-.06 0-.01-.004-.018-.009-.018-.005 0-.009-.008-.009-.017 0-.01-.004-.017-.008-.017-.005 0-.01-.01-.013-.02a1.06 1.06 0 0 0-.027-.08.797.797 0 0 1-.053-.168c0-.01-.004-.02-.009-.023-.005-.003-.01-.025-.01-.048 0-.024-.003-.043-.008-.043-.006 0-.01-.027-.01-.065 0-.038-.003-.065-.009-.065a.584.584 0 0 1-.009-.16c0-.102.004-.16.01-.16.004 0 .009-.016.009-.035 0-.019.004-.037.009-.04.005-.002.009-.013.009-.022 0-.01.004-.024.008-.032.005-.008.02-.04.034-.07a.202.202 0 0 1 .031-.053c.003 0 .012-.014.019-.03.006-.017.015-.031.02-.031.004 0 .007-.006.007-.013 0-.007.004-.013.01-.013a.01.01 0 0 0 .008-.01c0-.016.063-.064.118-.09a.251.251 0 0 0 .055-.032c.002-.004.01-.007.02-.007s.02-.004.023-.008c.003-.005.013-.01.023-.01s.018-.003.018-.008.01-.008.022-.008c.013 0 .025-.004.028-.01.004-.004.016-.008.028-.008s.024-.003.027-.008c.003-.004.022-.01.044-.013l.085-.012c.066-.01.208-.01.288 0Zm-2.603.12c.079.01.147.027.147.037 0 .003.008.006.018.006.01 0 .019.003.019.007 0 .003.013.012.03.019.03.013.18.149.18.164 0 .005.01.018.021.03.042.04.126.199.126.235 0 .012.004.022.01.022.004 0 .009.016.009.034 0 .02.004.037.009.04.006.003.009.114.009.303 0 .19-.003.3-.01.304-.004.003-.008.012-.008.02s-.009.02-.019.026a.04.04 0 0 0-.018.03c0 .025-.016.04-.042.04-.019 0-.02-.004-.025-.088-.01-.156-.018-.224-.026-.228-.004-.003-.008-.022-.008-.043 0-.02-.004-.04-.01-.043-.004-.003-.008-.017-.008-.03 0-.014-.004-.028-.01-.031-.004-.003-.009-.013-.009-.023a.795.795 0 0 0-.034-.114c-.036-.101-.035-.1-.135-.184a5.889 5.889 0 0 1-.064-.054.048.048 0 0 0-.027-.01c-.008 0-.015-.004-.015-.008 0-.014-.108-.03-.159-.024a.371.371 0 0 0-.162.05c-.009.009-.019.016-.023.016a.28.28 0 0 0-.086.084c0 .006-.004.011-.008.011s-.013.011-.02.024a.22.22 0 0 1-.034.044.39.39 0 0 0-.079.149c-.012.052-.011.416.001.477a.48.48 0 0 0 .103.245c0 .01.08.082.112.1.014.008.026.017.026.02 0 .005.008.008.018.008.01 0 .018.004.018.008 0 .005.006.01.014.01.007 0 .014.003.014.007 0 .01-.026.035-.037.035-.004 0-.013.005-.02.011a.285.285 0 0 1-.049.028.31.31 0 0 0-.054.033c-.01.008-.022.015-.026.015a.509.509 0 0 1-.112-.108.451.451 0 0 0-.044-.049c-.008-.008-.016-.018-.016-.024 0-.005-.003-.01-.008-.01-.004 0-.01-.006-.013-.015a.3.3 0 0 0-.044-.071.199.199 0 0 1-.021-.04.967.967 0 0 0-.025-.05.07.07 0 0 1-.008-.027c0-.007-.004-.013-.01-.013-.004 0-.008-.012-.008-.026 0-.015-.004-.026-.01-.026-.004 0-.009-.014-.009-.03 0-.017-.003-.031-.008-.031-.004 0-.011-.023-.015-.05a3.63 3.63 0 0 1 .003-.488l.017-.112a.126.126 0 0 1 .014-.048c.004-.004.008-.016.008-.026 0-.02.02-.079.03-.088a.69.69 0 0 1 .062-.144.07.07 0 0 0 .009-.028c0-.007.004-.013.009-.013.005 0 .009-.005.009-.012 0-.015.021-.057.03-.058.003 0 .007-.005.007-.012 0-.018.122-.135.14-.135.009 0 .015-.003.015-.007 0-.016.113-.06.18-.07a.44.44 0 0 1 .16 0Zm.008.577c.036.01.06.025.098.06.09.085.13.187.14.345l.003.076h-.139v-.04a.305.305 0 0 0-.027-.12.49.49 0 0 1-.03-.118l-.002-.03-.099-.002-.099-.003.003-.063c.002-.056.004-.062.023-.065.011-.001.025-.013.032-.028.013-.03.028-.031.097-.012Zm2.7.003c.07.03.189.153.189.195 0 .012.004.023.009.023.005 0 .009.034.009.086 0 .086.01.118.048.163.007.008-.005.01-.055.01h-.064l-.015-.04a.57.57 0 0 0-.07-.145c0-.022-.095-.105-.137-.119-.022-.007-.045-.02-.05-.03a.124.124 0 0 0-.015-.02c-.044-.04-.052-.087-.013-.087a.162.162 0 0 0 .06-.026c.048-.03.056-.031.105-.01Zm-1.447.756.091.013c.02.003.04.009.046.013.005.004.022.008.038.008s.032.004.035.009c.004.004.018.008.033.008.014 0 .029.004.032.009.003.005.015.009.028.009.012 0 .03.003.038.007.009.005.078.027.154.05.133.04.149.046.187.064.01.005.027.009.037.009.01 0 .018.004.018.008 0 .005.01.009.023.009s.023.004.023.009c0 .004.007.008.014.008.008 0 .031.008.053.017.09.037.155.061.168.061.007 0 .013.004.013.01 0 .004.008.008.018.008.01 0 .018.004.018.008 0 .005.01.01.023.01s.023.003.023.008.013.008.028.008c.015 0 .027.004.027.01 0 .004.01.008.023.008a.1.1 0 0 1 .04.008c.008.005.075.027.148.05a1.008 1.008 0 0 1 .157.054c.01 0 .025.004.033.008a1.072 1.072 0 0 1 .102.043c.022.01.043.019.048.019a.91.91 0 0 1 .153.071c.002.004.011.007.021.007.01 0 .018.004.018.009 0 .004.008.008.017.008.01 0 .02.003.02.007a.321.321 0 0 0 .059.04c.03.019.061.04.069.048a.225.225 0 0 0 .038.03.197.197 0 0 1 .046.045c.011.016.03.032.039.035.039.012.043.025.043.131 0 .062-.004.103-.01.105-.006.002-.01.01-.01.019a.312.312 0 0 1-.046.095 1.057 1.057 0 0 1-.355.312c-.004 0-.013.008-.02.018-.008.01-.017.017-.02.017-.011 0-.14.08-.144.088-.001.004-.009.007-.016.007-.007 0-.013.004-.013.009 0 .005-.006.009-.014.009-.007 0-.013.004-.013.008 0 .005-.006.009-.014.009s-.014.004-.014.009c0 .004-.004.008-.01.008a.34.34 0 0 0-.067.04.329.329 0 0 1-.068.038c-.006 0-.01.004-.01.008s-.012.012-.026.019a.172.172 0 0 0-.04.028c-.008.008-.017.015-.02.015a.54.54 0 0 0-.102.063c-.01.008-.022.015-.028.015-.005 0-.016.008-.023.017-.007.01-.02.017-.03.017-.008 0-.016.004-.016.01 0 .004-.004.008-.01.008a.041.041 0 0 0-.02.009c-.017.013-.07.046-.114.069-.022.011-.039.024-.039.027 0 .004-.008.008-.018.008-.01 0-.019.003-.019.008s-.008.009-.018.009c-.01 0-.018.003-.018.007s-.012.013-.026.02a.192.192 0 0 0-.03.016.297.297 0 0 1-.043.021c-.021.01-.039.02-.039.024s-.008.007-.018.007c-.01 0-.018.004-.018.009 0 .005-.009.009-.019.009s-.018.003-.018.008-.006.009-.014.009c-.007 0-.014.004-.014.009 0 .004-.008.008-.018.008-.01 0-.018.004-.018.009 0 .005-.009.009-.019.009s-.018.004-.018.008c0 .005-.006.009-.013.009a.498.498 0 0 0-.083.03.486.486 0 0 1-.083.03c-.007 0-.013.005-.013.01 0 .004-.01.008-.023.008s-.023.004-.023.009c0 .004-.013.008-.028.008-.015 0-.027.004-.027.009 0 .005-.013.009-.028.009-.015 0-.027.003-.027.007 0 .005-.012.01-.025.013a1.507 1.507 0 0 1-.848.005c-.024-.007-.044-.015-.044-.019 0-.003-.01-.006-.023-.006-.012 0-.023-.004-.023-.009 0-.005-.005-.009-.012-.009a.526.526 0 0 1-.09-.037c-.107-.053-.12-.06-.137-.078-.008-.008-.02-.015-.025-.015-.006 0-.01-.004-.01-.008 0-.005-.005-.01-.01-.01-.006 0-.016-.004-.022-.01a1.234 1.234 0 0 0-.046-.037c-.052-.04-.518-.482-.53-.502a.787.787 0 0 1-.09-.145c0-.004-.003-.007-.008-.007s-.01-.008-.01-.018c0-.01-.004-.017-.009-.017-.005 0-.009-.008-.009-.017 0-.01-.004-.018-.009-.018-.005 0-.01-.006-.01-.013 0-.019.015-.016.041.009.013.012.028.022.033.022.005 0 .01.003.01.006 0 .004.016.016.036.028.02.012.037.024.037.028 0 .003.008.008.018.011.01.003.023.01.03.016.019.017.088.058.098.058.005 0 .01.004.01.009 0 .004.008.008.018.008.01 0 .018.004.018.008s.049.03.108.057l.123.058a.084.084 0 0 0 .03.007c.008 0 .014.004.014.01 0 .004.008.008.018.008.01 0 .019.004.019.008 0 .005.012.01.027.01s.028.003.028.008.007.008.016.009c.009 0 .034.006.057.014.272.091.655.099.993.02.04-.01.08-.017.09-.017.01 0 .017-.004.017-.009 0-.005.012-.009.027-.009.016 0 .028-.003.028-.008s.01-.009.023-.009a.114.114 0 0 0 .041-.009l.037-.017a.093.093 0 0 1 .032-.009.08.08 0 0 0 .03-.008l.08-.031.121-.048a.365.365 0 0 1 .07-.025c.008 0 .015-.003.017-.007.001-.004.054-.03.117-.06s.144-.07.179-.09a.864.864 0 0 1 .08-.04c.009-.002.016-.008.016-.012 0-.005.006-.008.014-.008s.02-.004.025-.01a.826.826 0 0 1 .127-.068c.005 0 .008-.004.008-.009 0-.005.004-.008.01-.008a.605.605 0 0 0 .085-.048.827.827 0 0 1 .083-.048.081.081 0 0 0 .026-.017c.01-.01.025-.018.032-.018.006 0 .012-.003.012-.008s.004-.009.01-.009a.041.041 0 0 0 .02-.009.857.857 0 0 1 .103-.069c.01 0 .032-.025.032-.037 0-.018-.032-.05-.05-.05-.012 0-.014-.01-.014-.056 0-.06-.01-.07-.042-.041a.943.943 0 0 1-.138.097c-.005 0-.015.008-.022.018-.007.01-.019.017-.025.017-.006 0-.012.004-.012.009 0 .005-.006.008-.014.008-.007 0-.013.004-.013.008s-.015.014-.032.023c-.018.01-.032.02-.032.022 0 .003-.013.01-.028.017-.015.006-.027.014-.027.018 0 .004-.005.008-.01.008s-.018.008-.03.017c-.01.01-.024.017-.03.017-.007 0-.013.004-.013.008s-.012.013-.027.018c-.015.006-.028.014-.028.017a.2.2 0 0 1-.05.03.167.167 0 0 0-.05.033c0 .004-.007.007-.015.007s-.023.008-.034.018c-.01.01-.025.017-.031.017-.007 0-.012.003-.012.007s-.015.012-.032.019c-.018.006-.032.015-.032.019s-.009.007-.019.007-.018.003-.018.007-.019.015-.041.024c-.023.009-.042.019-.042.023 0 .003-.008.007-.018.007-.01 0-.018.003-.018.008s-.009.009-.019.009-.018.004-.018.009c0 .004-.008.008-.018.008-.01 0-.018.003-.02.007a.877.877 0 0 1-.18.08.56.56 0 0 1-.116.043c-.008 0-.014.004-.014.009 0 .005-.01.009-.023.009-.012 0-.025.004-.028.008-.003.005-.013.009-.023.009a.09.09 0 0 0-.034.008 1.395 1.395 0 0 1-.195.054l-.091.018c-.131.026-.479.043-.499.024-.005-.005-.03-.009-.057-.009-.027 0-.05-.004-.054-.008-.003-.005-.016-.009-.028-.009-.033 0-.184-.045-.235-.07a.083.083 0 0 0-.03-.008c-.008 0-.014-.004-.014-.009 0-.004-.008-.008-.018-.008-.01 0-.019-.004-.019-.009 0-.005-.005-.009-.012-.009-.014 0-.172-.076-.18-.086a.138.138 0 0 0-.034-.018c-.017-.007-.03-.016-.03-.02 0-.003-.006-.006-.014-.006-.007 0-.014-.004-.014-.008 0-.005-.006-.01-.013-.01-.008 0-.014-.002-.014-.006a.25.25 0 0 0-.058-.04.562.562 0 0 1-.081-.06c-.013-.012-.029-.023-.035-.023-.006 0-.02-.009-.032-.02a1.264 1.264 0 0 0-.054-.045c-.018-.014-.033-.031-.033-.037 0-.006-.005-.01-.01-.01s-.009-.009-.009-.018c0-.01-.004-.018-.009-.018-.005 0-.01-.004-.01-.01a.425.425 0 0 0-.075-.1c-.011-.006-.007-.043.012-.111a.46.46 0 0 1 .075-.159c.004-.001.007-.007.007-.013 0-.006.008-.016.019-.023.01-.007.018-.017.018-.023 0-.014.177-.184.243-.233a.756.756 0 0 0 .06-.05c.009-.008.02-.015.025-.015.005 0 .01-.003.013-.006a.7.7 0 0 1 .08-.059.697.697 0 0 0 .081-.058c.002-.004.01-.007.016-.007.008 0 .013-.003.013-.008s.009-.009.019-.009.018-.004.018-.009c0-.004.004-.008.008-.008a.469.469 0 0 0 .072-.034 1.23 1.23 0 0 1 .2-.096c.008 0 .013-.004.013-.009 0-.005.008-.009.018-.009.01 0 .019-.003.02-.007a.44.44 0 0 1 .123-.053c.007 0 .014-.004.014-.009 0-.005.008-.009.017-.009.01 0 .02-.004.024-.008.003-.005.013-.01.023-.01s.018-.003.018-.008.01-.008.022-.008c.013 0 .025-.004.028-.01.004-.004.014-.008.024-.008s.018-.004.018-.008c0-.005.012-.01.027-.01.014 0 .029-.003.032-.007.002-.004.018-.01.035-.012a1.38 1.38 0 0 0 .084-.018c.062-.014.25-.013.349.004Zm-.514.126-.061.03a.183.183 0 0 1-.058.008c-.047 0-.054.005-.084.058-.017.029-.021.049-.021.11 0 .04.003.076.008.078a.314.314 0 0 0 .06.01l.05.006.072-.068c.084-.08.122-.125.122-.145 0-.008.004-.014.009-.014.019 0 .009-.05-.015-.073a.108.108 0 0 0-.03-.023.414.414 0 0 0-.052.023Zm.38-.01c-.017.02-.005.103.02.137a.31.31 0 0 0 .038.042c.009.008.016.018.016.022s.008.014.018.02c.01.007.019.017.019.022 0 .005.01.02.023.034.021.024.028.026.087.026.079 0 .097-.012.094-.068-.003-.074-.085-.164-.198-.215-.078-.036-.099-.04-.116-.02Zm2.167 1.627a.9.9 0 0 1 .052.117c0 .007.004.012.009.012.005 0 .01.008.01.017 0 .01.003.02.008.022.005.003.01.013.01.022 0 .01.004.017.009.017.005 0 .009.006.009.013 0 .007.004.02.009.028.017.03.055.118.055.13 0 .006.004.011.01.011.004 0 .008.01.008.022 0 .012.004.022.01.022.004 0 .009.007.009.016 0 .01.004.02.009.023.005.003.009.014.009.026 0 .012.004.021.01.021.004 0 .008.006.008.013 0 .008.004.02.009.029a.68.68 0 0 1 .046.105c0 .015.067.148.075.148.004 0 .008.008.008.017 0 .01.003.018.007.018.003 0 .012.012.02.028.007.015.015.03.018.032a.667.667 0 0 1 .042.074c.02.038.04.07.043.072.004.002.007.01.007.02s.004.017.01.017c.004 0 .008.007.008.017 0 .01.005.017.01.017s.009.008.009.017c0 .009.003.018.007.02a1.561 1.561 0 0 1 .119.225c.006.002.025.035.107.185a.276.276 0 0 0 .035.055c.004.001.007.007.007.013 0 .006.008.02.02.03.016.017.02.037.027.143.01.137.019.203.047.331l.023.115c.002.016.008.03.012.033.005.003.008.018.008.034 0 .016.004.032.01.035.005.003.009.017.009.03 0 .015.004.026.009.026.005 0 .009.014.009.03 0 .017.004.03.01.03.004 0 .008.007.008.014s.004.013.01.013c.005 0 .009.006.009.013 0 .007.003.013.006.013.004 0 .02.024.035.054.015.03.03.056.034.057.004.002.007.01.007.02 0 .009.004.016.01.016.004 0 .008.008.008.018 0 .01.005.017.01.017s.009.007.009.017c0 .009.003.017.007.02a.408.408 0 0 1 .043.071c.02.038.039.072.042.074a.139.139 0 0 1 .018.033c.008.015.017.028.02.028.004 0 .007.007.007.015 0 .009.009.021.019.028.01.007.018.02.018.027 0 .008.003.016.007.018a.329.329 0 0 1 .044.055c.02.028.039.053.043.055.004.001.007.01.007.017 0 .008.008.02.018.027.01.007.018.018.018.024 0 .006.005.011.01.011s.009.005.009.012c0 .006.008.019.017.029a.27.27 0 0 1 .032.042.406.406 0 0 0 .054.077c.009.01.016.021.016.026 0 .006.008.015.018.022.01.007.019.02.019.027 0 .009.003.016.007.018a.328.328 0 0 1 .043.055c.02.029.04.053.043.055.004.001.007.01.007.02 0 .009.004.016.01.016.005 0 .009.01.009.022 0 .012.004.021.009.021.005 0 .009.008.009.018 0 .01.004.017.01.017.004 0 .008.008.008.017 0 .01.005.018.01.018s.009.007.009.017c0 .009.003.019.008.021.004.003.01.015.014.028a.796.796 0 0 0 .052.118.077.077 0 0 1 .008.032c0 .01.004.02.01.022.004.003.008.013.008.022 0 .01.005.017.01.017s.009.012.009.026c0 .014.004.028.009.03.005.003.01.015.01.027 0 .01.003.023.008.026.005.002.01.016.01.03 0 .014.003.027.008.03.004.002.01.015.012.028l.02.085c.026.1.034.137.039.178a.122.122 0 0 0 .013.047c.005.005.008.02.008.036 0 .016.004.03.01.034.005.003.009.018.009.033 0 .016.003.032.008.037.004.004.01.023.013.043a3.89 3.89 0 0 1 .07.512c.013.13.013 1.438 0 1.595a7.743 7.743 0 0 1-.05.478c-.005.006-.06-.015-.06-.023 0-.003-.014-.011-.032-.018-.017-.006-.032-.015-.032-.019 0-.003-.008-.007-.018-.007-.01 0-.018-.003-.018-.007 0-.005-.01-.01-.021-.013a.738.738 0 0 0-.38-.01c-.027.009-.049.019-.049.023s-.006.007-.014.007c-.015 0-.037.017-.104.079a.403.403 0 0 0-.092.104c0 .004-.005.008-.01.008s-.009.006-.009.013c0 .007-.004.013-.009.013-.005 0-.01.006-.01.012 0 .007-.003.014-.007.016a.587.587 0 0 0-.075.149c0 .007-.004.014-.009.014-.005 0-.009.012-.009.026 0 .014-.004.026-.01.026-.004 0-.008.012-.008.026 0 .014-.004.026-.01.026-.004 0-.009.015-.009.033 0 .018-.003.037-.008.041a.111.111 0 0 0-.013.043l-.014.087c-.031.178-.038.659-.011.724l.02.047c.01.025.018.124.023.321.004.162.003.175-.013.192a.224.224 0 0 0-.03.038.263.263 0 0 1-.052.065c-.011.011-.02.024-.02.028s-.009.013-.019.02c-.01.007-.018.017-.018.023 0 .006-.004.011-.01.011a.01.01 0 0 0-.009.01c0 .004-.009.017-.02.028a.733.733 0 0 0-.048.053 1.256 1.256 0 0 1-.07.074 4.065 4.065 0 0 1-.536.494c-.027.022-.059.045-.068.052a1.21 1.21 0 0 1-.042.03.391.391 0 0 0-.037.029c-.006.006-.016.01-.021.01-.006 0-.01.005-.01.01 0 .004-.005.008-.01.008s-.015.005-.022.01a.297.297 0 0 1-.032.025l-.042.028a.08.08 0 0 1-.03.015c-.006 0-.01.004-.01.009 0 .005-.007.008-.014.008-.008 0-.014.004-.014.01 0 .004-.006.008-.014.008s-.014.004-.014.008c0 .005-.003.01-.008.01a.806.806 0 0 0-.123.067 4.05 4.05 0 0 1-.417.192c-.006 0-.01.004-.01.009 0 .005-.011.009-.024.009-.012 0-.023.003-.023.006 0 .004-.02.012-.043.019a.352.352 0 0 0-.053.017.496.496 0 0 1-.06.021 1.798 1.798 0 0 1-.156.049.864.864 0 0 0-.084.027.121.121 0 0 1-.043.008c-.016 0-.028.003-.028.008 0 .004-.015.01-.034.012a2.95 2.95 0 0 0-.145.027 4.709 4.709 0 0 1-.976.094c-.182 0-.263-.004-.527-.025a.239.239 0 0 1-.073-.013c-.004-.004-.024-.008-.043-.008a.42.42 0 0 1-.074-.008l-.121-.027a3.043 3.043 0 0 1-.115-.027.612.612 0 0 0-.062-.013c-.016-.003-.03-.008-.03-.012 0-.005-.01-.008-.023-.008-.012 0-.022-.004-.022-.009 0-.005-.013-.008-.028-.008-.015 0-.027-.004-.027-.01 0-.004-.006-.008-.013-.008a.44.44 0 0 1-.078-.03.523.523 0 0 0-.075-.03.009.009 0 0 1-.009-.01c0-.004-.006-.008-.014-.008s-.023-.008-.034-.017c-.01-.01-.025-.017-.031-.017-.007 0-.012-.004-.012-.01 0-.004-.006-.008-.014-.008s-.014-.003-.014-.007a1.25 1.25 0 0 1-.238-.219c-.005 0-.01-.003-.01-.007a.359.359 0 0 0-.031-.062.289.289 0 0 1-.032-.065c0-.006-.003-.012-.007-.014a.196.196 0 0 1-.03-.046 1.048 1.048 0 0 1-.087-.164c-.022-.047-.012-.06.056-.068a.759.759 0 0 0 .148-.03c.011-.003.02-.008.02-.013 0-.004.009-.007.019-.007s.018-.004.018-.009c0-.004.005-.008.01-.008a.532.532 0 0 0 .148-.104c.029-.027.072-.064.095-.083a.726.726 0 0 0 .16-.169.078.078 0 0 0 .018-.037c0-.008.004-.015.009-.015.005 0 .01-.007.01-.016 0-.008.004-.02.01-.026a.52.52 0 0 0 0-.22.048.048 0 0 1-.01-.03c0-.011-.005-.02-.01-.02s-.01-.008-.01-.018c0-.009-.003-.017-.008-.017s-.01-.008-.01-.017c0-.01-.004-.018-.009-.018a.009.009 0 0 1-.009-.008.379.379 0 0 0-.056-.087.116.116 0 0 1-.016-.024.425.425 0 0 0-.067-.083.15.15 0 0 1-.026-.032.427.427 0 0 0-.074-.084.23.23 0 0 1-.036-.041 9.392 9.392 0 0 0-.536-.495 1.353 1.353 0 0 0-.087-.077 1.9 1.9 0 0 1-.088-.074.599.599 0 0 0-.115-.087.232.232 0 0 0-.042-.027.205.205 0 0 1-.037-.023c-.007-.006-.016-.01-.02-.01-.005 0-.014-.006-.02-.011a.476.476 0 0 0-.097-.059c-.004 0-.014-.008-.02-.017-.008-.01-.021-.018-.03-.018-.01 0-.017-.004-.017-.008 0-.005-.006-.01-.013-.01-.008 0-.014-.003-.014-.008s-.006-.008-.012-.008c-.007 0-.02-.008-.03-.017a.265.265 0 0 0-.05-.031.265.265 0 0 1-.049-.031c-.01-.01-.024-.017-.03-.017-.007 0-.013-.004-.013-.008 0-.005-.006-.01-.013-.01-.008 0-.014-.002-.014-.006s-.01-.012-.023-.018a.188.188 0 0 1-.035-.019.485.485 0 0 0-.087-.052c-.004 0-.013-.007-.02-.017-.007-.01-.017-.017-.023-.017a.092.092 0 0 1-.033-.02 1.344 1.344 0 0 0-.077-.054.843.843 0 0 1-.074-.054.096.096 0 0 0-.027-.02c-.003 0-.01-.005-.017-.01a.572.572 0 0 0-.042-.033 1.818 1.818 0 0 1-.088-.065.473.473 0 0 1-.045-.035.505.505 0 0 0-.05-.039.608.608 0 0 1-.06-.046.706.706 0 0 0-.06-.048 7.143 7.143 0 0 1-.385-.36.168.168 0 0 0-.026-.038.537.537 0 0 1-.065-.097.125.125 0 0 1-.028-.056c0-.008-.004-.014-.009-.014-.005 0-.01-.01-.01-.021 0-.012-.003-.022-.008-.022s-.01-.007-.01-.016a.04.04 0 0 0-.007-.023.283.283 0 0 1-.024-.06.847.847 0 0 1-.042-.147 2.322 2.322 0 0 0-.02-.091 3.112 3.112 0 0 1 0-.495 5.199 5.199 0 0 1 .049-.238l.024-.116c.002-.015.008-.03.012-.033.005-.002.008-.016.008-.03 0-.013.005-.027.01-.03.005-.003.009-.017.009-.03 0-.014.004-.028.009-.03.005-.003.01-.015.01-.027s.003-.028.008-.037c.005-.008.028-.07.051-.136a1.1 1.1 0 0 1 .051-.13c.005-.004.008-.017.008-.028 0-.01.004-.02.01-.02.005 0 .009-.007.009-.017 0-.009.004-.019.009-.022.005-.003.009-.015.009-.026 0-.012.004-.021.01-.021.004 0 .008-.008.008-.017 0-.01.004-.02.01-.022a1.206 1.206 0 0 1 .083-.18.071.071 0 0 0 .008-.028c0-.008.004-.014.01-.014.004 0 .008-.007.008-.017 0-.01.005-.017.01-.017s.009-.01.009-.022c0-.012.004-.022.009-.022.005 0 .01-.005.01-.012 0-.01.053-.13.072-.163a.067.067 0 0 0 .01-.028c0-.008.004-.013.009-.013.005 0 .009-.008.009-.017 0-.01.004-.02.01-.022.004-.003.008-.013.008-.023 0-.009.004-.016.01-.016.004 0 .009-.006.009-.012s.011-.034.026-.063l.061-.125a.442.442 0 0 1 .043-.076c.004-.002.007-.01.007-.02s.004-.017.01-.017c.004 0 .008-.007.008-.017 0-.01.005-.017.01-.017s.009-.008.009-.017c0-.009.003-.018.007-.02a.271.271 0 0 0 .034-.056.19.19 0 0 1 .034-.055c.004 0 .007-.007.007-.017 0-.01.004-.017.01-.017.004 0 .009-.006.009-.013 0-.008.004-.013.009-.013.005 0 .009-.006.009-.014 0-.007.008-.021.018-.032.01-.01.019-.023.019-.03 0-.006.003-.011.007-.011.005 0 .015-.015.024-.033a.317.317 0 0 1 .043-.063.147.147 0 0 0 .026-.036c0-.01.079-.085.09-.085.005 0 .019.012.03.026.018.02.03.026.057.026.019 0 .034.004.034.009 0 .005.006.009.013.009.013 0 .024.017.024.039 0 .007-.013.025-.028.042a.147.147 0 0 0-.027.035.111.111 0 0 1-.028.03c-.015.014-.027.03-.027.035 0 .005-.003.01-.007.01s-.02.019-.035.042a.175.175 0 0 1-.033.044c-.003 0-.01.012-.017.026-.006.014-.015.026-.02.026-.004 0-.007.006-.007.013 0 .007-.004.013-.008.013s-.013.01-.02.024a.281.281 0 0 1-.02.032.85.85 0 0 0-.071.118c0 .005-.005.008-.01.008s-.009.008-.009.017c0 .01-.004.018-.009.018-.005 0-.01.008-.01.017 0 .01-.002.017-.006.017s-.013.013-.02.029a.138.138 0 0 1-.019.032.753.753 0 0 0-.073.144c0 .007-.004.012-.01.012a.01.01 0 0 0-.009.01.193.193 0 0 1-.018.044.184.184 0 0 0-.018.047.412.412 0 0 0-.05.094 5.796 5.796 0 0 1-.052.115.188.188 0 0 0-.017.05c0 .007-.005.013-.01.013s-.009.01-.009.022c0 .012-.004.021-.009.021-.005 0-.01.006-.01.014 0 .007-.003.02-.007.028a3.079 3.079 0 0 0-.085.206.193.193 0 0 1-.019.042c-.004.005-.007.02-.007.033 0 .013-.004.024-.01.024-.004 0-.009.01-.009.021 0 .012-.004.024-.009.027-.005.003-.009.013-.009.022 0 .01-.004.024-.008.032a2.73 2.73 0 0 0-.109.37.104.104 0 0 1-.012.044c-.005.004-.008.024-.008.043 0 .02-.004.04-.009.044a.14.14 0 0 0-.014.052l-.014.104c-.02.15-.029.302-.023.425.005.123.02.22.035.235.003.003.006.017.006.03 0 .014.004.025.01.025.005 0 .009.012.009.026 0 .015.004.026.009.026.005 0 .009.008.009.017 0 .01.004.02.01.022.004.003.008.013.008.022 0 .01.003.017.007.017s.019.021.033.047a.389.389 0 0 0 .043.065 1.539 1.539 0 0 0 .21.2c.006 0 .017.007.025.014s.016.012.018.01a5.327 5.327 0 0 1-.015-.756 6.901 6.901 0 0 1 .089-.527c.002-.018.008-.035.013-.037.004-.003.008-.018.008-.034 0-.017.004-.032.01-.035.004-.003.008-.019.008-.035 0-.016.005-.032.01-.035.005-.003.009-.013.009-.022 0-.017.012-.057.06-.2a.54.54 0 0 0 .022-.08c0-.008.004-.014.01-.014.004 0 .009-.012.009-.026 0-.014.004-.026.009-.026.005 0 .009-.012.009-.026 0-.014.004-.026.009-.026.005 0 .01-.01.01-.02 0-.011.002-.023.005-.026.006-.005.035-.08.058-.146a.922.922 0 0 1 .047-.105.07.07 0 0 0 .008-.028c0-.007.004-.013.01-.013.005 0 .009-.01.009-.022 0-.012.004-.021.009-.021.005 0 .009-.007.009-.014a.07.07 0 0 1 .008-.028 1.92 1.92 0 0 0 .056-.119c.038-.084.041-.091.048-.091.004 0 .007-.008.007-.017 0-.01.004-.02.01-.022.004-.003.008-.013.008-.022 0-.01.005-.017.01-.017s.009-.008.009-.017c0-.01.004-.018.009-.018.005 0 .01-.008.01-.017 0-.01.003-.017.008-.017s.01-.006.01-.012c0-.007.01-.03.022-.053a.194.194 0 0 0 .023-.053c0-.007.004-.012.008-.012s.013-.014.02-.03c.007-.018.016-.031.02-.031s.007-.008.007-.017c0-.01.004-.018.01-.018.005 0 .009-.007.009-.016 0-.01.003-.018.007-.02a.385.385 0 0 0 .044-.072c.02-.038.039-.07.043-.072.003-.002.006-.01.006-.02s.005-.017.01-.017.009-.007.009-.017c0-.01.004-.017.009-.017.005 0 .01-.008.01-.018 0-.01.003-.017.008-.017s.01-.004.01-.01c0-.013.085-.176.093-.18.004 0 .007-.01.007-.019s.004-.016.01-.016c.004 0 .009-.008.009-.018 0-.01.004-.017.009-.017.005 0 .009-.008.009-.017 0-.01.004-.018.01-.018.004 0 .008-.004.008-.01 0-.012.085-.175.094-.18.004 0 .007-.01.007-.019s.004-.016.01-.016c.004 0 .008-.008.008-.018 0-.01.005-.017.01-.017s.009-.008.009-.017c0-.01.004-.018.009-.018.005 0 .01-.004.01-.01-.001-.005.018-.044.04-.087a.444.444 0 0 0 .042-.093c0-.01.004-.02.009-.022.005-.003.009-.022.009-.043 0-.021.004-.04.009-.044.005-.003.01-.024.01-.048 0-.023.003-.043.008-.043s.01-.021.01-.047.004-.05.009-.052c.005-.003.009-.021.009-.04 0-.018.004-.036.009-.038.005-.003.01-.015.01-.027 0-.011.003-.03.007-.04.005-.011.02-.055.034-.098a.576.576 0 0 1 .033-.086.042.042 0 0 0 .008-.024.09.09 0 0 1 .01-.036c.023-.041.026-.05.026-.067 0-.01.004-.017.01-.017.005 0 .009-.007.009-.016 0-.009.002-.018.006-.022a.353.353 0 0 0 .026-.06.6.6 0 0 1 .062-.143c.003-.002.006-.012.006-.024 0-.01.005-.023.01-.025.005-.003.009-.013.009-.023 0-.009.004-.016.009-.016.005 0 .01-.008.01-.017 0-.01.002-.018.006-.02a.839.839 0 0 0 .061-.102.727.727 0 0 1 .07-.117c0-.007.013-.037.03-.067a18.085 18.085 0 0 0 .135-.241l.049-.087c.025-.045.048-.086.053-.09a.04.04 0 0 0 .008-.024c0-.009.004-.016.009-.016.005 0 .009-.008.009-.017 0-.01.004-.018.01-.018.004 0 .008-.005.008-.013 0-.007.004-.02.008-.028a1.432 1.432 0 0 0 .111-.314c0-.014.005-.027.01-.03.005-.003.009-.025.009-.049 0-.023.004-.042.009-.042.005 0 .01-.03.01-.074 0-.04.002-.074.006-.074.005 0 .017.008.028.018.01.01.022.017.025.017.003 0 .015.009.026.02a.82.82 0 0 0 .056.045c.02.014.045.035.056.045.012.011.024.02.026.02.003 0 .02.013.037.028a.795.795 0 0 0 .06.05c.017.012.065.053.106.091.1.094.139.126.15.126.005 0 .01.004.01.008 0 .005.008.01.018.01.01 0 .018.002.018.007 0 .01.11.055.179.074l.083.023a.264.264 0 0 0 .061.008c.019 0 .036.004.04.008a.272.272 0 0 0 .09.01c.047 0 .089.003.094.008.016.015.443-.003.443-.018 0-.005.02-.008.045-.008.025 0 .048-.004.05-.008.004-.004.021-.01.04-.012a1.439 1.439 0 0 0 .3-.086.06.06 0 0 1 .03-.007c.011 0 .02-.004.02-.009 0-.004.011-.008.024-.008.012 0 .023-.004.023-.009 0-.005.008-.009.018-.009.01 0 .018-.004.018-.008 0-.005.007-.009.016-.009a.776.776 0 0 0 .118-.048 1.01 1.01 0 0 1 .113-.047c.005 0 .01-.004.01-.009 0-.005.004-.009.008-.009.011 0 .16-.08.165-.088.001-.004.009-.007.016-.007.007 0 .022-.008.033-.017.01-.01.025-.018.032-.018.006 0 .012-.004.012-.008 0-.005.006-.01.014-.01.007 0 .013-.003.013-.008s.006-.008.012-.008c.007 0 .02-.007.03-.016a.321.321 0 0 1 .053-.032.323.323 0 0 0 .05-.03.24.24 0 0 1 .04-.026c.015-.007.026-.015.026-.02 0-.003.006-.006.014-.006.007 0 .014-.004.014-.01 0-.004.006-.008.013-.008.008 0 .014-.003.014-.007 0-.003.011-.013.025-.02a.376.376 0 0 0 .055-.041.12.12 0 0 1 .04-.027c.004 0 .008-.004.008-.009 0-.005.006-.009.012-.009.007 0 .018-.007.025-.017.007-.01.017-.017.02-.017.005 0 .018-.009.03-.02a.515.515 0 0 1 .09-.065c.014-.008.025-.017.025-.021s.004-.007.01-.007a.126.126 0 0 0 .04-.028.831.831 0 0 1 .084-.063.761.761 0 0 0 .072-.053.169.169 0 0 1 .06-.038.75.75 0 0 1 .058.105Zm2.274 2.893a.12.12 0 0 1 .037.01.9.9 0 0 1 .245.104c.024 0 .157.101.254.193.1.097.184.189.184.204 0 .004.008.013.018.02.01.007.018.017.018.022 0 .005.008.017.017.026.01.01.029.037.043.06a.492.492 0 0 0 .048.072l.023.039.016.024c.01.009.11.218.11.23 0 .007.004.012.01.012.004 0 .008.01.008.022 0 .011.005.023.01.026.005.003.009.015.009.027 0 .011.004.02.009.02.005 0 .01.012.01.026 0 .014.003.028.008.031.005.003.01.015.01.027a.09.09 0 0 0 .008.037.736.736 0 0 1 .028.102c.103.444.101 1.008-.004 1.577a4.99 4.99 0 0 1-.034.17.851.851 0 0 0-.014.075c-.003.02-.008.037-.013.037-.005 0-.008.015-.008.034 0 .02-.004.035-.01.035-.004 0-.009.01-.009.023a.198.198 0 0 1-.008.05 22.325 22.325 0 0 0-.084.263c-.007.018-.005.02.023.02.018 0 .034.004.037.008.003.005.036.009.072.009.037 0 .07.004.075.008a.41.41 0 0 0 .1.013c.21.01.319.023.46.054l.093.018c.016.002.03.008.03.012s.014.008.032.008c.018 0 .032.004.032.008 0 .005.012.01.027.01.016 0 .028.003.028.008s.006.008.014.008.052.017.099.038l.114.05c.016.007.03.015.03.019 0 .003.006.006.013.006.008 0 .014.004.014.009 0 .005.006.008.014.008.007 0 .014.004.014.009 0 .004.009.01.02.014.02.006.245.215.245.228 0 .004.01.018.023.032.013.014.023.03.023.036 0 .006.004.011.01.011.004 0 .008.008.008.017 0 .01.005.018.01.018s.009.007.009.017c0 .009.004.019.009.022.005.003.01.013.01.022 0 .01.003.017.007.017.019 0 .036.187.02.215-.027.05-.12-.005-.12-.07 0-.02-.037-.079-.065-.103-.01-.008-.017-.019-.017-.024 0-.006-.01-.02-.021-.03a.518.518 0 0 1-.052-.067.593.593 0 0 0-.044-.059c-.006-.006-.011-.014-.011-.019a.564.564 0 0 0-.138-.12.009.009 0 0 1-.009-.01c0-.004-.008-.008-.018-.008-.01 0-.019-.004-.019-.008 0-.008-.14-.07-.16-.07-.007 0-.014-.004-.014-.009 0-.005-.01-.008-.022-.008-.012 0-.025-.004-.028-.01-.003-.004-.016-.008-.028-.008s-.023-.004-.023-.008c0-.005-.008-.01-.018-.01-.01 0-.018-.003-.018-.008s-.013-.008-.028-.008c-.015 0-.027-.004-.027-.01 0-.004-.012-.008-.027-.008s-.03-.003-.032-.008c-.003-.004-.019-.01-.035-.012a6.919 6.919 0 0 1-.122-.021c-.258-.048-.607-.06-.742-.027a.763.763 0 0 0-.137.044.048.048 0 0 1-.025.007c-.01 0-.017.004-.017.008 0 .005-.008.01-.018.01-.01 0-.018.003-.018.008s-.009.008-.019.008-.018.004-.018.01c0 .004-.008.008-.018.008-.01 0-.019.003-.019.007s-.014.012-.03.018a.578.578 0 0 0-.117.098 58.58 58.58 0 0 1-.176.174.747.747 0 0 0-.107.119c-.01.007-.019.016-.019.02a.198.198 0 0 1-.033.046c-.034.04-.07.05-.093.028-.014-.013-.015-.103-.002-.103.005 0 .01-.005.01-.012s.002-.014.006-.015a.184.184 0 0 0 .03-.042.54.54 0 0 1 .03-.048.464.464 0 0 0 .052-.08c0-.004.008-.013.019-.02.01-.006.018-.016.018-.022 0-.005.011-.021.025-.035a1.54 1.54 0 0 0 .062-.068.854.854 0 0 1 .147-.139.664.664 0 0 0 .057-.045.123.123 0 0 1 .039-.024c.01-.003.018-.01.018-.014s.006-.008.014-.008.014-.004.014-.009c0-.004.005-.008.013-.008.007 0 .014-.003.016-.007a.48.48 0 0 1 .075-.041c.069-.033.074-.038.09-.078a.742.742 0 0 1 .026-.058.09.09 0 0 0 .009-.037c0-.012.004-.022.009-.022.005 0 .01-.012.01-.026 0-.014.003-.026.008-.026s.01-.008.01-.018c0-.01.003-.024.008-.032a.708.708 0 0 0 .028-.08l.033-.109a3.626 3.626 0 0 0 .068-.262c0-.015.004-.03.01-.032.004-.003.008-.019.008-.035 0-.016.004-.039.008-.05.01-.024.024-.1.043-.24l.023-.174c.012-.087.011-.54 0-.633a3.095 3.095 0 0 0-.047-.3.207.207 0 0 1-.008-.053c0-.015-.004-.03-.01-.033-.005-.003-.009-.02-.009-.04 0-.018-.004-.033-.009-.033-.005 0-.01-.012-.01-.026 0-.014-.003-.028-.008-.03-.005-.004-.01-.016-.01-.027a.09.09 0 0 0-.008-.037 1.752 1.752 0 0 1-.043-.119.652.652 0 0 0-.05-.122.079.079 0 0 0-.008-.03l-.019-.034a.09.09 0 0 1-.009-.035c0-.01-.003-.017-.008-.017-.004 0-.013-.012-.02-.027a1.29 1.29 0 0 0-.128-.19.618.618 0 0 0-.068-.082 2.077 2.077 0 0 0-.238-.217 1.074 1.074 0 0 1-.049-.036.306.306 0 0 0-.047-.03.166.166 0 0 1-.039-.027c-.008-.009-.021-.016-.03-.016-.008 0-.014-.002-.015-.006a.204.204 0 0 0-.057-.033.29.29 0 0 1-.06-.032c-.002-.004-.011-.007-.02-.007-.01 0-.018-.003-.018-.008s-.009-.009-.02-.009c-.051 0-.06-.061-.016-.114.023-.027.033-.033.049-.029.01.003.031.008.046.01Zm-9.208 4.168c.016.004.03.01.03.014s.012.008.027.008.027.004.027.009c0 .004.01.008.023.008s.023.004.023.009c0 .005.006.009.014.009a.88.88 0 0 1 .177.088c.002.004.01.007.019.007.008 0 .021.008.029.017.007.01.017.018.022.018a.11.11 0 0 1 .037.022l.058.045c.017.013.045.036.062.052a.17.17 0 0 0 .036.028c.012 0 .17.16.243.248.025.03.1.142.1.149 0 .004.009.012.019.02.01.006.018.018.018.025 0 .008.008.02.019.026.01.007.018.016.018.02 0 .007.046.076.055.084a.331.331 0 0 1 .028.044c.012.021.025.04.03.042.003.001.006.008.006.015 0 .007.004.012.01.012.004 0 .008.008.008.017 0 .009.004.018.008.02a.993.993 0 0 1 .093.155c0 .004.004.008.01.008.004 0 .009.007.009.017 0 .01.004.017.009.017.005 0 .009.006.009.013 0 .007.004.013.009.013.005 0 .01.008.01.017 0 .009.002.018.006.02a.244.244 0 0 1 .034.05.899.899 0 0 0 .043.07.09.09 0 0 1 .017.033c0 .005.004.01.01.01.004 0 .008.006.008.013 0 .007.009.022.019.032.01.01.018.024.018.03 0 .006.004.011.01.011.004 0 .008.004.008.008 0 .008.058.103.073.12.006.006.01.014.01.02 0 .004.003.008.007.008.005 0 .014.011.021.024.007.013.02.03.03.038.008.008.015.02.015.028s.003.014.007.014.017.015.03.032c.012.018.032.041.043.052.012.01.021.024.021.03 0 .004.01.018.02.029.012.01.038.042.058.07a.81.81 0 0 0 .057.07c.011.01.02.024.02.03a.01.01 0 0 0 .01.008.01.01 0 0 1 .01.01c0 .005.004.014.01.02.007.006.02.022.03.035a.615.615 0 0 1 .06.076c.013.018.026.033.03.033.003 0 .007.004.007.009 0 .005.01.018.022.03.013.012.023.026.023.03s.006.013.012.019a.663.663 0 0 1 .039.046c.015.02.034.041.043.049.01.008.016.018.016.024 0 .005.005.01.01.01s.009.004.009.01c0 .007.008.017.018.024.01.007.018.016.018.02s.005.012.01.017c.035.04.045.053.045.06 0 .003.01.016.023.028s.023.026.023.03a.01.01 0 0 0 .01.01c.004 0 .009.006.009.013 0 .007.004.013.009.013.005 0 .009.005.009.012s.003.014.008.015c.01.004.111.142.111.152 0 .005.008.013.018.02.01.007.019.02.019.027 0 .009.003.017.007.018.01.004.093.127.093.138 0 .004.005.008.01.008s.009.006.009.013c0 .007.004.013.009.013.005 0 .01.006.01.013 0 .007.002.013.006.013s.013.013.02.028c.007.016.016.03.019.033.003.002.026.04.05.082.024.043.048.08.052.081.004.002.008.01.008.019s.003.017.007.019c.008.003.094.169.094.18 0 .005.004.009.009.009.005 0 .01.008.01.017 0 .01.003.018.008.018s.01.01.01.021c0 .012.004.022.009.022.005 0 .009.005.009.011 0 .007.008.028.018.048.01.02.018.041.018.049 0 .007.004.013.007.013.004 0 .02.037.035.083.015.045.03.082.034.082.004 0 .007.012.007.026 0 .014.004.027.01.03.004.003.008.017.008.031 0 .014.004.026.01.026.004 0 .009.013.009.03 0 .016.003.032.008.034.004.003.01.02.013.038l.015.076c.034.152.048.446.027.59-.01.072-.044.177-.056.177-.004 0-.007.005-.007.011 0 .006-.009.017-.019.024-.01.006-.018.015-.018.02a2.15 2.15 0 0 1-.228.212.668.668 0 0 1-.08.058.47.47 0 0 0-.066.05c-.002.003-.011.006-.021.006-.01 0-.018.004-.018.008s-.007.01-.016.013a.405.405 0 0 0-.052.025.957.957 0 0 1-.101.045 1.563 1.563 0 0 0-.08.032.091.091 0 0 1-.034.008c-.01 0-.02.003-.024.008-.003.005-.017.009-.03.009-.014 0-.03.003-.034.008-.01.008-.042.013-.174.027a.97.97 0 0 1-.266 0 3.685 3.685 0 0 0-.103-.015c-.021-.003-.039-.008-.039-.012 0-.005-.016-.008-.036-.008-.02 0-.037-.004-.037-.009 0-.005-.014-.009-.032-.009-.018 0-.032-.003-.032-.007 0-.005-.014-.01-.03-.012a1.22 1.22 0 0 1-.183-.05.087.087 0 0 0-.034-.009c-.01 0-.02-.004-.024-.008-.003-.005-.017-.009-.032-.009s-.027-.004-.027-.009c0-.004-.012-.008-.028-.008-.015 0-.027-.004-.027-.009 0-.005-.012-.009-.028-.009-.015 0-.027-.004-.027-.008 0-.005-.008-.009-.019-.009a.093.093 0 0 1-.034-.008 1.166 1.166 0 0 0-.094-.03 1.074 1.074 0 0 1-.094-.032.081.081 0 0 0-.03-.008.1.1 0 0 1-.034-.01c-.044-.022-.053-.025-.07-.025-.01 0-.02-.003-.02-.008s-.012-.009-.027-.009-.027-.004-.027-.009c0-.004-.01-.008-.023-.008s-.023-.004-.023-.009c0-.005-.008-.009-.018-.009a.09.09 0 0 1-.035-.008 1.023 1.023 0 0 0-.09-.03 1 1 0 0 1-.088-.031.086.086 0 0 0-.034-.009c-.01 0-.02-.004-.024-.008-.003-.005-.013-.009-.023-.009s-.018-.004-.018-.009c0-.005-.012-.008-.027-.008-.016 0-.028-.004-.028-.01 0-.004-.006-.008-.014-.008s-.082-.021-.164-.047a1.927 1.927 0 0 0-.165-.048c-.008 0-.014-.004-.014-.009 0-.005-.013-.008-.028-.008-.015 0-.027-.004-.027-.01 0-.004-.013-.008-.027-.008-.015 0-.03-.004-.033-.009-.003-.004-.018-.008-.033-.008-.014 0-.027-.004-.027-.009 0-.005-.008-.009-.017-.009a.64.64 0 0 1-.094-.022 3.9 3.9 0 0 0-.113-.03.353.353 0 0 1-.053-.018.121.121 0 0 0-.043-.008c-.015 0-.028-.003-.028-.008s-.012-.009-.027-.009-.03-.004-.032-.008c-.004-.005-.022-.01-.042-.01-.02 0-.036-.003-.036-.007s-.014-.01-.03-.012a1.26 1.26 0 0 0-.433-.09.123.123 0 0 1-.046-.012c-.004-.005-.026-.008-.048-.008-.021 0-.039-.004-.039-.009 0-.005-.022-.009-.049-.009a.142.142 0 0 1-.057-.008.158.158 0 0 0-.054-.012 2.025 2.025 0 0 1-.097-.013 5.696 5.696 0 0 1-.275-.041 2.847 2.847 0 0 0-.123-.018.247.247 0 0 1-.055-.012.287.287 0 0 0-.055-.012l-.071-.01c-.02-.003-.035-.009-.035-.013 0-.005-.016-.008-.036-.008-.02 0-.037-.004-.037-.009 0-.004-.01-.008-.023-.008a.153.153 0 0 1-.043-.008 2.046 2.046 0 0 1-.239-.08.08.08 0 0 0-.03-.008c-.007 0-.013-.004-.013-.008 0-.005-.009-.009-.019-.009s-.018-.004-.018-.009c0-.004-.006-.008-.014-.008-.007 0-.013-.004-.013-.01 0-.004-.009-.008-.019-.008s-.018-.003-.018-.007-.01-.012-.022-.017c-.045-.02-.152-.118-.152-.14 0-.005-.004-.01-.01-.01-.004 0-.009-.007-.009-.017 0-.009-.004-.017-.009-.017-.005 0-.009-.03-.009-.073 0-.044.004-.074.01-.074.004 0 .008-.016.008-.035 0-.019.005-.035.01-.035s.009-.007.009-.017c0-.01.004-.025.009-.035l.018-.034a.08.08 0 0 0 .01-.03c0-.008.003-.014.009-.014.005 0 .009-.005.009-.012 0-.016.047-.112.057-.116.004-.002.007-.01.007-.02 0-.009.004-.016.009-.016.005 0 .01-.008.01-.018 0-.01.002-.017.006-.017s.013-.013.02-.028a.158.158 0 0 1 .018-.033.432.432 0 0 0 .052-.087.578.578 0 0 1 .031-.052.35.35 0 0 0 .046-.091c0-.007.003-.012.007-.012s.012-.013.018-.029l.03-.08c.033-.087.058-.18.062-.228.002-.025.008-.045.012-.045.011 0 .011-.393 0-.404a.166.166 0 0 1-.013-.06 2.989 2.989 0 0 0-.062-.338 1.563 1.563 0 0 1-.032-.18c-.003-.028-.01-.052-.014-.055-.004-.002-.008-.032-.008-.065 0-.036-.003-.06-.01-.06-.016 0 .002-.272.02-.29.005-.005.009-.017.009-.028 0-.01.004-.03.01-.043a1.16 1.16 0 0 1 .12-.228c.004 0 .007-.005.007-.011 0-.027.094-.12.12-.12.01 0 .018-.004.018-.008 0-.005.01-.009.022-.009.012 0 .025-.004.028-.009.003-.004.02-.008.035-.008.017 0 .034-.004.039-.008.009-.008.039-.013.164-.027.04-.005.224-.012.408-.017.264-.006.347-.01.394-.022l.09-.02c.016-.002.03-.007.03-.011 0-.005.012-.008.027-.008s.027-.004.027-.009c0-.004.01-.008.023-.008s.023-.004.023-.009c0-.005.007-.009.015-.009.022 0 .088-.068.11-.112a.609.609 0 0 0 .035-.122c.03-.162.05-.242.062-.242.004 0 .007-.01.007-.022 0-.012.004-.022.01-.022.005 0 .009-.008.009-.017 0-.01.004-.018.009-.018.005 0 .009-.007.009-.016 0-.01.003-.018.007-.02a.29.29 0 0 0 .039-.05c.037-.055.083-.1.11-.108.01-.004.018-.01.018-.014 0-.009.16-.086.18-.086.007 0 .013-.004.013-.01 0-.004.012-.008.027-.008.014 0 .03-.004.032-.008.003-.005.018-.01.033-.01.015 0 .027-.003.027-.008s.013-.008.03-.008a.103.103 0 0 0 .043-.01.405.405 0 0 1 .154.005Zm8.819.325c0 .005.012.01.027.01s.028.003.028.008.008.008.018.008c.01 0 .019.004.019.01a.747.747 0 0 1 .151.108.35.35 0 0 1 .044.12c.014.058.03.112.034.12a.089.089 0 0 1 .009.036c0 .012.004.024.009.027.005.003.01.015.01.026s.003.023.008.026c.005.003.01.015.01.026s.004.023.009.026c.005.003.009.015.009.026 0 .012.003.022.007.022.003 0 .012.015.018.033a.927.927 0 0 0 .094.188c0 .007.004.013.01.013.004 0 .008.006.008.013 0 .007.004.013.008.013.005 0 .013.01.019.024.011.026.185.193.201.193.006 0 .01.003.01.007s.017.014.037.023c.02.008.037.019.037.023s.008.007.018.007c.01 0 .019.004.019.009 0 .005.008.009.018.009.01 0 .018.003.018.008s.01.009.023.009.023.004.023.009c0 .004.008.008.018.008.01 0 .02.004.023.009.003.005.018.009.032.009.015 0 .029.003.032.007.003.005.02.01.04.013l.135.019c.144.02.359.02.435 0a1.1 1.1 0 0 1 .09-.02c.016-.002.029-.007.029-.012 0-.004.01-.007.022-.007.013 0 .025-.004.028-.009.004-.005.016-.009.028-.009.013 0 .023-.004.023-.008 0-.005.008-.01.018-.01.01 0 .019-.003.019-.008s.007-.008.017-.008c.01 0 .019-.003.02-.007a.224.224 0 0 1 .054-.028.309.309 0 0 0 .07-.041.095.095 0 0 1 .026-.02c.003 0 .02-.013.039-.03a.176.176 0 0 1 .04-.03c.004 0 .013-.005.02-.012a1.185 1.185 0 0 0 .222-.201c.03-.037.25-.245.303-.286.046-.036.142-.123.142-.13 0-.006.032-.036.072-.067a.289.289 0 0 1 .162-.057l.065-.004.024.044a.368.368 0 0 1 .052.142c0 .014.005.024.01.024s.009.014.009.03.004.032.009.035c.005.003.01.02.01.035 0 .017.003.03.008.03s.01.01.01.021c0 .012.003.024.007.026.005.003.01.027.014.055.003.027.01.07.014.093l.029.152a.92.92 0 0 0 .028.123.102.102 0 0 1 .008.041c0 .015.004.027.01.027.005 0 .009.012.009.026 0 .014.004.026.009.026.005 0 .009.012.009.026 0 .014.004.026.01.026.004 0 .008.007.008.016 0 .009.006.027.013.041l.061.123a.499.499 0 0 0 .056.097c.004 0 .008.008.008.018 0 .01.004.017.009.017.005 0 .01.006.01.013 0 .007.003.013.008.013.004 0 .01.007.014.016a.12.12 0 0 0 .02.034c.01.01.025.028.034.041.028.035.043.05.097.091a.891.891 0 0 1 .065.054c.009.009.018.016.021.016.004 0 .017.008.029.02.03.026.039.032.091.066a.27.27 0 0 1 .05.037c.001.003.01.007.02.007.008 0 .017.003.019.006a.51.51 0 0 0 .136.06.37.37 0 0 1 .055.02.46.46 0 0 0 .05.026.208.208 0 0 1 .05.028c0 .004.01.007.02.007s.017.003.017.007.02.018.044.03a.536.536 0 0 1 .076.05.146.146 0 0 0 .04.026c.004 0 .045.037.091.081.082.08.143.165.143.197 0 .01.005.016.01.016s.009.012.009.027c0 .014.004.026.009.026.005 0 .01.033.01.081a.238.238 0 0 1-.01.088c-.005.003-.01.02-.01.04 0 .018-.003.033-.008.033s-.01.007-.01.015a.532.532 0 0 1-.082.162c0 .012-.043.05-.085.073-.014.008-.025.017-.025.021s-.006.007-.014.007c-.007 0-.014.003-.014.006 0 .004-.009.011-.02.016a2.144 2.144 0 0 0-.057.028 1.157 1.157 0 0 1-.22.088c-.003.005-.014.01-.024.01a.1.1 0 0 0-.036.008l-.036.017a.092.092 0 0 1-.032.009c-.008 0-.014.004-.014.009 0 .004-.007.008-.014.008a.085.085 0 0 0-.03.008 3.543 3.543 0 0 1-.146.063c-.017.006-.03.015-.03.018 0 .004-.009.007-.019.007s-.018.003-.018.008-.008.009-.018.009c-.01 0-.019.004-.019.009 0 .004-.006.008-.013.008a.29.29 0 0 0-.066.027c-.137.07-.173.09-.176.096-.001.004-.01.007-.02.007s-.018.004-.018.009c0 .005-.008.009-.018.009-.01 0-.018.003-.02.006a.462.462 0 0 1-.076.04.725.725 0 0 0-.078.04.154.154 0 0 1-.035.018c-.016.007-.03.016-.03.02 0 .003-.006.006-.013.006a.067.067 0 0 0-.033.015.842.842 0 0 1-.113.068.287.287 0 0 0-.045.03c-.01.01-.024.017-.031.017-.007 0-.012.004-.012.008 0 .005-.006.01-.013.01-.007 0-.014.002-.016.006a.525.525 0 0 1-.067.05.73.73 0 0 0-.08.058c-.007.008-.019.015-.025.015-.006 0-.025.014-.043.03a.172.172 0 0 1-.038.031.249.249 0 0 0-.048.035.227.227 0 0 1-.048.034.271.271 0 0 0-.052.042.987.987 0 0 1-.074.063 1.281 1.281 0 0 0-.073.06l-.078.065a1.272 1.272 0 0 0-.065.054.181.181 0 0 1-.036.028.28.28 0 0 0-.045.037c-.023.02-.056.049-.074.063a2.146 2.146 0 0 0-.08.067.333.333 0 0 1-.054.041.406.406 0 0 0-.088.07.25.25 0 0 1-.044.035.165.165 0 0 0-.036.028.68.68 0 0 1-.102.084.195.195 0 0 0-.04.033 1.013 1.013 0 0 1-.079.067.746.746 0 0 0-.06.05c-.008.008-.02.015-.026.015-.005 0-.01.004-.01.009 0 .005-.004.008-.01.008-.005 0-.018.008-.028.017a.227.227 0 0 1-.048.03l-.072.032c-.024.01-.044.022-.044.026 0 .005-.004.008-.01.008-.004 0-.019.01-.032.022-.012.012-.026.021-.03.021-.005 0-.014.005-.02.011a.642.642 0 0 1-.118.076.009.009 0 0 0-.01.009c0 .005-.008.008-.018.008-.01 0-.018.004-.018.01 0 .004-.008.008-.018.008-.01 0-.02.004-.023.008-.004.005-.015.01-.027.01a.057.057 0 0 0-.029.006c-.013.011-.077.027-.325.08-.032.008-.119.011-.238.011a1.305 1.305 0 0 1-.49-.072.324.324 0 0 0-.053-.018c-.024-.006-.044-.015-.044-.018 0-.004-.008-.007-.018-.007-.01 0-.018-.004-.018-.009 0-.005-.006-.009-.013-.009a.723.723 0 0 1-.227-.13 1.091 1.091 0 0 1-.198-.18.534.534 0 0 1-.053-.058.919.919 0 0 0-.043-.051c-.009-.01-.016-.022-.016-.029 0-.006-.004-.011-.01-.011-.004 0-.009-.006-.009-.012 0-.007-.003-.014-.006-.015a.206.206 0 0 1-.031-.047c-.026-.046-.026-.05 0-.182.007-.029.014-.074.016-.102.003-.027.008-.05.013-.05.005 0 .008-.021.008-.047s.005-.048.01-.048.009-.02.009-.043c0-.024.004-.044.009-.044.005 0 .01-.02.01-.046 0-.025.003-.05.007-.054.014-.013.02-.082.028-.316.008-.24.027-.389.057-.455a.397.397 0 0 0 .012-.082c.007-.103.015-.157.024-.157.005 0 .009-.015.009-.034 0-.018.004-.036.009-.04.005-.002.009-.017.009-.033 0-.015.004-.032.009-.036.006-.006.01-.426.012-1.17.004-1.138.006-1.222.034-1.343a.608.608 0 0 1 .056-.18.074.074 0 0 0 .008-.029c0-.007.004-.013.01-.013.004 0 .008-.008.008-.018 0-.009.005-.017.01-.017s.009-.006.009-.013c0-.016.02-.04.074-.09.055-.052.069-.062.085-.062.008 0 .016-.004.02-.008.003-.005.017-.009.032-.009s.027-.004.027-.009c0-.005.032-.008.078-.008s.078.003.078.008Z" fill="#7B7B7B"/></svg>