<svg width="74" height="102" viewBox="0 0 74 102" fill="none" xmlns="http://www.w3.org/2000/svg">
<path d="M61.6923 101H6.364C3.4136 101 1 98.6284 1 95.7293V20.0321C1 17.1331 3.4136 14.7615 6.364 14.7615H61.6911C64.6414 14.7615 67.055 17.1331 67.055 20.0321V95.7281C67.0564 98.6284 64.6427 101 61.6923 101Z" fill="white" stroke="#5C3BFE" stroke-miterlimit="10"/>
<path d="M67.3322 94.1108H13.3998C10.5238 94.1108 8.17111 91.7672 8.17111 88.9024V14.0992C8.17111 11.2343 10.5238 8.89075 13.3998 8.89075H67.331C70.2069 8.89075 72.5596 11.2343 72.5596 14.0992V88.9012C72.5609 91.7672 70.2082 94.1108 67.3322 94.1108Z" fill="#5C3BFE" stroke="#5C3BFE" stroke-miterlimit="10"/>
<path d="M62.7351 89.0734H18.165C15.7883 89.0734 13.844 86.9793 13.844 84.4195V17.5805C13.844 15.0207 15.7883 12.9266 18.165 12.9266H62.734C65.1107 12.9266 67.055 15.0207 67.055 17.5805V84.4184C67.0561 86.9793 65.1118 89.0734 62.7351 89.0734Z" fill="#5C3BFE" stroke="white" stroke-miterlimit="10"/>
<path d="M21 54H60" stroke="white" stroke-width="2" stroke-linecap="round"/>
<path d="M21 62H60" stroke="white" stroke-width="2" stroke-linecap="round"/>
<path d="M21 70H39" stroke="white" stroke-width="2" stroke-linecap="round"/>
<path d="M44 70H46" stroke="white" stroke-width="2" stroke-linecap="round"/>
<path d="M53.8949 5.29973H47.5075V4.88347C47.5088 2.7468 45.8044 1 43.7206 1H37.0127C34.9301 1 33.2245 2.7468 33.2245 4.88221V5.29847H26.8371C25.2509 5.29847 23.9526 6.62901 23.9526 8.25509V12.5624C23.9526 14.1884 25.2509 15.519 26.8371 15.519H53.8936C55.4798 15.519 56.7781 14.1884 56.7781 12.5624V8.25635C56.7806 6.63027 55.4823 5.29973 53.8949 5.29973Z" fill="white" stroke="#5C3BFE"/>
<path fill-rule="evenodd" clip-rule="evenodd" d="M33.8041 26.4846C33.8041 25.658 33.1446 24.9879 32.3312 24.9879H27.3703C26.5569 24.9879 25.8974 25.658 25.8974 26.4846V31.0136H21.638C20.8245 31.0136 20.1651 31.6837 20.1651 32.5103V37.5511C20.1651 38.3777 20.8245 39.0478 21.638 39.0478H25.8974V43.3759C25.8974 44.2025 26.5569 44.8726 27.3703 44.8726H32.3312C33.1446 44.8726 33.8041 44.2025 33.8041 43.3759V39.0478H38.2612C39.0747 39.0478 39.7341 38.3777 39.7341 37.5511V32.5103C39.7341 31.6837 39.0747 31.0136 38.2612 31.0136L33.8041 31.0136V26.4846Z" fill="white"/>
</svg>
