<svg width="148" height="117" viewBox="0 0 148 117" fill="none" xmlns="http://www.w3.org/2000/svg">
<path d="M43 13.0806C43 9.72237 45.7151 7 49.0644 7H92.9676C96.3169 7 99.032 9.72237 99.032 13.0806V103.919C99.032 107.278 96.3169 110 92.9676 110H49.0644C45.7151 110 43 107.278 43 103.919V13.0806Z" fill="white" stroke="#5C3BFE"/>
<path fill-rule="evenodd" clip-rule="evenodd" d="M58.4453 13.5089C58.4453 12.6446 57.745 11.944 56.8811 11.944H52.6366C50.045 11.944 47.944 14.0459 47.944 16.6387V100.361C47.944 102.954 50.045 105.056 52.6366 105.056H89.3954C91.9871 105.056 94.088 102.954 94.088 100.361V16.6387C94.088 14.0459 91.9871 11.944 89.3954 11.944H85.0368C84.1729 11.944 83.4726 12.6446 83.4726 13.5089V14.5177C83.4726 15.9208 82.3356 17.0583 80.9331 17.0583H60.9848C59.5823 17.0583 58.4453 15.9208 58.4453 14.5177V13.5089Z" fill="#5C3BFE"/>
<path d="M56.3519 31.7963H85.9167" stroke="white" stroke-width="2" stroke-linecap="round"/>
<path d="M56 39H77" stroke="white" stroke-width="2" stroke-linecap="round"/>
<path d="M83 39H85" stroke="white" stroke-width="2" stroke-linecap="round"/>
<circle cx="64.4242" cy="11.9442" r="1.64825" fill="#5C3BFE"/>
<circle cx="94" cy="71" r="23" fill="white"/>
<path d="M94.0152 71.0152H83.4349H76.2597H72.1553H71" stroke="#5C3BFE" stroke-miterlimit="10" stroke-linecap="round" stroke-linejoin="round"/>
<path d="M93.9848 71.0152H104.565H111.74H115.845H117" stroke="#5C3BFE" stroke-miterlimit="10" stroke-linecap="round" stroke-linejoin="round"/>
<path d="M94.0152 71.0152H83.4349H76.2597H72.1553H71" stroke="#5C3BFE" stroke-miterlimit="10" stroke-linecap="round" stroke-linejoin="round"/>
<path d="M93.9848 71.0152H104.565H111.74H115.845H117" stroke="#5C3BFE" stroke-miterlimit="10" stroke-linecap="round" stroke-linejoin="round"/>
<path d="M94.0152 94.0303C91.3397 94.0303 88.7554 93.5743 86.3536 92.723C84.955 92.2365 83.6477 91.6285 82.4012 90.8988C81.5499 90.3819 80.729 89.8347 79.9385 89.2266C78.388 88.0409 77.0198 86.6424 75.8341 85.1222C75.226 84.3317 74.6788 83.5108 74.1619 82.6595C72.1553 79.2544 71 75.2716 71 71.0152" stroke="#5C3BFE" stroke-miterlimit="10" stroke-linecap="round" stroke-linejoin="round"/>
<path d="M93.9848 94.0303C96.6602 94.0303 99.2445 93.5743 101.646 92.723C103.045 92.2365 104.352 91.6285 105.599 90.8988C106.45 90.3819 107.271 89.8347 108.061 89.2266C109.612 88.0409 110.98 86.6424 112.166 85.1222C112.774 84.3317 113.321 83.5108 113.838 82.6595C115.845 79.2544 117 75.2716 117 71.0152" stroke="#5C3BFE" stroke-miterlimit="10" stroke-linecap="round" stroke-linejoin="round"/>
<path d="M94.0152 48C91.3397 48 88.7554 48.456 86.3536 49.3073C84.955 49.7938 83.6477 50.4018 82.4012 51.1315C81.5499 51.6484 80.729 52.1956 79.9385 52.8037C78.388 53.9894 77.0198 55.3879 75.8341 56.9081C75.226 57.6986 74.6788 58.5195 74.1619 59.3708C72.1553 62.7759 71 66.7587 71 71.0152" stroke="#5C3BFE" stroke-miterlimit="10" stroke-linecap="round" stroke-linejoin="round"/>
<path d="M93.9848 48C96.6602 48 99.2445 48.456 101.646 49.3073C103.045 49.7938 104.352 50.4018 105.599 51.1315C106.45 51.6484 107.271 52.1956 108.061 52.8037C109.612 53.9894 110.98 55.3879 112.166 56.9081C112.774 57.6986 113.321 58.5195 113.838 59.3708C115.845 62.7759 117 66.7587 117 71.0152" stroke="#5C3BFE" stroke-miterlimit="10" stroke-linecap="round" stroke-linejoin="round"/>
<path d="M83.4349 71.0152C83.4349 74.6939 83.6781 78.0687 84.0429 81.0178C84.347 83.6324 84.7422 85.8823 85.107 87.7065C85.5023 89.6219 85.8671 91.0812 86.0799 91.9021C86.2016 92.3885 86.2928 92.6622 86.3232 92.723" stroke="#5C3BFE" stroke-miterlimit="10" stroke-linecap="round" stroke-linejoin="round"/>
<path d="M104.565 71.0152C104.565 74.6939 104.322 78.0687 103.957 81.0178C103.653 83.6324 103.258 85.8823 102.893 87.7065C102.498 89.6219 102.133 91.0812 101.92 91.9021C101.798 92.3885 101.707 92.6622 101.677 92.723" stroke="#5C3BFE" stroke-miterlimit="10" stroke-linecap="round" stroke-linejoin="round"/>
<path d="M83.4349 71.0152C83.4349 67.3364 83.6781 63.9616 84.0429 61.0125C84.347 58.3979 84.7422 56.148 85.107 54.3238C85.5023 52.4084 85.8671 50.9491 86.0799 50.1282C86.2016 49.6418 86.2928 49.3681 86.3232 49.3073" stroke="#5C3BFE" stroke-miterlimit="10" stroke-linecap="round" stroke-linejoin="round"/>
<path d="M104.565 71.0152C104.565 67.3364 104.322 63.9616 103.957 61.0125C103.653 58.3979 103.258 56.148 102.893 54.3238C102.498 52.4084 102.133 50.9491 101.92 50.1282C101.798 49.6418 101.707 49.3681 101.677 49.3073" stroke="#5C3BFE" stroke-miterlimit="10" stroke-linecap="round" stroke-linejoin="round"/>
<path d="M75.6927 71.0152C75.6927 74.0244 75.9802 76.686 76.6639 79.8717C77.2291 82.5051 77.7415 84.019 78.2849 85.552C78.8283 87.0849 79.8778 89.0746 79.9082 89.1962" stroke="#5C3BFE" stroke-miterlimit="10" stroke-linecap="round" stroke-linejoin="round"/>
<path d="M112.307 71.0152C112.307 74.0244 112.02 76.686 111.336 79.8717C110.771 82.5051 110.259 84.019 109.715 85.552C109.172 87.0849 108.122 89.0746 108.092 89.1962" stroke="#5C3BFE" stroke-miterlimit="10" stroke-linecap="round" stroke-linejoin="round"/>
<path d="M75.6927 71.0152C75.6927 68.0059 75.9802 65.3443 76.6639 62.1586C77.2291 59.5252 77.7415 58.0113 78.2849 56.4784C78.8283 54.9454 79.8778 52.9557 79.9082 52.8341" stroke="#5C3BFE" stroke-miterlimit="10" stroke-linecap="round" stroke-linejoin="round"/>
<path d="M112.307 71.0152C112.307 68.0059 112.02 65.3443 111.336 62.1586C110.771 59.5252 110.259 58.0113 109.715 56.4784C109.172 54.9454 108.122 52.9557 108.092 52.8341" stroke="#5C3BFE" stroke-miterlimit="10" stroke-linecap="round" stroke-linejoin="round"/>
<path d="M72.3074 78.6768C72.3074 78.6768 72.6418 78.7984 73.2803 78.9808C74.1012 79.224 75.4693 79.5889 77.2935 79.9537C79.0873 80.3185 81.3675 80.7138 84.043 81.0178C86.9009 81.3522 90.2452 81.5651 94.0152 81.5651" stroke="#5C3BFE" stroke-miterlimit="10" stroke-linecap="round" stroke-linejoin="round"/>
<path d="M115.693 78.6768C115.693 78.6768 115.358 78.7984 114.72 78.9808C113.899 79.224 112.531 79.5889 110.707 79.9537C108.913 80.3185 106.632 80.7138 103.957 81.0178C101.099 81.3522 97.7548 81.5651 93.9848 81.5651" stroke="#5C3BFE" stroke-miterlimit="10" stroke-linecap="round" stroke-linejoin="round"/>
<path d="M72.3074 63.3535C72.3074 63.3535 72.6418 63.2319 73.2803 63.0495C74.1012 62.8063 75.4693 62.4414 77.2935 62.0766C79.0873 61.7118 81.3675 61.3165 84.043 61.0125C86.9009 60.6781 90.2452 60.4652 94.0152 60.4652" stroke="#5C3BFE" stroke-miterlimit="10" stroke-linecap="round" stroke-linejoin="round"/>
<path d="M115.693 63.3535C115.693 63.3535 115.358 63.2319 114.72 63.0495C113.899 62.8063 112.531 62.4414 110.707 62.0766C108.913 61.7118 106.632 61.3165 103.957 61.0125C101.099 60.6781 97.7548 60.4652 93.9848 60.4652" stroke="#5C3BFE" stroke-miterlimit="10" stroke-linecap="round" stroke-linejoin="round"/>
<path d="M75.8982 85.1369C75.8982 85.1369 76.9047 85.6598 78.8744 86.4171C80.6902 87.1151 82.7052 87.7904 85.1071 88.3073C87.9042 88.8849 91.0357 89.2111 93.9848 89.2111" stroke="#5C3BFE" stroke-miterlimit="10" stroke-linecap="round" stroke-linejoin="round"/>
<path d="M112.102 85.1369C112.102 85.1369 111.095 85.6598 109.126 86.4171C107.31 87.1151 105.295 87.7904 102.893 88.3073C100.096 88.8849 96.9644 89.2111 94.0153 89.2111" stroke="#5C3BFE" stroke-miterlimit="10" stroke-linecap="round" stroke-linejoin="round"/>
<path d="M75.8982 56.8934C75.8982 56.8934 76.9047 56.3705 78.8744 55.6132C80.6902 54.9152 82.7052 54.2399 85.1071 53.723C87.9042 53.1454 91.0357 52.8193 93.9848 52.8193" stroke="#5C3BFE" stroke-miterlimit="10" stroke-linecap="round" stroke-linejoin="round"/>
<path d="M112.102 56.8934C112.102 56.8934 111.095 56.3705 109.126 55.6132C107.31 54.9152 105.295 54.2399 102.893 53.723C100.096 53.1454 96.9644 52.8193 94.0153 52.8193" stroke="#5C3BFE" stroke-miterlimit="10" stroke-linecap="round" stroke-linejoin="round"/>
<path d="M94.0151 94.0303V71.0152" stroke="#5C3BFE" stroke-miterlimit="10" stroke-linecap="round" stroke-linejoin="round"/>
<path d="M93.9848 94.0303V71.0152" stroke="#5C3BFE" stroke-miterlimit="10" stroke-linecap="round" stroke-linejoin="round"/>
<path d="M94.0151 48V71.0152" stroke="#5C3BFE" stroke-miterlimit="10" stroke-linecap="round" stroke-linejoin="round"/>
<path d="M93.9848 48V71.0152" stroke="#5C3BFE" stroke-miterlimit="10" stroke-linecap="round" stroke-linejoin="round"/>
<path d="M93.9846 94.0303V71.0152" stroke="#5C3BFE" stroke-miterlimit="10" stroke-linecap="round" stroke-linejoin="round"/>
<path d="M94.0153 94.0303V71.0152" stroke="#5C3BFE" stroke-miterlimit="10" stroke-linecap="round" stroke-linejoin="round"/>
<path d="M93.9846 48V71.0152" stroke="#5C3BFE" stroke-miterlimit="10" stroke-linecap="round" stroke-linejoin="round"/>
<path d="M94.0153 48V71.0152" stroke="#5C3BFE" stroke-miterlimit="10" stroke-linecap="round" stroke-linejoin="round"/>
</svg>
