<svg width="96" height="92" viewBox="0 0 96 92" fill="none" xmlns="http://www.w3.org/2000/svg">
<path fill-rule="evenodd" clip-rule="evenodd" d="M91.962 33.4197C90.8083 33.4146 89.6545 33.4095 88.5008 33.4024L80.5924 33.4075L80.5924 33.4357L16.8688 33.4482L16.8683 32.5847C16.865 27.4506 21.0436 23.2473 26.1541 23.244L76.8331 23.238L76.8331 23.2116L86.1249 23.2057C91.2354 23.2024 95.4194 27.4004 95.4226 32.5345L95.4232 33.4369C94.2695 33.4298 93.1157 33.4248 91.962 33.4197Z" fill="#5C3BFE" stroke="#5C3BFE" stroke-miterlimit="10"/>
<path d="M77.649 27.9353L77.651 28.048C77.8068 40.4456 67.9131 50.6527 55.5006 50.8692C43.0556 51.0858 32.787 41.1691 32.5709 28.7211L32.5709 28.7209C32.3517 16.2714 42.2676 6.00246 54.7139 5.7855L54.7139 5.7855C67.163 5.56778 77.4316 15.4859 77.649 27.9353Z" fill="white" stroke="#5C3BFE"/>
<path d="M64.0816 22.5174C63.7308 19.4356 61.0482 18.4473 57.6788 18.2114L57.604 13.9296L54.9977 13.9754L55.0707 18.1445C54.3854 18.1564 53.6853 18.1822 52.9897 18.2082L52.9168 14.0115L50.312 14.057L50.3858 18.3376C49.8219 18.359 49.2678 18.3793 48.7275 18.389L48.727 18.3756L45.1322 18.437L45.1815 21.2207C45.1815 21.2207 47.1055 21.1505 47.0742 21.1863C48.1297 21.1681 48.4842 21.7751 48.5935 22.3022L48.6788 27.1802C48.7516 27.1792 48.8467 27.1806 48.9547 27.1936C48.8678 27.1952 48.7751 27.1964 48.6793 27.1989L48.7979 34.0325C48.7575 34.3654 48.5715 34.8988 47.8339 34.9128C47.8679 34.9418 45.9394 34.9455 45.9394 34.9455L45.4757 38.0672L48.8676 38.0079C49.4988 37.9978 50.12 37.9976 50.73 37.9906L50.8067 42.3212L53.4102 42.2761L53.3352 37.9912C54.0504 37.9936 54.7422 37.9872 55.4177 37.9748L55.491 42.2399L58.0975 42.194L58.0227 37.871C62.4002 37.5432 65.4477 36.3859 65.7565 32.2642C66.0061 28.9455 64.4218 27.4944 61.9242 26.9405C63.422 26.1446 64.3431 24.7724 64.0825 22.5175L64.0816 22.5171L64.0816 22.5174ZM60.5968 31.8409C60.6546 35.0772 55.1069 34.8058 53.3405 34.8383L53.2411 29.1005C55.0079 29.0702 60.5381 28.4653 60.5969 31.8408L60.5968 31.8409ZM59.2431 23.7667C59.2938 26.711 54.6665 26.4482 53.1951 26.4739L53.1045 21.2701C54.5758 21.2443 59.1894 20.6959 59.2434 23.7666L59.2431 23.7667Z" fill="#5C3BFE"/>
<path d="M4.87457 41.3974C4.87457 36.9791 8.45629 33.3974 12.8746 33.3974H95.4232V82.9035C95.4232 87.3218 91.8415 90.9035 87.4232 90.9035H12.8746C8.4563 90.9035 4.87457 87.3218 4.87457 82.9035V41.3974Z" fill="white" stroke="#5C3BFE"/>
<path d="M9.64212 44.1003C9.64212 40.7866 12.3284 38.1003 15.6421 38.1003H90.5147V79.7033C90.5147 83.0171 87.8284 85.7033 84.5147 85.7033H15.6421C12.3284 85.7033 9.64212 83.0171 9.64212 79.7033V44.1003Z" fill="#5C3BFE" stroke="#5C3BFE"/>
<path d="M83.9918 80.8395L59.7402 80.855C58.873 80.8555 58.1601 80.1403 58.1596 79.2691C58.159 78.3978 58.8709 77.6817 59.7382 77.6811L83.9898 77.6656C84.857 77.6651 85.5698 78.3803 85.5704 79.2516C85.571 80.1228 84.859 80.8389 83.9918 80.8395Z" fill="white"/>
<path d="M53.7471 80.8588L53.3213 80.8591C52.454 80.8597 51.7412 80.1445 51.7406 79.2732C51.7401 78.402 52.452 77.6858 53.3192 77.6853L53.7451 77.685C54.6123 77.6845 55.3252 78.3997 55.3257 79.2709C55.3263 80.1422 54.6144 80.8583 53.7471 80.8588Z" fill="white"/>
<rect x="1.07675" y="59.1897" width="12.6453" height="12.8071" rx="2.5" fill="white" stroke="#5C3BFE"/>
</svg>
