<svg width="74" height="101" viewBox="0 0 74 101" fill="none" xmlns="http://www.w3.org/2000/svg">
<path d="M62.7513 71.3082L59.8842 94.2444C59.8842 97.5966 49.0778 100.331 35.713 100.331C22.3924 100.331 11.5418 97.5966 11.5418 94.2444L9.60107 71.3082C10.0422 73.6901 21.7749 75.5867 36.1541 75.5867C50.6216 75.5867 62.3543 73.6901 62.7513 71.3082Z" fill="white" stroke="#5C3BFE" stroke-miterlimit="10"/>
<path d="M72.8079 11.3654V17.6729C72.8079 15.9085 56.7526 14.4971 36.904 14.4971C17.0553 14.4971 1 15.9085 1 17.6729V11.3654C1 10.7038 3.20542 10.1304 6.99871 9.60107C13.4385 8.76302 24.4214 8.18964 36.904 8.18964C49.7394 8.18964 60.9869 8.76302 67.3385 9.68929C70.7789 10.1745 72.8079 10.7479 72.8079 11.3654Z" fill="#5C3BFE" stroke="#5C3BFE" stroke-miterlimit="10"/>
<path d="M67.3386 9.68929C60.987 8.80713 49.7395 8.18963 36.904 8.18963C24.4214 8.18963 13.4386 8.76301 6.99878 9.60107L7.61628 3.91115C7.61628 2.32326 20.8487 1 37.2128 1C53.5328 1 66.7652 2.27915 66.7652 3.91115L67.3386 9.68929Z" fill="white" stroke="#5C3BFE" stroke-miterlimit="10"/>
<path d="M68.0001 29.5379V29.6261L62.7954 71.2641V71.3082C62.3984 73.6901 50.6657 75.5867 36.2423 75.5867C21.819 75.5867 10.0863 73.6901 9.68929 71.3082V71.1759L6.16064 29.582C6.16064 27.8177 20.0106 26.4063 37.1245 26.4063C54.1061 26.3621 68.0001 27.8177 68.0001 29.5379Z" fill="#5C3BFE" stroke="#5C3BFE" stroke-miterlimit="10"/>
<path d="M41 44L41 65" stroke="white" stroke-width="2" stroke-linecap="round"/>
<path d="M41 37L41 39" stroke="white" stroke-width="2" stroke-linecap="round"/>
<path d="M72.8079 17.717C72.8079 18.2021 71.5288 18.6873 69.3234 19.0843L68.0001 29.5379C68.0001 27.7736 54.1502 26.3621 37.0363 26.3621C19.9224 26.3621 6.07243 27.7736 6.07243 29.5379L5.19027 19.1725C2.54379 18.7314 1.04413 18.2463 1.04413 17.6729C1.04413 15.9085 17.0994 14.4971 36.9481 14.4971C56.7967 14.4971 72.8079 15.9526 72.8079 17.717Z" fill="white" stroke="#5C3BFE" stroke-miterlimit="10"/>
<path d="M5.14618 19.2167C5.14618 19.2167 38.3595 15.5116 69.2793 19.0843" stroke="#5C3BFE" stroke-miterlimit="10"/>
<path d="M67.0742 37C63.4018 35.8244 54.1798 35.3075 47.2616 35.5208C45.686 35.5694 44.4658 36.8797 44.4658 38.456L44.4658 63.7657C44.4658 65.3147 45.645 66.6083 47.194 66.6165C52.9257 66.6469 61.2168 65.6273 63.6275 64.5L67.0742 37Z" fill="white" stroke="#5C3BFE" stroke-linecap="round"/>
</svg>
