<svg fill="none" height="145" viewBox="0 0 179 145" width="179" xmlns="http://www.w3.org/2000/svg" xmlns:xlink="http://www.w3.org/1999/xlink"><mask id="a" height="132" maskUnits="userSpaceOnUse" width="175" x="4" y="13"><rect fill="#101010" height="129.67" rx="10.3591" stroke="#53b476" stroke-width=".900792" width="173.116" x="5.06734" y="14.0327"/></mask><g stroke="#53b476" stroke-width=".900792"><g fill="#101010"><rect height="116.202" rx="10.3591" width="116.202" x="33.5241" y="27.5007"/><path d="m10.7734 32.1046h-.0001c-5.75254.6636-9.0029 6.9484-6.25132 12.0958 1.61008 3.012 4.88285 4.7315 8.24952 4.3442l20.5364-2.3715h.0001c9.6163-1.1073 18.4457-5.827 24.7171-13.2128l13.3801-15.7587c2.1923-2.5843 2.5805-6.2609.9704-9.27287-2.7563-5.15617-9.7746-5.94044-13.5218-1.52586l-.0001.00009-13.1449 15.47744-.0002.0002c-3.7491 4.4087-9.023 7.2281-14.7634 7.8918z"/><path d="m81.8826 46.5588-.0002.0003-9.987 13.0332-.0001.0001c-5.8149 7.5952-14.6116 12.2976-24.1661 12.9181l-16.3849 1.0641c-.0001 0-.0001.0001-.0002.0001-3.1573.2035-6.165-1.4745-7.6682-4.2853-2.7595-5.2015.699-11.4956 6.5227-11.8743l15.6063-1.015zm0 0c1.9314-2.5167 2.2034-5.937.6956-8.7576-2.775-5.1913-9.9288-5.8131-13.4792-1.1806l-9.5134 12.4129m22.297-2.4747-22.297 2.4747m0 0c-3.317 4.336-8.3323 7.017-13.7803 7.3666z"/><path d="m79.5146 67.0209-.0001.0001-6.1402 9.1753c-2.8203 4.2234-7.5563 6.7551-12.6348 6.754l-11.0402.0087s-.0001 0-.0002 0c-5.8668.0074-9.5805 6.2834-6.7852 11.493l.0003.0006c1.3739 2.5701 4.0319 4.1667 6.9191 4.1684l12.3866-.0056c9.3918-.008 18.1422-4.6855 23.366-12.4904.0001-.0001.0001-.0001.0001-.0002l6.8857-10.2964c1.6023-2.4014 1.7469-5.5072.3775-8.0689-2.792-5.2231-10.0779-5.6081-13.3346-.7386z"/></g><g mask="url(#a)" stroke-miterlimit="10"><path d="m175.91 32.4252-48.63 121.7738c-.697 1.811-2.511 2.996-4.465 2.996h-66.002c-2.721 0-5.1629-1.533-6.4188-3.901l-1.6744-3.135-2.442-4.25 2.2327 2.717h69.0025c2.162 0 4.116-1.324 4.953-3.344l47.525-122.6542.45-1.8016v-1.3512l-.671-1.4704 5.372 7.7328c1.326 2.0203 1.605 4.4586.768 6.6878z" fill="#101010" stroke-linecap="round" stroke-linejoin="round"/><path d="m170.328 23.2992-47.653 121.7738c-.837 2.16-2.93 3.553-5.232 3.553h-66.2115c-4.0466 0-6.8374-4.18-5.1629-7.872l52.6759-121.8437c.9071-2.0203 2.9305-3.3439 5.1625-3.3439h61.188c3.977 0 6.698 4.0406 5.233 7.7328z" fill="#101010"/><path d="m146.398 20.2339h-26.094c-1.465 0-2.512-1.4629-1.954-2.8562l.698-1.8113h30.629l-1.326 3.3439c-.279.7663-1.046 1.3236-1.953 1.3236z"/><path d="m129.025 80.494h-6.001c-1.116 0-1.953-.9056-1.953-2.0202 0-1.1147.907-1.9506 1.953-1.9506h6.001c1.814 0 3.418-1.045 4.046-2.717l1.535-3.6225c.419-1.045 1.605-1.463 2.582-1.045 1.046.418 1.465 1.6023 1.046 2.5776l-1.465 3.6226c-1.256 3.1349-4.326 5.1551-7.744 5.1551z"/><path d="m94.6984 80.4244h-4.5351c-1.7442 0-3.3489-.9056-4.2559-2.2989-.907-1.463-1.1163-3.2046-.4186-4.8069l1.3256-3.0652c.4186-.9753 1.6047-1.463 2.6512-1.045.9768.418 1.4652 1.6023 1.0466 2.6473l-1.3256 3.0652c-.2093.4877 0 .9056.0697 1.045.0698.1393.4187.4876.907.4876h4.5351c1.1163 0 1.9535.9057 1.9535 2.0203 0 1.045-.907 1.9506-1.9535 1.9506z"/><path d="m144.234 54.1607c-.279 0-.488-.0697-.767-.1393-1.047-.418-1.465-1.6023-1.047-2.5776l1.466-3.4833c.209-.4876 0-.9056-.14-1.0449-.139-.209-.419-.4877-.907-.4877h-6.488c-1.117 0-1.954-.9056-1.954-1.9506 0-1.1146.907-2.0203 1.954-2.0203h6.488c1.675 0 3.279.836 4.256 2.2293s1.116 3.2046.488 4.8069l-1.465 3.4832c-.349.6967-1.046 1.1843-1.884 1.1843z"/><path d="m96.9308 54.1606c-.2791 0-.5581-.0696-.7674-.1393-.9768-.418-1.4652-1.6023-1.0466-2.6473l1.6745-3.8315c1.3256-3.0653 4.3257-5.0159 7.6747-5.0159h4.465c1.117 0 1.954.9057 1.954 1.9506 0 1.1147-.907 1.9506-1.954 2.0203h-4.465c-1.744 0-3.349 1.045-4.047 2.6473l-1.6742 3.8315c-.3488.6967-1.0465 1.1843-1.814 1.1843z"/></g><path d="m43.8394 143.704h92.1046" stroke-linecap="round"/></g></svg>