<svg fill="none" height="128" viewBox="0 0 152 128" width="152" xmlns="http://www.w3.org/2000/svg"><g fill="#101010" stroke="#53b476" stroke-width=".900792"><rect height="116.202" rx="10.3591" width="116.202" x="16.2031" y="10.6127"/><g stroke-linecap="round" stroke-linejoin="round" stroke-miterlimit="10"><path d="m121.674 76.0367-.308.3082s-10.326 13.4082-29.5137 24.4281c-16.2594 9.324-39.0688 16.105-61.8782 9.863-17.4923-4.701-23.42587-15.874-22.96352-26.5081v-.1542l.07706-1.1558v-.1542l.53941-7.5517 1.61824-.8477c1.15591-2.7741 2.62001-5.317 4.39231-7.4747l-11.78995-1.6182c-.46236-.077-.77059-.4623-.84765-.8476v-.4624l.38529-6.7041 11.32761 1.2329 21.7306-9.5552 4.3923 12.2523 3.0824.3082-.3853 7.3206v.1541.0771c-.0771.5394-.5394.9247-1.1559.8476l-14.6411-1.387s-11.713 19.65 17.4152 22.6552c26.2 2.6971 49.3947-20.8829 49.3947-20.8829l23.8112 5.0859 5.471-6.7812.308 6.3959c-.077.3853-.154.7706-.462 1.1559z"/><path d="m150.571 44.5195-30.515 9.6323c-.848.2312-1.772-.1541-2.158-.9247l-6.164-12.4835c-.077-.1541-.077-.2312-.077-.3853v-7.0894l4.7 5.8565-1.156.6935 8.477.7706s13.485-16.7988-14.719-17.6465c-27.0471-.8476-43.5377 10.7112-48.4695 14.7953-1.0788.9247-2.4658 1.31-3.8529 1.1559l-22.5782-2.3888c-1.0788-.0771-1.8494-1.0018-1.8494-2.0806v-5.7024l9.7864.9247c12.7147-9.7094 40.7641-26.12287 78.9856-20.57464 10.248 1.46414 16.49 5.85644 19.187 11.32764l1.464-.6165s.232 6.0106 0 7.9371c0 .077 0 .2312-.077.3082-.385 4.7006-2.928 9.5553-7.474 13.6394l1.387.0771 2.234-3.3136 13.332-1.9264v7.0123c.154.4624 0 .8477-.463 1.0018z"/><path d="m26.1985 61.3955s-11.713 19.65 17.4152 22.6553c22.3471 2.3117 42.4594-14.4871 47.9306-19.4959.9247-.8476 2.2347-1.31 3.5447-1.0788l24.89 3.2364c1.772.2312 2.543 2.3118 1.31 3.6218-4.624 5.0859-14.949 15.5659-28.8971 23.58-16.2594 9.3237-39.0688 16.1057-61.8782 9.8637-28.12639-7.629-26.35404-31.7484-16.4135-43.9237l-11.78995-1.6953c-1.00176-.1541-1.23294-1.5411-.30823-2.0035l31.05468-13.5623c1.0017-.4624 2.1576.077 2.5429 1.0788l6.3188 17.6464c.2312.6936-.3082 1.4642-1.0788 1.3871z"/><path d="m123.601 33.6544s13.485-16.7989-14.719-17.6465c-27.0473-.8476-43.5379 10.7112-48.4696 14.7953-1.0789.9247-2.4659 1.31-3.853 1.1559l-23.2717-2.1577c-1.1559-.077-1.5412-1.5412-.6935-2.2347 8.7847-7.3206 42.6134-32.13348 88.3868-25.42937 22.886 3.31352 26.045 21.26817 13.1 32.67287l16.259 1.233c.848.077 1.002 1.31.154 1.5411l-30.515 9.6324c-.848.3082-1.773-.1541-2.158-.9247l-6.165-12.4835c-.308-.5394.155-1.1559.771-1.1559z"/></g></g></svg>