<svg fill="none" height="131" viewBox="0 0 163 131" width="163" xmlns="http://www.w3.org/2000/svg" xmlns:xlink="http://www.w3.org/1999/xlink"><linearGradient id="a" gradientUnits="userSpaceOnUse" x1="81.0405" x2="81.0405" y1="13.3081" y2="130.411"><stop offset="0" stop-color="#53b476"/><stop offset="1" stop-color="#101010"/></linearGradient><mask id="b" height="131" maskUnits="userSpaceOnUse" width="163" x="0" y="0"><rect fill="#101010" height="130.411" rx="10.8095" width="162.081"/></mask><rect fill="url(#a)" height="116.202" rx="10.3591" width="116.202" x="22.9394" y="13.7585"/><rect fill="#101010" height="116.202" rx="10.3591" width="116.202" x="22.9394" y="13.7585"/><g stroke="#53b476" stroke-width=".900792"><rect height="116.202" rx="10.3591" width="116.202" x="22.9394" y="13.7585"/><g mask="url(#b)"><path d="m10.4182 77.2361.0025.0044 36.9324 64.8575.0016.002c.8524 1.474 1.823 2.404 3.0317 2.652 1.1991.247 2.4894-.208 3.9086-1.148l.0039-.003 96.8271-61.2483.002-.0012 1.619-1.035.012-.0077.011-.0085c.903-.6614 1.99-1.4152 2.388-1.6374l.055-.0305.044-.0443.868-.8682c.585-.3947.836-1.0105 1.029-1.5221.075-.156.18-.4626.264-.7187.092-.284.185-.5914.212-.7154h.001l.002-.0134c.015-.0799.029-.1615.04-.2432.001.0019.002.0037.003.0056.322.5731.583 1.196.591 1.6342.005.3211.04.6116.073.8949.098.8293.188 1.5967-.471 2.886-.717 1.4021-1.646 1.9706-2.553 2.5253-.21.1288-.419.2569-.625.3945-.001.0008-.002.0016-.003.0024l-101.8852 65.613c-.0003 0-.0006 0-.0009.001-1.3061.833-2.3856.949-3.3053.602-.9471-.357-1.8269-1.243-2.6311-2.633l-.0013-.002-.0056-.01-.0221-.038-.0874-.152-.3409-.593-1.2952-2.253c-1.1164-1.942-2.7124-4.719-4.6312-8.06-3.8374-6.68-8.9655-15.614-14.128-24.624-5.1626-9.011-10.3594-18.0988-14.3345-25.0881-1.9875-3.4948-3.66931-6.4643-4.8885-8.6371-1.22789-2.1883-1.96966-3.5391-2.0966-3.8235-1.05888-2.3729-1.29992-5.3636-.988-7.3947l.34365-1.1585c.07454.5123.21852.9862.38361 1.404.19464.4927.42202.9162.60782 1.2421.04733.083.10412.1804.15294.2642.03422.0587.06453.1107.08492.1463.06855.1197.09602.1754.10316.195.03691.1013.15367.3229.27737.552.13422.2486.30544.5576.47789.865.3329.5934.6833 1.204.77937 1.3574l1.67553 2.9317z" fill="#101010"/><path d="m157.42 76.7076c-.037.2618-.131.5941-.232.8627-.309.7417-.817 1.4397-1.606 1.9093l-3.321 2.1534-96.9239 62.253c-2.7808 1.775-6.4228.866-8.0695-1.928l-37.74368-66.0839-4.26602-7.4856c-.16097-.3056-.32194-.6112-.41911-.9235-.19436-.6245-.32493-1.2557-.32792-1.9003-.02231-2.0613 1.11695-4.1153 3.07142-5.1582l106.07371-54.31183c1.961-.97917 4.288-.31983 5.388 1.56417l37.898 66.32586c.476.853.64 1.8031.478 2.7229z" fill="#101010" stroke-miterlimit="10"/><g stroke-linecap="round"><g stroke-linejoin="round" stroke-miterlimit="10"><path d="m50.483 50.2341-27.2034 14.9204c-1.3086.7178-1.7876 2.3604-1.0699 3.669l2.3668 4.3152c.7177 1.3086 2.3604 1.7876 3.669 1.0699l27.2035-14.9204c1.3086-.7177 1.7876-2.3604 1.0698-3.669l-2.3667-4.3152c-.7178-1.3086-2.3604-1.7876-3.6691-1.0699z"/><path d="m110.353 17.4482-5.102 2.7986c-1.309.7177-1.788 2.3604-1.07 3.669l2.367 4.3152c.717 1.3086 2.36 1.7876 3.669 1.0699l5.102-2.7986c1.309-.7177 1.788-2.3604 1.07-3.669l-2.367-4.3152c-.717-1.3086-2.36-1.7876-3.669-1.0699z"/><path d="m142.866 73.3156c.748 1.258.359 2.8828-.878 3.665l-13.318 8.4222c-1.315.8315-3.058.384-3.81-.9779l-5.004-9.0648c-.699-1.266-.277-2.8578.957-3.6119l13.158-8.0419c1.284-.785 2.963-.3691 3.732.9248z"/></g><path d="m113.635 77.0823-23.1204 13.0246"/><path d="m129.772 50.7368-89.1284 51.7672"/><path d="m116.866 82.6218-23.097 13.3913"/></g></g><path d="m31.5715 129.949h63.0926"/></g></svg>