<svg fill="none" height="164" viewBox="0 0 165 164" width="165" xmlns="http://www.w3.org/2000/svg" xmlns:xlink="http://www.w3.org/1999/xlink"><mask id="a" height="164" maskUnits="userSpaceOnUse" width="165" x="0" y="0"><rect fill="#101010" height="161.905" rx="10.3591" stroke="#53b476" stroke-width=".900792" width="163.681" x=".450396" y=".933794"/></mask><rect fill="#101010" height="116.202" rx="10.3591" stroke="#53b476" stroke-width=".900792" width="116.202" x="24.1899" y="46.6372"/><g mask="url(#a)"><g stroke="#53b476" stroke-linecap="round" stroke-width=".900792"><path d="m145.436 51.9046-31.607 76.1644c-1.117 2.63-2.415 5.111-4.03 7.495l-4.073 5.988c-2.769 4.095-4.68 8.736-5.639 13.669l-1.4969 8.276c-.294 1.603-.782 3.187-1.3928 4.693l-4.3268 10.405c-1.9879 4.763-7.5157 7.074-12.2787 5.087l-30.0842-12.539c-4.7631-1.988-7.0748-7.516-5.0868-12.279l4.8597-11.788c.6886-1.628 1.5712-3.237 2.6346-4.697l4.0333-5.6c2.5028-3.404 4.2046-7.281 5.0207-11.445l1.8144-8.832c.5288-2.625 1.3096-5.159 2.3491-7.666l31.8533-76.6617s6.2161-14.1982 24.9701-9.7395l3.301-8.0269 12.913 5.3663-3.366 8.0202c15.266 9.8528 9.632 24.1102 9.632 24.1102z" fill="#101010" stroke-linejoin="round" stroke-miterlimit="10"/><path d="m114.539 63.6546 22.277 8.9531-18.743 45.1193-22.1895-8.729c-1.4056-.553-2.085-2.151-1.5083-3.547l16.6588-40.3208c.566-1.3701 2.13-2.0284 3.505-1.4756z" fill="#101010"/><path d="m138.911 19.7478-12.409-5.1842c-1.441-.6042-2.123-2.2418-1.519-3.683l2.78-6.77301c.605-1.44119 2.242-2.12374 3.683-1.51957l12.409 5.18423c1.441.60417 2.124 2.24175 1.519 3.68295l-2.78 6.7731c-.604 1.4412-2.242 2.1237-3.683 1.5195z" stroke-linejoin="round" stroke-miterlimit="10"/></g><path d="m18.873 103.626 22.1511 39.948c.6402 1.089 1.7285 1.857 3.0089 1.985l22.5352 1.792c1.2163.128 2.4327-.384 3.201-1.344l10.6914-12.612c.5761-.64.8962-1.472.8962-2.369l1.4085-50.0636" fill="#101010"/><path d="m18.873 103.626 22.1511 39.948c.6402 1.089 1.7285 1.857 3.0089 1.985l22.5352 1.792c1.2163.128 2.4327-.384 3.201-1.344l10.6914-12.612c.5761-.64.8962-1.472.8962-2.369l1.4085-50.0636" stroke="#53b476" stroke-linecap="round" stroke-linejoin="round" stroke-miterlimit="10" stroke-width=".900792"/><path d="m4.72479 100.104 32.45831-27.6564c1.9846-1.7286 4.5454-2.6249 7.1703-2.5608l45.7745.7682c1.4724 0 2.1766 1.8566 1.0243 2.8169l-32.9064 29.1291c-2.1127 1.857-4.8656 2.817-7.6825 2.689l-44.8782-2.369c-1.47247-.064-2.04865-1.92-.96031-2.817z" style="fill:#101010;stroke:#53b476;stroke-width:.900792;stroke-miterlimit:10;stroke-linecap:round;stroke-linejoin:round"/><path d="m82.4453 91.8457-14.5967 14.1483c-.4481.448-.7042 1.089-.5761 1.729l3.5851 17.989c.3201 1.537 2.2407 2.113 3.3291.897l7.4903-8.451" fill="#101010"/><g stroke="#53b476" stroke-linecap="round" stroke-linejoin="round" stroke-miterlimit="10" stroke-width=".900792"><path d="m82.4453 91.8457-14.5967 14.1483c-.4481.448-.7042 1.089-.5761 1.729l3.5851 17.989c.3201 1.537 2.2407 2.113 3.3291.897l7.4903-8.451"/><path d="m63.7515 135.315-8.5147-30.857"/><path d="m19.4495 95.2387 21.3827-18.2458c1.3445-1.0884 3.009-1.7286 4.7375-1.6645l30.1536.5121c.9603 0 1.4084 1.2164.7042 1.8566l-21.7029 19.2061c-1.4084 1.2164-3.201 1.8566-5.0576 1.7926l-29.5133-1.5365c-1.0884-.1281-1.4725-1.3444-.7042-1.9206z"/></g><path d="m59.4393 105.509c-3.8157 3.042-7.3109 2.873-8.7191 2.873l-44.49429-2.83s-.68232-.107-1.00395-.37c-.62046-.506-.7259-.801-.89462-1.518-.08796-.374-.13007-1.034-.15022-1.581-.01851-.502-.01851-.908-.01851-.908l.01851.908s.46598.491.93047.674c.53564.212 1.58162.211 1.58162.211l43.49309 2.541s1.6888 0 3.4553-.469c1.9915-.528 3.4238-1.414 3.4238-1.414l21.5996-19.0235 12.0904-10.8664s.7135-.5756.8871-1.2249c.0651-.244.0253-.5473.0073-.6559l-.0073-.0411s.003.0149.0073.0411l.4211 2.3431c.1661.9239-.1595 1.8676-.858 2.4948l-.0636.0571c-10.2449 9.2023-28.9669 26.5737-31.706 28.7587z" fill="#101010"/><path d="m50.7202 108.382-.0286.449.0143.001h.0143zm8.7191-2.873.2808.352zm32.6276-31.3106-.4433.0796zm-.4284-2.3842.4411-.0907c-.0496-.2415-.2842-.3982-.5263-.3516-.2422.0467-.4018.2793-.3581.522zm-12.9775 12.7883.2977.338.0034-.003zm-21.5996 19.0235.2368.383.0324-.02.0285-.025zm-3.4238 1.414.1155.435zm-3.4553.469-.0263.449.0131.001h.0132zm-43.49309-2.541.02627-.45h-.01326-.01327zm84.45609-26.2177-.3009-.335h-.0001zm.0636-.0571-.3009-.3351zm-.4575-2.9571-.2828-.3505-.0093.0075-.009.008zm.8871-1.2249.4351.1162zm-87.47989 28.6638.4503-.009c-.00503-.247-.20795-.443-.45489-.441-.24695.003-.44581.204-.44581.45zm.16873 2.489-.43842.103zm.89462 1.518.2847-.349zm1.00395.37-.07015.445.02067.003.02089.002zm-1.11832-2.795.16541-.419zm45.61261 6.075c1.4221 0 5.0555.174 8.9999-2.971l-.5616-.705c-3.6871 2.941-7.044 2.775-8.4383 2.775zm41.79-34.7133-.4211-2.3431-.8866.1594.4211 2.343zm-.4211-2.3431-.0074-.0411-.8865.1594.0073.0411zm-13.7258 12.4889-21.5996 19.0235.5954.676 21.5996-19.0235zm-21.3019 19.3615c-.2369-.383-.2368-.383-.2368-.383h.0001.0001s-.0001 0-.0003 0c-.0003 0-.001 0-.002.001-.002.001-.0054.003-.0102.006-.0094.006-.0243.015-.0442.027-.0399.023-.1002.058-.1793.101-.1582.088-.3911.21-.6853.35-.5892.279-1.4188.621-2.3814.877l.231.87c1.0289-.273 1.9111-.637 2.536-.933.3128-.148.5624-.28.735-.375.0863-.048.1534-.086.1997-.113.0231-.014.041-.025.0535-.032.0062-.004.0111-.007.0146-.009.0018-.001.0032-.002.0042-.003h.0013c.0002-.001.0004-.001.0005-.001h.0002c.0001 0 .0001 0-.2367-.383zm-3.5393.979c-.8511.225-1.6882.339-2.3155.396-.3127.029-.5712.043-.7506.05-.0896.004-.1593.005-.206.006-.0234.001-.0409.001-.0523.001-.0058 0-.0099 0-.0125 0-.0013 0-.0022 0-.0027 0-.0002 0-.0004 0-.0004 0h.0001s.0001 0 .0001.451c0 .45.0001.45.0001.45h.0002.0005.0014.0047.0165c.0142 0 .0346-.001.0609-.001.0526-.001.1286-.003.2249-.007.1925-.007.4666-.022.7969-.052.6588-.061 1.5493-.181 2.4647-.424zm-3.3136.454-43.49302-2.541-.05253.9 43.49305 2.54zm9.5116.802c1.3852-1.105 6.768-6.0103 13.0615-11.7674 6.3047-5.7674 13.5442-12.4088 18.6647-17.0082l-.602-.6701c-5.1244 4.6029-12.3684 11.2485-18.6707 17.0136-6.3135 5.7754-11.6612 10.6481-13.0151 11.7271zm31.7262-28.7756.0635-.0571-.6018-.6702-.0636.0572zm-.996-3.6843-12.0904 10.8664.6022.67 12.0904-10.8664zm1.1882-1.5869c-.4412.0907-.4412.0907-.4412.0907v-.0001c0-.0001-.0001-.0001-.0001-.0001 0-.0001 0-.0002 0-.0002 0-.0002-.0001-.0003-.0001-.0004 0-.0002 0-.0003-.0001-.0004 0-.0002 0-.0002 0 0 .0001.0005.0004.0018.0008.0038.0007.0042.002.0114.0037.0212l.8887-.1468c-.0027-.0164-.0051-.0297-.0069-.0396-.0009-.0049-.0017-.009-.0024-.0121-.0003-.0016-.0005-.003-.0007-.0041-.0002-.0005-.0003-.001-.0004-.0015 0-.0002 0-.0004-.0001-.0006 0-.0001 0-.0001 0-.0002s0-.0001 0-.0002c-.0001 0-.0001 0-.0001 0 0-.0001 0-.0001-.4411.0906zm-.437.1145c.0069.0422.0185.1247.0217.219.0033.0985-.0034.1857-.0199.2472l.8703.2325c.0923-.3453.0352-.7332.0166-.8455zm.0018.4662c-.0594.2225-.2252.465-.4101.673-.0879.0989-.1715.1804-.2327.2368-.0305.0281-.055.0495-.0711.0634-.0081.0069-.0141.0119-.0177.0149-.0017.0015-.0029.0024-.0034.0029-.0003.0002-.0004.0003-.0004.0002.0001 0 .0001-.0001.0002-.0002.0001 0 .0002-.0001.0003-.0001 0-.0001.0001-.0001.0001-.0001 0-.0001.0001-.0001.2829.3504s.2829.3505.283.3504c0 0 .0001-.0001.0002-.0001.0001-.0001.0002-.0002.0004-.0003.0002-.0003.0006-.0005.0009-.0008.0008-.0007.0017-.0014.0028-.0023.0022-.0018.005-.0041.0085-.007.007-.0058.0165-.0138.0283-.0239.0235-.0201.0561-.0487.0953-.0848.0779-.0718.1836-.1748.2957-.301.2153-.2422.493-.612.6071-1.0389zm-87.04469 28.7801c-.4504 0-.4504 0-.4504.001v.001c0 .001.00001.002.00001.004 0 .003.00001.008.00003.014.00004.013.00011.031.00026.055.0003.047.00089.114.00206.197.00235.167.00705.398.01646.653l.90018-.033c-.0091-.247-.01366-.47-.01594-.632-.00113-.081-.0017-.146-.00199-.191-.00014-.023-.00021-.04-.00024-.051-.00002-.006-.00003-.011-.00003-.013s0-.003-.00001-.004v-.001s0 0-.45039 0zm-.43158.925c.01989.539.06222 1.244.16189 1.667l.87684-.206c-.07625-.324-.11813-.941-.13855-1.494zm.16189 1.667c.08358.355.16337.665.32192.953.1637.297.39315.539.72643.811l.56939-.698c-.28719-.234-.42069-.392-.507-.548-.09147-.166-.14876-.362-.2339-.724zm1.04835 1.764c.23727.194.56586.306.78456.368.11844.034.22484.058.30173.073.03865.008.07035.014.09299.018.01134.002.02044.004.02706.005.0033.001.00599.001.00803.001.00101.001.00187.001.00256.001h.0009.00036.00016c.00007 0 .00014 0 .07029-.445s.07021-.445.07027-.445h.00011.00017.00017c.00003 0-.0001 0-.00039 0-.00056 0-.00175 0-.00352 0-.00353-.001-.0094-.002-.01735-.003-.01592-.003-.04004-.008-.07039-.014-.0611-.012-.14538-.032-.23771-.058-.20287-.057-.37626-.13-.46061-.199zm1.26005.471 44.49428 2.829.0572-.899-44.49431-2.829zm-1.5699-3.928-.01851-.908-.9006.019.0185.907zm2.06179.894c-.00026-.45-.00022-.45-.00019-.45h.00006c.00002 0 .00004 0 .00003 0 0 0-.00007 0-.0002 0-.00027 0-.00077 0-.00152 0-.0015 0-.00396 0-.00733 0-.00675 0-.01715-.001-.03082-.001-.02736 0-.06772-.001-.1181-.002-.10103-.003-.24088-.01-.39595-.022-.32628-.026-.66232-.076-.86219-.155l-.33083.838c.33577.133.79055.188 1.12117.215.17338.014.32851.021.44034.024.05605.002.10159.003.13352.003h.03741.01039.003.00093.00032.00013c.00005 0 .0001 0-.00017-.45zm-1.41621-.63c-.165-.065-.35367-.197-.51638-.333-.07764-.064-.14255-.124-.18769-.167-.02247-.022-.03976-.039-.05098-.05-.00561-.006-.00968-.01-.0121-.013-.00121-.001-.00201-.002-.00238-.002-.00018 0-.00026-.001-.00023 0h.00013.00013.00008c.00004 0 .00009 0-.32646.31s-.3265.31-.32645.31c.00002 0 .00007.001.00011.001h.00025c.00019 0 .0004 0 .00064.001.00048 0 .00108.001.00179.001.00142.002.0033.004.00562.006.00463.005.01102.012.01907.02.01607.016.03881.038.06729.066.05675.054.13736.128.23428.209.1864.156.46297.361.76245.479zm86.3506-28.06c.1384.7698-.1328 1.5567-.7156 2.0801l.6018.6702c.8141-.7311 1.1942-1.8314 1.0004-2.9096z" fill="#53b476"/></g><g stroke="#53b476" stroke-linecap="round"><path d="m42.5381 162.85h59.3449" stroke-width=".900792"/><path d="m133 37c3.5 1.5 9.3 7.5 4.5 19.5"/></g></svg>