<svg fill="none" height="196" viewBox="0 0 196 196" width="196" xmlns="http://www.w3.org/2000/svg"><g fill="#101010"><rect height="116.202" rx="10.3591" stroke="#53b476" stroke-width=".900792" width="116.202" x="32.007" y="50.6372"/><path d="m157.181 132.126-1.626 6.773-2.443 1.825-82.2518 17.024-4.9466.816-2.866-1.356-20.3739-40.338-3.3506-7.374 1.0097-2.504 1.7032-3.228 7.3587-4.0593 81.0583-23.0265 4.585-1.1628 1.795 1.025 1.463 2.0959 20.135 45.6617z"/><path d="m88.8178 53.7901-7.2066-9.4584 6.3058-8.5575 4.9543-1.3512 2.7024.0001 2.7022.9008 30.6271 41.8868-68.9106 18.9166z"/><path d="m154.125 93.4248-9.458 1.3512 4.054 20.718 6.755-2.252 2.252-2.252.901-5.855-.45-1.801z"/><path d="m61.5613 93.315-13.5294-19.7089c-.4221-.5818-.3962-1.4454-.0009-2.0441l25.1376-35.3572c.7039-1.0139 2.2033-.9992 2.908.031l13.1777 18.2171"/></g><g stroke="#53b476" stroke-linecap="round" stroke-linejoin="round" stroke-miterlimit="10" stroke-width=".900792"><path d="m61.5613 93.315-13.5294-19.7089c-.4221-.5818-.3962-1.4454-.0009-2.0441l25.1376-35.3572c.7039-1.0139 2.2033-.9992 2.908.031l13.1777 18.2171"/><path d="m140.582 102.344-6.743-14.8748c-.812-1.7549-2.695-2.6701-4.548-2.2232l-88.185 21.526c-1.7172.399-2.5378 2.278-1.7763 3.807l23.1184 45.949c.81 1.664 2.6004 2.49 4.364 2.136l86.0919-17.667c2.533-.507 3.88-3.214 2.827-5.555l-8.825-19.405"/><path d="m155.882 138.074 2.503-11.817c.246-1.186.128-2.364-.351-3.445l-4.086-9.055m-95.6301-25.2355-5.4936 8.1531c-.482.7821.2228 1.8124 1.1711 1.5658l79.9396-22.5834c1.535-.3949 3.095.2998 3.764 1.7397l10.168 22.7083"/><path d="m81.7486 43.9779 4.7939-6.9576c.6151-.9211 1.5997-1.5773 2.6853-1.7813l5.2021-.97c1.7192-.3079 3.5055.3368 4.5373 1.7692l29.6828 40.9537"/><path d="m54.6549 83.2365-15.2034 24.7055"/><path d="m59.1415 96.7719 36.4077-51.215"/><path d="m80.6727 90.7422 24.8983-33.8988"/><path d="m86.2514 50.2449 7.1171-10.6847"/><path d="m158.617 106.402-.431 3.052c-.316 2.096-1.865 3.9-3.941 4.488l-36.962 10.707c-2.076.588-4.234-.413-5.141-2.347l-1.196-2.656c-1.099-2.385.202-5.137 2.637-5.914l36.003-10.915c1.986-.586 3.446-2.296 3.809-4.3478l.877-5.3782 3.8 9.325c.574 1.26.786 2.618.545 3.986z" fill="#101010"/><path d="m145.498 94.8157 8.537-1.8412"/><path d="m111.524 115.046 2.525-2.822c.664-.786 1.604-1.396 2.597-1.689l30.08-9.658 1.443-.484c1.082-.385 1.927-1.1748 2.312-2.2275l.51-1.5549"/></g><circle cx="117.103" cy="118.647" fill="#53b476" r="1.80158"/></svg>