<svg fill="none" height="164" viewBox="0 0 147 164" width="147" xmlns="http://www.w3.org/2000/svg" xmlns:xlink="http://www.w3.org/1999/xlink"><mask id="a" height="163" maskUnits="userSpaceOnUse" width="145" x="1" y="0"><path d="m1.29883 10c0-5.52285 4.47715-10 9.99997-10h124.0002c5.523 0 10 4.47715 10 10v143c0 5.523-4.477 10-10 10h-124.0002c-5.52282 0-9.99997-4.477-9.99997-10z" fill="#53b476"/></mask><rect fill="#fff" height="115" rx="10.5" stroke="#fff" width="145" x=".798828" y="48.5"/><g mask="url(#a)"><path d="m101.36 36.5259c.356.4891.671 1.0262 1 1.5895.896 1.6576 1.389 3.5398 1.389 5.5607v23.1297.6147l.602-.1251c1.032-.2146 2.106-.1287 3.093.2571v.0001l.008.0031c2.324.8592 3.707 3.0507 3.707 5.3837 0 .6868-.129 1.3727-.386 2.0147v-.0001l-.004.0087-2.344 6.178v.0023c-.865 2.2408-2.979 3.6611-5.264 3.7042l-.376.0071-.097.3643c-2.169 8.1533-7.6133 14.9714-14.8572 18.9334l-.2666.146.0066.304.0043.196c.0454 2.091.0938 4.317.231 6.237.192 3.865 1.2894 7.477 2.3305 10.17l.1236.32h.3428 12.99c23.875 0 43.206 19.301 43.206 43.137 0 1.355-.549 2.543-1.405 3.443-.89.887-2.074 1.395-3.441 1.395h-137.30816c-2.67897 0-4.846012-2.165-4.846012-4.838 0-11.942 4.820842-22.725 12.654472-30.5l.0011-.001c7.8351-7.823 18.6359-12.636 30.5504-12.636h12.8023.3561l.1164-.337c.8976-2.594 1.8487-5.96 2.1823-9.385l.0005-.006c.2345-2.716.4228-5.112.5171-7.136l.0146-.312-.2741-.15c-7.2459-3.963-12.7352-10.7819-14.8564-18.8849l-.0958-.3662-.3784-.0071c-2.2848-.043-4.3997-1.4638-5.2636-3.7054-.0002-.0003-.0003-.0007-.0004-.001l-2.3433-6.1765c0-.0002-.0001-.0003-.0001-.0004-.2624-.6986-.39-1.3881-.39-2.0244 0-2.3284 1.4261-4.5246 3.7092-5.3848 1.0419-.3899 2.1162-.4725 3.0941-.2602l.6061.1315v-.6201-23.2234c0-6.5122 5.309-11.814 11.8333-11.814h1.9227.4164l.0753-.4095c.408-2.2176 1.4896-5.0373 4.2213-7.1388l.0004-.0003c1.4989-1.1555 4.003-2.0814 7.1485-2.5266 3.1336-.4434 6.858-.4029 10.76.3335 7.8021 1.4725 16.2799 5.7191 22.1707 14.3921l.005.0068z" fill="#101010" stroke="#fff"/></g></svg>