<svg fill="none" height="145" viewBox="0 0 146 145" width="146" xmlns="http://www.w3.org/2000/svg" xmlns:xlink="http://www.w3.org/1999/xlink"><mask id="a" height="145" maskUnits="userSpaceOnUse" width="146" x="0" y="0"><rect fill="#101010" height="143.619" rx="10.3591" stroke="#53b476" stroke-width=".900792" width="144.25" x=".450396" y=".450396"/></mask><rect fill="#101010" height="116.202" rx="10.3591" stroke="#53b476" stroke-width=".900792" width="116.202" x="14.4746" y="27.8667"/><g mask="url(#a)"><g stroke="#53b476" stroke-miterlimit="10" stroke-width=".900792"><path d="m24.7964 106.331 46.9943-55.8744c1.7746-2.0582 5.0177-2.0582 6.731.0605l47.6063 58.1149c1.591 1.997 1.163 4.903-.979 6.296l-56.5402 37.411c-2.5088 1.695-5.9354 1.332-8.0159-.848l-35.5517-36.866c-2.2029-2.301-2.3253-5.872-.2448-8.294z" fill="#101010"/><path d="m98.5925 40.9524-17.8065 4.1165c-2.57.6053-3.6714 3.6927-1.9581 5.7509l47.1781 57.5702c1.53 1.876 4.528 1.755 5.874-.364l8.689-13.6808c1.591-2.4214 1.408-5.6298-.428-7.8697l-34.573-43.1017c-1.652-2.0582-4.406-3.0268-6.9755-2.4214z" fill="#101010"/><path d="m75.6459 123.221-2.1417 1.877c-1.285 1.089-3.3043.665-3.9774-.908l-6.0579-13.682c-.3059-.666-.979-1.089-1.7745-1.089-2.5088.06-5.2012-1.029-7.2817-3.088-3.6714-3.632-4.1609-9.1406-1.1014-12.1674.5507-.5448 1.1626-.9686 1.8969-1.3318-2.264 3.1479-1.5298 7.9912 1.8357 11.3202 1.9581 1.937 4.3446 2.966 6.6698 3.087 1.1626.061 2.2029.727 2.6924 1.756l5.7519 12.955c.5507 1.453 2.2641 1.937 3.4879 1.271z" stroke-linecap="round" stroke-linejoin="round"/><path d="m85.375 114.867-9.6681 8.293c-1.285.666-2.9372.182-3.5491-1.21l-5.6295-12.774c-.4895-1.089-1.5298-1.937-2.7536-1.997-2.3252-.121-4.7117-1.15-6.6698-3.088-3.3654-3.329-4.0997-8.1719-1.8357-11.3198 3.1207-1.5134 7.4041-.6054 10.4636 2.3609 2.3253 2.3004 3.3655 5.2669 3.0595 7.9299-.1223.908.4284 1.695 1.285 1.998l14.5634 5.448c1.7745.787 2.1417 3.148.7343 4.359z"/><g fill="#53b476" stroke-linecap="round" stroke-linejoin="round"><path d="m72.1582 50.0328s1.7745-2.1793 2.5088-2.7846c.8567-.6659 1.7133-1.0897 2.5088-1.3318.7955-.3027 3.3043-.6659 3.3043-.6659s-.8567.2421-1.2238.6053c-.7955.6659-.9179 1.0292-1.1014 1.3924-.1224.2421-.2448.7264-.2448 1.0291-.0612.9686.1224 1.6345.1224 1.6345s-1.0403-.5449-1.4686-.6659c-.3671-.1211-1.0402-.2422-1.7745-.2422-.7955.0606-1.285.2422-1.7133.4238-.3672.1211-.9179.6053-.9179.6053z"/><path d="m125.638 114.564 2.448-1.755c.857-.606 1.53-1.332 2.081-2.18l1.652-2.542s-.612.787-.857.968c-.245.182-.551.303-1.04.485-.918.363-1.652.181-1.836.121-.245-.061-.673-.182-.918-.303-.122-.06-.428-.242-.428-.242s.245.848.306 1.211c.061.302 0 .242 0 .968 0 .606 0 .666-.306 1.816-.123.666-1.102 1.453-1.102 1.453z"/></g></g><path d="m44.072 83.3882-27.8417-33.7186c-9.97405-12.0467-8.13833-29.9049 4.0386-39.77225 12.2381-9.8673832 30.2281-8.0513 40.2022 3.99535 3.2431 3.9349 5.3236 8.5962 6.119 13.5601.4896 3.269-1.7745 6.2352-5.0176 6.7195-3.2431.5448-6.3026-1.6345-6.7921-4.9034-.4284-2.8452-1.6522-5.5693-3.5491-7.8697-5.8131-6.9616-16.2767-8.0513-23.3748-2.3004-7.0981 5.751-8.1383 16.1026-2.3864 23.1248l26.3731 31.9025" fill="#101010"/><g stroke="#53b476" stroke-width=".900792"><path d="m44.072 83.3882-27.8417-33.7186c-9.97405-12.0467-8.13833-29.9049 4.0386-39.77225 12.2381-9.8673831 30.2281-8.0513 40.2022 3.99535 3.2431 3.9349 5.3236 8.5962 6.119 13.5601.4896 3.269-1.7745 6.2352-5.0176 6.7195-3.2431.5448-6.3026-1.6345-6.7921-4.9034-.4284-2.8452-1.6522-5.5693-3.5491-7.8697-5.8131-6.9616-16.2767-8.0513-23.3748-2.3004-7.0981 5.751-8.1383 16.1026-2.3864 23.1248l26.3731 31.9025" stroke-miterlimit="10"/><path d="m18.2488 16.1326s6.6697-8.29348 17.9288-9.14099c12.6664-.90804 20.0093 7.44589 20.0093 7.44589" stroke-linecap="round" stroke-linejoin="round" stroke-miterlimit="10"/><path d="m32.3228 55.5415 17.5005 20.9455" stroke-linecap="round" stroke-linejoin="round" stroke-miterlimit="10"/><path d="m78.7058 59.0527 32.7372 40.8619" stroke-linecap="round" stroke-linejoin="round" stroke-miterlimit="10"/><path d="m42.3921 144.075h42.2963" stroke-linecap="round"/></g></g></svg>