<svg fill="none" height="135" viewBox="0 0 145 135" width="145" xmlns="http://www.w3.org/2000/svg" xmlns:xlink="http://www.w3.org/1999/xlink"><linearGradient id="a" gradientUnits="userSpaceOnUse" x1="72.473" x2="72.473" y1=".470459" y2="134.29"><stop offset="0" stop-color="#53b476"/><stop offset="1" stop-color="#101010"/></linearGradient><mask id="b" height="135" maskUnits="userSpaceOnUse" width="145" x="0" y="0"><rect fill="url(#a)" height="132.918" rx="10.3591" stroke="#53b476" stroke-width=".900792" width="144.045" x=".450396" y=".920855"/></mask><g stroke="#53b476" stroke-width=".900792"><rect fill="#101010" height="116.202" rx="10.3591" width="116.202" x="14.3723" y="17.6372"/><g mask="url(#b)" stroke-linecap="round"><g stroke-linejoin="round" stroke-miterlimit="10"><path d="m6.05273 23.1965-1.15577 9.6741c-.14447 1.0911.07224 2.1821.57789 3.1277l62.98935 114.0527c1.0836 1.891 3.5396 2.473 5.3455 1.163l62.7723-46.915c.578-.437.939-1.018 1.156-1.673l1.228-4.5099-.217.7274-.433.7274-.578.3637-4.695 3.3454-54.1769 37.969-1.1557.801-1.0835.509-1.3725-.146-1.1558-.654-1.228-1.819-66.52892-114.4159-.28895-.8001-.07223-.8728z" fill="#101010"/><path d="m23.1006 17.9595-2.8172.5819.6502-4.8007v.2183c0 .1454.2167.5819.2167.5819z" fill="#53b476"/><path d="m137.738 100.008-60.0276 42.042c-1.3725.945-3.3228.582-4.1896-.946l-67.1791-115.6524c-1.0113-1.7457 0-3.9278 1.87813-4.3642l14.80827-3.2005 3.3951 5.7463c.7223 1.2365 2.1671 1.7457 3.4673 1.382l35.1065-9.0922c1.9503-.5819 2.5282-2.0366 1.4447-3.7823l-.8669-1.382-1.0835-1.81848 13.4358-2.9095c1.1558-.21821 2.3838.21822 3.0339 1.23654l57.427 88.44874c1.012 1.6003.65 3.346-.65 4.292z" fill="#101010"/><path d="m65.0694 16.0684-35.1065 9.0194c-1.3724.3637-2.7449-.2182-3.4673-1.382l-3.395-5.7462-2.0226-3.346c-.5057-.8001 0-1.8911.939-2.0366l39.0072-7.5647c.5779-.14547 1.0835.14548 1.4447.65464l2.1671 3.4914 1.0835 1.81846.8668 1.382c1.0113 1.6729.4335 3.1277-1.5169 3.7096z" fill="#101010"/><path d="m32.6147 39.6477 13.2192-3.2004"/><path d="m50.0334 35.1962 26.6843-6.7895"/><path d="m36.4546 46.3022 27.1579-7.8947"/><path d="m43.9768 59.1076 43.4136-15.4203"/><path d="m48.1738 64.934 43.4136-15.4203"/><path d="m66.8032 12.868 9.1017-2.1093c.8668-.2183 1.8059.1454 2.3116.9455l46.3025 71.501c.651 1.091.362 2.4731-.722 3.1277l-52.8763 30.2591c-1.0113.582-2.3116.218-2.9617-.8l-52.7319-87.94c-.7946-1.3093-.0723-2.9095 1.3724-3.2732l9.1017-2.1094"/><path d="m83.9227 70.9852 15.3139 1.964c1.3004.1454 2.5284-.291 3.4674-1.2366l35.612-36.8051c.939-.9456 2.456.2909 1.661 1.382l-34.167 51.4981c-1.011 1.6002-3.251 1.8912-4.623.6546l-18.0589-15.4203c-1.0113-.7274-.3612-2.1821.7946-2.0367z" fill="#101010"/></g><path d="m56.1606 133.914h46.8314"/></g></g></svg>