<svg fill="none" height="124" viewBox="0 0 124 124" width="124" xmlns="http://www.w3.org/2000/svg" xmlns:xlink="http://www.w3.org/1999/xlink"><filter id="a" color-interpolation-filters="sRGB" filterUnits="userSpaceOnUse" height="112" width="112" x="12" y="12"><feFlood flood-opacity="0" result="BackgroundImageFix"/><feColorMatrix in="SourceAlpha" type="matrix" values="0 0 0 0 0 0 0 0 0 0 0 0 0 0 0 0 0 0 127 0"/><feOffset dy="4"/><feGaussianBlur stdDeviation="8"/><feColorMatrix type="matrix" values="0 0 0 0 0.360784 0 0 0 0 0.231373 0 0 0 0 0.996078 0 0 0 0.1 0"/><feBlend in2="BackgroundImageFix" mode="normal" result="effect1_dropShadow"/><feBlend in="SourceGraphic" in2="effect1_dropShadow" mode="normal" result="shape"/></filter><filter id="b" color-interpolation-filters="sRGB" filterUnits="userSpaceOnUse" height="112" width="112" x="6" y="6"><feFlood flood-opacity="0" result="BackgroundImageFix"/><feColorMatrix in="SourceAlpha" type="matrix" values="0 0 0 0 0 0 0 0 0 0 0 0 0 0 0 0 0 0 127 0"/><feOffset dy="4"/><feGaussianBlur stdDeviation="8"/><feColorMatrix type="matrix" values="0 0 0 0 0.360784 0 0 0 0 0.231373 0 0 0 0 0.996078 0 0 0 0.1 0"/><feBlend in2="BackgroundImageFix" mode="normal" result="effect1_dropShadow"/><feBlend in="SourceGraphic" in2="effect1_dropShadow" mode="normal" result="shape"/></filter><filter id="c" color-interpolation-filters="sRGB" filterUnits="userSpaceOnUse" height="112" width="112" x="0" y="0"><feFlood flood-opacity="0" result="BackgroundImageFix"/><feColorMatrix in="SourceAlpha" type="matrix" values="0 0 0 0 0 0 0 0 0 0 0 0 0 0 0 0 0 0 127 0"/><feOffset dy="4"/><feGaussianBlur stdDeviation="8"/><feColorMatrix type="matrix" values="0 0 0 0 0.360784 0 0 0 0 0.231373 0 0 0 0 0.996078 0 0 0 0.1 0"/><feBlend in2="BackgroundImageFix" mode="normal" result="effect1_dropShadow"/><feBlend in="SourceGraphic" in2="effect1_dropShadow" mode="normal" result="shape"/></filter><clipPath id="d"><path d="m36 32h40v40h-40z"/></clipPath><g filter="url(#a)" opacity=".1"><path d="m28 24h80v80h-80z" fill="#fff"/></g><g filter="url(#b)"><path d="m22 18h80v80h-80z" fill="#ae9dff"/></g><g filter="url(#c)"><path d="m16 12h80v80h-80z" fill="#5c3bfe"/><path d="m17 13h78v78h-78z" stroke="#fff" stroke-width="2"/></g><g clip-path="url(#d)"><path d="m71.9015 36.0985c-2.6428-2.6428-6.1569-4.0985-9.8953-4.0985-3.7375 0-7.2516 1.4557-9.8944 4.0985-2.6432 2.6431-4.0986 6.1572-4.0986 9.8959 0 3.3445 1.1658 6.5094 3.3039 9.0323l-2.8296 2.829c-1.4499-.7477-3.2797-.5142-4.4937.7001l-6.865 6.8649c-.7281.7282-1.1288 1.6962-1.1288 2.7262 0 1.0296.4007 1.9976 1.1288 2.7258.7517.7516 1.7392 1.1273 2.7259 1.1273.9875 0 1.9742-.3757 2.7258-1.1273l6.8649-6.8653c.7282-.7281 1.1289-1.6961 1.1289-2.7258 0-.6256-.1486-1.2289-.4282-1.7697l2.8281-2.8281c2.5226 2.1393 5.6882 3.3042 9.032 3.3042 3.7384 0 7.2525-1.4557 9.8953-4.0988 2.6431-2.6432 4.0985-6.1573 4.0985-9.8948 0-3.7387-1.4554-7.2528-4.0985-9.8959zm-14.661 14.8959c0 .647-.5239 1.1722-1.1718 1.1722-.6467 0-1.1719-.5252-1.1719-1.1722v-3.7509c0-.6466.5252-1.1718 1.1719-1.1718.6479 0 1.1718.5249 1.1718 1.1718zm3.9063 0c0 .647-.524 1.1722-1.1719 1.1722-.6467 0-1.1719-.5252-1.1719-1.1722v-7.6571c0-.647.5252-1.1722 1.1719-1.1722.6479 0 1.1719.5252 1.1719 1.1722zm3.9062 0c0 .647-.5239 1.1722-1.1718 1.1722-.6467 0-1.1719-.5252-1.1719-1.1722v-6.0946c0-.647.5252-1.1719 1.1719-1.1719.6479 0 1.1718.5249 1.1718 1.1719zm3.9063 0c0 .647-.524 1.1722-1.1719 1.1722-.6467 0-1.1719-.5252-1.1719-1.1722v-10.0012c0-.6466.5252-1.1718 1.1719-1.1718.6479 0 1.1719.5249 1.1719 1.1718z" fill="#fff"/></g></svg>