<svg fill="none" height="124" viewBox="0 0 124 124" width="124" xmlns="http://www.w3.org/2000/svg" xmlns:xlink="http://www.w3.org/1999/xlink"><filter id="a" color-interpolation-filters="sRGB" filterUnits="userSpaceOnUse" height="112" width="112" x="12" y="12"><feFlood flood-opacity="0" result="BackgroundImageFix"/><feColorMatrix in="SourceAlpha" type="matrix" values="0 0 0 0 0 0 0 0 0 0 0 0 0 0 0 0 0 0 127 0"/><feOffset dy="4"/><feGaussianBlur stdDeviation="8"/><feColorMatrix type="matrix" values="0 0 0 0 0.360784 0 0 0 0 0.231373 0 0 0 0 0.996078 0 0 0 0.1 0"/><feBlend in2="BackgroundImageFix" mode="normal" result="effect1_dropShadow"/><feBlend in="SourceGraphic" in2="effect1_dropShadow" mode="normal" result="shape"/></filter><filter id="b" color-interpolation-filters="sRGB" filterUnits="userSpaceOnUse" height="112" width="112" x="6" y="6"><feFlood flood-opacity="0" result="BackgroundImageFix"/><feColorMatrix in="SourceAlpha" type="matrix" values="0 0 0 0 0 0 0 0 0 0 0 0 0 0 0 0 0 0 127 0"/><feOffset dy="4"/><feGaussianBlur stdDeviation="8"/><feColorMatrix type="matrix" values="0 0 0 0 0.360784 0 0 0 0 0.231373 0 0 0 0 0.996078 0 0 0 0.1 0"/><feBlend in2="BackgroundImageFix" mode="normal" result="effect1_dropShadow"/><feBlend in="SourceGraphic" in2="effect1_dropShadow" mode="normal" result="shape"/></filter><filter id="c" color-interpolation-filters="sRGB" filterUnits="userSpaceOnUse" height="112" width="112" x="0" y="0"><feFlood flood-opacity="0" result="BackgroundImageFix"/><feColorMatrix in="SourceAlpha" type="matrix" values="0 0 0 0 0 0 0 0 0 0 0 0 0 0 0 0 0 0 127 0"/><feOffset dy="4"/><feGaussianBlur stdDeviation="8"/><feColorMatrix type="matrix" values="0 0 0 0 0.360784 0 0 0 0 0.231373 0 0 0 0 0.996078 0 0 0 0.1 0"/><feBlend in2="BackgroundImageFix" mode="normal" result="effect1_dropShadow"/><feBlend in="SourceGraphic" in2="effect1_dropShadow" mode="normal" result="shape"/></filter><clipPath id="d"><path d="m36 32h40v40h-40z"/></clipPath><g filter="url(#a)" opacity=".1"><path d="m28 24h80v80h-80z" fill="#fff"/></g><g filter="url(#b)"><path d="m22 18h80v80h-80z" fill="#ae9dff"/></g><g filter="url(#c)"><path d="m16 12h80v80h-80z" fill="#5c3bfe"/><path d="m17 13h78v78h-78z" stroke="#fff" stroke-width="2"/></g><g clip-path="url(#d)"><path d="m70.9145 55.4196c-.4582-5.9656-3.2357-9.7039-5.686-13.0028-2.2689-3.0541-4.2285-5.6914-4.2285-9.5819 0-.3125-.175-.5981-.4525-.7413-.2784-.1441-.6128-.1205-.8659.0634-3.68 2.6333-6.7504 7.0715-7.823 11.3062-.7446 2.9482-.8431 6.2625-.857 8.4515-3.3984-.7258-4.1682-5.8093-4.1764-5.8647-.0382-.2636-.1993-.4931-.4337-.6184-.2368-.1237-.5152-.1327-.7552-.0138-.1783.0862-4.3743 2.2183-4.6184 10.7308-.0171.2832-.0179.5673-.0179.8513 0 8.2701 6.7293 14.999 15 14.999.0114.0008.0236.0024.0334 0h.0105c8.2504-.0237 14.9561-6.7435 14.9561-14.999 0-.4159-.0855-1.5803-.0855-1.5803zm-14.9145 14.9127c-2.7572 0-5-2.3891-5-5.3259 0-.1001-.0008-.201.0065-.3247.0333-1.2385.2686-2.084.5265-2.6463.4835 1.0383 1.3477 1.9929 2.7515 1.9929.4607 0 .8334-.3728.8334-.8333 0-1.1864.0244-2.5552.3198-3.7905.2629-1.0953.8911-2.2606 1.6871-3.1948.354 1.2125 1.0441 2.1939 1.7179 3.1517.9644 1.3703 1.9613 2.7871 2.1363 5.2031.0105.1432.0212.2873.0212.4419-.0002 2.9367-2.243 5.3259-5.0002 5.3259z" fill="#fff"/></g></svg>