<svg width="52" height="50" viewBox="0 0 52 50" fill="none" xmlns="http://www.w3.org/2000/svg">
<path d="M15.9977 0L21.6538 10.3488L31.9954 16.0087L21.6538 21.6686L15.9977 32.0174L10.3417 21.6686L0 16.0087L10.3417 10.3488L15.9977 0Z" fill="#8870FC"/>
<path d="M21.6512 10.3497L15.9951 0.000976562V32.0184L21.6512 21.6696L31.9928 16.0097L21.6512 10.3497Z" fill="#5C3BFE"/>
<path d="M44.9918 36.0215L47.1119 39.9023L50.9885 42.0247L47.1119 44.1472L44.9918 48.028L42.8717 44.1472L38.9951 42.0247L42.8717 39.9023L44.9918 36.0215Z" fill="#8870FC"/>
<path d="M47.1119 39.9028L44.9912 36.022V48.0285L47.1119 44.1477L50.9895 42.0252L47.1119 39.9028Z" fill="#5C3BFE"/>
</svg>
