<svg fill="none" height="124" viewBox="0 0 124 124" width="124" xmlns="http://www.w3.org/2000/svg" xmlns:xlink="http://www.w3.org/1999/xlink"><filter id="a" color-interpolation-filters="sRGB" filterUnits="userSpaceOnUse" height="112" width="112" x="12" y="12"><feFlood flood-opacity="0" result="BackgroundImageFix"/><feColorMatrix in="SourceAlpha" type="matrix" values="0 0 0 0 0 0 0 0 0 0 0 0 0 0 0 0 0 0 127 0"/><feOffset dy="4"/><feGaussianBlur stdDeviation="8"/><feColorMatrix type="matrix" values="0 0 0 0 0.360784 0 0 0 0 0.231373 0 0 0 0 0.996078 0 0 0 0.1 0"/><feBlend in2="BackgroundImageFix" mode="normal" result="effect1_dropShadow"/><feBlend in="SourceGraphic" in2="effect1_dropShadow" mode="normal" result="shape"/></filter><filter id="b" color-interpolation-filters="sRGB" filterUnits="userSpaceOnUse" height="112" width="112" x="6" y="6"><feFlood flood-opacity="0" result="BackgroundImageFix"/><feColorMatrix in="SourceAlpha" type="matrix" values="0 0 0 0 0 0 0 0 0 0 0 0 0 0 0 0 0 0 127 0"/><feOffset dy="4"/><feGaussianBlur stdDeviation="8"/><feColorMatrix type="matrix" values="0 0 0 0 0.360784 0 0 0 0 0.231373 0 0 0 0 0.996078 0 0 0 0.1 0"/><feBlend in2="BackgroundImageFix" mode="normal" result="effect1_dropShadow"/><feBlend in="SourceGraphic" in2="effect1_dropShadow" mode="normal" result="shape"/></filter><filter id="c" color-interpolation-filters="sRGB" filterUnits="userSpaceOnUse" height="112" width="112" x="0" y="0"><feFlood flood-opacity="0" result="BackgroundImageFix"/><feColorMatrix in="SourceAlpha" type="matrix" values="0 0 0 0 0 0 0 0 0 0 0 0 0 0 0 0 0 0 127 0"/><feOffset dy="4"/><feGaussianBlur stdDeviation="8"/><feColorMatrix type="matrix" values="0 0 0 0 0.360784 0 0 0 0 0.231373 0 0 0 0 0.996078 0 0 0 0.1 0"/><feBlend in2="BackgroundImageFix" mode="normal" result="effect1_dropShadow"/><feBlend in="SourceGraphic" in2="effect1_dropShadow" mode="normal" result="shape"/></filter><g filter="url(#a)" opacity=".1"><path d="m28 24h80v80h-80z" fill="#fff"/></g><g filter="url(#b)"><path d="m22 18h80v80h-80z" fill="#ae9dff"/></g><g filter="url(#c)"><path d="m16 12h80v80h-80z" fill="#5c3bfe"/><path d="m17 13h78v78h-78z" stroke="#fff" stroke-width="2"/></g><g fill="#fff"><path d="m48.9688 62.5469c-.6467 0-1.1719.5252-1.1719 1.1719 0 .6466.5252 1.1718 1.1719 1.1718.6466 0 1.1718-.5252 1.1718-1.1718 0-.6467-.5252-1.1719-1.1718-1.1719z"/><path d="m56 57.8594c.6467 0 1.1719-.5252 1.1719-1.1719s-.5252-1.1719-1.1719-1.1719-1.1719.5252-1.1719 1.1719.5252 1.1719 1.1719 1.1719z"/><path d="m64.2031 39.0311h6.3446l-6.3446-6.3446z"/><path d="m63.0312 64.8906c.6467 0 1.1719-.5252 1.1719-1.1718 0-.6467-.5252-1.1719-1.1719-1.1719-.6466 0-1.1718.5252-1.1718 1.1719 0 .6466.5252 1.1718 1.1718 1.1718z"/><path d="m71.2344 70.8281v-29.4531h-8.2032c-.6475 0-1.1718-.5243-1.1718-1.1719v-8.2031h-19.9219c-.6476 0-1.1719.5243-1.1719 1.1719v37.6562c0 .6476.5243 1.1719 1.1719 1.1719h28.125c.6476 0 1.1719-.5243 1.1719-1.1719zm-4.6875-21.1719c0 .6476-.5243 1.1719-1.1719 1.1719h-8.2031v2.5595c.9927.3543 1.7737 1.1353 2.128 2.128h3.7313c.6476 0 1.1719.5243 1.1719 1.1719v3.7314c1.3611.4855 2.3438 1.774 2.3438 3.2999 0 1.9384-1.5772 3.5156-3.5157 3.5156-1.5258 0-2.8143-.9827-3.2998-2.3438h-7.4628c-.4855 1.3611-1.774 2.3438-3.2998 2.3438-1.9385 0-3.5157-1.5772-3.5157-3.5156 0-1.5259.9827-2.8144 2.3438-3.2999v-9.5908h-1.1719c-.6476 0-1.1719-.5243-1.1719-1.1719v-4.6874c0-.6476.5243-1.1719 1.1719-1.1719h18.75c.6476 0 1.1719.5243 1.1719 1.1719z"/><path d="m47.7969 46.1406h16.4062v2.3438h-16.4062z"/><path d="m52.4844 56.6875c0-1.5259.9826-2.8143 2.3437-3.2999v-2.5595h-4.6875v9.5908c.9928.3543 1.7737 1.1352 2.128 2.128h7.4628c.3543-.9928 1.1352-1.7737 2.128-2.128v-2.5595h-2.5595c-.4856 1.3611-1.774 2.3437-3.2999 2.3437-1.9385 0-3.5156-1.5771-3.5156-3.5156z"/></g></svg>