<svg fill="none" height="124" viewBox="0 0 124 124" width="124" xmlns="http://www.w3.org/2000/svg" xmlns:xlink="http://www.w3.org/1999/xlink"><filter id="a" color-interpolation-filters="sRGB" filterUnits="userSpaceOnUse" height="112" width="112" x="12" y="12"><feFlood flood-opacity="0" result="BackgroundImageFix"/><feColorMatrix in="SourceAlpha" type="matrix" values="0 0 0 0 0 0 0 0 0 0 0 0 0 0 0 0 0 0 127 0"/><feOffset dy="4"/><feGaussianBlur stdDeviation="8"/><feColorMatrix type="matrix" values="0 0 0 0 0.360784 0 0 0 0 0.231373 0 0 0 0 0.996078 0 0 0 0.1 0"/><feBlend in2="BackgroundImageFix" mode="normal" result="effect1_dropShadow"/><feBlend in="SourceGraphic" in2="effect1_dropShadow" mode="normal" result="shape"/></filter><filter id="b" color-interpolation-filters="sRGB" filterUnits="userSpaceOnUse" height="112" width="112" x="6" y="6"><feFlood flood-opacity="0" result="BackgroundImageFix"/><feColorMatrix in="SourceAlpha" type="matrix" values="0 0 0 0 0 0 0 0 0 0 0 0 0 0 0 0 0 0 127 0"/><feOffset dy="4"/><feGaussianBlur stdDeviation="8"/><feColorMatrix type="matrix" values="0 0 0 0 0.360784 0 0 0 0 0.231373 0 0 0 0 0.996078 0 0 0 0.1 0"/><feBlend in2="BackgroundImageFix" mode="normal" result="effect1_dropShadow"/><feBlend in="SourceGraphic" in2="effect1_dropShadow" mode="normal" result="shape"/></filter><filter id="c" color-interpolation-filters="sRGB" filterUnits="userSpaceOnUse" height="112" width="112" x="0" y="0"><feFlood flood-opacity="0" result="BackgroundImageFix"/><feColorMatrix in="SourceAlpha" type="matrix" values="0 0 0 0 0 0 0 0 0 0 0 0 0 0 0 0 0 0 127 0"/><feOffset dy="4"/><feGaussianBlur stdDeviation="8"/><feColorMatrix type="matrix" values="0 0 0 0 0.360784 0 0 0 0 0.231373 0 0 0 0 0.996078 0 0 0 0.1 0"/><feBlend in2="BackgroundImageFix" mode="normal" result="effect1_dropShadow"/><feBlend in="SourceGraphic" in2="effect1_dropShadow" mode="normal" result="shape"/></filter><g filter="url(#a)" opacity=".1"><path d="m28 24h80v80h-80z" fill="#fff"/></g><g filter="url(#b)"><path d="m22 18h80v80h-80z" fill="#ae9dff"/></g><g filter="url(#c)"><path d="m16 12h80v80h-80z" fill="#5c3bfe"/><path d="m17 13h78v78h-78z" stroke="#fff" stroke-width="2"/></g><path d="m60.9829 50.374c-.0934-.1881-.0578-.4133.0789-.5728.9982-1.1654 1.6031-2.6772 1.6031-4.3285 0-3.0234-2.0241-5.5824-4.7884-6.3945-.3777-.111-.5469-.5872-.2852-.8813.0807-.0907.1253-.2079.1253-.3293v-3.7494c0-.1226-.045-.2409-.1265-.3325l-1.216-1.3661c-.1989-.2234-.5481-.2234-.747 0l-1.216 1.3661c-.0815.0916-.1265.2099-.1265.3324v3.7497c0 .1213.0446.2385.1253.3292.2618.2941.0926.7703-.2852.8813-2.7643.8121-4.7884 3.3712-4.7884 6.3946 0 1.6512.6049 3.1629 1.6032 4.3284.1366.1595.1722.3847.0789.5728l-6.6072 13.3201c-.0756.1525-.2243.2533-.3913.2857-1.5629.3032-2.7467 1.6817-2.7467 3.3319 0 .538.126 1.047.3499 1.4993.0755.1527.0851.3321.0094.4846l-.8126 1.6381c-.1969.3969.1815.8349.6028.6977l2.7961-.9106c.0663-.0217.1364-.0286.2061-.0237.08.0057.1609.0086.2424.0086 1.8718 0 3.3945-1.5226 3.3945-3.3941 0-.6538-.186-1.265-.5075-1.7836-.0997-.1608-.1212-.3616-.0372-.531l6.336-12.7732c.1089-.2195.3605-.3257.5989-.2687.4971.1188 1.0156.182 1.5486.182s1.0515-.0632 1.5486-.1821c.2384-.057.4899.0492.5988.2688l8.9933 18.1303c.0597.1204.1653.2116.2931.2532l3.1441 1.024c.4213.1372.7996-.3008.6028-.6976zm-16.3156 18.7427c-.9954 0-1.8053-.8097-1.8053-1.805 0-.9955.8098-1.8054 1.8053-1.8054.9956 0 1.8055.8099 1.8055 1.8054 0 .9953-.8099 1.805-1.8055 1.805zm11.3333-20.0993c-1.9544 0-3.5445-1.5902-3.5445-3.5447 0-1.9542 1.5901-3.5441 3.5445-3.5441 1.9543 0 3.5444 1.5899 3.5444 3.5441 0 1.9545-1.5899 3.5447-3.5444 3.5447z" fill="#fff"/></svg>