<svg fill="none" height="124" viewBox="0 0 124 124" width="124" xmlns="http://www.w3.org/2000/svg" xmlns:xlink="http://www.w3.org/1999/xlink"><filter id="a" color-interpolation-filters="sRGB" filterUnits="userSpaceOnUse" height="112" width="112" x="12" y="12"><feFlood flood-opacity="0" result="BackgroundImageFix"/><feColorMatrix in="SourceAlpha" type="matrix" values="0 0 0 0 0 0 0 0 0 0 0 0 0 0 0 0 0 0 127 0"/><feOffset dy="4"/><feGaussianBlur stdDeviation="8"/><feColorMatrix type="matrix" values="0 0 0 0 0.360784 0 0 0 0 0.231373 0 0 0 0 0.996078 0 0 0 0.1 0"/><feBlend in2="BackgroundImageFix" mode="normal" result="effect1_dropShadow"/><feBlend in="SourceGraphic" in2="effect1_dropShadow" mode="normal" result="shape"/></filter><filter id="b" color-interpolation-filters="sRGB" filterUnits="userSpaceOnUse" height="112" width="112" x="6" y="6"><feFlood flood-opacity="0" result="BackgroundImageFix"/><feColorMatrix in="SourceAlpha" type="matrix" values="0 0 0 0 0 0 0 0 0 0 0 0 0 0 0 0 0 0 127 0"/><feOffset dy="4"/><feGaussianBlur stdDeviation="8"/><feColorMatrix type="matrix" values="0 0 0 0 0.360784 0 0 0 0 0.231373 0 0 0 0 0.996078 0 0 0 0.1 0"/><feBlend in2="BackgroundImageFix" mode="normal" result="effect1_dropShadow"/><feBlend in="SourceGraphic" in2="effect1_dropShadow" mode="normal" result="shape"/></filter><filter id="c" color-interpolation-filters="sRGB" filterUnits="userSpaceOnUse" height="112" width="112" x="0" y="0"><feFlood flood-opacity="0" result="BackgroundImageFix"/><feColorMatrix in="SourceAlpha" type="matrix" values="0 0 0 0 0 0 0 0 0 0 0 0 0 0 0 0 0 0 127 0"/><feOffset dy="4"/><feGaussianBlur stdDeviation="8"/><feColorMatrix type="matrix" values="0 0 0 0 0.360784 0 0 0 0 0.231373 0 0 0 0 0.996078 0 0 0 0.1 0"/><feBlend in2="BackgroundImageFix" mode="normal" result="effect1_dropShadow"/><feBlend in="SourceGraphic" in2="effect1_dropShadow" mode="normal" result="shape"/></filter><g filter="url(#a)" opacity=".1"><path d="m28 24h80v80h-80z" fill="#fff"/></g><g filter="url(#b)"><path d="m22 18h80v80h-80z" fill="#ae9dff"/></g><g filter="url(#c)"><path d="m16 12h80v80h-80z" fill="#5c3bfe"/><path d="m17 13h78v78h-78z" stroke="#fff" stroke-width="2"/></g><g fill="#fff"><path d="m64.3594 45.3334c0 4.6024-3.7311 8.3332-8.3335 8.3332-4.6023 0-8.3331-3.7308-8.3331-8.3332 0-4.6023 3.7308-8.3334 8.3331-8.3334 4.6024 0 8.3335 3.7311 8.3335 8.3334z"/><path d="m42.2759 72h27.5c.69 0 1.25-.56 1.25-1.25v-5.8334c0-4.365-3.5516-7.9166-7.9165-7.9166h-14.1666c-4.3652 0-7.9169 3.5516-7.9169 7.9166v5.8334c0 .69.56 1.25 1.25 1.25z"/><path d="m39.3594 37v2.9166c0 .9216.7467 1.6668 1.6665 1.6668.9201 0 1.6669-.7452 1.6669-1.6668v-2.9166c0-.9201.7483-1.6666 1.6666-1.6666h2.5c.9201 0 1.6665-.7452 1.6665-1.6668 0-.9217-.7464-1.6666-1.6665-1.6666h-2.5c-2.7567 0-5 2.2433-5 5z"/><path d="m44.3594 55.3334h2.5c.9201 0 1.6665-.7452 1.6665-1.6668 0-.9217-.7464-1.6666-1.6665-1.6666h-2.5c-.9183 0-1.6666-.7468-1.6666-1.6666v-2.9168c0-.9217-.7468-1.6666-1.6669-1.6666-.9198 0-1.6665.7449-1.6665 1.6666v2.9168c0 2.7567 2.2433 5 5 5z"/><path d="m72.6928 37c0-2.7567-2.2433-5-5-5h-2.5c-.9201 0-1.6669.7449-1.6669 1.6666 0 .9216.7468 1.6668 1.6669 1.6668h2.5c.9183 0 1.6666.7465 1.6666 1.6666v2.9166c0 .9216.7467 1.6668 1.6665 1.6668.9201 0 1.6669-.7452 1.6669-1.6668z"/><path d="m72.6928 50.3334v-2.9168c0-.9217-.7468-1.6666-1.6669-1.6666-.9198 0-1.6665.7449-1.6665 1.6666v2.9168c0 .9198-.7483 1.6666-1.6666 1.6666h-2.5c-.9201 0-1.6669.7449-1.6669 1.6666 0 .9216.7468 1.6668 1.6669 1.6668h2.5c2.7567 0 5-2.2433 5-5z"/></g></svg>