<svg fill="none" height="124" viewBox="0 0 124 124" width="124" xmlns="http://www.w3.org/2000/svg" xmlns:xlink="http://www.w3.org/1999/xlink"><filter id="a" color-interpolation-filters="sRGB" filterUnits="userSpaceOnUse" height="112" width="112" x="12" y="12"><feFlood flood-opacity="0" result="BackgroundImageFix"/><feColorMatrix in="SourceAlpha" type="matrix" values="0 0 0 0 0 0 0 0 0 0 0 0 0 0 0 0 0 0 127 0"/><feOffset dy="4"/><feGaussianBlur stdDeviation="8"/><feColorMatrix type="matrix" values="0 0 0 0 0.360784 0 0 0 0 0.231373 0 0 0 0 0.996078 0 0 0 0.1 0"/><feBlend in2="BackgroundImageFix" mode="normal" result="effect1_dropShadow"/><feBlend in="SourceGraphic" in2="effect1_dropShadow" mode="normal" result="shape"/></filter><filter id="b" color-interpolation-filters="sRGB" filterUnits="userSpaceOnUse" height="112" width="112" x="6" y="6"><feFlood flood-opacity="0" result="BackgroundImageFix"/><feColorMatrix in="SourceAlpha" type="matrix" values="0 0 0 0 0 0 0 0 0 0 0 0 0 0 0 0 0 0 127 0"/><feOffset dy="4"/><feGaussianBlur stdDeviation="8"/><feColorMatrix type="matrix" values="0 0 0 0 0.360784 0 0 0 0 0.231373 0 0 0 0 0.996078 0 0 0 0.1 0"/><feBlend in2="BackgroundImageFix" mode="normal" result="effect1_dropShadow"/><feBlend in="SourceGraphic" in2="effect1_dropShadow" mode="normal" result="shape"/></filter><filter id="c" color-interpolation-filters="sRGB" filterUnits="userSpaceOnUse" height="112" width="112" x="0" y="0"><feFlood flood-opacity="0" result="BackgroundImageFix"/><feColorMatrix in="SourceAlpha" type="matrix" values="0 0 0 0 0 0 0 0 0 0 0 0 0 0 0 0 0 0 127 0"/><feOffset dy="4"/><feGaussianBlur stdDeviation="8"/><feColorMatrix type="matrix" values="0 0 0 0 0.360784 0 0 0 0 0.231373 0 0 0 0 0.996078 0 0 0 0.1 0"/><feBlend in2="BackgroundImageFix" mode="normal" result="effect1_dropShadow"/><feBlend in="SourceGraphic" in2="effect1_dropShadow" mode="normal" result="shape"/></filter><clipPath id="d"><path d="m36 32h40v40h-40z"/></clipPath><g filter="url(#a)" opacity=".1"><path d="m28 24h80v80h-80z" fill="#fff"/></g><g filter="url(#b)"><path d="m22 18h80v80h-80z" fill="#ae9dff"/></g><g filter="url(#c)"><path d="m16 12h80v80h-80z" fill="#5c3bfe"/><path d="m17 13h78v78h-78z" stroke="#fff" stroke-width="2"/></g><g clip-path="url(#d)"><path d="m75.957 46.9189-1.6442-10.3477c-.2358-1.4846-1.3999-2.6487-2.8845-2.8844l-10.3477-1.6444c-1.0985-.1745-2.2142.188-3.0002.974l-21.063 21.0631c-1.3562 1.3562-1.3562 3.5546 0 4.9108l11.9921 11.992c1.3561 1.3562 3.5543 1.3562 4.9107-.0002l21.063-21.063c.786-.7861 1.1485-1.9017.9738-3.0002zm-22.9384 21.3759c-.5299.5299-1.3894.5299-1.9194 0l-11.3943-11.3943c-.5299-.53-.5299-1.3896 0-1.9196.5297-.5297 1.3894-.5299 1.9195 0l11.3942 11.3944c.53.5299.5297 1.3896 0 1.9195zm15.3284-24.9439c-1.0213 1.0213-2.6772 1.0212-3.6982 0-1.0213-1.0214-1.0215-2.6769 0-3.6982 1.0211-1.0214 2.6768-1.0214 3.6982 0 1.0211 1.0212 1.0211 2.6769 0 3.6982z" fill="#fff"/></g></svg>