<svg fill="none" height="124" viewBox="0 0 124 124" width="124" xmlns="http://www.w3.org/2000/svg" xmlns:xlink="http://www.w3.org/1999/xlink"><filter id="a" color-interpolation-filters="sRGB" filterUnits="userSpaceOnUse" height="112" width="112" x="12" y="12"><feFlood flood-opacity="0" result="BackgroundImageFix"/><feColorMatrix in="SourceAlpha" type="matrix" values="0 0 0 0 0 0 0 0 0 0 0 0 0 0 0 0 0 0 127 0"/><feOffset dy="4"/><feGaussianBlur stdDeviation="8"/><feColorMatrix type="matrix" values="0 0 0 0 0.360784 0 0 0 0 0.231373 0 0 0 0 0.996078 0 0 0 0.1 0"/><feBlend in2="BackgroundImageFix" mode="normal" result="effect1_dropShadow"/><feBlend in="SourceGraphic" in2="effect1_dropShadow" mode="normal" result="shape"/></filter><filter id="b" color-interpolation-filters="sRGB" filterUnits="userSpaceOnUse" height="112" width="112" x="6" y="6"><feFlood flood-opacity="0" result="BackgroundImageFix"/><feColorMatrix in="SourceAlpha" type="matrix" values="0 0 0 0 0 0 0 0 0 0 0 0 0 0 0 0 0 0 127 0"/><feOffset dy="4"/><feGaussianBlur stdDeviation="8"/><feColorMatrix type="matrix" values="0 0 0 0 0.360784 0 0 0 0 0.231373 0 0 0 0 0.996078 0 0 0 0.1 0"/><feBlend in2="BackgroundImageFix" mode="normal" result="effect1_dropShadow"/><feBlend in="SourceGraphic" in2="effect1_dropShadow" mode="normal" result="shape"/></filter><filter id="c" color-interpolation-filters="sRGB" filterUnits="userSpaceOnUse" height="112" width="112" x="0" y="0"><feFlood flood-opacity="0" result="BackgroundImageFix"/><feColorMatrix in="SourceAlpha" type="matrix" values="0 0 0 0 0 0 0 0 0 0 0 0 0 0 0 0 0 0 127 0"/><feOffset dy="4"/><feGaussianBlur stdDeviation="8"/><feColorMatrix type="matrix" values="0 0 0 0 0.360784 0 0 0 0 0.231373 0 0 0 0 0.996078 0 0 0 0.1 0"/><feBlend in2="BackgroundImageFix" mode="normal" result="effect1_dropShadow"/><feBlend in="SourceGraphic" in2="effect1_dropShadow" mode="normal" result="shape"/></filter><g filter="url(#a)" opacity=".1"><path d="m28 24h80v80h-80z" fill="#fff"/></g><g filter="url(#b)"><path d="m22 18h80v80h-80z" fill="#ae9dff"/></g><g filter="url(#c)"><path d="m16 12h80v80h-80z" fill="#5c3bfe"/><path d="m17 13h78v78h-78z" stroke="#fff" stroke-width="2"/></g><path d="m76 47.293c0-8.4326-6.8604-15.293-15.293-15.293-6.6684 0-12.3529 4.2908-14.4397 10.256-2.1539.7474-4.1284 1.9776-5.7879 3.6371-2.8885 2.8885-4.4794 6.7288-4.4794 10.8139 0 4.0848 1.5909 7.9254 4.4794 10.8136 2.8885 2.8885 6.7288 4.4791 10.8136 4.4791 4.0847 0 7.9251-1.5906 10.8136-4.4791 1.6858-1.6855 2.8943-3.67 3.627-5.7843 5.9707-2.0837 10.2664-7.771 10.2664-14.4433zm-25.9418 22.3047c-1.5268-.1435-2.9971-.5524-4.3573-1.2046l7.6801-7.6794c1.2527.6863 2.6114 1.2021 4.0448 1.5167zm5.0626-10.6238 7.854-7.8537c.6601 1.3836 1.0617 2.8607 1.203 4.3579l-4.7049 4.7049c-1.5451-.1468-3.0121-.5658-4.3521-1.2091zm-4.8505-4.025 8.6841-8.6841c.5252.387 1.0251.8161 1.4951 1.2857.4724.4728.9008.9729 1.2848 1.4957l-8.6835 8.6832c-1.0614-.7807-1.9998-1.7191-2.7805-2.7805zm-11.8683 2.9929 7.3676-7.3676c.3146 1.4331.8301 2.7918 1.5164 4.0445l-7.6797 7.6798c-.6519-1.3599-1.0608-2.8302-1.2043-4.3567zm10.6827-13.9975-1.1374 1.1377c.055-.318.1215-.6317.1993-.9415.3095-.0766.6223-.1422.9381-.1962zm-1.2677 4.5825 4.7107-4.7107c1.5265.1434 2.9965.5524 4.3567 1.2042l-7.8586 7.8586c-.6433-1.34-1.062-2.8067-1.2088-4.3521zm16.2287 10.3979c-.0538.3122-.1191.6229-.196.9311-.3064.0766-.617.1422-.9317.1969zm-21.9092-11.3745c1.0202-1.0199 2.1808-1.8481 3.4378-2.4679-.105.722-.1602 1.4599-.1602 2.2107 0 .1062.0018.2124.0039.3183l-6.8875 6.8875c.4471-2.619 1.6889-5.0311 3.606-6.9486zm-1.2857 16.8183 7.7469-7.7469c.8041 1.0412 1.7392 1.9763 2.7804 2.7804l-7.7472 7.7469c-.5249-.3869-1.0248-.8157-1.4944-1.2854-.47-.4699-.8988-.9698-1.2857-1.495zm19.5987 1.495c-1.9172 1.9168-4.3296 3.1586-6.9486 3.606l6.8878-6.8875c.1059.0021.2118.0039.3183.0039.7486 0 1.4844-.0549 2.2043-.1593-.61 1.2418-1.4303 2.4054-2.4618 3.4369z" fill="#fff"/></svg>