<svg fill="none" height="956" width="748" xmlns="http://www.w3.org/2000/svg"><path d="m370 628h2v248h-2z" fill="#fa4700"/><circle cx="372" cy="916" fill="#fa4700" r="40"/><path d="m390.5 915.534a1 1 0 0 1 0 1.732l-18 10.392a1 1 0 0 1 -1.5-.866v-20.784a1 1 0 0 1 1.5-.866z" fill="#fff"/><path d="m384.101 915.534a1 1 0 0 1 0 1.732l-18 10.392a1 1 0 0 1 -1.5-.866v-20.784a1 1 0 0 1 1.5-.866z" opacity=".7" stroke="#fff" stroke-dasharray="1 3" stroke-linecap="round" stroke-linejoin="round"/><path d="m377.7 915.534a1 1 0 0 1 0 1.732l-18 10.392a1 1 0 0 1 -1.5-.866v-20.784a1 1 0 0 1 1.5-.866z" opacity=".3" stroke="#fff" stroke-dasharray="1 3" stroke-linecap="round" stroke-linejoin="round"/><circle cx="374" cy="373.968" fill="#fff" r="233.127"/><g stroke="#fff"><circle cx="374" cy="374" opacity=".8" r="281.87"/><circle cx="374" cy="374" opacity=".5" r="326.127"/><circle cx="374" cy="374" opacity=".3" r="373.5"/></g></svg>