<svg fill="none" height="484" width="1639" xmlns="http://www.w3.org/2000/svg"><path d="m62.352 394.296h27.072c-1.44 6.768-10.224 8.784-24.624 8.784-22.032 0-25.92-10.944-25.92-23.184 0-12.096 3.744-21.456 25.92-21.456 15.84 0 23.184 4.752 24.624 9.936h38.304c-1.584-27.504-22.608-41.616-62.928-41.616-41.472 0-63.36 16.704-63.36 51.696 0 35.136 21.888 51.984 59.04 51.984 21.168 0 34.416-6.048 42.912-15.984l2.736 14.544h21.6v-54.864h-65.376zm200.802-15.84v-50.256h-37.44v50.256c0 10.656-3.888 20.304-25.92 20.304s-25.92-9.504-25.92-20.304v-50.256h-37.44v50.256c0 35.136 19.008 51.984 63.36 51.984 44.208 0 63.36-16.992 63.36-51.984zm116.629-21.456v-28.8h-106.56v100.8h106.56v-28.8h-69.12v-9.36h69.12v-24.48h-69.12v-9.36zm7.133 36.432c0 29.952 23.04 37.008 64.368 37.008s64.368-7.056 64.368-34.848c0-26.352-24.624-29.088-64.368-30.672-21.888-.864-25.488-.72-25.488-4.608s3.6-4.752 21.168-4.752c18.288 0 26.928 1.152 26.928 6.48h37.44c0-25.776-22.176-35.28-61.488-35.28-39.744 0-61.488 9.504-61.488 31.68 0 23.472 17.424 30.96 62.928 32.4 23.616.72 26.928 1.296 26.928 5.616 0 3.744-3.312 5.184-25.488 5.184-23.76 0-28.368-3.312-28.368-8.208zm256.972-65.232h-123.84v31.68h43.2v69.12h37.44v-69.12h43.2zm335.552-256.32v-31.68h-106.56v100.8h37.44v-26.64h60.48v-31.68h-60.48v-10.8zm46.01 37.44v-69.12h-37.438v100.8h103.678v-31.68zm136.8 33.12c44.21 0 63.36-16.992 63.36-51.984 0-34.848-19.15-51.696-63.36-51.696-44.35 0-63.36 16.704-63.36 51.696 0 35.136 19.01 51.984 63.36 51.984zm0-31.68c-22.03 0-25.92-9.504-25.92-20.304 0-10.656 3.75-20.016 25.92-20.016 22.18 0 25.92 9.504 25.92 20.016 0 10.656-3.89 20.304-25.92 20.304zm232.39-70.56-20.88 71.136-21.89-71.136h-44.64l-21.88 71.136-20.88-71.136h-40.18l33.12 100.8h55.58l16.56-58.032 16.56 58.032h55.59l33.12-100.8z" fill="#fafbfc" opacity=".1"/></svg>