<svg fill="none" height="1146" width="1407" xmlns="http://www.w3.org/2000/svg"><path d="m82.8 960h34.32l-34.8-84h-46.32l-34.8 84h34.32l5.76-15.12h35.76zm-33.36-36.72 9.72-25.68 9.72 25.68zm165.308-10.2c4.08-4.8 6.6-10.32 6.6-15.72 0-12.72-5.88-21.36-24.96-21.36h-73.201v84h76.801c19.08 0 27.36-11.04 27.36-24.84 0-9.12-5.28-16.8-12.6-22.08zm-60.361-16.68h28.801c3.119 0 6.959 0 6.959 4.56s-3.84 4.56-6.959 4.56h-28.801zm34.801 40.8h-34.801v-8.88h34.801c3.12 0 6.96 0 6.96 4.44s-3.84 4.44-6.96 4.44zm94.668 24c36.84 0 52.8-14.16 52.8-43.32 0-29.04-15.96-43.08-52.8-43.08-36.96 0-52.8 13.92-52.8 43.08 0 29.28 15.84 43.32 52.8 43.32zm0-26.4c-18.36 0-21.6-7.92-21.6-16.92 0-8.88 3.12-16.68 21.6-16.68s21.6 7.92 21.6 16.68c0 8.88-3.24 16.92-21.6 16.92zm165.647-16.92v-41.88h-31.2v41.88c0 8.88-3.24 16.92-21.6 16.92s-21.6-7.92-21.6-16.92v-41.88h-31.2v41.88c0 29.28 15.84 43.32 52.8 43.32 36.84 0 52.8-14.16 52.8-43.32zm110.391-41.88h-103.2v26.4h36v57.6h31.2v-57.6h36zm701.106 201.6v66h84v-31.2h-19.68v-34.8c0-19.08-13.44-32.16-32.16-32.16s-32.16 13.08-32.16 32.16zm37.92 6v28.8h-11.52v-28.8c0-3.12 0-6.96 5.76-6.96s5.76 3.84 5.76 6.96zm-5.76-143.479c-18.72 0-32.16 13.08-32.16 32.16v65.999h84v-31.2h-19.68v-18.359l19.68-11.64v-36.96l-24.12 14.88c-5.4-9.24-15.48-14.88-27.72-14.88zm-5.76 66.959v-28.799c0-3.12 0-6.96 5.76-6.96s5.76 3.84 5.76 6.96v28.799zm58.8-125.718c0-36.84-14.16-52.8-43.32-52.8-29.04 0-43.08 15.96-43.08 52.8 0 36.961 13.92 52.801 43.08 52.8 29.28 0 43.32-15.84 43.32-52.8zm-26.4 0c0 18.36-7.92 21.6-16.92 21.6-8.88 0-16.68-3.12-16.68-21.6s7.92-21.6 16.68-21.6c8.88 0 16.92 3.24 16.92 21.6zm-58.8-160.846v58.44h26.4v-27.24h15.48c8.88 0 16.92 3.24 16.92 19.2s-7.92 19.2-16.92 19.2v31.2c29.28 0 43.32-15.84 43.32-50.4 0-34.44-14.16-50.4-43.32-50.4zm24-97.186h-24v88.8h84v-88.8h-24v57.6h-7.8v-57.6h-20.4v57.6h-7.8zm17.88-5.944c29.28 0 43.32-15.84 43.32-52.8 0-33.72-11.88-51.12-38.52-52.44v31.92c8.04 1.2 12.12 7.32 12.12 20.52 0 18.36-7.92 21.6-16.92 21.6-8.88 0-16.68-3.12-16.68-21.6 0-13.2 3.96-19.32 11.88-20.52v-31.92c-26.52 1.32-38.28 18.84-38.28 52.44 0 36.96 13.92 52.8 43.08 52.8zm-41.88-213.323v103.2h26.4v-36h57.6v-31.2h-57.6v-36z" fill="#f6f7f9" opacity=".5"/></svg>