<svg viewBox="0 0 80 80" xmlns="http://www.w3.org/2000/svg"><rect width="80" height="80" rx="16" fill="#fff"/><g clip-path="url(#clip0)" fill="#FF6B30"><path d="M40.04 38.141c-.647 0-1.21-.36-1.501-.89-.227-.415-.593-.82-1.065-.82-.473 0-.867.388-.75.846a3.427 3.427 0 0 0 3.316 2.575 3.427 3.427 0 0 0 3.316-2.575c.117-.458-.277-.847-.75-.847-.472 0-.838.406-1.065.82-.29.53-.854.891-1.501.891zm-3.42-7.699a.856.856 0 1 1-1.712 0 .856.856 0 0 1 1.711 0zm8.553 0a.856.856 0 1 1-1.711 0 .856.856 0 0 1 1.71 0z"/><path d="M62.076 18.466a4.454 4.454 0 0 0-3.171 1.313l-.9.9-.899-.9a4.454 4.454 0 0 0-3.17-1.313 4.428 4.428 0 0 0-2.914 1.094c-2.248-3.724-6.322-6.227-10.98-6.227-7.076 0-12.833 5.757-12.833 12.832v2.707a4.363 4.363 0 0 0-1.062-.14 4.454 4.454 0 0 0-3.17 1.313l-.9.898-.899-.899a4.454 4.454 0 0 0-3.171-1.313 4.49 4.49 0 0 0-4.485 4.485c0 1.197.467 2.324 1.314 3.17l7.24 7.242 7.056-7.055a4.24 4.24 0 0 0 1.851.661 9.432 9.432 0 0 0 3.925 5.361v1.773l-8.737 2.913a5.981 5.981 0 0 0-4.094 5.68v9.988c0 .944.767 1.71 1.71 1.71h11.121c.791 0 1.51-.28 2.09-.731l3.043 2.739 3.042-2.74c.58.452 1.3.733 2.09.733h11.121c.944 0 1.711-.767 1.711-1.711V52.96a5.98 5.98 0 0 0-4.093-5.68l-8.738-2.913v-1.773a9.44 9.44 0 0 0 3.926-5.36c2.118-.253 3.773-2.04 3.773-4.227V28.23l5.132 5.133 7.242-7.241a4.457 4.457 0 0 0 1.313-3.172 4.49 4.49 0 0 0-4.484-4.484zM40.04 15.044c6.132 0 11.12 4.99 11.12 11.12v3.445a4.234 4.234 0 0 0-1.71-.79v-2.654h-1.71v.855h-.856a7.736 7.736 0 0 1-6.16-3.08l-.684-.911-.684.91a7.736 7.736 0 0 1-6.16 3.081h-.855v-.855h-1.71v2.653a4.249 4.249 0 0 0-1.712.79v-3.443c0-6.132 4.99-11.12 11.121-11.12zM16.045 35.177a2.776 2.776 0 0 1 3.923-3.923l2.109 2.109 2.109-2.109a2.794 2.794 0 0 1 3.023-.587v2.341c0 .87.265 1.679.713 2.355l-5.845 5.846-6.032-6.032zm12.875-2.169c0-1.113.718-2.054 1.711-2.408v4.12c0 .239.018.473.036.709a2.563 2.563 0 0 1-1.747-2.42zm5.988 29.94h-11.12v-5.132h3.421v1.711h7.7a1.711 1.711 0 0 1 0 3.421zm3.149-.37a3.425 3.425 0 0 0-3.148-4.761h-2.013a2.982 2.982 0 0 1-.554-1.715v-.424a2.997 2.997 0 0 1 2.994-2.994 3.02 3.02 0 0 1 1.798.599l2.907 2.18 2.909-2.18a3.011 3.011 0 0 1 1.796-.6 2.997 2.997 0 0 1 2.994 2.995v.424c0 .62-.2 1.213-.553 1.714h-2.013a3.425 3.425 0 0 0-3.148 4.762l-1.985 1.786-1.984-1.786zm7.117.37a1.711 1.711 0 0 1-.001-3.42h7.7v-1.712h3.422v5.133H45.173zm8.196-14.044a4.272 4.272 0 0 1 2.925 4.057v3.144h-3.422v-3.421h-1.711v5.132h-2.037a4.696 4.696 0 0 0 .326-1.714v-.424a4.71 4.71 0 0 0-4.705-4.705 4.73 4.73 0 0 0-2.823.942l-1.882 1.41-1.88-1.41a4.737 4.737 0 0 0-2.825-.942 4.711 4.711 0 0 0-4.705 4.705v.424c0 .593.114 1.173.326 1.714H28.92v-5.132h-1.71v3.421h-3.422v-3.144a4.271 4.271 0 0 1 2.924-4.057l8.82-2.94 4.51 4.508 4.507-4.509 8.82 2.94zm-9.907-4.274l-3.422 3.422-3.422-3.422v-1.155a9.343 9.343 0 0 0 3.422.654 9.34 9.34 0 0 0 3.422-.654v1.155zm-3.422-2.212c-4.245 0-7.699-3.453-7.699-7.699v-5.988h.856a9.458 9.458 0 0 0 6.843-2.953 9.46 9.46 0 0 0 6.844 2.953h.855v5.988c0 4.246-3.453 7.7-7.699 7.7zm9.374-6.99c.018-.235.036-.47.036-.709V30.6a2.563 2.563 0 0 1 1.71 2.41 2.562 2.562 0 0 1-1.746 2.42zm14.622-10.516l-6.032 6.031-5.151-5.151a12.743 12.743 0 0 0-.998-4.63c.524-.613 1.266-.985 2.08-.985.74 0 1.438.288 1.96.812l2.11 2.108 2.108-2.108a2.776 2.776 0 0 1 3.923 3.923z"/></g><defs><clipPath id="clip0"><path fill="#fff" transform="translate(13.333 13.333)" d="M0 0h53.333v53.333H0z"/></clipPath></defs></svg>