<svg fill="none" height="105" width="829" xmlns="http://www.w3.org/2000/svg"><path d="m124.28 2.2h-123.84v31.68h43.2v69.12h37.44v-69.12h43.2zm46.063 0h-37.44v100.8h37.44zm7.206 50.256c0 35.136 19.008 51.984 63.36 51.984 40.464 0 61.344-14.256 62.928-46.224h-38.304c-1.44 9.648-8.784 14.544-24.624 14.544-22.032 0-25.92-9.504-25.92-20.304 0-10.656 3.744-20.016 25.92-20.016 15.84 0 23.184 4.752 24.624 14.256h38.304c-1.584-31.824-22.608-45.936-62.928-45.936-44.352 0-63.36 16.704-63.36 51.696zm272.082-50.256h-53.28l-46.368 39.456v-39.456h-37.44v100.8h37.44v-19.152l15.552-12.816 32.256 31.968h51.84l-58.032-53.28zm113.855 28.8v-28.8h-106.56v100.8h106.56v-28.8h-69.12v-9.36h69.12v-24.48h-69.12v-9.36zm130.972-28.8h-123.84v31.68h43.2v69.12h37.44v-69.12h43.2zm5.777 65.232c0 29.952 23.04 37.008 64.368 37.008s64.368-7.056 64.368-34.848c0-26.352-24.624-29.088-64.368-30.672-21.888-.864-25.488-.72-25.488-4.608s3.6-4.752 21.168-4.752c18.288 0 26.928 1.152 26.928 6.48h37.44c0-25.776-22.176-35.28-61.488-35.28-39.744 0-61.488 9.504-61.488 31.68 0 23.472 17.424 30.96 62.928 32.4 23.616.72 26.928 1.296 26.928 5.616 0 3.744-3.312 5.184-25.488 5.184-23.76 0-28.368-3.312-28.368-8.208z" fill="#fafbfc"/></svg>