<svg fill="none" height="555" viewBox="0 0 388 555" width="388" xmlns="http://www.w3.org/2000/svg"><path d="m191 226.775h2v248h-2z" fill="#fa4700"/><circle cx="193" cy="514.775" fill="#fa4700" r="40"/><path d="m211.5 514.309c.667.385.667 1.348 0 1.732l-18 10.393c-.666.385-1.5-.096-1.5-.866v-20.785c0-.77.834-1.251 1.5-.866z" fill="#fff"/><path d="m205.1 514.309c.667.385.667 1.348 0 1.732l-18 10.393c-.666.385-1.5-.096-1.5-.866v-20.785c0-.77.834-1.251 1.5-.866z" opacity=".7" stroke="#fff" stroke-dasharray="1 3" stroke-linecap="round" stroke-linejoin="round"/><path d="m198.7 514.309c.667.385.667 1.348 0 1.732l-18 10.393c-.666.385-1.5-.096-1.5-.866v-20.785c0-.77.834-1.251 1.5-.866z" opacity=".3" stroke="#fff" stroke-dasharray="1 3" stroke-linecap="round" stroke-linejoin="round"/><circle cx="194" cy="193.984" fill="#fff" r="120.927"/><g stroke="#fff"><circle cx="194" cy="194" opacity=".8" r="145.97"/><circle cx="194" cy="194" opacity=".5" r="168.927"/><circle cx="194" cy="194" opacity=".3" r="193.5"/></g></svg>