<svg viewBox="0 0 80 80" xmlns="http://www.w3.org/2000/svg"><rect width="80" height="80" rx="16" fill="#fff"/><g clip-path="url(#clip0)" fill="#FF6B30"><path d="M38.495 31.398a.86.86 0 1 1-1.72 0 .86.86 0 0 1 1.72 0zm8.602 0a.86.86 0 1 1-1.72 0 .86.86 0 0 1 1.72 0zm-6.671 5.986c-.228-.417-.596-.825-1.07-.825-.476 0-.872.391-.754.852A3.446 3.446 0 0 0 41.936 40a3.447 3.447 0 0 0 3.334-2.59c.118-.46-.278-.852-.753-.852-.476 0-.843.408-1.071.825a1.722 1.722 0 0 1-3.02 0z"/><path d="M60 53.183a6.013 6.013 0 0 0-1.72-4.215v-2.516a5.188 5.188 0 0 0-2.064-4.13 3.46 3.46 0 0 1-1.377-2.752V26.237c0-7.115-5.788-12.904-12.903-12.904s-12.903 5.789-12.903 12.904V39.57a3.46 3.46 0 0 1-1.378 2.753 5.185 5.185 0 0 0-2.039 3.699H11.828v.86c0 .322.017.619.027.925-2.926.407-5.188 2.92-5.188 5.956a6.029 6.029 0 0 0 6.021 6.022h2.094c.294 1.079.487 2.183.487 3.44 0 2.26 3.894 3.442 7.742 3.442s7.742-1.182 7.742-3.441c0-.604.044-1.172.123-1.72H60v-8.323zm-4.818-9.484a3.46 3.46 0 0 1 1.377 2.753v1.305a5.976 5.976 0 0 0-.676-.287l-8.786-2.93v-1.78a9.472 9.472 0 0 0 4.148-6.272 4.247 4.247 0 0 0 1.874-.811v3.894a5.19 5.19 0 0 0 2.063 4.129zm-7.225 9.204v-6.261l1.72.574v5.687h-1.72zm-13.773-5.685l1.73-.576v6.261h-2.44c.399-1.604.683-3.449.71-5.685zm8.43-18.107a6.427 6.427 0 0 1-.489-1.33 18.962 18.962 0 0 0 7.553 1.883v5.175c0 4.268-3.473 7.742-7.742 7.742-4.27 0-7.742-3.474-7.742-7.742v-7.1a26.078 26.078 0 0 0 7.573 2.781l1.725.345-.877-1.754zm-.678 15.19a9.395 9.395 0 0 0 3.44-.657v1.206l-3.44 4.129-3.441-4.129v-1.206a9.395 9.395 0 0 0 3.44.657zm-4.301 2.204l4.3 5.161 4.302-5.161v6.398h-8.602v-6.398zm13.763-16.67a2.577 2.577 0 0 1 1.72 2.423c0 1.12-.721 2.066-1.72 2.422v-4.844zm-9.462-14.781c6.166 0 11.183 5.017 11.183 11.183v2.603a4.258 4.258 0 0 0-1.72-.795v-1.808h-1.721v1.705a17.255 17.255 0 0 1-8.16-2.442l-1.303-.783v1.52c0 .751.106 1.503.312 2.227a24.379 24.379 0 0 1-6.21-2.641l-1.844-1.106v3.327a4.261 4.261 0 0 0-1.72.795v-2.602c0-6.166 5.017-11.183 11.183-11.183zM30.753 32.258c0-1.12.722-2.066 1.72-2.422v4.844a2.575 2.575 0 0 1-1.72-2.422zm-2.064 11.44a5.189 5.189 0 0 0 2.064-4.128v-3.9c.54.407 1.173.695 1.874.815.461 2.62 2 4.87 4.148 6.275v1.782l-4.442 1.48h-4.97a3.44 3.44 0 0 1 1.326-2.323zm-16 14.367a4.306 4.306 0 0 1-4.302-4.301c0-2.125 1.553-3.884 3.58-4.229.314 3.097 1.13 5.372 1.874 7.417.138.379.27.747.399 1.113h-1.552zm16.344 5.16c0 .5-2.11 1.721-6.022 1.721-3.911 0-6.021-1.22-6.021-1.72 0-2.654-.745-4.698-1.532-6.863-.873-2.4-1.775-4.874-1.895-8.621H32.46c-.12 3.747-1.021 6.222-1.894 8.621-.79 2.165-1.533 4.21-1.533 6.863zm3.148-6.273c.269-.736.544-1.507.805-2.328h19.581l.469 5.161h-3.358v-3.44H34.194v3.44H31.24c.254-.937.585-1.854.941-2.833zm15.776 2.833H35.914v-1.72h12.043v1.72zm10.323 0h-3.516l-.789-8.68-1.713.156.148 1.642h-1.012V47.79l3.94 1.313a4.296 4.296 0 0 1 2.942 4.081v6.602z"/></g><defs><clipPath id="clip0"><path fill="#fff" transform="translate(6.667 13.333)" d="M0 0h53.333v53.333H0z"/></clipPath></defs></svg>