<svg viewBox="0 0 80 80" xmlns="http://www.w3.org/2000/svg"><rect width="80" height="80" rx="16" fill="#fff"/><g clip-path="url(#clip0)" fill="#FF6B30"><path d="M53.716 58.356c-.81 0-.787.809-.787 1.383v1.506h-3.35c-.492 0-1.102-.088-1.355.455-.194.419-.073 1.093-.073 1.536v1.81h-4.344l-1.17-8.4c.453.562 1.018.495 1.461-.003l1.118-1.256 2.12-2.382c.723.216 1.48.394 2.163.72a6.047 6.047 0 0 1 2.282 1.89c.205.28.34.62.55.89.414.531 1.29.338 1.405-.338.1-.584-.528-1.292-.867-1.72a7.64 7.64 0 0 0-3.27-2.39c-.723-.272-1.482-.461-2.221-.682l-1.46-.923c-.445-.64-.38-1.38-.38-2.116v-1.671a9.627 9.627 0 0 0 3.1-4.089c.54-1.357.676-2.746.676-4.192 2.159.021 3.847-1.748 3.847-3.878s-1.688-3.9-3.847-3.879v-6.466c0-.629.114-1.38-.017-2.003a5.068 5.068 0 0 0-2.75-4.08c-.593-.3-1.204-.567-1.806-.85-1.488-.698-2.964-1.432-4.469-2.092-.883-.387-1.775-.755-2.663-1.132-1.494-.634-3.062-.873-4.658-.478-1.261.312-2.767.964-3.566 2.016-.665.876-.811 1.87-.811 2.93v5.907l-1.404 1.042c-.552.409-1.23.785-1.398 1.506-.241 1.042.57 1.95 1.594 1.982.34.01.681 0 1.021 0 2.47 0 4.94.015 7.41 0a10.63 10.63 0 0 0 4.175-.874c1.009-.438 1.883-1.06 2.76-1.71.014 1.387 1.36 2.136 2.163 3.083.232.275.188.524.216.853.04.459.229.895.537 1.237.568.63 1.298.703 2.092.703v4.328c0 1.75.132 3.54-.47 5.217-1.092 3.042-3.997 5.176-7.23 5.294-2.823.104-5.506-.86-7.247-3.164a8.013 8.013 0 0 1-1.555-3.839c-.073-.59-.061-1.181-.061-1.774v-5.482c0-.535.026-1.079 0-1.614-.054-1.077-1.521-1.046-1.574.023-.074 1.523 0 3.069 0 4.594 0 1.47-.107 3 .075 4.463a9.62 9.62 0 0 0 4.403 6.91c.594.372 1.23.679 1.892.913 0 .776.125 1.69-.26 2.393l-1.435 1.07c-1.047.313-2.088.597-3.027 1.18a7.63 7.63 0 0 0-3.163 3.976c-.635 1.853-.406 4.004-.406 5.935 0 .778-.008 1.558 0 2.336.011 1 .713 1.652 1.699 1.659 1.394.01 2.79 0 4.184 0H51.16c.71 0 1.686.162 2.366-.112.928-.373.976-1.248.976-2.093 0-1.725.075-3.468 0-5.191-.019-.453-.28-.867-.786-.867zM51.587 34.41c.013 1.31-.906 2.419-2.273 2.402V32.2c1.226-.02 2.273.97 2.273 2.209zm-21.44-16.463c0-1.243.86-1.937 1.891-2.402 1.235-.558 2.501-.825 3.846-.49 1.313.325 2.584 1.025 3.826 1.553l3.77 1.769c1.374.644 3.134 1.171 3.876 2.607.484.937.384 1.986.384 3.006H30.147v-6.043zm10.935 7.645A8.934 8.934 0 0 1 36.1 27.33c-.486.017-.974.005-1.46.005h-5.737c-.524 0-1.055.024-1.579-.003-.01-.006-.02-.039-.016-.05.052-.101.262-.198.35-.263l.78-.579 1.183-.878H41.12l-.038.029zm6.142 5.037c-.381 0-.528-.318-.547-.643-.023-.4-.06-.76-.25-1.123-.218-.42-.594-.744-.923-1.076-.322-.327-.673-.64-.974-.987-.303-.35-.225-.8-.225-1.236h3.435v5.065h-.517zM36.386 51.925l3.157 1.635-.014.047-1.283 1.483-2.435-2.737.575-.428zm6.986 3.165l-1.134-1.312a1.413 1.413 0 0 0-.068-.267l3.047-1.578a.835.835 0 0 0 .168.045l.484.306-2.497 2.806zm-3.63-6.47a9.51 9.51 0 0 0 4.22-.98c0 1.004-.107 2.076.286 3.023l-3.439 1.78-3.465-1.795c.242-.704.202-1.435.202-2.167.73.125 1.459.14 2.195.14zM29.255 62.818h3.354v2.228h-3.354v-2.228zm10.57 2.228c.072-.651.373-2.02-.755-1.894-.851.094-.76 1.269-.829 1.894h-4.058c0-1.005.114-2.075-.005-3.073-.087-.738-.74-.728-1.305-.728h-3.617c0-1.562-.123-3.136.55-4.595a6.092 6.092 0 0 1 2.28-2.595c.72-.452 1.513-.676 2.318-.917l2.225 2.5c.329.37.644.765.992 1.116.614.619 1.134.155 1.58-.361-.167 1.516-.444 3.057-.507 4.58-.03.716.814 1.206 1.353.634.214-.227.218-.52.25-.81l.323-2.913.266-2.406 1.332 9.568h-2.392zm9.899 0v-2.228h3.204v2.228h-3.204z"/><path d="M35.01 33.334a.902.902 0 1 1-1.802 0 .902.902 0 0 1 1.803 0zm7.211 0a.901.901 0 1 1-1.802 0 .901.901 0 0 1 1.802 0zm-2.446 6.909a2.844 2.844 0 0 1-1.343 1.048c-.942.346-1.78.066-2.098-.07a.787.787 0 0 0-.622 1.445c.316.136.969.364 1.788.364.45 0 .951-.069 1.474-.26a4.436 4.436 0 0 0 2.096-1.633.787.787 0 0 0-1.295-.894zM36.357 18.48a2.84 2.84 0 0 1-.916-.495l-.033-.026a1.727 1.727 0 0 0-2.354.126l-.007.007c-.245.25-.526.46-.834.628a.785.785 0 0 0-.41.679 3.647 3.647 0 0 0 .578 2.018c.294.455.696.845 1.164 1.127a1.339 1.339 0 0 0 1.373.011 4.012 4.012 0 0 0 1.384-1.338 3.995 3.995 0 0 0 .6-1.959.787.787 0 0 0-.545-.779zm-1.39 1.904c-.22.353-.498.59-.723.738a2.019 2.019 0 0 1-.833-1.292 5.06 5.06 0 0 0 .753-.63l.011-.01.004-.004c.063-.064.157-.072.222-.018l.052.043c.248.2.515.371.798.512a2.376 2.376 0 0 1-.284.662zm-5.379 32.29c.218 0 .434-.09.59-.266a2.877 2.877 0 0 1 1.538-.904.786.786 0 1 0-.339-1.536A4.449 4.449 0 0 0 29 51.364a.787.787 0 0 0 .588 1.309zm21.438-2.706a.787.787 0 0 0-.339 1.536 2.888 2.888 0 0 1 1.538.905.784.784 0 0 0 1.111.067.787.787 0 0 0 .067-1.111 4.459 4.459 0 0 0-2.377-1.397z"/></g><defs><clipPath id="clip0"><path fill="#fff" transform="translate(13.333 13.333)" d="M0 0h53.333v53.333H0z"/></clipPath></defs></svg>