<svg fill="none" height="110" width="110" xmlns="http://www.w3.org/2000/svg" xmlns:xlink="http://www.w3.org/1999/xlink"><linearGradient id="a" gradientUnits="userSpaceOnUse" x1="29.736" x2="75.588" y1="36.066" y2="55.082"><stop offset=".05" stop-color="#e3af17"/><stop offset=".27" stop-color="#ef7613"/><stop offset=".86" stop-color="#d138a6"/></linearGradient><linearGradient id="b" gradientUnits="userSpaceOnUse" x1="44.28" x2="47.977" y1="48.137" y2="50.057"><stop offset=".29" stop-color="#ec6d29"/><stop offset=".85" stop-color="#c24c27"/></linearGradient><linearGradient id="c" gradientUnits="userSpaceOnUse" x1="49.507" x2="52.09" y1="53.416" y2="54.803"><stop offset="0" stop-color="#c73952"/><stop offset="1" stop-color="#de5564"/></linearGradient><rect fill="#fff" height="110" rx="24" width="110"/><path d="m29.61 36.21c.931-.83 2.305-.82 3.452-.539 1.677.382 3.026 1.514 4.32 2.582 3.7 3.23 7.093 6.79 10.426 10.393.544-2.706.886-5.47 1.81-8.085.578-1.555 1.318-3.17 2.676-4.19 1.359-1.018 3.402-1.09 4.715.012a5.232 5.232 0 0 1 1.572 2.06c1.21 2.424 1.327 5.186 1.951 7.78.188.617.29 1.353.818 1.782.577.265 1.017-.361 1.405-.688 2.389-2.457 4.502-5.151 6.738-7.735 1.305-1.454 2.67-2.974 4.5-3.759 1.056-.475 2.413-.475 3.296.35.839.84.897 2.107.928 3.22-.09 3.064-.913 6.062-1.993 8.912-1.38 3.28-3.075 6.488-5.467 9.15-1.81 2.024-4.187 3.617-6.883 4.142a10.015 10.015 0 0 1 -7-.912c-2.676-1.44-4.903-3.555-7.05-5.673-.427 1.821-.919 3.725-2.134 5.198a3.934 3.934 0 0 1 -3.55 1.426c-1.539-.196-2.837-1.155-3.985-2.135-2.328-2.173-4.121-4.838-5.781-7.537-2.411-4-4.756-8.204-5.49-12.88-.194-.995-.087-2.18.727-2.874zm2.172 2.37c-.27.994.194 1.988.514 2.915.897 2.205 2.034 4.317 3.199 6.377 1.751 2.955 3.516 5.926 5.725 8.57.634.735 1.346 1.426 2.204 1.902.574.307 1.357.425 1.902 0 .574-.449.773-1.187.951-1.86.289-1.426.561-2.862.862-4.28a622.445 622.445 0 0 0 -8.598-9.011c-1.743-1.714-3.465-3.502-5.598-4.727-.363-.18-.964-.392-1.16.114zm21.631.574c-1.041 1.972-1.415 4.194-1.943 6.34a101.823 101.823 0 0 0 -1.014 5.918 108.74 108.74 0 0 0 3.739 3.57 22.709 22.709 0 0 0 4.893 3.194c1.649.748 3.59.962 5.298.28 2.378-.927 4.121-2.916 5.596-4.914 2.167-3.078 3.646-6.592 4.665-10.206.353-1.353.73-2.711.781-4.122.01-.333-.057-.686-.317-.91-.566.111-.989.509-1.392.89-1.71 1.657-3.04 3.645-4.585 5.457-1.755 2.072-3.513 4.2-5.736 5.79-.917.687-2.182 1.087-3.278.589-1.323-.614-2.003-2.06-2.292-3.415-.537-2.728-.83-5.548-1.973-8.119-.317-.537-.66-1.276-1.367-1.316-.518.102-.82.573-1.075.974z" fill="url(#a)"/><path d="m45.412 46.184c.84.793 1.615 1.642 2.435 2.454-.241 1.176-.465 2.355-.693 3.532-1.002-.836-1.796-1.903-2.726-2.822.337-1.054.643-2.11.984-3.164z" fill="url(#b)"/><path d="m53.174 54.032a6.954 6.954 0 0 1 -.536-.518 6.985 6.985 0 0 1 -.38-.366l-.03-.029-.145-.135-.019-.017c-.057-.057-.114-.113-.17-.171a7.559 7.559 0 0 1 -.457-.44 6.365 6.365 0 0 1 -.498-.495 32.06 32.06 0 0 0 -.49-.433c-.208 1.198-.423 2.398-.62 3.6a81.977 81.977 0 0 0 2.628 2.466c.601-.848 1.032-1.8 1.527-2.714a4.624 4.624 0 0 1 -.217-.214 6.67 6.67 0 0 1 -.593-.534z" fill="url(#c)"/><path d="m16 65.712h2.127c.552 1.978 1.11 3.953 1.652 5.935.048.181.116.356.203.523.61-2.151 1.195-4.307 1.797-6.458h1.94c.633 2.159 1.179 4.343 1.854 6.488.621-2.156 1.201-4.326 1.807-6.487h2.029c-.964 2.907-1.93 5.813-2.896 8.719-.683 0-1.368.01-2.051-.014-.566-2.061-1.16-4.122-1.744-6.183-.602 2.061-1.194 4.122-1.794 6.183-.685 0-1.369.007-2.052-.013-.944-2.898-1.918-5.794-2.872-8.693zm16.29-.008c1.375.008 2.75-.02 4.12.014 1.078.04 2.26.449 2.813 1.44.8 1.486.377 3.677-1.237 4.438.618.943 1.23 1.891 1.845 2.836h-2.238c-.452-.823-.906-1.644-1.362-2.465h-1.968v2.468h-1.974v-8.731zm1.974 1.645v2.966c.847-.038 1.714.097 2.544-.106 1.232-.33 1.26-2.407.026-2.749-.84-.21-1.717-.073-2.57-.11zm10.134-1.222c1.724-.886 3.872-.531 5.49.434-.258.55-.495 1.11-.78 1.646-.87-.476-1.83-.897-2.84-.888-.37.016-.846.129-.965.536s.19.76.534.92c1.07.51 2.341.575 3.294 1.332.878.67 1.018 1.995.525 2.936-.41.763-1.235 1.194-2.061 1.36a6.104 6.104 0 0 1 -4.963-1.268c.261-.537.525-1.076.792-1.612.896.726 1.996 1.292 3.17 1.301.476 0 1.125-.149 1.228-.702.087-.425-.252-.775-.614-.927-1.143-.514-2.536-.547-3.476-1.47-1-1.043-.62-2.96.666-3.598zm8.014-.412c2.436-.011 4.873 0 7.308 0v1.667h-2.671v7.043c-.657.01-1.315 0-1.97.01-.02-2.35 0-4.702-.01-7.053-.886 0-1.776.016-2.662-.014.01-.553.007-1.108.005-1.653zm10.721-.005c1.344 0 2.695-.027 4.038.013 1.014.025 2.184.552 2.404 1.64.298 1.06-.356 2.248-1.452 2.475.41.105.834.222 1.165.504 1.05.839 1.012 2.695-.098 3.476-.723.522-1.652.62-2.516.612-1.187-.016-2.377.024-3.557-.024.035-2.897.007-5.798.016-8.696zm1.008.962v2.78c1.062-.028 2.127.058 3.186-.048.704-.065 1.364-.66 1.292-1.405.022-.7-.623-1.21-1.268-1.277-1.07-.11-2.138-.027-3.21-.05zm0 3.727v3.082h2.536c.634-.008 1.34-.067 1.863-.476a1.393 1.393 0 0 0 .119-2.03c-.485-.459-1.187-.557-1.83-.573-.901-.01-1.794-.003-2.688-.003zm9.931-4.687c.353.025.753-.083 1.08.061 1.745 2.291 3.44 4.624 5.186 6.918.014-2.328 0-4.654 0-6.975h.969v8.719h-1.002c-1.744-2.326-3.488-4.662-5.231-6.986v6.984h-1.009zm11.926 0c1.236-.01 2.474-.018 3.714 0a4.41 4.41 0 0 1 3.657 2.06c.992 1.603.805 3.854-.498 5.232a4.557 4.557 0 0 1 -3.328 1.417h-3.54c-.007-2.898 0-5.805-.005-8.71zm1.01.96v6.817c1.065-.029 2.137.068 3.197-.065a3.362 3.362 0 0 0 2.784-3.435c0-1.565-1.237-2.987-2.773-3.242-1.067-.15-2.14-.048-3.208-.075z" fill="#1b154d"/></svg>