<svg width="186" height="118" viewBox="0 0 186 118" fill="none" xmlns="http://www.w3.org/2000/svg">
<path d="M45.0224 40.5801C45.2208 41.1861 44.9506 43.2874 44.2116 46.8842C44.0637 47.6035 43.2449 51.3222 41.755 58.0404C40.6778 62.946 39.9754 66.4349 39.6476 68.5071C39.2468 70.795 38.9369 73.5803 38.718 76.8629C38.4655 81.0671 38.213 85.2713 37.9605 89.4755C37.7664 90.7851 37.4003 91.9354 36.8622 92.9263C36.3532 93.8598 35.7524 94.44 35.0599 94.6668C34.4973 94.851 33.9219 94.704 33.3339 94.2256C32.7892 93.7331 32.2972 92.8159 31.8577 91.4742C30.2417 86.5401 28.9956 81.1254 28.1192 75.2302C27.2719 69.2775 26.4824 63.2819 25.7508 57.2434C23.9138 64.219 22.418 70.6995 21.2631 76.6848C20.0635 82.9724 19.3449 88.1679 19.1073 92.2714C19.0557 93.8698 18.997 95.4466 18.9313 97.0017C18.7304 99.6075 18.0889 101.088 17.0068 101.442C16.1852 101.567 15.6185 101.154 15.3066 100.202C14.8105 98.6867 14.8331 95.756 15.3744 91.4092C15.5991 89.7541 15.8239 88.099 16.0486 86.4439C16.8698 80.9033 18.215 74.3284 20.0841 66.7193C22.0412 58.7938 23.7049 53.2648 25.0752 50.1322C25.8044 48.4078 26.5801 47.4109 27.4025 47.1416C28.3114 46.8439 28.9218 47.1711 29.2337 48.1233C29.3612 48.5129 29.3881 48.8875 29.3142 49.2472C28.787 53.6371 29.2567 60.1927 30.7232 68.9139C31.9524 76.1793 33.2475 81.8894 34.6083 86.0445C34.7151 84.9073 35.0093 82.3668 35.4909 78.423C35.9112 75.1703 36.1983 72.6081 36.3522 70.7366C36.7583 67.4406 37.1331 64.6341 37.4766 62.3171C37.8805 59.4531 38.3717 56.4167 38.9502 53.208C39.5721 49.9851 40.2069 47.0216 40.8548 44.3173C41.4886 41.5697 42.3898 40.0046 43.5584 39.6219C44.2367 39.3518 44.7247 39.6712 45.0224 40.5801Z" fill="white"/>
<path d="M57.0519 49.3643C57.3921 50.403 57.2055 51.6623 56.492 53.142C55.8076 54.5642 55.0759 55.4029 54.2968 55.6581C53.3879 55.9558 52.7562 55.5636 52.4018 54.4815C52.0758 53.4861 52.2479 52.2556 52.9181 50.79C53.5883 49.3245 54.313 48.4641 55.092 48.209C56.0442 47.8971 56.6975 48.2822 57.0519 49.3643ZM54.3623 63.7598C54.5749 64.4091 54.5133 65.1721 54.1774 66.0489C53.4624 67.8166 52.8193 70.9746 52.2481 75.5228C51.6628 80.0277 51.4812 83.0584 51.7035 84.6151C51.9258 86.1717 51.5683 87.0556 50.631 87.2667C50.2848 87.3801 49.9038 87.2413 49.4882 86.8502C49.0726 86.4592 48.7726 85.9823 48.5884 85.4197C47.8796 83.2556 47.897 79.9431 48.6405 75.4822C49.2654 71.6833 50.1917 68.0731 51.4195 64.6517C51.5508 64.3212 51.7255 63.9764 51.9434 63.6175C52.2046 63.2444 52.53 62.9941 52.9195 62.8665C53.6404 62.7263 54.1213 63.024 54.3623 63.7598Z" fill="white"/>
<path d="M77.238 63.4565C77.7341 64.9714 77.303 67.5327 75.9446 71.1406C74.3526 75.3522 72.0507 79.0055 69.0387 82.1007C68.6161 85.7855 68.1386 88.9371 67.6064 91.5556C66.8375 95.3538 65.9508 98.28 64.9463 100.334C63.6506 102.963 62.0506 104.589 60.1462 105.213C58.0254 105.908 56.5185 104.892 55.6254 102.165C54.9025 99.9575 55.4437 97.0007 57.2491 93.2943C59.0545 89.5879 61.8392 85.8723 65.6034 82.1474C65.9558 80.8819 66.1767 79.9469 66.2663 79.3424C66.4156 78.335 66.3839 77.5067 66.1713 76.8575C65.5593 78.2081 64.8839 79.292 64.1451 80.109C63.3921 80.8828 62.6044 81.4044 61.7821 81.6737C60.0508 82.2407 58.845 81.4854 58.1645 79.4079C57.2715 76.6812 57.7471 72.4997 59.5915 66.8636C61.5671 60.897 63.9833 57.4459 66.8399 56.5103C67.8786 56.1701 68.8073 56.2254 69.6259 56.6762C70.4444 57.1269 71.0097 57.8284 71.3215 58.7806C71.5341 59.4299 71.6244 60.0712 71.5923 60.7048C71.5892 61.2809 71.4489 61.9498 71.1712 62.7117C71.907 62.4707 72.2954 62.5592 72.3365 62.9771C71.6602 65.5948 71.0642 68.0185 70.5484 70.2481C69.9445 72.7942 69.7821 74.9321 70.061 76.6619C71.6865 74.3084 72.9813 71.8236 73.9456 69.2074C74.7345 67.08 75.5164 64.9309 76.2911 62.7602C76.7239 62.6184 77.0395 62.8505 77.238 63.4565ZM68.0674 61.356C67.8406 60.6635 67.381 60.4306 66.6885 60.6574C65.4766 61.0543 64.0821 63.3082 62.505 67.419C60.8257 71.803 60.3121 74.9904 60.9642 76.9814C61.2902 77.9769 61.8428 78.347 62.6218 78.0919C63.4009 77.8367 64.1322 77.07 64.8159 75.7918C65.6301 74.327 66.369 72.1201 67.0326 69.1711C66.2543 69.2822 65.8297 69.2296 65.7588 69.0132C66.1962 68.0073 66.6556 66.9223 67.137 65.7583C67.6475 64.5367 67.9636 63.307 68.0853 62.069L68.0674 61.356ZM65.4285 86.6617C63.9137 87.1578 62.2614 89.1367 60.4717 92.5983C58.6529 96.1174 57.9916 98.6343 58.4877 100.149C58.6011 100.495 58.8518 100.749 59.2399 100.909C59.6279 101.07 60.0167 101.086 60.4062 100.959C61.5748 100.576 62.5782 98.7376 63.4165 95.4439C64.0801 92.4948 64.7507 89.5674 65.4285 86.6617Z" fill="white"/>
<path d="M97.7659 57.3804C98.3471 59.1549 97.9656 61.8678 96.6214 65.519C95.1167 69.5582 93.1958 71.9605 90.8586 72.726C90.0795 72.9811 89.4101 72.9128 88.8505 72.521C88.32 72.0717 87.9059 71.3926 87.6082 70.4837C87.112 68.9689 87.0003 66.9447 87.2728 64.4113C87.5453 61.8779 88.1067 59.202 88.9568 56.3836C85.2552 61.9091 83.1937 67.7601 82.7724 73.9365C82.6029 76.0528 82.0636 77.2598 81.1547 77.5575C80.2025 77.8693 79.5351 77.4409 79.1523 76.2723C78.8263 75.2768 78.8533 72.8718 79.2334 69.0571C79.5664 65.9767 79.9629 63.1631 80.4227 60.6163C81.7112 53.8683 82.8329 45.9528 83.788 36.8699C84.2278 32.6522 85.0969 30.3308 86.3954 29.9055C87.564 29.5228 88.3397 29.9158 88.7224 31.0844C88.9776 31.8634 88.6845 34.1879 87.8433 38.0578C87.0453 41.9134 86.2257 45.7762 85.3844 49.646C84.3946 54.3793 83.8656 57.7395 83.7976 59.7267C85.1656 57.0262 86.5813 54.8372 88.0448 53.1598C89.262 51.7548 90.3467 50.8963 91.2989 50.5845C92.3377 50.2443 92.9988 50.507 93.2823 51.3726C93.3673 51.6323 93.3867 52.0573 93.3404 52.6475C92.3992 56.3584 91.7005 59.1272 91.2444 60.954C90.4346 64.3343 90.1714 66.4573 90.4549 67.3229C90.6533 67.9289 91.0339 68.1397 91.5965 67.9554C92.5055 67.6577 93.2148 66.9701 93.7245 65.8926C93.7828 65.7777 94.3776 63.5701 95.5092 59.2697C95.9339 57.9325 96.4492 57.1646 97.0552 56.9662C97.4014 56.8528 97.6383 56.9908 97.7659 57.3804Z" fill="white"/>
<path d="M115.611 37.4462C116.167 38.5582 115.492 39.57 113.586 40.4817C110.279 42.0919 108.098 43.3334 107.042 44.2064C106.108 49.2568 105.538 53.589 105.332 57.2029C105.143 60.14 105.248 62.2145 105.645 63.4264C105.957 64.3786 106.48 64.7342 107.216 64.4933C108.082 64.2097 108.973 63.127 109.89 61.2451C110.837 59.3058 111.46 57.2567 111.759 55.0979C111.85 54.2054 112.155 53.6741 112.675 53.504C113.339 53.1906 113.813 53.4668 114.096 54.3324C114.692 56.1503 114.203 58.7545 112.629 62.1453C111.085 65.4785 109.318 67.4712 107.327 68.1233C106.245 68.4776 105.179 68.3712 104.131 67.804C103.083 67.2368 102.332 66.2607 101.878 64.8757C101.198 62.7982 101.055 59.8017 101.45 55.8863C101.753 53.0074 102.251 50.1367 102.943 47.2742C102.147 47.9182 101.511 48.3181 101.035 48.474C100.04 48.8001 99.3719 48.4437 99.0317 47.4049C98.7623 46.5826 99.184 45.8215 100.297 45.1216C101.453 44.4075 102.63 43.6864 103.829 42.9581C104.845 38.7436 105.696 35.8531 106.381 34.2868C107.052 32.6773 107.82 31.7308 108.686 31.4473C109.307 31.1481 109.759 31.4313 110.042 32.2969C110.269 32.9894 110.134 34.1121 109.636 35.665C108.904 37.9655 108.493 39.346 108.404 39.8064C109.358 39.2065 110.239 38.6783 111.048 38.2216C111.857 37.765 112.63 37.4162 113.365 37.1752C114.664 36.75 115.412 36.8403 115.611 37.4462Z" fill="white"/>
<path d="M132.735 15.3758C133.841 18.7518 132.983 24.4003 130.162 32.3212C127.618 39.4803 124.59 45.6719 121.077 50.8959C120.684 54.3793 120.658 56.6403 120.998 57.6791C121.253 58.4582 121.576 58.7839 121.965 58.6563C122.701 58.4154 123.528 57.2819 124.446 55.256C125.393 53.1726 125.863 51.3891 125.857 49.9057C125.963 48.9124 126.297 48.3237 126.86 48.1394C127.163 48.0402 127.465 48.085 127.766 48.2738C128.097 48.4052 128.333 48.6872 128.475 49.1201C128.985 50.6782 128.338 53.2385 126.533 56.8008C124.729 60.3631 123.112 62.3782 121.684 62.846C120.083 63.3705 118.935 62.5723 118.24 60.4515C118.056 59.8888 117.93 59.1392 117.863 58.2027C117.604 49.9487 118.52 41.3337 120.613 32.3575C122.572 23.9999 124.835 18.1788 127.402 14.8941C128.199 13.9621 128.922 13.3898 129.571 13.1772C130.264 12.9504 130.897 13.0546 131.471 13.4896C132.03 13.8814 132.452 14.5102 132.735 15.3758ZM130.001 17.7811C129.802 17.1751 129.465 16.9501 128.989 17.106C127.907 17.4604 126.477 20.8519 124.701 27.2805C122.91 33.6658 122.018 38.99 122.025 43.2532C124.39 39.9386 126.474 35.2544 128.277 29.2004C130.021 23.4053 130.596 19.5989 130.001 17.7811Z" fill="white"/>
<path d="M140.361 22.0798C140.701 23.1185 140.515 24.3778 139.801 25.8575C139.117 27.2797 138.385 28.1184 137.606 28.3736C136.697 28.6713 136.065 28.2791 135.711 27.197C135.385 26.2015 135.557 24.971 136.227 23.5055C136.898 22.04 137.622 21.1796 138.401 20.9245C139.353 20.6126 140.007 20.9977 140.361 22.0798ZM137.671 36.4753C137.884 37.1245 137.822 37.8876 137.487 38.7643C136.772 40.5321 136.129 43.6901 135.557 48.2383C134.972 52.7432 134.79 55.7739 135.013 57.3306C135.235 58.8872 134.877 59.7711 133.94 59.9822C133.594 60.0956 133.213 59.9568 132.797 59.5657C132.382 59.1747 132.082 58.6978 131.898 58.1351C131.189 55.971 131.206 52.6586 131.95 48.1977C132.575 44.3987 133.501 40.7886 134.729 37.3672C134.86 37.0367 135.035 36.6919 135.253 36.333C135.514 35.9599 135.839 35.7096 136.229 35.582C136.95 35.4418 137.43 35.7395 137.671 36.4753Z" fill="white"/>
<path d="M154.392 7.06103C154.604 7.71026 154.449 8.55199 153.925 9.58622C152.644 12.1143 151.35 15.773 150.043 20.5621C148.736 25.3513 147.77 29.7894 147.143 33.8764C148.099 32.9885 149.017 32.2084 149.899 31.5361C151.287 30.5064 152.566 29.8002 153.734 29.4174C154.73 29.0914 155.652 29.053 156.5 29.3023C157.392 29.5375 157.994 29.9871 158.308 30.6513C158.435 31.0408 158.282 31.5225 157.846 32.0963C157.455 32.6559 157.021 33.0137 156.545 33.1696C156.372 33.2263 155.753 33.1655 154.688 32.9871C154.127 32.8833 153.586 32.9165 153.067 33.0866C152.245 33.3559 151.024 34.0912 149.404 35.2925C147.771 36.4505 146.62 37.6183 145.951 38.7958C147.679 38.8049 149.202 39.5762 150.519 41.1098C151.607 42.3829 152.477 44.015 153.129 46.0059C155.921 54.5325 156.352 61.7 154.42 67.5084C152.942 71.9222 150.775 74.5969 147.918 75.5325C146.88 75.8727 145.815 75.6222 144.725 74.7812C143.606 73.9976 142.784 72.805 142.259 71.2036C141.82 69.8619 141.511 68.4056 141.332 66.8348C141.167 65.3073 141.082 63.6577 141.077 61.8862C141.079 58.6745 141.354 54.3191 141.902 48.8203C142.129 46.5891 142.216 45.1709 142.162 44.5657C142.003 44.6657 141.793 44.7582 141.534 44.8432C140.841 45.07 140.417 44.9454 140.261 44.4693C140.077 43.9066 140.254 42.9858 140.794 41.7068C141.334 40.4278 142.14 39.0134 143.214 37.4636C143.986 33.0893 144.579 29.8518 144.993 27.7513C145.674 24.2694 146.434 20.8816 147.272 17.5879C148.139 14.2366 149.004 11.4615 149.865 9.26244C150.172 8.44311 150.578 7.78273 151.085 7.28131C151.578 6.7366 152.084 6.37919 152.603 6.20909C153.512 5.91141 154.108 6.19539 154.392 7.06103ZM150.377 47.4821C149.853 45.8807 149.219 44.6027 148.475 43.6483C147.731 42.6938 146.883 42.2285 145.933 42.2523C145.514 45.217 145.136 50.0615 144.798 56.7856C144.503 63.4957 144.547 67.435 144.93 68.6036C145.242 69.5558 145.649 70.2132 146.151 70.5759C146.668 70.9819 147.142 71.114 147.575 70.9723C149.35 70.3911 150.659 67.8055 151.504 63.2156C152.482 58.007 152.107 52.7625 150.377 47.4821Z" fill="white"/>
<path d="M175.284 34.5086C175.78 36.0234 174.866 38.5751 172.543 42.1635C170.06 45.9959 167.477 48.3516 164.794 49.2304C163.452 49.6699 162.099 49.5619 160.734 48.9067C159.398 48.1939 158.489 47.1018 158.007 45.6302C157.398 43.7691 157.294 41.5505 157.697 38.9746C158.025 36.7583 158.604 34.8675 159.433 33.3019C160.569 30.9171 161.666 29.1441 162.723 27.9831C163.767 26.7788 164.721 26.0348 165.587 25.7513C166.409 25.482 167.165 25.522 167.854 25.8713C168.544 26.2205 169.009 26.7631 169.25 27.4989C169.704 28.8839 169.514 30.7912 168.68 33.2209C168.08 35.0468 167.257 36.778 166.211 38.4144C165.775 39.2763 165.05 40.2086 164.036 41.2115C163.312 41.9278 162.488 42.6292 161.563 43.3156C161.903 44.3544 162.374 45.0626 162.977 45.4402C163.609 45.7604 164.336 45.7858 165.159 45.5165C166.501 45.0771 167.933 43.8892 169.455 41.9528C171.021 40.0023 172.263 37.8701 173.183 35.5561C173.606 34.507 173.991 33.9257 174.337 33.8123C174.77 33.6705 175.085 33.9026 175.284 34.5086ZM166.599 30.3799C166.429 29.8605 166.07 29.6426 165.523 29.7261C164.83 29.9529 164.164 30.6983 163.523 31.9624C163.014 32.8959 162.489 34.1461 161.948 35.7132C161.436 37.2227 161.091 38.5099 160.912 39.5748C162.341 39.107 163.738 37.7389 165.103 35.4705C166.469 33.2021 166.968 31.5052 166.599 30.3799Z" fill="white"/>
</svg>
